<?xml version="1.0" standalone="no"?>
<!DOCTYPE svg PUBLIC "-//W3C//DTD SVG 1.1//EN" "http://www.w3.org/Graphics/SVG/1.1/DTD/svg11.dtd" >
<svg xmlns="http://www.w3.org/2000/svg" xmlns:xlink="http://www.w3.org/1999/xlink" version="1.1">
<metadata>
Created by FontForge 20170731 at Thu Jan  2 20:09:58 2014
 By Aleksey,,,
Copyright (c)2013 Commercial Type.
</metadata>
<defs>
<font id="Portrait-Regular" horiz-adv-x="400" >
  <font-face 
    font-family="Portrait Regular"
    font-weight="400"
    font-stretch="normal"
    units-per-em="1000"
    panose-1="2 0 0 0 0 0 0 0 0 0"
    ascent="730"
    descent="-270"
    x-height="410"
    cap-height="662"
    bbox="-65 -292 1276 991"
    underline-thickness="34"
    underline-position="20"
    unicode-range="U+000D-FB04"
  />
<missing-glyph horiz-adv-x="219" 
 />
    <glyph glyph-name="f_b" unicode="fb" horiz-adv-x="747" 
d="M241 6v-6h-223v6l60 43v313h-64v7l64 38v46q0 114 71 188t178 74q43 0 93 -9v-352q20 25 55.5 45.5t73.5 20.5q81 0 125.5 -55t44.5 -139q0 -91 -60 -163.5t-166 -72.5q-34 0 -84.5 5t-67.5 5h-1v661q-22 14 -56 14q-49 0 -88 -46t-39 -135v-87h139l-38 -45h-101v-308z
M519 367q-60 0 -96 -38v-287q33 -18 73 -18q64 0 103.5 50.5t39.5 129.5q0 78 -34 120.5t-86 42.5z" />
    <glyph glyph-name="f_f_b" unicode="ffb" horiz-adv-x="1008" 
d="M238 6v-6h-220v6l60 43v313h-64v7l64 38v38q0 111 65 187t164 76q35 0 70 -7l-27 -61q-48 29 -85 29t-72.5 -46.5t-35.5 -131.5v-84h182v46q0 114 71 188t178 74q43 0 93 -9v-352q20 25 55.5 45.5t73.5 20.5q81 0 125.5 -55t44.5 -139q0 -91 -60 -163.5t-166 -72.5
q-34 0 -84.5 5t-67.5 5h-1v661q-22 14 -56 14q-49 0 -88 -46t-39 -135v-87h139l-38 -45h-101v-308l84 -48v-6h-223v6l60 43v313h-182v-309zM780 367q-60 0 -96 -38v-287q33 -18 73 -18q64 0 103.5 50.5t39.5 129.5q0 78 -34 120.5t-86 42.5z" />
    <glyph glyph-name="f_f_h" unicode="ffh" horiz-adv-x="1031" 
d="M238 6v-6h-220v6l60 43v313h-64v7l64 38v38q0 111 65 187t164 76q35 0 70 -7l-27 -61q-48 29 -85 29t-72.5 -46.5t-35.5 -131.5v-84h182v46q0 114 71 188t178 74q43 0 93 -9v-355q74 69 149 69q51 0 88 -31.5t37 -73.5v-266l60 -43v-6h-198v6l59 43v241q0 34 -24 56.5
t-67 22.5q-54 0 -104 -48v-272l60 -43v-6h-198v6l59 43v611q-21 15 -57 15q-49 0 -88 -46t-39 -135v-87h139l-38 -45h-101v-308l84 -48v-6h-223v6l60 43v313h-182v-309z" />
    <glyph glyph-name="f_f_j" unicode="ffj" horiz-adv-x="739" 
d="M238 6v-6h-220v6l60 43v313h-64v7l64 38v38q0 111 65 187t164 76q35 0 70 -7l-27 -61q-48 29 -85 29t-72.5 -46.5t-35.5 -131.5v-84h182v45q0 111 69.5 187t170.5 76q43 0 87 -13l-30 -67q-64 41 -101 41q-40 0 -78.5 -48t-38.5 -134v-87h196q10 4 28.5 9t28.5 8v-370
q0 -20 -3.5 -43t-15 -66t-42.5 -94.5t-77 -100.5l-10 6q69 141 69 299v307h-174v-309l82 -47v-6h-221v6l60 43v313h-182v-309z" />
    <glyph glyph-name="f_f_k" unicode="ffk" horiz-adv-x="995" 
d="M238 6v-6h-220v6l60 43v313h-64v7l64 38v38q0 111 65 187t164 76q35 0 70 -7l-27 -61q-48 29 -85 29t-72.5 -46.5t-35.5 -131.5v-84h182v46q0 114 71 188t178 74q43 0 93 -9v-657l60 -43v-6h-198v6l59 43v611q-21 15 -57 15q-49 0 -88 -46t-39 -135v-87h139l-38 -45h-101
v-308l84 -48v-6h-223v6l60 43v313h-182v-309zM692 229v6l133 123l-53 47v5h194v-5l-89 -43l-115 -102l99 -131q74 -97 133 -123v-6q-15 -9 -55 -9t-68 20t-67 73z" />
    <glyph glyph-name="f_h" unicode="fh" horiz-adv-x="770" 
d="M282 0v6l59 43v611q-21 15 -57 15q-49 0 -88 -46t-39 -135v-87h139l-38 -45h-101v-308l84 -48v-6h-223v6l60 43v313h-64v7l64 38v46q0 114 71 188t178 74q43 0 93 -9v-355q74 69 149 69q51 0 88 -31.5t37 -73.5v-266l60 -43v-6h-198v6l59 43v241q0 34 -24 56.5t-67 22.5
q-54 0 -104 -48v-272l60 -43v-6h-198z" />
    <glyph glyph-name="f_j" unicode="fj" horiz-adv-x="478" 
d="M274 676q-40 0 -78.5 -48t-38.5 -134v-87h196q10 4 28.5 9t28.5 8v-370q0 -20 -3.5 -43t-15 -66t-42.5 -94.5t-77 -100.5l-10 6q69 141 69 299v307h-174v-309l82 -47v-6h-221v6l60 43v313h-64v7l64 38v45q0 111 69.5 187t170.5 76q43 0 87 -13l-30 -67q-64 41 -101 41z
" />
    <glyph glyph-name="f_k" unicode="fk" horiz-adv-x="734" 
d="M241 6v-6h-223v6l60 43v313h-64v7l64 38v46q0 114 71 188t178 74q43 0 93 -9v-657l60 -43v-6h-198v6l59 43v611q-21 15 -57 15q-49 0 -88 -46t-39 -135v-87h139l-38 -45h-101v-308zM431 229v6l133 123l-53 47v5h194v-5l-89 -43l-115 -102l99 -131q74 -97 133 -123v-6
q-15 -9 -55 -9t-68 20t-67 73z" />
    <glyph glyph-name="g_g" unicode="gg" horiz-adv-x="849" 
d="M455 274q0 61 49.5 103.5t117.5 42.5q36 0 65 -10h153v-37h-99q49 -38 49 -94q0 -62 -49.5 -104t-118.5 -42q-31 0 -53 7q-40 -30 -40 -52q0 -38 44 -38h172q28 0 61.5 -30.5t33.5 -83.5q0 -80 -75.5 -146.5t-168.5 -66.5q-71 0 -114.5 30.5t-43.5 77.5q0 71 93 148
q-29 9 -48 31t-19 53q0 30 11 39l68 47q-40 18 -64 51t-24 74zM33 274q0 61 49.5 103.5t117.5 42.5q36 0 65 -10h153v-37h-99q49 -38 49 -94q0 -62 -49.5 -104t-118.5 -42q-31 0 -53 7q-40 -30 -40 -52q0 -38 44 -38h166q28 0 61.5 -30.5t33.5 -83.5q0 -80 -75.5 -146.5
t-168.5 -66.5q-71 0 -114.5 31t-43.5 77q0 74 94 150q-62 21 -62 82q0 30 11 39l68 47q-40 18 -64 51t-24 74zM555 -26q-52 -52 -52 -115q0 -39 36 -64t93 -25q60 0 105 37t45 86q0 81 -95 81h-125h-7zM140 -26q-10 0 -13 1q-52 -59 -52 -116q0 -39 36 -64t93 -25
q60 0 105 37t45 86q0 81 -95 81h-119zM537 276q0 -48 24 -81.5t62 -33.5q37 0 60.5 33.5t23.5 81.5q0 49 -23.5 82.5t-60.5 33.5q-38 0 -62 -33.5t-24 -82.5zM115 276q0 -48 24 -81.5t62 -33.5q37 0 60.5 33.5t23.5 81.5q0 49 -23.5 82.5t-60.5 33.5q-38 0 -62 -33.5
t-24 -82.5z" />
    <glyph glyph-name="f_f" unicode="ff" horiz-adv-x="553" 
d="M238 6v-6h-220v6l60 43v313h-64v7l64 38v38q0 111 65 187t164 76q35 0 70 -7l-27 -61q-48 29 -85 29t-72.5 -46.5t-35.5 -131.5v-84h182v45q0 114 69.5 188.5t174.5 74.5q54 0 88 -10l-28 -63q-60 34 -104 34q-43 0 -82 -47.5t-39 -134.5v-87h140l-38 -45h-102v-308
l84 -48v-6h-223v6l60 43v313h-182v-309z" />
    <glyph glyph-name="f_i" unicode="fi" horiz-adv-x="498" 
d="M239 6v-6h-221v6l60 43v313h-64v7l64 38v45q0 114 69.5 188.5t174.5 74.5q48 0 97 -17l-32 -67q-71 45 -114 45q-40 0 -78 -47.5t-38 -134.5v-87h204l57 17v-375l60 -43v-6h-198v6l59 43v313h-182v-309z" />
    <glyph glyph-name="f_l" unicode="fl" horiz-adv-x="500" 
d="M341 660q-21 15 -57 15q-49 0 -88 -46t-39 -135v-87h139l-38 -45h-101v-308l84 -48v-6h-223v6l60 43v313h-64v7l64 38v46q0 114 71 188t178 74q43 0 93 -9v-657l60 -43v-6h-198v6l59 43v611z" />
    <glyph glyph-name="f_f_i" unicode="ffi" horiz-adv-x="759" 
d="M238 6v-6h-220v6l60 43v313h-64v7l64 38v38q0 111 65 187t164 76q35 0 70 -7l-27 -61q-48 29 -85 29t-72.5 -46.5t-35.5 -131.5v-84h182v45q0 114 69.5 188.5t174.5 74.5q48 0 97 -17l-32 -67q-71 45 -114 45q-40 0 -78 -47.5t-38 -134.5v-87h204l57 17v-375l60 -43v-6
h-198v6l59 43v313h-182v-309l82 -47v-6h-221v6l60 43v313h-182v-309z" />
    <glyph glyph-name="f_f_l" unicode="ffl" horiz-adv-x="761" 
d="M238 6v-6h-220v6l60 43v313h-64v7l64 38v38q0 111 65 187t164 76q35 0 70 -7l-27 -61q-48 29 -85 29t-72.5 -46.5t-35.5 -131.5v-84h182v46q0 114 71 188t178 74q43 0 93 -9v-657l60 -43v-6h-198v6l59 43v611q-21 15 -57 15q-49 0 -88 -46t-39 -135v-87h139l-38 -45h-101
v-308l84 -48v-6h-223v6l60 43v313h-182v-309z" />
    <glyph glyph-name=".notdef" horiz-adv-x="219" 
 />
    <glyph glyph-name=".null" horiz-adv-x="0" 
 />
    <glyph glyph-name="nonmarkingreturn" horiz-adv-x="333" 
 />
    <glyph glyph-name="NULL" horiz-adv-x="0" 
 />
    <glyph glyph-name="NULL" horiz-adv-x="0" 
 />
    <glyph glyph-name="CR" unicode="&#xd;" horiz-adv-x="219" 
 />
    <glyph glyph-name="space" unicode=" " horiz-adv-x="219" 
 />
    <glyph glyph-name="exclam" unicode="!" horiz-adv-x="200" 
d="M145 662l-39 -451h-13l-39 451h91zM50 41q0 23 14 36.5t36 13.5t36 -13.5t14 -36.5q0 -21 -14 -35.5t-36 -14.5q-21 0 -35.5 14.5t-14.5 35.5z" />
    <glyph glyph-name="quotedbl" unicode="&#x22;" horiz-adv-x="290" 
d="M241 655q0 -10 -30 -201h-8q-30 191 -30 201q0 40 34 40t34 -40zM117 655q0 -10 -30 -201h-8q-30 191 -30 201q0 40 34 40t34 -40z" />
    <glyph glyph-name="numbersign" unicode="#" horiz-adv-x="408" 
d="M295 434l-36 -162h95v-28h-101l-54 -244h-30l54 244h-90l-54 -244h-31l54 244h-88v28h94l35 162h-87v28h93l45 200h33l-45 -200h88l45 200h31l-45 -200h95v-28h-101zM140 272h89l35 162h-88z" />
    <glyph glyph-name="dollar" unicode="$" horiz-adv-x="461" 
d="M204 -10l-10 -96h-32l10 100q-69 10 -116 38q-12 87 -8 164h7q36 -137 121 -164l30 281q-80 54 -115.5 97t-35.5 101q0 70 52 116t132 46h4l8 75h32l-8 -76q42 -3 91 -18v-94h-5q-39 60 -90 75l-25 -242l15 -9q81 -55 117 -101.5t36 -108.5q0 -78 -53 -131t-143 -53h-14z
M334 139q0 49 -23 83t-76 71l-27 -267h11q51 0 83 33.5t32 79.5zM133 540q0 -41 20.5 -69.5t62.5 -56.5l24 226h-6q-45 0 -73 -27.5t-28 -72.5z" />
    <glyph glyph-name="percent" unicode="%" horiz-adv-x="644" 
d="M471 28q43 0 71.5 30t28.5 75q0 46 -28.5 76t-71.5 30q-42 0 -71 -30.5t-29 -75.5t29 -75t71 -30zM328 132q0 59 42.5 101.5t100.5 42.5q60 0 101.5 -40.5t41.5 -100.5t-41.5 -102t-101.5 -42q-61 0 -102 40.5t-41 100.5zM30 526q0 59 42.5 101.5t100.5 42.5
q60 0 101.5 -40.5t41.5 -100.5t-41.5 -102t-101.5 -42q-61 0 -102 40.5t-41 100.5zM173 633q-42 0 -71 -30.5t-29 -75.5t29 -75t71 -30q43 0 71.5 30t28.5 75q0 46 -28.5 76t-71.5 30zM536 662h46l-469 -662h-47z" />
    <glyph glyph-name="ampersand" unicode="&#x26;" horiz-adv-x="701" 
d="M697 404q-62 -36 -87.5 -68.5t-78.5 -130.5q-11 -20 -33 -58q70 -108 160 -108q33 0 54 9l3 -4q-49 -52 -113 -52q-87 0 -154 87q-78 -93 -188 -93q-102 0 -164.5 54.5t-62.5 133.5q0 69 46 125t116 86q-67 67 -67 133q0 48 39 84t100 36q52 0 93 -27t41 -77
q0 -23 -8.5 -42.5t-27.5 -35t-31.5 -23.5t-37.5 -22q-6 -3 -9 -5q105 -104 190 -228l15 26q61 113 83 147l-69 53v6h191v-6zM427 109q-61 88 -103.5 139t-110.5 119q-96 -62 -96 -167q0 -71 44 -116.5t118 -45.5q84 0 148 71zM196 538q0 -28 15.5 -50t58.5 -66q63 43 63 108
q0 35 -19 57t-47 22q-31 0 -51 -20.5t-20 -50.5z" />
    <glyph glyph-name="quotesingle" unicode="'" horiz-adv-x="166" 
d="M117 655q0 -10 -30 -201h-8q-30 191 -30 201q0 40 34 40t34 -40z" />
    <glyph glyph-name="parenleft" unicode="(" horiz-adv-x="277" 
d="M56 283q0 139 57.5 263.5t139.5 209.5l7 -6q-132 -219 -132 -466q0 -239 132 -467l-7 -6q-84 88 -140.5 210.5t-56.5 261.5z" />
    <glyph glyph-name="parenright" unicode=")" horiz-adv-x="277" 
d="M221 283q0 -139 -56.5 -261.5t-140.5 -210.5l-7 6q132 228 132 467q0 247 -132 466l7 6q82 -85 139.5 -209.5t57.5 -263.5z" />
    <glyph glyph-name="asterisk" unicode="*" horiz-adv-x="275" 
d="M67 440l-7 3l37 90l-90 23v7l95 11l-29 92l6 4l63 -77l67 70l6 -4l-39 -90l92 -21v-7l-94 -12l28 -90l-7 -3l-60 75z" />
    <glyph glyph-name="plus" unicode="+" horiz-adv-x="472" 
d="M47 263h171v172h37v-172h170v-34h-170v-174h-37v174h-171v34z" />
    <glyph glyph-name="comma" unicode="," horiz-adv-x="184" 
d="M37 56q0 21 14 34t35 13q27 0 42.5 -19.5t15.5 -55.5q0 -54 -33.5 -102.5t-79.5 -82.5l-12 4q74 93 79 168q-1 -1 -5 -1q-2 -1 -11 -1q-20 0 -32.5 11.5t-12.5 31.5z" />
    <glyph glyph-name="hyphen" unicode="-" horiz-adv-x="258" 
d="M46 270h166v-61h-166v61z" />
    <glyph glyph-name="period" unicode="." horiz-adv-x="184" 
d="M42 41q0 23 14 36.5t36 13.5t36 -13.5t14 -36.5q0 -21 -14 -35.5t-36 -14.5q-21 0 -35.5 14.5t-14.5 35.5z" />
    <glyph glyph-name="slash" unicode="/" horiz-adv-x="329" 
d="M309 743l-296 -981l-33 11l295 981z" />
    <glyph glyph-name="zero" unicode="0" horiz-adv-x="497" 
d="M34 204q0 88 63 152t152 64q91 0 152.5 -62t61.5 -152t-62 -153t-152 -63q-92 0 -153.5 61t-61.5 153zM90 205q0 -73 46 -122t114 -49q67 0 112.5 49t45.5 122t-45.5 122t-114.5 49q-68 0 -113 -49t-45 -122z" />
    <glyph glyph-name="one" unicode="1" horiz-adv-x="255" 
d="M28 405v5h199v-5l-60 -46v-310l60 -43v-6h-199v6l60 43v310z" />
    <glyph glyph-name="two" unicode="2" horiz-adv-x="379" 
d="M44 329q41 91 127 91q53 0 84.5 -27t31.5 -81t-35.5 -104t-129.5 -140h259l-31 -68h-322v6q105 113 138 176.5t33 112.5q0 71 -69 71q-42 0 -79 -42z" />
    <glyph glyph-name="three" unicode="3" horiz-adv-x="331" 
d="M39 90q145 134 145 208q0 69 -60 69q-44 0 -67 -40l-7 5q8 30 36.5 59t74.5 29q49 0 75.5 -26.5t26.5 -73.5q0 -49 -35 -88.5t-103 -89.5q12 4 31 4q63 0 101.5 -33t38.5 -92q0 -88 -71.5 -162.5t-196.5 -142.5l-7 8q99 84 145 147t46 125q0 46 -28.5 72t-74.5 26
q-37 0 -63 -12z" />
    <glyph glyph-name="four" unicode="4" horiz-adv-x="466" 
d="M355 427v-373h97v-54h-97v-202l-78 -28v230h-275v6l344 421h9zM277 54v235l-191 -235h191z" />
    <glyph glyph-name="five" unicode="5" horiz-adv-x="310" 
d="M274 410l-36 -65h-125l-8 -18q146 -165 146 -280q0 -177 -271 -276l-4 9q196 114 196 235q0 49 -22.5 102.5t-42 81t-52.5 68.5q52 114 73 143h146z" />
    <glyph glyph-name="six" unicode="6" horiz-adv-x="463" 
d="M458 700q-137 -51 -231 -176t-94 -288q0 -92 37 -153t84 -61q39 0 68 39t29 95q0 62 -32.5 94t-76.5 32q-42 0 -78 -23l-5 5q58 58 126 58q64 0 105 -40t41 -108q0 -80 -54 -130.5t-129 -50.5q-81 0 -140.5 68.5t-59.5 190.5q0 87 37 167.5t96 139t130.5 98t143.5 51.5z
" />
    <glyph glyph-name="seven" unicode="7" horiz-adv-x="442" 
d="M50 410h372v-5l-280 -681l-35 8l247 609h-334z" />
    <glyph glyph-name="eight" unicode="8" horiz-adv-x="409" 
d="M206 670q61 0 102.5 -36.5t41.5 -92.5q0 -35 -15.5 -65t-34 -49t-60.5 -56l1 -1h1q49 -51 70.5 -76t40 -61t18.5 -72q0 -69 -49 -119t-118 -50q-72 0 -119 38.5t-47 106.5q0 53 29 96t95 105q-61 61 -84.5 100.5t-23.5 85.5q0 62 45.5 104t106.5 42zM180 319
q-73 -73 -73 -176q0 -52 27 -86t72 -35q39 0 65 34.5t26 81.5q0 43 -24 79t-88 98zM123 548q0 -36 22.5 -71.5t77.5 -88.5q66 66 66 153q0 48 -22 74t-64 26q-36 0 -58 -27t-22 -66z" />
    <glyph glyph-name="nine" unicode="9" horiz-adv-x="463" 
d="M31 -273q139 57 221 170.5t82 276.5q0 91 -39.5 152.5t-85.5 61.5q-39 0 -66 -39.5t-27 -94.5q0 -59 32 -91.5t73 -32.5q45 0 83 22l4 -4q-16 -20 -49 -39t-77 -19q-63 0 -105 41t-42 107q0 79 53 130t126 51q82 0 143.5 -69.5t61.5 -191.5q0 -87 -32.5 -163.5t-87 -131
t-122.5 -92t-143 -52.5z" />
    <glyph glyph-name="colon" unicode=":" horiz-adv-x="192" 
d="M46 370q0 23 14 36.5t36 13.5t36 -13.5t14 -36.5q0 -21 -14 -35.5t-36 -14.5q-21 0 -35.5 14.5t-14.5 35.5zM46 41q0 23 14 36.5t36 13.5t36 -13.5t14 -36.5q0 -21 -14 -35.5t-36 -14.5q-21 0 -35.5 14.5t-14.5 35.5z" />
    <glyph glyph-name="semicolon" unicode=";" horiz-adv-x="192" 
d="M46 370q0 23 14 36.5t36 13.5t36 -13.5t14 -36.5q0 -21 -14 -35.5t-36 -14.5q-21 0 -35.5 14.5t-14.5 35.5zM46 56q0 21 14 34t35 13q27 0 42.5 -19.5t15.5 -55.5q0 -54 -33.5 -102.5t-79.5 -82.5l-12 4q74 93 79 168q-1 -1 -5 -1q-2 -1 -11 -1q-20 0 -32.5 11.5
t-12.5 31.5z" />
    <glyph glyph-name="less" unicode="&#x3c;" horiz-adv-x="433" 
d="M385 102l-339 128v32l339 130v-34l-297 -112l297 -110v-34z" />
    <glyph glyph-name="equal" unicode="=" horiz-adv-x="459" 
d="M52 181v32h355v-32h-355zM52 270v32h355v-32h-355z" />
    <glyph glyph-name="greater" unicode="&#x3e;" horiz-adv-x="433" 
d="M48 136l296 110l-296 112v34l339 -130v-32l-339 -128v34z" />
    <glyph glyph-name="question" unicode="?" horiz-adv-x="336" 
d="M309 552q0 -35 -13.5 -62.5t-49.5 -63.5q-52 -52 -68 -69q-18 -19 -24 -32.5t-6 -35.5q0 -2 4 -78h-13q-43 96 -43 125q0 26 34 65l59 67q39 44 39 87q0 40 -23 61.5t-58 21.5q-64 0 -108 -79h-6v101q32 12 111 12q69 0 117 -28.5t48 -91.5zM97 41q0 23 14 36.5t36 13.5
t36 -13.5t14 -36.5q0 -21 -14 -35.5t-36 -14.5q-21 0 -35.5 14.5t-14.5 35.5z" />
    <glyph glyph-name="at" unicode="@" horiz-adv-x="876" 
d="M540 43q42 3 82.5 19.5t76.5 46.5t58 81t22 116q0 52 -16 97.5t-49 85t-92 62.5t-137 23q-86 0 -158.5 -35t-118.5 -91.5t-71.5 -125.5t-25.5 -140q0 -161 92.5 -255t236.5 -94q153 0 271 91l8 -9q-44 -47 -119.5 -85t-172.5 -38q-168 0 -275 101t-107 268
q0 122 61 226.5t167 165.5t231 61q158 0 248 -83t90 -201q0 -156 -111.5 -241t-269.5 -75l29 144q-96 -141 -168 -141q-24 0 -44 25t-20 70q0 60 29 121t95.5 111t157.5 59l79 34zM355 75q23 0 65.5 40t79.5 93l33 163q-82 -6 -140 -82t-58 -171q0 -43 20 -43z" />
    <glyph glyph-name="A" unicode="A" horiz-adv-x="636" 
d="M171 6v-6h-165v6l56 48l240 622h11l261 -622l56 -48v-6h-216v6l69 48l-94 225h-201l-86 -225zM201 312h174l-91 217z" />
    <glyph glyph-name="B" unicode="B" horiz-adv-x="567" 
d="M532 205q0 -69 -38 -117.5t-90 -68t-110 -19.5h-249v6l66 48v554l-66 48v6h230q91 0 144 -34.5t53 -105.5q0 -49 -37 -91.5t-82 -57.5q74 -7 126.5 -50t52.5 -118zM200 344v-295q44 -19 97 -19q58 0 101 44.5t43 115.5q0 77 -45.5 115.5t-120.5 38.5h-75zM200 631v-256
h87q38 0 69.5 41t31.5 94q0 59 -34.5 90t-95.5 31h-58z" />
    <glyph glyph-name="C" unicode="C" horiz-adv-x="670" 
d="M398 -11q-155 0 -256.5 94.5t-101.5 243.5q0 141 98.5 243.5t259.5 102.5q101 0 204 -29v-108h-5q-74 103 -203 103q-116 0 -185.5 -88t-69.5 -215q0 -136 76 -224.5t186 -88.5q121 0 210 110h5v-98q-89 -46 -218 -46z" />
    <glyph glyph-name="D" unicode="D" horiz-adv-x="721" 
d="M311 662q161 0 267 -86.5t106 -239.5q0 -148 -96 -242t-251 -94h-292v6l66 48v554l-66 48v6h266zM200 630v-574q48 -24 135 -24q112 0 181 82t69 221q0 133 -79 214t-197 81h-109z" />
    <glyph glyph-name="E" unicode="E" horiz-adv-x="558" 
d="M45 0v6l66 48v554l-66 48v6h437v-117h-6l-66 84h-210v-260h216l45 69h5v-170h-5l-45 68h-216v-302h230l70 104h6v-138h-461z" />
    <glyph glyph-name="F" unicode="F" horiz-adv-x="531" 
d="M461 438h5v-170h-5l-45 68h-216v-281l97 -49v-6h-252v6l66 48v554l-66 48v6h437v-124h-6l-68 91h-208v-259h216z" />
    <glyph glyph-name="G" unicode="G" horiz-adv-x="718" 
d="M633 44q-7 -2 -38.5 -14t-55 -19.5t-62.5 -14.5t-75 -7q-162 0 -262 95.5t-100 245.5q0 141 98 242t259 101q88 0 215 -29v-107h-5q-73 102 -210 102q-120 0 -189 -87.5t-69 -215.5q0 -131 74.5 -221.5t193.5 -90.5q79 0 136 37v229l-82 48v6h225v-6l-53 -48v-246z" />
    <glyph glyph-name="H" unicode="H" horiz-adv-x="773" 
d="M200 354h373v254l-66 48v6h221v-6l-66 -48v-554l66 -48v-6h-221v6l66 48v265h-373v-265l66 -48v-6h-221v6l66 48v554l-66 48v6h221v-6l-66 -48v-254z" />
    <glyph glyph-name="I" unicode="I" horiz-adv-x="311" 
d="M45 0v6l66 48v554l-66 48v6h221v-6l-66 -48v-554l66 -48v-6h-221z" />
    <glyph glyph-name="J" unicode="J" horiz-adv-x="293" 
d="M37 656v6h221v-6l-66 -48v-512q0 -72 -49.5 -163.5t-121.5 -153.5l-10 7q92 137 92 345v477z" />
    <glyph glyph-name="K" unicode="K" horiz-adv-x="654" 
d="M45 0v6l66 48v554l-66 48v6h222v-6l-67 -48v-554l67 -48v-6h-222zM651 0h-244v6l66 48l-225 280h-34l261 274l-66 48v6h197v-6l-75 -43l-217 -221l262 -338l75 -48v-6z" />
    <glyph glyph-name="L" unicode="L" horiz-adv-x="559" 
d="M516 160h6v-160h-477v6l66 48v554l-66 48v6h222v-6l-67 -48v-574h230z" />
    <glyph glyph-name="M" unicode="M" horiz-adv-x="864" 
d="M812 656l-66 -48v-549l73 -53v-6h-235v6l73 53v470l-250 -471h-9l-250 467v-466l73 -53v-6h-183v6l73 53v521q-17 31 -55 76v6h117l257 -487l255 487h127v-6z" />
    <glyph glyph-name="N" unicode="N" horiz-adv-x="765" 
d="M38 0v6l73 53v522q-42 47 -77 75v6h124l460 -525v466l-75 53v6h189v-6l-73 -53v-603h-32l-475 535v-476l75 -53v-6h-189z" />
    <glyph glyph-name="O" unicode="O" horiz-adv-x="743" 
d="M42 323q0 149 95 249.5t234 100.5q138 0 234 -95t96 -241q0 -148 -96.5 -248t-233.5 -100t-233 94.5t-96 239.5zM141 330q0 -138 66.5 -222.5t163.5 -84.5t164.5 85t67.5 222q0 138 -67.5 223.5t-164.5 85.5q-98 0 -164 -85t-66 -224z" />
    <glyph glyph-name="P" unicode="P" horiz-adv-x="544" 
d="M513 478q0 -101 -78 -158.5t-189 -55.5v9q71 11 123.5 62.5t52.5 130.5q0 75 -45 120t-130 45h-47v-577l76 -48v-6h-231v6l66 48v554l-66 48v6h238q103 0 166.5 -47.5t63.5 -136.5z" />
    <glyph glyph-name="Q" unicode="Q" horiz-adv-x="741" 
d="M700 337q0 -117 -69.5 -212t-190.5 -126q140 -65 207.5 -93.5t158 -50.5t182.5 -22q57 0 85 7l2 -6q-25 -21 -83 -39.5t-127 -18.5q-91 0 -219.5 49.5t-358.5 168.5q-245 100 -245 329q0 149 95 249.5t234 100.5q138 0 233.5 -95t95.5 -241zM141 330q0 -140 67 -223.5
t171 -83.5q91 0 157.5 84.5t66.5 222.5q0 140 -67 224.5t-165 84.5t-164 -84.5t-66 -224.5z" />
    <glyph glyph-name="R" unicode="R" horiz-adv-x="609" 
d="M45 0v6l66 48v554l-66 48v6h247q95 0 147 -39t52 -102q0 -60 -36.5 -103t-84.5 -65l119 -201q28 -47 59 -82t49 -48t29 -16v-6q-30 -6 -50 -6q-47 0 -84.5 23t-76.5 91l-130 224h-85v-278l76 -48v-6h-231zM200 631v-269h91q47 0 79 40t32 94q0 68 -39.5 101.5t-98.5 33.5
h-64z" />
    <glyph glyph-name="S" unicode="S" horiz-adv-x="470" 
d="M252 673q74 0 128 -20v-94h-5q-51 81 -129 81q-45 0 -74 -26t-29 -68q0 -49 28.5 -81t99.5 -81q42 -30 63 -47.5t46.5 -44.5t36 -55.5t10.5 -63.5q0 -79 -54 -131t-146 -52q-99 0 -173 42q-12 87 -8 164h7q46 -171 174 -171q52 0 85.5 33.5t33.5 82.5q0 53 -28.5 89
t-97.5 81q-81 55 -117.5 100t-36.5 106q0 72 51.5 114t134.5 42z" />
    <glyph glyph-name="T" unicode="T" horiz-adv-x="636" 
d="M604 662v-128h-6l-71 94h-165v-572l67 -50v-6h-223v6l67 50v572h-164l-71 -94h-6v128h572z" />
    <glyph glyph-name="U" unicode="U" horiz-adv-x="720" 
d="M625 234q0 -107 -69.5 -176t-181.5 -69q-128 0 -203 61.5t-75 183.5v374l-67 48v6h223v-6l-67 -48v-373q0 -96 55 -143.5t150 -47.5q91 0 142.5 53t51.5 139v372l-67 48v6h174v-6l-66 -48v-374z" />
    <glyph glyph-name="V" unicode="V" horiz-adv-x="631" 
d="M458 656v6h167v-6l-56 -48l-239 -621h-11l-258 621l-55 48v6h219v-6l-69 -48l191 -474l180 474z" />
    <glyph glyph-name="W" unicode="W" horiz-adv-x="946" 
d="M465 608l61 -147l62 147l-50 48v6h144v-6l-55 -48l-83 -191l122 -295l177 486l-68 48v6h165v-6l-56 -48l-228 -621h-12l-154 356l-161 -356h-12l-256 621l-55 48v6h216v-6l-68 -48l195 -486l121 267l-94 219l-55 48v6h194v-6z" />
    <glyph glyph-name="X" unicode="X" horiz-adv-x="648" 
d="M6 0v6l67 48l208 273l-201 281l-66 48v6h239v-6l-67 -48l150 -214l161 214l-67 48v6h180v-6l-67 -48l-185 -245l217 -309l67 -48v-6h-232v6l66 48l-173 242l-183 -242l66 -48v-6h-180z" />
    <glyph glyph-name="Y" unicode="Y" horiz-adv-x="593" 
d="M423 656v6h164v-6l-56 -48l-183 -279v-275l66 -48v-6h-221v6l66 48v258l-198 296l-55 48v6h225v-6l-67 -48l163 -250l163 250z" />
    <glyph glyph-name="Z" unicode="Z" horiz-adv-x="627" 
d="M149 34h356l81 108h6v-142h-557v9l421 620h-316l-73 -99h-6v132h517v-8z" />
    <glyph glyph-name="bracketleft" unicode="[" horiz-adv-x="237" 
d="M217 715h-88v-850h88v-22h-154v894h154v-22z" />
    <glyph glyph-name="backslash" unicode="\" horiz-adv-x="329" 
d="M349 -227l-33 -11l-296 981l34 11z" />
    <glyph glyph-name="bracketright" unicode="]" horiz-adv-x="237" 
d="M107 715h-88v22h154v-894h-154v22h88v850z" />
    <glyph glyph-name="asciicircum" unicode="^" horiz-adv-x="409" 
d="M51 323l-6 3l159 348h2l159 -348l-6 -3l-154 212z" />
    <glyph glyph-name="underscore" unicode="_" horiz-adv-x="364" 
d="M-5 -122v34h374v-34h-374z" />
    <glyph glyph-name="grave" unicode="`" 
d="M271 495l-154 177l62 40l101 -212z" />
    <glyph glyph-name="a" unicode="a" horiz-adv-x="405" 
d="M254 299q0 36 -18 57.5t-53 21.5q-38 0 -65 -31v-60l-78 23v5q50 57 82 78q47 30 99 30q51 0 81 -28.5t30 -67.5q0 -36 -2 -142t-2 -115q39 -25 74 -34v-6l-62 -45q-51 19 -83 54q-62 -50 -106 -50q-53 0 -85.5 29t-32.5 72q0 27 12 45.5t25 22.5q6 2 31.5 10t70 21.5
t82.5 25.5v84zM253 63q0 18 0.5 57.5t0.5 61.5q-132 -45 -138 -48q-9 -5 -9 -30q0 -26 19.5 -45t53.5 -19q42 0 73 23z" />
    <glyph glyph-name="b" unicode="b" horiz-adv-x="468" 
d="M3 671v7q1 0 20.5 7.5t53.5 19.5t64 20v-371q20 25 55.5 45.5t73.5 20.5q81 0 125.5 -55t44.5 -139q0 -91 -60 -163.5t-166 -72.5q-34 0 -84.5 5t-67.5 5h-1v640zM237 367q-60 0 -96 -38v-287q33 -18 73 -18q64 0 103.5 50.5t39.5 129.5q0 78 -34 120.5t-86 42.5z" />
    <glyph glyph-name="c" unicode="c" horiz-adv-x="409" 
d="M249 420q59 0 120 -16v-94h-5q-57 76 -133 76q-56 0 -91.5 -48t-35.5 -114q0 -84 47.5 -131t121.5 -47q66 0 115 31l4 -7q-23 -33 -65 -56.5t-99 -23.5q-85 0 -143.5 56t-58.5 152q0 92 60.5 157t162.5 65z" />
    <glyph glyph-name="d" unicode="d" horiz-adv-x="480" 
d="M259 671v7q77 28 146 47v-662l69 -27v-7l-72 -18q-14 -4 -33.5 -9t-30 -7.5t-11.5 -2.5v55q-20 -22 -54 -39.5t-59 -17.5q-81 0 -134 58t-53 143q0 93 60.5 160.5t167.5 67.5q51 0 71 -5v226zM251 44q47 0 75 28v293q-25 22 -74 22q-63 0 -102.5 -51t-39.5 -126
q0 -78 40 -122t101 -44z" />
    <glyph glyph-name="e" unicode="e" horiz-adv-x="389" 
d="M104 224q0 -84 44 -130.5t115 -46.5q56 0 108 21l4 -7q-25 -25 -68 -48t-90 -23q-84 0 -137.5 56.5t-53.5 153.5q0 88 56 154t133 66q109 0 151 -136v-1h-256q-6 -27 -6 -59zM211 388q-64 0 -92 -75h162q-3 40 -24.5 57.5t-45.5 17.5z" />
    <glyph glyph-name="f" unicode="f" horiz-adv-x="292" 
d="M241 6v-6h-223v6l60 43v313h-64v7l64 38v45q0 113 70 188t174 75q54 0 88 -10l-28 -63q-60 34 -104 34q-43 0 -82 -47.5t-39 -134.5v-87h140l-38 -45h-102v-308z" />
    <glyph glyph-name="g" unicode="g" horiz-adv-x="427" 
d="M33 274q0 61 49.5 103.5t117.5 42.5q36 0 65 -10h153v-37h-99q49 -38 49 -94q0 -62 -49.5 -104t-118.5 -42q-31 0 -53 7q-40 -30 -40 -52q0 -38 44 -38h172q28 0 61.5 -30.5t33.5 -83.5q0 -81 -75.5 -147t-171.5 -66q-73 0 -117 30t-44 78q0 74 94 150q-62 21 -62 82
q0 30 11 39l68 47q-40 18 -64 51t-24 74zM140 -26q-10 0 -13 1q-52 -59 -52 -116q0 -40 36.5 -64.5t95.5 -24.5q61 0 107 36.5t46 86.5q0 81 -95 81h-125zM115 276q0 -48 24 -81.5t62 -33.5q37 0 60.5 33.5t23.5 81.5q0 49 -23.5 82.5t-60.5 33.5q-38 0 -62 -33.5t-24 -82.5
z" />
    <glyph glyph-name="h" unicode="h" horiz-adv-x="509" 
d="M21 0v6l59 43v591l-59 31v7q69 28 138 47v-374q74 69 149 69q51 0 88 -31.5t37 -73.5v-266l60 -43v-6h-198v6l59 43v241q0 34 -24 56.5t-67 22.5q-54 0 -104 -48v-272l60 -43v-6h-198z" />
    <glyph glyph-name="i" unicode="i" horiz-adv-x="239" 
d="M21 0v6l59 43v294l-56 30v6l8 3q7 3 20.5 7.5t29.5 10t37 12.5t40 12v-375l60 -43v-6h-198zM69 584q0 20 13 33.5t33 13.5t33 -13.5t13 -33.5t-13 -32.5t-33 -12.5t-33 12.5t-13 32.5z" />
    <glyph glyph-name="j" unicode="j" horiz-adv-x="219" 
d="M107 539q-20 0 -33 12.5t-13 32.5t13 33.5t33 13.5t33 -13.5t13 -33.5t-13 -32.5t-33 -12.5zM16 372v7q67 26 135 45v-370q0 -20 -3.5 -43t-15 -66t-42.5 -94.5t-77 -100.5l-10 6q69 141 69 299v288z" />
    <glyph glyph-name="k" unicode="k" horiz-adv-x="473" 
d="M159 49l60 -43v-6h-198v6l59 43v586l-59 31v7q69 28 138 47v-671zM170 229v6l133 123l-53 47v5h194v-5l-89 -43l-115 -102l99 -131q74 -97 133 -123v-6q-15 -9 -55 -9t-68 20t-67 73z" />
    <glyph glyph-name="l" unicode="l" horiz-adv-x="239" 
d="M159 49l60 -43v-6h-198v6l59 43v591l-59 31v7q72 29 138 47v-676z" />
    <glyph glyph-name="m" unicode="m" horiz-adv-x="748" 
d="M159 350q70 70 142 70q38 0 67 -20t41 -55q75 75 150 75q47 0 80.5 -30t33.5 -72v-269l59 -43v-6h-197v6l60 43v239q0 35 -20.5 58.5t-60.5 23.5q-46 0 -98 -50v-271l61 -43v-6h-199v6l59 43v239q0 35 -20.5 58.5t-60.5 23.5q-45 0 -97 -50v-271l60 -43v-6h-198v6l59 43
v294l-56 29v7l8 3q7 3 20.5 7.5t29.5 10t37 12.5t40 12v-74z" />
    <glyph glyph-name="n" unicode="n" horiz-adv-x="509" 
d="M21 0v6l59 43v294l-56 29v7l8 3q7 3 20.5 7.5t29.5 10t37 12.5t40 12v-73q77 69 149 69q50 0 87.5 -30.5t37.5 -72.5v-268l60 -43v-6h-197v6l58 43v240q0 34 -23.5 57t-67.5 23q-56 0 -104 -48v-272l60 -43v-6h-198z" />
    <glyph glyph-name="o" unicode="o" horiz-adv-x="463" 
d="M26 200q0 92 60.5 156t144.5 64q86 0 146 -59.5t60 -151.5q0 -93 -60.5 -156t-145.5 -63t-145 59t-60 151zM112 205q0 -79 34.5 -131t84.5 -52t85 52.5t35 130.5q0 77 -35 130t-85 53q-49 0 -84 -53t-35 -130z" />
    <glyph glyph-name="p" unicode="p" horiz-adv-x="473" 
d="M237 -264v-6h-230v6l60 42v565l-56 29v7l7 3q8 3 21 7.5t29 10t37 12.5t41 12v-70q56 66 130 66q81 0 125 -55t44 -140q0 -56 -23 -108t-76.5 -89.5t-126.5 -37.5q-34 0 -73 4v-216zM241 365q-61 0 -95 -36v-287q32 -18 73 -18q63 0 103 51.5t40 128.5q0 79 -33.5 120
t-87.5 41z" />
    <glyph glyph-name="q" unicode="q" horiz-adv-x="473" 
d="M467 -264v-6h-229v6l90 42v269q-21 -25 -52 -41t-60 -16q-90 0 -139.5 56.5t-49.5 141.5q0 42 13.5 81.5t40 73.5t72 55t103.5 21q59 0 102 -12l49 25v-654zM251 43q45 0 76 29v297q-34 17 -75 17q-64 0 -103 -49t-39 -126q0 -81 39 -124.5t102 -43.5z" />
    <glyph glyph-name="r" unicode="r" horiz-adv-x="344" 
d="M24 372v7l8 3q7 3 20.5 7.5t29.5 10t37 12.5t40 12v-88q82 87 115 87q17 0 57 -11l-26 -76q-36 13 -54 13q-47 0 -92 -39v-261l80 -43v-6h-218v6l59 43v294z" />
    <glyph glyph-name="s" unicode="s" horiz-adv-x="327" 
d="M174 420q53 0 89 -13v-81h-6q-37 62 -90 62q-23 0 -38.5 -13t-15.5 -38q0 -27 16 -42.5t58 -41.5q62 -41 79 -61q29 -34 29 -78q0 -55 -38.5 -89.5t-104.5 -34.5q-63 0 -114 24q-12 55 -7 130h7q38 -120 117 -120q30 0 50 18.5t20 48.5t-18.5 48t-65.5 47
q-30 19 -47.5 34t-32 40t-14.5 55q0 49 36 77t91 28z" />
    <glyph glyph-name="t" unicode="t" horiz-adv-x="354" 
d="M149 363v-248q0 -33 21.5 -54t64.5 -21q46 0 88 20l4 -7q-55 -62 -135 -62q-62 0 -92 32t-30 72v268h-55v7l134 103v-65h198l-29 -45h-169z" />
    <glyph glyph-name="u" unicode="u" horiz-adv-x="494" 
d="M15 372v7l7 3q8 3 21 7.5t29 10t37 12.5t41 12v-302q0 -35 21.5 -57.5t63.5 -22.5q46 0 102 48v252l-64 30v7q74 26 143 45v-362l67 -26v-7q-9 -2 -34.5 -9t-37.5 -10q-72 -18 -74 -18v68q-68 -68 -142 -68q-52 0 -88 32t-36 82v237z" />
    <glyph glyph-name="v" unicode="v" horiz-adv-x="424" 
d="M373 363l-136 -350l-13 -37h-11l-24 54l-139 333l-50 41v6h196v-6l-59 -41l100 -256l96 256l-60 41v6h151v-6z" />
    <glyph glyph-name="w" unicode="w" horiz-adv-x="641" 
d="M228 24q-2 -5 -5.5 -13.5t-4.5 -11.5q-5 -12 -5 -13h-11q-4 10 -7 16q-7 20 -16 40l-129 321l-50 41v6h191v-6l-57 -41l93 -242l81 228l-5 14l-51 41v6h178v-6l-50 -41l87 -241l85 241l-58 41v6h147v-6l-51 -41l-122 -340q-3 -7 -9 -23q-4 -11 -5 -14h-10q-1 3 -5 13
q-1 4 -6.5 18.5t-9.5 25.5l-96 255z" />
    <glyph glyph-name="x" unicode="x" horiz-adv-x="434" 
d="M428 6v-6h-184v6l57 42l-96 124l-103 -124l60 -42v-6h-156v6l51 43l126 152l-124 162l-49 41v6h198v-6l-58 -41l82 -111l88 111l-59 41v6h154v-6l-51 -43l-112 -135l133 -178z" />
    <glyph glyph-name="y" unicode="y" horiz-adv-x="424" 
d="M198 -91q-46 -118 -52 -180h-99v5q75 73 121 192l33 84l-151 352l-50 42v6h194v-6l-57 -42l102 -252l94 252l-60 42v6h151v-6l-51 -42z" />
    <glyph glyph-name="z" unicode="z" horiz-adv-x="397" 
d="M371 111v-111h-350v7l239 374h-149l-61 -75h-6v104h319v-5l-244 -375h182l64 81h6z" />
    <glyph glyph-name="braceleft" unicode="{" horiz-adv-x="283" 
d="M137 -35q0 -44 24.5 -78t86.5 -62l-5 -7q-100 33 -135 74.5t-35 92.5q0 37 38 110t38 107q0 37 -28.5 58t-86.5 22v20q58 0 86.5 21.5t28.5 58.5q0 33 -38 103.5t-38 107.5q0 23 6 42t22.5 41.5t52.5 43t89 36.5l5 -7q-111 -50 -111 -136q0 -35 34.5 -107t34.5 -105
q0 -40 -29.5 -70t-84.5 -39q55 -9 84.5 -39t29.5 -70q0 -34 -34.5 -108t-34.5 -110z" />
    <glyph glyph-name="bar" unicode="|" horiz-adv-x="256" 
d="M110 744h36v-977h-36v977z" />
    <glyph glyph-name="braceright" unicode="}" horiz-adv-x="282" 
d="M145 -35q0 36 -34.5 110t-34.5 108q0 40 29.5 70t84.5 39q-55 9 -84.5 39t-29.5 70q0 33 34.5 105t34.5 107q0 86 -111 136l5 7q53 -16 89 -36.5t52.5 -43t22.5 -41.5t6 -42q0 -37 -38 -107.5t-38 -103.5q0 -37 28.5 -58.5t86.5 -21.5v-20q-58 -1 -86.5 -22t-28.5 -58
q0 -34 38 -107t38 -110q0 -51 -35 -92.5t-135 -74.5l-5 7q62 28 86.5 62t24.5 78z" />
    <glyph glyph-name="asciitilde" unicode="~" horiz-adv-x="478" 
d="M338 277q40 0 63 31t38 81l6 -1q-4 -74 -34 -125t-80 -51q-34 0 -100 40.5t-96 40.5q-65 0 -96 -113l-6 1q0 66 30 122t80 56q35 0 101 -41t94 -41z" />
    <glyph glyph-name="exclamdown" unicode="&#xa1;" horiz-adv-x="200" 
d="M55 -251l39 451h13l39 -451h-91zM150 370q0 -23 -14 -36.5t-36 -13.5t-36 13.5t-14 36.5q0 21 14 35.5t36 14.5q21 0 35.5 -14.5t14.5 -35.5z" />
    <glyph glyph-name="cent" unicode="&#xa2;" horiz-adv-x="415" 
d="M279 497l-8 -78q48 -3 104 -15v-94h-5q-44 57 -103 72l-34 -334q17 -4 43 -4q69 0 118 31l4 -7q-63 -78 -167 -78h-4l-8 -77h-31l8 80q-74 10 -122 65t-48 140q0 90 57.5 154t156.5 68l8 77h31zM104 224q0 -127 99 -167l33 329h-2q-57 0 -93.5 -47.5t-36.5 -114.5z" />
    <glyph glyph-name="sterling" unicode="&#xa3;" horiz-adv-x="501" 
d="M4 -10q14 21 35 50t30.5 43t21 39.5t19.5 57.5q9 39 14 103h-91v33h94q2 24 5 73.5t5 74.5q8 90 66 149.5t140 59.5q56 0 112 -14v-96h-6q-40 75 -111 75q-94 0 -109 -152l-20 -170h152v-33h-157q-8 -59 -17 -82q-23 -64 -77 -113q30 19 67 19q33 0 97 -22t94 -22
q61 0 114 83l5 -2q-12 -66 -49 -108.5t-85 -42.5q-34 0 -101.5 29t-103.5 29q-65 0 -137 -66z" />
    <glyph glyph-name="yen" unicode="&#xa5;" horiz-adv-x="551" 
d="M382 656v6h163v-6l-55 -48l-158 -248h156v-31h-161v-63h161v-31h-161v-181l66 -48v-6h-220l-1 6l66 48v181h-161v31h161v63h-161v31h145l-160 248l-56 48v6h223v-6l-68 -48l143 -228l145 228z" />
    <glyph glyph-name="brokenbar" unicode="&#xa6;" horiz-adv-x="256" 
d="M110 744h36v-433h-36v433zM110 214h36v-448h-36v448z" />
    <glyph glyph-name="section" unicode="&#xa7;" horiz-adv-x="435" 
d="M34 306q0 46 28.5 75t68.5 44q-39 53 -39 112t43 97.5t107 38.5q53 0 85 -8v-91h-6q-37 66 -93 66q-31 0 -53.5 -21.5t-22.5 -58.5q0 -41 26 -79t102 -120q54 -62 73.5 -85t37.5 -58.5t18 -68.5q0 -46 -27.5 -76.5t-63.5 -45.5q32 -53 32 -104q0 -67 -46 -114t-116 -47
q-39 0 -75.5 10t-46.5 18q-10 45 -4 136h7q16 -56 47 -93t76 -37q42 0 69 29.5t27 77.5q0 45 -25.5 82t-100.5 117q-70 73 -99 116t-29 88zM210 156q73 -81 96 -112q43 32 43 77q0 51 -43 105q-16 19 -75 84q-50 52 -88 99q-51 -24 -51 -74q0 -12 2 -23.5t8.5 -24t12 -21
t18.5 -24t20.5 -24.5t26.5 -29.5t30 -32.5z" />
    <glyph glyph-name="dieresis" unicode="&#xa8;" 
d="M283 622q17 0 29 -12t12 -30q0 -17 -12 -28.5t-29 -11.5q-18 0 -29.5 11.5t-11.5 28.5q0 18 11.5 30t29.5 12zM118 623q17 0 29.5 -12.5t12.5 -30.5q0 -17 -12.5 -29t-29.5 -12q-18 0 -30 12t-12 29q0 18 12 30.5t30 12.5z" />
    <glyph glyph-name="copyright" unicode="&#xa9;" horiz-adv-x="764" 
d="M382 639q-127 0 -211 -89t-84 -218q0 -127 86.5 -217t208.5 -90q126 0 210.5 89t84.5 218q0 126 -86 216.5t-209 90.5zM397 163q-82 0 -137 48t-55 125q0 72 53.5 124t138.5 52q45 0 107 -13v-84h-3q-47 67 -106 67q-53 0 -84.5 -40.5t-31.5 -101.5q0 -63 36 -104t84 -41
q62 0 110 64h3v-73q-53 -23 -115 -23zM382 674q141 0 240.5 -100.5t99.5 -241.5q0 -144 -98 -243t-242 -99q-145 0 -242.5 98.5t-97.5 243.5q0 144 98 243t242 99z" />
    <glyph glyph-name="ordfeminine" unicode="&#xaa;" horiz-adv-x="316" 
d="M188 584q0 52 -48 52q-15 0 -27.5 -7t-15.5 -13v-40l-61 19v4q57 71 130 71q37 0 61 -21t24 -47q0 -24 -1.5 -96t-1.5 -77q13 -13 48 -26v-4l-47 -31q-28 8 -57 37q-47 -36 -74 -36q-38 0 -63 21.5t-25 51.5q0 18 8 33t18 19l132 36v54zM141 410q26 0 46 13
q0 12 0.5 38.5t0.5 41.5l-90 -28q-8 -5 -8 -22q0 -18 13.5 -30.5t37.5 -12.5z" />
    <glyph glyph-name="guillemotleft" unicode="&#xab;" horiz-adv-x="332" 
d="M296 66l-137 157l137 156l8 -5l-72 -152l72 -151zM23 223l137 156l8 -5l-72 -152l72 -151l-8 -5z" />
    <glyph glyph-name="registered" unicode="&#xae;" horiz-adv-x="395" 
d="M198 684q72 0 123.5 -52t51.5 -124q0 -75 -51 -126t-124 -51q-74 0 -125 51t-51 126q0 74 51 125t125 51zM198 658q-61 0 -102.5 -43.5t-41.5 -106.5q0 -62 42.5 -106t101.5 -44q61 0 102.5 43t41.5 107q0 62 -41.5 106t-102.5 44zM118 426v5l19 15v138l-19 15v5h93
q25 0 40 -11t15 -31q0 -25 -29 -42l28 -47q15 -26 33 -41v-5q-14 -2 -27 -2q-17 0 -26 7.5t-19 25.5l-27 50h-19v-62l23 -15v-5h-85zM180 584v-57h20q9 0 16 8t7 20q0 29 -30 29h-13z" />
    <glyph glyph-name="macron" unicode="&#xaf;" 
d="M102 580h197v-46h-197v46z" />
    <glyph glyph-name="degree" unicode="&#xb0;" horiz-adv-x="246" 
d="M123 466q-44 0 -73.5 29t-29.5 73t29.5 73.5t73.5 29.5t73.5 -29t29.5 -73t-29.5 -73.5t-73.5 -29.5zM192 569q0 32 -19.5 52t-49.5 20t-49.5 -19.5t-19.5 -51.5q0 -33 19.5 -53.5t49.5 -20.5t49.5 20t19.5 53z" />
    <glyph glyph-name="twosuperior" unicode="&#xb2;" horiz-adv-x="244" 
d="M215 521h5v-93h-211v11q95 113 111 141q15 28 15 51t-13 36.5t-36 13.5q-38 0 -61 -28l-7 4q26 64 94 64q41 0 64 -21t23 -57q0 -39 -33 -77.5t-100 -90.5h116z" />
    <glyph glyph-name="threesuperior" unicode="&#xb3;" horiz-adv-x="209" 
d="M34 582q37 21 54 36.5t17 35.5q0 31 -36 31q-30 0 -52 -22l-4 4q28 54 86 54q31 0 48 -14t17 -38q0 -38 -56 -60q36 -2 59.5 -20t23.5 -51q0 -50 -46.5 -82t-135.5 -37l-3 7q121 45 121 102q0 24 -17 36t-45 12q-14 0 -28 -2z" />
    <glyph glyph-name="acute" unicode="&#xb4;" 
d="M129 495l-9 5l101 212l62 -40z" />
    <glyph glyph-name="paragraph" unicode="&#xb6;" horiz-adv-x="466" 
d="M208 360q-84 0 -134.5 43t-50.5 110q0 66 44 107.5t125 41.5h68v-662h-113v6l66 48v306h-5zM354 609v-555l67 -48v-6h-114v662h114v-6z" />
    <glyph glyph-name="periodcentered" unicode="&#xb7;" horiz-adv-x="184" 
d="M42 251q0 23 14 36.5t36 13.5t36 -13.5t14 -36.5q0 -21 -14 -35.5t-36 -14.5q-21 0 -35.5 14.5t-14.5 35.5z" />
    <glyph glyph-name="cedilla" unicode="&#xb8;" 
d="M242 0l-38 -75q31 -7 54.5 -28t23.5 -53q0 -82 -154 -125l-5 9q101 56 101 103q0 22 -22 35t-44 16l-2 3q6 11 15 29.5t14 27.5q29 54 29 58h28z" />
    <glyph glyph-name="onesuperior" unicode="&#xb9;" horiz-adv-x="170" 
d="M19 428v4l38 26v205l-41 20v4q6 1 50 17t50 18v-264l36 -26v-4h-133z" />
    <glyph glyph-name="ordmasculine" unicode="&#xba;" horiz-adv-x="342" 
d="M28 517q0 63 41.5 108t101.5 45t101.5 -42.5t41.5 -104.5q0 -63 -42.5 -108t-101.5 -45t-100.5 42.5t-41.5 104.5zM96 521q0 -52 22 -88.5t53 -36.5q30 0 52.5 36.5t22.5 88.5q0 50 -22.5 87t-52.5 37q-31 0 -53 -37t-22 -87z" />
    <glyph glyph-name="guillemotright" unicode="&#xbb;" horiz-adv-x="332" 
d="M173 223l-137 -157l-8 5l72 151l-72 152l8 5zM172 379l137 -156l-137 -157l-8 5l72 151l-72 152z" />
    <glyph glyph-name="onequarter" unicode="&#xbc;" horiz-adv-x="516" 
d="M454 662h41l-435 -662h-41zM39 375v4l38 26v205l-41 20v4q6 1 50 17t50 18v-264l36 -26v-4h-133zM487 3v-3h-125v3l34 25v47h-139v10l157 204h40v-178h58l-23 -36h-35v-47zM396 111v112l-86 -112h86z" />
    <glyph glyph-name="onehalf" unicode="&#xbd;" horiz-adv-x="534" 
d="M454 662h41l-435 -662h-41zM39 375v4l38 26v205l-41 20v4q6 1 50 17t50 18v-264l36 -26v-4h-133zM513 93h5v-93h-211v11q95 113 111 141q15 28 15 51t-13 36.5t-36 13.5q-38 0 -61 -28l-7 4q26 64 94 64q41 0 64 -21t23 -57q0 -39 -33 -77.5t-100 -90.5h116z" />
    <glyph glyph-name="threequarters" unicode="&#xbe;" horiz-adv-x="537" 
d="M447 662h41l-435 -662h-41zM43 529q37 21 54 36.5t17 35.5q0 31 -36 31q-30 0 -52 -22l-4 4q28 54 86 54q31 0 48 -14t17 -38q0 -38 -56 -60q36 -2 59.5 -20t23.5 -51q0 -50 -46.5 -82t-135.5 -37l-3 7q121 45 121 102q0 24 -17 36t-45 12q-14 0 -28 -2zM480 3v-3h-125v3
l34 25v47h-139v10l157 204h40v-178h58l-23 -36h-35v-47zM389 111v112l-86 -112h86z" />
    <glyph glyph-name="questiondown" unicode="&#xbf;" horiz-adv-x="336" 
d="M27 -141q0 35 13.5 62.5t49.5 63.5q52 52 68 69q18 19 24 32.5t6 35.5q0 2 -4 78h13q43 -96 43 -125q0 -26 -34 -65l-59 -67q-39 -44 -39 -87q0 -40 23 -61.5t58 -21.5q64 0 108 79h6v-101q-32 -12 -111 -12q-69 0 -117 28.5t-48 91.5zM239 370q0 -23 -14 -36.5
t-36 -13.5t-36 13.5t-14 36.5q0 21 14 35.5t36 14.5q21 0 35.5 -14.5t14.5 -35.5z" />
    <glyph glyph-name="Agrave" unicode="&#xc0;" horiz-adv-x="636" 
d="M171 6v-6h-165v6l56 48l240 622h11l261 -622l56 -48v-6h-216v6l69 48l-94 225h-201l-86 -225zM201 312h174l-91 217zM423 703l-233 75l29 63l209 -129z" />
    <glyph glyph-name="Aacute" unicode="&#xc1;" horiz-adv-x="636" 
d="M171 6v-6h-165v6l56 48l240 622h11l261 -622l56 -48v-6h-216v6l69 48l-94 225h-201l-86 -225zM201 312h174l-91 217zM198 703l-5 9l209 129l29 -63z" />
    <glyph glyph-name="Acircumflex" unicode="&#xc2;" horiz-adv-x="636" 
d="M171 6v-6h-165v6l56 48l240 622h11l261 -622l56 -48v-6h-216v6l69 48l-94 225h-201l-86 -225zM201 312h174l-91 217zM309 834l137 -120l-4 -7l-133 54l-136 -54l-5 7z" />
    <glyph glyph-name="Atilde" unicode="&#xc3;" horiz-adv-x="636" 
d="M171 6v-6h-165v6l56 48l240 622h11l261 -622l56 -48v-6h-216v6l69 48l-94 225h-201l-86 -225zM201 312h174l-91 217zM254 803q12 0 66 -9t67 -9q24 0 66 48l6 -3q-8 -27 -32.5 -63.5t-45.5 -36.5q-18 0 -70 9t-62 9q-26 0 -66 -49l-6 3q13 33 34.5 67t42.5 34z" />
    <glyph glyph-name="Adieresis" unicode="&#xc4;" horiz-adv-x="636" 
d="M171 6v-6h-165v6l56 48l240 622h11l261 -622l56 -48v-6h-216v6l69 48l-94 225h-201l-86 -225zM201 312h174l-91 217zM219 723q-18 0 -30.5 12.5t-12.5 29.5q0 18 12.5 30.5t30.5 12.5q17 0 29.5 -12.5t12.5 -30.5q0 -17 -12.5 -29.5t-29.5 -12.5zM443 765q0 -17 -12 -29
t-29 -12q-18 0 -30 12t-12 29q0 18 12 30t30 12q17 0 29 -12t12 -30z" />
    <glyph glyph-name="Aring" unicode="&#xc5;" horiz-adv-x="636" 
d="M171 6v-6h-165v6l56 48l240 622h11l261 -622l56 -48v-6h-216v6l69 48l-94 225h-201l-86 -225zM201 312h174l-91 217zM260 777q0 -21 13.5 -36t34.5 -15t34.5 15t13.5 36t-13.5 36t-34.5 15t-34.5 -15t-13.5 -36zM230 777q0 32 23 54.5t55 22.5t55 -22.5t23 -54.5
q0 -33 -22.5 -55t-55.5 -22t-55.5 21.5t-22.5 55.5z" />
    <glyph glyph-name="AE" unicode="&#xc6;" horiz-adv-x="860" 
d="M305 656v6h477v-118h-6l-66 85h-203v-260h208l45 69h5v-169h-5l-45 68h-208v-303h223l71 105h6v-139h-455v6l66 48v262h-173l-152 -262l69 -48v-6h-167v6l55 48l322 554zM264 348h154v265z" />
    <glyph glyph-name="Ccedilla" unicode="&#xc7;" horiz-adv-x="670" 
d="M398 -11h-8l-32 -64q31 -7 54.5 -28t23.5 -53q0 -82 -154 -125l-5 9q101 56 101 103q0 22 -22 35t-44 16l-2 3q5 11 14.5 30t14.5 27q4 7 10.5 20l9.5 19l4 10q-59 5 -108 22q-99 38 -157 120.5t-58 193.5q0 141 98.5 243.5t259.5 102.5q101 0 204 -29v-108h-5
q-74 103 -203 103q-116 0 -185.5 -88t-69.5 -215q0 -136 76 -224.5t186 -88.5q121 0 210 110h5v-98q-89 -46 -218 -46z" />
    <glyph glyph-name="Egrave" unicode="&#xc8;" horiz-adv-x="558" 
d="M45 0v6l66 48v554l-66 48v6h437v-117h-6l-66 84h-210v-260h216l45 69h5v-170h-5l-45 68h-216v-302h230l70 104h6v-138h-461zM403 703l-233 75l29 63l209 -129z" />
    <glyph glyph-name="Eacute" unicode="&#xc9;" horiz-adv-x="558" 
d="M45 0v6l66 48v554l-66 48v6h437v-117h-6l-66 84h-210v-260h216l45 69h5v-170h-5l-45 68h-216v-302h230l70 104h6v-138h-461zM182 703l-5 9l209 129l29 -63z" />
    <glyph glyph-name="Ecircumflex" unicode="&#xca;" horiz-adv-x="558" 
d="M45 0v6l66 48v554l-66 48v6h437v-117h-6l-66 84h-210v-260h216l45 69h5v-170h-5l-45 68h-216v-302h230l70 104h6v-138h-461zM286 834l137 -120l-4 -7l-133 54l-136 -54l-5 7z" />
    <glyph glyph-name="Edieresis" unicode="&#xcb;" horiz-adv-x="558" 
d="M45 0v6l66 48v554l-66 48v6h437v-117h-6l-66 84h-210v-260h216l45 69h5v-170h-5l-45 68h-216v-302h230l70 104h6v-138h-461zM200 723q-18 0 -30.5 12.5t-12.5 29.5q0 18 12.5 30.5t30.5 12.5q17 0 29.5 -12.5t12.5 -30.5q0 -17 -12.5 -29.5t-29.5 -12.5zM424 765
q0 -17 -12 -29t-29 -12q-18 0 -30 12t-12 29q0 18 12 30t30 12q17 0 29 -12t12 -30z" />
    <glyph glyph-name="Igrave" unicode="&#xcc;" horiz-adv-x="311" 
d="M45 0v6l66 48v554l-66 48v6h221v-6l-66 -48v-554l66 -48v-6h-221zM269 703l-233 75l29 63l209 -129z" />
    <glyph glyph-name="Iacute" unicode="&#xcd;" horiz-adv-x="311" 
d="M45 0v6l66 48v554l-66 48v6h221v-6l-66 -48v-554l66 -48v-6h-221zM43 703l-5 9l209 129l29 -63z" />
    <glyph glyph-name="Icircumflex" unicode="&#xce;" horiz-adv-x="311" 
d="M45 0v6l66 48v554l-66 48v6h221v-6l-66 -48v-554l66 -48v-6h-221zM155 834l137 -120l-4 -7l-133 54l-136 -54l-5 7z" />
    <glyph glyph-name="Idieresis" unicode="&#xcf;" horiz-adv-x="311" 
d="M45 0v6l66 48v554l-66 48v6h221v-6l-66 -48v-554l66 -48v-6h-221zM65 723q-18 0 -30.5 12.5t-12.5 29.5q0 18 12.5 30.5t30.5 12.5q17 0 29.5 -12.5t12.5 -30.5q0 -17 -12.5 -29.5t-29.5 -12.5zM289 765q0 -17 -12 -29t-29 -12q-18 0 -30 12t-12 29q0 18 12 30t30 12
q17 0 29 -12t12 -30z" />
    <glyph glyph-name="Eth" unicode="&#xd0;" horiz-adv-x="721" 
d="M23 354h87v254l-66 48v6h266q161 0 267 -86.5t106 -239.5q0 -148 -96 -242t-251 -94h-292v6l66 48v266h-87v34zM199 320v-265l1 1q46 -24 134 -24q112 0 181 82t69 221q0 133 -79 214t-197 81h-109v-276h211v-34h-211z" />
    <glyph glyph-name="Ntilde" unicode="&#xd1;" horiz-adv-x="765" 
d="M38 0v6l73 53v522q-42 47 -77 75v6h124l460 -525v466l-75 53v6h189v-6l-73 -53v-603h-32l-475 535v-476l75 -53v-6h-189zM347 803q12 0 66 -9t67 -9q24 0 66 48l6 -3q-8 -27 -32.5 -63.5t-45.5 -36.5q-18 0 -70 9t-62 9q-26 0 -66 -49l-6 3q13 33 34.5 67t42.5 34z" />
    <glyph glyph-name="Ograve" unicode="&#xd2;" horiz-adv-x="743" 
d="M42 323q0 149 95 249.5t234 100.5q138 0 234 -95t96 -241q0 -148 -96.5 -248t-233.5 -100t-233 94.5t-96 239.5zM141 330q0 -138 66.5 -222.5t163.5 -84.5t164.5 85t67.5 222q0 138 -67.5 223.5t-164.5 85.5q-98 0 -164 -85t-66 -224zM486 703l-233 75l29 63l209 -129z
" />
    <glyph glyph-name="Oacute" unicode="&#xd3;" horiz-adv-x="743" 
d="M42 323q0 149 95 249.5t234 100.5q138 0 234 -95t96 -241q0 -148 -96.5 -248t-233.5 -100t-233 94.5t-96 239.5zM141 330q0 -138 66.5 -222.5t163.5 -84.5t164.5 85t67.5 222q0 138 -67.5 223.5t-164.5 85.5q-98 0 -164 -85t-66 -224zM260 703l-5 9l209 129l29 -63z" />
    <glyph glyph-name="Ocircumflex" unicode="&#xd4;" horiz-adv-x="743" 
d="M42 323q0 149 95 249.5t234 100.5q138 0 234 -95t96 -241q0 -148 -96.5 -248t-233.5 -100t-233 94.5t-96 239.5zM141 330q0 -138 66.5 -222.5t163.5 -84.5t164.5 85t67.5 222q0 138 -67.5 223.5t-164.5 85.5q-98 0 -164 -85t-66 -224zM372 834l137 -120l-4 -7l-133 54
l-136 -54l-5 7z" />
    <glyph glyph-name="Otilde" unicode="&#xd5;" horiz-adv-x="743" 
d="M42 323q0 149 95 249.5t234 100.5q138 0 234 -95t96 -241q0 -148 -96.5 -248t-233.5 -100t-233 94.5t-96 239.5zM141 330q0 -138 66.5 -222.5t163.5 -84.5t164.5 85t67.5 222q0 138 -67.5 223.5t-164.5 85.5q-98 0 -164 -85t-66 -224zM311 803q12 0 66 -9t67 -9
q24 0 66 48l6 -3q-8 -27 -32.5 -63.5t-45.5 -36.5q-18 0 -70 9t-62 9q-26 0 -66 -49l-6 3q13 33 34.5 67t42.5 34z" />
    <glyph glyph-name="Odieresis" unicode="&#xd6;" horiz-adv-x="743" 
d="M42 323q0 149 95 249.5t234 100.5q138 0 234 -95t96 -241q0 -148 -96.5 -248t-233.5 -100t-233 94.5t-96 239.5zM141 330q0 -138 66.5 -222.5t163.5 -84.5t164.5 85t67.5 222q0 138 -67.5 223.5t-164.5 85.5q-98 0 -164 -85t-66 -224zM282 723q-18 0 -30.5 12.5
t-12.5 29.5q0 18 12.5 30.5t30.5 12.5q17 0 29.5 -12.5t12.5 -30.5q0 -17 -12.5 -29.5t-29.5 -12.5zM506 765q0 -17 -12 -29t-29 -12q-18 0 -30 12t-12 29q0 18 12 30t30 12q17 0 29 -12t12 -30z" />
    <glyph glyph-name="multiply" unicode="&#xd7;" horiz-adv-x="418" 
d="M52 107l133 137l-133 138l25 24l132 -137l133 137l24 -23l-134 -138l134 -138l-24 -23l-133 136l-133 -136z" />
    <glyph glyph-name="Oslash" unicode="&#xd8;" horiz-adv-x="743" 
d="M42 323q0 149 95 249.5t234 100.5q93 0 169 -45l52 80l28 -17l-52 -81q133 -99 133 -273q0 -148 -96.5 -248t-233.5 -100q-95 0 -172 47l-62 -96l-28 18l62 97q-129 98 -129 268zM603 330q0 140 -70 226l-304 -473q60 -60 142 -60q97 0 164.5 85t67.5 222zM141 330
q0 -135 65 -221l304 472q-61 58 -139 58q-98 0 -164 -85t-66 -224z" />
    <glyph glyph-name="Ugrave" unicode="&#xd9;" horiz-adv-x="720" 
d="M625 234q0 -107 -69.5 -176t-181.5 -69q-128 0 -203 61.5t-75 183.5v374l-67 48v6h223v-6l-67 -48v-373q0 -96 55 -143.5t150 -47.5q91 0 142.5 53t51.5 139v372l-67 48v6h174v-6l-66 -48v-374zM498 703l-233 75l29 63l209 -129z" />
    <glyph glyph-name="Uacute" unicode="&#xda;" horiz-adv-x="720" 
d="M625 234q0 -107 -69.5 -176t-181.5 -69q-128 0 -203 61.5t-75 183.5v374l-67 48v6h223v-6l-67 -48v-373q0 -96 55 -143.5t150 -47.5q91 0 142.5 53t51.5 139v372l-67 48v6h174v-6l-66 -48v-374zM278 703l-5 9l209 129l29 -63z" />
    <glyph glyph-name="Ucircumflex" unicode="&#xdb;" horiz-adv-x="720" 
d="M625 234q0 -107 -69.5 -176t-181.5 -69q-128 0 -203 61.5t-75 183.5v374l-67 48v6h223v-6l-67 -48v-373q0 -96 55 -143.5t150 -47.5q91 0 142.5 53t51.5 139v372l-67 48v6h174v-6l-66 -48v-374zM390 834l137 -120l-4 -7l-133 54l-136 -54l-5 7z" />
    <glyph glyph-name="Udieresis" unicode="&#xdc;" horiz-adv-x="720" 
d="M625 234q0 -107 -69.5 -176t-181.5 -69q-128 0 -203 61.5t-75 183.5v374l-67 48v6h223v-6l-67 -48v-373q0 -96 55 -143.5t150 -47.5q91 0 142.5 53t51.5 139v372l-67 48v6h174v-6l-66 -48v-374zM299 723q-18 0 -30.5 12.5t-12.5 29.5q0 18 12.5 30.5t30.5 12.5
q17 0 29.5 -12.5t12.5 -30.5q0 -17 -12.5 -29.5t-29.5 -12.5zM523 765q0 -17 -12 -29t-29 -12q-18 0 -30 12t-12 29q0 18 12 30t30 12q17 0 29 -12t12 -30z" />
    <glyph glyph-name="Yacute" unicode="&#xdd;" horiz-adv-x="593" 
d="M423 656v6h164v-6l-56 -48l-183 -279v-275l66 -48v-6h-221v6l66 48v258l-198 296l-55 48v6h225v-6l-67 -48l163 -250l163 250zM226 703l-5 9l209 129l29 -63z" />
    <glyph glyph-name="Thorn" unicode="&#xde;" horiz-adv-x="552" 
d="M201 503h84q105 0 170 -34.5t65 -109.5q0 -85 -79.5 -130.5t-194.5 -43.5v9q45 8 83 23.5t69 49.5t31 80q0 125 -180 125h-48v-418l67 -48v-6h-223v6l66 48v554l-66 48v6h222v-6l-66 -48v-105z" />
    <glyph glyph-name="germandbls" unicode="&#xdf;" horiz-adv-x="511" 
d="M292 717q67 0 104 -35t37 -88q0 -33 -20.5 -65t-45 -53t-45 -46t-20.5 -45q0 -25 16.5 -44.5t60.5 -53.5q61 -48 86 -80.5t25 -78.5q0 -58 -40.5 -98t-104.5 -40q-63 0 -108 26q-8 48 -6 119h7q37 -110 109 -110q32 0 52.5 23.5t20.5 57.5q0 23 -12.5 43t-23.5 29t-50 41
q-48 38 -68.5 65t-20.5 65q0 28 18 57.5t39 51.5t39 57t18 74q0 45 -24 68.5t-61 23.5q-50 0 -83.5 -46t-33.5 -141v-445l56 -43v-6h-195v6l60 43v313h-61v7l61 38v46q0 115 61.5 189.5t152.5 74.5z" />
    <glyph glyph-name="agrave" unicode="&#xe0;" horiz-adv-x="405" 
d="M254 299q0 36 -18 57.5t-53 21.5q-38 0 -65 -31v-60l-78 23v5q50 57 82 78q47 30 99 30q51 0 81 -28.5t30 -67.5q0 -36 -2 -142t-2 -115q39 -25 74 -34v-6l-62 -45q-51 19 -83 54q-62 -50 -106 -50q-53 0 -85.5 29t-32.5 72q0 27 12 45.5t25 22.5q6 2 31.5 10t70 21.5
t82.5 25.5v84zM253 63q0 18 0.5 57.5t0.5 61.5q-132 -45 -138 -48q-9 -5 -9 -30q0 -26 19.5 -45t53.5 -19q42 0 73 23zM240 495l-154 177l62 40l101 -212z" />
    <glyph glyph-name="aacute" unicode="&#xe1;" horiz-adv-x="405" 
d="M254 299q0 36 -18 57.5t-53 21.5q-38 0 -65 -31v-60l-78 23v5q50 57 82 78q47 30 99 30q51 0 81 -28.5t30 -67.5q0 -36 -2 -142t-2 -115q39 -25 74 -34v-6l-62 -45q-51 19 -83 54q-62 -50 -106 -50q-53 0 -85.5 29t-32.5 72q0 27 12 45.5t25 22.5q6 2 31.5 10t70 21.5
t82.5 25.5v84zM253 63q0 18 0.5 57.5t0.5 61.5q-132 -45 -138 -48q-9 -5 -9 -30q0 -26 19.5 -45t53.5 -19q42 0 73 23zM149 495l-9 5l101 212l62 -40z" />
    <glyph glyph-name="acircumflex" unicode="&#xe2;" horiz-adv-x="405" 
d="M254 299q0 36 -18 57.5t-53 21.5q-38 0 -65 -31v-60l-78 23v5q50 57 82 78q47 30 99 30q51 0 81 -28.5t30 -67.5q0 -36 -2 -142t-2 -115q39 -25 74 -34v-6l-62 -45q-51 19 -83 54q-62 -50 -106 -50q-53 0 -85.5 29t-32.5 72q0 27 12 45.5t25 22.5q6 2 31.5 10t70 21.5
t82.5 25.5v84zM253 63q0 18 0.5 57.5t0.5 61.5q-132 -45 -138 -48q-9 -5 -9 -30q0 -26 19.5 -45t53.5 -19q42 0 73 23zM194 706l105 -216l-8 -5l-97 110l-97 -110l-8 5z" />
    <glyph glyph-name="atilde" unicode="&#xe3;" horiz-adv-x="405" 
d="M254 299q0 36 -18 57.5t-53 21.5q-38 0 -65 -31v-60l-78 23v5q50 57 82 78q47 30 99 30q51 0 81 -28.5t30 -67.5q0 -36 -2 -142t-2 -115q39 -25 74 -34v-6l-62 -45q-51 19 -83 54q-62 -50 -106 -50q-53 0 -85.5 29t-32.5 72q0 27 12 45.5t25 22.5q6 2 31.5 10t70 21.5
t82.5 25.5v84zM253 63q0 18 0.5 57.5t0.5 61.5q-132 -45 -138 -48q-9 -5 -9 -30q0 -26 19.5 -45t53.5 -19q42 0 73 23zM144 611q12 0 59 -13t58 -13q20 0 58 52l7 -3q-11 -35 -30.5 -69.5t-37.5 -34.5q-15 0 -61 13t-56 13q-16 0 -58 -51l-7 3q11 37 30 70t38 33z" />
    <glyph glyph-name="adieresis" unicode="&#xe4;" horiz-adv-x="405" 
d="M254 299q0 36 -18 57.5t-53 21.5q-38 0 -65 -31v-60l-78 23v5q50 57 82 78q47 30 99 30q51 0 81 -28.5t30 -67.5q0 -36 -2 -142t-2 -115q39 -25 74 -34v-6l-62 -45q-51 19 -83 54q-62 -50 -106 -50q-53 0 -85.5 29t-32.5 72q0 27 12 45.5t25 22.5q6 2 31.5 10t70 21.5
t82.5 25.5v84zM253 63q0 18 0.5 57.5t0.5 61.5q-132 -45 -138 -48q-9 -5 -9 -30q0 -26 19.5 -45t53.5 -19q42 0 73 23zM281 622q17 0 29 -12t12 -30q0 -17 -12 -28.5t-29 -11.5q-18 0 -29.5 11.5t-11.5 28.5q0 18 11.5 30t29.5 12zM116 623q17 0 29.5 -12.5t12.5 -30.5
q0 -17 -12.5 -29t-29.5 -12q-18 0 -30 12t-12 29q0 18 12 30.5t30 12.5z" />
    <glyph glyph-name="aring" unicode="&#xe5;" horiz-adv-x="405" 
d="M254 298q0 36 -18 57.5t-53 21.5q-38 0 -65 -31v-60l-78 23v5q50 57 82 78q47 30 99 30q51 0 81 -28.5t30 -67.5q0 -36 -2 -142t-2 -115q39 -25 74 -34v-6l-62 -45q-51 19 -83 54q-62 -50 -106 -50q-53 0 -85.5 29t-32.5 72q0 27 12 45.5t25 22.5q6 2 31.5 10t70 21.5
t82.5 25.5v84zM253 62q0 18 0.5 57.5t0.5 61.5q-132 -45 -138 -48q-9 -5 -9 -30q0 -26 19.5 -45t53.5 -19q42 0 73 23zM146 575q0 -21 13.5 -36t34.5 -15t34.5 15t13.5 36t-13.5 36t-34.5 15t-34.5 -15t-13.5 -36zM116 575q0 32 23 54.5t55 22.5t55 -22.5t23 -54.5
q0 -33 -22.5 -55t-55.5 -22t-55.5 21.5t-22.5 55.5z" />
    <glyph glyph-name="ae" unicode="&#xe6;" horiz-adv-x="601" 
d="M63 160q8 4 185 62q0 17 0.5 43.5t0.5 35.5q0 77 -70 77q-36 0 -63 -31v-60l-78 23v5q86 108 178 108q35 0 61 -16t38 -42q52 55 119 55q104 0 151 -114v-3l-259 -89q2 -78 45 -122.5t107 -44.5q53 0 105 21l4 -7q-26 -26 -67.5 -48.5t-87.5 -22.5q-91 0 -144 71
q-22 -26 -56.5 -49t-71.5 -23q-60 0 -94.5 28t-34.5 73q0 27 10 45.5t22 24.5zM182 40q52 0 93 41q-26 50 -27 109q-18 -7 -49.5 -19.5t-56 -22t-27.5 -10.5q-10 -6 -10 -33q0 -28 19 -46.5t58 -18.5zM429 388q-32 0 -64.5 -37.5t-37.5 -104.5l172 65q-4 30 -23 53.5
t-47 23.5z" />
    <glyph glyph-name="ccedilla" unicode="&#xe7;" horiz-adv-x="409" 
d="M249 420q59 0 120 -16v-94h-5q-57 76 -133 76q-56 0 -91.5 -48t-35.5 -114q0 -84 47.5 -131t121.5 -47q66 0 115 31l4 -7q-38 -53 -107 -72q-19 -6 -52 -8l-33 -65q31 -7 54.5 -28t23.5 -53q0 -82 -154 -125l-5 9q101 56 101 103q0 22 -22 35t-44 16l-2 3q6 11 15.5 29.5
t13.5 27.5q4 7 10.5 20l9.5 19l5 10q-31 3 -56 13q-56 22 -90 72t-34 122q0 92 60.5 157t162.5 65z" />
    <glyph glyph-name="egrave" unicode="&#xe8;" horiz-adv-x="389" 
d="M104 224q0 -84 44 -130.5t115 -46.5q56 0 108 21l4 -7q-25 -25 -68 -48t-90 -23q-84 0 -137.5 56.5t-53.5 153.5q0 88 56 154t133 66q109 0 151 -136v-1h-256q-6 -27 -6 -59zM211 388q-64 0 -92 -75h162q-3 40 -24.5 57.5t-45.5 17.5zM248 495l-154 177l62 40l101 -212z
" />
    <glyph glyph-name="eacute" unicode="&#xe9;" horiz-adv-x="389" 
d="M104 224q0 -84 44 -130.5t115 -46.5q56 0 108 21l4 -7q-25 -25 -68 -48t-90 -23q-84 0 -137.5 56.5t-53.5 153.5q0 88 56 154t133 66q109 0 151 -136v-1h-256q-6 -27 -6 -59zM211 388q-64 0 -92 -75h162q-3 40 -24.5 57.5t-45.5 17.5zM163 495l-9 5l101 212l62 -40z" />
    <glyph glyph-name="ecircumflex" unicode="&#xea;" horiz-adv-x="389" 
d="M104 224q0 -84 44 -130.5t115 -46.5q56 0 108 21l4 -7q-25 -25 -68 -48t-90 -23q-84 0 -137.5 56.5t-53.5 153.5q0 88 56 154t133 66q109 0 151 -136v-1h-256q-6 -27 -6 -59zM211 388q-64 0 -92 -75h162q-3 40 -24.5 57.5t-45.5 17.5zM203 706l105 -216l-8 -5l-97 110
l-97 -110l-8 5z" />
    <glyph glyph-name="edieresis" unicode="&#xeb;" horiz-adv-x="389" 
d="M104 224q0 -84 44 -130.5t115 -46.5q56 0 108 21l4 -7q-25 -25 -68 -48t-90 -23q-84 0 -137.5 56.5t-53.5 153.5q0 88 56 154t133 66q109 0 151 -136v-1h-256q-6 -27 -6 -59zM211 388q-64 0 -92 -75h162q-3 40 -24.5 57.5t-45.5 17.5zM287 622q17 0 29 -12t12 -30
q0 -17 -12 -28.5t-29 -11.5q-18 0 -29.5 11.5t-11.5 28.5q0 18 11.5 30t29.5 12zM122 623q17 0 29.5 -12.5t12.5 -30.5q0 -17 -12.5 -29t-29.5 -12q-18 0 -30 12t-12 29q0 18 12 30.5t30 12.5z" />
    <glyph glyph-name="igrave" unicode="&#xec;" horiz-adv-x="239" 
d="M21 0v6l59 43v294l-56 30v6l8 3q7 3 20.5 7.5t29.5 10t37 12.5t40 12v-375l60 -43v-6h-198zM154 495l-154 177l62 40l101 -212z" />
    <glyph glyph-name="iacute" unicode="&#xed;" horiz-adv-x="239" 
d="M21 0v6l59 43v294l-56 30v6l8 3q7 3 20.5 7.5t29.5 10t37 12.5t40 12v-375l60 -43v-6h-198zM76 495l-9 5l101 212l62 -40z" />
    <glyph glyph-name="icircumflex" unicode="&#xee;" horiz-adv-x="239" 
d="M21 0v6l59 43v294l-56 30v6l8 3q7 3 20.5 7.5t29.5 10t37 12.5t40 12v-375l60 -43v-6h-198zM112 706l105 -216l-8 -5l-97 110l-97 -110l-8 5z" />
    <glyph glyph-name="idieresis" unicode="&#xef;" horiz-adv-x="239" 
d="M21 0v6l59 43v294l-56 30v6l8 3q7 3 20.5 7.5t29.5 10t37 12.5t40 12v-375l60 -43v-6h-198zM193 622q17 0 29 -12t12 -30q0 -17 -12 -28.5t-29 -11.5q-18 0 -29.5 11.5t-11.5 28.5q0 18 11.5 30t29.5 12zM40 623q17 0 29.5 -12.5t12.5 -30.5q0 -17 -12.5 -29t-29.5 -12
q-18 0 -30 12t-12 29q0 18 12 30.5t30 12.5z" />
    <glyph glyph-name="eth" unicode="&#xf0;" horiz-adv-x="465" 
d="M39 719q114 -28 205 -96l102 61l15 -26l-92 -55q164 -135 164 -343q0 -119 -59 -194.5t-142 -75.5q-82 0 -144.5 59t-62.5 160q0 89 53.5 148t140.5 59q71 0 113 -40q-30 103 -114 197l-141 -84l-15 25l135 81q-73 73 -161 116zM351 244q0 41 -8 86q-39 52 -110 52
q-57 0 -89.5 -47t-32.5 -119q0 -85 37.5 -139t84.5 -54t82.5 64.5t35.5 156.5z" />
    <glyph glyph-name="ntilde" unicode="&#xf1;" horiz-adv-x="509" 
d="M21 0v6l59 43v294l-56 29v7l8 3q7 3 20.5 7.5t29.5 10t37 12.5t40 12v-73q77 69 149 69q50 0 87.5 -30.5t37.5 -72.5v-268l60 -43v-6h-197v6l58 43v240q0 34 -23.5 57t-67.5 23q-56 0 -104 -48v-272l60 -43v-6h-198zM204 611q12 0 59 -13t58 -13q20 0 58 52l7 -3
q-11 -35 -30.5 -69.5t-37.5 -34.5q-15 0 -61 13t-56 13q-16 0 -58 -51l-7 3q11 37 30 70t38 33z" />
    <glyph glyph-name="ograve" unicode="&#xf2;" horiz-adv-x="463" 
d="M26 200q0 92 60.5 156t144.5 64q86 0 146 -59.5t60 -151.5q0 -93 -60.5 -156t-145.5 -63t-145 59t-60 151zM112 205q0 -79 34.5 -131t84.5 -52t85 52.5t35 130.5q0 77 -35 130t-85 53q-49 0 -84 -53t-35 -130zM264 495l-154 177l62 40l101 -212z" />
    <glyph glyph-name="oacute" unicode="&#xf3;" horiz-adv-x="463" 
d="M26 200q0 92 60.5 156t144.5 64q86 0 146 -59.5t60 -151.5q0 -93 -60.5 -156t-145.5 -63t-145 59t-60 151zM112 205q0 -79 34.5 -131t84.5 -52t85 52.5t35 130.5q0 77 -35 130t-85 53q-49 0 -84 -53t-35 -130zM185 495l-9 5l101 212l62 -40z" />
    <glyph glyph-name="ocircumflex" unicode="&#xf4;" horiz-adv-x="463" 
d="M26 200q0 92 60.5 156t144.5 64q86 0 146 -59.5t60 -151.5q0 -93 -60.5 -156t-145.5 -63t-145 59t-60 151zM112 205q0 -79 34.5 -131t84.5 -52t85 52.5t35 130.5q0 77 -35 130t-85 53q-49 0 -84 -53t-35 -130zM230 706l105 -216l-8 -5l-97 110l-97 -110l-8 5z" />
    <glyph glyph-name="otilde" unicode="&#xf5;" horiz-adv-x="463" 
d="M26 200q0 92 60.5 156t144.5 64q86 0 146 -59.5t60 -151.5q0 -93 -60.5 -156t-145.5 -63t-145 59t-60 151zM112 205q0 -79 34.5 -131t84.5 -52t85 52.5t35 130.5q0 77 -35 130t-85 53q-49 0 -84 -53t-35 -130zM175 611q12 0 59 -13t58 -13q20 0 58 52l7 -3
q-11 -35 -30.5 -69.5t-37.5 -34.5q-15 0 -61 13t-56 13q-16 0 -58 -51l-7 3q11 37 30 70t38 33z" />
    <glyph glyph-name="odieresis" unicode="&#xf6;" horiz-adv-x="463" 
d="M26 200q0 92 60.5 156t144.5 64q86 0 146 -59.5t60 -151.5q0 -93 -60.5 -156t-145.5 -63t-145 59t-60 151zM112 205q0 -79 34.5 -131t84.5 -52t85 52.5t35 130.5q0 77 -35 130t-85 53q-49 0 -84 -53t-35 -130zM313 622q17 0 29 -12t12 -30q0 -17 -12 -28.5t-29 -11.5
q-18 0 -29.5 11.5t-11.5 28.5q0 18 11.5 30t29.5 12zM148 623q17 0 29.5 -12.5t12.5 -30.5q0 -17 -12.5 -29t-29.5 -12q-18 0 -30 12t-12 29q0 18 12 30.5t30 12.5z" />
    <glyph glyph-name="divide" unicode="&#xf7;" horiz-adv-x="468" 
d="M187 85q0 21 13.5 34.5t33.5 13.5t33.5 -13.5t13.5 -34.5q0 -20 -13.5 -33.5t-33.5 -13.5t-33.5 13.5t-13.5 33.5zM187 399q0 21 13.5 35t33.5 14t33.5 -14t13.5 -35q0 -20 -13.5 -33t-33.5 -13t-33.5 13t-13.5 33zM47 263h374v-34h-374v34z" />
    <glyph glyph-name="oslash" unicode="&#xf8;" horiz-adv-x="463" 
d="M26 200q0 92 60.5 156t144.5 64q52 0 101 -27l46 73l27 -16l-47 -74q79 -62 79 -167q0 -93 -60.5 -156t-145.5 -63q-54 0 -101 26l-49 -77l-28 16l50 79q-77 61 -77 166zM352 205q0 70 -27 119l-168 -265q31 -36 74 -36q51 0 86 51.5t35 130.5zM112 205q0 -71 25 -117
l168 264q-31 36 -74 36q-49 0 -84 -53t-35 -130z" />
    <glyph glyph-name="ugrave" unicode="&#xf9;" horiz-adv-x="494" 
d="M15 372v7l7 3q8 3 21 7.5t29 10t37 12.5t41 12v-302q0 -35 21.5 -57.5t63.5 -22.5q46 0 102 48v252l-64 30v7q74 26 143 45v-362l67 -26v-7q-9 -2 -34.5 -9t-37.5 -10q-72 -18 -74 -18v68q-68 -68 -142 -68q-52 0 -88 32t-36 82v237zM279 495l-154 177l62 40l101 -212z
" />
    <glyph glyph-name="uacute" unicode="&#xfa;" horiz-adv-x="494" 
d="M15 372v7l7 3q8 3 21 7.5t29 10t37 12.5t41 12v-302q0 -35 21.5 -57.5t63.5 -22.5q46 0 102 48v252l-64 30v7q74 26 143 45v-362l67 -26v-7q-9 -2 -34.5 -9t-37.5 -10q-72 -18 -74 -18v68q-68 -68 -142 -68q-52 0 -88 32t-36 82v237zM208 495l-9 5l101 212l62 -40z" />
    <glyph glyph-name="ucircumflex" unicode="&#xfb;" horiz-adv-x="494" 
d="M15 372v7l7 3q8 3 21 7.5t29 10t37 12.5t41 12v-302q0 -35 21.5 -57.5t63.5 -22.5q46 0 102 48v252l-64 30v7q74 26 143 45v-362l67 -26v-7q-9 -2 -34.5 -9t-37.5 -10q-72 -18 -74 -18v68q-68 -68 -142 -68q-52 0 -88 32t-36 82v237zM237 706l105 -216l-8 -5l-97 110
l-97 -110l-8 5z" />
    <glyph glyph-name="udieresis" unicode="&#xfc;" horiz-adv-x="494" 
d="M15 372v7l7 3q8 3 21 7.5t29 10t37 12.5t41 12v-302q0 -35 21.5 -57.5t63.5 -22.5q46 0 102 48v252l-64 30v7q74 26 143 45v-362l67 -26v-7q-9 -2 -34.5 -9t-37.5 -10q-72 -18 -74 -18v68q-68 -68 -142 -68q-52 0 -88 32t-36 82v237zM321 622q17 0 29 -12t12 -30
q0 -17 -12 -28.5t-29 -11.5q-18 0 -29.5 11.5t-11.5 28.5q0 18 11.5 30t29.5 12zM156 623q17 0 29.5 -12.5t12.5 -30.5q0 -17 -12.5 -29t-29.5 -12q-18 0 -30 12t-12 29q0 18 12 30.5t30 12.5z" />
    <glyph glyph-name="yacute" unicode="&#xfd;" horiz-adv-x="424" 
d="M198 -91q-46 -118 -52 -180h-99v5q75 73 121 192l33 84l-151 352l-50 42v6h194v-6l-57 -42l102 -252l94 252l-60 42v6h151v-6l-51 -42zM194 495l-9 5l101 212l62 -40z" />
    <glyph glyph-name="thorn" unicode="&#xfe;" horiz-adv-x="469" 
d="M4 671v7l8 3q8 3 21.5 8t30 11t37.5 13t40 12v-371q56 66 131 66q81 0 124.5 -55t43.5 -140q0 -56 -23 -108t-76 -89.5t-126 -37.5q-35 0 -74 4v-216l91 -42v-6h-230v6l60 42v861zM236 365q-59 0 -95 -36v-287q32 -18 73 -18q64 0 103.5 51.5t39.5 128.5q0 79 -33.5 120
t-87.5 41z" />
    <glyph glyph-name="ydieresis" unicode="&#xff;" horiz-adv-x="424" 
d="M198 -91q-46 -118 -52 -180h-99v5q75 73 121 192l33 84l-151 352l-50 42v6h194v-6l-57 -42l102 -252l94 252l-60 42v6h151v-6l-51 -42zM309 622q17 0 29 -12t12 -30q0 -17 -12 -28.5t-29 -11.5q-18 0 -29.5 11.5t-11.5 28.5q0 18 11.5 30t29.5 12zM144 623
q17 0 29.5 -12.5t12.5 -30.5q0 -17 -12.5 -29t-29.5 -12q-18 0 -30 12t-12 29q0 18 12 30.5t30 12.5z" />
    <glyph glyph-name="Amacron" unicode="&#x100;" horiz-adv-x="636" 
d="M171 6v-6h-165v6l56 48l240 622h11l261 -622l56 -48v-6h-216v6l69 48l-94 225h-201l-86 -225zM201 312h174l-91 217zM197 773h225v-46h-225v46z" />
    <glyph glyph-name="amacron" unicode="&#x101;" horiz-adv-x="405" 
d="M254 299q0 36 -18 57.5t-53 21.5q-38 0 -65 -31v-60l-78 23v5q50 57 82 78q47 30 99 30q51 0 81 -28.5t30 -67.5q0 -36 -2 -142t-2 -115q39 -25 74 -34v-6l-62 -45q-51 19 -83 54q-62 -50 -106 -50q-53 0 -85.5 29t-32.5 72q0 27 12 45.5t25 22.5q6 2 31.5 10t70 21.5
t82.5 25.5v84zM253 63q0 18 0.5 57.5t0.5 61.5q-132 -45 -138 -48q-9 -5 -9 -30q0 -26 19.5 -45t53.5 -19q42 0 73 23zM91 580h197v-46h-197v46z" />
    <glyph glyph-name="Abreve" unicode="&#x102;" horiz-adv-x="636" 
d="M171 6v-6h-165v6l56 48l240 622h11l261 -622l56 -48v-6h-216v6l69 48l-94 225h-201l-86 -225zM201 312h174l-91 217zM309 713q-48 0 -78.5 36.5t-32.5 84.5l7 1q33 -65 104 -65q70 0 104 65l7 -1q-4 -49 -33 -85t-78 -36z" />
    <glyph glyph-name="abreve" unicode="&#x103;" horiz-adv-x="405" 
d="M254 299q0 36 -18 57.5t-53 21.5q-38 0 -65 -31v-60l-78 23v5q50 57 82 78q47 30 99 30q51 0 81 -28.5t30 -67.5q0 -36 -2 -142t-2 -115q39 -25 74 -34v-6l-62 -45q-51 19 -83 54q-62 -50 -106 -50q-53 0 -85.5 29t-32.5 72q0 27 12 45.5t25 22.5q6 2 31.5 10t70 21.5
t82.5 25.5v84zM253 63q0 18 0.5 57.5t0.5 61.5q-132 -45 -138 -48q-9 -5 -9 -30q0 -26 19.5 -45t53.5 -19q42 0 73 23zM196 563q64 0 89 72l8 -1q0 -55 -25.5 -91t-71.5 -36q-48 0 -72.5 35t-24.5 92l8 1q10 -33 33.5 -52.5t55.5 -19.5z" />
    <glyph glyph-name="Aogonek" unicode="&#x104;" horiz-adv-x="636" 
d="M389 279h-201l-86 -225l69 -48v-6h-165v6l56 48l240 622h11l261 -622l56 -48v-6h-103q-94 -94 -94 -165q0 -69 73 -69q25 0 50 11l4 -5q-38 -49 -100 -49q-44 0 -71 27t-27 70q0 91 144 180zM200 312h175l-91 217z" />
    <glyph glyph-name="aogonek" unicode="&#x105;" horiz-adv-x="405" 
d="M328 70q39 -25 74 -34v-6q-59 -39 -99.5 -89.5t-40.5 -105.5q0 -69 73 -69q25 0 50 11l4 -5q-38 -49 -100 -49q-44 0 -71 27t-27 70q0 89 133 172q-44 19 -67 48q-63 -51 -106 -51q-53 0 -85.5 29t-32.5 72q0 27 12 45.5t25 22.5q6 2 31.5 10t70 21.5t82.5 25.5v84
q0 36 -18 57.5t-53 21.5q-38 0 -65 -31v-60l-78 23v5q50 57 82 78q47 30 99 30q51 0 81 -28.5t30 -67.5q0 -36 -2 -142t-2 -115zM180 40q42 0 73 23q0 18 0.5 57.5t0.5 61.5q-132 -45 -138 -48q-9 -5 -9 -30q0 -26 19.5 -45t53.5 -19z" />
    <glyph glyph-name="Cacute" unicode="&#x106;" horiz-adv-x="670" 
d="M398 -11q-155 0 -256.5 94.5t-101.5 243.5q0 141 98.5 243.5t259.5 102.5q101 0 204 -29v-108h-5q-74 103 -203 103q-116 0 -185.5 -88t-69.5 -215q0 -136 76 -224.5t186 -88.5q121 0 210 110h5v-98q-89 -46 -218 -46zM274 703l-5 9l209 129l29 -63z" />
    <glyph glyph-name="cacute" unicode="&#x107;" horiz-adv-x="409" 
d="M249 420q59 0 120 -16v-94h-5q-57 76 -133 76q-56 0 -91.5 -48t-35.5 -114q0 -84 47.5 -131t121.5 -47q66 0 115 31l4 -7q-23 -33 -65 -56.5t-99 -23.5q-85 0 -143.5 56t-58.5 152q0 92 60.5 157t162.5 65zM187 495l-9 5l101 212l62 -40z" />
    <glyph glyph-name="Ccircumflex" unicode="&#x108;" horiz-adv-x="670" 
d="M398 -11q-155 0 -256.5 94.5t-101.5 243.5q0 141 98.5 243.5t259.5 102.5q101 0 204 -29v-108h-5q-74 103 -203 103q-116 0 -185.5 -88t-69.5 -215q0 -136 76 -224.5t186 -88.5q121 0 210 110h5v-98q-89 -46 -218 -46zM386 834l137 -120l-4 -7l-133 54l-136 -54l-5 7z
" />
    <glyph glyph-name="ccircumflex" unicode="&#x109;" horiz-adv-x="409" 
d="M249 420q59 0 120 -16v-94h-5q-57 76 -133 76q-56 0 -91.5 -48t-35.5 -114q0 -84 47.5 -131t121.5 -47q66 0 115 31l4 -7q-23 -33 -65 -56.5t-99 -23.5q-85 0 -143.5 56t-58.5 152q0 92 60.5 157t162.5 65zM223 706l105 -216l-8 -5l-97 110l-97 -110l-8 5z" />
    <glyph glyph-name="Cdotaccent" unicode="&#x10a;" horiz-adv-x="670" 
d="M398 -11q-155 0 -256.5 94.5t-101.5 243.5q0 141 98.5 243.5t259.5 102.5q101 0 204 -29v-108h-5q-74 103 -203 103q-116 0 -185.5 -88t-69.5 -215q0 -136 76 -224.5t186 -88.5q121 0 210 110h5v-98q-89 -46 -218 -46zM340 769q0 20 13.5 33.5t33.5 13.5t33 -13.5
t13 -33.5t-13 -33t-33 -13t-33.5 13t-13.5 33z" />
    <glyph glyph-name="cdotaccent" unicode="&#x10b;" horiz-adv-x="409" 
d="M249 420q59 0 120 -16v-94h-5q-57 76 -133 76q-56 0 -91.5 -48t-35.5 -114q0 -84 47.5 -131t121.5 -47q66 0 115 31l4 -7q-23 -33 -65 -56.5t-99 -23.5q-85 0 -143.5 56t-58.5 152q0 92 60.5 157t162.5 65zM175 584q0 20 13.5 33.5t33.5 13.5t33 -13.5t13 -33.5
t-13 -32.5t-33 -12.5t-33.5 12.5t-13.5 32.5z" />
    <glyph glyph-name="Ccaron" unicode="&#x10c;" horiz-adv-x="670" 
d="M398 -11q-155 0 -256.5 94.5t-101.5 243.5q0 141 98.5 243.5t259.5 102.5q101 0 204 -29v-108h-5q-74 103 -203 103q-116 0 -185.5 -88t-69.5 -215q0 -136 76 -224.5t186 -88.5q121 0 210 110h5v-98q-89 -46 -218 -46zM250 830l136 -54l133 54l4 -7l-137 -120l-141 120z
" />
    <glyph glyph-name="ccaron" unicode="&#x10d;" horiz-adv-x="409" 
d="M249 420q59 0 120 -16v-94h-5q-57 76 -133 76q-56 0 -91.5 -48t-35.5 -114q0 -84 47.5 -131t121.5 -47q66 0 115 31l4 -7q-23 -33 -65 -56.5t-99 -23.5q-85 0 -143.5 56t-58.5 152q0 92 60.5 157t162.5 65zM125 705l97 -110l97 110l8 -5l-105 -216l-105 216z" />
    <glyph glyph-name="Dcaron" unicode="&#x10e;" horiz-adv-x="721" 
d="M311 662q161 0 267 -86.5t106 -239.5q0 -148 -96 -242t-251 -94h-292v6l66 48v554l-66 48v6h266zM200 630v-574q48 -24 135 -24q112 0 181 82t69 221q0 133 -79 214t-197 81h-109zM219 830l136 -54l133 54l4 -7l-137 -120l-141 120z" />
    <glyph glyph-name="dcaron" unicode="&#x10f;" horiz-adv-x="480" 
d="M259 671v7q77 28 146 47v-662l69 -27v-7l-72 -18q-14 -4 -33.5 -9t-30 -7.5t-11.5 -2.5v55q-20 -22 -54 -39.5t-59 -17.5q-81 0 -134 58t-53 143q0 93 60.5 160.5t167.5 67.5q51 0 71 -5v226zM251 44q47 0 75 28v293q-25 22 -74 22q-63 0 -102.5 -51t-39.5 -126
q0 -78 40 -122t101 -44zM457 509l21 206h67l-78 -206h-10z" />
    <glyph glyph-name="Dcroat" unicode="&#x110;" horiz-adv-x="721" 
d="M23 354h87v254l-66 48v6h266q161 0 267 -86.5t106 -239.5q0 -148 -96 -242t-251 -94h-292v6l66 48v266h-87v34zM199 320v-265l1 1q46 -24 134 -24q112 0 181 82t69 221q0 133 -79 214t-197 81h-109v-276h211v-34h-211z" />
    <glyph glyph-name="dcroat" unicode="&#x111;" horiz-adv-x="480" 
d="M158 535v30h329v-30h-329zM259 671v7q77 28 146 47v-662l69 -27v-7l-72 -18q-14 -4 -33.5 -9t-30 -7.5t-11.5 -2.5v55q-20 -22 -54 -39.5t-59 -17.5q-81 0 -134 58t-53 143q0 93 60.5 160.5t167.5 67.5q51 0 71 -5v226zM251 44q47 0 75 28v293q-25 22 -74 22
q-63 0 -102.5 -51t-39.5 -126q0 -78 40 -122t101 -44z" />
    <glyph glyph-name="Emacron" unicode="&#x112;" horiz-adv-x="558" 
d="M45 0v6l66 48v554l-66 48v6h437v-117h-6l-66 84h-210v-260h216l45 69h5v-170h-5l-45 68h-216v-302h230l70 104h6v-138h-461zM181 773h225v-46h-225v46z" />
    <glyph glyph-name="emacron" unicode="&#x113;" horiz-adv-x="389" 
d="M104 224q0 -84 44 -130.5t115 -46.5q56 0 108 21l4 -7q-25 -25 -68 -48t-90 -23q-84 0 -137.5 56.5t-53.5 153.5q0 88 56 154t133 66q109 0 151 -136v-1h-256q-6 -27 -6 -59zM211 388q-64 0 -92 -75h162q-3 40 -24.5 57.5t-45.5 17.5zM110 580h197v-46h-197v46z" />
    <glyph glyph-name="Ebreve" unicode="&#x114;" horiz-adv-x="558" 
d="M45 0v6l66 48v554l-66 48v6h437v-117h-6l-66 84h-210v-260h216l45 69h5v-170h-5l-45 68h-216v-302h230l70 104h6v-138h-461zM293 713q-48 0 -78.5 36.5t-32.5 84.5l7 1q33 -65 104 -65q70 0 104 65l7 -1q-4 -49 -33 -85t-78 -36z" />
    <glyph glyph-name="ebreve" unicode="&#x115;" horiz-adv-x="389" 
d="M104 224q0 -84 44 -130.5t115 -46.5q56 0 108 21l4 -7q-25 -25 -68 -48t-90 -23q-84 0 -137.5 56.5t-53.5 153.5q0 88 56 154t133 66q109 0 151 -136v-1h-256q-6 -27 -6 -59zM211 388q-64 0 -92 -75h162q-3 40 -24.5 57.5t-45.5 17.5zM205 563q64 0 89 72l8 -1
q0 -55 -25.5 -91t-71.5 -36q-48 0 -72.5 35t-24.5 92l8 1q10 -33 33.5 -52.5t55.5 -19.5z" />
    <glyph glyph-name="Edotaccent" unicode="&#x116;" horiz-adv-x="558" 
d="M45 0v6l66 48v554l-66 48v6h437v-117h-6l-66 84h-210v-260h216l45 69h5v-170h-5l-45 68h-216v-302h230l70 104h6v-138h-461zM247 769q0 20 13.5 33.5t33.5 13.5t33 -13.5t13 -33.5t-13 -33t-33 -13t-33.5 13t-13.5 33z" />
    <glyph glyph-name="edotaccent" unicode="&#x117;" horiz-adv-x="389" 
d="M104 224q0 -84 44 -130.5t115 -46.5q56 0 108 21l4 -7q-25 -25 -68 -48t-90 -23q-84 0 -137.5 56.5t-53.5 153.5q0 88 56 154t133 66q109 0 151 -136v-1h-256q-6 -27 -6 -59zM211 388q-64 0 -92 -75h162q-3 40 -24.5 57.5t-45.5 17.5zM161 584q0 20 13.5 33.5t33.5 13.5
t33 -13.5t13 -33.5t-13 -32.5t-33 -12.5t-33.5 12.5t-13.5 32.5z" />
    <glyph glyph-name="Eogonek" unicode="&#x118;" horiz-adv-x="558" 
d="M45 0v6l66 48v554l-66 48v6h437v-117h-6l-66 84h-210v-260h216l45 69h5v-170h-5l-45 68h-216v-302h230l70 104h6v-138h-461zM375 -277q-44 0 -71 27t-27 70q0 91 144 180h21q-94 -94 -94 -165q0 -69 73 -69q25 0 50 11l4 -5q-38 -49 -100 -49z" />
    <glyph glyph-name="eogonek" unicode="&#x119;" horiz-adv-x="389" 
d="M149 -180q0 50 37.5 92t106.5 94q-41 -16 -76 -16q-84 0 -137.5 56.5t-53.5 153.5q0 88 56 154t133 66q109 0 151 -136v-1h-256q-6 -27 -6 -59q0 -84 44 -130.5t115 -46.5q56 0 108 21l4 -7l-68 -67q-87 -87 -87 -159q0 -69 73 -69q25 0 50 11l4 -5q-38 -49 -100 -49
q-44 0 -71 27t-27 70zM211 388q-64 0 -92 -75h162q-3 40 -24.5 57.5t-45.5 17.5z" />
    <glyph glyph-name="Ecaron" unicode="&#x11a;" horiz-adv-x="558" 
d="M45 0v6l66 48v554l-66 48v6h437v-117h-6l-66 84h-210v-260h216l45 69h5v-170h-5l-45 68h-216v-302h230l70 104h6v-138h-461zM156 830l136 -54l133 54l4 -7l-137 -120l-141 120z" />
    <glyph glyph-name="ecaron" unicode="&#x11b;" horiz-adv-x="389" 
d="M104 224q0 -84 44 -130.5t115 -46.5q56 0 108 21l4 -7q-25 -25 -68 -48t-90 -23q-84 0 -137.5 56.5t-53.5 153.5q0 88 56 154t133 66q109 0 151 -136v-1h-256q-6 -27 -6 -59zM211 388q-64 0 -92 -75h162q-3 40 -24.5 57.5t-45.5 17.5zM107 705l97 -110l97 110l8 -5
l-105 -216l-105 216z" />
    <glyph glyph-name="Gcircumflex" unicode="&#x11c;" horiz-adv-x="718" 
d="M633 44q-7 -2 -38.5 -14t-55 -19.5t-62.5 -14.5t-75 -7q-162 0 -262 95.5t-100 245.5q0 141 98 242t259 101q88 0 215 -29v-107h-5q-73 102 -210 102q-120 0 -189 -87.5t-69 -215.5q0 -131 74.5 -221.5t193.5 -90.5q79 0 136 37v229l-82 48v6h225v-6l-53 -48v-246z
M380 834l137 -120l-4 -7l-133 54l-136 -54l-5 7z" />
    <glyph glyph-name="gcircumflex" unicode="&#x11d;" horiz-adv-x="427" 
d="M33 274q0 61 49.5 103.5t117.5 42.5q36 0 65 -10h153v-37h-99q49 -38 49 -94q0 -62 -49.5 -104t-118.5 -42q-31 0 -53 7q-40 -30 -40 -52q0 -38 44 -38h172q28 0 61.5 -30.5t33.5 -83.5q0 -81 -75.5 -147t-171.5 -66q-73 0 -117 30t-44 78q0 74 94 150q-62 21 -62 82
q0 30 11 39l68 47q-40 18 -64 51t-24 74zM140 -26q-10 0 -13 1q-52 -59 -52 -116q0 -40 36.5 -64.5t95.5 -24.5q61 0 107 36.5t46 86.5q0 81 -95 81h-125zM115 276q0 -48 24 -81.5t62 -33.5q37 0 60.5 33.5t23.5 81.5q0 49 -23.5 82.5t-60.5 33.5q-38 0 -62 -33.5t-24 -82.5
zM199 706l105 -216l-8 -5l-97 110l-97 -110l-8 5z" />
    <glyph glyph-name="Gbreve" unicode="&#x11e;" horiz-adv-x="718" 
d="M633 44q-7 -2 -38.5 -14t-55 -19.5t-62.5 -14.5t-75 -7q-162 0 -262 95.5t-100 245.5q0 141 98 242t259 101q88 0 215 -29v-107h-5q-73 102 -210 102q-120 0 -189 -87.5t-69 -215.5q0 -131 74.5 -221.5t193.5 -90.5q79 0 136 37v229l-82 48v6h225v-6l-53 -48v-246z
M380 713q-48 0 -78.5 36.5t-32.5 84.5l7 1q33 -65 104 -65q70 0 104 65l7 -1q-4 -49 -33 -85t-78 -36z" />
    <glyph glyph-name="gbreve" unicode="&#x11f;" horiz-adv-x="427" 
d="M33 274q0 61 49.5 103.5t117.5 42.5q36 0 65 -10h153v-37h-99q49 -38 49 -94q0 -62 -49.5 -104t-118.5 -42q-31 0 -53 7q-40 -30 -40 -52q0 -38 44 -38h172q28 0 61.5 -30.5t33.5 -83.5q0 -81 -75.5 -147t-171.5 -66q-73 0 -117 30t-44 78q0 74 94 150q-62 21 -62 82
q0 30 11 39l68 47q-40 18 -64 51t-24 74zM140 -26q-10 0 -13 1q-52 -59 -52 -116q0 -40 36.5 -64.5t95.5 -24.5q61 0 107 36.5t46 86.5q0 81 -95 81h-125zM115 276q0 -48 24 -81.5t62 -33.5q37 0 60.5 33.5t23.5 81.5q0 49 -23.5 82.5t-60.5 33.5q-38 0 -62 -33.5t-24 -82.5
zM198 563q64 0 89 72l8 -1q0 -55 -25.5 -91t-71.5 -36q-48 0 -72.5 35t-24.5 92l8 1q10 -33 33.5 -52.5t55.5 -19.5z" />
    <glyph glyph-name="Gdotaccent" unicode="&#x120;" horiz-adv-x="718" 
d="M633 44q-7 -2 -38.5 -14t-55 -19.5t-62.5 -14.5t-75 -7q-162 0 -262 95.5t-100 245.5q0 141 98 242t259 101q88 0 215 -29v-107h-5q-73 102 -210 102q-120 0 -189 -87.5t-69 -215.5q0 -131 74.5 -221.5t193.5 -90.5q79 0 136 37v229l-82 48v6h225v-6l-53 -48v-246z
M331 769q0 20 13.5 33.5t33.5 13.5t33 -13.5t13 -33.5t-13 -33t-33 -13t-33.5 13t-13.5 33z" />
    <glyph glyph-name="gdotaccent" unicode="&#x121;" horiz-adv-x="427" 
d="M33 274q0 61 49.5 103.5t117.5 42.5q36 0 65 -10h153v-37h-99q49 -38 49 -94q0 -62 -49.5 -104t-118.5 -42q-31 0 -53 7q-40 -30 -40 -52q0 -38 44 -38h172q28 0 61.5 -30.5t33.5 -83.5q0 -81 -75.5 -147t-171.5 -66q-73 0 -117 30t-44 78q0 74 94 150q-62 21 -62 82
q0 30 11 39l68 47q-40 18 -64 51t-24 74zM140 -26q-10 0 -13 1q-52 -59 -52 -116q0 -40 36.5 -64.5t95.5 -24.5q61 0 107 36.5t46 86.5q0 81 -95 81h-125zM115 276q0 -48 24 -81.5t62 -33.5q37 0 60.5 33.5t23.5 81.5q0 49 -23.5 82.5t-60.5 33.5q-38 0 -62 -33.5t-24 -82.5
zM152 584q0 20 13.5 33.5t33.5 13.5t33 -13.5t13 -33.5t-13 -32.5t-33 -12.5t-33.5 12.5t-13.5 32.5z" />
    <glyph glyph-name="Gcommaaccent" unicode="&#x122;" horiz-adv-x="718" 
d="M633 44q-7 -2 -38.5 -14t-55 -19.5t-62.5 -14.5t-75 -7q-162 0 -262 95.5t-100 245.5q0 141 98 242t259 101q88 0 215 -29v-107h-5q-73 102 -210 102q-120 0 -189 -87.5t-69 -215.5q0 -131 74.5 -221.5t193.5 -90.5q79 0 136 37v229l-82 48v6h225v-6l-53 -48v-246z
M433 -140q0 -44 -27.5 -87t-61.5 -64l-10 4q51 64 56 129q-1 -1 -5 -1q-2 -1 -10 -1q-17 0 -27.5 11.5t-10.5 28.5q0 18 12.5 30t30.5 12q24 0 38.5 -16.5t14.5 -45.5z" />
    <glyph glyph-name="gcommaaccent" unicode="&#x123;" horiz-adv-x="427" 
d="M33 274q0 61 49.5 103.5t117.5 42.5q36 0 65 -10h153v-37h-99q49 -38 49 -94q0 -62 -49.5 -104t-118.5 -42q-31 0 -53 7q-40 -30 -40 -52q0 -38 44 -38h172q28 0 61.5 -30.5t33.5 -83.5q0 -81 -75.5 -147t-171.5 -66q-73 0 -117 30t-44 78q0 74 94 150q-62 21 -62 82
q0 30 11 39l68 47q-40 18 -64 51t-24 74zM140 -26q-10 0 -13 1q-52 -59 -52 -116q0 -40 36.5 -64.5t95.5 -24.5q61 0 107 36.5t46 86.5q0 81 -95 81h-125zM115 276q0 -48 24 -81.5t62 -33.5q37 0 60.5 33.5t23.5 81.5q0 49 -23.5 82.5t-60.5 33.5q-38 0 -62 -33.5t-24 -82.5
zM145 562q0 45 26.5 86t62.5 65l10 -4q-51 -64 -56 -129q2 0 4 1q1 0 5 0.5t6 0.5q17 0 27.5 -11.5t10.5 -28.5q0 -18 -12.5 -30t-30.5 -12q-24 0 -38.5 16.5t-14.5 45.5z" />
    <glyph glyph-name="Hcircumflex" unicode="&#x124;" horiz-adv-x="773" 
d="M200 354h373v254l-66 48v6h221v-6l-66 -48v-554l66 -48v-6h-221v6l66 48v265h-373v-265l66 -48v-6h-221v6l66 48v554l-66 48v6h221v-6l-66 -48v-254zM386 834l137 -120l-4 -7l-133 54l-136 -54l-5 7z" />
    <glyph glyph-name="hcircumflex" unicode="&#x125;" horiz-adv-x="509" 
d="M21 0v6l59 43v591l-59 31v7q69 28 138 47v-374q74 69 149 69q51 0 88 -31.5t37 -73.5v-266l60 -43v-6h-198v6l59 43v241q0 34 -24 56.5t-67 22.5q-54 0 -104 -48v-272l60 -43v-6h-198zM257 885l137 -120l-4 -7l-133 54l-136 -54l-5 7z" />
    <glyph glyph-name="Hbar" unicode="&#x126;" horiz-adv-x="773" 
d="M23 475v33h727v-33h-727zM199 354h373v254l-66 48v6h221v-6l-66 -48v-554l66 -48v-6h-221v6l66 48v265h-373v-265l66 -48v-6h-221v6l66 48v554l-66 48v6h221v-6l-66 -48v-254z" />
    <glyph glyph-name="hbar" unicode="&#x127;" horiz-adv-x="509" 
d="M-2 535v30h324v-30h-324zM21 0v6l59 43v591l-59 31v7q69 28 138 47v-374q74 69 149 69q51 0 88 -31.5t37 -73.5v-266l60 -43v-6h-198v6l59 43v241q0 34 -24 56.5t-67 22.5q-54 0 -104 -48v-272l60 -43v-6h-198z" />
    <glyph glyph-name="Itilde" unicode="&#x128;" horiz-adv-x="311" 
d="M45 0v6l66 48v554l-66 48v6h221v-6l-66 -48v-554l66 -48v-6h-221zM100 803q12 0 66 -9t67 -9q24 0 66 48l6 -3q-8 -27 -32.5 -63.5t-45.5 -36.5q-18 0 -70 9t-62 9q-26 0 -66 -49l-6 3q13 33 34.5 67t42.5 34z" />
    <glyph glyph-name="itilde" unicode="&#x129;" horiz-adv-x="239" 
d="M21 0v6l59 43v294l-56 30v6l8 3q7 3 20.5 7.5t29.5 10t37 12.5t40 12v-375l60 -43v-6h-198zM62 611q12 0 59 -13t58 -13q20 0 58 52l7 -3q-11 -35 -30.5 -69.5t-37.5 -34.5q-15 0 -61 13t-56 13q-16 0 -58 -51l-7 3q11 37 30 70t38 33z" />
    <glyph glyph-name="Imacron" unicode="&#x12a;" horiz-adv-x="311" 
d="M45 0v6l66 48v554l-66 48v6h221v-6l-66 -48v-554l66 -48v-6h-221zM43 773h225v-46h-225v46z" />
    <glyph glyph-name="imacron" unicode="&#x12b;" horiz-adv-x="239" 
d="M21 0v6l59 43v294l-56 30v6l8 3q7 3 20.5 7.5t29.5 10t37 12.5t40 12v-375l60 -43v-6h-198zM16 580h197v-46h-197v46z" />
    <glyph glyph-name="Ibreve" unicode="&#x12c;" horiz-adv-x="311" 
d="M45 0v6l66 48v554l-66 48v6h221v-6l-66 -48v-554l66 -48v-6h-221zM155 713q-48 0 -78.5 36.5t-32.5 84.5l7 1q33 -65 104 -65q70 0 104 65l7 -1q-4 -49 -33 -85t-78 -36z" />
    <glyph glyph-name="ibreve" unicode="&#x12d;" horiz-adv-x="239" 
d="M21 0v6l59 43v294l-56 30v6l8 3q7 3 20.5 7.5t29.5 10t37 12.5t40 12v-375l60 -43v-6h-198zM113 563q64 0 89 72l8 -1q0 -55 -25.5 -91t-71.5 -36q-48 0 -72.5 35t-24.5 92l8 1q10 -33 33.5 -52.5t55.5 -19.5z" />
    <glyph glyph-name="Iogonek" unicode="&#x12e;" horiz-adv-x="311" 
d="M175 -277q-43 0 -70.5 27.5t-27.5 69.5q0 25 9 51t28.5 53.5t29 39.5t30.5 36h21q-47 -85 -47 -160q0 -37 19.5 -55.5t53.5 -18.5q25 0 50 11l4 -5q-38 -49 -100 -49zM45 0v6l66 48v554l-66 48v6h221v-6l-66 -48v-554l66 -48v-6h-221z" />
    <glyph glyph-name="iogonek" unicode="&#x12f;" horiz-adv-x="239" 
d="M152 -277q-44 0 -71 28.5t-27 71.5q0 70 80 171q3 4 4 6h21q-34 -71 -34 -141q0 -93 73 -93q25 0 50 11l4 -5q-38 -49 -100 -49zM21 0v6l59 43v294l-56 30v6l8 3q7 3 20.5 7.5t29.5 10t37 12.5t40 12v-375l60 -43v-6h-198zM69 584q0 20 13 33.5t33 13.5t33 -13.5
t13 -33.5t-13 -32.5t-33 -12.5t-33 12.5t-13 32.5z" />
    <glyph glyph-name="Idotaccent" unicode="&#x130;" horiz-adv-x="311" 
d="M45 0v6l66 48v554l-66 48v6h221v-6l-66 -48v-554l66 -48v-6h-221zM109 769q0 20 13.5 33.5t33.5 13.5t33 -13.5t13 -33.5t-13 -33t-33 -13t-33.5 13t-13.5 33z" />
    <glyph glyph-name="dotlessi" unicode="&#x131;" horiz-adv-x="239" 
d="M21 0v6l59 43v294l-56 30v6l8 3q7 3 20.5 7.5t29.5 10t37 12.5t40 12v-375l60 -43v-6h-198z" />
    <glyph glyph-name="IJ" unicode="&#x132;" horiz-adv-x="605" 
d="M45 0v6l66 48v554l-66 48v6h221v-6l-66 -48v-554l66 -48v-6h-221zM348 656v6h221v-6l-66 -48v-512q0 -72 -49.5 -163.5t-121.5 -153.5l-10 7q92 137 92 345v477z" />
    <glyph glyph-name="ij" unicode="&#x133;" horiz-adv-x="458" 
d="M21 0v6l59 43v294l-56 30v6l8 3q7 3 20.5 7.5t29.5 10t37 12.5t40 12v-375l60 -43v-6h-198zM69 584q0 20 13 33.5t33 13.5t33 -13.5t13 -33.5t-13 -32.5t-33 -12.5t-33 12.5t-13 32.5zM346 539q-20 0 -33 12.5t-13 32.5t13 33.5t33 13.5t33 -13.5t13 -33.5t-13 -32.5
t-33 -12.5zM255 372v7q67 26 135 45v-370q0 -20 -3.5 -43t-15 -66t-42.5 -94.5t-77 -100.5l-10 6q69 141 69 299v288z" />
    <glyph glyph-name="Jcircumflex" unicode="&#x134;" horiz-adv-x="293" 
d="M37 656v6h221v-6l-66 -48v-512q0 -72 -49.5 -163.5t-121.5 -153.5l-10 7q92 137 92 345v477zM147 834l137 -120l-4 -7l-133 54l-136 -54l-5 7z" />
    <glyph glyph-name="jcircumflex" unicode="&#x135;" horiz-adv-x="219" 
d="M16 372v7q67 26 135 45v-370q0 -20 -3.5 -43t-15 -66t-42.5 -94.5t-77 -100.5l-10 6q69 141 69 299v288zM101 706l105 -216l-8 -5l-97 110l-97 -110l-8 5z" />
    <glyph glyph-name="Kcommaaccent" unicode="&#x136;" horiz-adv-x="654" 
d="M45 0v6l66 48v554l-66 48v6h222v-6l-67 -48v-554l67 -48v-6h-222zM651 0h-244v6l66 48l-225 280h-34l261 274l-66 48v6h197v-6l-75 -43l-217 -221l262 -338l75 -48v-6zM401 -140q0 -44 -27.5 -87t-61.5 -64l-10 4q51 64 56 129q-1 -1 -5 -1q-2 -1 -10 -1
q-17 0 -27.5 11.5t-10.5 28.5q0 18 12.5 30t30.5 12q24 0 38.5 -16.5t14.5 -45.5z" />
    <glyph glyph-name="kcommaaccent" unicode="&#x137;" horiz-adv-x="473" 
d="M159 49l60 -43v-6h-198v6l59 43v586l-59 31v7q69 28 138 47v-671zM170 229v6l133 123l-53 47v5h194v-5l-89 -43l-115 -102l99 -131q74 -97 133 -123v-6q-15 -9 -55 -9t-68 20t-67 73zM316 -140q0 -44 -27.5 -87t-61.5 -64l-10 4q51 64 56 129q-1 -1 -5 -1q-2 -1 -10 -1
q-17 0 -27.5 11.5t-10.5 28.5q0 18 12.5 30t30.5 12q24 0 38.5 -16.5t14.5 -45.5z" />
    <glyph glyph-name="Lacute" unicode="&#x139;" horiz-adv-x="559" 
d="M516 160h6v-160h-477v6l66 48v554l-66 48v6h222v-6l-67 -48v-574h230zM56 703l-5 9l209 129l29 -63z" />
    <glyph glyph-name="lacute" unicode="&#x13a;" horiz-adv-x="239" 
d="M159 49l60 -43v-6h-198v6l59 43v591l-59 31v7q72 29 138 47v-676zM9 732l-5 9l209 129l29 -63z" />
    <glyph glyph-name="Lcommaaccent" unicode="&#x13b;" horiz-adv-x="559" 
d="M516 160h6v-160h-477v6l66 48v554l-66 48v6h222v-6l-67 -48v-574h230zM370 -140q0 -44 -27.5 -87t-61.5 -64l-10 4q51 64 56 129q-1 -1 -5 -1q-2 -1 -10 -1q-17 0 -27.5 11.5t-10.5 28.5q0 18 12.5 30t30.5 12q24 0 38.5 -16.5t14.5 -45.5z" />
    <glyph glyph-name="lcommaaccent" unicode="&#x13c;" horiz-adv-x="239" 
d="M159 49l60 -43v-6h-198v6l59 43v591l-59 31v7q72 29 138 47v-676zM172 -140q0 -44 -27.5 -87t-61.5 -64l-10 4q51 64 56 129q-1 -1 -5 -1q-2 -1 -10 -1q-17 0 -27.5 11.5t-10.5 28.5q0 18 12.5 30t30.5 12q24 0 38.5 -16.5t14.5 -45.5z" />
    <glyph glyph-name="Lcaron" unicode="&#x13d;" horiz-adv-x="559" 
d="M516 160h6v-160h-477v6l66 48v554l-66 48v6h222v-6l-67 -48v-574h230zM318 509l21 206h67l-78 -206h-10z" />
    <glyph glyph-name="lcaron" unicode="&#x13e;" horiz-adv-x="239" 
d="M159 49l60 -43v-6h-198v6l59 43v591l-59 31v7q72 29 138 47v-676zM211 509l21 206h67l-78 -206h-10z" />
    <glyph glyph-name="Ldot" unicode="&#x13f;" horiz-adv-x="559" 
d="M432 353q0 23 14 36.5t36 13.5t36 -13.5t14 -36.5q0 -21 -14 -35.5t-36 -14.5q-21 0 -35.5 14.5t-14.5 35.5zM516 160h6v-160h-477v6l66 48v554l-66 48v6h222v-6l-67 -48v-574h230z" />
    <glyph glyph-name="ldot" unicode="&#x140;" horiz-adv-x="350" 
d="M245 344q0 23 14 36.5t36 13.5t36 -13.5t14 -36.5q0 -21 -14 -35.5t-36 -14.5q-21 0 -35.5 14.5t-14.5 35.5zM159 49l60 -43v-6h-198v6l59 43v591l-59 31v7q72 29 138 47v-676z" />
    <glyph glyph-name="Lslash" unicode="&#x141;" horiz-adv-x="559" 
d="M516 160h6v-160h-477v6l66 48v172l-98 -51v39l98 52v342l-66 48v6h222v-6l-67 -48v-295l217 115v-40l-217 -115v-239h230z" />
    <glyph glyph-name="lslash" unicode="&#x142;" horiz-adv-x="239" 
d="M159 49l60 -43v-6h-198v6l59 43v230l-79 -51v36l79 52v324l-59 31v7q72 29 138 47v-357l79 53v-38l-79 -52v-282z" />
    <glyph glyph-name="Nacute" unicode="&#x143;" horiz-adv-x="765" 
d="M38 0v6l73 53v522q-42 47 -77 75v6h124l460 -525v466l-75 53v6h189v-6l-73 -53v-603h-32l-475 535v-476l75 -53v-6h-189zM287 703l-5 9l209 129l29 -63z" />
    <glyph glyph-name="nacute" unicode="&#x144;" horiz-adv-x="509" 
d="M21 0v6l59 43v294l-56 29v7l8 3q7 3 20.5 7.5t29.5 10t37 12.5t40 12v-73q77 69 149 69q50 0 87.5 -30.5t37.5 -72.5v-268l60 -43v-6h-197v6l58 43v240q0 34 -23.5 57t-67.5 23q-56 0 -104 -48v-272l60 -43v-6h-198zM227 495l-9 5l101 212l62 -40z" />
    <glyph glyph-name="Ncommaaccent" unicode="&#x145;" horiz-adv-x="765" 
d="M38 0v6l73 53v522q-42 47 -77 75v6h124l460 -525v466l-75 53v6h189v-6l-73 -53v-603h-32l-475 535v-476l75 -53v-6h-189zM438 -140q0 -44 -27.5 -87t-61.5 -64l-10 4q51 64 56 129q-1 -1 -5 -1q-2 -1 -10 -1q-17 0 -27.5 11.5t-10.5 28.5q0 18 12.5 30t30.5 12
q24 0 38.5 -16.5t14.5 -45.5z" />
    <glyph glyph-name="ncommaaccent" unicode="&#x146;" horiz-adv-x="509" 
d="M21 0v6l59 43v294l-56 29v7l8 3q7 3 20.5 7.5t29.5 10t37 12.5t40 12v-73q77 69 149 69q50 0 87.5 -30.5t37.5 -72.5v-268l60 -43v-6h-197v6l58 43v240q0 34 -23.5 57t-67.5 23q-56 0 -104 -48v-272l60 -43v-6h-198zM316 -140q0 -44 -27.5 -87t-61.5 -64l-10 4
q51 64 56 129q-1 -1 -5 -1q-2 -1 -10 -1q-17 0 -27.5 11.5t-10.5 28.5q0 18 12.5 30t30.5 12q24 0 38.5 -16.5t14.5 -45.5z" />
    <glyph glyph-name="Ncaron" unicode="&#x147;" horiz-adv-x="765" 
d="M38 0v6l73 53v522q-42 47 -77 75v6h124l460 -525v466l-75 53v6h189v-6l-73 -53v-603h-32l-475 535v-476l75 -53v-6h-189zM251 830l136 -54l133 54l4 -7l-137 -120l-141 120z" />
    <glyph glyph-name="ncaron" unicode="&#x148;" horiz-adv-x="509" 
d="M21 0v6l59 43v294l-56 29v7l8 3q7 3 20.5 7.5t29.5 10t37 12.5t40 12v-73q77 69 149 69q50 0 87.5 -30.5t37.5 -72.5v-268l60 -43v-6h-197v6l58 43v240q0 34 -23.5 57t-67.5 23q-56 0 -104 -48v-272l60 -43v-6h-198zM155 705l97 -110l97 110l8 -5l-105 -216l-105 216z
" />
    <glyph glyph-name="napostrophe" unicode="&#x149;" horiz-adv-x="539" 
d="M51 0v6l59 43v294l-56 29v7l8 3q7 3 20.5 7.5t29.5 10t37 12.5t40 12v-73q77 69 149 69q50 0 87.5 -30.5t37.5 -72.5v-268l60 -43v-6h-197v6l58 43v240q0 34 -23.5 57t-67.5 23q-56 0 -104 -48v-272l60 -43v-6h-198zM94 627q0 -48 -28 -95t-73 -81l-11 4q62 85 67 157
q-1 -1 -5 -1q-2 -1 -12 -1q-18 0 -29.5 11.5t-11.5 28.5q0 20 13.5 31.5t32.5 11.5q25 0 41 -17.5t16 -48.5z" />
    <glyph glyph-name="Eng" unicode="&#x14a;" horiz-adv-x="767" 
d="M664 70q0 -65 -32.5 -146t-100.5 -145l-10 7q57 98 57 180q0 53 -20.5 96.5t-75.5 106.5l-325 366v-476l75 -53v-6h-189v6l73 53v522q-42 47 -77 75v6h124l410 -468q43 -50 50 -77v486l-74 53v6h188v-6l-73 -53v-533z" />
    <glyph glyph-name="eng" unicode="&#x14b;" horiz-adv-x="496" 
d="M21 0v6l59 43v294l-56 29v7l8 3q7 3 20.5 7.5t29.5 10t37 12.5t40 12v-73q74 69 150 69q50 0 87 -30t37 -72v-264q0 -20 -3.5 -43t-15 -66t-42.5 -94.5t-77 -100.5l-10 6q69 141 69 299v234q0 34 -23.5 57t-67.5 23q-51 0 -104 -49v-271l60 -43v-6h-198z" />
    <glyph glyph-name="Omacron" unicode="&#x14c;" horiz-adv-x="743" 
d="M42 323q0 149 95 249.5t234 100.5q138 0 234 -95t96 -241q0 -148 -96.5 -248t-233.5 -100t-233 94.5t-96 239.5zM141 330q0 -138 66.5 -222.5t163.5 -84.5t164.5 85t67.5 222q0 138 -67.5 223.5t-164.5 85.5q-98 0 -164 -85t-66 -224zM260 773h225v-46h-225v46z" />
    <glyph glyph-name="omacron" unicode="&#x14d;" horiz-adv-x="463" 
d="M26 200q0 92 60.5 156t144.5 64q86 0 146 -59.5t60 -151.5q0 -93 -60.5 -156t-145.5 -63t-145 59t-60 151zM112 205q0 -79 34.5 -131t84.5 -52t85 52.5t35 130.5q0 77 -35 130t-85 53q-49 0 -84 -53t-35 -130zM132 580h197v-46h-197v46z" />
    <glyph glyph-name="Obreve" unicode="&#x14e;" horiz-adv-x="743" 
d="M42 323q0 149 95 249.5t234 100.5q138 0 234 -95t96 -241q0 -148 -96.5 -248t-233.5 -100t-233 94.5t-96 239.5zM141 330q0 -138 66.5 -222.5t163.5 -84.5t164.5 85t67.5 222q0 138 -67.5 223.5t-164.5 85.5q-98 0 -164 -85t-66 -224zM372 713q-48 0 -78.5 36.5
t-32.5 84.5l7 1q33 -65 104 -65q70 0 104 65l7 -1q-4 -49 -33 -85t-78 -36z" />
    <glyph glyph-name="obreve" unicode="&#x14f;" horiz-adv-x="463" 
d="M26 200q0 92 60.5 156t144.5 64q86 0 146 -59.5t60 -151.5q0 -93 -60.5 -156t-145.5 -63t-145 59t-60 151zM112 205q0 -79 34.5 -131t84.5 -52t85 52.5t35 130.5q0 77 -35 130t-85 53q-49 0 -84 -53t-35 -130zM231 563q64 0 89 72l8 -1q0 -55 -25.5 -91t-71.5 -36
q-48 0 -72.5 35t-24.5 92l8 1q10 -33 33.5 -52.5t55.5 -19.5z" />
    <glyph glyph-name="Ohungarumlaut" unicode="&#x150;" horiz-adv-x="743" 
d="M42 323q0 149 95 249.5t234 100.5q138 0 234 -95t96 -241q0 -148 -96.5 -248t-233.5 -100t-233 94.5t-96 239.5zM141 330q0 -138 66.5 -222.5t163.5 -84.5t164.5 85t67.5 222q0 138 -67.5 223.5t-164.5 85.5q-98 0 -164 -85t-66 -224zM555 852l39 -53l-179 -95l-6 8z
M253 704l-6 8l146 140l39 -53z" />
    <glyph glyph-name="ohungarumlaut" unicode="&#x151;" horiz-adv-x="463" 
d="M26 200q0 92 60.5 156t144.5 64q86 0 146 -59.5t60 -151.5q0 -93 -60.5 -156t-145.5 -63t-145 59t-60 151zM112 205q0 -79 34.5 -131t84.5 -52t85 52.5t35 130.5q0 77 -35 130t-85 53q-49 0 -84 -53t-35 -130zM284 494l-10 4l64 215l58 -25zM163 494l-10 4l63 215l58 -25
z" />
    <glyph glyph-name="OE" unicode="&#x152;" horiz-adv-x="913" 
d="M813 438h5v-169h-5l-45 68h-209v-303h224l71 105h6v-139h-469q-149 0 -250.5 90.5t-101.5 232.5q0 144 101 241.5t250 97.5h445v-118h-6l-66 85h-204v-260h209zM391 629q-110 0 -181.5 -81.5t-71.5 -217.5q0 -132 73 -214t181 -82h78v595h-79z" />
    <glyph glyph-name="oe" unicode="&#x153;" horiz-adv-x="715" 
d="M26 200q0 92 59 156t141 64q104 0 163 -87q59 87 149 87q109 0 151 -136v-1h-256q-6 -27 -6 -59q0 -84 44 -130.5t115 -46.5q56 0 108 21l4 -7q-25 -25 -68 -48t-90 -23q-102 0 -157 81q-59 -81 -157 -81q-83 0 -141.5 59.5t-58.5 150.5zM113 205q0 -77 33.5 -130
t79.5 -53q47 0 81 53t34 130q0 76 -34 129.5t-81 53.5q-46 0 -79.5 -54t-33.5 -129zM534 388q-64 0 -92 -75h162q-3 40 -24.5 57.5t-45.5 17.5z" />
    <glyph glyph-name="Racute" unicode="&#x154;" horiz-adv-x="609" 
d="M45 0v6l66 48v554l-66 48v6h247q95 0 147 -39t52 -102q0 -60 -36.5 -103t-84.5 -65l119 -201q28 -47 59 -82t49 -48t29 -16v-6q-30 -6 -50 -6q-47 0 -84.5 23t-76.5 91l-130 224h-85v-278l76 -48v-6h-231zM200 631v-269h91q47 0 79 40t32 94q0 68 -39.5 101.5t-98.5 33.5
h-64zM179 703l-5 9l209 129l29 -63z" />
    <glyph glyph-name="racute" unicode="&#x155;" horiz-adv-x="344" 
d="M24 372v7l8 3q7 3 20.5 7.5t29.5 10t37 12.5t40 12v-88q82 87 115 87q17 0 57 -11l-26 -76q-36 13 -54 13q-47 0 -92 -39v-261l80 -43v-6h-218v6l59 43v294zM172 495l-9 5l101 212l62 -40z" />
    <glyph glyph-name="Rcommaaccent" unicode="&#x156;" horiz-adv-x="609" 
d="M45 0v6l66 48v554l-66 48v6h247q95 0 147 -39t52 -102q0 -60 -36.5 -103t-84.5 -65l119 -201q28 -47 59 -82t49 -48t29 -16v-6q-30 -6 -50 -6q-47 0 -84.5 23t-76.5 91l-130 224h-85v-278l76 -48v-6h-231zM200 631v-269h91q47 0 79 40t32 94q0 68 -39.5 101.5t-98.5 33.5
h-64zM404 -141q0 -44 -27.5 -87t-61.5 -64l-10 4q51 64 56 129q-1 -1 -5 -1q-2 -1 -10 -1q-17 0 -27.5 11.5t-10.5 28.5q0 18 12.5 30t30.5 12q24 0 38.5 -16.5t14.5 -45.5z" />
    <glyph glyph-name="rcommaaccent" unicode="&#x157;" horiz-adv-x="344" 
d="M24 372v7l8 3q7 3 20.5 7.5t29.5 10t37 12.5t40 12v-88q82 87 115 87q17 0 57 -11l-26 -76q-36 13 -54 13q-47 0 -92 -39v-261l80 -43v-6h-218v6l59 43v294zM171 -140q0 -44 -27.5 -87t-61.5 -64l-10 4q51 64 56 129q-1 -1 -5 -1q-2 -1 -10 -1q-17 0 -27.5 11.5
t-10.5 28.5q0 18 12.5 30t30.5 12q24 0 38.5 -16.5t14.5 -45.5z" />
    <glyph glyph-name="Rcaron" unicode="&#x158;" horiz-adv-x="609" 
d="M45 0v6l66 48v554l-66 48v6h247q95 0 147 -39t52 -102q0 -60 -36.5 -103t-84.5 -65l119 -201q28 -47 59 -82t49 -48t29 -16v-6q-30 -6 -50 -6q-47 0 -84.5 23t-76.5 91l-130 224h-85v-278l76 -48v-6h-231zM200 631v-269h91q47 0 79 40t32 94q0 68 -39.5 101.5t-98.5 33.5
h-64zM142 830l136 -54l133 54l4 -7l-137 -120l-141 120z" />
    <glyph glyph-name="rcaron" unicode="&#x159;" horiz-adv-x="344" 
d="M24 372v7l8 3q7 3 20.5 7.5t29.5 10t37 12.5t40 12v-88q82 87 115 87q17 0 57 -11l-26 -76q-36 13 -54 13q-47 0 -92 -39v-261l80 -43v-6h-218v6l59 43v294zM107 705l97 -110l97 110l8 -5l-105 -216l-105 216z" />
    <glyph glyph-name="Sacute" unicode="&#x15a;" horiz-adv-x="470" 
d="M252 673q74 0 128 -20v-94h-5q-51 81 -129 81q-45 0 -74 -26t-29 -68q0 -49 28.5 -81t99.5 -81q42 -30 63 -47.5t46.5 -44.5t36 -55.5t10.5 -63.5q0 -79 -54 -131t-146 -52q-99 0 -173 42q-12 87 -8 164h7q46 -171 174 -171q52 0 85.5 33.5t33.5 82.5q0 53 -28.5 89
t-97.5 81q-81 55 -117.5 100t-36.5 106q0 72 51.5 114t134.5 42zM116 703l-5 9l209 129l29 -63z" />
    <glyph glyph-name="sacute" unicode="&#x15b;" horiz-adv-x="327" 
d="M174 420q53 0 89 -13v-81h-6q-37 62 -90 62q-23 0 -38.5 -13t-15.5 -38q0 -27 16 -42.5t58 -41.5q62 -41 79 -61q29 -34 29 -78q0 -55 -38.5 -89.5t-104.5 -34.5q-63 0 -114 24q-12 55 -7 130h7q38 -120 117 -120q30 0 50 18.5t20 48.5t-18.5 48t-65.5 47
q-30 19 -47.5 34t-32 40t-14.5 55q0 49 36 77t91 28zM122 495l-9 5l101 212l62 -40z" />
    <glyph glyph-name="Scircumflex" unicode="&#x15c;" horiz-adv-x="470" 
d="M252 673q74 0 128 -20v-94h-5q-51 81 -129 81q-45 0 -74 -26t-29 -68q0 -49 28.5 -81t99.5 -81q42 -30 63 -47.5t46.5 -44.5t36 -55.5t10.5 -63.5q0 -79 -54 -131t-146 -52q-99 0 -173 42q-12 87 -8 164h7q46 -171 174 -171q52 0 85.5 33.5t33.5 82.5q0 53 -28.5 89
t-97.5 81q-81 55 -117.5 100t-36.5 106q0 72 51.5 114t134.5 42zM235 834l137 -120l-4 -7l-133 54l-136 -54l-5 7z" />
    <glyph glyph-name="scircumflex" unicode="&#x15d;" horiz-adv-x="327" 
d="M174 420q53 0 89 -13v-81h-6q-37 62 -90 62q-23 0 -38.5 -13t-15.5 -38q0 -27 16 -42.5t58 -41.5q62 -41 79 -61q29 -34 29 -78q0 -55 -38.5 -89.5t-104.5 -34.5q-63 0 -114 24q-12 55 -7 130h7q38 -120 117 -120q30 0 50 18.5t20 48.5t-18.5 48t-65.5 47
q-30 19 -47.5 34t-32 40t-14.5 55q0 49 36 77t91 28zM163 706l105 -216l-8 -5l-97 110l-97 -110l-8 5z" />
    <glyph glyph-name="Scedilla" unicode="&#x15e;" horiz-adv-x="470" 
d="M252 673q74 0 128 -20v-94h-5q-51 81 -129 81q-45 0 -74 -26t-29 -68q0 -49 28.5 -81t99.5 -81q42 -30 63 -47.5t46.5 -44.5t36 -55.5t10.5 -63.5q0 -79 -54 -131t-146 -52q-99 0 -173 42q-12 87 -8 164h7q46 -171 174 -171q52 0 85.5 33.5t33.5 82.5q0 53 -28.5 89
t-97.5 81q-81 55 -117.5 100t-36.5 106q0 72 51.5 114t134.5 42zM245 0l-38 -75q31 -7 54.5 -28t23.5 -53q0 -82 -154 -125l-5 9q101 56 101 103q0 22 -22 35t-44 16l-2 3q5 11 15 29.5t14 27.5q29 54 29 58h28z" />
    <glyph glyph-name="scedilla" unicode="&#x15f;" horiz-adv-x="327" 
d="M174 420q53 0 89 -13v-81h-6q-37 62 -90 62q-23 0 -38.5 -13t-15.5 -38q0 -27 16 -42.5t58 -41.5q62 -41 79 -61q29 -34 29 -78q0 -55 -38.5 -89.5t-104.5 -34.5q-63 0 -114 24q-12 55 -7 130h7q38 -120 117 -120q30 0 50 18.5t20 48.5t-18.5 48t-65.5 47
q-30 19 -47.5 34t-32 40t-14.5 55q0 49 36 77t91 28zM176 0l-38 -75q31 -7 54.5 -28t23.5 -53q0 -82 -154 -125l-5 9q101 56 101 103q0 22 -22 35t-44 16l-2 3q6 11 15 29.5t14 27.5q29 54 29 58h28z" />
    <glyph glyph-name="Scaron" unicode="&#x160;" horiz-adv-x="470" 
d="M252 673q74 0 128 -20v-94h-5q-51 81 -129 81q-45 0 -74 -26t-29 -68q0 -49 28.5 -81t99.5 -81q42 -30 63 -47.5t46.5 -44.5t36 -55.5t10.5 -63.5q0 -79 -54 -131t-146 -52q-99 0 -173 42q-12 87 -8 164h7q46 -171 174 -171q52 0 85.5 33.5t33.5 82.5q0 53 -28.5 89
t-97.5 81q-81 55 -117.5 100t-36.5 106q0 72 51.5 114t134.5 42zM101 830l136 -54l133 54l4 -7l-137 -120l-141 120z" />
    <glyph glyph-name="scaron" unicode="&#x161;" horiz-adv-x="327" 
d="M174 420q53 0 89 -13v-81h-6q-37 62 -90 62q-23 0 -38.5 -13t-15.5 -38q0 -27 16 -42.5t58 -41.5q62 -41 79 -61q29 -34 29 -78q0 -55 -38.5 -89.5t-104.5 -34.5q-63 0 -114 24q-12 55 -7 130h7q38 -120 117 -120q30 0 50 18.5t20 48.5t-18.5 48t-65.5 47
q-30 19 -47.5 34t-32 40t-14.5 55q0 49 36 77t91 28zM65 705l97 -110l97 110l8 -5l-105 -216l-105 216z" />
    <glyph glyph-name="Tcommaaccent" unicode="&#x162;" horiz-adv-x="636" 
d="M604 662v-128h-6l-71 94h-165v-572l67 -50v-6h-223v6l67 50v572h-164l-71 -94h-6v128h572zM371 -140q0 -44 -27.5 -87t-61.5 -64l-10 4q51 64 56 129q-1 -1 -5 -1q-2 -1 -10 -1q-17 0 -27.5 11.5t-10.5 28.5q0 18 12.5 30t30.5 12q24 0 38.5 -16.5t14.5 -45.5z" />
    <glyph glyph-name="tcommaaccent" unicode="&#x163;" horiz-adv-x="354" 
d="M149 363v-248q0 -33 21.5 -54t64.5 -21q46 0 88 20l4 -7q-55 -62 -135 -62q-62 0 -92 32t-30 72v268h-55v7l134 103v-65h198l-29 -45h-169zM251 -140q0 -44 -27.5 -87t-61.5 -64l-10 4q51 64 56 129q-1 -1 -5 -1q-2 -1 -10 -1q-17 0 -27.5 11.5t-10.5 28.5q0 18 12.5 30
t30.5 12q24 0 38.5 -16.5t14.5 -45.5z" />
    <glyph glyph-name="Tcaron" unicode="&#x164;" horiz-adv-x="636" 
d="M604 662v-128h-6l-71 94h-165v-572l67 -50v-6h-223v6l67 50v572h-164l-71 -94h-6v128h572zM182 830l136 -54l133 54l4 -7l-137 -120l-141 120z" />
    <glyph glyph-name="tcaron" unicode="&#x165;" horiz-adv-x="354" 
d="M149 363v-248q0 -33 21.5 -54t64.5 -21q46 0 88 20l4 -7q-55 -62 -135 -62q-62 0 -92 32t-30 72v268h-55v7l134 103v-65h198l-29 -45h-169zM201 509l21 206h67l-78 -206h-10z" />
    <glyph glyph-name="Tbar" unicode="&#x166;" horiz-adv-x="636" 
d="M106 355v34h423v-34h-423zM604 662v-128h-6l-71 94h-165v-572l67 -50v-6h-223v6l67 50v572h-164l-71 -94h-6v128h572z" />
    <glyph glyph-name="tbar" unicode="&#x167;" horiz-adv-x="354" 
d="M9 236v30h307v-30h-307zM149 363v-248q0 -33 21.5 -54t64.5 -21q46 0 88 20l4 -7q-55 -62 -135 -62q-62 0 -92 32t-30 72v268h-55v7l134 103v-65h198l-29 -45h-169z" />
    <glyph glyph-name="Utilde" unicode="&#x168;" horiz-adv-x="720" 
d="M625 234q0 -107 -69.5 -176t-181.5 -69q-128 0 -203 61.5t-75 183.5v374l-67 48v6h223v-6l-67 -48v-373q0 -96 55 -143.5t150 -47.5q91 0 142.5 53t51.5 139v372l-67 48v6h174v-6l-66 -48v-374zM334 803q12 0 66 -9t67 -9q24 0 66 48l6 -3q-8 -27 -32.5 -63.5
t-45.5 -36.5q-18 0 -70 9t-62 9q-26 0 -66 -49l-6 3q13 33 34.5 67t42.5 34z" />
    <glyph glyph-name="utilde" unicode="&#x169;" horiz-adv-x="494" 
d="M15 372v7l7 3q8 3 21 7.5t29 10t37 12.5t41 12v-302q0 -35 21.5 -57.5t63.5 -22.5q46 0 102 48v252l-64 30v7q74 26 143 45v-362l67 -26v-7q-9 -2 -34.5 -9t-37.5 -10q-72 -18 -74 -18v68q-68 -68 -142 -68q-52 0 -88 32t-36 82v237zM191 611q12 0 59 -13t58 -13
q20 0 58 52l7 -3q-11 -35 -30.5 -69.5t-37.5 -34.5q-15 0 -61 13t-56 13q-16 0 -58 -51l-7 3q11 37 30 70t38 33z" />
    <glyph glyph-name="Umacron" unicode="&#x16a;" horiz-adv-x="720" 
d="M625 234q0 -107 -69.5 -176t-181.5 -69q-128 0 -203 61.5t-75 183.5v374l-67 48v6h223v-6l-67 -48v-373q0 -96 55 -143.5t150 -47.5q91 0 142.5 53t51.5 139v372l-67 48v6h174v-6l-66 -48v-374zM277 773h225v-46h-225v46z" />
    <glyph glyph-name="umacron" unicode="&#x16b;" horiz-adv-x="494" 
d="M15 372v7l7 3q8 3 21 7.5t29 10t37 12.5t41 12v-302q0 -35 21.5 -57.5t63.5 -22.5q46 0 102 48v252l-64 30v7q74 26 143 45v-362l67 -26v-7q-9 -2 -34.5 -9t-37.5 -10q-72 -18 -74 -18v68q-68 -68 -142 -68q-52 0 -88 32t-36 82v237zM144 580h197v-46h-197v46z" />
    <glyph glyph-name="Ubreve" unicode="&#x16c;" horiz-adv-x="720" 
d="M625 234q0 -107 -69.5 -176t-181.5 -69q-128 0 -203 61.5t-75 183.5v374l-67 48v6h223v-6l-67 -48v-373q0 -96 55 -143.5t150 -47.5q91 0 142.5 53t51.5 139v372l-67 48v6h174v-6l-66 -48v-374zM383 713q-48 0 -78.5 36.5t-32.5 84.5l7 1q33 -65 104 -65q70 0 104 65
l7 -1q-4 -49 -33 -85t-78 -36z" />
    <glyph glyph-name="ubreve" unicode="&#x16d;" horiz-adv-x="494" 
d="M15 372v7l7 3q8 3 21 7.5t29 10t37 12.5t41 12v-302q0 -35 21.5 -57.5t63.5 -22.5q46 0 102 48v252l-64 30v7q74 26 143 45v-362l67 -26v-7q-9 -2 -34.5 -9t-37.5 -10q-72 -18 -74 -18v68q-68 -68 -142 -68q-52 0 -88 32t-36 82v237zM245 563q64 0 89 72l8 -1
q0 -55 -25.5 -91t-71.5 -36q-48 0 -72.5 35t-24.5 92l8 1q10 -33 33.5 -52.5t55.5 -19.5z" />
    <glyph glyph-name="Uring" unicode="&#x16e;" horiz-adv-x="720" 
d="M625 234q0 -107 -69.5 -176t-181.5 -69q-128 0 -203 61.5t-75 183.5v374l-67 48v6h223v-6l-67 -48v-373q0 -96 55 -143.5t150 -47.5q91 0 142.5 53t51.5 139v372l-67 48v6h174v-6l-66 -48v-374zM341 758q0 -21 13.5 -36t34.5 -15t34.5 15t13.5 36t-13.5 36t-34.5 15
t-34.5 -15t-13.5 -36zM311 758q0 32 23 54.5t55 22.5t55 -22.5t23 -54.5q0 -33 -22.5 -55t-55.5 -22t-55.5 21.5t-22.5 55.5z" />
    <glyph glyph-name="uring" unicode="&#x16f;" horiz-adv-x="494" 
d="M15 372v7l7 3q8 3 21 7.5t29 10t37 12.5t41 12v-302q0 -35 21.5 -57.5t63.5 -22.5q46 0 102 48v252l-64 30v7q74 26 143 45v-362l67 -26v-7q-9 -2 -34.5 -9t-37.5 -10q-72 -18 -74 -18v68q-68 -68 -142 -68q-52 0 -88 32t-36 82v237zM191 575q0 -21 13.5 -36t34.5 -15
t34.5 15t13.5 36t-13.5 36t-34.5 15t-34.5 -15t-13.5 -36zM161 575q0 32 23 54.5t55 22.5t55 -22.5t23 -54.5q0 -33 -22.5 -55t-55.5 -22t-55.5 21.5t-22.5 55.5z" />
    <glyph glyph-name="Uhungarumlaut" unicode="&#x170;" horiz-adv-x="720" 
d="M625 234q0 -107 -69.5 -176t-181.5 -69q-128 0 -203 61.5t-75 183.5v374l-67 48v6h223v-6l-67 -48v-373q0 -96 55 -143.5t150 -47.5q91 0 142.5 53t51.5 139v372l-67 48v6h174v-6l-66 -48v-374zM565 852l39 -53l-179 -95l-6 8zM263 704l-6 8l146 140l39 -53z" />
    <glyph glyph-name="uhungarumlaut" unicode="&#x171;" horiz-adv-x="494" 
d="M15 372v7l7 3q8 3 21 7.5t29 10t37 12.5t41 12v-302q0 -35 21.5 -57.5t63.5 -22.5q46 0 102 48v252l-64 30v7q74 26 143 45v-362l67 -26v-7q-9 -2 -34.5 -9t-37.5 -10q-72 -18 -74 -18v68q-68 -68 -142 -68q-52 0 -88 32t-36 82v237zM295 494l-10 4l64 215l58 -25z
M174 494l-10 4l63 215l58 -25z" />
    <glyph glyph-name="Uogonek" unicode="&#x172;" horiz-adv-x="720" 
d="M329 -180q0 86 147 187q-44 -18 -102 -18q-128 0 -203 61.5t-75 183.5v374l-67 48v6h223v-6l-67 -48v-373q0 -96 55 -143.5t150 -47.5q91 0 142.5 53t51.5 139v372l-67 48v6h174v-6l-66 -48v-374q0 -70 -29 -121t-81 -96q-115 -99 -115 -182q0 -69 73 -69q25 0 50 11
l4 -5q-38 -49 -100 -49q-44 0 -71 27t-27 70z" />
    <glyph glyph-name="uogonek" unicode="&#x173;" horiz-adv-x="494" 
d="M337 60q-68 -68 -142 -68q-52 0 -88 32t-36 82v237l-56 29v7l7 3q8 3 21 7.5t29 10t37 12.5t41 12v-302q0 -35 21.5 -57.5t63.5 -22.5q46 0 102 48v252l-64 30v7q74 26 143 45v-362l67 -26v-7q-16 -5 -48 -13q-45 -12 -80 -20q-90 -90 -90 -161q0 -69 73 -69q25 0 50 11
l4 -5q-38 -49 -100 -49q-44 0 -71 27t-27 70q0 29 15 58t39.5 53t45.5 39.5t43 29.5v60z" />
    <glyph glyph-name="Wcircumflex" unicode="&#x174;" horiz-adv-x="946" 
d="M465 608l61 -147l62 147l-50 48v6h144v-6l-55 -48l-83 -191l122 -295l177 486l-68 48v6h165v-6l-56 -48l-228 -621h-12l-154 356l-161 -356h-12l-256 621l-55 48v6h216v-6l-68 -48l195 -486l121 267l-94 219l-55 48v6h194v-6zM509 834l137 -120l-4 -7l-133 54l-136 -54
l-5 7z" />
    <glyph glyph-name="wcircumflex" unicode="&#x175;" horiz-adv-x="641" 
d="M228 24q-2 -5 -5.5 -13.5t-4.5 -11.5q-5 -12 -5 -13h-11q-4 10 -7 16q-7 20 -16 40l-129 321l-50 41v6h191v-6l-57 -41l93 -242l81 228l-5 14l-51 41v6h178v-6l-50 -41l87 -241l85 241l-58 41v6h147v-6l-51 -41l-122 -340q-3 -7 -9 -23q-4 -11 -5 -14h-10q-1 3 -5 13
q-1 4 -6.5 18.5t-9.5 25.5l-96 255zM341 706l105 -216l-8 -5l-97 110l-97 -110l-8 5z" />
    <glyph glyph-name="Ycircumflex" unicode="&#x176;" horiz-adv-x="593" 
d="M423 656v6h164v-6l-56 -48l-183 -279v-275l66 -48v-6h-221v6l66 48v258l-198 296l-55 48v6h225v-6l-67 -48l163 -250l163 250zM323 834l137 -120l-4 -7l-133 54l-136 -54l-5 7z" />
    <glyph glyph-name="ycircumflex" unicode="&#x177;" horiz-adv-x="424" 
d="M198 -91q-46 -118 -52 -180h-99v5q75 73 121 192l33 84l-151 352l-50 42v6h194v-6l-57 -42l102 -252l94 252l-60 42v6h151v-6l-51 -42zM224 706l105 -216l-8 -5l-97 110l-97 -110l-8 5z" />
    <glyph glyph-name="Ydieresis" unicode="&#x178;" horiz-adv-x="593" 
d="M423 656v6h164v-6l-56 -48l-183 -279v-275l66 -48v-6h-221v6l66 48v258l-198 296l-55 48v6h225v-6l-67 -48l163 -250l163 250zM233 723q-18 0 -30.5 12.5t-12.5 29.5q0 18 12.5 30.5t30.5 12.5q17 0 29.5 -12.5t12.5 -30.5q0 -17 -12.5 -29.5t-29.5 -12.5zM457 765
q0 -17 -12 -29t-29 -12q-18 0 -30 12t-12 29q0 18 12 30t30 12q17 0 29 -12t12 -30z" />
    <glyph glyph-name="Zacute" unicode="&#x179;" horiz-adv-x="627" 
d="M149 34h356l81 108h6v-142h-557v9l421 620h-316l-73 -99h-6v132h517v-8zM220 703l-5 9l209 129l29 -63z" />
    <glyph glyph-name="zacute" unicode="&#x17a;" horiz-adv-x="397" 
d="M371 111v-111h-350v7l239 374h-149l-61 -75h-6v104h319v-5l-244 -375h182l64 81h6zM176 495l-9 5l101 212l62 -40z" />
    <glyph glyph-name="Zdotaccent" unicode="&#x17b;" horiz-adv-x="627" 
d="M149 34h356l81 108h6v-142h-557v9l421 620h-316l-73 -99h-6v132h517v-8zM271 769q0 20 13.5 33.5t33.5 13.5t33 -13.5t13 -33.5t-13 -33t-33 -13t-33.5 13t-13.5 33z" />
    <glyph glyph-name="zdotaccent" unicode="&#x17c;" horiz-adv-x="397" 
d="M371 111v-111h-350v7l239 374h-149l-61 -75h-6v104h319v-5l-244 -375h182l64 81h6zM151 584q0 20 13.5 33.5t33.5 13.5t33 -13.5t13 -33.5t-13 -32.5t-33 -12.5t-33.5 12.5t-13.5 32.5z" />
    <glyph glyph-name="Zcaron" unicode="&#x17d;" horiz-adv-x="627" 
d="M149 34h356l81 108h6v-142h-557v9l421 620h-316l-73 -99h-6v132h517v-8zM186 830l136 -54l133 54l4 -7l-137 -120l-141 120z" />
    <glyph glyph-name="zcaron" unicode="&#x17e;" horiz-adv-x="397" 
d="M371 111v-111h-350v7l239 374h-149l-61 -75h-6v104h319v-5l-244 -375h182l64 81h6zM104 705l97 -110l97 110l8 -5l-105 -216l-105 216z" />
    <glyph glyph-name="florin" unicode="&#x192;" horiz-adv-x="423" 
d="M131 386q2 16 11 94q10 76 59 134t137 58q53 0 94 -15l-30 -58h-1q-46 36 -83 36t-61.5 -36t-30.5 -89q-3 -20 -8 -61.5t-9 -62.5h124l-30 -42h-99l-33 -252q-5 -37 -14 -71t-26.5 -72.5t-40.5 -67t-59.5 -48t-80.5 -20.5l-15 59q16 -4 43 -4q34 0 55 17.5t37.5 70
t26.5 150.5l29 238h-87v5l25 37h67z" />
    <glyph glyph-name="Aringacute" unicode="&#x1fa;" horiz-adv-x="636" 
d="M171 6v-6h-165v6l56 48l240 622h11l261 -622l56 -48v-6h-216v6l69 48l-94 225h-201l-86 -225zM201 312h174l-91 217zM260 777q0 -21 13.5 -36t34.5 -15t34.5 15t13.5 36t-13.5 36t-34.5 15t-34.5 -15t-13.5 -36zM230 777q0 32 23 54.5t55 22.5t55 -22.5t23 -54.5
q0 -33 -22.5 -55t-55.5 -22t-55.5 21.5t-22.5 55.5zM213 853l-5 9l209 129l29 -63z" />
    <glyph glyph-name="aringacute" unicode="&#x1fb;" horiz-adv-x="405" 
d="M145 569q0 -21 13.5 -36t34.5 -15t34.5 15t13.5 36t-13.5 36t-34.5 15t-34.5 -15t-13.5 -36zM115 569q0 32 23 54.5t55 22.5t55 -22.5t23 -54.5q0 -33 -22.5 -55t-55.5 -22t-55.5 21.5t-22.5 55.5zM254 298q0 36 -18 57.5t-53 21.5q-38 0 -65 -31v-60l-78 23v5
q50 57 82 78q47 30 99 30q51 0 81 -28.5t30 -67.5q0 -36 -2 -142t-2 -115q39 -25 74 -34v-6l-62 -45q-51 19 -83 54q-62 -50 -106 -50q-53 0 -85.5 29t-32.5 72q0 27 12 45.5t25 22.5q6 2 31.5 10t70 21.5t82.5 25.5v84zM253 62q0 18 0.5 57.5t0.5 61.5q-132 -45 -138 -48
q-9 -5 -9 -30q0 -26 19.5 -45t53.5 -19q42 0 73 23zM139 663l-9 5l101 212l62 -40z" />
    <glyph glyph-name="AEacute" unicode="&#x1fc;" horiz-adv-x="860" 
d="M305 656v6h477v-118h-6l-66 85h-203v-260h208l45 69h5v-169h-5l-45 68h-208v-303h223l71 105h6v-139h-455v6l66 48v262h-173l-152 -262l69 -48v-6h-167v6l55 48l322 554zM264 348h154v265zM471 703l-5 9l209 129l29 -63z" />
    <glyph glyph-name="aeacute" unicode="&#x1fd;" horiz-adv-x="601" 
d="M63 160q8 4 185 62q0 17 0.5 43.5t0.5 35.5q0 77 -70 77q-36 0 -63 -31v-60l-78 23v5q86 108 178 108q35 0 61 -16t38 -42q52 55 119 55q104 0 151 -114v-3l-259 -89q2 -78 45 -122.5t107 -44.5q53 0 105 21l4 -7q-26 -26 -67.5 -48.5t-87.5 -22.5q-91 0 -144 71
q-22 -26 -56.5 -49t-71.5 -23q-60 0 -94.5 28t-34.5 73q0 27 10 45.5t22 24.5zM182 40q52 0 93 41q-26 50 -27 109q-18 -7 -49.5 -19.5t-56 -22t-27.5 -10.5q-10 -6 -10 -33q0 -28 19 -46.5t58 -18.5zM429 388q-32 0 -64.5 -37.5t-37.5 -104.5l172 65q-4 30 -23 53.5
t-47 23.5zM302 495l-9 5l101 212l62 -40z" />
    <glyph glyph-name="Oslashacute" unicode="&#x1fe;" horiz-adv-x="743" 
d="M42 323q0 149 95 249.5t234 100.5q93 0 169 -45l52 80l28 -17l-52 -81q133 -99 133 -273q0 -148 -96.5 -248t-233.5 -100q-95 0 -172 47l-62 -96l-28 18l62 97q-129 98 -129 268zM603 330q0 140 -70 226l-304 -473q60 -60 142 -60q97 0 164.5 85t67.5 222zM141 330
q0 -135 65 -221l304 472q-61 58 -139 58q-98 0 -164 -85t-66 -224zM260 703l-5 9l209 129l29 -63z" />
    <glyph glyph-name="oslashacute" unicode="&#x1ff;" horiz-adv-x="463" 
d="M26 200q0 92 60.5 156t144.5 64q52 0 101 -27l46 73l27 -16l-47 -74q79 -62 79 -167q0 -93 -60.5 -156t-145.5 -63q-54 0 -101 26l-49 -77l-28 16l50 79q-77 61 -77 166zM352 205q0 70 -27 119l-168 -265q31 -36 74 -36q51 0 86 51.5t35 130.5zM112 205q0 -71 25 -117
l168 264q-31 36 -74 36q-49 0 -84 -53t-35 -130zM174 495l-9 5l101 212l62 -40z" />
    <glyph glyph-name="Scommaaccent" unicode="&#x218;" horiz-adv-x="470" 
d="M252 673q74 0 128 -20v-94h-5q-51 81 -129 81q-45 0 -74 -26t-29 -68q0 -49 28.5 -81t99.5 -81q42 -30 63 -47.5t46.5 -44.5t36 -55.5t10.5 -63.5q0 -79 -54 -131t-146 -52q-99 0 -173 42q-12 87 -8 164h7q46 -171 174 -171q52 0 85.5 33.5t33.5 82.5q0 53 -28.5 89
t-97.5 81q-81 55 -117.5 100t-36.5 106q0 72 51.5 114t134.5 42zM283 -140q0 -44 -27.5 -87t-61.5 -64l-10 4q51 64 56 129q-1 -1 -5 -1q-2 -1 -10 -1q-17 0 -27.5 11.5t-10.5 28.5q0 18 12.5 30t30.5 12q24 0 38.5 -16.5t14.5 -45.5z" />
    <glyph glyph-name="scommaaccent" unicode="&#x219;" horiz-adv-x="327" 
d="M174 420q53 0 89 -13v-81h-6q-37 62 -90 62q-23 0 -38.5 -13t-15.5 -38q0 -27 16 -42.5t58 -41.5q62 -41 79 -61q29 -34 29 -78q0 -55 -38.5 -89.5t-104.5 -34.5q-63 0 -114 24q-12 55 -7 130h7q38 -120 117 -120q30 0 50 18.5t20 48.5t-18.5 48t-65.5 47
q-30 19 -47.5 34t-32 40t-14.5 55q0 49 36 77t91 28zM217 -140q0 -44 -27.5 -87t-61.5 -64l-10 4q51 64 56 129q-1 -1 -5 -1q-2 -1 -10 -1q-17 0 -27.5 11.5t-10.5 28.5q0 18 12.5 30t30.5 12q24 0 38.5 -16.5t14.5 -45.5z" />
    <glyph glyph-name="uni021A" unicode="&#x21a;" horiz-adv-x="636" 
d="M604 662v-128h-6l-71 94h-165v-572l67 -50v-6h-223v6l67 50v572h-164l-71 -94h-6v128h572zM371 -140q0 -44 -27.5 -87t-61.5 -64l-10 4q51 64 56 129q-1 -1 -5 -1q-2 -1 -10 -1q-17 0 -27.5 11.5t-10.5 28.5q0 18 12.5 30t30.5 12q24 0 38.5 -16.5t14.5 -45.5z" />
    <glyph glyph-name="uni021B" unicode="&#x21b;" horiz-adv-x="354" 
d="M149 363v-248q0 -33 21.5 -54t64.5 -21q46 0 88 20l4 -7q-55 -62 -135 -62q-62 0 -92 32t-30 72v268h-55v7l134 103v-65h198l-29 -45h-169zM251 -140q0 -44 -27.5 -87t-61.5 -64l-10 4q51 64 56 129q-1 -1 -5 -1q-2 -1 -10 -1q-17 0 -27.5 11.5t-10.5 28.5q0 18 12.5 30
t30.5 12q24 0 38.5 -16.5t14.5 -45.5z" />
    <glyph glyph-name="uni0237" unicode="&#x237;" horiz-adv-x="219" 
d="M16 372v7q67 26 135 45v-370q0 -20 -3.5 -43t-15 -66t-42.5 -94.5t-77 -100.5l-10 6q69 141 69 299v288z" />
    <glyph glyph-name="circumflex" unicode="&#x2c6;" 
d="M200 706l105 -216l-8 -5l-97 110l-97 -110l-8 5z" />
    <glyph glyph-name="caron" unicode="&#x2c7;" 
d="M103 705l97 -110l97 110l8 -5l-105 -216l-105 216z" />
    <glyph glyph-name="breve" unicode="&#x2d8;" 
d="M200 563q64 0 89 72l8 -1q0 -55 -25.5 -91t-71.5 -36q-48 0 -72.5 35t-24.5 92l8 1q10 -33 33.5 -52.5t55.5 -19.5z" />
    <glyph glyph-name="dotaccent" unicode="&#x2d9;" 
d="M153 584q0 20 13.5 33.5t33.5 13.5t33 -13.5t13 -33.5t-13 -32.5t-33 -12.5t-33.5 12.5t-13.5 32.5z" />
    <glyph glyph-name="ring" unicode="&#x2da;" 
d="M152 575q0 -21 13.5 -36t34.5 -15t34.5 15t13.5 36t-13.5 36t-34.5 15t-34.5 -15t-13.5 -36zM122 575q0 32 23 54.5t55 22.5t55 -22.5t23 -54.5q0 -33 -22.5 -55t-55.5 -22t-55.5 21.5t-22.5 55.5z" />
    <glyph glyph-name="ogonek" unicode="&#x2db;" 
d="M199 -277q-44 0 -71 27t-27 70q0 91 144 180h21q-94 -94 -94 -165q0 -69 73 -69q25 0 50 11l4 -5q-38 -49 -100 -49z" />
    <glyph glyph-name="tilde" unicode="&#x2dc;" 
d="M143 611q12 0 59 -13t58 -13q20 0 58 52l7 -3q-11 -35 -30.5 -69.5t-37.5 -34.5q-15 0 -61 13t-56 13q-16 0 -58 -51l-7 3q11 37 30 70t38 33z" />
    <glyph glyph-name="hungarumlaut" unicode="&#x2dd;" 
d="M212 494l-10 4l64 215l58 -25zM91 494l-10 4l63 215l58 -25z" />
    <glyph glyph-name="Wgrave" unicode="&#x1e80;" horiz-adv-x="946" 
d="M465 608l61 -147l62 147l-50 48v6h144v-6l-55 -48l-83 -191l122 -295l177 486l-68 48v6h165v-6l-56 -48l-228 -621h-12l-154 356l-161 -356h-12l-256 621l-55 48v6h216v-6l-68 -48l195 -486l121 267l-94 219l-55 48v6h194v-6zM617 703l-233 75l29 63l209 -129z" />
    <glyph glyph-name="wgrave" unicode="&#x1e81;" horiz-adv-x="641" 
d="M228 24q-2 -5 -5.5 -13.5t-4.5 -11.5q-5 -12 -5 -13h-11q-4 10 -7 16q-7 20 -16 40l-129 321l-50 41v6h191v-6l-57 -41l93 -242l81 228l-5 14l-51 41v6h178v-6l-50 -41l87 -241l85 241l-58 41v6h147v-6l-51 -41l-122 -340q-3 -7 -9 -23q-4 -11 -5 -14h-10q-1 3 -5 13
q-1 4 -6.5 18.5t-9.5 25.5l-96 255zM377 495l-154 177l62 40l101 -212z" />
    <glyph glyph-name="Wacute" unicode="&#x1e82;" horiz-adv-x="946" 
d="M465 608l61 -147l62 147l-50 48v6h144v-6l-55 -48l-83 -191l122 -295l177 486l-68 48v6h165v-6l-56 -48l-228 -621h-12l-154 356l-161 -356h-12l-256 621l-55 48v6h216v-6l-68 -48l195 -486l121 267l-94 219l-55 48v6h194v-6zM396 703l-5 9l209 129l29 -63z" />
    <glyph glyph-name="wacute" unicode="&#x1e83;" horiz-adv-x="641" 
d="M228 24q-2 -5 -5.5 -13.5t-4.5 -11.5q-5 -12 -5 -13h-11q-4 10 -7 16q-7 20 -16 40l-129 321l-50 41v6h191v-6l-57 -41l93 -242l81 228l-5 14l-51 41v6h178v-6l-50 -41l87 -241l85 241l-58 41v6h147v-6l-51 -41l-122 -340q-3 -7 -9 -23q-4 -11 -5 -14h-10q-1 3 -5 13
q-1 4 -6.5 18.5t-9.5 25.5l-96 255zM304 495l-9 5l101 212l62 -40z" />
    <glyph glyph-name="Wdieresis" unicode="&#x1e84;" horiz-adv-x="946" 
d="M465 608l61 -147l62 147l-50 48v6h144v-6l-55 -48l-83 -191l122 -295l177 486l-68 48v6h165v-6l-56 -48l-228 -621h-12l-154 356l-161 -356h-12l-256 621l-55 48v6h216v-6l-68 -48l195 -486l121 267l-94 219l-55 48v6h194v-6zM420 723q-18 0 -30.5 12.5t-12.5 29.5
q0 18 12.5 30.5t30.5 12.5q17 0 29.5 -12.5t12.5 -30.5q0 -17 -12.5 -29.5t-29.5 -12.5zM644 765q0 -17 -12 -29t-29 -12q-18 0 -30 12t-12 29q0 18 12 30t30 12q17 0 29 -12t12 -30z" />
    <glyph glyph-name="wdieresis" unicode="&#x1e85;" horiz-adv-x="641" 
d="M228 24q-2 -5 -5.5 -13.5t-4.5 -11.5q-5 -12 -5 -13h-11q-4 10 -7 16q-7 20 -16 40l-129 321l-50 41v6h191v-6l-57 -41l93 -242l81 228l-5 14l-51 41v6h178v-6l-50 -41l87 -241l85 241l-58 41v6h147v-6l-51 -41l-122 -340q-3 -7 -9 -23q-4 -11 -5 -14h-10q-1 3 -5 13
q-1 4 -6.5 18.5t-9.5 25.5l-96 255zM424 622q17 0 29 -12t12 -30q0 -17 -12 -28.5t-29 -11.5q-18 0 -29.5 11.5t-11.5 28.5q0 18 11.5 30t29.5 12zM259 623q17 0 29.5 -12.5t12.5 -30.5q0 -17 -12.5 -29t-29.5 -12q-18 0 -30 12t-12 29q0 18 12 30.5t30 12.5z" />
    <glyph glyph-name="Ygrave" unicode="&#x1ef2;" horiz-adv-x="593" 
d="M423 656v6h164v-6l-56 -48l-183 -279v-275l66 -48v-6h-221v6l66 48v258l-198 296l-55 48v6h225v-6l-67 -48l163 -250l163 250zM435 703l-233 75l29 63l209 -129z" />
    <glyph glyph-name="ygrave" unicode="&#x1ef3;" horiz-adv-x="424" 
d="M198 -91q-46 -118 -52 -180h-99v5q75 73 121 192l33 84l-151 352l-50 42v6h194v-6l-57 -42l102 -252l94 252l-60 42v6h151v-6l-51 -42zM274 495l-154 177l62 40l101 -212z" />
    <glyph glyph-name="uni2009" unicode="&#x2009;" horiz-adv-x="45" 
 />
    <glyph glyph-name="endash" unicode="&#x2013;" horiz-adv-x="466" 
d="M46 259h374v-34h-374v34z" />
    <glyph glyph-name="emdash" unicode="&#x2014;" horiz-adv-x="733" 
d="M46 259h641v-34h-641v34z" />
    <glyph glyph-name="quoteleft" unicode="&#x2018;" horiz-adv-x="168" 
d="M28 520q0 48 28 95t73 81l11 -4q-62 -85 -67 -157q1 1 5 1q2 1 12 1q18 0 29.5 -11.5t11.5 -28.5q0 -20 -13.5 -31.5t-32.5 -11.5q-25 0 -41 17.5t-16 48.5z" />
    <glyph glyph-name="quoteright" unicode="&#x2019;" horiz-adv-x="168" 
d="M140 627q0 -48 -28 -95t-73 -81l-11 4q62 85 67 157q-1 -1 -5 -1q-2 -1 -12 -1q-18 0 -29.5 11.5t-11.5 28.5q0 20 13.5 31.5t32.5 11.5q25 0 41 -17.5t16 -48.5z" />
    <glyph glyph-name="quotesinglbase" unicode="&#x201a;" horiz-adv-x="168" 
d="M140 32q0 -48 -28 -95t-73 -81l-11 4q62 85 67 157q-1 -1 -5 -1q-2 -1 -12 -1q-18 0 -29.5 11.5t-11.5 28.5q0 20 13.5 31.5t32.5 11.5q25 0 41 -17.5t16 -48.5z" />
    <glyph glyph-name="quotedblleft" unicode="&#x201c;" horiz-adv-x="314" 
d="M174 520q0 48 28 95t73 81l11 -4q-62 -85 -67 -157q1 1 5 1q2 1 12 1q18 0 29.5 -11.5t11.5 -28.5q0 -20 -13.5 -31.5t-32.5 -11.5q-25 0 -41 17.5t-16 48.5zM28 520q0 48 28 95t73 81l11 -4q-62 -85 -67 -157q1 1 5 1q2 1 12 1q18 0 29.5 -11.5t11.5 -28.5
q0 -20 -13.5 -31.5t-32.5 -11.5q-25 0 -41 17.5t-16 48.5z" />
    <glyph glyph-name="quotedblright" unicode="&#x201d;" horiz-adv-x="314" 
d="M286 627q0 -48 -28 -95t-73 -81l-11 4q62 85 67 157q-1 -1 -5 -1q-2 -1 -12 -1q-18 0 -29.5 11.5t-11.5 28.5q0 20 13.5 31.5t32.5 11.5q25 0 41 -17.5t16 -48.5zM140 627q0 -48 -28 -95t-73 -81l-11 4q62 85 67 157q-1 -1 -5 -1q-2 -1 -12 -1q-18 0 -29.5 11.5
t-11.5 28.5q0 20 13.5 31.5t32.5 11.5q25 0 41 -17.5t16 -48.5z" />
    <glyph glyph-name="quotedblbase" unicode="&#x201e;" horiz-adv-x="317" 
d="M286 32q0 -48 -28 -95t-73 -81l-11 4q62 85 67 157q-1 -1 -5 -1q-2 -1 -12 -1q-18 0 -29.5 11.5t-11.5 28.5q0 20 13.5 31.5t32.5 11.5q25 0 41 -17.5t16 -48.5zM140 32q0 -48 -28 -95t-73 -81l-11 4q62 85 67 157q-1 -1 -5 -1q-2 -1 -12 -1q-18 0 -29.5 11.5t-11.5 28.5
q0 20 13.5 31.5t32.5 11.5q25 0 41 -17.5t16 -48.5z" />
    <glyph glyph-name="dagger" unicode="&#x2020;" horiz-adv-x="354" 
d="M152 -111h-5v580h-127v5l35 38h92v110l49 57h5v-167h133v-5l-35 -38h-98v-523z" />
    <glyph glyph-name="daggerdbl" unicode="&#x2021;" horiz-adv-x="363" 
d="M343 493l-35 -39h-99v-226h125v-5l-35 -38h-90v-143l-48 -57h-5v200h-136v5l35 38h101v226h-128v6l35 38h93v124l48 57h5v-181h134v-5z" />
    <glyph glyph-name="bullet" unicode="&#x2022;" horiz-adv-x="330" 
d="M59 247q0 45 31 76t75 31q45 0 75.5 -31t30.5 -76q0 -44 -30.5 -75t-75.5 -31t-75.5 30.5t-30.5 75.5z" />
    <glyph glyph-name="ellipsis" unicode="&#x2026;" horiz-adv-x="560" 
d="M419 41q0 23 14 36.5t36 13.5t36 -13.5t14 -36.5q0 -21 -14 -35.5t-36 -14.5q-21 0 -35.5 14.5t-14.5 35.5zM231 41q0 23 14 36.5t36 13.5t36 -13.5t14 -36.5q0 -21 -14 -35.5t-36 -14.5q-21 0 -35.5 14.5t-14.5 35.5zM43 41q0 23 14 36.5t36 13.5t36 -13.5t14 -36.5
q0 -21 -14 -35.5t-36 -14.5q-21 0 -35.5 14.5t-14.5 35.5z" />
    <glyph glyph-name="perthousand" unicode="&#x2030;" horiz-adv-x="973" 
d="M800 -9q-61 0 -102 40.5t-41 100.5q0 59 42.5 101.5t100.5 42.5q60 0 101.5 -40.5t41.5 -100.5t-41.5 -102t-101.5 -42zM700 133q0 -45 29 -75t71 -30q43 0 71.5 30t28.5 75q0 46 -28.5 76t-71.5 30q-42 0 -71 -30.5t-29 -75.5zM471 28q43 0 71.5 30t28.5 75
q0 46 -28.5 76t-71.5 30q-42 0 -71 -30.5t-29 -75.5t29 -75t71 -30zM328 132q0 59 42.5 101.5t100.5 42.5q60 0 101.5 -40.5t41.5 -100.5t-41.5 -102t-101.5 -42q-61 0 -102 40.5t-41 100.5zM30 526q0 59 42.5 101.5t100.5 42.5q60 0 101.5 -40.5t41.5 -100.5t-41.5 -102
t-101.5 -42q-61 0 -102 40.5t-41 100.5zM173 633q-42 0 -71 -30.5t-29 -75.5t29 -75t71 -30q43 0 71.5 30t28.5 75q0 46 -28.5 76t-71.5 30zM536 662h46l-469 -662h-47z" />
    <glyph glyph-name="uni2032" unicode="&#x2032;" horiz-adv-x="171" 
d="M131 687l-82 -233h-9l16 233h75z" />
    <glyph glyph-name="uni2033" unicode="&#x2033;" horiz-adv-x="297" 
d="M257 687l-82 -233h-9l16 233h75zM131 687l-82 -233h-9l16 233h75z" />
    <glyph glyph-name="guilsinglleft" unicode="&#x2039;" horiz-adv-x="209" 
d="M23 224l151 155l7 -6l-79 -149l79 -152l-7 -6z" />
    <glyph glyph-name="guilsinglright" unicode="&#x203a;" horiz-adv-x="209" 
d="M35 379l151 -155l-151 -158l-7 6l79 152l-79 149z" />
    <glyph glyph-name="fraction" unicode="&#x2044;" horiz-adv-x="476" 
d="M435 662h41l-435 -662h-41z" />
    <glyph glyph-name="Euro" unicode="&#x20ac;" horiz-adv-x="580" 
d="M384 -10q-117 0 -202.5 78.5t-99.5 212.5h-77v31h75v17q0 16 2 46h-77v31h81q21 116 96.5 191.5t191.5 75.5q77 0 149 -18v-103h-5q-64 86 -157 86q-72 0 -120 -64.5t-60 -167.5h244v-31h-246q-1 -12 -1 -35v-28h247v-31h-244q11 -118 69.5 -186t133.5 -68q83 0 147 91h6
v-96q-68 -32 -153 -32z" />
    <glyph glyph-name="trademark" unicode="&#x2122;" horiz-adv-x="624" 
d="M609 658l-30 -23v-216l30 -22v-5h-111v5l30 22v180l-98 -184h-10l-96 183v-179l33 -22v-5h-92v5l33 22v212q-16 17 -28 26v5h77l92 -179l94 179h76v-4zM5 662h238v-64h-5l-31 41h-58v-221l31 -21v-5h-112v5l30 21v221h-58l-30 -42h-5v65z" />
    <glyph glyph-name="onethird" unicode="&#x2153;" horiz-adv-x="507" 
d="M454 662h41l-435 -662h-41zM39 375v4l38 26v205l-41 20v4q6 1 50 17t50 18v-264l36 -26v-4h-133zM338 154q37 21 54 36.5t17 35.5q0 31 -36 31q-30 0 -52 -22l-4 4q28 54 86 54q31 0 48 -14t17 -38q0 -38 -56 -60q36 -2 59.5 -20t23.5 -51q0 -50 -46.5 -82t-135.5 -37
l-3 7q121 45 121 102q0 24 -17 36t-45 12q-14 0 -28 -2z" />
    <glyph glyph-name="twothirds" unicode="&#x2154;" horiz-adv-x="561" 
d="M508 662h41l-435 -662h-41zM225 468h5v-93h-211v11q95 113 111 141q15 28 15 51t-13 36.5t-36 13.5q-38 0 -61 -28l-7 4q26 64 94 64q41 0 64 -21t23 -57q0 -39 -33 -77.5t-100 -90.5h116zM391 154q37 21 54 36.5t17 35.5q0 31 -36 31q-30 0 -52 -22l-4 4q28 54 86 54
q31 0 48 -14t17 -38q0 -38 -56 -60q36 -2 59.5 -20t23.5 -51q0 -50 -46.5 -82t-135.5 -37l-3 7q121 45 121 102q0 24 -17 36t-45 12q-14 0 -28 -2z" />
    <glyph glyph-name="oneeighth" unicode="&#x215b;" horiz-adv-x="527" 
d="M454 662h41l-435 -662h-41zM39 375v4l38 26v205l-41 20v4q6 1 50 17t50 18v-264l36 -26v-4h-133zM419 293q44 0 70.5 -17.5t26.5 -41.5q0 -45 -68 -69q43 -21 60.5 -42.5t17.5 -48.5q0 -34 -30 -57t-84 -23q-50 0 -79 17.5t-29 47.5q0 44 76 78q-67 35 -67 82
q0 33 29 53.5t77 20.5zM469 58q0 18 -14.5 34.5t-57.5 36.5q-41 -27 -41 -64q0 -19 15 -32.5t43 -13.5q25 0 40 11.5t15 27.5zM368 236q0 -33 64 -63q33 25 33 54q0 43 -50 43q-47 0 -47 -34z" />
    <glyph glyph-name="threeeighths" unicode="&#x215c;" horiz-adv-x="529" 
d="M446 662h41l-435 -662h-41zM43 529q37 21 54 36.5t17 35.5q0 31 -36 31q-30 0 -52 -22l-4 4q28 54 86 54q31 0 48 -14t17 -38q0 -38 -56 -60q36 -2 59.5 -20t23.5 -51q0 -50 -46.5 -82t-135.5 -37l-3 7q121 45 121 102q0 24 -17 36t-45 12q-14 0 -28 -2zM412 293
q44 0 70.5 -17.5t26.5 -41.5q0 -45 -68 -69q43 -21 60.5 -42.5t17.5 -48.5q0 -34 -30 -57t-84 -23q-50 0 -79 17.5t-29 47.5q0 44 76 78q-67 35 -67 82q0 33 29 53.5t77 20.5zM462 58q0 18 -14.5 34.5t-57.5 36.5q-41 -27 -41 -64q0 -19 15 -32.5t43 -13.5q25 0 40 11.5
t15 27.5zM361 236q0 -33 64 -63q33 25 33 54q0 43 -50 43q-47 0 -47 -34z" />
    <glyph glyph-name="fiveeighths" unicode="&#x215d;" horiz-adv-x="533" 
d="M450 662h41l-435 -662h-41zM205 662l-20 -50h-105l-10 -37q71 -11 102.5 -37t31.5 -58q0 -44 -46 -75t-134 -39l-3 8q123 43 123 92q0 47 -113 60q2 9 18 68.5t18 67.5h138zM415 293q44 0 70.5 -17.5t26.5 -41.5q0 -45 -68 -69q43 -21 60.5 -42.5t17.5 -48.5
q0 -34 -30 -57t-84 -23q-50 0 -79 17.5t-29 47.5q0 44 76 78q-67 35 -67 82q0 33 29 53.5t77 20.5zM465 58q0 18 -14.5 34.5t-57.5 36.5q-41 -27 -41 -64q0 -19 15 -32.5t43 -13.5q25 0 40 11.5t15 27.5zM364 236q0 -33 64 -63q33 25 33 54q0 43 -50 43q-47 0 -47 -34z" />
    <glyph glyph-name="seveneighths" unicode="&#x215e;" horiz-adv-x="504" 
d="M422 662h41l-435 -662h-41zM40 662h193v-4l-130 -283h-38l108 236h-155zM386 293q44 0 70.5 -17.5t26.5 -41.5q0 -45 -68 -69q43 -21 60.5 -42.5t17.5 -48.5q0 -34 -30 -57t-84 -23q-50 0 -79 17.5t-29 47.5q0 44 76 78q-67 35 -67 82q0 33 29 53.5t77 20.5zM436 58
q0 18 -14.5 34.5t-57.5 36.5q-41 -27 -41 -64q0 -19 15 -32.5t43 -13.5q25 0 40 11.5t15 27.5zM335 236q0 -33 64 -63q33 25 33 54q0 43 -50 43q-47 0 -47 -34z" />
    <glyph glyph-name="minus" unicode="&#x2212;" horiz-adv-x="449" 
d="M47 229v34h355v-34h-355z" />
    <glyph glyph-name="uni24C5" unicode="&#x24c5;" horiz-adv-x="764" 
d="M382 639q-127 0 -211 -89t-84 -218q0 -127 86.5 -217t208.5 -90q126 0 210.5 89t84.5 218q0 126 -86 216.5t-209 90.5zM536 413q0 -53 -44.5 -82.5t-105.5 -29.5v4q79 27 79 97q0 38 -21 59.5t-57 21.5h-24v-282l43 -30v-4h-153v4l39 30v275l-39 29v4h151q58 0 95 -24
t37 -72zM382 674q141 0 240.5 -100.5t99.5 -241.5q0 -144 -98 -243t-242 -99q-145 0 -242.5 98.5t-97.5 243.5q0 144 98 243t242 99z" />
    <glyph glyph-name="W.001" horiz-adv-x="933" 
d="M497 676l178 -522l150 454l-69 48v6h167v-6l-56 -48l-205 -621h-11l-183 518l-183 -518h-11l-209 621l-55 48v6h216v-6l-69 -48l147 -453l182 521h11z" />
    <glyph glyph-name="w.001" horiz-adv-x="630" 
d="M225 24l-4 -12t-5 -13q-5 -12 -5 -13h-13q-1 7 -6 16q-12 34 -15 40l-127 321l-50 41v6h190v-6l-57 -41l91 -243l111 300h13l110 -302l83 245l-58 41v6h147v-6l-51 -41l-116 -337q-4 -11 -10 -27q-5 -12 -5 -13h-13q-4 10 -7 16q-14 40 -15 41l-91 239z" />
    <glyph glyph-name="acute.uc" 
d="M87 703l-5 9l209 129l29 -63z" />
    <glyph glyph-name="breve.uc" 
d="M200 713q-48 0 -78.5 36.5t-32.5 84.5l7 1q33 -65 104 -65q70 0 104 65l7 -1q-4 -49 -33 -85t-78 -36z" />
    <glyph glyph-name="circumflex.uc" 
d="M202 834l137 -120l-4 -7l-133 54l-136 -54l-5 7z" />
    <glyph glyph-name="dieresis.uc" 
d="M110 723q-18 0 -30.5 12.5t-12.5 29.5q0 18 12.5 30.5t30.5 12.5q17 0 29.5 -12.5t12.5 -30.5q0 -17 -12.5 -29.5t-29.5 -12.5zM334 765q0 -17 -12 -29t-29 -12q-18 0 -30 12t-12 29q0 18 12 30t30 12q17 0 29 -12t12 -30z" />
    <glyph glyph-name="grave.uc" 
d="M314 703l-233 75l29 63l209 -129z" />
    <glyph glyph-name="macron.uc" 
d="M88 773h225v-46h-225v46z" />
    <glyph glyph-name="ring.uc" 
d="M152 777q0 -21 13.5 -36t34.5 -15t34.5 15t13.5 36t-13.5 36t-34.5 15t-34.5 -15t-13.5 -36zM122 777q0 32 23 54.5t55 22.5t55 -22.5t23 -54.5q0 -33 -22.5 -55t-55.5 -22t-55.5 21.5t-22.5 55.5z" />
    <glyph glyph-name="tilde.uc" 
d="M136 803q12 0 66 -9t67 -9q24 0 66 48l6 -3q-8 -27 -32.5 -63.5t-45.5 -36.5q-18 0 -70 9t-62 9q-26 0 -66 -49l-6 3q13 33 34.5 67t42.5 34z" />
    <glyph glyph-name="Cacute.pl" horiz-adv-x="670" 
d="M398 -11q-155 0 -256.5 94.5t-101.5 243.5q0 141 98.5 243.5t259.5 102.5q101 0 204 -29v-108h-5q-74 103 -203 103q-116 0 -185.5 -88t-69.5 -215q0 -136 76 -224.5t186 -88.5q121 0 210 110h5v-98q-89 -46 -218 -46zM368 704l-9 1l13 165l73 -19z" />
    <glyph glyph-name="acute.ucpl" 
d="M166 704l-9 1l13 165l73 -19z" />
    <glyph glyph-name="acute.pl" 
d="M168 491l-10 2l20 224l71 -14z" />
    <glyph glyph-name="caron.uc" 
d="M66 830l136 -54l133 54l4 -7l-137 -120l-141 120z" />
    <glyph glyph-name="dotaccent.uc" 
d="M154 769q0 20 13.5 33.5t33.5 13.5t33 -13.5t13 -33.5t-13 -33t-33 -13t-33.5 13t-13.5 33z" />
    <glyph glyph-name="space_uni0326" 
d="M249 -140q0 -44 -27.5 -87t-61.5 -64l-10 4q51 64 56 129q-1 -1 -5 -1q-2 -1 -10 -1q-17 0 -27.5 11.5t-10.5 28.5q0 18 12.5 30t30.5 12q24 0 38.5 -16.5t14.5 -45.5z" />
    <glyph glyph-name="K.001" horiz-adv-x="654" 
d="M45 0v6l66 48v554l-66 48v6h222v-6l-67 -48v-554l67 -48v-6h-222zM592 -8q-28 0 -50.5 7.5t-47.5 29.5t-43 43t-56 67l-167 202v5l247 262l-66 48v6h197v-6l-75 -43l-227 -233l156 -190q123 -152 191 -185v-6q-19 -7 -59 -7z" />
    <glyph glyph-name="Kcommaaccent.001" horiz-adv-x="654" 
d="M45 0v6l66 48v554l-66 48v6h222v-6l-67 -48v-554l67 -48v-6h-222zM592 -8q-28 0 -50.5 7.5t-47.5 29.5t-43 43t-56 67l-167 202v5l247 262l-66 48v6h197v-6l-75 -43l-227 -233l156 -190q123 -152 191 -185v-6q-19 -7 -59 -7zM413 -140q0 -44 -27.5 -87t-61.5 -64l-10 4
q51 64 56 129q-1 -1 -5 -1q-2 -1 -10 -1q-17 0 -27.5 11.5t-10.5 28.5q0 18 12.5 30t30.5 12q24 0 38.5 -16.5t14.5 -45.5z" />
    <glyph glyph-name="caron.alt" 
d="M157 509l21 206h67l-78 -206h-10z" />
    <glyph glyph-name="Nacute.pl" horiz-adv-x="765" 
d="M38 0v6l73 53v522q-42 47 -77 75v6h124l460 -525v466l-75 53v6h189v-6l-73 -53v-603h-32l-475 535v-476l75 -53v-6h-189zM386 704l-9 1l13 165l73 -19z" />
    <glyph glyph-name="Oacute.pl" horiz-adv-x="743" 
d="M42 323q0 149 95 249.5t234 100.5q138 0 234 -95t96 -241q0 -148 -96.5 -248t-233.5 -100t-233 94.5t-96 239.5zM141 330q0 -138 66.5 -222.5t163.5 -84.5t164.5 85t67.5 222q0 138 -67.5 223.5t-164.5 85.5q-98 0 -164 -85t-66 -224zM357 704l-9 1l13 165l73 -19z" />
    <glyph glyph-name="hungarumlaut.uc" 
d="M334 852l39 -53l-179 -95l-6 8zM32 704l-6 8l146 140l39 -53z" />
    <glyph glyph-name="Q.long" horiz-adv-x="742" 
d="M937 -222q-64 0 -169 23t-225 72q-214 84 -339 159q-76 46 -119 121t-43 170q0 149 95 249.5t234 100.5q138 0 234 -95t96 -241q0 -119 -66.5 -212t-177.5 -125q176 -82 281 -116q180 -54 325 -54q109 0 209 29l4 -8q-54 -32 -143 -52.5t-196 -20.5zM141 330
q0 -138 66.5 -222.5t163.5 -84.5t164.5 85t67.5 222q0 138 -67.5 223.5t-164.5 85.5q-98 0 -164 -85t-66 -224z" />
    <glyph glyph-name="Sacute.pl" horiz-adv-x="470" 
d="M252 673q74 0 128 -20v-94h-5q-51 81 -129 81q-45 0 -74 -26t-29 -68q0 -49 28.5 -81t99.5 -81q42 -30 63 -47.5t46.5 -44.5t36 -55.5t10.5 -63.5q0 -79 -54 -131t-146 -52q-99 0 -173 42q-12 87 -8 164h7q46 -171 174 -171q52 0 85.5 33.5t33.5 82.5q0 53 -28.5 89
t-97.5 81q-81 55 -117.5 100t-36.5 106q0 72 51.5 114t134.5 42zM227 704l-9 1l13 165l73 -19z" />
    <glyph glyph-name="Wacute.001" horiz-adv-x="933" 
d="M497 676l178 -522l150 454l-69 48v6h167v-6l-56 -48l-205 -621h-11l-183 518l-183 -518h-11l-209 621l-55 48v6h216v-6l-69 -48l147 -453l182 521h11zM385 703l-5 9l209 129l29 -63z" />
    <glyph glyph-name="Wcircumflex.001" horiz-adv-x="933" 
d="M497 676l178 -522l150 454l-69 48v6h167v-6l-56 -48l-205 -621h-11l-183 518l-183 -518h-11l-209 621l-55 48v6h216v-6l-69 -48l147 -453l182 521h11zM490 834l137 -120l-4 -7l-133 54l-136 -54l-5 7z" />
    <glyph glyph-name="Wdieresis.001" horiz-adv-x="933" 
d="M497 676l178 -522l150 454l-69 48v6h167v-6l-56 -48l-205 -621h-11l-183 518l-183 -518h-11l-209 621l-55 48v6h216v-6l-69 -48l147 -453l182 521h11zM400 723q-18 0 -30.5 12.5t-12.5 29.5q0 18 12.5 30.5t30.5 12.5q17 0 29.5 -12.5t12.5 -30.5q0 -17 -12.5 -29.5
t-29.5 -12.5zM624 765q0 -17 -12 -29t-29 -12q-18 0 -30 12t-12 29q0 18 12 30t30 12q17 0 29 -12t12 -30z" />
    <glyph glyph-name="Wgrave.001" horiz-adv-x="933" 
d="M497 676l178 -522l150 454l-69 48v6h167v-6l-56 -48l-205 -621h-11l-183 518l-183 -518h-11l-209 621l-55 48v6h216v-6l-69 -48l147 -453l182 521h11zM601 703l-233 75l29 63l209 -129z" />
    <glyph glyph-name="Zacute.pl" horiz-adv-x="627" 
d="M149 34h356l81 108h6v-142h-557v9l421 620h-316l-73 -99h-6v132h517v-8zM312 704l-9 1l13 165l73 -19z" />
    <glyph glyph-name="ampersand.uc" horiz-adv-x="734" 
d="M736 433q-65 -37 -93.5 -73.5t-84.5 -140.5q-33 -59 -35 -61q35 -52 74.5 -82.5t93.5 -30.5q36 0 57 9l3 -4q-47 -54 -119 -54q-89 0 -160 93q-84 -99 -199 -99q-106 0 -172 57t-66 140q0 72 50 132.5t123 89.5q-71 71 -71 138q0 50 40.5 88t104.5 38q54 0 96.5 -28
t42.5 -81q0 -18 -6.5 -34.5t-12 -26.5t-23 -24t-22.5 -17.5t-29 -17t-25 -14.5q108 -108 198 -240q1 2 7 12t9 16q12 21 33.5 60.5t34.5 61.5t24 38l-73 55v6h200v-6zM450 121q-61 88 -105.5 141t-117.5 129q-104 -68 -104 -177q0 -74 46.5 -122t123.5 -48q87 0 157 77z
M207 568q0 -29 17 -53t61 -68q66 43 66 112q0 38 -19.5 61t-49.5 23q-33 0 -54 -21.5t-21 -53.5z" />
    <glyph glyph-name="at.uc" horiz-adv-x="876" 
d="M540 145q42 3 82.5 19.5t76.5 46.5t58 81t22 116q0 52 -16 97.5t-49 85t-92 62.5t-137 23q-86 0 -158.5 -35t-118.5 -91.5t-71.5 -125.5t-25.5 -140q0 -161 92.5 -255t236.5 -94q153 0 271 91l8 -9q-44 -47 -119.5 -85t-172.5 -38q-168 0 -275 101t-107 268
q0 122 61 226.5t167 165.5t231 61q158 0 248 -83t90 -201q0 -156 -111.5 -241t-269.5 -75l29 144q-96 -141 -168 -141q-24 0 -44 25t-20 70q0 60 29 121t95.5 111t157.5 59l79 34zM355 177q23 0 65.5 40t79.5 93l33 163q-82 -6 -140 -82t-58 -171q0 -43 20 -43z" />
    <glyph glyph-name="backslash.uc" horiz-adv-x="329" 
d="M19 744l35 9l254 -848l-34 -8z" />
    <glyph glyph-name="slash.uc" horiz-adv-x="329" 
d="M274 753l35 -9l-255 -847l-34 8z" />
    <glyph glyph-name="bar.uc" horiz-adv-x="256" 
d="M110 -103v847h36v-847h-36z" />
    <glyph glyph-name="braceleft.uc" horiz-adv-x="259" 
d="M118 32q0 -76 106 -132l-5 -7q-96 33 -131 73t-35 86q0 30 33.5 96t33.5 94q0 76 -102 80v20q102 1 102 80q0 27 -33.5 90t-33.5 94q0 21 6 39t22.5 38.5t51 40t86.5 35.5l5 -7q-106 -51 -106 -126q0 -30 30.5 -96.5t30.5 -94.5q0 -35 -28.5 -65t-81.5 -38
q54 -9 82 -38.5t28 -65.5q0 -28 -30.5 -97t-30.5 -99z" />
    <glyph glyph-name="braceright.uc" horiz-adv-x="259" 
d="M141 32q0 30 -30.5 99t-30.5 97q0 36 28 65.5t82 38.5q-53 8 -81.5 38t-28.5 65q0 28 30.5 94.5t30.5 96.5q0 75 -106 126l5 7q52 -16 86.5 -35.5t51 -40t22.5 -38.5t6 -39q0 -31 -33.5 -94t-33.5 -90q0 -79 102 -80v-20q-102 -4 -102 -80q0 -28 33.5 -94t33.5 -96
q0 -46 -35 -86t-131 -73l-5 7q106 56 106 132z" />
    <glyph glyph-name="bracketleft.uc" horiz-adv-x="241" 
d="M221 727h-88v-800h88v-22h-158v844h158v-22z" />
    <glyph glyph-name="bracketright.uc" horiz-adv-x="241" 
d="M108 727h-88v22h158v-844h-158v22h88v800z" />
    <glyph glyph-name="cacute.pl" horiz-adv-x="409" 
d="M249 420q59 0 120 -16v-94h-5q-57 76 -133 76q-56 0 -91.5 -48t-35.5 -114q0 -84 47.5 -131t121.5 -47q66 0 115 31l4 -7q-23 -33 -65 -56.5t-99 -23.5q-85 0 -143.5 56t-58.5 152q0 92 60.5 157t162.5 65zM213 491l-10 2l20 224l71 -14z" />
    <glyph glyph-name="space_uni0326.alt" 
d="M151 562q0 45 26.5 86t62.5 65l10 -4q-51 -64 -56 -129q2 0 4 1q1 0 5 0.5t6 0.5q17 0 27.5 -11.5t10.5 -28.5q0 -18 -12.5 -30t-30.5 -12q-24 0 -38.5 16.5t-14.5 45.5z" />
    <glyph glyph-name="divide.lin" horiz-adv-x="468" 
d="M187 135q0 21 13.5 34.5t33.5 13.5t33.5 -13.5t13.5 -34.5q0 -20 -13.5 -33.5t-33.5 -13.5t-33.5 13.5t-13.5 33.5zM187 449q0 21 13.5 35t33.5 14t33.5 -14t13.5 -35q0 -20 -13.5 -33t-33.5 -13t-33.5 13t-13.5 33zM47 313h374v-34h-374v34z" />
    <glyph glyph-name="eight.den" horiz-adv-x="258" 
d="M133 293q44 0 70.5 -17.5t26.5 -41.5q0 -45 -68 -69q43 -21 60.5 -42.5t17.5 -48.5q0 -34 -30 -57t-84 -23q-50 0 -79 17.5t-29 47.5q0 44 76 78q-67 35 -67 82q0 33 29 53.5t77 20.5zM183 58q0 18 -14.5 34.5t-57.5 36.5q-41 -27 -41 -64q0 -19 15 -32.5t43 -13.5
q25 0 40 11.5t15 27.5zM82 236q0 -33 64 -63q33 25 33 54q0 43 -50 43q-47 0 -47 -34z" />
    <glyph glyph-name="eight.lin" horiz-adv-x="483" 
d="M243 672q75 0 124.5 -39.5t49.5 -97.5q0 -95 -127 -167q78 -52 115.5 -97t37.5 -107q0 -75 -57 -124.5t-146 -49.5q-86 0 -143 42t-57 110q0 58 37 103t112 89q-72 49 -99.5 90t-27.5 94q0 67 53 110.5t128 43.5zM217 317q-2 0 -4 2q-97 -70 -97 -170q0 -53 35 -89.5
t91 -36.5q55 0 89 34.5t34 82.5q0 52 -32 88t-116 89zM134 543q0 -47 27.5 -77t106.5 -83q78 61 78 144q0 52 -28 82.5t-78 30.5q-49 0 -77.5 -28t-28.5 -69z" />
    <glyph glyph-name="eight.num" horiz-adv-x="258" 
d="M133 668q44 0 70.5 -17.5t26.5 -41.5q0 -45 -68 -69q43 -21 60.5 -42.5t17.5 -48.5q0 -34 -30 -57t-84 -23q-50 0 -79 17.5t-29 47.5q0 44 76 78q-67 35 -67 82q0 33 29 53.5t77 20.5zM183 433q0 18 -14.5 34.5t-57.5 36.5q-41 -27 -41 -64q0 -19 15 -32.5t43 -13.5
q25 0 40 11.5t15 27.5zM82 611q0 -33 64 -63q33 25 33 54q0 43 -50 43q-47 0 -47 -34z" />
    <glyph glyph-name="eight.sub" horiz-adv-x="258" 
d="M133 188q44 0 70.5 -17.5t26.5 -41.5q0 -45 -68 -69q43 -21 60.5 -42.5t17.5 -48.5q0 -34 -30 -57t-84 -23q-50 0 -79 17.5t-29 47.5q0 44 76 78q-67 35 -67 82q0 33 29 53.5t77 20.5zM183 -47q0 18 -14.5 34.5t-57.5 36.5q-41 -27 -41 -64q0 -19 15 -32.5t43 -13.5
q25 0 40 11.5t15 27.5zM82 131q0 -33 64 -63q33 25 33 54q0 43 -50 43q-47 0 -47 -34z" />
    <glyph glyph-name="eight.sup" horiz-adv-x="258" 
d="M133 721q44 0 70.5 -17.5t26.5 -41.5q0 -45 -68 -69q43 -21 60.5 -42.5t17.5 -48.5q0 -34 -30 -57t-84 -23q-50 0 -79 17.5t-29 47.5q0 44 76 78q-67 35 -67 82q0 33 29 53.5t77 20.5zM183 486q0 18 -14.5 34.5t-57.5 36.5q-41 -27 -41 -64q0 -19 15 -32.5t43 -13.5
q25 0 40 11.5t15 27.5zM82 664q0 -33 64 -63q33 25 33 54q0 43 -50 43q-47 0 -47 -34z" />
    <glyph glyph-name="emdash.uc" horiz-adv-x="733" 
d="M46 324h641v-34h-641v34z" />
    <glyph glyph-name="endash.uc" horiz-adv-x="466" 
d="M46 324h374v-34h-374v34z" />
    <glyph glyph-name="equal.lin" horiz-adv-x="459" 
d="M52 231v32h355v-32h-355zM52 320v32h355v-32h-355z" />
    <glyph glyph-name="exclamdown.uc" horiz-adv-x="200" 
d="M55 0l39 451h13l39 -451h-91zM150 621q0 -23 -14 -36.5t-36 -13.5t-36 13.5t-14 36.5q0 21 14 35.5t36 14.5q21 0 35.5 -14.5t14.5 -35.5z" />
    <glyph glyph-name="f.short" horiz-adv-x="292" 
d="M241 6v-6h-223v6l60 43v313h-64v7l64 38v45q0 112 67.5 187.5t166.5 75.5q34 0 74 -10l-28 -63q-52 34 -90 34q-36 0 -73.5 -49t-37.5 -133v-87h140l-38 -45h-102v-308z" />
    <glyph glyph-name="f_f.short" horiz-adv-x="553" 
d="M238 6v-6h-220v6l60 43v313h-64v7l64 38v38q0 111 65 187t164 76q35 0 70 -7l-27 -61q-48 29 -85 29t-72.5 -46.5t-35.5 -131.5v-84h182v45q0 112 67.5 187.5t166.5 75.5q34 0 74 -10l-28 -63q-52 34 -90 34q-36 0 -73.5 -49t-37.5 -133v-87h140l-38 -45h-102v-308
l84 -48v-6h-223v6l60 43v313h-182v-309z" />
    <glyph glyph-name="f_f_k.001" horiz-adv-x="992" 
d="M238 6v-6h-220v6l60 43v313h-64v7l64 38v38q0 111 65 187t164 76q35 0 70 -7l-27 -61q-48 29 -85 29t-72.5 -46.5t-35.5 -131.5v-84h182v46q0 114 71 188t178 74q43 0 93 -9v-657l60 -43v-6h-198v6l59 43v611q-21 15 -57 15q-49 0 -88 -46t-39 -135v-87h139l-38 -45h-101
v-308l84 -48v-6h-223v6l60 43v313h-182v-309zM875 361l-98 -98l156 -214l58 -43v-6h-193v6l49 41l-126 167h-30l136 143l-55 48v5h194v-5z" />
    <glyph glyph-name="f_k.001" horiz-adv-x="731" 
d="M241 6v-6h-223v6l60 43v313h-64v7l64 38v46q0 114 71 188t178 74q43 0 93 -9v-657l60 -43v-6h-198v6l59 43v611q-21 15 -57 15q-49 0 -88 -46t-39 -135v-87h139l-38 -45h-101v-308zM460 214h-30l136 143l-55 48v5h194v-5l-91 -44l-98 -98l156 -214l58 -43v-6h-193v6
l49 41z" />
    <glyph glyph-name="five.den" horiz-adv-x="218" 
d="M195 287l-20 -50h-105l-10 -37q71 -11 102.5 -37t31.5 -58q0 -44 -46 -75t-134 -39l-3 8q123 43 123 92q0 47 -113 60q2 9 18 68.5t18 67.5h138z" />
    <glyph glyph-name="five.num" horiz-adv-x="218" 
d="M195 662l-20 -50h-105l-10 -37q71 -11 102.5 -37t31.5 -58q0 -44 -46 -75t-134 -39l-3 8q123 43 123 92q0 47 -113 60q2 9 18 68.5t18 67.5h138z" />
    <glyph glyph-name="five.lin" horiz-adv-x="403" 
d="M339 662l-33 -70h-190l-22 -89q119 -38 191 -100.5t72 -143.5q0 -89 -86 -162.5t-235 -116.5l-4 10q239 129 239 250q0 47 -38.5 88t-86.5 64.5t-104 40.5l58 229h239z" />
    <glyph glyph-name="five.sub" horiz-adv-x="218" 
d="M195 182l-20 -50h-105l-10 -37q71 -11 102.5 -37t31.5 -58q0 -44 -46 -75t-134 -39l-3 8q123 43 123 92q0 47 -113 60q2 9 18 68.5t18 67.5h138z" />
    <glyph glyph-name="five.sup" horiz-adv-x="218" 
d="M195 715l-20 -50h-105l-10 -37q71 -11 102.5 -37t31.5 -58q0 -44 -46 -75t-134 -39l-3 8q123 43 123 92q0 47 -113 60q2 9 18 68.5t18 67.5h138z" />
    <glyph glyph-name="four.den" horiz-adv-x="263" 
d="M235 3v-3h-125v3l34 25v47h-139v10l157 204h40v-178h58l-23 -36h-35v-47zM144 111v112l-86 -112h86z" />
    <glyph glyph-name="four.lin" horiz-adv-x="508" 
d="M439 6v-6h-217v6l66 48v139h-282v7l356 471h11v-414h125l-36 -64h-89v-139zM288 257v256l-195 -256h195z" />
    <glyph glyph-name="four.num" horiz-adv-x="263" 
d="M235 378v-3h-125v3l34 25v47h-139v10l157 204h40v-178h58l-23 -36h-35v-47zM144 486v112l-86 -112h86z" />
    <glyph glyph-name="four.sub" horiz-adv-x="263" 
d="M235 -102v-3h-125v3l34 25v47h-139v10l157 204h40v-178h58l-23 -36h-35v-47zM144 6v112l-86 -112h86z" />
    <glyph glyph-name="four.sup" horiz-adv-x="263" 
d="M235 431v-3h-125v3l34 25v47h-139v10l157 204h40v-178h58l-23 -36h-35v-47zM144 539v112l-86 -112h86z" />
    <glyph glyph-name="greater.lin" horiz-adv-x="433" 
d="M48 186l296 110l-296 112v34l339 -130v-32l-339 -128v34z" />
    <glyph glyph-name="guillemotleft.uc" horiz-adv-x="332" 
d="M296 131l-137 157l137 156l8 -5l-72 -152l72 -151zM23 288l137 156l8 -5l-72 -152l72 -151l-8 -5z" />
    <glyph glyph-name="guillemotright.uc" horiz-adv-x="332" 
d="M173 288l-137 -157l-8 5l72 151l-72 152l8 5zM172 444l137 -156l-137 -157l-8 5l72 151l-72 152z" />
    <glyph glyph-name="guilsinglleft.uc" horiz-adv-x="209" 
d="M23 289l151 155l7 -6l-79 -149l79 -152l-7 -6z" />
    <glyph glyph-name="guilsinglright.uc" horiz-adv-x="209" 
d="M35 444l151 -155l-151 -158l-7 6l79 152l-79 149z" />
    <glyph glyph-name="hyphen.uc" horiz-adv-x="258" 
d="M46 335h166v-61h-166v61z" />
    <glyph glyph-name="idotaccent" horiz-adv-x="239" 
d="M21 0v6l59 43v294l-56 30v6l8 3q7 3 20.5 7.5t29.5 10t37 12.5t40 12v-375l60 -43v-6h-198zM69 584q0 20 13 33.5t33 13.5t33 -13.5t13 -33.5t-13 -32.5t-33 -12.5t-33 12.5t-13 32.5z" />
    <glyph glyph-name="k.001" horiz-adv-x="470" 
d="M159 49l58 -43v-6h-196v6l59 43v591l-58 31v7l8 3q8 3 21.5 8t30 11t37.5 13t40 12v-676zM199 214h-30l136 143l-55 48v5h194v-5l-91 -44l-98 -98l156 -214l58 -43v-6h-193v6l49 41z" />
    <glyph glyph-name="kcommaaccent.001" horiz-adv-x="470" 
d="M159 49l58 -43v-6h-196v6l59 43v591l-58 31v7l8 3q8 3 21.5 8t30 11t37.5 13t40 12v-676zM199 214h-30l136 143l-55 48v5h194v-5l-91 -44l-98 -98l156 -214l58 -43v-6h-193v6l49 41zM306 -140q0 -44 -27.5 -87t-61.5 -64l-10 4q51 64 56 129q-1 -1 -5 -1q-2 -1 -10 -1
q-17 0 -27.5 11.5t-10.5 28.5q0 18 12.5 30t30.5 12q24 0 38.5 -16.5t14.5 -45.5z" />
    <glyph glyph-name="less.lin" horiz-adv-x="433" 
d="M385 152l-339 128v32l339 130v-34l-297 -112l297 -110v-34z" />
    <glyph glyph-name="minus.lin" horiz-adv-x="449" 
d="M47 279v34h355v-34h-355z" />
    <glyph glyph-name="multiply.lin" horiz-adv-x="418" 
d="M52 157l133 137l-133 138l25 24l132 -137l133 137l24 -23l-134 -138l134 -138l-24 -23l-133 136l-133 -136z" />
    <glyph glyph-name="nacute.pl" horiz-adv-x="509" 
d="M21 0v6l59 43v294l-56 29v7l8 3q7 3 20.5 7.5t29.5 10t37 12.5t40 12v-73q77 69 149 69q50 0 87.5 -30.5t37.5 -72.5v-268l60 -43v-6h-197v6l58 43v240q0 34 -23.5 57t-67.5 23q-56 0 -104 -48v-272l60 -43v-6h-198zM247 491l-10 2l20 224l71 -14z" />
    <glyph glyph-name="nine.den" horiz-adv-x="268" 
d="M53 -2q65 37 99 79.5t34 101.5q0 38 -19.5 64.5t-43.5 26.5q-17 0 -31.5 -17t-14.5 -43q0 -27 16.5 -42t40.5 -15q18 0 25 4l3 -4q-20 -31 -65 -31q-34 0 -56.5 20t-22.5 57q0 40 31 67t74 27q50 0 87.5 -31.5t37.5 -86.5q0 -75 -56 -123t-135 -61z" />
    <glyph glyph-name="nine.num" horiz-adv-x="268" 
d="M53 373q65 37 99 79.5t34 101.5q0 38 -19.5 64.5t-43.5 26.5q-17 0 -31.5 -17t-14.5 -43q0 -27 16.5 -42t40.5 -15q18 0 25 4l3 -4q-20 -31 -65 -31q-34 0 -56.5 20t-22.5 57q0 40 31 67t74 27q50 0 87.5 -31.5t37.5 -86.5q0 -75 -56 -123t-135 -61z" />
    <glyph glyph-name="nine.lin" horiz-adv-x="513" 
d="M73 0q65 30 115.5 65.5t94.5 84.5t68 114.5t24 144.5q0 93 -44.5 162.5t-100.5 69.5q-43 0 -75 -42.5t-32 -108.5q0 -75 39 -112.5t91 -37.5q44 0 76 17l3 -5q-15 -18 -49.5 -37.5t-75.5 -19.5q-70 0 -121 47t-51 126q0 89 60 147t135 58q93 0 166 -76.5t73 -194.5
q0 -84 -35.5 -158t-94 -124t-126 -83t-137.5 -45z" />
    <glyph glyph-name="nine.sub" horiz-adv-x="268" 
d="M53 -107q65 37 99 79.5t34 101.5q0 38 -19.5 64.5t-43.5 26.5q-17 0 -31.5 -17t-14.5 -43q0 -27 16.5 -42t40.5 -15q18 0 25 4l3 -4q-20 -31 -65 -31q-34 0 -56.5 20t-22.5 57q0 40 31 67t74 27q50 0 87.5 -31.5t37.5 -86.5q0 -75 -56 -123t-135 -61z" />
    <glyph glyph-name="nine.sup" horiz-adv-x="268" 
d="M53 426q65 37 99 79.5t34 101.5q0 38 -19.5 64.5t-43.5 26.5q-17 0 -31.5 -17t-14.5 -43q0 -27 16.5 -42t40.5 -15q18 0 25 4l3 -4q-20 -31 -65 -31q-34 0 -56.5 20t-22.5 57q0 40 31 67t74 27q50 0 87.5 -31.5t37.5 -86.5q0 -75 -56 -123t-135 -61z" />
    <glyph glyph-name="oacute.pl" horiz-adv-x="463" 
d="M26 200q0 92 60.5 156t144.5 64q86 0 146 -59.5t60 -151.5q0 -93 -60.5 -156t-145.5 -63t-145 59t-60 151zM112 205q0 -79 34.5 -131t84.5 -52t85 52.5t35 130.5q0 77 -35 130t-85 53q-49 0 -84 -53t-35 -130zM223 491l-10 2l20 224l71 -14z" />
    <glyph glyph-name="one.den" horiz-adv-x="170" 
d="M19 0v4l38 26v205l-41 20v4q6 1 50 17t50 18v-264l36 -26v-4h-133z" />
    <glyph glyph-name="one.num" horiz-adv-x="170" 
d="M19 375v4l38 26v205l-41 20v4q6 1 50 17t50 18v-264l36 -26v-4h-133z" />
    <glyph glyph-name="one.lin" horiz-adv-x="312" 
d="M42 0v6l71 48v528l-72 27v6q121 46 161 58v-619l72 -48v-6h-232z" />
    <glyph glyph-name="one.sub" horiz-adv-x="170" 
d="M19 -105v4l38 26v205l-41 20v4q6 1 50 17t50 18v-264l36 -26v-4h-133z" />
    <glyph glyph-name="one.sup" horiz-adv-x="170" 
d="M19 428v4l38 26v205l-41 20v4q6 1 50 17t50 18v-264l36 -26v-4h-133z" />
    <glyph glyph-name="two.den" horiz-adv-x="244" 
d="M215 93h5v-93h-211v11q95 113 111 141q15 28 15 51t-13 36.5t-36 13.5q-38 0 -61 -28l-7 4q26 64 94 64q41 0 64 -21t23 -57q0 -39 -33 -77.5t-100 -90.5h116z" />
    <glyph glyph-name="three.den" horiz-adv-x="209" 
d="M34 154q37 21 54 36.5t17 35.5q0 31 -36 31q-30 0 -52 -22l-4 4q28 54 86 54q31 0 48 -14t17 -38q0 -38 -56 -60q36 -2 59.5 -20t23.5 -51q0 -50 -46.5 -82t-135.5 -37l-3 7q121 45 121 102q0 24 -17 36t-45 12q-14 0 -28 -2z" />
    <glyph glyph-name="parenleft.uc" horiz-adv-x="273" 
d="M126 334q0 -73 12.5 -140.5t38 -129t39 -88.5t40.5 -75l-7 -6q-199 199 -199 439q0 132 59.5 242.5t139.5 182.5l7 -6q-130 -206 -130 -419z" />
    <glyph glyph-name="parenright.uc" horiz-adv-x="273" 
d="M153 334q0 213 -130 419l7 6q80 -72 139.5 -182.5t59.5 -242.5q0 -240 -199 -439l-7 6q27 48 40.5 75t39 88.5t38 129t12.5 140.5z" />
    <glyph glyph-name="plus.lin" horiz-adv-x="472" 
d="M47 313h171v172h37v-172h170v-34h-170v-174h-37v174h-171v34z" />
    <glyph glyph-name="questiondown.uc" horiz-adv-x="336" 
d="M27 110q0 35 13.5 62.5t49.5 63.5q52 52 68 69q18 19 24 32.5t6 35.5q0 2 -4 78h13q43 -96 43 -125q0 -26 -34 -65l-59 -67q-39 -44 -39 -87q0 -40 23 -61.5t58 -21.5q64 0 108 79h6v-101q-32 -12 -111 -12q-69 0 -117 28.5t-48 91.5zM239 621q0 -23 -14 -36.5t-36 -13.5
t-36 13.5t-14 36.5q0 21 14 35.5t36 14.5q21 0 35.5 -14.5t14.5 -35.5z" />
    <glyph glyph-name="sacute.pl" horiz-adv-x="327" 
d="M174 420q53 0 89 -13v-81h-6q-37 62 -90 62q-23 0 -38.5 -13t-15.5 -38q0 -27 16 -42.5t58 -41.5q62 -41 79 -61q29 -34 29 -78q0 -55 -38.5 -89.5t-104.5 -34.5q-63 0 -114 24q-12 55 -7 130h7q38 -120 117 -120q30 0 50 18.5t20 48.5t-18.5 48t-65.5 47
q-30 19 -47.5 34t-32 40t-14.5 55q0 49 36 77t91 28zM161 491l-10 2l20 224l71 -14z" />
    <glyph glyph-name="seven.den" horiz-adv-x="231" 
d="M30 287h193v-4l-130 -283h-38l108 236h-155z" />
    <glyph glyph-name="seven.num" horiz-adv-x="231" 
d="M30 662h193v-4l-130 -283h-38l108 236h-155z" />
    <glyph glyph-name="seven.lin" horiz-adv-x="456" 
d="M48 662h391v-5l-278 -657h-48l250 592h-345z" />
    <glyph glyph-name="seven.sub" horiz-adv-x="231" 
d="M30 182h193v-4l-130 -283h-38l108 236h-155z" />
    <glyph glyph-name="seven.sup" horiz-adv-x="231" 
d="M30 715h193v-4l-130 -283h-38l108 236h-155z" />
    <glyph glyph-name="six.den" horiz-adv-x="266" 
d="M223 289q-140 -69 -140 -186q0 -39 17.5 -62.5t40.5 -23.5q19 0 33 16.5t14 42.5q0 60 -56 60q-15 0 -24 -3l-2 4q24 28 64 28q34 0 56.5 -20.5t22.5 -55.5q0 -44 -34 -69.5t-76 -25.5q-48 0 -83.5 30.5t-35.5 85.5q0 72 59.5 122t140.5 63z" />
    <glyph glyph-name="six.num" horiz-adv-x="266" 
d="M223 664q-140 -69 -140 -186q0 -39 17.5 -62.5t40.5 -23.5q19 0 33 16.5t14 42.5q0 60 -56 60q-15 0 -24 -3l-2 4q24 28 64 28q34 0 56.5 -20.5t22.5 -55.5q0 -44 -34 -69.5t-76 -25.5q-48 0 -83.5 30.5t-35.5 85.5q0 72 59.5 122t140.5 63z" />
    <glyph glyph-name="six.lin" horiz-adv-x="516" 
d="M454 665q-65 -25 -119.5 -62.5t-100 -89t-71 -121t-25.5 -148.5q0 -94 40 -157t94 -63q46 0 82 43t36 117q0 70 -37.5 105.5t-92.5 35.5q-34 0 -76 -16l-3 5q17 19 51 37.5t80 18.5q71 0 118.5 -44t47.5 -124q0 -96 -63.5 -152.5t-142.5 -56.5q-88 0 -158 70t-70 189
q0 67 25 130t66 110.5t94 86t109.5 62t111.5 33.5z" />
    <glyph glyph-name="six.sub" horiz-adv-x="266" 
d="M223 184q-140 -69 -140 -186q0 -39 17.5 -62.5t40.5 -23.5q19 0 33 16.5t14 42.5q0 60 -56 60q-15 0 -24 -3l-2 4q24 28 64 28q34 0 56.5 -20.5t22.5 -55.5q0 -44 -34 -69.5t-76 -25.5q-48 0 -83.5 30.5t-35.5 85.5q0 72 59.5 122t140.5 63z" />
    <glyph glyph-name="six.sup" horiz-adv-x="266" 
d="M223 717q-140 -69 -140 -186q0 -39 17.5 -62.5t40.5 -23.5q19 0 33 16.5t14 42.5q0 60 -56 60q-15 0 -24 -3l-2 4q24 28 64 28q34 0 56.5 -20.5t22.5 -55.5q0 -44 -34 -69.5t-76 -25.5q-48 0 -83.5 30.5t-35.5 85.5q0 72 59.5 122t140.5 63z" />
    <glyph glyph-name="three.lin" horiz-adv-x="410" 
d="M81 355q49 38 74.5 60.5t47.5 54.5t22 62q0 38 -22 61t-65 23q-9 0 -17 -1t-15.5 -4t-13.5 -5.5t-13.5 -7.5t-11.5 -7.5t-10.5 -8.5t-8.5 -8l-8 -8l-7 -7l-7 4q46 109 155 109q58 0 93 -31t35 -85q0 -79 -117 -141q75 -2 124.5 -39.5t49.5 -110.5q0 -61 -32.5 -111.5
t-87 -83t-110 -53t-116.5 -32.5l-3 10q45 17 87.5 40.5t83 54.5t64.5 71t24 81q0 60 -36.5 87t-90.5 27q-35 0 -62 -9z" />
    <glyph glyph-name="three.num" horiz-adv-x="209" 
d="M34 529q37 21 54 36.5t17 35.5q0 31 -36 31q-30 0 -52 -22l-4 4q28 54 86 54q31 0 48 -14t17 -38q0 -38 -56 -60q36 -2 59.5 -20t23.5 -51q0 -50 -46.5 -82t-135.5 -37l-3 7q121 45 121 102q0 24 -17 36t-45 12q-14 0 -28 -2z" />
    <glyph glyph-name="three.sub" horiz-adv-x="209" 
d="M34 49q37 21 54 36.5t17 35.5q0 31 -36 31q-30 0 -52 -22l-4 4q28 54 86 54q31 0 48 -14t17 -38q0 -38 -56 -60q36 -2 59.5 -20t23.5 -51q0 -50 -46.5 -82t-135.5 -37l-3 7q121 45 121 102q0 24 -17 36t-45 12q-14 0 -28 -2z" />
    <glyph glyph-name="three.sup" horiz-adv-x="209" 
d="M34 582q37 21 54 36.5t17 35.5q0 31 -36 31q-30 0 -52 -22l-4 4q28 54 86 54q31 0 48 -14t17 -38q0 -38 -56 -60q36 -2 59.5 -20t23.5 -51q0 -50 -46.5 -82t-135.5 -37l-3 7q121 45 121 102q0 24 -17 36t-45 12q-14 0 -28 -2z" />
    <glyph glyph-name="two.lin" horiz-adv-x="470" 
d="M435 152h6v-152h-427v8q172 223 226.5 314t54.5 161q0 64 -33.5 97.5t-86.5 33.5q-71 0 -127 -64l-7 4q20 47 64.5 82.5t112.5 35.5q79 0 125.5 -48t46.5 -117q0 -25 -5.5 -49t-12 -43.5t-24 -47t-29.5 -45.5t-42.5 -53.5t-48.5 -55.5t-60.5 -67.5t-67.5 -75.5h280z" />
    <glyph glyph-name="two.num" horiz-adv-x="244" 
d="M215 468h5v-93h-211v11q95 113 111 141q15 28 15 51t-13 36.5t-36 13.5q-38 0 -61 -28l-7 4q26 64 94 64q41 0 64 -21t23 -57q0 -39 -33 -77.5t-100 -90.5h116z" />
    <glyph glyph-name="two.sub" horiz-adv-x="244" 
d="M215 -12h5v-93h-211v11q95 113 111 141q15 28 15 51t-13 36.5t-36 13.5q-38 0 -61 -28l-7 4q26 64 94 64q41 0 64 -21t23 -57q0 -39 -33 -77.5t-100 -90.5h116z" />
    <glyph glyph-name="two.sup" horiz-adv-x="244" 
d="M215 521h5v-93h-211v11q95 113 111 141q15 28 15 51t-13 36.5t-36 13.5q-38 0 -61 -28l-7 4q26 64 94 64q41 0 64 -21t23 -57q0 -39 -33 -77.5t-100 -90.5h116z" />
    <glyph glyph-name="wacute.001" horiz-adv-x="630" 
d="M225 24l-4 -12t-5 -13q-5 -12 -5 -13h-13q-1 7 -6 16q-12 34 -15 40l-127 321l-50 41v6h190v-6l-57 -41l91 -243l111 300h13l110 -302l83 245l-58 41v6h147v-6l-51 -41l-116 -337q-4 -11 -10 -27q-5 -12 -5 -13h-13q-4 10 -7 16q-14 40 -15 41l-91 239zM302 495l-9 5
l101 212l62 -40z" />
    <glyph glyph-name="wcircumflex.001" horiz-adv-x="630" 
d="M225 24l-4 -12t-5 -13q-5 -12 -5 -13h-13q-1 7 -6 16q-12 34 -15 40l-127 321l-50 41v6h190v-6l-57 -41l91 -243l111 300h13l110 -302l83 245l-58 41v6h147v-6l-51 -41l-116 -337q-4 -11 -10 -27q-5 -12 -5 -13h-13q-4 10 -7 16q-14 40 -15 41l-91 239zM342 706l105 -216
l-8 -5l-97 110l-97 -110l-8 5z" />
    <glyph glyph-name="wdieresis.001" horiz-adv-x="630" 
d="M225 24l-4 -12t-5 -13q-5 -12 -5 -13h-13q-1 7 -6 16q-12 34 -15 40l-127 321l-50 41v6h190v-6l-57 -41l91 -243l111 300h13l110 -302l83 245l-58 41v6h147v-6l-51 -41l-116 -337q-4 -11 -10 -27q-5 -12 -5 -13h-13q-4 10 -7 16q-14 40 -15 41l-91 239zM424 622
q17 0 29 -12t12 -30q0 -17 -12 -28.5t-29 -11.5q-18 0 -29.5 11.5t-11.5 28.5q0 18 11.5 30t29.5 12zM259 623q17 0 29.5 -12.5t12.5 -30.5q0 -17 -12.5 -29t-29.5 -12q-18 0 -30 12t-12 29q0 18 12 30.5t30 12.5z" />
    <glyph glyph-name="wgrave.001" horiz-adv-x="630" 
d="M225 24l-4 -12t-5 -13q-5 -12 -5 -13h-13q-1 7 -6 16q-12 34 -15 40l-127 321l-50 41v6h190v-6l-57 -41l91 -243l111 300h13l110 -302l83 245l-58 41v6h147v-6l-51 -41l-116 -337q-4 -11 -10 -27q-5 -12 -5 -13h-13q-4 10 -7 16q-14 40 -15 41l-91 239zM394 495l-154 177
l62 40l101 -212z" />
    <glyph glyph-name="zacute.pl" horiz-adv-x="397" 
d="M371 111v-111h-350v7l239 374h-149l-61 -75h-6v104h319v-5l-244 -375h182l64 81h6zM196 491l-10 2l20 224l71 -14z" />
    <glyph glyph-name="zero.den" horiz-adv-x="309" 
d="M87 143q0 -55 20.5 -89.5t47.5 -34.5t47 34.5t20 89.5q0 54 -21 89.5t-47 35.5q-27 0 -47 -35t-20 -90zM23 139q0 65 39.5 109.5t91.5 44.5q55 0 93.5 -41t38.5 -104q0 -67 -39 -110.5t-91 -43.5q-54 0 -93.5 41t-39.5 104z" />
    <glyph glyph-name="zero.num" horiz-adv-x="309" 
d="M87 518q0 -55 20.5 -89.5t47.5 -34.5t47 34.5t20 89.5q0 54 -21 89.5t-47 35.5q-27 0 -47 -35t-20 -90zM23 514q0 65 39.5 109.5t91.5 44.5q55 0 93.5 -41t38.5 -104q0 -67 -39 -110.5t-91 -43.5q-54 0 -93.5 41t-39.5 104z" />
    <glyph glyph-name="zero.lin" horiz-adv-x="608" 
d="M143 330q0 -130 47 -218t114 -88t114.5 88.5t47.5 217.5q0 131 -48 220t-115 89t-113.5 -89t-46.5 -220zM46 323q0 139 76.5 244.5t180.5 105.5q107 0 183 -99t76 -237q0 -139 -76.5 -243t-181.5 -104t-181.5 98.5t-76.5 234.5z" />
    <glyph glyph-name="zero.sub" horiz-adv-x="309" 
d="M87 38q0 -55 20.5 -89.5t47.5 -34.5t47 34.5t20 89.5q0 54 -21 89.5t-47 35.5q-27 0 -47 -35t-20 -90zM23 34q0 65 39.5 109.5t91.5 44.5q55 0 93.5 -41t38.5 -104q0 -67 -39 -110.5t-91 -43.5q-54 0 -93.5 41t-39.5 104z" />
    <glyph glyph-name="zero.sup" horiz-adv-x="309" 
d="M87 571q0 -55 20.5 -89.5t47.5 -34.5t47 34.5t20 89.5q0 54 -21 89.5t-47 35.5q-27 0 -47 -35t-20 -90zM23 567q0 65 39.5 109.5t91.5 44.5q55 0 93.5 -41t38.5 -104q0 -67 -39 -110.5t-91 -43.5q-54 0 -93.5 41t-39.5 104z" />
    </font>
</defs>
</svg>
