<?xml version="1.0" standalone="no"?>
<!DOCTYPE svg PUBLIC "-//W3C//DTD SVG 1.1//EN" "http://www.w3.org/Graphics/SVG/1.1/DTD/svg11.dtd" >
<svg xmlns="http://www.w3.org/2000/svg" xmlns:xlink="http://www.w3.org/1999/xlink" version="1.1">
<metadata>
Created by FontForge 20170731 at Fri Jan  3 06:41:45 2014
 By Aleksey,,,
Copyright (c)2013 Commercial Type.
</metadata>
<defs>
<font id="Portrait-Medium" horiz-adv-x="400" >
  <font-face 
    font-family="Portrait Medium"
    font-weight="600"
    font-stretch="normal"
    units-per-em="1000"
    panose-1="0 0 0 0 0 0 0 0 0 0"
    ascent="730"
    descent="-270"
    x-height="420"
    cap-height="662"
    bbox="-56 -280 1286 1006"
    underline-thickness="34"
    underline-position="20"
    unicode-range="U+000D-FB04"
  />
<missing-glyph horiz-adv-x="210" 
 />
    <glyph glyph-name="f_b" unicode="fb" horiz-adv-x="783" 
d="M258 6v-6h-242v6l58 46v310h-69v7l69 47v37q0 114 76.5 188t190.5 74q57 0 114 -12v-336q66 64 134 64q73 0 120 -52.5t47 -141.5q0 -105 -68 -175t-169 -70q-26 0 -84.5 4t-83.5 4h-2v652q-24 14 -52 14q-46 0 -82 -42.5t-36 -122.5v-84h133l-41 -55h-92v-306zM534 364
q-49 0 -77 -28v-283q28 -17 64 -17q57 0 92 47.5t35 122.5q0 74 -31.5 116t-82.5 42z" />
    <glyph glyph-name="f_f_b" unicode="ffb" horiz-adv-x="1051" 
d="M251 6v-6h-235v6l58 46v310h-69v7l69 47v32q0 111 71.5 187t173.5 76q38 0 72 -8l-33 -74q-66 32 -88 32q-31 0 -61 -42.5t-30 -120.5v-81h163v36q0 115 76.5 188.5t191.5 73.5q53 0 113 -12v-336q66 64 134 64q73 0 120 -52.5t47 -141.5q0 -105 -68 -175t-169 -70
q-26 0 -84 4t-83 4h-3v652q-25 14 -51 14q-46 0 -82.5 -42.5t-36.5 -122.5v-84h134l-42 -55h-92v-306l79 -50v-6h-242v6l58 46v310h-163v-307zM803 364q-48 0 -78 -28v-283q30 -17 64 -17q57 0 92 47.5t35 122.5q0 74 -31 116t-82 42z" />
    <glyph glyph-name="f_f_h" unicode="ffh" horiz-adv-x="1075" 
d="M251 6v-6h-235v6l58 46v310h-69v7l69 47v32q0 111 71.5 187t173.5 76q38 0 72 -8l-33 -74q-66 32 -88 32q-31 0 -61 -42.5t-30 -120.5v-81h163v36q0 115 76.5 188.5t191.5 73.5q53 0 113 -12v-345q75 73 151 73q54 0 91.5 -33.5t37.5 -71.5v-274l58 -46v-6h-220v6l57 46
v242q0 29 -22 49t-62 20q-51 0 -91 -40v-271l58 -46v-6h-220v6l56 46v600q-25 14 -51 14q-46 0 -82.5 -42.5t-36.5 -122.5v-84h134l-42 -55h-92v-306l79 -50v-6h-242v6l58 46v310h-163v-307z" />
    <glyph glyph-name="f_f_j" unicode="ffj" horiz-adv-x="771" 
d="M251 6v-6h-235v6l58 46v310h-69v7l69 47v32q0 111 71.5 187t173.5 76q38 0 72 -8l-33 -74q-66 32 -88 32q-31 0 -61 -42.5t-30 -120.5v-81h163v35q0 113 75.5 188t182.5 75q59 0 97 -14l-36 -86q-77 51 -113 51q-33 0 -67 -44t-34 -122v-83h200l62 18v-385
q0 -19 -6 -45.5t-21.5 -66t-50 -88t-83.5 -94.5l-9 7q64 134 64 283v316h-156v-307l74 -49v-6h-237v6l58 46v310h-163v-307z" />
    <glyph glyph-name="f_f_k" unicode="ffk" horiz-adv-x="1044" 
d="M251 6v-6h-235v6l58 46v310h-69v7l69 47v32q0 111 71.5 187t173.5 76q38 0 72 -8l-33 -74q-66 32 -88 32q-31 0 -61 -42.5t-30 -120.5v-81h163v36q0 115 76.5 188.5t191.5 73.5q53 0 113 -12v-651l58 -46v-6h-220v6l56 46v600q-25 14 -51 14q-46 0 -82.5 -42.5
t-36.5 -122.5v-84h134l-42 -55h-92v-306l79 -50v-6h-242v6l58 46v310h-163v-307zM735 222v6l123 135l-57 51v6h217v-6l-100 -52l-96 -92l102 -141q67 -94 119 -123v-6q-30 -10 -68 -10q-45 0 -73 19.5t-65 71.5z" />
    <glyph glyph-name="f_h" unicode="fh" horiz-adv-x="807" 
d="M292 0v6l57 46v600q-24 14 -52 14q-46 0 -82 -42.5t-36 -122.5v-84h133l-41 -55h-92v-306l79 -50v-6h-242v6l58 46v310h-69v7l69 47v37q0 114 76.5 188t190.5 74q54 0 114 -12v-345q75 73 150 73q55 0 92.5 -33.5t37.5 -71.5v-274l58 -46v-6h-220v6l56 46v242
q0 29 -21.5 49t-61.5 20q-46 0 -91 -40v-271l58 -46v-6h-221z" />
    <glyph glyph-name="f_j" unicode="fj" horiz-adv-x="503" 
d="M280 666q-33 0 -67 -44t-34 -122v-83h200l61 18v-385q0 -19 -6 -45.5t-21.5 -66t-49.5 -88t-83 -94.5l-9 7q64 134 64 283v316h-156v-307l73 -49v-6h-236v6l58 46v310h-69v7l69 47v36q0 113 75.5 188t182.5 75q59 0 97 -14l-36 -86q-77 51 -113 51z" />
    <glyph glyph-name="f_k" unicode="fk" horiz-adv-x="776" 
d="M258 6v-6h-242v6l58 46v310h-69v7l69 47v37q0 114 76.5 188t190.5 74q54 0 114 -12v-651l58 -46v-6h-221v6l57 46v600q-24 14 -52 14q-46 0 -82 -42.5t-36 -122.5v-84h133l-41 -55h-92v-306zM466 222v6l123 135l-56 51v6h216v-6l-98 -51l-97 -93l102 -141
q67 -94 119 -123v-6q-30 -10 -68 -10q-45 0 -73 19.5t-65 71.5z" />
    <glyph glyph-name="g_g" unicode="gg" horiz-adv-x="889" 
d="M469 289q0 60 51 101.5t127 41.5q41 0 77 -12h154v-46h-91q39 -37 39 -81q0 -61 -49.5 -103t-129.5 -42q-33 0 -55 7q-31 -25 -31 -45q0 -16 11 -25t26 -9h178q30 0 65 -33t35 -89q0 -85 -77 -152.5t-180 -67.5q-75 0 -120 30t-45 74q0 33 27 72.5t67 72.5
q-30 11 -49.5 34t-19.5 56q0 36 13 45l68 47q-91 39 -91 124zM32 289q0 60 51 101.5t126 41.5q42 0 78 -12h150v-46h-88q40 -38 40 -81q0 -62 -49.5 -103.5t-130.5 -41.5q-32 0 -56 7q-31 -25 -31 -45q0 -16 11 -25t26 -9h174q29 0 64 -32.5t35 -89.5q0 -85 -76.5 -152.5
t-179.5 -67.5q-75 0 -120 30.5t-45 73.5q0 34 27.5 73.5t67.5 72.5q-66 25 -66 89q0 36 13 45l69 47q-90 39 -90 124zM578 -23q-17 -17 -31 -45.5t-14 -55.5q0 -34 33.5 -56.5t90.5 -22.5q59 0 100.5 32t41.5 78q0 34 -22.5 52t-58.5 18h-139h-1zM135 -23q-17 -17 -31 -45.5
t-14 -55.5q0 -34 33.5 -56.5t90.5 -22.5q59 0 100.5 32t41.5 78q0 34 -22.5 52t-58.5 18h-135h-5zM572 290q0 -44 22 -74.5t54 -30.5q33 0 54 30t21 75q0 44 -21.5 75t-53.5 31q-33 0 -54.5 -31t-21.5 -75zM134 290q0 -44 22 -74.5t54 -30.5q33 0 54 30t21 75q0 44 -21.5 75
t-53.5 31t-54 -31t-22 -75z" />
    <glyph glyph-name="f_f" unicode="ff" horiz-adv-x="582" 
d="M251 6v-6h-235v6l58 46v310h-69v7l69 47v32q0 111 71.5 187t173.5 76q38 0 72 -8l-33 -74q-66 32 -88 32q-31 0 -61 -42.5t-30 -120.5v-81h163v35q0 114 75.5 188.5t186.5 74.5q53 0 95 -11l-34 -79q-74 41 -113 41q-37 0 -71 -43.5t-34 -122.5v-83h144l-42 -55h-102
v-305l89 -51v-6h-251v6l57 46v310h-163v-307z" />
    <glyph glyph-name="f_i" unicode="fi" horiz-adv-x="522" 
d="M252 6v-6h-236v6l58 46v310h-69v7l69 47v36q0 114 75.5 188.5t186.5 74.5q60 0 105 -17l-38 -86q-82 54 -122 54q-34 0 -68 -43.5t-34 -122.5v-83h209q10 4 30 9t30 8v-382l58 -46v-6h-220v6l57 46v310h-164v-307z" />
    <glyph glyph-name="f_l" unicode="fl" horiz-adv-x="529" 
d="M349 652q-24 14 -52 14q-46 0 -82 -42.5t-36 -122.5v-84h133l-41 -55h-92v-306l79 -50v-6h-242v6l58 46v310h-69v7l69 47v37q0 114 76.5 188t190.5 74q54 0 114 -12v-651l58 -46v-6h-221v6l57 46v600z" />
    <glyph glyph-name="f_f_i" unicode="ffi" horiz-adv-x="791" 
d="M251 6v-6h-235v6l58 46v310h-69v7l69 47v32q0 111 71.5 187t173.5 76q38 0 72 -8l-33 -74q-66 32 -88 32q-31 0 -61 -42.5t-30 -120.5v-81h163v35q0 114 75.5 188.5t186.5 74.5q60 0 105 -17l-37 -86q-2 1 -15 9.5t-17.5 11t-17 9.5t-19.5 10t-17.5 7t-19.5 5.5t-17 1.5
q-34 0 -68 -43.5t-34 -122.5v-83h210q10 4 30 9t30 8v-382l58 -46v-6h-221v6l57 46v310h-164v-307l74 -49v-6h-237v6l58 46v310h-163v-307z" />
    <glyph glyph-name="f_f_l" unicode="ffl" horiz-adv-x="797" 
d="M251 6v-6h-235v6l58 46v310h-69v7l69 47v32q0 111 71.5 187t173.5 76q38 0 72 -8l-33 -74q-66 32 -88 32q-31 0 -61 -42.5t-30 -120.5v-81h163v36q0 115 76.5 188.5t191.5 73.5q53 0 113 -12v-651l58 -46v-6h-220v6l56 46v600q-25 14 -51 14q-46 0 -82.5 -42.5
t-36.5 -122.5v-84h134l-42 -55h-92v-306l79 -50v-6h-242v6l58 46v310h-163v-307z" />
    <glyph glyph-name=".notdef" horiz-adv-x="210" 
 />
    <glyph glyph-name=".null" horiz-adv-x="0" 
 />
    <glyph glyph-name="nonmarkingreturn" horiz-adv-x="333" 
 />
    <glyph glyph-name="NULL" horiz-adv-x="0" 
 />
    <glyph glyph-name="NULL" horiz-adv-x="0" 
 />
    <glyph glyph-name="CR" unicode="&#xd;" horiz-adv-x="210" 
 />
    <glyph glyph-name="space" unicode=" " horiz-adv-x="210" 
 />
    <glyph glyph-name="exclam" unicode="!" horiz-adv-x="218" 
d="M170 662q-3 -25 -13 -108t-22 -189t-18 -158h-17q-6 52 -18 158t-22 189t-13 108h123zM47 50q0 26 18 43t44 17t43.5 -17t17.5 -43t-17.5 -43.5t-43.5 -17.5t-44 17.5t-18 43.5z" />
    <glyph glyph-name="quotedbl" unicode="&#x22;" horiz-adv-x="308" 
d="M264 645q0 -22 -38 -204h-10q-38 182 -38 204q0 50 43 50t43 -50zM129 645q0 -22 -38 -204h-10q-38 182 -38 204q0 50 43 50t43 -50z" />
    <glyph glyph-name="numbersign" unicode="#" horiz-adv-x="438" 
d="M323 429l-36 -155h93v-37h-101l-55 -237h-42l55 237h-92l-55 -237h-41l55 237h-87v37h95l36 155h-87v37h96l46 196h42l-46 -196h92l46 196h41l-46 -196h92v-37h-101zM154 274h92l36 155h-92z" />
    <glyph glyph-name="dollar" unicode="$" horiz-adv-x="471" 
d="M213 -10l-10 -93h-39l10 96q-74 9 -122 38q-13 88 -8 186h8q50 -144 128 -172l28 252l-5 3q-81 54 -117.5 101t-36.5 105q0 72 56.5 119.5t143.5 47.5l8 74h39l-8 -75q54 -3 95 -17v-119h-6q-48 67 -95 86l-24 -218l17 -11q82 -59 118.5 -106t36.5 -110q0 -79 -57.5 -133
t-153.5 -54h-6zM327 139q0 41 -19 70.5t-64 62.5l-26 -233h3q48 0 77 29t29 71zM149 541q0 -34 17.5 -58t55.5 -53l22 200h-3q-40 0 -66 -25t-26 -64z" />
    <glyph glyph-name="percent" unicode="%" horiz-adv-x="658" 
d="M486 37q41 0 68 29t27 71q0 45 -27 73.5t-68 28.5q-40 0 -67 -28.5t-27 -73.5q0 -42 27.5 -71t66.5 -29zM338 137q0 61 43 104.5t105 43.5q63 0 106 -41.5t43 -104.5q0 -62 -43 -105t-106 -43q-64 0 -106 41.5t-42 104.5zM23 522q0 62 43 105t105 43q64 0 106 -41.5
t42 -104.5q0 -61 -42.5 -104t-105.5 -43q-64 0 -106 41.5t-42 103.5zM171 624q-41 0 -68 -28.5t-27 -72.5q0 -43 27.5 -72t67.5 -29q41 0 67.5 29t26.5 72q0 44 -26.5 72.5t-67.5 28.5zM539 662h57l-472 -662h-58z" />
    <glyph glyph-name="ampersand" unicode="&#x26;" horiz-adv-x="723" 
d="M721 414q-62 -38 -89 -72t-82 -134q-5 -8 -14 -25t-15 -25q70 -97 162 -97q37 0 53 7l2 -4q-60 -72 -142 -72q-79 0 -142 77q-78 -83 -189 -83q-105 0 -170.5 55t-65.5 135q0 68 47 120.5t117 80.5q-69 73 -69 135q0 52 46 91t113 39q61 0 104.5 -29.5t43.5 -78.5
q0 -74 -118 -127q90 -90 179 -210l4 6q35 63 77 154l-69 57v6h217v-6zM425 108q-102 139 -209 246q-75 -57 -75 -145q0 -68 41.5 -112t113.5 -44q71 0 129 55zM217 541q0 -6 1 -12t3.5 -12t4.5 -10.5t7 -11.5t8 -11t10.5 -12.5t11.5 -13t14 -15t15 -15.5q53 42 53 99
q0 35 -18.5 56t-44.5 21q-29 0 -47 -18t-18 -45z" />
    <glyph glyph-name="quotesingle" unicode="'" horiz-adv-x="173" 
d="M129 645q0 -22 -38 -204h-10q-38 182 -38 204q0 50 43 50t43 -50z" />
    <glyph glyph-name="parenleft" unicode="(" horiz-adv-x="290" 
d="M54 283q0 144 63 266t151 205l10 -6q-131 -215 -131 -464q0 -226 131 -465l-10 -6q-91 88 -152.5 207t-61.5 263z" />
    <glyph glyph-name="parenright" unicode=")" horiz-adv-x="290" 
d="M235 283q0 -144 -61.5 -263t-152.5 -207l-10 6q131 239 131 465q0 249 -131 464l10 6q88 -83 151 -205t63 -266z" />
    <glyph glyph-name="asterisk" unicode="*" horiz-adv-x="298" 
d="M71 418l-6 3l35 97l-95 28v7l100 14l-26 99l6 4l69 -79l74 71l6 -4l-38 -96l97 -26v-7l-99 -16l25 -96l-6 -3l-67 76z" />
    <glyph glyph-name="plus" unicode="+" horiz-adv-x="475" 
d="M43 268h171v174h47v-174h171v-43h-171v-176h-47v176h-171v43z" />
    <glyph glyph-name="comma" unicode="," horiz-adv-x="202" 
d="M35 64q0 25 17 41t43 16q30 0 50 -22.5t20 -62.5q0 -56 -37.5 -106.5t-88.5 -79.5l-12 5q67 88 77 158q-1 -1 -3 -1h-8q-25 0 -41.5 14t-16.5 38z" />
    <glyph glyph-name="hyphen" unicode="-" horiz-adv-x="270" 
d="M44 282h181v-80h-181v80z" />
    <glyph glyph-name="period" unicode="." horiz-adv-x="200" 
d="M39 50q0 26 17.5 43t43.5 17q27 0 44.5 -17t17.5 -43t-17.5 -43.5t-44.5 -17.5q-26 0 -43.5 17.5t-17.5 43.5z" />
    <glyph glyph-name="slash" unicode="/" horiz-adv-x="337" 
d="M318 744l-297 -981l-42 13l297 981z" />
    <glyph glyph-name="zero" unicode="0" horiz-adv-x="502" 
d="M30 209q0 91 65 156.5t157 65.5q93 0 156.5 -63.5t63.5 -156.5t-63.5 -157.5t-156.5 -64.5q-95 0 -158.5 63t-63.5 157zM101 210q0 -70 43.5 -116.5t107.5 -46.5q63 0 106.5 47t43.5 116t-43.5 115.5t-107.5 46.5t-107 -46t-43 -116z" />
    <glyph glyph-name="one" unicode="1" horiz-adv-x="269" 
d="M24 414v6h220v-6l-56 -48v-314l56 -46v-6h-220v6l58 46v314z" />
    <glyph glyph-name="two" unicode="2" 
d="M39 330q47 100 145 100q58 0 92 -29.5t34 -83.5q0 -53 -36.5 -100t-130.5 -129h259l-39 -88h-339v6q171 184 171 285q0 72 -69 72q-40 0 -79 -39z" />
    <glyph glyph-name="three" unicode="3" horiz-adv-x="347" 
d="M34 95q143 130 143 203q0 67 -60 67q-40 0 -66 -35l-8 6q14 37 45 66t82 29q53 0 81.5 -27.5t28.5 -73.5q0 -45 -34.5 -86.5t-104.5 -86.5q12 4 32 4q66 0 105.5 -34.5t39.5 -94.5q0 -164 -299 -304l-7 10q99 84 145 145.5t46 120.5q0 43 -27 68t-72 25q-35 0 -62 -12z
" />
    <glyph glyph-name="four" unicode="4" horiz-adv-x="481" 
d="M373 434v-363h95v-71h-95v-187l-102 -39v226h-270v7l335 427h37zM271 71v214l-167 -214h167z" />
    <glyph glyph-name="five" unicode="5" horiz-adv-x="330" 
d="M300 420l-45 -83h-134q-5 -13 -6 -15q42 -42 71 -76t57.5 -89.5t28.5 -104.5q0 -94 -81 -166t-209 -112l-6 10q190 117 190 228q0 43 -21.5 90.5t-41 73t-51.5 61.5q10 31 40 95.5t46 87.5h162z" />
    <glyph glyph-name="six" unicode="6" horiz-adv-x="484" 
d="M471 691q-143 -60 -231 -180t-88 -274q0 -89 36 -147.5t77 -58.5q35 0 61 38.5t26 90.5q0 57 -30.5 89t-76.5 32q-27 0 -63 -16l-5 5q51 63 129 63q65 0 107.5 -41.5t42.5 -111.5q0 -84 -58.5 -136.5t-138.5 -52.5q-88 0 -153 69t-65 193q0 70 25.5 136t68.5 117t98.5 92
t114.5 66.5t118 36.5z" />
    <glyph glyph-name="seven" unicode="7" horiz-adv-x="449" 
d="M55 420h375v-5l-277 -677l-45 10l236 586h-326z" />
    <glyph glyph-name="eight" unicode="8" horiz-adv-x="417" 
d="M211 671q66 0 110.5 -37.5t44.5 -91.5q0 -46 -27.5 -82t-83.5 -82q73 -78 101.5 -121t28.5 -93q0 -68 -52 -120.5t-128 -52.5q-75 0 -125.5 39t-50.5 106q0 52 30.5 94t95.5 98q-63 67 -86.5 107t-23.5 85q0 61 49 106t117 45zM288 134q0 38 -23 72t-88 99
q-58 -64 -59 -159q0 -51 25 -82.5t64 -32.5q35 0 58 30.5t23 72.5zM137 552q0 -31 22 -64t76 -90q51 62 51 140q0 45 -21 70.5t-56 25.5q-32 0 -52 -23t-20 -59z" />
    <glyph glyph-name="nine" unicode="9" horiz-adv-x="484" 
d="M38 -261q139 68 218 181t79 263q0 89 -38 147t-79 58q-34 0 -58.5 -37.5t-24.5 -88.5q0 -57 31 -90t74 -33q34 0 65 17l5 -5q-14 -22 -49.5 -42.5t-77.5 -20.5q-65 0 -108.5 42t-43.5 112q0 80 57 134t134 54q54 0 103.5 -27.5t85 -89t35.5 -146.5q0 -86 -34 -162
t-91.5 -130t-128.5 -91t-149 -54z" />
    <glyph glyph-name="colon" unicode=":" horiz-adv-x="209" 
d="M43 370q0 26 17.5 43t43.5 17q27 0 44.5 -17t17.5 -43t-17.5 -43.5t-44.5 -17.5q-26 0 -43.5 17.5t-17.5 43.5zM43 50q0 26 17.5 43t43.5 17q27 0 44.5 -17t17.5 -43t-17.5 -43.5t-44.5 -17.5q-26 0 -43.5 17.5t-17.5 43.5z" />
    <glyph glyph-name="semicolon" unicode=";" horiz-adv-x="209" 
d="M41 64q0 25 17 41t43 16q30 0 50 -22.5t20 -62.5q0 -56 -37.5 -106.5t-88.5 -79.5l-12 5q67 88 77 158q-1 -1 -3 -1h-8q-25 0 -41.5 14t-16.5 38zM43 370q0 26 17.5 43t43.5 17q27 0 44.5 -17t17.5 -43t-17.5 -43.5t-44.5 -17.5q-26 0 -43.5 17.5t-17.5 43.5z" />
    <glyph glyph-name="less" unicode="&#x3c;" horiz-adv-x="434" 
d="M388 93l-346 132v41l346 135v-44l-293 -111l293 -109v-44z" />
    <glyph glyph-name="equal" unicode="=" horiz-adv-x="460" 
d="M48 172v41h364v-41h-364zM48 270v41h364v-41h-364z" />
    <glyph glyph-name="greater" unicode="&#x3e;" horiz-adv-x="434" 
d="M46 137l292 109l-292 111v44l345 -135v-41l-345 -132v44z" />
    <glyph glyph-name="question" unicode="?" horiz-adv-x="354" 
d="M334 545q0 -35 -14.5 -64.5t-50.5 -64.5q-11 -11 -40 -38t-37 -35q-19 -18 -25 -31t-6 -33q0 -11 0.5 -24t2 -27.5t1.5 -20.5h-16q-55 105 -55 134q0 28 34 65q45 48 64 71q37 40 37 80q0 34 -20.5 53t-49.5 19q-55 0 -121 -91h-7v122q44 12 121 12q80 0 131 -32.5
t51 -94.5zM96 50q0 26 17.5 43t43.5 17q27 0 44.5 -17t17.5 -43t-17.5 -43.5t-44.5 -17.5q-26 0 -43.5 17.5t-17.5 43.5z" />
    <glyph glyph-name="at" unicode="@" horiz-adv-x="891" 
d="M565 47q87 11 152.5 76.5t65.5 183.5q0 52 -15.5 97.5t-48 84t-91 60.5t-136.5 22q-85 0 -156.5 -34.5t-117.5 -91t-71.5 -125t-25.5 -138.5q0 -156 91.5 -248.5t236.5 -92.5q167 0 283 100l10 -13q-47 -52 -125 -94t-187 -42q-171 0 -280 101.5t-109 267.5
q0 92 36.5 176t99 145t150 97t184.5 36q163 0 256 -83t93 -201q0 -157 -116 -243t-285 -76l28 137q-39 -56 -84 -95.5t-84 -39.5q-25 0 -46.5 27.5t-21.5 73.5q0 105 80.5 192t208.5 96l104 38zM369 87q19 0 56.5 33t72.5 81l33 163q-73 -4 -126 -78.5t-53 -161.5
q0 -37 17 -37z" />
    <glyph glyph-name="A" unicode="A" horiz-adv-x="645" 
d="M188 6v-6h-184v6l58 54l240 613h21l260 -613l58 -54v-6h-251v6l69 54l-78 186h-193l-71 -184zM204 289h159l-83 196z" />
    <glyph glyph-name="B" unicode="B" horiz-adv-x="590" 
d="M562 207q0 -98 -72.5 -152.5t-178.5 -54.5h-275v6l68 54v542l-68 54v6h255q96 0 153.5 -35t57.5 -106q0 -48 -35.5 -87t-81.5 -57q76 -9 126.5 -53.5t50.5 -116.5zM223 339v-281q36 -17 86 -17q53 0 92.5 42t39.5 110q0 73 -43.5 109.5t-115.5 36.5h-59zM223 621v-242h80
q33 0 61 38t28 89q0 57 -32.5 86t-88.5 29h-48z" />
    <glyph glyph-name="C" unicode="C" horiz-adv-x="669" 
d="M402 -11q-159 0 -263 93t-104 246q0 144 102 244.5t268 100.5q85 0 201 -28v-131h-6q-39 48 -93.5 80.5t-115.5 32.5q-96 0 -160.5 -82.5t-64.5 -204.5q0 -135 70.5 -220t169.5 -85q113 0 207 120h6v-123q-30 -16 -88.5 -29.5t-128.5 -13.5z" />
    <glyph glyph-name="D" unicode="D" horiz-adv-x="734" 
d="M36 0v6l68 54v542l-68 54v6h291q160 0 267 -85.5t107 -235.5q0 -148 -95 -244.5t-250 -96.5h-320zM306 619q-52 0 -83 -1v-554q47 -21 121 -21q100 0 164 82t64 210q0 131 -76 207.5t-190 76.5z" />
    <glyph glyph-name="E" unicode="E" horiz-adv-x="558" 
d="M36 0v6l68 54v542l-68 54v6h453v-132h-6l-74 88h-186v-246h193l52 70h5v-183h-5l-52 69h-193v-283h206l77 110h6v-155h-476z" />
    <glyph glyph-name="F" unicode="F" horiz-adv-x="534" 
d="M468 442h5v-185h-5l-52 70h-193v-266l96 -55v-6h-283v6l68 54v542l-68 54v6h453v-137h-6l-76 93h-184v-246h193z" />
    <glyph glyph-name="G" unicode="G" horiz-adv-x="720" 
d="M643 42q-9 -2 -53.5 -18t-90 -25.5t-97.5 -9.5q-161 0 -264 95t-103 244q0 143 102 244t268 101q106 0 214 -28v-129h-6q-95 111 -218 111q-100 0 -165 -81t-65 -205q0 -131 71.5 -218t177.5 -87q70 0 113 30v218l-81 54v6h251v-6l-54 -54v-242z" />
    <glyph glyph-name="H" unicode="H" horiz-adv-x="786" 
d="M224 359h339v243l-68 54v6h255v-6l-68 -54v-542l68 -54v-6h-255v6l68 54v253h-339v-253l68 -54v-6h-256v6l68 54v542l-68 54v6h256v-6l-68 -54v-243z" />
    <glyph glyph-name="I" unicode="I" horiz-adv-x="327" 
d="M36 0v6l68 54v542l-68 54v6h255v-6l-68 -54v-542l68 -54v-6h-255z" />
    <glyph glyph-name="J" unicode="J" horiz-adv-x="312" 
d="M29 656v6h255v-6l-68 -54v-503q0 -72 -53.5 -163.5t-138.5 -154.5l-10 7q83 139 83 355v459z" />
    <glyph glyph-name="K" unicode="K" horiz-adv-x="687" 
d="M36 0v6l68 54v542l-68 54v6h256v-6l-69 -54v-542l69 -54v-6h-256zM684 0h-275v6l67 54l-205 269h-33l248 273l-68 54v6h218v-6l-81 -51l-194 -205l251 -340l72 -54v-6z" />
    <glyph glyph-name="L" unicode="L" horiz-adv-x="574" 
d="M533 182h6v-182h-503v6l68 54v542l-68 54v6h255v-6l-68 -54v-557h209z" />
    <glyph glyph-name="M" unicode="M" horiz-adv-x="874" 
d="M833 656l-68 -55v-538l72 -57v-6h-264v6l72 57v442l-241 -452h-12l-237 448v-438l72 -57v-6h-195v6l72 57v512q-53 77 -57 81v6h152l238 -450l234 450h162v-6z" />
    <glyph glyph-name="N" unicode="N" horiz-adv-x="769" 
d="M32 0v6l72 57v515q-51 57 -78 78v6h164l425 -480v417l-83 57v6h211v-6l-73 -57v-599h-47l-463 517v-454l86 -57v-6h-214z" />
    <glyph glyph-name="O" unicode="O" horiz-adv-x="751" 
d="M36 322q0 150 99.5 251t238.5 101q143 0 242 -93.5t99 -241.5q0 -151 -100 -251t-238 -100q-141 0 -241 93.5t-100 240.5zM167 330q0 -131 62 -213t147 -82q86 0 147.5 82t61.5 213q0 132 -63 215t-148 83t-146 -83t-61 -215z" />
    <glyph glyph-name="P" unicode="P" horiz-adv-x="565" 
d="M539 480q0 -70 -41.5 -120.5t-102.5 -73t-132 -22.5v11q64 16 110.5 65.5t46.5 126.5q0 71 -42.5 112.5t-117.5 41.5h-37v-561l80 -54v-6h-267v6l68 54v542l-68 54v6h256q113 0 180 -47t67 -135z" />
    <glyph glyph-name="Q" unicode="Q" horiz-adv-x="750" 
d="M714 339q0 -115 -66.5 -204.5t-186.5 -127.5q115 -54 163.5 -75.5t123.5 -49t132 -36.5t126 -9q48 0 68 5l3 -7q-29 -23 -90.5 -45.5t-132.5 -22.5q-86 0 -205 48t-365 178q-40 18 -71 36t-66 47.5t-58 62.5t-38 80.5t-15 102.5q0 151 99.5 251.5t238.5 100.5
q143 0 241.5 -93.5t98.5 -241.5zM167 330q0 -132 62 -213t153 -81q82 0 142.5 81t60.5 213q0 134 -62.5 216t-148.5 82q-85 0 -146 -82.5t-61 -215.5z" />
    <glyph glyph-name="R" unicode="R" horiz-adv-x="639" 
d="M36 0v6l68 54v542l-68 54v6h264q102 0 161 -37.5t59 -108.5q0 -56 -35 -97.5t-82 -65.5l113 -194q59 -104 136 -153v-6q-19 -7 -63 -7q-64 0 -101.5 24.5t-74.5 89.5l-120 218h-70v-265l76 -54v-6h-263zM223 620v-255h92q36 0 63.5 37.5t27.5 88.5q0 65 -36.5 97
t-91.5 32h-55z" />
    <glyph glyph-name="S" unicode="S" horiz-adv-x="480" 
d="M262 673q76 0 134 -18v-120h-6q-70 94 -139 94q-37 0 -61.5 -22t-24.5 -59q0 -44 25 -72.5t93 -77.5q56 -40 85.5 -67t51.5 -66.5t22 -85.5q0 -82 -58.5 -135.5t-156.5 -53.5q-101 0 -177 39q-13 90 -8 187h8q15 -38 28 -63t34.5 -54.5t50 -45t64.5 -15.5q45 0 74 29.5
t29 74.5q0 48 -26.5 81.5t-91.5 77.5q-79 55 -115 102t-36 107q0 76 56 119.5t145 43.5z" />
    <glyph glyph-name="T" unicode="T" horiz-adv-x="652" 
d="M623 662v-145h-7l-83 100h-147v-556l73 -55v-6h-267v6l74 55v556h-148l-82 -100h-7v145h594z" />
    <glyph glyph-name="U" unicode="U" horiz-adv-x="736" 
d="M644 236q0 -99 -69.5 -172.5t-193.5 -73.5q-136 0 -212 66t-76 178v368l-69 54v6h262v-6l-74 -54v-364q0 -86 50 -132.5t144 -46.5q84 0 133.5 51t49.5 129v363l-74 54v6h196v-6l-67 -54v-366z" />
    <glyph glyph-name="V" unicode="V" horiz-adv-x="640" 
d="M451 656v6h185v-6l-58 -54l-236 -612h-21l-259 612l-58 54v6h259v-6l-70 -54l170 -420l159 418z" />
    <glyph glyph-name="W" unicode="W" horiz-adv-x="967" 
d="M501 602l56 -134l58 134l-46 54v6h148v-6l-51 -54l-86 -189l107 -252l162 441l-60 54v6h174v-6l-58 -54l-228 -612h-23l-153 343l-153 -343h-23l-263 612l-58 54v6h244v-6l-62 -54l185 -441l104 231l-93 210l-56 54v6h223v-6z" />
    <glyph glyph-name="X" unicode="X" horiz-adv-x="667" 
d="M5 0v6l73 54l199 263l-198 279l-67 54v6h273v-6l-68 -54l136 -196l142 194l-69 56v6h206v-6l-73 -54l-176 -240l211 -302l69 -54v-6h-268v6l68 54l-155 219l-165 -219l69 -54v-6h-207z" />
    <glyph glyph-name="Y" unicode="Y" horiz-adv-x="608" 
d="M420 656v6h184v-6l-59 -54l-174 -271v-270l68 -55v-6h-255v6l68 55v251l-190 290l-58 54v6h261v-6l-69 -54l147 -229l145 227z" />
    <glyph glyph-name="Z" unicode="Z" horiz-adv-x="629" 
d="M183 47h311l94 126h7v-173h-565v9l394 609h-274l-87 -113h-6v157h527v-8z" />
    <glyph glyph-name="bracketleft" unicode="[" horiz-adv-x="255" 
d="M239 713h-85v-845h85v-28h-172v900h172v-27z" />
    <glyph glyph-name="backslash" unicode="\" horiz-adv-x="337" 
d="M358 -224l-42 -13l-297 981l43 13z" />
    <glyph glyph-name="bracketright" unicode="]" horiz-adv-x="256" 
d="M101 713h-85v27h172v-900h-172v28h85v845z" />
    <glyph glyph-name="asciicircum" unicode="^" horiz-adv-x="415" 
d="M46 305l-8 5l167 364h5l167 -364l-8 -5l-161 200z" />
    <glyph glyph-name="underscore" unicode="_" horiz-adv-x="371" 
d="M-5 -126v43h381v-43h-381z" />
    <glyph glyph-name="grave" unicode="`" 
d="M278 491l-167 168l78 54l98 -217z" />
    <glyph glyph-name="a" unicode="a" horiz-adv-x="431" 
d="M260 307q0 30 -17.5 48.5t-50.5 18.5q-34 0 -58 -24v-71l-97 32v5q51 59 86 82q54 35 114 35q62 0 94 -32t32 -70q0 -32 -1.5 -136.5t-1.5 -114.5q33 -21 71 -32v-6l-73 -60q-61 21 -94 60q-66 -54 -110 -54q-56 0 -91 31.5t-35 77.5q0 27 12 47.5t26 24.5l194 54v84z
M259 70q0 11 0.5 49.5t0.5 64.5q-16 -6 -46 -15.5t-53 -17t-25 -8.5q-9 -5 -9 -28q0 -28 18.5 -45.5t52.5 -17.5q33 0 61 18z" />
    <glyph glyph-name="b" unicode="b" horiz-adv-x="491" 
d="M-2 662v7q1 0 29 11t66.5 24t69.5 21v-358q66 64 134 64q73 0 120 -52.5t47 -141.5q0 -105 -68 -175t-169 -70q-26 0 -84 4t-83 4h-3v624zM241 364q-48 0 -78 -28v-283q30 -17 64 -17q57 0 92 47.5t35 122.5q0 74 -31 116t-82 42z" />
    <glyph glyph-name="c" unicode="c" horiz-adv-x="424" 
d="M263 431q48 0 122 -13v-113h-7q-71 82 -139 82q-46 0 -79.5 -44.5t-33.5 -107.5q0 -79 45 -125t120 -46q65 0 113 27l5 -7q-69 -94 -175 -94q-89 0 -149.5 57.5t-60.5 154.5t65.5 163t173.5 66z" />
    <glyph glyph-name="d" unicode="d" horiz-adv-x="504" 
d="M259 662v6q100 37 174 57v-651l70 -34v-7q-13 -3 -37.5 -9.5t-36.5 -9.5q-15 -4 -99 -24v59q-23 -23 -56.5 -41.5t-59.5 -18.5q-77 0 -132.5 58t-55.5 146q0 97 64 165t178 68q27 0 60 -3v200zM268 58q37 0 60 21v284q-22 22 -65 22q-56 0 -91.5 -47.5t-35.5 -118.5
q0 -74 37 -117.5t95 -43.5z" />
    <glyph glyph-name="e" unicode="e" horiz-adv-x="411" 
d="M125 239q0 -83 44 -129t118 -46q65 0 109 20l4 -7q-26 -31 -72.5 -59t-102.5 -28q-88 0 -144.5 58.5t-56.5 155.5q0 94 61.5 160.5t139.5 66.5q117 0 166 -152v-2h-264q-2 -24 -2 -38zM220 390q-25 0 -48.5 -19.5t-35.5 -56.5h150q-3 40 -23.5 58t-42.5 18z" />
    <glyph glyph-name="f" unicode="f" horiz-adv-x="314" 
d="M268 6v-6h-252v6l58 46v310h-69v7l69 47v36q0 113 75.5 188t186.5 75q53 0 95 -11l-35 -79q-69 41 -112 41q-36 0 -70 -43t-34 -123v-83h143l-42 -55h-101v-305z" />
    <glyph glyph-name="g" unicode="g" horiz-adv-x="451" 
d="M32 289q0 60 51 101.5t126 41.5q42 0 78 -12h153v-46h-91q40 -38 40 -81q0 -62 -49.5 -103.5t-130.5 -41.5q-32 0 -56 7q-31 -25 -31 -45q0 -16 11 -25t26 -9h180q29 0 64 -32.5t35 -89.5q0 -85 -77.5 -152.5t-181.5 -67.5q-77 0 -122.5 30t-45.5 74q0 34 27.5 73.5
t67.5 72.5q-66 25 -66 89q0 36 13 45l69 47q-90 39 -90 124zM135 -23q-17 -17 -31 -45.5t-14 -55.5q0 -34 34 -56.5t92 -22.5q60 0 103 32t43 78q0 34 -22.5 52t-58.5 18h-141h-5zM134 290q0 -44 22 -74.5t54 -30.5q33 0 54 30t21 75q0 44 -21.5 75t-53.5 31t-54 -31
t-22 -75z" />
    <glyph glyph-name="h" unicode="h" horiz-adv-x="532" 
d="M17 0v6l58 46v572l-59 38v7q1 0 19.5 7.5t39.5 15t51.5 17.5t54.5 16v-367q74 72 151 72q54 0 91.5 -33.5t37.5 -71.5v-273l57 -46v-6h-219v6l56 46v242q0 29 -21.5 49t-61.5 20q-46 0 -91 -40v-271l57 -46v-6h-221z" />
    <glyph glyph-name="i" unicode="i" horiz-adv-x="255" 
d="M18 0v6l57 46v289l-55 36v6q3 1 28.5 10t63 21t69.5 20v-382l58 -46v-6h-221zM64 579q0 26 17.5 43t42.5 17q26 0 43 -17t17 -43q0 -25 -17 -41.5t-43 -16.5q-25 0 -42.5 16.5t-17.5 41.5z" />
    <glyph glyph-name="j" unicode="j" horiz-adv-x="234" 
d="M56 579q0 26 17.5 43t42.5 17q26 0 43 -17t17 -43q0 -25 -17 -41.5t-43 -16.5q-25 0 -42.5 16.5t-17.5 41.5zM11 376v7q121 40 161 52v-385q0 -19 -6 -46t-21.5 -66t-50 -87.5t-83.5 -94.5l-9 7q64 134 64 283v295z" />
    <glyph glyph-name="k" unicode="k" horiz-adv-x="502" 
d="M181 52l56 -46v-6h-219v6l57 46v569l-59 38v7q1 0 19.5 7.5t39.5 15t51.5 17.5t54.5 16v-670zM192 222v6l123 135l-56 51v6h216v-6l-98 -51l-97 -93l102 -141q67 -94 119 -123v-6q-30 -10 -68 -10q-45 0 -73 19.5t-65 71.5z" />
    <glyph glyph-name="l" unicode="l" horiz-adv-x="255" 
d="M181 52l58 -46v-6h-221v6l57 46v572l-59 38v7q12 6 65.5 25t99.5 31v-673z" />
    <glyph glyph-name="m" unicode="m" horiz-adv-x="780" 
d="M181 357q74 74 143 74q43 0 73 -22t42 -56q78 78 151 78q52 0 86 -31.5t34 -70.5v-276l57 -47v-6h-218v6l56 47v237q0 31 -18.5 51.5t-55.5 20.5q-41 0 -86 -40v-269l57 -47v-6h-217v6l55 47v237q0 31 -19 51.5t-56 20.5q-40 0 -84 -39v-271l56 -46v-6h-219v6l57 47v288
l-55 35v7q3 1 28.5 10t63 21t69.5 20v-77z" />
    <glyph glyph-name="n" unicode="n" horiz-adv-x="532" 
d="M18 0v6l57 46v289l-55 35v7q3 1 28.5 10t63 21t69.5 20v-76q73 73 150 73q54 0 92 -33t38 -71v-275l58 -46v-6h-220v6l56 46v242q0 29 -21.5 49t-61.5 20q-47 0 -91 -39v-272l57 -46v-6h-220z" />
    <glyph glyph-name="o" unicode="o" horiz-adv-x="491" 
d="M24 205q0 98 67 162t154 64q89 0 155.5 -59.5t66.5 -156.5q0 -99 -67.5 -162.5t-155.5 -63.5t-154 59t-66 157zM139 210q0 -75 31.5 -126.5t74.5 -51.5t75.5 52t32.5 126q0 76 -31.5 127.5t-76.5 51.5q-43 0 -74.5 -52.5t-31.5 -126.5z" />
    <glyph glyph-name="p" unicode="p" horiz-adv-x="497" 
d="M255 -252v-6h-250v6l57 47v546l-55 35v7q1 0 18 6.5t37 13.5t49.5 16.5t56.5 16.5v-71q66 66 134 66q76 0 122 -54.5t46 -141.5q0 -101 -63 -171.5t-172 -70.5q-42 0 -67 3v-201zM246 363q-49 0 -78 -27v-283q25 -16 62 -16q57 0 93 49t36 124q0 74 -30.5 113.5
t-82.5 39.5z" />
    <glyph glyph-name="q" unicode="q" horiz-adv-x="496" 
d="M494 -252v-6h-249v6l85 47v252q-23 -25 -56 -41t-61 -16q-84 0 -135.5 57.5t-51.5 144.5q0 96 62 166.5t172 70.5q52 0 103 -15l73 34v-653zM268 57q39 0 62 21v291q-34 16 -65 16q-57 0 -92 -46t-35 -119q0 -76 35.5 -119.5t94.5 -43.5z" />
    <glyph glyph-name="r" unicode="r" horiz-adv-x="366" 
d="M20 376v7q3 1 28.5 10t63 21t69.5 20v-92q76 91 106 91q29 0 68 -13l-34 -100q-37 20 -68 20q-34 0 -72 -28v-258l83 -48v-6h-246v6l57 47v288z" />
    <glyph glyph-name="s" unicode="s" horiz-adv-x="346" 
d="M191 431q56 0 95 -13v-95h-6q-31 35 -53 51t-49 16q-19 0 -32.5 -11.5t-13.5 -31.5q0 -13 3.5 -22t17 -20.5t19.5 -16t32 -20.5l16.5 -11t17 -11t15.5 -10.5t15.5 -12.5t12.5 -12.5t12.5 -14t9.5 -15t8 -17.5t4 -19t2 -22q0 -59 -44 -96t-118 -37q-67 0 -118 24
q-12 61 -7 143h7q48 -121 123 -121q26 0 43 16t17 41q0 27 -17 44.5t-60 43.5q-49 31 -74 61.5t-25 74.5q0 52 40.5 83t106.5 31z" />
    <glyph glyph-name="t" unicode="t" horiz-adv-x="371" 
d="M172 361v-232q0 -31 20.5 -50.5t65.5 -19.5q50 0 84 17l4 -7q-63 -78 -150 -78q-65 0 -97.5 33t-32.5 75v262h-57v7l163 128v-78h199l-37 -57h-162z" />
    <glyph glyph-name="u" unicode="u" horiz-adv-x="516" 
d="M11 376v7q76 29 160 51v-306q0 -30 19.5 -50t55.5 -20q38 0 91 39v243l-64 37v6q1 0 20 6.5t41 13t53 15.5t56 16v-362l66 -32v-7q-10 -3 -37 -9.5t-40 -9.5q-18 -5 -38.5 -10t-37 -8.5t-19.5 -4.5v71q-75 -71 -144 -71q-55 0 -91.5 33.5t-36.5 78.5v237z" />
    <glyph glyph-name="v" unicode="v" horiz-adv-x="437" 
d="M390 370l-142 -352q-4 -12 -7 -20l-6 -15h-20q-4 10 -7 15q-1 2 -6.5 14t-8.5 19l-147 339l-49 44v6h221v-6l-55 -44l90 -226l85 226l-56 44v6h158v-6z" />
    <glyph glyph-name="w" unicode="w" horiz-adv-x="668" 
d="M243 27q-2 -5 -5.5 -13.5t-4.5 -11.5q-4 -8 -5 -12h-20q-1 2 -3 7t-4 8q-2 7 -17 40l-138 325l-49 44v6h213v-6l-52 -44l87 -217l73 194l-9 23l-48 44v6h202v-6l-49 -44l79 -217l78 217l-55 44v6h155v-6l-50 -44l-128 -345l-14 -35h-20q-1 3 -5 13q-7 17 -16 40l-96 244z
" />
    <glyph glyph-name="x" unicode="x" horiz-adv-x="457" 
d="M452 6v-6h-210v6l53 45l-86 115l-92 -115l56 -45v-6h-167v6l53 46l122 151l-125 167l-48 44v6h222v-6l-54 -44l76 -106l79 106l-54 44v6h164v-6l-54 -46l-110 -138l131 -179z" />
    <glyph glyph-name="y" unicode="y" horiz-adv-x="436" 
d="M229 -38q-59 -153 -66 -220h-118v5q81 69 138 216l20 50l-156 356l-50 45v6h220v-6l-54 -45l91 -224l84 224l-56 45v6h157v-6l-50 -45z" />
    <glyph glyph-name="z" unicode="z" horiz-adv-x="411" 
d="M387 127v-127h-369v10l227 370h-132l-69 -78h-6v118h340v-9l-230 -369h159l74 85h6z" />
    <glyph glyph-name="braceleft" unicode="{" horiz-adv-x="288" 
d="M149 -38q0 -86 112 -136l-5 -8q-104 24 -148 67.5t-44 94.5q0 37 39 115t39 107q0 73 -113 77v24q113 4 113 77q0 30 -39 105t-39 110q0 112 192 159l5 -8q-112 -45 -112 -133q0 -33 33 -109t33 -107q0 -39 -31.5 -68t-91.5 -38q61 -9 92 -37.5t31 -68.5
q0 -32 -33 -110.5t-33 -112.5z" />
    <glyph glyph-name="bar" unicode="|" horiz-adv-x="259" 
d="M107 747h45v-978h-45v978z" />
    <glyph glyph-name="braceright" unicode="}" horiz-adv-x="288" 
d="M139 -38q0 34 -33 112.5t-33 110.5q0 40 31 68.5t92 37.5q-60 9 -91.5 38t-31.5 68q0 31 33 107t33 109q0 88 -112 133l5 8q192 -47 192 -159q0 -35 -39 -110t-39 -105q0 -73 113 -77v-24q-113 -4 -113 -77q0 -29 39 -107t39 -115q0 -51 -44 -94.5t-148 -67.5l-5 8
q112 50 112 136z" />
    <glyph glyph-name="asciitilde" unicode="~" horiz-adv-x="476" 
d="M339 292q59 0 101 105l6 -2q-6 -87 -38.5 -140t-79.5 -53q-33 0 -100 38.5t-94 38.5q-56 0 -97 -105l-7 2q4 82 37 138.5t79 56.5q34 0 101 -39.5t92 -39.5z" />
    <glyph glyph-name="exclamdown" unicode="&#xa1;" horiz-adv-x="217" 
d="M48 -242q3 25 13 108t22 189t18 158h17q6 -52 18 -158t22 -189t13 -108h-123zM171 370q0 -26 -18 -43t-44 -17t-43.5 17t-17.5 43t17.5 43.5t43.5 17.5t44 -17.5t18 -43.5z" />
    <glyph glyph-name="cent" unicode="&#xa2;" horiz-adv-x="432" 
d="M297 510l-9 -79q53 -3 104 -13v-113h-6q-57 57 -103 74l-34 -312q25 -5 46 -5q68 0 116 27l5 -7q-63 -88 -175 -92l-8 -80h-39l9 83q-78 10 -128.5 66t-50.5 144q0 93 61.5 157.5t163.5 70.5l9 79h39zM126 235q0 -114 86 -156l33 308h-3q-48 0 -82 -44t-34 -108z" />
    <glyph glyph-name="sterling" unicode="&#xa3;" horiz-adv-x="515" 
d="M-2 -11q15 25 36 55.5t32 47t22 42t18 55.5q6 31 11 96h-91v41h94q2 22 4 68t3 68q6 94 70 152.5t152 58.5q63 0 119 -15v-121h-7q-60 91 -123 91q-73 0 -88 -125q-4 -31 -10 -90.5t-10 -86.5h149v-41h-155q-7 -42 -11 -56q-19 -71 -85 -123q33 15 62 15q33 0 94 -19
t93 -19q65 0 122 84l6 -2q-12 -76 -53 -125t-94 -49q-35 0 -105 30t-108 30q-65 0 -139 -68z" />
    <glyph glyph-name="yen" unicode="&#xa5;" horiz-adv-x="576" 
d="M388 656v6h183v-6l-57 -54l-149 -235h151v-40h-161v-59h161v-39h-161v-168l68 -55v-6h-254l-1 6l68 55v168h-161v39h161v59h-161v40h139l-152 235l-58 54v6h259v-6l-69 -54l131 -210l131 208z" />
    <glyph glyph-name="brokenbar" unicode="&#xa6;" horiz-adv-x="259" 
d="M107 747h45v-434h-45v434zM107 216h45v-447h-45v447z" />
    <glyph glyph-name="section" unicode="&#xa7;" horiz-adv-x="462" 
d="M31 291q0 47 30.5 78.5t72.5 45.5q-43 58 -43 117q0 63 47 102t121 39q48 0 98 -10v-110h-7q-60 79 -111 79q-28 0 -47 -18.5t-19 -50.5q0 -36 25 -69t105 -113q73 -73 103 -117t30 -92t-29.5 -79.5t-69.5 -46.5q40 -55 40 -113q0 -70 -49.5 -118.5t-131.5 -48.5
q-44 0 -81 10.5t-52 19.5q-11 61 -5 161h8q22 -60 57 -103t81 -43q39 0 63.5 25.5t24.5 67.5q0 41 -26.5 76.5t-105.5 110.5q-71 66 -100 110.5t-29 89.5zM229 164q83 -88 90 -96q34 26 34 65t-22.5 71.5t-92.5 100.5q-71 71 -88 91q-40 -22 -40 -65q0 -25 15.5 -51
t32.5 -44t71 -72z" />
    <glyph glyph-name="dieresis" unicode="&#xa8;" 
d="M289 629q22 0 37.5 -15.5t15.5 -39.5q0 -23 -15.5 -37.5t-37.5 -14.5q-24 0 -39.5 14.5t-15.5 37.5q0 24 15.5 39.5t39.5 15.5zM112 630q23 0 39 -16t16 -40q0 -23 -16 -38t-39 -15t-38.5 15t-15.5 38q0 24 15.5 40t38.5 16z" />
    <glyph glyph-name="copyright" unicode="&#xa9;" horiz-adv-x="754" 
d="M377 634q-125 0 -207.5 -87.5t-82.5 -214.5q0 -124 85 -213t205 -89q123 0 206.5 87.5t83.5 214.5q0 124 -84.5 213t-205.5 89zM395 160q-86 0 -143 48.5t-57 127.5q0 75 56 127.5t146 52.5q53 0 109 -14v-97h-5q-55 74 -111 74q-43 0 -73 -38.5t-30 -98.5
q0 -64 33.5 -104t78.5 -40q61 0 109 70h5v-84q-55 -24 -118 -24zM377 674q141 0 240.5 -100.5t99.5 -241.5q0 -144 -98 -243t-242 -99q-145 0 -242.5 98.5t-97.5 243.5q0 144 98 243t242 99z" />
    <glyph glyph-name="ordfeminine" unicode="&#xaa;" horiz-adv-x="327" 
d="M187 582q0 44 -45 44q-23 0 -38 -15v-46l-74 25v4q22 27 60 52.5t83 25.5q44 0 69.5 -23t25.5 -48q0 -22 -1 -93t-1 -76q10 -7 46 -23v-4l-55 -42q-34 10 -66 42q-47 -39 -74 -39q-41 0 -67.5 23t-26.5 54q0 19 7.5 34.5t18.5 19.5q49 8 138 34v51zM149 416q19 0 37 9
q0 9 0.5 34.5t0.5 42.5l-80 -24q-6 -5 -6 -21q0 -18 12.5 -29.5t35.5 -11.5z" />
    <glyph glyph-name="guillemotleft" unicode="&#xab;" horiz-adv-x="374" 
d="M330 61l-148 163v3l148 161l11 -5l-67 -158l67 -159zM29 224v3l148 161l11 -5l-67 -158l67 -159l-11 -5z" />
    <glyph glyph-name="registered" unicode="&#xae;" horiz-adv-x="402" 
d="M201 684q75 0 127 -52t52 -126q0 -75 -52 -127t-127 -52t-127 52t-52 127q0 74 52 126t127 52zM201 655q-61 0 -102.5 -43t-41.5 -106t41.5 -106t102.5 -43t102.5 43t41.5 106t-41 106t-103 43zM116 424v5l20 17v135l-20 17v5h99q27 0 43 -12t16 -31q0 -26 -29 -43
l28 -46q18 -29 31 -41v-5q-14 -2 -27 -2q-20 0 -29.5 7t-18.5 24l-28 51h-17v-59l24 -17v-5h-92zM184 581v-55h23q7 0 13 7.5t6 18.5q0 29 -29 29h-13z" />
    <glyph glyph-name="macron" unicode="&#xaf;" 
d="M94 587h213v-60h-213v60z" />
    <glyph glyph-name="degree" unicode="&#xb0;" horiz-adv-x="262" 
d="M131 450q-48 0 -79.5 31t-31.5 79q0 47 32 79t79 32q48 0 80 -32t32 -78q0 -47 -32 -79t-80 -32zM198 561q0 31 -19 50.5t-48 19.5t-48 -19.5t-19 -50.5q0 -32 19 -52t48 -20t48 20t19 52z" />
    <glyph glyph-name="twosuperior" unicode="&#xb2;" horiz-adv-x="259" 
d="M230 532h6v-109h-226v15q74 87 97 121t23 63q0 47 -46 47q-32 0 -59 -27l-8 4q10 30 36.5 52.5t69.5 22.5t67.5 -21.5t24.5 -57.5q0 -39 -34.5 -76t-102.5 -84h114z" />
    <glyph glyph-name="threesuperior" unicode="&#xb3;" horiz-adv-x="220" 
d="M29 575q36 21 52.5 36.5t16.5 34.5q0 31 -34 31q-21 0 -48 -19l-6 5q29 58 97 58q34 0 52 -14t18 -38q0 -41 -64 -62q40 0 65.5 -19t25.5 -53q0 -48 -46.5 -80.5t-148.5 -40.5l-3 9q111 46 111 101q0 44 -58 44q-13 0 -27 -2z" />
    <glyph glyph-name="acute" unicode="&#xb4;" 
d="M122 490l-9 5l98 218l78 -54z" />
    <glyph glyph-name="paragraph" unicode="&#xb6;" horiz-adv-x="486" 
d="M213 349q-87 0 -139.5 44.5t-52.5 114.5q0 68 46.5 111t128.5 43h77v-662h-124v6l68 54v289h-4zM381 603v-543l68 -54v-6h-125v662h125v-6z" />
    <glyph glyph-name="periodcentered" unicode="&#xb7;" horiz-adv-x="200" 
d="M39 252q0 26 17.5 43t43.5 17q27 0 44.5 -17t17.5 -43t-17.5 -43.5t-44.5 -17.5q-26 0 -43.5 17.5t-17.5 43.5z" />
    <glyph glyph-name="cedilla" unicode="&#xb8;" 
d="M240 0l-34 -67q35 -7 61.5 -28.5t26.5 -54.5q0 -44 -44 -76t-136 -46l-5 11q106 50 106 95q0 20 -21 32t-44 15l-2 3q5 11 15 29.5t14 27.5q29 56 29 59h34z" />
    <glyph glyph-name="onesuperior" unicode="&#xb9;" horiz-adv-x="183" 
d="M16 423v5l38 28v199l-41 23v4q88 33 121 42v-268l36 -28v-5h-154z" />
    <glyph glyph-name="ordmasculine" unicode="&#xba;" horiz-adv-x="352" 
d="M21 516q0 66 46.5 111t108.5 45q63 0 109 -41.5t46 -108.5t-46.5 -111.5t-109.5 -44.5t-108.5 41.5t-45.5 108.5zM110 520q0 -50 19 -85t47 -35q26 0 46 35.5t20 84.5q0 48 -20 83.5t-46 35.5q-27 0 -46.5 -35.5t-19.5 -83.5z" />
    <glyph glyph-name="guillemotright" unicode="&#xbb;" horiz-adv-x="373" 
d="M191 224l-148 -163l-11 5l67 159l-67 158l11 5l148 -161v-3zM344 227v-3l-148 -163l-11 5l67 159l-67 158l11 5z" />
    <glyph glyph-name="onequarter" unicode="&#xbc;" horiz-adv-x="536" 
d="M32 370v5l38 28v199l-41 23v4q88 33 121 42v-268l36 -28v-5h-154zM456 662h54l-439 -662h-53zM506 4v-4h-146v4l35 28v41h-135v13l151 208h60v-176h60l-28 -45h-32v-41zM395 118v106l-77 -106h77z" />
    <glyph glyph-name="onehalf" unicode="&#xbd;" horiz-adv-x="552" 
d="M456 662h54l-439 -662h-53zM32 370v5l38 28v199l-41 23v4q88 33 121 42v-268l36 -28v-5h-154zM525 109h6v-109h-226v15q74 87 97 121t23 63q0 47 -46 47q-32 0 -59 -27l-8 4q10 30 36.5 52.5t69.5 22.5t67.5 -21.5t24.5 -57.5q0 -39 -34.5 -76t-102.5 -84h114z" />
    <glyph glyph-name="threequarters" unicode="&#xbe;" horiz-adv-x="548" 
d="M450 662h54l-439 -662h-53zM38 522q36 21 52.5 36.5t16.5 34.5q0 31 -34 31q-21 0 -48 -19l-6 5q29 58 97 58q34 0 52 -14t18 -38q0 -41 -64 -62q40 0 65.5 -19t25.5 -53q0 -48 -46.5 -80.5t-148.5 -40.5l-3 9q111 46 111 101q0 44 -58 44q-13 0 -27 -2zM499 4v-4h-146v4
l35 28v41h-135v13l151 208h60v-176h60l-28 -45h-32v-41zM388 118v106l-77 -106h77z" />
    <glyph glyph-name="questiondown" unicode="&#xbf;" horiz-adv-x="354" 
d="M20 -125q0 35 14.5 64.5t50.5 64.5q11 11 40 38t37 35q19 18 25 31t6 33q0 11 -0.5 24t-2 27.5t-1.5 20.5h16q55 -105 55 -134q0 -28 -34 -65q-45 -48 -64 -71q-37 -40 -37 -80q0 -34 20.5 -53t49.5 -19q55 0 121 91h7v-122q-44 -12 -121 -12q-80 0 -131 32.5t-51 94.5z
M258 370q0 -26 -17.5 -43t-43.5 -17q-27 0 -44.5 17t-17.5 43t17.5 43.5t44.5 17.5q26 0 43.5 -17.5t17.5 -43.5z" />
    <glyph glyph-name="Agrave" unicode="&#xc0;" horiz-adv-x="645" 
d="M188 6v-6h-184v6l58 54l240 613h21l260 -613l58 -54v-6h-251v6l69 54l-78 186h-193l-71 -184zM204 289h159l-83 196zM430 703l-243 59l35 84l212 -134z" />
    <glyph glyph-name="Aacute" unicode="&#xc1;" horiz-adv-x="645" 
d="M188 6v-6h-184v6l58 54l240 613h21l260 -613l58 -54v-6h-251v6l69 54l-78 186h-193l-71 -184zM204 289h159l-83 196zM198 703l-5 9l213 134l35 -84z" />
    <glyph glyph-name="Acircumflex" unicode="&#xc2;" horiz-adv-x="645" 
d="M188 6v-6h-184v6l58 54l240 613h21l260 -613l58 -54v-6h-251v6l69 54l-78 186h-193l-71 -184zM204 289h159l-83 196zM313 843l145 -135l-4 -7l-141 52l-142 -52l-5 7z" />
    <glyph glyph-name="Atilde" unicode="&#xc3;" horiz-adv-x="645" 
d="M188 6v-6h-184v6l58 54l240 613h21l260 -613l58 -54v-6h-251v6l69 54l-78 186h-193l-71 -184zM204 289h159l-83 196zM259 811q13 0 67.5 -9t68.5 -9q28 0 70 47l7 -2q-11 -39 -36 -76.5t-48 -37.5q-16 0 -69 9t-66 9q-22 0 -70 -48l-6 2q11 39 35.5 77t46.5 38z" />
    <glyph glyph-name="Adieresis" unicode="&#xc4;" horiz-adv-x="645" 
d="M188 6v-6h-184v6l58 54l240 613h21l260 -613l58 -54v-6h-251v6l69 54l-78 186h-193l-71 -184zM204 289h159l-83 196zM216 712q-23 0 -39.5 15.5t-16.5 38.5t16.5 39t39.5 16t39 -16t16 -39t-16 -38.5t-39 -15.5zM466 766q0 -23 -15.5 -38.5t-38.5 -15.5t-39.5 15.5
t-16.5 38.5t16.5 39t39.5 16t38.5 -16t15.5 -39z" />
    <glyph glyph-name="Aring" unicode="&#xc5;" horiz-adv-x="645" 
d="M188 6v-6h-184v6l58 54l240 613h21l260 -613l58 -54v-6h-251v6l69 54l-78 186h-193l-71 -184zM204 289h159l-83 196zM265 779q0 -21 13.5 -35.5t34.5 -14.5q20 0 34 14.5t14 35.5q0 20 -14 35t-34 15q-21 0 -34.5 -14.5t-13.5 -35.5zM229 779q0 35 25 59t59 24t59 -24
t25 -59t-25 -59t-59 -24q-36 0 -60 23.5t-24 59.5z" />
    <glyph glyph-name="AE" unicode="&#xc6;" horiz-adv-x="869" 
d="M799 662v-132h-6l-74 88h-180v-246h186l52 70h6v-183h-6l-52 69h-186v-283h200l77 111h7v-156h-470v6l68 54v240h-173l-137 -238l71 -56v-6h-186v6l58 54l312 542l-67 54v6h500zM273 343h148v255z" />
    <glyph glyph-name="Ccedilla" unicode="&#xc7;" horiz-adv-x="669" 
d="M402 -11h-11l-28 -56q35 -7 61.5 -28.5t26.5 -54.5q0 -44 -44 -76t-136 -46l-5 11q106 50 106 95q0 20 -21 32t-44 15l-2 3q6 11 15 29.5t14 27.5l20 40l5 10q-54 5 -102 21q-102 37 -162 119.5t-60 196.5q0 144 102 244.5t268 100.5q85 0 201 -28v-131h-6
q-39 48 -93.5 80.5t-115.5 32.5q-96 0 -160.5 -82.5t-64.5 -204.5q0 -135 70.5 -220t169.5 -85q113 0 207 120h6v-123q-30 -16 -88.5 -29.5t-128.5 -13.5z" />
    <glyph glyph-name="Egrave" unicode="&#xc8;" horiz-adv-x="558" 
d="M406 703l-243 59l35 84l212 -134zM36 0v6l68 54v542l-68 54v6h453v-132h-6l-74 88h-186v-246h193l52 70h5v-183h-5l-52 69h-193v-283h206l77 110h6v-155h-476z" />
    <glyph glyph-name="Eacute" unicode="&#xc9;" horiz-adv-x="558" 
d="M177 703l-5 9l213 134l35 -84zM36 0v6l68 54v542l-68 54v6h453v-132h-6l-74 88h-186v-246h193l52 70h5v-183h-5l-52 69h-193v-283h206l77 110h6v-155h-476z" />
    <glyph glyph-name="Ecircumflex" unicode="&#xca;" horiz-adv-x="558" 
d="M286 843l145 -135l-4 -7l-141 52l-142 -52l-5 7zM36 0v6l68 54v542l-68 54v6h453v-132h-6l-74 88h-186v-246h193l52 70h5v-183h-5l-52 69h-193v-283h206l77 110h6v-155h-476z" />
    <glyph glyph-name="Edieresis" unicode="&#xcb;" horiz-adv-x="558" 
d="M36 0v6l68 54v542l-68 54v6h453v-132h-6l-74 88h-186v-246h193l52 70h5v-183h-5l-52 69h-193v-283h206l77 110h6v-155h-476zM193 712q-23 0 -39.5 15.5t-16.5 38.5t16.5 39t39.5 16t39 -16t16 -39t-16 -38.5t-39 -15.5zM443 766q0 -23 -15.5 -38.5t-38.5 -15.5
t-39.5 15.5t-16.5 38.5t16.5 39t39.5 16t38.5 -16t15.5 -39z" />
    <glyph glyph-name="Igrave" unicode="&#xcc;" horiz-adv-x="327" 
d="M36 0v6l68 54v542l-68 54v6h255v-6l-68 -54v-542l68 -54v-6h-255zM282 703l-243 59l35 84l212 -134z" />
    <glyph glyph-name="Iacute" unicode="&#xcd;" horiz-adv-x="327" 
d="M36 0v6l68 54v542l-68 54v6h255v-6l-68 -54v-542l68 -54v-6h-255zM48 703l-5 9l213 134l35 -84z" />
    <glyph glyph-name="Icircumflex" unicode="&#xce;" horiz-adv-x="327" 
d="M36 0v6l68 54v542l-68 54v6h255v-6l-68 -54v-542l68 -54v-6h-255zM164 843l145 -135l-4 -7l-141 52l-142 -52l-5 7z" />
    <glyph glyph-name="Idieresis" unicode="&#xcf;" horiz-adv-x="327" 
d="M36 0v6l68 54v542l-68 54v6h255v-6l-68 -54v-542l68 -54v-6h-255zM67 712q-23 0 -39.5 15.5t-16.5 38.5t16.5 39t39.5 16t39 -16t16 -39t-16 -38.5t-39 -15.5zM317 766q0 -23 -15.5 -38.5t-38.5 -15.5t-39.5 15.5t-16.5 38.5t16.5 39t39.5 16t38.5 -16t15.5 -39z" />
    <glyph glyph-name="Eth" unicode="&#xd0;" horiz-adv-x="734" 
d="M36 0v6l67 54v255h-85v43h85v244l-67 54v6h290q160 0 267.5 -85.5t107.5 -235.5q0 -148 -95 -244.5t-250 -96.5h-320zM222 315v-252l1 1q47 -21 121 -21q100 0 163.5 82t63.5 210q0 131 -75 207.5t-190 76.5q-53 0 -84 -1v-260h193v-43h-193z" />
    <glyph glyph-name="Ntilde" unicode="&#xd1;" horiz-adv-x="769" 
d="M347 811q13 0 67.5 -9t68.5 -9q28 0 70 47l7 -2q-11 -39 -36 -76.5t-48 -37.5q-16 0 -69 9t-66 9q-22 0 -70 -48l-6 2q11 39 35.5 77t46.5 38zM32 0v6l72 57v515q-51 57 -78 78v6h164l425 -480v417l-83 57v6h211v-6l-73 -57v-599h-47l-463 517v-454l86 -57v-6h-214z" />
    <glyph glyph-name="Ograve" unicode="&#xd2;" horiz-adv-x="751" 
d="M494 703l-243 59l35 84l212 -134zM36 322q0 150 99.5 251t238.5 101q143 0 242 -93.5t99 -241.5q0 -151 -100 -251t-238 -100q-141 0 -241 93.5t-100 240.5zM167 330q0 -131 62 -213t147 -82q86 0 147.5 82t61.5 213q0 132 -63 215t-148 83t-146 -83t-61 -215z" />
    <glyph glyph-name="Oacute" unicode="&#xd3;" horiz-adv-x="751" 
d="M259 703l-5 9l213 134l35 -84zM36 322q0 150 99.5 251t238.5 101q143 0 242 -93.5t99 -241.5q0 -151 -100 -251t-238 -100q-141 0 -241 93.5t-100 240.5zM167 330q0 -131 62 -213t147 -82q86 0 147.5 82t61.5 213q0 132 -63 215t-148 83t-146 -83t-61 -215z" />
    <glyph glyph-name="Ocircumflex" unicode="&#xd4;" horiz-adv-x="751" 
d="M375 843l145 -135l-4 -7l-141 52l-142 -52l-5 7zM36 322q0 150 99.5 251t238.5 101q143 0 242 -93.5t99 -241.5q0 -151 -100 -251t-238 -100q-141 0 -241 93.5t-100 240.5zM167 330q0 -131 62 -213t147 -82q86 0 147.5 82t61.5 213q0 132 -63 215t-148 83t-146 -83
t-61 -215z" />
    <glyph glyph-name="Otilde" unicode="&#xd5;" horiz-adv-x="751" 
d="M319 811q13 0 67.5 -9t68.5 -9q28 0 70 47l7 -2q-11 -39 -36 -76.5t-48 -37.5q-16 0 -69 9t-66 9q-22 0 -70 -48l-6 2q11 39 35.5 77t46.5 38zM36 322q0 150 99.5 251t238.5 101q143 0 242 -93.5t99 -241.5q0 -151 -100 -251t-238 -100q-141 0 -241 93.5t-100 240.5z
M167 330q0 -131 62 -213t147 -82q86 0 147.5 82t61.5 213q0 132 -63 215t-148 83t-146 -83t-61 -215z" />
    <glyph glyph-name="Odieresis" unicode="&#xd6;" horiz-adv-x="751" 
d="M278 712q-23 0 -39.5 15.5t-16.5 38.5t16.5 39t39.5 16t39 -16t16 -39t-16 -38.5t-39 -15.5zM528 766q0 -23 -15.5 -38.5t-38.5 -15.5t-39.5 15.5t-16.5 38.5t16.5 39t39.5 16t38.5 -16t15.5 -39zM36 322q0 150 99.5 251t238.5 101q143 0 242 -93.5t99 -241.5
q0 -151 -100 -251t-238 -100q-141 0 -241 93.5t-100 240.5zM167 330q0 -131 62 -213t147 -82q86 0 147.5 82t61.5 213q0 132 -63 215t-148 83t-146 -83t-61 -215z" />
    <glyph glyph-name="multiply" unicode="&#xd7;" horiz-adv-x="417" 
d="M46 107l132 138l-132 138l32 31l131 -137l131 137l31 -30l-133 -138l133 -138l-31 -30l-132 136l-131 -136z" />
    <glyph glyph-name="Oslash" unicode="&#xd8;" horiz-adv-x="751" 
d="M36 322q0 150 99.5 251t238.5 101q90 0 169 -42l54 83l38 -23l-54 -83q134 -98 134 -270q0 -151 -100 -251t-238 -100q-96 0 -173 43l-63 -97l-37 23l64 98q-132 97 -132 267zM585 330q0 119 -54 202l-285 -436q55 -61 130 -61q86 0 147.5 82t61.5 213zM167 330
q0 -114 51 -198l284 437q-54 59 -128 59q-85 0 -146 -83t-61 -215z" />
    <glyph glyph-name="Ugrave" unicode="&#xd9;" horiz-adv-x="736" 
d="M511 703l-243 59l35 84l212 -134zM644 236q0 -99 -69.5 -172.5t-193.5 -73.5q-136 0 -212 66t-76 178v368l-69 54v6h262v-6l-74 -54v-364q0 -86 50 -132.5t144 -46.5q84 0 133.5 51t49.5 129v363l-74 54v6h196v-6l-67 -54v-366z" />
    <glyph glyph-name="Uacute" unicode="&#xda;" horiz-adv-x="736" 
d="M279 703l-5 9l213 134l35 -84zM644 236q0 -99 -69.5 -172.5t-193.5 -73.5q-136 0 -212 66t-76 178v368l-69 54v6h262v-6l-74 -54v-364q0 -86 50 -132.5t144 -46.5q84 0 133.5 51t49.5 129v363l-74 54v6h196v-6l-67 -54v-366z" />
    <glyph glyph-name="Ucircumflex" unicode="&#xdb;" horiz-adv-x="736" 
d="M396 843l145 -135l-4 -7l-141 52l-142 -52l-5 7zM644 236q0 -99 -69.5 -172.5t-193.5 -73.5q-136 0 -212 66t-76 178v368l-69 54v6h262v-6l-74 -54v-364q0 -86 50 -132.5t144 -46.5q84 0 133.5 51t49.5 129v363l-74 54v6h196v-6l-67 -54v-366z" />
    <glyph glyph-name="Udieresis" unicode="&#xdc;" horiz-adv-x="736" 
d="M644 236q0 -99 -69.5 -172.5t-193.5 -73.5q-136 0 -212 66t-76 178v368l-69 54v6h262v-6l-74 -54v-364q0 -86 50 -132.5t144 -46.5q84 0 133.5 51t49.5 129v363l-74 54v6h196v-6l-67 -54v-366zM300 712q-23 0 -39.5 15.5t-16.5 38.5t16.5 39t39.5 16t39 -16t16 -39
t-16 -38.5t-39 -15.5zM550 766q0 -23 -15.5 -38.5t-38.5 -15.5t-39.5 15.5t-16.5 38.5t16.5 39t39.5 16t38.5 -16t15.5 -39z" />
    <glyph glyph-name="Yacute" unicode="&#xdd;" horiz-adv-x="608" 
d="M420 656v6h184v-6l-59 -54l-174 -271v-270l68 -55v-6h-255v6l68 55v251l-190 290l-58 54v6h261v-6l-69 -54l147 -229l145 227zM226 703l-5 9l213 134l35 -84z" />
    <glyph glyph-name="Thorn" unicode="&#xde;" horiz-adv-x="574" 
d="M224 508h71q117 0 185 -36.5t68 -111.5q0 -86 -84 -132t-201 -44v11q166 42 166 153q0 118 -164 118h-41v-406l73 -54v-6h-261v6l68 54v542l-68 54v6h256v-6l-68 -54v-94z" />
    <glyph glyph-name="germandbls" unicode="&#xdf;" horiz-adv-x="536" 
d="M308 719q73 0 115.5 -37.5t42.5 -93.5q0 -33 -20.5 -63.5t-45.5 -50t-45.5 -43t-20.5 -42.5q0 -21 15.5 -39.5t58.5 -52.5q63 -51 87 -83t24 -80q0 -62 -44.5 -103t-116.5 -41q-67 0 -106 25q-8 53 -6 129h7q43 -108 107 -108q28 0 45.5 20.5t17.5 49.5q0 20 -10.5 37.5
t-22 28t-44.5 38.5q-49 38 -70 66.5t-21 66.5q0 28 17.5 57.5t38 51.5t38 56.5t17.5 72.5q0 43 -23.5 66.5t-56.5 23.5q-43 0 -75.5 -42.5t-32.5 -126.5v-450l52 -46v-6h-215v6l58 46v310h-67v7l67 47v42q0 112 69 186.5t166 74.5z" />
    <glyph glyph-name="agrave" unicode="&#xe0;" horiz-adv-x="431" 
d="M260 307q0 30 -17.5 48.5t-50.5 18.5q-34 0 -58 -24v-71l-97 32v5q51 59 86 82q54 35 114 35q62 0 94 -32t32 -70q0 -32 -1.5 -136.5t-1.5 -114.5q33 -21 71 -32v-6l-73 -60q-61 21 -94 60q-66 -54 -110 -54q-56 0 -91 31.5t-35 77.5q0 27 12 47.5t26 24.5l194 54v84z
M259 70q0 11 0.5 49.5t0.5 64.5q-16 -6 -46 -15.5t-53 -17t-25 -8.5q-9 -5 -9 -28q0 -28 18.5 -45.5t52.5 -17.5q33 0 61 18zM264 491l-167 168l78 54l98 -217z" />
    <glyph glyph-name="aacute" unicode="&#xe1;" horiz-adv-x="431" 
d="M260 307q0 30 -17.5 48.5t-50.5 18.5q-34 0 -58 -24v-71l-97 32v5q51 59 86 82q54 35 114 35q62 0 94 -32t32 -70q0 -32 -1.5 -136.5t-1.5 -114.5q33 -21 71 -32v-6l-73 -60q-61 21 -94 60q-66 -54 -110 -54q-56 0 -91 31.5t-35 77.5q0 27 12 47.5t26 24.5l194 54v84z
M259 70q0 11 0.5 49.5t0.5 64.5q-16 -6 -46 -15.5t-53 -17t-25 -8.5q-9 -5 -9 -28q0 -28 18.5 -45.5t52.5 -17.5q33 0 61 18zM159 490l-9 5l98 218l78 -54z" />
    <glyph glyph-name="acircumflex" unicode="&#xe2;" horiz-adv-x="431" 
d="M260 307q0 30 -17.5 48.5t-50.5 18.5q-34 0 -58 -24v-71l-97 32v5q51 59 86 82q54 35 114 35q62 0 94 -32t32 -70q0 -32 -1.5 -136.5t-1.5 -114.5q33 -21 71 -32v-6l-73 -60q-61 21 -94 60q-66 -54 -110 -54q-56 0 -91 31.5t-35 77.5q0 27 12 47.5t26 24.5l194 54v84z
M259 70q0 11 0.5 49.5t0.5 64.5q-16 -6 -46 -15.5t-53 -17t-25 -8.5q-9 -5 -9 -28q0 -28 18.5 -45.5t52.5 -17.5q33 0 61 18zM208 709l113 -222l-8 -5l-105 102l-105 -102l-8 5z" />
    <glyph glyph-name="atilde" unicode="&#xe3;" horiz-adv-x="431" 
d="M260 307q0 30 -17.5 48.5t-50.5 18.5q-34 0 -58 -24v-71l-97 32v5q51 59 86 82q54 35 114 35q62 0 94 -32t32 -70q0 -32 -1.5 -136.5t-1.5 -114.5q33 -21 71 -32v-6l-73 -60q-61 21 -94 60q-66 -54 -110 -54q-56 0 -91 31.5t-35 77.5q0 27 12 47.5t26 24.5l194 54v84z
M259 70q0 11 0.5 49.5t0.5 64.5q-16 -6 -46 -15.5t-53 -17t-25 -8.5q-9 -5 -9 -28q0 -28 18.5 -45.5t52.5 -17.5q33 0 61 18zM157 618q13 0 61 -13t59 -13q21 0 61 54l7 -3q-8 -45 -29 -82.5t-42 -37.5q-16 0 -62.5 12.5t-57.5 12.5q-22 0 -62 -52l-7 2q9 43 30.5 81.5
t41.5 38.5z" />
    <glyph glyph-name="adieresis" unicode="&#xe4;" horiz-adv-x="431" 
d="M260 307q0 30 -17.5 48.5t-50.5 18.5q-34 0 -58 -24v-71l-97 32v5q51 59 86 82q54 35 114 35q62 0 94 -32t32 -70q0 -32 -1.5 -136.5t-1.5 -114.5q33 -21 71 -32v-6l-73 -60q-61 21 -94 60q-66 -54 -110 -54q-56 0 -91 31.5t-35 77.5q0 27 12 47.5t26 24.5l194 54v84z
M259 70q0 11 0.5 49.5t0.5 64.5q-16 -6 -46 -15.5t-53 -17t-25 -8.5q-9 -5 -9 -28q0 -28 18.5 -45.5t52.5 -17.5q33 0 61 18zM301 629q22 0 37.5 -15.5t15.5 -39.5q0 -23 -15.5 -37.5t-37.5 -14.5q-24 0 -39.5 14.5t-15.5 37.5q0 24 15.5 39.5t39.5 15.5zM124 630
q23 0 39 -16t16 -40q0 -23 -16 -38t-39 -15t-38.5 15t-15.5 38q0 24 15.5 40t38.5 16z" />
    <glyph glyph-name="aring" unicode="&#xe5;" horiz-adv-x="431" 
d="M260 307q0 30 -17.5 48.5t-50.5 18.5q-34 0 -58 -24v-71l-97 32v5q51 59 86 82q54 35 114 35q62 0 94 -32t32 -70q0 -32 -1.5 -136.5t-1.5 -114.5q33 -21 71 -32v-6l-73 -60q-61 21 -94 60q-66 -54 -110 -54q-56 0 -91 31.5t-35 77.5q0 27 12 47.5t26 24.5l194 54v84z
M259 70q0 11 0.5 49.5t0.5 64.5q-16 -6 -46 -15.5t-53 -17t-25 -8.5q-9 -5 -9 -28q0 -28 18.5 -45.5t52.5 -17.5q33 0 61 18zM162 577q0 -21 13.5 -35.5t34.5 -14.5q20 0 34 14.5t14 35.5q0 20 -14 35t-34 15q-21 0 -34.5 -14.5t-13.5 -35.5zM126 577q0 35 25 59t59 24
t59 -24t25 -59t-25 -59t-59 -24q-36 0 -60 23.5t-24 59.5z" />
    <glyph glyph-name="ae" unicode="&#xe6;" horiz-adv-x="632" 
d="M255 229q0 14 0.5 41.5t0.5 37.5q0 30 -17 48t-50 18q-32 0 -56 -24v-71l-97 32v5q19 23 30.5 35t39 35.5t59.5 35t68 11.5q70 0 101 -53q54 51 120 51q106 0 164 -131v-4l-261 -78q5 -73 46.5 -114t108.5 -41q60 0 106 21l4 -7q-26 -31 -72 -59t-101 -28q-95 0 -150 71
q-23 -28 -61 -50.5t-76 -22.5q-62 0 -98.5 31t-36.5 78q0 28 11 48t24 26zM198 52q43 0 84 36q-24 44 -27 102q-20 -7 -120 -44q-9 -5 -9 -31q0 -28 18.5 -45.5t53.5 -17.5zM448 390q-30 0 -59 -35.5t-32 -96.5l156 52q-3 34 -21 57t-44 23z" />
    <glyph glyph-name="ccedilla" unicode="&#xe7;" horiz-adv-x="424" 
d="M263 431q48 0 122 -13v-113h-7q-71 82 -139 82q-46 0 -79.5 -44.5t-33.5 -107.5q0 -79 45 -125t120 -46q65 0 113 27l5 -7q-45 -63 -113 -84q-24 -8 -56 -10l-29 -57q35 -7 61.5 -28.5t26.5 -54.5q0 -44 -44 -76t-136 -46l-5 11q106 50 106 95q0 20 -21 32t-44 15l-2 3
q5 11 14.5 29.5t14.5 27.5l20 40q2 5 5 11q-29 3 -54 12q-58 23 -93.5 74t-35.5 124q0 97 65.5 163t173.5 66z" />
    <glyph glyph-name="egrave" unicode="&#xe8;" horiz-adv-x="411" 
d="M125 239q0 -83 44 -129t118 -46q65 0 109 20l4 -7q-26 -31 -72.5 -59t-102.5 -28q-88 0 -144.5 58.5t-56.5 155.5q0 94 61.5 160.5t139.5 66.5q117 0 166 -152v-2h-264q-2 -24 -2 -38zM220 390q-25 0 -48.5 -19.5t-35.5 -56.5h150q-3 40 -23.5 58t-42.5 18zM267 491
l-167 168l78 54l98 -217z" />
    <glyph glyph-name="eacute" unicode="&#xe9;" horiz-adv-x="411" 
d="M164 490l-9 5l98 218l78 -54zM125 239q0 -83 44 -129t118 -46q65 0 109 20l4 -7q-26 -31 -72.5 -59t-102.5 -28q-88 0 -144.5 58.5t-56.5 155.5q0 94 61.5 160.5t139.5 66.5q117 0 166 -152v-2h-264q-2 -24 -2 -38zM220 390q-25 0 -48.5 -19.5t-35.5 -56.5h150
q-3 40 -23.5 58t-42.5 18z" />
    <glyph glyph-name="ecircumflex" unicode="&#xea;" horiz-adv-x="411" 
d="M214 709l113 -222l-8 -5l-105 102l-105 -102l-8 5zM125 239q0 -83 44 -129t118 -46q65 0 109 20l4 -7q-26 -31 -72.5 -59t-102.5 -28q-88 0 -144.5 58.5t-56.5 155.5q0 94 61.5 160.5t139.5 66.5q117 0 166 -152v-2h-264q-2 -24 -2 -38zM220 390q-25 0 -48.5 -19.5
t-35.5 -56.5h150q-3 40 -23.5 58t-42.5 18z" />
    <glyph glyph-name="edieresis" unicode="&#xeb;" horiz-adv-x="411" 
d="M304 629q22 0 37.5 -15.5t15.5 -39.5q0 -23 -15.5 -37.5t-37.5 -14.5q-24 0 -39.5 14.5t-15.5 37.5q0 24 15.5 39.5t39.5 15.5zM127 630q23 0 39 -16t16 -40q0 -23 -16 -38t-39 -15t-38.5 15t-15.5 38q0 24 15.5 40t38.5 16zM125 239q0 -83 44 -129t118 -46q65 0 109 20
l4 -7q-26 -31 -72.5 -59t-102.5 -28q-88 0 -144.5 58.5t-56.5 155.5q0 94 61.5 160.5t139.5 66.5q117 0 166 -152v-2h-264q-2 -24 -2 -38zM220 390q-25 0 -48.5 -19.5t-35.5 -56.5h150q-3 40 -23.5 58t-42.5 18z" />
    <glyph glyph-name="igrave" unicode="&#xec;" horiz-adv-x="255" 
d="M18 0v6l57 46v289l-55 36v6q3 1 28.5 10t63 21t69.5 20v-382l58 -46v-6h-221zM173 491l-167 168l78 54l98 -217z" />
    <glyph glyph-name="iacute" unicode="&#xed;" horiz-adv-x="255" 
d="M75 490l-9 5l98 218l78 -54zM18 0v6l57 46v289l-55 36v6q3 1 28.5 10t63 21t69.5 20v-382l58 -46v-6h-221z" />
    <glyph glyph-name="icircumflex" unicode="&#xee;" horiz-adv-x="255" 
d="M120 709l113 -222l-8 -5l-105 102l-105 -102l-8 5zM18 0v6l57 46v289l-55 36v6q3 1 28.5 10t63 21t69.5 20v-382l58 -46v-6h-221z" />
    <glyph glyph-name="idieresis" unicode="&#xef;" horiz-adv-x="255" 
d="M18 0v6l57 46v289l-55 36v6q3 1 28.5 10t63 21t69.5 20v-382l58 -46v-6h-221zM207 628q22 0 37 -15t15 -38q0 -22 -15 -36t-37 -14q-23 0 -37.5 14t-14.5 36q0 23 14.5 38t37.5 15zM43 629q22 0 37.5 -15.5t15.5 -38.5q0 -22 -15.5 -36.5t-37.5 -14.5q-23 0 -38 14.5
t-15 36.5q0 23 15 38.5t38 15.5z" />
    <glyph glyph-name="eth" unicode="&#xf0;" horiz-adv-x="487" 
d="M51 720q109 -25 205 -92l106 63l20 -35l-91 -53q168 -139 168 -339q0 -123 -64 -199t-152 -76t-154.5 60t-66.5 164q0 93 55.5 152.5t142.5 59.5q65 0 105 -36q-28 90 -100 175l-139 -81l-20 33l132 78q-62 63 -152 117zM348 248q0 44 -11 96q-37 37 -91 37
q-53 0 -81.5 -44.5t-28.5 -117.5q0 -82 33.5 -134.5t75.5 -52.5q41 0 72 61t31 155z" />
    <glyph glyph-name="ntilde" unicode="&#xf1;" horiz-adv-x="532" 
d="M18 0v6l57 46v289l-55 35v7q3 1 28.5 10t63 21t69.5 20v-76q73 73 150 73q54 0 92 -33t38 -71v-275l58 -46v-6h-220v6l56 46v242q0 29 -21.5 49t-61.5 20q-47 0 -91 -39v-272l57 -46v-6h-220zM215 618q13 0 61 -13t59 -13q21 0 61 54l7 -3q-8 -45 -29 -82.5t-42 -37.5
q-16 0 -62.5 12.5t-57.5 12.5q-22 0 -62 -52l-7 2q9 43 30.5 81.5t41.5 38.5z" />
    <glyph glyph-name="ograve" unicode="&#xf2;" horiz-adv-x="491" 
d="M24 205q0 98 67 162t154 64q89 0 155.5 -59.5t66.5 -156.5q0 -99 -67.5 -162.5t-155.5 -63.5t-154 59t-66 157zM139 210q0 -75 31.5 -126.5t74.5 -51.5t75.5 52t32.5 126q0 76 -31.5 127.5t-76.5 51.5q-43 0 -74.5 -52.5t-31.5 -126.5zM284 491l-167 168l78 54l98 -217z
" />
    <glyph glyph-name="oacute" unicode="&#xf3;" horiz-adv-x="491" 
d="M193 490l-9 5l98 218l78 -54zM24 205q0 98 67 162t154 64q89 0 155.5 -59.5t66.5 -156.5q0 -99 -67.5 -162.5t-155.5 -63.5t-154 59t-66 157zM139 210q0 -75 31.5 -126.5t74.5 -51.5t75.5 52t32.5 126q0 76 -31.5 127.5t-76.5 51.5q-43 0 -74.5 -52.5t-31.5 -126.5z" />
    <glyph glyph-name="ocircumflex" unicode="&#xf4;" horiz-adv-x="491" 
d="M244 709l113 -222l-8 -5l-105 102l-105 -102l-8 5zM24 205q0 98 67 162t154 64q89 0 155.5 -59.5t66.5 -156.5q0 -99 -67.5 -162.5t-155.5 -63.5t-154 59t-66 157zM139 210q0 -75 31.5 -126.5t74.5 -51.5t75.5 52t32.5 126q0 76 -31.5 127.5t-76.5 51.5
q-43 0 -74.5 -52.5t-31.5 -126.5z" />
    <glyph glyph-name="otilde" unicode="&#xf5;" horiz-adv-x="491" 
d="M24 205q0 98 67 162t154 64q89 0 155.5 -59.5t66.5 -156.5q0 -99 -67.5 -162.5t-155.5 -63.5t-154 59t-66 157zM139 210q0 -75 31.5 -126.5t74.5 -51.5t75.5 52t32.5 126q0 76 -31.5 127.5t-76.5 51.5q-43 0 -74.5 -52.5t-31.5 -126.5zM189 618q13 0 61 -13t59 -13
q21 0 61 54l7 -3q-8 -45 -29 -82.5t-42 -37.5q-16 0 -62.5 12.5t-57.5 12.5q-22 0 -62 -52l-7 2q9 43 30.5 81.5t41.5 38.5z" />
    <glyph glyph-name="odieresis" unicode="&#xf6;" horiz-adv-x="491" 
d="M333 629q22 0 37.5 -15.5t15.5 -39.5q0 -23 -15.5 -37.5t-37.5 -14.5q-24 0 -39.5 14.5t-15.5 37.5q0 24 15.5 39.5t39.5 15.5zM156 630q23 0 39 -16t16 -40q0 -23 -16 -38t-39 -15t-38.5 15t-15.5 38q0 24 15.5 40t38.5 16zM24 205q0 98 67 162t154 64q89 0 155.5 -59.5
t66.5 -156.5q0 -99 -67.5 -162.5t-155.5 -63.5t-154 59t-66 157zM139 210q0 -75 31.5 -126.5t74.5 -51.5t75.5 52t32.5 126q0 76 -31.5 127.5t-76.5 51.5q-43 0 -74.5 -52.5t-31.5 -126.5z" />
    <glyph glyph-name="divide" unicode="&#xf7;" horiz-adv-x="470" 
d="M178 82q0 25 16.5 41t40.5 16t40 -16t16 -41q0 -23 -16 -39t-40 -16t-40.5 16t-16.5 39zM178 403q0 25 16.5 41.5t40.5 16.5t40 -16.5t16 -41.5q0 -23 -16 -38.5t-40 -15.5t-40.5 15.5t-16.5 38.5zM43 268h384v-43h-384v43z" />
    <glyph glyph-name="oslash" unicode="&#xf8;" horiz-adv-x="491" 
d="M24 205q0 98 67.5 162t154.5 64q49 0 98 -23l45 72l34 -20l-44 -72q88 -62 88 -174q0 -99 -67 -162t-156 -63q-49 0 -100 23l-47 -76l-35 19l48 77q-86 62 -86 173zM356 210q0 62 -21 109l-157 -253q28 -34 67 -34q45 0 78 51.5t33 126.5zM136 210q0 -63 19 -105l157 252
q-30 32 -67 32q-44 0 -76.5 -52t-32.5 -127z" />
    <glyph glyph-name="ugrave" unicode="&#xf9;" horiz-adv-x="516" 
d="M11 376v7q76 29 160 51v-306q0 -30 19.5 -50t55.5 -20q38 0 91 39v243l-64 37v6q1 0 20 6.5t41 13t53 15.5t56 16v-362l66 -32v-7q-10 -3 -37 -9.5t-40 -9.5q-18 -5 -38.5 -10t-37 -8.5t-19.5 -4.5v71q-75 -71 -144 -71q-55 0 -91.5 33.5t-36.5 78.5v237zM300 491
l-167 168l78 54l98 -217z" />
    <glyph glyph-name="uacute" unicode="&#xfa;" horiz-adv-x="516" 
d="M215 490l-9 5l98 218l78 -54zM11 376v7q76 29 160 51v-306q0 -30 19.5 -50t55.5 -20q38 0 91 39v243l-64 37v6q1 0 20 6.5t41 13t53 15.5t56 16v-362l66 -32v-7q-10 -3 -37 -9.5t-40 -9.5q-18 -5 -38.5 -10t-37 -8.5t-19.5 -4.5v71q-75 -71 -144 -71q-55 0 -91.5 33.5
t-36.5 78.5v237z" />
    <glyph glyph-name="ucircumflex" unicode="&#xfb;" horiz-adv-x="516" 
d="M248 709l113 -222l-8 -5l-105 102l-105 -102l-8 5zM11 376v7q76 29 160 51v-306q0 -30 19.5 -50t55.5 -20q38 0 91 39v243l-64 37v6q1 0 20 6.5t41 13t53 15.5t56 16v-362l66 -32v-7q-10 -3 -37 -9.5t-40 -9.5q-18 -5 -38.5 -10t-37 -8.5t-19.5 -4.5v71q-75 -71 -144 -71
q-55 0 -91.5 33.5t-36.5 78.5v237z" />
    <glyph glyph-name="udieresis" unicode="&#xfc;" horiz-adv-x="516" 
d="M337 629q22 0 37.5 -15.5t15.5 -39.5q0 -23 -15.5 -37.5t-37.5 -14.5q-24 0 -39.5 14.5t-15.5 37.5q0 24 15.5 39.5t39.5 15.5zM160 630q23 0 39 -16t16 -40q0 -23 -16 -38t-39 -15t-38.5 15t-15.5 38q0 24 15.5 40t38.5 16zM11 376v7q76 29 160 51v-306q0 -30 19.5 -50
t55.5 -20q38 0 91 39v243l-64 37v6q1 0 20 6.5t41 13t53 15.5t56 16v-362l66 -32v-7q-10 -3 -37 -9.5t-40 -9.5q-18 -5 -38.5 -10t-37 -8.5t-19.5 -4.5v71q-75 -71 -144 -71q-55 0 -91.5 33.5t-36.5 78.5v237z" />
    <glyph glyph-name="yacute" unicode="&#xfd;" horiz-adv-x="436" 
d="M229 -38q-59 -153 -66 -220h-118v5q81 69 138 216l20 50l-156 356l-50 45v6h220v-6l-54 -45l91 -224l84 224l-56 45v6h157v-6l-50 -45zM201 490l-9 5l98 218l78 -54z" />
    <glyph glyph-name="thorn" unicode="&#xfe;" horiz-adv-x="494" 
d="M-1 662v7q119 45 164 56v-360q66 66 134 66q77 0 122.5 -54t45.5 -142q0 -101 -63 -171.5t-172 -70.5q-17 0 -67 2v-201l86 -46v-6h-249v6l57 46v829zM241 362q-45 0 -78 -26v-283q25 -16 62 -16q57 0 93 49t36 124q0 73 -30.5 112.5t-82.5 39.5z" />
    <glyph glyph-name="ydieresis" unicode="&#xff;" horiz-adv-x="436" 
d="M229 -38q-59 -153 -66 -220h-118v5q81 69 138 216l20 50l-156 356l-50 45v6h220v-6l-54 -45l91 -224l84 224l-56 45v6h157v-6l-50 -45zM323 629q22 0 37.5 -15.5t15.5 -39.5q0 -23 -15.5 -37.5t-37.5 -14.5q-24 0 -39.5 14.5t-15.5 37.5q0 24 15.5 39.5t39.5 15.5z
M146 630q23 0 39 -16t16 -40q0 -23 -16 -38t-39 -15t-38.5 15t-15.5 38q0 24 15.5 40t38.5 16z" />
    <glyph glyph-name="Amacron" unicode="&#x100;" horiz-adv-x="645" 
d="M188 6v-6h-184v6l58 54l240 613h21l260 -613l58 -54v-6h-251v6l69 54l-78 186h-193l-71 -184zM204 289h159l-83 196zM192 780h243v-59h-243v59z" />
    <glyph glyph-name="amacron" unicode="&#x101;" horiz-adv-x="431" 
d="M260 307q0 30 -17.5 48.5t-50.5 18.5q-34 0 -58 -24v-71l-97 32v5q51 59 86 82q54 35 114 35q62 0 94 -32t32 -70q0 -32 -1.5 -136.5t-1.5 -114.5q33 -21 71 -32v-6l-73 -60q-61 21 -94 60q-66 -54 -110 -54q-56 0 -91 31.5t-35 77.5q0 27 12 47.5t26 24.5l194 54v84z
M259 70q0 11 0.5 49.5t0.5 64.5q-16 -6 -46 -15.5t-53 -17t-25 -8.5q-9 -5 -9 -28q0 -28 18.5 -45.5t52.5 -17.5q33 0 61 18zM99 587h213v-60h-213v60z" />
    <glyph glyph-name="Abreve" unicode="&#x102;" horiz-adv-x="645" 
d="M188 6v-6h-184v6l58 54l240 613h21l260 -613l58 -54v-6h-251v6l69 54l-78 186h-193l-71 -184zM204 289h159l-83 196zM313 707q-54 0 -84 38.5t-33 89.5l7 1q35 -61 110 -61q74 0 110 61l7 -1q-3 -51 -33 -89.5t-84 -38.5z" />
    <glyph glyph-name="abreve" unicode="&#x103;" horiz-adv-x="431" 
d="M260 307q0 30 -17.5 48.5t-50.5 18.5q-34 0 -58 -24v-71l-97 32v5q51 59 86 82q54 35 114 35q62 0 94 -32t32 -70q0 -32 -1.5 -136.5t-1.5 -114.5q33 -21 71 -32v-6l-73 -60q-61 21 -94 60q-66 -54 -110 -54q-56 0 -91 31.5t-35 77.5q0 27 12 47.5t26 24.5l194 54v84z
M259 70q0 11 0.5 49.5t0.5 64.5q-16 -6 -46 -15.5t-53 -17t-25 -8.5q-9 -5 -9 -28q0 -28 18.5 -45.5t52.5 -17.5q33 0 61 18zM208 569q33 0 58 21t36 51l8 -1q0 -60 -26.5 -99t-75.5 -39q-50 0 -76 38.5t-26 99.5l8 1q11 -30 35.5 -51t58.5 -21z" />
    <glyph glyph-name="Aogonek" unicode="&#x104;" horiz-adv-x="645" 
d="M485 0l-104 246h-193l-71 -184l71 -56v-6h-184v6l58 54l240 613h21l260 -613l58 -54v-6h-130q-80 -80 -80 -145q0 -66 71 -66q19 0 52 9l4 -5q-15 -20 -46.5 -40t-73.5 -20q-47 0 -74.5 26t-27.5 68q0 87 149 173zM205 289h158l-82 196z" />
    <glyph glyph-name="aogonek" unicode="&#x105;" horiz-adv-x="431" 
d="M360 80q33 -21 71 -32v-6q-63 -49 -99 -93.5t-36 -94.5q0 -31 18.5 -48t52.5 -17q19 0 52 9l4 -5q-15 -20 -46.5 -40t-73.5 -20q-47 0 -74.5 26t-27.5 68q0 80 137 163q-47 20 -74 52q-66 -54 -110 -54q-56 0 -91 31.5t-35 77.5q0 27 12 47.5t26 24.5l194 54v84
q0 30 -17.5 48.5t-50.5 18.5q-34 0 -58 -24v-71l-97 32v5q51 59 86 82q54 35 114 35q62 0 94 -32t32 -70q0 -32 -1.5 -136.5t-1.5 -114.5zM198 52q33 0 61 18q0 11 0.5 49.5t0.5 64.5q-16 -6 -46 -15.5t-53 -17t-25 -8.5q-9 -5 -9 -28q0 -28 18.5 -45.5t52.5 -17.5z" />
    <glyph glyph-name="Cacute" unicode="&#x106;" horiz-adv-x="669" 
d="M402 -11q-159 0 -263 93t-104 246q0 144 102 244.5t268 100.5q85 0 201 -28v-131h-6q-39 48 -93.5 80.5t-115.5 32.5q-96 0 -160.5 -82.5t-64.5 -204.5q0 -135 70.5 -220t169.5 -85q113 0 207 120h6v-123q-30 -16 -88.5 -29.5t-128.5 -13.5zM268 703l-5 9l213 134l35 -84
z" />
    <glyph glyph-name="cacute" unicode="&#x107;" horiz-adv-x="424" 
d="M184 490l-9 5l98 218l78 -54zM263 431q48 0 122 -13v-113h-7q-71 82 -139 82q-46 0 -79.5 -44.5t-33.5 -107.5q0 -79 45 -125t120 -46q65 0 113 27l5 -7q-69 -94 -175 -94q-89 0 -149.5 57.5t-60.5 154.5t65.5 163t173.5 66z" />
    <glyph glyph-name="Ccircumflex" unicode="&#x108;" horiz-adv-x="669" 
d="M383 843l145 -135l-4 -7l-141 52l-142 -52l-5 7zM402 -11q-159 0 -263 93t-104 246q0 144 102 244.5t268 100.5q85 0 201 -28v-131h-6q-39 48 -93.5 80.5t-115.5 32.5q-96 0 -160.5 -82.5t-64.5 -204.5q0 -135 70.5 -220t169.5 -85q113 0 207 120h6v-123
q-30 -16 -88.5 -29.5t-128.5 -13.5z" />
    <glyph glyph-name="ccircumflex" unicode="&#x109;" horiz-adv-x="424" 
d="M230 709l113 -222l-8 -5l-105 102l-105 -102l-8 5zM263 431q48 0 122 -13v-113h-7q-71 82 -139 82q-46 0 -79.5 -44.5t-33.5 -107.5q0 -79 45 -125t120 -46q65 0 113 27l5 -7q-69 -94 -175 -94q-89 0 -149.5 57.5t-60.5 154.5t65.5 163t173.5 66z" />
    <glyph glyph-name="Cdotaccent" unicode="&#x10a;" horiz-adv-x="669" 
d="M402 -11q-159 0 -263 93t-104 246q0 144 102 244.5t268 100.5q85 0 201 -28v-131h-6q-39 48 -93.5 80.5t-115.5 32.5q-96 0 -160.5 -82.5t-64.5 -204.5q0 -135 70.5 -220t169.5 -85q113 0 207 120h6v-123q-30 -16 -88.5 -29.5t-128.5 -13.5zM323 770q0 26 17.5 43
t42.5 17q26 0 43 -17t17 -43q0 -25 -17 -41.5t-43 -16.5q-25 0 -42.5 16.5t-17.5 41.5z" />
    <glyph glyph-name="cdotaccent" unicode="&#x10b;" horiz-adv-x="424" 
d="M263 431q48 0 122 -13v-113h-7q-71 82 -139 82q-46 0 -79.5 -44.5t-33.5 -107.5q0 -79 45 -125t120 -46q65 0 113 27l5 -7q-69 -94 -175 -94q-89 0 -149.5 57.5t-60.5 154.5t65.5 163t173.5 66zM172 579q0 26 17.5 43t42.5 17q26 0 43 -17t17 -43q0 -25 -17 -41.5
t-43 -16.5q-25 0 -42.5 16.5t-17.5 41.5z" />
    <glyph glyph-name="Ccaron" unicode="&#x10c;" horiz-adv-x="669" 
d="M241 840l142 -52l141 52l4 -7l-145 -135l-147 135zM402 -11q-159 0 -263 93t-104 246q0 144 102 244.5t268 100.5q85 0 201 -28v-131h-6q-39 48 -93.5 80.5t-115.5 32.5q-96 0 -160.5 -82.5t-64.5 -204.5q0 -135 70.5 -220t169.5 -85q113 0 207 120h6v-123
q-30 -16 -88.5 -29.5t-128.5 -13.5z" />
    <glyph glyph-name="ccaron" unicode="&#x10d;" horiz-adv-x="424" 
d="M125 708l105 -102l105 102l8 -5l-113 -222l-113 222zM263 431q48 0 122 -13v-113h-7q-71 82 -139 82q-46 0 -79.5 -44.5t-33.5 -107.5q0 -79 45 -125t120 -46q65 0 113 27l5 -7q-69 -94 -175 -94q-89 0 -149.5 57.5t-60.5 154.5t65.5 163t173.5 66z" />
    <glyph glyph-name="Dcaron" unicode="&#x10e;" horiz-adv-x="734" 
d="M214 840l142 -52l141 52l4 -7l-145 -135l-147 135zM36 0v6l68 54v542l-68 54v6h291q160 0 267 -85.5t107 -235.5q0 -148 -95 -244.5t-250 -96.5h-320zM306 619q-52 0 -83 -1v-554q47 -21 121 -21q100 0 164 82t64 210q0 131 -76 207.5t-190 76.5z" />
    <glyph glyph-name="dcaron" unicode="&#x10f;" horiz-adv-x="504" 
d="M479 504l18 211h86l-94 -211h-10zM259 662v6q100 37 174 57v-651l70 -34v-7q-13 -3 -37.5 -9.5t-36.5 -9.5q-15 -4 -99 -24v59q-23 -23 -56.5 -41.5t-59.5 -18.5q-77 0 -132.5 58t-55.5 146q0 97 64 165t178 68q27 0 60 -3v200zM268 58q37 0 60 21v284q-22 22 -65 22
q-56 0 -91.5 -47.5t-35.5 -118.5q0 -74 37 -117.5t95 -43.5z" />
    <glyph glyph-name="Dcroat" unicode="&#x110;" horiz-adv-x="734" 
d="M36 0v6l67 54v255h-85v43h85v244l-67 54v6h290q160 0 267.5 -85.5t107.5 -235.5q0 -148 -95 -244.5t-250 -96.5h-320zM222 315v-252l1 1q47 -21 121 -21q100 0 163.5 82t63.5 210q0 131 -75 207.5t-190 76.5q-53 0 -84 -1v-260h193v-43h-193z" />
    <glyph glyph-name="dcroat" unicode="&#x111;" horiz-adv-x="504" 
d="M165 524v39h347v-39h-347zM259 662v6q100 37 174 57v-651l70 -34v-7q-13 -3 -37.5 -9.5t-36.5 -9.5q-15 -4 -99 -24v59q-23 -23 -56.5 -41.5t-59.5 -18.5q-77 0 -132.5 58t-55.5 146q0 97 64 165t178 68q27 0 60 -3v200zM268 58q37 0 60 21v284q-22 22 -65 22
q-56 0 -91.5 -47.5t-35.5 -118.5q0 -74 37 -117.5t95 -43.5z" />
    <glyph glyph-name="Emacron" unicode="&#x112;" horiz-adv-x="558" 
d="M36 0v6l68 54v542l-68 54v6h453v-132h-6l-74 88h-186v-246h193l52 70h5v-183h-5l-52 69h-193v-283h206l77 110h6v-155h-476zM170 780h243v-59h-243v59z" />
    <glyph glyph-name="emacron" unicode="&#x113;" horiz-adv-x="411" 
d="M125 239q0 -83 44 -129t118 -46q65 0 109 20l4 -7q-26 -31 -72.5 -59t-102.5 -28q-88 0 -144.5 58.5t-56.5 155.5q0 94 61.5 160.5t139.5 66.5q117 0 166 -152v-2h-264q-2 -24 -2 -38zM220 390q-25 0 -48.5 -19.5t-35.5 -56.5h150q-3 40 -23.5 58t-42.5 18zM111 587h213
v-60h-213v60z" />
    <glyph glyph-name="Ebreve" unicode="&#x114;" horiz-adv-x="558" 
d="M36 0v6l68 54v542l-68 54v6h453v-132h-6l-74 88h-186v-246h193l52 70h5v-183h-5l-52 69h-193v-283h206l77 110h6v-155h-476zM289 707q-54 0 -84 38.5t-33 89.5l7 1q35 -61 110 -61q74 0 110 61l7 -1q-3 -51 -33 -89.5t-84 -38.5z" />
    <glyph glyph-name="ebreve" unicode="&#x115;" horiz-adv-x="411" 
d="M125 239q0 -83 44 -129t118 -46q65 0 109 20l4 -7q-26 -31 -72.5 -59t-102.5 -28q-88 0 -144.5 58.5t-56.5 155.5q0 94 61.5 160.5t139.5 66.5q117 0 166 -152v-2h-264q-2 -24 -2 -38zM220 390q-25 0 -48.5 -19.5t-35.5 -56.5h150q-3 40 -23.5 58t-42.5 18zM214 569
q33 0 58 21t36 51l8 -1q0 -60 -26.5 -99t-75.5 -39q-50 0 -76 38.5t-26 99.5l8 1q11 -30 35.5 -51t58.5 -21z" />
    <glyph glyph-name="Edotaccent" unicode="&#x116;" horiz-adv-x="558" 
d="M232 770q0 26 17.5 43t42.5 17q26 0 43 -17t17 -43q0 -25 -17 -41.5t-43 -16.5q-25 0 -42.5 16.5t-17.5 41.5zM36 0v6l68 54v542l-68 54v6h453v-132h-6l-74 88h-186v-246h193l52 70h5v-183h-5l-52 69h-193v-283h206l77 110h6v-155h-476z" />
    <glyph glyph-name="edotaccent" unicode="&#x117;" horiz-adv-x="411" 
d="M125 239q0 -83 44 -129t118 -46q65 0 109 20l4 -7q-26 -31 -72.5 -59t-102.5 -28q-88 0 -144.5 58.5t-56.5 155.5q0 94 61.5 160.5t139.5 66.5q117 0 166 -152v-2h-264q-2 -24 -2 -38zM220 390q-25 0 -48.5 -19.5t-35.5 -56.5h150q-3 40 -23.5 58t-42.5 18zM159 579
q0 26 17.5 43t42.5 17q26 0 43 -17t17 -43q0 -25 -17 -41.5t-43 -16.5q-25 0 -42.5 16.5t-17.5 41.5z" />
    <glyph glyph-name="Eogonek" unicode="&#x118;" horiz-adv-x="558" 
d="M368 -267q-47 0 -74.5 26t-27.5 68q0 87 149 173h26q-81 -81 -81 -145q0 -32 19 -49t53 -17q19 0 52 9l4 -5q-15 -20 -46.5 -40t-73.5 -20zM36 0v6l68 54v542l-68 54v6h453v-132h-6l-74 88h-186v-246h193l52 70h5v-183h-5l-52 69h-193v-283h206l77 110h6v-155h-476z" />
    <glyph glyph-name="eogonek" unicode="&#x119;" horiz-adv-x="411" 
d="M156 -173q0 47 36.5 87t109.5 92q-41 -16 -77 -16q-88 0 -144.5 58.5t-56.5 155.5q0 94 61.5 160.5t139.5 66.5q117 0 166 -152v-2h-264q-2 -24 -2 -38q0 -83 44 -129t118 -46q65 0 109 20l4 -7q-16 -19 -71 -76q-79 -85 -79 -146q0 -32 19 -49t53 -17q19 0 52 9l4 -5
q-15 -20 -46.5 -40t-73.5 -20q-47 0 -74.5 26t-27.5 68zM220 390q-25 0 -48.5 -19.5t-35.5 -56.5h150q-3 40 -23.5 58t-42.5 18z" />
    <glyph glyph-name="Ecaron" unicode="&#x11a;" horiz-adv-x="558" 
d="M146 840l142 -52l141 52l4 -7l-145 -135l-147 135zM36 0v6l68 54v542l-68 54v6h453v-132h-6l-74 88h-186v-246h193l52 70h5v-183h-5l-52 69h-193v-283h206l77 110h6v-155h-476z" />
    <glyph glyph-name="ecaron" unicode="&#x11b;" horiz-adv-x="411" 
d="M110 708l105 -102l105 102l8 -5l-113 -222l-113 222zM125 239q0 -83 44 -129t118 -46q65 0 109 20l4 -7q-26 -31 -72.5 -59t-102.5 -28q-88 0 -144.5 58.5t-56.5 155.5q0 94 61.5 160.5t139.5 66.5q117 0 166 -152v-2h-264q-2 -24 -2 -38zM220 390q-25 0 -48.5 -19.5
t-35.5 -56.5h150q-3 40 -23.5 58t-42.5 18z" />
    <glyph glyph-name="Gcircumflex" unicode="&#x11c;" horiz-adv-x="720" 
d="M381 843l145 -135l-4 -7l-141 52l-142 -52l-5 7zM643 42q-9 -2 -53.5 -18t-90 -25.5t-97.5 -9.5q-161 0 -264 95t-103 244q0 143 102 244t268 101q106 0 214 -28v-129h-6q-95 111 -218 111q-100 0 -165 -81t-65 -205q0 -131 71.5 -218t177.5 -87q70 0 113 30v218l-81 54
v6h251v-6l-54 -54v-242z" />
    <glyph glyph-name="gcircumflex" unicode="&#x11d;" horiz-adv-x="451" 
d="M210 709l113 -222l-8 -5l-105 102l-105 -102l-8 5zM32 289q0 60 51 101.5t126 41.5q42 0 78 -12h153v-46h-91q40 -38 40 -81q0 -62 -49.5 -103.5t-130.5 -41.5q-32 0 -56 7q-31 -25 -31 -45q0 -16 11 -25t26 -9h180q29 0 64 -32.5t35 -89.5q0 -85 -77.5 -152.5
t-181.5 -67.5q-77 0 -122.5 30t-45.5 74q0 34 27.5 73.5t67.5 72.5q-66 25 -66 89q0 36 13 45l69 47q-90 39 -90 124zM135 -23q-17 -17 -31 -45.5t-14 -55.5q0 -34 34 -56.5t92 -22.5q60 0 103 32t43 78q0 34 -22.5 52t-58.5 18h-141h-5zM134 290q0 -44 22 -74.5t54 -30.5
q33 0 54 30t21 75q0 44 -21.5 75t-53.5 31t-54 -31t-22 -75z" />
    <glyph glyph-name="Gbreve" unicode="&#x11e;" horiz-adv-x="720" 
d="M382 707q-54 0 -84 38.5t-33 89.5l7 1q35 -61 110 -61q74 0 110 61l7 -1q-3 -51 -33 -89.5t-84 -38.5zM643 42q-9 -2 -53.5 -18t-90 -25.5t-97.5 -9.5q-161 0 -264 95t-103 244q0 143 102 244t268 101q106 0 214 -28v-129h-6q-95 111 -218 111q-100 0 -165 -81t-65 -205
q0 -131 71.5 -218t177.5 -87q70 0 113 30v218l-81 54v6h251v-6l-54 -54v-242z" />
    <glyph glyph-name="gbreve" unicode="&#x11f;" horiz-adv-x="451" 
d="M32 289q0 60 51 101.5t126 41.5q42 0 78 -12h153v-46h-91q40 -38 40 -81q0 -62 -49.5 -103.5t-130.5 -41.5q-32 0 -56 7q-31 -25 -31 -45q0 -16 11 -25t26 -9h180q29 0 64 -32.5t35 -89.5q0 -85 -77.5 -152.5t-181.5 -67.5q-77 0 -122.5 30t-45.5 74q0 34 27.5 73.5
t67.5 72.5q-66 25 -66 89q0 36 13 45l69 47q-90 39 -90 124zM135 -23q-17 -17 -31 -45.5t-14 -55.5q0 -34 34 -56.5t92 -22.5q60 0 103 32t43 78q0 34 -22.5 52t-58.5 18h-141h-5zM134 290q0 -44 22 -74.5t54 -30.5q33 0 54 30t21 75q0 44 -21.5 75t-53.5 31t-54 -31
t-22 -75zM209 569q33 0 58 21t36 51l8 -1q0 -60 -26.5 -99t-75.5 -39q-50 0 -76 38.5t-26 99.5l8 1q11 -30 35.5 -51t58.5 -21z" />
    <glyph glyph-name="Gdotaccent" unicode="&#x120;" horiz-adv-x="720" 
d="M319 770q0 26 17.5 43t42.5 17q26 0 43 -17t17 -43q0 -25 -17 -41.5t-43 -16.5q-25 0 -42.5 16.5t-17.5 41.5zM643 42q-9 -2 -53.5 -18t-90 -25.5t-97.5 -9.5q-161 0 -264 95t-103 244q0 143 102 244t268 101q106 0 214 -28v-129h-6q-95 111 -218 111q-100 0 -165 -81
t-65 -205q0 -131 71.5 -218t177.5 -87q70 0 113 30v218l-81 54v6h251v-6l-54 -54v-242z" />
    <glyph glyph-name="gdotaccent" unicode="&#x121;" horiz-adv-x="451" 
d="M32 289q0 60 51 101.5t126 41.5q42 0 78 -12h153v-46h-91q40 -38 40 -81q0 -62 -49.5 -103.5t-130.5 -41.5q-32 0 -56 7q-31 -25 -31 -45q0 -16 11 -25t26 -9h180q29 0 64 -32.5t35 -89.5q0 -85 -77.5 -152.5t-181.5 -67.5q-77 0 -122.5 30t-45.5 74q0 34 27.5 73.5
t67.5 72.5q-66 25 -66 89q0 36 13 45l69 47q-90 39 -90 124zM135 -23q-17 -17 -31 -45.5t-14 -55.5q0 -34 34 -56.5t92 -22.5q60 0 103 32t43 78q0 34 -22.5 52t-58.5 18h-141h-5zM134 290q0 -44 22 -74.5t54 -30.5q33 0 54 30t21 75q0 44 -21.5 75t-53.5 31t-54 -31
t-22 -75zM150 579q0 26 17.5 43t42.5 17q26 0 43 -17t17 -43q0 -25 -17 -41.5t-43 -16.5q-25 0 -42.5 16.5t-17.5 41.5z" />
    <glyph glyph-name="Gcommaaccent" unicode="&#x122;" horiz-adv-x="720" 
d="M444 -134q0 -45 -29 -84.5t-71 -61.5l-12 5q48 58 56 116q-1 -1 -3 -1h-7q-21 0 -34.5 12.5t-13.5 32.5q0 21 15 34.5t37 13.5q28 0 45 -17.5t17 -49.5zM643 42q-9 -2 -53.5 -18t-90 -25.5t-97.5 -9.5q-161 0 -264 95t-103 244q0 143 102 244t268 101q106 0 214 -28v-129
h-6q-95 111 -218 111q-100 0 -165 -81t-65 -205q0 -131 71.5 -218t177.5 -87q70 0 113 30v218l-81 54v6h251v-6l-54 -54v-242z" />
    <glyph glyph-name="gcommaaccent" unicode="&#x123;" horiz-adv-x="451" 
d="M148 565q0 45 29 84.5t71 61.5l12 -5q-20 -24 -36.5 -57t-19.5 -59h3q1 0 3 0.5t4 0.5q21 0 34.5 -12t13.5 -32q0 -23 -14.5 -36t-38.5 -13q-27 0 -44 18.5t-17 48.5zM32 289q0 60 51 101.5t126 41.5q42 0 78 -12h153v-46h-91q40 -38 40 -81q0 -62 -49.5 -103.5
t-130.5 -41.5q-32 0 -56 7q-31 -25 -31 -45q0 -16 11 -25t26 -9h180q29 0 64 -32.5t35 -89.5q0 -85 -77.5 -152.5t-181.5 -67.5q-77 0 -122.5 30t-45.5 74q0 34 27.5 73.5t67.5 72.5q-66 25 -66 89q0 36 13 45l69 47q-90 39 -90 124zM135 -23q-17 -17 -31 -45.5t-14 -55.5
q0 -34 34 -56.5t92 -22.5q60 0 103 32t43 78q0 34 -22.5 52t-58.5 18h-141h-5zM134 290q0 -44 22 -74.5t54 -30.5q33 0 54 30t21 75q0 44 -21.5 75t-53.5 31t-54 -31t-22 -75z" />
    <glyph glyph-name="Hcircumflex" unicode="&#x124;" horiz-adv-x="786" 
d="M224 359h339v243l-68 54v6h255v-6l-68 -54v-542l68 -54v-6h-255v6l68 54v253h-339v-253l68 -54v-6h-256v6l68 54v542l-68 54v6h256v-6l-68 -54v-243zM392 843l145 -135l-4 -7l-141 52l-142 -52l-5 7z" />
    <glyph glyph-name="hcircumflex" unicode="&#x125;" horiz-adv-x="532" 
d="M17 0v6l58 46v572l-59 38v7q1 0 19.5 7.5t39.5 15t51.5 17.5t54.5 16v-367q74 72 151 72q54 0 91.5 -33.5t37.5 -71.5v-273l57 -46v-6h-219v6l56 46v242q0 29 -21.5 49t-61.5 20q-46 0 -91 -40v-271l57 -46v-6h-221zM267 890l145 -135l-4 -7l-141 52l-142 -52l-5 7z" />
    <glyph glyph-name="Hbar" unicode="&#x126;" horiz-adv-x="786" 
d="M18 471v42h750v-42h-750zM224 359h339v243l-68 54v6h255v-6l-68 -54v-542l68 -54v-6h-255v6l68 54v253h-339v-253l68 -54v-6h-256v6l68 54v542l-68 54v6h256v-6l-68 -54v-243z" />
    <glyph glyph-name="hbar" unicode="&#x127;" horiz-adv-x="532" 
d="M-4 524v39h342v-39h-342zM17 0v6l58 46v572l-59 38v7q1 0 19.5 7.5t39.5 15t51.5 17.5t54.5 16v-367q74 72 151 72q54 0 91.5 -33.5t37.5 -71.5v-273l57 -46v-6h-219v6l56 46v242q0 29 -21.5 49t-61.5 20q-46 0 -91 -40v-271l57 -46v-6h-221z" />
    <glyph glyph-name="Itilde" unicode="&#x128;" horiz-adv-x="327" 
d="M36 0v6l68 54v542l-68 54v6h255v-6l-68 -54v-542l68 -54v-6h-255zM110 811q13 0 67.5 -9t68.5 -9q28 0 70 47l7 -2q-11 -39 -36 -76.5t-48 -37.5q-16 0 -69 9t-66 9q-22 0 -70 -48l-6 2q11 39 35.5 77t46.5 38z" />
    <glyph glyph-name="itilde" unicode="&#x129;" horiz-adv-x="255" 
d="M18 0v6l57 46v289l-55 36v6q3 1 28.5 10t63 21t69.5 20v-382l58 -46v-6h-221zM70 618q13 0 61 -13t59 -13q21 0 61 54l7 -3q-8 -45 -29 -82.5t-42 -37.5q-16 0 -62.5 12.5t-57.5 12.5q-22 0 -62 -52l-7 2q9 43 30.5 81.5t41.5 38.5z" />
    <glyph glyph-name="Imacron" unicode="&#x12a;" horiz-adv-x="327" 
d="M36 0v6l68 54v542l-68 54v6h255v-6l-68 -54v-542l68 -54v-6h-255zM43 780h243v-59h-243v59z" />
    <glyph glyph-name="imacron" unicode="&#x12b;" horiz-adv-x="255" 
d="M18 0v6l57 46v289l-55 36v6q3 1 28.5 10t63 21t69.5 20v-382l58 -46v-6h-221zM16 587h213v-60h-213v60z" />
    <glyph glyph-name="Ibreve" unicode="&#x12c;" horiz-adv-x="327" 
d="M36 0v6l68 54v542l-68 54v6h255v-6l-68 -54v-542l68 -54v-6h-255zM164 707q-54 0 -84 38.5t-33 89.5l7 1q35 -61 110 -61q74 0 110 61l7 -1q-3 -51 -33 -89.5t-84 -38.5z" />
    <glyph glyph-name="ibreve" unicode="&#x12d;" horiz-adv-x="255" 
d="M18 0v6l57 46v289l-55 36v6q3 1 28.5 10t63 21t69.5 20v-382l58 -46v-6h-221zM122 569q33 0 58 21t36 51l8 -1q0 -60 -26.5 -99t-75.5 -39q-50 0 -76 38.5t-26 99.5l8 1q11 -30 35.5 -51t58.5 -21z" />
    <glyph glyph-name="Iogonek" unicode="&#x12e;" horiz-adv-x="327" 
d="M179 -267q-46 0 -74 26.5t-28 67.5q0 76 114 173h26q-46 -78 -46 -142q0 -33 19.5 -51t52.5 -18q19 0 52 9l4 -5q-15 -20 -47 -40t-73 -20zM36 0v6l68 54v542l-68 54v6h255v-6l-68 -54v-542l68 -54v-6h-255z" />
    <glyph glyph-name="iogonek" unicode="&#x12f;" horiz-adv-x="255" 
d="M151 -267q-47 0 -74.5 26.5t-27.5 69.5q0 81 105 171h25q-36 -69 -36 -129q0 -39 18 -60.5t53 -21.5q24 0 49 9l4 -5q-43 -60 -116 -60zM18 0v6l57 46v289l-55 36v6q3 1 28.5 10t63 21t69.5 20v-382l58 -46v-6h-221zM64 579q0 26 17.5 43t42.5 17q26 0 43 -17t17 -43
q0 -25 -17 -41.5t-43 -16.5q-25 0 -42.5 16.5t-17.5 41.5z" />
    <glyph glyph-name="Idotaccent" unicode="&#x130;" horiz-adv-x="327" 
d="M36 0v6l68 54v542l-68 54v6h255v-6l-68 -54v-542l68 -54v-6h-255zM104 770q0 26 17.5 43t42.5 17q26 0 43 -17t17 -43q0 -25 -17 -41.5t-43 -16.5q-25 0 -42.5 16.5t-17.5 41.5z" />
    <glyph glyph-name="dotlessi" unicode="&#x131;" horiz-adv-x="255" 
d="M18 0v6l57 46v289l-55 36v6q3 1 28.5 10t63 21t69.5 20v-382l58 -46v-6h-221z" />
    <glyph glyph-name="IJ" unicode="&#x132;" horiz-adv-x="639" 
d="M36 0v6l68 54v542l-68 54v6h255v-6l-68 -54v-542l68 -54v-6h-255zM356 656v6h255v-6l-68 -54v-503q0 -72 -53.5 -163.5t-138.5 -154.5l-10 7q83 139 83 355v459z" />
    <glyph glyph-name="ij" unicode="&#x133;" horiz-adv-x="487" 
d="M18 0v6l57 46v289l-55 36v6q3 1 28.5 10t63 21t69.5 20v-382l58 -46v-6h-221zM64 579q0 26 17.5 43t42.5 17q26 0 43 -17t17 -43q0 -25 -17 -41.5t-43 -16.5q-25 0 -42.5 16.5t-17.5 41.5zM308 579q0 26 17.5 43t42.5 17q26 0 43 -17t17 -43q0 -25 -17 -41.5t-43 -16.5
q-25 0 -42.5 16.5t-17.5 41.5zM263 376v7q121 40 161 52v-385q0 -19 -6 -46t-21.5 -66t-50 -87.5t-83.5 -94.5l-9 7q64 134 64 283v295z" />
    <glyph glyph-name="Jcircumflex" unicode="&#x134;" horiz-adv-x="312" 
d="M156 843l145 -135l-4 -7l-141 52l-142 -52l-5 7zM29 656v6h255v-6l-68 -54v-503q0 -72 -53.5 -163.5t-138.5 -154.5l-10 7q83 139 83 355v459z" />
    <glyph glyph-name="jcircumflex" unicode="&#x135;" horiz-adv-x="234" 
d="M11 377v7q121 40 161 52v-386q0 -19 -6 -46t-21.5 -66t-50 -87.5t-83.5 -94.5l-9 7q64 134 64 283v296zM109 709l113 -222l-8 -5l-105 102l-105 -102l-8 5z" />
    <glyph glyph-name="Kcommaaccent" unicode="&#x136;" horiz-adv-x="687" 
d="M422 -134q0 -45 -29 -84.5t-71 -61.5l-12 5q48 58 56 116q-1 -1 -3 -1h-7q-21 0 -34.5 12.5t-13.5 32.5q0 21 15 34.5t37 13.5q28 0 45 -17.5t17 -49.5zM36 0v6l68 54v542l-68 54v6h256v-6l-69 -54v-542l69 -54v-6h-256zM684 0h-275v6l67 54l-205 269h-33l248 273l-68 54
v6h218v-6l-81 -51l-194 -205l251 -340l72 -54v-6z" />
    <glyph glyph-name="kcommaaccent" unicode="&#x137;" horiz-adv-x="502" 
d="M340 -134q0 -45 -29 -84.5t-71 -61.5l-12 5q48 58 56 116q-1 -1 -3 -1h-7q-21 0 -34.5 12.5t-13.5 32.5q0 21 15 34.5t37 13.5q28 0 45 -17.5t17 -49.5zM181 52l56 -46v-6h-219v6l57 46v569l-59 38v7q1 0 19.5 7.5t39.5 15t51.5 17.5t54.5 16v-670zM192 222v6l123 135
l-56 51v6h216v-6l-98 -51l-97 -93l102 -141q67 -94 119 -123v-6q-30 -10 -68 -10q-45 0 -73 19.5t-65 71.5z" />
    <glyph glyph-name="Lacute" unicode="&#x139;" horiz-adv-x="574" 
d="M57 703l-5 9l213 134l35 -84zM533 182h6v-182h-503v6l68 54v542l-68 54v6h255v-6l-68 -54v-557h209z" />
    <glyph glyph-name="lacute" unicode="&#x13a;" horiz-adv-x="255" 
d="M13 732l-5 9l213 134l35 -84zM181 52l58 -46v-6h-221v6l57 46v572l-59 38v7q12 6 65.5 25t99.5 31v-673z" />
    <glyph glyph-name="Lcommaaccent" unicode="&#x13b;" horiz-adv-x="574" 
d="M380 -134q0 -45 -29 -84.5t-71 -61.5l-12 5q48 58 56 116q-1 -1 -3 -1h-7q-21 0 -34.5 12.5t-13.5 32.5q0 21 15 34.5t37 13.5q28 0 45 -17.5t17 -49.5zM533 182h6v-182h-503v6l68 54v542l-68 54v6h255v-6l-68 -54v-557h209z" />
    <glyph glyph-name="lcommaaccent" unicode="&#x13c;" horiz-adv-x="255" 
d="M190 -134q0 -45 -29 -84.5t-71 -61.5l-12 5q48 58 56 116q-1 -1 -3 -1h-7q-21 0 -34.5 12.5t-13.5 32.5q0 21 15 34.5t37 13.5q28 0 45 -17.5t17 -49.5zM181 52l58 -46v-6h-221v6l57 46v572l-59 38v7q12 6 65.5 25t99.5 31v-673z" />
    <glyph glyph-name="Lcaron" unicode="&#x13d;" horiz-adv-x="574" 
d="M330 504l18 211h86l-94 -211h-10zM533 182h6v-182h-503v6l68 54v542l-68 54v6h255v-6l-68 -54v-557h209z" />
    <glyph glyph-name="lcaron" unicode="&#x13e;" horiz-adv-x="255" 
d="M227 504l18 211h86l-94 -211h-10zM181 52l58 -46v-6h-221v6l57 46v572l-59 38v7q12 6 65.5 25t99.5 31v-673z" />
    <glyph glyph-name="Ldot" unicode="&#x13f;" horiz-adv-x="574" 
d="M427 358q0 26 18 43.5t44 17.5t43.5 -17.5t17.5 -43.5t-17.5 -43.5t-43.5 -17.5t-44 17.5t-18 43.5zM533 182h6v-182h-503v6l68 54v542l-68 54v6h255v-6l-68 -54v-557h209z" />
    <glyph glyph-name="ldot" unicode="&#x140;" horiz-adv-x="380" 
d="M257 340q0 27 17.5 44t43.5 17q27 0 44.5 -17t17.5 -44q0 -26 -17.5 -43t-44.5 -17q-26 0 -43.5 17t-17.5 43zM181 52l58 -46v-6h-221v6l57 46v572l-59 38v7q12 6 65.5 25t99.5 31v-673z" />
    <glyph glyph-name="Lslash" unicode="&#x141;" horiz-adv-x="574" 
d="M533 182h6v-182h-503v6l68 54v157l-94 -49v49l94 49v336l-68 54v6h255v-6l-68 -54v-273l203 107v-50l-203 -106v-235h209z" />
    <glyph glyph-name="lslash" unicode="&#x142;" horiz-adv-x="255" 
d="M181 52l58 -46v-6h-221v6l57 46v218l-75 -47v47l75 47v307l-59 38v7q12 6 65.5 25t99.5 31v-340l74 47v-48l-74 -47v-285z" />
    <glyph glyph-name="Nacute" unicode="&#x143;" horiz-adv-x="769" 
d="M283 703l-5 9l213 134l35 -84zM32 0v6l72 57v515q-51 57 -78 78v6h164l425 -480v417l-83 57v6h211v-6l-73 -57v-599h-47l-463 517v-454l86 -57v-6h-214z" />
    <glyph glyph-name="nacute" unicode="&#x144;" horiz-adv-x="532" 
d="M225 490l-9 5l98 218l78 -54zM18 0v6l57 46v289l-55 35v7q3 1 28.5 10t63 21t69.5 20v-76q73 73 150 73q54 0 92 -33t38 -71v-275l58 -46v-6h-220v6l56 46v242q0 29 -21.5 49t-61.5 20q-47 0 -91 -39v-272l57 -46v-6h-220z" />
    <glyph glyph-name="Ncommaaccent" unicode="&#x145;" horiz-adv-x="769" 
d="M448 -134q0 -45 -29 -84.5t-71 -61.5l-12 5q48 58 56 116q-1 -1 -3 -1h-7q-21 0 -34.5 12.5t-13.5 32.5q0 21 15 34.5t37 13.5q28 0 45 -17.5t17 -49.5zM32 0v6l72 57v515q-51 57 -78 78v6h164l425 -480v417l-83 57v6h211v-6l-73 -57v-599h-47l-463 517v-454l86 -57v-6
h-214z" />
    <glyph glyph-name="ncommaaccent" unicode="&#x146;" horiz-adv-x="532" 
d="M336 -134q0 -45 -29 -84.5t-71 -61.5l-12 5q48 58 56 116q-1 -1 -3 -1h-7q-21 0 -34.5 12.5t-13.5 32.5q0 21 15 34.5t37 13.5q28 0 45 -17.5t17 -49.5zM18 0v6l57 46v289l-55 35v7q3 1 28.5 10t63 21t69.5 20v-76q73 73 150 73q54 0 92 -33t38 -71v-275l58 -46v-6h-220
v6l56 46v242q0 29 -21.5 49t-61.5 20q-47 0 -91 -39v-272l57 -46v-6h-220z" />
    <glyph glyph-name="Ncaron" unicode="&#x147;" horiz-adv-x="769" 
d="M249 840l142 -52l141 52l4 -7l-145 -135l-147 135zM32 0v6l72 57v515q-51 57 -78 78v6h164l425 -480v417l-83 57v6h211v-6l-73 -57v-599h-47l-463 517v-454l86 -57v-6h-214z" />
    <glyph glyph-name="ncaron" unicode="&#x148;" horiz-adv-x="532" 
d="M159 708l105 -102l105 102l8 -5l-113 -222l-113 222zM18 0v6l57 46v289l-55 35v7q3 1 28.5 10t63 21t69.5 20v-76q73 73 150 73q54 0 92 -33t38 -71v-275l58 -46v-6h-220v6l56 46v242q0 29 -21.5 49t-61.5 20q-47 0 -91 -39v-272l57 -46v-6h-220z" />
    <glyph glyph-name="napostrophe" unicode="&#x149;" horiz-adv-x="570" 
d="M112 618q0 -52 -31 -99t-81 -78l-12 4q57 82 65 150q-1 -1 -3 -1h-9q-23 -2 -38.5 11.5t-15.5 36.5t16.5 37t40.5 14q29 0 48.5 -20t19.5 -55zM56 0v6l57 46v289l-55 35v7q3 1 28.5 10t63 21t69.5 20v-76q73 73 150 73q54 0 92 -33t38 -71v-275l58 -46v-6h-220v6l56 46
v242q0 29 -21.5 49t-61.5 20q-47 0 -91 -39v-272l57 -46v-6h-220z" />
    <glyph glyph-name="Eng" unicode="&#x14a;" horiz-adv-x="768" 
d="M671 74q0 -62 -42.5 -146t-123.5 -147l-11 7q66 105 66 194q0 49 -22 92.5t-82 111.5l-293 330v-453l86 -57v-6h-214v6l72 57v515q-10 10 -29 30t-31.5 32t-17.5 16v6h164l362 -412q46 -51 61 -88v437l-82 57v6h210v-6l-73 -57v-525z" />
    <glyph glyph-name="eng" unicode="&#x14b;" horiz-adv-x="518" 
d="M18 0v6l57 46v289l-55 35v7q3 1 28.5 10t63 21t69.5 20v-76q75 73 151 73q54 0 91.5 -32.5t37.5 -70.5v-278q0 -19 -6 -45.5t-21.5 -66t-50 -88t-83.5 -94.5l-9 7q64 134 64 283v248q0 29 -21.5 49t-61.5 20q-46 0 -91 -40v-271l57 -46v-6h-220z" />
    <glyph glyph-name="Omacron" unicode="&#x14c;" horiz-adv-x="751" 
d="M254 780h243v-59h-243v59zM36 322q0 150 99.5 251t238.5 101q143 0 242 -93.5t99 -241.5q0 -151 -100 -251t-238 -100q-141 0 -241 93.5t-100 240.5zM167 330q0 -131 62 -213t147 -82q86 0 147.5 82t61.5 213q0 132 -63 215t-148 83t-146 -83t-61 -215z" />
    <glyph glyph-name="omacron" unicode="&#x14d;" horiz-adv-x="491" 
d="M138 587h213v-60h-213v60zM24 205q0 98 67 162t154 64q89 0 155.5 -59.5t66.5 -156.5q0 -99 -67.5 -162.5t-155.5 -63.5t-154 59t-66 157zM139 210q0 -75 31.5 -126.5t74.5 -51.5t75.5 52t32.5 126q0 76 -31.5 127.5t-76.5 51.5q-43 0 -74.5 -52.5t-31.5 -126.5z" />
    <glyph glyph-name="Obreve" unicode="&#x14e;" horiz-adv-x="751" 
d="M375 707q-54 0 -84 38.5t-33 89.5l7 1q35 -61 110 -61q74 0 110 61l7 -1q-3 -51 -33 -89.5t-84 -38.5zM36 322q0 150 99.5 251t238.5 101q143 0 242 -93.5t99 -241.5q0 -151 -100 -251t-238 -100q-141 0 -241 93.5t-100 240.5zM167 330q0 -131 62 -213t147 -82
q86 0 147.5 82t61.5 213q0 132 -63 215t-148 83t-146 -83t-61 -215z" />
    <glyph glyph-name="obreve" unicode="&#x14f;" horiz-adv-x="491" 
d="M24 205q0 98 67 162t154 64q89 0 155.5 -59.5t66.5 -156.5q0 -99 -67.5 -162.5t-155.5 -63.5t-154 59t-66 157zM139 210q0 -75 31.5 -126.5t74.5 -51.5t75.5 52t32.5 126q0 76 -31.5 127.5t-76.5 51.5q-43 0 -74.5 -52.5t-31.5 -126.5zM245 569q33 0 58 21t36 51l8 -1
q0 -60 -26.5 -99t-75.5 -39q-50 0 -76 38.5t-26 99.5l8 1q11 -30 35.5 -51t58.5 -21z" />
    <glyph glyph-name="Ohungarumlaut" unicode="&#x150;" horiz-adv-x="751" 
d="M551 860l50 -67l-189 -90l-6 8zM242 703l-6 8l146 149l49 -67zM36 322q0 150 99.5 251t238.5 101q143 0 242 -93.5t99 -241.5q0 -151 -100 -251t-238 -100q-141 0 -241 93.5t-100 240.5zM167 330q0 -131 62 -213t147 -82q86 0 147.5 82t61.5 213q0 132 -63 215t-148 83
t-146 -83t-61 -215z" />
    <glyph glyph-name="ohungarumlaut" unicode="&#x151;" horiz-adv-x="491" 
d="M301 489l-9 4l57 218l74 -32zM169 489l-9 4l57 218l74 -32zM24 205q0 98 67 162t154 64q89 0 155.5 -59.5t66.5 -156.5q0 -99 -67.5 -162.5t-155.5 -63.5t-154 59t-66 157zM139 210q0 -75 31.5 -126.5t74.5 -51.5t75.5 52t32.5 126q0 76 -31.5 127.5t-76.5 51.5
q-43 0 -74.5 -52.5t-31.5 -126.5z" />
    <glyph glyph-name="OE" unicode="&#x152;" horiz-adv-x="916" 
d="M825 442h5v-183h-5l-52 70h-187v-284h201l77 111h6v-156h-471q-158 0 -262 89.5t-104 231.5q0 146 105 243.5t258 97.5h451v-132h-6l-74 88h-181v-246h187zM400 617q-102 0 -169.5 -78.5t-67.5 -207.5q0 -127 69 -205.5t170 -78.5h66v570h-68z" />
    <glyph glyph-name="oe" unicode="&#x153;" horiz-adv-x="745" 
d="M24 205q0 96 66 161t150 65q51 0 95 -24t71 -66q27 42 66.5 66t84.5 24q37 0 65.5 -13.5t47.5 -38t30.5 -47.5t21.5 -53v-2h-264q-2 -24 -2 -38q0 -83 44.5 -129t118.5 -46q64 0 108 20l4 -7q-26 -31 -72.5 -59t-102.5 -28q-107 0 -156 84q-28 -40 -70.5 -62.5
t-90.5 -22.5q-86 0 -150.5 59.5t-64.5 156.5zM139 210q0 -75 30 -126.5t71 -51.5t72 52t31 126q0 77 -30 128t-73 51q-41 0 -71 -52.5t-30 -126.5zM552 390q-26 0 -49.5 -19.5t-35.5 -56.5h150q-3 40 -23.5 58t-41.5 18z" />
    <glyph glyph-name="Racute" unicode="&#x154;" horiz-adv-x="639" 
d="M180 703l-5 9l213 134l35 -84zM36 0v6l68 54v542l-68 54v6h264q102 0 161 -37.5t59 -108.5q0 -56 -35 -97.5t-82 -65.5l113 -194q59 -104 136 -153v-6q-19 -7 -63 -7q-64 0 -101.5 24.5t-74.5 89.5l-120 218h-70v-265l76 -54v-6h-263zM223 620v-255h92q36 0 63.5 37.5
t27.5 88.5q0 65 -36.5 97t-91.5 32h-55z" />
    <glyph glyph-name="racute" unicode="&#x155;" horiz-adv-x="366" 
d="M167 490l-9 5l98 218l78 -54zM20 376v7q3 1 28.5 10t63 21t69.5 20v-92q76 91 106 91q29 0 68 -13l-34 -100q-37 20 -68 20q-34 0 -72 -28v-258l83 -48v-6h-246v6l57 47v288z" />
    <glyph glyph-name="Rcommaaccent" unicode="&#x156;" horiz-adv-x="639" 
d="M420 -134q0 -45 -29 -84.5t-71 -61.5l-12 5q48 58 56 116q-1 -1 -3 -1h-7q-21 0 -34.5 12.5t-13.5 32.5q0 21 15 34.5t37 13.5q28 0 45 -17.5t17 -49.5zM36 0v6l68 54v542l-68 54v6h264q102 0 161 -37.5t59 -108.5q0 -56 -35 -97.5t-82 -65.5l113 -194q59 -104 136 -153
v-6q-19 -7 -63 -7q-64 0 -101.5 24.5t-74.5 89.5l-120 218h-70v-265l76 -54v-6h-263zM223 620v-255h92q36 0 63.5 37.5t27.5 88.5q0 65 -36.5 97t-91.5 32h-55z" />
    <glyph glyph-name="rcommaaccent" unicode="&#x157;" horiz-adv-x="366" 
d="M194 -134q0 -45 -29 -84.5t-71 -61.5l-12 5q48 58 56 116q-1 -1 -3 -1h-7q-21 0 -34.5 12.5t-13.5 32.5q0 21 15 34.5t37 13.5q28 0 45 -17.5t17 -49.5zM20 376v7q3 1 28.5 10t63 21t69.5 20v-92q76 91 106 91q29 0 68 -13l-34 -100q-37 20 -68 20q-34 0 -72 -28v-258
l83 -48v-6h-246v6l57 47v288z" />
    <glyph glyph-name="Rcaron" unicode="&#x158;" horiz-adv-x="639" 
d="M148 840l142 -52l141 52l4 -7l-145 -135l-147 135zM36 0v6l68 54v542l-68 54v6h264q102 0 161 -37.5t59 -108.5q0 -56 -35 -97.5t-82 -65.5l113 -194q59 -104 136 -153v-6q-19 -7 -63 -7q-64 0 -101.5 24.5t-74.5 89.5l-120 218h-70v-265l76 -54v-6h-263zM223 620v-255
h92q36 0 63.5 37.5t27.5 88.5q0 65 -36.5 97t-91.5 32h-55z" />
    <glyph glyph-name="rcaron" unicode="&#x159;" horiz-adv-x="366" 
d="M109 708l105 -102l105 102l8 -5l-113 -222l-113 222zM20 376v7q3 1 28.5 10t63 21t69.5 20v-92q76 91 106 91q29 0 68 -13l-34 -100q-37 20 -68 20q-34 0 -72 -28v-258l83 -48v-6h-246v6l57 47v288z" />
    <glyph glyph-name="Sacute" unicode="&#x15a;" horiz-adv-x="480" 
d="M262 673q76 0 134 -18v-120h-6q-70 94 -139 94q-37 0 -61.5 -22t-24.5 -59q0 -44 25 -72.5t93 -77.5q56 -40 85.5 -67t51.5 -66.5t22 -85.5q0 -82 -58.5 -135.5t-156.5 -53.5q-101 0 -177 39q-13 90 -8 187h8q15 -38 28 -63t34.5 -54.5t50 -45t64.5 -15.5q45 0 74 29.5
t29 74.5q0 48 -26.5 81.5t-91.5 77.5q-79 55 -115 102t-36 107q0 76 56 119.5t145 43.5zM123 703l-5 9l213 134l35 -84z" />
    <glyph glyph-name="sacute" unicode="&#x15b;" horiz-adv-x="346" 
d="M125 490l-9 5l98 218l78 -54zM191 431q56 0 95 -13v-95h-6q-31 35 -53 51t-49 16q-19 0 -32.5 -11.5t-13.5 -31.5q0 -13 3.5 -22t17 -20.5t19.5 -16t32 -20.5l16.5 -11t17 -11t15.5 -10.5t15.5 -12.5t12.5 -12.5t12.5 -14t9.5 -15t8 -17.5t4 -19t2 -22q0 -59 -44 -96
t-118 -37q-67 0 -118 24q-12 61 -7 143h7q48 -121 123 -121q26 0 43 16t17 41q0 27 -17 44.5t-60 43.5q-49 31 -74 61.5t-25 74.5q0 52 40.5 83t106.5 31z" />
    <glyph glyph-name="Scircumflex" unicode="&#x15c;" horiz-adv-x="480" 
d="M242 843l145 -135l-4 -7l-141 52l-142 -52l-5 7zM262 673q76 0 134 -18v-120h-6q-70 94 -139 94q-37 0 -61.5 -22t-24.5 -59q0 -44 25 -72.5t93 -77.5q56 -40 85.5 -67t51.5 -66.5t22 -85.5q0 -82 -58.5 -135.5t-156.5 -53.5q-101 0 -177 39q-13 90 -8 187h8
q15 -38 28 -63t34.5 -54.5t50 -45t64.5 -15.5q45 0 74 29.5t29 74.5q0 48 -26.5 81.5t-91.5 77.5q-79 55 -115 102t-36 107q0 76 56 119.5t145 43.5z" />
    <glyph glyph-name="scircumflex" unicode="&#x15d;" horiz-adv-x="346" 
d="M175 709l113 -222l-8 -5l-105 102l-105 -102l-8 5zM191 431q56 0 95 -13v-95h-6q-31 35 -53 51t-49 16q-19 0 -32.5 -11.5t-13.5 -31.5q0 -13 3.5 -22t17 -20.5t19.5 -16t32 -20.5l16.5 -11t17 -11t15.5 -10.5t15.5 -12.5t12.5 -12.5t12.5 -14t9.5 -15t8 -17.5t4 -19
t2 -22q0 -59 -44 -96t-118 -37q-67 0 -118 24q-12 61 -7 143h7q48 -121 123 -121q26 0 43 16t17 41q0 27 -17 44.5t-60 43.5q-49 31 -74 61.5t-25 74.5q0 52 40.5 83t106.5 31z" />
    <glyph glyph-name="Scedilla" unicode="&#x15e;" horiz-adv-x="480" 
d="M262 673q76 0 134 -18v-120h-6q-70 94 -139 94q-37 0 -61.5 -22t-24.5 -59q0 -44 25 -72.5t93 -77.5q56 -40 85.5 -67t51.5 -66.5t22 -85.5q0 -82 -58.5 -135.5t-156.5 -53.5q-101 0 -177 39q-13 90 -8 187h8q15 -38 28 -63t34.5 -54.5t50 -45t64.5 -15.5q45 0 74 29.5
t29 74.5q0 48 -26.5 81.5t-91.5 77.5q-79 55 -115 102t-36 107q0 76 56 119.5t145 43.5zM246 0l-34 -67q35 -7 61.5 -28.5t26.5 -54.5q0 -44 -44 -76t-136 -46l-5 11q106 50 106 95q0 20 -21 32t-44 15l-2 3q6 11 15 29.5t14 27.5q29 56 29 59h34z" />
    <glyph glyph-name="scedilla" unicode="&#x15f;" horiz-adv-x="346" 
d="M191 431q56 0 95 -13v-95h-6q-31 35 -53 51t-49 16q-19 0 -32.5 -11.5t-13.5 -31.5q0 -13 3.5 -22t17 -20.5t19.5 -16t32 -20.5l16.5 -11t17 -11t15.5 -10.5t15.5 -12.5t12.5 -12.5t12.5 -14t9.5 -15t8 -17.5t4 -19t2 -22q0 -59 -44 -96t-118 -37q-67 0 -118 24
q-12 61 -7 143h7q48 -121 123 -121q26 0 43 16t17 41q0 27 -17 44.5t-60 43.5q-49 31 -74 61.5t-25 74.5q0 52 40.5 83t106.5 31zM188 0l-34 -67q35 -7 61.5 -28.5t26.5 -54.5q0 -44 -44 -76t-136 -46l-5 11q106 50 106 95q0 20 -21 32t-44 15l-2 3q6 11 15.5 29.5
t13.5 27.5q29 56 29 59h34z" />
    <glyph glyph-name="Scaron" unicode="&#x160;" horiz-adv-x="480" 
d="M101 840l142 -52l141 52l4 -7l-145 -135l-147 135zM262 673q76 0 134 -18v-120h-6q-70 94 -139 94q-37 0 -61.5 -22t-24.5 -59q0 -44 25 -72.5t93 -77.5q56 -40 85.5 -67t51.5 -66.5t22 -85.5q0 -82 -58.5 -135.5t-156.5 -53.5q-101 0 -177 39q-13 90 -8 187h8
q15 -38 28 -63t34.5 -54.5t50 -45t64.5 -15.5q45 0 74 29.5t29 74.5q0 48 -26.5 81.5t-91.5 77.5q-79 55 -115 102t-36 107q0 76 56 119.5t145 43.5z" />
    <glyph glyph-name="scaron" unicode="&#x161;" horiz-adv-x="346" 
d="M69 708l105 -102l105 102l8 -5l-113 -222l-113 222zM191 431q56 0 95 -13v-95h-6q-31 35 -53 51t-49 16q-19 0 -32.5 -11.5t-13.5 -31.5q0 -13 3.5 -22t17 -20.5t19.5 -16t32 -20.5l16.5 -11t17 -11t15.5 -10.5t15.5 -12.5t12.5 -12.5t12.5 -14t9.5 -15t8 -17.5t4 -19
t2 -22q0 -59 -44 -96t-118 -37q-67 0 -118 24q-12 61 -7 143h7q48 -121 123 -121q26 0 43 16t17 41q0 27 -17 44.5t-60 43.5q-49 31 -74 61.5t-25 74.5q0 52 40.5 83t106.5 31z" />
    <glyph glyph-name="Tcommaaccent" unicode="&#x162;" horiz-adv-x="652" 
d="M388 -134q0 -45 -29 -84.5t-71 -61.5l-12 5q48 58 56 116q-1 -1 -3 -1h-7q-21 0 -34.5 12.5t-13.5 32.5q0 21 15 34.5t37 13.5q28 0 45 -17.5t17 -49.5zM623 662v-145h-7l-83 100h-147v-556l73 -55v-6h-267v6l74 55v556h-148l-82 -100h-7v145h594z" />
    <glyph glyph-name="tcommaaccent" unicode="&#x163;" horiz-adv-x="371" 
d="M262 -134q0 -45 -29 -84.5t-71 -61.5l-12 5q48 58 56 116q-1 -1 -3 -1h-7q-21 0 -34.5 12.5t-13.5 32.5q0 21 15 34.5t37 13.5q28 0 45 -17.5t17 -49.5zM172 361v-232q0 -31 20.5 -50.5t65.5 -19.5q50 0 84 17l4 -7q-63 -78 -150 -78q-65 0 -97.5 33t-32.5 75v262h-57v7
l163 128v-78h199l-37 -57h-162z" />
    <glyph glyph-name="Tcaron" unicode="&#x164;" horiz-adv-x="652" 
d="M183 840l142 -52l141 52l4 -7l-145 -135l-147 135zM623 662v-145h-7l-83 100h-147v-556l73 -55v-6h-267v6l74 55v556h-148l-82 -100h-7v145h594z" />
    <glyph glyph-name="tcaron" unicode="&#x165;" horiz-adv-x="371" 
d="M218 504l18 211h86l-94 -211h-10zM172 361v-232q0 -31 20.5 -50.5t65.5 -19.5q50 0 84 17l4 -7q-63 -78 -150 -78q-65 0 -97.5 33t-32.5 75v262h-57v7l163 128v-78h199l-37 -57h-162z" />
    <glyph glyph-name="Tbar" unicode="&#x166;" horiz-adv-x="652" 
d="M105 347v43h442v-43h-442zM623 662v-145h-7l-83 100h-147v-556l73 -55v-6h-267v6l74 55v556h-148l-82 -100h-7v145h594z" />
    <glyph glyph-name="tbar" unicode="&#x167;" horiz-adv-x="372" 
d="M6 232v40h329v-40h-329zM172 361v-232q0 -31 20.5 -50.5t65.5 -19.5q50 0 84 17l4 -7q-63 -78 -150 -78q-65 0 -97.5 33t-32.5 75v262h-57v7l163 128v-78h199l-37 -57h-162z" />
    <glyph glyph-name="Utilde" unicode="&#x168;" horiz-adv-x="736" 
d="M644 236q0 -99 -69.5 -172.5t-193.5 -73.5q-136 0 -212 66t-76 178v368l-69 54v6h262v-6l-74 -54v-364q0 -86 50 -132.5t144 -46.5q84 0 133.5 51t49.5 129v363l-74 54v6h196v-6l-67 -54v-366zM344 811q13 0 67.5 -9t68.5 -9q28 0 70 47l7 -2q-11 -39 -36 -76.5
t-48 -37.5q-16 0 -69 9t-66 9q-22 0 -70 -48l-6 2q11 39 35.5 77t46.5 38z" />
    <glyph glyph-name="utilde" unicode="&#x169;" horiz-adv-x="516" 
d="M11 376v7q76 29 160 51v-306q0 -30 19.5 -50t55.5 -20q38 0 91 39v243l-64 37v6q1 0 20 6.5t41 13t53 15.5t56 16v-362l66 -32v-7q-10 -3 -37 -9.5t-40 -9.5q-18 -5 -38.5 -10t-37 -8.5t-19.5 -4.5v71q-75 -71 -144 -71q-55 0 -91.5 33.5t-36.5 78.5v237zM204 618
q13 0 61 -13t59 -13q21 0 61 54l7 -3q-8 -45 -29 -82.5t-42 -37.5q-16 0 -62.5 12.5t-57.5 12.5q-22 0 -62 -52l-7 2q9 43 30.5 81.5t41.5 38.5z" />
    <glyph glyph-name="Umacron" unicode="&#x16a;" horiz-adv-x="736" 
d="M644 236q0 -99 -69.5 -172.5t-193.5 -73.5q-136 0 -212 66t-76 178v368l-69 54v6h262v-6l-74 -54v-364q0 -86 50 -132.5t144 -46.5q84 0 133.5 51t49.5 129v363l-74 54v6h196v-6l-67 -54v-366zM279 780h243v-59h-243v59z" />
    <glyph glyph-name="umacron" unicode="&#x16b;" horiz-adv-x="516" 
d="M11 376v7q76 29 160 51v-306q0 -30 19.5 -50t55.5 -20q38 0 91 39v243l-64 37v6q1 0 20 6.5t41 13t53 15.5t56 16v-362l66 -32v-7q-10 -3 -37 -9.5t-40 -9.5q-18 -5 -38.5 -10t-37 -8.5t-19.5 -4.5v71q-75 -71 -144 -71q-55 0 -91.5 33.5t-36.5 78.5v237zM145 587h213
v-60h-213v60z" />
    <glyph glyph-name="Ubreve" unicode="&#x16c;" horiz-adv-x="736" 
d="M644 236q0 -99 -69.5 -172.5t-193.5 -73.5q-136 0 -212 66t-76 178v368l-69 54v6h262v-6l-74 -54v-364q0 -86 50 -132.5t144 -46.5q84 0 133.5 51t49.5 129v363l-74 54v6h196v-6l-67 -54v-366zM393 707q-54 0 -84 38.5t-33 89.5l7 1q35 -61 110 -61q74 0 110 61l7 -1
q-3 -51 -33 -89.5t-84 -38.5z" />
    <glyph glyph-name="ubreve" unicode="&#x16d;" horiz-adv-x="516" 
d="M11 376v7q76 29 160 51v-306q0 -30 19.5 -50t55.5 -20q38 0 91 39v243l-64 37v6q1 0 20 6.5t41 13t53 15.5t56 16v-362l66 -32v-7q-10 -3 -37 -9.5t-40 -9.5q-18 -5 -38.5 -10t-37 -8.5t-19.5 -4.5v71q-75 -71 -144 -71q-55 0 -91.5 33.5t-36.5 78.5v237zM255 569
q33 0 58 21t36 51l8 -1q0 -60 -26.5 -99t-75.5 -39q-50 0 -76 38.5t-26 99.5l8 1q11 -30 35.5 -51t58.5 -21z" />
    <glyph glyph-name="Uring" unicode="&#x16e;" horiz-adv-x="736" 
d="M644 236q0 -99 -69.5 -172.5t-193.5 -73.5q-136 0 -212 66t-76 178v368l-69 54v6h262v-6l-74 -54v-364q0 -86 50 -132.5t144 -46.5q84 0 133.5 51t49.5 129v363l-74 54v6h196v-6l-67 -54v-366zM354 763q0 -21 13.5 -35.5t34.5 -14.5q20 0 34 14.5t14 35.5q0 20 -14 35
t-34 15q-21 0 -34.5 -14.5t-13.5 -35.5zM318 763q0 35 25 59t59 24t59 -24t25 -59t-25 -59t-59 -24q-36 0 -60 23.5t-24 59.5z" />
    <glyph glyph-name="uring" unicode="&#x16f;" horiz-adv-x="516" 
d="M203 577q0 -21 13.5 -35.5t34.5 -14.5q20 0 34 14.5t14 35.5q0 20 -14 35t-34 15q-21 0 -34.5 -14.5t-13.5 -35.5zM167 577q0 35 25 59t59 24t59 -24t25 -59t-25 -59t-59 -24q-36 0 -60 23.5t-24 59.5zM11 376v7q76 29 160 51v-306q0 -30 19.5 -50t55.5 -20q38 0 91 39
v243l-64 37v6q1 0 20 6.5t41 13t53 15.5t56 16v-362l66 -32v-7q-10 -3 -37 -9.5t-40 -9.5q-18 -5 -38.5 -10t-37 -8.5t-19.5 -4.5v71q-75 -71 -144 -71q-55 0 -91.5 33.5t-36.5 78.5v237z" />
    <glyph glyph-name="Uhungarumlaut" unicode="&#x170;" horiz-adv-x="736" 
d="M567 860l50 -67l-189 -90l-6 8zM258 703l-6 8l146 149l49 -67zM644 236q0 -99 -69.5 -172.5t-193.5 -73.5q-136 0 -212 66t-76 178v368l-69 54v6h262v-6l-74 -54v-364q0 -86 50 -132.5t144 -46.5q84 0 133.5 51t49.5 129v363l-74 54v6h196v-6l-67 -54v-366z" />
    <glyph glyph-name="uhungarumlaut" unicode="&#x171;" horiz-adv-x="516" 
d="M11 376v7q76 29 160 51v-306q0 -30 19.5 -50t55.5 -20q38 0 91 39v243l-64 37v6q1 0 20 6.5t41 13t53 15.5t56 16v-362l66 -32v-7q-10 -3 -37 -9.5t-40 -9.5q-18 -5 -38.5 -10t-37 -8.5t-19.5 -4.5v71q-75 -71 -144 -71q-55 0 -91.5 33.5t-36.5 78.5v237zM308 489l-9 4
l57 218l74 -32zM176 489l-9 4l57 218l74 -32z" />
    <glyph glyph-name="Uogonek" unicode="&#x172;" horiz-adv-x="736" 
d="M334 -173q0 47 39 89.5t109 89.5q-48 -16 -101 -16q-136 0 -212 66t-76 178v368l-69 54v6h262v-6l-74 -54v-364q0 -86 50 -132.5t144 -46.5q84 0 133.5 51t49.5 129v363l-74 54v6h196v-6l-67 -54v-366q0 -119 -113 -218q-103 -87 -103 -163q0 -66 71 -66q19 0 52 9l4 -5
q-15 -20 -46.5 -40t-72.5 -20q-47 0 -74.5 25.5t-27.5 68.5z" />
    <glyph glyph-name="uogonek" unicode="&#x173;" horiz-adv-x="516" 
d="M337 63q-76 -72 -144 -72q-55 0 -91.5 33.5t-36.5 78.5v238l-54 35v7q76 29 160 51v-305q0 -31 19 -51t56 -20q43 0 91 39v243l-64 36v7q1 0 20.5 6.5t41 13t52 15.5t55.5 16v-363l67 -31v-7q-12 -3 -53 -13q-33 -8 -93 -23q-73 -80 -73 -143q0 -31 19 -48t53 -17
q19 0 52 9l4 -5q-15 -20 -47 -40t-73 -20q-47 0 -74.5 26t-27.5 68q0 51 43.5 95t97.5 74v67z" />
    <glyph glyph-name="Wcircumflex" unicode="&#x174;" horiz-adv-x="967" 
d="M527 843l145 -135l-4 -7l-141 52l-142 -52l-5 7zM501 602l56 -134l58 134l-46 54v6h148v-6l-51 -54l-86 -189l107 -252l162 441l-60 54v6h174v-6l-58 -54l-228 -612h-23l-153 343l-153 -343h-23l-263 612l-58 54v6h244v-6l-62 -54l185 -441l104 231l-93 210l-56 54v6h223
v-6z" />
    <glyph glyph-name="wcircumflex" unicode="&#x175;" horiz-adv-x="668" 
d="M359 709l113 -222l-8 -5l-105 102l-105 -102l-8 5zM243 27q-2 -5 -5.5 -13.5t-4.5 -11.5q-4 -8 -5 -12h-20q-1 2 -3 7t-4 8q-2 7 -17 40l-138 325l-49 44v6h213v-6l-52 -44l87 -217l73 194l-9 23l-48 44v6h202v-6l-49 -44l79 -217l78 217l-55 44v6h155v-6l-50 -44
l-128 -345l-14 -35h-20q-1 3 -5 13q-7 17 -16 40l-96 244z" />
    <glyph glyph-name="Ycircumflex" unicode="&#x176;" horiz-adv-x="608" 
d="M420 656v6h184v-6l-59 -54l-174 -271v-270l68 -55v-6h-255v6l68 55v251l-190 290l-58 54v6h261v-6l-69 -54l147 -229l145 227zM331 843l145 -135l-4 -7l-141 52l-142 -52l-5 7z" />
    <glyph glyph-name="ycircumflex" unicode="&#x177;" horiz-adv-x="436" 
d="M229 -38q-59 -153 -66 -220h-118v5q81 69 138 216l20 50l-156 356l-50 45v6h220v-6l-54 -45l91 -224l84 224l-56 45v6h157v-6l-50 -45zM235 709l113 -222l-8 -5l-105 102l-105 -102l-8 5z" />
    <glyph glyph-name="Ydieresis" unicode="&#x178;" horiz-adv-x="608" 
d="M420 656v6h184v-6l-59 -54l-174 -271v-270l68 -55v-6h-255v6l68 55v251l-190 290l-58 54v6h261v-6l-69 -54l147 -229l145 227zM234 712q-23 0 -39.5 15.5t-16.5 38.5t16.5 39t39.5 16t39 -16t16 -39t-16 -38.5t-39 -15.5zM484 766q0 -23 -15.5 -38.5t-38.5 -15.5
t-39.5 15.5t-16.5 38.5t16.5 39t39.5 16t38.5 -16t15.5 -39z" />
    <glyph glyph-name="Zacute" unicode="&#x179;" horiz-adv-x="629" 
d="M215 703l-5 9l213 134l35 -84zM183 47h311l94 126h7v-173h-565v9l394 609h-274l-87 -113h-6v157h527v-8z" />
    <glyph glyph-name="zacute" unicode="&#x17a;" horiz-adv-x="411" 
d="M175 490l-9 5l98 218l78 -54zM387 127v-127h-369v10l227 370h-132l-69 -78h-6v118h340v-9l-230 -369h159l74 85h6z" />
    <glyph glyph-name="Zdotaccent" unicode="&#x17b;" horiz-adv-x="629" 
d="M183 47h311l94 126h7v-173h-565v9l394 609h-274l-87 -113h-6v157h527v-8zM260 770q0 26 17.5 43t42.5 17q26 0 43 -17t17 -43q0 -25 -17 -41.5t-43 -16.5q-25 0 -42.5 16.5t-17.5 41.5z" />
    <glyph glyph-name="zdotaccent" unicode="&#x17c;" horiz-adv-x="411" 
d="M387 127v-127h-369v10l227 370h-132l-69 -78h-6v118h340v-9l-230 -369h159l74 85h6zM145 579q0 26 17.5 43t42.5 17q26 0 43 -17t17 -43q0 -25 -17 -41.5t-43 -16.5q-25 0 -42.5 16.5t-17.5 41.5z" />
    <glyph glyph-name="Zcaron" unicode="&#x17d;" horiz-adv-x="629" 
d="M180 840l142 -52l141 52l4 -7l-145 -135l-147 135zM183 47h311l94 126h7v-173h-565v9l394 609h-274l-87 -113h-6v157h527v-8z" />
    <glyph glyph-name="zcaron" unicode="&#x17e;" horiz-adv-x="411" 
d="M103 708l105 -102l105 102l8 -5l-113 -222l-113 222zM387 127v-127h-369v10l227 370h-132l-69 -78h-6v118h340v-9l-230 -369h159l74 85h6z" />
    <glyph glyph-name="florin" unicode="&#x192;" horiz-adv-x="436" 
d="M135 392l10 83q11 81 67 139t148 58q59 0 100 -15l-36 -73h-2q-58 42 -90 42q-29 0 -49 -30t-26 -77l-17 -127h129l-34 -54h-102q-5 -38 -17 -135t-18 -138q-5 -30 -12.5 -58.5t-25.5 -64.5t-42.5 -63t-66 -47t-92.5 -23l-15 75l1 1q46 -8 59 -8q40 0 60 39.5t34 159.5
q17 130 31 262h-93v5l32 49h67z" />
    <glyph glyph-name="Aringacute" unicode="&#x1fa;" horiz-adv-x="645" 
d="M188 6v-6h-184v6l58 54l240 613h21l260 -613l58 -54v-6h-251v6l69 54l-78 186h-193l-71 -184zM204 289h159l-83 196zM212 863l-5 9l213 134l35 -84zM265 779q0 -21 13.5 -35.5t34.5 -14.5q20 0 34 14.5t14 35.5q0 20 -14 35t-34 15q-21 0 -34.5 -14.5t-13.5 -35.5z
M229 779q0 35 25 59t59 24t59 -24t25 -59t-25 -59t-59 -24q-36 0 -60 23.5t-24 59.5z" />
    <glyph glyph-name="aringacute" unicode="&#x1fb;" horiz-adv-x="431" 
d="M260 307q0 30 -17.5 48.5t-50.5 18.5q-34 0 -58 -24v-71l-97 32v5q51 59 86 82q54 35 114 35q62 0 94 -32t32 -70q0 -32 -1.5 -136.5t-1.5 -114.5q33 -21 71 -32v-6l-73 -60q-61 21 -94 60q-66 -54 -110 -54q-56 0 -91 31.5t-35 77.5q0 27 12 47.5t26 24.5l194 54v84z
M259 70q0 11 0.5 49.5t0.5 64.5q-16 -6 -46 -15.5t-53 -17t-25 -8.5q-9 -5 -9 -28q0 -28 18.5 -45.5t52.5 -17.5q33 0 61 18zM142 664l-9 5l98 218l78 -54zM155 572q0 -21 13.5 -35.5t34.5 -14.5q20 0 34 14.5t14 35.5q0 20 -14 35t-34 15q-21 0 -34.5 -14.5t-13.5 -35.5z
M119 572q0 35 25 59t59 24t59 -24t25 -59t-25 -59t-59 -24q-36 0 -60 23.5t-24 59.5z" />
    <glyph glyph-name="AEacute" unicode="&#x1fc;" horiz-adv-x="869" 
d="M470 703l-5 9l213 134l35 -84zM799 662v-132h-6l-74 88h-180v-246h186l52 70h6v-183h-6l-52 69h-186v-283h200l77 111h7v-156h-470v6l68 54v240h-173l-137 -238l71 -56v-6h-186v6l58 54l312 542l-67 54v6h500zM273 343h148v255z" />
    <glyph glyph-name="aeacute" unicode="&#x1fd;" horiz-adv-x="632" 
d="M309 490l-9 5l98 218l78 -54zM255 229q0 14 0.5 41.5t0.5 37.5q0 30 -17 48t-50 18q-32 0 -56 -24v-71l-97 32v5q19 23 30.5 35t39 35.5t59.5 35t68 11.5q70 0 101 -53q54 51 120 51q106 0 164 -131v-4l-261 -78q5 -73 46.5 -114t108.5 -41q60 0 106 21l4 -7
q-26 -31 -72 -59t-101 -28q-95 0 -150 71q-23 -28 -61 -50.5t-76 -22.5q-62 0 -98.5 31t-36.5 78q0 28 11 48t24 26zM198 52q43 0 84 36q-24 44 -27 102q-20 -7 -120 -44q-9 -5 -9 -31q0 -28 18.5 -45.5t53.5 -17.5zM448 390q-30 0 -59 -35.5t-32 -96.5l156 52q-3 34 -21 57
t-44 23z" />
    <glyph glyph-name="Oslashacute" unicode="&#x1fe;" horiz-adv-x="751" 
d="M36 322q0 150 99.5 251t238.5 101q90 0 169 -42l54 83l38 -23l-54 -83q134 -98 134 -270q0 -151 -100 -251t-238 -100q-96 0 -173 43l-63 -97l-37 23l64 98q-132 97 -132 267zM585 330q0 119 -54 202l-285 -436q55 -61 130 -61q86 0 147.5 82t61.5 213zM167 330
q0 -114 51 -198l284 437q-54 59 -128 59q-85 0 -146 -83t-61 -215zM259 703l-5 9l213 134l35 -84z" />
    <glyph glyph-name="oslashacute" unicode="&#x1ff;" horiz-adv-x="491" 
d="M24 205q0 98 67.5 162t154.5 64q49 0 98 -23l45 72l34 -20l-44 -72q88 -62 88 -174q0 -99 -67 -162t-156 -63q-49 0 -100 23l-47 -76l-35 19l48 77q-86 62 -86 173zM356 210q0 62 -21 109l-157 -253q28 -34 67 -34q45 0 78 51.5t33 126.5zM136 210q0 -63 19 -105l157 252
q-30 32 -67 32q-44 0 -76.5 -52t-32.5 -127zM184 490l-9 5l98 218l78 -54z" />
    <glyph glyph-name="Scommaaccent" unicode="&#x218;" horiz-adv-x="480" 
d="M292 -134q0 -45 -29 -84.5t-71 -61.5l-12 5q48 58 56 116q-1 -1 -3 -1h-7q-21 0 -34.5 12.5t-13.5 32.5q0 21 15 34.5t37 13.5q28 0 45 -17.5t17 -49.5zM262 673q76 0 134 -18v-120h-6q-70 94 -139 94q-37 0 -61.5 -22t-24.5 -59q0 -44 25 -72.5t93 -77.5
q56 -40 85.5 -67t51.5 -66.5t22 -85.5q0 -82 -58.5 -135.5t-156.5 -53.5q-101 0 -177 39q-13 90 -8 187h8q15 -38 28 -63t34.5 -54.5t50 -45t64.5 -15.5q45 0 74 29.5t29 74.5q0 48 -26.5 81.5t-91.5 77.5q-79 55 -115 102t-36 107q0 76 56 119.5t145 43.5z" />
    <glyph glyph-name="scommaaccent" unicode="&#x219;" horiz-adv-x="346" 
d="M232 -134q0 -45 -29 -84.5t-71 -61.5l-12 5q48 58 56 116q-1 -1 -3 -1h-7q-21 0 -34.5 12.5t-13.5 32.5q0 21 15 34.5t37 13.5q28 0 45 -17.5t17 -49.5zM191 431q56 0 95 -13v-95h-6q-31 35 -53 51t-49 16q-19 0 -32.5 -11.5t-13.5 -31.5q0 -13 3.5 -22t17 -20.5
t19.5 -16t32 -20.5l16.5 -11t17 -11t15.5 -10.5t15.5 -12.5t12.5 -12.5t12.5 -14t9.5 -15t8 -17.5t4 -19t2 -22q0 -59 -44 -96t-118 -37q-67 0 -118 24q-12 61 -7 143h7q48 -121 123 -121q26 0 43 16t17 41q0 27 -17 44.5t-60 43.5q-49 31 -74 61.5t-25 74.5q0 52 40.5 83
t106.5 31z" />
    <glyph glyph-name="uni021A" unicode="&#x21a;" horiz-adv-x="652" 
d="M388 -134q0 -45 -29 -84.5t-71 -61.5l-12 5q48 58 56 116q-1 -1 -3 -1h-7q-21 0 -34.5 12.5t-13.5 32.5q0 21 15 34.5t37 13.5q28 0 45 -17.5t17 -49.5zM623 662v-145h-7l-83 100h-147v-556l73 -55v-6h-267v6l74 55v556h-148l-82 -100h-7v145h594z" />
    <glyph glyph-name="uni021B" unicode="&#x21b;" horiz-adv-x="371" 
d="M262 -134q0 -45 -29 -84.5t-71 -61.5l-12 5q48 58 56 116q-1 -1 -3 -1h-7q-21 0 -34.5 12.5t-13.5 32.5q0 21 15 34.5t37 13.5q28 0 45 -17.5t17 -49.5zM172 361v-232q0 -31 20.5 -50.5t65.5 -19.5q50 0 84 17l4 -7q-63 -78 -150 -78q-65 0 -97.5 33t-32.5 75v262h-57v7
l163 128v-78h199l-37 -57h-162z" />
    <glyph glyph-name="uni0237" unicode="&#x237;" horiz-adv-x="234" 
d="M11 377v7q121 40 161 52v-386q0 -19 -6 -46t-21.5 -66t-50 -87.5t-83.5 -94.5l-9 7q64 134 64 283v296z" />
    <glyph glyph-name="circumflex" unicode="&#x2c6;" 
d="M200 709l113 -222l-8 -5l-105 102l-105 -102l-8 5z" />
    <glyph glyph-name="caron" unicode="&#x2c7;" 
d="M95 708l105 -102l105 102l8 -5l-113 -222l-113 222z" />
    <glyph glyph-name="breve" unicode="&#x2d8;" 
d="M200 569q33 0 58 21t36 51l8 -1q0 -60 -26.5 -99t-75.5 -39q-50 0 -76 38.5t-26 99.5l8 1q11 -30 35.5 -51t58.5 -21z" />
    <glyph glyph-name="dotaccent" unicode="&#x2d9;" 
d="M140 579q0 26 17.5 43t42.5 17q26 0 43 -17t17 -43q0 -25 -17 -41.5t-43 -16.5q-25 0 -42.5 16.5t-17.5 41.5z" />
    <glyph glyph-name="ring" unicode="&#x2da;" 
d="M152 577q0 -21 13.5 -35.5t34.5 -14.5q20 0 34 14.5t14 35.5q0 20 -14 35t-34 15q-21 0 -34.5 -14.5t-13.5 -35.5zM116 577q0 35 25 59t59 24t59 -24t25 -59t-25 -59t-59 -24q-36 0 -60 23.5t-24 59.5z" />
    <glyph glyph-name="ogonek" unicode="&#x2db;" 
d="M191 -267q-47 0 -74.5 26t-27.5 68q0 87 149 173h26q-81 -81 -81 -145q0 -32 19 -49t53 -17q19 0 52 9l4 -5q-15 -20 -46.5 -40t-73.5 -20z" />
    <glyph glyph-name="tilde" unicode="&#x2dc;" 
d="M142 618q13 0 61 -13t59 -13q21 0 61 54l7 -3q-8 -45 -29 -82.5t-42 -37.5q-16 0 -62.5 12.5t-57.5 12.5q-22 0 -62 -52l-7 2q9 43 30.5 81.5t41.5 38.5z" />
    <glyph glyph-name="hungarumlaut" unicode="&#x2dd;" 
d="M211 489l-9 4l57 218l74 -32zM79 489l-9 4l57 218l74 -32z" />
    <glyph glyph-name="Wgrave" unicode="&#x1e80;" horiz-adv-x="967" 
d="M642 703l-243 59l35 84l212 -134zM501 602l56 -134l58 134l-46 54v6h148v-6l-51 -54l-86 -189l107 -252l162 441l-60 54v6h174v-6l-58 -54l-228 -612h-23l-153 343l-153 -343h-23l-263 612l-58 54v6h244v-6l-62 -54l185 -441l104 231l-93 210l-56 54v6h223v-6z" />
    <glyph glyph-name="wgrave" unicode="&#x1e81;" horiz-adv-x="668" 
d="M243 27q-2 -5 -5.5 -13.5t-4.5 -11.5q-4 -8 -5 -12h-20q-1 2 -3 7t-4 8q-2 7 -17 40l-138 325l-49 44v6h213v-6l-52 -44l87 -217l73 194l-9 23l-48 44v6h202v-6l-49 -44l79 -217l78 217l-55 44v6h155v-6l-50 -44l-128 -345l-14 -35h-20q-1 3 -5 13q-7 17 -16 40l-96 244z
M404 491l-167 168l78 54l98 -217z" />
    <glyph glyph-name="Wacute" unicode="&#x1e82;" horiz-adv-x="967" 
d="M412 703l-5 9l213 134l35 -84zM501 602l56 -134l58 134l-46 54v6h148v-6l-51 -54l-86 -189l107 -252l162 441l-60 54v6h174v-6l-58 -54l-228 -612h-23l-153 343l-153 -343h-23l-263 612l-58 54v6h244v-6l-62 -54l185 -441l104 231l-93 210l-56 54v6h223v-6z" />
    <glyph glyph-name="wacute" unicode="&#x1e83;" horiz-adv-x="668" 
d="M317 490l-9 5l98 218l78 -54zM243 27q-2 -5 -5.5 -13.5t-4.5 -11.5q-4 -8 -5 -12h-20q-1 2 -3 7t-4 8q-2 7 -17 40l-138 325l-49 44v6h213v-6l-52 -44l87 -217l73 194l-9 23l-48 44v6h202v-6l-49 -44l79 -217l78 217l-55 44v6h155v-6l-50 -44l-128 -345l-14 -35h-20
q-1 3 -5 13q-7 17 -16 40l-96 244z" />
    <glyph glyph-name="Wdieresis" unicode="&#x1e84;" horiz-adv-x="967" 
d="M433 712q-23 0 -39.5 15.5t-16.5 38.5t16.5 39t39.5 16t39 -16t16 -39t-16 -38.5t-39 -15.5zM683 766q0 -23 -15.5 -38.5t-38.5 -15.5t-39.5 15.5t-16.5 38.5t16.5 39t39.5 16t38.5 -16t15.5 -39zM501 602l56 -134l58 134l-46 54v6h148v-6l-51 -54l-86 -189l107 -252
l162 441l-60 54v6h174v-6l-58 -54l-228 -612h-23l-153 343l-153 -343h-23l-263 612l-58 54v6h244v-6l-62 -54l185 -441l104 231l-93 210l-56 54v6h223v-6z" />
    <glyph glyph-name="wdieresis" unicode="&#x1e85;" horiz-adv-x="668" 
d="M447 629q22 0 37.5 -15.5t15.5 -39.5q0 -23 -15.5 -37.5t-37.5 -14.5q-24 0 -39.5 14.5t-15.5 37.5q0 24 15.5 39.5t39.5 15.5zM270 630q23 0 39 -16t16 -40q0 -23 -16 -38t-39 -15t-38.5 15t-15.5 38q0 24 15.5 40t38.5 16zM243 27q-2 -5 -5.5 -13.5t-4.5 -11.5
q-4 -8 -5 -12h-20q-1 2 -3 7t-4 8q-2 7 -17 40l-138 325l-49 44v6h213v-6l-52 -44l87 -217l73 194l-9 23l-48 44v6h202v-6l-49 -44l79 -217l78 217l-55 44v6h155v-6l-50 -44l-128 -345l-14 -35h-20q-1 3 -5 13q-7 17 -16 40l-96 244z" />
    <glyph glyph-name="Ygrave" unicode="&#x1ef2;" horiz-adv-x="608" 
d="M420 656v6h184v-6l-59 -54l-174 -271v-270l68 -55v-6h-255v6l68 55v251l-190 290l-58 54v6h261v-6l-69 -54l147 -229l145 227zM447 703l-243 59l35 84l212 -134z" />
    <glyph glyph-name="ygrave" unicode="&#x1ef3;" horiz-adv-x="436" 
d="M229 -38q-59 -153 -66 -220h-118v5q81 69 138 216l20 50l-156 356l-50 45v6h220v-6l-54 -45l91 -224l84 224l-56 45v6h157v-6l-50 -45zM288 491l-167 168l78 54l98 -217z" />
    <glyph glyph-name="uni2009" unicode="&#x2009;" horiz-adv-x="43" 
 />
    <glyph glyph-name="endash" unicode="&#x2013;" horiz-adv-x="491" 
d="M46 266h400v-44h-400v44z" />
    <glyph glyph-name="emdash" unicode="&#x2014;" horiz-adv-x="750" 
d="M46 266h658v-44h-658v44z" />
    <glyph glyph-name="quoteleft" unicode="&#x2018;" horiz-adv-x="186" 
d="M27 518q0 52 31 99t81 78l12 -4q-57 -82 -65 -150q1 1 3 1h9q23 2 38.5 -11.5t15.5 -36.5t-16.5 -37t-40.5 -14q-29 0 -48.5 20t-19.5 55z" />
    <glyph glyph-name="quoteright" unicode="&#x2019;" horiz-adv-x="186" 
d="M158 618q0 -52 -31 -99t-81 -78l-12 4q57 82 65 150q-1 -1 -3 -1h-9q-23 -2 -38.5 11.5t-15.5 36.5t16.5 37t40.5 14q29 0 48.5 -20t19.5 -55z" />
    <glyph glyph-name="quotesinglbase" unicode="&#x201a;" horiz-adv-x="189" 
d="M158 39q0 -52 -31 -99t-81 -78l-12 4q57 82 65 150q-1 -1 -3 -1h-9q-23 -2 -38.5 11.5t-15.5 36.5t16.5 37t40.5 14q29 0 48.5 -20t19.5 -55z" />
    <glyph glyph-name="quotedblleft" unicode="&#x201c;" horiz-adv-x="349" 
d="M191 518q0 52 31 99t81 78l12 -4q-57 -82 -65 -150q1 1 3 1h9q23 2 38.5 -11.5t15.5 -36.5t-16.5 -37t-40.5 -14q-29 0 -48.5 20t-19.5 55zM27 518q0 52 31 99t81 78l12 -4q-57 -82 -65 -150q1 1 3 1h9q23 2 38.5 -11.5t15.5 -36.5t-16.5 -37t-40.5 -14q-29 0 -48.5 20
t-19.5 55z" />
    <glyph glyph-name="quotedblright" unicode="&#x201d;" horiz-adv-x="350" 
d="M322 618q0 -52 -31 -99t-81 -78l-12 4q57 82 65 150q-1 -1 -3 -1h-9q-23 -2 -38.5 11.5t-15.5 36.5t16.5 37t40.5 14q29 0 48.5 -20t19.5 -55zM158 618q0 -52 -31 -99t-81 -78l-12 4q57 82 65 150q-1 -1 -3 -1h-9q-23 -2 -38.5 11.5t-15.5 36.5t16.5 37t40.5 14
q29 0 48.5 -20t19.5 -55z" />
    <glyph glyph-name="quotedblbase" unicode="&#x201e;" horiz-adv-x="355" 
d="M322 39q0 -52 -31 -99t-81 -78l-12 4q57 82 65 150q-1 -1 -3 -1h-9q-23 -2 -38.5 11.5t-15.5 36.5t16.5 37t40.5 14q29 0 48.5 -20t19.5 -55zM158 39q0 -52 -31 -99t-81 -78l-12 4q57 82 65 150q-1 -1 -3 -1h-9q-23 -2 -38.5 11.5t-15.5 36.5t16.5 37t40.5 14
q29 0 48.5 -20t19.5 -55z" />
    <glyph glyph-name="dagger" unicode="&#x2020;" horiz-adv-x="377" 
d="M157 -116h-5v572h-134v5l47 50h87v103l62 73h6v-176h139v-6l-46 -49h-93v-499z" />
    <glyph glyph-name="daggerdbl" unicode="&#x2021;" horiz-adv-x="386" 
d="M368 494l-47 -50h-94v-206h135v-6l-47 -50h-88v-135l-63 -73h-5v208h-141v5l47 51h94v206h-135v6l47 49h88v116l63 74h5v-190h141v-5z" />
    <glyph glyph-name="bullet" unicode="&#x2022;" horiz-adv-x="357" 
d="M55 250q0 53 36 89t88 36t88 -36t36 -89t-36 -89t-88 -36t-88 36t-36 89z" />
    <glyph glyph-name="ellipsis" unicode="&#x2026;" horiz-adv-x="589" 
d="M428 50q0 26 17.5 43t43.5 17q27 0 44.5 -17t17.5 -43t-17.5 -43.5t-44.5 -17.5q-26 0 -43.5 17.5t-17.5 43.5zM234 50q0 26 17.5 43t43.5 17q27 0 44.5 -17t17.5 -43t-17.5 -43.5t-44.5 -17.5q-26 0 -43.5 17.5t-17.5 43.5zM39 50q0 26 17.5 43t43.5 17q27 0 44.5 -17
t17.5 -43t-17.5 -43.5t-44.5 -17.5q-26 0 -43.5 17.5t-17.5 43.5z" />
    <glyph glyph-name="perthousand" unicode="&#x2030;" horiz-adv-x="995" 
d="M824 -9q-64 0 -106 41.5t-42 104.5q0 61 43 104.5t105 43.5q63 0 105.5 -41.5t42.5 -104.5q0 -62 -42.5 -105t-105.5 -43zM729 137q0 -43 27.5 -71.5t67.5 -28.5q41 0 67.5 29t26.5 71q0 45 -26.5 73.5t-67.5 28.5t-68 -28.5t-27 -73.5zM486 37q41 0 68 29t27 71
q0 45 -27 73.5t-68 28.5q-40 0 -67 -28.5t-27 -73.5q0 -42 27.5 -71t66.5 -29zM338 137q0 61 43 104.5t105 43.5q63 0 106 -41.5t43 -104.5q0 -62 -43 -105t-106 -43q-64 0 -106 41.5t-42 104.5zM23 522q0 62 43 105t105 43q64 0 106 -41.5t42 -104.5q0 -61 -42.5 -104
t-105.5 -43q-64 0 -106 41.5t-42 103.5zM171 624q-41 0 -68 -28.5t-27 -72.5q0 -43 27.5 -72t67.5 -29q41 0 67.5 29t26.5 72q0 44 -26.5 72.5t-67.5 28.5zM539 662h57l-472 -662h-58z" />
    <glyph glyph-name="uni2032" unicode="&#x2032;" horiz-adv-x="179" 
d="M146 687v-2l-94 -244h-12l12 246h94z" />
    <glyph glyph-name="uni2033" unicode="&#x2033;" horiz-adv-x="320" 
d="M287 687v-2l-94 -244h-12l12 246h94zM146 687v-2l-94 -244h-12l12 246h94z" />
    <glyph glyph-name="guilsinglleft" unicode="&#x2039;" horiz-adv-x="232" 
d="M29 225v2l160 161l10 -6l-72 -156l72 -158l-9 -7z" />
    <glyph glyph-name="guilsinglright" unicode="&#x203a;" horiz-adv-x="232" 
d="M202 227v-2l-161 -164l-9 7l72 158l-72 156l10 6z" />
    <glyph glyph-name="fraction" unicode="&#x2044;" horiz-adv-x="492" 
d="M438 662h54l-439 -662h-53z" />
    <glyph glyph-name="Euro" unicode="&#x20ac;" horiz-adv-x="611" 
d="M408 -10q-121 0 -211 75.5t-107 208.5h-78v40h75v16q0 13 2 43h-77v39h83q23 113 105 187t203 74q92 0 154 -19v-128h-7q-78 101 -166 101q-60 0 -104.5 -59t-58.5 -156h228v-39h-232v-30v-29h232v-40h-228q13 -110 69 -173t120 -63q84 0 153 104h7v-117
q-77 -35 -162 -35z" />
    <glyph glyph-name="trademark" unicode="&#x2122;" horiz-adv-x="672" 
d="M652 657l-31 -27v-216l31 -25v-5h-128v5l31 25v175l-99 -183h-12l-95 180v-172l33 -25v-5h-97v5l33 25v211q-19 25 -28 32v5h92l88 -171l91 171h91v-5zM7 662h258v-72h-6l-37 45h-54v-222l34 -24v-5h-133v5l33 24v222h-54l-36 -46h-5v73z" />
    <glyph glyph-name="onethird" unicode="&#x2153;" horiz-adv-x="526" 
d="M32 370v5l38 28v199l-41 23v4q88 33 121 42v-268l36 -28v-5h-154zM456 662h54l-439 -662h-53zM334 152q36 21 52.5 36.5t16.5 34.5q0 31 -34 31q-21 0 -48 -19l-6 5q29 58 97 58q34 0 52 -14t18 -38q0 -41 -64 -62q40 0 65.5 -19t25.5 -53q0 -48 -46.5 -80.5
t-148.5 -40.5l-3 9q111 46 111 101q0 44 -58 44q-13 0 -27 -2z" />
    <glyph glyph-name="twothirds" unicode="&#x2154;" horiz-adv-x="581" 
d="M240 479h6v-109h-226v15q74 87 97 121t23 63q0 47 -46 47q-32 0 -59 -27l-8 4q10 30 36.5 52.5t69.5 22.5t67.5 -21.5t24.5 -57.5q0 -39 -34.5 -76t-102.5 -84h114zM512 662h54l-439 -662h-53zM389 152q36 21 52.5 36.5t16.5 34.5q0 31 -34 31q-21 0 -48 -19l-6 5
q29 58 97 58q34 0 52 -14t18 -38q0 -41 -64 -62q40 0 65.5 -19t25.5 -53q0 -48 -46.5 -80.5t-148.5 -40.5l-3 9q111 46 111 101q0 44 -58 44q-13 0 -27 -2z" />
    <glyph glyph-name="oneeighth" unicode="&#x215b;" horiz-adv-x="556" 
d="M32 370v5l38 28v199l-41 23v4q88 33 121 42v-268l36 -28v-5h-154zM456 662h54l-439 -662h-53zM428 298q49 0 78.5 -17.5t29.5 -43.5q0 -42 -70 -65q45 -23 63 -45t18 -50q0 -35 -33.5 -59t-91.5 -24q-56 0 -87.5 18t-31.5 48q0 48 78 75q-69 36 -69 85q0 36 32 57t84 21z
M471 59q0 11 -3.5 19t-19 20t-44.5 26q-33 -23 -33 -56q0 -18 13.5 -30t38.5 -12q23 0 35.5 9t12.5 24zM383 240q0 -15 13.5 -27.5t48.5 -30.5q25 16 25 46q0 41 -46 41q-41 0 -41 -29z" />
    <glyph glyph-name="threeeighths" unicode="&#x215c;" horiz-adv-x="555" 
d="M449 662h54l-439 -662h-53zM38 522q36 21 52.5 36.5t16.5 34.5q0 31 -34 31q-21 0 -48 -19l-6 5q29 58 97 58q34 0 52 -14t18 -38q0 -41 -64 -62q40 0 65.5 -19t25.5 -53q0 -48 -46.5 -80.5t-148.5 -40.5l-3 9q111 46 111 101q0 44 -58 44q-13 0 -27 -2zM421 298
q49 0 78.5 -17.5t29.5 -43.5q0 -42 -70 -65q45 -23 63 -45t18 -50q0 -35 -33.5 -59t-91.5 -24q-56 0 -87.5 18t-31.5 48q0 48 78 75q-69 36 -69 85q0 36 32 57t84 21zM464 59q0 11 -3.5 19t-19 20t-44.5 26q-33 -23 -33 -56q0 -18 13.5 -30t38.5 -12q23 0 35.5 9t12.5 24z
M376 240q0 -15 13.5 -27.5t48.5 -30.5q25 16 25 46q0 41 -46 41q-41 0 -41 -29z" />
    <glyph glyph-name="fiveeighths" unicode="&#x215d;" horiz-adv-x="556" 
d="M450 662h54l-439 -662h-53zM218 662l-25 -62h-110l-8 -32q76 -9 108.5 -34.5t32.5 -57.5q0 -45 -48 -76t-146 -39l-3 9q112 42 112 85q0 39 -103 51l42 156h148zM422 298q49 0 78.5 -17.5t29.5 -43.5q0 -42 -70 -65q45 -23 63 -45t18 -50q0 -35 -33.5 -59t-91.5 -24
q-56 0 -87.5 18t-31.5 48q0 48 78 75q-69 36 -69 85q0 36 32 57t84 21zM465 59q0 11 -3.5 19t-19 20t-44.5 26q-33 -23 -33 -56q0 -18 13.5 -30t38.5 -12q23 0 35.5 9t12.5 24zM377 240q0 -15 13.5 -27.5t48.5 -30.5q25 16 25 46q0 41 -46 41q-41 0 -41 -29z" />
    <glyph glyph-name="seveneighths" unicode="&#x215e;" horiz-adv-x="530" 
d="M43 662h201v-5l-132 -287h-47l105 229h-155zM425 662h54l-439 -662h-53zM395 298q49 0 78.5 -17.5t29.5 -43.5q0 -42 -70 -65q45 -23 63 -45t18 -50q0 -35 -33.5 -59t-91.5 -24q-56 0 -87.5 18t-31.5 48q0 48 78 75q-69 36 -69 85q0 36 32 57t84 21zM438 59q0 11 -3.5 19
t-19 20t-44.5 26q-33 -23 -33 -56q0 -18 13.5 -30t38.5 -12q23 0 35.5 9t12.5 24zM350 240q0 -15 13.5 -27.5t48.5 -30.5q25 16 25 46q0 41 -46 41q-41 0 -41 -29z" />
    <glyph glyph-name="minus" unicode="&#x2212;" horiz-adv-x="449" 
d="M43 225v43h363v-43h-363z" />
    <glyph glyph-name="uni24C5" unicode="&#x24c5;" horiz-adv-x="754" 
d="M377 634q-125 0 -207.5 -87.5t-82.5 -214.5q0 -124 85 -213t204 -89q123 0 206.5 87.5t83.5 214.5q0 124 -84 213t-205 89zM542 413q0 -54 -47 -83.5t-112 -29.5v8q73 27 73 95q0 36 -20.5 55.5t-53.5 19.5h-19v-273l46 -34v-5h-173v5l40 34v268l-40 32v4h170
q62 0 99 -24.5t37 -71.5zM377 674q141 0 240.5 -100.5t99.5 -241.5q0 -144 -98 -243t-242 -99q-145 0 -242.5 98.5t-97.5 243.5q0 144 98 243t242 99z" />
    <glyph glyph-name="W.001" horiz-adv-x="947" 
d="M519 673l171 -476l133 405l-70 54v6h185v-6l-59 -54l-201 -612h-22l-177 482l-174 -482h-22l-216 612l-58 54v6h253v-6l-71 -54l136 -404l170 475h22z" />
    <glyph glyph-name="w.001" horiz-adv-x="646" 
d="M239 28q-2 -5 -5.5 -13.5t-4.5 -11.5q-5 -12 -5 -13h-22l-6 15q-7 18 -16 41l-133 324l-49 44v6h213v-6l-52 -44l82 -218l106 278h21l107 -278l73 218l-55 44v6h156v-6l-50 -44l-121 -342q-2 -5 -5.5 -14t-4.5 -12q-2 -4 -4 -12h-22q-4 10 -7 16q-1 4 -6.5 17t-8.5 21
l-89 223z" />
    <glyph glyph-name="acute.uc" 
d="M82 703l-5 9l213 134l35 -84z" />
    <glyph glyph-name="breve.uc" 
d="M200 707q-54 0 -84 38.5t-33 89.5l7 1q35 -61 110 -61q74 0 110 61l7 -1q-3 -51 -33 -89.5t-84 -38.5z" />
    <glyph glyph-name="circumflex.uc" 
d="M201 843l145 -135l-4 -7l-141 52l-142 -52l-5 7z" />
    <glyph glyph-name="dieresis.uc" 
d="M103 712q-23 0 -39.5 15.5t-16.5 38.5t16.5 39t39.5 16t39 -16t16 -39t-16 -38.5t-39 -15.5zM353 766q0 -23 -15.5 -38.5t-38.5 -15.5t-39.5 15.5t-16.5 38.5t16.5 39t39.5 16t38.5 -16t15.5 -39z" />
    <glyph glyph-name="grave.uc" 
d="M319 703l-243 59l35 84l212 -134z" />
    <glyph glyph-name="macron.uc" 
d="M79 780h243v-59h-243v59z" />
    <glyph glyph-name="ring.uc" 
d="M152 779q0 -21 13.5 -35.5t34.5 -14.5q20 0 34 14.5t14 35.5q0 20 -14 35t-34 15q-21 0 -34.5 -14.5t-13.5 -35.5zM116 779q0 35 25 59t59 24t59 -24t25 -59t-25 -59t-59 -24q-36 0 -60 23.5t-24 59.5z" />
    <glyph glyph-name="tilde.uc" 
d="M135 811q13 0 67.5 -9t68.5 -9q28 0 70 47l7 -2q-11 -39 -36 -76.5t-48 -37.5q-16 0 -69 9t-66 9q-22 0 -70 -48l-6 2q11 39 35.5 77t46.5 38z" />
    <glyph glyph-name="Cacute.pl" horiz-adv-x="669" 
d="M402 -11q-159 0 -263 93t-104 246q0 144 102 244.5t268 100.5q85 0 201 -28v-131h-6q-39 48 -93.5 80.5t-115.5 32.5q-96 0 -160.5 -82.5t-64.5 -204.5q0 -135 70.5 -220t169.5 -85q113 0 207 120h6v-123q-30 -16 -88.5 -29.5t-128.5 -13.5zM363 700l-9 1l11 175l95 -30z
" />
    <glyph glyph-name="acute.ucpl" 
d="M164 700l-9 1l11 175l95 -30z" />
    <glyph glyph-name="acute.pl" 
d="M160 488l-10 1l15 225l91 -21z" />
    <glyph glyph-name="caron.uc" 
d="M59 840l142 -52l141 52l4 -7l-145 -135l-147 135z" />
    <glyph glyph-name="dotaccent.uc" 
d="M140 770q0 26 17.5 43t42.5 17q26 0 43 -17t17 -43q0 -25 -17 -41.5t-43 -16.5q-25 0 -42.5 16.5t-17.5 41.5z" />
    <glyph glyph-name="space_uni0326" 
d="M258 -134q0 -45 -29 -84.5t-71 -61.5l-12 5q48 58 56 116q-1 -1 -3 -1h-7q-21 0 -34.5 12.5t-13.5 32.5q0 21 15 34.5t37 13.5q28 0 45 -17.5t17 -49.5z" />
    <glyph glyph-name="K.001" horiz-adv-x="687" 
d="M36 0v6l68 54v542l-68 54v6h256v-6l-69 -54v-542l69 -54v-6h-256zM616 -8q-35 0 -61.5 7.5t-52 29t-41.5 39.5t-49 59l-161 210v6l235 259l-68 54v6h218v-6l-81 -51l-201 -216l156 -204q115 -146 174 -180v-6q-26 -7 -68 -7z" />
    <glyph glyph-name="Kcommaaccent.001" horiz-adv-x="687" 
d="M439 -134q0 -45 -29 -84.5t-71 -61.5l-12 5q48 58 56 116q-1 -1 -3 -1h-7q-21 0 -34.5 12.5t-13.5 32.5q0 21 15 34.5t37 13.5q28 0 45 -17.5t17 -49.5zM36 0v6l68 54v542l-68 54v6h256v-6l-69 -54v-542l69 -54v-6h-256zM616 -8q-35 0 -61.5 7.5t-52 29t-41.5 39.5
t-49 59l-161 210v6l235 259l-68 54v6h218v-6l-81 -51l-201 -216l156 -204q115 -146 174 -180v-6q-26 -7 -68 -7z" />
    <glyph glyph-name="caron.alt" 
d="M148 504l18 211h86l-94 -211h-10z" />
    <glyph glyph-name="Nacute.pl" horiz-adv-x="769" 
d="M386 700l-9 1l11 175l95 -30zM32 0v6l72 57v515q-51 57 -78 78v6h164l425 -480v417l-83 57v6h211v-6l-73 -57v-599h-47l-463 517v-454l86 -57v-6h-214z" />
    <glyph glyph-name="Oacute.pl" horiz-adv-x="751" 
d="M357 700l-9 1l11 175l95 -30zM36 322q0 150 99.5 251t238.5 101q143 0 242 -93.5t99 -241.5q0 -151 -100 -251t-238 -100q-141 0 -241 93.5t-100 240.5zM167 330q0 -131 62 -213t147 -82q86 0 147.5 82t61.5 213q0 132 -63 215t-148 83t-146 -83t-61 -215z" />
    <glyph glyph-name="hungarumlaut.uc" 
d="M332 860l50 -67l-189 -90l-6 8zM23 703l-6 8l146 149l49 -67z" />
    <glyph glyph-name="Q.long" horiz-adv-x="750" 
d="M941 -225q-162 0 -394 95q-213 86 -339 158q-78 44 -125 120t-47 174q0 150 99 251t239 101q143 0 241.5 -93.5t98.5 -241.5q0 -116 -62.5 -207t-169.5 -127q175 -79 270 -108q178 -56 337 -56q109 0 193 25l4 -8q-52 -34 -144.5 -58.5t-200.5 -24.5zM166 330
q0 -131 62.5 -213t147.5 -82q86 0 147.5 82t61.5 213q0 132 -63 215t-148 83t-146.5 -83t-61.5 -215z" />
    <glyph glyph-name="Sacute.pl" horiz-adv-x="480" 
d="M262 673q76 0 134 -18v-120h-6q-70 94 -139 94q-37 0 -61.5 -22t-24.5 -59q0 -44 25 -72.5t93 -77.5q56 -40 85.5 -67t51.5 -66.5t22 -85.5q0 -82 -58.5 -135.5t-156.5 -53.5q-101 0 -177 39q-13 90 -8 187h8q15 -38 28 -63t34.5 -54.5t50 -45t64.5 -15.5q45 0 74 29.5
t29 74.5q0 48 -26.5 81.5t-91.5 77.5q-79 55 -115 102t-36 107q0 76 56 119.5t145 43.5zM228 700l-9 1l11 175l95 -30z" />
    <glyph glyph-name="Wacute.001" horiz-adv-x="947" 
d="M395 703l-5 9l213 134l35 -84zM519 673l171 -476l133 405l-70 54v6h185v-6l-59 -54l-201 -612h-22l-177 482l-174 -482h-22l-216 612l-58 54v6h253v-6l-71 -54l136 -404l170 475h22z" />
    <glyph glyph-name="Wcircumflex.001" horiz-adv-x="947" 
d="M507 843l145 -135l-4 -7l-141 52l-142 -52l-5 7zM519 673l171 -476l133 405l-70 54v6h185v-6l-59 -54l-201 -612h-22l-177 482l-174 -482h-22l-216 612l-58 54v6h253v-6l-71 -54l136 -404l170 475h22z" />
    <glyph glyph-name="Wdieresis.001" horiz-adv-x="947" 
d="M519 673l171 -476l133 405l-70 54v6h185v-6l-59 -54l-201 -612h-22l-177 482l-174 -482h-22l-216 612l-58 54v6h253v-6l-71 -54l136 -404l170 475h22zM409 712q-23 0 -39.5 15.5t-16.5 38.5t16.5 39t39.5 16t39 -16t16 -39t-16 -38.5t-39 -15.5zM659 766
q0 -23 -15.5 -38.5t-38.5 -15.5t-39.5 15.5t-16.5 38.5t16.5 39t39.5 16t38.5 -16t15.5 -39z" />
    <glyph glyph-name="Wgrave.001" horiz-adv-x="947" 
d="M622 703l-243 59l35 84l212 -134zM519 673l171 -476l133 405l-70 54v6h185v-6l-59 -54l-201 -612h-22l-177 482l-174 -482h-22l-216 612l-58 54v6h253v-6l-71 -54l136 -404l170 475h22z" />
    <glyph glyph-name="Zacute.pl" horiz-adv-x="629" 
d="M183 47h311l94 126h7v-173h-565v9l394 609h-274l-87 -113h-6v157h527v-8zM309 700l-9 1l11 175l95 -30z" />
    <glyph glyph-name="ampersand.uc" horiz-adv-x="746" 
d="M746 434q-63 -37 -92.5 -75.5t-85.5 -143.5l-30 -52q73 -97 169 -97q38 0 57 7l3 -4q-25 -31 -65 -53t-87 -22q-80 0 -146 80q-84 -86 -198 -86q-109 0 -177 56.5t-68 139.5q0 72 49 127.5t124 86.5q-73 73 -73 142q0 53 47 93.5t118 40.5q62 0 107.5 -31t45.5 -82
q0 -79 -121 -133q109 -115 185 -223l3 6q29 50 85 165l-72 58v5h222v-5zM439 115q-102 142 -216 259q-82 -58 -82 -155q0 -69 44 -114.5t118 -45.5q77 0 136 56zM222 569q0 -20 10.5 -39.5t23 -33t45.5 -46.5q55 44 55 103q0 37 -19 59.5t-48 22.5t-48 -19t-19 -47z" />
    <glyph glyph-name="at.uc" horiz-adv-x="882" 
d="M561 148q87 11 152.5 76.5t65.5 183.5q0 52 -15.5 97.5t-48 84t-91 60.5t-136.5 22q-85 0 -156.5 -34.5t-117.5 -91t-71.5 -125t-25.5 -138.5q0 -156 91.5 -248.5t236.5 -92.5q167 0 283 100l10 -13q-47 -52 -125 -94t-187 -42q-171 0 -280 101.5t-109 267.5
q0 92 36.5 176t99 145t150 97t184.5 36q163 0 256 -83t93 -201q0 -157 -116 -243t-285 -76l28 137q-39 -56 -84 -95.5t-84 -39.5q-25 0 -46.5 27.5t-21.5 73.5q0 105 80.5 192t208.5 96l104 38zM365 188q19 0 56.5 33t72.5 81l33 163q-73 -4 -126 -78.5t-53 -161.5
q0 -37 17 -37z" />
    <glyph glyph-name="backslash.uc" horiz-adv-x="338" 
d="M19 744l43 12l257 -851l-43 -11z" />
    <glyph glyph-name="slash.uc" horiz-adv-x="337" 
d="M275 756l43 -12l-257 -850l-43 11z" />
    <glyph glyph-name="bar.uc" horiz-adv-x="259" 
d="M107 -106v853h45v-853h-45z" />
    <glyph glyph-name="braceleft.uc" horiz-adv-x="272" 
d="M139 30q0 -79 105 -130l-5 -8q-187 50 -187 155q0 32 35.5 101t35.5 96q0 72 -104 76v24q105 4 105 76q0 26 -36 92t-36 98q0 104 187 150l5 -8q-105 -49 -105 -124q0 -29 29.5 -97.5t29.5 -96.5q0 -35 -31 -64.5t-89 -37.5q59 -9 89.5 -38t30.5 -66q0 -30 -29.5 -99
t-29.5 -99z" />
    <glyph glyph-name="braceright.uc" horiz-adv-x="272" 
d="M133 30q0 30 -29.5 99t-29.5 99q0 37 30.5 66t89.5 38q-58 8 -89 37.5t-31 64.5q0 28 29.5 96.5t29.5 97.5q0 75 -105 124l5 8q187 -46 187 -150q0 -32 -36 -98t-36 -92q0 -72 105 -76v-24q-104 -4 -104 -76q0 -27 35.5 -96t35.5 -101q0 -105 -187 -155l-5 8
q105 51 105 130z" />
    <glyph glyph-name="bracketleft.uc" horiz-adv-x="259" 
d="M242 721h-85v-789h85v-27h-175v844h175v-28z" />
    <glyph glyph-name="bracketright.uc" horiz-adv-x="259" 
d="M101 721h-85v28h175v-844h-175v27h85v789z" />
    <glyph glyph-name="cacute.pl" horiz-adv-x="424" 
d="M263 431q48 0 122 -13v-113h-7q-71 82 -139 82q-46 0 -79.5 -44.5t-33.5 -107.5q0 -79 45 -125t120 -46q65 0 113 27l5 -7q-69 -94 -175 -94q-89 0 -149.5 57.5t-60.5 154.5t65.5 163t173.5 66zM220 488l-10 1l15 225l91 -21z" />
    <glyph glyph-name="space_uni0326.alt" 
d="M142 565q0 45 29 84.5t71 61.5l12 -5q-20 -24 -36.5 -57t-19.5 -59h3q1 0 3 0.5t4 0.5q21 0 34.5 -12t13.5 -32q0 -23 -14.5 -36t-38.5 -13q-27 0 -44 18.5t-17 48.5z" />
    <glyph glyph-name="divide.lin" horiz-adv-x="470" 
d="M178 132q0 25 16.5 41t40.5 16t40 -16t16 -41q0 -23 -16 -39t-40 -16t-40.5 16t-16.5 39zM178 453q0 25 16.5 41.5t40.5 16.5t40 -16.5t16 -41.5q0 -23 -16 -38.5t-40 -15.5t-40.5 15.5t-16.5 38.5zM43 318h384v-43h-384v43z" />
    <glyph glyph-name="eight.den" horiz-adv-x="273" 
d="M139 298q49 0 78.5 -17.5t29.5 -43.5q0 -42 -70 -65q45 -23 63 -45t18 -50q0 -35 -33.5 -59t-91.5 -24q-56 0 -87.5 18t-31.5 48q0 48 78 75q-69 36 -69 85q0 36 32 57t84 21zM182 59q0 11 -3.5 19t-19 20t-44.5 26q-33 -23 -33 -56q0 -18 13.5 -30t38.5 -12q23 0 35.5 9
t12.5 24zM94 240q0 -15 13.5 -27.5t48.5 -30.5q25 16 25 46q0 41 -46 41q-41 0 -41 -29z" />
    <glyph glyph-name="eight.lin" horiz-adv-x="502" 
d="M252 673q85 0 138.5 -40t53.5 -97q0 -91 -132 -162q83 -59 119.5 -104t36.5 -105q0 -76 -61 -126t-161 -50q-95 0 -154.5 41.5t-59.5 108.5q0 57 39.5 100.5t113.5 84.5q-75 53 -103.5 95t-28.5 96q0 70 59 114t140 44zM361 135q0 44 -30 77.5t-116 91.5
q-82 -68 -82 -154q0 -48 32.5 -81.5t83.5 -33.5q50 0 81 29t31 71zM154 546q0 -40 27 -69.5t104 -83.5q63 55 63 131q0 49 -27 77.5t-72 28.5q-42 0 -68.5 -24t-26.5 -60z" />
    <glyph glyph-name="eight.num" horiz-adv-x="273" 
d="M139 668q49 0 78.5 -17.5t29.5 -43.5q0 -42 -70 -65q45 -23 63 -45t18 -50q0 -35 -33.5 -59t-91.5 -24q-56 0 -87.5 18t-31.5 48q0 48 78 75q-69 36 -69 85q0 36 32 57t84 21zM182 429q0 11 -3.5 19t-19 20t-44.5 26q-33 -23 -33 -56q0 -18 13.5 -30t38.5 -12
q23 0 35.5 9t12.5 24zM94 610q0 -15 13.5 -27.5t48.5 -30.5q25 16 25 46q0 41 -46 41q-41 0 -41 -29z" />
    <glyph glyph-name="eight.sub" horiz-adv-x="273" 
d="M139 191q49 0 78.5 -17.5t29.5 -43.5q0 -42 -70 -65q45 -23 63 -45t18 -50q0 -35 -33.5 -59t-91.5 -24q-56 0 -87.5 18t-31.5 48q0 48 78 75q-69 36 -69 85q0 36 32 57t84 21zM182 -48q0 11 -3.5 19t-19 20t-44.5 26q-33 -23 -33 -56q0 -18 13.5 -30t38.5 -12
q23 0 35.5 9t12.5 24zM94 133q0 -15 13.5 -27.5t48.5 -30.5q25 16 25 46q0 41 -46 41q-41 0 -41 -29z" />
    <glyph glyph-name="eight.sup" horiz-adv-x="273" 
d="M139 721q49 0 78.5 -17.5t29.5 -43.5q0 -42 -70 -65q45 -23 63 -45t18 -50q0 -35 -33.5 -59t-91.5 -24q-56 0 -87.5 18t-31.5 48q0 48 78 75q-69 36 -69 85q0 36 32 57t84 21zM182 482q0 11 -3.5 19t-19 20t-44.5 26q-33 -23 -33 -56q0 -18 13.5 -30t38.5 -12
q23 0 35.5 9t12.5 24zM94 663q0 -15 13.5 -27.5t48.5 -30.5q25 16 25 46q0 41 -46 41q-41 0 -41 -29z" />
    <glyph glyph-name="emdash.uc" horiz-adv-x="750" 
d="M46 331h658v-44h-658v44z" />
    <glyph glyph-name="endash.uc" horiz-adv-x="491" 
d="M46 331h400v-44h-400v44z" />
    <glyph glyph-name="equal.lin" horiz-adv-x="462" 
d="M48 222v41h364v-41h-364zM48 320v41h364v-41h-364z" />
    <glyph glyph-name="exclamdown.uc" horiz-adv-x="218" 
d="M47 0q3 25 13 108t22 189t18 158h17q6 -52 18 -158t22 -189t13 -108h-123zM170 612q0 -26 -18 -43t-44 -17t-43.5 17t-17.5 43t17.5 43.5t43.5 17.5t44 -17.5t18 -43.5z" />
    <glyph glyph-name="f.short" horiz-adv-x="314" 
d="M268 6v-6h-252v6l58 46v310h-69v7l69 47v36q0 113 73 188t180 75q37 0 79 -10l-35 -80q-65 41 -96 41q-30 0 -62.5 -44.5t-32.5 -121.5v-83h143l-42 -55h-101v-305z" />
    <glyph glyph-name="f_f.short" horiz-adv-x="582" 
d="M251 6v-6h-235v6l58 46v310h-69v7l69 47v32q0 111 71.5 187t173.5 76q38 0 72 -8l-33 -74q-66 32 -88 32q-31 0 -61 -42.5t-30 -120.5v-81h163v35q0 113 73 188t180 75q37 0 79 -10l-34 -80q-65 41 -97 41q-30 0 -62.5 -44.5t-32.5 -121.5v-83h143l-42 -55h-101v-305
l89 -51v-6h-253v6l58 46v310h-163v-307z" />
    <glyph glyph-name="f_f_k.001" horiz-adv-x="1042" 
d="M251 6v-6h-235v6l58 46v310h-69v7l69 47v32q0 111 71.5 187t173.5 76q38 0 72 -8l-33 -74q-66 32 -88 32q-31 0 -61 -42.5t-30 -120.5v-81h163v36q0 115 76.5 188.5t191.5 73.5q53 0 113 -12v-651l56 -46v-6h-218v6l56 46v600q-25 14 -51 14q-46 0 -82.5 -42.5
t-36.5 -122.5v-84h134l-42 -55h-92v-306l79 -50v-6h-242v6l58 46v310h-163v-307zM920 362l-84 -88l150 -222l56 -46v-6h-216v6l47 45l-111 159h-29l127 152l-57 53v5h217v-6z" />
    <glyph glyph-name="f_k.001" horiz-adv-x="774" 
d="M258 6v-6h-242v6l58 46v310h-69v7l69 47v37q0 114 76.5 188t190.5 74q54 0 114 -12v-651l56 -46v-6h-219v6l57 46v600q-24 14 -52 14q-46 0 -82 -42.5t-36 -122.5v-84h133l-41 -55h-92v-306zM494 210h-29l127 152l-57 53v5h216v-6l-98 -51l-85 -89l150 -222l56 -46v-6
h-216v6l47 45z" />
    <glyph glyph-name="five.den" horiz-adv-x="228" 
d="M208 292l-25 -62h-110l-8 -32q76 -9 108.5 -34.5t32.5 -57.5q0 -45 -48 -76t-146 -39l-3 9q112 42 112 85q0 39 -103 51l42 156h148z" />
    <glyph glyph-name="five.num" horiz-adv-x="228" 
d="M208 662l-25 -62h-110l-8 -32q76 -9 108.5 -34.5t32.5 -57.5q0 -45 -48 -76t-146 -39l-3 9q112 42 112 85q0 39 -103 51l42 156h148z" />
    <glyph glyph-name="five.lin" horiz-adv-x="417" 
d="M364 662l-41 -91h-201l-19 -77q128 -34 199.5 -95.5t71.5 -141.5q0 -90 -89.5 -165t-255.5 -112l-5 11q107 56 169.5 118t62.5 119q0 109 -218 172q61 244 67 262h259z" />
    <glyph glyph-name="five.sub" horiz-adv-x="228" 
d="M208 185l-25 -62h-110l-8 -32q76 -9 108.5 -34.5t32.5 -57.5q0 -45 -48 -76t-146 -39l-3 9q112 42 112 85q0 39 -103 51l42 156h148z" />
    <glyph glyph-name="five.sup" horiz-adv-x="228" 
d="M208 715l-25 -62h-110l-8 -32q76 -9 108.5 -34.5t32.5 -57.5q0 -45 -48 -76t-146 -39l-3 9q112 42 112 85q0 39 -103 51l42 156h148z" />
    <glyph glyph-name="four.den" horiz-adv-x="273" 
d="M249 4v-4h-146v4l35 28v41h-136v13l152 208h60v-176h59l-28 -45h-31v-41zM138 118v106l-77 -106h77z" />
    <glyph glyph-name="four.lin" horiz-adv-x="530" 
d="M465 6v-6h-251v6l68 54v125h-280v8l343 475h52v-404h125l-43 -79h-82v-125zM282 264v241l-174 -241h174z" />
    <glyph glyph-name="four.num" horiz-adv-x="274" 
d="M248 374v-4h-146v4l35 28v41h-135v13l151 208h60v-176h60l-28 -45h-32v-41zM137 488v106l-77 -106h77z" />
    <glyph glyph-name="four.sub" horiz-adv-x="273" 
d="M248 -103v-4h-146v4l35 28v41h-135v13l151 208h60v-176h60l-28 -45h-32v-41zM137 11v106l-77 -106h77z" />
    <glyph glyph-name="four.sup" horiz-adv-x="273" 
d="M248 427v-4h-146v4l35 28v41h-135v13l151 208h60v-176h60l-28 -45h-32v-41zM137 541v106l-77 -106h77z" />
    <glyph glyph-name="greater.lin" horiz-adv-x="434" 
d="M46 187l292 109l-292 111v44l345 -135v-41l-345 -132v44z" />
    <glyph glyph-name="guillemotleft.uc" horiz-adv-x="374" 
d="M330 126l-148 163v3l148 161l11 -5l-67 -158l67 -159zM29 289v3l148 161l11 -5l-67 -158l67 -159l-11 -5z" />
    <glyph glyph-name="guillemotright.uc" horiz-adv-x="374" 
d="M191 289l-148 -163l-11 5l67 159l-67 158l11 5l148 -161v-3zM344 292v-3l-148 -163l-11 5l67 159l-67 158l11 5z" />
    <glyph glyph-name="guilsinglleft.uc" horiz-adv-x="232" 
d="M29 290v2l160 161l10 -6l-72 -156l72 -158l-9 -7z" />
    <glyph glyph-name="guilsinglright.uc" horiz-adv-x="232" 
d="M202 292v-2l-161 -164l-9 7l72 158l-72 156l10 6z" />
    <glyph glyph-name="hyphen.uc" horiz-adv-x="269" 
d="M44 347h181v-80h-181v80z" />
    <glyph glyph-name="idotaccent" horiz-adv-x="255" 
d="M18 0v6l57 46v289l-55 36v6q3 1 28.5 10t63 21t69.5 20v-382l58 -46v-6h-221zM66 579q0 25 17 41.5t41 16.5q25 0 41.5 -16.5t16.5 -41.5q0 -24 -16.5 -40t-41.5 -16q-24 0 -41 16t-17 40z" />
    <glyph glyph-name="k.001" horiz-adv-x="499" 
d="M179 52l54 -46v-6h-217v6l57 46v572l-58 38v7q119 45 164 56v-673zM218 210h-29l127 152l-57 53v5h216v-6l-98 -51l-85 -89l150 -222l56 -46v-6h-216v6l47 45z" />
    <glyph glyph-name="kcommaaccent.001" horiz-adv-x="499" 
d="M325 -134q0 -45 -29 -84.5t-71 -61.5l-12 5q48 58 56 116q-1 -1 -3 -1h-7q-21 0 -34.5 12.5t-13.5 32.5q0 21 15 34.5t37 13.5q28 0 45 -17.5t17 -49.5zM179 52l54 -46v-6h-217v6l57 46v572l-58 38v7q119 45 164 56v-673zM218 210h-29l127 152l-57 53v5h216v-6l-98 -51
l-85 -89l150 -222l56 -46v-6h-216v6l47 45z" />
    <glyph glyph-name="less.lin" horiz-adv-x="434" 
d="M388 143l-346 132v41l346 135v-44l-293 -111l293 -109v-44z" />
    <glyph glyph-name="minus.lin" horiz-adv-x="449" 
d="M43 275v43h363v-43h-363z" />
    <glyph glyph-name="multiply.lin" horiz-adv-x="417" 
d="M46 157l132 138l-132 138l32 31l131 -137l131 137l31 -30l-133 -138l133 -138l-31 -30l-132 136l-131 -136z" />
    <glyph glyph-name="nacute.pl" horiz-adv-x="532" 
d="M256 488l-10 1l15 225l91 -21zM18 0v6l57 46v289l-55 35v7q3 1 28.5 10t63 21t69.5 20v-76q73 73 150 73q54 0 92 -33t38 -71v-275l58 -46v-6h-220v6l56 46v242q0 29 -21.5 49t-61.5 20q-47 0 -91 -39v-272l57 -46v-6h-220z" />
    <glyph glyph-name="nine.den" horiz-adv-x="290" 
d="M60 1q66 39 97 82t31 99q0 40 -16 64t-36 24q-15 0 -27 -17t-12 -42q0 -26 14.5 -41t36.5 -15q5 0 17 3l2 -6q-22 -34 -70 -34q-35 0 -58 21.5t-23 58.5q0 42 34.5 71t83.5 29q58 0 98.5 -32t40.5 -89q0 -76 -58 -123t-150 -62z" />
    <glyph glyph-name="nine.num" horiz-adv-x="290" 
d="M60 371q66 39 97 82t31 99q0 40 -16 64t-36 24q-15 0 -27 -17t-12 -42q0 -26 14.5 -41t36.5 -15q5 0 17 3l2 -6q-22 -34 -70 -34q-35 0 -58 21.5t-23 58.5q0 42 34.5 71t83.5 29q58 0 98.5 -32t40.5 -89q0 -76 -58 -123t-150 -62z" />
    <glyph glyph-name="nine.lin" horiz-adv-x="535" 
d="M80 0q292 153 292 414q0 90 -40.5 155t-89.5 65q-36 0 -65 -40.5t-29 -103.5q0 -68 35.5 -104.5t83.5 -36.5q26 0 62 13l4 -6q-58 -65 -133 -65q-72 0 -121 47t-49 128q0 91 64.5 151t148.5 60q99 0 176 -74.5t77 -200.5q0 -86 -36 -160t-96 -124.5t-131.5 -83
t-147.5 -44.5z" />
    <glyph glyph-name="nine.sub" horiz-adv-x="290" 
d="M60 -106q66 39 97 82t31 99q0 39 -16 63.5t-36 24.5q-15 0 -27 -17t-12 -42q0 -26 14.5 -41t36.5 -15q5 0 17 3l2 -6q-22 -34 -70 -34q-35 0 -58 21.5t-23 58.5q0 42 34.5 71t83.5 29q58 0 98.5 -32t40.5 -89q0 -76 -58 -123t-150 -62z" />
    <glyph glyph-name="nine.sup" horiz-adv-x="290" 
d="M60 424q66 39 97 82t31 99q0 39 -16 63.5t-36 24.5q-15 0 -27 -17t-12 -42q0 -26 14.5 -41t36.5 -15q5 0 17 3l2 -6q-22 -34 -70 -34q-35 0 -58 21.5t-23 58.5q0 42 34.5 71t83.5 29q58 0 98.5 -32t40.5 -89q0 -76 -58 -123t-150 -62z" />
    <glyph glyph-name="oacute.pl" horiz-adv-x="491" 
d="M24 205q0 98 67 162t154 64q89 0 155.5 -59.5t66.5 -156.5q0 -99 -67.5 -162.5t-155.5 -63.5t-154 59t-66 157zM139 210q0 -75 31.5 -126.5t74.5 -51.5t75.5 52t32.5 126q0 76 -31.5 127.5t-76.5 51.5q-43 0 -74.5 -52.5t-31.5 -126.5zM234 488l-10 1l15 225l91 -21z" />
    <glyph glyph-name="one.den" horiz-adv-x="183" 
d="M16 0v5l38 28v199l-41 23v4q88 33 121 42v-268l36 -28v-5h-154z" />
    <glyph glyph-name="one.num" horiz-adv-x="184" 
d="M16 370v5l38 28v199l-41 23v4q88 33 121 42v-268l36 -28v-5h-154z" />
    <glyph glyph-name="one.lin" horiz-adv-x="330" 
d="M34 0v6l73 54v508l-74 33v6q149 57 193 69v-616l73 -54v-6h-265z" />
    <glyph glyph-name="one.sub" horiz-adv-x="183" 
d="M16 -107v5l38 28v199l-41 23v4q88 33 121 42v-268l36 -28v-5h-154z" />
    <glyph glyph-name="one.sup" horiz-adv-x="183" 
d="M16 423v5l38 28v199l-41 23v4q88 33 121 42v-268l36 -28v-5h-154z" />
    <glyph glyph-name="two.den" horiz-adv-x="259" 
d="M230 109h6v-109h-226v15q74 87 97 120.5t23 62.5q0 23 -12.5 35.5t-33.5 12.5q-31 0 -59 -28l-8 5q10 30 36.5 52.5t69.5 22.5t67.5 -21.5t24.5 -57.5q0 -39 -34.5 -76t-102.5 -84h114z" />
    <glyph glyph-name="three.den" horiz-adv-x="220" 
d="M29 152q36 21 52.5 36.5t16.5 34.5q0 31 -34 31q-21 0 -48 -19l-6 5q29 58 97 58q34 0 52 -14t18 -38q0 -41 -64 -62q40 0 65.5 -19t25.5 -53q0 -48 -46.5 -80.5t-148.5 -40.5l-3 9q111 46 111 101q0 44 -58 44q-13 0 -27 -2z" />
    <glyph glyph-name="parenleft.uc" horiz-adv-x="291" 
d="M150 334q0 -93 24 -184.5t47 -140t58 -109.5l-10 -6q-218 199 -218 440q0 71 20.5 139t54.5 122t69 94t74 72l10 -6q-35 -57 -58.5 -103.5t-47 -135t-23.5 -182.5z" />
    <glyph glyph-name="parenright.uc" horiz-adv-x="291" 
d="M145 334q0 94 -23.5 182.5t-47 135t-58.5 103.5l10 6q39 -32 74 -72t69 -94t54.5 -122t20.5 -139q0 -241 -218 -440l-10 6q35 61 58 109.5t47 140t24 184.5z" />
    <glyph glyph-name="plus.lin" horiz-adv-x="475" 
d="M43 318h171v174h47v-174h171v-43h-171v-176h-47v176h-171v43z" />
    <glyph glyph-name="questiondown.uc" horiz-adv-x="354" 
d="M19 117q0 35 14.5 64.5t50.5 64.5q11 11 40 38t37 35q19 18 25 31t6 33q0 11 -0.5 24t-2 27.5t-1.5 20.5h16q55 -105 55 -134q0 -28 -34 -65q-45 -48 -64 -71q-37 -40 -37 -80q0 -34 20.5 -53t49.5 -19q55 0 121 91h7v-122q-44 -12 -121 -12q-80 0 -131 32.5t-51 94.5z
M257 612q0 -26 -17.5 -43t-43.5 -17q-27 0 -44.5 17t-17.5 43t17.5 43.5t44.5 17.5q26 0 43.5 -17.5t17.5 -43.5z" />
    <glyph glyph-name="sacute.pl" horiz-adv-x="346" 
d="M191 431q56 0 95 -13v-95h-6q-31 35 -53 51t-49 16q-19 0 -32.5 -11.5t-13.5 -31.5q0 -13 3.5 -22t17 -20.5t19.5 -16t32 -20.5l16.5 -11t17 -11t15.5 -10.5t15.5 -12.5t12.5 -12.5t12.5 -14t9.5 -15t8 -17.5t4 -19t2 -22q0 -59 -44 -96t-118 -37q-67 0 -118 24
q-12 61 -7 143h7q48 -121 123 -121q26 0 43 16t17 41q0 27 -17 44.5t-60 43.5q-49 31 -74 61.5t-25 74.5q0 52 40.5 83t106.5 31zM166 488l-10 1l15 225l91 -21z" />
    <glyph glyph-name="seven.den" horiz-adv-x="241" 
d="M33 292h201v-5l-132 -287h-47l105 229h-155z" />
    <glyph glyph-name="seven.num" horiz-adv-x="241" 
d="M33 662h201v-5l-132 -287h-47l105 229h-155z" />
    <glyph glyph-name="seven.lin" horiz-adv-x="461" 
d="M50 662h399v-5l-280 -657h-61l243 571h-341z" />
    <glyph glyph-name="seven.sub" horiz-adv-x="241" 
d="M33 185h201v-5l-132 -287h-47l105 229h-155z" />
    <glyph glyph-name="seven.sup" horiz-adv-x="241" 
d="M33 715h201v-5l-132 -287h-47l105 229h-155z" />
    <glyph glyph-name="six.den" horiz-adv-x="289" 
d="M235 291q-133 -75 -133 -186q0 -39 15 -61t34 -22q16 0 28 16.5t12 42.5q0 27 -13.5 42t-36.5 15q-10 0 -16 -2l-2 6q28 32 69 32q36 0 59 -21t23 -56q0 -48 -37.5 -75.5t-86.5 -27.5q-54 0 -93.5 31.5t-39.5 88.5q0 74 62 123t152 62z" />
    <glyph glyph-name="six.num" horiz-adv-x="288" 
d="M235 661q-133 -75 -133 -186q0 -39 15 -61t34 -22q16 0 28 16.5t12 42.5q0 27 -13.5 42t-36.5 15q-10 0 -16 -2l-2 6q28 32 69 32q36 0 59 -21t23 -56q0 -48 -37.5 -75.5t-86.5 -27.5q-54 0 -93.5 31.5t-39.5 88.5q0 74 62 123t152 62z" />
    <glyph glyph-name="six.lin" horiz-adv-x="538" 
d="M465 667q-137 -64 -219.5 -172.5t-82.5 -252.5q0 -90 37.5 -149.5t84.5 -59.5q40 0 71 41.5t31 108.5q0 65 -34 100t-85 35q-33 0 -62 -13l-4 6q58 65 137 65q71 0 118.5 -44t47.5 -125q0 -98 -69 -157t-154 -59q-94 0 -169 71.5t-75 192.5q0 85 37.5 160t99.5 127
t135 86.5t150 48.5z" />
    <glyph glyph-name="six.sub" horiz-adv-x="289" 
d="M235 184q-133 -75 -133 -186q0 -39 15 -61t34 -22q16 0 28 16.5t12 42.5q0 27 -13.5 42t-36.5 15q-10 0 -16 -2l-2 6q28 32 69 32q36 0 59 -21t23 -56q0 -48 -37.5 -75.5t-86.5 -27.5q-54 0 -93.5 31.5t-39.5 88.5q0 74 62 123t152 62z" />
    <glyph glyph-name="six.sup" horiz-adv-x="289" 
d="M235 714q-133 -75 -133 -186q0 -39 15 -61t34 -22q16 0 28 16.5t12 42.5q0 27 -13.5 42t-36.5 15q-10 0 -16 -2l-2 6q28 32 69 32q36 0 59 -21t23 -56q0 -48 -37.5 -75.5t-86.5 -27.5q-54 0 -93.5 31.5t-39.5 88.5q0 74 62 123t152 62z" />
    <glyph glyph-name="three.lin" horiz-adv-x="425" 
d="M74 349q74 53 108.5 92.5t34.5 81.5q0 36 -21.5 57t-61.5 21q-49 0 -101 -52l-8 5q8 18 19 35.5t30.5 37.5t51 32.5t69.5 12.5q62 0 97.5 -31.5t35.5 -83.5q0 -81 -121 -141q77 -2 128 -41t51 -113q0 -109 -101 -181t-264 -97l-5 11q109 49 178.5 111t69.5 132
q0 56 -35 82t-88 26q-36 0 -60 -8z" />
    <glyph glyph-name="three.num" horiz-adv-x="221" 
d="M29 522q36 21 52.5 36.5t16.5 34.5q0 31 -34 31q-21 0 -48 -19l-6 5q29 58 97 58q34 0 52 -14t18 -38q0 -41 -64 -62q40 0 65.5 -19t25.5 -53q0 -48 -46.5 -80.5t-148.5 -40.5l-3 9q111 46 111 101q0 44 -58 44q-13 0 -27 -2z" />
    <glyph glyph-name="three.sub" horiz-adv-x="220" 
d="M29 45q36 21 52.5 36.5t16.5 34.5q0 31 -34 31q-21 0 -48 -19l-6 5q29 58 97 58q34 0 52 -14t18 -38q0 -41 -64 -62q40 0 65.5 -19t25.5 -53q0 -48 -46.5 -80.5t-148.5 -40.5l-3 9q111 46 111 101q0 44 -58 44q-13 0 -27 -2z" />
    <glyph glyph-name="three.sup" horiz-adv-x="220" 
d="M29 575q36 21 52.5 36.5t16.5 34.5q0 31 -34 31q-21 0 -48 -19l-6 5q29 58 97 58q34 0 52 -14t18 -38q0 -41 -64 -62q40 0 65.5 -19t25.5 -53q0 -48 -46.5 -80.5t-148.5 -40.5l-3 9q111 46 111 101q0 44 -58 44q-13 0 -27 -2z" />
    <glyph glyph-name="two.lin" horiz-adv-x="488" 
d="M451 186h7v-186h-443v17q168 217 220.5 302.5t52.5 155.5q0 58 -32.5 89.5t-83.5 31.5q-66 0 -123 -62l-10 6q22 54 69 93t122 39q84 0 132.5 -48t48.5 -123q0 -60 -37.5 -124t-77.5 -107t-154 -154q-16 -17 -25 -25h268z" />
    <glyph glyph-name="two.num" horiz-adv-x="259" 
d="M230 479h6v-109h-226v15q74 87 97 121t23 63q0 47 -46 47q-32 0 -59 -27l-8 4q10 30 36.5 52.5t69.5 22.5t67.5 -21.5t24.5 -57.5q0 -39 -34.5 -76t-102.5 -84h114z" />
    <glyph glyph-name="two.sub" horiz-adv-x="259" 
d="M230 2h6v-109h-226v15q74 87 97 121t23 63q0 47 -46 47q-32 0 -59 -27l-8 4q10 30 36.5 52.5t69.5 22.5t67.5 -21.5t24.5 -57.5q0 -39 -34.5 -76t-102.5 -84h114z" />
    <glyph glyph-name="two.sup" horiz-adv-x="259" 
d="M230 532h6v-109h-226v15q74 87 97 121t23 63q0 47 -46 47q-32 0 -59 -27l-8 4q10 30 36.5 52.5t69.5 22.5t67.5 -21.5t24.5 -57.5q0 -39 -34.5 -76t-102.5 -84h114z" />
    <glyph glyph-name="wacute.001" horiz-adv-x="646" 
d="M306 490l-9 5l98 218l78 -54zM239 28q-2 -5 -5.5 -13.5t-4.5 -11.5q-5 -12 -5 -13h-22l-6 15q-7 18 -16 41l-133 324l-49 44v6h213v-6l-52 -44l82 -218l106 278h21l107 -278l73 218l-55 44v6h156v-6l-50 -44l-121 -342q-2 -5 -5.5 -14t-4.5 -12q-2 -4 -4 -12h-22
q-4 10 -7 16q-1 4 -6.5 17t-8.5 21l-89 223z" />
    <glyph glyph-name="wcircumflex.001" horiz-adv-x="646" 
d="M357 709l113 -222l-8 -5l-105 102l-105 -102l-8 5zM239 28q-2 -5 -5.5 -13.5t-4.5 -11.5q-5 -12 -5 -13h-22l-6 15q-7 18 -16 41l-133 324l-49 44v6h213v-6l-52 -44l82 -218l106 278h21l107 -278l73 218l-55 44v6h156v-6l-50 -44l-121 -342q-2 -5 -5.5 -14t-4.5 -12
q-2 -4 -4 -12h-22q-4 10 -7 16q-1 4 -6.5 17t-8.5 21l-89 223z" />
    <glyph glyph-name="wdieresis.001" horiz-adv-x="646" 
d="M443 629q22 0 37.5 -15.5t15.5 -39.5q0 -23 -15.5 -37.5t-37.5 -14.5q-24 0 -39.5 14.5t-15.5 37.5q0 24 15.5 39.5t39.5 15.5zM266 630q23 0 39 -16t16 -40q0 -23 -16 -38t-39 -15t-38.5 15t-15.5 38q0 24 15.5 40t38.5 16zM239 28q-2 -5 -5.5 -13.5t-4.5 -11.5
q-5 -12 -5 -13h-22l-6 15q-7 18 -16 41l-133 324l-49 44v6h213v-6l-52 -44l82 -218l106 278h21l107 -278l73 218l-55 44v6h156v-6l-50 -44l-121 -342q-2 -5 -5.5 -14t-4.5 -12q-2 -4 -4 -12h-22q-4 10 -7 16q-1 4 -6.5 17t-8.5 21l-89 223z" />
    <glyph glyph-name="wgrave.001" horiz-adv-x="646" 
d="M239 28q-2 -5 -5.5 -13.5t-4.5 -11.5q-5 -12 -5 -13h-22l-6 15q-7 18 -16 41l-133 324l-49 44v6h213v-6l-52 -44l82 -218l106 278h21l107 -278l73 218l-55 44v6h156v-6l-50 -44l-121 -342q-2 -5 -5.5 -14t-4.5 -12q-2 -4 -4 -12h-22q-4 10 -7 16q-1 4 -6.5 17t-8.5 21
l-89 223zM411 491l-167 168l78 54l98 -217z" />
    <glyph glyph-name="zacute.pl" horiz-adv-x="411" 
d="M387 127v-127h-369v10l227 370h-132l-69 -78h-6v118h340v-9l-230 -369h159l74 85h6zM200 488l-10 1l15 225l91 -21z" />
    <glyph glyph-name="zero.den" horiz-adv-x="328" 
d="M105 146q0 -52 18.5 -85.5t41.5 -33.5q24 0 41 33t17 86q0 51 -19 85t-41 34q-24 0 -41 -33.5t-17 -85.5zM19 141q0 67 43 112t101 45q61 0 103.5 -40.5t42.5 -105.5q0 -70 -43.5 -114t-100.5 -44q-59 0 -102.5 41t-43.5 106z" />
    <glyph glyph-name="zero.num" horiz-adv-x="328" 
d="M105 516q0 -52 18.5 -85.5t41.5 -33.5q24 0 41 33t17 86q0 51 -19 85t-41 34q-24 0 -41 -33.5t-17 -85.5zM19 511q0 67 43 112t101 45q61 0 103.5 -40.5t42.5 -105.5q0 -70 -43.5 -114t-100.5 -44q-59 0 -102.5 41t-43.5 106z" />
    <glyph glyph-name="zero.lin" horiz-adv-x="629" 
d="M168 330q0 -126 44 -210t103 -84t103 83.5t44 210.5t-45 212.5t-104 85.5q-58 0 -101.5 -85.5t-43.5 -212.5zM40 322q0 144 81 248t192 104q113 0 194 -97t81 -238q0 -146 -81.5 -248t-190.5 -102q-112 0 -194 96.5t-82 236.5z" />
    <glyph glyph-name="zero.sub" horiz-adv-x="328" 
d="M105 39q0 -52 18.5 -85.5t41.5 -33.5q24 0 41 33t17 86q0 51 -19 85t-41 34q-24 0 -41 -33.5t-17 -85.5zM19 34q0 67 43 112t101 45q61 0 103.5 -40.5t42.5 -105.5q0 -70 -43.5 -114t-100.5 -44q-59 0 -102.5 41t-43.5 106z" />
    <glyph glyph-name="zero.sup" horiz-adv-x="328" 
d="M105 569q0 -52 18.5 -85.5t41.5 -33.5q24 0 41 33t17 86q0 51 -19 85t-41 34q-24 0 -41 -33.5t-17 -85.5zM19 564q0 67 43 112t101 45q61 0 103.5 -40.5t42.5 -105.5q0 -70 -43.5 -114t-100.5 -44q-59 0 -102.5 41t-43.5 106z" />
    </font>
</defs>
</svg>
