<?xml version="1.0" standalone="no"?>
<!DOCTYPE svg PUBLIC "-//W3C//DTD SVG 1.1//EN" "http://www.w3.org/Graphics/SVG/1.1/DTD/svg11.dtd" >
<svg xmlns="http://www.w3.org/2000/svg" xmlns:xlink="http://www.w3.org/1999/xlink" version="1.1">
<metadata>
Created by FontForge 20170731 at Fri Jan  3 06:45:34 2014
 By Aleksey,,,
Copyright (c)2013 Commercial Type.
</metadata>
<defs>
<font id="Portrait-RegularItalic" horiz-adv-x="400" >
  <font-face 
    font-family="Portrait Regular"
    font-weight="400"
    font-style="italic"
    font-stretch="normal"
    units-per-em="1000"
    panose-1="0 0 0 0 0 0 0 0 0 0"
    ascent="730"
    descent="-270"
    x-height="416"
    cap-height="662"
    bbox="-163 -297 1094 1000"
    underline-thickness="34"
    underline-position="20"
    slope="-9"
    unicode-range="U+000D-FB04"
  />
<missing-glyph horiz-adv-x="195" 
 />
    <glyph glyph-name="f_b" unicode="fb" horiz-adv-x="660" 
d="M383 261q41 67 87.5 113t83.5 46q10 0 21.5 -4t26.5 -14.5t24.5 -36t9.5 -61.5q0 -50 -17.5 -104t-48 -101.5t-77.5 -78t-101 -30.5q-55 0 -87.5 37t-21.5 86l111 550q-2 2 -11 6.5t-26.5 9t-35.5 4.5q-90 0 -118 -141q-10 -47 -24 -135h117l-30 -37h-93q-8 -49 -27 -180
t-28 -178q-7 -39 -15 -71t-26.5 -73t-43 -68.5t-65.5 -48t-93 -21.5l-12 55q37 -4 64 -4q37 0 57 20.5t35.5 75.5t36.5 177q9 56 47 316h-76v5l25 32h57q4 18 9.5 53.5t8.5 52.5q13 83 69 143.5t144 60.5q65 0 131 -22zM528 366q-23 0 -66.5 -44.5t-89.5 -115.5
q-15 -72 -21 -104q-1 -4 -3.5 -19t-4.5 -22q0 -14 12.5 -27t36.5 -13q43 0 82.5 44.5t62 109t22.5 126.5q0 65 -31 65z" />
    <glyph glyph-name="f_f_b" unicode="ffb" horiz-adv-x="869" 
d="M56 54q1 4 47 316h-76v5l25 32h57l15 91q13 83 69 143.5t144 60.5q53 0 102 -17q50 32 110 32q68 0 131 -23l-87 -432q101 158 170 158q10 0 21.5 -4t26.5 -14.5t24.5 -36t9.5 -61.5q0 -50 -17.5 -104t-48 -101.5t-77.5 -78t-101 -30.5q-55 0 -87.5 37t-21.5 86l111 550
q-27 20 -73 20q-90 0 -118 -140q-11 -56 -24 -136h120l-30 -37h-96q-12 -68 -30 -184t-23 -148q-7 -39 -14.5 -70.5t-26 -73t-42.5 -69t-65 -48.5t-93 -22l-11 55q31 -4 62 -4q35 0 56 20t39.5 79.5t35.5 174.5q29 204 42 290h-139q-8 -48 -27.5 -179.5t-28.5 -178.5
q-7 -40 -14.5 -71t-26 -72.5t-43 -69t-65.5 -48t-93 -21.5l-12 55q37 -4 64 -4q36 0 56.5 20t37 76.5t35.5 176.5zM737 366q-47 0 -156 -160q-13 -64 -21 -105q-1 -4 -3.5 -19t-4.5 -22q0 -14 12.5 -26.5t36.5 -12.5q43 0 82.5 44.5t62 109t22.5 126.5q0 65 -31 65zM336 513
q13 78 61 135q-37 21 -80 21q-88 0 -117 -141q-9 -43 -21 -121h139q7 51 18 106z" />
    <glyph glyph-name="f_f_h" unicode="ffh" horiz-adv-x="882" 
d="M56 54q1 4 47 316h-76v5l25 32h57l15 91q13 83 69 143.5t144 60.5q53 0 102 -17q50 32 110 32q69 0 134 -24l-92 -432q126 159 211 159q43 0 43 -34q0 -17 -71 -333l58 -28v-6q-47 -16 -142 -27q77 346 77 353q0 10 -13 10q-21 0 -67 -36.5t-105 -99.5l-47 -219h-69
l140 662q-34 21 -76 21q-90 0 -118 -140q-11 -56 -24 -136h120l-30 -37h-96q-12 -68 -30 -184t-23 -148q-7 -39 -14.5 -70.5t-26 -73t-42.5 -69t-65 -48.5t-93 -22l-11 55q31 -4 62 -4q35 0 56 20t39.5 79.5t35.5 174.5q29 204 42 290h-139q-8 -48 -27.5 -179.5
t-28.5 -178.5q-7 -40 -14.5 -71t-26 -72.5t-43 -69t-65.5 -48t-93 -21.5l-12 55q37 -4 64 -4q36 0 56.5 20t37 76.5t35.5 176.5zM200 528q-9 -43 -21 -121h139q7 51 18 106q13 78 61 135q-37 21 -80 21q-88 0 -117 -141z" />
    <glyph glyph-name="f_f_j" unicode="ffj" horiz-adv-x="634" 
d="M412 543q-11 -56 -24 -136h159q26 9 61 16l-75 -401q-21 -118 -162 -272l-8 4q74 136 106 303l60 313h-147q-12 -68 -30 -184t-23 -148q-7 -39 -14.5 -70.5t-26 -73t-42.5 -69t-65 -48.5t-93 -22l-11 55q31 -4 62 -4q35 0 56 20t39.5 79.5t35.5 174.5q29 204 42 290h-139
q-8 -48 -27.5 -179.5t-28.5 -178.5q-7 -40 -14.5 -71t-26 -72.5t-43 -69t-65.5 -48t-93 -21.5l-12 55q37 -4 64 -4q36 0 56.5 20t37 76.5t35.5 176.5q1 4 47 316h-76v5l25 32h57l15 91q13 83 69 143.5t144 60.5q53 0 102 -17q50 32 110 32q68 0 121 -21l-31 -55
q-64 42 -111 42q-88 0 -116 -140zM200 528q-9 -43 -21 -121h139q7 51 18 106q13 78 61 135q-37 21 -80 21q-88 0 -117 -141z" />
    <glyph glyph-name="f_f_k" unicode="ffk" horiz-adv-x="827" 
d="M530 683q-90 0 -118 -140q-11 -56 -24 -136h120l-30 -37h-96q-12 -68 -30 -184t-23 -148q-7 -39 -14.5 -70.5t-26 -73t-42.5 -69t-65 -48.5t-93 -22l-11 55q31 -4 62 -4q35 0 56 20t39.5 79.5t35.5 174.5q29 204 42 290h-139q-8 -48 -27.5 -179.5t-28.5 -178.5
q-7 -40 -14.5 -71t-26 -72.5t-43 -69t-65.5 -48t-93 -21.5l-12 55q37 -4 64 -4q36 0 56.5 20t37 76.5t35.5 176.5q1 4 47 316h-76v5l25 32h57l15 91q13 83 69 143.5t144 60.5q53 0 102 -17q50 32 110 32q64 0 130 -22l-141 -695h-69l134 663q-27 20 -73 20zM200 528
q-9 -43 -21 -121h139q7 51 18 106q13 78 61 135q-37 21 -80 21q-88 0 -117 -141zM596 202q130 119 130 160q0 15 -14 29v5l79 26q13 -16 13 -39q0 -29 -32 -62.5t-115 -97.5q31 -53 55 -92.5t40 -62.5t25 -35.5t18.5 -24t11.5 -14.5l-2 -5q-17 1 -27.5 2t-21.5 2t-19 6
t-15 7.5t-15.5 14t-15 18.5t-18 27t-20 33.5t-26.5 44.5t-32 54z" />
    <glyph glyph-name="f_h" unicode="fh" horiz-adv-x="673" 
d="M558 345q0 10 -13 10q-21 0 -67 -36.5t-105 -99.5l-47 -219h-69l140 662q-34 21 -76 21q-90 0 -118 -141q-10 -47 -24 -135h117l-30 -37h-93q-8 -49 -27 -180t-28 -178q-7 -39 -15 -71t-26.5 -73t-43 -68.5t-65.5 -48t-93 -21.5l-12 55q37 -4 64 -4q37 0 57 20.5
t35.5 75.5t36.5 177q9 56 47 316h-76v5l25 32h57q4 18 9.5 53.5t8.5 52.5q13 83 69 143.5t144 60.5q69 0 134 -24l-92 -432q126 159 211 159q43 0 43 -34q0 -17 -71 -333l58 -28v-6q-47 -16 -142 -27q77 346 77 353z" />
    <glyph glyph-name="f_j" unicode="fj" horiz-adv-x="425" 
d="M56 54q9 56 47 316h-76v5l25 32h57q4 18 9.5 53.5t8.5 52.5q13 83 69 143.5t144 60.5q68 0 121 -21l-31 -55q-64 42 -111 42q-88 0 -116 -140q-10 -49 -24 -136h159q26 9 61 16l-75 -401q-21 -118 -162 -272l-8 4q74 136 106 303l60 313h-147q-8 -49 -27 -180t-28 -178
q-7 -39 -15 -71t-26.5 -73t-43 -68.5t-65.5 -48t-93 -21.5l-12 55q37 -4 64 -4q37 0 57 20.5t35.5 75.5t36.5 177z" />
    <glyph glyph-name="f_k" unicode="fk" horiz-adv-x="618" 
d="M329 0h-69l134 663q-27 20 -73 20q-90 0 -118 -141q-10 -47 -24 -135h117l-30 -37h-93q-8 -49 -27 -180t-28 -178q-7 -39 -15 -71t-26.5 -73t-43 -68.5t-65.5 -48t-93 -21.5l-12 55q37 -4 64 -4q37 0 57 20.5t35.5 75.5t36.5 177q9 56 47 316h-76v5l25 32h57
q4 18 9.5 53.5t8.5 52.5q13 83 69 143.5t144 60.5q64 0 130 -22zM387 202q130 119 130 160q0 15 -14 29v5l79 26q13 -16 13 -39q0 -29 -32 -62.5t-115 -97.5q31 -53 55 -92.5t40 -62.5t25 -35.5t18.5 -24t11.5 -14.5l-2 -5q-17 1 -27.5 2t-21.5 2t-19 6t-15 7.5t-15.5 14
t-15 18.5t-18 27t-20 33.5t-26.5 44.5t-32 54z" />
    <glyph glyph-name="f_f" unicode="ff" horiz-adv-x="468" 
d="M27 375l25 32h57l15 91q13 83 69 143.5t144 60.5q53 0 102 -17q50 32 110 32q68 0 121 -21l-31 -55q-64 42 -111 42q-88 0 -116 -140q-11 -56 -24 -136h120l-30 -37h-96q-12 -68 -30 -184t-23 -148q-7 -39 -14.5 -70.5t-26 -73t-42.5 -69t-65 -48.5t-93 -22l-11 55
q31 -4 62 -4q35 0 56 20t39.5 79.5t35.5 174.5q29 204 42 290h-139q-8 -48 -27.5 -179.5t-28.5 -178.5q-7 -40 -14.5 -71t-26 -72.5t-43 -69t-65.5 -48t-93 -21.5l-12 55q37 -4 64 -4q36 0 56.5 20t37 76.5t35.5 176.5q1 4 47 316h-76v5zM336 513q13 78 61 135
q-37 21 -80 21q-88 0 -117 -141q-9 -43 -21 -121h139q7 51 18 106z" />
    <glyph glyph-name="f_i" unicode="fi" horiz-adv-x="435" 
d="M56 54q9 56 47 316h-76v5l25 32h57q4 18 9.5 53.5t8.5 52.5q13 83 69 143.5t144 60.5q68 0 121 -21l-31 -55q-64 42 -111 42q-88 0 -116 -140q-10 -49 -24 -136h160q24 8 60 16l-69 -370l60 -29v-5q-53 -17 -142 -27l72 378h-147q-8 -49 -27 -180t-28 -178
q-7 -39 -15 -71t-26.5 -73t-43 -68.5t-65.5 -48t-93 -21.5l-12 55q37 -4 64 -4q37 0 57 20.5t35.5 75.5t36.5 177z" />
    <glyph glyph-name="f_l" unicode="fl" horiz-adv-x="450" 
d="M-137 -215q37 -4 64 -4q37 0 57 20.5t35.5 75.5t36.5 177q9 56 47 316h-76v5l25 32h57q4 18 9.5 53.5t8.5 52.5q13 83 69 143.5t144 60.5q68 0 131 -23l-130 -641l61 -29l-1 -5q-47 -16 -143 -27l136 671q-2 2 -11 6.5t-26.5 9t-35.5 4.5q-90 0 -118 -141
q-10 -47 -24 -135h117l-30 -37h-93q-8 -49 -27 -180t-28 -178q-7 -39 -15 -71t-26.5 -73t-43 -68.5t-65.5 -48t-93 -21.5z" />
    <glyph glyph-name="f_f_i" unicode="ffi" horiz-adv-x="643" 
d="M412 543q-11 -56 -24 -136h160q24 8 60 16l-69 -370l60 -29v-5q-53 -17 -142 -27l72 378h-147q-12 -68 -30 -184t-23 -148q-7 -39 -14.5 -70.5t-26 -73t-42.5 -69t-65 -48.5t-93 -22l-11 55q31 -4 62 -4q35 0 56 20t39.5 79.5t35.5 174.5q29 204 42 290h-139
q-8 -48 -27.5 -179.5t-28.5 -178.5q-7 -40 -14.5 -71t-26 -72.5t-43 -69t-65.5 -48t-93 -21.5l-12 55q37 -4 64 -4q36 0 56.5 20t37 76.5t35.5 176.5q1 4 47 316h-76v5l25 32h57l15 91q13 83 69 143.5t144 60.5q53 0 102 -17q50 32 110 32q68 0 121 -21l-31 -55
q-64 42 -111 42q-88 0 -116 -140zM200 528q-9 -43 -21 -121h139q7 51 18 106q13 78 61 135q-37 21 -80 21q-88 0 -117 -141z" />
    <glyph glyph-name="f_f_l" unicode="ffl" horiz-adv-x="653" 
d="M56 54q1 4 47 316h-76v5l25 32h57l15 91q13 83 69 143.5t144 60.5q53 0 102 -17q50 32 110 32q68 0 131 -23l-130 -641l61 -29l-1 -5q-47 -16 -143 -27l136 671q-27 20 -73 20q-90 0 -118 -140q-11 -56 -24 -136h120l-30 -37h-96q-12 -68 -30 -184t-23 -148
q-7 -39 -14.5 -70.5t-26 -73t-42.5 -69t-65 -48.5t-93 -22l-11 55q31 -4 62 -4q35 0 56 20t39.5 79.5t35.5 174.5q29 204 42 290h-139q-8 -48 -27.5 -179.5t-28.5 -178.5q-7 -40 -14.5 -71t-26 -72.5t-43 -69t-65.5 -48t-93 -21.5l-12 55q37 -4 64 -4q36 0 56.5 20t37 76.5
t35.5 176.5zM336 513q13 78 61 135q-37 21 -80 21q-88 0 -117 -141q-9 -43 -21 -121h139q7 51 18 106z" />
    <glyph glyph-name="g_y" unicode="gy" horiz-adv-x="742" 
d="M43 239q0 74 51.5 127.5t113.5 53.5q23 0 44 -10h144l-11 -36h-89q21 -28 21 -63q0 -81 -51.5 -132t-108.5 -51q-9 0 -12 1q-40 -32 -40 -51q0 -20 44 -44q10 -5 38.5 -21t46.5 -26q61 -34 81.5 -56.5t20.5 -43.5q0 -58 -66.5 -104t-152.5 -46q-78 0 -134.5 29t-56.5 66
q0 15 13.5 34t57 49t112.5 60q-68 38 -68 76q0 37 78 83q-33 12 -54.5 40t-21.5 65zM672 349q0 26 -24 47v3l80 22q15 -19 15 -46q0 -62 -170 -310q-16 -24 -25 -37q-136 -212 -185 -299l-77 11v6q118 127 208 252q-7 201 -26 357l-50 27v6q54 19 110 35q25 -158 25 -338
q67 111 93 169t26 95zM136 -39q-135 -63 -135 -116q0 -31 34 -53t85 -22q70 0 111 30t41 60q0 9 -3 15.5t-19.5 20.5t-48.5 31zM205 394q-35 0 -63 -48t-28 -108q0 -45 14.5 -64.5t30.5 -19.5q29 0 58 48.5t29 109.5q0 82 -41 82z" />
    <glyph glyph-name=".notdef" horiz-adv-x="195" 
 />
    <glyph glyph-name=".null" horiz-adv-x="0" 
 />
    <glyph glyph-name="nonmarkingreturn" horiz-adv-x="333" 
 />
    <glyph glyph-name="NULL" horiz-adv-x="0" 
 />
    <glyph glyph-name="NULL" horiz-adv-x="0" 
 />
    <glyph glyph-name="CR" unicode="&#xd;" horiz-adv-x="195" 
 />
    <glyph glyph-name="space" unicode=" " horiz-adv-x="195" 
 />
    <glyph glyph-name="exclam" unicode="!" horiz-adv-x="211" 
d="M101 211h-11l50 451h83zM57 88q20 0 34 -13.5t14 -34.5q0 -20 -14 -34t-34 -14q-21 0 -34.5 14t-13.5 34q0 21 13.5 34.5t34.5 13.5z" />
    <glyph glyph-name="quotedbl" unicode="&#x22;" horiz-adv-x="285" 
d="M283 692q32 0 25 -43q-6 -37 -56 -187h-10q7 169 9 191q5 39 32 39zM158 692q32 0 25 -43q-6 -37 -56 -187h-10q7 169 9 191q5 39 32 39z" />
    <glyph glyph-name="numbersign" unicode="#" horiz-adv-x="389" 
d="M322 432l-56 -158h77l-6 -32h-82l-84 -242h-37l84 242h-79l-84 -242h-37l84 242h-78l6 32h83l55 158h-72l6 32h77l70 198h37l-69 -198h78l70 198h37l-69 -198h82l-6 -32h-87zM150 274h79l55 158h-78z" />
    <glyph glyph-name="dollar" unicode="$" horiz-adv-x="422" 
d="M273 672q4 0 12.5 -0.5t12.5 -0.5l17 67h32l-18 -71q43 -6 77 -20l-19 -100h-6q-19 62 -61 84l-62 -241l8 -12q40 -60 56 -85.5t32.5 -65.5t16.5 -73q0 -73 -53.5 -118.5t-128.5 -45.5q-10 0 -32 2l-22 -88h-32l23 93q-54 10 -96 41q0 62 20 160h7q10 -130 79 -162
l74 288q-54 76 -76.5 120t-22.5 89q0 64 48.5 101.5t113.5 37.5zM300 132q0 36 -15.5 69t-51.5 89l-67 -264q7 -1 23 -1q51 0 81 31.5t30 75.5zM179 556q0 -47 56 -132l55 216q-14 2 -18 2q-42 0 -67.5 -24t-25.5 -62z" />
    <glyph glyph-name="percent" unicode="%" horiz-adv-x="644" 
d="M548 146q0 43 -22.5 68.5t-56.5 25.5q-44 0 -72 -35t-28 -84q0 -43 22.5 -68.5t56.5 -25.5q44 0 72 35t28 84zM469 276q50 0 85 -34t35 -95q0 -62 -40 -109t-101 -47q-50 0 -85 34t-35 95t40 108.5t101 47.5zM113 515q0 -43 22.5 -68.5t56.5 -25.5q44 0 72 35t28 84
q0 43 -22.5 68.5t-56.5 25.5q-44 0 -72 -35t-28 -84zM213 670q50 0 85 -34t35 -95q0 -62 -40 -109t-101 -47q-50 0 -85 34t-35 95t40 108.5t101 47.5zM575 662h47l-530 -662h-47z" />
    <glyph glyph-name="ampersand" unicode="&#x26;" horiz-adv-x="621" 
d="M648 404q-66 -30 -107 -75t-87 -126q-6 -11 -16.5 -28t-12.5 -20q42 -62 83.5 -100.5t96.5 -66.5l-1 -6q-127 -3 -188 65q-13 13 -36 43q-44 -57 -85 -80.5t-94 -23.5q-75 0 -124 43.5t-49 120.5q0 141 187 242q-30 69 -30 116q0 63 39 101.5t93 38.5q46 0 76.5 -24.5
t30.5 -64.5q0 -75 -136 -152q31 -71 72 -143q22 -42 46 -81l20 33q54 93 91 139l-58 49l1 6h190zM294 231q-50 94 -70 139q-55 -45 -86 -93.5t-31 -115.5q0 -60 30 -95.5t78 -35.5q42 0 75.5 19t70.5 67q-29 44 -67 115zM253 540q0 -43 26 -112q84 62 84 127
q0 31 -13.5 47.5t-35.5 16.5q-24 0 -42.5 -20t-18.5 -59z" />
    <glyph glyph-name="quotesingle" unicode="'" horiz-adv-x="160" 
d="M156 692q32 0 25 -43q-6 -37 -56 -187h-10q7 169 9 191q5 39 32 39z" />
    <glyph glyph-name="parenleft" unicode="(" horiz-adv-x="312" 
d="M378 756l7 -5q-50 -61 -87.5 -119.5t-74.5 -135.5t-56.5 -169.5t-19.5 -193.5q0 -159 58 -318l-8 -4q-50 85 -79.5 169t-29.5 191q0 97 25.5 188t70 164t92 129.5t102.5 103.5z" />
    <glyph glyph-name="parenright" unicode=")" horiz-adv-x="312" 
d="M-58 -189l-7 5q50 61 87.5 119.5t74.5 135.5t56.5 169.5t19.5 193.5q0 159 -58 318l8 4q50 -85 79.5 -169t29.5 -191q0 -96 -25.5 -187.5t-70 -164.5t-92 -129.5t-102.5 -103.5z" />
    <glyph glyph-name="asterisk" unicode="*" horiz-adv-x="286" 
d="M193 515l-77 -60l-6 4l51 82l-84 35l1 7l94 -5l-15 94l8 3l48 -85l76 58l5 -5l-53 -81l86 -35l-1 -7l-93 5l13 -92l-7 -2z" />
    <glyph glyph-name="plus" unicode="+" horiz-adv-x="428" 
d="M53 263h150l32 172h39l-32 -172h150l-6 -33h-150l-32 -175h-39l32 175h-150z" />
    <glyph glyph-name="comma" unicode="," horiz-adv-x="182" 
d="M75 16q-20 -3 -36 8t-16 33q0 21 13 33t34 12q23 0 37 -17t14 -45q0 -55 -41 -105t-104 -85l-9 5q86 85 108 161z" />
    <glyph glyph-name="hyphen" unicode="-" horiz-adv-x="253" 
d="M63 269h150l-11 -59h-152z" />
    <glyph glyph-name="period" unicode="." horiz-adv-x="182" 
d="M68 88q20 0 34 -13.5t14 -34.5q0 -20 -14 -34t-34 -14q-21 0 -34.5 14t-13.5 34q0 21 13.5 34.5t34.5 13.5z" />
    <glyph glyph-name="slash" unicode="/" horiz-adv-x="350" 
d="M422 739l-493 -977l-30 14l493 978z" />
    <glyph glyph-name="zero" unicode="0" horiz-adv-x="441" 
d="M363 227q0 69 -36.5 111.5t-86.5 42.5q-71 0 -114 -59.5t-43 -138.5q0 -70 36.5 -112t88.5 -42q69 0 112 59.5t43 138.5zM238 420q72 0 122.5 -51.5t50.5 -140.5q0 -91 -56.5 -164.5t-148.5 -73.5q-71 0 -121 51.5t-50 140.5q0 91 56 164.5t147 73.5z" />
    <glyph glyph-name="one" unicode="1" horiz-adv-x="229" 
d="M109 364l-48 41l1 5h181v-5l-65 -41l-62 -320l49 -38l-1 -6h-182l1 6l63 38z" />
    <glyph glyph-name="two" unicode="2" horiz-adv-x="334" 
d="M69 342q38 78 112 78q44 0 71 -25t27 -73q0 -53 -43.5 -105t-153.5 -152h220l-38 -65h-279l2 6q129 134 170.5 197.5t41.5 109.5q0 27 -14 43t-40 16q-35 0 -69 -34z" />
    <glyph glyph-name="three" unicode="3" horiz-adv-x="285" 
d="M18 97q93 84 126.5 133.5t33.5 89.5q0 23 -12.5 36.5t-33.5 13.5q-35 0 -56 -26l-6 4q35 68 96 68q41 0 63.5 -23t22.5 -65t-34 -83t-111 -101q55 -3 86.5 -35t31.5 -88q0 -78 -72 -150.5t-215 -151.5l-5 9q214 169 214 285q0 86 -86 86q-20 0 -39 -8z" />
    <glyph glyph-name="four" unicode="4" horiz-adv-x="404" 
d="M351 428l-74 -377h85l-10 -51h-85l-39 -203l-72 -28l44 231h-226l1 6l368 422h8zM210 51l43 225l-196 -225h153z" />
    <glyph glyph-name="five" unicode="5" horiz-adv-x="265" 
d="M272 410l-41 -61h-99q-2 -3 -7 -13t-6 -11q73 -146 73 -237q0 -96 -72 -176.5t-213 -139.5l-3 8q93 59 154 141.5t61 152.5q0 97 -53 197q46 98 74 139h132z" />
    <glyph glyph-name="six" unicode="6" horiz-adv-x="404" 
d="M192 -7q-57 0 -98.5 53t-41.5 144q0 87 37.5 171t100 149.5t139.5 116t159 80.5l4 -9q-70 -39 -132 -90.5t-116.5 -117t-86.5 -147t-32 -166.5q0 -70 20 -113.5t47 -43.5q35 0 69 46t34 118q0 50 -22.5 77.5t-59.5 27.5q-24 0 -49 -9l-3 5q40 40 98 40q51 0 81.5 -35.5
t30.5 -95.5q0 -83 -55 -142t-124 -59z" />
    <glyph glyph-name="seven" unicode="7" horiz-adv-x="390" 
d="M85 410h317l-1 -5l-364 -682l-37 12l323 610h-273z" />
    <glyph glyph-name="eight" unicode="8" horiz-adv-x="359" 
d="M245 663q50 0 82.5 -30t32.5 -78q0 -50 -29.5 -93.5t-95.5 -97.5q7 -13 22 -40t21 -37.5t15.5 -31.5t13.5 -33.5t7 -30t3 -35.5q0 -65 -48.5 -115t-113.5 -50q-56 0 -94 34t-38 90t35 106.5t111 117.5q-64 105 -64 178q0 64 45.5 105t94.5 41zM249 139q0 28 -9 57
t-20 51.5t-37 67.5q-51 -53 -74.5 -98.5t-23.5 -99.5q0 -43 19.5 -70.5t51.5 -27.5q38 0 65.5 34.5t27.5 85.5zM170 535q0 -49 54 -151q82 91 82 168q0 37 -16.5 61t-44.5 24q-31 0 -53 -27.5t-22 -74.5z" />
    <glyph glyph-name="nine" unicode="9" horiz-adv-x="404" 
d="M155 85q-51 0 -82 38t-31 98q0 77 55.5 136.5t122.5 59.5q56 0 98.5 -53t42.5 -144t-37 -176t-98 -150t-134.5 -113t-152.5 -78l-5 9q354 226 354 521q0 74 -20 115.5t-48 41.5q-32 0 -67 -48t-35 -114q0 -51 22 -79t61 -28q23 0 48 9l3 -5q-11 -13 -37.5 -26.5
t-59.5 -13.5z" />
    <glyph glyph-name="colon" unicode=":" horiz-adv-x="200" 
d="M122 419q20 0 34 -13.5t14 -34.5q0 -20 -14 -34t-34 -14q-21 0 -34.5 14t-13.5 34q0 21 13.5 34.5t34.5 13.5zM64 88q20 0 34 -13.5t14 -34.5q0 -20 -14 -34t-34 -14q-21 0 -34.5 14t-13.5 34q0 21 13.5 34.5t34.5 13.5z" />
    <glyph glyph-name="semicolon" unicode=";" horiz-adv-x="200" 
d="M72 16q-20 -3 -36 8t-16 33q0 21 13 33t34 12q23 0 37 -17t14 -45q0 -55 -41 -105t-104 -85l-9 5q86 85 108 161zM123 419q20 0 34 -13.5t14 -34.5q0 -20 -14 -34t-34 -14q-21 0 -34.5 14t-13.5 34q0 21 13.5 34.5t34.5 13.5z" />
    <glyph glyph-name="less" unicode="&#x3c;" horiz-adv-x="375" 
d="M43 229l7 33l317 129l-7 -36l-275 -111l234 -110l-7 -32z" />
    <glyph glyph-name="equal" unicode="=" horiz-adv-x="406" 
d="M42 182l6 31h307l-6 -31h-307zM59 270l6 31h307l-6 -31h-307z" />
    <glyph glyph-name="greater" unicode="&#x3e;" horiz-adv-x="375" 
d="M353 264l-7 -33l-317 -129l7 36l275 111l-234 110l7 32z" />
    <glyph glyph-name="question" unicode="?" horiz-adv-x="294" 
d="M248 426q-8 -8 -35.5 -32t-40.5 -37q-28 -27 -38 -68q-1 -5 -14 -78h-9q-12 77 -12 110q0 22 8 37.5t31 39.5l68 69q53 58 53 105q0 33 -15.5 51t-39.5 18q-11 0 -23.5 -4.5t-21 -10t-19.5 -16t-15.5 -16t-14.5 -16.5l-9 -12h-7l19 96q27 10 89 10q59 0 93 -25.5
t34 -75.5q0 -69 -81 -145zM92 88q20 0 34 -13.5t14 -34.5q0 -20 -14 -34t-34 -14q-21 0 -34.5 14t-13.5 34q0 21 13.5 34.5t34.5 13.5z" />
    <glyph glyph-name="at" unicode="@" horiz-adv-x="813" 
d="M506 47q36 7 73.5 28t74 57t59.5 95t23 130q0 101 -57.5 159t-169.5 58q-176 0 -294.5 -133.5t-118.5 -329.5q0 -123 67.5 -197t175.5 -74q161 0 293 94l7 -9q-44 -46 -125.5 -84t-177.5 -38q-137 0 -219 80t-82 213q0 104 40 199.5t105.5 163.5t153 108.5t180.5 40.5
q128 0 205 -66t77 -178q0 -82 -34.5 -151.5t-89 -113t-118.5 -66t-125 -19.5l30 141q-91 -138 -156 -138q-22 0 -41.5 26t-19.5 69q0 96 72 186t198 105l76 34zM333 71q41 0 137 137l35 165q-76 -6 -132.5 -85t-56.5 -174q0 -43 17 -43z" />
    <glyph glyph-name="A" unicode="A" horiz-adv-x="567" 
d="M128 6l-2 -6h-162l2 6l65 44l335 625h9l108 -625l44 -44l-2 -6h-195l2 6l76 44l-41 231h-173l-122 -231zM211 312h151l-38 214z" />
    <glyph glyph-name="B" unicode="B" horiz-adv-x="493" 
d="M465 206q0 -92 -65 -149t-147 -57h-256l1 6l72 44l93 562l-56 44l1 6h195q63 0 113 -34t50 -99q0 -57 -40 -100.5t-93 -64.5q51 -15 91.5 -54.5t40.5 -103.5zM198 345l-48 -296q20 -20 81 -20q63 0 106.5 49.5t43.5 122.5q0 75 -38.5 109.5t-92.5 34.5h-52zM246 631
l-43 -257h91q27 0 60.5 47t33.5 104q0 55 -29 80.5t-71 25.5h-42z" />
    <glyph glyph-name="C" unicode="C" horiz-adv-x="589" 
d="M338 -10q-118 0 -199 73t-81 206q0 162 112 282.5t272 120.5q98 0 160 -23l-19 -107h-6q-36 97 -142 97q-123 0 -206 -108t-83 -262q0 -106 54.5 -176t137.5 -70q96 0 181 92h6l-19 -98q-58 -27 -168 -27z" />
    <glyph glyph-name="D" unicode="D" horiz-adv-x="637" 
d="M338 662q119 0 201.5 -74t82.5 -206q0 -94 -42 -180.5t-124.5 -144t-186.5 -57.5h-272l1 6l72 44l93 562l-56 44l1 6h230zM246 631l-96 -582q47 -18 119 -18q109 0 187 99.5t78 244.5q0 125 -64.5 190.5t-156.5 65.5h-67z" />
    <glyph glyph-name="E" unicode="E" horiz-adv-x="487" 
d="M-3 0l1 6l72 44l93 562l-56 44l1 6h386l-20 -117h-7l-45 85h-176l-43 -261h181l53 69h7l-28 -169h-7l-30 68h-182l-50 -304h192l83 105h7l-22 -138h-410z" />
    <glyph glyph-name="F" unicode="F" horiz-adv-x="472" 
d="M437 438h7l-28 -169h-7l-30 68h-182l-47 -287l82 -44l-1 -6h-234l1 6l72 44l93 562l-56 45v5h387l-21 -124h-6l-48 92h-173l-43 -261h181z" />
    <glyph glyph-name="G" unicode="G" horiz-adv-x="638" 
d="M525 17q-124 -27 -168 -27q-133 0 -216 75.5t-83 199.5q0 162 110 284.5t269 122.5q102 0 175 -25l-19 -104h-6q-52 96 -154 96q-81 0 -147.5 -52t-103 -137t-36.5 -183q0 -113 59 -178.5t152 -65.5q53 0 90 20l42 250l-69 45l1 6h210l-1 -6l-61 -45z" />
    <glyph glyph-name="H" unicode="H" horiz-adv-x="674" 
d="M200 354h320l43 258l-56 44l1 6h207l-1 -6l-71 -44l-93 -562l57 -44l-1 -6h-209l1 6l72 44l45 272h-320l-45 -272l57 -44l-1 -6h-209l1 6l72 44l93 562l-56 44l1 6h207l-1 -6l-71 -44z" />
    <glyph glyph-name="I" unicode="I" horiz-adv-x="274" 
d="M-3 0l1 6l72 44l93 562l-56 44l1 6h207l-1 -6l-71 -44l-93 -562l57 -44l-1 -6h-209z" />
    <glyph glyph-name="J" unicode="J" horiz-adv-x="270" 
d="M156 96q-13 -81 -64.5 -163.5t-134.5 -153.5l-8 6q99 147 132 346l80 481l-57 44l1 6h208l-1 -6l-71 -44z" />
    <glyph glyph-name="K" unicode="K" horiz-adv-x="573" 
d="M-3 0l1 6l72 44l93 562l-56 45l1 5h207l-1 -5l-71 -45l-93 -562l56 -44l-1 -6h-208zM318 0l1 6l71 44l-149 285h-34l269 277l-56 44l1 6h186l-1 -6l-78 -39l-226 -229l175 -338l61 -44l-1 -6h-219z" />
    <glyph glyph-name="L" unicode="L" horiz-adv-x="487" 
d="M147 33h190l104 127h6l-27 -160h-423l1 6l72 44l93 562l-56 44l1 6h207l-1 -6l-71 -44z" />
    <glyph glyph-name="M" unicode="M" horiz-adv-x="743" 
d="M459 0l1 6l81 49l78 473l-294 -470h-6l-135 473l-78 -476l63 -49l-1 -6h-180l1 6l81 49l87 533q-12 34 -34 69v5h103l134 -482l300 482h110l-1 -6q-10 -9 -26 -25q-8 -8 -19.5 -19t-12.5 -12l-91 -545l63 -49l-1 -6h-223z" />
    <glyph glyph-name="N" unicode="N" horiz-adv-x="658" 
d="M505 0l-316 528l-78 -473l63 -49l-1 -6h-186l2 6l81 49l86 524q-16 25 -54 78v5h99l312 -530l78 475l-64 50l1 5h185l-1 -5l-80 -50l-99 -607h-28z" />
    <glyph glyph-name="O" unicode="O" horiz-adv-x="665" 
d="M400 640q-103 0 -176.5 -113t-73.5 -265q0 -110 47 -175t113 -65q102 0 176 114t74 275q0 108 -47 168.5t-113 60.5zM63 262q0 164 101.5 287t235.5 123q108 0 177.5 -74t69.5 -188q0 -174 -100.5 -297t-236.5 -123q-104 0 -175.5 75t-71.5 197z" />
    <glyph glyph-name="P" unicode="P" horiz-adv-x="475" 
d="M494 496q0 -85 -74.5 -146.5t-195.5 -71.5l2 8q84 24 135 80.5t51 126.5q0 65 -41 101.5t-108 36.5h-17l-96 -581l65 -44l-1 -6h-217l1 6l72 44l93 562l-56 44l1 6h175q87 0 149 -42t62 -124z" />
    <glyph glyph-name="Q" unicode="Q" horiz-adv-x="665" 
d="M648 414q0 -149 -80 -268.5t-216 -150.5q168 -96 267.5 -133t210.5 -37q53 0 93 7l2 -6q-26 -16 -82 -33t-125 -17q-75 0 -188 50t-300 171q-33 20 -56.5 38.5t-52 50.5t-43.5 76.5t-15 99.5q0 108 46 202.5t124 151t167 56.5q108 0 178 -73.5t70 -184.5zM150 262
q0 -109 47 -174t113 -65q103 0 176.5 114t73.5 278q0 106 -46.5 165t-113.5 59q-104 0 -177 -112.5t-73 -264.5z" />
    <glyph glyph-name="R" unicode="R" horiz-adv-x="529" 
d="M-2 6l72 44l93 562l-56 44l1 6h204q66 0 116 -36.5t50 -102.5q0 -62 -39 -109t-97 -71l58 -166q47 -136 110 -188l-1 -6q-36 3 -61.5 11.5t-42 18t-30.5 31.5t-21.5 40t-21.5 55q-4 11 -6 16q-29 74 -57 177h-73l-46 -282l57 -44l-1 -6h-209zM245 630l-44 -268h104
q31 0 61.5 46t30.5 105q0 58 -28.5 87.5t-68.5 29.5h-55z" />
    <glyph glyph-name="S" unicode="S" horiz-adv-x="420" 
d="M281 672q74 0 133 -25l-19 -100h-6q-31 95 -109 95q-40 0 -64.5 -24t-24.5 -62q0 -25 12.5 -55t24.5 -50t46 -73q37 -58 53 -85t30.5 -66t14.5 -73q0 -73 -52.5 -118.5t-128.5 -45.5q-99 0 -165 48q0 62 20 160h7q7 -86 43 -129.5t95 -43.5q49 0 77.5 31t28.5 75
q0 42 -19.5 83t-65.5 109q-53 80 -72.5 121t-19.5 87q0 66 47 103.5t114 37.5z" />
    <glyph glyph-name="T" unicode="T" horiz-adv-x="572" 
d="M612 662l-22 -128h-6l-46 95h-141l-96 -579l56 -44l-1 -6h-208l1 6l72 44l96 579h-140l-80 -95h-6l23 128h498z" />
    <glyph glyph-name="U" unicode="U" horiz-adv-x="637" 
d="M549 199q-15 -88 -75.5 -148.5t-159.5 -60.5q-119 0 -180 61.5t-45 162.5l66 398l-56 44l1 6h207l-1 -6l-71 -44l-67 -401q-14 -79 32.5 -125.5t126.5 -46.5q77 0 122.5 44t58.5 116l69 413l-56 44l1 6h167l-1 -6l-71 -44z" />
    <glyph glyph-name="V" unicode="V" horiz-adv-x="567" 
d="M472 656l1 6h162l-1 -6l-65 -44l-334 -625h-9l-96 625l-44 44l1 6h198l-1 -6l-75 -44l68 -472l251 472z" />
    <glyph glyph-name="W" unicode="W" horiz-adv-x="839" 
d="M130 612l-44 44l1 6h194l-1 -6l-72 -44l71 -490l156 263l-42 227l-53 44l1 6h189l-1 -6l-62 -44l28 -162l92 162l-42 44l1 6h143l-1 -6l-62 -44l-122 -210l49 -277l249 487l-55 44l1 6h159l-1 -6l-64 -44l-321 -625h-11l-65 347l-207 -347h-11z" />
    <glyph glyph-name="X" unicode="X" horiz-adv-x="586" 
d="M-23 0l1 6l73 44l229 284l-121 278l-57 44l1 6h218l-1 -6l-72 -44l93 -220l173 220l-56 44l1 6h167l-1 -6l-68 -44l-202 -255l131 -307l57 -44l-1 -6h-212l1 6l72 44l-108 248l-199 -248l56 -44l-1 -6h-174z" />
    <glyph glyph-name="Y" unicode="Y" horiz-adv-x="548" 
d="M450 656l1 6h161l-1 -6l-63 -44l-210 -292l-44 -270l57 -44l-1 -6h-209l1 6l72 44l43 265l-127 297l-46 44l1 6h202l-1 -6l-73 -44l108 -259l184 259z" />
    <glyph glyph-name="Z" unicode="Z" horiz-adv-x="558" 
d="M104 34h311l89 108h5l-25 -142h-485l1 9l467 621h-273l-79 -96h-6l21 128h449l-1 -8z" />
    <glyph glyph-name="bracketleft" unicode="[" horiz-adv-x="256" 
d="M320 715h-78l-166 -850h78l-4 -22h-134l174 894h134z" />
    <glyph glyph-name="backslash" unicode="\" horiz-adv-x="307" 
d="M133 751l126 -984l-32 -5l-126 984z" />
    <glyph glyph-name="bracketright" unicode="]" horiz-adv-x="256" 
d="M-36 -135h78l166 850h-78l4 22h134l-174 -894h-134z" />
    <glyph glyph-name="asciicircum" unicode="^" horiz-adv-x="358" 
d="M68 323l-5 4l200 347h2l75 -347l-5 -2l-93 210z" />
    <glyph glyph-name="underscore" unicode="_" horiz-adv-x="293" 
d="M-66 -122l7 33h314l-7 -33h-314z" />
    <glyph glyph-name="grave" unicode="`" 
d="M329 495l-124 187l61 30l72 -212z" />
    <glyph glyph-name="a" unicode="a" horiz-adv-x="408" 
d="M364 26l-1 -7q-47 -16 -143 -27l31 149q-41 -63 -88 -107t-87 -44q-24 0 -42.5 26.5t-18.5 71.5q0 65 32 131.5t100.5 120.5t157.5 65l81 46l-81 -398zM262 195l38 180q-81 -6 -145.5 -93.5t-64.5 -192.5q0 -45 19 -45q17 0 53.5 33t72.5 80q9 13 27 37v1z" />
    <glyph glyph-name="b" unicode="b" horiz-adv-x="414" 
d="M85 678v6q50 19 146 41l-94 -464q41 67 87.5 113t83.5 46q10 0 21.5 -4t26.5 -14.5t24.5 -36t9.5 -61.5q0 -50 -17.5 -104t-48 -101.5t-77.5 -78t-101 -30.5q-55 0 -87.5 37t-21.5 86l108 536zM282 366q-47 0 -156 -160q-14 -64 -21 -105q-1 -4 -3.5 -19t-4.5 -22
q0 -14 12.5 -26.5t36.5 -12.5q43 0 82.5 44.5t62 109t22.5 126.5q0 65 -31 65z" />
    <glyph glyph-name="c" unicode="c" horiz-adv-x="331" 
d="M247 420q54 0 93 -17l-27 -71h-4q-38 56 -73 56q-48 0 -93 -77t-45 -173q0 -49 12.5 -74t32.5 -25q32 0 70 29.5t60 58.5l8 -5q-25 -53 -68 -92.5t-93 -39.5q-41 0 -69 37t-28 98q0 117 70 206t154 89z" />
    <glyph glyph-name="d" unicode="d" horiz-adv-x="431" 
d="M21 106q0 122 82 217t206 95h21l48 231l-61 29v6q62 21 147 41l-138 -672l60 -29l-1 -5q-47 -16 -142 -27l31 150q-104 -152 -172 -152q-31 0 -56 30t-25 86zM321 371q-10 14 -43 14q-72 0 -126 -84t-54 -190q0 -32 8.5 -50.5t20.5 -18.5q21 0 67.5 45t90.5 108z" />
    <glyph glyph-name="e" unicode="e" horiz-adv-x="331" 
d="M123 -10q-39 0 -70 31t-31 92q0 117 73 212t161 95q35 0 55 -11.5t20 -29.5q0 -12 -9.5 -27.5t-31 -35t-66 -36t-104.5 -23.5q-23 -60 -23 -134q0 -85 53 -85q55 0 128 87l9 -6q-69 -129 -164 -129zM240 393q-26 0 -56.5 -31t-53.5 -82q55 11 95.5 35.5t40.5 57.5
q0 20 -26 20z" />
    <glyph glyph-name="f" unicode="f" horiz-adv-x="259" 
d="M56 54q9 56 47 316h-76v5l25 32h57q4 18 9.5 53.5t8.5 52.5q13 83 69 143.5t144 60.5q68 0 121 -21l-31 -55q-64 42 -111 42q-88 0 -116 -140q-10 -49 -24 -136h120l-30 -37h-95q-57 -350 -58 -358q-8 -43 -15.5 -71.5t-26 -71.5t-42 -69.5t-64.5 -47.5t-93 -22l-12 55
q37 -4 64 -4q37 0 57 20.5t35.5 75.5t36.5 177z" />
    <glyph glyph-name="g" unicode="g" horiz-adv-x="366" 
d="M43 239q0 74 51.5 127.5t113.5 53.5q23 0 44 -10h144l-11 -36h-89q21 -28 21 -63q0 -81 -51.5 -132t-108.5 -51q-9 0 -12 1q-40 -32 -40 -50q0 -10 9 -19.5t36 -25.5q25 -15 63.5 -35t53.5 -29q63 -35 84.5 -57.5t21.5 -42.5q0 -58 -72 -95.5t-153 -37.5q-94 0 -158 28.5
t-64 68.5q0 9 8 22t27 31.5t57.5 41.5t90.5 46q-68 39 -68 77q0 36 78 82q-33 12 -54.5 40t-21.5 65zM233 -90q-45 22 -98 50q-63 -29 -98.5 -58.5t-35.5 -52.5q0 -36 47 -57.5t116 -21.5q45 0 80 14.5t50 30.5t15 28q0 8 -4 15t-21.5 20.5t-50.5 31.5zM205 394
q-35 0 -63 -48t-28 -108q0 -45 14.5 -64.5t30.5 -19.5q29 0 58 48.5t29 109.5q0 82 -41 82z" />
    <glyph glyph-name="h" unicode="h" horiz-adv-x="435" 
d="M95 678v6q47 18 148 41l-99 -464q126 159 211 159q43 0 43 -34q0 -17 -71 -333l58 -28v-6q-47 -16 -142 -27q77 346 77 353q0 10 -13 10q-21 0 -68 -36.5t-104 -99.5l-47 -219h-69l137 649z" />
    <glyph glyph-name="i" unicode="i" horiz-adv-x="219" 
d="M101 348l-56 26v7q67 25 139 42l-69 -370l60 -29v-5q-53 -17 -142 -27zM173 627q17 0 29.5 -12.5t12.5 -29.5t-12.5 -29.5t-29.5 -12.5t-29.5 12.5t-12.5 29.5t12.5 29.5t29.5 12.5z" />
    <glyph glyph-name="j" unicode="j" horiz-adv-x="208" 
d="M107 22q-21 -118 -162 -272l-8 4q75 142 106 303l56 291l-56 26v7q69 26 139 42zM171 627q17 0 29.5 -12.5t12.5 -29.5t-12.5 -29.5t-29.5 -12.5t-29.5 12.5t-12.5 29.5t12.5 29.5t29.5 12.5z" />
    <glyph glyph-name="k" unicode="k" horiz-adv-x="379" 
d="M152 650l-62 28v6q67 21 147 41l-147 -725h-70zM148 202q130 119 130 160q0 15 -14 29v5l79 26q13 -16 13 -39q0 -29 -32 -62.5t-115 -97.5q31 -53 55 -92.5t40 -62.5t25 -35.5t18.5 -24t11.5 -14.5l-2 -5q-17 1 -27.5 2t-21.5 2t-19 6t-15 7.5t-15.5 14t-15 18.5t-18 27
t-20 33.5t-26.5 44.5t-32 54z" />
    <glyph glyph-name="l" unicode="l" horiz-adv-x="215" 
d="M156 649l-63 29v6q57 21 149 41l-136 -672l61 -29l-1 -5q-47 -16 -143 -27z" />
    <glyph glyph-name="m" unicode="m" horiz-adv-x="633" 
d="M29 0l71 348l-54 26v7q51 22 142 42l-34 -159q112 156 190 156q22 0 33 -9.5t10 -24.5q0 -22 -23 -120q119 154 189 154q44 0 44 -34q0 -12 -8 -48t-28 -122.5t-36 -162.5l58 -28v-6q-50 -16 -142 -27q79 341 79 354q0 9 -12 9q-19 0 -61.5 -36.5t-92.5 -98.5l-49 -220
h-71q76 328 76 346q0 9 -12 9q-19 0 -61.5 -36.5t-92.5 -99.5l-46 -219h-69z" />
    <glyph glyph-name="n" unicode="n" horiz-adv-x="445" 
d="M29 0l71 348l-54 26v7q57 24 142 42l-35 -163q57 72 113.5 116t98.5 44q43 0 43 -34q0 -17 -71 -333l58 -27v-7q-47 -16 -142 -27q77 346 77 353q0 10 -13 10q-21 0 -68 -36.5t-105 -99.5l-46 -219h-69z" />
    <glyph glyph-name="o" unicode="o" horiz-adv-x="398" 
d="M163 -10q-61 0 -100.5 45.5t-39.5 114.5q0 105 66 187.5t150 82.5q58 0 97.5 -45t39.5 -111q0 -116 -67 -195t-146 -79zM167 19q48 0 90 74t42 177q0 58 -16.5 89.5t-45.5 31.5q-50 0 -93 -78.5t-43 -170.5q0 -123 66 -123z" />
    <glyph glyph-name="p" unicode="p" horiz-adv-x="417" 
d="M14 377q10 6 32 13q42 15 81 23l13 63l76 23l-16 -78q4 0 9 0.5t8 0.5q91 0 136 -36t45 -101q0 -96 -81.5 -184.5t-201.5 -97.5l-45 -222l94 -45l-1 -6h-227l1 6l61 41l123 609q-41 -4 -103 -20zM320 280q0 103 -127 109l-69 -342q6 -3 17 -3q66 0 122.5 70.5t56.5 165.5
z" />
    <glyph glyph-name="q" unicode="q" horiz-adv-x="424" 
d="M315 -264v-6h-204l1 6l89 43l77 375q-49 -78 -89.5 -121t-79.5 -43q-31 0 -59 33t-28 98q0 115 82.5 206t204.5 91q24 0 37 -5l61 18l-133 -653zM132 42q21 0 65 48.5t93 122.5l34 167q-18 7 -42 7q-74 0 -128.5 -83.5t-54.5 -189.5q0 -32 10 -52t23 -20z" />
    <glyph glyph-name="r" unicode="r" horiz-adv-x="316" 
d="M29 0l71 348l-56 26v7q61 23 143 42l-36 -171q92 168 124 168q30 0 57 -17l-30 -76q-34 15 -43 15q-13 0 -39 -30.5t-80 -110.5l-43 -201h-68z" />
    <glyph glyph-name="s" unicode="s" horiz-adv-x="278" 
d="M174 421q36 0 87 -16l-17 -70h-5q-28 58 -69 58q-16 0 -29 -11.5t-13 -31.5q0 -22 19 -59q11 -21 30.5 -56.5t31.5 -59.5q22 -43 22 -82t-33 -71t-86 -32q-56 0 -104 28q6 62 16 115h6q9 -56 32 -83.5t52 -27.5q27 0 40.5 15t13.5 35q0 26 -22 69q-10 20 -60 112
q-19 35 -19 71q0 40 29.5 68.5t77.5 28.5z" />
    <glyph glyph-name="t" unicode="t" horiz-adv-x="293" 
d="M174 370l-55 -253q-13 -57 -13 -64q0 -16 15 -16q13 0 29 9t25.5 16.5t29 26t22.5 21.5l8 -4q-17 -38 -56 -77t-87 -39q-28 0 -44.5 12t-16.5 31l10 58l62 279h-50v5l141 96l-13 -64h141l-29 -37h-119z" />
    <glyph glyph-name="u" unicode="u" horiz-adv-x="432" 
d="M283 176q-53 -79 -107.5 -130.5t-96.5 -51.5q-22 0 -34 9.5t-12 22.5q0 16 7 41q53 227 65 281l-55 26v7q61 23 143 42q-20 -91 -41.5 -182.5t-30.5 -130t-9 -43.5q0 -9 12 -9q21 0 73 53.5t98 116.5l39 182h70l-74 -359l57 -26v-6q-122 -24 -143 -27z" />
    <glyph glyph-name="v" unicode="v" horiz-adv-x="356" 
d="M358 379q0 -46 -61 -132.5t-235 -265.5h-10q36 302 31 374l-50 26l1 7q62 21 118 35q3 -50 -6 -161.5t-19 -172.5q158 193 158 270q0 23 -18 36v3l75 23q16 -16 16 -42z" />
    <glyph glyph-name="w" unicode="w" horiz-adv-x="508" 
d="M313 417q10 -57 10.5 -152t-7.5 -162q124 182 124 256q0 20 -15 38v3l73 20q12 -17 12 -39q0 -44 -53.5 -131t-204.5 -269h-11q13 100 20 294q-93 -162 -203 -294h-11q37 278 37 374l-50 26l1 7q48 17 119 35q2 -46 -6.5 -141t-19.5 -166q94 141 174 301h11z" />
    <glyph glyph-name="x" unicode="x" horiz-adv-x="374" 
d="M266 43l62 -26l-1 -5q-62 -16 -116 -23l-47 175q-84 -135 -99 -152q-20 -24 -40 -24q-26 0 -43 10l16 65l2 2q28 -10 36 -10q11 0 26 17.5t68 87.5q17 22 26 34l-43 164l-57 26v6q13 4 54.5 16t57.5 17l41 -159q63 99 90 130.5t51 31.5q17 0 41 -8l-17 -63l-3 -2
q-19 8 -33 8q-16 0 -37 -22.5t-85 -103.5z" />
    <glyph glyph-name="y" unicode="y" horiz-adv-x="344" 
d="M274 349q0 26 -24 47v3l80 22q15 -19 15 -46q0 -62 -170 -310q-16 -24 -25 -37l-206 -299l-80 11v6q51 43 119 119t113 133q-7 201 -26 357l-50 27v6q54 19 110 35q25 -158 25 -338q67 111 93 169t26 95z" />
    <glyph glyph-name="z" unicode="z" horiz-adv-x="352" 
d="M-15 6l289 351h-70q-84 0 -147 -10l-3 4l56 65l253 -8l-1 -5l-290 -346h56q110 0 180 19l3 -4l-58 -76l-269 4z" />
    <glyph glyph-name="braceleft" unicode="{" horiz-adv-x="277" 
d="M189 200q0 -36 -28.5 -83.5l-57 -95t-28.5 -84.5q0 -71 77 -112l-3 -7q-128 48 -128 132q0 33 31.5 81.5t63 98.5t31.5 87q0 36 -20.5 50t-65.5 16l4 18q121 0 121 85q0 28 -27.5 103t-27.5 103q0 119 190 164l3 -7q-69 -20 -103 -61.5t-34 -88.5q0 -29 22 -97t22 -98
q0 -46 -33.5 -78t-76.5 -36q25 -5 46.5 -29t21.5 -61z" />
    <glyph glyph-name="bar" unicode="|" horiz-adv-x="256" 
d="M110 744h36v-977h-36v977z" />
    <glyph glyph-name="braceright" unicode="}" horiz-adv-x="277" 
d="M109 374q0 36 28.5 83.5l57 95t28.5 84.5q0 71 -77 112l3 7q128 -48 128 -132q0 -33 -31.5 -81.5t-63 -98.5t-31.5 -87q0 -36 20.5 -50t65.5 -16l-4 -18q-121 0 -121 -85q0 -28 27.5 -103t27.5 -103q0 -119 -190 -164l-3 7q69 20 103 61.5t34 88.5q0 30 -22 97.5
t-22 97.5q0 46 33.5 78t76.5 36q-25 5 -46.5 29t-21.5 61z" />
    <glyph glyph-name="asciitilde" unicode="~" horiz-adv-x="413" 
d="M306 269q48 0 103 105l6 -1q-16 -66 -46 -113.5t-71 -47.5q-30 0 -89 40.5t-78 40.5q-46 0 -102 -107l-6 1q12 58 44 111t72 53q30 0 89.5 -41t77.5 -41z" />
    <glyph glyph-name="exclamdown" unicode="&#xa1;" horiz-adv-x="211" 
d="M99 201h11l-50 -451h-83zM143 324q-20 0 -34 13.5t-14 34.5q0 20 14 34t34 14q21 0 34.5 -14t13.5 -34q0 -21 -13.5 -34.5t-34.5 -13.5z" />
    <glyph glyph-name="cent" unicode="&#xa2;" horiz-adv-x="335" 
d="M289 497l-22 -78q42 -3 80 -16l-27 -71h-4q-31 47 -58 55l-99 -349q50 8 121 89l8 -5q-19 -45 -58 -83.5t-84 -46.5l-22 -79h-28l22 77q-41 3 -67.5 39.5t-26.5 95.5q0 112 66 200t149 94l22 78h28zM99 138q0 -83 33 -98l98 348q-49 -10 -90 -84.5t-41 -165.5z" />
    <glyph glyph-name="sterling" unicode="&#xa3;" horiz-adv-x="477" 
d="M-14 -9q23 42 69 98.5t64 108.5q8 28 21 86h-86l5 31h86q3 22 19 155q8 86 64 144t133 58q64 0 112 -13l-16 -96h-6q-31 75 -95 75q-39 0 -68 -36.5t-40 -102.5q-5 -26 -15 -89.5t-16 -94.5h141l-5 -31h-143q-10 -40 -21 -70q-31 -71 -106 -126q31 15 60 15q31 0 86 -22
t79 -22q70 0 131 86l6 -3q-19 -65 -57.5 -107t-86.5 -42q-31 0 -93 31t-93 31q-55 0 -123 -68z" />
    <glyph glyph-name="yen" unicode="&#xa5;" horiz-adv-x="523" 
d="M447 230h-139l-29 -180l57 -44l-1 -6h-209l1 6l72 44l29 180h-139l5 30h139l10 64h-139l5 30h128l-107 258l-46 44l1 6h204l-1 -6l-73 -44l95 -235l165 235l-55 44l1 6h161l-1 -6l-63 -44l-182 -258h131l-5 -30h-139l-10 -64h139z" />
    <glyph glyph-name="brokenbar" unicode="&#xa6;" horiz-adv-x="256" 
d="M110 744h36v-433h-36v433zM110 214h36v-448h-36v448z" />
    <glyph glyph-name="section" unicode="&#xa7;" horiz-adv-x="387" 
d="M52 308q0 91 104 128q-16 39 -16 83q0 67 44.5 110.5t104.5 43.5q41 0 80 -9l-14 -82h-5q-22 62 -72 62q-34 0 -57.5 -28t-23.5 -73q0 -42 16 -80t64 -122q39 -69 56 -111t17 -79q0 -93 -100 -133q13 -36 13 -79q0 -70 -44.5 -123.5t-114.5 -53.5q-61 0 -109 32
q0 33 17 116h6q12 -116 89 -116q43 0 71 35t28 92q0 76 -74 196q-43 70 -61.5 112.5t-18.5 78.5zM177 168q51 -92 67 -133q49 37 49 91q0 34 -12.5 68t-48.5 96q-51 84 -70 130q-54 -26 -54 -88q0 -9 1.5 -18t3 -16t6 -18t7 -17.5t10 -20.5t11.5 -21t14.5 -25.5t15.5 -27.5z
" />
    <glyph glyph-name="dieresis" unicode="&#xa8;" 
d="M345 624q17 0 28.5 -11.5t11.5 -28.5t-11.5 -29t-28.5 -12t-28.5 12t-11.5 29t11.5 28.5t28.5 11.5zM190 624q17 0 28.5 -11.5t11.5 -28.5t-11.5 -29t-28.5 -12t-28.5 12t-11.5 29t11.5 28.5t28.5 11.5z" />
    <glyph glyph-name="copyright" unicode="&#xa9;" horiz-adv-x="780" 
d="M425 163q-82 0 -137 48t-55 125q0 72 53.5 124t138.5 52q45 0 107 -13v-84h-3q-47 67 -106 67q-53 0 -84.5 -40.5t-31.5 -101.5q0 -63 36 -104t84 -41q62 0 110 64h3v-73q-53 -23 -115 -23zM410 639q-127 0 -211 -89t-84 -218q0 -127 86.5 -217t208.5 -90q126 0 210.5 89
t84.5 218q0 126 -86 216.5t-209 90.5zM410 674q141 0 240.5 -100.5t99.5 -241.5q0 -144 -98 -243t-242 -99q-145 0 -242.5 98.5t-97.5 243.5q0 144 98 243t242 99z" />
    <glyph glyph-name="ordfeminine" unicode="&#xaa;" horiz-adv-x="300" 
d="M313 396v-5q-46 -13 -109 -19l20 96q-67 -97 -116 -97q-19 0 -33 18.5t-14 49.5q0 71 55.5 138t150.5 80l61 32l-55 -275zM133 413q11 0 42.5 29t56.5 64l27 127q-51 -6 -94 -65.5t-43 -130.5q0 -24 11 -24z" />
    <glyph glyph-name="guillemotleft" unicode="&#xab;" horiz-adv-x="360" 
d="M274 66l-99 161l159 152l7 -6l-105 -153l46 -151zM141 66l-99 161l159 152l7 -6l-105 -153l46 -151z" />
    <glyph glyph-name="registered" unicode="&#xae;" horiz-adv-x="391" 
d="M251 684q72 0 123.5 -52t51.5 -124q0 -75 -51 -126t-124 -51q-74 0 -125 51t-51 126q0 74 51 125t125 51zM251 658q-61 0 -102.5 -43.5t-41.5 -106.5q0 -62 42.5 -106t101.5 -44q61 0 102.5 43t41.5 107q0 62 -41.5 106t-102.5 44zM171 426v5l19 15v138l-19 15v5h93
q25 0 40 -11t15 -31q0 -25 -29 -42l28 -47q15 -26 33 -41v-5q-14 -2 -27 -2q-17 0 -26 7.5t-19 25.5l-27 50h-19v-62l23 -15v-5h-85zM233 584v-57h20q9 0 16 8t7 20q0 29 -30 29h-13z" />
    <glyph glyph-name="macron" unicode="&#xaf;" 
d="M174 579h193l-9 -45h-193z" />
    <glyph glyph-name="degree" unicode="&#xb0;" horiz-adv-x="245" 
d="M116 561q0 -31 16.5 -49t39.5 -18q29 0 48 24t19 59q0 31 -16.5 48.5t-38.5 17.5q-30 0 -49 -23.5t-19 -58.5zM85 561q0 42 28 75.5t71 33.5q36 0 61 -24t25 -69q0 -43 -27.5 -76.5t-70.5 -33.5q-38 0 -62.5 24t-24.5 70z" />
    <glyph glyph-name="twosuperior" unicode="&#xb2;" horiz-adv-x="217" 
d="M220 428h-172l1 11q85 85 116.5 128t31.5 74q0 42 -44 42q-25 0 -49 -19l-5 4q27 53 85 53q32 0 50.5 -19t18.5 -50q0 -40 -33 -79t-111 -100h140z" />
    <glyph glyph-name="threesuperior" unicode="&#xb3;" horiz-adv-x="189" 
d="M97 579q76 44 76 76q0 31 -35 31q-20 0 -39 -15l-4 4q28 46 75 46q24 0 39 -13.5t15 -34.5q0 -41 -65 -69q31 -2 49.5 -17.5t18.5 -42.5q0 -44 -43 -78t-133 -45l-2 7q119 50 119 105q0 40 -50 40q-9 0 -19 -2z" />
    <glyph glyph-name="acute" unicode="&#xb4;" 
d="M182 495l-9 5l130 212l52 -42z" />
    <glyph glyph-name="paragraph" unicode="&#xb6;" horiz-adv-x="446" 
d="M110 0l1 6l72 44l55 331q-68 0 -113 37.5t-45 99.5q0 69 47.5 106.5t132.5 37.5h71l-111 -662h-110zM319 50l57 -44l-1 -6h-110l112 662h110l-1 -6l-71 -44z" />
    <glyph glyph-name="periodcentered" unicode="&#xb7;" horiz-adv-x="182" 
d="M101 299q20 0 34 -13.5t14 -34.5q0 -20 -14 -34t-34 -14q-21 0 -34.5 14t-13.5 34q0 21 13.5 34.5t34.5 13.5z" />
    <glyph glyph-name="cedilla" unicode="&#xb8;" 
d="M188 0l-52 -80q54 -22 54 -69q0 -79 -159 -132l-4 7q42 24 76 55t34 58q0 29 -46 46l-1 3q6 10 18 28l18 27q36 53 36 57h26z" />
    <glyph glyph-name="onesuperior" unicode="&#xb9;" horiz-adv-x="154" 
d="M52 428v4l37 23l42 212l-31 16v4l94 35l-52 -267l26 -23v-4h-116z" />
    <glyph glyph-name="ordmasculine" unicode="&#xba;" horiz-adv-x="300" 
d="M180 395q31 0 60 50.5t29 119.5q0 37 -11 59t-29 22q-33 0 -62.5 -54.5t-29.5 -115.5q0 -81 43 -81zM177 370q-45 0 -73 32t-28 80q0 74 47 131t107 57q44 0 72 -31.5t28 -77.5q0 -81 -47.5 -136t-105.5 -55z" />
    <glyph glyph-name="guillemotright" unicode="&#xbb;" horiz-adv-x="360" 
d="M84 379l99 -161l-159 -152l-7 6l105 153l-46 151zM217 379l99 -161l-159 -152l-7 6l105 153l-46 151z" />
    <glyph glyph-name="onequarter" unicode="&#xbc;" horiz-adv-x="482" 
d="M63 375v4l37 23l42 212l-31 16v4l94 35l-52 -267l26 -23v-4h-116zM414 3l-1 -3h-111l1 3l34 24l9 48h-118l1 7l173 206h38l-35 -178h50l-23 -35h-34l-9 -48zM352 110l22 112l-95 -112h73zM485 662h38l-490 -662h-38z" />
    <glyph glyph-name="onehalf" unicode="&#xbd;" horiz-adv-x="511" 
d="M485 662h38l-490 -662h-38zM63 375v4l37 23l42 212l-31 16v4l94 35l-52 -267l26 -23v-4h-116zM426 0h-172l1 11q85 85 116.5 128t31.5 74q0 42 -44 42q-25 0 -49 -19l-5 4q27 53 85 53q32 0 50.5 -19t18.5 -50q0 -40 -33 -79t-111 -100h140z" />
    <glyph glyph-name="threequarters" unicode="&#xbe;" horiz-adv-x="481" 
d="M492 662h38l-490 -662h-38zM108 526q76 44 76 76q0 31 -35 31q-20 0 -39 -15l-4 4q28 46 75 46q24 0 39 -13.5t15 -34.5q0 -41 -65 -69q31 -2 49.5 -17.5t18.5 -42.5q0 -44 -43 -78t-133 -45l-2 7q119 50 119 105q0 40 -50 40q-9 0 -19 -2zM414 3l-1 -3h-111l1 3l34 24
l9 48h-118l1 7l173 206h38l-35 -178h50l-23 -35h-34l-9 -48zM352 110l22 112l-95 -112h73z" />
    <glyph glyph-name="questiondown" unicode="&#xbf;" horiz-adv-x="294" 
d="M46 -14q8 8 35.5 32t40.5 37q28 27 38 68q1 5 14 78h9q12 -77 12 -110q0 -22 -8 -37.5t-31 -39.5l-68 -69q-53 -58 -53 -105q0 -33 15.5 -51t39.5 -18q11 0 23.5 4.5t21 10t19.5 16t15.5 16t14.5 16.5l9 12h7l-19 -96q-27 -10 -89 -10q-59 0 -93 25.5t-34 75.5
q0 69 81 145zM202 324q-20 0 -34 13.5t-14 34.5q0 20 14 34t34 14q21 0 34.5 -14t13.5 -34q0 -21 -13.5 -34.5t-34.5 -13.5z" />
    <glyph glyph-name="Agrave" unicode="&#xc0;" horiz-adv-x="567" 
d="M128 6l-2 -6h-162l2 6l65 44l335 625h9l108 -625l44 -44l-2 -6h-195l2 6l76 44l-41 231h-173l-122 -231zM211 312h151l-38 214zM261 781l38 58l158 -128l-6 -8z" />
    <glyph glyph-name="Aacute" unicode="&#xc1;" horiz-adv-x="567" 
d="M128 6l-2 -6h-162l2 6l65 44l335 625h9l108 -625l44 -44l-2 -6h-195l2 6l76 44l-41 231h-173l-122 -231zM211 312h151l-38 214zM283 703l-5 9l198 127l28 -60z" />
    <glyph glyph-name="Acircumflex" unicode="&#xc2;" horiz-adv-x="567" 
d="M128 6l-2 -6h-162l2 6l65 44l335 625h9l108 -625l44 -44l-2 -6h-195l2 6l76 44l-41 231h-173l-122 -231zM211 312h151l-38 214zM396 831l98 -118l-5 -6l-99 55l-130 -55l-5 7z" />
    <glyph glyph-name="Atilde" unicode="&#xc3;" horiz-adv-x="567" 
d="M128 6l-2 -6h-162l2 6l65 44l335 625h9l108 -625l44 -44l-2 -6h-195l2 6l76 44l-41 231h-173l-122 -231zM211 312h151l-38 214zM326 806q10 0 56.5 -11.5t58.5 -11.5q22 0 66 49l7 -3q-15 -36 -37.5 -67t-42.5 -31q-16 0 -61.5 11.5t-53.5 11.5q-24 0 -68 -52l-7 3
q16 36 39 68.5t43 32.5z" />
    <glyph glyph-name="Adieresis" unicode="&#xc4;" horiz-adv-x="567" 
d="M128 6l-2 -6h-162l2 6l65 44l335 625h9l108 -625l44 -44l-2 -6h-195l2 6l76 44l-41 231h-173l-122 -231zM211 312h151l-38 214zM462 807q17 0 28.5 -11.5t11.5 -28.5t-11.5 -29t-28.5 -12t-28.5 12t-11.5 29t11.5 28.5t28.5 11.5zM301 807q17 0 28.5 -11.5t11.5 -28.5
t-11.5 -29t-28.5 -12t-28.5 12t-11.5 29t11.5 28.5t28.5 11.5z" />
    <glyph glyph-name="Aring" unicode="&#xc5;" horiz-adv-x="567" 
d="M127 6l-2 -6h-162l2 6l65 44l335 625h9l108 -625l44 -44l-2 -6h-195l2 6l76 44l-41 231h-173l-122 -231zM210 312h151l-38 214zM330 777q0 -21 13.5 -36t34.5 -15t34.5 15t13.5 36t-13.5 36t-34.5 15t-34.5 -15t-13.5 -36zM300 777q0 32 23 54.5t55 22.5t55 -22.5
t23 -54.5q0 -33 -22.5 -55t-55.5 -22t-55.5 21.5t-22.5 55.5z" />
    <glyph glyph-name="AE" unicode="&#xc6;" horiz-adv-x="772" 
d="M361 50l44 267h-154l-181 -267l57 -44l-1 -6h-163l1 6l64 44l382 562l-55 44l1 6h423l-19 -117h-7l-45 85h-171l-43 -261h175l53 69h7l-28 -169h-7l-30 68h-176l-50 -304h186l84 105h7l-23 -138h-404l1 6zM410 349l44 267l-181 -267h137z" />
    <glyph glyph-name="Ccedilla" unicode="&#xc7;" horiz-adv-x="589" 
d="M338 -10q-17 0 -25 1l-46 -71q54 -22 54 -69q0 -79 -159 -132l-4 7q42 24 76 55t34 58q0 29 -46 46l-1 3q6 10 18 28l18 27q24 38 25 39q1 2 3.5 6t3.5 6q-32 5 -58 13q-78 28 -125.5 95t-47.5 167q0 162 112 282.5t272 120.5q98 0 160 -23l-19 -107h-6q-36 97 -142 97
q-123 0 -206 -108t-83 -262q0 -106 54.5 -176t137.5 -70q96 0 181 92h6l-19 -98q-58 -27 -168 -27z" />
    <glyph glyph-name="Egrave" unicode="&#xc8;" horiz-adv-x="487" 
d="M-3 0l1 6l72 44l93 562l-56 44l1 6h386l-20 -117h-7l-45 85h-176l-43 -261h181l53 69h7l-28 -169h-7l-30 68h-182l-50 -304h192l83 105h7l-22 -138h-410zM228 781l38 58l158 -128l-6 -8z" />
    <glyph glyph-name="Eacute" unicode="&#xc9;" horiz-adv-x="487" 
d="M-3 0l1 6l72 44l93 562l-56 44l1 6h386l-20 -117h-7l-45 85h-176l-43 -261h181l53 69h7l-28 -169h-7l-30 68h-182l-50 -304h192l83 105h7l-22 -138h-410zM237 703l-5 9l198 127l28 -60z" />
    <glyph glyph-name="Ecircumflex" unicode="&#xca;" horiz-adv-x="487" 
d="M-3 0l1 6l72 44l93 562l-56 44l1 6h386l-20 -117h-7l-45 85h-176l-43 -261h181l53 69h7l-28 -169h-7l-30 68h-182l-50 -304h192l83 105h7l-22 -138h-410zM348 831l98 -118l-5 -6l-99 55l-130 -55l-5 7z" />
    <glyph glyph-name="Edieresis" unicode="&#xcb;" horiz-adv-x="487" 
d="M-3 0l1 6l72 44l93 562l-56 44l1 6h386l-20 -117h-7l-45 85h-176l-43 -261h181l53 69h7l-28 -169h-7l-30 68h-182l-50 -304h192l83 105h7l-22 -138h-410zM416 807q17 0 28.5 -11.5t11.5 -28.5t-11.5 -29t-28.5 -12t-28.5 12t-11.5 29t11.5 28.5t28.5 11.5zM255 807
q17 0 28.5 -11.5t11.5 -28.5t-11.5 -29t-28.5 -12t-28.5 12t-11.5 29t11.5 28.5t28.5 11.5z" />
    <glyph glyph-name="Igrave" unicode="&#xcc;" horiz-adv-x="274" 
d="M-3 0l1 6l72 44l93 562l-56 44l1 6h207l-1 -6l-71 -44l-93 -562l57 -44l-1 -6h-209zM118 781l38 58l158 -128l-6 -8z" />
    <glyph glyph-name="Iacute" unicode="&#xcd;" horiz-adv-x="274" 
d="M-3 0l1 6l72 44l93 562l-56 44l1 6h207l-1 -6l-71 -44l-93 -562l57 -44l-1 -6h-209zM131 703l-5 9l198 127l28 -60z" />
    <glyph glyph-name="Icircumflex" unicode="&#xce;" horiz-adv-x="274" 
d="M-3 0l1 6l72 44l93 562l-56 44l1 6h207l-1 -6l-71 -44l-93 -562l57 -44l-1 -6h-209zM238 831l98 -118l-5 -6l-99 55l-130 -55l-5 7z" />
    <glyph glyph-name="Idieresis" unicode="&#xcf;" horiz-adv-x="274" 
d="M-3 0l1 6l72 44l93 562l-56 44l1 6h207l-1 -6l-71 -44l-93 -562l57 -44l-1 -6h-209zM308 807q17 0 28.5 -11.5t11.5 -28.5t-11.5 -29t-28.5 -12t-28.5 12t-11.5 29t11.5 28.5t28.5 11.5zM147 807q17 0 28.5 -11.5t11.5 -28.5t-11.5 -29t-28.5 -12t-28.5 12t-11.5 29
t11.5 28.5t28.5 11.5z" />
    <glyph glyph-name="Eth" unicode="&#xd0;" horiz-adv-x="637" 
d="M338 662q119 0 201.5 -74t82.5 -206q0 -94 -42 -180.5t-124.5 -144t-186.5 -57.5h-272l1 6l72 44l45 271h-75l6 32h74l43 259l-56 44l1 6h230zM195 321l-45 -272q47 -18 119 -18q109 0 187 99.5t78 244.5q0 125 -64.5 190.5t-156.5 65.5h-67l-46 -278h182l-6 -32h-181z
" />
    <glyph glyph-name="Ntilde" unicode="&#xd1;" horiz-adv-x="658" 
d="M505 0l-316 528l-78 -473l63 -49l-1 -6h-186l2 6l81 49l86 524q-16 25 -54 78v5h99l312 -530l78 475l-64 50l1 5h185l-1 -5l-80 -50l-99 -607h-28zM376 806q10 0 56.5 -11.5t58.5 -11.5q22 0 66 49l7 -3q-15 -36 -37.5 -67t-42.5 -31q-16 0 -61.5 11.5t-53.5 11.5
q-24 0 -68 -52l-7 3q16 36 39 68.5t43 32.5z" />
    <glyph glyph-name="Ograve" unicode="&#xd2;" horiz-adv-x="665" 
d="M400 640q-103 0 -176.5 -113t-73.5 -265q0 -110 47 -175t113 -65q102 0 176 114t74 275q0 108 -47 168.5t-113 60.5zM63 262q0 164 101.5 287t235.5 123q108 0 177.5 -74t69.5 -188q0 -174 -100.5 -297t-236.5 -123q-104 0 -175.5 75t-71.5 197zM315 781l38 58l158 -128
l-6 -8z" />
    <glyph glyph-name="Oacute" unicode="&#xd3;" horiz-adv-x="665" 
d="M400 640q-103 0 -176.5 -113t-73.5 -265q0 -110 47 -175t113 -65q102 0 176 114t74 275q0 108 -47 168.5t-113 60.5zM63 262q0 164 101.5 287t235.5 123q108 0 177.5 -74t69.5 -188q0 -174 -100.5 -297t-236.5 -123q-104 0 -175.5 75t-71.5 197zM320 703l-5 9l198 127
l28 -60z" />
    <glyph glyph-name="Ocircumflex" unicode="&#xd4;" horiz-adv-x="665" 
d="M400 640q-103 0 -176.5 -113t-73.5 -265q0 -110 47 -175t113 -65q102 0 176 114t74 275q0 108 -47 168.5t-113 60.5zM63 262q0 164 101.5 287t235.5 123q108 0 177.5 -74t69.5 -188q0 -174 -100.5 -297t-236.5 -123q-104 0 -175.5 75t-71.5 197zM438 831l98 -118l-5 -6
l-99 55l-130 -55l-5 7z" />
    <glyph glyph-name="Otilde" unicode="&#xd5;" horiz-adv-x="665" 
d="M400 640q-103 0 -176.5 -113t-73.5 -265q0 -110 47 -175t113 -65q102 0 176 114t74 275q0 108 -47 168.5t-113 60.5zM63 262q0 164 101.5 287t235.5 123q108 0 177.5 -74t69.5 -188q0 -174 -100.5 -297t-236.5 -123q-104 0 -175.5 75t-71.5 197zM372 806q10 0 56.5 -11.5
t58.5 -11.5q22 0 66 49l7 -3q-15 -36 -37.5 -67t-42.5 -31q-16 0 -61.5 11.5t-53.5 11.5q-24 0 -68 -52l-7 3q16 36 39 68.5t43 32.5z" />
    <glyph glyph-name="Odieresis" unicode="&#xd6;" horiz-adv-x="665" 
d="M400 640q-103 0 -176.5 -113t-73.5 -265q0 -110 47 -175t113 -65q102 0 176 114t74 275q0 108 -47 168.5t-113 60.5zM63 262q0 164 101.5 287t235.5 123q108 0 177.5 -74t69.5 -188q0 -174 -100.5 -297t-236.5 -123q-104 0 -175.5 75t-71.5 197zM505 807q17 0 28.5 -11.5
t11.5 -28.5t-11.5 -29t-28.5 -12t-28.5 12t-11.5 29t11.5 28.5t28.5 11.5zM344 807q17 0 28.5 -11.5t11.5 -28.5t-11.5 -29t-28.5 -12t-28.5 12t-11.5 29t11.5 28.5t28.5 11.5z" />
    <glyph glyph-name="multiply" unicode="&#xd7;" horiz-adv-x="363" 
d="M175 247l-87 129l29 21l83 -126l133 126l22 -24l-137 -129l88 -132l-28 -19l-85 127l-134 -127l-22 23z" />
    <glyph glyph-name="Oslash" unicode="&#xd8;" horiz-adv-x="665" 
d="M63 262q0 164 101.5 287t235.5 123q81 0 146 -47l61 85l26 -18l-62 -87q76 -74 76 -195q0 -174 -100.5 -297t-236.5 -123q-82 0 -143 46l-70 -98l-26 18l71 101q-79 76 -79 205zM400 640q-103 0 -176.5 -113t-73.5 -265q0 -88 32 -150l331 466q-44 62 -113 62zM560 411
q-2 85 -29 138l-331 -466q44 -61 110 -61q102 0 176 114t74 275z" />
    <glyph glyph-name="Ugrave" unicode="&#xd9;" horiz-adv-x="637" 
d="M549 199q-15 -88 -75.5 -148.5t-159.5 -60.5q-119 0 -180 61.5t-45 162.5l66 398l-56 44l1 6h207l-1 -6l-71 -44l-67 -401q-14 -79 32.5 -125.5t126.5 -46.5q77 0 122.5 44t58.5 116l69 413l-56 44l1 6h167l-1 -6l-71 -44zM309 781l38 58l158 -128l-6 -8z" />
    <glyph glyph-name="Uacute" unicode="&#xda;" horiz-adv-x="637" 
d="M549 199q-15 -88 -75.5 -148.5t-159.5 -60.5q-119 0 -180 61.5t-45 162.5l66 398l-56 44l1 6h207l-1 -6l-71 -44l-67 -401q-14 -79 32.5 -125.5t126.5 -46.5q77 0 122.5 44t58.5 116l69 413l-56 44l1 6h167l-1 -6l-71 -44zM321 703l-5 9l198 127l28 -60z" />
    <glyph glyph-name="Ucircumflex" unicode="&#xdb;" horiz-adv-x="637" 
d="M549 199q-15 -88 -75.5 -148.5t-159.5 -60.5q-119 0 -180 61.5t-45 162.5l66 398l-56 44l1 6h207l-1 -6l-71 -44l-67 -401q-14 -79 32.5 -125.5t126.5 -46.5q77 0 122.5 44t58.5 116l69 413l-56 44l1 6h167l-1 -6l-71 -44zM439 831l98 -118l-5 -6l-99 55l-130 -55l-5 7z
" />
    <glyph glyph-name="Udieresis" unicode="&#xdc;" horiz-adv-x="637" 
d="M549 199q-15 -88 -75.5 -148.5t-159.5 -60.5q-119 0 -180 61.5t-45 162.5l66 398l-56 44l1 6h207l-1 -6l-71 -44l-67 -401q-14 -79 32.5 -125.5t126.5 -46.5q77 0 122.5 44t58.5 116l69 413l-56 44l1 6h167l-1 -6l-71 -44zM501 807q17 0 28.5 -11.5t11.5 -28.5t-11.5 -29
t-28.5 -12t-28.5 12t-11.5 29t11.5 28.5t28.5 11.5zM340 807q17 0 28.5 -11.5t11.5 -28.5t-11.5 -29t-28.5 -12t-28.5 12t-11.5 29t11.5 28.5t28.5 11.5z" />
    <glyph glyph-name="Yacute" unicode="&#xdd;" horiz-adv-x="548" 
d="M450 656l1 6h161l-1 -6l-63 -44l-210 -292l-44 -270l57 -44l-1 -6h-209l1 6l72 44l43 265l-127 297l-46 44l1 6h202l-1 -6l-73 -44l108 -259l184 259zM283 703l-5 9l198 127l28 -60z" />
    <glyph glyph-name="Thorn" unicode="&#xde;" horiz-adv-x="476" 
d="M220 472l-70 -422l57 -44l-1 -6h-209l1 6l72 44l93 562l-56 44l1 6h207l-1 -6l-71 -44l-18 -109h62q83 0 137.5 -36.5t54.5 -102.5q0 -79 -76.5 -128t-191.5 -51l2 8q87 16 135.5 58.5t48.5 109.5q0 54 -34 82.5t-94 28.5h-49z" />
    <glyph glyph-name="germandbls" unicode="&#xdf;" horiz-adv-x="428" 
d="M325 717q58 0 91.5 -28.5t33.5 -75.5q0 -34 -17.5 -64t-42 -51.5t-49 -41t-42 -41.5t-17.5 -44q0 -5 0.5 -10t2.5 -11t4 -10.5t5.5 -11.5t6 -11.5t8 -12.5t8 -12.5t9.5 -14.5t10 -15q23 -37 33 -54.5t18 -42.5t8 -51q0 -50 -38.5 -87t-99.5 -37q-51 0 -99 28q8 72 17 115
h6q18 -111 79 -111q33 0 52.5 21t19.5 54q0 9 -0.5 16t-3.5 16t-5 14t-8 16t-9 16t-12.5 20.5t-14.5 23.5q-3 5 -13 20.5t-13 20t-10 16.5t-9 18t-5.5 15.5t-4.5 18t-1 17.5q0 33 25 64.5t55 54.5t55 61.5t25 84.5q0 75 -72 75q-93 0 -119 -142q-10 -50 -47.5 -251.5
t-52.5 -279.5q-8 -41 -16 -71t-26.5 -72t-42.5 -69t-65 -48t-93 -22l-12 55q37 -4 64 -4q36 0 56 20.5t36 75t40 177.5q56 313 83 459q13 83 67.5 143.5t141.5 60.5z" />
    <glyph glyph-name="agrave" unicode="&#xe0;" horiz-adv-x="408" 
d="M364 26l-1 -7q-47 -16 -143 -27l31 149q-41 -63 -88 -107t-87 -44q-24 0 -42.5 26.5t-18.5 71.5q0 65 32 131.5t100.5 120.5t157.5 65l81 46l-81 -398zM262 195l38 180q-81 -6 -145.5 -93.5t-64.5 -192.5q0 -45 19 -45q17 0 53.5 33t72.5 80q9 13 27 37v1zM295 495
l-124 187l61 30l72 -212z" />
    <glyph glyph-name="aacute" unicode="&#xe1;" horiz-adv-x="408" 
d="M364 26l-1 -7q-47 -16 -143 -27l31 149q-41 -63 -88 -107t-87 -44q-24 0 -42.5 26.5t-18.5 71.5q0 65 32 131.5t100.5 120.5t157.5 65l81 46l-81 -398zM262 195l38 180q-81 -6 -145.5 -93.5t-64.5 -192.5q0 -45 19 -45q17 0 53.5 33t72.5 80q9 13 27 37v1zM227 495l-9 5
l130 212l52 -42z" />
    <glyph glyph-name="acircumflex" unicode="&#xe2;" horiz-adv-x="408" 
d="M364 26l-1 -7q-47 -16 -143 -27l31 149q-41 -63 -88 -107t-87 -44q-24 0 -42.5 26.5t-18.5 71.5q0 65 32 131.5t100.5 120.5t157.5 65l81 46l-81 -398zM262 195l38 180q-81 -6 -145.5 -93.5t-64.5 -192.5q0 -45 19 -45q17 0 53.5 33t72.5 80q9 13 27 37v1zM300 706
l52 -218l-9 -3l-61 113l-113 -113l-9 5z" />
    <glyph glyph-name="atilde" unicode="&#xe3;" horiz-adv-x="408" 
d="M364 26l-1 -7q-47 -16 -143 -27l31 149q-41 -63 -88 -107t-87 -44q-24 0 -42.5 26.5t-18.5 71.5q0 65 32 131.5t100.5 120.5t157.5 65l81 46l-81 -398zM262 195l38 180q-81 -6 -145.5 -93.5t-64.5 -192.5q0 -45 19 -45q17 0 53.5 33t72.5 80q9 13 27 37v1zM235 611
q11 0 49 -15t48 -15q11 0 31 17.5t35 38.5l7 -4q-13 -38 -36.5 -70t-43.5 -32q-14 0 -51.5 14.5t-45.5 14.5q-21 0 -68 -55l-7 4q16 38 40 70t42 32z" />
    <glyph glyph-name="adieresis" unicode="&#xe4;" horiz-adv-x="408" 
d="M364 26l-1 -7q-47 -16 -143 -27l31 149q-41 -63 -88 -107t-87 -44q-24 0 -42.5 26.5t-18.5 71.5q0 65 32 131.5t100.5 120.5t157.5 65l81 46l-81 -398zM262 195l38 180q-81 -6 -145.5 -93.5t-64.5 -192.5q0 -45 19 -45q17 0 53.5 33t72.5 80q9 13 27 37v1zM334 624
q17 0 28.5 -11.5t11.5 -28.5t-11.5 -29t-28.5 -12t-28.5 12t-11.5 29t11.5 28.5t28.5 11.5zM179 624q17 0 28.5 -11.5t11.5 -28.5t-11.5 -29t-28.5 -12t-28.5 12t-11.5 29t11.5 28.5t28.5 11.5z" />
    <glyph glyph-name="aring" unicode="&#xe5;" horiz-adv-x="408" 
d="M364 26l-1 -7q-47 -16 -143 -27l31 149q-41 -63 -88 -107t-87 -44q-24 0 -42.5 26.5t-18.5 71.5q0 65 32 131.5t100.5 120.5t157.5 65l81 46l-81 -398zM262 195l38 180q-81 -6 -145.5 -93.5t-64.5 -192.5q0 -45 19 -45q17 0 53.5 33t72.5 80q9 13 27 37v1zM208 575
q0 -21 13.5 -36t34.5 -15t34.5 15t13.5 36t-13.5 36t-34.5 15t-34.5 -15t-13.5 -36zM178 575q0 32 23 54.5t55 22.5t55 -22.5t23 -54.5q0 -33 -22.5 -55t-55.5 -22t-55.5 21.5t-22.5 55.5z" />
    <glyph glyph-name="ae" unicode="&#xe6;" horiz-adv-x="547" 
d="M339 -10q-39 0 -70 31t-31 92v10q-94 -133 -160 -133q-25 0 -43.5 26t-18.5 72q0 119 87.5 223t201.5 104q46 0 82 -21q44 26 85 26q35 0 55 -11.5t20 -29.5q0 -12 -9.5 -27.5t-31 -35t-66 -36t-104.5 -23.5q-23 -60 -23 -134q0 -85 53 -85q55 0 128 87l9 -6
q-32 -62 -75 -95.5t-89 -33.5zM288 386q-67 0 -132 -91.5t-65 -206.5q0 -44 20 -44t57 35t74 86q19 118 104 198q-25 23 -58 23zM482 373q0 20 -26 20t-56.5 -31t-53.5 -82q55 11 95.5 35.5t40.5 57.5z" />
    <glyph glyph-name="ccedilla" unicode="&#xe7;" horiz-adv-x="331" 
d="M247 420q54 0 93 -17l-27 -71h-4q-38 56 -73 56q-48 0 -93 -77t-45 -173q0 -49 12.5 -74t32.5 -25q32 0 70 29.5t60 58.5l8 -5q-41 -87 -110 -120q-13 -6 -27 -9l-47 -73q54 -22 54 -69q0 -79 -159 -132l-4 7q42 24 76 55t34 58q0 29 -46 46l-1 3q6 10 18 28l18 27
q24 38 25 39q4 6 5 8q-37 2 -66 36q-28 35 -28 99q0 117 70 206t154 89z" />
    <glyph glyph-name="egrave" unicode="&#xe8;" horiz-adv-x="331" 
d="M123 -10q-39 0 -70 31t-31 92q0 117 73 212t161 95q35 0 55 -11.5t20 -29.5q0 -12 -9.5 -27.5t-31 -35t-66 -36t-104.5 -23.5q-23 -60 -23 -134q0 -85 53 -85q55 0 128 87l9 -6q-69 -129 -164 -129zM240 393q-26 0 -56.5 -31t-53.5 -82q55 11 95.5 35.5t40.5 57.5
q0 20 -26 20zM276 495l-124 187l61 30l72 -212z" />
    <glyph glyph-name="eacute" unicode="&#xe9;" horiz-adv-x="331" 
d="M123 -10q-39 0 -70 31t-31 92q0 117 73 212t161 95q35 0 55 -11.5t20 -29.5q0 -12 -9.5 -27.5t-31 -35t-66 -36t-104.5 -23.5q-23 -60 -23 -134q0 -85 53 -85q55 0 128 87l9 -6q-69 -129 -164 -129zM240 393q-26 0 -56.5 -31t-53.5 -82q55 11 95.5 35.5t40.5 57.5
q0 20 -26 20zM204 495l-9 5l130 212l52 -42z" />
    <glyph glyph-name="ecircumflex" unicode="&#xea;" horiz-adv-x="331" 
d="M123 -10q-39 0 -70 31t-31 92q0 117 73 212t161 95q35 0 55 -11.5t20 -29.5q0 -12 -9.5 -27.5t-31 -35t-66 -36t-104.5 -23.5q-23 -60 -23 -134q0 -85 53 -85q55 0 128 87l9 -6q-69 -129 -164 -129zM240 393q-26 0 -56.5 -31t-53.5 -82q55 11 95.5 35.5t40.5 57.5
q0 20 -26 20zM268 706l52 -218l-9 -3l-61 113l-113 -113l-9 5z" />
    <glyph glyph-name="edieresis" unicode="&#xeb;" horiz-adv-x="331" 
d="M123 -10q-39 0 -70 31t-31 92q0 117 73 212t161 95q35 0 55 -11.5t20 -29.5q0 -12 -9.5 -27.5t-31 -35t-66 -36t-104.5 -23.5q-23 -60 -23 -134q0 -85 53 -85q55 0 128 87l9 -6q-69 -129 -164 -129zM240 393q-26 0 -56.5 -31t-53.5 -82q55 11 95.5 35.5t40.5 57.5
q0 20 -26 20zM320 624q17 0 28.5 -11.5t11.5 -28.5t-11.5 -29t-28.5 -12t-28.5 12t-11.5 29t11.5 28.5t28.5 11.5zM165 624q17 0 28.5 -11.5t11.5 -28.5t-11.5 -29t-28.5 -12t-28.5 12t-11.5 29t11.5 28.5t28.5 11.5z" />
    <glyph glyph-name="igrave" unicode="&#xec;" horiz-adv-x="219" 
d="M101 348l-56 26v7q67 25 139 42l-69 -370l60 -29v-5q-53 -17 -142 -27zM196 495l-124 187l61 30l72 -212z" />
    <glyph glyph-name="iacute" unicode="&#xed;" horiz-adv-x="219" 
d="M101 348l-56 26v7q67 25 139 42l-69 -370l60 -29v-5q-53 -17 -142 -27zM118 495l-9 5l130 212l52 -42z" />
    <glyph glyph-name="icircumflex" unicode="&#xee;" horiz-adv-x="219" 
d="M101 348l-56 26v7q67 25 139 42l-69 -370l60 -29v-5q-53 -17 -142 -27zM190 706l52 -218l-9 -3l-61 113l-113 -113l-9 5z" />
    <glyph glyph-name="idieresis" unicode="&#xef;" horiz-adv-x="219" 
d="M101 348l-56 26v7q67 25 139 42l-69 -370l60 -29v-5q-53 -17 -142 -27zM239 624q17 0 28.5 -11.5t11.5 -28.5t-11.5 -29t-28.5 -12t-28.5 12t-11.5 29t11.5 28.5t28.5 11.5zM94 624q17 0 28.5 -11.5t11.5 -28.5t-11.5 -29t-28.5 -12t-28.5 12t-11.5 29t11.5 28.5
t28.5 11.5z" />
    <glyph glyph-name="eth" unicode="&#xf0;" horiz-adv-x="402" 
d="M141 719q73 -39 131 -104l104 60l14 -25l-99 -57q88 -115 88 -255q0 -157 -68 -252.5t-154 -95.5q-61 0 -97.5 47.5t-36.5 111.5q0 112 69 189.5t154 77.5q33 0 53 -13q-11 91 -52 165l-137 -79l-14 25l137 79q-11 18 -25 36.5t-23.5 29.5t-25 28.5t-21.5 23.5zM303 340
q0 6 -0.5 15t-0.5 15q-26 15 -54 15q-62 0 -105 -72.5t-43 -171.5q0 -57 16 -89.5t45 -32.5q49 0 95.5 91.5t46.5 229.5z" />
    <glyph glyph-name="ntilde" unicode="&#xf1;" horiz-adv-x="445" 
d="M29 0l71 348l-54 26v7q57 24 142 42l-35 -163q57 72 113.5 116t98.5 44q43 0 43 -34q0 -17 -71 -333l58 -27v-7q-47 -16 -142 -27q77 346 77 353q0 10 -13 10q-21 0 -68 -36.5t-105 -99.5l-46 -219h-69zM244 611q10 0 48 -15t49 -15t31 17.5t35 38.5l7 -4
q-13 -38 -36.5 -70t-43.5 -32q-14 0 -51.5 14.5t-45.5 14.5q-21 0 -68 -55l-7 4q16 38 40 70t42 32z" />
    <glyph glyph-name="ograve" unicode="&#xf2;" horiz-adv-x="398" 
d="M163 -10q-61 0 -100.5 45.5t-39.5 114.5q0 105 66 187.5t150 82.5q58 0 97.5 -45t39.5 -111q0 -116 -67 -195t-146 -79zM167 19q48 0 90 74t42 177q0 58 -16.5 89.5t-45.5 31.5q-50 0 -93 -78.5t-43 -170.5q0 -123 66 -123zM279 495l-124 187l61 30l72 -212z" />
    <glyph glyph-name="oacute" unicode="&#xf3;" horiz-adv-x="398" 
d="M163 -10q-61 0 -100.5 45.5t-39.5 114.5q0 105 66 187.5t150 82.5q58 0 97.5 -45t39.5 -111q0 -116 -67 -195t-146 -79zM167 19q48 0 90 74t42 177q0 58 -16.5 89.5t-45.5 31.5q-50 0 -93 -78.5t-43 -170.5q0 -123 66 -123zM204 495l-9 5l130 212l52 -42z" />
    <glyph glyph-name="ocircumflex" unicode="&#xf4;" horiz-adv-x="398" 
d="M163 -10q-61 0 -100.5 45.5t-39.5 114.5q0 105 66 187.5t150 82.5q58 0 97.5 -45t39.5 -111q0 -116 -67 -195t-146 -79zM167 19q48 0 90 74t42 177q0 58 -16.5 89.5t-45.5 31.5q-50 0 -93 -78.5t-43 -170.5q0 -123 66 -123zM293 706l52 -218l-9 -3l-61 113l-113 -113
l-9 5z" />
    <glyph glyph-name="otilde" unicode="&#xf5;" horiz-adv-x="398" 
d="M163 -10q-61 0 -100.5 45.5t-39.5 114.5q0 105 66 187.5t150 82.5q58 0 97.5 -45t39.5 -111q0 -116 -67 -195t-146 -79zM167 19q48 0 90 74t42 177q0 58 -16.5 89.5t-45.5 31.5q-50 0 -93 -78.5t-43 -170.5q0 -123 66 -123zM217 611q11 0 49 -15t48 -15q11 0 31 17.5
t35 38.5l7 -4q-13 -38 -36.5 -70t-43.5 -32q-14 0 -51.5 14.5t-45.5 14.5q-21 0 -68 -55l-7 4q16 38 40 70t42 32z" />
    <glyph glyph-name="odieresis" unicode="&#xf6;" horiz-adv-x="398" 
d="M163 -10q-61 0 -100.5 45.5t-39.5 114.5q0 105 66 187.5t150 82.5q58 0 97.5 -45t39.5 -111q0 -116 -67 -195t-146 -79zM167 19q48 0 90 74t42 177q0 58 -16.5 89.5t-45.5 31.5q-50 0 -93 -78.5t-43 -170.5q0 -123 66 -123zM334 624q17 0 28.5 -11.5t11.5 -28.5
t-11.5 -29t-28.5 -12t-28.5 12t-11.5 29t11.5 28.5t28.5 11.5zM179 624q17 0 28.5 -11.5t11.5 -28.5t-11.5 -29t-28.5 -12t-28.5 12t-11.5 29t11.5 28.5t28.5 11.5z" />
    <glyph glyph-name="divide" unicode="&#xf7;" horiz-adv-x="413" 
d="M47 230l7 33h323l-7 -33h-323zM141 94q0 17 12.5 29.5t29.5 12.5q18 0 30.5 -12.5t12.5 -29.5q0 -18 -12.5 -30.5t-30.5 -12.5q-17 0 -29.5 12.5t-12.5 30.5zM199 393q0 17 12.5 29t29.5 12q18 0 30.5 -12t12.5 -29q0 -18 -12.5 -30.5t-30.5 -12.5q-17 0 -29.5 12.5
t-12.5 30.5z" />
    <glyph glyph-name="oslash" unicode="&#xf8;" horiz-adv-x="398" 
d="M15 -50l52 80q-44 46 -44 120q0 105 66 187.5t150 82.5q36 0 70 -21l46 70l24 -15l-48 -74q45 -47 45 -116q0 -116 -67 -195t-146 -79q-42 0 -74 22l-50 -77zM167 19q48 0 90 74t42 177q0 26 -5 54l-178 -271q16 -34 51 -34zM101 142q0 -37 4 -54l178 271q-17 32 -46 32
q-50 0 -93 -78.5t-43 -170.5z" />
    <glyph glyph-name="ugrave" unicode="&#xf9;" horiz-adv-x="432" 
d="M283 176q-53 -79 -107.5 -130.5t-96.5 -51.5q-22 0 -34 9.5t-12 22.5q0 16 7 41q53 227 65 281l-55 26v7q61 23 143 42q-20 -91 -41.5 -182.5t-30.5 -130t-9 -43.5q0 -9 12 -9q21 0 73 53.5t98 116.5l39 182h70l-74 -359l57 -26v-6q-122 -24 -143 -27zM311 495l-124 187
l61 30l72 -212z" />
    <glyph glyph-name="uacute" unicode="&#xfa;" horiz-adv-x="432" 
d="M283 176q-53 -79 -107.5 -130.5t-96.5 -51.5q-22 0 -34 9.5t-12 22.5q0 16 7 41q53 227 65 281l-55 26v7q61 23 143 42q-20 -91 -41.5 -182.5t-30.5 -130t-9 -43.5q0 -9 12 -9q21 0 73 53.5t98 116.5l39 182h70l-74 -359l57 -26v-6q-122 -24 -143 -27zM242 495l-9 5
l130 212l52 -42z" />
    <glyph glyph-name="ucircumflex" unicode="&#xfb;" horiz-adv-x="432" 
d="M283 176q-53 -79 -107.5 -130.5t-96.5 -51.5q-22 0 -34 9.5t-12 22.5q0 16 7 41q53 227 65 281l-55 26v7q61 23 143 42q-20 -91 -41.5 -182.5t-30.5 -130t-9 -43.5q0 -9 12 -9q21 0 73 53.5t98 116.5l39 182h70l-74 -359l57 -26v-6q-122 -24 -143 -27zM315 706l52 -218
l-9 -3l-61 113l-113 -113l-9 5z" />
    <glyph glyph-name="udieresis" unicode="&#xfc;" horiz-adv-x="432" 
d="M283 176q-53 -79 -107.5 -130.5t-96.5 -51.5q-22 0 -34 9.5t-12 22.5q0 16 7 41q53 227 65 281l-55 26v7q61 23 143 42q-20 -91 -41.5 -182.5t-30.5 -130t-9 -43.5q0 -9 12 -9q21 0 73 53.5t98 116.5l39 182h70l-74 -359l57 -26v-6q-122 -24 -143 -27zM359 624
q17 0 28.5 -11.5t11.5 -28.5t-11.5 -29t-28.5 -12t-28.5 12t-11.5 29t11.5 28.5t28.5 11.5zM204 624q17 0 28.5 -11.5t11.5 -28.5t-11.5 -29t-28.5 -12t-28.5 12t-11.5 29t11.5 28.5t28.5 11.5z" />
    <glyph glyph-name="yacute" unicode="&#xfd;" horiz-adv-x="344" 
d="M274 349q0 26 -24 47v3l80 22q15 -19 15 -46q0 -62 -170 -310q-16 -24 -25 -37l-206 -299l-80 11v6q51 43 119 119t113 133q-7 201 -26 357l-50 27v6q54 19 110 35q25 -158 25 -338q67 111 93 169t26 95zM185 495l-9 5l130 212l52 -42z" />
    <glyph glyph-name="thorn" unicode="&#xfe;" horiz-adv-x="413" 
d="M39 -219l94 -45l-1 -6h-225l1 6l61 41l177 872l-60 29v6q50 19 146 41q0 -19 -93 -463q101 158 170 158q10 0 21.5 -4t26.5 -14.5t24.5 -36t9.5 -61.5q0 -50 -17.5 -104t-48 -101.5t-77.5 -78t-101 -30.5q-37 0 -63 16zM283 366q-47 0 -156 -160q-13 -64 -21 -105
q-1 -4 -3.5 -19t-4.5 -22q0 -14 12.5 -26.5t36.5 -12.5q43 0 82.5 44.5t62 109t22.5 126.5q0 65 -31 65z" />
    <glyph glyph-name="ydieresis" unicode="&#xff;" horiz-adv-x="344" 
d="M274 349q0 26 -24 47v3l80 22q15 -19 15 -46q0 -62 -170 -310q-16 -24 -25 -37l-206 -299l-80 11v6q51 43 119 119t113 133q-7 201 -26 357l-50 27v6q54 19 110 35q25 -158 25 -338q67 111 93 169t26 95zM301 624q17 0 28.5 -11.5t11.5 -28.5t-11.5 -29t-28.5 -12
t-28.5 12t-11.5 29t11.5 28.5t28.5 11.5zM146 624q17 0 28.5 -11.5t11.5 -28.5t-11.5 -29t-28.5 -12t-28.5 12t-11.5 29t11.5 28.5t28.5 11.5z" />
    <glyph glyph-name="Amacron" unicode="&#x100;" horiz-adv-x="567" 
d="M128 6l-2 -6h-162l2 6l65 44l335 625h9l108 -625l44 -44l-2 -6h-195l2 6l76 44l-41 231h-173l-122 -231zM211 312h151l-38 214zM491 772l-8 -45h-216l8 45h216z" />
    <glyph glyph-name="amacron" unicode="&#x101;" horiz-adv-x="408" 
d="M364 26l-1 -7q-47 -16 -143 -27l31 149q-41 -63 -88 -107t-87 -44q-24 0 -42.5 26.5t-18.5 71.5q0 65 32 131.5t100.5 120.5t157.5 65l81 46l-81 -398zM262 195l38 180q-81 -6 -145.5 -93.5t-64.5 -192.5q0 -45 19 -45q17 0 53.5 33t72.5 80q9 13 27 37v1zM169 579h193
l-9 -45h-193z" />
    <glyph glyph-name="Abreve" unicode="&#x102;" horiz-adv-x="567" 
d="M128 6l-2 -6h-162l2 6l65 44l335 625h9l108 -625l44 -44l-2 -6h-195l2 6l76 44l-41 231h-173l-122 -231zM211 312h151l-38 214zM492 831q-13 -55 -43 -86.5t-74 -31.5q-45 0 -67 33.5t-18 84.5l7 1q12 -65 79 -65q69 0 109 65z" />
    <glyph glyph-name="abreve" unicode="&#x103;" horiz-adv-x="408" 
d="M364 26l-1 -7q-47 -16 -143 -27l31 149q-41 -63 -88 -107t-87 -44q-24 0 -42.5 26.5t-18.5 71.5q0 65 32 131.5t100.5 120.5t157.5 65l81 46l-81 -398zM262 195l38 180q-81 -6 -145.5 -93.5t-64.5 -192.5q0 -45 19 -45q17 0 53.5 33t72.5 80q9 13 27 37v1zM367 631
q-12 -56 -40 -89t-70 -33q-45 0 -65 35.5t-11 86.5l8 1q2 -30 19.5 -50t49.5 -20q65 0 101 70z" />
    <glyph glyph-name="Aogonek" unicode="&#x104;" horiz-adv-x="567" 
d="M417 0l-49 281h-174l-122 -231l56 -44l-2 -6h-162l2 6l65 44l335 625h9l108 -625l44 -44l-2 -6h-84q-110 -116 -110 -188q0 -22 11.5 -35.5t32.5 -13.5q38 0 75 33l5 -4q-14 -24 -43.5 -46.5t-69.5 -22.5q-34 0 -55.5 21t-21.5 53q0 27 13 54.5t41 57.5t45 45.5t53 45.5z
M211 312h151l-37 215z" />
    <glyph glyph-name="aogonek" unicode="&#x105;" horiz-adv-x="408" 
d="M69 -203q0 35 28 76.5t54 65.5t71 61l29 141q-100 -151 -175 -151q-24 0 -42.5 26.5t-18.5 71.5q0 65 32 131.5t100.5 120.5t157.5 65l81 46l-81 -398l59 -27l-1 -7q-34 -14 -123 -24q-105 -112 -105 -183q0 -22 11.5 -35.5t32.5 -13.5q38 0 75 33l5 -4
q-14 -24 -43.5 -46.5t-69.5 -22.5q-34 0 -55.5 21t-21.5 53zM109 44q22 0 67.5 46t85.5 105l38 180q-81 -6 -145.5 -93.5t-64.5 -192.5q0 -45 19 -45z" />
    <glyph glyph-name="Cacute" unicode="&#x106;" horiz-adv-x="589" 
d="M338 -10q-118 0 -199 73t-81 206q0 162 112 282.5t272 120.5q98 0 160 -23l-19 -107h-6q-36 97 -142 97q-123 0 -206 -108t-83 -262q0 -106 54.5 -176t137.5 -70q96 0 181 92h6l-19 -98q-58 -27 -168 -27zM334 703l-5 9l198 127l28 -60z" />
    <glyph glyph-name="cacute" unicode="&#x107;" horiz-adv-x="331" 
d="M247 420q54 0 93 -17l-27 -71h-4q-38 56 -73 56q-48 0 -93 -77t-45 -173q0 -49 12.5 -74t32.5 -25q32 0 70 29.5t60 58.5l8 -5q-25 -53 -68 -92.5t-93 -39.5q-41 0 -69 37t-28 98q0 117 70 206t154 89zM204 495l-9 5l130 212l52 -42z" />
    <glyph glyph-name="Ccircumflex" unicode="&#x108;" horiz-adv-x="589" 
d="M338 -10q-118 0 -199 73t-81 206q0 162 112 282.5t272 120.5q98 0 160 -23l-19 -107h-6q-36 97 -142 97q-123 0 -206 -108t-83 -262q0 -106 54.5 -176t137.5 -70q96 0 181 92h6l-19 -98q-58 -27 -168 -27zM437 831l98 -118l-5 -6l-99 55l-130 -55l-5 7z" />
    <glyph glyph-name="ccircumflex" unicode="&#x109;" horiz-adv-x="331" 
d="M247 420q54 0 93 -17l-27 -71h-4q-38 56 -73 56q-48 0 -93 -77t-45 -173q0 -49 12.5 -74t32.5 -25q32 0 70 29.5t60 58.5l8 -5q-25 -53 -68 -92.5t-93 -39.5q-41 0 -69 37t-28 98q0 117 70 206t154 89zM284 706l52 -218l-9 -3l-61 113l-113 -113l-9 5z" />
    <glyph glyph-name="Cdotaccent" unicode="&#x10a;" horiz-adv-x="589" 
d="M338 -10q-118 0 -199 73t-81 206q0 162 112 282.5t272 120.5q98 0 160 -23l-19 -107h-6q-36 97 -142 97q-123 0 -206 -108t-83 -262q0 -106 54.5 -176t137.5 -70q96 0 181 92h6l-19 -98q-58 -27 -168 -27zM430 808q17 0 29 -12t12 -29t-12 -29t-29 -12t-29 12t-12 29
t12 29t29 12z" />
    <glyph glyph-name="cdotaccent" unicode="&#x10b;" horiz-adv-x="331" 
d="M247 420q54 0 93 -17l-27 -71h-4q-38 56 -73 56q-48 0 -93 -77t-45 -173q0 -49 12.5 -74t32.5 -25q32 0 70 29.5t60 58.5l8 -5q-25 -53 -68 -92.5t-93 -39.5q-41 0 -69 37t-28 98q0 117 70 206t154 89zM256 629q17 0 29 -12t12 -29t-12 -29t-29 -12t-29 12t-12 29t12 29
t29 12z" />
    <glyph glyph-name="Ccaron" unicode="&#x10c;" horiz-adv-x="589" 
d="M338 -10q-118 0 -199 73t-81 206q0 162 112 282.5t272 120.5q98 0 160 -23l-19 -107h-6q-36 97 -142 97q-123 0 -206 -108t-83 -262q0 -106 54.5 -176t137.5 -70q96 0 181 92h6l-19 -98q-58 -27 -168 -27zM424 702l-98 118l5 6l99 -55l130 55l5 -7z" />
    <glyph glyph-name="ccaron" unicode="&#x10d;" horiz-adv-x="331" 
d="M247 420q54 0 93 -17l-27 -71h-4q-38 56 -73 56q-48 0 -93 -77t-45 -173q0 -49 12.5 -74t32.5 -25q32 0 70 29.5t60 58.5l8 -5q-25 -53 -68 -92.5t-93 -39.5q-41 0 -69 37t-28 98q0 117 70 206t154 89zM229 484l-52 218l9 3l61 -113l113 113l9 -5z" />
    <glyph glyph-name="Dcaron" unicode="&#x10e;" horiz-adv-x="637" 
d="M338 662q119 0 201.5 -74t82.5 -206q0 -94 -42 -180.5t-124.5 -144t-186.5 -57.5h-272l1 6l72 44l93 562l-56 44l1 6h230zM246 631l-96 -582q47 -18 119 -18q109 0 187 99.5t78 244.5q0 125 -64.5 190.5t-156.5 65.5h-67zM377 702l-98 118l5 6l99 -55l130 55l5 -7z" />
    <glyph glyph-name="dcaron" unicode="&#x10f;" horiz-adv-x="431" 
d="M21 106q0 122 82 217t206 95h21l48 231l-61 29v6q62 21 147 41l-138 -672l60 -29l-1 -5q-47 -16 -142 -27l31 150q-104 -152 -172 -152q-31 0 -56 30t-25 86zM321 371q-10 14 -43 14q-72 0 -126 -84t-54 -190q0 -32 8.5 -50.5t20.5 -18.5q21 0 67.5 45t90.5 108zM469 509
l61 206h66l-116 -206h-11z" />
    <glyph glyph-name="Dcroat" unicode="&#x110;" horiz-adv-x="637" 
d="M338 662q119 0 201.5 -74t82.5 -206q0 -94 -42 -180.5t-124.5 -144t-186.5 -57.5h-272l1 6l72 44l45 271h-75l6 32h74l43 259l-56 44l1 6h230zM195 321l-45 -272q47 -18 119 -18q109 0 187 99.5t78 244.5q0 125 -64.5 190.5t-156.5 65.5h-67l-46 -278h182l-6 -32h-181z
" />
    <glyph glyph-name="dcroat" unicode="&#x111;" horiz-adv-x="431" 
d="M497 536h-282l7 29h282zM21 106q0 122 82 217t206 95h21l48 231l-61 29v6q62 21 147 41l-138 -672l60 -29l-1 -5q-47 -16 -142 -27l31 150q-104 -152 -172 -152q-31 0 -56 30t-25 86zM321 371q-10 14 -43 14q-72 0 -126 -84t-54 -190q0 -32 8.5 -50.5t20.5 -18.5
q21 0 67.5 45t90.5 108z" />
    <glyph glyph-name="Emacron" unicode="&#x112;" horiz-adv-x="487" 
d="M-3 0l1 6l72 44l93 562l-56 44l1 6h386l-20 -117h-7l-45 85h-176l-43 -261h181l53 69h7l-28 -169h-7l-30 68h-182l-50 -304h192l83 105h7l-22 -138h-410zM444 772l-8 -45h-216l8 45h216z" />
    <glyph glyph-name="emacron" unicode="&#x113;" horiz-adv-x="331" 
d="M123 -10q-39 0 -70 31t-31 92q0 117 73 212t161 95q35 0 55 -11.5t20 -29.5q0 -12 -9.5 -27.5t-31 -35t-66 -36t-104.5 -23.5q-23 -60 -23 -134q0 -85 53 -85q55 0 128 87l9 -6q-69 -129 -164 -129zM240 393q-26 0 -56.5 -31t-53.5 -82q55 11 95.5 35.5t40.5 57.5
q0 20 -26 20zM151 579h193l-9 -45h-193z" />
    <glyph glyph-name="Ebreve" unicode="&#x114;" horiz-adv-x="487" 
d="M-3 0l1 6l72 44l93 562l-56 44l1 6h386l-20 -117h-7l-45 85h-176l-43 -261h181l53 69h7l-28 -169h-7l-30 68h-182l-50 -304h192l83 105h7l-22 -138h-410zM447 831q-13 -55 -43 -86.5t-74 -31.5q-45 0 -67 33.5t-18 84.5l7 1q12 -65 79 -65q69 0 109 65z" />
    <glyph glyph-name="ebreve" unicode="&#x115;" horiz-adv-x="331" 
d="M123 -10q-39 0 -70 31t-31 92q0 117 73 212t161 95q35 0 55 -11.5t20 -29.5q0 -12 -9.5 -27.5t-31 -35t-66 -36t-104.5 -23.5q-23 -60 -23 -134q0 -85 53 -85q55 0 128 87l9 -6q-69 -129 -164 -129zM240 393q-26 0 -56.5 -31t-53.5 -82q55 11 95.5 35.5t40.5 57.5
q0 20 -26 20zM340 631q-12 -56 -40 -89t-70 -33q-45 0 -65 35.5t-11 86.5l8 1q2 -30 19.5 -50t49.5 -20q65 0 101 70z" />
    <glyph glyph-name="Edotaccent" unicode="&#x116;" horiz-adv-x="487" 
d="M-3 0l1 6l72 44l93 562l-56 44l1 6h386l-20 -117h-7l-45 85h-176l-43 -261h181l53 69h7l-28 -169h-7l-30 68h-182l-50 -304h192l83 105h7l-22 -138h-410zM335 808q17 0 29 -12t12 -29t-12 -29t-29 -12t-29 12t-12 29t12 29t29 12z" />
    <glyph glyph-name="edotaccent" unicode="&#x117;" horiz-adv-x="331" 
d="M123 -10q-39 0 -70 31t-31 92q0 117 73 212t161 95q35 0 55 -11.5t20 -29.5q0 -12 -9.5 -27.5t-31 -35t-66 -36t-104.5 -23.5q-23 -60 -23 -134q0 -85 53 -85q55 0 128 87l9 -6q-69 -129 -164 -129zM240 393q-26 0 -56.5 -31t-53.5 -82q55 11 95.5 35.5t40.5 57.5
q0 20 -26 20zM246 629q17 0 29 -12t12 -29t-12 -29t-29 -12t-29 12t-12 29t12 29t29 12z" />
    <glyph glyph-name="Eogonek" unicode="&#x118;" horiz-adv-x="487" 
d="M-3 0l1 6l72 44l93 562l-56 44l1 6h386l-20 -117h-7l-45 85h-176l-43 -261h181l53 69h7l-28 -169h-7l-30 68h-182l-50 -304h192l83 105h7l-22 -138h-410zM239 -277q-34 0 -55.5 21t-21.5 53q0 27 13 54.5t41 57.5t45 45.5t53 45.5h24q-110 -116 -110 -188
q0 -22 11.5 -35.5t32.5 -13.5q38 0 75 33l5 -4q-14 -24 -43.5 -46.5t-69.5 -22.5z" />
    <glyph glyph-name="eogonek" unicode="&#x119;" horiz-adv-x="331" 
d="M9 -203q0 81 145 197q-15 -4 -31 -4q-39 0 -70 31t-31 92q0 117 73 212t161 95q35 0 55 -11.5t20 -29.5q0 -12 -9.5 -27.5t-31 -35t-66 -36t-104.5 -23.5q-23 -60 -23 -134q0 -85 53 -85q55 0 128 87l9 -6q-14 -27 -32 -50t-27 -32t-36 -34q-51 -47 -84 -99t-33 -92
q0 -22 11.5 -35.5t32.5 -13.5q38 0 75 33l5 -4q-14 -24 -43.5 -46.5t-69.5 -22.5q-34 0 -55.5 21t-21.5 53zM240 393q-26 0 -56.5 -31t-53.5 -82q55 11 95.5 35.5t40.5 57.5q0 20 -26 20z" />
    <glyph glyph-name="Ecaron" unicode="&#x11a;" horiz-adv-x="487" 
d="M-3 0l1 6l72 44l93 562l-56 44l1 6h386l-20 -117h-7l-45 85h-176l-43 -261h181l53 69h7l-28 -169h-7l-30 68h-182l-50 -304h192l83 105h7l-22 -138h-410zM324 702l-98 118l5 6l99 -55l130 55l5 -7z" />
    <glyph glyph-name="ecaron" unicode="&#x11b;" horiz-adv-x="331" 
d="M123 -10q-39 0 -70 31t-31 92q0 117 73 212t161 95q35 0 55 -11.5t20 -29.5q0 -12 -9.5 -27.5t-31 -35t-66 -36t-104.5 -23.5q-23 -60 -23 -134q0 -85 53 -85q55 0 128 87l9 -6q-69 -129 -164 -129zM240 393q-26 0 -56.5 -31t-53.5 -82q55 11 95.5 35.5t40.5 57.5
q0 20 -26 20zM229 484l-52 218l9 3l61 -113l113 113l9 -5z" />
    <glyph glyph-name="Gcircumflex" unicode="&#x11c;" horiz-adv-x="638" 
d="M525 17q-124 -27 -168 -27q-133 0 -216 75.5t-83 199.5q0 162 110 284.5t269 122.5q102 0 175 -25l-19 -104h-6q-52 96 -154 96q-81 0 -147.5 -52t-103 -137t-36.5 -183q0 -113 59 -178.5t152 -65.5q53 0 90 20l42 250l-69 45l1 6h210l-1 -6l-61 -45zM451 831l98 -118
l-5 -6l-99 55l-130 -55l-5 7z" />
    <glyph glyph-name="gcircumflex" unicode="&#x11d;" horiz-adv-x="366" 
d="M43 239q0 74 51.5 127.5t113.5 53.5q23 0 44 -10h144l-11 -36h-89q21 -28 21 -63q0 -81 -51.5 -132t-108.5 -51q-9 0 -12 1q-40 -32 -40 -50q0 -10 9 -19.5t36 -25.5q25 -15 63.5 -35t53.5 -29q63 -35 84.5 -57.5t21.5 -42.5q0 -58 -72 -95.5t-153 -37.5q-94 0 -158 28.5
t-64 68.5q0 9 8 22t27 31.5t57.5 41.5t90.5 46q-68 39 -68 77q0 36 78 82q-33 12 -54.5 40t-21.5 65zM233 -90q-45 22 -98 50q-63 -29 -98.5 -58.5t-35.5 -52.5q0 -36 47 -57.5t116 -21.5q45 0 80 14.5t50 30.5t15 28q0 8 -4 15t-21.5 20.5t-50.5 31.5zM205 394
q-35 0 -63 -48t-28 -108q0 -45 14.5 -64.5t30.5 -19.5q29 0 58 48.5t29 109.5q0 82 -41 82zM262 706l52 -218l-9 -3l-61 113l-113 -113l-9 5z" />
    <glyph glyph-name="Gbreve" unicode="&#x11e;" horiz-adv-x="638" 
d="M525 17q-124 -27 -168 -27q-133 0 -216 75.5t-83 199.5q0 162 110 284.5t269 122.5q102 0 175 -25l-19 -104h-6q-52 96 -154 96q-81 0 -147.5 -52t-103 -137t-36.5 -183q0 -113 59 -178.5t152 -65.5q53 0 90 20l42 250l-69 45l1 6h210l-1 -6l-61 -45zM548 831
q-13 -55 -43 -86.5t-74 -31.5q-45 0 -67 33.5t-18 84.5l7 1q12 -65 79 -65q69 0 109 65z" />
    <glyph glyph-name="gbreve" unicode="&#x11f;" horiz-adv-x="366" 
d="M43 239q0 74 51.5 127.5t113.5 53.5q23 0 44 -10h144l-11 -36h-89q21 -28 21 -63q0 -81 -51.5 -132t-108.5 -51q-9 0 -12 1q-40 -32 -40 -50q0 -10 9 -19.5t36 -25.5q25 -15 63.5 -35t53.5 -29q63 -35 84.5 -57.5t21.5 -42.5q0 -58 -72 -95.5t-153 -37.5q-94 0 -158 28.5
t-64 68.5q0 9 8 22t27 31.5t57.5 41.5t90.5 46q-68 39 -68 77q0 36 78 82q-33 12 -54.5 40t-21.5 65zM233 -90q-45 22 -98 50q-63 -29 -98.5 -58.5t-35.5 -52.5q0 -36 47 -57.5t116 -21.5q45 0 80 14.5t50 30.5t15 28q0 8 -4 15t-21.5 20.5t-50.5 31.5zM205 394
q-35 0 -63 -48t-28 -108q0 -45 14.5 -64.5t30.5 -19.5q29 0 58 48.5t29 109.5q0 82 -41 82zM328 631q-12 -56 -40 -89t-70 -33q-45 0 -65 35.5t-11 86.5l8 1q2 -30 19.5 -50t49.5 -20q65 0 101 70z" />
    <glyph glyph-name="Gdotaccent" unicode="&#x120;" horiz-adv-x="638" 
d="M525 17q-124 -27 -168 -27q-133 0 -216 75.5t-83 199.5q0 162 110 284.5t269 122.5q102 0 175 -25l-19 -104h-6q-52 96 -154 96q-81 0 -147.5 -52t-103 -137t-36.5 -183q0 -113 59 -178.5t152 -65.5q53 0 90 20l42 250l-69 45l1 6h210l-1 -6l-61 -45zM433 808
q17 0 29 -12t12 -29t-12 -29t-29 -12t-29 12t-12 29t12 29t29 12z" />
    <glyph glyph-name="gdotaccent" unicode="&#x121;" horiz-adv-x="366" 
d="M43 239q0 74 51.5 127.5t113.5 53.5q23 0 44 -10h144l-11 -36h-89q21 -28 21 -63q0 -81 -51.5 -132t-108.5 -51q-9 0 -12 1q-40 -32 -40 -50q0 -10 9 -19.5t36 -25.5q25 -15 63.5 -35t53.5 -29q63 -35 84.5 -57.5t21.5 -42.5q0 -58 -72 -95.5t-153 -37.5q-94 0 -158 28.5
t-64 68.5q0 9 8 22t27 31.5t57.5 41.5t90.5 46q-68 39 -68 77q0 36 78 82q-33 12 -54.5 40t-21.5 65zM233 -90q-45 22 -98 50q-63 -29 -98.5 -58.5t-35.5 -52.5q0 -36 47 -57.5t116 -21.5q45 0 80 14.5t50 30.5t15 28q0 8 -4 15t-21.5 20.5t-50.5 31.5zM205 394
q-35 0 -63 -48t-28 -108q0 -45 14.5 -64.5t30.5 -19.5q29 0 58 48.5t29 109.5q0 82 -41 82zM233 629q17 0 29 -12t12 -29t-12 -29t-29 -12t-29 12t-12 29t12 29t29 12z" />
    <glyph glyph-name="Gcommaaccent" unicode="&#x122;" horiz-adv-x="638" 
d="M525 17q-124 -27 -168 -27q-133 0 -216 75.5t-83 199.5q0 162 110 284.5t269 122.5q102 0 175 -25l-19 -104h-6q-52 96 -154 96q-81 0 -147.5 -52t-103 -137t-36.5 -183q0 -113 59 -178.5t152 -65.5q53 0 90 20l42 250l-69 45l1 6h210l-1 -6l-61 -45zM328 -126
q0 -44 -34.5 -89.5t-80.5 -74.5l-8 5q62 76 83 132q-16 -2 -29.5 7.5t-13.5 26.5q0 18 11 29.5t28 11.5q20 0 32 -13t12 -35z" />
    <glyph glyph-name="gcommaaccent" unicode="&#x123;" horiz-adv-x="366" 
d="M43 239q0 74 51.5 127.5t113.5 53.5q23 0 44 -10h144l-11 -36h-89q21 -28 21 -63q0 -81 -51.5 -132t-108.5 -51q-9 0 -12 1q-40 -32 -40 -50q0 -10 9 -19.5t36 -25.5q25 -15 63.5 -35t53.5 -29q63 -35 84.5 -57.5t21.5 -42.5q0 -58 -72 -95.5t-153 -37.5q-94 0 -158 28.5
t-64 68.5q0 9 8 22t27 31.5t57.5 41.5t90.5 46q-68 39 -68 77q0 36 78 82q-33 12 -54.5 40t-21.5 65zM233 -90q-45 22 -98 50q-63 -29 -98.5 -58.5t-35.5 -52.5q0 -36 47 -57.5t116 -21.5q45 0 80 14.5t50 30.5t15 28q0 8 -4 15t-21.5 20.5t-50.5 31.5zM205 394
q-35 0 -63 -48t-28 -108q0 -45 14.5 -64.5t30.5 -19.5q29 0 58 48.5t29 109.5q0 82 -41 82zM172 548q0 45 33.5 88.5t81.5 75.5l8 -5q-64 -80 -83 -132q16 2 29.5 -7.5t13.5 -26.5q0 -18 -11 -29.5t-28 -11.5q-20 0 -32 13t-12 35z" />
    <glyph glyph-name="Hcircumflex" unicode="&#x124;" horiz-adv-x="674" 
d="M200 354h320l43 258l-56 44l1 6h207l-1 -6l-71 -44l-93 -562l57 -44l-1 -6h-209l1 6l72 44l45 272h-320l-45 -272l57 -44l-1 -6h-209l1 6l72 44l93 562l-56 44l1 6h207l-1 -6l-71 -44zM436 831l98 -118l-5 -6l-99 55l-130 -55l-5 7z" />
    <glyph glyph-name="hcircumflex" unicode="&#x125;" horiz-adv-x="435" 
d="M95 678v6q47 18 148 41l-99 -464q126 159 211 159q43 0 43 -34q0 -17 -71 -333l58 -28v-6q-47 -16 -142 -27q77 346 77 353q0 10 -13 10q-21 0 -68 -36.5t-104 -99.5l-47 -219h-69l137 649zM346 869l98 -118l-5 -6l-99 55l-130 -55l-5 7z" />
    <glyph glyph-name="Hbar" unicode="&#x126;" horiz-adv-x="674" 
d="M63 472l6 32h632l-6 -32h-632zM200 354h320l43 258l-56 44l1 6h207l-1 -6l-71 -44l-93 -562l57 -44l-1 -6h-209l1 6l72 44l45 272h-320l-45 -272l57 -44l-1 -6h-209l1 6l72 44l93 562l-56 44l1 6h207l-1 -6l-71 -44z" />
    <glyph glyph-name="hbar" unicode="&#x127;" horiz-adv-x="435" 
d="M58 536l7 29h274l-7 -29h-274zM95 678v6q47 18 148 41l-99 -464q126 159 211 159q43 0 43 -34q0 -17 -71 -333l58 -28v-6q-47 -16 -142 -27q77 346 77 353q0 10 -13 10q-21 0 -68 -36.5t-104 -99.5l-47 -219h-69l137 649z" />
    <glyph glyph-name="Itilde" unicode="&#x128;" horiz-adv-x="274" 
d="M-3 0l1 6l72 44l93 562l-56 44l1 6h207l-1 -6l-71 -44l-93 -562l57 -44l-1 -6h-209zM178 806q10 0 56.5 -11.5t58.5 -11.5q22 0 66 49l7 -3q-15 -36 -37.5 -67t-42.5 -31q-16 0 -61.5 11.5t-53.5 11.5q-24 0 -68 -52l-7 3q16 36 39 68.5t43 32.5z" />
    <glyph glyph-name="itilde" unicode="&#x129;" horiz-adv-x="219" 
d="M101 348l-56 26v7q67 25 139 42l-69 -370l60 -29v-5q-53 -17 -142 -27zM123 611q11 0 49 -15t48 -15q11 0 31 17.5t35 38.5l7 -4q-13 -38 -36.5 -70t-43.5 -32q-14 0 -51.5 14.5t-45.5 14.5q-21 0 -68 -55l-7 4q16 38 40 70t42 32z" />
    <glyph glyph-name="Imacron" unicode="&#x12a;" horiz-adv-x="274" 
d="M-3 0l1 6l72 44l93 562l-56 44l1 6h207l-1 -6l-71 -44l-93 -562l57 -44l-1 -6h-209zM334 772l-8 -45h-216l8 45h216z" />
    <glyph glyph-name="imacron" unicode="&#x12b;" horiz-adv-x="219" 
d="M101 348l-56 26v7q67 25 139 42l-69 -370l60 -29v-5q-53 -17 -142 -27zM73 579h193l-9 -45h-193z" />
    <glyph glyph-name="Ibreve" unicode="&#x12c;" horiz-adv-x="274" 
d="M-3 0l1 6l72 44l93 562l-56 44l1 6h207l-1 -6l-71 -44l-93 -562l57 -44l-1 -6h-209zM336 831q-13 -55 -43 -86.5t-74 -31.5q-45 0 -67 33.5t-18 84.5l7 1q12 -65 79 -65q69 0 109 65z" />
    <glyph glyph-name="ibreve" unicode="&#x12d;" horiz-adv-x="219" 
d="M101 348l-56 26v7q67 25 139 42l-69 -370l60 -29v-5q-53 -17 -142 -27zM272 631q-12 -56 -40 -89t-70 -33q-45 0 -65 35.5t-11 86.5l8 1q2 -30 19.5 -50t49.5 -20q65 0 101 70z" />
    <glyph glyph-name="Iogonek" unicode="&#x12e;" horiz-adv-x="274" 
d="M83 -277q-34 0 -55.5 21.5t-21.5 54.5q0 34 22.5 76t41 65t52.5 60h23q-73 -103 -73 -183q0 -54 44 -54q38 0 75 33l5 -4q-45 -69 -113 -69zM-3 0l1 6l72 44l93 562l-56 44l1 6h207l-1 -6l-71 -44l-93 -562l57 -44l-1 -6h-209z" />
    <glyph glyph-name="iogonek" unicode="&#x12f;" horiz-adv-x="219" 
d="M173 627q17 0 29.5 -12.5t12.5 -29.5t-12.5 -29.5t-29.5 -12.5t-29.5 12.5t-12.5 29.5t12.5 29.5t29.5 12.5zM-31 -277q-34 0 -55.5 21t-21.5 53q0 27 12.5 55t36.5 56t44 47t49 45l67 348l-56 26v7q67 25 139 42l-69 -370l60 -29v-5q-40 -9 -122 -24q-95 -105 -95 -183
q0 -22 11.5 -35.5t32.5 -13.5q38 0 75 33l5 -4q-14 -24 -43.5 -46.5t-69.5 -22.5z" />
    <glyph glyph-name="Idotaccent" unicode="&#x130;" horiz-adv-x="274" 
d="M-3 0l1 6l72 44l93 562l-56 44l1 6h207l-1 -6l-71 -44l-93 -562l57 -44l-1 -6h-209zM225 808q17 0 29 -12t12 -29t-12 -29t-29 -12t-29 12t-12 29t12 29t29 12z" />
    <glyph glyph-name="dotlessi" unicode="&#x131;" horiz-adv-x="219" 
d="M101 348l-56 26v7q67 25 139 42l-69 -370l60 -29v-5q-53 -17 -142 -27z" />
    <glyph glyph-name="IJ" unicode="&#x132;" horiz-adv-x="544" 
d="M-3 0l1 6l72 44l93 562l-56 44l1 6h207l-1 -6l-71 -44l-93 -562l57 -44l-1 -6h-209zM430 96q-13 -81 -64.5 -163.5t-134.5 -153.5l-8 6q99 147 132 346l80 481l-57 44l1 6h208l-1 -6l-71 -44z" />
    <glyph glyph-name="ij" unicode="&#x133;" horiz-adv-x="427" 
d="M101 348l-56 26v7q67 25 139 42l-69 -370l60 -29v-5q-53 -17 -142 -27zM173 627q17 0 29.5 -12.5t12.5 -29.5t-12.5 -29.5t-29.5 -12.5t-29.5 12.5t-12.5 29.5t12.5 29.5t29.5 12.5zM326 22q-21 -118 -162 -272l-8 4q75 142 106 303l56 291l-56 26v7q69 26 139 42z
M390 627q17 0 29.5 -12.5t12.5 -29.5t-12.5 -29.5t-29.5 -12.5t-29.5 12.5t-12.5 29.5t12.5 29.5t29.5 12.5z" />
    <glyph glyph-name="Jcircumflex" unicode="&#x134;" horiz-adv-x="270" 
d="M156 96q-13 -81 -64.5 -163.5t-134.5 -153.5l-8 6q99 147 132 346l80 481l-57 44l1 6h208l-1 -6l-71 -44zM233 831l98 -118l-5 -6l-99 55l-130 -55l-5 7z" />
    <glyph glyph-name="jcircumflex" unicode="&#x135;" horiz-adv-x="208" 
d="M107 22q-21 -118 -162 -272l-8 4q75 142 106 303l56 291l-56 26v7q69 26 139 42zM186 706l52 -218l-9 -3l-61 113l-113 -113l-9 5z" />
    <glyph glyph-name="Kcommaaccent" unicode="&#x136;" horiz-adv-x="573" 
d="M-3 0l1 6l72 44l93 562l-56 45l1 5h207l-1 -5l-71 -45l-93 -562l56 -44l-1 -6h-208zM318 0l1 6l71 44l-149 285h-34l269 277l-56 44l1 6h186l-1 -6l-78 -39l-226 -229l175 -338l61 -44l-1 -6h-219zM303 -126q0 -44 -34.5 -89.5t-80.5 -74.5l-8 5q62 76 83 132
q-16 -2 -29.5 7.5t-13.5 26.5q0 18 11 29.5t28 11.5q20 0 32 -13t12 -35z" />
    <glyph glyph-name="kcommaaccent" unicode="&#x137;" horiz-adv-x="379" 
d="M152 650l-62 28v6q67 21 147 41l-147 -725h-70zM148 202q130 119 130 160q0 15 -14 29v5l79 26q13 -16 13 -39q0 -29 -32 -62.5t-115 -97.5q31 -53 55 -92.5t40 -62.5t25 -35.5t18.5 -24t11.5 -14.5l-2 -5q-17 1 -27.5 2t-21.5 2t-19 6t-15 7.5t-15.5 14t-15 18.5t-18 27
t-20 33.5t-26.5 44.5t-32 54zM205 -126q0 -44 -34.5 -89.5t-80.5 -74.5l-8 5q62 76 83 132q-16 -2 -29.5 7.5t-13.5 26.5q0 18 11 29.5t28 11.5q20 0 32 -13t12 -35z" />
    <glyph glyph-name="Lacute" unicode="&#x139;" horiz-adv-x="487" 
d="M147 33h190l104 127h6l-27 -160h-423l1 6l72 44l93 562l-56 44l1 6h207l-1 -6l-71 -44zM137 703l-5 9l198 127l28 -60z" />
    <glyph glyph-name="lacute" unicode="&#x13a;" horiz-adv-x="215" 
d="M156 649l-63 29v6q57 21 149 41l-136 -672l61 -29l-1 -5q-47 -16 -143 -27zM100 724l-5 9l198 127l28 -60z" />
    <glyph glyph-name="Lcommaaccent" unicode="&#x13b;" horiz-adv-x="487" 
d="M147 33h190l104 127h6l-27 -160h-423l1 6l72 44l93 562l-56 44l1 6h207l-1 -6l-71 -44zM261 -126q0 -44 -34.5 -89.5t-80.5 -74.5l-8 5q62 76 83 132q-16 -2 -29.5 7.5t-13.5 26.5q0 18 11 29.5t28 11.5q20 0 32 -13t12 -35z" />
    <glyph glyph-name="lcommaaccent" unicode="&#x13c;" horiz-adv-x="215" 
d="M156 649l-63 29v6q57 21 149 41l-136 -672l61 -29l-1 -5q-47 -16 -143 -27zM84 -126q0 -44 -34.5 -89.5t-80.5 -74.5l-8 5q62 76 83 132q-16 -2 -29.5 7.5t-13.5 26.5q0 18 11 29.5t28 11.5q20 0 32 -13t12 -35z" />
    <glyph glyph-name="Lcaron" unicode="&#x13d;" horiz-adv-x="487" 
d="M147 33h190l104 127h6l-27 -160h-423l1 6l72 44l93 562l-56 44l1 6h207l-1 -6l-71 -44zM325 509l61 206h66l-116 -206h-11z" />
    <glyph glyph-name="lcaron" unicode="&#x13e;" horiz-adv-x="215" 
d="M156 649l-63 29v6q57 21 149 41l-136 -672l61 -29l-1 -5q-47 -16 -143 -27zM247 509l61 206h66l-116 -206h-11z" />
    <glyph glyph-name="Ldot" unicode="&#x13f;" horiz-adv-x="487" 
d="M439 401q20 0 34 -13.5t14 -34.5q0 -20 -14 -34t-34 -14q-21 0 -34.5 14t-13.5 34q0 21 13.5 34.5t34.5 13.5zM147 33h190l104 127h6l-27 -160h-423l1 6l72 44l93 562l-56 44l1 6h207l-1 -6l-71 -44z" />
    <glyph glyph-name="ldot" unicode="&#x140;" horiz-adv-x="317" 
d="M290 392q20 0 34 -13.5t14 -34.5q0 -20 -14 -34t-34 -14q-21 0 -34.5 14t-13.5 34q0 21 13.5 34.5t34.5 13.5zM156 649l-63 29v6q57 21 149 41l-136 -672l61 -29l-1 -5q-47 -16 -143 -27z" />
    <glyph glyph-name="Lslash" unicode="&#x141;" horiz-adv-x="487" 
d="M147 33h190l104 127h6l-27 -160h-423l1 6l72 44l28 173l-83 -47l7 38l83 47l58 351l-56 44l1 6h207l-1 -6l-71 -44l-50 -301l206 117l-7 -40l-206 -116z" />
    <glyph glyph-name="lslash" unicode="&#x142;" horiz-adv-x="224" 
d="M161 649l-63 29v6q9 4 25 8l39 11q58 17 85 22l-71 -349l75 45l-8 -42l-75 -45l-57 -281l61 -29l-1 -5q-47 -16 -143 -27l59 295l-80 -48l8 40l80 48z" />
    <glyph glyph-name="Nacute" unicode="&#x143;" horiz-adv-x="658" 
d="M505 0l-316 528l-78 -473l63 -49l-1 -6h-186l2 6l81 49l86 524q-16 25 -54 78v5h99l312 -530l78 475l-64 50l1 5h185l-1 -5l-80 -50l-99 -607h-28zM317 703l-5 9l198 127l28 -60z" />
    <glyph glyph-name="nacute" unicode="&#x144;" horiz-adv-x="445" 
d="M29 0l71 348l-54 26v7q57 24 142 42l-35 -163q57 72 113.5 116t98.5 44q43 0 43 -34q0 -17 -71 -333l58 -27v-7q-47 -16 -142 -27q77 346 77 353q0 10 -13 10q-21 0 -68 -36.5t-105 -99.5l-46 -219h-69zM244 495l-9 5l130 212l52 -42z" />
    <glyph glyph-name="Ncommaaccent" unicode="&#x145;" horiz-adv-x="658" 
d="M505 0l-316 528l-78 -473l63 -49l-1 -6h-186l2 6l81 49l86 524q-16 25 -54 78v5h99l312 -530l78 475l-64 50l1 5h185l-1 -5l-80 -50l-99 -607h-28zM324 -126q0 -44 -34.5 -89.5t-80.5 -74.5l-8 5q62 76 83 132q-16 -2 -29.5 7.5t-13.5 26.5q0 18 11 29.5t28 11.5
q20 0 32 -13t12 -35z" />
    <glyph glyph-name="ncommaaccent" unicode="&#x146;" horiz-adv-x="445" 
d="M29 0l71 348l-54 26v7q57 24 142 42l-35 -163q57 72 113.5 116t98.5 44q43 0 43 -34q0 -17 -71 -333l58 -27v-7q-47 -16 -142 -27q77 346 77 353q0 10 -13 10q-21 0 -68 -36.5t-105 -99.5l-46 -219h-69zM203 -126q0 -44 -34.5 -89.5t-80.5 -74.5l-8 5q62 76 83 132
q-16 -2 -29.5 7.5t-13.5 26.5q0 18 11 29.5t28 11.5q20 0 32 -13t12 -35z" />
    <glyph glyph-name="Ncaron" unicode="&#x147;" horiz-adv-x="658" 
d="M505 0l-316 528l-78 -473l63 -49l-1 -6h-186l2 6l81 49l86 524q-16 25 -54 78v5h99l312 -530l78 475l-64 50l1 5h185l-1 -5l-80 -50l-99 -607h-28zM402 702l-98 118l5 6l99 -55l130 55l5 -7z" />
    <glyph glyph-name="ncaron" unicode="&#x148;" horiz-adv-x="445" 
d="M29 0l71 348l-54 26v7q57 24 142 42l-35 -163q57 72 113.5 116t98.5 44q43 0 43 -34q0 -17 -71 -333l58 -27v-7q-47 -16 -142 -27q77 346 77 353q0 10 -13 10q-21 0 -68 -36.5t-105 -99.5l-46 -219h-69zM268 484l-52 218l9 3l61 -113l113 113l9 -5z" />
    <glyph glyph-name="napostrophe" unicode="&#x149;" horiz-adv-x="469" 
d="M53 0l71 348l-54 26v7q57 24 142 42l-35 -163q57 72 113.5 116t98.5 44q43 0 43 -34q0 -17 -71 -333l58 -27v-7q-47 -16 -142 -27q77 346 77 353q0 10 -13 10q-21 0 -68 -36.5t-105 -99.5l-46 -219h-69zM30 465q74 71 86 152q-1 -1 -4 -1h-7q-16 0 -27 9.5t-11 26.5
q0 18 11 29t31 11q22 0 36 -16t14 -42q0 -48 -33 -96t-87 -78z" />
    <glyph glyph-name="Eng" unicode="&#x14a;" horiz-adv-x="661" 
d="M-13 0l2 6l81 49l86 523q-9 14 -18.5 28t-20.5 29t-16 22v5h101l254 -431q42 -72 55 -111l80 487l-64 50l1 5h185l-1 -5l-80 -50l-88 -537q-11 -68 -50.5 -146t-106.5 -145l-8 6q83 134 83 218q0 58 -51 149q-28 51 -115 195.5t-107 179.5l-78 -472l63 -49l-1 -6h-186z
" />
    <glyph glyph-name="eng" unicode="&#x14b;" horiz-adv-x="433" 
d="M29 0l71 348l-54 26v7q57 24 142 42l-35 -163q57 72 113.5 116t98.5 44q22 0 33 -9.5t10 -24.5q0 -13 -9 -55.5t-31.5 -141.5t-37.5 -167q-16 -66 -60.5 -139t-100.5 -133l-8 4q68 128 106 302q63 287 63 289q0 10 -13 10q-21 0 -68 -36.5t-105 -99.5l-46 -219h-69z" />
    <glyph glyph-name="Omacron" unicode="&#x14c;" horiz-adv-x="665" 
d="M400 640q-103 0 -176.5 -113t-73.5 -265q0 -110 47 -175t113 -65q102 0 176 114t74 275q0 108 -47 168.5t-113 60.5zM63 262q0 164 101.5 287t235.5 123q108 0 177.5 -74t69.5 -188q0 -174 -100.5 -297t-236.5 -123q-104 0 -175.5 75t-71.5 197zM533 772l-8 -45h-216
l8 45h216z" />
    <glyph glyph-name="omacron" unicode="&#x14d;" horiz-adv-x="398" 
d="M163 -10q-61 0 -100.5 45.5t-39.5 114.5q0 105 66 187.5t150 82.5q58 0 97.5 -45t39.5 -111q0 -116 -67 -195t-146 -79zM167 19q48 0 90 74t42 177q0 58 -16.5 89.5t-45.5 31.5q-50 0 -93 -78.5t-43 -170.5q0 -123 66 -123zM165 579h193l-9 -45h-193z" />
    <glyph glyph-name="Obreve" unicode="&#x14e;" horiz-adv-x="665" 
d="M400 640q-103 0 -176.5 -113t-73.5 -265q0 -110 47 -175t113 -65q102 0 176 114t74 275q0 108 -47 168.5t-113 60.5zM63 262q0 164 101.5 287t235.5 123q108 0 177.5 -74t69.5 -188q0 -174 -100.5 -297t-236.5 -123q-104 0 -175.5 75t-71.5 197zM531 831
q-13 -55 -43 -86.5t-74 -31.5q-45 0 -67 33.5t-18 84.5l7 1q12 -65 79 -65q69 0 109 65z" />
    <glyph glyph-name="obreve" unicode="&#x14f;" horiz-adv-x="398" 
d="M163 -10q-61 0 -100.5 45.5t-39.5 114.5q0 105 66 187.5t150 82.5q58 0 97.5 -45t39.5 -111q0 -116 -67 -195t-146 -79zM167 19q48 0 90 74t42 177q0 58 -16.5 89.5t-45.5 31.5q-50 0 -93 -78.5t-43 -170.5q0 -123 66 -123zM359 631q-12 -56 -40 -89t-70 -33
q-45 0 -65 35.5t-11 86.5l8 1q2 -30 19.5 -50t49.5 -20q65 0 101 70z" />
    <glyph glyph-name="Ohungarumlaut" unicode="&#x150;" horiz-adv-x="665" 
d="M400 640q-103 0 -176.5 -113t-73.5 -265q0 -110 47 -175t113 -65q102 0 176 114t74 275q0 108 -47 168.5t-113 60.5zM63 262q0 164 101.5 287t235.5 123q108 0 177.5 -74t69.5 -188q0 -174 -100.5 -297t-236.5 -123q-104 0 -175.5 75t-71.5 197zM453 702l-6 8l146 141
l38 -50zM302 702l-6 8l146 141l38 -50z" />
    <glyph glyph-name="ohungarumlaut" unicode="&#x151;" horiz-adv-x="398" 
d="M163 -10q-61 0 -100.5 45.5t-39.5 114.5q0 105 66 187.5t150 82.5q58 0 97.5 -45t39.5 -111q0 -116 -67 -195t-146 -79zM167 19q48 0 90 74t42 177q0 58 -16.5 89.5t-45.5 31.5q-50 0 -93 -78.5t-43 -170.5q0 -123 66 -123zM287 499l95 214l50 -29l-136 -190zM179 494
l-9 5l94 214l50 -29z" />
    <glyph glyph-name="OE" unicode="&#x152;" horiz-adv-x="808" 
d="M335 0q-122 0 -197 72.5t-75 189.5q0 161 110.5 280.5t269.5 119.5h372l-19 -117h-7l-45 85h-171l-43 -261h175l53 69h7l-28 -169h-7l-30 68h-176l-50 -304h186l84 105h7l-23 -138h-393zM394 32l99 598h-50q-82 0 -150 -51t-105.5 -135t-37.5 -182q0 -108 50 -169
t135 -61h59z" />
    <glyph glyph-name="oe" unicode="&#x153;" horiz-adv-x="585" 
d="M377 -10q-29 0 -54.5 18t-36.5 54q-64 -72 -133 -72q-56 0 -93 44t-37 112q0 108 67.5 191t147.5 83q41 0 71 -25t43 -69q72 94 158 94q35 0 55 -11.5t20 -29.5q0 -12 -9.5 -27.5t-31 -35t-66 -36t-104.5 -23.5q-23 -60 -23 -134q0 -85 53 -85q55 0 128 87l9 -6
q-32 -62 -75 -95.5t-89 -33.5zM158 19q45 0 88 76t43 180q0 116 -54 116q-47 0 -90.5 -77.5t-43.5 -174.5q0 -120 57 -120zM494 393q-26 0 -56.5 -31t-53.5 -82q55 11 95.5 35.5t40.5 57.5q0 20 -26 20z" />
    <glyph glyph-name="Racute" unicode="&#x154;" horiz-adv-x="529" 
d="M-2 6l72 44l93 562l-56 44l1 6h204q66 0 116 -36.5t50 -102.5q0 -62 -39 -109t-97 -71l58 -166q47 -136 110 -188l-1 -6q-36 3 -61.5 11.5t-42 18t-30.5 31.5t-21.5 40t-21.5 55q-4 11 -6 16q-29 74 -57 177h-73l-46 -282l57 -44l-1 -6h-209zM245 630l-44 -268h104
q31 0 61.5 46t30.5 105q0 58 -28.5 87.5t-68.5 29.5h-55zM231 703l-5 9l198 127l28 -60z" />
    <glyph glyph-name="racute" unicode="&#x155;" horiz-adv-x="316" 
d="M29 0l71 348l-56 26v7q61 23 143 42l-36 -171q92 168 124 168q30 0 57 -17l-30 -76q-34 15 -43 15q-13 0 -39 -30.5t-80 -110.5l-43 -201h-68zM207 495l-9 5l130 212l52 -42z" />
    <glyph glyph-name="Rcommaaccent" unicode="&#x156;" horiz-adv-x="529" 
d="M-2 6l72 44l93 562l-56 44l1 6h204q66 0 116 -36.5t50 -102.5q0 -62 -39 -109t-97 -71l58 -166q47 -136 110 -188l-1 -6q-36 3 -61.5 11.5t-42 18t-30.5 31.5t-21.5 40t-21.5 55q-4 11 -6 16q-29 74 -57 177h-73l-46 -282l57 -44l-1 -6h-209zM245 630l-44 -268h104
q31 0 61.5 46t30.5 105q0 58 -28.5 87.5t-68.5 29.5h-55zM295 -126q0 -44 -34.5 -89.5t-80.5 -74.5l-8 5q62 76 83 132q-16 -2 -29.5 7.5t-13.5 26.5q0 18 11 29.5t28 11.5q20 0 32 -13t12 -35z" />
    <glyph glyph-name="rcommaaccent" unicode="&#x157;" horiz-adv-x="316" 
d="M29 0l71 348l-56 26v7q61 23 143 42l-36 -171q92 168 124 168q30 0 57 -17l-30 -76q-34 15 -43 15q-13 0 -39 -30.5t-80 -110.5l-43 -201h-68zM81 -126q0 -44 -34.5 -89.5t-80.5 -74.5l-8 5q62 76 83 132q-16 -2 -29.5 7.5t-13.5 26.5q0 18 11 29.5t28 11.5q20 0 32 -13
t12 -35z" />
    <glyph glyph-name="Rcaron" unicode="&#x158;" horiz-adv-x="529" 
d="M-2 6l72 44l93 562l-56 44l1 6h204q66 0 116 -36.5t50 -102.5q0 -62 -39 -109t-97 -71l58 -166q47 -136 110 -188l-1 -6q-36 3 -61.5 11.5t-42 18t-30.5 31.5t-21.5 40t-21.5 55q-4 11 -6 16q-29 74 -57 177h-73l-46 -282l57 -44l-1 -6h-209zM245 630l-44 -268h104
q31 0 61.5 46t30.5 105q0 58 -28.5 87.5t-68.5 29.5h-55zM313 702l-98 118l5 6l99 -55l130 55l5 -7z" />
    <glyph glyph-name="rcaron" unicode="&#x159;" horiz-adv-x="316" 
d="M29 0l71 348l-56 26v7q61 23 143 42l-36 -171q92 168 124 168q30 0 57 -17l-30 -76q-34 15 -43 15q-13 0 -39 -30.5t-80 -110.5l-43 -201h-68zM225 484l-52 218l9 3l61 -113l113 113l9 -5z" />
    <glyph glyph-name="Sacute" unicode="&#x15a;" horiz-adv-x="420" 
d="M281 672q74 0 133 -25l-19 -100h-6q-31 95 -109 95q-40 0 -64.5 -24t-24.5 -62q0 -25 12.5 -55t24.5 -50t46 -73q37 -58 53 -85t30.5 -66t14.5 -73q0 -73 -52.5 -118.5t-128.5 -45.5q-99 0 -165 48q0 62 20 160h7q7 -86 43 -129.5t95 -43.5q49 0 77.5 31t28.5 75
q0 42 -19.5 83t-65.5 109q-53 80 -72.5 121t-19.5 87q0 66 47 103.5t114 37.5zM201 703l-5 9l198 127l28 -60z" />
    <glyph glyph-name="sacute" unicode="&#x15b;" horiz-adv-x="278" 
d="M174 421q36 0 87 -16l-17 -70h-5q-28 58 -69 58q-16 0 -29 -11.5t-13 -31.5q0 -22 19 -59q11 -21 30.5 -56.5t31.5 -59.5q22 -43 22 -82t-33 -71t-86 -32q-56 0 -104 28q6 62 16 115h6q9 -56 32 -83.5t52 -27.5q27 0 40.5 15t13.5 35q0 26 -22 69q-10 20 -60 112
q-19 35 -19 71q0 40 29.5 68.5t77.5 28.5zM160 495l-9 5l130 212l52 -42z" />
    <glyph glyph-name="Scircumflex" unicode="&#x15c;" horiz-adv-x="420" 
d="M281 672q74 0 133 -25l-19 -100h-6q-31 95 -109 95q-40 0 -64.5 -24t-24.5 -62q0 -25 12.5 -55t24.5 -50t46 -73q37 -58 53 -85t30.5 -66t14.5 -73q0 -73 -52.5 -118.5t-128.5 -45.5q-99 0 -165 48q0 62 20 160h7q7 -86 43 -129.5t95 -43.5q49 0 77.5 31t28.5 75
q0 42 -19.5 83t-65.5 109q-53 80 -72.5 121t-19.5 87q0 66 47 103.5t114 37.5zM313 831l98 -118l-5 -6l-99 55l-130 -55l-5 7z" />
    <glyph glyph-name="scircumflex" unicode="&#x15d;" horiz-adv-x="278" 
d="M174 421q36 0 87 -16l-17 -70h-5q-28 58 -69 58q-16 0 -29 -11.5t-13 -31.5q0 -22 19 -59q11 -21 30.5 -56.5t31.5 -59.5q22 -43 22 -82t-33 -71t-86 -32q-56 0 -104 28q6 62 16 115h6q9 -56 32 -83.5t52 -27.5q27 0 40.5 15t13.5 35q0 26 -22 69q-10 20 -60 112
q-19 35 -19 71q0 40 29.5 68.5t77.5 28.5zM227 706l52 -218l-9 -3l-61 113l-113 -113l-9 5z" />
    <glyph glyph-name="Scedilla" unicode="&#x15e;" horiz-adv-x="420" 
d="M281 672q74 0 133 -25l-19 -100h-6q-31 95 -109 95q-40 0 -64.5 -24t-24.5 -62q0 -25 12.5 -55t24.5 -50t46 -73q37 -58 53 -85t30.5 -66t14.5 -73q0 -73 -52.5 -118.5t-128.5 -45.5q-99 0 -165 48q0 62 20 160h7q7 -86 43 -129.5t95 -43.5q49 0 77.5 31t28.5 75
q0 42 -19.5 83t-65.5 109q-53 80 -72.5 121t-19.5 87q0 66 47 103.5t114 37.5zM198 0l-52 -80q54 -22 54 -69q0 -79 -159 -132l-4 7q42 24 76 55t34 58q0 29 -46 46l-1 3q6 10 18 28l18 27q36 53 36 57h26z" />
    <glyph glyph-name="scedilla" unicode="&#x15f;" horiz-adv-x="278" 
d="M174 421q36 0 87 -16l-17 -70h-5q-28 58 -69 58q-16 0 -29 -11.5t-13 -31.5q0 -22 19 -59q11 -21 30.5 -56.5t31.5 -59.5q22 -43 22 -82t-33 -71t-86 -32q-56 0 -104 28q6 62 16 115h6q9 -56 32 -83.5t52 -27.5q27 0 40.5 15t13.5 35q0 26 -22 69q-10 20 -60 112
q-19 35 -19 71q0 40 29.5 68.5t77.5 28.5zM137 0l-52 -80q54 -22 54 -69q0 -79 -159 -132l-4 7q42 24 76 55t34 58q0 29 -46 46l-1 3q6 10 18 28l18 27q36 53 36 57h26z" />
    <glyph glyph-name="Scaron" unicode="&#x160;" horiz-adv-x="420" 
d="M281 672q74 0 133 -25l-19 -100h-6q-31 95 -109 95q-40 0 -64.5 -24t-24.5 -62q0 -25 12.5 -55t24.5 -50t46 -73q37 -58 53 -85t30.5 -66t14.5 -73q0 -73 -52.5 -118.5t-128.5 -45.5q-99 0 -165 48q0 62 20 160h7q7 -86 43 -129.5t95 -43.5q49 0 77.5 31t28.5 75
q0 42 -19.5 83t-65.5 109q-53 80 -72.5 121t-19.5 87q0 66 47 103.5t114 37.5zM287 703l-98 118l5 6l99 -55l130 55l5 -7z" />
    <glyph glyph-name="scaron" unicode="&#x161;" horiz-adv-x="278" 
d="M174 421q36 0 87 -16l-17 -70h-5q-28 58 -69 58q-16 0 -29 -11.5t-13 -31.5q0 -22 19 -59q11 -21 30.5 -56.5t31.5 -59.5q22 -43 22 -82t-33 -71t-86 -32q-56 0 -104 28q6 62 16 115h6q9 -56 32 -83.5t52 -27.5q27 0 40.5 15t13.5 35q0 26 -22 69q-10 20 -60 112
q-19 35 -19 71q0 40 29.5 68.5t77.5 28.5zM181 484l-52 218l9 3l61 -113l113 113l9 -5z" />
    <glyph glyph-name="Tcommaaccent" unicode="&#x162;" horiz-adv-x="572" 
d="M612 662l-22 -128h-6l-46 95h-141l-96 -579l56 -44l-1 -6h-208l1 6l72 44l96 579h-140l-80 -95h-6l23 128h498zM276 -126q0 -44 -34.5 -89.5t-80.5 -74.5l-8 5q62 76 83 132q-16 -2 -29.5 7.5t-13.5 26.5q0 18 11 29.5t28 11.5q20 0 32 -13t12 -35z" />
    <glyph glyph-name="tcommaaccent" unicode="&#x163;" horiz-adv-x="293" 
d="M174 370l-55 -253q-13 -57 -13 -64q0 -16 15 -16q13 0 29 9t25.5 16.5t29 26t22.5 21.5l8 -4q-17 -38 -56 -77t-87 -39q-28 0 -44.5 12t-16.5 31l10 58l62 279h-50v5l141 96l-13 -64h141l-29 -37h-119zM114 -126q0 -44 -34.5 -89.5t-80.5 -74.5l-8 5q62 76 83 132
q-16 -2 -29.5 7.5t-13.5 26.5q0 18 11 29.5t28 11.5q20 0 32 -13t12 -35z" />
    <glyph glyph-name="Tcaron" unicode="&#x164;" horiz-adv-x="572" 
d="M612 662l-22 -128h-6l-46 95h-141l-96 -579l56 -44l-1 -6h-208l1 6l72 44l96 579h-140l-80 -95h-6l23 128h498zM367 702l-98 118l5 6l99 -55l130 55l5 -7z" />
    <glyph glyph-name="tcaron" unicode="&#x165;" horiz-adv-x="293" 
d="M174 370l-55 -253q-13 -57 -13 -64q0 -16 15 -16q13 0 29 9t25.5 16.5t29 26t22.5 21.5l8 -4q-17 -38 -56 -77t-87 -39q-28 0 -44.5 12t-16.5 31l10 58l62 279h-50v5l141 96l-13 -64h141l-29 -37h-119zM250 509l61 206h66l-116 -206h-11z" />
    <glyph glyph-name="Tbar" unicode="&#x166;" horiz-adv-x="572" 
d="M124 336l5 32h368l-5 -32h-368zM612 662l-22 -128h-6l-46 95h-141l-96 -579l56 -44l-1 -6h-208l1 6l72 44l96 579h-140l-80 -95h-6l23 128h498z" />
    <glyph glyph-name="tbar" unicode="&#x167;" horiz-adv-x="293" 
d="M13 229l7 29h256l-7 -29h-256zM174 370l-55 -253q-13 -57 -13 -64q0 -16 15 -16q13 0 29 9t25.5 16.5t29 26t22.5 21.5l8 -4q-17 -38 -56 -77t-87 -39q-28 0 -44.5 12t-16.5 31l10 58l62 279h-50v5l141 96l-13 -64h141l-29 -37h-119z" />
    <glyph glyph-name="Utilde" unicode="&#x168;" horiz-adv-x="637" 
d="M549 199q-15 -88 -75.5 -148.5t-159.5 -60.5q-119 0 -180 61.5t-45 162.5l66 398l-56 44l1 6h207l-1 -6l-71 -44l-67 -401q-14 -79 32.5 -125.5t126.5 -46.5q77 0 122.5 44t58.5 116l69 413l-56 44l1 6h167l-1 -6l-71 -44zM380 806q10 0 56.5 -11.5t58.5 -11.5
q22 0 66 49l7 -3q-15 -36 -37.5 -67t-42.5 -31q-16 0 -61.5 11.5t-53.5 11.5q-24 0 -68 -52l-7 3q16 36 39 68.5t43 32.5z" />
    <glyph glyph-name="utilde" unicode="&#x169;" horiz-adv-x="432" 
d="M283 176q-53 -79 -107.5 -130.5t-96.5 -51.5q-22 0 -34 9.5t-12 22.5q0 16 7 41q53 227 65 281l-55 26v7q61 23 143 42q-20 -91 -41.5 -182.5t-30.5 -130t-9 -43.5q0 -9 12 -9q21 0 73 53.5t98 116.5l39 182h70l-74 -359l57 -26v-6q-122 -24 -143 -27zM243 611
q10 0 48.5 -15t48.5 -15q11 0 31 17.5t35 38.5l7 -4q-13 -38 -36.5 -70t-43.5 -32q-14 0 -51.5 14.5t-45.5 14.5q-21 0 -68 -55l-7 4q16 38 40 70t42 32z" />
    <glyph glyph-name="Umacron" unicode="&#x16a;" horiz-adv-x="637" 
d="M549 199q-15 -88 -75.5 -148.5t-159.5 -60.5q-119 0 -180 61.5t-45 162.5l66 398l-56 44l1 6h207l-1 -6l-71 -44l-67 -401q-14 -79 32.5 -125.5t126.5 -46.5q77 0 122.5 44t58.5 116l69 413l-56 44l1 6h167l-1 -6l-71 -44zM530 772l-8 -45h-216l8 45h216z" />
    <glyph glyph-name="umacron" unicode="&#x16b;" horiz-adv-x="432" 
d="M283 176q-53 -79 -107.5 -130.5t-96.5 -51.5q-22 0 -34 9.5t-12 22.5q0 16 7 41q53 227 65 281l-55 26v7q61 23 143 42q-20 -91 -41.5 -182.5t-30.5 -130t-9 -43.5q0 -9 12 -9q21 0 73 53.5t98 116.5l39 182h70l-74 -359l57 -26v-6q-122 -24 -143 -27zM188 579h193
l-9 -45h-193z" />
    <glyph glyph-name="Ubreve" unicode="&#x16c;" horiz-adv-x="637" 
d="M549 199q-15 -88 -75.5 -148.5t-159.5 -60.5q-119 0 -180 61.5t-45 162.5l66 398l-56 44l1 6h207l-1 -6l-71 -44l-67 -401q-14 -79 32.5 -125.5t126.5 -46.5q77 0 122.5 44t58.5 116l69 413l-56 44l1 6h167l-1 -6l-71 -44zM530 831q-13 -55 -43 -86.5t-74 -31.5
q-45 0 -67 33.5t-18 84.5l7 1q12 -65 79 -65q69 0 109 65z" />
    <glyph glyph-name="ubreve" unicode="&#x16d;" horiz-adv-x="432" 
d="M283 176q-53 -79 -107.5 -130.5t-96.5 -51.5q-22 0 -34 9.5t-12 22.5q0 16 7 41q53 227 65 281l-55 26v7q61 23 143 42q-20 -91 -41.5 -182.5t-30.5 -130t-9 -43.5q0 -9 12 -9q21 0 73 53.5t98 116.5l39 182h70l-74 -359l57 -26v-6q-122 -24 -143 -27zM377 631
q-12 -56 -40 -89t-70 -33q-45 0 -65 35.5t-11 86.5l8 1q2 -30 19.5 -50t49.5 -20q65 0 101 70z" />
    <glyph glyph-name="Uring" unicode="&#x16e;" horiz-adv-x="637" 
d="M549 199q-15 -88 -75.5 -148.5t-159.5 -60.5q-119 0 -180 61.5t-45 162.5l66 398l-56 44l1 6h207l-1 -6l-71 -44l-67 -401q-14 -79 32.5 -125.5t126.5 -46.5q77 0 122.5 44t58.5 116l69 413l-56 44l1 6h167l-1 -6l-71 -44zM372 767q0 -21 13.5 -36t34.5 -15t34.5 15
t13.5 36t-13.5 36t-34.5 15t-34.5 -15t-13.5 -36zM342 767q0 32 23 54.5t55 22.5t55 -22.5t23 -54.5q0 -33 -22.5 -55t-55.5 -22t-55.5 21.5t-22.5 55.5z" />
    <glyph glyph-name="uring" unicode="&#x16f;" horiz-adv-x="432" 
d="M283 176q-53 -79 -107.5 -130.5t-96.5 -51.5q-22 0 -34 9.5t-12 22.5q0 16 7 41q53 227 65 281l-55 26v7q61 23 143 42q-20 -91 -41.5 -182.5t-30.5 -130t-9 -43.5q0 -9 12 -9q21 0 73 53.5t98 116.5l39 182h70l-74 -359l57 -26v-6q-122 -24 -143 -27zM230 575
q0 -21 13.5 -36t34.5 -15t34.5 15t13.5 36t-13.5 36t-34.5 15t-34.5 -15t-13.5 -36zM200 575q0 32 23 54.5t55 22.5t55 -22.5t23 -54.5q0 -33 -22.5 -55t-55.5 -22t-55.5 21.5t-22.5 55.5z" />
    <glyph glyph-name="Uhungarumlaut" unicode="&#x170;" horiz-adv-x="637" 
d="M549 199q-15 -88 -75.5 -148.5t-159.5 -60.5q-119 0 -180 61.5t-45 162.5l66 398l-56 44l1 6h207l-1 -6l-71 -44l-67 -401q-14 -79 32.5 -125.5t126.5 -46.5q77 0 122.5 44t58.5 116l69 413l-56 44l1 6h167l-1 -6l-71 -44zM440 702l-6 8l146 141l38 -50zM289 702l-6 8
l146 141l38 -50z" />
    <glyph glyph-name="uhungarumlaut" unicode="&#x171;" horiz-adv-x="432" 
d="M283 176q-53 -79 -107.5 -130.5t-96.5 -51.5q-22 0 -34 9.5t-12 22.5q0 16 7 41q53 227 65 281l-55 26v7q61 23 143 42q-20 -91 -41.5 -182.5t-30.5 -130t-9 -43.5q0 -9 12 -9q21 0 73 53.5t98 116.5l39 182h70l-74 -359l57 -26v-6q-122 -24 -143 -27zM316 499l95 214
l50 -29l-136 -190zM208 494l-9 5l94 214l50 -29z" />
    <glyph glyph-name="Uogonek" unicode="&#x172;" horiz-adv-x="637" 
d="M233 -203q0 49 40 96t112 107q-30 -10 -71 -10q-119 0 -180 61.5t-45 162.5l66 398l-56 44l1 6h207l-1 -6l-71 -44l-67 -401q-14 -79 32.5 -125.5t126.5 -46.5q77 0 122.5 44t58.5 116l69 413l-56 44l1 6h167l-1 -6l-71 -44l-68 -413q-3 -19 -8.5 -37t-10 -30.5
t-15.5 -28.5t-15.5 -23t-19.5 -22.5t-18.5 -19t-21.5 -19.5t-20 -18q-52 -46 -86.5 -96.5t-34.5 -92.5q0 -22 11.5 -35.5t32.5 -13.5q38 0 75 33l5 -4q-14 -24 -43.5 -46.5t-69.5 -22.5q-34 0 -55.5 21t-21.5 53z" />
    <glyph glyph-name="uogonek" unicode="&#x173;" horiz-adv-x="432" 
d="M171 -277q-34 0 -55.5 21t-21.5 53q0 27 13 54.5t41 57.5t45 45.5t53 45.5l38 176q-52 -78 -107.5 -130t-97.5 -52q-22 0 -34 9.5t-12 22.5q0 16 7 41q53 227 65 281l-55 26v7q61 23 143 42q-20 -91 -41.5 -182.5t-30.5 -130t-9 -43.5q0 -9 12 -9q21 0 73.5 53.5
t97.5 116.5l39 182h70l-74 -359l57 -26v-6q-36 -8 -121 -24q-106 -112 -106 -183q0 -22 11.5 -35.5t32.5 -13.5q38 0 75 33l5 -4q-14 -24 -43.5 -46.5t-69.5 -22.5z" />
    <glyph glyph-name="Wcircumflex" unicode="&#x174;" horiz-adv-x="839" 
d="M130 612l-44 44l1 6h194l-1 -6l-72 -44l71 -490l156 263l-42 227l-53 44l1 6h189l-1 -6l-62 -44l28 -162l92 162l-42 44l1 6h143l-1 -6l-62 -44l-122 -210l49 -277l249 487l-55 44l1 6h159l-1 -6l-64 -44l-321 -625h-11l-65 347l-207 -347h-11zM548 831l98 -118l-5 -6
l-99 55l-130 -55l-5 7z" />
    <glyph glyph-name="wcircumflex" unicode="&#x175;" horiz-adv-x="508" 
d="M313 417q10 -57 10.5 -152t-7.5 -162q124 182 124 256q0 20 -15 38v3l73 20q12 -17 12 -39q0 -44 -53.5 -131t-204.5 -269h-11q13 100 20 294q-93 -162 -203 -294h-11q37 278 37 374l-50 26l1 7q48 17 119 35q2 -46 -6.5 -141t-19.5 -166q94 141 174 301h11zM357 706
l52 -218l-9 -3l-61 113l-113 -113l-9 5z" />
    <glyph glyph-name="Ycircumflex" unicode="&#x176;" horiz-adv-x="548" 
d="M450 656l1 6h161l-1 -6l-63 -44l-210 -292l-44 -270l57 -44l-1 -6h-209l1 6l72 44l43 265l-127 297l-46 44l1 6h202l-1 -6l-73 -44l108 -259l184 259zM388 831l98 -118l-5 -6l-99 55l-130 -55l-5 7z" />
    <glyph glyph-name="ycircumflex" unicode="&#x177;" horiz-adv-x="344" 
d="M274 349q0 26 -24 47v3l80 22q15 -19 15 -46q0 -62 -170 -310q-16 -24 -25 -37l-206 -299l-80 11v6q51 43 119 119t113 133q-7 201 -26 357l-50 27v6q54 19 110 35q25 -158 25 -338q67 111 93 169t26 95zM254 706l52 -218l-9 -3l-61 113l-113 -113l-9 5z" />
    <glyph glyph-name="Ydieresis" unicode="&#x178;" horiz-adv-x="548" 
d="M450 656l1 6h161l-1 -6l-63 -44l-210 -292l-44 -270l57 -44l-1 -6h-209l1 6l72 44l43 265l-127 297l-46 44l1 6h202l-1 -6l-73 -44l108 -259l184 259zM458 807q17 0 28.5 -11.5t11.5 -28.5t-11.5 -29t-28.5 -12t-28.5 12t-11.5 29t11.5 28.5t28.5 11.5zM297 807
q17 0 28.5 -11.5t11.5 -28.5t-11.5 -29t-28.5 -12t-28.5 12t-11.5 29t11.5 28.5t28.5 11.5z" />
    <glyph glyph-name="Zacute" unicode="&#x179;" horiz-adv-x="558" 
d="M104 34h311l89 108h5l-25 -142h-485l1 9l467 621h-273l-79 -96h-6l21 128h449l-1 -8zM265 703l-5 9l198 127l28 -60z" />
    <glyph glyph-name="zacute" unicode="&#x17a;" horiz-adv-x="352" 
d="M-15 6l289 351h-70q-84 0 -147 -10l-3 4l56 65l253 -8l-1 -5l-290 -346h56q110 0 180 19l3 -4l-58 -76l-269 4zM214 495l-9 5l130 212l52 -42z" />
    <glyph glyph-name="Zdotaccent" unicode="&#x17b;" horiz-adv-x="558" 
d="M104 34h311l89 108h5l-25 -142h-485l1 9l467 621h-273l-79 -96h-6l21 128h449l-1 -8zM362 808q17 0 29 -12t12 -29t-12 -29t-29 -12t-29 12t-12 29t12 29t29 12z" />
    <glyph glyph-name="zdotaccent" unicode="&#x17c;" horiz-adv-x="352" 
d="M-15 6l289 351h-70q-84 0 -147 -10l-3 4l56 65l253 -8l-1 -5l-290 -346h56q110 0 180 19l3 -4l-58 -76l-269 4zM241 629q17 0 29 -12t12 -29t-12 -29t-29 -12t-29 12t-12 29t12 29t29 12z" />
    <glyph glyph-name="Zcaron" unicode="&#x17d;" horiz-adv-x="558" 
d="M104 34h311l89 108h5l-25 -142h-485l1 9l467 621h-273l-79 -96h-6l21 128h449l-1 -8zM354 702l-98 118l5 6l99 -55l130 55l5 -7z" />
    <glyph glyph-name="zcaron" unicode="&#x17e;" horiz-adv-x="352" 
d="M-15 6l289 351h-70q-84 0 -147 -10l-3 4l56 65l253 -8l-1 -5l-290 -346h56q110 0 180 19l3 -4l-58 -76l-269 4zM224 484l-52 218l9 3l61 -113l113 113l9 -5z" />
    <glyph glyph-name="florin" unicode="&#x192;" horiz-adv-x="372" 
d="M262 521q-5 -16 -12.5 -43.5t-14 -50t-11.5 -43.5h106l-28 -37h-88l-69 -253q-16 -57 -34 -99.5t-45.5 -85.5t-67.5 -67.5t-89 -27.5l-8 59q15 -5 38 -5q32 0 51.5 16.5t39.5 65t47 149.5q39 150 64 248h-72l1 5l24 32h57l26 96q23 88 73.5 140t128.5 52q44 0 78 -14
l-33 -59q-42 36 -72 36q-58 0 -90 -114z" />
    <glyph glyph-name="Aringacute" unicode="&#x1fa;" horiz-adv-x="567" 
d="M128 6l-2 -6h-162l2 6l65 44l335 625h9l108 -625l44 -44l-2 -6h-195l2 6l76 44l-41 231h-173l-122 -231zM211 312h151l-38 214zM331 777q0 -21 13.5 -36t34.5 -15t34.5 15t13.5 36t-13.5 36t-34.5 15t-34.5 -15t-13.5 -36zM301 777q0 32 23 54.5t55 22.5t55 -22.5
t23 -54.5q0 -33 -22.5 -55t-55.5 -22t-55.5 21.5t-22.5 55.5zM309 864l-5 9l198 127l28 -60z" />
    <glyph glyph-name="aringacute" unicode="&#x1fb;" horiz-adv-x="408" 
d="M364 26l-1 -7q-47 -16 -143 -27l31 149q-41 -63 -88 -107t-87 -44q-24 0 -42.5 26.5t-18.5 71.5q0 65 32 131.5t100.5 120.5t157.5 65l81 46l-81 -398zM262 195l38 180q-81 -6 -145.5 -93.5t-64.5 -192.5q0 -45 19 -45q17 0 53.5 33t72.5 80q9 13 27 37v1zM199 567
q0 -21 13.5 -36t34.5 -15t34.5 15t13.5 36t-13.5 36t-34.5 15t-34.5 -15t-13.5 -36zM169 567q0 32 23 54.5t55 22.5t55 -22.5t23 -54.5q0 -33 -22.5 -55t-55.5 -22t-55.5 21.5t-22.5 55.5zM216 667l-9 5l130 212l52 -42z" />
    <glyph glyph-name="AEacute" unicode="&#x1fc;" horiz-adv-x="772" 
d="M361 50l44 267h-154l-181 -267l57 -44l-1 -6h-163l1 6l64 44l382 562l-55 44l1 6h423l-19 -117h-7l-45 85h-171l-43 -261h175l53 69h7l-28 -169h-7l-30 68h-176l-50 -304h186l84 105h7l-23 -138h-404l1 6zM410 349l44 267l-181 -267h137zM507 703l-5 9l198 127l28 -60z
" />
    <glyph glyph-name="aeacute" unicode="&#x1fd;" horiz-adv-x="547" 
d="M339 -10q-39 0 -70 31t-31 92v10q-94 -133 -160 -133q-25 0 -43.5 26t-18.5 72q0 119 87.5 223t201.5 104q46 0 82 -21q44 26 85 26q35 0 55 -11.5t20 -29.5q0 -12 -9.5 -27.5t-31 -35t-66 -36t-104.5 -23.5q-23 -60 -23 -134q0 -85 53 -85q55 0 128 87l9 -6
q-32 -62 -75 -95.5t-89 -33.5zM288 386q-67 0 -132 -91.5t-65 -206.5q0 -44 20 -44t57 35t74 86q19 118 104 198q-25 23 -58 23zM482 373q0 20 -26 20t-56.5 -31t-53.5 -82q55 11 95.5 35.5t40.5 57.5zM331 495l-9 5l130 212l52 -42z" />
    <glyph glyph-name="Oslashacute" unicode="&#x1fe;" horiz-adv-x="665" 
d="M63 262q0 164 101.5 287t235.5 123q81 0 146 -47l61 85l26 -18l-62 -87q76 -74 76 -195q0 -174 -100.5 -297t-236.5 -123q-82 0 -143 46l-70 -98l-26 18l71 101q-79 76 -79 205zM400 640q-103 0 -176.5 -113t-73.5 -265q0 -88 32 -150l331 466q-44 62 -113 62zM560 411
q-2 85 -29 138l-331 -466q44 -61 110 -61q102 0 176 114t74 275zM313 703l-5 9l198 127l28 -60z" />
    <glyph glyph-name="oslashacute" unicode="&#x1ff;" horiz-adv-x="398" 
d="M15 -50l52 80q-44 46 -44 120q0 105 66 187.5t150 82.5q36 0 70 -21l46 70l24 -15l-48 -74q45 -47 45 -116q0 -116 -67 -195t-146 -79q-42 0 -74 22l-50 -77zM167 19q48 0 90 74t42 177q0 26 -5 54l-178 -271q16 -34 51 -34zM101 142q0 -37 4 -54l178 271q-17 32 -46 32
q-50 0 -93 -78.5t-43 -170.5zM204 495l-9 5l130 212l52 -42z" />
    <glyph glyph-name="Scommaaccent" unicode="&#x218;" horiz-adv-x="420" 
d="M281 672q74 0 133 -25l-19 -100h-6q-31 95 -109 95q-40 0 -64.5 -24t-24.5 -62q0 -25 12.5 -55t24.5 -50t46 -73q37 -58 53 -85t30.5 -66t14.5 -73q0 -73 -52.5 -118.5t-128.5 -45.5q-99 0 -165 48q0 62 20 160h7q7 -86 43 -129.5t95 -43.5q49 0 77.5 31t28.5 75
q0 42 -19.5 83t-65.5 109q-53 80 -72.5 121t-19.5 87q0 66 47 103.5t114 37.5zM198 -126q0 -44 -34.5 -89.5t-80.5 -74.5l-8 5q62 76 83 132q-16 -2 -29.5 7.5t-13.5 26.5q0 18 11 29.5t28 11.5q20 0 32 -13t12 -35z" />
    <glyph glyph-name="scommaaccent" unicode="&#x219;" horiz-adv-x="278" 
d="M174 421q36 0 87 -16l-17 -70h-5q-28 58 -69 58q-16 0 -29 -11.5t-13 -31.5q0 -22 19 -59q11 -21 30.5 -56.5t31.5 -59.5q22 -43 22 -82t-33 -71t-86 -32q-56 0 -104 28q6 62 16 115h6q9 -56 32 -83.5t52 -27.5q27 0 40.5 15t13.5 35q0 26 -22 69q-10 20 -60 112
q-19 35 -19 71q0 40 29.5 68.5t77.5 28.5zM133 -126q0 -44 -34.5 -89.5t-80.5 -74.5l-8 5q62 76 83 132q-16 -2 -29.5 7.5t-13.5 26.5q0 18 11 29.5t28 11.5q20 0 32 -13t12 -35z" />
    <glyph glyph-name="uni021A" unicode="&#x21a;" horiz-adv-x="572" 
d="M612 662l-22 -128h-6l-46 95h-141l-96 -579l56 -44l-1 -6h-208l1 6l72 44l96 579h-140l-80 -95h-6l23 128h498zM276 -126q0 -44 -34.5 -89.5t-80.5 -74.5l-8 5q62 76 83 132q-16 -2 -29.5 7.5t-13.5 26.5q0 18 11 29.5t28 11.5q20 0 32 -13t12 -35z" />
    <glyph glyph-name="uni021B" unicode="&#x21b;" horiz-adv-x="293" 
d="M174 370l-55 -253q-13 -57 -13 -64q0 -16 15 -16q13 0 29 9t25.5 16.5t29 26t22.5 21.5l8 -4q-17 -38 -56 -77t-87 -39q-28 0 -44.5 12t-16.5 31l10 58l62 279h-50v5l141 96l-13 -64h141l-29 -37h-119zM114 -126q0 -44 -34.5 -89.5t-80.5 -74.5l-8 5q62 76 83 132
q-16 -2 -29.5 7.5t-13.5 26.5q0 18 11 29.5t28 11.5q20 0 32 -13t12 -35z" />
    <glyph glyph-name="uni0237" unicode="&#x237;" horiz-adv-x="208" 
d="M107 22q-21 -118 -162 -272l-8 4q75 142 106 303l56 291l-56 26v7q69 26 139 42z" />
    <glyph glyph-name="circumflex" unicode="&#x2c6;" 
d="M297 706l52 -218l-9 -3l-61 113l-113 -113l-9 5z" />
    <glyph glyph-name="caron" unicode="&#x2c7;" 
d="M232 484l-52 218l9 3l61 -113l113 113l9 -5z" />
    <glyph glyph-name="breve" unicode="&#x2d8;" 
d="M366 631q-12 -56 -40 -89t-70 -33q-45 0 -65 35.5t-11 86.5l8 1q2 -30 19.5 -50t49.5 -20q65 0 101 70z" />
    <glyph glyph-name="dotaccent" unicode="&#x2d9;" 
d="M267 629q17 0 29 -12t12 -29t-12 -29t-29 -12t-29 12t-12 29t12 29t29 12z" />
    <glyph glyph-name="ring" unicode="&#x2da;" 
d="M223 575q0 -21 13.5 -36t34.5 -15t34.5 15t13.5 36t-13.5 36t-34.5 15t-34.5 -15t-13.5 -36zM193 575q0 32 23 54.5t55 22.5t55 -22.5t23 -54.5q0 -33 -22.5 -55t-55.5 -22t-55.5 21.5t-22.5 55.5z" />
    <glyph glyph-name="ogonek" unicode="&#x2db;" 
d="M110 -277q-34 0 -55.5 21t-21.5 53q0 27 13 54.5t41 57.5t45 45.5t53 45.5h24q-110 -116 -110 -188q0 -22 11.5 -35.5t32.5 -13.5q38 0 75 33l5 -4q-14 -24 -43.5 -46.5t-69.5 -22.5z" />
    <glyph glyph-name="tilde" unicode="&#x2dc;" 
d="M220 611q10 0 48 -15t49 -15t31 17.5t35 38.5l7 -4q-13 -38 -36.5 -70t-43.5 -32q-14 0 -51.5 14.5t-45.5 14.5q-21 0 -68 -55l-7 4q16 38 40 70t42 32z" />
    <glyph glyph-name="hungarumlaut" unicode="&#x2dd;" 
d="M253 499l95 214l50 -29l-136 -190zM145 494l-9 5l94 214l50 -29z" />
    <glyph glyph-name="Wgrave" unicode="&#x1e80;" horiz-adv-x="839" 
d="M130 612l-44 44l1 6h194l-1 -6l-72 -44l71 -490l156 263l-42 227l-53 44l1 6h189l-1 -6l-62 -44l28 -162l92 162l-42 44l1 6h143l-1 -6l-62 -44l-122 -210l49 -277l249 487l-55 44l1 6h159l-1 -6l-64 -44l-321 -625h-11l-65 347l-207 -347h-11zM425 781l38 58l158 -128
l-6 -8z" />
    <glyph glyph-name="wgrave" unicode="&#x1e81;" horiz-adv-x="508" 
d="M313 417q10 -57 10.5 -152t-7.5 -162q124 182 124 256q0 20 -15 38v3l73 20q12 -17 12 -39q0 -44 -53.5 -131t-204.5 -269h-11q13 100 20 294q-93 -162 -203 -294h-11q37 278 37 374l-50 26l1 7q48 17 119 35q2 -46 -6.5 -141t-19.5 -166q94 141 174 301h11zM357 495
l-124 187l61 30l72 -212z" />
    <glyph glyph-name="Wacute" unicode="&#x1e82;" horiz-adv-x="839" 
d="M130 612l-44 44l1 6h194l-1 -6l-72 -44l71 -490l156 263l-42 227l-53 44l1 6h189l-1 -6l-62 -44l28 -162l92 162l-42 44l1 6h143l-1 -6l-62 -44l-122 -210l49 -277l249 487l-55 44l1 6h159l-1 -6l-64 -44l-321 -625h-11l-65 347l-207 -347h-11zM429 703l-5 9l198 127
l28 -60z" />
    <glyph glyph-name="wacute" unicode="&#x1e83;" horiz-adv-x="508" 
d="M313 417q10 -57 10.5 -152t-7.5 -162q124 182 124 256q0 20 -15 38v3l73 20q12 -17 12 -39q0 -44 -53.5 -131t-204.5 -269h-11q13 100 20 294q-93 -162 -203 -294h-11q37 278 37 374l-50 26l1 7q48 17 119 35q2 -46 -6.5 -141t-19.5 -166q94 141 174 301h11zM287 495
l-9 5l130 212l52 -42z" />
    <glyph glyph-name="Wdieresis" unicode="&#x1e84;" horiz-adv-x="839" 
d="M130 612l-44 44l1 6h194l-1 -6l-72 -44l71 -490l156 263l-42 227l-53 44l1 6h189l-1 -6l-62 -44l28 -162l92 162l-42 44l1 6h143l-1 -6l-62 -44l-122 -210l49 -277l249 487l-55 44l1 6h159l-1 -6l-64 -44l-321 -625h-11l-65 347l-207 -347h-11zM618 807q17 0 28.5 -11.5
t11.5 -28.5t-11.5 -29t-28.5 -12t-28.5 12t-11.5 29t11.5 28.5t28.5 11.5zM457 807q17 0 28.5 -11.5t11.5 -28.5t-11.5 -29t-28.5 -12t-28.5 12t-11.5 29t11.5 28.5t28.5 11.5z" />
    <glyph glyph-name="wdieresis" unicode="&#x1e85;" horiz-adv-x="508" 
d="M313 417q10 -57 10.5 -152t-7.5 -162q124 182 124 256q0 20 -15 38v3l73 20q12 -17 12 -39q0 -44 -53.5 -131t-204.5 -269h-11q13 100 20 294q-93 -162 -203 -294h-11q37 278 37 374l-50 26l1 7q48 17 119 35q2 -46 -6.5 -141t-19.5 -166q94 141 174 301h11zM400 624
q17 0 28.5 -11.5t11.5 -28.5t-11.5 -29t-28.5 -12t-28.5 12t-11.5 29t11.5 28.5t28.5 11.5zM245 624q17 0 28.5 -11.5t11.5 -28.5t-11.5 -29t-28.5 -12t-28.5 12t-11.5 29t11.5 28.5t28.5 11.5z" />
    <glyph glyph-name="Ygrave" unicode="&#x1ef2;" horiz-adv-x="548" 
d="M450 656l1 6h161l-1 -6l-63 -44l-210 -292l-44 -270l57 -44l-1 -6h-209l1 6l72 44l43 265l-127 297l-46 44l1 6h202l-1 -6l-73 -44l108 -259l184 259zM259 781l38 58l158 -128l-6 -8z" />
    <glyph glyph-name="ygrave" unicode="&#x1ef3;" horiz-adv-x="344" 
d="M274 349q0 26 -24 47v3l80 22q15 -19 15 -46q0 -62 -170 -310q-16 -24 -25 -37l-206 -299l-80 11v6q51 43 119 119t113 133q-7 201 -26 357l-50 27v6q54 19 110 35q25 -158 25 -338q67 111 93 169t26 95zM243 495l-124 187l61 30l72 -212z" />
    <glyph glyph-name="uni2009" unicode="&#x2009;" horiz-adv-x="25" 
 />
    <glyph glyph-name="endash" unicode="&#x2013;" horiz-adv-x="417" 
d="M60 259h315l-7 -33h-315z" />
    <glyph glyph-name="emdash" unicode="&#x2014;" horiz-adv-x="657" 
d="M53 226l7 33h555l-7 -33h-555z" />
    <glyph glyph-name="quoteleft" unicode="&#x2018;" horiz-adv-x="187" 
d="M225 689q-74 -71 -86 -152q1 1 4 1h7q16 0 27 -9.5t11 -26.5q0 -18 -11 -29t-31 -11q-22 0 -36 16t-14 42q0 48 33 96t87 78z" />
    <glyph glyph-name="quoteright" unicode="&#x2019;" horiz-adv-x="187" 
d="M78 465q74 71 86 152q-1 -1 -4 -1h-7q-16 0 -27 9.5t-11 26.5q0 18 11 29t31 11q22 0 36 -16t14 -42q0 -48 -33 -96t-87 -78z" />
    <glyph glyph-name="quotesinglbase" unicode="&#x201a;" horiz-adv-x="187" 
d="M-17 -138q74 71 86 152q-1 -1 -4 -1h-7q-16 0 -27 9.5t-11 26.5q0 18 11 29t31 11q22 0 36 -16t14 -42q0 -48 -33 -96t-87 -78z" />
    <glyph glyph-name="quotedblleft" unicode="&#x201c;" horiz-adv-x="330" 
d="M368 689q-74 -71 -86 -152q1 1 4 1h7q16 0 27 -9.5t11 -26.5q0 -18 -11 -29t-31 -11q-22 0 -36 16t-14 42q0 48 33 96t87 78zM225 689q-74 -71 -86 -152q1 1 4 1h7q16 0 27 -9.5t11 -26.5q0 -18 -11 -29t-31 -11q-22 0 -36 16t-14 42q0 48 33 96t87 78z" />
    <glyph glyph-name="quotedblright" unicode="&#x201d;" horiz-adv-x="330" 
d="M221 465q74 71 86 152q-1 -1 -4 -1h-7q-16 0 -27 9.5t-11 26.5q0 18 11 29t31 11q22 0 36 -16t14 -42q0 -48 -33 -96t-87 -78zM78 465q74 71 86 152q-1 -1 -4 -1h-7q-16 0 -27 9.5t-11 26.5q0 18 11 29t31 11q22 0 36 -16t14 -42q0 -48 -33 -96t-87 -78z" />
    <glyph glyph-name="quotedblbase" unicode="&#x201e;" horiz-adv-x="330" 
d="M126 -138q74 71 86 152q-1 -1 -4 -1h-7q-16 0 -27 9.5t-11 26.5q0 18 11 29t31 11q22 0 36 -16t14 -42q0 -48 -33 -96t-87 -78zM-17 -138q74 71 86 152q-1 -1 -4 -1h-7q-16 0 -27 9.5t-11 26.5q0 18 11 29t31 11q22 0 36 -16t14 -42q0 -48 -33 -96t-87 -78z" />
    <glyph glyph-name="dagger" unicode="&#x2020;" horiz-adv-x="302" 
d="M70 -113h-4l108 585h-105l1 5l34 35h78l20 108l54 59h5l-31 -167h113l-1 -5l-34 -35h-86l-97 -526z" />
    <glyph glyph-name="daggerdbl" unicode="&#x2021;" horiz-adv-x="302" 
d="M303 456h-84l-42 -229h106l-1 -5l-34 -35h-79l-26 -144l-55 -58h-4l37 202h-112l1 5l34 35h85l42 229h-107l1 5l34 35h80l23 125l54 58h5l-34 -183h111l-1 -5z" />
    <glyph glyph-name="bullet" unicode="&#x2022;" horiz-adv-x="319" 
d="M61 247q0 44 29.5 74t72.5 30q44 0 73.5 -30t29.5 -74q0 -43 -30 -73t-73 -30t-72.5 30t-29.5 73z" />
    <glyph glyph-name="ellipsis" unicode="&#x2026;" horiz-adv-x="504" 
d="M378 88q20 0 34 -13.5t14 -34.5q0 -20 -14 -34t-34 -14q-21 0 -34.5 14t-13.5 34q0 21 13.5 34.5t34.5 13.5zM223 88q20 0 34 -13.5t14 -34.5q0 -20 -14 -34t-34 -14q-21 0 -34.5 14t-13.5 34q0 21 13.5 34.5t34.5 13.5zM68 88q20 0 34 -13.5t14 -34.5q0 -20 -14 -34
t-34 -14q-21 0 -34.5 14t-13.5 34q0 21 13.5 34.5t34.5 13.5z" />
    <glyph glyph-name="perthousand" unicode="&#x2030;" horiz-adv-x="916" 
d="M774 240q-44 0 -72 -35t-28 -84q0 -43 22.5 -68.5t56.5 -25.5q44 0 72 35t28 84q0 43 -22.5 68.5t-56.5 25.5zM774 276q50 0 85 -34t35 -95q0 -62 -40 -109t-101 -47q-50 0 -85 34t-35 95t40 108.5t101 47.5zM548 146q0 43 -22.5 68.5t-56.5 25.5q-44 0 -72 -35t-28 -84
q0 -43 22.5 -68.5t56.5 -25.5q44 0 72 35t28 84zM469 276q50 0 85 -34t35 -95q0 -62 -40 -109t-101 -47q-50 0 -85 34t-35 95t40 108.5t101 47.5zM113 515q0 -43 22.5 -68.5t56.5 -25.5q44 0 72 35t28 84q0 43 -22.5 68.5t-56.5 25.5q-44 0 -72 -35t-28 -84zM213 670
q50 0 85 -34t35 -95q0 -62 -40 -109t-101 -47q-50 0 -85 34t-35 95t40 108.5t101 47.5zM575 662h47l-530 -662h-47z" />
    <glyph glyph-name="uni2032" unicode="&#x2032;" horiz-adv-x="179" 
d="M217 687l-127 -225h-10l66 225h71z" />
    <glyph glyph-name="uni2033" unicode="&#x2033;" horiz-adv-x="304" 
d="M342 687l-127 -225h-10l66 225h71zM217 687l-127 -225h-10l66 225h71z" />
    <glyph glyph-name="guilsinglleft" unicode="&#x2039;" horiz-adv-x="227" 
d="M43 227l158 152l7 -6l-101 -153l42 -151l-8 -3z" />
    <glyph glyph-name="guilsinglright" unicode="&#x203a;" horiz-adv-x="227" 
d="M182 218l-158 -152l-7 6l101 153l-42 151l8 3z" />
    <glyph glyph-name="fraction" unicode="&#x2044;" horiz-adv-x="383" 
d="M455 662h38l-490 -662h-38z" />
    <glyph glyph-name="Euro" unicode="&#x20ac;" horiz-adv-x="549" 
d="M407 282h-212v-23q0 -105 38.5 -170.5t98.5 -65.5q78 0 145 87h7l-19 -99q-45 -21 -125 -21q-105 0 -168 75.5t-63 201.5v15h-70l5 30h67q5 39 11 64h-68l5 30h71q36 117 122.5 191.5t189.5 74.5q52 0 120 -17l-20 -107h-6q-33 91 -107 91q-71 0 -129.5 -65.5
t-85.5 -167.5h213l-5 -30h-215q-5 -28 -10 -64h215z" />
    <glyph glyph-name="trademark" unicode="&#x2122;" horiz-adv-x="592" 
d="M631 656l-34 -20l-36 -218l28 -20l-1 -6h-108l1 6l34 20l30 180l-115 -183h-8l-53 185l-30 -182l28 -20l-1 -6h-87l1 6l35 20l35 214q-4 5 -22 24l1 6h70l48 -180l111 180h74zM91 662h216l-11 -63h-6l-18 43h-53l-37 -225l27 -19l-1 -6h-107l1 6l34 19l37 225h-50
l-37 -44h-6z" />
    <glyph glyph-name="onethird" unicode="&#x2153;" horiz-adv-x="500" 
d="M485 662h38l-490 -662h-38zM63 375v4l37 23l42 212l-31 16v4l94 35l-52 -267l26 -23v-4h-116zM319 151q76 44 76 76q0 31 -35 31q-20 0 -39 -15l-4 4q28 46 75 46q24 0 39 -13.5t15 -34.5q0 -41 -65 -69q31 -2 49.5 -17.5t18.5 -42.5q0 -44 -43 -78t-133 -45l-2 7
q119 50 119 105q0 40 -50 40q-9 0 -19 -2z" />
    <glyph glyph-name="twothirds" unicode="&#x2154;" horiz-adv-x="557" 
d="M542 662h38l-490 -662h-38zM232 375h-172l1 11q85 85 116.5 128t31.5 74q0 42 -44 42q-25 0 -49 -19l-5 4q27 53 85 53q32 0 50.5 -19t18.5 -50q0 -40 -33 -79t-111 -100h140zM377 151q76 44 76 76q0 31 -35 31q-20 0 -39 -15l-4 4q28 46 75 46q24 0 39 -13.5t15 -34.5
q0 -41 -65 -69q31 -2 49.5 -17.5t18.5 -42.5q0 -44 -43 -78t-133 -45l-2 7q119 50 119 105q0 40 -50 40q-9 0 -19 -2z" />
    <glyph glyph-name="oneeighth" unicode="&#x215b;" horiz-adv-x="513" 
d="M485 662h38l-490 -662h-38zM63 375v4l37 23l42 212l-31 16v4l94 35l-52 -267l26 -23v-4h-116zM403 293q37 0 57.5 -16t20.5 -39q0 -42 -73 -76q19 -22 28 -34t16 -27t7 -30q0 -33 -27.5 -55t-72.5 -22q-41 0 -63.5 17.5t-22.5 44.5q0 47 82 84q-44 45 -44 83q0 32 26 51
t66 19zM411 56q0 28 -46 74q-46 -32 -46 -71q0 -17 11 -29t32 -12q23 0 36 10.5t13 27.5zM358 239q0 -10 5 -20t12 -19t24 -28q37 33 37 63q0 36 -37 36q-18 0 -29.5 -8.5t-11.5 -23.5z" />
    <glyph glyph-name="threeeighths" unicode="&#x215c;" horiz-adv-x="520" 
d="M492 662h38l-490 -662h-38zM108 526q76 44 76 76q0 31 -35 31q-20 0 -39 -15l-4 4q28 46 75 46q24 0 39 -13.5t15 -34.5q0 -41 -65 -69q31 -2 49.5 -17.5t18.5 -42.5q0 -44 -43 -78t-133 -45l-2 7q119 50 119 105q0 40 -50 40q-9 0 -19 -2zM411 293q37 0 57.5 -16
t20.5 -39q0 -42 -73 -76q19 -22 28 -34t16 -27t7 -30q0 -33 -27.5 -55t-72.5 -22q-41 0 -63.5 17.5t-22.5 44.5q0 47 82 84q-44 45 -44 83q0 32 26 51t66 19zM419 56q0 28 -46 74q-46 -32 -46 -71q0 -17 11 -29t32 -12q23 0 36 10.5t13 27.5zM366 239q0 -10 5 -20t12 -19
t24 -28q37 33 37 63q0 36 -37 36q-18 0 -29.5 -8.5t-11.5 -23.5z" />
    <glyph glyph-name="fiveeighths" unicode="&#x215d;" horiz-adv-x="510" 
d="M482 662h38l-490 -662h-38zM264 662l-24 -46h-90l-15 -35q45 -12 72.5 -36t27.5 -53q0 -41 -43 -75t-125 -51l-3 8q55 24 84.5 51t29.5 49q0 41 -80 61l51 127h115zM401 293q37 0 57.5 -16t20.5 -39q0 -42 -73 -76q19 -22 28 -34t16 -27t7 -30q0 -33 -27.5 -55t-72.5 -22
q-41 0 -63.5 17.5t-22.5 44.5q0 47 82 84q-44 45 -44 83q0 32 26 51t66 19zM409 56q0 28 -46 74q-46 -32 -46 -71q0 -17 11 -29t32 -12q23 0 36 10.5t13 27.5zM356 239q0 -10 5 -20t12 -19t24 -28q37 33 37 63q0 36 -37 36q-18 0 -29.5 -8.5t-11.5 -23.5z" />
    <glyph glyph-name="seveneighths" unicode="&#x215e;" horiz-adv-x="494" 
d="M466 662h38l-490 -662h-38zM127 662h164v-4l-160 -282h-32l137 240h-135zM385 293q37 0 57.5 -16t20.5 -39q0 -42 -73 -76q19 -22 28 -34t16 -27t7 -30q0 -33 -27.5 -55t-72.5 -22q-41 0 -63.5 17.5t-22.5 44.5q0 47 82 84q-44 45 -44 83q0 32 26 51t66 19zM393 56
q0 28 -46 74q-46 -32 -46 -71q0 -17 11 -29t32 -12q23 0 36 10.5t13 27.5zM340 239q0 -10 5 -20t12 -19t24 -28q37 33 37 63q0 36 -37 36q-18 0 -29.5 -8.5t-11.5 -23.5z" />
    <glyph glyph-name="minus" unicode="&#x2212;" horiz-adv-x="397" 
d="M47 230l6 33h308l-6 -33h-308z" />
    <glyph glyph-name="uni24C5" unicode="&#x24c5;" horiz-adv-x="780" 
d="M564 413q0 -53 -44 -82.5t-105 -29.5v4q78 27 78 97q0 38 -21 59.5t-57 21.5h-24v-282l43 -30v-4h-153v4l39 30v275l-39 29v4h151q58 0 95 -24t37 -72zM410 639q-127 0 -211 -89t-84 -218q0 -127 86.5 -217t208.5 -90q126 0 210.5 89t84.5 218q0 126 -86 216.5t-209 90.5
zM410 674q141 0 240.5 -100.5t99.5 -241.5q0 -144 -98 -243t-242 -99q-145 0 -242.5 98.5t-97.5 243.5q0 144 98 243t242 99z" />
    <glyph glyph-name="acute.uc" 
d="M185 703l-5 9l198 127l28 -60z" />
    <glyph glyph-name="breve.uc" 
d="M385 831q-13 -55 -43 -86.5t-74 -31.5q-45 0 -67 33.5t-18 84.5l7 1q12 -65 79 -65q69 0 109 65z" />
    <glyph glyph-name="circumflex.uc" 
d="M305 831l98 -118l-5 -6l-99 55l-130 -55l-5 7z" />
    <glyph glyph-name="dieresis.uc" 
d="M372 807q17 0 28.5 -11.5t11.5 -28.5t-11.5 -29t-28.5 -12t-28.5 12t-11.5 29t11.5 28.5t28.5 11.5zM211 807q17 0 28.5 -11.5t11.5 -28.5t-11.5 -29t-28.5 -12t-28.5 12t-11.5 29t11.5 28.5t28.5 11.5z" />
    <glyph glyph-name="grave.uc" 
d="M174 781l38 58l158 -128l-6 -8z" />
    <glyph glyph-name="macron.uc" 
d="M404 772l-8 -45h-216l8 45h216z" />
    <glyph glyph-name="ring.uc" 
d="M241 777q0 -21 13.5 -36t34.5 -15t34.5 15t13.5 36t-13.5 36t-34.5 15t-34.5 -15t-13.5 -36zM211 777q0 32 23 54.5t55 22.5t55 -22.5t23 -54.5q0 -33 -22.5 -55t-55.5 -22t-55.5 21.5t-22.5 55.5z" />
    <glyph glyph-name="tilde.uc" 
d="M253 806q10 0 56.5 -11.5t58.5 -11.5q22 0 66 49l7 -3q-15 -36 -37.5 -67t-42.5 -31q-16 0 -61.5 11.5t-53.5 11.5q-24 0 -68 -52l-7 3q16 36 39 68.5t43 32.5z" />
    <glyph glyph-name="Cacute.pl" horiz-adv-x="589" 
d="M338 -10q-118 0 -199 73t-81 206q0 162 112 282.5t272 120.5q98 0 160 -23l-19 -107h-6q-36 97 -142 97q-123 0 -206 -108t-83 -262q0 -106 54.5 -176t137.5 -70q96 0 181 92h6l-19 -98q-58 -27 -168 -27zM408 702l-9 3l38 161l67 -30z" />
    <glyph glyph-name="acute.ucpl" 
d="M281 702l-9 3l38 161l67 -30z" />
    <glyph glyph-name="caron.uc" 
d="M268 702l-98 118l5 6l99 -55l130 55l5 -7z" />
    <glyph glyph-name="dotaccent.uc" 
d="M297 808q17 0 29 -12t12 -29t-12 -29t-29 -12t-29 12t-12 29t12 29t29 12z" />
    <glyph glyph-name="space_uni0326" 
d="M183 -126q0 -44 -34.5 -89.5t-80.5 -74.5l-8 5q62 76 83 132q-16 -2 -29.5 7.5t-13.5 26.5q0 18 11 29.5t28 11.5q20 0 32 -13t12 -35z" />
    <glyph glyph-name="K.001" horiz-adv-x="563" 
d="M-3 0l1 6l72 44l93 562l-56 45l1 5h207l-1 -5l-71 -45l-93 -562l56 -44l-1 -6h-208zM544 -15q-46 2 -75 10.5t-55 34t-42.5 50.5t-48.5 83l-101 178v5l254 266l-56 44l1 6h186l-1 -6l-78 -39l-238 -242l107 -188q54 -92 85 -132t63 -64z" />
    <glyph glyph-name="Kcommaaccent.001" horiz-adv-x="563" 
d="M-3 0l1 6l72 44l93 562l-56 45l1 5h207l-1 -5l-71 -45l-93 -562l56 -44l-1 -6h-208zM544 -15q-46 2 -75 10.5t-55 34t-42.5 50.5t-48.5 83l-101 178v5l254 266l-56 44l1 6h186l-1 -6l-78 -39l-238 -242l107 -188q54 -92 85 -132t63 -64zM325 -126q0 -44 -34.5 -89.5
t-80.5 -74.5l-8 5q62 76 83 132q-16 -2 -29.5 7.5t-13.5 26.5q0 18 11 29.5t28 11.5q20 0 32 -13t12 -35z" />
    <glyph glyph-name="caron.alt" 
d="M214 509l61 206h66l-116 -206h-11z" />
    <glyph glyph-name="Nacute.pl" horiz-adv-x="658" 
d="M505 0l-316 528l-78 -473l63 -49l-1 -6h-186l2 6l81 49l86 524q-16 25 -54 78v5h99l312 -530l78 475l-64 50l1 5h185l-1 -5l-80 -50l-99 -607h-28zM404 702l-9 3l38 161l67 -30z" />
    <glyph glyph-name="Oacute.pl" horiz-adv-x="665" 
d="M400 640q-103 0 -176.5 -113t-73.5 -265q0 -110 47 -175t113 -65q102 0 176 114t74 275q0 108 -47 168.5t-113 60.5zM63 262q0 164 101.5 287t235.5 123q108 0 177.5 -74t69.5 -188q0 -174 -100.5 -297t-236.5 -123q-104 0 -175.5 75t-71.5 197zM399 702l-9 3l38 161
l67 -30z" />
    <glyph glyph-name="hungarumlaut.uc" 
d="M294 702l-6 8l146 141l38 -50zM143 702l-6 8l146 141l38 -50z" />
    <glyph glyph-name="Q.long" horiz-adv-x="665" 
d="M648 414q0 -147 -76 -263t-201 -151q189 -104 311.5 -140.5t241.5 -36.5q87 0 167 20l3 -8q-111 -59 -260 -59q-111 0 -241 43.5t-345 167.5q-41 24 -69 45t-57 53.5t-44 77t-15 99.5q0 108 46 202.5t124 151t167 56.5q108 0 178 -73.5t70 -184.5zM150 262
q0 -109 47 -174t113 -65q103 0 176.5 114t73.5 278q0 106 -46.5 165t-113.5 59q-104 0 -177 -112.5t-73 -264.5z" />
    <glyph glyph-name="Sacute.pl" horiz-adv-x="420" 
d="M281 672q74 0 133 -25l-19 -100h-6q-31 95 -109 95q-40 0 -64.5 -24t-24.5 -62q0 -25 12.5 -55t24.5 -50t46 -73q37 -58 53 -85t30.5 -66t14.5 -73q0 -73 -52.5 -118.5t-128.5 -45.5q-99 0 -165 48q0 62 20 160h7q7 -86 43 -129.5t95 -43.5q49 0 77.5 31t28.5 75
q0 42 -19.5 83t-65.5 109q-53 80 -72.5 121t-19.5 87q0 66 47 103.5t114 37.5zM285 702l-9 3l38 161l67 -30z" />
    <glyph glyph-name="W.001" horiz-adv-x="819" 
d="M782 612l-55 44l1 6h159l-1 -6l-64 -44l-273 -625h-10l-78 522l-245 -522h-11l-75 625l-44 44l1 6h194l-1 -6l-72 -44l51 -453l241 517h11l74 -520z" />
    <glyph glyph-name="Wacute.001" horiz-adv-x="819" 
d="M782 612l-55 44l1 6h159l-1 -6l-64 -44l-273 -625h-10l-78 522l-245 -522h-11l-75 625l-44 44l1 6h194l-1 -6l-72 -44l51 -453l241 517h11l74 -520zM415 703l-5 9l198 127l28 -60z" />
    <glyph glyph-name="Wcircumflex.001" horiz-adv-x="819" 
d="M782 612l-55 44l1 6h159l-1 -6l-64 -44l-273 -625h-10l-78 522l-245 -522h-11l-75 625l-44 44l1 6h194l-1 -6l-72 -44l51 -453l241 517h11l74 -520zM523 831l98 -118l-5 -6l-99 55l-130 -55l-5 7z" />
    <glyph glyph-name="Wdieresis.001" horiz-adv-x="819" 
d="M782 612l-55 44l1 6h159l-1 -6l-64 -44l-273 -625h-10l-78 522l-245 -522h-11l-75 625l-44 44l1 6h194l-1 -6l-72 -44l51 -453l241 517h11l74 -520zM594 807q17 0 28.5 -11.5t11.5 -28.5t-11.5 -29t-28.5 -12t-28.5 12t-11.5 29t11.5 28.5t28.5 11.5zM433 807
q17 0 28.5 -11.5t11.5 -28.5t-11.5 -29t-28.5 -12t-28.5 12t-11.5 29t11.5 28.5t28.5 11.5z" />
    <glyph glyph-name="Wgrave.001" horiz-adv-x="819" 
d="M782 612l-55 44l1 6h159l-1 -6l-64 -44l-273 -625h-10l-78 522l-245 -522h-11l-75 625l-44 44l1 6h194l-1 -6l-72 -44l51 -453l241 517h11l74 -520zM404 781l38 58l158 -128l-6 -8z" />
    <glyph glyph-name="Zacute.pl" horiz-adv-x="558" 
d="M104 34h311l89 108h5l-25 -142h-485l1 9l467 621h-273l-79 -96h-6l21 128h449l-1 -8zM343 702l-9 3l38 161l67 -30z" />
    <glyph glyph-name="acute.pl" 
d="M219 489l-9 3l62 226l62 -25z" />
    <glyph glyph-name="ampersand.uc" horiz-adv-x="639" 
d="M671 419q-69 -33 -111 -78.5t-90 -129.5q-25 -43 -30 -50q82 -119 187 -173l-1 -6q-130 -3 -195 67q-20 22 -37 44q-45 -59 -88 -83t-98 -24q-77 0 -128 45t-51 125q0 143 194 251q-31 77 -31 120q0 65 40 105t96 40q49 0 80 -25.5t31 -66.5q0 -45 -37 -81.5t-103 -75.5
q25 -62 74 -149q25 -46 48 -84l20 34q64 107 95 144l-60 51l1 6h196zM305 240q-46 83 -73 144q-57 -48 -89 -98t-32 -119q0 -62 30.5 -99.5t79.5 -37.5q43 0 78 20t75 72q-30 42 -69 118zM262 560q0 -47 28 -116q86 67 86 132q0 31 -14 48.5t-37 17.5q-25 0 -44 -21t-19 -61
z" />
    <glyph glyph-name="at.uc" horiz-adv-x="794" 
d="M515 149q36 7 73.5 28t74 57t59.5 95t23 130q0 101 -57.5 159t-169.5 58q-176 0 -294.5 -133.5t-118.5 -329.5q0 -123 67.5 -197t175.5 -74q161 0 293 94l7 -9q-44 -46 -125.5 -84t-177.5 -38q-137 0 -219 80t-82 213q0 104 40 199.5t105.5 163.5t153 108.5t180.5 40.5
q128 0 205 -66t77 -178q0 -82 -34.5 -151.5t-89 -113t-118.5 -66t-125 -19.5l30 141q-91 -138 -156 -138q-22 0 -41.5 26t-19.5 69q0 96 72 186t198 105l76 34zM342 173q41 0 137 137l35 165q-76 -6 -132.5 -85t-56.5 -174q0 -43 17 -43z" />
    <glyph glyph-name="backslash.uc" horiz-adv-x="307" 
d="M133 751l106 -842l-32 -5l-106 842z" />
    <glyph glyph-name="bar.uc" horiz-adv-x="256" 
d="M110 744h36v-847h-36v847z" />
    <glyph glyph-name="braceleft.uc" horiz-adv-x="277" 
d="M198 237q0 -35 -24.5 -74.5t-49 -78t-24.5 -71.5q0 -71 80 -113l-3 -7q-131 48 -131 132q0 30 27.5 70t55 82t27.5 77q0 68 -86 68l3 18q118 0 118 73q0 24 -30 96t-30 98q0 108 186 152l3 -7q-133 -43 -133 -138q0 -27 24 -92.5t24 -90.5q0 -45 -31.5 -71.5t-74.5 -30.5
q24 -4 46.5 -30t22.5 -62z" />
    <glyph glyph-name="braceright.uc" horiz-adv-x="277" 
d="M124 415q0 35 24.5 74.5t49 78t24.5 71.5q0 71 -80 113l3 7q131 -48 131 -132q0 -30 -27.5 -70t-55 -82t-27.5 -77q0 -68 86 -68l-3 -18q-118 0 -118 -73q0 -24 30 -96t30 -98q0 -108 -186 -152l-3 7q133 43 133 138q0 27 -24 92.5t-24 90.5q0 45 31.5 71.5t74.5 30.5
q-24 4 -46.5 30t-22.5 62z" />
    <glyph glyph-name="bracketleft.uc" horiz-adv-x="256" 
d="M310 727h-78l-136 -800h78l-3 -22h-134l142 844h134z" />
    <glyph glyph-name="bracketright.uc" horiz-adv-x="256" 
d="M-15 -73h78l136 800h-78l3 22h134l-142 -844h-134z" />
    <glyph glyph-name="cacute.pl" horiz-adv-x="331" 
d="M247 420q54 0 93 -17l-27 -71h-4q-38 56 -73 56q-48 0 -93 -77t-45 -173q0 -49 12.5 -74t32.5 -25q32 0 70 29.5t60 58.5l8 -5q-25 -53 -68 -92.5t-93 -39.5q-41 0 -69 37t-28 98q0 117 70 206t154 89zM230 489l-9 3l62 226l62 -25z" />
    <glyph glyph-name="space_uni0326.alt" 
d="M205 548q0 45 33.5 88.5t81.5 75.5l8 -5q-64 -80 -83 -132q16 2 29.5 -7.5t13.5 -26.5q0 -18 -11 -29.5t-28 -11.5q-20 0 -32 13t-12 35z" />
    <glyph glyph-name="divide.lin" horiz-adv-x="426" 
d="M74 280l7 33h323l-7 -33h-323zM168 144q0 17 12.5 29.5t29.5 12.5q18 0 30.5 -12.5t12.5 -29.5q0 -18 -12.5 -30.5t-30.5 -12.5q-17 0 -29.5 12.5t-12.5 30.5zM226 443q0 17 12.5 29t29.5 12q18 0 30.5 -12t12.5 -29q0 -18 -12.5 -30.5t-30.5 -12.5q-17 0 -29.5 12.5
t-12.5 30.5z" />
    <glyph glyph-name="eight.den" horiz-adv-x="223" 
d="M124 293q37 0 57.5 -16t20.5 -39q0 -42 -73 -76q19 -22 28 -34t16 -27t7 -30q0 -33 -27.5 -55t-72.5 -22q-41 0 -63.5 17.5t-22.5 44.5q0 47 82 84q-44 45 -44 83q0 32 26 51t66 19zM132 56q0 28 -46 74q-46 -32 -46 -71q0 -17 11 -29t32 -12q23 0 36 10.5t13 27.5z
M79 239q0 -10 5 -20t12 -19t24 -28q37 33 37 63q0 36 -37 36q-18 0 -29.5 -8.5t-11.5 -23.5z" />
    <glyph glyph-name="eight.lin" horiz-adv-x="426" 
d="M272 671q72 0 113.5 -35.5t41.5 -88.5q0 -52 -36.5 -95t-109.5 -87q71 -90 88 -126q20 -40 20 -78q0 -77 -54.5 -124.5t-131.5 -47.5t-124.5 41.5t-47.5 101.5t41 108.5t128 98.5q-51 62 -71 98.5t-20 84.5q0 67 50.5 108t112.5 41zM216 320l-1 1q-115 -86 -115 -185
q0 -49 27.5 -81.5t74.5 -32.5q51 0 83 34t32 81q0 12 -2 23.5t-4 20.5t-9 22t-11 19.5t-15.5 22t-16.5 21.5t-21 26t-22 28zM179 546q0 -15 3.5 -29t7.5 -24t14.5 -26t16.5 -24.5t22.5 -29.5t24.5 -31q94 74 94 163q0 38 -23 66t-65 28q-39 0 -67 -25.5t-28 -67.5z" />
    <glyph glyph-name="eight.num" horiz-adv-x="223" 
d="M184 668q37 0 57.5 -16t20.5 -39q0 -42 -73 -76q19 -22 28 -34t16 -27t7 -30q0 -33 -27.5 -55t-72.5 -22q-41 0 -63.5 17.5t-22.5 44.5q0 47 82 84q-44 45 -44 83q0 32 26 51t66 19zM192 431q0 28 -46 74q-46 -32 -46 -71q0 -17 11 -29t32 -12q23 0 36 10.5t13 27.5z
M139 614q0 -10 5 -20t12 -19t24 -28q37 33 37 63q0 36 -37 36q-18 0 -29.5 -8.5t-11.5 -23.5z" />
    <glyph glyph-name="eight.sub" horiz-adv-x="223" 
d="M105 188q37 0 57.5 -16t20.5 -39q0 -42 -73 -76q19 -22 28 -34t16 -27t7 -30q0 -33 -27.5 -55t-72.5 -22q-41 0 -63.5 17.5t-22.5 44.5q0 47 82 84q-44 45 -44 83q0 32 26 51t66 19zM113 -49q0 28 -46 74q-46 -32 -46 -71q0 -17 11 -29t32 -12q23 0 36 10.5t13 27.5z
M60 134q0 -10 5 -20t12 -19t24 -28q37 33 37 63q0 36 -37 36q-18 0 -29.5 -8.5t-11.5 -23.5z" />
    <glyph glyph-name="eight.sup" horiz-adv-x="223" 
d="M194 721q37 0 57.5 -16t20.5 -39q0 -42 -73 -76q19 -22 28 -34t16 -27t7 -30q0 -33 -27.5 -55t-72.5 -22q-41 0 -63.5 17.5t-22.5 44.5q0 47 82 84q-44 45 -44 83q0 32 26 51t66 19zM202 484q0 28 -46 74q-46 -32 -46 -71q0 -17 11 -29t32 -12q23 0 36 10.5t13 27.5z
M149 667q0 -10 5 -20t12 -19t24 -28q37 33 37 63q0 36 -37 36q-18 0 -29.5 -8.5t-11.5 -23.5z" />
    <glyph glyph-name="emdash.uc" horiz-adv-x="657" 
d="M76 291l7 33h555l-7 -33h-555z" />
    <glyph glyph-name="endash.uc" horiz-adv-x="417" 
d="M83 324h315l-7 -33h-315z" />
    <glyph glyph-name="equal.lin" horiz-adv-x="430" 
d="M68 232l6 31h307l-6 -31h-307zM85 320l6 31h307l-6 -31h-307z" />
    <glyph glyph-name="exclamdown.uc" horiz-adv-x="211" 
d="M141 451h11l-50 -451h-83zM185 574q-20 0 -34 13.5t-14 34.5q0 20 14 34t34 14q21 0 34.5 -14t13.5 -34q0 -21 -13.5 -34.5t-34.5 -13.5z" />
    <glyph glyph-name="f.short" horiz-adv-x="259" 
d="M56 54q9 56 47 316h-76v5l25 32h57q4 18 9.5 53.5t8.5 52.5q16 86 66 145t126 59q46 0 95 -18l-31 -56q-54 40 -83 40q-34 0 -59.5 -38.5t-37.5 -101.5q-10 -49 -24 -136h120l-30 -37h-95q-57 -350 -58 -358q-8 -43 -15.5 -71.5t-26 -71.5t-42 -69.5t-64.5 -47.5t-93 -22
l-12 55q37 -4 64 -4q37 0 57 20.5t35.5 75.5t36.5 177z" />
    <glyph glyph-name="f_f.short" horiz-adv-x="469" 
d="M413 543q-11 -56 -24 -136h120l-30 -37h-96q-12 -68 -30 -184t-23 -148q-7 -39 -14.5 -70.5t-26 -73t-42.5 -69t-65 -48.5t-93 -22l-11 55q31 -4 62 -4q35 0 56 20t39.5 79.5t35.5 174.5q29 204 42 290h-139q-8 -48 -27.5 -179.5t-28.5 -178.5q-7 -40 -14.5 -71
t-26 -72.5t-43 -69t-65.5 -48t-93 -21.5l-12 55q37 -4 64 -4q36 0 56.5 20t37 76.5t35.5 176.5q1 4 47 316h-76v5l25 32h57l15 91q13 83 69 143.5t144 60.5q53 0 96 -15q43 30 95 30q46 0 95 -18l-31 -56q-54 40 -83 40q-34 0 -59.5 -38.5t-37.5 -101.5zM201 528
q-9 -43 -21 -121h139q7 51 18 106q13 82 58 136q-35 20 -77 20q-88 0 -117 -141z" />
    <glyph glyph-name="five.den" horiz-adv-x="191" 
d="M182 287l-24 -46h-90l-15 -35q45 -12 72.5 -36t27.5 -53q0 -41 -43 -75t-125 -51l-3 8q55 24 84.5 51t29.5 49q0 41 -80 61l51 127h115z" />
    <glyph glyph-name="five.num" horiz-adv-x="191" 
d="M242 662l-24 -46h-90l-15 -35q45 -12 72.5 -36t27.5 -53q0 -41 -43 -75t-125 -51l-3 8q55 24 84.5 51t29.5 49q0 41 -80 61l51 127h115z" />
    <glyph glyph-name="five.lin" horiz-adv-x="369" 
d="M383 662l-38 -66h-163l-39 -98q80 -32 137 -89.5t57 -128.5q0 -93 -86 -168.5t-244 -131.5l-5 10q130 77 192.5 143t62.5 131q0 57 -49.5 103t-117.5 72q3 5 44.5 112.5t41.5 110.5h207z" />
    <glyph glyph-name="five.sub" horiz-adv-x="191" 
d="M163 182l-24 -46h-90l-15 -35q45 -12 72.5 -36t27.5 -53q0 -41 -43 -75t-125 -51l-3 8q55 24 84.5 51t29.5 49q0 41 -80 61l51 127h115z" />
    <glyph glyph-name="five.sup" horiz-adv-x="191" 
d="M252 715l-24 -46h-90l-15 -35q45 -12 72.5 -36t27.5 -53q0 -41 -43 -75t-125 -51l-3 8q55 24 84.5 51t29.5 49q0 41 -80 61l51 127h115z" />
    <glyph glyph-name="four.den" horiz-adv-x="239" 
d="M175 3l-1 -3h-111l1 3l34 24l9 48h-118l1 7l173 206h38l-35 -178h50l-23 -35h-34l-9 -48zM113 110l22 112l-95 -112h73z" />
    <glyph glyph-name="four.lin" horiz-adv-x="460" 
d="M373 6l-1 -6h-206l1 6l72 44l24 147h-247l1 7l393 467h10l-71 -419h108l-39 -55h-78l-24 -147zM272 252l42 252l-213 -252h171z" />
    <glyph glyph-name="four.num" horiz-adv-x="239" 
d="M235 378l-1 -3h-111l1 3l34 24l9 48h-118l1 7l173 206h38l-35 -178h50l-23 -35h-34l-9 -48zM173 485l22 112l-95 -112h73z" />
    <glyph glyph-name="four.sub" horiz-adv-x="239" 
d="M156 -102l-1 -3h-111l1 3l34 24l9 48h-118l1 7l173 206h38l-35 -178h50l-23 -35h-34l-9 -48zM94 5l22 112l-95 -112h73z" />
    <glyph glyph-name="four.sup" horiz-adv-x="239" 
d="M245 431l-1 -3h-111l1 3l34 24l9 48h-118l1 7l173 206h38l-35 -178h50l-23 -35h-34l-9 -48zM183 538l22 112l-95 -112h73z" />
    <glyph glyph-name="greater.lin" horiz-adv-x="394" 
d="M379 314l-7 -33l-317 -129l7 36l275 111l-234 110l7 32z" />
    <glyph glyph-name="guillemotleft.uc" horiz-adv-x="360" 
d="M283 131l-99 161l159 152l7 -6l-105 -153l46 -151zM150 131l-99 161l159 152l7 -6l-105 -153l46 -151z" />
    <glyph glyph-name="guillemotright.uc" horiz-adv-x="360" 
d="M104 444l99 -161l-159 -152l-7 6l105 153l-46 151zM237 444l99 -161l-159 -152l-7 6l105 153l-46 151z" />
    <glyph glyph-name="guilsinglleft.uc" horiz-adv-x="227" 
d="M52 292l158 152l7 -6l-101 -153l42 -151l-8 -3z" />
    <glyph glyph-name="guilsinglright.uc" horiz-adv-x="227" 
d="M202 283l-158 -152l-7 6l101 153l-42 151l8 3z" />
    <glyph glyph-name="hyphen.uc" horiz-adv-x="253" 
d="M87 334h150l-11 -59h-152z" />
    <glyph glyph-name="idotaccent" horiz-adv-x="219" 
d="M101 348l-56 26v7q67 25 139 42l-69 -370l60 -29v-5q-53 -17 -142 -27zM173 627q17 0 29.5 -12.5t12.5 -29.5t-12.5 -29.5t-29.5 -12.5t-29.5 12.5t-12.5 29.5t12.5 29.5t29.5 12.5z" />
    <glyph glyph-name="less.lin" horiz-adv-x="394" 
d="M67 279l7 33l317 129l-7 -36l-275 -111l234 -110l-7 -32z" />
    <glyph glyph-name="minus.lin" horiz-adv-x="410" 
d="M72 280l6 33h308l-6 -33h-308z" />
    <glyph glyph-name="multiply.lin" horiz-adv-x="363" 
d="M181 297l-87 129l29 21l83 -126l133 126l22 -24l-137 -129l88 -132l-28 -19l-85 127l-134 -127l-22 23z" />
    <glyph glyph-name="nacute.pl" horiz-adv-x="445" 
d="M29 0l71 348l-54 26v7q57 24 142 42l-35 -163q57 72 113.5 116t98.5 44q43 0 43 -34q0 -17 -71 -333l58 -27v-7q-47 -16 -142 -27q77 346 77 353q0 10 -13 10q-21 0 -68 -36.5t-105 -99.5l-46 -219h-69zM263 489l-9 3l62 226l62 -25z" />
    <glyph glyph-name="nine.den" horiz-adv-x="244" 
d="M14 -2q147 81 147 208q0 29 -10 47t-24 18q-18 0 -36 -20.5t-18 -51.5q0 -20 12 -32.5t33 -12.5q7 0 15 2l3 -4q-18 -29 -56 -29q-27 0 -44 19.5t-17 50.5q0 41 33 70.5t76 29.5q39 0 63.5 -27t24.5 -72q0 -77 -59 -129.5t-139 -73.5z" />
    <glyph glyph-name="nine.num" horiz-adv-x="244" 
d="M74 373q147 81 147 208q0 29 -10 47t-24 18q-18 0 -36 -20.5t-18 -51.5q0 -20 12 -32.5t33 -12.5q7 0 15 2l3 -4q-18 -29 -56 -29q-27 0 -44 19.5t-17 50.5q0 41 33 70.5t76 29.5q39 0 63.5 -27t24.5 -72q0 -77 -59 -129.5t-139 -73.5z" />
    <glyph glyph-name="nine.lin" horiz-adv-x="471" 
d="M44 1q61 29 115.5 70t104.5 98t80 133.5t30 162.5q0 82 -26 130t-66 48q-44 0 -82.5 -52t-38.5 -124q0 -58 29 -93t77 -35q28 0 52 9l2 -5q-44 -44 -110 -44q-61 0 -97 45.5t-36 113.5q0 87 63 151.5t140 64.5q76 0 127 -61t51 -155q0 -76 -27 -146t-70 -121.5t-98.5 -93
t-110 -66.5t-106.5 -38z" />
    <glyph glyph-name="nine.sub" horiz-adv-x="244" 
d="M-5 -107q147 81 147 208q0 29 -10 47t-24 18q-18 0 -36 -20.5t-18 -51.5q0 -20 12 -32.5t33 -12.5q7 0 15 2l3 -4q-18 -29 -56 -29q-27 0 -44 19.5t-17 50.5q0 41 33 70.5t76 29.5q39 0 63.5 -27t24.5 -72q0 -77 -59 -129.5t-139 -73.5z" />
    <glyph glyph-name="nine.sup" horiz-adv-x="244" 
d="M84 426q147 81 147 208q0 29 -10 47t-24 18q-18 0 -36 -20.5t-18 -51.5q0 -20 12 -32.5t33 -12.5q7 0 15 2l3 -4q-18 -29 -56 -29q-27 0 -44 19.5t-17 50.5q0 41 33 70.5t76 29.5q39 0 63.5 -27t24.5 -72q0 -77 -59 -129.5t-139 -73.5z" />
    <glyph glyph-name="oacute.pl" horiz-adv-x="398" 
d="M163 -10q-61 0 -100.5 45.5t-39.5 114.5q0 105 66 187.5t150 82.5q58 0 97.5 -45t39.5 -111q0 -116 -67 -195t-146 -79zM167 19q48 0 90 74t42 177q0 58 -16.5 89.5t-45.5 31.5q-50 0 -93 -78.5t-43 -170.5q0 -123 66 -123zM219 489l-9 3l62 226l62 -25z" />
    <glyph glyph-name="one.den" horiz-adv-x="154" 
d="M-18 0v4l37 23l42 212l-31 16v4l94 35l-52 -267l26 -23v-4h-116z" />
    <glyph glyph-name="one.num" horiz-adv-x="154" 
d="M42 375v4l37 23l42 212l-31 16v4l94 35l-52 -267l26 -23v-4h-116z" />
    <glyph glyph-name="one.lin" horiz-adv-x="279" 
d="M-3 0l1 6l76 44l89 536l-67 23l1 6q78 32 160 58l-103 -623l61 -44l-1 -6h-217z" />
    <glyph glyph-name="one.sub" horiz-adv-x="154" 
d="M-37 -105v4l37 23l42 212l-31 16v4l94 35l-52 -267l26 -23v-4h-116z" />
    <glyph glyph-name="one.sup" horiz-adv-x="154" 
d="M52 428v4l37 23l42 212l-31 16v4l94 35l-52 -267l26 -23v-4h-116z" />
    <glyph glyph-name="two.den" horiz-adv-x="217" 
d="M150 0h-172l1 11q85 85 116.5 128t31.5 74q0 42 -44 42q-25 0 -49 -19l-5 4q27 53 85 53q32 0 50.5 -19t18.5 -50q0 -40 -33 -79t-111 -100h140z" />
    <glyph glyph-name="three.den" horiz-adv-x="189" 
d="M27 151q76 44 76 76q0 31 -35 31q-20 0 -39 -15l-4 4q28 46 75 46q24 0 39 -13.5t15 -34.5q0 -41 -65 -69q31 -2 49.5 -17.5t18.5 -42.5q0 -44 -43 -78t-133 -45l-2 7q119 50 119 105q0 40 -50 40q-9 0 -19 -2z" />
    <glyph glyph-name="parenleft.uc" horiz-adv-x="312" 
d="M367 759l7 -5q-45 -52 -79.5 -101t-70 -116t-55 -147.5t-19.5 -167.5q0 -158 65 -323l-8 -4q-117 172 -117 352q0 83 25.5 163.5t68.5 145.5t88 114t95 89z" />
    <glyph glyph-name="parenright.uc" horiz-adv-x="312" 
d="M-22 -105l-7 5q45 52 79.5 101t70 116t55 147.5t19.5 167.5q0 158 -65 323l8 4q117 -172 117 -352q0 -83 -25.5 -163.5t-68.5 -145.5t-88 -114t-95 -89z" />
    <glyph glyph-name="plus.lin" horiz-adv-x="441" 
d="M78 313h150l32 172h39l-32 -172h150l-6 -33h-150l-32 -175h-39l32 175h-150z" />
    <glyph glyph-name="questiondown.uc" horiz-adv-x="290" 
d="M80 236q8 8 35.5 32t40.5 37q28 27 38 68q1 5 14 78h9q12 -77 12 -110q0 -22 -8 -37.5t-31 -39.5l-68 -69q-53 -58 -53 -105q0 -33 15.5 -51t39.5 -18q11 0 23.5 4.5t21 10t19.5 16t15.5 16t14.5 16.5l9 12h7l-19 -96q-27 -10 -89 -10q-59 0 -93 25.5t-34 75.5
q0 69 81 145zM236 574q-20 0 -34 13.5t-14 34.5q0 20 14 34t34 14q21 0 34.5 -14t13.5 -34q0 -21 -13.5 -34.5t-34.5 -13.5z" />
    <glyph glyph-name="sacute.pl" horiz-adv-x="278" 
d="M174 421q36 0 87 -16l-17 -70h-5q-28 58 -69 58q-16 0 -29 -11.5t-13 -31.5q0 -22 19 -59q11 -21 30.5 -56.5t31.5 -59.5q22 -43 22 -82t-33 -71t-86 -32q-56 0 -104 28q6 62 16 115h6q9 -56 32 -83.5t52 -27.5q27 0 40.5 15t13.5 35q0 26 -22 69q-10 20 -60 112
q-19 35 -19 71q0 40 29.5 68.5t77.5 28.5zM192 489l-9 3l62 226l62 -25z" />
    <glyph glyph-name="seven.den" horiz-adv-x="209" 
d="M46 287h164v-4l-160 -282h-32l137 240h-135z" />
    <glyph glyph-name="seven.num" horiz-adv-x="209" 
d="M106 662h164v-4l-160 -282h-32l137 240h-135z" />
    <glyph glyph-name="seven.lin" horiz-adv-x="415" 
d="M115 662h338l-1 -5l-334 -657h-45l303 597h-297z" />
    <glyph glyph-name="seven.sub" horiz-adv-x="209" 
d="M27 182h164v-4l-160 -282h-32l137 240h-135z" />
    <glyph glyph-name="seven.sup" horiz-adv-x="209" 
d="M116 715h164v-4l-160 -282h-32l137 240h-135z" />
    <glyph glyph-name="six.den" horiz-adv-x="241" 
d="M219 289q-70 -35 -114 -89.5t-44 -122.5q0 -26 10.5 -43t23.5 -17q20 0 37.5 21.5t17.5 52.5q0 45 -42 45q-9 0 -18 -3l-2 4q27 27 58 27q26 0 42 -17.5t16 -48.5q0 -44 -34.5 -74t-75.5 -30q-36 0 -62 26.5t-26 68.5q0 77 64.5 133.5t145.5 72.5z" />
    <glyph glyph-name="six.num" horiz-adv-x="241" 
d="M279 664q-70 -35 -114 -89.5t-44 -122.5q0 -26 10.5 -43t23.5 -17q20 0 37.5 21.5t17.5 52.5q0 45 -42 45q-9 0 -18 -3l-2 4q27 27 58 27q26 0 42 -17.5t16 -48.5q0 -44 -34.5 -74t-75.5 -30q-36 0 -62 26.5t-26 68.5q0 77 64.5 133.5t145.5 72.5z" />
    <glyph glyph-name="six.lin" horiz-adv-x="472" 
d="M491 666q-67 -28 -127 -71t-111.5 -101.5t-81.5 -136.5t-30 -165q0 -76 23.5 -122t56.5 -46q47 0 90 57t43 130q0 58 -27.5 87.5t-72.5 29.5q-32 0 -58 -11l-2 5q46 46 117 46q57 0 91.5 -38.5t34.5 -105.5q0 -94 -68 -162.5t-147 -68.5q-72 0 -119 59t-47 147
q0 95 41.5 180t107 143.5t138.5 97t145 54.5z" />
    <glyph glyph-name="six.sub" horiz-adv-x="241" 
d="M200 184q-70 -35 -114 -89.5t-44 -122.5q0 -26 10.5 -43t23.5 -17q20 0 37.5 21.5t17.5 52.5q0 45 -42 45q-9 0 -18 -3l-2 4q27 27 58 27q26 0 42 -17.5t16 -48.5q0 -44 -34.5 -74t-75.5 -30q-36 0 -62 26.5t-26 68.5q0 77 64.5 133.5t145.5 72.5z" />
    <glyph glyph-name="six.sup" horiz-adv-x="241" 
d="M289 717q-70 -35 -114 -89.5t-44 -122.5q0 -26 10.5 -43t23.5 -17q20 0 37.5 21.5t17.5 52.5q0 45 -42 45q-9 0 -18 -3l-2 4q27 27 58 27q26 0 42 -17.5t16 -48.5q0 -44 -34.5 -74t-75.5 -30q-36 0 -62 26.5t-26 68.5q0 77 64.5 133.5t145.5 72.5z" />
    <glyph glyph-name="slash.uc" horiz-adv-x="350" 
d="M421 738l-424 -841l-30 14l424 842z" />
    <glyph glyph-name="three.lin" horiz-adv-x="369" 
d="M107 360q78 54 116 97t38 92q0 33 -18.5 52.5t-51.5 19.5q-49 0 -92 -36l-6 4q16 31 50.5 57t85.5 26t81 -28t30 -79q0 -88 -141 -161q60 0 101.5 -36.5t41.5 -99.5q0 -54 -31.5 -102.5t-83.5 -83t-111 -58.5t-124 -39l-3 10q268 122 268 266q0 47 -28 71t-75 24
q-27 0 -43 -4z" />
    <glyph glyph-name="three.num" horiz-adv-x="189" 
d="M87 526q76 44 76 76q0 31 -35 31q-20 0 -39 -15l-4 4q28 46 75 46q24 0 39 -13.5t15 -34.5q0 -41 -65 -69q31 -2 49.5 -17.5t18.5 -42.5q0 -44 -43 -78t-133 -45l-2 7q119 50 119 105q0 40 -50 40q-9 0 -19 -2z" />
    <glyph glyph-name="three.sub" horiz-adv-x="189" 
d="M8 46q76 44 76 76q0 31 -35 31q-20 0 -39 -15l-4 4q28 46 75 46q24 0 39 -13.5t15 -34.5q0 -41 -65 -69q31 -2 49.5 -17.5t18.5 -42.5q0 -44 -43 -78t-133 -45l-2 7q119 50 119 105q0 40 -50 40q-9 0 -19 -2z" />
    <glyph glyph-name="three.sup" horiz-adv-x="189" 
d="M97 579q76 44 76 76q0 31 -35 31q-20 0 -39 -15l-4 4q28 46 75 46q24 0 39 -13.5t15 -34.5q0 -41 -65 -69q31 -2 49.5 -17.5t18.5 -42.5q0 -44 -43 -78t-133 -45l-2 7q119 50 119 105q0 40 -50 40q-9 0 -19 -2z" />
    <glyph glyph-name="two.lin" horiz-adv-x="418" 
d="M377 157h6l-27 -157h-370l1 8q139 161 209.5 256t93 147t22.5 103q0 48 -25.5 75t-67.5 27q-55 0 -111 -47l-5 4q53 99 157 99q63 0 101.5 -40t38.5 -106q0 -44 -15 -84.5t-53.5 -91t-84.5 -100t-126 -132.5q-29 -29 -44 -45h239z" />
    <glyph glyph-name="two.num" horiz-adv-x="217" 
d="M210 375h-172l1 11q85 85 116.5 128t31.5 74q0 42 -44 42q-25 0 -49 -19l-5 4q27 53 85 53q32 0 50.5 -19t18.5 -50q0 -40 -33 -79t-111 -100h140z" />
    <glyph glyph-name="two.sub" horiz-adv-x="217" 
d="M131 -105h-172l1 11q85 85 116.5 128t31.5 74q0 42 -44 42q-25 0 -49 -19l-5 4q27 53 85 53q32 0 50.5 -19t18.5 -50q0 -40 -33 -79t-111 -100h140z" />
    <glyph glyph-name="two.sup" horiz-adv-x="217" 
d="M220 428h-172l1 11q85 85 116.5 128t31.5 74q0 42 -44 42q-25 0 -49 -19l-5 4q27 53 85 53q32 0 50.5 -19t18.5 -50q0 -40 -33 -79t-111 -100h140z" />
    <glyph glyph-name="zacute.pl" horiz-adv-x="352" 
d="M-15 6l289 351h-70q-84 0 -147 -10l-3 4l56 65l253 -8l-1 -5l-290 -346h56q110 0 180 19l3 -4l-58 -76l-269 4zM218 489l-9 3l62 226l62 -25z" />
    <glyph glyph-name="zero.den" horiz-adv-x="278" 
d="M10 110q0 73 46 128t101 55q42 0 66.5 -32t24.5 -84q0 -72 -45 -127.5t-100 -55.5q-42 0 -67.5 32.5t-25.5 83.5zM156 269q-29 0 -59 -51t-30 -113q0 -40 10.5 -63t26.5 -23q31 0 59.5 52.5t28.5 117.5q0 36 -10 58t-26 22z" />
    <glyph glyph-name="zero.num" horiz-adv-x="278" 
d="M70 485q0 73 46 128t101 55q42 0 66.5 -32t24.5 -84q0 -72 -45 -127.5t-100 -55.5q-42 0 -67.5 32.5t-25.5 83.5zM216 644q-29 0 -59 -51t-30 -113q0 -40 10.5 -63t26.5 -23q31 0 59.5 52.5t28.5 117.5q0 36 -10 58t-26 22z" />
    <glyph glyph-name="zero.lin" horiz-adv-x="544" 
d="M61 240q0 167 91 300t195 133q80 0 129.5 -72.5t49.5 -177.5q0 -112 -42 -213.5t-107.5 -160.5t-133.5 -59q-80 0 -131 73t-51 177zM347 639q-47 0 -93.5 -57.5t-76.5 -151.5t-30 -192q0 -101 25.5 -157.5t70.5 -56.5q46 0 92 55.5t76.5 150t30.5 196.5q0 99 -26 156
t-69 57z" />
    <glyph glyph-name="zero.sub" horiz-adv-x="278" 
d="M-9 5q0 73 46 128t101 55q42 0 66.5 -32t24.5 -84q0 -72 -45 -127.5t-100 -55.5q-42 0 -67.5 32.5t-25.5 83.5zM137 164q-29 0 -59 -51t-30 -113q0 -40 10.5 -63t26.5 -23q31 0 59.5 52.5t28.5 117.5q0 36 -10 58t-26 22z" />
    <glyph glyph-name="zero.sup" horiz-adv-x="278" 
d="M80 538q0 73 46 128t101 55q42 0 66.5 -32t24.5 -84q0 -72 -45 -127.5t-100 -55.5q-42 0 -67.5 32.5t-25.5 83.5zM226 697q-29 0 -59 -51t-30 -113q0 -40 10.5 -63t26.5 -23q31 0 59.5 52.5t28.5 117.5q0 36 -10 58t-26 22z" />
    </font>
</defs>
</svg>
