<?xml version="1.0" standalone="no"?>
<!DOCTYPE svg PUBLIC "-//W3C//DTD SVG 1.1//EN" "http://www.w3.org/Graphics/SVG/1.1/DTD/svg11.dtd" >
<svg xmlns="http://www.w3.org/2000/svg" xmlns:xlink="http://www.w3.org/1999/xlink" version="1.1">
<metadata>
Created by FontForge 20170731 at Fri Jan  3 06:39:49 2014
 By Aleksey,,,
Copyright (c)2013 Commercial Type.
</metadata>
<defs>
<font id="Portrait-Light" horiz-adv-x="400" >
  <font-face 
    font-family="Portrait Light"
    font-weight="300"
    font-stretch="normal"
    units-per-em="1000"
    panose-1="0 0 0 0 0 0 0 0 0 0"
    ascent="730"
    descent="-270"
    x-height="406"
    cap-height="662"
    bbox="-69 -296 1272 985"
    underline-thickness="34"
    underline-position="20"
    unicode-range="U+000D-FB04"
  />
<missing-glyph horiz-adv-x="222" 
 />
    <glyph glyph-name="f_b" unicode="fb" horiz-adv-x="732" 
d="M233 6v-6h-215v6l61 42v314h-62v7l62 35v49q0 114 68 188t173 74q39 0 85 -8v-358q16 23 52.5 45t74.5 22q84 0 127.5 -56t43.5 -138q0 -38 -12.5 -77t-37.5 -75t-69.5 -58.5t-101.5 -22.5q-37 0 -84.5 5.5t-61.5 5.5v664q-34 15 -58 15q-50 0 -90.5 -48t-40.5 -140v-88
h141l-36 -41h-105v-309zM512 368q-62 0 -104 -42v-289q38 -18 77 -18q68 0 109 52t41 132t-35 122.5t-88 42.5z" />
    <glyph glyph-name="f_f_b" unicode="ffb" horiz-adv-x="990" 
d="M232 6v-6h-214v6l61 42v314h-62v7l62 35v40q0 111 62.5 187t159.5 76q30 0 70 -7l-25 -56q-52 28 -84 28q-39 0 -77 -48.5t-38 -135.5v-85h190v50q0 114 68 188t173 74q39 0 85 -8v-358q16 23 52.5 45t74.5 22q84 0 127.5 -56t43.5 -138q0 -38 -12.5 -77t-37.5 -75
t-69.5 -58.5t-101.5 -22.5q-37 0 -84.5 5.5t-61.5 5.5v664q-27 15 -58 15q-50 0 -90.5 -48t-40.5 -140v-88h142l-37 -41h-105v-309l86 -47v-6h-215v6l61 42v314h-190v-310zM770 368q-65 0 -103 -42v-289q34 -18 76 -18q68 0 109 52t41 132t-35 122.5t-88 42.5z" />
    <glyph glyph-name="f_f_h" unicode="ffh" horiz-adv-x="1013" 
d="M232 6v-6h-214v6l61 42v314h-62v7l62 35v40q0 111 62.5 187t159.5 76q30 0 70 -7l-25 -56q-52 28 -84 28q-39 0 -77 -48.5t-38 -135.5v-85h190v50q0 114 68 188t173 74q39 0 85 -8v-359q25 25 65.5 46.5t83.5 21.5q49 0 86 -31t37 -74v-263l61 -42v-6h-190v6l60 42v240
q0 36 -24.5 59.5t-69.5 23.5q-52 0 -109 -51v-272l61 -42v-6h-189v6l60 42v615q-22 16 -59 16q-50 0 -90.5 -48t-40.5 -140v-88h142l-37 -41h-105v-309l86 -47v-6h-215v6l61 42v314h-190v-310z" />
    <glyph glyph-name="f_f_j" unicode="ffj" horiz-adv-x="725" 
d="M232 6v-6h-214v6l61 42v314h-62v7l62 35v40q0 111 62.5 187t159.5 76q30 0 70 -7l-25 -56q-52 28 -84 28q-39 0 -77 -48.5t-38 -135.5v-85h190v49q0 111 67 187t165 76q41 0 83 -13l-27 -60q-58 38 -96 38q-43 0 -83.5 -49.5t-40.5 -138.5v-89h195l55 17v-364
q0 -166 -129 -308l-10 5q71 147 71 305v304h-182v-310l86 -46v-6h-215v6l61 42v314h-190v-310z" />
    <glyph glyph-name="f_f_k" unicode="ffk" horiz-adv-x="974" 
d="M232 6v-6h-214v6l61 42v314h-62v7l62 35v40q0 111 62.5 187t159.5 76q30 0 70 -7l-25 -56q-52 28 -84 28q-39 0 -77 -48.5t-38 -135.5v-85h190v50q0 114 68 188t173 74q39 0 85 -8v-659l61 -42v-6h-189v6l60 42v615q-22 16 -59 16q-50 0 -90.5 -48t-40.5 -140v-88h142
l-37 -41h-105v-309l86 -47v-6h-215v6l61 42v314h-190v-310zM674 232v6l137 118l-52 45v5h185v-5l-85 -39l-123 -106l99 -127q78 -100 138 -123v-6q-8 -8 -49 -8q-39 0 -65.5 19t-68.5 74z" />
    <glyph glyph-name="f_h" unicode="fh" horiz-adv-x="755" 
d="M277 0v6l60 42v615q-26 16 -59 16q-50 0 -90.5 -48t-40.5 -140v-88h141l-36 -41h-105v-309l86 -47v-6h-215v6l61 42v314h-62v7l62 35v49q0 114 68 188t173 74q39 0 85 -8v-359q25 25 65 46.5t83 21.5q49 0 86.5 -31t37.5 -74v-263l61 -42v-6h-190v6l60 42v240
q0 36 -24.5 59.5t-69.5 23.5q-52 0 -109 -51v-272l61 -42v-6h-189z" />
    <glyph glyph-name="f_j" unicode="fj" horiz-adv-x="467" 
d="M271 680q-43 0 -83.5 -49.5t-40.5 -138.5v-89h195l55 17v-364q0 -166 -129 -308l-10 5q70 144 70 305v306l-2 -2h-179v-310l86 -46v-6h-215v6l61 42v314h-62v7l62 35v48q0 111 67 187t165 76q41 0 83 -13l-27 -60q-56 38 -96 38z" />
    <glyph glyph-name="f_k" unicode="fk" horiz-adv-x="716" 
d="M233 6v-6h-215v6l61 42v314h-62v7l62 35v49q0 114 68 188t173 74q39 0 85 -8v-659l61 -42v-6h-189v6l60 42v615q-26 16 -59 16q-50 0 -90.5 -48t-40.5 -140v-88h141l-36 -41h-105v-309zM416 232v6l137 118l-52 45v5h185v-5l-85 -39l-123 -106l99 -127q78 -100 138 -123
v-6q-8 -8 -50 -8q-39 0 -64.5 18.5t-68.5 74.5z" />
    <glyph glyph-name="g_g" unicode="gg" horiz-adv-x="833" 
d="M449 268q0 61 49.5 104t113.5 43q32 0 61 -9h152v-33h-103q53 -39 53 -100q0 -62 -49 -104t-114 -42q-30 0 -52 7q-44 -32 -44 -55q0 -39 47 -39h169q28 0 61 -30t33 -81q0 -78 -74.5 -144t-164.5 -66q-71 0 -113.5 30.5t-42.5 78.5q0 72 92 150q-28 9 -46.5 30t-18.5 51
q0 27 10 37l68 46q-39 18 -63 51t-24 75zM34 268q0 61 49 104t113 43q32 0 61 -9h153v-33h-104q54 -39 54 -100t-49.5 -103.5t-114.5 -42.5q-30 0 -52 7q-43 -31 -43 -55q0 -39 47 -39h163q28 0 60.5 -30t32.5 -81q0 -78 -74.5 -144t-164.5 -66q-70 0 -113 30.5t-43 78.5
q0 72 94 151q-60 22 -60 80q0 29 10 37l68 46q-40 18 -63.5 50.5t-23.5 75.5zM546 -27q-21 -21 -38 -54.5t-17 -66.5q0 -42 36.5 -67.5t94.5 -25.5q60 0 106.5 39t46.5 90q0 85 -101 85h-119h-9zM140 -27q-2 0 -7 0.5t-8 0.5q-21 -21 -38.5 -54.5t-17.5 -67.5
q0 -41 36.5 -67t94.5 -26q60 0 106.5 39t46.5 90q0 85 -100 85h-113zM523 271q0 -50 25.5 -85t64.5 -35q38 0 63 35t25 85t-25 85t-63 35q-40 0 -65 -34.5t-25 -85.5zM107 271q0 -50 25.5 -85t64.5 -35q38 0 63 35t25 85t-25 85t-63 35q-40 0 -65 -34.5t-25 -85.5z" />
    <glyph glyph-name="f_f" unicode="ff" horiz-adv-x="540" 
d="M232 6v-6h-214v6l61 42v314h-62v7l62 35v40q0 111 62.5 187t159.5 76q30 0 70 -7l-25 -56q-52 28 -84 28q-39 0 -77 -48.5t-38 -135.5v-85h190v49q0 114 67.5 188.5t169.5 74.5q51 0 85 -10l-26 -57q-58 32 -100 32q-46 0 -87 -48.5t-41 -139.5v-89h139l-37 -41h-102
v-309l82 -47v-6h-211v6l61 42v314h-190v-310z" />
    <glyph glyph-name="f_i" unicode="fi" horiz-adv-x="488" 
d="M233 6v-6h-215v6l61 42v314h-62v7l62 35v48q0 114 67.5 188.5t168.5 74.5q45 0 94 -17l-30 -60q-66 42 -110 42q-42 0 -82 -49t-40 -139v-89h202q9 4 28.5 9t27.5 8v-372l61 -42v-6h-189v6l59 42v314h-189v-310z" />
    <glyph glyph-name="f_l" unicode="fl" horiz-adv-x="488" 
d="M337 663q-26 16 -59 16q-50 0 -90.5 -48t-40.5 -140v-88h141l-36 -41h-105v-309l86 -47v-6h-215v6l61 42v314h-62v7l62 35v49q0 114 68 188t173 74q39 0 85 -8v-659l61 -42v-6h-189v6l60 42v615z" />
    <glyph glyph-name="f_f_i" unicode="ffi" horiz-adv-x="746" 
d="M232 6v-6h-214v6l61 42v314h-62v7l62 35v40q0 111 62.5 187t159.5 76q30 0 70 -7l-25 -56q-52 28 -84 28q-39 0 -77 -48.5t-38 -135.5v-85h190v49q0 114 67.5 188.5t168.5 74.5q45 0 94 -17l-29 -60q-64 42 -111 42q-42 0 -82 -49t-40 -139v-89h202q9 4 28.5 9t27.5 8
v-372l61 -42v-6h-189v6l60 42v314h-190v-310l86 -46v-6h-215v6l61 42v314h-190v-310z" />
    <glyph glyph-name="f_f_l" unicode="ffl" horiz-adv-x="746" 
d="M232 6v-6h-214v6l61 42v314h-62v7l62 35v40q0 111 62.5 187t159.5 76q30 0 70 -7l-25 -56q-52 28 -84 28q-39 0 -77 -48.5t-38 -135.5v-85h190v50q0 114 68 188t173 74q39 0 85 -8v-659l61 -42v-6h-189v6l60 42v615q-22 16 -59 16q-50 0 -90.5 -48t-40.5 -140v-88h142
l-37 -41h-105v-309l86 -47v-6h-215v6l61 42v314h-190v-310z" />
    <glyph glyph-name=".notdef" horiz-adv-x="222" 
 />
    <glyph glyph-name=".null" horiz-adv-x="0" 
 />
    <glyph glyph-name="nonmarkingreturn" horiz-adv-x="333" 
 />
    <glyph glyph-name="NULL" horiz-adv-x="0" 
 />
    <glyph glyph-name="NULL" horiz-adv-x="0" 
 />
    <glyph glyph-name="CR" unicode="&#xd;" horiz-adv-x="222" 
 />
    <glyph glyph-name="space" unicode=" " horiz-adv-x="222" 
 />
    <glyph glyph-name="exclam" unicode="!" horiz-adv-x="193" 
d="M135 662q0 1 -2 -31.5t-6 -87t-8.5 -111.5t-9 -120t-7.5 -99h-12l-33 449h78zM51 38q0 20 13 32.5t33 12.5t32.5 -12.5t12.5 -32.5t-12.5 -33t-32.5 -13t-33 13t-13 33z" />
    <glyph glyph-name="quotedbl" unicode="&#x22;" horiz-adv-x="283" 
d="M231 659q0 -17 -27 -200h-7q-27 179 -27 200q0 36 31 36q30 0 30 -36zM112 659q0 -17 -27 -200h-7q-27 179 -27 200q0 36 31 36q30 0 30 -36z" />
    <glyph glyph-name="numbersign" unicode="#" horiz-adv-x="396" 
d="M284 436l-36 -165h96v-24h-101l-54 -247h-26l53 247h-87l-54 -247h-27l53 247h-88v24h93l35 165h-87v24h92l44 202h29l-44 -202h87l44 202h27l-44 -202h96v-24h-101zM134 271h87l36 165h-87z" />
    <glyph glyph-name="dollar" unicode="$" horiz-adv-x="457" 
d="M218 -10q-11 0 -18 1l-10 -98h-29l10 101q-64 10 -114 38q-8 48 -8 156h7q34 -136 119 -161l30 293q-76 48 -112 91.5t-36 101.5q0 68 50 114t127 46h7l8 75h29l-8 -76q57 -5 89 -19v-83h-5q-27 55 -87 70l-26 -250l14 -9q80 -53 116 -100t36 -108q0 -78 -51 -130.5
t-138 -52.5zM337 139q0 53 -24.5 88.5t-80.5 74.5l-29 -281h15q54 0 86.5 35t32.5 83zM127 539q0 -42 22 -71.5t65 -59.5l24 236h-7q-45 0 -74.5 -29t-29.5 -76z" />
    <glyph glyph-name="percent" unicode="%" horiz-adv-x="639" 
d="M465 24q44 0 73 30.5t29 76.5q0 47 -29 77.5t-73 30.5q-43 0 -72.5 -30.5t-29.5 -77.5q0 -45 30 -76t72 -31zM324 130q0 58 42 100.5t99 42.5q59 0 100 -40.5t41 -98.5q0 -60 -41 -101.5t-100 -41.5t-100 40t-41 99zM33 528q0 58 41.5 100t99.5 42q59 0 100 -40t41 -99
q0 -58 -41.5 -100.5t-99.5 -42.5q-60 0 -100.5 40.5t-40.5 99.5zM174 636q-43 0 -72.5 -30t-29.5 -77q0 -46 29.5 -76.5t72.5 -30.5q44 0 73 30t29 77t-29 77t-73 30zM535 662h41l-468 -662h-42z" />
    <glyph glyph-name="ampersand" unicode="&#x26;" horiz-adv-x="692" 
d="M688 400q-62 -36 -87 -67.5t-78 -128.5q-33 -59 -35 -61q33 -52 70 -82.5t90 -30.5q32 0 55 10l3 -4q-44 -44 -102 -44q-91 0 -158 92q-80 -98 -188 -98q-100 0 -161.5 54.5t-61.5 132.5q0 69 46.5 127.5t115.5 87.5q-1 0 -1 1q-67 67 -67 131q0 46 36.5 81t94.5 35
q50 0 89.5 -25.5t39.5 -76.5q0 -17 -6 -33t-12 -26t-21 -22.5t-22 -17t-27 -16.5t-24 -14q106 -106 194 -235l20 34q56 108 85 145l-69 51v6h181v-6zM428 109q-60 90 -102.5 141t-113.5 122q-104 -66 -104 -176q0 -71 45 -117.5t119 -46.5q90 0 156 77zM188 537
q0 -29 16 -52.5t57 -64.5q67 44 67 111q0 36 -19 58t-48 22q-32 0 -52.5 -21t-20.5 -53z" />
    <glyph glyph-name="quotesingle" unicode="'" horiz-adv-x="163" 
d="M112 659q0 -17 -27 -200h-7q-27 179 -27 200q0 36 31 36q30 0 30 -36z" />
    <glyph glyph-name="parenleft" unicode="(" horiz-adv-x="272" 
d="M57 283q0 139 54.5 264t135.5 210l6 -6q-133 -216 -133 -467q0 -238 133 -468l-6 -6q-82 89 -136 212.5t-54 260.5z" />
    <glyph glyph-name="parenright" unicode=")" horiz-adv-x="272" 
d="M214 283q0 -137 -54 -260.5t-136 -212.5l-6 6q133 230 133 468q0 251 -133 467l6 6q81 -85 135.5 -210t54.5 -264z" />
    <glyph glyph-name="asterisk" unicode="*" horiz-adv-x="266" 
d="M65 449l-7 3l38 87l-88 21v7l93 10l-30 89l6 4l60 -76l64 70l6 -5l-39 -87l90 -19v-7l-92 -10l29 -88l-7 -3l-58 74z" />
    <glyph glyph-name="plus" unicode="+" horiz-adv-x="471" 
d="M49 261h171v171h33v-171h169v-30h-169v-174h-33v174h-171v30z" />
    <glyph glyph-name="comma" unicode="," horiz-adv-x="177" 
d="M38 53q0 20 12.5 31.5t31.5 11.5q24 0 39 -19t15 -52q0 -51 -33 -102t-75 -83l-12 4q76 98 80 172q-1 -1 -2 -1t-1.5 -0.5t-1.5 -0.5q-2 -1 -13 -1q-18 0 -29 11t-11 29z" />
    <glyph glyph-name="hyphen" unicode="-" horiz-adv-x="253" 
d="M47 265h160v-53h-160v53z" />
    <glyph glyph-name="period" unicode="." horiz-adv-x="177" 
d="M43 38q0 20 13 32.5t33 12.5t32.5 -12.5t12.5 -32.5t-12.5 -33t-32.5 -13t-33 13t-13 33z" />
    <glyph glyph-name="slash" unicode="/" horiz-adv-x="326" 
d="M305 743l-295 -981l-30 10l295 981z" />
    <glyph glyph-name="zero" unicode="0" horiz-adv-x="494" 
d="M36 202q0 87 62.5 150.5t149.5 63.5q90 0 150.5 -61.5t60.5 -150.5t-61 -151.5t-150 -62.5q-91 0 -151.5 60.5t-60.5 151.5zM86 203q0 -74 47 -124t116 -50q68 0 114.5 50t46.5 124t-46.5 124t-116.5 50q-69 0 -115 -50t-46 -124z" />
    <glyph glyph-name="one" unicode="1" horiz-adv-x="250" 
d="M30 401v5h190v-5l-61 -45v-308l61 -42v-6h-190v6l60 42v308z" />
    <glyph glyph-name="two" unicode="2" horiz-adv-x="371" 
d="M46 329q38 86 122 86q51 0 80.5 -29t29.5 -81q0 -54 -33 -100.5t-131 -144.5h259l-28 -60h-315v6q104 115 137.5 175.5t33.5 105.5q0 37 -18.5 59t-50.5 22q-43 0 -80 -44z" />
    <glyph glyph-name="three" unicode="3" horiz-adv-x="325" 
d="M41 88q146 132 146 210q0 70 -60 70q-44 0 -68 -42l-6 5q4 12 10.5 24t18.5 27t31.5 24t43.5 9q48 0 73.5 -25.5t25.5 -73.5q0 -27 -11 -51.5t-35.5 -49.5t-41 -39t-51.5 -40q12 4 32 4q62 0 100 -32t38 -91q0 -88 -69 -162t-187 -144l-6 7q99 85 145 148.5t46 126.5
q0 47 -29.5 73.5t-75.5 26.5q-38 0 -64 -12z" />
    <glyph glyph-name="four" unicode="4" horiz-adv-x="460" 
d="M348 419v-372h98v-47h-98v-208l-69 -24v232h-277v6l340 413h6zM279 47v246l-201 -246h201z" />
    <glyph glyph-name="five" unicode="5" horiz-adv-x="302" 
d="M264 406l-33 -58h-121q-2 -3 -9 -19q141 -165 141 -284q0 -93 -72.5 -161.5t-190.5 -113.5l-3 8q198 117 198 237q0 17 -2.5 34t-5 31t-9.5 31.5t-11 28t-14 28t-14 25t-16 24.5t-15 21.5t-16 22t-14 18.5q43 94 67 127h140z" />
    <glyph glyph-name="six" unicode="6" horiz-adv-x="455" 
d="M453 703q-134 -45 -231 -173t-97 -294q0 -93 38.5 -155.5t86.5 -62.5q41 0 71 40t30 97q0 63 -33 95t-77 32q-41 0 -84 -25l-5 5q55 55 125 55q63 0 103.5 -39.5t40.5 -105.5q0 -79 -52 -128.5t-125 -49.5q-79 0 -136 68t-57 189q0 87 36 168t93.5 140.5t128 99.5
t141.5 52z" />
    <glyph glyph-name="seven" unicode="7" horiz-adv-x="439" 
d="M48 406h371v-4l-281 -684l-31 8l252 618h-338z" />
    <glyph glyph-name="eight" unicode="8" horiz-adv-x="406" 
d="M204 670q59 0 99 -36.5t40 -92.5q0 -50 -24.5 -85.5t-83.5 -86.5q0 -2 2 -2q47 -48 68.5 -73t40.5 -61.5t19 -72.5q0 -70 -48 -119t-113 -49q-70 0 -116.5 38.5t-46.5 106.5q0 55 28.5 99t94.5 106q-59 59 -82.5 99t-23.5 85q0 62 43.5 103t102.5 41zM182 324
q-80 -77 -80 -183q0 -52 28 -86.5t76 -35.5q41 0 67.5 35t26.5 85q0 45 -23.5 81.5t-88.5 98.5zM118 547q0 -37 23 -73t78 -91q71 69 71 158q0 49 -22.5 76t-66.5 27q-38 0 -60.5 -28t-22.5 -69z" />
    <glyph glyph-name="nine" unicode="9" horiz-adv-x="455" 
d="M28 -278q138 51 222 166t84 283q0 92 -40.5 154.5t-88.5 62.5q-40 0 -68.5 -40.5t-28.5 -96.5q0 -59 32.5 -92t73.5 -33q43 0 89 25l4 -4q-15 -19 -48 -37.5t-77 -18.5q-63 0 -104 40.5t-41 105.5q0 77 51.5 127.5t122.5 50.5q80 0 138.5 -69.5t58.5 -191.5
q0 -87 -31.5 -164t-85 -131.5t-120.5 -91.5t-140 -52z" />
    <glyph glyph-name="colon" unicode=":" horiz-adv-x="185" 
d="M46 370q0 20 13 32.5t33 12.5t32.5 -12.5t12.5 -32.5t-12.5 -33t-32.5 -13t-33 13t-13 33zM46 38q0 20 13 32.5t33 12.5t32.5 -12.5t12.5 -32.5t-12.5 -33t-32.5 -13t-33 13t-13 33z" />
    <glyph glyph-name="semicolon" unicode=";" horiz-adv-x="185" 
d="M48 53q0 20 12.5 31.5t31.5 11.5q24 0 39 -19t15 -52q0 -51 -33 -102t-75 -83l-12 4q76 98 80 172q-1 -1 -2 -1t-1.5 -0.5t-1.5 -0.5q-2 -1 -13 -1q-18 0 -29 11t-11 29zM46 370q0 20 13 32.5t33 12.5t32.5 -12.5t12.5 -32.5t-12.5 -33t-32.5 -13t-33 13t-13 33z" />
    <glyph glyph-name="less" unicode="&#x3c;" horiz-adv-x="432" 
d="M384 106l-337 126v28l337 129v-30l-300 -113l300 -110v-30z" />
    <glyph glyph-name="equal" unicode="=" horiz-adv-x="458" 
d="M54 185v28h351v-28h-351zM54 270v28h351v-28h-351z" />
    <glyph glyph-name="greater" unicode="&#x3e;" horiz-adv-x="432" 
d="M48 136l299 110l-299 113v30l337 -129v-28l-337 -126v30z" />
    <glyph glyph-name="question" unicode="?" horiz-adv-x="329" 
d="M299 555q0 -34 -13 -60.5t-49 -64.5q-34 -34 -64 -68q-18 -19 -24 -32.5t-6 -36.5q0 -4 4 -80h-12q-38 94 -38 121q0 16 6.5 28.5t27.5 36.5q6 7 26.5 30t30.5 35q40 47 40 90t-24 65.5t-62 22.5q-37 0 -64.5 -24.5t-38.5 -49.5h-5v92q28 12 107 12q63 0 110.5 -27.5
t47.5 -89.5zM97 38q0 20 13 32.5t33 12.5t32.5 -12.5t12.5 -32.5t-12.5 -33t-32.5 -13t-33 13t-13 33z" />
    <glyph glyph-name="at" unicode="@" horiz-adv-x="871" 
d="M530 42q43 1 84.5 17t79 46t60.5 82.5t23 118.5q0 51 -16 97t-49 85.5t-92 63t-138 23.5q-87 0 -159.5 -35t-118.5 -92t-71.5 -126t-25.5 -140q0 -162 93.5 -257t236.5 -95q86 0 155 26.5t111 60.5l7 -7q-42 -45 -117 -81.5t-167 -36.5q-167 0 -273.5 101t-106.5 268
q0 187 133.5 319.5t321.5 132.5q155 0 244.5 -83t89.5 -200q0 -104 -53.5 -179.5t-137.5 -109t-182 -26.5l29 147q-95 -144 -168 -144q-23 0 -42.5 24t-19.5 69q0 42 16.5 87.5t48 89.5t87.5 76t127 39l69 32zM350 70q24 0 69.5 43t81.5 98l33 163q-86 -6 -146 -84t-60 -174
q0 -20 6.5 -33t15.5 -13z" />
    <glyph glyph-name="A" unicode="A" horiz-adv-x="633" 
d="M164 6v-6h-157v6l55 46l240 625h7l261 -625l56 -46v-6h-202v6l68 46l-101 241h-202l-93 -242zM199 321h181l-94 225z" />
    <glyph glyph-name="B" unicode="B" horiz-adv-x="558" 
d="M520 204q0 -54 -22 -95.5t-57.5 -64t-74.5 -33.5t-79 -11h-238v6l65 46v558l-65 46v6h219q89 0 140.5 -34.5t51.5 -104.5q0 -50 -37 -93t-81 -59q72 -4 125 -48t53 -119zM191 346v-301q49 -19 101 -19q60 0 104.5 45.5t44.5 117.5q0 77 -46.5 117t-122.5 40h-81zM191 635
v-261h90q41 0 73.5 41.5t32.5 96.5q0 59 -35.5 91t-98.5 32h-62z" />
    <glyph glyph-name="C" unicode="C" horiz-adv-x="670" 
d="M396 -11q-154 0 -254 94.5t-100 243.5q0 90 40.5 168t122.5 128t190 50q99 0 205 -30v-98h-4q-69 99 -201 99q-124 0 -195.5 -90t-71.5 -220q0 -135 78 -225.5t193 -90.5q123 0 211 106h5v-88q-91 -47 -219 -47z" />
    <glyph glyph-name="D" unicode="D" horiz-adv-x="716" 
d="M305 662q160 0 266 -87.5t106 -240.5q0 -148 -96 -241t-252 -93h-281v6l66 46v558l-66 46v6h257zM191 635v-582q48 -25 140 -25q117 0 188 81.5t71 225.5q0 134 -80 217t-200 83h-119z" />
    <glyph glyph-name="E" unicode="E" horiz-adv-x="558" 
d="M49 0v6l65 46v558l-65 46v6h430v-111h-6l-63 83h-219v-266h225l42 68h5v-164h-5l-42 67h-225v-310h239l68 102h6v-131h-455z" />
    <glyph glyph-name="F" unicode="F" horiz-adv-x="529" 
d="M458 436h5v-163h-5l-42 67h-225v-287l97 -47v-6h-239v6l65 46v558l-65 46v6h430v-119h-6l-65 91h-217v-265h225z" />
    <glyph glyph-name="G" unicode="G" horiz-adv-x="717" 
d="M629 45q-7 -2 -37.5 -13.5t-54.5 -19.5t-62.5 -15.5t-72.5 -7.5q-163 0 -261.5 95.5t-98.5 246.5q0 139 96.5 240.5t255.5 101.5q107 0 215 -30v-97h-4q-33 46 -80 72t-127 26q-87 0 -149.5 -45t-91.5 -113.5t-29 -151.5q0 -131 75.5 -223t200.5 -92q80 0 145 39v234
l-82 46v6h214v-6l-52 -46v-247z" />
    <glyph glyph-name="H" unicode="H" horiz-adv-x="767" 
d="M191 352h386v258l-65 46v6h207v-6l-65 -46v-558l65 -46v-6h-207v6l65 46v269h-386v-269l65 -46v-6h-207v6l65 46v558l-65 46v6h207v-6l-65 -46v-258z" />
    <glyph glyph-name="I" unicode="I" horiz-adv-x="305" 
d="M49 0v6l65 46v558l-65 46v6h207v-6l-65 -46v-558l65 -46v-6h-207z" />
    <glyph glyph-name="J" unicode="J" horiz-adv-x="286" 
d="M40 656v6h208v-6l-66 -46v-514q0 -72 -47 -162.5t-115 -154.5l-10 7q46 75 70.5 150.5t24.5 190.5v483z" />
    <glyph glyph-name="K" unicode="K" horiz-adv-x="641" 
d="M49 0v6l65 46v558l-65 46v6h208v-6l-66 -46v-558l66 -46v-6h-208zM638 0h-232v6l66 46l-234 284h-33l266 274l-66 46v6h189v-6l-73 -40l-227 -228l268 -336l76 -46v-6z" />
    <glyph glyph-name="L" unicode="L" horiz-adv-x="553" 
d="M509 151h6v-151h-466v6l65 46v558l-65 46v6h208v-6l-66 -46v-581h238z" />
    <glyph glyph-name="M" unicode="M" horiz-adv-x="860" 
d="M804 656l-66 -45v-554l74 -51v-6h-224v6l74 51v482l-254 -479h-8l-255 475v-478l74 -51v-6h-178v6l73 51v525q-20 36 -54 74v6h103l264 -501l264 501h113v-6z" />
    <glyph glyph-name="N" unicode="N" horiz-adv-x="763" 
d="M40 0v6l74 51v525q-46 51 -77 74v6h108l474 -543v486l-72 51v6h181v-6l-74 -51v-605h-25l-480 542v-485l71 -51v-6h-180z" />
    <glyph glyph-name="O" unicode="O" horiz-adv-x="739" 
d="M44 323q0 148 94 249t232 101q137 0 231.5 -95.5t94.5 -241.5t-95.5 -246.5t-231.5 -100.5t-230.5 95t-94.5 239zM131 330q0 -142 68 -227t170 -85t171.5 86t69.5 226q0 141 -69 227.5t-171 86.5q-103 0 -171 -86.5t-68 -227.5z" />
    <glyph glyph-name="P" unicode="P" horiz-adv-x="535" 
d="M503 477q0 -99 -77.5 -158t-186.5 -55v8q75 9 129.5 61t54.5 133q0 77 -45.5 123t-135.5 46h-51v-583l74 -46v-6h-216v6l65 46v558l-65 46v6h230q98 0 161 -48t63 -137z" />
    <glyph glyph-name="Q" unicode="Q" horiz-adv-x="738" 
d="M694 336q0 -116 -70.5 -213t-191.5 -128q199 -92 308 -127.5t241 -35.5q63 0 91 7l2 -5q-26 -20 -81 -37.5t-123 -17.5q-94 0 -226 50t-356 165q-244 99 -244 329q0 150 94 250t232 100q137 0 230.5 -95.5t93.5 -241.5zM131 330q0 -143 69 -227.5t178 -84.5q94 0 163 86
t69 226q0 143 -69 228.5t-171 85.5q-103 0 -171 -85t-68 -229z" />
    <glyph glyph-name="R" unicode="R" horiz-adv-x="597" 
d="M49 0v6l65 46v558l-65 46v6h240q92 0 141 -39.5t49 -99.5q0 -62 -36.5 -104.5t-85.5 -65.5l121 -204q29 -47 60.5 -81.5t50 -47t27.5 -14.5v-6q-24 -6 -45 -6q-42 0 -78.5 22t-76.5 93l-134 226h-91v-283l76 -46v-6h-218zM191 635v-274h91q51 0 85 41t34 96
q0 70 -40.5 103.5t-102.5 33.5h-67z" />
    <glyph glyph-name="S" unicode="S" horiz-adv-x="466" 
d="M248 673q75 0 125 -21v-83h-4q-13 28 -45 51.5t-80 23.5t-79 -27t-31 -72q0 -28 8 -49t30 -43t38 -34.5t56 -40.5q42 -30 62 -46.5t46 -43.5t36.5 -55t10.5 -62q0 -78 -52 -129.5t-142 -51.5q-98 0 -172 43q-11 80 -7 155h6q6 -25 14.5 -47.5t27.5 -53t53 -49t78 -18.5
q56 0 90.5 35t34.5 85q0 54 -29.5 91.5t-99.5 83.5q-79 51 -117 98t-38 107q0 70 49.5 111.5t130.5 41.5z" />
    <glyph glyph-name="T" unicode="T" horiz-adv-x="630" 
d="M597 662v-121h-6l-66 91h-172v-578l64 -48v-6h-205v6l64 48v578h-171l-66 -91h-6v121h564z" />
    <glyph glyph-name="U" unicode="U" horiz-adv-x="714" 
d="M618 233q0 -110 -70 -177t-177 -67q-123 0 -198.5 60t-75.5 185v376l-66 46v6h208v-6l-65 -46v-376q0 -101 57 -151t152 -50q92 0 145.5 55.5t53.5 146.5v375l-64 46v6h165v-6l-65 -46v-377z" />
    <glyph glyph-name="V" unicode="V" horiz-adv-x="627" 
d="M461 656v6h159v-6l-55 -46l-240 -624h-7l-257 624l-54 46v6h203v-6l-69 -46l199 -495l189 496z" />
    <glyph glyph-name="W" unicode="W" horiz-adv-x="937" 
d="M451 610l62 -153l64 153l-51 46v6h142v-6l-56 -46l-83 -192l129 -311l183 503l-72 46v6h162v-6l-55 -46l-228 -624h-8l-154 362l-164 -362h-8l-253 624l-54 46v6h205v-6l-71 -46l200 -505l127 283l-94 222l-55 46v6h182v-6z" />
    <glyph glyph-name="X" unicode="X" horiz-adv-x="640" 
d="M6 0v6l65 46l212 277l-202 281l-66 46v6h224v-6l-67 -46l156 -222l170 223l-67 45v6h170v-6l-64 -46l-190 -248l220 -310l67 -46v-6h-217v6l65 46l-181 251l-190 -251l65 -46v-6h-170z" />
    <glyph glyph-name="Y" unicode="Y" horiz-adv-x="587" 
d="M424 656v6h156v-6l-55 -46l-186 -282v-277l65 -45v-6h-208v6l66 45v261l-201 298l-54 46v6h211v-6l-67 -46l169 -257l171 258z" />
    <glyph glyph-name="Z" unicode="Z" horiz-adv-x="627" 
d="M135 29h374l76 100h6v-129h-554v9l432 624h-333l-67 -93h-6v122h513v-8z" />
    <glyph glyph-name="bracketleft" unicode="[" horiz-adv-x="229" 
d="M208 716h-89v-852h89v-20h-147v892h147v-20z" />
    <glyph glyph-name="backslash" unicode="\" horiz-adv-x="325" 
d="M345 -228l-29 -10l-296 981l31 10z" />
    <glyph glyph-name="bracketright" unicode="]" horiz-adv-x="229" 
d="M110 716h-89v20h147v-892h-147v20h89v852z" />
    <glyph glyph-name="asciicircum" unicode="^" horiz-adv-x="407" 
d="M53 330l-5 2l155 342h1l156 -342l-5 -2l-151 217z" />
    <glyph glyph-name="underscore" unicode="_" horiz-adv-x="361" 
d="M-5 -120v30h371v-30h-371z" />
    <glyph glyph-name="grave" unicode="`" 
d="M268 497l-149 180l56 34l102 -209z" />
    <glyph glyph-name="a" unicode="a" horiz-adv-x="395" 
d="M252 296q0 38 -18 61t-55 23q-41 0 -67 -34v-56l-71 20v5q21 25 31 35.5t34 30.5t50.5 29t57.5 9q49 0 77 -27t28 -67q0 -37 -2 -144t-2 -115q37 -26 75 -35v-6l-57 -39q-51 19 -79 52q-62 -49 -104 -49q-52 0 -83.5 28t-31.5 70q0 27 11.5 44t25.5 22q4 1 28 9t68 23
t84 28v83zM251 60q0 20 0.5 59.5t0.5 61.5q-29 -9 -84.5 -29t-59.5 -22q-9 -5 -9 -30q0 -27 19.5 -46t54.5 -19q48 0 78 25z" />
    <glyph glyph-name="b" unicode="b" horiz-adv-x="459" 
d="M5 674v8q0 -1 16.5 5.5t49 18t61.5 19.5v-376q16 23 52.5 45t74.5 22q84 0 127.5 -56t43.5 -138q0 -38 -12.5 -77t-37.5 -75t-69.5 -58.5t-101.5 -22.5q-37 0 -84.5 5.5t-61.5 5.5v646zM236 368q-62 0 -104 -42v-289q38 -18 77 -18q67 0 108 52t41 132t-34.5 122.5
t-87.5 42.5z" />
    <glyph glyph-name="c" unicode="c" horiz-adv-x="403" 
d="M243 415q56 0 120 -16v-87h-5q-54 74 -130 74q-60 0 -96.5 -49.5t-36.5 -116.5q0 -86 48.5 -133.5t122.5 -47.5q69 0 116 32l3 -7q-56 -74 -159 -74q-84 0 -141.5 55.5t-57.5 150.5q0 91 58 155t158 64z" />
    <glyph glyph-name="d" unicode="d" horiz-adv-x="470" 
d="M259 675v7l21 7q70 24 114 36v-666l68 -25v-7q-52 -13 -71 -18l-65 -16v53q-20 -22 -53.5 -39t-58.5 -17q-82 0 -134.5 58t-52.5 142q0 92 59 159t164 67q51 0 75 -6v237zM244 38q53 0 81 31v297q-35 22 -77 22q-65 0 -106.5 -52.5t-41.5 -129.5q0 -79 40.5 -123.5
t103.5 -44.5z" />
    <glyph glyph-name="e" unicode="e" horiz-adv-x="380" 
d="M96 218q0 -84 44.5 -131t112.5 -47q59 0 108 22l4 -7q-23 -23 -65.5 -44t-85.5 -21q-83 0 -135 55.5t-52 152.5q0 88 53.5 153t130.5 65q33 0 59 -11.5t42.5 -32.5t25.5 -40.5t18 -45.5v-1h-253q-7 -35 -7 -67zM207 387q-66 0 -95 -75h167q-3 40 -25 57.5t-47 17.5z" />
    <glyph glyph-name="f" unicode="f" horiz-adv-x="283" 
d="M230 6v-6h-211v6l61 42v314h-63v7l63 35v48q0 112 67.5 187.5t169.5 75.5q51 0 85 -10l-26 -57q-58 32 -100 32q-46 0 -87 -49t-41 -139v-89h139l-37 -41h-102v-309z" />
    <glyph glyph-name="g" unicode="g" horiz-adv-x="417" 
d="M35 268q0 61 48.5 104t112.5 43q32 0 61 -9h152v-34h-102q52 -39 52 -99q0 -61 -49.5 -103.5t-113.5 -42.5q-30 0 -52 7q-43 -31 -43 -55q0 -39 47 -39h169q28 0 60.5 -30t32.5 -81q0 -82 -74 -146t-168 -64q-71 0 -115 30.5t-44 78.5q0 72 94 151q-60 22 -60 80
q0 29 10 37l68 46q-39 18 -62.5 51t-23.5 75zM140 -27q-2 0 -7 0.5t-8 0.5q-21 -21 -38.5 -54.5t-17.5 -67.5q0 -42 38 -67.5t96 -25.5q61 0 108.5 39t47.5 90q0 85 -100 85h-119zM105 271q0 -50 26.5 -85t65.5 -35t64.5 35t25.5 85t-25.5 85t-64.5 35q-41 0 -66.5 -34.5
t-25.5 -85.5z" />
    <glyph glyph-name="h" unicode="h" horiz-adv-x="500" 
d="M22 0v6l60 41v599l-59 28v7q-1 0 16 7t49 18t63 19v-377q72 67 148 67q49 0 86 -30.5t37 -74.5v-263l61 -41v-6h-190v6l61 41v241q0 36 -25 60t-69 24q-53 0 -109 -52v-273l60 -41v-6h-189z" />
    <glyph glyph-name="i" unicode="i" horiz-adv-x="233" 
d="M153 587q0 -18 -12.5 -30t-29.5 -12t-29.5 12t-12.5 30t12.5 30t29.5 12t29.5 -12t12.5 -30zM22 0v6l60 42v296l-56 27v6l62 24q32 11 62 19v-372l61 -42v-6h-189z" />
    <glyph glyph-name="j" unicode="j" horiz-adv-x="213" 
d="M145 587q0 -18 -12.5 -30t-29.5 -12t-29.5 12t-12.5 30t12.5 30t29.5 12t29.5 -12t12.5 -30zM18 370v7q-1 0 15 6.5t47.5 17.5t62.5 19v-364q0 -166 -129 -308l-11 5q71 143 71 305v286z" />
    <glyph glyph-name="k" unicode="k" horiz-adv-x="461" 
d="M150 48l61 -42v-6h-189v6l60 42v598l-59 28v7q29 14 127 44v-677zM161 232v6l137 118l-52 45v5h185v-5l-85 -39l-123 -106l99 -127q78 -100 138 -123v-6q-8 -8 -49 -8q-39 0 -65.5 19t-68.5 74z" />
    <glyph glyph-name="l" unicode="l" horiz-adv-x="233" 
d="M150 48l61 -42v-6h-189v6l60 42v598l-59 28v8q1 0 18 6.5t48 17.5t61 19v-677z" />
    <glyph glyph-name="m" unicode="m" horiz-adv-x="735" 
d="M150 347q69 69 142 69q36 0 64.5 -19.5t41.5 -54.5q22 25 63.5 49.5t85.5 24.5q45 0 78 -29.5t33 -72.5v-266l60 -42v-6h-189v6l62 42v239q0 37 -21 61.5t-63 24.5q-21 0 -41.5 -9.5t-31.5 -18.5t-30 -26v-271l63 -42v-6h-192v6l61 42v239q0 37 -21 61.5t-63 24.5
q-44 0 -102 -54v-271l62 -42v-6h-190v6l60 42v296l-56 26v7l2 1q3 2 9.5 4.5t14.5 5.5t19 7t23 8t27 8.5t29 8.5v-73z" />
    <glyph glyph-name="n" unicode="n" horiz-adv-x="500" 
d="M22 0v6l60 42v296l-56 26v7l2 1q3 2 9.5 4.5t14.5 5.5t19 7t23 8t27 8.5t29 8.5v-71q72 67 149 67q49 0 86 -30t37 -73v-265l61 -42v-6h-188v6l58 42v239q0 36 -24 60t-70 24q-56 0 -109 -51v-272l61 -42v-6h-189z" />
    <glyph glyph-name="o" unicode="o" horiz-adv-x="452" 
d="M27 198q0 91 57.5 154.5t140.5 63.5q84 0 142 -60t58 -149q0 -92 -57.5 -154.5t-141.5 -62.5t-141.5 59.5t-57.5 148.5zM101 203q0 -80 36.5 -132t88.5 -52t88 52t36 132q0 77 -37 131t-88 54t-87.5 -53.5t-36.5 -131.5z" />
    <glyph glyph-name="p" unicode="p" horiz-adv-x="463" 
d="M230 -269v-6h-222v6l60 41v571l-56 27v7q-1 0 15 6.5t47 16.5t62 19v-70q19 26 54.5 46t75.5 20q83 0 126 -55.5t43 -138.5q0 -85 -58 -158.5t-164 -73.5q-34 0 -77 4v-221zM239 367q-62 0 -103 -41v-289q30 -18 78 -18q67 0 108 52t41 130q0 82 -35 124t-89 42z" />
    <glyph glyph-name="q" unicode="q" horiz-adv-x="464" 
d="M457 -269v-6h-221v6l91 41v275q-18 -24 -49 -40.5t-61 -16.5q-92 0 -141 57t-49 140q0 40 13 78.5t39 73t71.5 55.5t103.5 21q51 0 105 -10l37 21v-654zM244 37q49 0 81 32v300q-35 17 -78 17q-68 0 -108 -50t-40 -128q0 -82 40.5 -126.5t104.5 -44.5z" />
    <glyph glyph-name="r" unicode="r" horiz-adv-x="335" 
d="M26 370v7q56 24 124 43v-86q82 85 119 85q22 0 52 -10l-23 -67q-29 11 -48 11q-50 0 -100 -44v-262l79 -41v-6h-207v6l60 42v296z" />
    <glyph glyph-name="s" unicode="s" horiz-adv-x="320" 
d="M167 416q58 0 87 -13v-76h-6q-8 22 -29.5 41t-55.5 19q-25 0 -41.5 -14t-16.5 -40q0 -20 10.5 -35.5t22.5 -23.5t42 -27q35 -22 52.5 -35t35.5 -41t18 -61q0 -52 -36.5 -86t-98.5 -34t-113 24q-10 73 -6 125h6q12 -48 40.5 -84t74.5 -36q33 0 53.5 19.5t20.5 51.5
q0 31 -19.5 50t-66.5 48q-24 16 -36 25t-28 25t-22.5 34.5t-6.5 41.5q0 46 34.5 74t84.5 28z" />
    <glyph glyph-name="t" unicode="t" horiz-adv-x="343" 
d="M140 364v-255q0 -33 22 -54.5t62 -21.5q51 0 87 20l4 -7q-53 -55 -125 -55q-61 0 -89.5 31t-28.5 71v271h-55v7l123 93v-60h194l-27 -40h-167z" />
    <glyph glyph-name="u" unicode="u" horiz-adv-x="486" 
d="M17 370v7l69 25l56 17v-300q0 -35 22.5 -59t65.5 -24q49 0 107 50v256l-64 29v7q-1 0 17 6t51.5 16t64.5 19v-360l67 -25v-7l-70 -18q-14 -4 -40 -10l-26 -7v67q-67 -67 -141 -67q-49 0 -85.5 31.5t-36.5 84.5v235z" />
    <glyph glyph-name="v" unicode="v" horiz-adv-x="418" 
d="M366 360l-133 -349l-6 -18q-5 -16 -7 -20h-8q-1 2 -8 18q-2 4 -7.5 17.5t-9.5 21.5l-136 330l-50 40v6h186v-6l-60 -40l103 -268l101 268l-62 40v6h149v-6z" />
    <glyph glyph-name="w" unicode="w" horiz-adv-x="631" 
d="M222 23q-2 -5 -5.5 -13.5t-4.5 -11.5q-5 -12 -5 -13h-7q-4 10 -7 16q-7 20 -16 40l-126 319l-50 40v6h182v-6l-59 -40l96 -252l84 241l-3 11l-53 40v6h169v-6l-50 -40l90 -251l88 251l-60 40v6h144v-6l-51 -40l-120 -338q-1 -2 -2.5 -5.5t-3 -8.5t-2.5 -8l-6 -15h-6
q-1 3 -5 13q-1 3 -6.5 18t-9.5 27l-96 259z" />
    <glyph glyph-name="x" unicode="x" horiz-adv-x="425" 
d="M418 6v-6h-173v6l58 41l-99 127l-108 -127l62 -41v-6h-152v6l50 42l128 152l-124 160l-49 40v6h188v-6l-60 -40l85 -113l92 113l-61 40v6h150v-6l-50 -42l-113 -134l134 -177z" />
    <glyph glyph-name="y" unicode="y" horiz-adv-x="419" 
d="M185 -112q-40 -109 -46 -164h-91v5q69 64 114 182l38 98l-149 350l-50 41v6h184v-6l-58 -41l106 -263l98 263l-62 41v6h149v-6l-51 -41z" />
    <glyph glyph-name="z" unicode="z" horiz-adv-x="391" 
d="M365 104v-104h-343v6l243 375h-155l-58 -74h-6v99h311v-3l-250 -378h192l60 79h6z" />
    <glyph glyph-name="braceleft" unicode="{" horiz-adv-x="281" 
d="M132 -34q0 -45 24.5 -79t86.5 -63l-5 -6q-97 34 -129.5 76t-32.5 93q0 36 38 108t38 107q0 38 -29 59.5t-87 21.5v18q58 0 87 22t29 60q0 35 -37.5 103.5t-37.5 105.5q0 23 5.5 41.5t20.5 41.5t49.5 44t85.5 38l5 -7q-62 -29 -86.5 -62t-24.5 -75q0 -36 35 -105.5
t35 -104.5q0 -40 -28 -71t-82 -40q53 -9 81.5 -39.5t28.5 -70.5q0 -34 -35 -107t-35 -109z" />
    <glyph glyph-name="bar" unicode="|" horiz-adv-x="255" 
d="M111 743h33v-977h-33v977z" />
    <glyph glyph-name="braceright" unicode="}" horiz-adv-x="280" 
d="M148 -34q0 36 -35 109t-35 107q0 40 28.5 70.5t81.5 39.5q-54 9 -82 40t-28 71q0 35 35 104.5t35 105.5q0 42 -24.5 75t-86.5 62l5 7q51 -17 85.5 -38t49.5 -44t20.5 -41.5t5.5 -41.5q0 -37 -37.5 -105.5t-37.5 -103.5q0 -38 29 -60t87 -22v-18q-58 0 -87 -21.5
t-29 -59.5q0 -35 38 -107t38 -108q0 -51 -32.5 -93t-129.5 -76l-5 6q62 29 86.5 63t24.5 79z" />
    <glyph glyph-name="asciitilde" unicode="~" horiz-adv-x="479" 
d="M338 271q73 0 101 115l6 -1q-4 -70 -32.5 -119.5t-80.5 -49.5q-34 0 -99.5 41t-97.5 41q-68 0 -95 -116l-6 1q0 38 10.5 75.5t36 66.5t61.5 29t101.5 -41.5t94.5 -41.5z" />
    <glyph glyph-name="exclamdown" unicode="&#xa1;" horiz-adv-x="193" 
d="M58 -254q0 -1 2 31.5t6 87t8.5 111.5t9 120t7.5 99h12l33 -449h-78zM142 370q0 -20 -13 -32.5t-33 -12.5t-32.5 12.5t-12.5 32.5t12.5 33t32.5 13t33 -13t13 -33z" />
    <glyph glyph-name="cent" unicode="&#xa2;" horiz-adv-x="409" 
d="M272 492l-8 -78q58 -4 104 -16v-86h-4q-44 58 -103 71l-35 -342q17 -4 43 -4q69 0 118 32l4 -6q-59 -73 -162 -73h-8l-7 -76h-28l8 79q-72 10 -119.5 64.5t-47.5 138.5q0 89 55.5 152t153.5 67l8 77h28zM95 220q0 -66 28 -109.5t76 -61.5l34 337h-2q-61 0 -98.5 -48.5
t-37.5 -117.5z" />
    <glyph glyph-name="sterling" unicode="&#xa3;" horiz-adv-x="495" 
d="M6 -9q14 21 35 48t31 40.5t21 38.5t19 58q10 46 15 106h-91v30h94q1 13 4.5 69.5t6.5 83.5q8 88 64 148t136 60q61 0 109 -13v-87h-6q-32 69 -106 69q-58 0 -83 -42.5t-35 -120.5l-20 -167h154v-30h-158q-8 -63 -20 -92q-21 -56 -73 -108q32 19 69 19q32 0 97.5 -23
t95.5 -23q62 0 110 83l5 -2q-13 -62 -48 -102t-81 -40q-32 0 -99.5 28.5t-102.5 28.5q-41 0 -71.5 -17t-64.5 -48z" />
    <glyph glyph-name="yen" unicode="&#xa5;" horiz-adv-x="542" 
d="M380 656v6h154v-6l-54 -46l-162 -253h159v-27h-161v-65h161v-28h-161v-186l65 -45v-6h-206l-2 6l66 45v186h-161v28h161v65h-161v27h148l-164 253l-55 46v6h208v-6l-67 -46l147 -235l151 236z" />
    <glyph glyph-name="brokenbar" unicode="&#xa6;" horiz-adv-x="255" 
d="M111 743h33v-433h-33v433zM111 213h33v-448h-33v448z" />
    <glyph glyph-name="section" unicode="&#xa7;" horiz-adv-x="424" 
d="M33 312q0 45 28.5 75.5t66.5 41.5q-36 55 -36 110q0 59 41 96.5t102 37.5q54 0 80 -7v-87h-6q-25 64 -85 64q-31 0 -54.5 -23t-23.5 -61q0 -30 16 -61.5t35 -55t76 -89.5q71 -79 99 -123t28 -90q0 -79 -90 -121q29 -49 29 -100q0 -66 -44.5 -112.5t-109.5 -46.5
q-38 0 -73 10t-45 18q-8 43 -3 128h6q13 -54 42.5 -90t74.5 -36q43 0 70 31t27 82q0 44 -23 80t-85 106q-10 11 -15 17q-69 74 -98.5 118t-29.5 88zM202 155q76 -87 98 -120q47 31 47 81q0 28 -13.5 56.5t-31 50.5t-59.5 70q-10 11 -15 17q-86 100 -89 104q-54 -24 -54 -77
q0 -10 1.5 -19t5.5 -19l7 -17.5t11.5 -19t13 -18t16.5 -20.5t18 -20.5t21.5 -23.5t22.5 -25z" />
    <glyph glyph-name="dieresis" unicode="&#xa8;" 
d="M243 584q0 17 11 28t28 11q16 0 27.5 -11t11.5 -28t-11.5 -28t-27.5 -11q-17 0 -28 11t-11 28zM120 623q16 0 27.5 -11t11.5 -28t-11.5 -28t-27.5 -11q-17 0 -28 11t-11 28t11 28t28 11z" />
    <glyph glyph-name="copyright" unicode="&#xa9;" horiz-adv-x="768" 
d="M384 674q141 0 240.5 -100.5t99.5 -241.5q0 -144 -98 -243t-242 -99q-145 0 -242.5 98.5t-97.5 243.5q0 144 98 243t242 99zM384 641q-128 0 -213.5 -89.5t-85.5 -219.5q0 -129 88 -219t211 -90q127 0 213 89.5t86 219.5q0 128 -87 218.5t-212 90.5zM398 164
q-80 0 -134.5 48t-54.5 124q0 71 53 123t135 52q44 0 106 -13v-79h-2q-40 64 -104 64q-55 0 -88 -41.5t-33 -102.5q0 -63 36.5 -104t86.5 -41q60 0 110 61h3v-68q-53 -23 -114 -23z" />
    <glyph glyph-name="ordfeminine" unicode="&#xaa;" horiz-adv-x="312" 
d="M188 584q0 56 -49 56q-16 0 -28.5 -8t-16.5 -14v-37l-56 16v4q56 69 125 69q34 0 57 -20.5t23 -47.5q0 -24 -1.5 -97t-1.5 -78q13 -13 49 -26v-4l-43 -27q-27 8 -54 35q-45 -34 -73 -34q-38 0 -62 20.5t-24 50.5q0 40 25 50q89 25 130 38v54zM138 408q25 0 49 15
q0 13 0.5 39.5t0.5 40.5l-94 -29q-8 -5 -8 -23t13.5 -30.5t38.5 -12.5z" />
    <glyph glyph-name="guillemotleft" unicode="&#xab;" horiz-adv-x="315" 
d="M282 68l-132 153l132 154l7 -5l-74 -149l74 -148zM21 221l132 154l7 -5l-74 -149l74 -148l-7 -5z" />
    <glyph glyph-name="registered" unicode="&#xae;" horiz-adv-x="392" 
d="M197 684q70 0 121.5 -51.5t51.5 -123.5q0 -75 -50.5 -125.5t-122.5 -50.5q-74 0 -124.5 50.5t-50.5 125.5q0 73 50.5 124t124.5 51zM197 659q-61 0 -102.5 -44t-41.5 -106t42.5 -106t101.5 -44q60 0 102 43.5t42 106.5q0 61 -41.5 105.5t-102.5 44.5zM119 427v5l18 14
v139l-18 14v5h91q23 0 38 -11t15 -30q0 -25 -29 -42l28 -47q16 -28 34 -41v-5q-14 -2 -27 -2q-16 0 -25 7.5t-19 26.5l-27 49h-20v-63l23 -14v-5h-82zM178 585v-57h19q10 0 17.5 8t7.5 20q0 14 -9 21.5t-21 7.5h-14z" />
    <glyph glyph-name="macron" unicode="&#xaf;" 
d="M105 577h191v-40h-191v40z" />
    <glyph glyph-name="degree" unicode="&#xb0;" horiz-adv-x="239" 
d="M120 472q-42 0 -71 28.5t-29 70.5t29 71t71 29t70.5 -28.5t28.5 -70.5t-28.5 -71t-70.5 -29zM190 572q0 32 -20 52.5t-50 20.5t-50 -20t-20 -52q0 -33 20 -53.5t50 -20.5t50 19.5t20 53.5z" />
    <glyph glyph-name="twosuperior" unicode="&#xb2;" horiz-adv-x="238" 
d="M209 516h5v-86h-205v10q96 116 112 144t16 51t-13.5 37t-36.5 14q-39 0 -62 -28l-7 3q27 60 89 60q39 0 62 -22t23 -56q0 -38 -32 -76t-99 -95h117z" />
    <glyph glyph-name="threesuperior" unicode="&#xb3;" horiz-adv-x="204" 
d="M36 585q38 20 55 35.5t17 36.5q0 31 -37 31q-28 0 -54 -23l-3 4q20 52 82 52q29 0 46 -13.5t17 -38.5q0 -37 -53 -59q33 -3 56.5 -20.5t23.5 -50.5q0 -49 -47 -81.5t-130 -36.5l-3 6q125 45 125 103q0 49 -64 49q-14 0 -28 -2z" />
    <glyph glyph-name="acute" unicode="&#xb4;" 
d="M132 497l-9 5l102 210l56 -35z" />
    <glyph glyph-name="paragraph" unicode="&#xb6;" horiz-adv-x="459" 
d="M206 365q-83 0 -132.5 42.5t-49.5 107.5q0 64 43.5 105.5t122.5 41.5h65v-662h-109v6l65 46v313h-5zM343 611v-559l67 -46v-6h-110v662h110v-6z" />
    <glyph glyph-name="periodcentered" unicode="&#xb7;" horiz-adv-x="177" 
d="M43 251q0 21 12.5 33t33.5 12q20 0 32.5 -12t12.5 -33q0 -20 -12.5 -33t-32.5 -13t-33 13t-13 33z" />
    <glyph glyph-name="cedilla" unicode="&#xb8;" 
d="M243 0l-40 -78q29 -7 51.5 -27.5t22.5 -52.5q0 -42 -36.5 -71t-106.5 -56l-5 9q98 60 98 106q0 24 -21.5 37t-44.5 16l-2 3q5 10 14.5 28.5t14.5 27.5q29 54 29 58h26z" />
    <glyph glyph-name="onesuperior" unicode="&#xb9;" horiz-adv-x="165" 
d="M20 430v4l38 25v207l-41 19v4q5 1 43.5 15t48.5 17v-262l36 -25v-4h-125z" />
    <glyph glyph-name="ordmasculine" unicode="&#xba;" horiz-adv-x="338" 
d="M31 518q0 62 39.5 106.5t98.5 44.5q58 0 98 -43t40 -103q0 -61 -40 -106.5t-99 -45.5t-98 43t-39 104zM91 521q0 -53 22.5 -90t55.5 -37q32 0 55 37t23 90q0 51 -23 88.5t-55 37.5q-33 0 -55.5 -37.5t-22.5 -88.5z" />
    <glyph glyph-name="guillemotright" unicode="&#xbb;" horiz-adv-x="315" 
d="M165 221l-132 -153l-7 5l74 148l-74 149l7 5zM162 375l132 -154l-132 -153l-7 5l74 148l-74 149z" />
    <glyph glyph-name="onequarter" unicode="&#xbc;" horiz-adv-x="508" 
d="M41 377v4l38 25v207l-41 19v4q5 1 43.5 15t48.5 17v-262l36 -25v-4h-125zM453 662h36l-434 -662h-36zM479 3v-3h-117v3l34 23v50h-141v9l160 202h31v-179h58l-21 -32h-37v-50zM396 108v116l-91 -116h91z" />
    <glyph glyph-name="onehalf" unicode="&#xbd;" horiz-adv-x="528" 
d="M453 662h36l-434 -662h-36zM41 377v4l38 25v207l-41 19v4q5 1 43.5 15t48.5 17v-262l36 -25v-4h-125zM508 86h5v-86h-205v10q96 116 112 144t16 51t-13.5 37t-36.5 14q-39 0 -62 -28l-7 3q27 60 89 60q39 0 62 -22t23 -56q0 -38 -32 -76t-99 -95h117z" />
    <glyph glyph-name="threequarters" unicode="&#xbe;" horiz-adv-x="532" 
d="M446 662h36l-434 -662h-36zM45 532q38 20 55 35.5t17 36.5q0 31 -37 31q-28 0 -54 -23l-3 4q20 52 82 52q29 0 46 -13.5t17 -38.5q0 -37 -53 -59q33 -3 56.5 -20.5t23.5 -50.5q0 -49 -47 -81.5t-130 -36.5l-3 6q125 45 125 103q0 49 -64 49q-14 0 -28 -2zM472 3v-3h-117
v3l34 23v50h-141v9l160 202h31v-179h58l-21 -32h-37v-50zM389 108v116l-91 -116h91z" />
    <glyph glyph-name="questiondown" unicode="&#xbf;" horiz-adv-x="329" 
d="M30 -147q0 34 13 60.5t49 64.5q34 34 64 68q18 19 24 32.5t6 36.5q0 4 -4 80h12q38 -94 38 -121q0 -16 -6.5 -28.5t-27.5 -36.5q-6 -7 -26.5 -30t-30.5 -35q-40 -47 -40 -90t24 -65.5t62 -22.5q37 0 64.5 24.5t38.5 49.5h5v-92q-28 -12 -107 -12q-63 0 -110.5 27.5
t-47.5 89.5zM232 370q0 -20 -13 -32.5t-33 -12.5t-32.5 12.5t-12.5 32.5t12.5 33t32.5 13t33 -13t13 -33z" />
    <glyph glyph-name="Agrave" unicode="&#xc0;" horiz-adv-x="633" 
d="M164 6v-6h-157v6l55 46l240 625h7l261 -625l56 -46v-6h-202v6l68 46l-101 241h-202l-93 -242zM199 321h181l-94 225zM413 704l-219 79l27 55l197 -125z" />
    <glyph glyph-name="Aacute" unicode="&#xc1;" horiz-adv-x="633" 
d="M164 6v-6h-157v6l55 46l240 625h7l261 -625l56 -46v-6h-202v6l68 46l-101 241h-202l-93 -242zM199 321h181l-94 225zM202 704l-5 9l197 125l27 -55z" />
    <glyph glyph-name="Acircumflex" unicode="&#xc2;" horiz-adv-x="633" 
d="M164 6v-6h-157v6l55 46l240 625h7l261 -625l56 -46v-6h-202v6l68 46l-101 241h-202l-93 -242zM199 321h181l-94 225zM306 830l134 -114l-4 -7l-130 55l-133 -55l-5 7z" />
    <glyph glyph-name="Atilde" unicode="&#xc3;" horiz-adv-x="633" 
d="M164 6v-6h-157v6l55 46l240 625h7l261 -625l56 -46v-6h-202v6l68 46l-101 241h-202l-93 -242zM199 321h181l-94 225zM251 800q12 0 66 -9.5t66 -9.5q6 0 13.5 3.5t15.5 10.5t13.5 12.5l13.5 13.5l9 9l5 -3q-6 -15 -16 -34t-27.5 -40t-32.5 -21q-17 0 -68.5 9.5t-61.5 9.5
q-24 0 -65 -50l-6 3q42 96 75 96z" />
    <glyph glyph-name="Adieresis" unicode="&#xc4;" horiz-adv-x="633" 
d="M164 6v-6h-157v6l55 46l240 625h7l261 -625l56 -46v-6h-202v6l68 46l-101 241h-202l-93 -242zM199 321h181l-94 225zM355 767q0 17 11.5 28.5t28.5 11.5q16 0 28 -11.5t12 -28.5t-12 -28.5t-28 -11.5q-17 0 -28.5 11.5t-11.5 28.5zM179 767q0 17 11.5 28.5t28.5 11.5
q16 0 28 -11.5t12 -28.5t-12 -28.5t-28 -11.5q-17 0 -28.5 11.5t-11.5 28.5z" />
    <glyph glyph-name="Aring" unicode="&#xc5;" horiz-adv-x="633" 
d="M164 6v-6h-157v6l55 46l240 625h7l261 -625l56 -46v-6h-202v6l68 46l-101 241h-202l-93 -242zM199 321h181l-94 225zM257 776q0 -21 13.5 -36t34.5 -15t34.5 15t13.5 36t-13.5 36t-34.5 15t-34.5 -15t-13.5 -36zM229 776q0 32 22.5 53.5t53.5 21.5q32 0 54 -21.5
t22 -53.5q0 -33 -21.5 -54t-54.5 -21t-54.5 21t-21.5 54z" />
    <glyph glyph-name="AE" unicode="&#xc6;" horiz-adv-x="856" 
d="M307 656v6h468v-112h-6l-63 84h-212v-266h217l42 68h5v-163h-5l-42 67h-217v-311h232l69 103h6v-132h-449v6l65 46v270h-173l-158 -271l68 -45v-6h-160v6l55 46l325 558zM260 350h157v269z" />
    <glyph glyph-name="Ccedilla" unicode="&#xc7;" horiz-adv-x="670" 
d="M396 -11h-7l-34 -67q29 -7 51.5 -27.5t22.5 -52.5q0 -42 -36.5 -71t-106.5 -56l-5 9q98 60 98 106q0 24 -21.5 37t-44.5 16l-2 3q5 10 14.5 28.5t14.5 27.5q4 7 10.5 20l9.5 19l4 9q-59 5 -110 24q-98 37 -155 119.5t-57 193.5q0 90 40.5 168t122.5 128t190 50
q99 0 205 -30v-98h-4q-69 99 -201 99q-124 0 -195.5 -90t-71.5 -220q0 -135 78 -225.5t193 -90.5q123 0 211 106h5v-88q-91 -47 -219 -47z" />
    <glyph glyph-name="Egrave" unicode="&#xc8;" horiz-adv-x="558" 
d="M396 704l-219 79l27 55l197 -125zM49 0v6l65 46v558l-65 46v6h430v-111h-6l-63 83h-219v-266h225l42 68h5v-164h-5l-42 67h-225v-310h239l68 102h6v-131h-455z" />
    <glyph glyph-name="Eacute" unicode="&#xc9;" horiz-adv-x="558" 
d="M189 704l-5 9l197 125l27 -55zM49 0v6l65 46v558l-65 46v6h430v-111h-6l-63 83h-219v-266h225l42 68h5v-164h-5l-42 67h-225v-310h239l68 102h6v-131h-455z" />
    <glyph glyph-name="Ecircumflex" unicode="&#xca;" horiz-adv-x="558" 
d="M285 830l134 -114l-4 -7l-130 55l-133 -55l-5 7zM49 0v6l65 46v558l-65 46v6h430v-111h-6l-63 83h-219v-266h225l42 68h5v-164h-5l-42 67h-225v-310h239l68 102h6v-131h-455z" />
    <glyph glyph-name="Edieresis" unicode="&#xcb;" horiz-adv-x="558" 
d="M49 0v6l65 46v558l-65 46v6h430v-111h-6l-63 83h-219v-266h225l42 68h5v-164h-5l-42 67h-225v-310h239l68 102h6v-131h-455zM337 767q0 17 11.5 28.5t28.5 11.5q16 0 28 -11.5t12 -28.5t-12 -28.5t-28 -11.5q-17 0 -28.5 11.5t-11.5 28.5zM161 767q0 17 11.5 28.5
t28.5 11.5q16 0 28 -11.5t12 -28.5t-12 -28.5t-28 -11.5q-17 0 -28.5 11.5t-11.5 28.5z" />
    <glyph glyph-name="Igrave" unicode="&#xcc;" horiz-adv-x="305" 
d="M49 0v6l65 46v558l-65 46v6h207v-6l-65 -46v-558l65 -46v-6h-207zM260 704l-219 79l27 55l197 -125z" />
    <glyph glyph-name="Iacute" unicode="&#xcd;" horiz-adv-x="305" 
d="M49 0v6l65 46v558l-65 46v6h207v-6l-65 -46v-558l65 -46v-6h-207zM47 704l-5 9l197 125l27 -55z" />
    <glyph glyph-name="Icircumflex" unicode="&#xce;" horiz-adv-x="305" 
d="M49 0v6l65 46v558l-65 46v6h207v-6l-65 -46v-558l65 -46v-6h-207zM152 830l134 -114l-4 -7l-130 55l-133 -55l-5 7z" />
    <glyph glyph-name="Idieresis" unicode="&#xcf;" horiz-adv-x="305" 
d="M49 0v6l65 46v558l-65 46v6h207v-6l-65 -46v-558l65 -46v-6h-207zM200 767q0 17 11.5 28.5t28.5 11.5q16 0 28 -11.5t12 -28.5t-12 -28.5t-28 -11.5q-17 0 -28.5 11.5t-11.5 28.5zM24 767q0 17 11.5 28.5t28.5 11.5q16 0 28 -11.5t12 -28.5t-12 -28.5t-28 -11.5
q-17 0 -28.5 11.5t-11.5 28.5z" />
    <glyph glyph-name="Eth" unicode="&#xd0;" horiz-adv-x="716" 
d="M25 352h88v258l-66 46v6h257q160 0 266 -87.5t106 -240.5q0 -148 -96 -241t-252 -93h-281v6l66 46v270h-88v30zM190 322v-270l1 1q46 -25 139 -25q117 0 188 81.5t71 225.5q0 134 -80 217t-200 83h-119v-283h218v-30h-218z" />
    <glyph glyph-name="Ntilde" unicode="&#xd1;" horiz-adv-x="763" 
d="M346 800q12 0 66 -9.5t66 -9.5q6 0 13.5 3.5t15.5 10.5t13.5 12.5l13.5 13.5l9 9l5 -3q-6 -15 -16 -34t-27.5 -40t-32.5 -21q-17 0 -68.5 9.5t-61.5 9.5q-24 0 -65 -50l-6 3q42 96 75 96zM40 0v6l74 51v525q-46 51 -77 74v6h108l474 -543v486l-72 51v6h181v-6l-74 -51
v-605h-25l-480 542v-485l71 -51v-6h-180z" />
    <glyph glyph-name="Ograve" unicode="&#xd2;" horiz-adv-x="739" 
d="M477 704l-219 79l27 55l197 -125zM44 323q0 148 94 249t232 101q137 0 231.5 -95.5t94.5 -241.5t-95.5 -246.5t-231.5 -100.5t-230.5 95t-94.5 239zM131 330q0 -142 68 -227t170 -85t171.5 86t69.5 226q0 141 -69 227.5t-171 86.5q-103 0 -171 -86.5t-68 -227.5z" />
    <glyph glyph-name="Oacute" unicode="&#xd3;" horiz-adv-x="739" 
d="M265 704l-5 9l197 125l27 -55zM44 323q0 148 94 249t232 101q137 0 231.5 -95.5t94.5 -241.5t-95.5 -246.5t-231.5 -100.5t-230.5 95t-94.5 239zM131 330q0 -142 68 -227t170 -85t171.5 86t69.5 226q0 141 -69 227.5t-171 86.5q-103 0 -171 -86.5t-68 -227.5z" />
    <glyph glyph-name="Ocircumflex" unicode="&#xd4;" horiz-adv-x="739" 
d="M370 830l134 -114l-4 -7l-130 55l-133 -55l-5 7zM44 323q0 148 94 249t232 101q137 0 231.5 -95.5t94.5 -241.5t-95.5 -246.5t-231.5 -100.5t-230.5 95t-94.5 239zM131 330q0 -142 68 -227t170 -85t171.5 86t69.5 226q0 141 -69 227.5t-171 86.5q-103 0 -171 -86.5
t-68 -227.5z" />
    <glyph glyph-name="Otilde" unicode="&#xd5;" horiz-adv-x="739" 
d="M307 800q12 0 66 -9.5t66 -9.5q6 0 13.5 3.5t15.5 10.5t13.5 12.5l13.5 13.5l9 9l5 -3q-6 -15 -16 -34t-27.5 -40t-32.5 -21q-17 0 -68.5 9.5t-61.5 9.5q-24 0 -65 -50l-6 3q42 96 75 96zM44 323q0 148 94 249t232 101q137 0 231.5 -95.5t94.5 -241.5t-95.5 -246.5
t-231.5 -100.5t-230.5 95t-94.5 239zM131 330q0 -142 68 -227t170 -85t171.5 86t69.5 226q0 141 -69 227.5t-171 86.5q-103 0 -171 -86.5t-68 -227.5z" />
    <glyph glyph-name="Odieresis" unicode="&#xd6;" horiz-adv-x="739" 
d="M418 767q0 17 11.5 28.5t28.5 11.5q16 0 28 -11.5t12 -28.5t-12 -28.5t-28 -11.5q-17 0 -28.5 11.5t-11.5 28.5zM242 767q0 17 11.5 28.5t28.5 11.5q16 0 28 -11.5t12 -28.5t-12 -28.5t-28 -11.5q-17 0 -28.5 11.5t-11.5 28.5zM44 323q0 148 94 249t232 101
q137 0 231.5 -95.5t94.5 -241.5t-95.5 -246.5t-231.5 -100.5t-230.5 95t-94.5 239zM131 330q0 -142 68 -227t170 -85t171.5 86t69.5 226q0 141 -69 227.5t-171 86.5q-103 0 -171 -86.5t-68 -227.5z" />
    <glyph glyph-name="multiply" unicode="&#xd7;" horiz-adv-x="418" 
d="M54 107l134 137l-134 138l22 21l133 -137l134 137l21 -20l-134 -138l134 -138l-21 -21l-134 137l-133 -137z" />
    <glyph glyph-name="Oslash" unicode="&#xd8;" horiz-adv-x="739" 
d="M44 323q0 148 94 249t232 101q95 0 169 -47l51 79l24 -14l-51 -81q133 -100 133 -274q0 -146 -95.5 -246.5t-231.5 -100.5q-97 0 -173 49l-61 -96l-24 16l61 96q-128 97 -128 269zM610 330q0 144 -76 235l-312 -487q62 -60 147 -60q102 0 171.5 86t69.5 226zM131 330
q0 -142 70 -230l313 486q-63 58 -144 58q-103 0 -171 -86.5t-68 -227.5z" />
    <glyph glyph-name="Ugrave" unicode="&#xd9;" horiz-adv-x="714" 
d="M487 704l-219 79l27 55l197 -125zM618 233q0 -110 -70 -177t-177 -67q-123 0 -198.5 60t-75.5 185v376l-66 46v6h208v-6l-65 -46v-376q0 -101 57 -151t152 -50q92 0 145.5 55.5t53.5 146.5v375l-64 46v6h165v-6l-65 -46v-377z" />
    <glyph glyph-name="Uacute" unicode="&#xda;" horiz-adv-x="714" 
d="M282 704l-5 9l197 125l27 -55zM618 233q0 -110 -70 -177t-177 -67q-123 0 -198.5 60t-75.5 185v376l-66 46v6h208v-6l-65 -46v-376q0 -101 57 -151t152 -50q92 0 145.5 55.5t53.5 146.5v375l-64 46v6h165v-6l-65 -46v-377z" />
    <glyph glyph-name="Ucircumflex" unicode="&#xdb;" horiz-adv-x="714" 
d="M386 830l134 -114l-4 -7l-130 55l-133 -55l-5 7zM618 233q0 -110 -70 -177t-177 -67q-123 0 -198.5 60t-75.5 185v376l-66 46v6h208v-6l-65 -46v-376q0 -101 57 -151t152 -50q92 0 145.5 55.5t53.5 146.5v375l-64 46v6h165v-6l-65 -46v-377z" />
    <glyph glyph-name="Udieresis" unicode="&#xdc;" horiz-adv-x="714" 
d="M618 233q0 -110 -70 -177t-177 -67q-123 0 -198.5 60t-75.5 185v376l-66 46v6h208v-6l-65 -46v-376q0 -101 57 -151t152 -50q92 0 145.5 55.5t53.5 146.5v375l-64 46v6h165v-6l-65 -46v-377zM433 767q0 17 11.5 28.5t28.5 11.5q16 0 28 -11.5t12 -28.5t-12 -28.5
t-28 -11.5q-17 0 -28.5 11.5t-11.5 28.5zM257 767q0 17 11.5 28.5t28.5 11.5q16 0 28 -11.5t12 -28.5t-12 -28.5t-28 -11.5q-17 0 -28.5 11.5t-11.5 28.5z" />
    <glyph glyph-name="Yacute" unicode="&#xdd;" horiz-adv-x="587" 
d="M424 656v6h156v-6l-55 -46l-186 -282v-277l65 -45v-6h-208v6l66 45v261l-201 298l-54 46v6h211v-6l-67 -46l169 -257l171 258zM230 704l-5 9l197 125l27 -55z" />
    <glyph glyph-name="Thorn" unicode="&#xde;" horiz-adv-x="543" 
d="M192 501h89q99 0 163.5 -34t64.5 -108q0 -84 -78 -130t-192 -44v9q45 6 85 21.5t72.5 50t32.5 80.5q0 128 -186 128h-51v-422l64 -46v-6h-207v6l65 46v558l-65 46v6h208v-6l-65 -46v-109z" />
    <glyph glyph-name="germandbls" unicode="&#xdf;" horiz-adv-x="501" 
d="M286 716q63 0 98.5 -33.5t35.5 -86.5q0 -33 -20.5 -65.5t-45 -54t-45 -47t-20.5 -46.5q0 -18 12 -36t22 -27t44 -37q63 -50 87 -81t24 -76q0 -58 -38.5 -97t-99.5 -39q-62 0 -109 27q-8 44 -6 114h7q37 -111 110 -111q34 0 55.5 25t21.5 61q0 31 -17.5 52t-59.5 55
q-9 7 -13 10q-46 36 -67 63t-21 65q0 28 18 57.5t39.5 51.5t39.5 57.5t18 74.5q0 46 -24.5 69.5t-62.5 23.5q-53 0 -86.5 -47.5t-33.5 -146.5v-443l57 -42v-6h-187v6l61 42v314h-59v7l59 35v47q0 115 59 190t147 75z" />
    <glyph glyph-name="agrave" unicode="&#xe0;" horiz-adv-x="395" 
d="M252 296q0 38 -18 61t-55 23q-41 0 -67 -34v-56l-71 20v5q21 25 31 35.5t34 30.5t50.5 29t57.5 9q49 0 77 -27t28 -67q0 -37 -2 -144t-2 -115q37 -26 75 -35v-6l-57 -39q-51 19 -79 52q-62 -49 -104 -49q-52 0 -83.5 28t-31.5 70q0 27 11.5 44t25.5 22q4 1 28 9t68 23
t84 28v83zM251 60q0 20 0.5 59.5t0.5 61.5q-29 -9 -84.5 -29t-59.5 -22q-9 -5 -9 -30q0 -27 19.5 -46t54.5 -19q48 0 78 25zM231 497l-149 180l56 34l102 -209z" />
    <glyph glyph-name="aacute" unicode="&#xe1;" horiz-adv-x="395" 
d="M252 296q0 38 -18 61t-55 23q-41 0 -67 -34v-56l-71 20v5q21 25 31 35.5t34 30.5t50.5 29t57.5 9q49 0 77 -27t28 -67q0 -37 -2 -144t-2 -115q37 -26 75 -35v-6l-57 -39q-51 19 -79 52q-62 -49 -104 -49q-52 0 -83.5 28t-31.5 70q0 27 11.5 44t25.5 22q4 1 28 9t68 23
t84 28v83zM251 60q0 20 0.5 59.5t0.5 61.5q-29 -9 -84.5 -29t-59.5 -22q-9 -5 -9 -30q0 -27 19.5 -46t54.5 -19q48 0 78 25zM145 497l-9 5l102 210l56 -35z" />
    <glyph glyph-name="acircumflex" unicode="&#xe2;" horiz-adv-x="395" 
d="M252 296q0 38 -18 61t-55 23q-41 0 -67 -34v-56l-71 20v5q21 25 31 35.5t34 30.5t50.5 29t57.5 9q49 0 77 -27t28 -67q0 -37 -2 -144t-2 -115q37 -26 75 -35v-6l-57 -39q-51 19 -79 52q-62 -49 -104 -49q-52 0 -83.5 28t-31.5 70q0 27 11.5 44t25.5 22q4 1 28 9t68 23
t84 28v83zM251 60q0 20 0.5 59.5t0.5 61.5q-29 -9 -84.5 -29t-59.5 -22q-9 -5 -9 -30q0 -27 19.5 -46t54.5 -19q48 0 78 25zM189 705l102 -214l-8 -5l-94 113l-94 -113l-8 5z" />
    <glyph glyph-name="atilde" unicode="&#xe3;" horiz-adv-x="395" 
d="M252 296q0 38 -18 61t-55 23q-41 0 -67 -34v-56l-71 20v5q21 25 31 35.5t34 30.5t50.5 29t57.5 9q49 0 77 -27t28 -67q0 -37 -2 -144t-2 -115q37 -26 75 -35v-6l-57 -39q-51 19 -79 52q-62 -49 -104 -49q-52 0 -83.5 28t-31.5 70q0 27 11.5 44t25.5 22q4 1 28 9t68 23
t84 28v83zM251 60q0 20 0.5 59.5t0.5 61.5q-29 -9 -84.5 -29t-59.5 -22q-9 -5 -9 -30q0 -27 19.5 -46t54.5 -19q48 0 78 25zM139 608q13 0 59.5 -13t56.5 -13q19 0 57 51l7 -3q-10 -31 -30 -64t-37 -33q-16 0 -60.5 13t-54.5 13q-17 0 -57 -50l-7 3q12 34 30 65t36 31z" />
    <glyph glyph-name="adieresis" unicode="&#xe4;" horiz-adv-x="395" 
d="M252 296q0 38 -18 61t-55 23q-41 0 -67 -34v-56l-71 20v5q21 25 31 35.5t34 30.5t50.5 29t57.5 9q49 0 77 -27t28 -67q0 -37 -2 -144t-2 -115q37 -26 75 -35v-6l-57 -39q-51 19 -79 52q-62 -49 -104 -49q-52 0 -83.5 28t-31.5 70q0 27 11.5 44t25.5 22q4 1 28 9t68 23
t84 28v83zM251 60q0 20 0.5 59.5t0.5 61.5q-29 -9 -84.5 -29t-59.5 -22q-9 -5 -9 -30q0 -27 19.5 -46t54.5 -19q48 0 78 25zM233 584q0 17 11 28t28 11q16 0 27.5 -11t11.5 -28t-11.5 -28t-27.5 -11q-17 0 -28 11t-11 28zM110 623q16 0 27.5 -11t11.5 -28t-11.5 -28
t-27.5 -11q-17 0 -28 11t-11 28t11 28t28 11z" />
    <glyph glyph-name="aring" unicode="&#xe5;" horiz-adv-x="395" 
d="M252 295q0 38 -18 61t-55 23q-41 0 -67 -34v-56l-71 20v5q21 25 31 35.5t34 30.5t50.5 29t57.5 9q49 0 77 -27t28 -67q0 -37 -2 -144t-2 -115q37 -26 75 -35v-6l-57 -39q-51 19 -79 52q-62 -49 -104 -49q-52 0 -83.5 28t-31.5 70q0 27 11.5 44t25.5 22q4 1 28 9t68 23
t84 28v83zM251 59q0 20 0.5 59.5t0.5 61.5q-29 -9 -84.5 -29t-59.5 -22q-9 -5 -9 -30q0 -27 19.5 -46t54.5 -19q48 0 78 25zM140 574q0 -21 13.5 -36t34.5 -15t34.5 15t13.5 36t-13.5 36t-34.5 15t-34.5 -15t-13.5 -36zM112 574q0 32 22.5 53.5t53.5 21.5q32 0 54 -21.5
t22 -53.5q0 -33 -21.5 -54t-54.5 -21t-54.5 21t-21.5 54z" />
    <glyph glyph-name="ae" unicode="&#xe6;" horiz-adv-x="589" 
d="M64 156q4 2 28.5 10.5t70 24t82.5 28.5q0 19 0.5 45t0.5 34q0 82 -71 82q-40 0 -66 -34v-56l-70 20v5q18 21 24 27.5t26.5 25.5t35 27t37.5 16t47 8q36 0 62 -16.5t36 -43.5q57 57 119 57q102 0 146 -108v-2l-258 -94q2 -79 45.5 -125.5t105.5 -46.5q55 0 104 22l4 -7
q-23 -23 -64 -44t-84 -21q-91 0 -141 71q-66 -72 -125 -72t-92.5 27t-33.5 71q0 52 31 69zM175 35q47 0 98 44q-26 46 -28 111q-93 -42 -138 -55q-10 -6 -10 -34q0 -29 19 -47.5t59 -18.5zM421 387q-33 0 -67 -39t-39 -107l178 70q-4 30 -23 53t-49 23z" />
    <glyph glyph-name="ccedilla" unicode="&#xe7;" horiz-adv-x="403" 
d="M243 415q56 0 120 -16v-87h-5q-54 74 -130 74q-60 0 -96.5 -49.5t-36.5 -116.5q0 -86 48.5 -133.5t122.5 -47.5q69 0 116 32l3 -7q-40 -52 -103 -67q-20 -5 -51 -7l-35 -68q29 -7 51.5 -27.5t22.5 -52.5q0 -42 -36.5 -71t-106.5 -56l-5 9q98 60 98 106q0 24 -21.5 37
t-44.5 16l-2 3q5 10 14.5 28.5t14.5 27.5q4 7 10.5 20l9.5 19l2 4t2 3.5t1 2.5q-32 3 -57 13q-56 21 -89 70.5t-33 121.5q0 91 58 155t158 64z" />
    <glyph glyph-name="egrave" unicode="&#xe8;" horiz-adv-x="380" 
d="M96 218q0 -84 44.5 -131t112.5 -47q59 0 108 22l4 -7q-23 -23 -65.5 -44t-85.5 -21q-83 0 -135 55.5t-52 152.5q0 88 53.5 153t130.5 65q33 0 59 -11.5t42.5 -32.5t25.5 -40.5t18 -45.5v-1h-253q-7 -35 -7 -67zM207 387q-66 0 -95 -75h167q-3 40 -25 57.5t-47 17.5z
M241 497l-149 180l56 34l102 -209z" />
    <glyph glyph-name="eacute" unicode="&#xe9;" horiz-adv-x="380" 
d="M162 497l-9 5l102 210l56 -35zM96 218q0 -84 44.5 -131t112.5 -47q59 0 108 22l4 -7q-23 -23 -65.5 -44t-85.5 -21q-83 0 -135 55.5t-52 152.5q0 88 53.5 153t130.5 65q33 0 59 -11.5t42.5 -32.5t25.5 -40.5t18 -45.5v-1h-253q-7 -35 -7 -67zM207 387q-66 0 -95 -75h167
q-3 40 -25 57.5t-47 17.5z" />
    <glyph glyph-name="ecircumflex" unicode="&#xea;" horiz-adv-x="380" 
d="M199 705l102 -214l-8 -5l-94 113l-94 -113l-8 5zM96 218q0 -84 44.5 -131t112.5 -47q59 0 108 22l4 -7q-23 -23 -65.5 -44t-85.5 -21q-83 0 -135 55.5t-52 152.5q0 88 53.5 153t130.5 65q33 0 59 -11.5t42.5 -32.5t25.5 -40.5t18 -45.5v-1h-253q-7 -35 -7 -67zM207 387
q-66 0 -95 -75h167q-3 40 -25 57.5t-47 17.5z" />
    <glyph glyph-name="edieresis" unicode="&#xeb;" horiz-adv-x="380" 
d="M243 584q0 17 11 28t28 11q16 0 27.5 -11t11.5 -28t-11.5 -28t-27.5 -11q-17 0 -28 11t-11 28zM120 623q16 0 27.5 -11t11.5 -28t-11.5 -28t-27.5 -11q-17 0 -28 11t-11 28t11 28t28 11zM96 218q0 -84 44.5 -131t112.5 -47q59 0 108 22l4 -7q-23 -23 -65.5 -44t-85.5 -21
q-83 0 -135 55.5t-52 152.5q0 88 53.5 153t130.5 65q33 0 59 -11.5t42.5 -32.5t25.5 -40.5t18 -45.5v-1h-253q-7 -35 -7 -67zM207 387q-66 0 -95 -75h167q-3 40 -25 57.5t-47 17.5z" />
    <glyph glyph-name="igrave" unicode="&#xec;" horiz-adv-x="233" 
d="M22 0v6l60 42v296l-56 27v6l62 24q32 11 62 19v-372l61 -42v-6h-189zM147 497l-149 180l56 34l102 -209z" />
    <glyph glyph-name="iacute" unicode="&#xed;" horiz-adv-x="233" 
d="M77 497l-9 5l102 210l56 -35zM22 0v6l60 42v296l-56 27v6l62 24q32 11 62 19v-372l61 -42v-6h-189z" />
    <glyph glyph-name="icircumflex" unicode="&#xee;" horiz-adv-x="233" 
d="M109 705l102 -214l-8 -5l-94 113l-94 -113l-8 5zM22 0v6l60 42v296l-56 27v6l62 24q32 11 62 19v-372l61 -42v-6h-189z" />
    <glyph glyph-name="idieresis" unicode="&#xef;" horiz-adv-x="233" 
d="M22 0v6l60 42v296l-56 27v6l62 24q32 11 62 19v-372l61 -42v-6h-189zM187 620q16 0 26.5 -11t10.5 -27t-10.5 -26t-26.5 -10t-26 10t-10 26t10 27t26 11zM39 621q15 0 26.5 -11.5t11.5 -27.5q0 -15 -11.5 -26t-26.5 -11q-17 0 -27.5 10.5t-10.5 26.5t10.5 27.5t27.5 11.5
z" />
    <glyph glyph-name="eth" unicode="&#xf0;" horiz-adv-x="456" 
d="M34 719q113 -28 205 -99l101 61l13 -22l-93 -56q163 -139 163 -345q0 -117 -57.5 -192.5t-137.5 -75.5t-141 58.5t-61 158.5q0 88 53 146.5t140 58.5q72 0 115 -41q-30 110 -118 206l-143 -86l-13 22l138 83q-73 73 -166 115zM352 242q0 35 -7 82q-43 58 -117 58
q-59 0 -93 -48t-34 -119q0 -87 39.5 -141.5t87.5 -54.5q51 0 87.5 65.5t36.5 157.5z" />
    <glyph glyph-name="ntilde" unicode="&#xf1;" horiz-adv-x="500" 
d="M22 0v6l60 42v296l-56 26v7l2 1q3 2 9.5 4.5t14.5 5.5t19 7t23 8t27 8.5t29 8.5v-71q72 67 149 67q49 0 86 -30t37 -73v-265l61 -42v-6h-188v6l58 42v239q0 36 -24 60t-70 24q-56 0 -109 -51v-272l61 -42v-6h-189zM199 608q13 0 59.5 -13t56.5 -13q19 0 57 51l7 -3
q-10 -31 -30 -64t-37 -33q-16 0 -60.5 13t-54.5 13q-17 0 -57 -50l-7 3q12 34 30 65t36 31z" />
    <glyph glyph-name="ograve" unicode="&#xf2;" horiz-adv-x="452" 
d="M27 198q0 91 57.5 154.5t140.5 63.5q84 0 142 -60t58 -149q0 -92 -57.5 -154.5t-141.5 -62.5t-141.5 59.5t-57.5 148.5zM101 203q0 -80 36.5 -132t88.5 -52t88 52t36 132q0 77 -37 131t-88 54t-87.5 -53.5t-36.5 -131.5zM256 497l-149 180l56 34l102 -209z" />
    <glyph glyph-name="oacute" unicode="&#xf3;" horiz-adv-x="452" 
d="M181 497l-9 5l102 210l56 -35zM27 198q0 91 57.5 154.5t140.5 63.5q84 0 142 -60t58 -149q0 -92 -57.5 -154.5t-141.5 -62.5t-141.5 59.5t-57.5 148.5zM101 203q0 -80 36.5 -132t88.5 -52t88 52t36 132q0 77 -37 131t-88 54t-87.5 -53.5t-36.5 -131.5z" />
    <glyph glyph-name="ocircumflex" unicode="&#xf4;" horiz-adv-x="452" 
d="M224 705l102 -214l-8 -5l-94 113l-94 -113l-8 5zM27 198q0 91 57.5 154.5t140.5 63.5q84 0 142 -60t58 -149q0 -92 -57.5 -154.5t-141.5 -62.5t-141.5 59.5t-57.5 148.5zM101 203q0 -80 36.5 -132t88.5 -52t88 52t36 132q0 77 -37 131t-88 54t-87.5 -53.5t-36.5 -131.5z
" />
    <glyph glyph-name="otilde" unicode="&#xf5;" horiz-adv-x="452" 
d="M27 198q0 91 57.5 154.5t140.5 63.5q84 0 142 -60t58 -149q0 -92 -57.5 -154.5t-141.5 -62.5t-141.5 59.5t-57.5 148.5zM101 203q0 -80 36.5 -132t88.5 -52t88 52t36 132q0 77 -37 131t-88 54t-87.5 -53.5t-36.5 -131.5zM168 608q13 0 59.5 -13t56.5 -13q19 0 57 51l7 -3
q-10 -31 -30 -64t-37 -33q-16 0 -60.5 13t-54.5 13q-17 0 -57 -50l-7 3q12 34 30 65t36 31z" />
    <glyph glyph-name="odieresis" unicode="&#xf6;" horiz-adv-x="452" 
d="M267 584q0 17 11 28t28 11q16 0 27.5 -11t11.5 -28t-11.5 -28t-27.5 -11q-17 0 -28 11t-11 28zM144 623q16 0 27.5 -11t11.5 -28t-11.5 -28t-27.5 -11q-17 0 -28 11t-11 28t11 28t28 11zM27 198q0 91 57.5 154.5t140.5 63.5q84 0 142 -60t58 -149q0 -92 -57.5 -154.5
t-141.5 -62.5t-141.5 59.5t-57.5 148.5zM101 203q0 -80 36.5 -132t88.5 -52t88 52t36 132q0 77 -37 131t-88 54t-87.5 -53.5t-36.5 -131.5z" />
    <glyph glyph-name="divide" unicode="&#xf7;" horiz-adv-x="467" 
d="M190 86q0 20 13 32.5t31 12.5t30.5 -12.5t12.5 -32.5q0 -18 -13 -30.5t-30 -12.5q-18 0 -31 12.5t-13 30.5zM190 397q0 20 13 33t31 13t30.5 -13t12.5 -33q0 -18 -12.5 -30t-30.5 -12t-31 12t-13 30zM49 261h370v-30h-370v30z" />
    <glyph glyph-name="oslash" unicode="&#xf8;" horiz-adv-x="452" 
d="M26 198q0 91 58 154t142 63q55 0 101 -28l47 73l24 -14l-48 -76q75 -62 75 -163q0 -92 -57.5 -154.5t-141.5 -62.5q-55 0 -101 28l-50 -78l-26 15l52 80q-75 62 -75 163zM351 203q0 72 -30 123l-173 -271q33 -36 78 -36q52 0 88.5 52t36.5 132zM103 203q0 -71 27 -122
l173 270q-34 37 -77 37q-51 0 -87 -53.5t-36 -131.5z" />
    <glyph glyph-name="ugrave" unicode="&#xf9;" horiz-adv-x="486" 
d="M17 370v7l69 25l56 17v-300q0 -35 22.5 -59t65.5 -24q49 0 107 50v256l-64 29v7q-1 0 17 6t51.5 16t64.5 19v-360l67 -25v-7l-70 -18q-14 -4 -40 -10l-26 -7v67q-67 -67 -141 -67q-49 0 -85.5 31.5t-36.5 84.5v235zM270 497l-149 180l56 34l102 -209z" />
    <glyph glyph-name="uacute" unicode="&#xfa;" horiz-adv-x="486" 
d="M205 497l-9 5l102 210l56 -35zM17 370v7l69 25l56 17v-300q0 -35 22.5 -59t65.5 -24q49 0 107 50v256l-64 29v7q-1 0 17 6t51.5 16t64.5 19v-360l67 -25v-7l-70 -18q-14 -4 -40 -10l-26 -7v67q-67 -67 -141 -67q-49 0 -85.5 31.5t-36.5 84.5v235z" />
    <glyph glyph-name="ucircumflex" unicode="&#xfb;" horiz-adv-x="486" 
d="M232 705l102 -214l-8 -5l-94 113l-94 -113l-8 5zM17 370v7l69 25l56 17v-300q0 -35 22.5 -59t65.5 -24q49 0 107 50v256l-64 29v7q-1 0 17 6t51.5 16t64.5 19v-360l67 -25v-7l-70 -18q-14 -4 -40 -10l-26 -7v67q-67 -67 -141 -67q-49 0 -85.5 31.5t-36.5 84.5v235z" />
    <glyph glyph-name="udieresis" unicode="&#xfc;" horiz-adv-x="486" 
d="M276 584q0 17 11 28t28 11q16 0 27.5 -11t11.5 -28t-11.5 -28t-27.5 -11q-17 0 -28 11t-11 28zM153 623q16 0 27.5 -11t11.5 -28t-11.5 -28t-27.5 -11q-17 0 -28 11t-11 28t11 28t28 11zM17 370v7l69 25l56 17v-300q0 -35 22.5 -59t65.5 -24q49 0 107 50v256l-64 29v7
q-1 0 17 6t51.5 16t64.5 19v-360l67 -25v-7l-70 -18q-14 -4 -40 -10l-26 -7v67q-67 -67 -141 -67q-49 0 -85.5 31.5t-36.5 84.5v235z" />
    <glyph glyph-name="yacute" unicode="&#xfd;" horiz-adv-x="419" 
d="M185 -112q-40 -109 -46 -164h-91v5q69 64 114 182l38 98l-149 350l-50 41v6h184v-6l-58 -41l106 -263l98 263l-62 41v6h149v-6l-51 -41zM191 497l-9 5l102 210l56 -35z" />
    <glyph glyph-name="thorn" unicode="&#xfe;" horiz-adv-x="458" 
d="M6 674v8q-1 -1 15.5 5.5t49 18t61.5 19.5v-375q20 26 55 46t75 20q82 0 125 -55.5t43 -139.5q0 -53 -21.5 -104t-74 -89.5t-125.5 -38.5q-36 0 -77 4v-222l93 -40v-6h-222v6l61 40v874zM234 366q-62 0 -102 -40v-288q30 -19 78 -19q67 0 107.5 52t40.5 131q0 80 -35 122
t-89 42z" />
    <glyph glyph-name="ydieresis" unicode="&#xff;" horiz-adv-x="419" 
d="M185 -112q-40 -109 -46 -164h-91v5q69 64 114 182l38 98l-149 350l-50 41v6h184v-6l-58 -41l106 -263l98 263l-62 41v6h149v-6l-51 -41zM265 584q0 17 11 28t28 11q16 0 27.5 -11t11.5 -28t-11.5 -28t-27.5 -11q-17 0 -28 11t-11 28zM142 623q16 0 27.5 -11t11.5 -28
t-11.5 -28t-27.5 -11q-17 0 -28 11t-11 28t11 28t28 11z" />
    <glyph glyph-name="Amacron" unicode="&#x100;" horiz-adv-x="633" 
d="M164 6v-6h-157v6l55 46l240 625h7l261 -625l56 -46v-6h-202v6l68 46l-101 241h-202l-93 -242zM199 321h181l-94 225zM199 770h217v-41h-217v41z" />
    <glyph glyph-name="amacron" unicode="&#x101;" horiz-adv-x="395" 
d="M252 296q0 38 -18 61t-55 23q-41 0 -67 -34v-56l-71 20v5q21 25 31 35.5t34 30.5t50.5 29t57.5 9q49 0 77 -27t28 -67q0 -37 -2 -144t-2 -115q37 -26 75 -35v-6l-57 -39q-51 19 -79 52q-62 -49 -104 -49q-52 0 -83.5 28t-31.5 70q0 27 11.5 44t25.5 22q4 1 28 9t68 23
t84 28v83zM251 60q0 20 0.5 59.5t0.5 61.5q-29 -9 -84.5 -29t-59.5 -22q-9 -5 -9 -30q0 -27 19.5 -46t54.5 -19q48 0 78 25zM88 577h191v-40h-191v40z" />
    <glyph glyph-name="Abreve" unicode="&#x102;" horiz-adv-x="633" 
d="M164 6v-6h-157v6l55 46l240 625h7l261 -625l56 -46v-6h-202v6l68 46l-101 241h-202l-93 -242zM199 321h181l-94 225zM307 715q-47 0 -76 34.5t-33 83.5l7 1q32 -66 102 -66q68 0 102 66l7 -1q-4 -48 -33 -83t-76 -35z" />
    <glyph glyph-name="abreve" unicode="&#x103;" horiz-adv-x="395" 
d="M252 296q0 38 -18 61t-55 23q-41 0 -67 -34v-56l-71 20v5q21 25 31 35.5t34 30.5t50.5 29t57.5 9q49 0 77 -27t28 -67q0 -37 -2 -144t-2 -115q37 -26 75 -35v-6l-57 -39q-51 19 -79 52q-62 -49 -104 -49q-52 0 -83.5 28t-31.5 70q0 27 11.5 44t25.5 22q4 1 28 9t68 23
t84 28v83zM251 60q0 20 0.5 59.5t0.5 61.5q-29 -9 -84.5 -29t-59.5 -22q-9 -5 -9 -30q0 -27 19.5 -46t54.5 -19q48 0 78 25zM191 561q63 0 87 72l8 -1q0 -53 -25 -88t-70 -35q-47 0 -71 33.5t-24 89.5l8 1q20 -72 87 -72z" />
    <glyph glyph-name="Aogonek" unicode="&#x104;" horiz-adv-x="633" 
d="M286 546l-86 -225h180zM392 292h-204l-92 -241l68 -45v-6h-157v6l55 46l240 625h7l261 -625l56 -46v-6h-93q-99 -92 -99 -173q0 -70 73 -70q25 0 50 11l4 -5q-1 -1 -11.5 -10.5t-19 -15.5t-25.5 -12t-36 -6q-44 0 -70.5 27.5t-26.5 70.5q0 89 142 183z" />
    <glyph glyph-name="aogonek" unicode="&#x105;" horiz-adv-x="395" 
d="M315 66q37 -26 75 -35v-6q-58 -35 -99.5 -88.5t-41.5 -109.5q0 -70 73 -70q27 0 49 11l4 -5q-1 -1 -11.5 -10.5t-19 -15.5t-25.5 -12t-36 -6q-42 0 -69 28t-27 70q0 89 131 176q-38 15 -64 45q-62 -49 -104 -49q-52 0 -83.5 28t-31.5 70q0 27 11.5 44t25.5 22q4 1 28 9
t68 23t84 28v83q0 38 -18 61t-55 23q-41 0 -67 -34v-56l-71 20v5q21 25 31 35.5t34 30.5t50.5 29t57.5 9q49 0 77 -27t28 -67q0 -37 -2 -144t-2 -115zM173 35q48 0 78 25q0 20 0.5 59.5t0.5 61.5q-29 -9 -84.5 -29t-59.5 -22q-9 -5 -9 -30q0 -27 19.5 -46t54.5 -19z" />
    <glyph glyph-name="Cacute" unicode="&#x106;" horiz-adv-x="670" 
d="M396 -11q-154 0 -254 94.5t-100 243.5q0 90 40.5 168t122.5 128t190 50q99 0 205 -30v-98h-4q-69 99 -201 99q-124 0 -195.5 -90t-71.5 -220q0 -135 78 -225.5t193 -90.5q123 0 211 106h5v-88q-91 -47 -219 -47zM281 704l-5 9l197 125l27 -55z" />
    <glyph glyph-name="cacute" unicode="&#x107;" horiz-adv-x="403" 
d="M188 497l-9 5l102 210l56 -35zM243 415q56 0 120 -16v-87h-5q-54 74 -130 74q-60 0 -96.5 -49.5t-36.5 -116.5q0 -86 48.5 -133.5t122.5 -47.5q69 0 116 32l3 -7q-56 -74 -159 -74q-84 0 -141.5 55.5t-57.5 150.5q0 91 58 155t158 64z" />
    <glyph glyph-name="Ccircumflex" unicode="&#x108;" horiz-adv-x="670" 
d="M386 830l134 -114l-4 -7l-130 55l-133 -55l-5 7zM396 -11q-154 0 -254 94.5t-100 243.5q0 90 40.5 168t122.5 128t190 50q99 0 205 -30v-98h-4q-69 99 -201 99q-124 0 -195.5 -90t-71.5 -220q0 -135 78 -225.5t193 -90.5q123 0 211 106h5v-88q-91 -47 -219 -47z" />
    <glyph glyph-name="ccircumflex" unicode="&#x109;" horiz-adv-x="403" 
d="M219 705l102 -214l-8 -5l-94 113l-94 -113l-8 5zM243 415q56 0 120 -16v-87h-5q-54 74 -130 74q-60 0 -96.5 -49.5t-36.5 -116.5q0 -86 48.5 -133.5t122.5 -47.5q69 0 116 32l3 -7q-56 -74 -159 -74q-84 0 -141.5 55.5t-57.5 150.5q0 91 58 155t158 64z" />
    <glyph glyph-name="Cdotaccent" unicode="&#x10a;" horiz-adv-x="670" 
d="M396 -11q-154 0 -254 94.5t-100 243.5q0 90 40.5 168t122.5 128t190 50q99 0 205 -30v-98h-4q-69 99 -201 99q-124 0 -195.5 -90t-71.5 -220q0 -135 78 -225.5t193 -90.5q123 0 211 106h5v-88q-91 -47 -219 -47zM387 727q-17 0 -29.5 12t-12.5 30t12.5 30t29.5 12
t29.5 -12t12.5 -30t-12.5 -30t-29.5 -12z" />
    <glyph glyph-name="cdotaccent" unicode="&#x10b;" horiz-adv-x="403" 
d="M243 415q56 0 120 -16v-87h-5q-54 74 -130 74q-60 0 -96.5 -49.5t-36.5 -116.5q0 -86 48.5 -133.5t122.5 -47.5q69 0 116 32l3 -7q-56 -74 -159 -74q-84 0 -141.5 55.5t-57.5 150.5q0 91 58 155t158 64zM259 587q0 -18 -12.5 -30t-29.5 -12t-29.5 12t-12.5 30t12.5 30
t29.5 12t29.5 -12t12.5 -30z" />
    <glyph glyph-name="Ccaron" unicode="&#x10c;" horiz-adv-x="670" 
d="M253 826l133 -55l130 55l4 -7l-134 -114l-138 114zM396 -11q-154 0 -254 94.5t-100 243.5q0 90 40.5 168t122.5 128t190 50q99 0 205 -30v-98h-4q-69 99 -201 99q-124 0 -195.5 -90t-71.5 -220q0 -135 78 -225.5t193 -90.5q123 0 211 106h5v-88q-91 -47 -219 -47z" />
    <glyph glyph-name="ccaron" unicode="&#x10d;" horiz-adv-x="403" 
d="M124 704l94 -113l94 113l8 -5l-102 -214l-102 214zM243 415q56 0 120 -16v-87h-5q-54 74 -130 74q-60 0 -96.5 -49.5t-36.5 -116.5q0 -86 48.5 -133.5t122.5 -47.5q69 0 116 32l3 -7q-56 -74 -159 -74q-84 0 -141.5 55.5t-57.5 150.5q0 91 58 155t158 64z" />
    <glyph glyph-name="Dcaron" unicode="&#x10e;" horiz-adv-x="716" 
d="M200 826l133 -55l130 55l4 -7l-134 -114l-138 114zM305 662q160 0 266 -87.5t106 -240.5q0 -148 -96 -241t-252 -93h-281v6l66 46v558l-66 46v6h257zM191 635v-582q48 -25 140 -25q117 0 188 81.5t71 225.5q0 134 -80 217t-200 83h-119z" />
    <glyph glyph-name="dcaron" unicode="&#x10f;" horiz-adv-x="470" 
d="M447 511l23 204h59l-71 -204h-11zM259 675v7l21 7q70 24 114 36v-666l68 -25v-7q-52 -13 -71 -18l-65 -16v53q-20 -22 -53.5 -39t-58.5 -17q-82 0 -134.5 58t-52.5 142q0 92 59 159t164 67q51 0 75 -6v237zM244 38q53 0 81 31v297q-35 22 -77 22q-65 0 -106.5 -52.5
t-41.5 -129.5q0 -79 40.5 -123.5t103.5 -44.5z" />
    <glyph glyph-name="Dcroat" unicode="&#x110;" horiz-adv-x="716" 
d="M25 352h88v258l-66 46v6h257q160 0 266 -87.5t106 -240.5q0 -148 -96 -241t-252 -93h-281v6l66 46v270h-88v30zM190 322v-270l1 1q46 -25 139 -25q117 0 188 81.5t71 225.5q0 134 -80 217t-200 83h-119v-283h218v-30h-218z" />
    <glyph glyph-name="dcroat" unicode="&#x111;" horiz-adv-x="470" 
d="M155 539v27h322v-27h-322zM259 675v7l21 7q70 24 114 36v-666l68 -25v-7q-52 -13 -71 -18l-65 -16v53q-20 -22 -53.5 -39t-58.5 -17q-82 0 -134.5 58t-52.5 142q0 92 59 159t164 67q51 0 75 -6v237zM244 38q53 0 81 31v297q-35 22 -77 22q-65 0 -106.5 -52.5
t-41.5 -129.5q0 -79 40.5 -123.5t103.5 -44.5z" />
    <glyph glyph-name="Emacron" unicode="&#x112;" horiz-adv-x="558" 
d="M49 0v6l65 46v558l-65 46v6h430v-111h-6l-63 83h-219v-266h225l42 68h5v-164h-5l-42 67h-225v-310h239l68 102h6v-131h-455zM185 770h217v-41h-217v41z" />
    <glyph glyph-name="emacron" unicode="&#x113;" horiz-adv-x="380" 
d="M96 218q0 -84 44.5 -131t112.5 -47q59 0 108 22l4 -7q-23 -23 -65.5 -44t-85.5 -21q-83 0 -135 55.5t-52 152.5q0 88 53.5 153t130.5 65q33 0 59 -11.5t42.5 -32.5t25.5 -40.5t18 -45.5v-1h-253q-7 -35 -7 -67zM207 387q-66 0 -95 -75h167q-3 40 -25 57.5t-47 17.5z
M109 577h191v-40h-191v40z" />
    <glyph glyph-name="Ebreve" unicode="&#x114;" horiz-adv-x="558" 
d="M49 0v6l65 46v558l-65 46v6h430v-111h-6l-63 83h-219v-266h225l42 68h5v-164h-5l-42 67h-225v-310h239l68 102h6v-131h-455zM294 715q-47 0 -76 34.5t-33 83.5l7 1q32 -66 102 -66q68 0 102 66l7 -1q-4 -48 -33 -83t-76 -35z" />
    <glyph glyph-name="ebreve" unicode="&#x115;" horiz-adv-x="380" 
d="M96 218q0 -84 44.5 -131t112.5 -47q59 0 108 22l4 -7q-23 -23 -65.5 -44t-85.5 -21q-83 0 -135 55.5t-52 152.5q0 88 53.5 153t130.5 65q33 0 59 -11.5t42.5 -32.5t25.5 -40.5t18 -45.5v-1h-253q-7 -35 -7 -67zM207 387q-66 0 -95 -75h167q-3 40 -25 57.5t-47 17.5z
M201 561q63 0 87 72l8 -1q0 -53 -25 -88t-70 -35q-47 0 -71 33.5t-24 89.5l8 1q20 -72 87 -72z" />
    <glyph glyph-name="Edotaccent" unicode="&#x116;" horiz-adv-x="558" 
d="M294 727q-17 0 -29.5 12t-12.5 30t12.5 30t29.5 12t29.5 -12t12.5 -30t-12.5 -30t-29.5 -12zM49 0v6l65 46v558l-65 46v6h430v-111h-6l-63 83h-219v-266h225l42 68h5v-164h-5l-42 67h-225v-310h239l68 102h6v-131h-455z" />
    <glyph glyph-name="edotaccent" unicode="&#x117;" horiz-adv-x="380" 
d="M96 218q0 -84 44.5 -131t112.5 -47q59 0 108 22l4 -7q-23 -23 -65.5 -44t-85.5 -21q-83 0 -135 55.5t-52 152.5q0 88 53.5 153t130.5 65q33 0 59 -11.5t42.5 -32.5t25.5 -40.5t18 -45.5v-1h-253q-7 -35 -7 -67zM207 387q-66 0 -95 -75h167q-3 40 -25 57.5t-47 17.5z
M245 587q0 -18 -12.5 -30t-29.5 -12t-29.5 12t-12.5 30t12.5 30t29.5 12t29.5 -12t12.5 -30z" />
    <glyph glyph-name="Eogonek" unicode="&#x118;" horiz-adv-x="558" 
d="M49 0v6l65 46v558l-65 46v6h430v-111h-6l-63 83h-219v-266h225l42 68h5v-164h-5l-42 67h-225v-310h239l68 102h6v-131h-72q-89 -96 -89 -173q0 -70 73 -70q25 0 50 11l4 -5q-1 -1 -8.5 -8t-14 -12t-17 -11t-24.5 -9.5t-29 -3.5q-42 0 -69 28t-27 70q0 87 132 183h-364z
" />
    <glyph glyph-name="eogonek" unicode="&#x119;" horiz-adv-x="380" 
d="M146 -183q0 27 12 53t36 51.5t44 43t52 42.5q-43 -17 -76 -17q-83 0 -135 55.5t-52 152.5q0 88 53.5 153t130.5 65q33 0 59 -11.5t42.5 -32.5t25.5 -40.5t18 -45.5v-1h-253q-7 -35 -7 -67q0 -84 44.5 -131t112.5 -47q59 0 108 22l4 -7q-9 -9 -32 -30.5t-35 -33.5
q-90 -84 -90 -164q0 -70 73 -70q25 0 50 11l4 -5q-1 -1 -11.5 -10.5t-19 -15.5t-25.5 -12t-36 -6q-44 0 -70.5 27.5t-26.5 70.5zM207 387q-66 0 -95 -75h167q-3 40 -25 57.5t-47 17.5z" />
    <glyph glyph-name="Ecaron" unicode="&#x11a;" horiz-adv-x="558" 
d="M159 826l133 -55l130 55l4 -7l-134 -114l-138 114zM49 0v6l65 46v558l-65 46v6h430v-111h-6l-63 83h-219v-266h225l42 68h5v-164h-5l-42 67h-225v-310h239l68 102h6v-131h-455z" />
    <glyph glyph-name="ecaron" unicode="&#x11b;" horiz-adv-x="380" 
d="M106 704l94 -113l94 113l8 -5l-102 -214l-102 214zM96 218q0 -84 44.5 -131t112.5 -47q59 0 108 22l4 -7q-23 -23 -65.5 -44t-85.5 -21q-83 0 -135 55.5t-52 152.5q0 88 53.5 153t130.5 65q33 0 59 -11.5t42.5 -32.5t25.5 -40.5t18 -45.5v-1h-253q-7 -35 -7 -67zM207 387
q-66 0 -95 -75h167q-3 40 -25 57.5t-47 17.5z" />
    <glyph glyph-name="Gcircumflex" unicode="&#x11c;" horiz-adv-x="717" 
d="M378 830l134 -114l-4 -7l-130 55l-133 -55l-5 7zM629 45q-7 -2 -37.5 -13.5t-54.5 -19.5t-62.5 -15.5t-72.5 -7.5q-163 0 -261.5 95.5t-98.5 246.5q0 139 96.5 240.5t255.5 101.5q107 0 215 -30v-97h-4q-33 46 -80 72t-127 26q-87 0 -149.5 -45t-91.5 -113.5t-29 -151.5
q0 -131 75.5 -223t200.5 -92q80 0 145 39v234l-82 46v6h214v-6l-52 -46v-247z" />
    <glyph glyph-name="gcircumflex" unicode="&#x11d;" horiz-adv-x="417" 
d="M195 705l102 -214l-8 -5l-94 113l-94 -113l-8 5zM35 268q0 61 48.5 104t112.5 43q32 0 61 -9h152v-34h-102q52 -39 52 -99q0 -61 -49.5 -103.5t-113.5 -42.5q-30 0 -52 7q-43 -31 -43 -55q0 -39 47 -39h169q28 0 60.5 -30t32.5 -81q0 -82 -74 -146t-168 -64
q-71 0 -115 30.5t-44 78.5q0 72 94 151q-60 22 -60 80q0 29 10 37l68 46q-39 18 -62.5 51t-23.5 75zM140 -27q-2 0 -7 0.5t-8 0.5q-21 -21 -38.5 -54.5t-17.5 -67.5q0 -42 38 -67.5t96 -25.5q61 0 108.5 39t47.5 90q0 85 -100 85h-119zM105 271q0 -50 26.5 -85t65.5 -35
t64.5 35t25.5 85t-25.5 85t-64.5 35q-41 0 -66.5 -34.5t-25.5 -85.5z" />
    <glyph glyph-name="Gbreve" unicode="&#x11e;" horiz-adv-x="717" 
d="M379 715q-47 0 -76 34.5t-33 83.5l7 1q32 -66 102 -66q68 0 102 66l7 -1q-4 -48 -33 -83t-76 -35zM629 45q-7 -2 -37.5 -13.5t-54.5 -19.5t-62.5 -15.5t-72.5 -7.5q-163 0 -261.5 95.5t-98.5 246.5q0 139 96.5 240.5t255.5 101.5q107 0 215 -30v-97h-4q-33 46 -80 72
t-127 26q-87 0 -149.5 -45t-91.5 -113.5t-29 -151.5q0 -131 75.5 -223t200.5 -92q80 0 145 39v234l-82 46v6h214v-6l-52 -46v-247z" />
    <glyph glyph-name="gbreve" unicode="&#x11f;" horiz-adv-x="417" 
d="M35 268q0 61 48.5 104t112.5 43q32 0 61 -9h152v-34h-102q52 -39 52 -99q0 -61 -49.5 -103.5t-113.5 -42.5q-30 0 -52 7q-43 -31 -43 -55q0 -39 47 -39h169q28 0 60.5 -30t32.5 -81q0 -82 -74 -146t-168 -64q-71 0 -115 30.5t-44 78.5q0 72 94 151q-60 22 -60 80
q0 29 10 37l68 46q-39 18 -62.5 51t-23.5 75zM140 -27q-2 0 -7 0.5t-8 0.5q-21 -21 -38.5 -54.5t-17.5 -67.5q0 -42 38 -67.5t96 -25.5q61 0 108.5 39t47.5 90q0 85 -100 85h-119zM105 271q0 -50 26.5 -85t65.5 -35t64.5 35t25.5 85t-25.5 85t-64.5 35q-41 0 -66.5 -34.5
t-25.5 -85.5zM194 561q63 0 87 72l8 -1q0 -53 -25 -88t-70 -35q-47 0 -71 33.5t-24 89.5l8 1q20 -72 87 -72z" />
    <glyph glyph-name="Gdotaccent" unicode="&#x120;" horiz-adv-x="717" 
d="M376 727q-17 0 -29.5 12t-12.5 30t12.5 30t29.5 12t29.5 -12t12.5 -30t-12.5 -30t-29.5 -12zM629 45q-7 -2 -37.5 -13.5t-54.5 -19.5t-62.5 -15.5t-72.5 -7.5q-163 0 -261.5 95.5t-98.5 246.5q0 139 96.5 240.5t255.5 101.5q107 0 215 -30v-97h-4q-33 46 -80 72t-127 26
q-87 0 -149.5 -45t-91.5 -113.5t-29 -151.5q0 -131 75.5 -223t200.5 -92q80 0 145 39v234l-82 46v6h214v-6l-52 -46v-247z" />
    <glyph glyph-name="gdotaccent" unicode="&#x121;" horiz-adv-x="417" 
d="M35 268q0 61 48.5 104t112.5 43q32 0 61 -9h152v-34h-102q52 -39 52 -99q0 -61 -49.5 -103.5t-113.5 -42.5q-30 0 -52 7q-43 -31 -43 -55q0 -39 47 -39h169q28 0 60.5 -30t32.5 -81q0 -82 -74 -146t-168 -64q-71 0 -115 30.5t-44 78.5q0 72 94 151q-60 22 -60 80
q0 29 10 37l68 46q-39 18 -62.5 51t-23.5 75zM140 -27q-2 0 -7 0.5t-8 0.5q-21 -21 -38.5 -54.5t-17.5 -67.5q0 -42 38 -67.5t96 -25.5q61 0 108.5 39t47.5 90q0 85 -100 85h-119zM105 271q0 -50 26.5 -85t65.5 -35t64.5 35t25.5 85t-25.5 85t-64.5 35q-41 0 -66.5 -34.5
t-25.5 -85.5zM237 587q0 -18 -12.5 -30t-29.5 -12t-29.5 12t-12.5 30t12.5 30t29.5 12t29.5 -12t12.5 -30z" />
    <glyph glyph-name="Gcommaaccent" unicode="&#x122;" horiz-adv-x="717" 
d="M427 -142q0 -43 -26 -86.5t-58 -66.5l-10 3q21 26 38 64t19 70q-1 -1 -5 -1q-3 -1 -12 -1q-15 0 -24.5 11t-9.5 27q0 17 11.5 28.5t27.5 11.5q49 0 49 -60zM629 45q-7 -2 -37.5 -13.5t-54.5 -19.5t-62.5 -15.5t-72.5 -7.5q-163 0 -261.5 95.5t-98.5 246.5
q0 139 96.5 240.5t255.5 101.5q107 0 215 -30v-97h-4q-33 46 -80 72t-127 26q-87 0 -149.5 -45t-91.5 -113.5t-29 -151.5q0 -131 75.5 -223t200.5 -92q80 0 145 39v234l-82 46v6h214v-6l-52 -46v-247z" />
    <glyph glyph-name="gcommaaccent" unicode="&#x123;" horiz-adv-x="417" 
d="M145 561q0 43 26 85.5t58 67.5l10 -4q-20 -22 -37.5 -62t-19.5 -72q3 0 5 1q1 0 5 0.5t7 0.5q16 0 25 -10.5t9 -27.5t-11.5 -28t-27.5 -11q-49 0 -49 60zM35 268q0 61 48.5 104t112.5 43q32 0 61 -9h152v-34h-102q52 -39 52 -99q0 -61 -49.5 -103.5t-113.5 -42.5
q-30 0 -52 7q-43 -31 -43 -55q0 -39 47 -39h169q28 0 60.5 -30t32.5 -81q0 -82 -74 -146t-168 -64q-71 0 -115 30.5t-44 78.5q0 72 94 151q-60 22 -60 80q0 29 10 37l68 46q-39 18 -62.5 51t-23.5 75zM140 -27q-2 0 -7 0.5t-8 0.5q-21 -21 -38.5 -54.5t-17.5 -67.5
q0 -42 38 -67.5t96 -25.5q61 0 108.5 39t47.5 90q0 85 -100 85h-119zM105 271q0 -50 26.5 -85t65.5 -35t64.5 35t25.5 85t-25.5 85t-64.5 35q-41 0 -66.5 -34.5t-25.5 -85.5z" />
    <glyph glyph-name="Hcircumflex" unicode="&#x124;" horiz-adv-x="767" 
d="M191 352h386v258l-65 46v6h207v-6l-65 -46v-558l65 -46v-6h-207v6l65 46v269h-386v-269l65 -46v-6h-207v6l65 46v558l-65 46v6h207v-6l-65 -46v-258zM383 830l134 -114l-4 -7l-130 55l-133 -55l-5 7z" />
    <glyph glyph-name="hcircumflex" unicode="&#x125;" horiz-adv-x="500" 
d="M22 0v6l60 41v599l-59 28v7q-1 0 16 7t49 18t63 19v-377q72 67 148 67q49 0 86 -30.5t37 -74.5v-263l61 -41v-6h-190v6l61 41v241q0 36 -25 60t-69 24q-53 0 -109 -52v-273l60 -41v-6h-189zM252 882l134 -114l-4 -7l-130 55l-133 -55l-5 7z" />
    <glyph glyph-name="Hbar" unicode="&#x126;" horiz-adv-x="767" 
d="M25 477v29h718v-29h-718zM190 352h386v258l-65 46v6h207v-6l-65 -46v-558l65 -46v-6h-207v6l65 46v269h-386v-269l65 -46v-6h-207v6l65 46v558l-65 46v6h207v-6l-65 -46v-258z" />
    <glyph glyph-name="hbar" unicode="&#x127;" horiz-adv-x="500" 
d="M-1 539v27h316v-27h-316zM22 0v6l60 41v599l-59 28v7q-1 0 16 7t49 18t63 19v-377q72 67 148 67q49 0 86 -30.5t37 -74.5v-263l61 -41v-6h-190v6l61 41v241q0 36 -25 60t-69 24q-53 0 -109 -52v-273l60 -41v-6h-189z" />
    <glyph glyph-name="Itilde" unicode="&#x128;" horiz-adv-x="305" 
d="M49 0v6l65 46v558l-65 46v6h207v-6l-65 -46v-558l65 -46v-6h-207zM96 800q12 0 66 -9.5t66 -9.5q6 0 13.5 3.5t15.5 10.5t13.5 12.5l13.5 13.5l9 9l5 -3q-6 -15 -16 -34t-27.5 -40t-32.5 -21q-17 0 -68.5 9.5t-61.5 9.5q-24 0 -65 -50l-6 3q42 96 75 96z" />
    <glyph glyph-name="itilde" unicode="&#x129;" horiz-adv-x="233" 
d="M22 0v6l60 42v296l-56 27v6l62 24q32 11 62 19v-372l61 -42v-6h-189zM59 608q13 0 59.5 -13t56.5 -13q19 0 57 51l7 -3q-10 -31 -30 -64t-37 -33q-16 0 -60.5 13t-54.5 13q-17 0 -57 -50l-7 3q12 34 30 65t36 31z" />
    <glyph glyph-name="Imacron" unicode="&#x12a;" horiz-adv-x="305" 
d="M49 0v6l65 46v558l-65 46v6h207v-6l-65 -46v-558l65 -46v-6h-207zM44 770h217v-41h-217v41z" />
    <glyph glyph-name="imacron" unicode="&#x12b;" horiz-adv-x="233" 
d="M22 0v6l60 42v296l-56 27v6l62 24q32 11 62 19v-372l61 -42v-6h-189zM16 577h191v-40h-191v40z" />
    <glyph glyph-name="Ibreve" unicode="&#x12c;" horiz-adv-x="305" 
d="M49 0v6l65 46v558l-65 46v6h207v-6l-65 -46v-558l65 -46v-6h-207zM152 715q-47 0 -76 34.5t-33 83.5l7 1q32 -66 102 -66q68 0 102 66l7 -1q-4 -48 -33 -83t-76 -35z" />
    <glyph glyph-name="ibreve" unicode="&#x12d;" horiz-adv-x="233" 
d="M22 0v6l60 42v296l-56 27v6l62 24q32 11 62 19v-372l61 -42v-6h-189zM110 561q63 0 87 72l8 -1q0 -53 -25 -88t-70 -35q-47 0 -71 33.5t-24 89.5l8 1q20 -72 87 -72z" />
    <glyph glyph-name="Iogonek" unicode="&#x12e;" horiz-adv-x="305" 
d="M173 -281q-42 0 -69 28t-27 70q0 32 19 73t32.5 59.5t38.5 50.5h19q-47 -91 -47 -167t73 -76q25 0 50 11l4 -5q-1 -1 -8.5 -8t-14 -12t-17 -11t-24.5 -9.5t-29 -3.5zM49 0v6l65 46v558l-65 46v6h207v-6l-65 -46v-558l65 -46v-6h-207z" />
    <glyph glyph-name="iogonek" unicode="&#x12f;" horiz-adv-x="233" 
d="M111 629q17 0 29.5 -12t12.5 -30t-12.5 -30t-29.5 -12t-29.5 12t-12.5 30t12.5 30t29.5 12zM22 0v6l60 42v296l-56 27v6l62 24q32 11 62 19v-372l61 -42v-6h-60q-1 -2 -8.5 -23t-11.5 -35t-8.5 -39.5t-4.5 -48.5q0 -97 74 -97q28 0 50 12l4 -5q-45 -45 -93 -45
q-43 0 -70 29t-27 73q0 21 6 43.5t16.5 44t19.5 37t20.5 33.5t13.5 21h-110z" />
    <glyph glyph-name="Idotaccent" unicode="&#x130;" horiz-adv-x="305" 
d="M49 0v6l65 46v558l-65 46v6h207v-6l-65 -46v-558l65 -46v-6h-207zM153 727q-17 0 -29.5 12t-12.5 30t12.5 30t29.5 12t29.5 -12t12.5 -30t-12.5 -30t-29.5 -12z" />
    <glyph glyph-name="dotlessi" unicode="&#x131;" horiz-adv-x="233" 
d="M22 0v6l60 42v296l-56 27v6l62 24q32 11 62 19v-372l61 -42v-6h-189z" />
    <glyph glyph-name="IJ" unicode="&#x132;" horiz-adv-x="591" 
d="M49 0v6l65 46v558l-65 46v6h207v-6l-65 -46v-558l65 -46v-6h-207zM344 656v6h208v-6l-66 -46v-514q0 -72 -47 -162.5t-115 -154.5l-10 7q46 75 70.5 150.5t24.5 190.5v483z" />
    <glyph glyph-name="ij" unicode="&#x133;" horiz-adv-x="447" 
d="M153 587q0 -18 -12.5 -30t-29.5 -12t-29.5 12t-12.5 30t12.5 30t29.5 12t29.5 -12t12.5 -30zM22 0v6l60 42v296l-56 27v6l62 24q32 11 62 19v-372l61 -42v-6h-189zM378 587q0 -18 -12.5 -30t-29.5 -12t-29.5 12t-12.5 30t12.5 30t29.5 12t29.5 -12t12.5 -30zM251 370v7
q-1 0 15 6.5t47.5 17.5t62.5 19v-364q0 -166 -129 -308l-11 5q71 143 71 305v286z" />
    <glyph glyph-name="Jcircumflex" unicode="&#x134;" horiz-adv-x="286" 
d="M144 830l134 -114l-4 -7l-130 55l-133 -55l-5 7zM40 656v6h208v-6l-66 -46v-514q0 -72 -47 -162.5t-115 -154.5l-10 7q46 75 70.5 150.5t24.5 190.5v483z" />
    <glyph glyph-name="jcircumflex" unicode="&#x135;" horiz-adv-x="213" 
d="M18 370v7q-1 -1 15 5t48 17.5t62 19.5v-363q0 -166 -129 -308l-11 5q71 143 71 305v285zM99 705l102 -214l-8 -5l-94 113l-94 -113l-8 5z" />
    <glyph glyph-name="Kcommaaccent" unicode="&#x136;" horiz-adv-x="641" 
d="M391 -142q0 -43 -26 -86.5t-58 -66.5l-10 3q21 26 38 64t19 70q-1 -1 -5 -1q-3 -1 -12 -1q-15 0 -24.5 11t-9.5 27q0 17 11.5 28.5t27.5 11.5q49 0 49 -60zM49 0v6l65 46v558l-65 46v6h208v-6l-66 -46v-558l66 -46v-6h-208zM638 0h-232v6l66 46l-234 284h-33l266 274
l-66 46v6h189v-6l-73 -40l-227 -228l268 -336l76 -46v-6z" />
    <glyph glyph-name="kcommaaccent" unicode="&#x137;" horiz-adv-x="461" 
d="M305 -142q0 -43 -26 -86.5t-58 -66.5l-10 3q21 26 38 64t19 70q-1 -1 -5 -1q-3 -1 -12 -1q-15 0 -24.5 11t-9.5 27q0 17 11.5 28.5t27.5 11.5q49 0 49 -60zM150 48l61 -42v-6h-189v6l60 42v598l-59 28v7q29 14 127 44v-677zM161 232v6l137 118l-52 45v5h185v-5l-85 -39
l-123 -106l99 -127q78 -100 138 -123v-6q-8 -8 -49 -8q-39 0 -65.5 19t-68.5 74z" />
    <glyph glyph-name="Lacute" unicode="&#x139;" horiz-adv-x="553" 
d="M61 704l-5 9l197 125l27 -55zM509 151h6v-151h-466v6l65 46v558l-65 46v6h208v-6l-66 -46v-581h238z" />
    <glyph glyph-name="lacute" unicode="&#x13a;" horiz-adv-x="233" 
d="M13 733l-5 9l197 125l27 -55zM150 48l61 -42v-6h-189v6l60 42v598l-59 28v8q1 0 18 6.5t48 17.5t61 19v-677z" />
    <glyph glyph-name="Lcommaaccent" unicode="&#x13b;" horiz-adv-x="553" 
d="M365 -142q0 -43 -26 -86.5t-58 -66.5l-10 3q21 26 38 64t19 70q-1 -1 -5 -1q-3 -1 -12 -1q-15 0 -24.5 11t-9.5 27q0 17 11.5 28.5t27.5 11.5q49 0 49 -60zM509 151h6v-151h-466v6l65 46v558l-65 46v6h208v-6l-66 -46v-581h238z" />
    <glyph glyph-name="lcommaaccent" unicode="&#x13c;" horiz-adv-x="233" 
d="M165 -142q0 -43 -26 -86.5t-58 -66.5l-10 3q21 26 38 64t19 70q-1 -1 -5 -1q-3 -1 -12 -1q-15 0 -24.5 11t-9.5 27q0 17 11.5 28.5t27.5 11.5q49 0 49 -60zM150 48l61 -42v-6h-189v6l60 42v598l-59 28v8q1 0 18 6.5t48 17.5t61 19v-677z" />
    <glyph glyph-name="Lcaron" unicode="&#x13d;" horiz-adv-x="553" 
d="M312 511l23 204h59l-71 -204h-11zM509 151h6v-151h-466v6l65 46v558l-65 46v6h208v-6l-66 -46v-581h238z" />
    <glyph glyph-name="lcaron" unicode="&#x13e;" horiz-adv-x="233" 
d="M203 511l23 204h59l-71 -204h-11zM150 48l61 -42v-6h-189v6l60 42v598l-59 28v8q1 0 18 6.5t48 17.5t61 19v-677z" />
    <glyph glyph-name="Ldot" unicode="&#x13f;" horiz-adv-x="553" 
d="M434 351q0 21 13 33.5t32 12.5q20 0 33 -12.5t13 -33.5q0 -19 -13 -32.5t-33 -13.5q-19 0 -32 13.5t-13 32.5zM509 151h6v-151h-466v6l65 46v558l-65 46v6h208v-6l-66 -46v-581h238z" />
    <glyph glyph-name="ldot" unicode="&#x140;" horiz-adv-x="338" 
d="M240 345q0 21 13 33.5t33 12.5t32.5 -12.5t12.5 -33.5q0 -19 -12.5 -32t-32.5 -13t-33 13t-13 32zM150 48l61 -42v-6h-189v6l60 42v598l-59 28v8q1 0 18 6.5t48 17.5t61 19v-677z" />
    <glyph glyph-name="Lslash" unicode="&#x141;" horiz-adv-x="553" 
d="M509 151h6v-151h-466v6l65 46v178l-100 -52v35l100 53v344l-65 46v6h208v-6l-66 -46v-303l223 118v-36l-223 -118v-242h238z" />
    <glyph glyph-name="lslash" unicode="&#x142;" horiz-adv-x="233" 
d="M150 48l61 -42v-6h-189v6l60 42v236l-81 -54v32l81 54v330l-59 28v8q1 0 18 6.5t48 17.5t61 19v-363l81 55v-34l-81 -54v-281z" />
    <glyph glyph-name="Nacute" unicode="&#x143;" horiz-adv-x="763" 
d="M293 704l-5 9l197 125l27 -55zM40 0v6l74 51v525q-46 51 -77 74v6h108l474 -543v486l-72 51v6h181v-6l-74 -51v-605h-25l-480 542v-485l71 -51v-6h-180z" />
    <glyph glyph-name="nacute" unicode="&#x144;" horiz-adv-x="500" 
d="M227 497l-9 5l102 210l56 -35zM22 0v6l60 42v296l-56 26v7l2 1q3 2 9.5 4.5t14.5 5.5t19 7t23 8t27 8.5t29 8.5v-71q72 67 149 67q49 0 86 -30t37 -73v-265l61 -42v-6h-188v6l58 42v239q0 36 -24 60t-70 24q-56 0 -109 -51v-272l61 -42v-6h-189z" />
    <glyph glyph-name="Ncommaaccent" unicode="&#x145;" horiz-adv-x="763" 
d="M433 -142q0 -43 -26 -86.5t-58 -66.5l-10 3q21 26 38 64t19 70q-1 -1 -5 -1q-3 -1 -12 -1q-15 0 -24.5 11t-9.5 27q0 17 11.5 28.5t27.5 11.5q49 0 49 -60zM40 0v6l74 51v525q-46 51 -77 74v6h108l474 -543v486l-72 51v6h181v-6l-74 -51v-605h-25l-480 542v-485l71 -51
v-6h-180z" />
    <glyph glyph-name="ncommaaccent" unicode="&#x146;" horiz-adv-x="500" 
d="M307 -142q0 -43 -26 -86.5t-58 -66.5l-10 3q21 26 38 64t19 70q-1 -1 -5 -1q-3 -1 -12 -1q-15 0 -24.5 11t-9.5 27q0 17 11.5 28.5t27.5 11.5q49 0 49 -60zM22 0v6l60 42v296l-56 26v7l2 1q3 2 9.5 4.5t14.5 5.5t19 7t23 8t27 8.5t29 8.5v-71q72 67 149 67q49 0 86 -30
t37 -73v-265l61 -42v-6h-188v6l58 42v239q0 36 -24 60t-70 24q-56 0 -109 -51v-272l61 -42v-6h-189z" />
    <glyph glyph-name="Ncaron" unicode="&#x147;" horiz-adv-x="763" 
d="M251 826l133 -55l130 55l4 -7l-134 -114l-138 114zM40 0v6l74 51v525q-46 51 -77 74v6h108l474 -543v486l-72 51v6h181v-6l-74 -51v-605h-25l-480 542v-485l71 -51v-6h-180z" />
    <glyph glyph-name="ncaron" unicode="&#x148;" horiz-adv-x="500" 
d="M153 704l94 -113l94 113l8 -5l-102 -214l-102 214zM22 0v6l60 42v296l-56 26v7l2 1q3 2 9.5 4.5t14.5 5.5t19 7t23 8t27 8.5t29 8.5v-71q72 67 149 67q49 0 86 -30t37 -73v-265l61 -42v-6h-188v6l58 42v239q0 36 -24 60t-70 24q-56 0 -109 -51v-272l61 -42v-6h-189z" />
    <glyph glyph-name="napostrophe" unicode="&#x149;" horiz-adv-x="527" 
d="M88 631q0 -46 -26.5 -92.5t-70.5 -83.5l-10 4q63 82 68 160q-2 -1 -6 -1q-3 -1 -14 -1q-15 0 -25 10.5t-10 25.5q0 18 11.5 29t29.5 11q24 0 38.5 -16.5t14.5 -45.5zM48 0v6l60 42v296l-56 26v7l2 1q3 2 9.5 4.5t14.5 5.5t19 7t23 8t27 8.5t29 8.5v-71q72 67 149 67
q49 0 86 -30t37 -73v-265l61 -42v-6h-188v6l58 42v239q0 36 -24 60t-70 24q-56 0 -109 -51v-272l61 -42v-6h-189z" />
    <glyph glyph-name="Eng" unicode="&#x14a;" horiz-adv-x="766" 
d="M661 69q0 -67 -28.5 -146t-90.5 -145l-10 7q53 92 53 174q0 55 -20.5 100t-72.5 103l-337 380v-485l70 -51v-6h-179v6l74 51v525q-46 51 -77 74v6h108l429 -490q38 -43 46 -73v506l-71 51v6h179v-6l-73 -51v-536z" />
    <glyph glyph-name="eng" unicode="&#x14b;" horiz-adv-x="488" 
d="M22 0v6l60 42v296l-56 26v7l2 1q3 2 9.5 4.5t14.5 5.5t19 7t23 8t27 8.5t29 8.5v-72q25 25 65.5 46.5t84.5 21.5q47 0 84.5 -30t37.5 -72v-258q0 -166 -129 -308l-10 5q70 144 70 305v229q0 36 -24 60t-70 24q-53 0 -109 -52v-271l61 -42v-6h-189z" />
    <glyph glyph-name="Omacron" unicode="&#x14c;" horiz-adv-x="739" 
d="M262 770h217v-41h-217v41zM44 323q0 148 94 249t232 101q137 0 231.5 -95.5t94.5 -241.5t-95.5 -246.5t-231.5 -100.5t-230.5 95t-94.5 239zM131 330q0 -142 68 -227t170 -85t171.5 86t69.5 226q0 141 -69 227.5t-171 86.5q-103 0 -171 -86.5t-68 -227.5z" />
    <glyph glyph-name="omacron" unicode="&#x14d;" horiz-adv-x="452" 
d="M129 577h191v-40h-191v40zM27 198q0 91 57.5 154.5t140.5 63.5q84 0 142 -60t58 -149q0 -92 -57.5 -154.5t-141.5 -62.5t-141.5 59.5t-57.5 148.5zM101 203q0 -80 36.5 -132t88.5 -52t88 52t36 132q0 77 -37 131t-88 54t-87.5 -53.5t-36.5 -131.5z" />
    <glyph glyph-name="Obreve" unicode="&#x14e;" horiz-adv-x="739" 
d="M370 715q-47 0 -76 34.5t-33 83.5l7 1q32 -66 102 -66q68 0 102 66l7 -1q-4 -48 -33 -83t-76 -35zM44 323q0 148 94 249t232 101q137 0 231.5 -95.5t94.5 -241.5t-95.5 -246.5t-231.5 -100.5t-230.5 95t-94.5 239zM131 330q0 -142 68 -227t170 -85t171.5 86t69.5 226
q0 141 -69 227.5t-171 86.5q-103 0 -171 -86.5t-68 -227.5z" />
    <glyph glyph-name="obreve" unicode="&#x14f;" horiz-adv-x="452" 
d="M27 198q0 91 57.5 154.5t140.5 63.5q84 0 142 -60t58 -149q0 -92 -57.5 -154.5t-141.5 -62.5t-141.5 59.5t-57.5 148.5zM101 203q0 -80 36.5 -132t88.5 -52t88 52t36 132q0 77 -37 131t-88 54t-87.5 -53.5t-36.5 -131.5zM225 561q63 0 87 72l8 -1q0 -53 -25 -88t-70 -35
q-47 0 -71 33.5t-24 89.5l8 1q20 -72 87 -72z" />
    <glyph glyph-name="Ohungarumlaut" unicode="&#x150;" horiz-adv-x="739" 
d="M556 849l35 -48l-175 -97l-7 8zM257 704l-7 8l147 137l34 -48zM44 323q0 148 94 249t232 101q137 0 231.5 -95.5t94.5 -241.5t-95.5 -246.5t-231.5 -100.5t-230.5 95t-94.5 239zM131 330q0 -142 68 -227t170 -85t171.5 86t69.5 226q0 141 -69 227.5t-171 86.5
q-103 0 -171 -86.5t-68 -227.5z" />
    <glyph glyph-name="ohungarumlaut" unicode="&#x151;" horiz-adv-x="452" 
d="M277 496l-11 4l67 214l51 -22zM160 496l-11 4l66 214l51 -22zM27 198q0 91 57.5 154.5t140.5 63.5q84 0 142 -60t58 -149q0 -92 -57.5 -154.5t-141.5 -62.5t-141.5 59.5t-57.5 148.5zM101 203q0 -80 36.5 -132t88.5 -52t88 52t36 132q0 77 -37 131t-88 54t-87.5 -53.5
t-36.5 -131.5z" />
    <glyph glyph-name="OE" unicode="&#x152;" horiz-adv-x="911" 
d="M808 436h5v-163h-5l-42 67h-218v-311h234l68 103h6v-132h-468q-146 0 -246.5 91t-100.5 233q0 143 100 240.5t247 97.5h442v-112h-6l-63 84h-213v-266h218zM387 634q-113 0 -186 -83t-73 -221q0 -136 74.5 -218.5t185.5 -82.5h83v605h-84z" />
    <glyph glyph-name="oe" unicode="&#x153;" horiz-adv-x="700" 
d="M534 -10q-107 0 -160 85q-61 -85 -153 -85q-81 0 -137.5 60t-56.5 148q0 90 56 154t137 64q48 0 90 -23.5t69 -64.5q27 41 67 64.5t85 23.5q33 0 59 -11.5t42.5 -32.5t25.5 -40.5t18 -45.5v-1h-253q-8 -32 -8 -67q0 -84 45 -131t113 -47q59 0 108 22l4 -7
q-23 -23 -65.5 -44t-85.5 -21zM102 203q0 -78 34.5 -131.5t83.5 -53.5q48 0 84 53t36 132q0 75 -36 130t-84 55t-83 -54t-35 -131zM527 387q-65 0 -96 -75h168q-3 40 -25 57.5t-47 17.5z" />
    <glyph glyph-name="Racute" unicode="&#x154;" horiz-adv-x="597" 
d="M183 704l-5 9l197 125l27 -55zM49 0v6l65 46v558l-65 46v6h240q92 0 141 -39.5t49 -99.5q0 -62 -36.5 -104.5t-85.5 -65.5l121 -204q29 -47 60.5 -81.5t50 -47t27.5 -14.5v-6q-24 -6 -45 -6q-42 0 -78.5 22t-76.5 93l-134 226h-91v-283l76 -46v-6h-218zM191 635v-274h91
q51 0 85 41t34 96q0 70 -40.5 103.5t-102.5 33.5h-67z" />
    <glyph glyph-name="racute" unicode="&#x155;" horiz-adv-x="335" 
d="M173 497l-9 5l102 210l56 -35zM26 370v7q56 24 124 43v-86q82 85 119 85q22 0 52 -10l-23 -67q-29 11 -48 11q-50 0 -100 -44v-262l79 -41v-6h-207v6l60 42v296z" />
    <glyph glyph-name="Rcommaaccent" unicode="&#x156;" horiz-adv-x="597" 
d="M396 -143q0 -43 -26 -86.5t-58 -66.5l-10 3q21 26 38 64t19 70q-1 -1 -5 -1q-3 -1 -12 -1q-15 0 -24.5 11t-9.5 27q0 17 11.5 28.5t27.5 11.5q49 0 49 -60zM49 0v6l65 46v558l-65 46v6h240q92 0 141 -39.5t49 -99.5q0 -62 -36.5 -104.5t-85.5 -65.5l121 -204
q29 -47 60.5 -81.5t50 -47t27.5 -14.5v-6q-24 -6 -45 -6q-42 0 -78.5 22t-76.5 93l-134 226h-91v-283l76 -46v-6h-218zM191 635v-274h91q51 0 85 41t34 96q0 70 -40.5 103.5t-102.5 33.5h-67z" />
    <glyph glyph-name="rcommaaccent" unicode="&#x157;" horiz-adv-x="335" 
d="M162 -142q0 -43 -26 -86.5t-58 -66.5l-10 3q21 26 38 64t19 70q-1 -1 -5 -1q-3 -1 -12 -1q-15 0 -24.5 11t-9.5 27q0 17 11.5 28.5t27.5 11.5q49 0 49 -60zM26 370v7q56 24 124 43v-86q82 85 119 85q22 0 52 -10l-23 -67q-29 11 -48 11q-50 0 -100 -44v-262l79 -41v-6
h-207v6l60 42v296z" />
    <glyph glyph-name="Rcaron" unicode="&#x158;" horiz-adv-x="597" 
d="M139 826l133 -55l130 55l4 -7l-134 -114l-138 114zM49 0v6l65 46v558l-65 46v6h240q92 0 141 -39.5t49 -99.5q0 -62 -36.5 -104.5t-85.5 -65.5l121 -204q29 -47 60.5 -81.5t50 -47t27.5 -14.5v-6q-24 -6 -45 -6q-42 0 -78.5 22t-76.5 93l-134 226h-91v-283l76 -46v-6
h-218zM191 635v-274h91q51 0 85 41t34 96q0 70 -40.5 103.5t-102.5 33.5h-67z" />
    <glyph glyph-name="rcaron" unicode="&#x159;" horiz-adv-x="335" 
d="M106 704l94 -113l94 113l8 -5l-102 -214l-102 214zM26 370v7q56 24 124 43v-86q82 85 119 85q22 0 52 -10l-23 -67q-29 11 -48 11q-50 0 -100 -44v-262l79 -41v-6h-207v6l60 42v296z" />
    <glyph glyph-name="Sacute" unicode="&#x15a;" horiz-adv-x="466" 
d="M248 673q75 0 125 -21v-83h-4q-13 28 -45 51.5t-80 23.5t-79 -27t-31 -72q0 -28 8 -49t30 -43t38 -34.5t56 -40.5q42 -30 62 -46.5t46 -43.5t36.5 -55t10.5 -62q0 -78 -52 -129.5t-142 -51.5q-98 0 -172 43q-11 80 -7 155h6q6 -25 14.5 -47.5t27.5 -53t53 -49t78 -18.5
q56 0 90.5 35t34.5 85q0 54 -29.5 91.5t-99.5 83.5q-79 51 -117 98t-38 107q0 70 49.5 111.5t130.5 41.5zM118 704l-5 9l197 125l27 -55z" />
    <glyph glyph-name="sacute" unicode="&#x15b;" horiz-adv-x="320" 
d="M121 497l-9 5l102 210l56 -35zM167 416q58 0 87 -13v-76h-6q-8 22 -29.5 41t-55.5 19q-25 0 -41.5 -14t-16.5 -40q0 -20 10.5 -35.5t22.5 -23.5t42 -27q35 -22 52.5 -35t35.5 -41t18 -61q0 -52 -36.5 -86t-98.5 -34t-113 24q-10 73 -6 125h6q12 -48 40.5 -84t74.5 -36
q33 0 53.5 19.5t20.5 51.5q0 31 -19.5 50t-66.5 48q-24 16 -36 25t-28 25t-22.5 34.5t-6.5 41.5q0 46 34.5 74t84.5 28z" />
    <glyph glyph-name="Scircumflex" unicode="&#x15c;" horiz-adv-x="466" 
d="M231 830l134 -114l-4 -7l-130 55l-133 -55l-5 7zM248 673q75 0 125 -21v-83h-4q-13 28 -45 51.5t-80 23.5t-79 -27t-31 -72q0 -28 8 -49t30 -43t38 -34.5t56 -40.5q42 -30 62 -46.5t46 -43.5t36.5 -55t10.5 -62q0 -78 -52 -129.5t-142 -51.5q-98 0 -172 43q-11 80 -7 155
h6q6 -25 14.5 -47.5t27.5 -53t53 -49t78 -18.5q56 0 90.5 35t34.5 85q0 54 -29.5 91.5t-99.5 83.5q-79 51 -117 98t-38 107q0 70 49.5 111.5t130.5 41.5z" />
    <glyph glyph-name="scircumflex" unicode="&#x15d;" horiz-adv-x="320" 
d="M159 705l102 -214l-8 -5l-94 113l-94 -113l-8 5zM167 416q58 0 87 -13v-76h-6q-8 22 -29.5 41t-55.5 19q-25 0 -41.5 -14t-16.5 -40q0 -20 10.5 -35.5t22.5 -23.5t42 -27q35 -22 52.5 -35t35.5 -41t18 -61q0 -52 -36.5 -86t-98.5 -34t-113 24q-10 73 -6 125h6
q12 -48 40.5 -84t74.5 -36q33 0 53.5 19.5t20.5 51.5q0 31 -19.5 50t-66.5 48q-24 16 -36 25t-28 25t-22.5 34.5t-6.5 41.5q0 46 34.5 74t84.5 28z" />
    <glyph glyph-name="Scedilla" unicode="&#x15e;" horiz-adv-x="466" 
d="M248 673q75 0 125 -21v-83h-4q-13 28 -45 51.5t-80 23.5t-79 -27t-31 -72q0 -28 8 -49t30 -43t38 -34.5t56 -40.5q42 -30 62 -46.5t46 -43.5t36.5 -55t10.5 -62q0 -78 -52 -129.5t-142 -51.5q-98 0 -172 43q-11 80 -7 155h6q6 -25 14.5 -47.5t27.5 -53t53 -49t78 -18.5
q56 0 90.5 35t34.5 85q0 54 -29.5 91.5t-99.5 83.5q-79 51 -117 98t-38 107q0 70 49.5 111.5t130.5 41.5zM244 0l-40 -78q29 -7 51.5 -27.5t22.5 -52.5q0 -42 -36.5 -71t-106.5 -56l-5 9q98 60 98 106q0 24 -21.5 37t-44.5 16l-2 3q5 10 14.5 28.5t14.5 27.5q29 54 29 58h26
z" />
    <glyph glyph-name="scedilla" unicode="&#x15f;" horiz-adv-x="320" 
d="M167 416q58 0 87 -13v-76h-6q-8 22 -29.5 41t-55.5 19q-25 0 -41.5 -14t-16.5 -40q0 -20 10.5 -35.5t22.5 -23.5t42 -27q35 -22 52.5 -35t35.5 -41t18 -61q0 -52 -36.5 -86t-98.5 -34t-113 24q-10 73 -6 125h6q12 -48 40.5 -84t74.5 -36q33 0 53.5 19.5t20.5 51.5
q0 31 -19.5 50t-66.5 48q-24 16 -36 25t-28 25t-22.5 34.5t-6.5 41.5q0 46 34.5 74t84.5 28zM172 0l-40 -78q29 -7 51.5 -27.5t22.5 -52.5q0 -42 -36.5 -71t-106.5 -56l-5 9q98 60 98 106q0 24 -21.5 37t-44.5 16l-2 3q5 10 14.5 28.5t14.5 27.5q29 54 29 58h26z" />
    <glyph glyph-name="Scaron" unicode="&#x160;" horiz-adv-x="466" 
d="M100 826l133 -55l130 55l4 -7l-134 -114l-138 114zM248 673q75 0 125 -21v-83h-4q-13 28 -45 51.5t-80 23.5t-79 -27t-31 -72q0 -28 8 -49t30 -43t38 -34.5t56 -40.5q42 -30 62 -46.5t46 -43.5t36.5 -55t10.5 -62q0 -78 -52 -129.5t-142 -51.5q-98 0 -172 43
q-11 80 -7 155h6q6 -25 14.5 -47.5t27.5 -53t53 -49t78 -18.5q56 0 90.5 35t34.5 85q0 54 -29.5 91.5t-99.5 83.5q-79 51 -117 98t-38 107q0 70 49.5 111.5t130.5 41.5z" />
    <glyph glyph-name="scaron" unicode="&#x161;" horiz-adv-x="320" 
d="M64 704l94 -113l94 113l8 -5l-102 -214l-102 214zM167 416q58 0 87 -13v-76h-6q-8 22 -29.5 41t-55.5 19q-25 0 -41.5 -14t-16.5 -40q0 -20 10.5 -35.5t22.5 -23.5t42 -27q35 -22 52.5 -35t35.5 -41t18 -61q0 -52 -36.5 -86t-98.5 -34t-113 24q-10 73 -6 125h6
q12 -48 40.5 -84t74.5 -36q33 0 53.5 19.5t20.5 51.5q0 31 -19.5 50t-66.5 48q-24 16 -36 25t-28 25t-22.5 34.5t-6.5 41.5q0 46 34.5 74t84.5 28z" />
    <glyph glyph-name="Tcommaaccent" unicode="&#x162;" horiz-adv-x="630" 
d="M363 -142q0 -43 -26 -86.5t-58 -66.5l-10 3q21 26 38 64t19 70q-1 -1 -5 -1q-3 -1 -12 -1q-15 0 -24.5 11t-9.5 27q0 17 11.5 28.5t27.5 11.5q49 0 49 -60zM597 662v-121h-6l-66 91h-172v-578l64 -48v-6h-205v6l64 48v578h-171l-66 -91h-6v121h564z" />
    <glyph glyph-name="tcommaaccent" unicode="&#x163;" horiz-adv-x="343" 
d="M238 -142q0 -43 -26 -86.5t-58 -66.5l-10 3q21 26 38 64t19 70q-1 -1 -5 -1q-3 -1 -12 -1q-15 0 -24.5 11t-9.5 27q0 17 11.5 28.5t27.5 11.5q49 0 49 -60zM140 364v-255q0 -33 22 -54.5t62 -21.5q51 0 87 20l4 -7q-53 -55 -125 -55q-61 0 -89.5 31t-28.5 71v271h-55v7
l123 93v-60h194l-27 -40h-167z" />
    <glyph glyph-name="Tcaron" unicode="&#x164;" horiz-adv-x="630" 
d="M181 826l133 -55l130 55l4 -7l-134 -114l-138 114zM597 662v-121h-6l-66 91h-172v-578l64 -48v-6h-205v6l64 48v578h-171l-66 -91h-6v121h564z" />
    <glyph glyph-name="tcaron" unicode="&#x165;" horiz-adv-x="343" 
d="M193 511l23 204h59l-71 -204h-11zM140 364v-255q0 -33 22 -54.5t62 -21.5q51 0 87 20l4 -7q-53 -55 -125 -55q-61 0 -89.5 31t-28.5 71v271h-55v7l123 93v-60h194l-27 -40h-167z" />
    <glyph glyph-name="Tbar" unicode="&#x166;" horiz-adv-x="630" 
d="M106 358v30h416v-30h-416zM597 662v-121h-6l-66 91h-172v-578l64 -48v-6h-205v6l64 48v578h-171l-66 -91h-6v121h564z" />
    <glyph glyph-name="tbar" unicode="&#x167;" horiz-adv-x="347" 
d="M10 238v26h298v-26h-298zM140 364v-255q0 -33 22 -54.5t62 -21.5q51 0 87 20l4 -7q-53 -55 -125 -55q-61 0 -89.5 31t-28.5 71v271h-55v7l123 93v-60h194l-27 -40h-167z" />
    <glyph glyph-name="Utilde" unicode="&#x168;" horiz-adv-x="714" 
d="M618 233q0 -110 -70 -177t-177 -67q-123 0 -198.5 60t-75.5 185v376l-66 46v6h208v-6l-65 -46v-376q0 -101 57 -151t152 -50q92 0 145.5 55.5t53.5 146.5v375l-64 46v6h165v-6l-65 -46v-377zM329 800q12 0 66 -9.5t66 -9.5q6 0 13.5 3.5t15.5 10.5t13.5 12.5l13.5 13.5
l9 9l5 -3q-6 -15 -16 -34t-27.5 -40t-32.5 -21q-17 0 -68.5 9.5t-61.5 9.5q-24 0 -65 -50l-6 3q42 96 75 96z" />
    <glyph glyph-name="utilde" unicode="&#x169;" horiz-adv-x="486" 
d="M17 370v7l69 25l56 17v-300q0 -35 22.5 -59t65.5 -24q49 0 107 50v256l-64 29v7q-1 0 17 6t51.5 16t64.5 19v-360l67 -25v-7l-70 -18q-14 -4 -40 -10l-26 -7v67q-67 -67 -141 -67q-49 0 -85.5 31.5t-36.5 84.5v235zM185 608q13 0 59.5 -13t56.5 -13q19 0 57 51l7 -3
q-10 -31 -30 -64t-37 -33q-16 0 -60.5 13t-54.5 13q-17 0 -57 -50l-7 3q12 34 30 65t36 31z" />
    <glyph glyph-name="Umacron" unicode="&#x16a;" horiz-adv-x="714" 
d="M618 233q0 -110 -70 -177t-177 -67q-123 0 -198.5 60t-75.5 185v376l-66 46v6h208v-6l-65 -46v-376q0 -101 57 -151t152 -50q92 0 145.5 55.5t53.5 146.5v375l-64 46v6h165v-6l-65 -46v-377zM276 770h217v-41h-217v41z" />
    <glyph glyph-name="umacron" unicode="&#x16b;" horiz-adv-x="486" 
d="M17 370v7l69 25l56 17v-300q0 -35 22.5 -59t65.5 -24q49 0 107 50v256l-64 29v7q-1 0 17 6t51.5 16t64.5 19v-360l67 -25v-7l-70 -18q-14 -4 -40 -10l-26 -7v67q-67 -67 -141 -67q-49 0 -85.5 31.5t-36.5 84.5v235zM143 577h191v-40h-191v40z" />
    <glyph glyph-name="Ubreve" unicode="&#x16c;" horiz-adv-x="714" 
d="M618 233q0 -110 -70 -177t-177 -67q-123 0 -198.5 60t-75.5 185v376l-66 46v6h208v-6l-65 -46v-376q0 -101 57 -151t152 -50q92 0 145.5 55.5t53.5 146.5v375l-64 46v6h165v-6l-65 -46v-377zM378 715q-47 0 -76 34.5t-33 83.5l7 1q32 -66 102 -66q68 0 102 66l7 -1
q-4 -48 -33 -83t-76 -35z" />
    <glyph glyph-name="ubreve" unicode="&#x16d;" horiz-adv-x="486" 
d="M17 370v7l69 25l56 17v-300q0 -35 22.5 -59t65.5 -24q49 0 107 50v256l-64 29v7q-1 0 17 6t51.5 16t64.5 19v-360l67 -25v-7l-70 -18q-14 -4 -40 -10l-26 -7v67q-67 -67 -141 -67q-49 0 -85.5 31.5t-36.5 84.5v235zM240 561q63 0 87 72l8 -1q0 -53 -25 -88t-70 -35
q-47 0 -71 33.5t-24 89.5l8 1q20 -72 87 -72z" />
    <glyph glyph-name="Uring" unicode="&#x16e;" horiz-adv-x="714" 
d="M618 233q0 -110 -70 -177t-177 -67q-123 0 -198.5 60t-75.5 185v376l-66 46v6h208v-6l-65 -46v-376q0 -101 57 -151t152 -50q92 0 145.5 55.5t53.5 146.5v375l-64 46v6h165v-6l-65 -46v-377zM335 756q0 -21 13.5 -36t34.5 -15t34.5 15t13.5 36t-13.5 36t-34.5 15
t-34.5 -15t-13.5 -36zM307 756q0 32 22.5 53.5t53.5 21.5q32 0 54 -21.5t22 -53.5q0 -33 -21.5 -54t-54.5 -21t-54.5 21t-21.5 54z" />
    <glyph glyph-name="uring" unicode="&#x16f;" horiz-adv-x="486" 
d="M185 574q0 -21 13.5 -36t34.5 -15t34.5 15t13.5 36t-13.5 36t-34.5 15t-34.5 -15t-13.5 -36zM157 574q0 32 22.5 53.5t53.5 21.5q32 0 54 -21.5t22 -53.5q0 -33 -21.5 -54t-54.5 -21t-54.5 21t-21.5 54zM17 370v7l69 25l56 17v-300q0 -35 22.5 -59t65.5 -24q49 0 107 50
v256l-64 29v7q-1 0 17 6t51.5 16t64.5 19v-360l67 -25v-7l-70 -18q-14 -4 -40 -10l-26 -7v67q-67 -67 -141 -67q-49 0 -85.5 31.5t-36.5 84.5v235z" />
    <glyph glyph-name="Uhungarumlaut" unicode="&#x170;" horiz-adv-x="714" 
d="M564 849l35 -48l-175 -97l-7 8zM265 704l-7 8l147 137l34 -48zM618 233q0 -110 -70 -177t-177 -67q-123 0 -198.5 60t-75.5 185v376l-66 46v6h208v-6l-65 -46v-376q0 -101 57 -151t152 -50q92 0 145.5 55.5t53.5 146.5v375l-64 46v6h165v-6l-65 -46v-377z" />
    <glyph glyph-name="uhungarumlaut" unicode="&#x171;" horiz-adv-x="486" 
d="M17 370v7l69 25l56 17v-300q0 -35 22.5 -59t65.5 -24q49 0 107 50v256l-64 29v7q-1 0 17 6t51.5 16t64.5 19v-360l67 -25v-7l-70 -18q-14 -4 -40 -10l-26 -7v67q-67 -67 -141 -67q-49 0 -85.5 31.5t-36.5 84.5v235zM290 496l-11 4l67 214l51 -22zM173 496l-11 4l66 214
l51 -22z" />
    <glyph glyph-name="Uogonek" unicode="&#x172;" horiz-adv-x="714" 
d="M327 -183q0 84 148 191q-48 -19 -104 -19q-123 0 -198.5 60t-75.5 185v376l-66 46v6h208v-6l-65 -46v-376q0 -100 56.5 -148t152.5 -48q93 0 146 53.5t53 143.5v375l-64 46v6h165v-6l-65 -46v-377q0 -72 -28 -120t-81 -97q-120 -104 -120 -189q0 -70 73 -70q25 0 50 11
l4 -5q-1 -1 -11.5 -10.5t-19 -15.5t-25.5 -12t-36 -6q-44 0 -70.5 27.5t-26.5 70.5z" />
    <glyph glyph-name="uogonek" unicode="&#x173;" horiz-adv-x="486" 
d="M337 59q-67 -67 -141 -67q-49 0 -86 31.5t-37 83.5v237l-56 26v7l65 25l60 18v-301q0 -35 22.5 -59t65.5 -24q48 0 107 52v255l-64 27v7q-1 0 17 6.5t51 17t64 19.5v-362l68 -24v-7q-25 -8 -46 -12q-45 -12 -75 -18q-97 -91 -97 -170q0 -70 73 -70q25 0 50 11l4 -5
q-1 -1 -11.5 -10.5t-19 -15.5t-25.5 -12t-36 -6q-44 0 -70.5 27.5t-26.5 70.5q0 90 144 184v58z" />
    <glyph glyph-name="Wcircumflex" unicode="&#x174;" horiz-adv-x="937" 
d="M501 830l134 -114l-4 -7l-130 55l-133 -55l-5 7zM451 610l62 -153l64 153l-51 46v6h142v-6l-56 -46l-83 -192l129 -311l183 503l-72 46v6h162v-6l-55 -46l-228 -624h-8l-154 362l-164 -362h-8l-253 624l-54 46v6h205v-6l-71 -46l200 -505l127 283l-94 222l-55 46v6h182
v-6z" />
    <glyph glyph-name="wcircumflex" unicode="&#x175;" horiz-adv-x="631" 
d="M333 705l102 -214l-8 -5l-94 113l-94 -113l-8 5zM222 23q-2 -5 -5.5 -13.5t-4.5 -11.5q-5 -12 -5 -13h-7q-4 10 -7 16q-7 20 -16 40l-126 319l-50 40v6h182v-6l-59 -40l96 -252l84 241l-3 11l-53 40v6h169v-6l-50 -40l90 -251l88 251l-60 40v6h144v-6l-51 -40l-120 -338
q-1 -2 -2.5 -5.5t-3 -8.5t-2.5 -8l-6 -15h-6q-1 3 -5 13q-1 3 -6.5 18t-9.5 27l-96 259z" />
    <glyph glyph-name="Ycircumflex" unicode="&#x176;" horiz-adv-x="587" 
d="M424 656v6h156v-6l-55 -46l-186 -282v-277l65 -45v-6h-208v6l66 45v261l-201 298l-54 46v6h211v-6l-67 -46l169 -257l171 258zM319 830l134 -114l-4 -7l-130 55l-133 -55l-5 7z" />
    <glyph glyph-name="ycircumflex" unicode="&#x177;" horiz-adv-x="419" 
d="M185 -112q-40 -109 -46 -164h-91v5q69 64 114 182l38 98l-149 350l-50 41v6h184v-6l-58 -41l106 -263l98 263l-62 41v6h149v-6l-51 -41zM219 705l102 -214l-8 -5l-94 113l-94 -113l-8 5z" />
    <glyph glyph-name="Ydieresis" unicode="&#x178;" horiz-adv-x="587" 
d="M424 656v6h156v-6l-55 -46l-186 -282v-277l65 -45v-6h-208v6l66 45v261l-201 298l-54 46v6h211v-6l-67 -46l169 -257l171 258zM367 767q0 17 11.5 28.5t28.5 11.5q16 0 28 -11.5t12 -28.5t-12 -28.5t-28 -11.5q-17 0 -28.5 11.5t-11.5 28.5zM191 767q0 17 11.5 28.5
t28.5 11.5q16 0 28 -11.5t12 -28.5t-12 -28.5t-28 -11.5q-17 0 -28.5 11.5t-11.5 28.5z" />
    <glyph glyph-name="Zacute" unicode="&#x179;" horiz-adv-x="627" 
d="M226 704l-5 9l197 125l27 -55zM135 29h374l76 100h6v-129h-554v9l432 624h-333l-67 -93h-6v122h513v-8z" />
    <glyph glyph-name="zacute" unicode="&#x17a;" horiz-adv-x="391" 
d="M176 497l-9 5l102 210l56 -35zM365 104v-104h-343v6l243 375h-155l-58 -74h-6v99h311v-3l-250 -378h192l60 79h6z" />
    <glyph glyph-name="Zdotaccent" unicode="&#x17b;" horiz-adv-x="627" 
d="M135 29h374l76 100h6v-129h-554v9l432 624h-333l-67 -93h-6v122h513v-8zM316 727q-17 0 -29.5 12t-12.5 30t12.5 30t29.5 12t29.5 -12t12.5 -30t-12.5 -30t-29.5 -12z" />
    <glyph glyph-name="zdotaccent" unicode="&#x17c;" horiz-adv-x="391" 
d="M365 104v-104h-343v6l243 375h-155l-58 -74h-6v99h311v-3l-250 -378h192l60 79h6zM238 587q0 -18 -12.5 -30t-29.5 -12t-29.5 12t-12.5 30t12.5 30t29.5 12t29.5 -12t12.5 -30z" />
    <glyph glyph-name="Zcaron" unicode="&#x17d;" horiz-adv-x="627" 
d="M188 826l133 -55l130 55l4 -7l-134 -114l-138 114zM135 29h374l76 100h6v-129h-554v9l432 624h-333l-67 -93h-6v122h513v-8z" />
    <glyph glyph-name="zcaron" unicode="&#x17e;" horiz-adv-x="391" 
d="M104 704l94 -113l94 113l8 -5l-102 -214l-102 214zM365 104v-104h-343v6l243 375h-155l-58 -74h-6v99h311v-3l-250 -378h192l60 79h6z" />
    <glyph glyph-name="florin" unicode="&#x192;" horiz-adv-x="417" 
d="M128 384l13 98q4 46 23 86.5t62 72t103 31.5q49 0 92 -15l-28 -52q-45 33 -81 33q-40 0 -65.5 -38.5t-32.5 -93.5l-17 -122h121l-28 -38h-98q-6 -43 -16 -123t-16 -120q-7 -49 -21 -94.5t-38 -91t-64 -73.5t-91 -29l-15 52q24 -3 37 -3q37 0 59.5 18.5t40 74.5t29.5 161
q15 145 27 228h-84v5l23 33h65z" />
    <glyph glyph-name="Aringacute" unicode="&#x1fa;" horiz-adv-x="633" 
d="M164 6v-6h-157v6l55 46l240 625h7l261 -625l56 -46v-6h-202v6l68 46l-101 241h-202l-93 -242zM199 321h181l-94 225zM218 851l-5 9l197 125l27 -55zM257 776q0 -21 13.5 -36t34.5 -15t34.5 15t13.5 36t-13.5 36t-34.5 15t-34.5 -15t-13.5 -36zM229 776q0 32 22.5 53.5
t53.5 21.5q32 0 54 -21.5t22 -53.5q0 -33 -21.5 -54t-54.5 -21t-54.5 21t-21.5 54z" />
    <glyph glyph-name="aringacute" unicode="&#x1fb;" horiz-adv-x="395" 
d="M252 295q0 38 -18 61t-55 23q-41 0 -67 -34v-56l-71 20v5q21 25 31 35.5t34 30.5t50.5 29t57.5 9q49 0 77 -27t28 -67q0 -37 -2 -144t-2 -115q37 -26 75 -35v-6l-57 -39q-51 19 -79 52q-62 -49 -104 -49q-52 0 -83.5 28t-31.5 70q0 27 11.5 44t25.5 22q4 1 28 9t68 23
t84 28v83zM251 59q0 20 0.5 59.5t0.5 61.5q-29 -9 -84.5 -29t-59.5 -22q-9 -5 -9 -30q0 -27 19.5 -46t54.5 -19q48 0 78 25zM137 662l-9 5l102 210l56 -35zM141 568q0 -21 13.5 -36t34.5 -15t34.5 15t13.5 36t-13.5 36t-34.5 15t-34.5 -15t-13.5 -36zM113 568
q0 32 22.5 53.5t53.5 21.5q32 0 54 -21.5t22 -53.5q0 -33 -21.5 -54t-54.5 -21t-54.5 21t-21.5 54z" />
    <glyph glyph-name="AEacute" unicode="&#x1fc;" horiz-adv-x="856" 
d="M476 704l-5 9l197 125l27 -55zM307 656v6h468v-112h-6l-63 84h-212v-266h217l42 68h5v-163h-5l-42 67h-217v-311h232l69 103h6v-132h-449v6l65 46v270h-173l-158 -271l68 -45v-6h-160v6l55 46l325 558zM260 350h157v269z" />
    <glyph glyph-name="aeacute" unicode="&#x1fd;" horiz-adv-x="589" 
d="M299 497l-9 5l102 210l56 -35zM64 156q4 2 28.5 10.5t70 24t82.5 28.5q0 19 0.5 45t0.5 34q0 82 -71 82q-40 0 -66 -34v-56l-70 20v5q18 21 24 27.5t26.5 25.5t35 27t37.5 16t47 8q36 0 62 -16.5t36 -43.5q57 57 119 57q102 0 146 -108v-2l-258 -94q2 -79 45.5 -125.5
t105.5 -46.5q55 0 104 22l4 -7q-23 -23 -64 -44t-84 -21q-91 0 -141 71q-66 -72 -125 -72t-92.5 27t-33.5 71q0 52 31 69zM175 35q47 0 98 44q-26 46 -28 111q-93 -42 -138 -55q-10 -6 -10 -34q0 -29 19 -47.5t59 -18.5zM421 387q-33 0 -67 -39t-39 -107l178 70
q-4 30 -23 53t-49 23z" />
    <glyph glyph-name="Oslashacute" unicode="&#x1fe;" horiz-adv-x="739" 
d="M44 323q0 148 94 249t232 101q95 0 169 -47l51 79l24 -14l-51 -81q133 -100 133 -274q0 -146 -95.5 -246.5t-231.5 -100.5q-97 0 -173 49l-61 -96l-24 16l61 96q-128 97 -128 269zM610 330q0 144 -76 235l-312 -487q62 -60 147 -60q102 0 171.5 86t69.5 226zM131 330
q0 -142 70 -230l313 486q-63 58 -144 58q-103 0 -171 -86.5t-68 -227.5zM265 704l-5 9l197 125l27 -55z" />
    <glyph glyph-name="oslashacute" unicode="&#x1ff;" horiz-adv-x="452" 
d="M26 198q0 91 58 154t142 63q55 0 101 -28l47 73l24 -14l-48 -76q75 -62 75 -163q0 -92 -57.5 -154.5t-141.5 -62.5q-55 0 -101 28l-50 -78l-26 15l52 80q-75 62 -75 163zM351 203q0 72 -30 123l-173 -271q33 -36 78 -36q52 0 88.5 52t36.5 132zM103 203q0 -71 27 -122
l173 270q-34 37 -77 37q-51 0 -87 -53.5t-36 -131.5zM170 497l-9 5l102 210l56 -35z" />
    <glyph glyph-name="Scommaaccent" unicode="&#x218;" horiz-adv-x="466" 
d="M278 -142q0 -43 -26 -86.5t-58 -66.5l-10 3q21 26 38 64t19 70q-1 -1 -5 -1q-3 -1 -12 -1q-15 0 -24.5 11t-9.5 27q0 17 11.5 28.5t27.5 11.5q49 0 49 -60zM248 673q75 0 125 -21v-83h-4q-13 28 -45 51.5t-80 23.5t-79 -27t-31 -72q0 -28 8 -49t30 -43t38 -34.5t56 -40.5
q42 -30 62 -46.5t46 -43.5t36.5 -55t10.5 -62q0 -78 -52 -129.5t-142 -51.5q-98 0 -172 43q-11 80 -7 155h6q6 -25 14.5 -47.5t27.5 -53t53 -49t78 -18.5q56 0 90.5 35t34.5 85q0 54 -29.5 91.5t-99.5 83.5q-79 51 -117 98t-38 107q0 70 49.5 111.5t130.5 41.5z" />
    <glyph glyph-name="scommaaccent" unicode="&#x219;" horiz-adv-x="320" 
d="M211 -142q0 -43 -26 -86.5t-58 -66.5l-10 3q21 26 38 64t19 70q-1 -1 -5 -1q-3 -1 -12 -1q-15 0 -24.5 11t-9.5 27q0 17 11.5 28.5t27.5 11.5q49 0 49 -60zM167 416q58 0 87 -13v-76h-6q-8 22 -29.5 41t-55.5 19q-25 0 -41.5 -14t-16.5 -40q0 -20 10.5 -35.5t22.5 -23.5
t42 -27q35 -22 52.5 -35t35.5 -41t18 -61q0 -52 -36.5 -86t-98.5 -34t-113 24q-10 73 -6 125h6q12 -48 40.5 -84t74.5 -36q33 0 53.5 19.5t20.5 51.5q0 31 -19.5 50t-66.5 48q-24 16 -36 25t-28 25t-22.5 34.5t-6.5 41.5q0 46 34.5 74t84.5 28z" />
    <glyph glyph-name="uni021A" unicode="&#x21a;" horiz-adv-x="630" 
d="M363 -142q0 -43 -26 -86.5t-58 -66.5l-10 3q21 26 38 64t19 70q-1 -1 -5 -1q-3 -1 -12 -1q-15 0 -24.5 11t-9.5 27q0 17 11.5 28.5t27.5 11.5q49 0 49 -60zM597 662v-121h-6l-66 91h-172v-578l64 -48v-6h-205v6l64 48v578h-171l-66 -91h-6v121h564z" />
    <glyph glyph-name="uni021B" unicode="&#x21b;" horiz-adv-x="343" 
d="M238 -142q0 -43 -26 -86.5t-58 -66.5l-10 3q21 26 38 64t19 70q-1 -1 -5 -1q-3 -1 -12 -1q-15 0 -24.5 11t-9.5 27q0 17 11.5 28.5t27.5 11.5q49 0 49 -60zM140 364v-255q0 -33 22 -54.5t62 -21.5q51 0 87 20l4 -7q-53 -55 -125 -55q-61 0 -89.5 31t-28.5 71v271h-55v7
l123 93v-60h194l-27 -40h-167z" />
    <glyph glyph-name="uni0237" unicode="&#x237;" horiz-adv-x="213" 
d="M18 370v7q-1 -1 15 5t48 17.5t62 19.5v-363q0 -166 -129 -308l-11 5q71 143 71 305v285z" />
    <glyph glyph-name="circumflex" unicode="&#x2c6;" 
d="M200 705l102 -214l-8 -5l-94 113l-94 -113l-8 5z" />
    <glyph glyph-name="caron" unicode="&#x2c7;" 
d="M106 704l94 -113l94 113l8 -5l-102 -214l-102 214z" />
    <glyph glyph-name="breve" unicode="&#x2d8;" 
d="M200 561q63 0 87 72l8 -1q0 -53 -25 -88t-70 -35q-47 0 -71 33.5t-24 89.5l8 1q20 -72 87 -72z" />
    <glyph glyph-name="dotaccent" unicode="&#x2d9;" 
d="M242 587q0 -18 -12.5 -30t-29.5 -12t-29.5 12t-12.5 30t12.5 30t29.5 12t29.5 -12t12.5 -30z" />
    <glyph glyph-name="ring" unicode="&#x2da;" 
d="M152 574q0 -21 13.5 -36t34.5 -15t34.5 15t13.5 36t-13.5 36t-34.5 15t-34.5 -15t-13.5 -36zM124 574q0 32 22.5 53.5t53.5 21.5q32 0 54 -21.5t22 -53.5q0 -33 -21.5 -54t-54.5 -21t-54.5 21t-21.5 54z" />
    <glyph glyph-name="ogonek" unicode="&#x2db;" 
d="M202 -281q-44 0 -70 27.5t-26 70.5q0 89 142 183h19q-100 -93 -100 -173q0 -70 74 -70q27 0 49 11l4 -5q-1 -1 -11.5 -10.5t-19 -15.5t-25.5 -12t-36 -6z" />
    <glyph glyph-name="tilde" unicode="&#x2dc;" 
d="M143 608q13 0 59.5 -13t56.5 -13q19 0 57 51l7 -3q-10 -31 -30 -64t-37 -33q-16 0 -60.5 13t-54.5 13q-17 0 -57 -50l-7 3q12 34 30 65t36 31z" />
    <glyph glyph-name="hungarumlaut" unicode="&#x2dd;" 
d="M213 496l-11 4l67 214l51 -22zM96 496l-11 4l66 214l51 -22z" />
    <glyph glyph-name="Wgrave" unicode="&#x1e80;" horiz-adv-x="937" 
d="M601 704l-219 79l27 55l197 -125zM451 610l62 -153l64 153l-51 46v6h142v-6l-56 -46l-83 -192l129 -311l183 503l-72 46v6h162v-6l-55 -46l-228 -624h-8l-154 362l-164 -362h-8l-253 624l-54 46v6h205v-6l-71 -46l200 -505l127 283l-94 222l-55 46v6h182v-6z" />
    <glyph glyph-name="wgrave" unicode="&#x1e81;" horiz-adv-x="631" 
d="M222 23q-2 -5 -5.5 -13.5t-4.5 -11.5q-5 -12 -5 -13h-7q-4 10 -7 16q-7 20 -16 40l-126 319l-50 40v6h182v-6l-59 -40l96 -252l84 241l-3 11l-53 40v6h169v-6l-50 -40l90 -251l88 251l-60 40v6h144v-6l-51 -40l-120 -338q-1 -2 -2.5 -5.5t-3 -8.5t-2.5 -8l-6 -15h-6
q-1 3 -5 13q-1 3 -6.5 18t-9.5 27l-96 259zM365 497l-149 180l56 34l102 -209z" />
    <glyph glyph-name="Wacute" unicode="&#x1e82;" horiz-adv-x="937" 
d="M394 704l-5 9l197 125l27 -55zM451 610l62 -153l64 153l-51 46v6h142v-6l-56 -46l-83 -192l129 -311l183 503l-72 46v6h162v-6l-55 -46l-228 -624h-8l-154 362l-164 -362h-8l-253 624l-54 46v6h205v-6l-71 -46l200 -505l127 283l-94 222l-55 46v6h182v-6z" />
    <glyph glyph-name="wacute" unicode="&#x1e83;" horiz-adv-x="631" 
d="M298 497l-9 5l102 210l56 -35zM222 23q-2 -5 -5.5 -13.5t-4.5 -11.5q-5 -12 -5 -13h-7q-4 10 -7 16q-7 20 -16 40l-126 319l-50 40v6h182v-6l-59 -40l96 -252l84 241l-3 11l-53 40v6h169v-6l-50 -40l90 -251l88 251l-60 40v6h144v-6l-51 -40l-120 -338q-1 -2 -2.5 -5.5
t-3 -8.5t-2.5 -8l-6 -15h-6q-1 3 -5 13q-1 3 -6.5 18t-9.5 27l-96 259z" />
    <glyph glyph-name="Wdieresis" unicode="&#x1e84;" horiz-adv-x="937" 
d="M549 767q0 17 11.5 28.5t28.5 11.5q16 0 28 -11.5t12 -28.5t-12 -28.5t-28 -11.5q-17 0 -28.5 11.5t-11.5 28.5zM373 767q0 17 11.5 28.5t28.5 11.5q16 0 28 -11.5t12 -28.5t-12 -28.5t-28 -11.5q-17 0 -28.5 11.5t-11.5 28.5zM451 610l62 -153l64 153l-51 46v6h142v-6
l-56 -46l-83 -192l129 -311l183 503l-72 46v6h162v-6l-55 -46l-228 -624h-8l-154 362l-164 -362h-8l-253 624l-54 46v6h205v-6l-71 -46l200 -505l127 283l-94 222l-55 46v6h182v-6z" />
    <glyph glyph-name="wdieresis" unicode="&#x1e85;" horiz-adv-x="631" 
d="M376 584q0 17 11 28t28 11q16 0 27.5 -11t11.5 -28t-11.5 -28t-27.5 -11q-17 0 -28 11t-11 28zM253 623q16 0 27.5 -11t11.5 -28t-11.5 -28t-27.5 -11q-17 0 -28 11t-11 28t11 28t28 11zM222 23q-2 -5 -5.5 -13.5t-4.5 -11.5q-5 -12 -5 -13h-7q-4 10 -7 16q-7 20 -16 40
l-126 319l-50 40v6h182v-6l-59 -40l96 -252l84 241l-3 11l-53 40v6h169v-6l-50 -40l90 -251l88 251l-60 40v6h144v-6l-51 -40l-120 -338q-1 -2 -2.5 -5.5t-3 -8.5t-2.5 -8l-6 -15h-6q-1 3 -5 13q-1 3 -6.5 18t-9.5 27l-96 259z" />
    <glyph glyph-name="Ygrave" unicode="&#x1ef2;" horiz-adv-x="587" 
d="M424 656v6h156v-6l-55 -46l-186 -282v-277l65 -45v-6h-208v6l66 45v261l-201 298l-54 46v6h211v-6l-67 -46l169 -257l171 258zM425 704l-219 79l27 55l197 -125z" />
    <glyph glyph-name="ygrave" unicode="&#x1ef3;" horiz-adv-x="419" 
d="M185 -112q-40 -109 -46 -164h-91v5q69 64 114 182l38 98l-149 350l-50 41v6h184v-6l-58 -41l106 -263l98 263l-62 41v6h149v-6l-51 -41zM268 497l-149 180l56 34l102 -209z" />
    <glyph glyph-name="uni2009" unicode="&#x2009;" horiz-adv-x="46" 
 />
    <glyph glyph-name="endash" unicode="&#x2013;" horiz-adv-x="456" 
d="M46 256h364v-30h-364v30z" />
    <glyph glyph-name="emdash" unicode="&#x2014;" horiz-adv-x="726" 
d="M46 256h634v-30h-634v30z" />
    <glyph glyph-name="quoteleft" unicode="&#x2018;" horiz-adv-x="161" 
d="M27 520q0 46 26.5 92.5t70.5 83.5l10 -4q-63 -82 -68 -160q2 1 6 1q3 1 14 1q15 0 25 -10.5t10 -25.5q0 -18 -11.5 -29t-29.5 -11q-24 0 -38.5 16.5t-14.5 45.5z" />
    <glyph glyph-name="quoteright" unicode="&#x2019;" horiz-adv-x="161" 
d="M133 631q0 -46 -26.5 -92.5t-70.5 -83.5l-10 4q63 82 68 160q-2 -1 -6 -1q-3 -1 -14 -1q-15 0 -25 10.5t-10 25.5q0 18 11.5 29t29.5 11q24 0 38.5 -16.5t14.5 -45.5z" />
    <glyph glyph-name="quotesinglbase" unicode="&#x201a;" horiz-adv-x="160" 
d="M133 30q0 -46 -26.5 -92.5t-70.5 -83.5l-10 4q63 82 68 160q-2 -1 -6 -1q-3 -1 -14 -1q-15 0 -25 10.5t-10 25.5q0 18 11.5 29t29.5 11q24 0 38.5 -16.5t14.5 -45.5z" />
    <glyph glyph-name="quotedblleft" unicode="&#x201c;" horiz-adv-x="300" 
d="M166 520q0 46 26.5 92.5t70.5 83.5l10 -4q-63 -82 -68 -160q2 1 6 1q3 1 14 1q15 0 25 -10.5t10 -25.5q0 -18 -11.5 -29t-29.5 -11q-24 0 -38.5 16.5t-14.5 45.5zM27 520q0 46 26.5 92.5t70.5 83.5l10 -4q-63 -82 -68 -160q2 1 6 1q3 1 14 1q15 0 25 -10.5t10 -25.5
q0 -18 -11.5 -29t-29.5 -11q-24 0 -38.5 16.5t-14.5 45.5z" />
    <glyph glyph-name="quotedblright" unicode="&#x201d;" horiz-adv-x="300" 
d="M272 631q0 -46 -26.5 -92.5t-70.5 -83.5l-10 4q66 90 67 160q-1 -1 -5 -1q-3 -1 -14 -1q-16 0 -26 10.5t-10 25.5q0 18 12 29t30 11q24 0 38.5 -16.5t14.5 -45.5zM133 631q0 -46 -26.5 -92.5t-70.5 -83.5l-10 4q63 82 68 160q-2 -1 -6 -1q-3 -1 -14 -1q-15 0 -25 10.5
t-10 25.5q0 18 11.5 29t29.5 11q24 0 38.5 -16.5t14.5 -45.5z" />
    <glyph glyph-name="quotedblbase" unicode="&#x201e;" horiz-adv-x="302" 
d="M272 30q0 -46 -26.5 -92.5t-70.5 -83.5l-10 4q66 90 67 160q-1 -1 -5 -1q-3 -1 -14 -1q-16 0 -26 10.5t-10 25.5q0 18 12 29t30 11q24 0 38.5 -16.5t14.5 -45.5zM133 30q0 -46 -26.5 -92.5t-70.5 -83.5l-10 4q63 82 68 160q-2 -1 -6 -1q-3 -1 -14 -1q-15 0 -25 10.5
t-10 25.5q0 18 11.5 29t29.5 11q24 0 38.5 -16.5t14.5 -45.5z" />
    <glyph glyph-name="dagger" unicode="&#x2020;" horiz-adv-x="345" 
d="M150 -109h-5v583h-125v5l31 34h94v112l43 51h5v-163h131v-5l-30 -34h-101v-532z" />
    <glyph glyph-name="daggerdbl" unicode="&#x2021;" horiz-adv-x="353" 
d="M333 492l-30 -33h-101v-235h121v-5l-30 -34h-91v-145l-43 -50h-5v195h-134v5l31 34h103v235h-124v4l30 34h94v128l43 50h5v-178h131v-5z" />
    <glyph glyph-name="bullet" unicode="&#x2022;" horiz-adv-x="319" 
d="M61 246q0 42 28.5 71t70.5 29q41 0 69.5 -29.5t28.5 -70.5q0 -42 -28 -70.5t-70 -28.5t-70.5 28.5t-28.5 70.5z" />
    <glyph glyph-name="ellipsis" unicode="&#x2026;" horiz-adv-x="548" 
d="M414 38q0 20 13 32.5t33 12.5t32.5 -12.5t12.5 -32.5t-12.5 -33t-32.5 -13t-33 13t-13 33zM229 38q0 20 13 32.5t33 12.5t32.5 -12.5t12.5 -32.5t-12.5 -33t-32.5 -13t-33 13t-13 33zM44 38q0 20 13 32.5t33 12.5t32.5 -12.5t12.5 -32.5t-12.5 -33t-32.5 -13t-33 13
t-13 33z" />
    <glyph glyph-name="perthousand" unicode="&#x2030;" horiz-adv-x="964" 
d="M790 -9q-59 0 -100 40t-41 99q0 58 42 100.5t99 42.5q59 0 100 -40.5t41 -98.5q0 -60 -41 -101.5t-100 -41.5zM688 131q0 -45 30 -76t72 -31q45 0 74 30.5t29 76.5q0 47 -29 77.5t-74 30.5q-42 0 -72 -31t-30 -77zM465 24q44 0 73 30.5t29 76.5q0 47 -29 77.5t-73 30.5
q-43 0 -72.5 -30.5t-29.5 -77.5q0 -45 30 -76t72 -31zM324 130q0 58 42 100.5t99 42.5q59 0 100 -40.5t41 -98.5q0 -60 -41 -101.5t-100 -41.5t-100 40t-41 99zM33 528q0 58 41.5 100t99.5 42q59 0 100 -40t41 -99q0 -58 -41.5 -100.5t-99.5 -42.5q-60 0 -100.5 40.5
t-40.5 99.5zM174 636q-43 0 -72.5 -30t-29.5 -77q0 -46 29.5 -76.5t72.5 -30.5q44 0 73 30t29 77t-29 77t-73 30zM535 662h41l-468 -662h-42z" />
    <glyph glyph-name="uni2032" unicode="&#x2032;" horiz-adv-x="168" 
d="M124 687l-76 -228h-8l18 228h66zM125 688v-1h-1z" />
    <glyph glyph-name="uni2033" unicode="&#x2033;" horiz-adv-x="288" 
d="M243 687l-76 -228h-8l18 228h66zM244 688v-1h-1zM124 687l-76 -228h-8l18 228h66zM125 688v-1h-1z" />
    <glyph glyph-name="guilsinglleft" unicode="&#x2039;" horiz-adv-x="200" 
d="M22 223l146 152l6 -6l-82 -146l82 -149l-6 -6z" />
    <glyph glyph-name="guilsinglright" unicode="&#x203a;" horiz-adv-x="200" 
d="M31 375l146 -152l-146 -155l-6 6l82 149l-82 146z" />
    <glyph glyph-name="fraction" unicode="&#x2044;" horiz-adv-x="470" 
d="M434 662h36l-434 -662h-36z" />
    <glyph glyph-name="Euro" unicode="&#x20ac;" horiz-adv-x="567" 
d="M375 -10q-115 0 -198.5 79.5t-97.5 214.5h-77v27h75v18q0 15 2 47h-77v28h81q19 116 93 192.5t186 76.5q76 0 148 -18v-93h-5q-56 81 -153 81q-78 0 -125.5 -65.5t-60.5 -173.5h250v-28h-252q-1 -12 -1 -37v-28h253v-27h-251q12 -121 71.5 -191t137.5 -70q86 0 144 86h6
v-88q-66 -31 -149 -31z" />
    <glyph glyph-name="trademark" unicode="&#x2122;" horiz-adv-x="605" 
d="M592 658l-30 -21v-216l30 -21v-5h-105v5l30 21v182l-97 -184h-10l-96 183v-181l33 -21v-5h-90v5l33 21v212q-14 14 -28 24v5h71l93 -183l96 183h70v-4zM4 662h230v-61h-4l-29 40h-60v-221l30 -20v-5h-103v5l28 20v221h-59l-28 -41h-5v62z" />
    <glyph glyph-name="onethird" unicode="&#x2153;" horiz-adv-x="500" 
d="M41 377v4l38 25v207l-41 19v4q5 1 43.5 15t48.5 17v-262l36 -25v-4h-125zM453 662h36l-434 -662h-36zM339 155q38 20 55 35.5t17 36.5q0 31 -37 31q-28 0 -54 -23l-3 4q20 52 82 52q29 0 46 -13.5t17 -38.5q0 -37 -53 -59q33 -3 56.5 -20.5t23.5 -50.5q0 -49 -47 -81.5
t-130 -36.5l-3 6q125 45 125 103q0 49 -64 49q-14 0 -28 -2z" />
    <glyph glyph-name="twothirds" unicode="&#x2154;" horiz-adv-x="553" 
d="M219 463h5v-86h-205v10q96 116 112 144t16 51t-13.5 37t-36.5 14q-39 0 -62 -28l-7 3q28 60 89 60q39 0 62 -22t23 -56q0 -38 -32 -76t-99 -95h117zM506 662h36l-434 -662h-36zM391 155q38 20 55 35.5t17 36.5q0 31 -37 31q-28 0 -54 -23l-3 4q20 52 82 52q29 0 46 -13.5
t17 -38.5q0 -37 -53 -59q33 -3 56.5 -20.5t23.5 -50.5q0 -49 -47 -81.5t-130 -36.5l-3 6q125 45 125 103q0 49 -64 49q-14 0 -28 -2z" />
    <glyph glyph-name="oneeighth" unicode="&#x215b;" horiz-adv-x="515" 
d="M41 377v4l38 25v207l-41 19v4q5 1 43.5 15t48.5 17v-262l36 -25v-4h-125zM453 662h36l-434 -662h-36zM415 291q43 0 67.5 -17t24.5 -41q0 -47 -66 -70q42 -21 59 -42t17 -48q0 -33 -28.5 -56t-81.5 -23q-48 0 -75.5 17.5t-27.5 47.5q0 47 75 79q-67 35 -67 81
q0 33 27.5 52.5t75.5 19.5zM467 57q0 21 -14.5 37.5t-58.5 36.5q-45 -28 -45 -67q0 -20 15.5 -34t45.5 -14q26 0 41.5 11.5t15.5 29.5zM361 234q0 -34 65 -65q36 23 36 58q0 43 -51 43q-50 0 -50 -36z" />
    <glyph glyph-name="threeeighths" unicode="&#x215c;" horiz-adv-x="519" 
d="M445 662h36l-434 -662h-36zM45 532q38 20 55 35.5t17 36.5q0 31 -37 31q-28 0 -54 -23l-3 4q20 52 82 52q29 0 46 -13.5t17 -38.5q0 -37 -53 -59q33 -3 56.5 -20.5t23.5 -50.5q0 -49 -47 -81.5t-130 -36.5l-3 6q125 45 125 103q0 49 -64 49q-14 0 -28 -2zM408 291
q43 0 67.5 -17t24.5 -41q0 -47 -66 -70q42 -21 59 -42t17 -48q0 -33 -28.5 -56t-81.5 -23q-48 0 -75.5 17.5t-27.5 47.5q0 47 75 79q-67 35 -67 81q0 33 27.5 52.5t75.5 19.5zM460 57q0 21 -14.5 37.5t-58.5 36.5q-45 -28 -45 -67q0 -20 15.5 -34t45.5 -14q26 0 41.5 11.5
t15.5 29.5zM354 234q0 -34 65 -65q36 23 36 58q0 43 -51 43q-50 0 -50 -36z" />
    <glyph glyph-name="fiveeighths" unicode="&#x215d;" horiz-adv-x="524" 
d="M450 662h36l-434 -662h-36zM200 662l-18 -45h-103l-11 -40q131 -25 131 -96q0 -44 -45.5 -74.5t-128.5 -38.5l-3 8q127 42 127 94q0 49 -117 64q32 116 34 128h134zM412 291q43 0 67.5 -17t24.5 -41q0 -47 -66 -70q42 -21 59 -42t17 -48q0 -33 -28.5 -56t-81.5 -23
q-48 0 -75.5 17.5t-27.5 47.5q0 47 75 79q-67 35 -67 81q0 33 27.5 52.5t75.5 19.5zM464 57q0 21 -14.5 37.5t-58.5 36.5q-45 -28 -45 -67q0 -20 15.5 -34t45.5 -14q26 0 41.5 11.5t15.5 29.5zM358 234q0 -34 65 -65q36 23 36 58q0 43 -51 43q-50 0 -50 -36z" />
    <glyph glyph-name="seveneighths" unicode="&#x215e;" horiz-adv-x="494" 
d="M39 662h189v-4l-129 -281h-34l109 239h-155zM421 662h36l-434 -662h-36zM382 291q43 0 67.5 -17t24.5 -41q0 -47 -66 -70q42 -21 59 -42t17 -48q0 -33 -28.5 -56t-81.5 -23q-48 0 -75.5 17.5t-27.5 47.5q0 47 75 79q-67 35 -67 81q0 33 27.5 52.5t75.5 19.5zM434 57
q0 21 -14.5 37.5t-58.5 36.5q-45 -28 -45 -67q0 -20 15.5 -34t45.5 -14q26 0 41.5 11.5t15.5 29.5zM328 234q0 -34 65 -65q36 23 36 58q0 43 -51 43q-50 0 -50 -36z" />
    <glyph glyph-name="minus" unicode="&#x2212;" horiz-adv-x="449" 
d="M49 231v30h351v-30h-351z" />
    <glyph glyph-name="uni24C5" unicode="&#x24c5;" horiz-adv-x="768" 
d="M384 641q-128 0 -213.5 -89.5t-85.5 -219.5q0 -129 88 -219t211 -90q127 0 213 89.5t86 219.5q0 128 -87 218.5t-212 90.5zM384 674q141 0 240.5 -100.5t99.5 -241.5q0 -144 -98 -243t-242 -99q-145 0 -242.5 98.5t-97.5 243.5q0 144 98 243t242 99zM534 413
q0 -52 -43.5 -82t-103.5 -30v3q82 27 82 98q0 39 -21 61t-59 22h-26v-285l42 -29v-4h-145v4l39 29v277l-39 28v4h143q57 0 94 -24t37 -72z" />
    <glyph glyph-name="W.001" horiz-adv-x="927" 
d="M488 677l182 -541l156 474l-69 46v6h160v-6l-55 -46l-206 -624h-7l-185 533l-187 -533h-7l-206 624l-54 46v6h202v-6l-69 -46l152 -474l187 541h6z" />
    <glyph glyph-name="w.001" horiz-adv-x="623" 
d="M219 22q-1 -4 -3.5 -12.5t-4.5 -12.5q-4 -8 -5 -12h-10q-1 7 -6 16q-8 21 -14 39l-125 320l-50 40v6h181v-6l-59 -40l94 -255l113 311h10l112 -311l86 255l-59 40v6h144v-6l-52 -40l-114 -335q-4 -11 -10 -27q-5 -12 -5 -13h-10q-1 7 -6 16q-7 18 -16 41l-92 245z" />
    <glyph glyph-name="acute.uc" 
d="M94 704l-5 9l197 125l27 -55z" />
    <glyph glyph-name="breve.uc" 
d="M200 715q-47 0 -76 34.5t-33 83.5l7 1q32 -66 102 -66q68 0 102 66l7 -1q-4 -48 -33 -83t-76 -35z" />
    <glyph glyph-name="circumflex.uc" 
d="M202 830l134 -114l-4 -7l-130 55l-133 -55l-5 7z" />
    <glyph glyph-name="dieresis.uc" 
d="M248 767q0 17 11.5 28.5t28.5 11.5q16 0 28 -11.5t12 -28.5t-12 -28.5t-28 -11.5q-17 0 -28.5 11.5t-11.5 28.5zM72 767q0 17 11.5 28.5t28.5 11.5q16 0 28 -11.5t12 -28.5t-12 -28.5t-28 -11.5q-17 0 -28.5 11.5t-11.5 28.5z" />
    <glyph glyph-name="grave.uc" 
d="M307 704l-219 79l27 55l197 -125z" />
    <glyph glyph-name="macron.uc" 
d="M92 770h217v-41h-217v41z" />
    <glyph glyph-name="ring.uc" 
d="M152 776q0 -21 13.5 -36t34.5 -15t34.5 15t13.5 36t-13.5 36t-34.5 15t-34.5 -15t-13.5 -36zM124 776q0 32 22.5 53.5t53.5 21.5q32 0 54 -21.5t22 -53.5q0 -33 -21.5 -54t-54.5 -21t-54.5 21t-21.5 54z" />
    <glyph glyph-name="tilde.uc" 
d="M136 800q12 0 66 -9.5t66 -9.5q6 0 13.5 3.5t15.5 10.5t13.5 12.5l13.5 13.5l9 9l5 -3q-6 -15 -16 -34t-27.5 -40t-32.5 -21q-17 0 -68.5 9.5t-61.5 9.5q-24 0 -65 -50l-6 3q42 96 75 96z" />
    <glyph glyph-name="Cacute.pl" horiz-adv-x="670" 
d="M396 -11q-154 0 -254 94.5t-100 243.5q0 90 40.5 168t122.5 128t190 50q99 0 205 -30v-98h-4q-69 99 -201 99q-124 0 -195.5 -90t-71.5 -220q0 -135 78 -225.5t193 -90.5q123 0 211 106h5v-88q-91 -47 -219 -47zM368 706h-9l14 162l64 -15z" />
    <glyph glyph-name="acute.ucpl" 
d="M167 706h-9l14 162l64 -15z" />
    <glyph glyph-name="acute.pl" 
d="M173 492l-12 2l22 224l64 -11z" />
    <glyph glyph-name="caron.uc" 
d="M69 826l133 -55l130 55l4 -7l-134 -114l-138 114z" />
    <glyph glyph-name="dotaccent.uc" 
d="M201 727q-17 0 -29.5 12t-12.5 30t12.5 30t29.5 12t29.5 -12t12.5 -30t-12.5 -30t-29.5 -12z" />
    <glyph glyph-name="space_uni0326" 
d="M245 -142q0 -43 -26 -86.5t-58 -66.5l-10 3q21 26 38 64t19 70q-1 -1 -5 -1q-3 -1 -12 -1q-15 0 -24.5 11t-9.5 27q0 17 11.5 28.5t27.5 11.5q49 0 49 -60z" />
    <glyph glyph-name="K.001" horiz-adv-x="641" 
d="M49 0v6l65 46v558l-65 46v6h208v-6l-66 -46v-558l66 -46v-6h-208zM582 -8q-45 0 -79.5 28.5t-101.5 107.5q-8 11 -13 16l-169 198v5l252 263l-66 46v6h189v-6l-73 -40l-236 -240l155 -184q74 -89 119 -130t79 -57v-6q-16 -7 -56 -7z" />
    <glyph glyph-name="Kcommaaccent.001" horiz-adv-x="641" 
d="M401 -142q0 -43 -26 -86.5t-58 -66.5l-10 3q21 26 38 64t19 70q-1 -1 -5 -1q-3 -1 -12 -1q-15 0 -24.5 11t-9.5 27q0 17 11.5 28.5t27.5 11.5q49 0 49 -60zM49 0v6l65 46v558l-65 46v6h208v-6l-66 -46v-558l66 -46v-6h-208zM582 -8q-45 0 -79.5 28.5t-101.5 107.5
q-8 11 -13 16l-169 198v5l252 263l-66 46v6h189v-6l-73 -40l-236 -240l155 -184q74 -89 119 -130t79 -57v-6q-16 -7 -56 -7z" />
    <glyph glyph-name="caron.alt" 
d="M160 511l23 204h59l-71 -204h-11z" />
    <glyph glyph-name="Nacute.pl" horiz-adv-x="763" 
d="M386 706h-9l14 162l64 -15zM40 0v6l74 51v525q-46 51 -77 74v6h108l474 -543v486l-72 51v6h181v-6l-74 -51v-605h-25l-480 542v-485l71 -51v-6h-180z" />
    <glyph glyph-name="Oacute.pl" horiz-adv-x="739" 
d="M357 706h-9l14 162l64 -15zM44 323q0 148 94 249t232 101q137 0 231.5 -95.5t94.5 -241.5t-95.5 -246.5t-231.5 -100.5t-230.5 95t-94.5 239zM131 330q0 -142 68 -227t170 -85t171.5 86t69.5 226q0 141 -69 227.5t-171 86.5q-103 0 -171 -86.5t-68 -227.5z" />
    <glyph glyph-name="hungarumlaut.uc" 
d="M335 849l35 -48l-175 -97l-7 8zM36 704l-7 8l147 137l34 -48z" />
    <glyph glyph-name="Q.long" horiz-adv-x="739" 
d="M935 -221q-63 0 -169 23t-225 72q-240 99 -339 160q-75 45 -116.5 120.5t-41.5 168.5q0 148 94 249t231 101t231.5 -95.5t94.5 -241.5q0 -121 -68 -214.5t-181 -123.5q182 -86 287 -119q171 -53 319 -53q128 0 216 30l4 -8q-120 -69 -337 -69zM130 330q0 -141 68 -226.5
t170 -85.5t172 86t70 226q0 141 -69.5 227.5t-171.5 86.5q-103 0 -171 -86.5t-68 -227.5z" />
    <glyph glyph-name="Sacute.pl" horiz-adv-x="466" 
d="M248 673q75 0 125 -21v-83h-4q-13 28 -45 51.5t-80 23.5t-79 -27t-31 -72q0 -28 8 -49t30 -43t38 -34.5t56 -40.5q42 -30 62 -46.5t46 -43.5t36.5 -55t10.5 -62q0 -78 -52 -129.5t-142 -51.5q-98 0 -172 43q-11 80 -7 155h6q6 -25 14.5 -47.5t27.5 -53t53 -49t78 -18.5
q56 0 90.5 35t34.5 85q0 54 -29.5 91.5t-99.5 83.5q-79 51 -117 98t-38 107q0 70 49.5 111.5t130.5 41.5zM226 706h-9l14 162l64 -15z" />
    <glyph glyph-name="Wacute.001" horiz-adv-x="927" 
d="M385 704l-5 9l197 125l27 -55zM488 677l182 -541l156 474l-69 46v6h160v-6l-55 -46l-206 -624h-7l-185 533l-187 -533h-7l-206 624l-54 46v6h202v-6l-69 -46l152 -474l187 541h6z" />
    <glyph glyph-name="Wcircumflex.001" horiz-adv-x="927" 
d="M482 830l134 -114l-4 -7l-130 55l-133 -55l-5 7zM488 677l182 -541l156 474l-69 46v6h160v-6l-55 -46l-206 -624h-7l-185 533l-187 -533h-7l-206 624l-54 46v6h202v-6l-69 -46l152 -474l187 541h6z" />
    <glyph glyph-name="Wdieresis.001" horiz-adv-x="927" 
d="M488 677l182 -541l156 474l-69 46v6h160v-6l-55 -46l-206 -624h-7l-185 533l-187 -533h-7l-206 624l-54 46v6h202v-6l-69 -46l152 -474l187 541h6zM531 767q0 17 11.5 28.5t28.5 11.5q16 0 28 -11.5t12 -28.5t-12 -28.5t-28 -11.5q-17 0 -28.5 11.5t-11.5 28.5zM355 767
q0 17 11.5 28.5t28.5 11.5q16 0 28 -11.5t12 -28.5t-12 -28.5t-28 -11.5q-17 0 -28.5 11.5t-11.5 28.5z" />
    <glyph glyph-name="Wgrave.001" horiz-adv-x="927" 
d="M587 704l-219 79l27 55l197 -125zM488 677l182 -541l156 474l-69 46v6h160v-6l-55 -46l-206 -624h-7l-185 533l-187 -533h-7l-206 624l-54 46v6h202v-6l-69 -46l152 -474l187 541h6z" />
    <glyph glyph-name="Zacute.pl" horiz-adv-x="627" 
d="M135 29h374l76 100h6v-129h-554v9l432 624h-333l-67 -93h-6v122h513v-8zM313 706h-9l14 162l64 -15z" />
    <glyph glyph-name="ampersand.uc" horiz-adv-x="729" 
d="M732 433q-65 -37 -93.5 -73t-84.5 -139q-30 -53 -38 -66q20 -28 33 -43.5t34.5 -35.5t46.5 -29.5t54 -9.5q37 0 58 9l3 -4q-45 -45 -106 -45q-96 0 -165 99q-86 -105 -200 -105q-105 0 -170 57t-65 140q0 72 50 134.5t123 91.5q-71 70 -71 136q0 48 38.5 85.5t99.5 37.5
q51 0 92 -27.5t41 -80.5q0 -16 -3.5 -30t-12 -26t-14.5 -20t-20.5 -18t-21 -14t-24 -14t-21.5 -12q64 -66 107.5 -117.5t95.5 -129.5l21 37q69 127 95 158l-73 54v6h191v-6zM455 124q-61 91 -106 145t-120 129q-113 -68 -113 -186q0 -76 47 -125t126 -49q95 0 166 86z
M201 568q0 -30 16.5 -53.5t61.5 -68.5v1q70 45 70 114q0 39 -19.5 62t-50.5 23q-35 0 -56.5 -22t-21.5 -56z" />
    <glyph glyph-name="at.uc" horiz-adv-x="874" 
d="M531 144q43 1 84.5 17t79 46t60.5 82.5t23 118.5q0 51 -16 97t-49 85.5t-92 63t-138 23.5q-87 0 -159.5 -35t-118.5 -92t-71.5 -126t-25.5 -140q0 -162 93.5 -257t236.5 -95q86 0 155 26.5t111 60.5l7 -7q-42 -45 -117 -81.5t-167 -36.5q-167 0 -273.5 101t-106.5 268
q0 187 133.5 319.5t321.5 132.5q155 0 244.5 -83t89.5 -200q0 -104 -53.5 -179.5t-137.5 -109t-182 -26.5l29 147q-95 -144 -168 -144q-23 0 -42.5 24t-19.5 69q0 42 16.5 87.5t48 89.5t87.5 76t127 39l69 32zM351 172q24 0 69.5 43t81.5 98l33 163q-86 -6 -146 -84
t-60 -174q0 -20 6.5 -33t15.5 -13z" />
    <glyph glyph-name="backslash.uc" horiz-adv-x="326" 
d="M20 744l32 8l253 -847l-31 -7z" />
    <glyph glyph-name="slash.uc" horiz-adv-x="326" 
d="M273 752l32 -8l-254 -846l-31 7z" />
    <glyph glyph-name="bar.uc" horiz-adv-x="255" 
d="M111 -102v845h33v-845h-33z" />
    <glyph glyph-name="braceleft.uc" horiz-adv-x="254" 
d="M110 33q0 -77 106 -133l-5 -6q-66 24 -103 54t-46 53t-9 53q0 29 33 94t33 93q0 78 -101 82v18q51 1 76 23.5t25 58.5q0 27 -33 89.5t-33 91.5q0 27 9 50t46.5 53t102.5 52l5 -7q-106 -54 -106 -127q0 -31 31 -97t31 -93q0 -34 -28 -64.5t-79 -38.5q52 -9 79.5 -38.5
t27.5 -65.5q0 -28 -31 -96.5t-31 -98.5z" />
    <glyph glyph-name="braceright.uc" horiz-adv-x="254" 
d="M143 33q0 30 -31 98.5t-31 96.5q0 36 27.5 65.5t79.5 38.5q-51 8 -79 38.5t-28 64.5q0 27 31 93t31 97q0 73 -106 127l5 7q65 -22 102.5 -52t46.5 -53t9 -50q0 -29 -33 -91.5t-33 -89.5q0 -36 25 -58.5t76 -23.5v-18q-101 -4 -101 -82q0 -28 33 -93t33 -94q0 -30 -9 -53
t-46 -53t-103 -54l-5 6q106 56 106 133z" />
    <glyph glyph-name="bracketleft.uc" horiz-adv-x="234" 
d="M212 729h-88v-804h88v-20h-151v844h151v-20z" />
    <glyph glyph-name="bracketright.uc" horiz-adv-x="234" 
d="M109 729h-88v20h151v-844h-151v20h88v804z" />
    <glyph glyph-name="cacute.pl" horiz-adv-x="403" 
d="M243 415q56 0 120 -16v-87h-5q-54 74 -130 74q-60 0 -96.5 -49.5t-36.5 -116.5q0 -86 48.5 -133.5t122.5 -47.5q69 0 116 32l3 -7q-56 -74 -159 -74q-84 0 -141.5 55.5t-57.5 150.5q0 91 58 155t158 64zM211 492l-12 2l22 224l64 -11z" />
    <glyph glyph-name="space_uni0326.alt" 
d="M155 561q0 43 26 85.5t58 67.5l10 -4q-20 -22 -37.5 -62t-19.5 -72q3 0 5 1q1 0 5 0.5t7 0.5q16 0 25 -10.5t9 -27.5t-11.5 -28t-27.5 -11q-49 0 -49 60z" />
    <glyph glyph-name="divide.lin" horiz-adv-x="467" 
d="M190 136q0 20 13 32.5t31 12.5t30.5 -12.5t12.5 -32.5q0 -18 -13 -30.5t-30 -12.5q-18 0 -31 12.5t-13 30.5zM190 447q0 20 13 33t31 13t30.5 -13t12.5 -33q0 -18 -12.5 -30t-30.5 -12t-31 12t-13 30zM49 311h370v-30h-370v30z" />
    <glyph glyph-name="eight.den" horiz-adv-x="252" 
d="M131 291q43 0 67.5 -17t24.5 -41q0 -47 -66 -70q42 -21 59 -42t17 -48q0 -33 -28.5 -56t-81.5 -23q-48 0 -75.5 17.5t-27.5 47.5q0 47 75 79q-67 35 -67 81q0 33 27.5 52.5t75.5 19.5zM183 57q0 21 -14.5 37.5t-58.5 36.5q-45 -28 -45 -67q0 -20 15.5 -34t45.5 -14
q26 0 41.5 11.5t15.5 29.5zM77 234q0 -34 65 -65q36 23 36 58q0 43 -51 43q-50 0 -50 -36z" />
    <glyph glyph-name="eight.lin" horiz-adv-x="476" 
d="M239 672q72 0 119.5 -39.5t47.5 -98.5q0 -50 -29.5 -90t-95.5 -78q77 -47 114.5 -92t37.5 -110q0 -76 -55.5 -125t-139.5 -49q-83 0 -139 42t-56 111q0 58 36 103t112 92q-72 48 -99 88t-27 93q0 66 51.5 109.5t122.5 43.5zM220 320q-1 1 -3.5 2.5t-3.5 1.5
q-104 -72 -104 -176q0 -55 36 -92.5t94 -37.5q57 0 92.5 36.5t35.5 87.5q0 54 -33 92t-114 86zM126 542q0 -48 28.5 -80t106.5 -84q84 64 84 150q0 54 -28.5 85t-80.5 31q-50 0 -80 -29.5t-30 -72.5z" />
    <glyph glyph-name="eight.num" horiz-adv-x="251" 
d="M131 668q43 0 67.5 -17t24.5 -41q0 -47 -66 -70q42 -21 59 -42t17 -48q0 -33 -28.5 -56t-81.5 -23q-48 0 -75.5 17.5t-27.5 47.5q0 47 75 79q-67 35 -67 81q0 33 27.5 52.5t75.5 19.5zM183 434q0 21 -14.5 37.5t-58.5 36.5q-45 -28 -45 -67q0 -20 15.5 -34t45.5 -14
q26 0 41.5 11.5t15.5 29.5zM77 611q0 -34 65 -65q36 22 36 58q0 43 -51 43q-50 0 -50 -36z" />
    <glyph glyph-name="eight.sub" horiz-adv-x="252" 
d="M131 187q43 0 67.5 -17t24.5 -41q0 -47 -66 -70q42 -21 59 -42t17 -48q0 -33 -28.5 -56t-81.5 -23q-48 0 -75.5 17.5t-27.5 47.5q0 47 75 79q-67 35 -67 81q0 33 27.5 52.5t75.5 19.5zM183 -47q0 21 -14.5 37.5t-58.5 36.5q-45 -28 -45 -67q0 -20 15.5 -34t45.5 -14
q26 0 41.5 11.5t15.5 29.5zM77 130q0 -34 65 -65q36 23 36 58q0 43 -51 43q-50 0 -50 -36z" />
    <glyph glyph-name="eight.sup" horiz-adv-x="252" 
d="M131 721q43 0 67.5 -17t24.5 -41q0 -47 -66 -70q42 -21 59 -42t17 -48q0 -33 -28.5 -56t-81.5 -23q-48 0 -75.5 17.5t-27.5 47.5q0 47 75 79q-67 35 -67 81q0 33 27.5 52.5t75.5 19.5zM183 487q0 21 -14.5 37.5t-58.5 36.5q-45 -28 -45 -67q0 -20 15.5 -34t45.5 -14
q26 0 41.5 11.5t15.5 29.5zM77 664q0 -34 65 -65q36 23 36 58q0 43 -51 43q-50 0 -50 -36z" />
    <glyph glyph-name="emdash.uc" horiz-adv-x="726" 
d="M46 321h634v-30h-634v30z" />
    <glyph glyph-name="endash.uc" horiz-adv-x="456" 
d="M46 321h364v-30h-364v30z" />
    <glyph glyph-name="equal.lin" horiz-adv-x="458" 
d="M54 235v28h351v-28h-351zM54 320v28h351v-28h-351z" />
    <glyph glyph-name="exclamdown.uc" horiz-adv-x="193" 
d="M57 0q0 -1 2 31.5t6 87t8.5 111.5t9 120t7.5 99h12l33 -449h-78zM141 624q0 -20 -13 -32.5t-33 -12.5t-32.5 12.5t-12.5 32.5t12.5 33t32.5 13t33 -13t13 -33z" />
    <glyph glyph-name="f.short" horiz-adv-x="283" 
d="M230 6v-6h-211v6l61 42v314h-63v7l63 35v48q0 112 65.5 187.5t160.5 75.5q32 0 72 -10l-25 -57q-49 32 -88 32q-38 0 -77.5 -50.5t-39.5 -137.5v-89h139l-37 -41h-102v-309z" />
    <glyph glyph-name="f_f.short" horiz-adv-x="541" 
d="M233 6v-6h-214v6l61 42v314h-62v7l62 35v40q0 111 62.5 187t159.5 76q30 0 70 -7l-25 -56q-52 28 -84 28q-39 0 -77 -48.5t-38 -135.5v-85h190v49q0 112 65.5 187.5t160.5 75.5q32 0 72 -10l-25 -57q-49 32 -88 32q-38 0 -77.5 -50.5t-39.5 -137.5v-89h139l-37 -41h-102
v-309l82 -47v-6h-211v6l61 42v314h-190v-310z" />
    <glyph glyph-name="f_f_k.001" horiz-adv-x="972" 
d="M233 6v-6h-214v6l61 42v314h-62v7l62 35v40q0 111 62.5 187t159.5 76q30 0 70 -7l-25 -56q-52 28 -84 28q-39 0 -77 -48.5t-38 -135.5v-85h190v50q0 114 68 188t173 74q39 0 85 -8v-659l62 -42v-6h-190v6l60 42v615q-22 16 -59 16q-50 0 -90.5 -48t-40.5 -140v-88h142
l-37 -41h-105v-309l86 -47v-6h-215v6l61 42v314h-190v-310zM857 361l-104 -103l159 -210l58 -42v-6h-183v6l50 39l-131 170h-32l139 139l-54 47v5h186v-5z" />
    <glyph glyph-name="f_k.001" horiz-adv-x="714" 
d="M234 6v-6h-215v6l61 42v314h-62v7l62 35v49q0 114 68 188t173 74q39 0 85 -8v-659l62 -42v-6h-190v6l60 42v615q-26 16 -59 16q-50 0 -90.5 -48t-40.5 -140v-88h141l-36 -41h-105v-309zM448 215h-32l139 139l-54 47v5h185v-5l-87 -40l-104 -103l159 -210l58 -42v-6h-184
v6l50 39z" />
    <glyph glyph-name="five.den" horiz-adv-x="214" 
d="M190 286l-18 -45h-103l-11 -40q131 -25 131 -96q0 -44 -45.5 -74.5t-128.5 -38.5l-3 8q127 42 127 94q0 49 -117 64q32 116 34 128h134z" />
    <glyph glyph-name="five.num" horiz-adv-x="214" 
d="M190 662l-18 -45h-103l-11 -40q131 -25 131 -96q0 -44 -45.5 -74.5t-128.5 -38.5l-3 8q127 42 127 94q0 49 -117 64q32 116 34 128h134z" />
    <glyph glyph-name="five.lin" horiz-adv-x="398" 
d="M329 662l-30 -62h-185l-24 -94q115 -39 187.5 -102.5t72.5 -143.5q0 -89 -84.5 -161.5t-226.5 -118.5l-4 9q242 131 242 256q0 48 -39 91t-87 67t-107 43l22 88l32 128h231z" />
    <glyph glyph-name="five.sub" horiz-adv-x="214" 
d="M190 181l-18 -45h-103l-11 -40q131 -25 131 -96q0 -44 -45.5 -74.5t-128.5 -38.5l-3 8q127 42 127 94q0 49 -117 64q32 116 34 128h134z" />
    <glyph glyph-name="five.sup" horiz-adv-x="214" 
d="M190 715l-18 -45h-103l-11 -40q131 -25 131 -96q0 -44 -45.5 -74.5t-128.5 -38.5l-3 8q127 42 127 94q0 49 -117 64q32 115 34 128h134z" />
    <glyph glyph-name="four.den" horiz-adv-x="259" 
d="M230 3v-3h-117v3l33 23v50h-140v9l159 202h32v-179h58l-21 -32h-37v-50zM146 108v114l-90 -114h90z" />
    <glyph glyph-name="four.lin" horiz-adv-x="499" 
d="M429 6v-6h-204v6l65 46v144h-282v7l349 462h7v-411h124l-33 -58h-91v-144zM290 254v268l-204 -268h204z" />
    <glyph glyph-name="four.num" horiz-adv-x="259" 
d="M230 380v-3h-117v3l34 23v50h-141v9l160 202h31v-179h58l-21 -32h-37v-50zM147 485v116l-91 -116h91z" />
    <glyph glyph-name="four.sub" horiz-adv-x="259" 
d="M230 -101v-3h-117v3l34 23v50h-141v9l160 202h31v-179h58l-21 -32h-37v-50zM147 4v116l-91 -116h91z" />
    <glyph glyph-name="four.sup" horiz-adv-x="259" 
d="M230 433v-3h-117v3l34 23v50h-141v9l160 202h31v-179h58l-21 -32h-37v-50zM147 538v116l-91 -116h91z" />
    <glyph glyph-name="greater.lin" horiz-adv-x="432" 
d="M48 186l299 110l-299 113v30l337 -129v-28l-337 -126v30z" />
    <glyph glyph-name="guillemotleft.uc" horiz-adv-x="315" 
d="M282 133l-132 153l132 154l7 -5l-74 -149l74 -148zM21 286l132 154l7 -5l-74 -149l74 -148l-7 -5z" />
    <glyph glyph-name="guillemotright.uc" horiz-adv-x="315" 
d="M165 286l-132 -153l-7 5l74 148l-74 149l7 5zM162 440l132 -154l-132 -153l-7 5l74 148l-74 149z" />
    <glyph glyph-name="guilsinglleft.uc" horiz-adv-x="200" 
d="M22 288l146 152l6 -6l-82 -146l82 -149l-6 -6z" />
    <glyph glyph-name="guilsinglright.uc" horiz-adv-x="200" 
d="M31 440l146 -152l-146 -155l-6 6l82 149l-82 146z" />
    <glyph glyph-name="hyphen.uc" horiz-adv-x="253" 
d="M47 330h160v-53h-160v53z" />
    <glyph glyph-name="idotaccent" horiz-adv-x="233" 
d="M22 0v6l60 42v296l-56 27v6l62 24q32 11 62 19v-372l61 -42v-6h-189zM70 586q0 18 12 30.5t29 12.5q18 0 30 -12.5t12 -30.5t-12 -29.5t-30 -11.5q-17 0 -29 11.5t-12 29.5z" />
    <glyph glyph-name="k.001" horiz-adv-x="458" 
d="M151 48l59 -42v-6h-187v6l60 42v598l-58 28v8q-1 -1 15.5 5.5t49 18t61.5 19.5v-677zM193 215h-32l139 139l-54 47v5h185v-5l-87 -40l-104 -103l159 -210l58 -42v-6h-183v6l49 39z" />
    <glyph glyph-name="kcommaaccent.001" horiz-adv-x="458" 
d="M297 -142q0 -43 -26 -86.5t-58 -66.5l-10 3q21 26 38 64t19 70q-1 -1 -5 -1q-3 -1 -12 -1q-15 0 -24.5 11t-9.5 27q0 17 11.5 28.5t27.5 11.5q49 0 49 -60zM151 48l59 -42v-6h-187v6l60 42v598l-58 28v8q-1 -1 15.5 5.5t49 18t61.5 19.5v-677zM193 215h-32l139 139
l-54 47v5h185v-5l-87 -40l-104 -103l159 -210l58 -42v-6h-183v6l49 39z" />
    <glyph glyph-name="less.lin" horiz-adv-x="433" 
d="M384 156l-337 126v28l337 129v-30l-300 -113l300 -110v-30z" />
    <glyph glyph-name="minus.lin" horiz-adv-x="449" 
d="M49 281v30h351v-30h-351z" />
    <glyph glyph-name="multiply.lin" horiz-adv-x="418" 
d="M54 157l134 137l-134 138l22 21l133 -137l134 137l21 -20l-134 -138l134 -138l-21 -21l-134 137l-133 -137z" />
    <glyph glyph-name="nacute.pl" horiz-adv-x="500" 
d="M245 492l-12 2l22 224l64 -11zM22 0v6l60 42v296l-56 26v7l2 1q3 2 9.5 4.5t14.5 5.5t19 7t23 8t27 8.5t29 8.5v-71q72 67 149 67q49 0 86 -30t37 -73v-265l61 -42v-6h-188v6l58 42v239q0 36 -24 60t-70 24q-56 0 -109 -51v-272l61 -42v-6h-189z" />
    <glyph glyph-name="nine.den" horiz-adv-x="259" 
d="M50 -2q65 36 100 78.5t35 102.5q0 38 -21 65t-46 27q-18 0 -33.5 -17t-15.5 -43q0 -28 17.5 -43t42.5 -15q16 0 28 5l3 -4q-23 -29 -63 -29q-34 0 -56 20t-22 55q0 39 30 65.5t69 26.5q48 0 84 -31t36 -86q0 -75 -54.5 -123t-129.5 -61z" />
    <glyph glyph-name="nine.num" horiz-adv-x="259" 
d="M50 374q65 36 100 78.5t35 102.5q0 38 -21 65t-46 27q-18 0 -33.5 -17t-15.5 -43q0 -28 17.5 -43t42.5 -15q16 0 28 5l3 -4q-23 -29 -63 -29q-34 0 -56 20t-22 55q0 39 30 65.5t69 26.5q48 0 84 -31t36 -86q0 -75 -54.5 -123t-129.5 -61z" />
    <glyph glyph-name="nine.lin" horiz-adv-x="504" 
d="M70 0q306 134 306 407q0 95 -45.5 166t-105.5 71q-45 0 -78.5 -43.5t-33.5 -110.5q0 -78 40.5 -116t93.5 -38q41 0 82 19l3 -5q-53 -53 -122 -53q-71 0 -122 46.5t-51 125.5q0 88 58 145.5t130 57.5q91 0 162 -77t71 -193q0 -84 -35.5 -157.5t-93.5 -123.5t-124 -82.5
t-133 -45.5z" />
    <glyph glyph-name="nine.sub" horiz-adv-x="259" 
d="M50 -107q65 36 100 78.5t35 102.5q0 38 -21 65t-46 27q-18 0 -33.5 -17t-15.5 -43q0 -28 17.5 -43t42.5 -15q16 0 28 5l3 -4q-23 -29 -63 -29q-34 0 -56 20t-22 55q0 39 30 65.5t69 26.5q48 0 84 -31t36 -86q0 -75 -54.5 -123t-129.5 -61z" />
    <glyph glyph-name="nine.sup" horiz-adv-x="259" 
d="M50 427q65 36 100 78.5t35 102.5q0 38 -21 65t-46 27q-18 0 -33.5 -17t-15.5 -43q0 -28 17.5 -43t42.5 -15q16 0 28 5l3 -4q-23 -29 -63 -29q-34 0 -56 20t-22 55q0 39 30 65.5t69 26.5q48 0 84 -31t36 -86q0 -75 -54.5 -123t-129.5 -61z" />
    <glyph glyph-name="oacute.pl" horiz-adv-x="452" 
d="M27 198q0 91 57.5 154.5t140.5 63.5q84 0 142 -60t58 -149q0 -92 -57.5 -154.5t-141.5 -62.5t-141.5 59.5t-57.5 148.5zM101 203q0 -80 36.5 -132t88.5 -52t88 52t36 132q0 77 -37 131t-88 54t-87.5 -53.5t-36.5 -131.5zM220 492l-12 2l22 224l64 -11z" />
    <glyph glyph-name="one.den" horiz-adv-x="165" 
d="M20 1v4l38 25v207l-41 19v4q5 1 43.5 15t48.5 17v-262l36 -25v-4h-125z" />
    <glyph glyph-name="one.num" horiz-adv-x="165" 
d="M20 377v4l38 25v207l-41 19v4q5 1 43.5 15t48.5 17v-262l36 -25v-4h-125z" />
    <glyph glyph-name="one.lin" horiz-adv-x="305" 
d="M45 0v6l70 46v536l-71 24v6q124 46 149 54v-620l71 -46v-6h-219z" />
    <glyph glyph-name="one.sub" horiz-adv-x="165" 
d="M20 -104v4l38 25v207l-41 19v4q5 1 43.5 15t48.5 17v-262l36 -25v-4h-125z" />
    <glyph glyph-name="one.sup" horiz-adv-x="165" 
d="M20 430v4l38 25v207l-41 19v4q5 1 43.5 15t48.5 17v-262l36 -25v-4h-125z" />
    <glyph glyph-name="two.den" horiz-adv-x="238" 
d="M209 86h5v-86h-205v10q96 116 112 144t16 51t-13.5 37t-36.5 14q-39 0 -62 -28l-7 3q27 60 89 60q39 0 62 -21t23 -57q0 -38 -32 -76t-99 -95h117z" />
    <glyph glyph-name="three.den" horiz-adv-x="204" 
d="M36 155q38 20 55 35.5t17 36.5q0 31 -37 31q-28 0 -54 -23l-3 4q20 52 82 52q29 0 46 -13.5t17 -38.5q0 -37 -53 -59q33 -3 56.5 -20.5t23.5 -50.5q0 -49 -47 -81.5t-130 -36.5l-3 6q125 45 125 103q0 49 -64 49q-14 0 -28 -2z" />
    <glyph glyph-name="parenleft.uc" horiz-adv-x="266" 
d="M116 334q0 -69 12.5 -135t34 -121.5t38.5 -90t38 -72.5q6 -10 8 -14l-6 -6q-192 203 -192 439q0 130 58 241t134 183l6 -6q-24 -38 -40 -68t-40.5 -86.5t-37.5 -124t-13 -139.5z" />
    <glyph glyph-name="parenright.uc" horiz-adv-x="266" 
d="M156 334q0 72 -13 139.5t-37.5 124t-40.5 86.5t-40 68l6 6q76 -72 134 -183t58 -241q0 -236 -192 -439l-6 6q64 116 89 188q42 122 42 245z" />
    <glyph glyph-name="plus.lin" horiz-adv-x="471" 
d="M49 311h171v171h33v-171h169v-30h-169v-174h-33v174h-171v30z" />
    <glyph glyph-name="questiondown.uc" horiz-adv-x="329" 
d="M29 107q0 34 13 60.5t49 64.5q34 34 64 68q18 19 24 32.5t6 36.5q0 4 -4 80h12q38 -94 38 -121q0 -16 -6.5 -28.5t-27.5 -36.5q-6 -7 -26.5 -30t-30.5 -35q-40 -47 -40 -90t24 -65.5t62 -22.5q37 0 64.5 24.5t38.5 49.5h5v-92q-28 -12 -107 -12q-63 0 -110.5 27.5
t-47.5 89.5zM231 624q0 -20 -13 -32.5t-33 -12.5t-32.5 12.5t-12.5 32.5t12.5 33t32.5 13t33 -13t13 -33z" />
    <glyph glyph-name="sacute.pl" horiz-adv-x="320" 
d="M167 416q58 0 87 -13v-76h-6q-8 22 -29.5 41t-55.5 19q-25 0 -41.5 -14t-16.5 -40q0 -20 10.5 -35.5t22.5 -23.5t42 -27q35 -22 52.5 -35t35.5 -41t18 -61q0 -52 -36.5 -86t-98.5 -34t-113 24q-10 73 -6 125h6q12 -48 40.5 -84t74.5 -36q33 0 53.5 19.5t20.5 51.5
q0 31 -19.5 50t-66.5 48q-24 16 -36 25t-28 25t-22.5 34.5t-6.5 41.5q0 46 34.5 74t84.5 28zM161 492l-12 2l22 224l64 -11z" />
    <glyph glyph-name="seven.den" horiz-adv-x="227" 
d="M29 286h189v-4l-129 -281h-34l109 239h-155z" />
    <glyph glyph-name="seven.num" horiz-adv-x="227" 
d="M29 662h189v-4l-129 -281h-34l109 239h-155z" />
    <glyph glyph-name="seven.lin" horiz-adv-x="454" 
d="M47 662h388v-5l-277 -657h-43l253 600h-347z" />
    <glyph glyph-name="seven.sub" horiz-adv-x="227" 
d="M29 181h189v-4l-129 -281h-34l109 239h-155z" />
    <glyph glyph-name="seven.sup" horiz-adv-x="227" 
d="M29 715h189v-4l-129 -281h-34l109 239h-155z" />
    <glyph glyph-name="six.den" horiz-adv-x="257" 
d="M218 289q-143 -68 -143 -186q0 -39 18.5 -63t43.5 -24q21 0 35.5 16.5t14.5 42.5q0 61 -59 61q-18 0 -27 -3l-2 3q26 26 62 26q34 0 56 -20t22 -55q0 -42 -32 -67t-72 -25q-45 0 -79.5 30t-34.5 84q0 72 58 122t136 63z" />
    <glyph glyph-name="six.num" horiz-adv-x="257" 
d="M218 665q-143 -68 -143 -186q0 -39 18.5 -63t43.5 -24q21 0 35.5 16.5t14.5 42.5q0 61 -59 61q-18 0 -27 -3l-2 3q26 26 62 26q34 0 56 -20t22 -55q0 -42 -32 -67t-72 -25q-45 0 -79.5 30t-34.5 84q0 72 58 122t136 63z" />
    <glyph glyph-name="six.lin" horiz-adv-x="507" 
d="M449 665q-64 -23 -119 -59.5t-101.5 -87.5t-73.5 -121.5t-27 -151.5q0 -95 41.5 -159.5t97.5 -64.5q49 0 86.5 43.5t37.5 119.5q0 73 -39 108.5t-95 35.5q-48 0 -81 -18l-3 5q53 53 128 53q70 0 118.5 -44t48.5 -124q0 -94 -62 -150.5t-139 -56.5q-87 0 -154 70t-67 188
q0 83 37.5 158.5t97 128t128.5 87.5t137 47z" />
    <glyph glyph-name="six.sub" horiz-adv-x="257" 
d="M218 184q-143 -68 -143 -186q0 -39 18.5 -63t43.5 -24q21 0 35.5 16.5t14.5 42.5q0 61 -59 61q-18 0 -27 -3l-2 3q26 26 62 26q34 0 56 -20t22 -55q0 -42 -32 -67t-72 -25q-45 0 -79.5 30t-34.5 84q0 72 58 122t136 63z" />
    <glyph glyph-name="six.sup" horiz-adv-x="257" 
d="M218 718q-143 -68 -143 -186q0 -39 18.5 -63t43.5 -24q21 0 35.5 16.5t14.5 42.5q0 61 -59 61q-18 0 -27 -3l-2 3q26 26 62 26q34 0 56 -20t22 -55q0 -42 -32 -67t-72 -25q-45 0 -79.5 30t-34.5 84q0 72 58 122t136 63z" />
    <glyph glyph-name="three.lin" horiz-adv-x="403" 
d="M84 357q49 38 73.5 59.5t47.5 55t23 64.5q0 38 -23 62t-66 24q-52 0 -106 -60l-7 4q5 15 14.5 30.5t26.5 34t45.5 30t63.5 11.5q57 0 91 -31t34 -85q0 -77 -114 -141q73 -4 122 -41t49 -108q0 -52 -24 -96t-59 -73t-84.5 -53t-88.5 -36.5t-82 -22.5l-3 10q45 17 86 39
t84 53t68.5 71.5t25.5 84.5q0 61 -37.5 89t-91.5 28q-36 0 -63 -9z" />
    <glyph glyph-name="three.num" horiz-adv-x="205" 
d="M36 532q38 20 55 35.5t17 36.5q0 31 -37 31q-28 0 -54 -23l-3 4q20 52 82 52q29 0 46 -13.5t17 -38.5q0 -37 -53 -59q33 -3 56.5 -20.5t23.5 -50.5q0 -49 -47 -81.5t-130 -36.5l-3 6q125 45 125 103q0 49 -64 49q-14 0 -28 -2z" />
    <glyph glyph-name="three.sub" horiz-adv-x="204" 
d="M36 51q38 20 55 35.5t17 36.5q0 31 -37 31q-28 0 -54 -23l-3 4q20 52 82 52q29 0 46 -13.5t17 -38.5q0 -37 -53 -59q33 -3 56.5 -20.5t23.5 -50.5q0 -49 -47 -81.5t-130 -36.5l-3 6q125 45 125 103q0 49 -64 49q-14 0 -28 -2z" />
    <glyph glyph-name="three.sup" horiz-adv-x="204" 
d="M36 585q38 20 55 35.5t17 36.5q0 31 -37 31q-28 0 -54 -23l-3 4q20 52 82 52q29 0 46 -13.5t17 -38.5q0 -37 -53 -59q33 -3 56.5 -20.5t23.5 -50.5q0 -49 -47 -81.5t-130 -36.5l-3 6q125 45 125 103q0 49 -64 49q-14 0 -28 -2z" />
    <glyph glyph-name="two.lin" horiz-adv-x="463" 
d="M429 139h5v-139h-421v4q179 235 232 323t53 159q0 66 -34 100.5t-88 34.5q-32 0 -60 -13t-39.5 -23t-28.5 -29l-6 4q17 43 61.5 77.5t109.5 34.5q77 0 123 -48t46 -115q0 -29 -4.5 -54t-19 -53.5t-26.5 -50t-42 -59t-51 -62t-67 -78t-77 -90.5h283z" />
    <glyph glyph-name="two.num" horiz-adv-x="238" 
d="M209 463h5v-86h-205v10q96 116 112 144t16 51t-13.5 37t-36.5 14q-39 0 -62 -28l-7 3q27 60 89 60q39 0 62 -22t23 -56q0 -38 -32 -76t-99 -95h117z" />
    <glyph glyph-name="two.sub" horiz-adv-x="238" 
d="M209 -18h5v-86h-205v10q96 116 112 144q16 27 16 51q0 23 -13.5 37t-36.5 14q-39 0 -62 -28l-7 3q28 60 89 60q39 0 62 -22t23 -56q0 -38 -32 -76t-99 -95h117z" />
    <glyph glyph-name="two.sup" horiz-adv-x="238" 
d="M209 516h5v-86h-205v10q96 116 112 144t16 51t-13.5 37t-36.5 14q-39 0 -62 -28l-7 3q27 60 89 60q39 0 62 -22t23 -56q0 -38 -32 -76t-99 -95h117z" />
    <glyph glyph-name="wacute.001" horiz-adv-x="623" 
d="M300 497l-9 5l102 210l56 -35zM219 22q-1 -4 -3.5 -12.5t-4.5 -12.5q-4 -8 -5 -12h-10q-1 7 -6 16q-8 21 -14 39l-125 320l-50 40v6h181v-6l-59 -40l94 -255l113 311h10l112 -311l86 255l-59 40v6h144v-6l-52 -40l-114 -335q-4 -11 -10 -27q-5 -12 -5 -13h-10q-1 7 -6 16
q-7 18 -16 41l-92 245z" />
    <glyph glyph-name="wcircumflex.001" horiz-adv-x="623" 
d="M335 705l102 -214l-8 -5l-94 113l-94 -113l-8 5zM219 22q-1 -4 -3.5 -12.5t-4.5 -12.5q-4 -8 -5 -12h-10q-1 7 -6 16q-8 21 -14 39l-125 320l-50 40v6h181v-6l-59 -40l94 -255l113 311h10l112 -311l86 255l-59 40v6h144v-6l-52 -40l-114 -335q-4 -11 -10 -27
q-5 -12 -5 -13h-10q-1 7 -6 16q-7 18 -16 41l-92 245z" />
    <glyph glyph-name="wdieresis.001" horiz-adv-x="623" 
d="M378 584q0 17 11 28t28 11q16 0 27.5 -11t11.5 -28t-11.5 -28t-27.5 -11q-17 0 -28 11t-11 28zM255 623q16 0 27.5 -11t11.5 -28t-11.5 -28t-27.5 -11q-17 0 -28 11t-11 28t11 28t28 11zM219 22q-1 -4 -3.5 -12.5t-4.5 -12.5q-4 -8 -5 -12h-10q-1 7 -6 16q-8 21 -14 39
l-125 320l-50 40v6h181v-6l-59 -40l94 -255l113 311h10l112 -311l86 255l-59 40v6h144v-6l-52 -40l-114 -335q-4 -11 -10 -27q-5 -12 -5 -13h-10q-1 7 -6 16q-7 18 -16 41l-92 245z" />
    <glyph glyph-name="wgrave.001" horiz-adv-x="623" 
d="M219 22q-1 -4 -3.5 -12.5t-4.5 -12.5q-4 -8 -5 -12h-10q-1 7 -6 16q-8 21 -14 39l-125 320l-50 40v6h181v-6l-59 -40l94 -255l113 311h10l112 -311l86 255l-59 40v6h144v-6l-52 -40l-114 -335q-4 -11 -10 -27q-5 -12 -5 -13h-10q-1 7 -6 16q-7 18 -16 41l-92 245z
M386 497l-149 180l56 34l102 -209z" />
    <glyph glyph-name="zacute.pl" horiz-adv-x="391" 
d="M365 104v-104h-343v6l243 375h-155l-58 -74h-6v99h311v-3l-250 -378h192l60 79h6zM196 492l-12 2l22 224l64 -11z" />
    <glyph glyph-name="zero.den" horiz-adv-x="301" 
d="M80 143q0 -56 21.5 -91t49.5 -35q29 0 50 35.5t21 90.5t-22 91t-50 36t-49 -36t-21 -91zM24 139q0 65 37.5 109t88.5 44q52 0 89.5 -41.5t37.5 -103.5q0 -65 -37.5 -108.5t-87.5 -43.5q-52 0 -90 41t-38 103z" />
    <glyph glyph-name="zero.num" horiz-adv-x="301" 
d="M80 519q0 -56 21.5 -91t49.5 -35q29 0 50 35.5t21 90.5t-22 91t-50 36t-49 -36t-21 -91zM24 515q0 65 37.5 109t88.5 44q52 0 89.5 -41.5t37.5 -103.5q0 -65 -37.5 -108.5t-87.5 -43.5q-52 0 -90 41t-38 103z" />
    <glyph glyph-name="zero.lin" horiz-adv-x="600" 
d="M133 330q0 -131 48.5 -221t117.5 -90t119 90.5t50 220.5q0 131 -49 222.5t-119 91.5t-118.5 -91t-48.5 -223zM48 323q0 137 74.5 243.5t177.5 106.5q104 0 177.5 -100.5t73.5 -236.5q0 -137 -74.5 -241.5t-177.5 -104.5q-102 0 -176.5 99t-74.5 234z" />
    <glyph glyph-name="zero.sub" horiz-adv-x="301" 
d="M80 38q0 -56 21.5 -91t49.5 -35q29 0 50 35.5t21 90.5t-22 91t-50 36t-49 -36t-21 -91zM24 34q0 65 37.5 109t88.5 44q52 0 89.5 -41.5t37.5 -103.5q0 -65 -37.5 -108.5t-87.5 -43.5q-52 0 -90 41t-38 103z" />
    <glyph glyph-name="zero.sup" horiz-adv-x="301" 
d="M80 572q0 -56 21.5 -91t49.5 -35q29 0 50 35.5t21 90.5t-22 91t-50 36t-49 -36t-21 -91zM24 568q0 65 37.5 109t88.5 44q52 0 89.5 -41.5t37.5 -103.5q0 -65 -37.5 -108.5t-87.5 -43.5q-52 0 -90 41t-38 103z" />
    </font>
</defs>
</svg>
