<?xml version="1.0" standalone="no"?>
<!DOCTYPE svg PUBLIC "-//W3C//DTD SVG 1.1//EN" "http://www.w3.org/Graphics/SVG/1.1/DTD/svg11.dtd" >
<svg xmlns="http://www.w3.org/2000/svg" xmlns:xlink="http://www.w3.org/1999/xlink" version="1.1">
<metadata>
Created by FontForge 20170731 at Fri Jan  3 06:42:51 2014
 By Aleksey,,,
Copyright (c)2013 Commercial Type.
</metadata>
<defs>
<font id="Portrait-MediumItalic" horiz-adv-x="400" >
  <font-face 
    font-family="Portrait Medium"
    font-weight="600"
    font-style="italic"
    font-stretch="normal"
    units-per-em="1000"
    panose-1="0 0 0 0 0 0 0 0 0 0"
    ascent="730"
    descent="-270"
    x-height="429"
    cap-height="662"
    bbox="-157 -278 1106 1014"
    underline-thickness="34"
    underline-position="20"
    slope="-9"
    unicode-range="U+000D-FB04"
  />
<missing-glyph horiz-adv-x="182" 
 />
    <glyph glyph-name="f_b" unicode="fb" horiz-adv-x="691" 
d="M419 282q44 65 91 107.5t81 42.5q29 0 55.5 -28.5t26.5 -92.5q0 -75 -32.5 -148t-94 -122t-133.5 -49q-62 0 -97 36.5t-27 80.5l110 545q-35 22 -71 22q-76 0 -101 -134q-14 -69 -22 -124h111l-35 -47h-84q-5 -33 -26 -165t-30 -188q-44 -263 -255 -276l-15 73h2
q11 -1 36.5 -4.5t36.5 -3.5q44 0 65 47.5t46 205.5q11 65 25.5 168.5t20.5 142.5h-78v5l30 42h55l15 86q15 94 75.5 154t149.5 60q74 0 151 -29zM545 359q-20 0 -57.5 -36.5t-79.5 -97.5q-6 -25 -14 -65t-11 -54q-5 -28 -9 -47q7 -29 40 -29q57 0 107 89.5t50 183.5
q0 56 -26 56z" />
    <glyph glyph-name="f_f_b" unicode="ffb" horiz-adv-x="909" 
d="M56 60q11 67 26.5 175t19.5 136h-79v5l30 42h56l11 70q15 94 75.5 154t149.5 60q61 0 104 -19q53 35 119 35q79 0 151 -30q-17 -82 -81 -404q104 148 171 148q29 0 55.5 -28.5t26.5 -92.5q0 -75 -32.5 -148t-94 -122t-133.5 -49q-61 0 -96 36.5t-27 80.5l110 545
q-35 22 -72 22q-76 0 -101 -133q-6 -30 -22 -125h113l-35 -47h-86q-9 -55 -27.5 -168.5t-26.5 -160.5q-47 -262 -248 -277l-14 71l2 1q47 -7 68 -7q41 0 64 50.5t46 203.5q7 47 20.5 142.5t21.5 144.5h-125q-10 -59 -29.5 -182t-27.5 -171q-46 -264 -254 -276l-14 73h1
q11 -1 36.5 -4.5t36.5 -3.5q30 0 48 19.5t32.5 72.5t30.5 161zM763 359q-20 0 -57 -36t-79 -97q-6 -27 -14 -67t-11 -53q-4 -26 -9 -48q8 -28 39 -28q58 0 107.5 89t49.5 184q0 56 -26 56zM343 504q12 77 56 132q-42 25 -77 25q-74 0 -100 -134l-19 -109h125z" />
    <glyph glyph-name="f_f_h" unicode="ffh" horiz-adv-x="928" 
d="M56 60q11 67 26.5 175t19.5 136h-79v5l30 42h56l11 70q15 94 75.5 154t149.5 60q61 0 104 -19q53 35 119 35q87 0 153 -31l-86 -412q129 157 212 157q24 0 38.5 -13t10.5 -37q0 -14 -70 -321l56 -37v-6q-50 -11 -167 -27q77 327 77 347q2 12 -10 12q-39 0 -158 -127
l-46 -223h-94l135 653q-33 23 -73 23q-76 0 -101 -133q-6 -30 -22 -125h113l-35 -47h-86q-9 -55 -27.5 -168.5t-26.5 -160.5q-47 -262 -248 -277l-14 71l2 1q47 -7 68 -7q41 0 64 50.5t46 203.5q7 47 20.5 142.5t21.5 144.5h-125q-10 -59 -29.5 -182t-27.5 -171
q-46 -264 -254 -276l-14 73h1q11 -1 36.5 -4.5t36.5 -3.5q30 0 48 19.5t32.5 72.5t30.5 161zM203 418h125l15 86q12 77 56 132q-42 25 -77 25q-74 0 -100 -134z" />
    <glyph glyph-name="f_f_j" unicode="ffj" horiz-adv-x="674" 
d="M445 543q-6 -30 -22 -125h170l63 17l-79 -412q-11 -62 -64 -136.5t-124 -136.5l-7 4q77 151 103 290l64 327h-134q-9 -55 -27.5 -168.5t-26.5 -160.5q-47 -262 -248 -277l-14 71l2 1q47 -7 68 -7q41 0 64 50.5t46 203.5q7 47 20.5 142.5t21.5 144.5h-125
q-10 -59 -29.5 -182t-27.5 -171q-46 -264 -254 -276l-14 73h1q11 -1 36.5 -4.5t36.5 -3.5q30 0 48 19.5t32.5 72.5t30.5 161q11 67 26.5 175t19.5 136h-79v5l30 42h56l11 70q15 94 75.5 154t149.5 60q61 0 104 -19q53 35 119 35q67 0 133 -23l-38 -76h-2q-72 57 -115 57
q-76 0 -101 -133zM203 418h125l15 86q12 77 56 132q-42 25 -77 25q-74 0 -100 -134z" />
    <glyph glyph-name="f_f_k" unicode="ffk" horiz-adv-x="872" 
d="M546 676q-74 0 -101 -133q-6 -30 -22 -125h113l-35 -47h-86q-9 -55 -27.5 -168.5t-26.5 -160.5q-47 -262 -248 -277l-14 71l2 1q47 -7 68 -7q41 0 64 50.5t46 203.5q7 47 20.5 142.5t21.5 144.5h-125q-10 -59 -29.5 -182t-27.5 -171q-46 -264 -254 -276l-14 73h1
q11 -1 36.5 -4.5t36.5 -3.5q30 0 48 19.5t32.5 72.5t30.5 161q11 67 26.5 175t19.5 136h-79v5l30 42h56l11 70q15 94 75.5 154t149.5 60q61 0 104 -19q53 35 119 35q74 0 151 -29l-139 -689h-95l132 654q-35 22 -71 22zM637 203q121 115 121 156q0 17 -18 35l1 5l97 34
q19 -22 19 -47q0 -27 -30 -60.5t-110 -91.5q23 -45 43 -81.5t32 -57.5t24 -41t16 -26t13.5 -18.5t9.5 -13.5l-1 -5q-36 1 -51 2.5t-35 7t-30 17t-24.5 31.5t-30 52t-37.5 76q-6 14 -10 21zM203 418h125l15 86q12 77 56 132q-42 25 -77 25q-74 0 -100 -134z" />
    <glyph glyph-name="f_h" unicode="fh" horiz-adv-x="710" 
d="M574 338q0 12 -10 12q-18 0 -62 -35t-96 -91l-46 -224h-95l136 653q-33 23 -73 23q-76 0 -101 -134q-14 -69 -22 -124h111l-35 -47h-84q-5 -33 -26 -165t-30 -188q-44 -263 -255 -276l-15 73h2q11 -1 36.5 -4.5t36.5 -3.5q44 0 65 47.5t46 205.5q11 65 25.5 168.5
t20.5 142.5h-78v5l30 42h55l15 86q15 94 75.5 154t149.5 60q85 0 153 -31l-86 -412q129 157 212 157q24 0 38.5 -13t10.5 -37q0 -8 -11 -58.5t-29.5 -131.5t-29.5 -131l56 -37v-6q-52 -11 -168 -27q78 331 78 347z" />
    <glyph glyph-name="f_j" unicode="fj" horiz-adv-x="455" 
d="M57 60q11 65 25.5 168.5t20.5 142.5h-78v5l30 42h55l15 86q15 94 75.5 154t149.5 60q66 0 132 -23l-38 -76h-1q-74 57 -115 57q-76 0 -101 -133q-13 -66 -22 -125h170l63 17l-80 -412q-12 -62 -64.5 -137t-122.5 -136l-8 4q78 155 104 290l64 327h-134q-5 -33 -26 -165
t-30 -188q-44 -263 -255 -276l-15 73h2q11 -1 36.5 -4.5t36.5 -3.5q44 0 65 47.5t46 205.5z" />
    <glyph glyph-name="f_k" unicode="fk" horiz-adv-x="654" 
d="M362 0h-95l132 654q-35 22 -71 22q-76 0 -101 -134q-14 -69 -22 -124h111l-35 -47h-84q-5 -33 -26 -165t-30 -188q-44 -263 -255 -276l-15 73h2q11 -1 36.5 -4.5t36.5 -3.5q44 0 65 47.5t46 205.5q11 65 25.5 168.5t20.5 142.5h-78v5l30 42h55l15 86q15 94 75.5 154
t149.5 60q73 0 150 -29zM419 203q121 115 121 156q0 17 -18 35l1 5l97 34q19 -22 19 -47q0 -27 -30.5 -60.5t-110.5 -90.5q24 -45 44 -82t32 -58.5t24 -40.5t17 -26.5t12.5 -18.5t9.5 -13l-2 -5q-35 1 -50.5 2.5t-35 7t-29.5 17t-24.5 31.5t-30 52t-37.5 76q-6 14 -10 21z
" />
    <glyph glyph-name="f_f" unicode="ff" horiz-adv-x="501" 
d="M23 376l30 42h56l11 70q15 94 75.5 154t149.5 60q62 0 105 -19q50 35 118 35q69 0 129 -21l-37 -74h-2q-70 53 -113 53q-75 0 -100 -133q-14 -74 -22 -125h119l-33 -47h-94q-9 -52 -27.5 -166t-26.5 -163q-47 -262 -248 -277l-14 71l2 1q47 -7 68 -7q41 0 64 50.5
t46 203.5q7 47 20.5 142.5t21.5 144.5h-125q-10 -59 -29.5 -182t-27.5 -171q-46 -264 -254 -276l-14 73h1q11 -1 36.5 -4.5t36.5 -3.5q30 0 48 19.5t32.5 72.5t30.5 161q11 67 26.5 175t19.5 136h-79v5zM343 504q12 78 56 132q-42 25 -77 25q-74 0 -100 -134l-19 -109h125z
" />
    <glyph glyph-name="f_i" unicode="fi" horiz-adv-x="465" 
d="M57 60q11 65 25.5 168.5t20.5 142.5h-78v5l30 42h55l15 86q15 94 75.5 154t149.5 60q66 0 132 -23l-38 -76h-1q-74 57 -115 57q-76 0 -101 -133q-13 -66 -22 -125h171l62 17l-72 -374l59 -38v-5q-85 -18 -168 -27l74 380h-134q-5 -33 -26 -165t-30 -188
q-44 -263 -255 -276l-15 73h2q11 -1 36.5 -4.5t36.5 -3.5q44 0 65 47.5t46 205.5z" />
    <glyph glyph-name="f_l" unicode="fl" horiz-adv-x="477" 
d="M-129 -185h2q11 -1 36.5 -4.5t36.5 -3.5q44 0 65 47.5t46 205.5q11 65 25.5 168.5t20.5 142.5h-78v5l30 42h55l15 86q15 94 75.5 154t149.5 60q77 0 151 -30l-127 -627l58 -38v-5q-58 -13 -168 -27l135 663q-35 22 -71 22q-76 0 -101 -134q-14 -69 -22 -124h111l-35 -47
h-84q-5 -33 -26 -165t-30 -188q-44 -263 -255 -276z" />
    <glyph glyph-name="f_f_i" unicode="ffi" horiz-adv-x="683" 
d="M445 543q-14 -74 -22 -125h171l62 17l-71 -374l58 -38v-5q-57 -12 -167 -27l73 380h-134q-9 -52 -27.5 -166t-26.5 -163q-47 -262 -248 -277l-14 71l2 1q47 -7 68 -7q41 0 64 50.5t46 203.5q7 47 20.5 142.5t21.5 144.5h-125q-10 -59 -29.5 -182t-27.5 -171
q-46 -264 -254 -276l-14 73h1q11 -1 36.5 -4.5t36.5 -3.5q30 0 48 19.5t32.5 72.5t30.5 161q11 67 26.5 175t19.5 136h-79v5l30 42h56l11 70q15 94 75.5 154t149.5 60q61 0 104 -19q53 35 119 35q67 0 133 -23l-38 -76h-2q-72 57 -115 57q-76 0 -101 -133zM203 418h125
l15 86q12 77 56 132q-42 25 -77 25q-74 0 -100 -134z" />
    <glyph glyph-name="f_f_l" unicode="ffl" horiz-adv-x="691" 
d="M56 60q11 67 26.5 175t19.5 136h-79v5l30 42h56l11 70q15 94 75.5 154t149.5 60q61 0 104 -19q53 35 119 35q78 0 152 -30l-127 -627l58 -38l-1 -5q-50 -11 -167 -27l135 663q-35 22 -72 22q-76 0 -101 -133q-6 -30 -22 -125h113l-35 -47h-86q-9 -55 -27.5 -168.5
t-26.5 -160.5q-47 -262 -248 -277l-14 71l2 1q47 -7 68 -7q41 0 64 50.5t46 203.5q7 47 20.5 142.5t21.5 144.5h-125q-10 -59 -29.5 -182t-27.5 -171q-46 -264 -254 -276l-14 73h1q11 -1 36.5 -4.5t36.5 -3.5q30 0 48 19.5t32.5 72.5t30.5 161zM343 504q12 77 56 132
q-42 25 -77 25q-74 0 -100 -134l-19 -109h125z" />
    <glyph glyph-name="g_y" unicode="gy" horiz-adv-x="788" 
d="M39 258q0 72 56 123t123 51q27 0 55 -11h149l-18 -45h-82q23 -25 23 -61q0 -75 -56 -125t-120 -50q-10 0 -13 1q-34 -28 -34 -45q0 -18 42 -41q104 -56 106 -57q53 -29 71.5 -51t18.5 -44q0 -63 -68.5 -111.5t-164.5 -48.5q-88 0 -147 30t-59 63q0 26 42 63.5t143 80.5
h-1q-69 38 -69 75q0 18 23.5 43t64.5 49q-37 12 -61 42t-24 69zM702 350q0 25 -25 46v4l95 30q21 -21 21 -50q0 -53 -162 -281q-9 -13 -14 -20t-13 -18.5t-15 -21.5q-135 -203 -179 -300l-104 14v6q104 97 208 232q-16 244 -29 362l-49 34l1 7l131 41q19 -129 25 -328
q63 108 86 160.5t23 82.5zM219 -78q-16 8 -41.5 21t-41.5 21q-117 -58 -117 -109q0 -28 32.5 -49t81.5 -21q68 0 106.5 27.5t38.5 53.5q0 13 -10.5 24t-48.5 32zM215 400q-31 0 -57 -45t-26 -103q0 -40 12.5 -59t26.5 -19q30 0 55.5 47.5t25.5 103.5q0 39 -11 57t-26 18z
" />
    <glyph glyph-name=".notdef" horiz-adv-x="182" 
 />
    <glyph glyph-name=".null" horiz-adv-x="0" 
 />
    <glyph glyph-name="nonmarkingreturn" horiz-adv-x="333" 
 />
    <glyph glyph-name="NULL" horiz-adv-x="0" 
 />
    <glyph glyph-name="NULL" horiz-adv-x="0" 
 />
    <glyph glyph-name="CR" unicode="&#xd;" horiz-adv-x="182" 
 />
    <glyph glyph-name="space" unicode=" " horiz-adv-x="182" 
 />
    <glyph glyph-name="exclam" unicode="!" horiz-adv-x="221" 
d="M105 207h-15q5 53 23 236t20 219h112q-25 -66 -140 -455zM65 105q25 0 41.5 -16t16.5 -42q0 -24 -16.5 -40.5t-41.5 -16.5q-26 0 -42 16.5t-16 40.5q0 26 16 42t42 16z" />
    <glyph glyph-name="quotedbl" unicode="&#x22;" horiz-adv-x="307" 
d="M298 693q20 0 28.5 -13.5t6.5 -34.5q-3 -37 -68 -195h-12q0 35 0.5 81t1 70.5t0.5 38.5q5 53 43 53zM163 693q19 0 28 -13.5t7 -34.5q-3 -37 -68 -195h-12q0 35 0.5 81t1 70.5t0.5 38.5q5 53 43 53z" />
    <glyph glyph-name="numbersign" unicode="#" horiz-adv-x="411" 
d="M341 428l-55 -149h77l-8 -39h-83l-87 -240h-44l87 240h-79l-87 -240h-45l87 240h-78l7 39h85l54 149h-74l7 39h81l71 195h45l-71 -195h79l71 195h45l-71 -195h80l-7 -39h-87zM163 279h79l54 149h-79z" />
    <glyph glyph-name="dollar" unicode="$" horiz-adv-x="437" 
d="M284 672q14 0 21 -1l18 69h39l-19 -72q31 -3 82 -17l-23 -127h-7q-27 68 -65 92l-56 -217l9 -13q44 -65 60.5 -91t32 -63.5t15.5 -69.5q0 -75 -57.5 -123.5t-140.5 -48.5q-17 0 -25 1l-22 -87h-40l24 92q-58 11 -107 43q8 103 26 182h7q23 -132 88 -170l67 257q-2 2 -2 3
q-60 82 -82.5 125.5t-22.5 87.5q0 67 52.5 107.5t127.5 40.5zM297 134q0 30 -13 58.5t-44 74.5l-59 -227q3 -1 14 -1q46 0 74 27t28 68zM195 554q0 -41 50 -114l49 189q-14 2 -16 2q-36 0 -59.5 -21t-23.5 -56z" />
    <glyph glyph-name="percent" unicode="%" horiz-adv-x="665" 
d="M570 151q0 42 -21.5 67t-54.5 25q-43 0 -70 -34.5t-27 -81.5q0 -43 22 -68t55 -25q42 0 69 34.5t27 82.5zM494 286q54 0 90.5 -36t36.5 -99q0 -64 -41.5 -112t-105.5 -48q-55 0 -91 36t-36 99q0 64 41.5 112t105.5 48zM119 511q0 -42 22 -67.5t55 -25.5q42 0 69 34.5
t27 82.5q0 42 -22 67t-55 25q-42 0 -69 -34.5t-27 -81.5zM215 670q54 0 90.5 -36t36.5 -99q0 -64 -41.5 -111.5t-104.5 -47.5q-55 0 -91 35t-36 99t41.5 112t104.5 48zM582 662h58l-527 -662h-57z" />
    <glyph glyph-name="ampersand" unicode="&#x26;" horiz-adv-x="628" 
d="M660 415q-63 -32 -100 -74.5t-95 -137.5l-26 -43q79 -119 173 -174l-1 -6q-142 0 -206 64q-9 8 -27 30q-76 -88 -178 -88q-78 0 -128 45.5t-50 120.5q0 139 181 229q-32 75 -32 122q0 68 43.5 108.5t107.5 40.5q51 0 84 -26.5t33 -68.5q0 -47 -36.5 -81.5t-100.5 -70.5
q34 -70 69 -131q26 -48 44 -76l14 24q57 98 83 141l-55 52l1 6h204zM283 225q-51 94 -67 128q-93 -77 -93 -183q0 -55 29 -89t76 -34q66 0 123 63q-36 54 -68 115zM261 545q0 -47 30 -115q71 59 71 122q0 30 -13 46t-34 16q-22 0 -38 -17.5t-16 -51.5z" />
    <glyph glyph-name="quotesingle" unicode="'" horiz-adv-x="172" 
d="M162 693q20 0 28.5 -13.5t6.5 -34.5q-3 -37 -68 -195h-12q0 35 0.5 81t1 70.5t0.5 38.5q5 53 43 53z" />
    <glyph glyph-name="parenleft" unicode="(" horiz-adv-x="320" 
d="M390 754l9 -5q-51 -67 -85.5 -122.5t-72 -134.5t-56.5 -171.5t-19 -196.5q0 -156 49 -307l-10 -4q-26 43 -40 69.5t-35 75.5t-31.5 102.5t-10.5 112.5q0 97 27 188.5t73 164t95.5 127.5t106.5 101z" />
    <glyph glyph-name="parenright" unicode=")" horiz-adv-x="320" 
d="M-60 -187l-9 5q51 67 85.5 122.5t72 134.5t56.5 171.5t19 196.5q0 156 -49 307l10 4q26 -43 40 -69.5t35 -75.5t31.5 -102.5t10.5 -112.5q0 -97 -27 -188.5t-73 -164t-95.5 -127.5t-106.5 -101z" />
    <glyph glyph-name="asterisk" unicode="*" horiz-adv-x="309" 
d="M202 494l-84 -66l-5 4l49 93l-92 37v7l102 1l-16 102l7 3l58 -89l83 65l5 -4l-53 -92l95 -38l-1 -6l-101 -2l15 -99l-6 -2z" />
    <glyph glyph-name="plus" unicode="+" horiz-adv-x="424" 
d="M46 268h150l32 171h48l-32 -171h150l-7 -42h-150l-32 -174h-48l32 174h-150z" />
    <glyph glyph-name="comma" unicode="," horiz-adv-x="192" 
d="M76 17q-23 -2 -41 11t-18 38q0 24 16.5 39.5t40.5 15.5q29 0 45.5 -20.5t16.5 -53.5q0 -57 -43 -106.5t-109 -82.5l-11 6q82 83 103 153z" />
    <glyph glyph-name="hyphen" unicode="-" horiz-adv-x="257" 
d="M61 281h162l-15 -77h-164z" />
    <glyph glyph-name="period" unicode="." horiz-adv-x="188" 
d="M71 105q25 0 41.5 -16t16.5 -42q0 -24 -16.5 -40.5t-41.5 -16.5q-26 0 -42 16.5t-16 40.5q0 26 16 42t42 16z" />
    <glyph glyph-name="slash" unicode="/" horiz-adv-x="345" 
d="M412 740l-466 -977l-38 16l465 978z" />
    <glyph glyph-name="zero" unicode="0" horiz-adv-x="453" 
d="M361 230q0 64 -34.5 106t-83.5 42q-66 0 -106.5 -56t-40.5 -130q0 -67 34.5 -108t84.5 -41q63 0 104.5 56t41.5 131zM242 432q78 0 130.5 -54.5t52.5 -143.5q0 -97 -59 -171t-154 -74q-78 0 -129.5 53.5t-51.5 146.5q0 95 59.5 169t151.5 74z" />
    <glyph glyph-name="one" unicode="1" horiz-adv-x="244" 
d="M103 371l-45 44l1 6h201l-1 -6l-62 -44l-61 -323l46 -42l-1 -6h-202l1 6l62 42z" />
    <glyph glyph-name="two" unicode="2" horiz-adv-x="356" 
d="M63 344q49 88 131 88q49 0 78 -27t29 -75q0 -29 -12.5 -56.5t-44.5 -61t-61 -59t-85 -71.5h232l-50 -82h-302l2 6q127 133 170.5 196t43.5 109q0 27 -14.5 42.5t-41.5 15.5q-34 0 -67 -30z" />
    <glyph glyph-name="three" unicode="3" horiz-adv-x="301" 
d="M16 108q91 78 124 124.5t33 83.5q0 24 -13 38t-35 14q-32 0 -57 -25l-7 4q15 33 44 57.5t71 24.5q46 0 71.5 -25.5t25.5 -65.5q0 -44 -35 -84t-114 -93q56 -5 88.5 -37.5t32.5 -87.5q0 -166 -318 -305l-5 9q214 160 214 286q0 80 -80 80q-21 0 -35 -6z" />
    <glyph glyph-name="four" unicode="4" horiz-adv-x="421" 
d="M370 435l-70 -367h81l-12 -68h-82l-35 -188l-97 -38l42 226h-227l1 7l367 428h32zM209 68l38 201l-173 -201h135z" />
    <glyph glyph-name="five" unicode="5" horiz-adv-x="280" 
d="M290 421l-50 -80h-111q-1 -2 -4.5 -9.5t-5.5 -9.5q27 -45 41 -69.5t32 -74t18 -89.5q0 -95 -79 -176t-220 -134l-4 8q87 60 146 136t59 141q0 67 -59 180q13 32 43.5 91.5t48.5 85.5h145z" />
    <glyph glyph-name="six" unicode="6" horiz-adv-x="429" 
d="M199 -9q-62 0 -108 53.5t-46 151.5q0 89 40 173t105.5 147.5t143 110.5t157.5 72l5 -9q-67 -38 -127.5 -89.5t-112.5 -116.5t-83 -145.5t-31 -163.5q0 -68 17.5 -107t42.5 -39q32 0 64 45t32 114q0 47 -20 73t-56 26q-24 0 -40 -7l-4 5q11 16 40.5 33.5t66.5 17.5
q51 0 82 -35.5t31 -97.5q0 -88 -62 -150t-137 -62z" />
    <glyph glyph-name="seven" unicode="7" horiz-adv-x="392" 
d="M88 420h318l-1 -5l-356 -678l-45 14l307 586h-269z" />
    <glyph glyph-name="eight" unicode="8" horiz-adv-x="375" 
d="M255 666q56 0 92 -31.5t36 -77.5q0 -50 -32.5 -93.5t-97.5 -93.5q7 -13 22.5 -40.5t21.5 -38.5t15.5 -31.5t13.5 -33.5t7.5 -30t3.5 -34q0 -67 -51 -119t-124 -52q-64 0 -105 34.5t-41 90.5q0 54 37 102t113 113q-37 64 -52.5 104t-15.5 80q0 63 49 107t108 44zM247 134
q0 36 -13.5 69t-50.5 100q-83 -91 -83 -183q0 -40 18 -66t46 -26q34 0 58.5 31.5t24.5 74.5zM185 543q0 -44 55 -148q69 78 69 158q0 34 -15 56t-41 22q-28 0 -48 -24t-20 -64z" />
    <glyph glyph-name="nine" unicode="9" horiz-adv-x="428" 
d="M151 85q-51 0 -82.5 38.5t-31.5 98.5q0 85 61 146.5t136 61.5q63 0 109.5 -55.5t46.5 -149.5q0 -92 -39.5 -177t-104 -147.5t-139.5 -108t-154 -70.5l-5 9q67 41 124 90.5t109 113.5t82 144.5t30 166.5q0 70 -17.5 108t-43.5 38q-30 0 -62.5 -46t-32.5 -112q0 -48 20 -74
t56 -26q21 0 40 7l4 -6q-41 -50 -106 -50z" />
    <glyph glyph-name="colon" unicode=":" horiz-adv-x="206" 
d="M129 431q25 0 41.5 -16t16.5 -42q0 -24 -16.5 -40.5t-41.5 -16.5q-26 0 -42 16.5t-16 40.5q0 26 16 42t42 16zM70 105q25 0 41.5 -16t16.5 -42q0 -24 -16.5 -40.5t-41.5 -16.5q-26 0 -42 16.5t-16 40.5q0 26 16 42t42 16z" />
    <glyph glyph-name="semicolon" unicode=";" horiz-adv-x="206" 
d="M76 17q-23 -2 -41 11t-18 38q0 24 16.5 39.5t40.5 15.5q29 0 45.5 -20.5t16.5 -53.5q0 -57 -43 -106.5t-109 -82.5l-11 6q82 83 103 153zM129 431q25 0 41.5 -16t16.5 -42q0 -24 -16.5 -40.5t-41.5 -16.5q-26 0 -42 16.5t-16 40.5q0 26 16 42t42 16z" />
    <glyph glyph-name="less" unicode="&#x3c;" horiz-adv-x="380" 
d="M38 225l8 42l324 134l-9 -46l-272 -111l231 -109l-8 -42z" />
    <glyph glyph-name="equal" unicode="=" horiz-adv-x="408" 
d="M37 174l8 39h314l-8 -39h-314zM55 270l7 39h315l-8 -39h-314z" />
    <glyph glyph-name="greater" unicode="&#x3e;" horiz-adv-x="380" 
d="M356 269l-8 -42l-324 -134l9 46l271 110l-230 110l8 42z" />
    <glyph glyph-name="question" unicode="?" horiz-adv-x="323" 
d="M275 416q-12 -10 -42.5 -34.5t-44.5 -35.5q-34 -30 -43 -66l-17 -73h-12q-15 96 -15 120q0 21 8 36.5t31 38.5l75 72q50 50 50 96q0 28 -14 44.5t-36 16.5q-29 0 -62 -28.5t-57 -59.5h-8l24 119q27 10 97 10q72 0 110 -30t38 -82q0 -72 -82 -144zM103 105q25 0 41.5 -16
t16.5 -42q0 -24 -16.5 -40.5t-41.5 -16.5q-26 0 -42 16.5t-16 40.5q0 26 16 42t42 16z" />
    <glyph glyph-name="at" unicode="@" horiz-adv-x="834" 
d="M534 51q37 10 72.5 32t68 57.5t52.5 91t20 121.5q0 100 -58 159.5t-177 59.5q-114 0 -207.5 -63t-145 -166.5t-51.5 -224.5q0 -127 70 -200t186 -73q155 0 297 103l11 -11q-46 -51 -131 -93.5t-192 -42.5q-143 0 -229.5 82.5t-86.5 220.5q0 101 40 195t106 162t156.5 109
t187.5 41q135 0 216 -68t81 -180q0 -110 -59.5 -193.5t-147.5 -122.5t-182 -35l29 137q-36 -55 -79 -95t-79 -40q-23 0 -44 28t-21 74q0 66 33.5 129t98 107.5t145.5 50.5l102 38zM348 84q17 0 53 34.5t71 83.5l35 164q-71 -4 -122.5 -80t-51.5 -165q0 -37 15 -37z" />
    <glyph glyph-name="A" unicode="A" horiz-adv-x="575" 
d="M143 6l-2 -6h-178l2 6l67 51l331 615h18l110 -615l45 -51l-2 -6h-228l2 6l77 51l-32 184h-170l-97 -182zM206 283h139l-34 196z" />
    <glyph glyph-name="B" unicode="B" horiz-adv-x="520" 
d="M495 209q0 -93 -68.5 -151t-165.5 -58h-271l1 6l74 51l91 548l-56 51l1 6h210q78 0 131.5 -34t53.5 -99q0 -56 -42 -100.5t-95 -62.5q55 -14 95.5 -54t40.5 -103zM219 340l-46 -282q21 -18 72 -18q55 0 96.5 46t41.5 118q0 67 -35.5 101.5t-89.5 34.5h-39zM266 622
l-41 -244h83q24 0 54.5 43.5t30.5 98.5q0 52 -27 77t-69 25h-31z" />
    <glyph glyph-name="C" unicode="C" horiz-adv-x="598" 
d="M342 -10q-124 0 -207.5 73.5t-83.5 207.5q0 164 116.5 282.5t278.5 118.5q98 0 167 -24l-23 -131h-6q-60 109 -149 109q-104 0 -185 -102.5t-81 -250.5q0 -104 51 -170.5t125 -66.5q40 0 80 19t58 35t43 41l2 2l2 2l2 2h6l-21 -122q-68 -25 -175 -25z" />
    <glyph glyph-name="D" unicode="D" horiz-adv-x="653" 
d="M-9 0l1 6l73 51l92 548l-56 51l1 6h231q133 0 221.5 -74t88.5 -208q0 -69 -24.5 -136t-69.5 -122t-115 -88.5t-154 -33.5h-289zM267 621l-94 -563q46 -17 106 -17q103 0 175.5 94.5t72.5 233.5q0 125 -61 188.5t-152 63.5h-47z" />
    <glyph glyph-name="E" unicode="E" horiz-adv-x="491" 
d="M-9 0l1 6l73 51l91 548l-56 51l1 6h402l-22 -132h-7l-51 88h-157l-42 -246h162l61 71h6l-31 -184h-6l-36 70h-163l-47 -284h172l91 110h7l-26 -155h-423z" />
    <glyph glyph-name="F" unicode="F" horiz-adv-x="474" 
d="M446 443h7l-31 -184h-7l-36 71h-162l-45 -273l80 -51l-1 -6h-261l1 6l74 51l91 548l-56 52v5h402l-22 -136h-6l-54 92h-154l-42 -245h162z" />
    <glyph glyph-name="G" unicode="G" horiz-adv-x="646" 
d="M538 20q-9 -1 -42.5 -9.5t-70 -14.5t-68.5 -6q-135 0 -220.5 75.5t-85.5 202.5q0 165 116.5 284.5t276.5 119.5q105 0 178 -25l-23 -129h-6q-69 108 -159 108q-105 0 -185 -104.5t-80 -248.5q0 -109 54 -172.5t140 -63.5q43 0 75 14l39 235l-66 52l1 6h234l-1 -6l-65 -54
z" />
    <glyph glyph-name="H" unicode="H" horiz-adv-x="688" 
d="M223 359h290l41 246l-56 51l1 6h237l-1 -6l-73 -51l-91 -548l56 -51l-1 -6h-238l1 6l74 51l43 258h-290l-43 -258l56 -51l-1 -6h-237l1 6l73 51l92 548l-57 51l2 6h237l-1 -6l-74 -51z" />
    <glyph glyph-name="I" unicode="I" horiz-adv-x="292" 
d="M-9 0l1 6l73 51l92 548l-56 51l1 6h237l-1 -6l-74 -51l-91 -548l56 -51l-1 -6h-237z" />
    <glyph glyph-name="J" unicode="J" horiz-adv-x="286" 
d="M178 100q-13 -77 -71.5 -163t-157.5 -156l-9 7q100 143 137 356l77 461l-57 51l1 6h238l-1 -6l-73 -51z" />
    <glyph glyph-name="K" unicode="K" horiz-adv-x="606" 
d="M-9 0v6l74 51l92 548l-56 52l1 5h237l-1 -5l-74 -52l-91 -548l56 -51l-1 -6h-237zM322 0l1 6l74 51l-136 273h-31l257 275l-55 51l1 6h206l-1 -6l-87 -48l-203 -214l165 -337l58 -51l-1 -6h-248z" />
    <glyph glyph-name="L" unicode="L" horiz-adv-x="505" 
d="M171 45h173l117 137h7l-31 -182h-447l1 6l74 51l92 548l-56 51l1 6h236l-1 -6l-73 -51z" />
    <glyph glyph-name="M" unicode="M" horiz-adv-x="759" 
d="M453 0l1 6l80 54l73 441l-278 -444h-16l-126 445l-73 -442l60 -54l-1 -6h-189l1 6l80 54l86 520q-15 40 -37 77v5h133l127 -447l278 447h143l-1 -6q-1 -1 -28 -26.5t-36 -34.5l-89 -535l60 -54l-1 -6h-247z" />
    <glyph glyph-name="N" unicode="N" horiz-adv-x="664" 
d="M500 0l-307 507l-74 -447l71 -54l-1 -6h-205l2 6l79 54l86 514q-14 23 -57 83l1 5h130l291 -489l72 429l-70 55l1 5h202l-1 -5l-79 -55l-99 -602h-42z" />
    <glyph glyph-name="O" unicode="O" horiz-adv-x="675" 
d="M404 627q-92 0 -162 -107.5t-70 -257.5q0 -104 42.5 -165t101.5 -61q90 0 160 108.5t70 264.5q0 103 -41 160.5t-101 57.5zM56 266q0 166 105 286t243 120q111 0 185 -75t74 -193q0 -173 -104.5 -293.5t-242.5 -120.5q-111 0 -185.5 76.5t-74.5 199.5z" />
    <glyph glyph-name="P" unicode="P" horiz-adv-x="496" 
d="M520 497q0 -92 -78 -153t-199 -71l2 11q75 27 121.5 83t46.5 124q0 62 -36 96.5t-96 34.5h-14l-94 -565l68 -51l-1 -6h-249l1 6l74 51l91 548l-56 51l1 6h200q93 0 155.5 -42t62.5 -123z" />
    <glyph glyph-name="Q" unicode="Q" horiz-adv-x="675" 
d="M664 407q0 -142 -78.5 -256t-206.5 -149q168 -95 266 -129t209 -34q56 0 74 5l2 -8q-28 -21 -90.5 -40.5t-134.5 -19.5q-71 0 -175 47.5t-304 176.5q-38 25 -61 43.5t-52 51t-43 75.5t-14 96q0 164 104 285t242 121q114 0 188 -74t74 -191zM173 262q0 -103 42.5 -164
t100.5 -61q94 0 162 109.5t68 264.5q0 103 -41.5 159.5t-101.5 56.5q-93 0 -161.5 -108.5t-68.5 -256.5z" />
    <glyph glyph-name="R" unicode="R" horiz-adv-x="559" 
d="M-9 6l74 51l92 548l-56 51l1 6h221q80 0 134.5 -35.5t54.5 -104.5q0 -61 -40 -107.5t-96 -69.5q21 -67 56 -161q48 -140 107 -193l-1 -6q-38 1 -65.5 5.5t-48 16.5t-32.5 21.5t-24 33.5t-18 38.5t-18 49.5q-14 40 -54 175h-61l-44 -268l58 -51l-1 -6h-239v6zM266 621
l-42 -257h97q27 0 56.5 43.5t29.5 101.5q0 56 -28.5 84t-69.5 28h-43z" />
    <glyph glyph-name="S" unicode="S" horiz-adv-x="429" 
d="M288 672q83 0 138 -22l-23 -126h-7q-46 106 -114 106q-31 0 -53 -21.5t-22 -54.5q0 -32 17.5 -66.5t62.5 -101.5q54 -82 76.5 -129.5t22.5 -92.5q0 -77 -56 -125.5t-139 -48.5q-98 0 -172 50q8 107 26 181h8q12 -92 49.5 -137.5t90.5 -45.5q41 0 66.5 28t25.5 68
q0 36 -17 72t-63 106q-55 83 -74.5 125t-19.5 86q0 70 52 109.5t125 39.5z" />
    <glyph glyph-name="T" unicode="T" horiz-adv-x="588" 
d="M630 662l-25 -145h-5l-56 102h-127l-94 -562l61 -51l-1 -6h-248l1 6l79 51l94 562h-124l-93 -102h-6l26 145h518z" />
    <glyph glyph-name="U" unicode="U" horiz-adv-x="646" 
d="M563 203q-14 -88 -75.5 -150.5t-168.5 -62.5q-125 0 -188 64.5t-47 166.5l64 384l-56 51l1 6h242l-1 -6l-78 -51l-65 -388q-12 -73 29.5 -118.5t120.5 -45.5q72 0 116 44t54 111l67 397l-61 51l1 6h186l-1 -6l-73 -51z" />
    <glyph glyph-name="V" unicode="V" horiz-adv-x="576" 
d="M463 656l1 6h181l-1 -6l-67 -51l-329 -615h-18l-102 615l-45 51l1 6h228l-1 -6l-76 -51l65 -421l221 421z" />
    <glyph glyph-name="W" unicode="W" horiz-adv-x="860" 
d="M128 605l-45 51l1 6h218l-1 -6l-66 -51l76 -440l132 227l-45 213l-50 51l1 6h206l-1 -6l-56 -51l28 -146l80 146l-37 51l1 6h145l-1 -6l-59 -51l-117 -207l46 -233l224 440l-47 51l1 6h167l-1 -6l-66 -51l-314 -615h-20l-71 337l-194 -337h-21z" />
    <glyph glyph-name="X" unicode="X" horiz-adv-x="607" 
d="M-25 0l1 6l81 51l219 270l-121 278l-56 51l1 6h249l-1 -6l-75 -51l84 -199l153 197l-55 53l1 6h194l-1 -6l-78 -51l-194 -247l128 -301l56 -51l-1 -6h-242l1 6l75 51l-97 221l-177 -219l57 -53l-1 -6h-201z" />
    <glyph glyph-name="Y" unicode="Y" horiz-adv-x="567" 
d="M453 656l1 6h179l-1 -6l-66 -51l-203 -280l-45 -266l57 -53l-1 -6h-239l1 6l75 53l42 256l-124 290l-48 51l1 6h235l-1 -6l-75 -51l99 -236l168 234z" />
    <glyph glyph-name="Z" unicode="Z" horiz-adv-x="560" 
d="M136 46h273l102 121h6l-29 -167h-493l1 9l441 611h-235l-92 -105h-6l25 147h455l-1 -8z" />
    <glyph glyph-name="bracketleft" unicode="[" horiz-adv-x="268" 
d="M335 713h-79l-158 -845h79l-5 -28h-155l168 901h154z" />
    <glyph glyph-name="backslash" unicode="\" horiz-adv-x="311" 
d="M145 752l116 -983l-40 -6l-117 984z" />
    <glyph glyph-name="bracketright" unicode="]" horiz-adv-x="269" 
d="M-42 -132h79l158 845h-79l5 28h155l-168 -901h-154z" />
    <glyph glyph-name="asciicircum" unicode="^" horiz-adv-x="358" 
d="M59 304l-8 6l212 364h4l79 -366l-9 -3l-100 197z" />
    <glyph glyph-name="underscore" unicode="_" horiz-adv-x="327" 
d="M-55 -126l9 43h323l-8 -43h-324z" />
    <glyph glyph-name="grave" unicode="`" 
d="M329 490l-134 182l82 41l61 -218z" />
    <glyph glyph-name="a" unicode="a" horiz-adv-x="428" 
d="M389 25l-1 -7q-45 -11 -166 -27l30 148q-102 -150 -171 -150q-27 0 -48 30.5t-21 79.5q0 112 85 205.5t210 105.5l105 53l-80 -402zM127 60q17 0 57 39t79 93l38 183q-73 -6 -132 -90t-59 -183q0 -42 17 -42z" />
    <glyph glyph-name="b" unicode="b" horiz-adv-x="431" 
d="M75 669v7q124 37 174 49q-48 -237 -89 -442q45 66 91 107.5t81 41.5q29 0 55 -28.5t26 -92.5q0 -75 -32.5 -148t-94 -122t-133.5 -49q-61 0 -96 36.5t-27 80.5l106 525zM286 359q-20 0 -57.5 -37.5t-79.5 -97.5q-6 -26 -13.5 -66t-10.5 -53q0 -2 -10 -47q8 -28 39 -28
q58 0 107.5 89t49.5 184q0 56 -25 56z" />
    <glyph glyph-name="c" unicode="c" horiz-adv-x="348" 
d="M262 432q59 0 100 -15l-34 -94h-5q-48 69 -75 69q-42 0 -86 -77t-44 -171q0 -44 12 -67t30 -23q47 0 133 86l10 -7q-31 -60 -78.5 -101.5t-102.5 -41.5q-41 0 -72.5 39t-31.5 104q0 120 75 209.5t169 89.5z" />
    <glyph glyph-name="d" unicode="d" horiz-adv-x="447" 
d="M18 118q0 126 85 217.5t209 91.5h17l42 207l-61 35v7q160 46 175 49l-135 -664l58 -38l-1 -5q-53 -12 -165 -27l28 141q-105 -143 -166 -143q-32 0 -59 33t-27 96zM319 375q-13 13 -40 13q-60 0 -109.5 -81t-49.5 -182q0 -29 7 -47.5t18 -18.5q36 0 136 127z" />
    <glyph glyph-name="e" unicode="e" horiz-adv-x="355" 
d="M129 -10q-43 0 -77 34.5t-34 101.5q0 120 80.5 213t174.5 93q41 0 63 -13.5t22 -33.5q0 -10 -5 -22t-20 -28.5t-38.5 -31.5t-65.5 -28.5t-95 -21.5q-16 -48 -16 -112q0 -42 14.5 -64.5t37.5 -22.5q53 0 135 86l10 -8q-76 -142 -186 -142zM253 399q-25 0 -56.5 -32.5
t-52.5 -86.5q59 15 95 43t36 56q0 20 -22 20z" />
    <glyph glyph-name="f" unicode="f" horiz-adv-x="282" 
d="M57 60q11 65 25.5 168.5t20.5 142.5h-78v5l31 42h54q3 24 14 86q15 94 75.5 154t149.5 60q69 0 129 -21l-37 -74h-2q-70 53 -113 53q-74 0 -99 -133q-5 -24 -22 -125h119l-34 -47h-93q-48 -299 -58 -353q-8 -39 -17 -70t-28.5 -70t-45 -66t-68 -47t-95.5 -23l-14 73h1
q11 -1 37 -4.5t37 -3.5q44 0 65 47.5t46 205.5z" />
    <glyph glyph-name="g" unicode="g" horiz-adv-x="391" 
d="M39 258q0 72 56 123t123 51q27 0 55 -11h149l-18 -45h-82q23 -25 23 -61q0 -75 -56 -125t-120 -50q-10 0 -13 1q-34 -27 -34 -45q0 -17 43 -40q29 -17 74 -40.5t61 -32.5q55 -31 74 -52.5t19 -42.5q0 -61 -76 -103t-163 -42q-102 0 -167.5 30t-65.5 65q0 14 13.5 32.5
t58 48.5t113.5 60q-1 0 -1 1q-69 38 -69 75q0 18 23.5 43t64.5 49q-37 12 -61 42t-24 69zM250 -94q-16 9 -54 27.5t-61 30.5q-57 -28 -87 -56.5t-30 -49.5q0 -32 43 -52t109 -20q45 0 79 12.5t48 27t14 25.5t-12 23t-49 32zM215 400q-31 0 -57 -45t-26 -103
q0 -40 12.5 -59.5t26.5 -19.5q30 0 55.5 47.5t25.5 104.5q0 39 -11 57t-26 18z" />
    <glyph glyph-name="h" unicode="h" horiz-adv-x="459" 
d="M85 670l1 6q85 28 174 49l-94 -450q129 157 212 157q24 0 38.5 -13t10.5 -37q0 -8 -11 -58.5t-29.5 -131.5t-29.5 -131l56 -37v-6q-52 -11 -168 -27q78 331 78 347q2 12 -10 12q-39 0 -158 -127l-46 -223h-95l132 634z" />
    <glyph glyph-name="i" unicode="i" horiz-adv-x="234" 
d="M95 344l-54 34l1 7q137 44 164 50l-71 -374l58 -38v-5q-57 -12 -167 -27zM180 633q24 0 39.5 -15.5t15.5 -38.5t-15.5 -38.5t-39.5 -15.5q-23 0 -38.5 15.5t-15.5 38.5t15.5 38.5t38.5 15.5z" />
    <glyph glyph-name="j" unicode="j" horiz-adv-x="222" 
d="M179 633q24 0 39.5 -15.5t15.5 -38.5t-15.5 -38.5t-39.5 -15.5q-23 0 -38.5 15.5t-15.5 38.5t15.5 38.5t38.5 15.5zM125 23q-12 -62 -64.5 -137t-122.5 -136l-8 4q78 155 104 290l59 300l-54 34l1 7q108 36 165 50z" />
    <glyph glyph-name="k" unicode="k" horiz-adv-x="403" 
d="M143 635l-61 35l1 6q138 41 173 49l-146 -725h-95zM167 203q121 115 121 156q0 17 -18 35l1 5l97 34q20 -23 20 -47q0 -27 -30 -59t-111 -92q86 -165 138 -239l-1 -5q-36 1 -51 2.5t-35 7t-30 17t-24.5 31.5t-30 52t-37.5 76q-6 14 -10 21z" />
    <glyph glyph-name="l" unicode="l" horiz-adv-x="230" 
d="M147 634l-62 36l1 6q102 33 175 49l-134 -664l59 -38l-1 -5q-58 -13 -168 -27z" />
    <glyph glyph-name="m" unicode="m" horiz-adv-x="667" 
d="M24 0l70 344l-53 34v7q109 36 168 50l-34 -160q117 157 195 157q24 0 37 -13t8 -37q0 -11 -20 -104q120 154 193 154q54 0 48 -50q0 -8 -11 -58.5t-29.5 -131.5t-29.5 -131l56 -37v-6q-52 -11 -168 -27q13 57 33.5 147t32.5 143t12 55q2 11 -10 11q-35 0 -139 -124
l-49 -223h-95q74 328 74 336q2 11 -10 11q-34 0 -139 -125l-46 -222h-94z" />
    <glyph glyph-name="n" unicode="n" horiz-adv-x="468" 
d="M24 0l70 345l-53 33v7q113 38 168 50l-34 -161q131 158 212 158q25 0 39.5 -13t9.5 -37q0 -14 -70 -321l56 -36v-7q-47 -11 -167 -27q77 344 77 348q2 11 -10 11q-39 0 -158 -128l-46 -222h-94z" />
    <glyph glyph-name="o" unicode="o" horiz-adv-x="421" 
d="M175 -11q-65 0 -110 46t-45 120q0 111 71 194t159 83q62 0 107 -45.5t45 -115.5q0 -120 -71 -201t-156 -81zM179 27q43 0 82.5 80t39.5 179q0 52 -15 79.5t-38 27.5q-46 0 -86 -80t-40 -172q0 -55 15 -84.5t42 -29.5z" />
    <glyph glyph-name="p" unicode="p" horiz-adv-x="440" 
d="M12 381q23 17 106 37l14 68l102 30l-17 -85h15q94 0 143 -38t49 -103q0 -102 -85.5 -187.5t-208.5 -99.5l-41 -204l92 -50l-1 -6h-249l1 6l61 46l119 592q-57 -7 -96 -19zM321 285q0 96 -112 106l-68 -339q5 -3 15 -3q56 0 110.5 72t54.5 164z" />
    <glyph glyph-name="q" unicode="q" horiz-adv-x="442" 
d="M340 -251v-6h-224l1 6l89 50l68 345q-99 -155 -164 -155q-34 0 -63 34.5t-29 100.5q0 122 86.5 212.5t208.5 90.5q22 0 40 -5l80 29l-132 -656zM147 58q36 0 139 145l36 181q-11 4 -32 4q-68 0 -119 -80.5t-51 -185.5q0 -28 8.5 -46t18.5 -18z" />
    <glyph glyph-name="r" unicode="r" horiz-adv-x="340" 
d="M23 0l71 344l-54 34v7q109 36 168 50l-34 -166q94 163 124 163q34 0 61 -17l-41 -104q-3 1 -13.5 6t-19.5 8.5t-16 3.5q-28 0 -106 -110l-45 -219h-95z" />
    <glyph glyph-name="s" unicode="s" horiz-adv-x="297" 
d="M189 432q34 0 99 -17l-25 -88h-5q-39 69 -75 69q-15 0 -25.5 -10t-10.5 -28q0 -21 21 -59q12 -22 34.5 -61t29.5 -52q22 -43 22 -81q0 -43 -35.5 -79t-101.5 -36q-59 0 -113 28q4 52 19 132h6q35 -119 91 -119q23 0 35 13t12 32q0 23 -20 61q-2 3 -61 107q-23 43 -23 80
q0 43 33.5 75.5t92.5 32.5z" />
    <glyph glyph-name="t" unicode="t" horiz-adv-x="316" 
d="M194 370l-55 -256q-9 -43 -9 -48q0 -14 13 -14q19 0 44.5 18.5t59.5 49.5q6 7 10 10l11 -6q-27 -52 -70 -93t-98 -41q-33 0 -52 14.5t-19 34.5q0 2 10 56l59 275h-55v5l175 120l-16 -77h147l-40 -48h-115z" />
    <glyph glyph-name="u" unicode="u" horiz-adv-x="455" 
d="M285 165q-120 -173 -205 -173q-25 0 -39 11.5t-14 25.5q0 10 7 43q3 12 64 273l-54 34v6q164 49 170 50q-13 -57 -34 -148t-34 -146.5t-13 -57.5q0 -9 10 -9q17 0 64.5 46t89.5 103l41 197h95l-73 -360l55 -36v-6q-48 -11 -166 -27z" />
    <glyph glyph-name="v" unicode="v" horiz-adv-x="379" 
d="M385 383q0 -43 -59.5 -124t-247.5 -278h-20q24 259 18 372l-49 33l2 7q113 35 138 42q7 -115 -16 -329q142 185 142 251q0 23 -21 39v4l92 31q21 -19 21 -48z" />
    <glyph glyph-name="w" unicode="w" horiz-adv-x="538" 
d="M334 426q18 -127 13 -300q67 109 87 156t20 74q0 21 -20 41v4l92 29q18 -18 18 -45q0 -40 -53.5 -122t-215.5 -282h-22q11 102 11 268q-84 -143 -187 -268h-22q22 235 22 372l-49 33l1 7q55 18 141 42q0 -114 -17 -299q92 155 158 290h23z" />
    <glyph glyph-name="x" unicode="x" horiz-adv-x="393" 
d="M288 59l60 -34l-1 -6q-24 -8 -134 -30l-47 170q-62 -106 -86 -138.5t-49 -32.5q-30 0 -50 12l22 89l3 3q29 -13 43 -13t36 23.5t72 88.5l-46 167l-56 33v6l131 38l42 -157q57 92 84.5 124.5t52.5 32.5q22 0 46 -9l-23 -86l-4 -2q-21 9 -35 9q-22 0 -46.5 -21.5
t-66.5 -74.5z" />
    <glyph glyph-name="y" unicode="y" horiz-adv-x="370" 
d="M285 350q0 24 -26 46v4l96 30q20 -20 20 -50q0 -53 -162 -281q-9 -13 -14 -20t-13 -18.5t-15 -21.5q-147 -211 -192 -300l-107 14v6q104 86 224 233q-16 241 -29 361l-49 34v7l132 41q19 -130 25 -329q64 111 87 162.5t23 81.5z" />
    <glyph glyph-name="z" unicode="z" horiz-adv-x="358" 
d="M-15 10l279 341h-60q-85 0 -152 -10l-3 4l62 84l263 -10l-2 -9l-282 -336h52q96 0 181 18l3 -4l-68 -94l-275 6z" />
    <glyph glyph-name="braceleft" unicode="{" horiz-adv-x="284" 
d="M203 199q0 -41 -55.5 -131.5t-55.5 -133.5q0 -67 76 -109l-6 -7q-68 22 -106 56.5t-38 78.5q0 32 32 81.5t63.5 99t31.5 82.5q0 32 -20 47t-70 17l5 22q120 0 120 82q0 27 -27.5 102.5t-27.5 103.5q0 121 204 164l6 -7q-132 -51 -132 -151q0 -28 20 -96.5t20 -95.5
q0 -45 -34.5 -77t-86.5 -38q35 -7 58 -31t23 -59z" />
    <glyph glyph-name="bar" unicode="|" horiz-adv-x="258" 
d="M107 747h45v-978h-45v978z" />
    <glyph glyph-name="braceright" unicode="}" horiz-adv-x="284" 
d="M102 372q0 41 55.5 131.5t55.5 133.5q0 67 -76 109l6 7q68 -22 106 -56.5t38 -78.5q0 -32 -31.5 -81.5t-63.5 -99t-32 -82.5q0 -32 20 -47t70 -17l-5 -22q-120 0 -120 -82q0 -27 27.5 -102.5t27.5 -103.5q0 -121 -204 -164l-6 7q132 51 132 151q0 27 -20 96t-20 96
q0 45 34.5 77t86.5 38q-35 7 -58 31t-23 59z" />
    <glyph glyph-name="asciitilde" unicode="~" horiz-adv-x="411" 
d="M307 287q41 0 103 100l7 -2q-18 -80 -52 -128.5t-74 -48.5q-29 0 -86.5 37t-76.5 37q-39 0 -103 -102l-6 2q17 76 52 128t73 52q29 0 87 -37.5t76 -37.5z" />
    <glyph glyph-name="exclamdown" unicode="&#xa1;" horiz-adv-x="221" 
d="M105 215h15q-5 -53 -23 -236t-20 -219h-112q25 66 140 455zM145 317q-25 0 -41.5 16t-16.5 42q0 24 16.5 40.5t41.5 16.5q26 0 42 -16.5t16 -40.5q0 -26 -16 -42t-42 -16z" />
    <glyph glyph-name="cent" unicode="&#xa2;" horiz-adv-x="358" 
d="M312 511l-23 -80q51 -4 85 -14l-34 -94h-5q-34 55 -58 67l-98 -338q27 6 63 32.5t63 55.5l10 -7q-26 -52 -65.5 -90t-87.5 -49l-24 -84h-34l23 80q-43 2 -74 40t-31 103q0 115 69.5 202.5t163.5 95.5l23 80h34zM118 143q0 -69 28 -87l97 335q-47 -13 -86 -86t-39 -162z
" />
    <glyph glyph-name="sterling" unicode="&#xa3;" horiz-adv-x="492" 
d="M-20 -11q26 48 71.5 105.5t61.5 107.5q2 7 19 83h-84l6 41h84q4 23 9.5 74t7.5 68q9 93 70 148.5t142 55.5q59 0 120 -14l-21 -122h-7q-46 92 -101 92q-31 0 -54.5 -29t-32.5 -81q-25 -154 -33 -192h136l-7 -41h-138q-5 -22 -14 -45q-27 -78 -113 -136q32 15 63 15
t83.5 -19t75.5 -19q68 0 131 86l7 -2q-20 -82 -60.5 -128t-93.5 -46q-32 0 -97 31.5t-97 31.5q-11 0 -21 -2t-20.5 -6.5t-17.5 -8t-18.5 -12t-16.5 -12t-18 -15t-16 -13.5z" />
    <glyph glyph-name="yen" unicode="&#xa5;" horiz-adv-x="545" 
d="M472 226h-140l-27 -167l57 -53l-1 -6h-239l1 6l75 53l27 167h-140l7 39h139l10 59h-140l7 39h123l-101 242l-47 51l1 6h237l-1 -6l-76 -51l87 -215l151 213l-55 53l1 6h179l-1 -6l-66 -51l-174 -242h128l-7 -39h-139l-10 -59h140z" />
    <glyph glyph-name="brokenbar" unicode="&#xa6;" horiz-adv-x="258" 
d="M107 747h45v-434h-45v434zM107 216h45v-447h-45v447z" />
    <glyph glyph-name="section" unicode="&#xa7;" horiz-adv-x="404" 
d="M44 286q0 90 114 138q-20 48 -20 89q0 68 49 114t116 46q41 0 89 -11l-20 -106h-6q-18 40 -36.5 59t-43.5 19q-29 0 -49.5 -23.5t-20.5 -60.5q0 -25 10.5 -53.5t21.5 -48t48 -81.5q42 -70 60.5 -111.5t18.5 -77.5q0 -90 -111 -139q18 -45 18 -88q0 -74 -51 -129t-125 -55
q-40 0 -73 11t-46 20q5 55 24 147h6q20 -134 95 -134q38 0 64 29.5t26 76.5q0 38 -17.5 77.5t-60.5 106.5q-44 65 -62 106t-18 79zM190 173q42 -68 63 -110q42 33 42 78q0 29 -13 61t-48 89q-46 70 -66 112q-48 -25 -48 -76q0 -7 0.5 -13t3 -13.5t4 -13t6 -15t7 -15t10 -18
t11 -19t13.5 -22.5t15 -25z" />
    <glyph glyph-name="dieresis" unicode="&#xa8;" 
d="M349 627q23 0 37.5 -14.5t14.5 -36.5q0 -21 -14.5 -36t-37.5 -15q-21 0 -35.5 15t-14.5 36q0 22 14.5 36.5t35.5 14.5zM187 627q22 0 36.5 -14.5t14.5 -36.5q0 -21 -14.5 -36t-36.5 -15t-36.5 15t-14.5 36q0 22 14.5 36.5t36.5 14.5z" />
    <glyph glyph-name="copyright" unicode="&#xa9;" horiz-adv-x="768" 
d="M422 160q-86 0 -143.5 48.5t-57.5 127.5q0 75 56 127.5t147 52.5q53 0 109 -14v-97h-5q-58 74 -112 74q-43 0 -72.5 -38.5t-29.5 -98.5q0 -63 34 -103t78 -40q62 0 109 70h5v-85q-55 -24 -118 -24zM403 634q-125 0 -207 -87.5t-82 -214.5q0 -124 85 -213t204 -89
q123 0 206.5 87.5t83.5 214.5q0 124 -84.5 213t-205.5 89zM403 674q141 0 240.5 -100.5t99.5 -241.5q0 -144 -98 -243t-242 -99q-145 0 -242.5 98.5t-97.5 243.5q0 144 98 243t242 99z" />
    <glyph glyph-name="ordfeminine" unicode="&#xaa;" horiz-adv-x="317" 
d="M336 391v-4q-36 -7 -128 -19l19 94q-70 -95 -117 -95q-21 0 -36 20t-15 55q0 76 58.5 140.5t153.5 72.5l81 36l-55 -275zM149 422q10 0 34.5 22.5t51.5 55.5l27 127q-45 -4 -84 -60.5t-39 -122.5q0 -22 10 -22z" />
    <glyph glyph-name="guillemotleft" unicode="&#xab;" horiz-adv-x="389" 
d="M303 56l-114 169l1 2l176 163l7 -6l-104 -166l42 -159zM155 56l-114 169v2l177 163l7 -6l-104 -166l42 -159z" />
    <glyph glyph-name="registered" unicode="&#xae;" horiz-adv-x="397" 
d="M253 684q74 0 126.5 -52t52.5 -126q0 -75 -52 -127t-127 -52q-76 0 -128 52t-52 127q0 74 52 126t128 52zM253 655q-62 0 -103 -43t-41 -106t41.5 -106t102.5 -43t102.5 43t41.5 106t-41.5 106t-102.5 43zM168 424v5l20 17v135l-20 17v5h98q29 0 44.5 -12t15.5 -31
q0 -27 -30 -43l29 -46q17 -30 31 -41v-5q-14 -2 -27 -2q-20 0 -30 7t-19 23l-27 52h-17v-59l23 -17v-5h-91zM236 581v-55h23q7 0 13 7.5t6 18.5q0 29 -30 29h-12z" />
    <glyph glyph-name="macron" unicode="&#xaf;" 
d="M168 584h206l-12 -57h-206z" />
    <glyph glyph-name="degree" unicode="&#xb0;" horiz-adv-x="264" 
d="M120 553q0 -30 16 -48.5t40 -18.5q29 0 47.5 23t18.5 59q0 29 -16 47t-40 18q-30 0 -48 -23t-18 -57zM77 552q0 47 31.5 82.5t78.5 35.5q42 0 70 -27t28 -75t-31 -83t-79 -35q-43 0 -70.5 26.5t-27.5 75.5z" />
    <glyph glyph-name="twosuperior" unicode="&#xb2;" horiz-adv-x="231" 
d="M232 422h-188l1 11q87 87 118 127.5t31 70.5q0 20 -12 31t-31 11q-28 0 -50 -19l-6 5q28 62 97 62q34 0 55 -20.5t21 -53.5q0 -41 -36 -78t-116 -92h152z" />
    <glyph glyph-name="threesuperior" unicode="&#xb3;" horiz-adv-x="203" 
d="M92 573q77 43 77 74q0 30 -34 30q-21 0 -37 -13l-6 5q25 52 87 52q27 0 42.5 -14t15.5 -36q0 -44 -69 -68q32 -2 52 -19.5t20 -45.5q0 -45 -45 -79.5t-145 -43.5l-3 8q116 47 116 103q0 40 -50 40q-9 0 -19 -2z" />
    <glyph glyph-name="acute" unicode="&#xb4;" 
d="M175 490l-8 5l123 218l69 -57z" />
    <glyph glyph-name="paragraph" unicode="&#xb6;" horiz-adv-x="459" 
d="M109 0l1 6l73 51l52 312q-71 0 -117 38t-46 104q0 72 49.5 111.5t137.5 39.5h78l-111 -662h-117zM339 57l56 -51l-1 -6h-117l111 662h119l-1 -6l-74 -51z" />
    <glyph glyph-name="periodcentered" unicode="&#xb7;" horiz-adv-x="187" 
d="M102 309q25 0 41.5 -16t16.5 -42q0 -24 -16.5 -40.5t-41.5 -16.5q-26 0 -42 16.5t-16 40.5q0 26 16 42t42 16z" />
    <glyph glyph-name="cedilla" unicode="&#xb8;" 
d="M189 0l-44 -69q62 -30 62 -78q0 -41 -47 -75t-133 -48l-3 8q111 59 111 101q0 26 -45 45l-1 3q27 44 35 56q7 11 16 26t14 23l5 8h30z" />
    <glyph glyph-name="onesuperior" unicode="&#xb9;" horiz-adv-x="168" 
d="M50 422v5l38 27l40 204l-31 21v4l112 41l-51 -270l25 -27v-5h-133z" />
    <glyph glyph-name="ordmasculine" unicode="&#xba;" horiz-adv-x="308" 
d="M185 397q28 0 54.5 53.5t26.5 117.5q0 35 -9.5 54t-24.5 19q-30 0 -56.5 -53.5t-26.5 -113.5q0 -77 36 -77zM182 366q-51 0 -82.5 32t-31.5 85q0 74 51 131.5t115 57.5q47 0 79.5 -32t32.5 -84q0 -80 -50.5 -135t-113.5 -55z" />
    <glyph glyph-name="guillemotright" unicode="&#xbb;" horiz-adv-x="389" 
d="M83 390l114 -169l-1 -2l-176 -163l-7 6l104 166l-42 159zM231 390l114 -169v-2l-177 -163l-7 6l104 166l-42 159z" />
    <glyph glyph-name="onequarter" unicode="&#xbc;" horiz-adv-x="514" 
d="M57 369v5l38 27l40 204l-31 21v4l112 41l-51 -270l25 -27v-5h-133zM498 662h50l-502 -662h-50zM442 4l-1 -4h-128l1 4l36 28l8 44h-120l2 9l173 209h54l-34 -177h52l-24 -41h-36l-8 -44zM366 117l20 105l-89 -105h69z" />
    <glyph glyph-name="onehalf" unicode="&#xbd;" horiz-adv-x="539" 
d="M498 662h50l-502 -662h-50zM57 369v5l38 27l40 204l-31 21v4l112 41l-51 -270l25 -27v-5h-133zM451 0h-188l1 11q87 87 118 127.5t31 70.5q0 20 -12 31t-31 11q-28 0 -50 -19l-6 5q28 62 97 62q34 0 55 -20.5t21 -53.5q0 -41 -36 -78t-116 -92h152z" />
    <glyph glyph-name="threequarters" unicode="&#xbe;" horiz-adv-x="510" 
d="M500 662h50l-502 -662h-50zM95 520q77 43 77 74q0 30 -34 30q-21 0 -37 -13l-6 5q25 52 87 52q27 0 42.5 -14t15.5 -36q0 -44 -69 -68q32 -2 52 -19.5t20 -45.5q0 -45 -45 -79.5t-145 -43.5l-3 8q116 47 116 103q0 40 -50 40q-9 0 -19 -2zM439 4l-1 -4h-128l1 4l36 28
l8 44h-120l2 9l173 209h54l-34 -177h52l-24 -41h-36l-8 -44zM363 117l20 105l-89 -105h69z" />
    <glyph glyph-name="questiondown" unicode="&#xbf;" horiz-adv-x="323" 
d="M49 6q12 10 42.5 34.5t44.5 35.5q34 30 43 66l17 73h12q15 -96 15 -120q0 -21 -8 -36.5t-31 -38.5l-75 -72q-50 -50 -50 -96q0 -28 14 -44.5t36 -16.5q29 0 62 28.5t57 59.5h8l-24 -119q-27 -10 -97 -10q-72 0 -110 30t-38 82q0 72 82 144zM221 317q-25 0 -41.5 16
t-16.5 42q0 24 16.5 40.5t41.5 16.5q26 0 42 -16.5t16 -40.5q0 -26 -16 -42t-42 -16z" />
    <glyph glyph-name="Agrave" unicode="&#xc0;" horiz-adv-x="575" 
d="M143 6l-2 -6h-178l2 6l67 51l331 615h18l110 -615l45 -51l-2 -6h-228l2 6l77 51l-32 184h-170l-97 -182zM206 283h139l-34 196zM257 764l42 79l171 -132l-5 -8z" />
    <glyph glyph-name="Aacute" unicode="&#xc1;" horiz-adv-x="575" 
d="M143 6l-2 -6h-178l2 6l67 51l331 615h18l110 -615l45 -51l-2 -6h-228l2 6l77 51l-32 184h-170l-97 -182zM206 283h139l-34 196zM276 703l-4 9l200 132l35 -82z" />
    <glyph glyph-name="Acircumflex" unicode="&#xc2;" horiz-adv-x="575" 
d="M143 6l-2 -6h-178l2 6l67 51l331 615h18l110 -615l45 -51l-2 -6h-228l2 6l77 51l-32 184h-170l-97 -182zM206 283h139l-34 196zM398 842l102 -135l-5 -6l-106 53l-138 -53l-5 6z" />
    <glyph glyph-name="Atilde" unicode="&#xc3;" horiz-adv-x="575" 
d="M143 6l-2 -6h-178l2 6l67 51l331 615h18l110 -615l45 -51l-2 -6h-228l2 6l77 51l-32 184h-170l-97 -182zM206 283h139l-34 196zM333 813q12 0 57 -11.5t57 -11.5q13 0 34 16t37 34l6 -3q-15 -45 -39.5 -79t-47.5 -34q-16 0 -60.5 11.5t-53.5 11.5q-22 0 -74 -52l-6 3
q16 44 42 79.5t48 35.5z" />
    <glyph glyph-name="Adieresis" unicode="&#xc4;" horiz-adv-x="575" 
d="M143 6l-2 -6h-178l2 6l67 51l331 615h18l110 -615l45 -51l-2 -6h-228l2 6l77 51l-32 184h-170l-97 -182zM206 283h139l-34 196zM469 816q22 0 37 -14.5t15 -36.5q0 -21 -15 -36t-37 -15t-36.5 15t-14.5 36q0 22 14.5 36.5t36.5 14.5zM293 816q22 0 36.5 -14.5t14.5 -36.5
q0 -21 -14.5 -36t-36.5 -15t-36.5 15t-14.5 36q0 22 14.5 36.5t36.5 14.5z" />
    <glyph glyph-name="Aring" unicode="&#xc5;" horiz-adv-x="575" 
d="M143 6l-2 -6h-178l2 6l67 51l331 615h18l110 -615l45 -51l-2 -6h-228l2 6l77 51l-32 184h-170l-97 -182zM206 283h139l-34 196zM332 779q0 -21 13.5 -36t34.5 -15t34.5 15t13.5 36t-13.5 36t-34.5 15t-34.5 -15t-13.5 -36zM296 779q0 35 25 59t59 24q35 0 60 -24t25 -59
q0 -36 -24.5 -59.5t-60.5 -23.5t-60 23.5t-24 59.5z" />
    <glyph glyph-name="AE" unicode="&#xc6;" horiz-adv-x="779" 
d="M359 57l40 244h-153l-162 -242l57 -53l-1 -6h-177l1 6l64 51l366 548l-55 51l1 6h451l-22 -132h-6l-52 88h-151l-42 -247h156l61 71h6l-31 -184h-7l-35 71h-157l-47 -284h166l91 110h7l-26 -155h-417l1 6zM406 343l45 265l-177 -265h132z" />
    <glyph glyph-name="Ccedilla" unicode="&#xc7;" horiz-adv-x="598" 
d="M342 -10q-13 0 -37 2l-38 -61q62 -30 62 -78q0 -41 -47 -75t-133 -48l-3 8q111 59 111 101q0 26 -45 45l-1 3q27 44 35 56q14 21 24 39q7 10 8 14q-32 6 -47 11q-82 27 -131 95.5t-49 168.5q0 164 116.5 282.5t278.5 118.5q98 0 167 -24l-23 -131h-6q-60 109 -149 109
q-104 0 -185 -102.5t-81 -250.5q0 -104 51 -170.5t125 -66.5q86 0 158 72l29 29h6l-21 -122q-68 -25 -175 -25z" />
    <glyph glyph-name="Egrave" unicode="&#xc8;" horiz-adv-x="491" 
d="M219 764l42 79l171 -132l-5 -8zM-9 0l1 6l73 51l91 548l-56 51l1 6h402l-22 -132h-7l-51 88h-157l-42 -246h162l61 71h6l-31 -184h-6l-36 70h-163l-47 -284h172l91 110h7l-26 -155h-423z" />
    <glyph glyph-name="Eacute" unicode="&#xc9;" horiz-adv-x="491" 
d="M228 703l-4 9l200 132l35 -82zM-9 0l1 6l73 51l91 548l-56 51l1 6h402l-22 -132h-7l-51 88h-157l-42 -246h162l61 71h6l-31 -184h-6l-36 70h-163l-47 -284h172l91 110h7l-26 -155h-423z" />
    <glyph glyph-name="Ecircumflex" unicode="&#xca;" horiz-adv-x="491" 
d="M351 842l102 -135l-5 -6l-106 53l-138 -53l-5 6zM-9 0l1 6l73 51l91 548l-56 51l1 6h402l-22 -132h-7l-51 88h-157l-42 -246h162l61 71h6l-31 -184h-6l-36 70h-163l-47 -284h172l91 110h7l-26 -155h-423z" />
    <glyph glyph-name="Edieresis" unicode="&#xcb;" horiz-adv-x="491" 
d="M-9 0l1 6l73 51l91 548l-56 51l1 6h402l-22 -132h-7l-51 88h-157l-42 -246h162l61 71h6l-31 -184h-6l-36 70h-163l-47 -284h172l91 110h7l-26 -155h-423zM421 816q22 0 37 -14.5t15 -36.5q0 -21 -15 -36t-37 -15t-36.5 15t-14.5 36q0 22 14.5 36.5t36.5 14.5zM245 816
q22 0 36.5 -14.5t14.5 -36.5q0 -21 -14.5 -36t-36.5 -15t-36.5 15t-14.5 36q0 22 14.5 36.5t36.5 14.5z" />
    <glyph glyph-name="Igrave" unicode="&#xcc;" horiz-adv-x="292" 
d="M-9 0l1 6l73 51l92 548l-56 51l1 6h237l-1 -6l-74 -51l-91 -548l56 -51l-1 -6h-237zM118 764l42 79l171 -132l-5 -8z" />
    <glyph glyph-name="Iacute" unicode="&#xcd;" horiz-adv-x="292" 
d="M-9 0l1 6l73 51l92 548l-56 51l1 6h237l-1 -6l-74 -51l-91 -548l56 -51l-1 -6h-237zM128 703l-4 9l200 132l35 -82z" />
    <glyph glyph-name="Icircumflex" unicode="&#xce;" horiz-adv-x="292" 
d="M-9 0l1 6l73 51l92 548l-56 51l1 6h237l-1 -6l-74 -51l-91 -548l56 -51l-1 -6h-237zM249 842l102 -135l-5 -6l-106 53l-138 -53l-5 6z" />
    <glyph glyph-name="Idieresis" unicode="&#xcf;" horiz-adv-x="292" 
d="M-9 0l1 6l73 51l92 548l-56 51l1 6h237l-1 -6l-74 -51l-91 -548l56 -51l-1 -6h-237zM324 816q22 0 37 -14.5t15 -36.5q0 -21 -15 -36t-37 -15t-36.5 15t-14.5 36q0 22 14.5 36.5t36.5 14.5zM148 816q22 0 36.5 -14.5t14.5 -36.5q0 -21 -14.5 -36t-36.5 -15t-36.5 15
t-14.5 36q0 22 14.5 36.5t36.5 14.5z" />
    <glyph glyph-name="Eth" unicode="&#xd0;" horiz-adv-x="653" 
d="M333 662q133 0 221.5 -74t88.5 -208q0 -69 -24.5 -136t-69.5 -122t-115 -88.5t-154 -33.5h-289l1 6l74 51l43 259h-75l8 42h74l41 247l-56 51l1 6h231zM216 316l-43 -258q46 -17 106 -17q103 0 175.5 94.5t72.5 233.5q0 125 -61 188.5t-152 63.5h-47l-44 -263h166l-7 -42
h-166z" />
    <glyph glyph-name="Ntilde" unicode="&#xd1;" horiz-adv-x="664" 
d="M389 813q12 0 57 -11.5t57 -11.5q13 0 34 16t37 34l6 -3q-15 -45 -39.5 -79t-47.5 -34q-16 0 -60.5 11.5t-53.5 11.5q-22 0 -74 -52l-6 3q16 44 42 79.5t48 35.5zM500 0l-307 507l-74 -447l71 -54l-1 -6h-205l2 6l79 54l86 514q-14 23 -57 83l1 5h130l291 -489l72 429
l-70 55l1 5h202l-1 -5l-79 -55l-99 -602h-42z" />
    <glyph glyph-name="Ograve" unicode="&#xd2;" horiz-adv-x="675" 
d="M310 764l42 79l171 -132l-5 -8zM404 627q-92 0 -162 -107.5t-70 -257.5q0 -104 42.5 -165t101.5 -61q90 0 160 108.5t70 264.5q0 103 -41 160.5t-101 57.5zM56 266q0 166 105 286t243 120q111 0 185 -75t74 -193q0 -173 -104.5 -293.5t-242.5 -120.5q-111 0 -185.5 76.5
t-74.5 199.5z" />
    <glyph glyph-name="Oacute" unicode="&#xd3;" horiz-adv-x="675" 
d="M315 703l-4 9l200 132l35 -82zM404 627q-92 0 -162 -107.5t-70 -257.5q0 -104 42.5 -165t101.5 -61q90 0 160 108.5t70 264.5q0 103 -41 160.5t-101 57.5zM56 266q0 166 105 286t243 120q111 0 185 -75t74 -193q0 -173 -104.5 -293.5t-242.5 -120.5q-111 0 -185.5 76.5
t-74.5 199.5z" />
    <glyph glyph-name="Ocircumflex" unicode="&#xd4;" horiz-adv-x="675" 
d="M442 842l102 -135l-5 -6l-106 53l-138 -53l-5 6zM404 627q-92 0 -162 -107.5t-70 -257.5q0 -104 42.5 -165t101.5 -61q90 0 160 108.5t70 264.5q0 103 -41 160.5t-101 57.5zM56 266q0 166 105 286t243 120q111 0 185 -75t74 -193q0 -173 -104.5 -293.5t-242.5 -120.5
q-111 0 -185.5 76.5t-74.5 199.5z" />
    <glyph glyph-name="Otilde" unicode="&#xd5;" horiz-adv-x="675" 
d="M382 813q12 0 57 -11.5t57 -11.5q13 0 34 16t37 34l6 -3q-15 -45 -39.5 -79t-47.5 -34q-16 0 -60.5 11.5t-53.5 11.5q-22 0 -74 -52l-6 3q16 44 42 79.5t48 35.5zM404 627q-92 0 -162 -107.5t-70 -257.5q0 -104 42.5 -165t101.5 -61q90 0 160 108.5t70 264.5
q0 103 -41 160.5t-101 57.5zM56 266q0 166 105 286t243 120q111 0 185 -75t74 -193q0 -173 -104.5 -293.5t-242.5 -120.5q-111 0 -185.5 76.5t-74.5 199.5z" />
    <glyph glyph-name="Odieresis" unicode="&#xd6;" horiz-adv-x="675" 
d="M516 816q22 0 37 -14.5t15 -36.5q0 -21 -15 -36t-37 -15t-36.5 15t-14.5 36q0 22 14.5 36.5t36.5 14.5zM340 816q22 0 36.5 -14.5t14.5 -36.5q0 -21 -14.5 -36t-36.5 -15t-36.5 15t-14.5 36q0 22 14.5 36.5t36.5 14.5zM404 627q-92 0 -162 -107.5t-70 -257.5
q0 -104 42.5 -165t101.5 -61q90 0 160 108.5t70 264.5q0 103 -41 160.5t-101 57.5zM56 266q0 166 105 286t243 120q111 0 185 -75t74 -193q0 -173 -104.5 -293.5t-242.5 -120.5q-111 0 -185.5 76.5t-74.5 199.5z" />
    <glyph glyph-name="multiply" unicode="&#xd7;" horiz-adv-x="363" 
d="M164 248l-88 134l37 25l83 -129l134 129l29 -29l-140 -134l89 -137l-35 -22l-86 128l-134 -128l-29 28z" />
    <glyph glyph-name="Oslash" unicode="&#xd8;" horiz-adv-x="675" 
d="M56 266q0 166 105 286t243 120q83 0 147 -44l64 88l33 -24l-65 -90q80 -77 80 -198q0 -173 -104.5 -293.5t-242.5 -120.5q-83 0 -147 43l-73 -101l-33 25l74 102q-81 76 -81 207zM404 627q-92 0 -162 -107.5t-70 -257.5q0 -75 22 -126l313 431q-42 60 -103 60zM546 409
q0 66 -19 117l-312 -430q42 -60 101 -60q90 0 160 108.5t70 264.5z" />
    <glyph glyph-name="Ugrave" unicode="&#xd9;" horiz-adv-x="646" 
d="M310 764l42 79l171 -132l-5 -8zM563 203q-14 -88 -75.5 -150.5t-168.5 -62.5q-125 0 -188 64.5t-47 166.5l64 384l-56 51l1 6h242l-1 -6l-78 -51l-65 -388q-12 -73 29.5 -118.5t120.5 -45.5q72 0 116 44t54 111l67 397l-61 51l1 6h186l-1 -6l-73 -51z" />
    <glyph glyph-name="Uacute" unicode="&#xda;" horiz-adv-x="646" 
d="M322 703l-4 9l200 132l35 -82zM563 203q-14 -88 -75.5 -150.5t-168.5 -62.5q-125 0 -188 64.5t-47 166.5l64 384l-56 51l1 6h242l-1 -6l-78 -51l-65 -388q-12 -73 29.5 -118.5t120.5 -45.5q72 0 116 44t54 111l67 397l-61 51l1 6h186l-1 -6l-73 -51z" />
    <glyph glyph-name="Ucircumflex" unicode="&#xdb;" horiz-adv-x="646" 
d="M446 842l102 -135l-5 -6l-106 53l-138 -53l-5 6zM563 203q-14 -88 -75.5 -150.5t-168.5 -62.5q-125 0 -188 64.5t-47 166.5l64 384l-56 51l1 6h242l-1 -6l-78 -51l-65 -388q-12 -73 29.5 -118.5t120.5 -45.5q72 0 116 44t54 111l67 397l-61 51l1 6h186l-1 -6l-73 -51z
" />
    <glyph glyph-name="Udieresis" unicode="&#xdc;" horiz-adv-x="646" 
d="M563 203q-14 -88 -75.5 -150.5t-168.5 -62.5q-125 0 -188 64.5t-47 166.5l64 384l-56 51l1 6h242l-1 -6l-78 -51l-65 -388q-12 -73 29.5 -118.5t120.5 -45.5q72 0 116 44t54 111l67 397l-61 51l1 6h186l-1 -6l-73 -51zM516 816q22 0 37 -14.5t15 -36.5q0 -21 -15 -36
t-37 -15t-36.5 15t-14.5 36q0 22 14.5 36.5t36.5 14.5zM340 816q22 0 36.5 -14.5t14.5 -36.5q0 -21 -14.5 -36t-36.5 -15t-36.5 15t-14.5 36q0 22 14.5 36.5t36.5 14.5z" />
    <glyph glyph-name="Yacute" unicode="&#xdd;" horiz-adv-x="567" 
d="M453 656l1 6h179l-1 -6l-66 -51l-203 -280l-45 -266l57 -53l-1 -6h-239l1 6l75 53l42 256l-124 290l-48 51l1 6h235l-1 -6l-75 -51l99 -236l168 234zM285 703l-4 9l200 132l35 -82z" />
    <glyph glyph-name="Thorn" unicode="&#xde;" horiz-adv-x="505" 
d="M241 467l-68 -410l56 -51l-1 -6h-237l1 6l73 51l92 548l-56 51l1 6h237l-1 -6l-74 -51l-16 -97h54q90 0 147.5 -36.5t57.5 -103.5q0 -83 -79.5 -132t-199.5 -51l2 10q77 19 123.5 62t46.5 108q0 51 -31.5 76.5t-86.5 25.5h-41z" />
    <glyph glyph-name="germandbls" unicode="&#xdf;" horiz-adv-x="451" 
d="M329 718q69 0 107.5 -32t38.5 -79q0 -33 -17 -62t-41.5 -49t-49 -38.5t-41.5 -39t-17 -41.5q0 -5 1 -10.5t2.5 -10t4.5 -11.5t5 -11.5t7.5 -13t8.5 -13.5t10 -16t11 -17q34 -52 48 -83t14 -68q0 -54 -41.5 -93.5t-108.5 -39.5q-55 0 -104 26q8 65 21 128h6
q26 -113 80 -113q27 0 43.5 18.5t16.5 48.5q0 25 -9.5 45t-40.5 69q-30 46 -42 71t-12 53t16 54t39 47t45.5 43t38.5 54t16 69q0 34 -17.5 54t-49.5 20q-84 0 -110 -134q-16 -77 -54 -289t-42 -236q-51 -264 -255 -276l-14 72l1 1q54 -7 73 -7q44 0 64.5 46.5t48.5 205.5
q37 216 76 444q15 92 73 153t150 61z" />
    <glyph glyph-name="agrave" unicode="&#xe0;" horiz-adv-x="428" 
d="M389 25l-1 -7q-45 -11 -166 -27l30 148q-102 -150 -171 -150q-27 0 -48 30.5t-21 79.5q0 112 85 205.5t210 105.5l105 53l-80 -402zM127 60q17 0 57 39t79 93l38 183q-73 -6 -132 -90t-59 -183q0 -42 17 -42zM307 490l-134 182l82 41l61 -218z" />
    <glyph glyph-name="aacute" unicode="&#xe1;" horiz-adv-x="428" 
d="M389 25l-1 -7q-45 -11 -166 -27l30 148q-102 -150 -171 -150q-27 0 -48 30.5t-21 79.5q0 112 85 205.5t210 105.5l105 53l-80 -402zM127 60q17 0 57 39t79 93l38 183q-73 -6 -132 -90t-59 -183q0 -42 17 -42zM226 490l-8 5l123 218l69 -57z" />
    <glyph glyph-name="acircumflex" unicode="&#xe2;" horiz-adv-x="428" 
d="M389 25l-1 -7q-45 -11 -166 -27l30 148q-102 -150 -171 -150q-27 0 -48 30.5t-21 79.5q0 112 85 205.5t210 105.5l105 53l-80 -402zM127 60q17 0 57 39t79 93l38 183q-73 -6 -132 -90t-59 -183q0 -42 17 -42zM304 709l59 -224l-9 -3l-69 103l-117 -103l-7 5z" />
    <glyph glyph-name="atilde" unicode="&#xe3;" horiz-adv-x="428" 
d="M389 25l-1 -7q-45 -11 -166 -27l30 148q-102 -150 -171 -150q-27 0 -48 30.5t-21 79.5q0 112 85 205.5t210 105.5l105 53l-80 -402zM127 60q17 0 57 39t79 93l38 183q-73 -6 -132 -90t-59 -183q0 -42 17 -42zM239 617q11 0 49.5 -14.5t50.5 -14.5q11 0 31 17.5t37 39.5
l7 -3q-12 -48 -37.5 -83.5t-46.5 -35.5q-15 0 -53 14t-47 14q-21 0 -71 -56l-7 3q16 48 41.5 83.5t45.5 35.5z" />
    <glyph glyph-name="adieresis" unicode="&#xe4;" horiz-adv-x="428" 
d="M389 25l-1 -7q-45 -11 -166 -27l30 148q-102 -150 -171 -150q-27 0 -48 30.5t-21 79.5q0 112 85 205.5t210 105.5l105 53l-80 -402zM127 60q17 0 57 39t79 93l38 183q-73 -6 -132 -90t-59 -183q0 -42 17 -42zM345 627q23 0 37.5 -14.5t14.5 -36.5q0 -21 -14.5 -36
t-37.5 -15q-21 0 -35.5 15t-14.5 36q0 22 14.5 36.5t35.5 14.5zM183 627q22 0 36.5 -14.5t14.5 -36.5q0 -21 -14.5 -36t-36.5 -15t-36.5 15t-14.5 36q0 22 14.5 36.5t36.5 14.5z" />
    <glyph glyph-name="aring" unicode="&#xe5;" horiz-adv-x="428" 
d="M389 25l-1 -7q-45 -11 -166 -27l30 148q-102 -150 -171 -150q-27 0 -48 30.5t-21 79.5q0 112 85 205.5t210 105.5l105 53l-80 -402zM127 60q17 0 57 39t79 93l38 183q-73 -6 -132 -90t-59 -183q0 -42 17 -42zM218 577q0 -21 13.5 -36t34.5 -15q20 0 34 15t14 36t-14 36
t-34 15q-21 0 -34.5 -15t-13.5 -36zM181 577q0 35 25.5 59t59.5 24t59 -24t25 -59t-25 -59t-59 -24q-36 0 -60.5 23.5t-24.5 59.5z" />
    <glyph glyph-name="ae" unicode="&#xe6;" horiz-adv-x="587" 
d="M360 -10q-42 0 -76 34.5t-34 101.5v1q-95 -138 -161 -138q-31 0 -53 30.5t-22 82.5q0 81 40.5 155.5t110 121t147.5 46.5q56 0 96 -21q47 28 97 28q41 0 63 -13.5t22 -33.5q0 -10 -5 -22t-20 -28.5t-38.5 -31.5t-65.5 -28.5t-95 -21.5q-16 -48 -16 -112q0 -43 14 -65
t37 -22q53 0 135 86l11 -8q-37 -70 -86 -106t-101 -36zM296 388q-66 0 -124 -86.5t-58 -197.5q0 -45 19 -45q16 0 51 33.5t69 79.5q18 116 103 194q-26 22 -60 22zM507 379q0 20 -23 20q-25 0 -56 -32.5t-52 -86.5q59 15 95 43t36 56z" />
    <glyph glyph-name="ccedilla" unicode="&#xe7;" horiz-adv-x="348" 
d="M262 432q59 0 100 -15l-34 -94h-5q-48 69 -75 69q-42 0 -86 -77t-44 -171q0 -44 12 -67t30 -23q47 0 133 86l10 -7q-50 -97 -125 -131q-14 -6 -34 -10l-38 -61q62 -30 62 -78q0 -41 -47 -75t-133 -48l-3 8q111 59 111 101q0 26 -45 45l-1 3q27 44 35 56q13 21 24 39
q4 6 5 9q-15 1 -30 9q-29 14 -47.5 48.5t-18.5 84.5q0 120 75 209.5t169 89.5z" />
    <glyph glyph-name="egrave" unicode="&#xe8;" horiz-adv-x="355" 
d="M129 -10q-43 0 -77 34.5t-34 101.5q0 120 80.5 213t174.5 93q41 0 63 -13.5t22 -33.5q0 -10 -5 -22t-20 -28.5t-38.5 -31.5t-65.5 -28.5t-95 -21.5q-16 -48 -16 -112q0 -42 14.5 -64.5t37.5 -22.5q53 0 135 86l10 -8q-76 -142 -186 -142zM253 399q-25 0 -56.5 -32.5
t-52.5 -86.5q59 15 95 43t36 56q0 20 -22 20zM285 490l-134 182l82 41l61 -218z" />
    <glyph glyph-name="eacute" unicode="&#xe9;" horiz-adv-x="355" 
d="M201 490l-8 5l123 218l69 -57zM129 -10q-43 0 -77 34.5t-34 101.5q0 120 80.5 213t174.5 93q41 0 63 -13.5t22 -33.5q0 -10 -5 -22t-20 -28.5t-38.5 -31.5t-65.5 -28.5t-95 -21.5q-16 -48 -16 -112q0 -42 14.5 -64.5t37.5 -22.5q53 0 135 86l10 -8q-76 -142 -186 -142z
M253 399q-25 0 -56.5 -32.5t-52.5 -86.5q59 15 95 43t36 56q0 20 -22 20z" />
    <glyph glyph-name="ecircumflex" unicode="&#xea;" horiz-adv-x="355" 
d="M277 709l59 -224l-9 -3l-69 103l-117 -103l-7 5zM129 -10q-43 0 -77 34.5t-34 101.5q0 120 80.5 213t174.5 93q41 0 63 -13.5t22 -33.5q0 -10 -5 -22t-20 -28.5t-38.5 -31.5t-65.5 -28.5t-95 -21.5q-16 -48 -16 -112q0 -42 14.5 -64.5t37.5 -22.5q53 0 135 86l10 -8
q-76 -142 -186 -142zM253 399q-25 0 -56.5 -32.5t-52.5 -86.5q59 15 95 43t36 56q0 20 -22 20z" />
    <glyph glyph-name="edieresis" unicode="&#xeb;" horiz-adv-x="355" 
d="M333 627q23 0 37.5 -14.5t14.5 -36.5q0 -21 -14.5 -36t-37.5 -15q-21 0 -35.5 15t-14.5 36q0 22 14.5 36.5t35.5 14.5zM171 627q22 0 36.5 -14.5t14.5 -36.5q0 -21 -14.5 -36t-36.5 -15t-36.5 15t-14.5 36q0 22 14.5 36.5t36.5 14.5zM129 -10q-43 0 -77 34.5t-34 101.5
q0 120 80.5 213t174.5 93q41 0 63 -13.5t22 -33.5q0 -10 -5 -22t-20 -28.5t-38.5 -31.5t-65.5 -28.5t-95 -21.5q-16 -48 -16 -112q0 -42 14.5 -64.5t37.5 -22.5q53 0 135 86l10 -8q-76 -142 -186 -142zM253 399q-25 0 -56.5 -32.5t-52.5 -86.5q59 15 95 43t36 56
q0 20 -22 20z" />
    <glyph glyph-name="igrave" unicode="&#xec;" horiz-adv-x="234" 
d="M95 344l-54 34l1 7q137 44 164 50l-71 -374l58 -38v-5q-57 -12 -167 -27zM205 490l-134 182l82 41l61 -218z" />
    <glyph glyph-name="iacute" unicode="&#xed;" horiz-adv-x="234" 
d="M119 490l-8 5l123 218l69 -57zM95 344l-54 34l1 7q137 44 164 50l-71 -374l58 -38v-5q-57 -12 -167 -27z" />
    <glyph glyph-name="icircumflex" unicode="&#xee;" horiz-adv-x="234" 
d="M198 709l59 -224l-9 -3l-69 103l-117 -103l-7 5zM95 344l-54 34l1 7q137 44 164 50l-71 -374l58 -38v-5q-57 -12 -167 -27z" />
    <glyph glyph-name="idieresis" unicode="&#xef;" horiz-adv-x="234" 
d="M95 344l-54 34l1 7q137 44 164 50l-71 -374l58 -38v-5q-57 -12 -167 -27zM250 626q22 0 36.5 -14.5t14.5 -35.5q0 -20 -14.5 -35t-36.5 -15q-20 0 -34.5 15t-14.5 35q0 21 14.5 35.5t34.5 14.5zM95 626q22 0 36.5 -14.5t14.5 -35.5q0 -20 -15 -35t-36 -15q-20 0 -35 15
t-15 35q0 21 15 35.5t35 14.5z" />
    <glyph glyph-name="eth" unicode="&#xf0;" horiz-adv-x="426" 
d="M166 720q74 -39 128 -97l102 58l18 -32l-96 -54q90 -113 90 -251q0 -159 -73.5 -257t-164.5 -98q-67 0 -108.5 48.5t-41.5 118.5q0 114 69.5 192t158.5 78q28 0 54 -12q-9 76 -41 148l-138 -78l-18 32l139 79q-35 61 -83 116zM305 374q-19 12 -46 12q-56 0 -97 -73
t-41 -173q0 -51 14 -82t39 -31q27 0 57 42t52 121t22 169v15z" />
    <glyph glyph-name="ntilde" unicode="&#xf1;" horiz-adv-x="468" 
d="M24 0l70 345l-53 33v7q113 38 168 50l-34 -161q131 158 212 158q25 0 39.5 -13t9.5 -37q0 -14 -70 -321l56 -36v-7q-47 -11 -167 -27q77 344 77 348q2 11 -10 11q-39 0 -158 -128l-46 -222h-94zM254 617q11 0 49.5 -14.5t50.5 -14.5q11 0 31 17.5t37 39.5l7 -3
q-12 -48 -37.5 -83.5t-46.5 -35.5q-15 0 -53 14t-47 14q-21 0 -71 -56l-7 3q16 48 41.5 83.5t45.5 35.5z" />
    <glyph glyph-name="ograve" unicode="&#xf2;" horiz-adv-x="421" 
d="M175 -11q-65 0 -110 46t-45 120q0 111 71 194t159 83q62 0 107 -45.5t45 -115.5q0 -120 -71 -201t-156 -81zM179 27q43 0 82.5 80t39.5 179q0 52 -15 79.5t-38 27.5q-46 0 -86 -80t-40 -172q0 -55 15 -84.5t42 -29.5zM292 490l-134 182l82 41l61 -218z" />
    <glyph glyph-name="oacute" unicode="&#xf3;" horiz-adv-x="421" 
d="M210 490l-8 5l123 218l69 -57zM175 -11q-65 0 -110 46t-45 120q0 111 71 194t159 83q62 0 107 -45.5t45 -115.5q0 -120 -71 -201t-156 -81zM179 27q43 0 82.5 80t39.5 179q0 52 -15 79.5t-38 27.5q-46 0 -86 -80t-40 -172q0 -55 15 -84.5t42 -29.5z" />
    <glyph glyph-name="ocircumflex" unicode="&#xf4;" horiz-adv-x="421" 
d="M299 709l59 -224l-9 -3l-69 103l-117 -103l-7 5zM175 -11q-65 0 -110 46t-45 120q0 111 71 194t159 83q62 0 107 -45.5t45 -115.5q0 -120 -71 -201t-156 -81zM179 27q43 0 82.5 80t39.5 179q0 52 -15 79.5t-38 27.5q-46 0 -86 -80t-40 -172q0 -55 15 -84.5t42 -29.5z" />
    <glyph glyph-name="otilde" unicode="&#xf5;" horiz-adv-x="421" 
d="M175 -11q-65 0 -110 46t-45 120q0 111 71 194t159 83q62 0 107 -45.5t45 -115.5q0 -120 -71 -201t-156 -81zM179 27q43 0 82.5 80t39.5 179q0 52 -15 79.5t-38 27.5q-46 0 -86 -80t-40 -172q0 -55 15 -84.5t42 -29.5zM229 617q11 0 49.5 -14.5t50.5 -14.5q11 0 31 17.5
t37 39.5l7 -3q-12 -48 -37.5 -83.5t-46.5 -35.5q-15 0 -53 14t-47 14q-21 0 -71 -56l-7 3q16 48 41.5 83.5t45.5 35.5z" />
    <glyph glyph-name="odieresis" unicode="&#xf6;" horiz-adv-x="421" 
d="M348 627q23 0 37.5 -14.5t14.5 -36.5q0 -21 -14.5 -36t-37.5 -15q-21 0 -35.5 15t-14.5 36q0 22 14.5 36.5t35.5 14.5zM186 627q22 0 36.5 -14.5t14.5 -36.5q0 -21 -14.5 -36t-36.5 -15t-36.5 15t-14.5 36q0 22 14.5 36.5t36.5 14.5zM175 -11q-65 0 -110 46t-45 120
q0 111 71 194t159 83q62 0 107 -45.5t45 -115.5q0 -120 -71 -201t-156 -81zM179 27q43 0 82.5 80t39.5 179q0 52 -15 79.5t-38 27.5q-46 0 -86 -80t-40 -172q0 -55 15 -84.5t42 -29.5z" />
    <glyph glyph-name="divide" unicode="&#xf7;" horiz-adv-x="413" 
d="M39 226l8 42h336l-8 -42h-336zM129 91q0 21 15 36t37 15q23 0 37.5 -15t14.5 -36q0 -22 -14.5 -37t-37.5 -15q-22 0 -37 15t-15 37zM188 398q0 22 15 36.5t37 14.5t37 -14.5t15 -36.5t-15 -37t-37 -15t-37 15t-15 37z" />
    <glyph glyph-name="oslash" unicode="&#xf8;" horiz-adv-x="421" 
d="M16 -48l53 79q-49 46 -49 124q0 111 71 194t159 83q38 0 75 -21l47 71l29 -19l-49 -72q50 -47 50 -120q0 -120 -71 -201t-156 -81q-45 0 -79 21l-51 -76zM179 27q44 0 84.5 80t40.5 179q0 12 -2 30l-171 -254q15 -35 48 -35zM119 141q0 -22 1 -33l171 253q-15 32 -43 32
q-46 0 -87.5 -80t-41.5 -172z" />
    <glyph glyph-name="ugrave" unicode="&#xf9;" horiz-adv-x="455" 
d="M285 165q-120 -173 -205 -173q-25 0 -39 11.5t-14 25.5q0 10 7 43q3 12 64 273l-54 34v6q164 49 170 50q-13 -57 -34 -148t-34 -146.5t-13 -57.5q0 -9 10 -9q17 0 64.5 46t89.5 103l41 197h95l-73 -360l55 -36v-6q-48 -11 -166 -27zM318 490l-134 182l82 41l61 -218z" />
    <glyph glyph-name="uacute" unicode="&#xfa;" horiz-adv-x="455" 
d="M247 490l-8 5l123 218l69 -57zM285 165q-120 -173 -205 -173q-25 0 -39 11.5t-14 25.5q0 10 7 43q3 12 64 273l-54 34v6q164 49 170 50q-13 -57 -34 -148t-34 -146.5t-13 -57.5q0 -9 10 -9q17 0 64.5 46t89.5 103l41 197h95l-73 -360l55 -36v-6q-48 -11 -166 -27z" />
    <glyph glyph-name="ucircumflex" unicode="&#xfb;" horiz-adv-x="455" 
d="M322 709l59 -224l-9 -3l-69 103l-117 -103l-7 5zM285 165q-120 -173 -205 -173q-25 0 -39 11.5t-14 25.5q0 10 7 43q3 12 64 273l-54 34v6q164 49 170 50q-13 -57 -34 -148t-34 -146.5t-13 -57.5q0 -9 10 -9q17 0 64.5 46t89.5 103l41 197h95l-73 -360l55 -36v-6
q-48 -11 -166 -27z" />
    <glyph glyph-name="udieresis" unicode="&#xfc;" horiz-adv-x="455" 
d="M369 627q23 0 37.5 -14.5t14.5 -36.5q0 -21 -14.5 -36t-37.5 -15q-21 0 -35.5 15t-14.5 36q0 22 14.5 36.5t35.5 14.5zM207 627q22 0 36.5 -14.5t14.5 -36.5q0 -21 -14.5 -36t-36.5 -15t-36.5 15t-14.5 36q0 22 14.5 36.5t36.5 14.5zM285 165q-120 -173 -205 -173
q-25 0 -39 11.5t-14 25.5q0 10 7 43q3 12 64 273l-54 34v6q164 49 170 50q-13 -57 -34 -148t-34 -146.5t-13 -57.5q0 -9 10 -9q17 0 64.5 46t89.5 103l41 197h95l-73 -360l55 -36v-6q-48 -11 -166 -27z" />
    <glyph glyph-name="yacute" unicode="&#xfd;" horiz-adv-x="370" 
d="M285 350q0 24 -26 46v4l96 30q20 -20 20 -50q0 -53 -162 -281q-9 -13 -14 -20t-13 -18.5t-15 -21.5q-147 -211 -192 -300l-107 14v6q104 86 224 233q-16 241 -29 361l-49 34v7l132 41q19 -130 25 -329q64 111 87 162.5t23 81.5zM198 490l-8 5l123 218l69 -57z" />
    <glyph glyph-name="thorn" unicode="&#xfe;" horiz-adv-x="431" 
d="M62 -201l92 -50l-1 -6h-248l1 6l61 46l169 839l-61 35l1 7q117 36 173 49l-90 -444q44 66 91.5 108.5t81.5 42.5q29 0 55.5 -28.5t26.5 -92.5q0 -75 -32.5 -148t-94 -122t-133.5 -49q-31 0 -51 11zM287 359q-20 0 -58.5 -37.5t-80.5 -98.5q-6 -25 -13.5 -65t-10.5 -53
q-5 -28 -9 -47q8 -28 40 -28q58 0 107.5 89t49.5 184q0 56 -25 56z" />
    <glyph glyph-name="ydieresis" unicode="&#xff;" horiz-adv-x="370" 
d="M285 350q0 24 -26 46v4l96 30q20 -20 20 -50q0 -53 -162 -281q-9 -13 -14 -20t-13 -18.5t-15 -21.5q-147 -211 -192 -300l-107 14v6q104 86 224 233q-16 241 -29 361l-49 34v7l132 41q19 -130 25 -329q64 111 87 162.5t23 81.5zM317 627q23 0 37.5 -14.5t14.5 -36.5
q0 -21 -14.5 -36t-37.5 -15q-21 0 -35.5 15t-14.5 36q0 22 14.5 36.5t35.5 14.5zM155 627q22 0 36.5 -14.5t14.5 -36.5q0 -21 -14.5 -36t-36.5 -15t-36.5 15t-14.5 36q0 22 14.5 36.5t36.5 14.5z" />
    <glyph glyph-name="Amacron" unicode="&#x100;" horiz-adv-x="575" 
d="M143 6l-2 -6h-178l2 6l67 51l331 615h18l110 -615l45 -51l-2 -6h-228l2 6l77 51l-32 184h-170l-97 -182zM206 283h139l-34 196zM505 778l-11 -58h-235l11 58h235z" />
    <glyph glyph-name="amacron" unicode="&#x101;" horiz-adv-x="428" 
d="M389 25l-1 -7q-45 -11 -166 -27l30 148q-102 -150 -171 -150q-27 0 -48 30.5t-21 79.5q0 112 85 205.5t210 105.5l105 53l-80 -402zM127 60q17 0 57 39t79 93l38 183q-73 -6 -132 -90t-59 -183q0 -42 17 -42zM171 584h206l-12 -57h-206z" />
    <glyph glyph-name="Abreve" unicode="&#x102;" horiz-adv-x="575" 
d="M143 6l-2 -6h-178l2 6l67 51l331 615h18l110 -615l45 -51l-2 -6h-228l2 6l77 51l-32 184h-170l-97 -182zM206 283h139l-34 196zM498 833q-12 -58 -43.5 -92t-80.5 -34q-50 0 -72.5 38t-15.5 88l7 1q13 -61 85 -61q69 0 113 61z" />
    <glyph glyph-name="abreve" unicode="&#x103;" horiz-adv-x="428" 
d="M389 25l-1 -7q-45 -11 -166 -27l30 148q-102 -150 -171 -150q-27 0 -48 30.5t-21 79.5q0 112 85 205.5t210 105.5l105 53l-80 -402zM127 60q17 0 57 39t79 93l38 183q-73 -6 -132 -90t-59 -183q0 -42 17 -42zM379 635q-9 -61 -39 -96.5t-77 -35.5q-49 0 -69 39.5
t-11 92.5l8 1q13 -67 75 -67q33 0 61 19t44 48z" />
    <glyph glyph-name="Aogonek" unicode="&#x104;" horiz-adv-x="575" 
d="M395 0l-43 241h-169l-97 -182l57 -53l-2 -6h-178l2 6l67 51l331 615h18l110 -615l45 -51l-2 -6h-112q-95 -101 -95 -164q0 -46 43 -46q38 0 78 30l5 -4q-6 -11 -15.5 -23t-25.5 -26.5t-39.5 -23.5t-50.5 -9q-38 0 -61.5 21.5t-22.5 54.5q0 86 157 190zM206 283h138
l-34 195z" />
    <glyph glyph-name="aogonek" unicode="&#x105;" horiz-adv-x="428" 
d="M71 -190q0 89 153 189l28 140q-102 -150 -171 -150q-27 0 -48 30.5t-21 79.5q0 112 85 205.5t210 105.5l105 53l-80 -402l57 -36l-1 -7q-15 -4 -143 -24q-85 -89 -85 -158q0 -46 43 -46q38 0 78 30l5 -4q-6 -11 -15.5 -23t-25.5 -26.5t-39.5 -23.5t-50.5 -9
q-38 0 -61 21.5t-23 54.5zM127 60q17 0 57 39t79 93l38 183q-73 -6 -132 -90t-59 -183q0 -42 17 -42z" />
    <glyph glyph-name="Cacute" unicode="&#x106;" horiz-adv-x="598" 
d="M342 -10q-124 0 -207.5 73.5t-83.5 207.5q0 164 116.5 282.5t278.5 118.5q98 0 167 -24l-23 -131h-6q-60 109 -149 109q-104 0 -185 -102.5t-81 -250.5q0 -104 51 -170.5t125 -66.5q40 0 80 19t58 35t43 41l2 2l2 2l2 2h6l-21 -122q-68 -25 -175 -25zM328 703l-4 9
l200 132l35 -82z" />
    <glyph glyph-name="cacute" unicode="&#x107;" horiz-adv-x="348" 
d="M205 490l-8 5l123 218l69 -57zM262 432q59 0 100 -15l-34 -94h-5q-48 69 -75 69q-42 0 -86 -77t-44 -171q0 -44 12 -67t30 -23q47 0 133 86l10 -7q-31 -60 -78.5 -101.5t-102.5 -41.5q-41 0 -72.5 39t-31.5 104q0 120 75 209.5t169 89.5z" />
    <glyph glyph-name="Ccircumflex" unicode="&#x108;" horiz-adv-x="598" 
d="M442 842l102 -135l-5 -6l-106 53l-138 -53l-5 6zM342 -10q-124 0 -207.5 73.5t-83.5 207.5q0 164 116.5 282.5t278.5 118.5q98 0 167 -24l-23 -131h-6q-60 109 -149 109q-104 0 -185 -102.5t-81 -250.5q0 -104 51 -170.5t125 -66.5q40 0 80 19t58 35t43 41l2 2l2 2l2 2h6
l-21 -122q-68 -25 -175 -25z" />
    <glyph glyph-name="ccircumflex" unicode="&#x109;" horiz-adv-x="348" 
d="M289 709l59 -224l-9 -3l-69 103l-117 -103l-7 5zM262 432q59 0 100 -15l-34 -94h-5q-48 69 -75 69q-42 0 -86 -77t-44 -171q0 -44 12 -67t30 -23q47 0 133 86l10 -7q-31 -60 -78.5 -101.5t-102.5 -41.5q-41 0 -72.5 39t-31.5 104q0 120 75 209.5t169 89.5z" />
    <glyph glyph-name="Cdotaccent" unicode="&#x10a;" horiz-adv-x="598" 
d="M342 -10q-124 0 -207.5 73.5t-83.5 207.5q0 164 116.5 282.5t278.5 118.5q98 0 167 -24l-23 -131h-6q-60 109 -149 109q-104 0 -185 -102.5t-81 -250.5q0 -104 51 -170.5t125 -66.5q40 0 80 19t58 35t43 41l2 2l2 2l2 2h6l-21 -122q-68 -25 -175 -25zM430 822
q24 0 39.5 -15.5t15.5 -38.5t-15.5 -38.5t-39.5 -15.5q-23 0 -38.5 15.5t-15.5 38.5t15.5 38.5t38.5 15.5z" />
    <glyph glyph-name="cdotaccent" unicode="&#x10b;" horiz-adv-x="348" 
d="M262 432q59 0 100 -15l-34 -94h-5q-48 69 -75 69q-42 0 -86 -77t-44 -171q0 -44 12 -67t30 -23q47 0 133 86l10 -7q-31 -60 -78.5 -101.5t-102.5 -41.5q-41 0 -72.5 39t-31.5 104q0 120 75 209.5t169 89.5zM259 633q24 0 39.5 -15.5t15.5 -38.5t-15.5 -38.5t-39.5 -15.5
q-23 0 -38.5 15.5t-15.5 38.5t15.5 38.5t38.5 15.5z" />
    <glyph glyph-name="Ccaron" unicode="&#x10c;" horiz-adv-x="598" 
d="M425 697l-102 135l5 6l106 -54l138 54l5 -7zM342 -10q-124 0 -207.5 73.5t-83.5 207.5q0 164 116.5 282.5t278.5 118.5q98 0 167 -24l-23 -131h-6q-60 109 -149 109q-104 0 -185 -102.5t-81 -250.5q0 -104 51 -170.5t125 -66.5q40 0 80 19t58 35t43 41l2 2l2 2l2 2h6
l-21 -122q-68 -25 -175 -25z" />
    <glyph glyph-name="ccaron" unicode="&#x10d;" horiz-adv-x="348" 
d="M235 481l-58 224l8 4l70 -104l116 104l8 -6zM262 432q59 0 100 -15l-34 -94h-5q-48 69 -75 69q-42 0 -86 -77t-44 -171q0 -44 12 -67t30 -23q47 0 133 86l10 -7q-31 -60 -78.5 -101.5t-102.5 -41.5q-41 0 -72.5 39t-31.5 104q0 120 75 209.5t169 89.5z" />
    <glyph glyph-name="Dcaron" unicode="&#x10e;" horiz-adv-x="653" 
d="M380 697l-102 135l5 6l106 -54l138 54l5 -7zM-9 0l1 6l73 51l92 548l-56 51l1 6h231q133 0 221.5 -74t88.5 -208q0 -69 -24.5 -136t-69.5 -122t-115 -88.5t-154 -33.5h-289zM267 621l-94 -563q46 -17 106 -17q103 0 175.5 94.5t72.5 233.5q0 125 -61 188.5t-152 63.5h-47
z" />
    <glyph glyph-name="dcaron" unicode="&#x10f;" horiz-adv-x="447" 
d="M485 504l60 211h81l-132 -211h-9zM18 118q0 126 85 217.5t209 91.5h17l42 207l-61 35v7q160 46 175 49l-135 -664l58 -38l-1 -5q-53 -12 -165 -27l28 141q-105 -143 -166 -143q-32 0 -59 33t-27 96zM319 375q-13 13 -40 13q-60 0 -109.5 -81t-49.5 -182q0 -29 7 -47.5
t18 -18.5q36 0 136 127z" />
    <glyph glyph-name="Dcroat" unicode="&#x110;" horiz-adv-x="653" 
d="M333 662q133 0 221.5 -74t88.5 -208q0 -69 -24.5 -136t-69.5 -122t-115 -88.5t-154 -33.5h-289l1 6l74 51l43 259h-75l8 42h74l41 247l-56 51l1 6h231zM216 316l-43 -258q46 -17 106 -17q103 0 175.5 94.5t72.5 233.5q0 125 -61 188.5t-152 63.5h-47l-44 -263h166l-7 -42
h-166z" />
    <glyph glyph-name="dcroat" unicode="&#x111;" horiz-adv-x="447" 
d="M513 526h-300l9 37h300zM18 118q0 126 85 217.5t209 91.5h17l42 207l-61 35v7q160 46 175 49l-135 -664l58 -38l-1 -5q-53 -12 -165 -27l28 141q-105 -143 -166 -143q-32 0 -59 33t-27 96zM319 375q-13 13 -40 13q-60 0 -109.5 -81t-49.5 -182q0 -29 7 -47.5t18 -18.5
q36 0 136 127z" />
    <glyph glyph-name="Emacron" unicode="&#x112;" horiz-adv-x="491" 
d="M-9 0l1 6l73 51l91 548l-56 51l1 6h402l-22 -132h-7l-51 88h-157l-42 -246h162l61 71h6l-31 -184h-6l-36 70h-163l-47 -284h172l91 110h7l-26 -155h-423zM457 778l-11 -58h-235l11 58h235z" />
    <glyph glyph-name="emacron" unicode="&#x113;" horiz-adv-x="355" 
d="M129 -10q-43 0 -77 34.5t-34 101.5q0 120 80.5 213t174.5 93q41 0 63 -13.5t22 -33.5q0 -10 -5 -22t-20 -28.5t-38.5 -31.5t-65.5 -28.5t-95 -21.5q-16 -48 -16 -112q0 -42 14.5 -64.5t37.5 -22.5q53 0 135 86l10 -8q-76 -142 -186 -142zM253 399q-25 0 -56.5 -32.5
t-52.5 -86.5q59 15 95 43t36 56q0 20 -22 20zM154 584h206l-12 -57h-206z" />
    <glyph glyph-name="Ebreve" unicode="&#x114;" horiz-adv-x="491" 
d="M-9 0l1 6l73 51l91 548l-56 51l1 6h402l-22 -132h-7l-51 88h-157l-42 -246h162l61 71h6l-31 -184h-6l-36 70h-163l-47 -284h172l91 110h7l-26 -155h-423zM451 833q-12 -58 -43.5 -92t-80.5 -34q-50 0 -72.5 38t-15.5 88l7 1q13 -61 85 -61q69 0 113 61z" />
    <glyph glyph-name="ebreve" unicode="&#x115;" horiz-adv-x="355" 
d="M129 -10q-43 0 -77 34.5t-34 101.5q0 120 80.5 213t174.5 93q41 0 63 -13.5t22 -33.5q0 -10 -5 -22t-20 -28.5t-38.5 -31.5t-65.5 -28.5t-95 -21.5q-16 -48 -16 -112q0 -42 14.5 -64.5t37.5 -22.5q53 0 135 86l10 -8q-76 -142 -186 -142zM253 399q-25 0 -56.5 -32.5
t-52.5 -86.5q59 15 95 43t36 56q0 20 -22 20zM356 635q-9 -61 -39 -96.5t-77 -35.5q-49 0 -69 39.5t-11 92.5l8 1q13 -67 75 -67q33 0 61 19t44 48z" />
    <glyph glyph-name="Edotaccent" unicode="&#x116;" horiz-adv-x="491" 
d="M333 822q24 0 39.5 -15.5t15.5 -38.5t-15.5 -38.5t-39.5 -15.5q-23 0 -38.5 15.5t-15.5 38.5t15.5 38.5t38.5 15.5zM-9 0l1 6l73 51l91 548l-56 51l1 6h402l-22 -132h-7l-51 88h-157l-42 -246h162l61 71h6l-31 -184h-6l-36 70h-163l-47 -284h172l91 110h7l-26 -155h-423z
" />
    <glyph glyph-name="edotaccent" unicode="&#x117;" horiz-adv-x="355" 
d="M129 -10q-43 0 -77 34.5t-34 101.5q0 120 80.5 213t174.5 93q41 0 63 -13.5t22 -33.5q0 -10 -5 -22t-20 -28.5t-38.5 -31.5t-65.5 -28.5t-95 -21.5q-16 -48 -16 -112q0 -42 14.5 -64.5t37.5 -22.5q53 0 135 86l10 -8q-76 -142 -186 -142zM253 399q-25 0 -56.5 -32.5
t-52.5 -86.5q59 15 95 43t36 56q0 20 -22 20zM256 633q24 0 39.5 -15.5t15.5 -38.5t-15.5 -38.5t-39.5 -15.5q-23 0 -38.5 15.5t-15.5 38.5t15.5 38.5t38.5 15.5z" />
    <glyph glyph-name="Eogonek" unicode="&#x118;" horiz-adv-x="491" 
d="M244 -266q-38 0 -61 21.5t-23 54.5q0 86 157 190h27q-95 -101 -95 -164q0 -46 43 -46q38 0 78 30l5 -4q-6 -11 -15.5 -23t-25.5 -26.5t-39.5 -23.5t-50.5 -9zM-9 0l1 6l73 51l91 548l-56 51l1 6h402l-22 -132h-7l-51 88h-157l-42 -246h162l61 71h6l-31 -184h-6l-36 70
h-163l-47 -284h172l91 110h7l-26 -155h-423z" />
    <glyph glyph-name="eogonek" unicode="&#x119;" horiz-adv-x="355" 
d="M22 -190q0 49 41 93.5t113 94.5q-24 -8 -47 -8q-43 0 -77 34.5t-34 101.5q0 120 80.5 213t174.5 93q41 0 63 -13.5t22 -33.5q0 -10 -5 -22t-20 -28.5t-38.5 -31.5t-65.5 -28.5t-95 -21.5q-16 -48 -16 -112q0 -42 14.5 -64.5t37.5 -22.5q53 0 135 86l10 -8
q-7 -14 -15.5 -27t-13.5 -20.5t-18 -22t-15.5 -17t-19.5 -20t-18 -18.5q-44 -42 -74 -88t-30 -82q0 -21 11.5 -34t32.5 -13q37 0 77 30l5 -4q-9 -17 -22.5 -33t-43.5 -32.5t-65 -16.5q-38 0 -61 21.5t-23 54.5zM253 399q-25 0 -56.5 -32.5t-52.5 -86.5q59 15 95 43t36 56
q0 20 -22 20z" />
    <glyph glyph-name="Ecaron" unicode="&#x11a;" horiz-adv-x="491" 
d="M322 697l-102 135l5 6l106 -54l138 54l5 -7zM-9 0l1 6l73 51l91 548l-56 51l1 6h402l-22 -132h-7l-51 88h-157l-42 -246h162l61 71h6l-31 -184h-6l-36 70h-163l-47 -284h172l91 110h7l-26 -155h-423z" />
    <glyph glyph-name="ecaron" unicode="&#x11b;" horiz-adv-x="355" 
d="M238 481l-58 224l8 4l70 -104l116 104l8 -6zM129 -10q-43 0 -77 34.5t-34 101.5q0 120 80.5 213t174.5 93q41 0 63 -13.5t22 -33.5q0 -10 -5 -22t-20 -28.5t-38.5 -31.5t-65.5 -28.5t-95 -21.5q-16 -48 -16 -112q0 -42 14.5 -64.5t37.5 -22.5q53 0 135 86l10 -8
q-76 -142 -186 -142zM253 399q-25 0 -56.5 -32.5t-52.5 -86.5q59 15 95 43t36 56q0 20 -22 20z" />
    <glyph glyph-name="Gcircumflex" unicode="&#x11c;" horiz-adv-x="646" 
d="M451 842l102 -135l-5 -6l-106 53l-138 -53l-5 6zM538 20q-9 -1 -42.5 -9.5t-70 -14.5t-68.5 -6q-135 0 -220.5 75.5t-85.5 202.5q0 165 116.5 284.5t276.5 119.5q105 0 178 -25l-23 -129h-6q-69 108 -159 108q-105 0 -185 -104.5t-80 -248.5q0 -109 54 -172.5t140 -63.5
q43 0 75 14l39 235l-66 52l1 6h234l-1 -6l-65 -54z" />
    <glyph glyph-name="gcircumflex" unicode="&#x11d;" horiz-adv-x="391" 
d="M268 709l59 -224l-9 -3l-69 103l-117 -103l-7 5zM39 258q0 72 56 123t123 51q27 0 55 -11h149l-18 -45h-82q23 -25 23 -61q0 -75 -56 -125t-120 -50q-10 0 -13 1q-34 -27 -34 -45q0 -17 43 -40q29 -17 74 -40.5t61 -32.5q55 -31 74 -52.5t19 -42.5q0 -61 -76 -103
t-163 -42q-102 0 -167.5 30t-65.5 65q0 14 13.5 32.5t58 48.5t113.5 60q-1 0 -1 1q-69 38 -69 75q0 18 23.5 43t64.5 49q-37 12 -61 42t-24 69zM250 -94q-16 9 -54 27.5t-61 30.5q-57 -28 -87 -56.5t-30 -49.5q0 -32 43 -52t109 -20q45 0 79 12.5t48 27t14 25.5t-12 23
t-49 32zM215 400q-31 0 -57 -45t-26 -103q0 -40 12.5 -59.5t26.5 -19.5q30 0 55.5 47.5t25.5 104.5q0 39 -11 57t-26 18z" />
    <glyph glyph-name="Gbreve" unicode="&#x11e;" horiz-adv-x="646" 
d="M549 833q-12 -58 -43.5 -92t-80.5 -34q-50 0 -72.5 38t-15.5 88l7 1q13 -61 85 -61q69 0 113 61zM538 20q-9 -1 -42.5 -9.5t-70 -14.5t-68.5 -6q-135 0 -220.5 75.5t-85.5 202.5q0 165 116.5 284.5t276.5 119.5q105 0 178 -25l-23 -129h-6q-69 108 -159 108
q-105 0 -185 -104.5t-80 -248.5q0 -109 54 -172.5t140 -63.5q43 0 75 14l39 235l-66 52l1 6h234l-1 -6l-65 -54z" />
    <glyph glyph-name="gbreve" unicode="&#x11f;" horiz-adv-x="391" 
d="M39 258q0 72 56 123t123 51q27 0 55 -11h149l-18 -45h-82q23 -25 23 -61q0 -75 -56 -125t-120 -50q-10 0 -13 1q-34 -27 -34 -45q0 -17 43 -40q29 -17 74 -40.5t61 -32.5q55 -31 74 -52.5t19 -42.5q0 -61 -76 -103t-163 -42q-102 0 -167.5 30t-65.5 65q0 14 13.5 32.5
t58 48.5t113.5 60q-1 0 -1 1q-69 38 -69 75q0 18 23.5 43t64.5 49q-37 12 -61 42t-24 69zM250 -94q-16 9 -54 27.5t-61 30.5q-57 -28 -87 -56.5t-30 -49.5q0 -32 43 -52t109 -20q45 0 79 12.5t48 27t14 25.5t-12 23t-49 32zM215 400q-31 0 -57 -45t-26 -103
q0 -40 12.5 -59.5t26.5 -19.5q30 0 55.5 47.5t25.5 104.5q0 39 -11 57t-26 18zM343 635q-9 -61 -39 -96.5t-77 -35.5q-49 0 -69 39.5t-11 92.5l8 1q13 -67 75 -67q33 0 61 19t44 48z" />
    <glyph glyph-name="Gdotaccent" unicode="&#x120;" horiz-adv-x="646" 
d="M434 822q24 0 39.5 -15.5t15.5 -38.5t-15.5 -38.5t-39.5 -15.5q-23 0 -38.5 15.5t-15.5 38.5t15.5 38.5t38.5 15.5zM538 20q-9 -1 -42.5 -9.5t-70 -14.5t-68.5 -6q-135 0 -220.5 75.5t-85.5 202.5q0 165 116.5 284.5t276.5 119.5q105 0 178 -25l-23 -129h-6
q-69 108 -159 108q-105 0 -185 -104.5t-80 -248.5q0 -109 54 -172.5t140 -63.5q43 0 75 14l39 235l-66 52l1 6h234l-1 -6l-65 -54z" />
    <glyph glyph-name="gdotaccent" unicode="&#x121;" horiz-adv-x="391" 
d="M39 258q0 72 56 123t123 51q27 0 55 -11h149l-18 -45h-82q23 -25 23 -61q0 -75 -56 -125t-120 -50q-10 0 -13 1q-34 -27 -34 -45q0 -17 43 -40q29 -17 74 -40.5t61 -32.5q55 -31 74 -52.5t19 -42.5q0 -61 -76 -103t-163 -42q-102 0 -167.5 30t-65.5 65q0 14 13.5 32.5
t58 48.5t113.5 60q-1 0 -1 1q-69 38 -69 75q0 18 23.5 43t64.5 49q-37 12 -61 42t-24 69zM250 -94q-16 9 -54 27.5t-61 30.5q-57 -28 -87 -56.5t-30 -49.5q0 -32 43 -52t109 -20q45 0 79 12.5t48 27t14 25.5t-12 23t-49 32zM215 400q-31 0 -57 -45t-26 -103
q0 -40 12.5 -59.5t26.5 -19.5q30 0 55.5 47.5t25.5 104.5q0 39 -11 57t-26 18zM242 633q24 0 39.5 -15.5t15.5 -38.5t-15.5 -38.5t-39.5 -15.5q-23 0 -38.5 15.5t-15.5 38.5t15.5 38.5t38.5 15.5z" />
    <glyph glyph-name="Gcommaaccent" unicode="&#x122;" horiz-adv-x="646" 
d="M344 -124q0 -43 -34 -86t-83 -68l-10 5q58 70 76 118q-21 -2 -35 9.5t-14 31.5t13 33t34 13q24 0 38.5 -15t14.5 -41zM538 20q-9 -1 -42.5 -9.5t-70 -14.5t-68.5 -6q-135 0 -220.5 75.5t-85.5 202.5q0 165 116.5 284.5t276.5 119.5q105 0 178 -25l-23 -129h-6
q-69 108 -159 108q-105 0 -185 -104.5t-80 -248.5q0 -109 54 -172.5t140 -63.5q43 0 75 14l39 235l-66 52l1 6h234l-1 -6l-65 -54z" />
    <glyph glyph-name="gcommaaccent" unicode="&#x123;" horiz-adv-x="391" 
d="M179 553q0 43 34 86t83 68l10 -5q-58 -70 -76 -118q21 2 35 -9.5t14 -31.5t-13 -33t-34 -13q-24 0 -38.5 15t-14.5 41zM39 258q0 72 56 123t123 51q27 0 55 -11h149l-18 -45h-82q23 -25 23 -61q0 -75 -56 -125t-120 -50q-10 0 -13 1q-34 -27 -34 -45q0 -17 43 -40
q29 -17 74 -40.5t61 -32.5q55 -31 74 -52.5t19 -42.5q0 -61 -76 -103t-163 -42q-102 0 -167.5 30t-65.5 65q0 14 13.5 32.5t58 48.5t113.5 60q-1 0 -1 1q-69 38 -69 75q0 18 23.5 43t64.5 49q-37 12 -61 42t-24 69zM250 -94q-16 9 -54 27.5t-61 30.5q-57 -28 -87 -56.5
t-30 -49.5q0 -32 43 -52t109 -20q45 0 79 12.5t48 27t14 25.5t-12 23t-49 32zM215 400q-31 0 -57 -45t-26 -103q0 -40 12.5 -59.5t26.5 -19.5q30 0 55.5 47.5t25.5 104.5q0 39 -11 57t-26 18z" />
    <glyph glyph-name="Hcircumflex" unicode="&#x124;" horiz-adv-x="688" 
d="M223 359h290l41 246l-56 51l1 6h237l-1 -6l-73 -51l-91 -548l56 -51l-1 -6h-238l1 6l74 51l43 258h-290l-43 -258l56 -51l-1 -6h-237l1 6l73 51l92 548l-57 51l2 6h237l-1 -6l-74 -51zM446 842l102 -135l-5 -6l-106 53l-138 -53l-5 6z" />
    <glyph glyph-name="hcircumflex" unicode="&#x125;" horiz-adv-x="459" 
d="M85 670l1 6q85 28 174 49l-94 -450q129 157 212 157q24 0 38.5 -13t10.5 -37q0 -8 -11 -58.5t-29.5 -131.5t-29.5 -131l56 -37v-6q-52 -11 -168 -27q78 331 78 347q2 12 -10 12q-39 0 -158 -127l-46 -223h-95l132 634zM352 881l102 -135l-5 -6l-106 53l-138 -53l-5 6z
" />
    <glyph glyph-name="Hbar" unicode="&#x126;" horiz-adv-x="688" 
d="M59 469l8 41h652l-7 -41h-653zM223 359h290l41 246l-56 51l1 6h237l-1 -6l-73 -51l-91 -548l56 -51l-1 -6h-238l1 6l74 51l43 258h-290l-43 -258l56 -51l-1 -6h-237l1 6l73 51l92 548l-57 51l2 6h237l-1 -6l-74 -51z" />
    <glyph glyph-name="hbar" unicode="&#x127;" horiz-adv-x="459" 
d="M344 526h-292l8 37h293zM85 670l1 6q85 28 174 49l-94 -450q129 157 212 157q24 0 38.5 -13t10.5 -37q0 -8 -11 -58.5t-29.5 -131.5t-29.5 -131l56 -37v-6q-52 -11 -168 -27q78 331 78 347q2 12 -10 12q-39 0 -158 -127l-46 -223h-95l132 634z" />
    <glyph glyph-name="Itilde" unicode="&#x128;" horiz-adv-x="292" 
d="M-9 0l1 6l73 51l92 548l-56 51l1 6h237l-1 -6l-74 -51l-91 -548l56 -51l-1 -6h-237zM191 813q12 0 57 -11.5t57 -11.5q13 0 34 16t37 34l6 -3q-15 -45 -39.5 -79t-47.5 -34q-16 0 -60.5 11.5t-53.5 11.5q-22 0 -74 -52l-6 3q16 44 42 79.5t48 35.5z" />
    <glyph glyph-name="itilde" unicode="&#x129;" horiz-adv-x="234" 
d="M95 344l-54 34l1 7q137 44 164 50l-71 -374l58 -38v-5q-57 -12 -167 -27zM133 617q11 0 49.5 -14.5t50.5 -14.5q11 0 31 17.5t37 39.5l7 -3q-12 -48 -37.5 -83.5t-46.5 -35.5q-15 0 -53 14t-47 14q-21 0 -71 -56l-7 3q16 48 41.5 83.5t45.5 35.5z" />
    <glyph glyph-name="Imacron" unicode="&#x12a;" horiz-adv-x="292" 
d="M-9 0l1 6l73 51l92 548l-56 51l1 6h237l-1 -6l-74 -51l-91 -548l56 -51l-1 -6h-237zM354 778l-11 -58h-235l11 58h235z" />
    <glyph glyph-name="imacron" unicode="&#x12b;" horiz-adv-x="234" 
d="M95 344l-54 34l1 7q137 44 164 50l-71 -374l58 -38v-5q-57 -12 -167 -27zM76 584h206l-12 -57h-206z" />
    <glyph glyph-name="Ibreve" unicode="&#x12c;" horiz-adv-x="292" 
d="M-9 0l1 6l73 51l92 548l-56 51l1 6h237l-1 -6l-74 -51l-91 -548l56 -51l-1 -6h-237zM351 833q-12 -58 -43.5 -92t-80.5 -34q-50 0 -72.5 38t-15.5 88l7 1q13 -61 85 -61q69 0 113 61z" />
    <glyph glyph-name="ibreve" unicode="&#x12d;" horiz-adv-x="234" 
d="M95 344l-54 34l1 7q137 44 164 50l-71 -374l58 -38v-5q-57 -12 -167 -27zM284 635q-9 -61 -39 -96.5t-77 -35.5q-49 0 -69 39.5t-11 92.5l8 1q13 -67 75 -67q33 0 61 19t44 48z" />
    <glyph glyph-name="Iogonek" unicode="&#x12e;" horiz-adv-x="292" 
d="M88 -266q-38 0 -61 22t-23 56q0 81 132 188h27q-70 -100 -70 -161q0 -22 11 -35.5t32 -13.5q37 0 77 30l5 -4q-46 -82 -130 -82zM-9 0l1 6l73 51l92 548l-56 51l1 6h237l-1 -6l-74 -51l-91 -548l56 -51l-1 -6h-237z" />
    <glyph glyph-name="iogonek" unicode="&#x12f;" horiz-adv-x="234" 
d="M180 633q24 0 39.5 -15.5t15.5 -38.5t-15.5 -38.5t-39.5 -15.5q-23 0 -38.5 15.5t-15.5 38.5t15.5 38.5t38.5 15.5zM-39 -266q-38 0 -61 21.5t-23 54.5q0 93 151 190l67 344l-54 34l1 7q137 44 164 50l-71 -374l58 -38v-5q-63 -14 -145 -24q-82 -92 -82 -158
q0 -46 43 -46q39 0 77 30l5 -4q-6 -12 -15.5 -23.5t-25 -26t-39 -23.5t-50.5 -9z" />
    <glyph glyph-name="Idotaccent" unicode="&#x130;" horiz-adv-x="292" 
d="M-9 0l1 6l73 51l92 548l-56 51l1 6h237l-1 -6l-74 -51l-91 -548l56 -51l-1 -6h-237zM231 822q24 0 39.5 -15.5t15.5 -38.5t-15.5 -38.5t-39.5 -15.5q-23 0 -38.5 15.5t-15.5 38.5t15.5 38.5t38.5 15.5z" />
    <glyph glyph-name="dotlessi" unicode="&#x131;" horiz-adv-x="234" 
d="M95 344l-54 34l1 7q137 44 164 50l-71 -374l58 -38v-5q-57 -12 -167 -27z" />
    <glyph glyph-name="IJ" unicode="&#x132;" horiz-adv-x="578" 
d="M-9 0l1 6l73 51l92 548l-56 51l1 6h237l-1 -6l-74 -51l-91 -548l56 -51l-1 -6h-237zM469 100q-13 -77 -71.5 -163t-157.5 -156l-9 7q100 143 137 356l77 461l-57 51l1 6h238l-1 -6l-73 -51z" />
    <glyph glyph-name="ij" unicode="&#x133;" horiz-adv-x="456" 
d="M95 344l-54 34l1 7q137 44 164 50l-71 -374l58 -38v-5q-57 -12 -167 -27zM180 633q24 0 39.5 -15.5t15.5 -38.5t-15.5 -38.5t-39.5 -15.5q-23 0 -38.5 15.5t-15.5 38.5t15.5 38.5t38.5 15.5zM412 633q24 0 39.5 -15.5t15.5 -38.5t-15.5 -38.5t-39.5 -15.5
q-23 0 -38.5 15.5t-15.5 38.5t15.5 38.5t38.5 15.5zM358 23q-12 -62 -64.5 -137t-122.5 -136l-8 4q78 155 104 290l59 300l-54 34l1 7q108 36 165 50z" />
    <glyph glyph-name="Jcircumflex" unicode="&#x134;" horiz-adv-x="286" 
d="M244 842l102 -135l-5 -6l-106 53l-138 -53l-5 6zM178 100q-13 -77 -71.5 -163t-157.5 -156l-9 7q100 143 137 356l77 461l-57 51l1 6h238l-1 -6l-73 -51z" />
    <glyph glyph-name="jcircumflex" unicode="&#x135;" horiz-adv-x="222" 
d="M125 23q-12 -62 -64.5 -137t-122.5 -136l-8 4q78 155 104 290l59 300l-54 34v7q124 40 166 50zM194 709l59 -224l-9 -3l-69 103l-117 -103l-7 5z" />
    <glyph glyph-name="Kcommaaccent" unicode="&#x136;" horiz-adv-x="606" 
d="M324 -124q0 -43 -34 -86t-83 -68l-10 5q58 70 76 118q-21 -2 -35 9.5t-14 31.5t13 33t34 13q24 0 38.5 -15t14.5 -41zM-9 0v6l74 51l92 548l-56 52l1 5h237l-1 -5l-74 -52l-91 -548l56 -51l-1 -6h-237zM322 0l1 6l74 51l-136 273h-31l257 275l-55 51l1 6h206l-1 -6
l-87 -48l-203 -214l165 -337l58 -51l-1 -6h-248z" />
    <glyph glyph-name="kcommaaccent" unicode="&#x137;" horiz-adv-x="403" 
d="M226 -124q0 -43 -34 -86t-83 -68l-10 5q58 70 76 118q-21 -2 -35 9.5t-14 31.5t13 33t34 13q24 0 38.5 -15t14.5 -41zM143 635l-61 35l1 6q138 41 173 49l-146 -725h-95zM167 203q121 115 121 156q0 17 -18 35l1 5l97 34q20 -23 20 -47q0 -27 -30 -59t-111 -92
q86 -165 138 -239l-1 -5q-36 1 -51 2.5t-35 7t-30 17t-24.5 31.5t-30 52t-37.5 76q-6 14 -10 21z" />
    <glyph glyph-name="Lacute" unicode="&#x139;" horiz-adv-x="505" 
d="M135 703l-4 9l200 132l35 -82zM171 45h173l117 137h7l-31 -182h-447l1 6l74 51l92 548l-56 51l1 6h236l-1 -6l-73 -51z" />
    <glyph glyph-name="lacute" unicode="&#x13a;" horiz-adv-x="230" 
d="M102 727l-4 9l200 132l35 -82zM147 634l-62 36l1 6q102 33 175 49l-134 -664l59 -38l-1 -5q-58 -13 -168 -27z" />
    <glyph glyph-name="Lcommaaccent" unicode="&#x13b;" horiz-adv-x="505" 
d="M275 -124q0 -43 -34 -86t-83 -68l-10 5q58 70 76 118q-21 -2 -35 9.5t-14 31.5t13 33t34 13q24 0 38.5 -15t14.5 -41zM171 45h173l117 137h7l-31 -182h-447l1 6l74 51l92 548l-56 51l1 6h236l-1 -6l-73 -51z" />
    <glyph glyph-name="lcommaaccent" unicode="&#x13c;" horiz-adv-x="230" 
d="M104 -124q0 -43 -34 -86t-83 -68l-10 5q58 70 76 118q-21 -2 -35 9.5t-14 31.5t13 33t34 13q24 0 38.5 -15t14.5 -41zM147 634l-62 36l1 6q102 33 175 49l-134 -664l59 -38l-1 -5q-58 -13 -168 -27z" />
    <glyph glyph-name="Lcaron" unicode="&#x13d;" horiz-adv-x="505" 
d="M339 504l60 211h81l-132 -211h-9zM171 45h173l117 137h7l-31 -182h-447l1 6l74 51l92 548l-56 51l1 6h236l-1 -6l-73 -51z" />
    <glyph glyph-name="lcaron" unicode="&#x13e;" horiz-adv-x="230" 
d="M260 504l60 211h81l-132 -211h-9zM147 634l-62 36l1 6q102 33 175 49l-134 -664l59 -38l-1 -5q-58 -13 -168 -27z" />
    <glyph glyph-name="Ldot" unicode="&#x13f;" horiz-adv-x="505" 
d="M450 415q25 0 41.5 -16t16.5 -41t-16.5 -41.5t-41.5 -16.5q-26 0 -42 16.5t-16 41.5t16 41t42 16zM171 45h173l117 137h7l-31 -182h-447l1 6l74 51l92 548l-56 51l1 6h236l-1 -6l-73 -51z" />
    <glyph glyph-name="ldot" unicode="&#x140;" horiz-adv-x="346" 
d="M310 398q26 0 42 -16t16 -41t-16 -41.5t-42 -16.5t-41.5 16.5t-15.5 41.5t15.5 41t41.5 16zM147 634l-62 36l1 6q102 33 175 49l-134 -664l59 -38l-1 -5q-58 -13 -168 -27z" />
    <glyph glyph-name="Lslash" unicode="&#x141;" horiz-adv-x="505" 
d="M171 45h173l117 137h7l-31 -182h-447l1 6l74 51l26 157l-85 -46l9 49l85 47l57 341l-56 51l1 6h236l-1 -6l-73 -51l-46 -276l194 107l-9 -51l-193 -106z" />
    <glyph glyph-name="lslash" unicode="&#x142;" horiz-adv-x="237" 
d="M150 634l-62 36l1 6q102 33 175 49l-68 -336l73 44l-10 -53l-74 -43l-55 -276l59 -38l-1 -5q-58 -13 -168 -27l57 283l-74 -43l10 50l75 44z" />
    <glyph glyph-name="Nacute" unicode="&#x143;" horiz-adv-x="664" 
d="M316 703l-4 9l200 132l35 -82zM500 0l-307 507l-74 -447l71 -54l-1 -6h-205l2 6l79 54l86 514q-14 23 -57 83l1 5h130l291 -489l72 429l-70 55l1 5h202l-1 -5l-79 -55l-99 -602h-42z" />
    <glyph glyph-name="nacute" unicode="&#x144;" horiz-adv-x="468" 
d="M253 490l-8 5l123 218l69 -57zM24 0l70 345l-53 33v7q113 38 168 50l-34 -161q131 158 212 158q25 0 39.5 -13t9.5 -37q0 -14 -70 -321l56 -36v-7q-47 -11 -167 -27q77 344 77 348q2 11 -10 11q-39 0 -158 -128l-46 -222h-94z" />
    <glyph glyph-name="Ncommaaccent" unicode="&#x145;" horiz-adv-x="664" 
d="M337 -124q0 -43 -34 -86t-83 -68l-10 5q58 70 76 118q-21 -2 -35 9.5t-14 31.5t13 33t34 13q24 0 38.5 -15t14.5 -41zM500 0l-307 507l-74 -447l71 -54l-1 -6h-205l2 6l79 54l86 514q-14 23 -57 83l1 5h130l291 -489l72 429l-70 55l1 5h202l-1 -5l-79 -55l-99 -602h-42z
" />
    <glyph glyph-name="ncommaaccent" unicode="&#x146;" horiz-adv-x="468" 
d="M220 -124q0 -43 -34 -86t-83 -68l-10 5q58 70 76 118q-21 -2 -35 9.5t-14 31.5t13 33t34 13q24 0 38.5 -15t14.5 -41zM24 0l70 345l-53 33v7q113 38 168 50l-34 -161q131 158 212 158q25 0 39.5 -13t9.5 -37q0 -14 -70 -321l56 -36v-7q-47 -11 -167 -27q77 344 77 348
q2 11 -10 11q-39 0 -158 -128l-46 -222h-94z" />
    <glyph glyph-name="Ncaron" unicode="&#x147;" horiz-adv-x="664" 
d="M407 697l-102 135l5 6l106 -54l138 54l5 -7zM500 0l-307 507l-74 -447l71 -54l-1 -6h-205l2 6l79 54l86 514q-14 23 -57 83l1 5h130l291 -489l72 429l-70 55l1 5h202l-1 -5l-79 -55l-99 -602h-42z" />
    <glyph glyph-name="ncaron" unicode="&#x148;" horiz-adv-x="468" 
d="M281 481l-58 224l8 4l70 -104l116 104l8 -6zM24 0l70 345l-53 33v7q113 38 168 50l-34 -161q131 158 212 158q25 0 39.5 -13t9.5 -37q0 -14 -70 -321l56 -36v-7q-47 -11 -167 -27q77 344 77 348q2 11 -10 11q-39 0 -158 -128l-46 -222h-94z" />
    <glyph glyph-name="napostrophe" unicode="&#x149;" horiz-adv-x="502" 
d="M34 455q72 74 84 145q-1 -1 -2 -1h-5q-20 1 -33.5 12.5t-13.5 32.5t14.5 35t37.5 14q26 0 43 -19.5t17 -48.5q0 -51 -36.5 -98.5t-95.5 -76.5zM58 0l70 345l-53 33v7q113 38 168 50l-34 -161q131 158 212 158q25 0 39.5 -13t9.5 -37q0 -14 -70 -321l56 -36v-7
q-47 -11 -167 -27q77 344 77 348q2 11 -10 11q-39 0 -158 -128l-46 -222h-94z" />
    <glyph glyph-name="Eng" unicode="&#x14a;" horiz-adv-x="665" 
d="M-16 0l1 6l80 54l85 513q-19 30 -57 84l1 5h131l236 -396q41 -69 53 -104l73 440l-69 55l1 5h202l-1 -5l-79 -55l-86 -519q-11 -70 -58.5 -152t-133.5 -150l-9 7q96 147 96 230q0 60 -60 159q-12 21 -89 149.5t-108 179.5l-74 -446l71 -54l-1 -6h-205z" />
    <glyph glyph-name="eng" unicode="&#x14b;" horiz-adv-x="457" 
d="M24 0l70 345l-53 33v7q113 38 168 50l-34 -161q131 158 212 158q25 0 39.5 -13t9.5 -37q0 -8 -13 -66.5t-34.5 -153t-31.5 -139.5q-14 -63 -66 -137.5t-121 -135.5l-7 4q68 133 103 289q12 55 30 134.5t27 119t9 42.5q2 11 -10 11q-39 0 -158 -128l-46 -222h-94z" />
    <glyph glyph-name="Omacron" unicode="&#x14c;" horiz-adv-x="675" 
d="M547 778l-11 -58h-235l11 58h235zM404 627q-92 0 -162 -107.5t-70 -257.5q0 -104 42.5 -165t101.5 -61q90 0 160 108.5t70 264.5q0 103 -41 160.5t-101 57.5zM56 266q0 166 105 286t243 120q111 0 185 -75t74 -193q0 -173 -104.5 -293.5t-242.5 -120.5
q-111 0 -185.5 76.5t-74.5 199.5z" />
    <glyph glyph-name="omacron" unicode="&#x14d;" horiz-adv-x="421" 
d="M171 584h206l-12 -57h-206zM175 -11q-65 0 -110 46t-45 120q0 111 71 194t159 83q62 0 107 -45.5t45 -115.5q0 -120 -71 -201t-156 -81zM179 27q43 0 82.5 80t39.5 179q0 52 -15 79.5t-38 27.5q-46 0 -86 -80t-40 -172q0 -55 15 -84.5t42 -29.5z" />
    <glyph glyph-name="Obreve" unicode="&#x14e;" horiz-adv-x="675" 
d="M541 833q-12 -58 -43.5 -92t-80.5 -34q-50 0 -72.5 38t-15.5 88l7 1q13 -61 85 -61q69 0 113 61zM404 627q-92 0 -162 -107.5t-70 -257.5q0 -104 42.5 -165t101.5 -61q90 0 160 108.5t70 264.5q0 103 -41 160.5t-101 57.5zM56 266q0 166 105 286t243 120q111 0 185 -75
t74 -193q0 -173 -104.5 -293.5t-242.5 -120.5q-111 0 -185.5 76.5t-74.5 199.5z" />
    <glyph glyph-name="obreve" unicode="&#x14f;" horiz-adv-x="421" 
d="M175 -11q-65 0 -110 46t-45 120q0 111 71 194t159 83q62 0 107 -45.5t45 -115.5q0 -120 -71 -201t-156 -81zM179 27q43 0 82.5 80t39.5 179q0 52 -15 79.5t-38 27.5q-46 0 -86 -80t-40 -172q0 -55 15 -84.5t42 -29.5zM375 635q-9 -61 -39 -96.5t-77 -35.5q-49 0 -69 39.5
t-11 92.5l8 1q13 -67 75 -67q33 0 61 19t44 48z" />
    <glyph glyph-name="Ohungarumlaut" unicode="&#x150;" horiz-adv-x="675" 
d="M460 702l-6 8l145 150l49 -65zM298 702l-5 8l145 150l49 -65zM404 627q-92 0 -162 -107.5t-70 -257.5q0 -104 42.5 -165t101.5 -61q90 0 160 108.5t70 264.5q0 103 -41 160.5t-101 57.5zM56 266q0 166 105 286t243 120q111 0 185 -75t74 -193q0 -173 -104.5 -293.5
t-242.5 -120.5q-111 0 -185.5 76.5t-74.5 199.5z" />
    <glyph glyph-name="ohungarumlaut" unicode="&#x151;" horiz-adv-x="421" 
d="M297 493l88 218l66 -39l-145 -183zM179 489l-8 4l87 218l66 -39zM175 -11q-65 0 -110 46t-45 120q0 111 71 194t159 83q62 0 107 -45.5t45 -115.5q0 -120 -71 -201t-156 -81zM179 27q43 0 82.5 80t39.5 179q0 52 -15 79.5t-38 27.5q-46 0 -86 -80t-40 -172
q0 -55 15 -84.5t42 -29.5z" />
    <glyph glyph-name="OE" unicode="&#x152;" horiz-adv-x="815" 
d="M344 0q-126 0 -207 71.5t-81 195.5q0 160 113.5 277.5t275.5 117.5h382l-22 -132h-7l-51 88h-151l-42 -247h156l60 71h7l-31 -184h-7l-36 71h-156l-47 -284h165l92 110h7l-26 -155h-394zM393 45l95 573h-43q-113 0 -192.5 -104t-79.5 -249q0 -106 47 -163t126 -57h47z
" />
    <glyph glyph-name="oe" unicode="&#x153;" horiz-adv-x="620" 
d="M396 -10q-31 0 -56 19t-36 53q-60 -73 -135 -73q-62 0 -105.5 45t-43.5 118q0 114 72 197t157 83q41 0 74 -21.5t51 -59.5q75 81 164 81q41 0 63 -13.5t22 -33.5q0 -10 -5 -22t-20 -28.5t-38.5 -31.5t-65.5 -28.5t-95 -21.5q-16 -48 -16 -112q0 -42 14.5 -64.5
t36.5 -22.5q53 0 135 86l12 -8q-38 -70 -86.5 -106t-98.5 -36zM173 27q41 0 81 81.5t40 180.5q0 104 -48 104q-43 0 -83.5 -79.5t-40.5 -174.5q0 -53 13.5 -82.5t37.5 -29.5zM517 399q-25 0 -56 -32.5t-52 -86.5q59 15 95 43t36 56q0 20 -23 20z" />
    <glyph glyph-name="Racute" unicode="&#x154;" horiz-adv-x="559" 
d="M239 703l-4 9l200 132l35 -82zM-9 6l74 51l92 548l-56 51l1 6h221q80 0 134.5 -35.5t54.5 -104.5q0 -61 -40 -107.5t-96 -69.5q21 -67 56 -161q48 -140 107 -193l-1 -6q-38 1 -65.5 5.5t-48 16.5t-32.5 21.5t-24 33.5t-18 38.5t-18 49.5q-14 40 -54 175h-61l-44 -268
l58 -51l-1 -6h-239v6zM266 621l-42 -257h97q27 0 56.5 43.5t29.5 101.5q0 56 -28.5 84t-69.5 28h-43z" />
    <glyph glyph-name="racute" unicode="&#x155;" horiz-adv-x="340" 
d="M214 490l-8 5l123 218l69 -57zM23 0l71 344l-54 34v7q109 36 168 50l-34 -166q94 163 124 163q34 0 61 -17l-41 -104q-3 1 -13.5 6t-19.5 8.5t-16 3.5q-28 0 -106 -110l-45 -219h-95z" />
    <glyph glyph-name="Rcommaaccent" unicode="&#x156;" horiz-adv-x="559" 
d="M313 -124q0 -43 -34 -86t-83 -68l-10 5q58 70 76 118q-21 -2 -35 9.5t-14 31.5t13 33t34 13q24 0 38.5 -15t14.5 -41zM-9 6l74 51l92 548l-56 51l1 6h221q80 0 134.5 -35.5t54.5 -104.5q0 -61 -40 -107.5t-96 -69.5q21 -67 56 -161q48 -140 107 -193l-1 -6
q-38 1 -65.5 5.5t-48 16.5t-32.5 21.5t-24 33.5t-18 38.5t-18 49.5q-14 40 -54 175h-61l-44 -268l58 -51l-1 -6h-239v6zM266 621l-42 -257h97q27 0 56.5 43.5t29.5 101.5q0 56 -28.5 84t-69.5 28h-43z" />
    <glyph glyph-name="rcommaaccent" unicode="&#x157;" horiz-adv-x="340" 
d="M99 -124q0 -43 -34 -86t-83 -68l-10 5q58 70 76 118q-21 -2 -35 9.5t-14 31.5t13 33t34 13q24 0 38.5 -15t14.5 -41zM23 0l71 344l-54 34v7q109 36 168 50l-34 -166q94 163 124 163q34 0 61 -17l-41 -104q-3 1 -13.5 6t-19.5 8.5t-16 3.5q-28 0 -106 -110l-45 -219h-95z
" />
    <glyph glyph-name="Rcaron" unicode="&#x158;" horiz-adv-x="559" 
d="M329 697l-102 135l5 6l106 -54l138 54l5 -7zM-9 6l74 51l92 548l-56 51l1 6h221q80 0 134.5 -35.5t54.5 -104.5q0 -61 -40 -107.5t-96 -69.5q21 -67 56 -161q48 -140 107 -193l-1 -6q-38 1 -65.5 5.5t-48 16.5t-32.5 21.5t-24 33.5t-18 38.5t-18 49.5q-14 40 -54 175h-61
l-44 -268l58 -51l-1 -6h-239v6zM266 621l-42 -257h97q27 0 56.5 43.5t29.5 101.5q0 56 -28.5 84t-69.5 28h-43z" />
    <glyph glyph-name="rcaron" unicode="&#x159;" horiz-adv-x="340" 
d="M237 481l-58 224l8 4l70 -104l116 104l8 -6zM23 0l71 344l-54 34v7q109 36 168 50l-34 -166q94 163 124 163q34 0 61 -17l-41 -104q-3 1 -13.5 6t-19.5 8.5t-16 3.5q-28 0 -106 -110l-45 -219h-95z" />
    <glyph glyph-name="Sacute" unicode="&#x15a;" horiz-adv-x="429" 
d="M288 672q83 0 138 -22l-23 -126h-7q-46 106 -114 106q-31 0 -53 -21.5t-22 -54.5q0 -32 17.5 -66.5t62.5 -101.5q54 -82 76.5 -129.5t22.5 -92.5q0 -77 -56 -125.5t-139 -48.5q-98 0 -172 50q8 107 26 181h8q12 -92 49.5 -137.5t90.5 -45.5q41 0 66.5 28t25.5 68
q0 36 -17 72t-63 106q-55 83 -74.5 125t-19.5 86q0 70 52 109.5t125 39.5zM193 703l-4 9l200 132l35 -82z" />
    <glyph glyph-name="sacute" unicode="&#x15b;" horiz-adv-x="297" 
d="M163 490l-8 5l123 218l69 -57zM189 432q34 0 99 -17l-25 -88h-5q-39 69 -75 69q-15 0 -25.5 -10t-10.5 -28q0 -21 21 -59q12 -22 34.5 -61t29.5 -52q22 -43 22 -81q0 -43 -35.5 -79t-101.5 -36q-59 0 -113 28q4 52 19 132h6q35 -119 91 -119q23 0 35 13t12 32
q0 23 -20 61q-2 3 -61 107q-23 43 -23 80q0 43 33.5 75.5t92.5 32.5z" />
    <glyph glyph-name="Scircumflex" unicode="&#x15c;" horiz-adv-x="429" 
d="M317 842l102 -135l-5 -6l-106 53l-138 -53l-5 6zM288 672q83 0 138 -22l-23 -126h-7q-46 106 -114 106q-31 0 -53 -21.5t-22 -54.5q0 -32 17.5 -66.5t62.5 -101.5q54 -82 76.5 -129.5t22.5 -92.5q0 -77 -56 -125.5t-139 -48.5q-98 0 -172 50q8 107 26 181h8
q12 -92 49.5 -137.5t90.5 -45.5q41 0 66.5 28t25.5 68q0 36 -17 72t-63 106q-55 83 -74.5 125t-19.5 86q0 70 52 109.5t125 39.5z" />
    <glyph glyph-name="scircumflex" unicode="&#x15d;" horiz-adv-x="297" 
d="M238 709l59 -224l-9 -3l-69 103l-117 -103l-7 5zM189 432q34 0 99 -17l-25 -88h-5q-39 69 -75 69q-15 0 -25.5 -10t-10.5 -28q0 -21 21 -59q12 -22 34.5 -61t29.5 -52q22 -43 22 -81q0 -43 -35.5 -79t-101.5 -36q-59 0 -113 28q4 52 19 132h6q35 -119 91 -119q23 0 35 13
t12 32q0 23 -20 61q-2 3 -61 107q-23 43 -23 80q0 43 33.5 75.5t92.5 32.5z" />
    <glyph glyph-name="Scedilla" unicode="&#x15e;" horiz-adv-x="429" 
d="M288 672q83 0 138 -22l-23 -126h-7q-46 106 -114 106q-31 0 -53 -21.5t-22 -54.5q0 -32 17.5 -66.5t62.5 -101.5q54 -82 76.5 -129.5t22.5 -92.5q0 -77 -56 -125.5t-139 -48.5q-98 0 -172 50q8 107 26 181h8q12 -92 49.5 -137.5t90.5 -45.5q41 0 66.5 28t25.5 68
q0 36 -17 72t-63 106q-55 83 -74.5 125t-19.5 86q0 70 52 109.5t125 39.5zM195 0l-44 -69q62 -30 62 -78q0 -41 -47 -75t-133 -48l-3 8q111 59 111 101q0 26 -45 45l-1 3q27 44 35 56q7 11 16 26t14 23l5 8h30z" />
    <glyph glyph-name="scedilla" unicode="&#x15f;" horiz-adv-x="297" 
d="M189 432q34 0 99 -17l-25 -88h-5q-39 69 -75 69q-15 0 -25.5 -10t-10.5 -28q0 -21 21 -59q12 -22 34.5 -61t29.5 -52q22 -43 22 -81q0 -43 -35.5 -79t-101.5 -36q-59 0 -113 28q4 52 19 132h6q35 -119 91 -119q23 0 35 13t12 32q0 23 -20 61q-2 3 -61 107q-23 43 -23 80
q0 43 33.5 75.5t92.5 32.5zM138 0l-44 -69q62 -30 62 -78q0 -41 -47 -75t-133 -48l-3 8q111 59 111 101q0 26 -45 45l-1 3q27 44 35 56q7 11 16 26t14 23l5 8h30z" />
    <glyph glyph-name="Scaron" unicode="&#x160;" horiz-adv-x="429" 
d="M287 697l-102 135l5 6l106 -54l138 54l5 -7zM288 672q83 0 138 -22l-23 -126h-7q-46 106 -114 106q-31 0 -53 -21.5t-22 -54.5q0 -32 17.5 -66.5t62.5 -101.5q54 -82 76.5 -129.5t22.5 -92.5q0 -77 -56 -125.5t-139 -48.5q-98 0 -172 50q8 107 26 181h8
q12 -92 49.5 -137.5t90.5 -45.5q41 0 66.5 28t25.5 68q0 36 -17 72t-63 106q-55 83 -74.5 125t-19.5 86q0 70 52 109.5t125 39.5z" />
    <glyph glyph-name="scaron" unicode="&#x161;" horiz-adv-x="297" 
d="M191 481l-58 224l8 4l70 -104l116 104l8 -6zM189 432q34 0 99 -17l-25 -88h-5q-39 69 -75 69q-15 0 -25.5 -10t-10.5 -28q0 -21 21 -59q12 -22 34.5 -61t29.5 -52q22 -43 22 -81q0 -43 -35.5 -79t-101.5 -36q-59 0 -113 28q4 52 19 132h6q35 -119 91 -119q23 0 35 13
t12 32q0 23 -20 61q-2 3 -61 107q-23 43 -23 80q0 43 33.5 75.5t92.5 32.5z" />
    <glyph glyph-name="Tcommaaccent" unicode="&#x162;" horiz-adv-x="588" 
d="M293 -124q0 -43 -34 -86t-83 -68l-10 5q58 70 76 118q-21 -2 -35 9.5t-14 31.5t13 33t34 13q24 0 38.5 -15t14.5 -41zM630 662l-25 -145h-5l-56 102h-127l-94 -562l61 -51l-1 -6h-248l1 6l79 51l94 562h-124l-93 -102h-6l26 145h518z" />
    <glyph glyph-name="tcommaaccent" unicode="&#x163;" horiz-adv-x="316" 
d="M130 -124q0 -43 -34 -86t-83 -68l-10 5q58 70 76 118q-21 -2 -35 9.5t-14 31.5t13 33t34 13q24 0 38.5 -15t14.5 -41zM194 370l-55 -256q-9 -43 -9 -48q0 -14 13 -14q19 0 44.5 18.5t59.5 49.5q6 7 10 10l11 -6q-27 -52 -70 -93t-98 -41q-33 0 -52 14.5t-19 34.5
q0 2 10 56l59 275h-55v5l175 120l-16 -77h147l-40 -48h-115z" />
    <glyph glyph-name="Tcaron" unicode="&#x164;" horiz-adv-x="588" 
d="M373 697l-102 135l5 6l106 -54l138 54l5 -7zM630 662l-25 -145h-5l-56 102h-127l-94 -562l61 -51l-1 -6h-248l1 6l79 51l94 562h-124l-93 -102h-6l26 145h518z" />
    <glyph glyph-name="tcaron" unicode="&#x165;" horiz-adv-x="316" 
d="M264 504l60 211h81l-132 -211h-9zM194 370l-55 -256q-9 -43 -9 -48q0 -14 13 -14q19 0 44.5 18.5t59.5 49.5q6 7 10 10l11 -6q-27 -52 -70 -93t-98 -41q-33 0 -52 14.5t-19 34.5q0 2 10 56l59 275h-55v5l175 120l-16 -77h147l-40 -48h-115z" />
    <glyph glyph-name="Tbar" unicode="&#x166;" horiz-adv-x="588" 
d="M123 336l7 41h385l-7 -41h-385zM630 662l-25 -145h-5l-56 102h-127l-94 -562l61 -51l-1 -6h-248l1 6l79 51l94 562h-124l-93 -102h-6l26 145h518z" />
    <glyph glyph-name="tbar" unicode="&#x167;" horiz-adv-x="316" 
d="M10 230l9 39h277l-9 -39h-277zM194 370l-55 -256q-9 -43 -9 -48q0 -14 13 -14q19 0 44.5 18.5t59.5 49.5q6 7 10 10l11 -6q-27 -52 -70 -93t-98 -41q-33 0 -52 14.5t-19 34.5q0 2 10 56l59 275h-55v5l175 120l-16 -77h147l-40 -48h-115z" />
    <glyph glyph-name="Utilde" unicode="&#x168;" horiz-adv-x="646" 
d="M563 203q-14 -88 -75.5 -150.5t-168.5 -62.5q-125 0 -188 64.5t-47 166.5l64 384l-56 51l1 6h242l-1 -6l-78 -51l-65 -388q-12 -73 29.5 -118.5t120.5 -45.5q72 0 116 44t54 111l67 397l-61 51l1 6h186l-1 -6l-73 -51zM391 813q12 0 57 -11.5t57 -11.5q13 0 34 16t37 34
l6 -3q-15 -45 -39.5 -79t-47.5 -34q-16 0 -60.5 11.5t-53.5 11.5q-22 0 -74 -52l-6 3q16 44 42 79.5t48 35.5z" />
    <glyph glyph-name="utilde" unicode="&#x169;" horiz-adv-x="455" 
d="M285 165q-120 -173 -205 -173q-25 0 -39 11.5t-14 25.5q0 10 7 43q3 12 64 273l-54 34v6q164 49 170 50q-13 -57 -34 -148t-34 -146.5t-13 -57.5q0 -9 10 -9q17 0 64.5 46t89.5 103l41 197h95l-73 -360l55 -36v-6q-48 -11 -166 -27zM256 617q11 0 49.5 -14.5t50.5 -14.5
q11 0 31 17.5t37 39.5l7 -3q-12 -48 -37.5 -83.5t-46.5 -35.5q-15 0 -53 14t-47 14q-21 0 -71 -56l-7 3q16 48 41.5 83.5t45.5 35.5z" />
    <glyph glyph-name="Umacron" unicode="&#x16a;" horiz-adv-x="646" 
d="M563 203q-14 -88 -75.5 -150.5t-168.5 -62.5q-125 0 -188 64.5t-47 166.5l64 384l-56 51l1 6h242l-1 -6l-78 -51l-65 -388q-12 -73 29.5 -118.5t120.5 -45.5q72 0 116 44t54 111l67 397l-61 51l1 6h186l-1 -6l-73 -51zM550 778l-11 -58h-235l11 58h235z" />
    <glyph glyph-name="umacron" unicode="&#x16b;" horiz-adv-x="455" 
d="M285 165q-120 -173 -205 -173q-25 0 -39 11.5t-14 25.5q0 10 7 43q3 12 64 273l-54 34v6q164 49 170 50q-13 -57 -34 -148t-34 -146.5t-13 -57.5q0 -9 10 -9q17 0 64.5 46t89.5 103l41 197h95l-73 -360l55 -36v-6q-48 -11 -166 -27zM191 584h206l-12 -57h-206z" />
    <glyph glyph-name="Ubreve" unicode="&#x16c;" horiz-adv-x="646" 
d="M563 203q-14 -88 -75.5 -150.5t-168.5 -62.5q-125 0 -188 64.5t-47 166.5l64 384l-56 51l1 6h242l-1 -6l-78 -51l-65 -388q-12 -73 29.5 -118.5t120.5 -45.5q72 0 116 44t54 111l67 397l-61 51l1 6h186l-1 -6l-73 -51zM544 833q-12 -58 -43.5 -92t-80.5 -34
q-50 0 -72.5 38t-15.5 88l7 1q13 -61 85 -61q69 0 113 61z" />
    <glyph glyph-name="ubreve" unicode="&#x16d;" horiz-adv-x="455" 
d="M285 165q-120 -173 -205 -173q-25 0 -39 11.5t-14 25.5q0 10 7 43q3 12 64 273l-54 34v6q164 49 170 50q-13 -57 -34 -148t-34 -146.5t-13 -57.5q0 -9 10 -9q17 0 64.5 46t89.5 103l41 197h95l-73 -360l55 -36v-6q-48 -11 -166 -27zM394 635q-9 -61 -39 -96.5t-77 -35.5
q-49 0 -69 39.5t-11 92.5l8 1q13 -67 75 -67q33 0 61 19t44 48z" />
    <glyph glyph-name="Uring" unicode="&#x16e;" horiz-adv-x="646" 
d="M563 203q-14 -88 -75.5 -150.5t-168.5 -62.5q-125 0 -188 64.5t-47 166.5l64 384l-56 51l1 6h242l-1 -6l-78 -51l-65 -388q-12 -73 29.5 -118.5t120.5 -45.5q72 0 116 44t54 111l67 397l-61 51l1 6h186l-1 -6l-73 -51zM380 771q0 -21 13.5 -36t34.5 -15t34.5 15t13.5 36
t-13.5 36t-34.5 15t-34.5 -15t-13.5 -36zM344 771q0 35 25 59t59 24q35 0 60 -24t25 -59q0 -36 -24.5 -59.5t-60.5 -23.5t-60 23.5t-24 59.5z" />
    <glyph glyph-name="uring" unicode="&#x16f;" horiz-adv-x="455" 
d="M243 577q0 -21 13.5 -36t34.5 -15q20 0 34 15t14 36t-14 36t-34 15q-21 0 -34.5 -15t-13.5 -36zM206 577q0 35 25.5 59t59.5 24t59 -24t25 -59t-25 -59t-59 -24q-36 0 -60.5 23.5t-24.5 59.5zM285 165q-120 -173 -205 -173q-25 0 -39 11.5t-14 25.5q0 10 7 43
q3 12 64 273l-54 34v6q164 49 170 50q-13 -57 -34 -148t-34 -146.5t-13 -57.5q0 -9 10 -9q17 0 64.5 46t89.5 103l41 197h95l-73 -360l55 -36v-6q-48 -11 -166 -27z" />
    <glyph glyph-name="Uhungarumlaut" unicode="&#x170;" horiz-adv-x="646" 
d="M451 702l-6 8l145 150l49 -65zM289 702l-5 8l145 150l49 -65zM563 203q-14 -88 -75.5 -150.5t-168.5 -62.5q-125 0 -188 64.5t-47 166.5l64 384l-56 51l1 6h242l-1 -6l-78 -51l-65 -388q-12 -73 29.5 -118.5t120.5 -45.5q72 0 116 44t54 111l67 397l-61 51l1 6h186l-1 -6
l-73 -51z" />
    <glyph glyph-name="uhungarumlaut" unicode="&#x171;" horiz-adv-x="455" 
d="M285 165q-120 -173 -205 -173q-25 0 -39 11.5t-14 25.5q0 10 7 43q3 12 64 273l-54 34v6q164 49 170 50q-13 -57 -34 -148t-34 -146.5t-13 -57.5q0 -9 10 -9q17 0 64.5 46t89.5 103l41 197h95l-73 -360l55 -36v-6q-48 -11 -166 -27zM325 493l88 218l66 -39l-145 -183z
M207 489l-8 4l87 218l66 -39z" />
    <glyph glyph-name="Uogonek" unicode="&#x172;" horiz-adv-x="646" 
d="M236 -190q0 89 159 190q-33 -10 -76 -10q-125 0 -188 64.5t-47 166.5l64 384l-56 51l1 6h242l-1 -6l-78 -51l-65 -388q-12 -73 29.5 -118.5t120.5 -45.5q72 0 116 44t54 111l67 397l-61 51l1 6h186l-1 -6l-73 -51l-67 -402q-11 -67 -42 -109.5t-86 -87.5
q-48 -39 -79 -84.5t-31 -85.5q0 -46 43 -46q38 0 78 30l5 -4q-6 -11 -15.5 -23t-25.5 -26.5t-39.5 -23.5t-50.5 -9q-38 0 -61 21.5t-23 54.5z" />
    <glyph glyph-name="uogonek" unicode="&#x173;" horiz-adv-x="455" 
d="M179 -266q-38 0 -61.5 21.5t-22.5 54.5q0 87 156 189l34 167q-120 -174 -205 -174q-25 0 -39 11.5t-14 25.5q0 10 7 43q3 12 64 273l-54 34v6q164 49 170 50q-13 -57 -34 -148t-34 -146.5t-13 -57.5q0 -9 10 -9q18 0 65 46t89 104l41 196h95l-73 -360l55 -36v-6
q-60 -14 -142 -24q-89 -93 -89 -158q0 -46 43 -46q38 0 78 30l5 -4q-6 -11 -15.5 -23t-25.5 -26.5t-39.5 -23.5t-50.5 -9z" />
    <glyph glyph-name="Wcircumflex" unicode="&#x174;" horiz-adv-x="860" 
d="M567 842l102 -135l-5 -6l-106 53l-138 -53l-5 6zM128 605l-45 51l1 6h218l-1 -6l-66 -51l76 -440l132 227l-45 213l-50 51l1 6h206l-1 -6l-56 -51l28 -146l80 146l-37 51l1 6h145l-1 -6l-59 -51l-117 -207l46 -233l224 440l-47 51l1 6h167l-1 -6l-66 -51l-314 -615h-20
l-71 337l-194 -337h-21z" />
    <glyph glyph-name="wcircumflex" unicode="&#x175;" horiz-adv-x="538" 
d="M369 709l59 -224l-9 -3l-69 103l-117 -103l-7 5zM334 426q18 -127 13 -300q67 109 87 156t20 74q0 21 -20 41v4l92 29q18 -18 18 -45q0 -40 -53.5 -122t-215.5 -282h-22q11 102 11 268q-84 -143 -187 -268h-22q22 235 22 372l-49 33l1 7q55 18 141 42q0 -114 -17 -299
q92 155 158 290h23z" />
    <glyph glyph-name="Ycircumflex" unicode="&#x176;" horiz-adv-x="567" 
d="M453 656l1 6h179l-1 -6l-66 -51l-203 -280l-45 -266l57 -53l-1 -6h-239l1 6l75 53l42 256l-124 290l-48 51l1 6h235l-1 -6l-75 -51l99 -236l168 234zM402 842l102 -135l-5 -6l-106 53l-138 -53l-5 6z" />
    <glyph glyph-name="ycircumflex" unicode="&#x177;" horiz-adv-x="370" 
d="M285 350q0 24 -26 46v4l96 30q20 -20 20 -50q0 -53 -162 -281q-9 -13 -14 -20t-13 -18.5t-15 -21.5q-147 -211 -192 -300l-107 14v6q104 86 224 233q-16 241 -29 361l-49 34v7l132 41q19 -130 25 -329q64 111 87 162.5t23 81.5zM267 709l59 -224l-9 -3l-69 103l-117 -103
l-7 5z" />
    <glyph glyph-name="Ydieresis" unicode="&#x178;" horiz-adv-x="567" 
d="M453 656l1 6h179l-1 -6l-66 -51l-203 -280l-45 -266l57 -53l-1 -6h-239l1 6l75 53l42 256l-124 290l-48 51l1 6h235l-1 -6l-75 -51l99 -236l168 234zM476 816q22 0 37 -14.5t15 -36.5q0 -21 -15 -36t-37 -15t-36.5 15t-14.5 36q0 22 14.5 36.5t36.5 14.5zM300 816
q22 0 36.5 -14.5t14.5 -36.5q0 -21 -14.5 -36t-36.5 -15t-36.5 15t-14.5 36q0 22 14.5 36.5t36.5 14.5z" />
    <glyph glyph-name="Zacute" unicode="&#x179;" horiz-adv-x="560" 
d="M261 703l-4 9l200 132l35 -82zM136 46h273l102 121h6l-29 -167h-493l1 9l441 611h-235l-92 -105h-6l25 147h455l-1 -8z" />
    <glyph glyph-name="zacute" unicode="&#x17a;" horiz-adv-x="358" 
d="M208 490l-8 5l123 218l69 -57zM-15 10l279 341h-60q-85 0 -152 -10l-3 4l62 84l263 -10l-2 -9l-282 -336h52q96 0 181 18l3 -4l-68 -94l-275 6z" />
    <glyph glyph-name="Zdotaccent" unicode="&#x17b;" horiz-adv-x="560" 
d="M136 46h273l102 121h6l-29 -167h-493l1 9l441 611h-235l-92 -105h-6l25 147h455l-1 -8zM363 822q24 0 39.5 -15.5t15.5 -38.5t-15.5 -38.5t-39.5 -15.5q-23 0 -38.5 15.5t-15.5 38.5t15.5 38.5t38.5 15.5z" />
    <glyph glyph-name="zdotaccent" unicode="&#x17c;" horiz-adv-x="358" 
d="M-15 10l279 341h-60q-85 0 -152 -10l-3 4l62 84l263 -10l-2 -9l-282 -336h52q96 0 181 18l3 -4l-68 -94l-275 6zM242 633q24 0 39.5 -15.5t15.5 -38.5t-15.5 -38.5t-39.5 -15.5q-23 0 -38.5 15.5t-15.5 38.5t15.5 38.5t38.5 15.5z" />
    <glyph glyph-name="Zcaron" unicode="&#x17d;" horiz-adv-x="560" 
d="M354 697l-102 135l5 6l106 -54l138 54l5 -7zM136 46h273l102 121h6l-29 -167h-493l1 9l441 611h-235l-92 -105h-6l25 147h455l-1 -8z" />
    <glyph glyph-name="zcaron" unicode="&#x17e;" horiz-adv-x="358" 
d="M231 481l-58 224l8 4l70 -104l116 104l8 -6zM-15 10l279 341h-60q-85 0 -152 -10l-3 4l62 84l263 -10l-2 -9l-282 -336h52q96 0 181 18l3 -4l-68 -94l-275 6z" />
    <glyph glyph-name="florin" unicode="&#x192;" horiz-adv-x="394" 
d="M244 389h108l-32 -47h-88q-8 -31 -23.5 -89t-28 -104.5t-23.5 -85.5q-68 -238 -243 -253l-12 75l1 1q37 -11 54 -11q35 0 57 37t53 156l67 274h-75v5l30 42h57q11 45 26 97q23 82 75.5 134t140.5 52q54 0 86 -14l-39 -76h-2q-46 46 -74 46q-47 0 -76 -101z" />
    <glyph glyph-name="Aringacute" unicode="&#x1fa;" horiz-adv-x="575" 
d="M143 6l-2 -6h-178l2 6l67 51l331 615h18l110 -615l45 -51l-2 -6h-228l2 6l77 51l-32 184h-170l-97 -182zM206 283h139l-34 196zM300 873l-4 9l200 132l35 -82zM331 779q0 -21 13.5 -36t34.5 -15t34.5 15t13.5 36t-13.5 36t-34.5 15t-34.5 -15t-13.5 -36zM295 779
q0 35 25 59t59 24q35 0 60 -24t25 -59q0 -36 -24.5 -59.5t-60.5 -23.5t-60 23.5t-24 59.5z" />
    <glyph glyph-name="aringacute" unicode="&#x1fb;" horiz-adv-x="428" 
d="M389 25l-1 -7q-45 -11 -166 -27l30 148q-102 -150 -171 -150q-27 0 -48 30.5t-21 79.5q0 112 85 205.5t210 105.5l105 53l-80 -402zM127 60q17 0 57 39t79 93l38 183q-73 -6 -132 -90t-59 -183q0 -42 17 -42zM219 671l-8 5l123 218l69 -57zM212 571q0 -21 13.5 -36
t34.5 -15q20 0 34 15t14 36t-14 36t-34 15q-21 0 -34.5 -15t-13.5 -36zM175 571q0 35 25.5 59t59.5 24t59 -24t25 -59t-25 -59t-59 -24q-36 0 -60.5 23.5t-24.5 59.5z" />
    <glyph glyph-name="AEacute" unicode="&#x1fc;" horiz-adv-x="779" 
d="M500 703l-4 9l200 132l35 -82zM359 57l40 244h-153l-162 -242l57 -53l-1 -6h-177l1 6l64 51l366 548l-55 51l1 6h451l-22 -132h-6l-52 88h-151l-42 -247h156l61 71h6l-31 -184h-7l-35 71h-157l-47 -284h166l91 110h7l-26 -155h-417l1 6zM406 343l45 265l-177 -265h132z
" />
    <glyph glyph-name="aeacute" unicode="&#x1fd;" horiz-adv-x="587" 
d="M340 490l-8 5l123 218l69 -57zM360 -10q-42 0 -76 34.5t-34 101.5v1q-95 -138 -161 -138q-31 0 -53 30.5t-22 82.5q0 81 40.5 155.5t110 121t147.5 46.5q56 0 96 -21q47 28 97 28q41 0 63 -13.5t22 -33.5q0 -10 -5 -22t-20 -28.5t-38.5 -31.5t-65.5 -28.5t-95 -21.5
q-16 -48 -16 -112q0 -43 14 -65t37 -22q53 0 135 86l11 -8q-37 -70 -86 -106t-101 -36zM296 388q-66 0 -124 -86.5t-58 -197.5q0 -45 19 -45q16 0 51 33.5t69 79.5q18 116 103 194q-26 22 -60 22zM507 379q0 20 -23 20q-25 0 -56 -32.5t-52 -86.5q59 15 95 43t36 56z" />
    <glyph glyph-name="Oslashacute" unicode="&#x1fe;" horiz-adv-x="675" 
d="M56 266q0 166 105 286t243 120q83 0 147 -44l64 88l33 -24l-65 -90q80 -77 80 -198q0 -173 -104.5 -293.5t-242.5 -120.5q-83 0 -147 43l-73 -101l-33 25l74 102q-81 76 -81 207zM404 627q-92 0 -162 -107.5t-70 -257.5q0 -75 22 -126l313 431q-42 60 -103 60zM546 409
q0 66 -19 117l-312 -430q42 -60 101 -60q90 0 160 108.5t70 264.5zM310 703l-4 9l200 132l35 -82z" />
    <glyph glyph-name="oslashacute" unicode="&#x1ff;" horiz-adv-x="421" 
d="M16 -48l53 79q-49 46 -49 124q0 111 71 194t159 83q38 0 75 -21l47 71l29 -19l-49 -72q50 -47 50 -120q0 -120 -71 -201t-156 -81q-45 0 -79 21l-51 -76zM179 27q44 0 84.5 80t40.5 179q0 12 -2 30l-171 -254q15 -35 48 -35zM119 141q0 -22 1 -33l171 253q-15 32 -43 32
q-46 0 -87.5 -80t-41.5 -172zM209 490l-8 5l123 218l69 -57z" />
    <glyph glyph-name="Scommaaccent" unicode="&#x218;" horiz-adv-x="429" 
d="M211 -124q0 -43 -34 -86t-83 -68l-10 5q58 70 76 118q-21 -2 -35 9.5t-14 31.5t13 33t34 13q24 0 38.5 -15t14.5 -41zM288 672q83 0 138 -22l-23 -126h-7q-46 106 -114 106q-31 0 -53 -21.5t-22 -54.5q0 -32 17.5 -66.5t62.5 -101.5q54 -82 76.5 -129.5t22.5 -92.5
q0 -77 -56 -125.5t-139 -48.5q-98 0 -172 50q8 107 26 181h8q12 -92 49.5 -137.5t90.5 -45.5q41 0 66.5 28t25.5 68q0 36 -17 72t-63 106q-55 83 -74.5 125t-19.5 86q0 70 52 109.5t125 39.5z" />
    <glyph glyph-name="scommaaccent" unicode="&#x219;" horiz-adv-x="297" 
d="M147 -124q0 -43 -34 -86t-83 -68l-10 5q58 70 76 118q-21 -2 -35 9.5t-14 31.5t13 33t34 13q24 0 38.5 -15t14.5 -41zM189 432q34 0 99 -17l-25 -88h-5q-39 69 -75 69q-15 0 -25.5 -10t-10.5 -28q0 -21 21 -59q12 -22 34.5 -61t29.5 -52q22 -43 22 -81q0 -43 -35.5 -79
t-101.5 -36q-59 0 -113 28q4 52 19 132h6q35 -119 91 -119q23 0 35 13t12 32q0 23 -20 61q-2 3 -61 107q-23 43 -23 80q0 43 33.5 75.5t92.5 32.5z" />
    <glyph glyph-name="uni021A" unicode="&#x21a;" horiz-adv-x="588" 
d="M293 -124q0 -43 -34 -86t-83 -68l-10 5q58 70 76 118q-21 -2 -35 9.5t-14 31.5t13 33t34 13q24 0 38.5 -15t14.5 -41zM630 662l-25 -145h-5l-56 102h-127l-94 -562l61 -51l-1 -6h-248l1 6l79 51l94 562h-124l-93 -102h-6l26 145h518z" />
    <glyph glyph-name="uni021B" unicode="&#x21b;" horiz-adv-x="316" 
d="M130 -124q0 -43 -34 -86t-83 -68l-10 5q58 70 76 118q-21 -2 -35 9.5t-14 31.5t13 33t34 13q24 0 38.5 -15t14.5 -41zM194 370l-55 -256q-9 -43 -9 -48q0 -14 13 -14q19 0 44.5 18.5t59.5 49.5q6 7 10 10l11 -6q-27 -52 -70 -93t-98 -41q-33 0 -52 14.5t-19 34.5
q0 2 10 56l59 275h-55v5l175 120l-16 -77h147l-40 -48h-115z" />
    <glyph glyph-name="uni0237" unicode="&#x237;" horiz-adv-x="222" 
d="M125 23q-12 -62 -64.5 -137t-122.5 -136l-8 4q78 155 104 290l59 300l-54 34v7q124 40 166 50z" />
    <glyph glyph-name="circumflex" unicode="&#x2c6;" 
d="M297 709l59 -224l-9 -3l-69 103l-117 -103l-7 5z" />
    <glyph glyph-name="caron" unicode="&#x2c7;" 
d="M236 481l-58 224l8 4l70 -104l116 104l8 -6z" />
    <glyph glyph-name="breve" unicode="&#x2d8;" 
d="M371 635q-9 -61 -39 -96.5t-77 -35.5q-49 0 -69 39.5t-11 92.5l8 1q13 -67 75 -67q33 0 61 19t44 48z" />
    <glyph glyph-name="dotaccent" unicode="&#x2d9;" 
d="M265 633q24 0 39.5 -15.5t15.5 -38.5t-15.5 -38.5t-39.5 -15.5q-23 0 -38.5 15.5t-15.5 38.5t15.5 38.5t38.5 15.5z" />
    <glyph glyph-name="ring" unicode="&#x2da;" 
d="M224 577q0 -21 13.5 -36t34.5 -15q20 0 34 15t14 36t-14 36t-34 15q-21 0 -34.5 -15t-13.5 -36zM187 577q0 35 25.5 59t59.5 24t59 -24t25 -59t-25 -59t-59 -24q-36 0 -60.5 23.5t-24.5 59.5z" />
    <glyph glyph-name="ogonek" unicode="&#x2db;" 
d="M114 -266q-38 0 -61 21.5t-23 54.5q0 86 157 190h27q-95 -101 -95 -164q0 -46 43 -46q38 0 78 30l5 -4q-6 -11 -15.5 -23t-25.5 -26.5t-39.5 -23.5t-50.5 -9z" />
    <glyph glyph-name="tilde" unicode="&#x2dc;" 
d="M220 617q11 0 49.5 -14.5t50.5 -14.5q11 0 31 17.5t37 39.5l7 -3q-12 -48 -37.5 -83.5t-46.5 -35.5q-15 0 -53 14t-47 14q-21 0 -71 -56l-7 3q16 48 41.5 83.5t45.5 35.5z" />
    <glyph glyph-name="hungarumlaut" unicode="&#x2dd;" 
d="M252 493l88 218l66 -39l-145 -183zM134 489l-8 4l87 218l66 -39z" />
    <glyph glyph-name="Wgrave" unicode="&#x1e80;" horiz-adv-x="860" 
d="M434 764l42 79l171 -132l-5 -8zM128 605l-45 51l1 6h218l-1 -6l-66 -51l76 -440l132 227l-45 213l-50 51l1 6h206l-1 -6l-56 -51l28 -146l80 146l-37 51l1 6h145l-1 -6l-59 -51l-117 -207l46 -233l224 440l-47 51l1 6h167l-1 -6l-66 -51l-314 -615h-20l-71 337l-194 -337
h-21z" />
    <glyph glyph-name="wgrave" unicode="&#x1e81;" horiz-adv-x="538" 
d="M334 426q18 -127 13 -300q67 109 87 156t20 74q0 21 -20 41v4l92 29q18 -18 18 -45q0 -40 -53.5 -122t-215.5 -282h-22q11 102 11 268q-84 -143 -187 -268h-22q22 235 22 372l-49 33l1 7q55 18 141 42q0 -114 -17 -299q92 155 158 290h23zM373 490l-134 182l82 41
l61 -218z" />
    <glyph glyph-name="Wacute" unicode="&#x1e82;" horiz-adv-x="860" 
d="M440 703l-4 9l200 132l35 -82zM128 605l-45 51l1 6h218l-1 -6l-66 -51l76 -440l132 227l-45 213l-50 51l1 6h206l-1 -6l-56 -51l28 -146l80 146l-37 51l1 6h145l-1 -6l-59 -51l-117 -207l46 -233l224 440l-47 51l1 6h167l-1 -6l-66 -51l-314 -615h-20l-71 337l-194 -337
h-21z" />
    <glyph glyph-name="wacute" unicode="&#x1e83;" horiz-adv-x="538" 
d="M288 490l-8 5l123 218l69 -57zM334 426q18 -127 13 -300q67 109 87 156t20 74q0 21 -20 41v4l92 29q18 -18 18 -45q0 -40 -53.5 -122t-215.5 -282h-22q11 102 11 268q-84 -143 -187 -268h-22q22 235 22 372l-49 33l1 7q55 18 141 42q0 -114 -17 -299q92 155 158 290h23z
" />
    <glyph glyph-name="Wdieresis" unicode="&#x1e84;" horiz-adv-x="860" 
d="M641 816q22 0 37 -14.5t15 -36.5q0 -21 -15 -36t-37 -15t-36.5 15t-14.5 36q0 22 14.5 36.5t36.5 14.5zM465 816q22 0 36.5 -14.5t14.5 -36.5q0 -21 -14.5 -36t-36.5 -15t-36.5 15t-14.5 36q0 22 14.5 36.5t36.5 14.5zM128 605l-45 51l1 6h218l-1 -6l-66 -51l76 -440
l132 227l-45 213l-50 51l1 6h206l-1 -6l-56 -51l28 -146l80 146l-37 51l1 6h145l-1 -6l-59 -51l-117 -207l46 -233l224 440l-47 51l1 6h167l-1 -6l-66 -51l-314 -615h-20l-71 337l-194 -337h-21z" />
    <glyph glyph-name="wdieresis" unicode="&#x1e85;" horiz-adv-x="538" 
d="M417 627q23 0 37.5 -14.5t14.5 -36.5q0 -21 -14.5 -36t-37.5 -15q-21 0 -35.5 15t-14.5 36q0 22 14.5 36.5t35.5 14.5zM255 627q22 0 36.5 -14.5t14.5 -36.5q0 -21 -14.5 -36t-36.5 -15t-36.5 15t-14.5 36q0 22 14.5 36.5t36.5 14.5zM334 426q18 -127 13 -300
q67 109 87 156t20 74q0 21 -20 41v4l92 29q18 -18 18 -45q0 -40 -53.5 -122t-215.5 -282h-22q11 102 11 268q-84 -143 -187 -268h-22q22 235 22 372l-49 33l1 7q55 18 141 42q0 -114 -17 -299q92 155 158 290h23z" />
    <glyph glyph-name="Ygrave" unicode="&#x1ef2;" horiz-adv-x="567" 
d="M453 656l1 6h179l-1 -6l-66 -51l-203 -280l-45 -266l57 -53l-1 -6h-239l1 6l75 53l42 256l-124 290l-48 51l1 6h235l-1 -6l-75 -51l99 -236l168 234zM262 764l42 79l171 -132l-5 -8z" />
    <glyph glyph-name="ygrave" unicode="&#x1ef3;" horiz-adv-x="370" 
d="M285 350q0 24 -26 46v4l96 30q20 -20 20 -50q0 -53 -162 -281q-9 -13 -14 -20t-13 -18.5t-15 -21.5q-147 -211 -192 -300l-107 14v6q104 86 224 233q-16 241 -29 361l-49 34v7l132 41q19 -130 25 -329q64 111 87 162.5t23 81.5zM264 490l-134 182l82 41l61 -218z" />
    <glyph glyph-name="uni2009" unicode="&#x2009;" horiz-adv-x="25" 
 />
    <glyph glyph-name="endash" unicode="&#x2013;" horiz-adv-x="435" 
d="M57 266h341l-10 -42h-340z" />
    <glyph glyph-name="emdash" unicode="&#x2014;" horiz-adv-x="683" 
d="M48 224l9 42h589l-9 -42h-589z" />
    <glyph glyph-name="quoteleft" unicode="&#x2018;" horiz-adv-x="194" 
d="M231 688q-72 -74 -84 -145q1 1 2 1h5q20 -1 33.5 -12.5t13.5 -32.5t-14.5 -35t-37.5 -14q-26 0 -43 19.5t-17 48.5q0 51 36.5 98.5t95.5 76.5z" />
    <glyph glyph-name="quoteright" unicode="&#x2019;" horiz-adv-x="194" 
d="M79 455q72 74 84 145q-1 -1 -2 -1h-5q-20 1 -33.5 12.5t-13.5 32.5t14.5 35t37.5 14q26 0 43 -19.5t17 -48.5q0 -51 -36.5 -98.5t-95.5 -76.5z" />
    <glyph glyph-name="quotesinglbase" unicode="&#x201a;" horiz-adv-x="194" 
d="M-16 -128q72 74 84 145q-1 -1 -2 -1h-5q-20 1 -33.5 12.5t-13.5 32.5t14.5 35t37.5 14q26 0 43 -19.5t17 -48.5q0 -51 -36.5 -98.5t-95.5 -76.5z" />
    <glyph glyph-name="quotedblleft" unicode="&#x201c;" horiz-adv-x="350" 
d="M387 688q-72 -74 -84 -145q1 1 2 1h5q20 -1 33.5 -12.5t13.5 -32.5t-14.5 -35t-37.5 -14q-26 0 -43 19.5t-17 48.5q0 51 36.5 98.5t95.5 76.5zM231 688q-72 -74 -84 -145q1 1 2 1h5q20 -1 33.5 -12.5t13.5 -32.5t-14.5 -35t-37.5 -14q-26 0 -43 19.5t-17 48.5
q0 51 36.5 98.5t95.5 76.5z" />
    <glyph glyph-name="quotedblright" unicode="&#x201d;" horiz-adv-x="350" 
d="M235 455q72 73 85 145q-1 -1 -3 -1h-5q-19 1 -33 12.5t-14 32.5t14.5 35t37.5 14q26 0 43 -19.5t17 -48.5q0 -51 -36.5 -99t-94.5 -76zM79 455q72 74 84 145q-1 -1 -2 -1h-5q-20 1 -33.5 12.5t-13.5 32.5t14.5 35t37.5 14q26 0 43 -19.5t17 -48.5q0 -51 -36.5 -98.5
t-95.5 -76.5z" />
    <glyph glyph-name="quotedblbase" unicode="&#x201e;" horiz-adv-x="353" 
d="M140 -128q72 73 85 145q-1 -1 -3 -1h-5q-19 1 -33 12.5t-14 32.5t14.5 35t37.5 14q26 0 43 -19.5t17 -48.5q0 -51 -36.5 -99t-94.5 -76zM-16 -128q72 74 84 145q-1 -1 -2 -1h-5q-20 1 -33.5 12.5t-13.5 32.5t14.5 35t37.5 14q26 0 43 -19.5t17 -48.5q0 -51 -36.5 -98.5
t-95.5 -76.5z" />
    <glyph glyph-name="dagger" unicode="&#x2020;" horiz-adv-x="324" 
d="M74 -118h-5l107 577h-114l1 5l46 45h77l20 108l68 71h5l-33 -179h120l-1 -6l-45 -44h-84l-92 -501z" />
    <glyph glyph-name="daggerdbl" unicode="&#x2021;" horiz-adv-x="324" 
d="M315 447h-80l-40 -211h116l-1 -6l-46 -44h-78l-26 -138l-70 -75h-4l39 213h-118l1 6l46 44h81l39 211h-116l1 5l46 44h78l23 124l69 70h5l-36 -194h118l-1 -5z" />
    <glyph glyph-name="bullet" unicode="&#x2022;" horiz-adv-x="352" 
d="M58 250q0 52 35.5 88t87.5 36t87.5 -36t35.5 -88t-35.5 -88t-87.5 -36t-87.5 36t-35.5 88z" />
    <glyph glyph-name="ellipsis" unicode="&#x2026;" horiz-adv-x="524" 
d="M402 105q25 0 41.5 -16t16.5 -42q0 -24 -16.5 -40.5t-41.5 -16.5q-26 0 -42 16.5t-16 40.5q0 26 16 42t42 16zM236 105q25 0 41.5 -16t16.5 -42q0 -24 -16.5 -40.5t-41.5 -16.5q-26 0 -42 16.5t-16 40.5q0 26 16 42t42 16zM71 105q25 0 41.5 -16t16.5 -42
q0 -24 -16.5 -40.5t-41.5 -16.5q-26 0 -42 16.5t-16 40.5q0 26 16 42t42 16z" />
    <glyph glyph-name="perthousand" unicode="&#x2030;" horiz-adv-x="960" 
d="M810 243q-42 0 -69 -34.5t-27 -81.5q0 -43 22 -68t55 -25q42 0 69 34.5t27 82.5q0 42 -22 67t-55 25zM810 286q54 0 90.5 -36t36.5 -99q0 -64 -41.5 -112t-104.5 -48q-55 0 -91 36t-36 99q0 64 41.5 112t104.5 48zM570 151q0 42 -21.5 67t-54.5 25q-43 0 -70 -34.5
t-27 -81.5q0 -43 22 -68t55 -25q42 0 69 34.5t27 82.5zM494 286q54 0 90.5 -36t36.5 -99q0 -64 -41.5 -112t-105.5 -48q-55 0 -91 36t-36 99q0 64 41.5 112t105.5 48zM119 511q0 -42 22 -67.5t55 -25.5q42 0 69 34.5t27 82.5q0 42 -22 67t-55 25q-42 0 -69 -34.5t-27 -81.5z
M215 670q54 0 90.5 -36t36.5 -99q0 -64 -41.5 -111.5t-104.5 -47.5q-55 0 -91 35t-36 99t41.5 112t104.5 48zM582 662h58l-527 -662h-57z" />
    <glyph glyph-name="uni2032" unicode="&#x2032;" horiz-adv-x="182" 
d="M229 686v-2l-140 -234h-12l62 236h90z" />
    <glyph glyph-name="uni2033" unicode="&#x2033;" horiz-adv-x="321" 
d="M368 686v-2l-140 -234h-12l62 236h90zM229 686v-2l-140 -234h-12l62 236h90z" />
    <glyph glyph-name="guilsinglleft" unicode="&#x2039;" horiz-adv-x="241" 
d="M41 225l1 2l176 163l7 -6l-100 -166l38 -159l-8 -3z" />
    <glyph glyph-name="guilsinglright" unicode="&#x203a;" horiz-adv-x="240" 
d="M196 221l-1 -2l-176 -163l-7 6l100 166l-38 159l8 3z" />
    <glyph glyph-name="fraction" unicode="&#x2044;" horiz-adv-x="430" 
d="M472 662h50l-502 -662h-50z" />
    <glyph glyph-name="Euro" unicode="&#x20ac;" horiz-adv-x="573" 
d="M423 275h-199v-16q0 -100 36.5 -161t88.5 -61q71 0 156 97h8l-22 -122q-60 -22 -136 -22q-113 0 -180 77t-67 204v4h-73l7 39h68q7 49 10 59h-69l7 39h73q37 115 129 187.5t198 72.5q76 0 130 -20l-24 -131h-6q-55 105 -115 105q-58 0 -114.5 -59.5t-83.5 -154.5h201
l-7 -39h-203q-6 -29 -9 -59h203z" />
    <glyph glyph-name="trademark" unicode="&#x2122;" horiz-adv-x="629" 
d="M670 656l-36 -25l-38 -218l27 -24l-1 -6h-123l1 6l35 24l31 176l-117 -184h-10l-49 185l-32 -177l27 -24l-1 -6h-93l1 6l37 24l38 217q-9 14 -21 26l1 6h84l44 -169l107 169h89zM92 662h231l-13 -72h-6l-22 47h-48l-40 -225l28 -23l-1 -6h-126l1 6l38 23l39 225h-46
l-42 -48h-6z" />
    <glyph glyph-name="onethird" unicode="&#x2153;" horiz-adv-x="526" 
d="M57 369v5l38 27l40 204l-31 21v4l112 41l-51 -270l25 -27v-5h-133zM498 662h50l-502 -662h-50zM329 151q77 43 77 74q0 30 -34 30q-21 0 -37 -13l-6 5q25 52 87 52q27 0 42.5 -14t15.5 -36q0 -44 -69 -68q32 -2 52 -19.5t20 -45.5q0 -45 -45 -79.5t-145 -43.5l-3 8
q116 47 116 103q0 40 -50 40q-9 0 -19 -2z" />
    <glyph glyph-name="twothirds" unicode="&#x2154;" horiz-adv-x="580" 
d="M239 369h-188l1 11q87 87 118 127.5t31 70.5q0 20 -12 31t-31 11q-28 0 -50 -19l-6 5q28 62 97 62q34 0 55 -20.5t21 -53.5q0 -41 -36 -78t-116 -92h152zM552 662h50l-502 -662h-50zM383 151q77 43 77 74q0 30 -34 30q-21 0 -37 -13l-6 5q25 52 87 52q27 0 42.5 -14
t15.5 -36q0 -44 -69 -68q32 -2 52 -19.5t20 -45.5q0 -45 -45 -79.5t-145 -43.5l-3 8q116 47 116 103q0 40 -50 40q-9 0 -19 -2z" />
    <glyph glyph-name="oneeighth" unicode="&#x215b;" horiz-adv-x="549" 
d="M57 369v5l38 27l40 204l-31 21v4l112 41l-51 -270l25 -27v-5h-133zM498 662h50l-502 -662h-50zM425 299q43 0 67 -16.5t24 -41.5q0 -39 -77 -75q30 -32 42 -51.5t12 -41.5q0 -32 -30.5 -55.5t-81.5 -23.5q-47 0 -73 18t-26 45q0 26 25.5 47.5t62.5 35.5q-48 50 -48 85
q0 33 29 53.5t74 20.5zM429 59q0 22 -47 68q-40 -32 -40 -64q0 -15 11 -26.5t31 -11.5q21 0 33 9.5t12 24.5zM384 243q0 -12 9 -24.5t34 -39.5v-1q31 29 31 58q0 15 -9.5 25t-27.5 10q-37 0 -37 -28z" />
    <glyph glyph-name="threeeighths" unicode="&#x215c;" horiz-adv-x="550" 
d="M500 662h50l-502 -662h-50zM95 520q77 43 77 74q0 30 -34 30q-21 0 -37 -13l-6 5q25 52 87 52q27 0 42.5 -14t15.5 -36q0 -44 -69 -68q32 -2 52 -19.5t20 -45.5q0 -45 -45 -79.5t-145 -43.5l-3 8q116 47 116 103q0 40 -50 40q-9 0 -19 -2zM428 299q43 0 67 -16.5
t24 -41.5q0 -39 -77 -75q30 -32 42 -51.5t12 -41.5q0 -32 -30.5 -55.5t-81.5 -23.5q-47 0 -73 18t-26 45q0 26 25.5 47.5t62.5 35.5q-48 50 -48 85q0 33 29 53.5t74 20.5zM432 59q0 22 -47 68q-40 -32 -40 -64q0 -15 11 -26.5t31 -11.5q21 0 33 9.5t12 24.5zM387 243
q0 -12 9 -24.5t34 -39.5v-1q31 29 31 58q0 15 -9.5 25t-27.5 10q-37 0 -37 -28z" />
    <glyph glyph-name="fiveeighths" unicode="&#x215d;" horiz-adv-x="551" 
d="M500 662h50l-502 -662h-50zM278 662l-30 -57h-99l-14 -31q54 -11 82.5 -35t28.5 -57q0 -42 -47.5 -75t-139.5 -47l-3 9q114 52 114 93q0 38 -83 53q2 5 29.5 70t31.5 77h130zM428 299q43 0 67 -16.5t24 -41.5q0 -39 -77 -75q30 -32 42 -51.5t12 -41.5q0 -32 -30.5 -55.5
t-81.5 -23.5q-47 0 -73 18t-26 45q0 26 25.5 47.5t62.5 35.5q-48 50 -48 85q0 33 29 53.5t74 20.5zM432 59q0 22 -47 68q-40 -32 -40 -64q0 -15 11 -26.5t31 -11.5q21 0 33 9.5t12 24.5zM387 243q0 -12 9 -24.5t34 -39.5v-1q31 29 31 58q0 15 -9.5 25t-27.5 10
q-37 0 -37 -28z" />
    <glyph glyph-name="seveneighths" unicode="&#x215e;" horiz-adv-x="528" 
d="M124 662h179v-4l-166 -288h-41l136 235h-141zM478 662h50l-502 -662h-50zM405 299q43 0 67 -16.5t24 -41.5q0 -39 -77 -75q30 -32 42 -51.5t12 -41.5q0 -32 -30.5 -55.5t-81.5 -23.5q-47 0 -73 18t-26 45q0 26 25.5 47.5t62.5 35.5q-48 50 -48 85q0 33 29 53.5t74 20.5z
M409 59q0 22 -47 68q-40 -32 -40 -64q0 -15 11 -26.5t31 -11.5q21 0 33 9.5t12 24.5zM364 243q0 -12 9 -24.5t34 -39.5v-1q31 29 31 58q0 15 -9.5 25t-27.5 10q-37 0 -37 -28z" />
    <glyph glyph-name="minus" unicode="&#x2212;" horiz-adv-x="391" 
d="M39 226l7 42h316l-8 -42h-315z" />
    <glyph glyph-name="uni24C5" unicode="&#x24c5;" horiz-adv-x="768" 
d="M568 413q0 -54 -47 -83.5t-111 -29.5v8q72 27 72 95q0 35 -20 54.5t-53 19.5h-20v-272l47 -34v-5h-175v5l40 34v267l-40 33v4h172q62 0 98.5 -24.5t36.5 -71.5zM403 634q-125 0 -207 -87.5t-82 -214.5q0 -124 84.5 -213t204.5 -89q123 0 206 87.5t83 214.5q0 124 -84 213
t-205 89zM403 674q141 0 240.5 -100.5t99.5 -241.5q0 -144 -98 -243t-242 -99q-145 0 -242.5 98.5t-97.5 243.5q0 144 98 243t242 99z" />
    <glyph glyph-name="acute.uc" 
d="M177 703l-4 9l200 132l35 -82z" />
    <glyph glyph-name="breve.uc" 
d="M394 833q-12 -58 -43.5 -92t-80.5 -34q-50 0 -72.5 38t-15.5 88l7 1q13 -61 85 -61q69 0 113 61z" />
    <glyph glyph-name="circumflex.uc" 
d="M307 842l102 -135l-5 -6l-106 53l-138 -53l-5 6z" />
    <glyph glyph-name="dieresis.uc" 
d="M377 816q22 0 37 -14.5t15 -36.5q0 -21 -15 -36t-37 -15t-36.5 15t-14.5 36q0 22 14.5 36.5t36.5 14.5zM201 816q22 0 36.5 -14.5t14.5 -36.5q0 -21 -14.5 -36t-36.5 -15t-36.5 15t-14.5 36q0 22 14.5 36.5t36.5 14.5z" />
    <glyph glyph-name="grave.uc" 
d="M167 764l42 79l171 -132l-5 -8z" />
    <glyph glyph-name="macron.uc" 
d="M411 778l-11 -58h-235l11 58h235z" />
    <glyph glyph-name="ring.uc" 
d="M238 779q0 -21 13.5 -36t34.5 -15t34.5 15t13.5 36t-13.5 36t-34.5 15t-34.5 -15t-13.5 -36zM202 779q0 35 25 59t59 24q35 0 60 -24t25 -59q0 -36 -24.5 -59.5t-60.5 -23.5t-60 23.5t-24 59.5z" />
    <glyph glyph-name="tilde.uc" 
d="M258 813q12 0 57 -11.5t57 -11.5q13 0 34 16t37 34l6 -3q-15 -45 -39.5 -79t-47.5 -34q-16 0 -60.5 11.5t-53.5 11.5q-22 0 -74 -52l-6 3q16 44 42 79.5t48 35.5z" />
    <glyph glyph-name="Cacute.pl" horiz-adv-x="598" 
d="M342 -10q-124 0 -207.5 73.5t-83.5 207.5q0 164 116.5 282.5t278.5 118.5q98 0 167 -24l-23 -131h-6q-60 109 -149 109q-104 0 -185 -102.5t-81 -250.5q0 -104 51 -170.5t125 -66.5q40 0 80 19t58 35t43 41l2 2l2 2l2 2h6l-21 -122q-68 -25 -175 -25zM411 699l-9 3
l32 170l87 -38z" />
    <glyph glyph-name="acute.ucpl" 
d="M271 699l-9 3l32 170l87 -38z" />
    <glyph glyph-name="caron.uc" 
d="M268 697l-102 135l5 6l106 -54l138 54l5 -7z" />
    <glyph glyph-name="dotaccent.uc" 
d="M287 822q24 0 39.5 -15.5t15.5 -38.5t-15.5 -38.5t-39.5 -15.5q-23 0 -38.5 15.5t-15.5 38.5t15.5 38.5t38.5 15.5z" />
    <glyph glyph-name="space_uni0326" 
d="M193 -124q0 -43 -34 -86t-83 -68l-10 5q58 70 76 118q-21 -2 -35 9.5t-14 31.5t13 33t34 13q24 0 38.5 -15t14.5 -41z" />
    <glyph glyph-name="K.001" horiz-adv-x="597" 
d="M-9 0v6l74 51l92 548l-56 52l1 5h237l-1 -5l-74 -52l-91 -548l56 -51l-1 -6h-237zM574 -14q-44 1 -76.5 9t-52.5 18t-40.5 35t-30.5 42.5t-32 58.5l-99 189v6l244 261l-55 51l1 6h206l-1 -6l-87 -48l-216 -226l104 -192q80 -150 136 -198z" />
    <glyph glyph-name="Kcommaaccent.001" horiz-adv-x="597" 
d="M345 -124q0 -43 -34 -86t-83 -68l-10 5q58 70 76 118q-21 -2 -35 9.5t-14 31.5t13 33t34 13q24 0 38.5 -15t14.5 -41zM-9 0v6l74 51l92 548l-56 52l1 5h237l-1 -5l-74 -52l-91 -548l56 -51l-1 -6h-237zM574 -14q-44 1 -76.5 9t-52.5 18t-40.5 35t-30.5 42.5t-32 58.5
l-99 189v6l244 261l-55 51l1 6h206l-1 -6l-87 -48l-216 -226l104 -192q80 -150 136 -198z" />
    <glyph glyph-name="caron.alt" 
d="M203 504l60 211h81l-132 -211h-9z" />
    <glyph glyph-name="Nacute.pl" horiz-adv-x="664" 
d="M405 699l-9 3l32 170l87 -38zM500 0l-307 507l-74 -447l71 -54l-1 -6h-205l2 6l79 54l86 514q-14 23 -57 83l1 5h130l291 -489l72 429l-70 55l1 5h202l-1 -5l-79 -55l-99 -602h-42z" />
    <glyph glyph-name="Oacute.pl" horiz-adv-x="675" 
d="M404 699l-9 3l32 170l87 -38zM404 627q-92 0 -162 -107.5t-70 -257.5q0 -104 42.5 -165t101.5 -61q90 0 160 108.5t70 264.5q0 103 -41 160.5t-101 57.5zM56 266q0 166 105 286t243 120q111 0 185 -75t74 -193q0 -173 -104.5 -293.5t-242.5 -120.5q-111 0 -185.5 76.5
t-74.5 199.5z" />
    <glyph glyph-name="hungarumlaut.uc" 
d="M296 702l-6 8l145 150l49 -65zM134 702l-5 8l145 150l49 -65z" />
    <glyph glyph-name="Q.long" horiz-adv-x="678" 
d="M664 407q0 -138 -73 -247.5t-192 -151.5q189 -102 311.5 -137t237.5 -35q93 0 155 17l3 -8q-34 -23 -108.5 -46t-168.5 -23q-107 0 -246.5 48.5t-354.5 173.5q-77 44 -124 106.5t-47 161.5q0 164 104 285t242 121q113 0 187 -74.5t74 -190.5zM173 262q0 -103 43.5 -164
t100.5 -61q94 0 162 109.5t68 264.5q0 103 -41.5 159.5t-101.5 56.5q-92 0 -161.5 -108.5t-69.5 -256.5z" />
    <glyph glyph-name="Sacute.pl" horiz-adv-x="429" 
d="M288 672q83 0 138 -22l-23 -126h-7q-46 106 -114 106q-31 0 -53 -21.5t-22 -54.5q0 -32 17.5 -66.5t62.5 -101.5q54 -82 76.5 -129.5t22.5 -92.5q0 -77 -56 -125.5t-139 -48.5q-98 0 -172 50q8 107 26 181h8q12 -92 49.5 -137.5t90.5 -45.5q41 0 66.5 28t25.5 68
q0 36 -17 72t-63 106q-55 83 -74.5 125t-19.5 86q0 70 52 109.5t125 39.5zM285 699l-9 3l32 170l87 -38z" />
    <glyph glyph-name="W.001" horiz-adv-x="832" 
d="M779 605l-55 51l1 6h176l-1 -6l-67 -51l-269 -615h-19l-81 481l-228 -481h-20l-87 615l-46 51l1 6h226l-1 -6l-74 -51l53 -402l220 470h20l76 -474z" />
    <glyph glyph-name="Wacute.001" horiz-adv-x="832" 
d="M417 703l-4 9l200 132l35 -82zM779 605l-55 51l1 6h176l-1 -6l-67 -51l-269 -615h-19l-81 481l-228 -481h-20l-87 615l-46 51l1 6h226l-1 -6l-74 -51l53 -402l220 470h20l76 -474z" />
    <glyph glyph-name="Wcircumflex.001" horiz-adv-x="832" 
d="M537 842l102 -135l-5 -6l-106 53l-138 -53l-5 6zM779 605l-55 51l1 6h176l-1 -6l-67 -51l-269 -615h-19l-81 481l-228 -481h-20l-87 615l-46 51l1 6h226l-1 -6l-74 -51l53 -402l220 470h20l76 -474z" />
    <glyph glyph-name="Wdieresis.001" horiz-adv-x="832" 
d="M779 605l-55 51l1 6h176l-1 -6l-67 -51l-269 -615h-19l-81 481l-228 -481h-20l-87 615l-46 51l1 6h226l-1 -6l-74 -51l53 -402l220 470h20l76 -474zM613 816q22 0 37 -14.5t15 -36.5q0 -21 -15 -36t-37 -15t-36.5 15t-14.5 36q0 22 14.5 36.5t36.5 14.5zM437 816
q22 0 36.5 -14.5t14.5 -36.5q0 -21 -14.5 -36t-36.5 -15t-36.5 15t-14.5 36q0 22 14.5 36.5t36.5 14.5z" />
    <glyph glyph-name="Wgrave.001" horiz-adv-x="832" 
d="M407 764l42 79l171 -132l-5 -8zM779 605l-55 51l1 6h176l-1 -6l-67 -51l-269 -615h-19l-81 481l-228 -481h-20l-87 615l-46 51l1 6h226l-1 -6l-74 -51l53 -402l220 470h20l76 -474z" />
    <glyph glyph-name="Zacute.pl" horiz-adv-x="560" 
d="M136 46h273l102 121h6l-29 -167h-493l1 9l441 611h-235l-92 -105h-6l25 147h455l-1 -8zM343 699l-9 3l32 170l87 -38z" />
    <glyph glyph-name="acute.pl" 
d="M217 486l-8 2l52 224l79 -32z" />
    <glyph glyph-name="ampersand.uc" horiz-adv-x="641" 
d="M679 424q-65 -31 -105.5 -77t-95.5 -139l-26 -43q83 -124 177 -179l-1 -6q-146 0 -211 65q-17 17 -28 33q-42 -49 -85 -70.5t-99 -21.5q-81 0 -132 46.5t-51 124.5q0 77 54 137t134 99q-34 78 -34 126q0 70 44 111.5t110 41.5q54 0 87.5 -26.5t33.5 -71.5q0 -47 -38 -84
t-103 -72q20 -42 71 -135q25 -46 46 -79l14 24q77 128 87 143l-58 53l1 6h209zM292 232q-39 70 -70 134q-96 -84 -96 -190q0 -57 29.5 -92.5t77.5 -35.5q71 0 129 66q-38 58 -70 118zM268 561q0 -48 31 -117q74 59 74 125q0 31 -13.5 47.5t-35.5 16.5q-23 0 -39.5 -18
t-16.5 -54z" />
    <glyph glyph-name="at.uc" horiz-adv-x="812" 
d="M541 151q37 10 72.5 32t68 57.5t52.5 91t20 121.5q0 100 -58 159.5t-177 59.5q-114 0 -207.5 -63t-145 -166.5t-51.5 -224.5q0 -127 70 -200t186 -73q155 0 297 103l11 -11q-46 -51 -131 -93.5t-192 -42.5q-143 0 -229.5 82.5t-86.5 220.5q0 101 40 195t106 162
t156.5 109t187.5 41q135 0 216 -68t81 -180q0 -110 -59.5 -193.5t-147.5 -122.5t-182 -35l29 137q-36 -55 -79 -95t-79 -40q-23 0 -44 28t-21 74q0 66 33.5 129t98 107.5t145.5 50.5l102 38zM355 184q17 0 53 34.5t71 83.5l35 164q-71 -4 -122.5 -80t-51.5 -165
q0 -37 15 -37z" />
    <glyph glyph-name="backslash.uc" horiz-adv-x="311" 
d="M145 752l99 -848l-40 -6l-100 849z" />
    <glyph glyph-name="bar.uc" horiz-adv-x="259" 
d="M112 747h46v-853h-46v853z" />
    <glyph glyph-name="braceleft.uc" horiz-adv-x="284" 
d="M212 238q0 -41 -50.5 -117.5t-50.5 -113.5q0 -65 78 -109l-7 -6q-68 21 -106.5 56t-38.5 77q0 30 29 72t58 84.5t29 73.5q0 64 -89 65l4 22q64 2 91 20.5t27 52.5q0 24 -29 96t-29 98q0 108 201 151l5 -7q-128 -49 -128 -138q0 -26 21 -90t21 -88q0 -46 -33 -74t-85 -34
q34 -6 58 -31.5t24 -59.5z" />
    <glyph glyph-name="braceright.uc" horiz-adv-x="284" 
d="M113 414q0 41 50.5 117.5t50.5 113.5q0 65 -78 109l7 6q68 -21 106.5 -56t38.5 -77q0 -30 -29 -72t-58 -84.5t-29 -73.5q0 -64 89 -65l-4 -22q-64 -2 -91 -20.5t-27 -52.5q0 -24 29 -96t29 -98q0 -108 -201 -151l-5 7q128 49 128 138q0 26 -21 90t-21 88q0 46 33 74
t85 34q-34 6 -58 31.5t-24 59.5z" />
    <glyph glyph-name="bracketleft.uc" horiz-adv-x="269" 
d="M328 721h-79l-134 -789h79l-4 -27h-155l143 844h154z" />
    <glyph glyph-name="bracketright.uc" horiz-adv-x="269" 
d="M-23 -67h79l134 789h-79l4 27h155l-143 -844h-154z" />
    <glyph glyph-name="cacute.pl" horiz-adv-x="348" 
d="M262 432q59 0 100 -15l-34 -94h-5q-48 69 -75 69q-42 0 -86 -77t-44 -171q0 -44 12 -67t30 -23q47 0 133 86l10 -7q-31 -60 -78.5 -101.5t-102.5 -41.5q-41 0 -72.5 39t-31.5 104q0 120 75 209.5t169 89.5zM236 486l-8 2l52 224l79 -32z" />
    <glyph glyph-name="space_uni0326.alt" 
d="M202 553q0 43 34 86t83 68l10 -5q-58 -70 -76 -118q21 2 35 -9.5t14 -31.5t-13 -33t-34 -13q-24 0 -38.5 15t-14.5 41z" />
    <glyph glyph-name="divide.lin" horiz-adv-x="421" 
d="M62 276l8 42h336l-8 -42h-336zM152 141q0 21 15 36t37 15q23 0 37.5 -15t14.5 -36q0 -22 -14.5 -37t-37.5 -15q-22 0 -37 15t-15 37zM211 448q0 22 15 36.5t37 14.5t37 -14.5t15 -36.5t-15 -37t-37 -15t-37 15t-15 37z" />
    <glyph glyph-name="eight.den" horiz-adv-x="242" 
d="M135 299q42 0 66 -16.5t24 -41.5q0 -44 -78 -75q30 -32 42.5 -51.5t12.5 -41.5q0 -34 -30 -56.5t-82 -22.5q-47 0 -73 18t-26 45t23.5 46t64.5 37q-48 48 -48 85q0 33 29 53.5t75 20.5zM138 58q0 23 -46 69q-41 -32 -41 -64q0 -16 11 -27.5t31 -11.5q21 0 33 9.5t12 24.5
zM93 243q0 -3 0.5 -6t1.5 -6t2 -5.5t4 -6t4.5 -6t5.5 -7.5t6.5 -8t8.5 -9.5t10 -10.5v-1q32 32 32 59q0 15 -10 25t-27 10q-38 0 -38 -28z" />
    <glyph glyph-name="eight.lin" horiz-adv-x="445" 
d="M284 671q80 0 124.5 -37.5t44.5 -87.5q0 -53 -39.5 -94.5t-111.5 -82.5q42 -53 59 -76t33.5 -59t16.5 -69q0 -77 -58 -126.5t-145 -49.5q-86 0 -136 42t-50 101t44 106t129 93q-50 59 -71.5 99t-21.5 87q0 68 54 111t128 43zM312 135q0 37 -19.5 69t-78.5 105
q-100 -78 -100 -171q0 -44 25.5 -74t69.5 -30q45 0 74 29.5t29 71.5zM198 547q0 -11 1.5 -21t6.5 -21t8 -18t13 -21l15 -21t20.5 -26t22.5 -28q81 71 81 150q0 36 -21.5 62t-60.5 26q-36 0 -61 -22.5t-25 -59.5z" />
    <glyph glyph-name="eight.num" horiz-adv-x="242" 
d="M193 668q43 0 67 -16.5t24 -41.5q0 -39 -77 -75q30 -32 42 -51.5t12 -41.5q0 -32 -30.5 -55.5t-81.5 -23.5q-47 0 -73 18t-26 45q0 26 25.5 47.5t62.5 35.5q-48 49 -48 85q0 33 29 53.5t74 20.5zM197 428q0 22 -47 68q-40 -32 -40 -64q0 -15 11 -26.5t31 -11.5
q21 0 33 9.5t12 24.5zM152 612q0 -12 9 -24.5t34 -39.5v-1q31 29 31 58q0 15 -9.5 25t-27.5 10q-37 0 -37 -28z" />
    <glyph glyph-name="eight.sub" horiz-adv-x="242" 
d="M114 192q43 0 67 -16.5t24 -41.5q0 -39 -77 -75q30 -32 42 -51.5t12 -41.5q0 -32 -30.5 -55.5t-81.5 -23.5q-47 0 -73 18t-26 45q0 26 25.5 47.5t62.5 35.5q-48 49 -48 85q0 33 29 53.5t74 20.5zM118 -48q0 22 -47 68q-40 -32 -40 -64q0 -15 11 -26.5t31 -11.5
q21 0 33 9.5t12 24.5zM73 136q0 -12 9 -24.5t34 -39.5v-1q31 29 31 58q0 15 -9.5 25t-27.5 10q-37 0 -37 -28z" />
    <glyph glyph-name="eight.sup" horiz-adv-x="242" 
d="M203 721q43 0 67 -16.5t24 -41.5q0 -39 -77 -75q30 -32 42 -51.5t12 -41.5q0 -32 -30.5 -55.5t-81.5 -23.5q-47 0 -73 18t-26 45q0 26 25.5 47.5t62.5 35.5q-48 50 -48 85q0 33 29 53.5t74 20.5zM207 481q0 22 -47 68q-40 -32 -40 -64q0 -15 11 -26.5t31 -11.5
q21 0 33 9.5t12 24.5zM162 665q0 -12 9 -24.5t34 -39.5v-1q31 29 31 58q0 15 -9.5 25t-27.5 10q-37 0 -37 -28z" />
    <glyph glyph-name="emdash.uc" horiz-adv-x="683" 
d="M71 289l9 42h589l-9 -42h-589z" />
    <glyph glyph-name="endash.uc" horiz-adv-x="435" 
d="M80 331h341l-10 -42h-340z" />
    <glyph glyph-name="equal.lin" horiz-adv-x="423" 
d="M59 224l8 39h314l-8 -39h-314zM77 320l7 39h315l-8 -39h-314z" />
    <glyph glyph-name="exclamdown.uc" horiz-adv-x="219" 
d="M146 455h15q-5 -53 -23 -236t-20 -219h-112q25 66 140 455zM186 557q-25 0 -41.5 16t-16.5 42q0 24 16.5 40.5t41.5 16.5q26 0 42 -16.5t16 -40.5q0 -26 -16 -42t-42 -16z" />
    <glyph glyph-name="f.short" horiz-adv-x="282" 
d="M57 60q11 65 25.5 168.5t20.5 142.5h-78v5l31 42h54q3 24 14 86q14 94 72.5 154t138.5 60q59 0 100 -17l-38 -75h-2q-57 50 -83 50q-27 0 -50 -35t-35 -98q-5 -24 -22 -125h119l-34 -47h-93q-48 -299 -58 -353q-8 -39 -17 -70t-28.5 -70t-45 -66t-68 -47t-95.5 -23
l-14 73h1q11 -1 37 -4.5t37 -3.5q44 0 65 47.5t46 205.5z" />
    <glyph glyph-name="f_f.short" horiz-adv-x="501" 
d="M424 418h119l-33 -47h-94q-9 -55 -27.5 -168.5t-26.5 -160.5q-47 -262 -248 -277l-14 71l2 1q47 -7 68 -7q41 0 64 50.5t46 203.5q7 47 20.5 142.5t21.5 144.5h-125q-10 -59 -29.5 -182t-27.5 -171q-46 -264 -254 -276l-14 73h1q11 -1 36.5 -4.5t36.5 -3.5q30 0 48 19.5
t32.5 72.5t30.5 161q11 67 26.5 175t19.5 136h-79v5l30 42h56l11 70q15 94 75.5 154t149.5 60q56 0 101 -17q49 33 108 33q60 0 99 -17l-37 -75h-2q-57 50 -83 50q-27 0 -50 -35t-35 -98zM204 418h126q4 28 14 86q12 79 54 133q-38 24 -75 24q-74 0 -100 -134z" />
    <glyph glyph-name="five.den" horiz-adv-x="205" 
d="M203 293l-30 -57h-99l-14 -31q54 -11 82.5 -35t28.5 -57q0 -42 -47.5 -75t-139.5 -47l-3 9q114 52 114 93q0 38 -83 53q2 5 29.5 70t31.5 77h130z" />
    <glyph glyph-name="five.num" horiz-adv-x="204" 
d="M261 662l-30 -57h-99l-14 -31q54 -11 82.5 -35t28.5 -57q0 -42 -47.5 -75t-139.5 -47l-3 9q114 52 114 93q0 38 -83 53q2 5 29.5 70t31.5 77h130z" />
    <glyph glyph-name="five.lin" horiz-adv-x="383" 
d="M406 662l-48 -89h-176l-34 -85q89 -31 148 -86t59 -128q0 -95 -94 -172.5t-259 -121.5l-4 11q244 141 244 257q0 51 -47.5 90t-117.5 64l102 260h227z" />
    <glyph glyph-name="five.sub" horiz-adv-x="205" 
d="M182 186l-30 -57h-99l-14 -31q54 -11 82.5 -35t28.5 -57q0 -42 -47.5 -75t-139.5 -47l-3 9q114 52 114 93q0 38 -83 53q2 5 29.5 70t31.5 77h130z" />
    <glyph glyph-name="five.sup" horiz-adv-x="205" 
d="M271 715l-30 -57h-99l-14 -31q54 -11 82.5 -35t28.5 -57q0 -42 -47.5 -75t-139.5 -47l-3 9q114 52 114 93q0 38 -83 53q2 5 29.5 70t31.5 77h130z" />
    <glyph glyph-name="four.den" horiz-adv-x="253" 
d="M190 4l-1 -4h-128l1 4l36 28l8 43h-120l2 9l173 210h54l-34 -178h53l-25 -41h-36l-8 -43zM114 116l20 106l-89 -106h69z" />
    <glyph glyph-name="four.lin" horiz-adv-x="484" 
d="M396 6l-1 -6h-233l1 6l74 51l21 131h-250l2 11l385 469h48l-68 -408h108l-43 -72h-77l-22 -131zM270 260l40 239l-196 -239h156z" />
    <glyph glyph-name="four.num" horiz-adv-x="254" 
d="M249 373l-1 -4h-128l1 4l36 28l8 44h-120l2 9l173 209h54l-34 -177h52l-24 -41h-36l-8 -44zM173 486l20 105l-89 -105h69z" />
    <glyph glyph-name="four.sub" horiz-adv-x="253" 
d="M170 -103l-1 -4h-128l1 4l36 28l8 44h-120l2 9l173 209h54l-34 -177h52l-24 -41h-36l-8 -44zM94 10l20 105l-89 -105h69z" />
    <glyph glyph-name="four.sup" horiz-adv-x="253" 
d="M259 426l-1 -4h-128l1 4l36 28l8 44h-120l2 9l173 209h54l-34 -177h52l-24 -41h-36l-8 -44zM183 539l20 105l-89 -105h69z" />
    <glyph glyph-name="greater.lin" horiz-adv-x="395" 
d="M379 319l-8 -42l-324 -134l9 46l271 110l-230 110l8 42z" />
    <glyph glyph-name="guillemotleft.uc" horiz-adv-x="389" 
d="M309 121l-114 169l1 2l176 163l7 -6l-104 -166l42 -159zM161 121l-114 169v2l177 163l7 -6l-104 -166l42 -159z" />
    <glyph glyph-name="guillemotright.uc" horiz-adv-x="389" 
d="M103 455l114 -169l-1 -2l-176 -163l-7 6l104 166l-42 159zM251 455l114 -169v-2l-177 -163l-7 6l104 166l-42 159z" />
    <glyph glyph-name="guilsinglleft.uc" horiz-adv-x="240" 
d="M47 290l1 2l176 163l7 -6l-100 -166l38 -159l-8 -3z" />
    <glyph glyph-name="guilsinglright.uc" horiz-adv-x="240" 
d="M216 286l-1 -2l-176 -163l-7 6l100 166l-38 159l8 3z" />
    <glyph glyph-name="hyphen.uc" horiz-adv-x="257" 
d="M83 346h162l-15 -77h-164z" />
    <glyph glyph-name="idotaccent" horiz-adv-x="234" 
d="M95 344l-54 34l1 7q137 44 164 50l-71 -374l58 -38v-5q-57 -12 -167 -27zM180 632q23 0 38.5 -15.5t15.5 -37.5t-15.5 -37.5t-38.5 -15.5q-22 0 -37.5 15.5t-15.5 37.5t15.5 37.5t37.5 15.5z" />
    <glyph glyph-name="less.lin" horiz-adv-x="395" 
d="M61 275l8 42l324 134l-9 -46l-272 -111l231 -109l-8 -42z" />
    <glyph glyph-name="minus.lin" 
d="M60 276l7 42h316l-8 -42h-315z" />
    <glyph glyph-name="multiply.lin" horiz-adv-x="363" 
d="M174 298l-88 134l37 25l83 -129l134 129l29 -29l-140 -134l89 -137l-35 -22l-86 128l-134 -128l-29 28z" />
    <glyph glyph-name="nacute.pl" horiz-adv-x="468" 
d="M276 486l-8 2l52 224l79 -32zM24 0l70 345l-53 33v7q113 38 168 50l-34 -161q131 158 212 158q25 0 39.5 -13t9.5 -37q0 -14 -70 -321l56 -36v-7q-47 -11 -167 -27q77 344 77 348q2 11 -10 11q-39 0 -158 -128l-46 -222h-94z" />
    <glyph glyph-name="nine.den" horiz-adv-x="262" 
d="M21 1q146 87 146 209q0 28 -9.5 44.5t-21.5 16.5q-17 0 -33 -20.5t-16 -49.5q0 -43 42 -43q4 0 10 2l3 -5q-22 -34 -64 -34q-28 0 -45 20t-17 51q0 44 36 75.5t85 31.5q45 0 73 -29t28 -78q0 -79 -61.5 -130.5t-151.5 -69.5z" />
    <glyph glyph-name="nine.num" horiz-adv-x="262" 
d="M79 370q146 87 146 209q0 28 -9.5 44.5t-21.5 16.5q-17 0 -33 -20.5t-16 -49.5q0 -43 42 -43q4 0 10 2l3 -5q-22 -34 -64 -34q-28 0 -45 20t-17 51q0 44 36 75.5t85 31.5q45 0 73 -29t28 -78q0 -79 -61.5 -130.5t-151.5 -69.5z" />
    <glyph glyph-name="nine.lin" horiz-adv-x="489" 
d="M46 -1q52 27 97.5 59.5t88 76.5t73 93.5t48.5 112t18 130.5q0 73 -22.5 116.5t-55.5 43.5q-41 0 -77 -50.5t-36 -120.5q0 -54 25.5 -85t70.5 -31q26 0 42 7l2 -6q-47 -56 -118 -56q-60 0 -95.5 44t-35.5 112q0 95 70.5 162t152.5 67q81 0 134.5 -61.5t53.5 -159.5
q0 -76 -27 -145.5t-70.5 -121t-100.5 -93t-116 -67t-118 -37.5z" />
    <glyph glyph-name="nine.sub" horiz-adv-x="262" 
d="M0 -106q146 87 146 209q0 28 -9.5 44.5t-21.5 16.5q-17 0 -33 -20.5t-16 -49.5q0 -43 42 -43q4 0 10 2l3 -5q-22 -34 -64 -34q-28 0 -45 20t-17 51q0 44 36 75.5t85 31.5q45 0 73 -29t28 -78q0 -79 -61.5 -130.5t-151.5 -69.5z" />
    <glyph glyph-name="nine.sup" horiz-adv-x="262" 
d="M89 423q146 87 146 209q0 28 -9.5 44.5t-21.5 16.5q-17 0 -33 -20.5t-16 -49.5q0 -43 42 -43q4 0 10 2l3 -5q-22 -34 -64 -34q-28 0 -45 20t-17 51q0 44 36 75.5t85 31.5q45 0 73 -29t28 -78q0 -79 -61.5 -130.5t-151.5 -69.5z" />
    <glyph glyph-name="oacute.pl" horiz-adv-x="421" 
d="M175 -11q-65 0 -110 46t-45 120q0 111 71 194t159 83q62 0 107 -45.5t45 -115.5q0 -120 -71 -201t-156 -81zM179 27q43 0 82.5 80t39.5 179q0 52 -15 79.5t-38 27.5q-46 0 -86 -80t-40 -172q0 -55 15 -84.5t42 -29.5zM231 486l-8 2l52 224l79 -32z" />
    <glyph glyph-name="one.den" horiz-adv-x="168" 
d="M-18 0v5l38 27l40 204l-31 21v4l112 41l-51 -270l25 -27v-5h-133z" />
    <glyph glyph-name="one.num" horiz-adv-x="168" 
d="M40 369v5l38 27l40 204l-31 21v4l112 41l-51 -270l25 -27v-5h-133z" />
    <glyph glyph-name="one.lin" horiz-adv-x="296" 
d="M-9 0l1 6l77 51l85 513l-65 32l1 5q52 22 189 69l-103 -619l59 -51l-1 -6h-243z" />
    <glyph glyph-name="one.sub" horiz-adv-x="168" 
d="M-39 -107v5l38 27l40 204l-31 21v4l112 41l-51 -270l25 -27v-5h-133z" />
    <glyph glyph-name="one.sup" horiz-adv-x="168" 
d="M50 422v5l38 27l40 204l-31 21v4l112 41l-51 -270l25 -27v-5h-133z" />
    <glyph glyph-name="two.den" horiz-adv-x="231" 
d="M163 0h-188l1 11q87 87 118 127.5t31 70.5q0 20 -12 30.5t-31 10.5q-29 0 -50 -18l-6 5q30 62 97 62q34 0 55 -20.5t21 -53.5q0 -41 -36 -78t-116 -92h152z" />
    <glyph glyph-name="three.den" horiz-adv-x="203" 
d="M23 151q39 21 58 38t19 36q0 30 -34 30q-15 0 -37 -13l-6 5q30 52 88 52q26 0 41.5 -14t15.5 -36q0 -43 -67 -68q31 -2 50.5 -19.5t19.5 -45.5q0 -45 -45 -79.5t-145 -43.5l-3 8q116 47 116 102q0 40 -50 40q-8 0 -18 -2z" />
    <glyph glyph-name="parenleft.uc" horiz-adv-x="320" 
d="M380 761l9 -6q-48 -60 -81.5 -110.5t-69 -121t-54 -153.5t-18.5 -174q0 -145 55 -298l-11 -4q-33 47 -55 86t-45 111.5t-23 146.5q0 86 26.5 168t71 147.5t92.5 115.5t103 92z" />
    <glyph glyph-name="parenright.uc" horiz-adv-x="320" 
d="M-32 -106l-9 6q48 60 81.5 110.5t69 121t54 153.5t18.5 174q0 145 -55 298l11 4q33 -47 55 -86t45 -111.5t23 -146.5q0 -86 -26.5 -168t-71 -147.5t-92.5 -115.5t-103 -92z" />
    <glyph glyph-name="plus.lin" horiz-adv-x="432" 
d="M68 318h150l32 171h48l-32 -171h150l-7 -42h-150l-32 -174h-48l32 174h-150z" />
    <glyph glyph-name="questiondown.uc" horiz-adv-x="321" 
d="M84 246q12 10 42.5 34.5t44.5 35.5q34 30 43 66l17 73h12q15 -96 15 -120q0 -21 -8 -36.5t-31 -38.5l-75 -72q-50 -50 -50 -96q0 -28 14 -44.5t36 -16.5q29 0 62 28.5t57 59.5h8l-24 -119q-27 -10 -97 -10q-72 0 -110 30t-38 82q0 72 82 144zM256 557q-25 0 -41.5 16
t-16.5 42q0 24 16.5 40.5t41.5 16.5q26 0 42 -16.5t16 -40.5q0 -26 -16 -42t-42 -16z" />
    <glyph glyph-name="sacute.pl" horiz-adv-x="297" 
d="M189 432q34 0 99 -17l-25 -88h-5q-39 69 -75 69q-15 0 -25.5 -10t-10.5 -28q0 -21 21 -59q12 -22 34.5 -61t29.5 -52q22 -43 22 -81q0 -43 -35.5 -79t-101.5 -36q-59 0 -113 28q4 52 19 132h6q35 -119 91 -119q23 0 35 13t12 32q0 23 -20 61q-2 3 -61 107q-23 43 -23 80
q0 43 33.5 75.5t92.5 32.5zM186 486l-8 2l52 224l79 -32z" />
    <glyph glyph-name="seven.den" horiz-adv-x="223" 
d="M48 293h179v-4l-166 -288h-41l136 235h-141z" />
    <glyph glyph-name="seven.num" horiz-adv-x="223" 
d="M107 662h179v-4l-166 -288h-41l136 235h-141z" />
    <glyph glyph-name="seven.lin" horiz-adv-x="426" 
d="M121 662h350l-1 -5l-338 -657h-59l295 574h-297z" />
    <glyph glyph-name="seven.sub" horiz-adv-x="223" 
d="M27 186h179v-4l-166 -288h-41l136 235h-141z" />
    <glyph glyph-name="seven.sup" horiz-adv-x="223" 
d="M117 715h179v-4l-166 -288h-41l136 235h-141z" />
    <glyph glyph-name="six.den" horiz-adv-x="260" 
d="M235 292q-73 -38 -116 -92t-43 -118q0 -28 9.5 -43.5t21.5 -15.5q17 0 33.5 20.5t16.5 50.5q0 44 -39 42q-6 0 -12 -2l-2 6q4 5 11 11.5t22 13t30 6.5q28 0 44.5 -18t16.5 -50q0 -46 -38 -77.5t-85 -31.5q-41 0 -70 28t-29 72q0 79 68 135t157 71z" />
    <glyph glyph-name="six.num" horiz-adv-x="260" 
d="M293 661q-73 -38 -116 -92t-43 -118q0 -28 9.5 -43.5t21.5 -15.5q17 0 33.5 20.5t16.5 50.5q0 43 -39 42q-6 0 -12 -2l-2 6q4 5 11 11.5t22 13t30 6.5q28 0 44.5 -18t16.5 -50q0 -46 -38 -77.5t-85 -31.5q-41 0 -70 28t-29 72q0 79 68 135t157 71z" />
    <glyph glyph-name="six.lin" horiz-adv-x="490" 
d="M502 666q-147 -72 -244 -194.5t-97 -283.5q0 -70 20 -111.5t50 -41.5q42 0 81.5 53.5t39.5 124.5q0 108 -93 108q-32 0 -45 -8l-3 6q11 17 46 37t77 20q57 0 91.5 -39t34.5 -105q0 -101 -72 -170.5t-157 -69.5q-78 0 -129.5 59.5t-51.5 154.5q0 93 42 176.5t109 141.5
t144 97t153 55z" />
    <glyph glyph-name="six.sub" horiz-adv-x="260" 
d="M214 185q-73 -38 -116 -92t-43 -118q0 -28 9.5 -43.5t21.5 -15.5q17 0 33.5 20.5t16.5 50.5q0 43 -39 42q-6 0 -12 -2l-2 6q4 5 11 11.5t22 13t30 6.5q28 0 44.5 -18t16.5 -50q0 -46 -38 -77.5t-85 -31.5q-41 0 -70 28t-29 72q0 79 68 135t157 71z" />
    <glyph glyph-name="six.sup" horiz-adv-x="260" 
d="M303 714q-73 -38 -116 -92t-43 -118q0 -28 9.5 -43.5t21.5 -15.5q17 0 33.5 20.5t16.5 50.5q0 44 -39 42q-6 0 -12 -2l-2 6q4 5 11 11.5t22 13t30 6.5q28 0 44.5 -18t16.5 -50q0 -46 -38 -77.5t-85 -31.5q-41 0 -70 28t-29 72q0 79 68 135t157 71z" />
    <glyph glyph-name="slash.uc" horiz-adv-x="345" 
d="M412 739l-403 -845l-39 16l403 846z" />
    <glyph glyph-name="three.lin" horiz-adv-x="381" 
d="M96 353q77 51 115 92.5t38 88.5q0 32 -18 51t-50 19q-46 0 -86 -33l-8 6q19 37 57.5 66t96.5 29q53 0 83.5 -29t30.5 -79q0 -93 -145 -156q64 0 106 -37t42 -103q0 -100 -102 -177.5t-266 -106.5l-4 11q256 121 256 258q0 46 -27 69t-73 23q-34 0 -41 -4z" />
    <glyph glyph-name="three.num" horiz-adv-x="203" 
d="M82 520q77 43 77 74q0 30 -34 30q-21 0 -37 -13l-6 5q25 52 87 52q27 0 42.5 -14t15.5 -36q0 -44 -69 -68q32 -2 52 -19.5t20 -45.5q0 -45 -45 -79.5t-145 -43.5l-3 8q116 47 116 103q0 40 -50 40q-9 0 -19 -2z" />
    <glyph glyph-name="three.sub" horiz-adv-x="203" 
d="M3 44q77 43 77 74q0 30 -34 30q-21 0 -37 -13l-6 5q25 52 87 52q27 0 42.5 -14t15.5 -36q0 -44 -69 -68q32 -2 52 -19.5t20 -45.5q0 -45 -45 -79.5t-145 -43.5l-3 8q116 47 116 103q0 40 -50 40q-9 0 -19 -2z" />
    <glyph glyph-name="three.sup" horiz-adv-x="203" 
d="M92 573q77 43 77 74q0 30 -34 30q-21 0 -37 -13l-6 5q25 52 87 52q27 0 42.5 -14t15.5 -36q0 -44 -69 -68q32 -2 52 -19.5t20 -45.5q0 -45 -45 -79.5t-145 -43.5l-3 8q116 47 116 103q0 40 -50 40q-9 0 -19 -2z" />
    <glyph glyph-name="two.lin" horiz-adv-x="431" 
d="M393 187h6l-31 -187h-384l2 18q191 219 252.5 313t61.5 167q0 48 -25 74.5t-67 26.5q-62 0 -107 -45l-7 5q22 47 64.5 80t108.5 33q68 0 108.5 -41t40.5 -109q0 -38 -14 -75t-34 -69.5t-63 -78t-81.5 -82t-107.5 -100.5q-16 -15 -24 -22h224z" />
    <glyph glyph-name="two.num" horiz-adv-x="231" 
d="M222 369h-188l1 11q87 87 118 127.5t31 70.5q0 20 -12 31t-31 11q-28 0 -50 -19l-6 5q28 62 97 62q34 0 55 -20.5t21 -53.5q0 -41 -36 -78t-116 -92h152z" />
    <glyph glyph-name="two.sub" horiz-adv-x="231" 
d="M143 -107h-188l1 11q87 87 118 127.5t31 70.5q0 20 -12 31t-31 11q-28 0 -50 -19l-6 5q28 62 97 62q34 0 55 -20.5t21 -53.5q0 -41 -36 -78t-116 -92h152z" />
    <glyph glyph-name="two.sup" horiz-adv-x="231" 
d="M232 422h-188l1 11q87 87 118 127.5t31 70.5q0 20 -12 31t-31 11q-28 0 -50 -19l-6 5q28 62 97 62q34 0 55 -20.5t21 -53.5q0 -41 -36 -78t-116 -92h152z" />
    <glyph glyph-name="zacute.pl" horiz-adv-x="358" 
d="M-15 10l279 341h-60q-85 0 -152 -10l-3 4l62 84l263 -10l-2 -9l-282 -336h52q96 0 181 18l3 -4l-68 -94l-275 6zM221 486l-8 2l52 224l79 -32z" />
    <glyph glyph-name="zero.den" horiz-adv-x="299" 
d="M9 115q0 74 50 129t112 55q45 0 73.5 -33.5t28.5 -87.5q0 -73 -50 -128.5t-109 -55.5q-48 0 -76.5 33.5t-28.5 87.5zM168 268q-27 0 -56 -51.5t-29 -115.5q0 -35 9 -55t24 -20q28 0 56 54t28 119q0 69 -32 69z" />
    <glyph glyph-name="zero.num" horiz-adv-x="299" 
d="M67 484q0 74 50 129t112 55q45 0 73.5 -33.5t28.5 -87.5q0 -73 -50 -128.5t-109 -55.5q-48 0 -76.5 33.5t-28.5 87.5zM226 637q-27 0 -56 -51.5t-29 -115.5q0 -35 9 -55t24 -20q28 0 56 54t28 119q0 69 -32 69z" />
    <glyph glyph-name="zero.lin" horiz-adv-x="568" 
d="M55 248q0 165 96 295t208 130q86 0 140.5 -74t54.5 -184q0 -169 -93.5 -297t-206.5 -128q-89 0 -144 73.5t-55 184.5zM359 627q-42 0 -86 -54t-73.5 -145.5t-29.5 -187.5q0 -94 23.5 -148.5t60.5 -54.5q43 0 86 54.5t72 147.5t29 193q0 90 -22.5 142.5t-59.5 52.5z" />
    <glyph glyph-name="zero.sub" horiz-adv-x="299" 
d="M-12 8q0 74 50 129t112 55q45 0 73.5 -33.5t28.5 -87.5q0 -73 -50 -128.5t-109 -55.5q-48 0 -76.5 33.5t-28.5 87.5zM147 161q-27 0 -56 -51.5t-29 -115.5q0 -35 9 -55t24 -20q28 0 56 54t28 119q0 69 -32 69z" />
    <glyph glyph-name="zero.sup" horiz-adv-x="299" 
d="M77 537q0 74 50 129t112 55q45 0 73.5 -33.5t28.5 -87.5q0 -73 -50 -128.5t-109 -55.5q-48 0 -76.5 33.5t-28.5 87.5zM236 690q-27 0 -56 -51.5t-29 -115.5q0 -35 9 -55t24 -20q28 0 56 54t28 119q0 69 -32 69z" />
    </font>
</defs>
</svg>
