<?xml version="1.0" standalone="no"?>
<!DOCTYPE svg PUBLIC "-//W3C//DTD SVG 1.1//EN" "http://www.w3.org/Graphics/SVG/1.1/DTD/svg11.dtd" >
<svg xmlns="http://www.w3.org/2000/svg" xmlns:xlink="http://www.w3.org/1999/xlink" version="1.1">
<metadata>
Created by FontForge 20170731 at Fri Jan  3 06:38:53 2014
 By Aleksey,,,
Copyright (c)2013 Commercial Type.
</metadata>
<defs>
<font id="Portrait-HeavyItalic" horiz-adv-x="400" >
  <font-face 
    font-family="Portrait Heavy"
    font-weight="900"
    font-style="italic"
    font-stretch="normal"
    units-per-em="1000"
    panose-1="0 0 0 0 0 0 0 0 0 0"
    ascent="730"
    descent="-270"
    x-height="452"
    cap-height="662"
    bbox="-152 -257 1129 1039"
    underline-thickness="34"
    underline-position="20"
    slope="-9"
    unicode-range="U+000D-FB04"
  />
<missing-glyph horiz-adv-x="157" 
 />
    <glyph glyph-name="f_b" unicode="fb" horiz-adv-x="748" 
d="M486 325q47 61 93.5 94.5t79.5 33.5t57 -35t24 -95q0 -134 -86 -231t-204 -97q-71 0 -114 37t-36 69l108 535q-37 27 -68 27q-10 0 -21.5 -9.5t-26 -38.5t-21.5 -72l-19 -105h99l-43 -66h-67q-11 -57 -31.5 -179.5t-27.5 -164.5q-7 -43 -25.5 -83.5t-50 -79.5
t-83.5 -66.5t-118 -34.5l-19 106l4 2q11 -2 32 -7t34.5 -7.5t24.5 -2.5q27 0 41.5 42.5t35.5 173.5q11 73 26 176.5t18 124.5h-82v5l40 61h52q2 8 4 24.5t3 24.5q17 115 86 173.5t162 58.5q95 0 189 -42zM576 347q-13 0 -42.5 -24.5t-60.5 -63.5q-7 -36 -17 -86.5t-13 -64.5
q-2 -12 -6 -31t-5 -23q8 -7 21 -7q45 0 91.5 84t46.5 175q0 41 -15 41z" />
    <glyph glyph-name="f_f_b" unicode="ffb" horiz-adv-x="986" 
d="M58 71q10 67 23.5 166.5t18.5 134.5h-83v5l40 61h52q2 26 4 32q15 114 85 173t164 59q56 0 108 -21q56 38 135 38q95 0 189 -42l-70 -352q47 61 93.5 94.5t79.5 33.5t57 -35t24 -95q0 -134 -86 -231t-204 -97q-71 0 -114 37t-36 69l108 535q-37 27 -68 27
q-10 0 -21.5 -9.5t-26 -38.5t-21.5 -72l-20 -105h100l-43 -66h-68l-57 -323q-7 -43 -24.5 -83t-47.5 -79t-79 -66t-110 -36l-18 99l4 2q50 -10 79 -10q22 0 37 44.5t35 171.5q21 147 42 280h-100q-52 -317 -57 -344q-9 -44 -27 -84t-49.5 -79.5t-83 -66.5t-117.5 -34
l-19 106l4 2q11 -2 32 -7t34.5 -7.5t24.5 -2.5q27 0 43 45t34 171zM814 347q-13 0 -42.5 -24.5t-60.5 -63.5q-7 -36 -17 -86.5t-13 -64.5q-2 -12 -6 -31t-5 -23q8 -7 21 -7q45 0 91.5 84t46.5 175q0 41 -15 41zM357 487q10 72 46 127q-49 32 -69 32q-18 0 -38 -29t-31 -91
l-15 -88h99q2 9 4.5 25t3.5 24z" />
    <glyph glyph-name="f_f_h" unicode="ffh" horiz-adv-x="1015" 
d="M58 71q10 67 23.5 166.5t18.5 134.5h-83v5l40 61h52q2 26 4 32q15 114 85 173t164 59q56 0 108 -21q56 38 135 38q99 0 189 -42l-75 -377q126 153 214 153q30 0 50 -19t10 -60l-69 -298l53 -54v-6q-69 -13 -215 -26q1 2 20.5 86.5t39 167t19.5 81.5q2 17 -5 17
q-26 0 -130 -108l-46 -234h-142l127 637q-37 26 -67 26q-10 0 -21.5 -9.5t-26 -38.5t-21.5 -72l-20 -105h100l-43 -66h-68l-57 -323q-7 -43 -24.5 -83t-47.5 -79t-79 -66t-110 -36l-18 99l4 2q50 -10 79 -10q22 0 37 44.5t35 171.5q21 147 42 280h-100q-52 -317 -57 -344
q-9 -44 -27 -84t-49.5 -79.5t-83 -66.5t-117.5 -34l-19 106l4 2q11 -2 32 -7t34.5 -7.5t24.5 -2.5q27 0 43 45t34 171zM250 438h99q2 9 4.5 25t3.5 24q10 72 46 127q-49 32 -69 32q-18 0 -38 -29t-31 -91z" />
    <glyph glyph-name="f_f_j" unicode="ffj" horiz-adv-x="748" 
d="M489 438h194l64 18l-88 -431q-10 -57 -77 -136.5t-157 -137.5l-7 4q75 150 99 265l72 352h-111l-57 -323q-7 -43 -24.5 -83t-47.5 -79t-79 -66t-110 -36l-18 99l4 2q50 -10 79 -10q22 0 37 44.5t35 171.5q21 147 42 280h-100q-52 -317 -57 -344q-9 -44 -27 -84
t-49.5 -79.5t-83 -66.5t-117.5 -34l-19 106l4 2q11 -2 32 -7t34.5 -7.5t24.5 -2.5q27 0 43 45t34 171q10 67 23.5 166.5t18.5 134.5h-83v5l40 61h52q2 26 4 32q15 114 85 173t164 59q56 0 108 -21q56 38 135 38q29 0 58 -3.5t45.5 -7.5t33.5 -9l17 -5l-51 -115h-5
q-90 84 -121 84q-19 0 -40 -29.5t-33 -90.5zM250 438h99q2 9 4.5 25t3.5 24q10 72 46 127q-49 32 -69 32q-18 0 -38 -29t-31 -91z" />
    <glyph glyph-name="f_f_k" unicode="ffk" horiz-adv-x="960" 
d="M578 663q-10 0 -21.5 -9.5t-25 -38t-22.5 -72.5l-20 -105h100l-43 -66h-68l-57 -323q-7 -43 -24.5 -83t-47.5 -79t-79 -66t-110 -36l-18 99l4 2q50 -10 79 -10q22 0 37 44.5t35 171.5q21 147 42 280h-100q-52 -317 -57 -344q-9 -44 -27 -84t-49.5 -79.5t-83 -66.5
t-117.5 -34l-19 106l4 2q11 -2 32 -7t34.5 -7.5t24.5 -2.5q27 0 43 45t34 171q10 67 23.5 166.5t18.5 134.5h-83v5l40 61h52q2 26 4 32q15 114 85 173t164 59q56 0 108 -21q56 38 135 38q99 0 189 -42l-134 -677h-143l128 637q-37 26 -67 26zM715 205q104 104 104 148
q0 23 -26 46l3 6l131 49q31 -37 31 -63q0 -25 -24 -53t-106 -83q100 -225 118 -255l-1 -6q-101 2 -124 9q-38 11 -60 58q-16 34 -47 136zM250 438h99q2 9 4.5 25t3.5 24q10 72 46 127q-49 32 -69 32q-18 0 -38 -29t-31 -91z" />
    <glyph glyph-name="f_h" unicode="fh" horiz-adv-x="777" 
d="M603 325q2 17 -5 17q-26 0 -130 -108l-46 -234h-142l127 637q-37 26 -67 26q-10 0 -21.5 -9.5t-26 -38.5t-21.5 -72l-19 -105h99l-43 -66h-67q-11 -57 -31.5 -179.5t-27.5 -164.5q-7 -43 -25.5 -83.5t-50 -79.5t-83.5 -66.5t-118 -34.5l-19 106l4 2q11 -2 32 -7
t34.5 -7.5t24.5 -2.5q27 0 41.5 42.5t35.5 173.5q11 73 26 176.5t18 124.5h-82v5l40 61h52q2 8 4 24.5t3 24.5q17 115 86 173.5t162 58.5q99 0 189 -42l-75 -377q126 153 214 153q30 0 50 -19t10 -60l-69 -298l53 -54v-6q-69 -13 -215 -26q1 2 20.5 86.5t39 167t19.5 81.5z
" />
    <glyph glyph-name="f_j" unicode="fj" horiz-adv-x="510" 
d="M58 71q11 73 26 176.5t18 124.5h-82v5l40 61h52q2 8 4 24.5t3 24.5q17 115 86 173.5t162 58.5q29 0 58 -3.5t45.5 -7.5t33.5 -9l17 -5l-51 -115h-5q-90 84 -121 84q-19 0 -40 -29.5t-33 -90.5q-16 -85 -19 -105h193l64 18l-88 -431q-10 -57 -77 -136.5t-157 -137.5l-7 4
q75 150 99 265l72 352h-110q-20 -121 -59 -344q-7 -43 -25.5 -83.5t-50 -79.5t-83.5 -66.5t-118 -34.5l-19 106l4 2q11 -2 32 -7t34.5 -7.5t24.5 -2.5q27 0 41.5 42.5t35.5 173.5z" />
    <glyph glyph-name="f_k" unicode="fk" horiz-adv-x="722" 
d="M422 0h-143l128 637q-37 26 -67 26q-10 0 -21.5 -9.5t-26 -38.5t-21.5 -72l-19 -105h99l-43 -66h-67q-11 -57 -31.5 -179.5t-27.5 -164.5q-7 -43 -25.5 -83.5t-50 -79.5t-83.5 -66.5t-118 -34.5l-19 106l4 2q11 -2 32 -7t34.5 -7.5t24.5 -2.5q27 0 41.5 42.5t35.5 173.5
q11 73 26 176.5t18 124.5h-82v5l40 61h52q2 8 4 24.5t3 24.5q17 115 86 173.5t162 58.5q99 0 189 -42zM477 205q104 104 104 148q0 23 -26 46l3 6l131 49q31 -37 31 -63q0 -25 -24 -53t-106 -83q100 -225 118 -255l-1 -6q-101 2 -124 9q-38 11 -60 58q-16 34 -47 136z" />
    <glyph glyph-name="f_f" unicode="ff" horiz-adv-x="562" 
d="M17 377l40 61h52q2 26 4 32q15 114 85 173t164 59q56 0 108 -21q56 38 135 38q80 0 143 -21l-48 -108h-5q-83 73 -118 73q-18 0 -37 -29.5t-31 -90.5l-20 -105h118l-39 -66h-90l-57 -323q-7 -43 -24.5 -83t-47.5 -79t-79 -66t-110 -36l-18 99l4 2q50 -10 79 -10
q22 0 37 44.5t35 171.5q21 147 42 280h-100q-52 -317 -57 -344q-9 -44 -27 -84t-49.5 -79.5t-83 -66.5t-117.5 -34l-19 106l4 2q11 -2 32 -7t34.5 -7.5t24.5 -2.5q27 0 43 45t34 171q10 67 23.5 166.5t18.5 134.5h-83v5zM357 487q12 76 46 127q-49 32 -69 32q-18 0 -38 -29
t-31 -91l-15 -88h99q2 9 4.5 25t3.5 24z" />
    <glyph glyph-name="f_i" unicode="fi" horiz-adv-x="521" 
d="M58 71q11 73 26 176.5t18 124.5h-82v5l40 61h52q2 8 4 24.5t3 24.5q17 115 86 173.5t162 58.5q29 0 58 -3.5t45.5 -7.5t33.5 -9l17 -5l-51 -115h-5q-90 84 -121 84q-19 0 -40 -29.5t-33 -90.5q-16 -85 -19 -105h193l64 18l-76 -380l55 -54v-6q-77 -14 -214 -26l77 382
h-110q-20 -121 -59 -344q-7 -43 -25.5 -83.5t-50 -79.5t-83.5 -66.5t-118 -34.5l-19 106l4 2q11 -2 32 -7t34.5 -7.5t24.5 -2.5q27 0 41.5 42.5t35.5 173.5z" />
    <glyph glyph-name="f_l" unicode="fl" horiz-adv-x="526" 
d="M-114 -130l4 2q11 -2 32 -7t34.5 -7.5t24.5 -2.5q27 0 41.5 42.5t35.5 173.5q11 73 26 176.5t18 124.5h-82v5l40 61h52q2 8 4 24.5t3 24.5q17 115 86 173.5t162 58.5q100 0 190 -42l-122 -601l53 -54v-6q-54 -11 -213 -26l133 646q-37 27 -68 27q-10 0 -21.5 -9.5
t-26 -38.5t-21.5 -72l-19 -105h99l-43 -66h-67q-11 -57 -31.5 -179.5t-27.5 -164.5q-7 -43 -25.5 -83.5t-50 -79.5t-83.5 -66.5t-118 -34.5z" />
    <glyph glyph-name="f_f_i" unicode="ffi" horiz-adv-x="759" 
d="M489 438h194l64 18l-76 -380l55 -54v-6q-77 -14 -214 -26l77 382h-111l-57 -323q-7 -43 -24.5 -83t-47.5 -79t-79 -66t-110 -36l-18 99l4 2q50 -10 79 -10q22 0 37 44.5t35 171.5q21 147 42 280h-100q-52 -317 -57 -344q-9 -44 -27 -84t-49.5 -79.5t-83 -66.5t-117.5 -34
l-19 106l4 2q11 -2 32 -7t34.5 -7.5t24.5 -2.5q27 0 43 45t34 171q10 67 23.5 166.5t18.5 134.5h-83v5l40 61h52q2 26 4 32q15 114 85 173t164 59q56 0 108 -21q56 38 135 38q29 0 58 -3.5t45.5 -7.5t33.5 -9l17 -5l-51 -115h-5q-90 84 -121 84q-19 0 -40 -29.5t-33 -90.5z
M250 438h99q2 9 4.5 25t3.5 24q10 72 46 127q-49 32 -69 32q-18 0 -38 -29t-31 -91z" />
    <glyph glyph-name="f_f_l" unicode="ffl" horiz-adv-x="764" 
d="M58 71q10 67 23.5 166.5t18.5 134.5h-83v5l40 61h52q2 26 4 32q15 114 85 173t164 59q56 0 108 -21q56 38 135 38q100 0 190 -42l-122 -601l53 -54v-6q-54 -11 -213 -26l133 646q-37 27 -68 27q-10 0 -21.5 -9.5t-26 -38.5t-21.5 -72l-20 -105h100l-43 -66h-68l-57 -323
q-7 -43 -24.5 -83t-47.5 -79t-79 -66t-110 -36l-18 99l4 2q50 -10 79 -10q22 0 37 44.5t35 171.5q21 147 42 280h-100q-52 -317 -57 -344q-9 -44 -27 -84t-49.5 -79.5t-83 -66.5t-117.5 -34l-19 106l4 2q11 -2 32 -7t34.5 -7.5t24.5 -2.5q27 0 43 45t34 171zM357 487
q10 72 46 127q-49 32 -69 32q-18 0 -38 -29t-31 -91l-15 -88h99q2 9 4.5 25t3.5 24z" />
    <glyph glyph-name="g_y" unicode="gy" horiz-adv-x="873" 
d="M32 293q0 69 64 115.5t140 46.5q40 0 76 -15h159l-32 -61h-67q26 -23 26 -56q0 -64 -65.5 -112.5t-142.5 -48.5q-12 0 -15 1q-21 -21 -21 -34q0 -15 37 -34q67 -35 145 -77q69 -38 69 -86q0 -70 -74 -123.5t-186 -53.5q-74 0 -130 17t-79 36.5t-23 35.5q0 27 42.5 64
t145.5 80l-4 2q-70 36 -70 71q0 22 35 55.5t73 53.5q-46 15 -74.5 47t-28.5 76zM759 351q0 25 -28 45v6l124 45q32 -28 32 -58q0 -8 -2 -16.5t-8 -20.5t-12 -23t-18 -28.5t-23 -32.5t-30.5 -40.5t-35.5 -47t-43.5 -57t-49.5 -64.5q-56 -76 -104.5 -163.5t-62.5 -138.5
l-155 19v6q105 79 208 199q-24 293 -34 369l-47 47l2 7q12 5 42.5 14t69 20.5t57.5 17.5q3 -26 26 -315q92 168 92 210zM253 -88q-22 10 -58.5 28.5t-58.5 29.5q-85 -50 -85 -96q0 -25 30.5 -42.5t75.5 -17.5q44 0 75.5 11.5t44 25t12.5 25.5q0 19 -36 36zM233 411
q-22 0 -45 -40t-23 -93q0 -30 9.5 -49t19.5 -19q31 0 50 45t19 93q0 28 -9 45.5t-21 17.5z" />
    <glyph glyph-name=".notdef" horiz-adv-x="157" 
 />
    <glyph glyph-name=".null" horiz-adv-x="0" 
 />
    <glyph glyph-name="nonmarkingreturn" horiz-adv-x="333" 
 />
    <glyph glyph-name="NULL" horiz-adv-x="0" 
 />
    <glyph glyph-name="NULL" horiz-adv-x="0" 
 />
    <glyph glyph-name="CR" unicode="&#xd;" horiz-adv-x="157" 
 />
    <glyph glyph-name="space" unicode=" " horiz-adv-x="157" 
 />
    <glyph glyph-name="exclam" unicode="!" horiz-adv-x="239" 
d="M111 199h-20q3 48 13.5 217t15.5 246h165q-96 -267 -174 -463zM79 137q33 0 54.5 -21.5t21.5 -53.5t-21.5 -53.5t-54.5 -21.5t-54.5 21.5t-21.5 53.5t21.5 53.5t54.5 21.5z" />
    <glyph glyph-name="quotedbl" unicode="&#x22;" horiz-adv-x="347" 
d="M325 694q26 0 40 -16t14 -41q0 -23 -12 -55t-25.5 -57.5t-52.5 -97.5h-14q-11 178 -11 190q0 36 16.5 56.5t44.5 20.5zM172 694q26 0 40 -16t14 -41q0 -23 -12 -55t-25.5 -57.5t-52.5 -97.5h-14q-11 178 -11 190q0 36 16.5 56.5t44.5 20.5z" />
    <glyph glyph-name="numbersign" unicode="#" horiz-adv-x="453" 
d="M376 420l-52 -133h75l-10 -52h-85l-92 -235h-59l92 235h-80l-91 -235h-60l92 235h-77l10 52h87l52 133h-76l9 52h88l74 190h59l-74 -190h80l74 190h59l-74 -190h76l-9 -52h-88zM186 287h79l52 133h-79z" />
    <glyph glyph-name="dollar" unicode="$" horiz-adv-x="466" 
d="M318 672l20 72h53l-20 -75q40 -3 90 -11l-31 -177h-8q-38 73 -74 106l-46 -172l12 -15q66 -89 90 -135t24 -88q0 -79 -64.5 -133t-162.5 -54h-13l-23 -86h-53l24 92q-79 14 -125 46q14 120 36 223h8q43 -143 104 -186l53 199q-1 2 -4 5.5t-4 5.5q-68 87 -90 131.5
t-22 85.5q0 74 59.5 120t153.5 46h13zM290 139q0 33 -39 87l-43 -162q35 1 58.5 20.5t23.5 54.5zM226 549q0 -29 37 -82l38 142q-3 1 -11 1q-27 0 -45.5 -16.5t-18.5 -44.5z" />
    <glyph glyph-name="percent" unicode="%" horiz-adv-x="704" 
d="M539 304q64 0 102 -38.5t38 -106.5t-44.5 -117.5t-111.5 -49.5q-64 0 -102 38.5t-38 106.5t44.5 117.5t111.5 49.5zM219 670q64 0 102 -38.5t38 -106.5t-44.5 -117.5t-111.5 -49.5q-64 0 -102 38.5t-38 106.5t44.5 117.5t111.5 49.5zM596 662h76l-520 -662h-76zM130 503
q0 -39 20.5 -64.5t52.5 -25.5q39 0 64 33t25 79q0 39 -20.5 64.5t-52.5 25.5q-39 0 -64 -33t-25 -79zM612 159q0 39 -20.5 64.5t-52.5 25.5q-39 0 -64 -33t-25 -79q0 -39 20.5 -64.5t52.5 -25.5q39 0 64 33t25 79z" />
    <glyph glyph-name="ampersand" unicode="&#x26;" horiz-adv-x="639" 
d="M682 434q-39 -22 -70 -53t-50 -59.5t-64 -99.5q-8 -12 -12 -19l-21 -33q83 -128 159 -188l-1 -6q-93 0 -148 14t-90 47l-15 14q-72 -66 -173 -66q-86 0 -136.5 48.5t-50.5 122.5q0 72 50 124.5t123 79.5q-38 81 -38 133q0 78 51.5 122t134.5 44q60 0 97.5 -29.5
t37.5 -77.5q0 -51 -39 -86.5t-99 -64.5q23 -45 62 -108l40 -67q2 4 4 7q44 69 70 145l-51 56l1 6h229zM262 213q-33 57 -60 108q-48 -58 -48 -133q0 -48 26.5 -79t71.5 -31q39 0 76 27q-30 43 -66 108zM275 553q0 -45 36 -119q50 52 50 112q0 28 -12 43t-31 15
q-18 0 -30.5 -13.5t-12.5 -37.5z" />
    <glyph glyph-name="quotesingle" unicode="'" horiz-adv-x="194" 
d="M172 694q26 0 40 -16t14 -41q0 -23 -12 -55t-25.5 -57.5t-52.5 -97.5h-14q-11 178 -11 190q0 36 16.5 56.5t44.5 20.5z" />
    <glyph glyph-name="parenleft" unicode="(" horiz-adv-x="334" 
d="M411 750l13 -6q-48 -69 -81 -124.5t-69 -136.5t-54.5 -176t-18.5 -201q0 -150 33 -284l-15 -4q-27 39 -39.5 59.5t-39.5 72.5t-40 109t-13 119q0 327 324 572z" />
    <glyph glyph-name="parenright" unicode=")" horiz-adv-x="334" 
d="M-61 -182l-13 6q48 69 81 124.5t69 136.5t54.5 176t18.5 201q0 150 -33 284l15 4q27 -39 39.5 -59.5t39.5 -72.5t40 -109t13 -119q0 -327 -324 -572z" />
    <glyph glyph-name="asterisk" unicode="*" horiz-adv-x="351" 
d="M219 455l-96 -76l-5 3l45 112l-107 43v6l117 11l-19 117l6 3l76 -95l96 78l5 -4l-52 -112l110 -42v-6l-115 -15l17 -112l-5 -2z" />
    <glyph glyph-name="plus" unicode="+" horiz-adv-x="416" 
d="M34 276h149l31 170h65l-31 -170h150l-10 -57h-150l-31 -174h-65l31 174h-149z" />
    <glyph glyph-name="comma" unicode="," horiz-adv-x="210" 
d="M77 18q-28 0 -49 17.5t-21 48.5t21 51t53 20q38 0 60 -27t22 -68q0 -63 -47 -112t-117 -75l-15 7q73 83 93 138z" />
    <glyph glyph-name="hyphen" unicode="-" horiz-adv-x="265" 
d="M57 304h185l-23 -112h-185z" />
    <glyph glyph-name="period" unicode="." horiz-adv-x="197" 
d="M77 136q33 0 54.5 -21t21.5 -54t-21.5 -54t-54.5 -21t-54.5 21t-21.5 54t21.5 54t54.5 21z" />
    <glyph glyph-name="slash" unicode="/" horiz-adv-x="335" 
d="M393 742l-415 -977l-54 20l415 977z" />
    <glyph glyph-name="zero" unicode="0" horiz-adv-x="475" 
d="M356 235q0 59 -29.5 97.5t-78.5 38.5q-56 0 -92.5 -48t-36.5 -115q0 -60 31.5 -99.5t77.5 -39.5q53 0 90.5 48.5t37.5 117.5zM250 453q90 0 146 -59.5t56 -149.5q0 -107 -65 -182t-163 -75q-90 0 -145.5 57.5t-55.5 156.5q0 104 66 178t161 74z" />
    <glyph glyph-name="one" unicode="1" horiz-adv-x="272" 
d="M93 384l-42 50l1 6h239l-1 -6l-57 -50l-59 -328l39 -50l-1 -6h-238l1 6l59 50z" />
    <glyph glyph-name="two" unicode="2" horiz-adv-x="398" 
d="M52 347q8 16 20.5 31.5t32.5 34t49.5 29.5t63.5 11q60 0 92.5 -31t32.5 -76q0 -57 -52.5 -110t-157.5 -122h251l-72 -114h-348l2 6q130 136 174.5 195t44.5 105q0 26 -15.5 41.5t-45.5 15.5q-36 0 -63 -23z" />
    <glyph glyph-name="three" unicode="3" horiz-adv-x="332" 
d="M13 128q86 70 118 109t32 71q0 26 -13.5 41.5t-36.5 15.5q-28 0 -59 -25l-11 6q57 107 152 107q58 0 87 -28.5t29 -67.5q0 -46 -36 -83.5t-117 -81.5q57 -9 91 -42t34 -86q0 -102 -102.5 -184t-273.5 -128l-5 11q214 147 214 286q0 32 -16.5 51.5t-51.5 19.5
q-21 0 -30 -4z" />
    <glyph glyph-name="four" unicode="4" horiz-adv-x="453" 
d="M404 447l-62 -347h76l-19 -100h-75l-28 -161l-143 -56l38 217h-228l1 8l366 439h74zM209 100l29 160l-132 -160h103z" />
    <glyph glyph-name="five" unicode="5" horiz-adv-x="308" 
d="M323 440l-65 -115h-134l-5 -10q67 -72 91 -113q35 -59 35 -112q0 -95 -92 -174.5t-234 -124.5l-6 10q185 148 185 244q0 64 -70 148q14 36 60 128t66 119h169z" />
    <glyph glyph-name="six" unicode="6" horiz-adv-x="474" 
d="M212 -13q-70 0 -125.5 55t-55.5 164q0 92 45 177t116 144t150 100t155 58l6 -9q-63 -38 -119.5 -89t-105 -114.5t-77 -142.5t-28.5 -160q0 -62 13.5 -93.5t33.5 -31.5q28 0 56 43t28 107q0 89 -64 89q-14 0 -26 -4l-5 6q54 71 124 71q52 0 83.5 -37t31.5 -100
q0 -99 -74.5 -166t-161.5 -67z" />
    <glyph glyph-name="seven" unicode="7" horiz-adv-x="396" 
d="M92 440h323l-1 -6l-344 -671l-58 18l275 542h-261z" />
    <glyph glyph-name="eight" unicode="8" horiz-adv-x="404" 
d="M274 672q67 0 110 -32.5t43 -78.5q0 -85 -141 -180q4 -7 16.5 -29t15.5 -28t13 -24t12.5 -24.5t9.5 -21t9 -22.5t5.5 -19.5t4.5 -21t1 -19.5q0 -70 -57.5 -126t-141.5 -56q-74 0 -122 37t-48 92q0 50 41 95.5t117 103.5q-45 79 -60.5 117.5t-15.5 75.5q0 64 54.5 112.5
t133.5 48.5zM244 125q0 29 -13.5 62t-48.5 94q-54 -71 -54 -155q0 -34 15 -57t36 -23q28 0 46.5 25t18.5 54zM213 559q0 -40 55 -144q47 65 47 139q0 30 -13.5 48.5t-34.5 18.5t-37.5 -17.5t-16.5 -44.5z" />
    <glyph glyph-name="nine" unicode="9" horiz-adv-x="474" 
d="M143 84q-51 0 -83.5 39.5t-32.5 99.5q0 100 72 165.5t161 65.5q78 0 131 -59.5t53 -160.5q0 -92 -44.5 -176.5t-114.5 -144.5t-149.5 -100.5t-155.5 -56.5l-6 9q64 39 120 89.5t104 114t76 142t28 160.5q0 62 -13.5 93.5t-33.5 31.5q-26 0 -55 -43.5t-29 -106.5
q0 -89 64 -89q14 0 26 3l5 -6q-53 -70 -123 -70z" />
    <glyph glyph-name="colon" unicode=":" horiz-adv-x="217" 
d="M143 453q33 0 54.5 -21.5t21.5 -53.5t-21.5 -53.5t-54.5 -21.5t-54.5 21.5t-21.5 53.5t21.5 53.5t54.5 21.5zM80 136q34 0 55 -21t21 -54t-21 -54t-55 -21t-55 21t-21 54t21 54t55 21z" />
    <glyph glyph-name="semicolon" unicode=";" horiz-adv-x="218" 
d="M80 18q-28 0 -49 17.5t-21 48.5t21 51t53 20q38 0 60 -27t22 -68q0 -63 -47 -112t-117 -75l-15 7q73 83 93 138zM143 453q33 0 54.5 -21.5t21.5 -53.5t-21.5 -53.5t-54.5 -21.5t-54.5 21.5t-21.5 53.5t21.5 53.5t54.5 21.5z" />
    <glyph glyph-name="less" unicode="&#x3c;" horiz-adv-x="389" 
d="M29 216l10 59l337 143l-12 -66l-266 -108l225 -110l-10 -59z" />
    <glyph glyph-name="equal" unicode="=" horiz-adv-x="411" 
d="M28 158l10 56h328l-10 -56h-328zM47 269l10 56h328l-10 -56h-328z" />
    <glyph glyph-name="greater" unicode="&#x3e;" horiz-adv-x="389" 
d="M362 277l-10 -59l-337 -143l12 66l265 108l-224 110l10 59z" />
    <glyph glyph-name="question" unicode="?" horiz-adv-x="378" 
d="M325 397q-23 -16 -60 -40.5t-47 -31.5q-41 -29 -53 -63l-22 -63h-18q-20 75 -20 139q0 34 39 70l88 80q45 40 45 79q0 20 -11.5 32t-29.5 12q-28 0 -71.5 -36t-78.5 -76h-9l33 163q39 11 111 11q97 0 142.5 -39.5t45.5 -94.5q0 -82 -84 -142zM125 136q33 0 54.5 -21
t21.5 -54t-21.5 -54t-54.5 -21t-54.5 21t-21.5 54t21.5 54t54.5 21z" />
    <glyph glyph-name="at" unicode="@" horiz-adv-x="873" 
d="M586 62q76 27 128.5 99.5t52.5 183.5q0 101 -58.5 161.5t-190.5 60.5q-111 0 -202 -65.5t-138.5 -164.5t-47.5 -205q0 -133 75 -205.5t205 -72.5q164 0 306 121l16 -17q-30 -36 -71.5 -69t-120 -62.5t-167.5 -29.5q-156 0 -250 85t-94 236q0 132 67 246.5t185.5 183.5
t259.5 69q147 0 235 -71t88 -184q0 -85 -35 -154.5t-94 -113.5t-136.5 -66.5t-163.5 -18.5l26 120q-33 -47 -80 -83.5t-80 -36.5q-26 0 -50 32t-24 81q0 121 89.5 201t202.5 80l149 46zM376 108q11 0 37.5 19t59.5 57l37 170q-60 -4 -102.5 -74.5t-42.5 -145.5q0 -26 11 -26
z" />
    <glyph glyph-name="A" unicode="A" horiz-adv-x="591" 
d="M170 6l-2 -6h-208l2 6l73 64l322 595h36l113 -595l46 -64l-2 -6h-290l2 6l80 64l-18 97h-163l-48 -90zM195 229h118l-29 165z" />
    <glyph glyph-name="B" unicode="B" horiz-adv-x="569" 
d="M551 215q0 -95 -75.5 -155t-198.5 -60h-299l1 6l77 64l88 522l-56 64l1 6h237q107 0 166 -34.5t59 -98.5q0 -56 -42.5 -100t-98.5 -61q62 -15 101.5 -54.5t39.5 -98.5zM257 331l-42 -257q26 -15 57 -15q39 0 76.5 39.5t37.5 111.5q0 57 -29.5 89t-83.5 32h-16zM304 604
l-37 -219h67q19 0 44 37t25 88q0 94 -88 94h-11z" />
    <glyph glyph-name="C" unicode="C" horiz-adv-x="615" 
d="M350 -10q-133 0 -222 75.5t-89 210.5q0 111 59 203t153.5 142.5t200.5 50.5t181 -25l-30 -176h-7q-47 64 -89.5 98t-72.5 34q-69 0 -145 -93.5t-76 -228.5q0 -101 45.5 -161t99.5 -60t106.5 37.5t90.5 80.5h8l-27 -167q-88 -21 -186 -21z" />
    <glyph glyph-name="D" unicode="D" horiz-adv-x="682" 
d="M324 662q160 0 259.5 -73t99.5 -214q0 -68 -24.5 -133.5t-70.5 -120t-120.5 -88t-166.5 -33.5h-322l1 6l77 63l88 523l-56 64l1 6h234zM307 602l-90 -527q27 -16 81 -16q92 0 153.5 85t61.5 214q0 127 -53 185.5t-145 58.5h-8z" />
    <glyph glyph-name="E" unicode="E" horiz-adv-x="499" 
d="M-21 0l1 6l76 64l88 522l-56 64l1 6h431l-26 -159h-6l-64 94h-120l-38 -219h125l74 73h6l-37 -212h-6l-47 76h-125l-42 -249h133l106 121h7l-32 -187h-449z" />
    <glyph glyph-name="F" unicode="F" horiz-adv-x="477" 
d="M464 453h6l-37 -212h-6l-47 76h-125l-42 -247l77 -64l-1 -6h-312l1 6l77 64l88 522l-56 64l1 6h429l-25 -159h-6l-63 94h-120l-37 -217h124z" />
    <glyph glyph-name="G" unicode="G" horiz-adv-x="661" 
d="M561 26q-7 -2 -50 -13t-79.5 -17t-73.5 -6q-140 0 -229.5 76.5t-89.5 206.5q0 116 62 209t157 141.5t198 48.5q95 0 184 -25l-30 -176h-7q-98 132 -167 132q-73 0 -148 -92.5t-75 -227.5q0 -101 44.5 -160.5t115.5 -59.5q32 0 49 4l34 206l-63 64l1 7h279l-1 -7l-71 -71z
" />
    <glyph glyph-name="H" unicode="H" horiz-adv-x="716" 
d="M267 369h232l38 223l-56 64l1 6h293l-1 -6l-78 -64l-87 -522l54 -64l-1 -6h-291l1 6l77 64l39 233h-232l-39 -233l54 -64l-1 -6h-291l1 6l77 64l88 522l-57 64l2 6h293l-1 -6l-78 -64z" />
    <glyph glyph-name="I" unicode="I" horiz-adv-x="324" 
d="M-21 0l1 6l77 64l88 522l-56 64l1 6h293l-1 -6l-78 -64l-88 -522l54 -64l-1 -6h-290z" />
    <glyph glyph-name="J" unicode="J" horiz-adv-x="317" 
d="M218 106q-12 -70 -82.5 -159t-201.5 -162l-10 8q106 135 146 375l72 424l-57 64l1 6h293l-1 -6l-78 -64z" />
    <glyph glyph-name="K" unicode="K" horiz-adv-x="666" 
d="M-21 0v6l78 64l88 522l-56 64l1 6h294l-1 -6l-79 -64l-88 -522l55 -64l-1 -6h-291zM329 0l1 6l79 64l-109 250h-28l235 272l-54 64l1 6h243l-1 -6l-101 -65l-162 -183l146 -338l52 -64l-1 -6h-301z" />
    <glyph glyph-name="L" unicode="L" horiz-adv-x="539" 
d="M215 66h143l141 157h7l-38 -223h-490l1 6l78 64l88 522l-56 64l1 6h292l-1 -6l-79 -64z" />
    <glyph glyph-name="M" unicode="M" horiz-adv-x="787" 
d="M441 0l2 6l77 64l64 381l-248 -396h-33l-111 390l-63 -375l54 -64l-1 -6h-204l1 6l78 64l83 494q-17 42 -44 92l1 6h190l113 -383l237 383h205l-1 -6q-1 -1 -29.5 -26.5t-45.5 -42.5l-87 -517l55 -64l-1 -6h-292z" />
    <glyph glyph-name="N" unicode="N" horiz-adv-x="674" 
d="M492 0l-291 469l-67 -399l87 -64l-1 -6h-241l1 6l77 64l83 496q-40 63 -60 90l1 6h189l252 -412l59 342l-79 64l1 6h234l-1 -6l-78 -64l-100 -592h-66z" />
    <glyph glyph-name="O" unicode="O" horiz-adv-x="694" 
d="M411 604q-69 0 -133 -97.5t-64 -245.5q0 -92 34 -146t78 -54q71 0 133 98t62 245q0 94 -30.5 147t-79.5 53zM43 272q0 171 111.5 285.5t257.5 114.5q117 0 198.5 -77t81.5 -201q0 -171 -110.5 -287.5t-255.5 -116.5q-123 0 -203 77.5t-80 204.5z" />
    <glyph glyph-name="P" unicode="P" horiz-adv-x="536" 
d="M567 500q0 -105 -83 -165t-206 -71l2 15q134 75 134 207q0 54 -27 86t-73 32h-9l-88 -534l71 -64l-1 -6h-308l1 6l78 64l88 522l-56 64l1 6h247q104 0 166.5 -42t62.5 -120z" />
    <glyph glyph-name="Q" unicode="Q" horiz-adv-x="694" 
d="M693 394q0 -128 -73 -228t-191 -150q171 -95 263.5 -123t206.5 -28h25q9 0 14 1l1 -10q-39 -30 -112 -55t-145 -25q-63 0 -151.5 43t-311.5 187q-85 54 -130.5 114t-45.5 154q0 165 110 281.5t254 116.5q123 0 204.5 -76t81.5 -202zM215 261q0 -92 34.5 -145.5
t77.5 -53.5q76 0 135 101.5t59 239.5q0 99 -32.5 150t-79.5 51q-72 0 -133 -101.5t-61 -241.5z" />
    <glyph glyph-name="R" unicode="R" horiz-adv-x="616" 
d="M-21 6l77 64l89 522l-56 64l1 6h253q105 0 168 -34.5t63 -108.5q0 -112 -137 -170l54 -153q48 -136 101 -202l-1 -6q-49 -1 -85.5 3t-61.5 15.5t-40.5 21.5t-28 32.5t-17.5 36.5t-15 45q-19 62 -49 169h-39l-40 -241l61 -64l-1 -6h-296v6zM303 604l-39 -235h88
q10 0 26.5 15t31.5 47.5t15 70.5q0 51 -28 76.5t-71 25.5h-23z" />
    <glyph glyph-name="S" unicode="S" horiz-adv-x="444" 
d="M300 672q85 0 149 -16l-31 -175h-8q-74 127 -123 127q-18 0 -34.5 -16t-16.5 -42q0 -17 10 -39t21 -40t45 -69q60 -88 79.5 -135t19.5 -85q0 -85 -61.5 -138.5t-157.5 -53.5q-104 0 -185 55q5 70 37 220h9q23 -102 62 -152.5t81 -50.5q25 0 45.5 22t20.5 55
q0 29 -14 59.5t-57 92.5q-61 85 -79.5 129t-18.5 87q0 76 61 120.5t146 44.5z" />
    <glyph glyph-name="T" unicode="T" horiz-adv-x="619" 
d="M663 662l-29 -178h-5l-75 115h-100l-89 -529l69 -64l-1 -6h-323l1 6l94 64l89 529h-95l-117 -115h-5l30 178h556z" />
    <glyph glyph-name="U" unicode="U" horiz-adv-x="663" 
d="M590 211q-7 -40 -23.5 -76t-46 -70t-79.5 -54.5t-114 -20.5q-137 0 -203 70.5t-49 174.5l60 357l-56 64l1 6h307l-1 -6l-92 -64l-61 -365q-11 -60 22.5 -104t110.5 -44q65 0 102.5 41t48.5 104l62 368l-69 64l1 6h222l-1 -6l-78 -64z" />
    <glyph glyph-name="V" unicode="V" horiz-adv-x="593" 
d="M447 656l1 6h216l-1 -6l-72 -64l-318 -595h-36l-112 595l-48 64l1 6h285l-1 -6l-78 -64l57 -325l168 325z" />
    <glyph glyph-name="W" unicode="W" horiz-adv-x="899" 
d="M125 592l-49 64l1 6h264l-1 -6l-54 -64l82 -350l88 160l-48 190l-45 64l1 6h238l-1 -6l-46 -64l28 -114l57 114l-26 64l1 6h149l-1 -6l-54 -64l-105 -199l38 -153l178 352l-34 64l1 6h183l-1 -6l-70 -64l-302 -596h-36l-82 317l-171 -317h-37z" />
    <glyph glyph-name="X" unicode="X" horiz-adv-x="645" 
d="M-28 0l1 6l95 64l201 246l-121 276l-54 64l1 6h306l-1 -6l-81 -64l67 -159l117 153l-55 70l1 6h245l-1 -6l-96 -64l-180 -232l122 -290l56 -64l-1 -6h-299l1 6l81 64l-76 172l-137 -166l60 -70l-1 -6h-251z" />
    <glyph glyph-name="Y" unicode="Y" horiz-adv-x="602" 
d="M458 656l1 6h213l-1 -6l-71 -64l-192 -257l-45 -260l56 -69l-1 -6h-293l1 6l79 69l40 241l-119 276l-50 64l1 6h297l-1 -6l-79 -64l81 -194l138 188z" />
    <glyph glyph-name="Z" unicode="Z" horiz-adv-x="564" 
d="M196 68h202l127 144h7l-37 -212h-507l2 9l393 591h-166l-116 -120h-6l31 182h468l-1 -8z" />
    <glyph glyph-name="bracketleft" unicode="[" horiz-adv-x="292" 
d="M362 709h-81l-142 -836h81l-7 -38h-193l155 912h193z" />
    <glyph glyph-name="backslash" unicode="\" horiz-adv-x="318" 
d="M167 755l98 -983l-56 -7l-99 983z" />
    <glyph glyph-name="bracketright" unicode="]" horiz-adv-x="292" 
d="M-50 -127h81l142 836h-81l7 38h193l-155 -912h-193z" />
    <glyph glyph-name="asciicircum" unicode="^" horiz-adv-x="359" 
d="M43 269l-13 8l232 397h9l85 -401l-14 -4l-115 171z" />
    <glyph glyph-name="underscore" unicode="_" horiz-adv-x="390" 
d="M-34 -134l12 62h341l-12 -62h-341z" />
    <glyph glyph-name="grave" unicode="`" 
d="M329 482l-153 170l120 62l41 -228z" />
    <glyph glyph-name="a" unicode="a" horiz-adv-x="465" 
d="M435 22v-6q-83 -14 -210 -26l26 132q-48 -67 -91 -101t-71 -34q-32 0 -57.5 36.5t-25.5 94.5q0 87 48.5 158t117 107t138.5 36l151 65l-79 -408zM161 91q19 0 103 92l38 192q-59 -4 -107 -82.5t-48 -165.5q0 -36 14 -36z" />
    <glyph glyph-name="b" unicode="b" horiz-adv-x="465" 
d="M56 653l1 7q73 25 226 66l-80 -401q47 61 93.5 94.5t79.5 33.5t57 -35t24 -95q0 -134 -86 -231t-204 -97q-71 0 -114 37t-36 69l101 504zM293 347q-13 0 -42.5 -24.5t-60.5 -63.5q-6 -28 -11.5 -56.5t-11 -56l-7.5 -37.5l-11 -55q8 -7 21 -7q45 0 91.5 84t46.5 175
q0 41 -15 41z" />
    <glyph glyph-name="c" unicode="c" horiz-adv-x="382" 
d="M291 455q63 0 113 -13l-49 -135h-6q-56 91 -79 91q-32 0 -73 -75t-41 -169q0 -34 10 -53t25 -19q50 0 138 82l14 -11q-40 -73 -97 -118t-119 -45q-41 0 -79 41t-38 116q0 125 84.5 216.5t196.5 91.5z" />
    <glyph glyph-name="d" unicode="d" horiz-adv-x="477" 
d="M11 139q0 136 91.5 220t215.5 84h9l32 164l-63 46l1 7q103 35 227 66l-129 -650l53 -54v-6q-91 -15 -207 -26l23 122q-102 -124 -157 -124q-33 0 -64.5 39t-31.5 112zM314 383q-16 10 -34 10q-39 0 -79.5 -74.5t-40.5 -168.5q0 -59 17 -59q23 0 96 77z" />
    <glyph glyph-name="e" unicode="e" 
d="M139 -10q-49 0 -89 40t-40 119q0 85 46 156.5t113.5 109.5t135.5 38q53 0 78.5 -16.5t25.5 -39.5q0 -15 -9.5 -32.5t-33.5 -41t-76.5 -44.5t-126.5 -34q-6 -33 -6 -72q0 -41 14 -64.5t35 -23.5q25 0 58 17.5t47.5 29t42.5 35.5l14 -11q-43 -77 -102 -121.5t-127 -44.5z
M276 410q-21 0 -53.5 -35t-50.5 -94q48 15 77.5 39t36.5 41t7 30q0 19 -17 19z" />
    <glyph glyph-name="f" unicode="f" horiz-adv-x="324" 
d="M58 71q11 73 26 176.5t18 124.5h-80v5l42 61h48q2 8 4 24.5t3 24.5q17 115 86 173.5t162 58.5q80 0 143 -21l-48 -108h-5q-83 73 -118 73q-18 0 -37 -29.5t-31 -90.5q-16 -85 -19 -105h117l-39 -66h-89q-20 -121 -59 -344q-7 -43 -25.5 -83.5t-50 -79.5t-83.5 -66.5
t-118 -34.5l-19 106l4 2q11 -2 32 -7t34.5 -7.5t24.5 -2.5q27 0 41.5 42.5t35.5 173.5z" />
    <glyph glyph-name="g" unicode="g" horiz-adv-x="437" 
d="M32 293q0 69 64 115.5t140 46.5q40 0 76 -15h159l-32 -61h-67q26 -23 26 -56q0 -64 -65.5 -112.5t-142.5 -48.5q-12 0 -15 1q-21 -21 -21 -35t37 -32q24 -13 81.5 -41.5t88.5 -48.5q69 -39 69 -84q0 -66 -81 -116.5t-182 -50.5q-51 0 -95 6.5t-72 17t-48.5 22.5t-29.5 23
t-9 20q0 27 42.5 64t145.5 80l-4 2q-70 40 -70 71q0 22 35 55.5t73 53.5q-46 15 -74.5 47t-28.5 76zM281 -101q-21 11 -68 33t-77 37q-85 -49 -85 -95q0 -25 35 -42.5t93 -17.5q44 0 77 10t45.5 21.5t12.5 20.5t-7 15.5t-26 17.5zM233 411q-22 0 -45 -40t-23 -93
q0 -30 9.5 -49t19.5 -19q31 0 50 45t19 93q0 28 -9 45.5t-21 17.5z" />
    <glyph glyph-name="h" unicode="h" horiz-adv-x="503" 
d="M66 654l3 7q13 4 98 29t125 36l-85 -426q126 153 214 153q30 0 50 -19t10 -60l-69 -298l53 -54v-6q-69 -13 -215 -26q1 2 20.5 86.5t39 167t19.5 81.5q2 17 -5 17q-26 0 -130 -108l-46 -234h-142l121 606z" />
    <glyph glyph-name="i" unicode="i" horiz-adv-x="261" 
d="M83 337l-50 48l2 6q97 36 213 65l-76 -380l55 -54v-6q-77 -14 -214 -26zM194 640q33 0 54 -21t21 -52t-21.5 -52t-53.5 -21t-53 21.5t-21 51.5q0 31 21 52t53 21z" />
    <glyph glyph-name="j" unicode="j" horiz-adv-x="249" 
d="M159 25q-10 -57 -77 -136.5t-157 -137.5l-7 4q77 154 99 265l65 317l-50 48l1 6q83 30 214 65zM192 641q32 0 54.5 -21.5t22.5 -52.5q0 -30 -22.5 -51t-54.5 -21q-31 0 -52 21t-21 51q0 31 21 52.5t52 21.5z" />
    <glyph glyph-name="k" unicode="k" horiz-adv-x="448" 
d="M127 606l-60 48l2 7q12 4 50.5 15t92.5 26.5t80 23.5l-144 -726h-143zM203 205q104 104 104 148q0 23 -26 46l3 6l131 49q31 -37 31 -63q0 -25 -24 -53t-106 -83q100 -225 118 -255l-1 -6q-101 2 -124 9q-38 11 -60 58q-16 34 -47 136z" />
    <glyph glyph-name="l" unicode="l" horiz-adv-x="257" 
d="M130 606l-59 48l1 7q14 4 51.5 15t92.5 27t79 23l-128 -650l53 -54v-6q-54 -11 -213 -26z" />
    <glyph glyph-name="m" unicode="m" horiz-adv-x="729" 
d="M14 0l68 337l-50 48l1 6q145 47 214 65l-32 -158q72 95 118 125t86 30q27 0 43 -18.5t6 -60.5l-17 -77q73 94 118.5 125t84.5 31q29 0 45.5 -18t7.5 -61l-66 -298l53 -54v-6q-51 -10 -216 -26l77 327q6 16 -6 16q-25 0 -113 -104l-49 -229h-139l71 317q2 16 -6 16
q-25 0 -112 -104l-45 -229h-142z" />
    <glyph glyph-name="n" unicode="n" horiz-adv-x="510" 
d="M14 0l69 338l-51 47l1 6q156 50 214 65l-32 -157q76 92 125 123t89 31q30 0 50 -18.5t9 -60.5l-68 -298l52 -54v-6q-54 -11 -214 -26l78 337q3 15 -5 15q-11 0 -50 -32.5t-79 -76.5l-46 -233h-142z" />
    <glyph glyph-name="o" unicode="o" horiz-adv-x="464" 
d="M198 -13q-74 0 -129 47t-55 130q0 123 79 206t177 83q72 0 126 -44.5t54 -125.5q0 -126 -78.5 -211t-173.5 -85zM201 42q33 0 68 92t35 181q0 30 -7 49.5t-14.5 26.5t-15.5 7q-37 0 -71.5 -83t-34.5 -175q0 -44 12 -71t28 -27z" />
    <glyph glyph-name="p" unicode="p" horiz-adv-x="482" 
d="M7 388q34 22 94 39l15 77l151 43l-20 -100h12q102 0 157.5 -41t55.5 -106q0 -113 -93 -196t-220 -102l-34 -170l88 -58l-1 -6h-290l1 6l61 54l109 559q-44 -6 -81 -16zM324 294q0 39 -23 65t-65 33l-64 -330q4 -4 12 -4q38 0 89 75t51 161z" />
    <glyph glyph-name="q" unicode="q" horiz-adv-x="475" 
d="M386 -226l-1 -6h-260v6l91 62l53 288q-98 -136 -158 -136q-39 0 -69.5 38t-30.5 103q0 135 95 225t214 90q30 0 42 -3l119 47l-129 -660zM174 88q23 0 106 98l38 205h-12q-60 0 -103 -74.5t-43 -179.5q0 -49 14 -49z" />
    <glyph glyph-name="r" unicode="r" horiz-adv-x="384" 
d="M14 0l68 337l-50 48l1 6q145 47 214 65l-30 -151q91 150 125 150q28 0 68 -18l-61 -157q-4 1 -17.5 8t-25.5 11.5t-19 4.5q-25 0 -82 -57l-49 -247h-142z" />
    <glyph glyph-name="s" unicode="s" horiz-adv-x="332" 
d="M216 453q62 0 122 -20l-41 -121h-5q-60 90 -86 90q-10 0 -17.5 -8.5t-7.5 -21.5q0 -16 25 -58q7 -12 33 -51t36 -57q23 -41 21 -80q0 -50 -40.5 -93t-128.5 -43q-77 0 -131 27q6 67 25 164h6q35 -78 59 -106t45 -28q15 0 24.5 11t9.5 26q0 20 -17 46q-39 56 -61 97
q-32 53 -32 97q0 50 42.5 89.5t118.5 39.5z" />
    <glyph glyph-name="t" unicode="t" horiz-adv-x="357" 
d="M232 369l-55 -261q-3 -12 -3 -17q0 -10 10 -10q37 0 129 87l15 -12q-97 -166 -212 -166q-45 0 -67.5 18t-22.5 42q0 9 9 52l54 267h-65v5l239 165l-21 -101h156l-58 -69h-108z" />
    <glyph glyph-name="u" unicode="u" horiz-adv-x="499" 
d="M287 143q-62 -85 -109.5 -119.5t-95.5 -34.5q-32 0 -49 14t-17 31q0 8 9 49l59 256l-51 48l1 6q80 28 220 65l-82 -347q-2 -9 6 -9q13 0 48.5 31t74.5 82l45 225h142l-73 -364l52 -54v-6q-57 -11 -210 -26z" />
    <glyph glyph-name="v" unicode="v" horiz-adv-x="421" 
d="M434 391q0 -25 -19 -56.5t-88 -112.5t-219 -242h-39l-5 369l-47 47l2 7l176 53q7 -117 -1 -319q113 173 113 215q0 20 -26 46v6l124 45q29 -25 29 -58z" />
    <glyph glyph-name="w" unicode="w" horiz-adv-x="592" 
d="M372 443q19 -130 29 -275q52 99 65 130.5t13 51.5q0 25 -29 48v6l129 45q28 -22 28 -56q0 -33 -48.5 -101t-240.5 -311h-42l-5 224q-64 -104 -160 -224h-42q0 60 -2.5 209t-2.5 159l-47 47l2 7q15 5 180 53q0 -233 -2 -288q80 171 131 275h44z" />
    <glyph glyph-name="x" unicode="x" horiz-adv-x="427" 
d="M329 88l57 -48l-1 -7q-134 -37 -167 -44l-48 158q-78 -158 -127 -158q-25 0 -65 15l35 134l4 3q32 -18 57 -18q30 0 83 65l-51 170l-53 46l1 7q13 4 80 21.5t86 23.5l44 -149q78 145 129 145q17 0 55 -11l-35 -128l-4 -3q-23 10 -41 10q-44 0 -94 -46z" />
    <glyph glyph-name="y" unicode="y" horiz-adv-x="418" 
d="M304 351q0 25 -28 45v6l124 45q32 -28 32 -58q0 -8 -2 -16.5t-8 -20.5t-12 -23t-18 -28.5t-23 -32.5t-30.5 -40.5t-35.5 -47t-43.5 -57t-49.5 -64.5q-56 -76 -104.5 -163.5t-62.5 -138.5l-155 19v6q105 79 208 199q-24 293 -34 369l-49 47l2 7q12 5 42.5 14t70 20.5
t58.5 17.5q3 -26 26 -315q92 168 92 210z" />
    <glyph glyph-name="z" unicode="z" horiz-adv-x="370" 
d="M-16 17l261 322h-41q-84 0 -161 -10l-4 4l75 119l280 -12l-3 -17l-267 -318h44q107 0 183 16l4 -4l-88 -126l-286 9z" />
    <glyph glyph-name="braceleft" unicode="{" horiz-adv-x="297" 
d="M230 197q0 -38 -53 -133.5t-53 -134.5q0 -57 74 -105l-13 -6q-75 19 -124 56t-49 84q0 38 64 132t64 123q0 11 -3 19.5t-11.5 18t-29 15.5t-51.5 8l6 31q72 2 95 21.5t23 52.5q0 25 -27.5 103t-27.5 105q0 127 231 163l9 -8q-121 -59 -121 -152q0 -24 16.5 -93t16.5 -92
q0 -44 -37.5 -77t-104.5 -41q54 -11 80 -35.5t26 -54.5z" />
    <glyph glyph-name="bar" unicode="|" horiz-adv-x="262" 
d="M100 752h62v-978h-62v978z" />
    <glyph glyph-name="braceright" unicode="}" horiz-adv-x="297" 
d="M90 371q0 38 53 133.5t53 134.5q0 57 -74 105l13 6q75 -19 124 -56t49 -84q0 -38 -64 -132t-64 -123q0 -11 3 -19.5t11.5 -18t29 -15.5t51.5 -8l-6 -31q-72 -2 -95 -21.5t-23 -52.5q0 -25 27.5 -103t27.5 -105q0 -127 -231 -163l-9 8q121 59 121 152q0 24 -16.5 93
t-16.5 92q0 44 37.5 77t104.5 41q-54 11 -80 35.5t-26 54.5z" />
    <glyph glyph-name="asciitilde" unicode="~" horiz-adv-x="407" 
d="M310 319q37 0 103 93l7 -4q-22 -108 -61.5 -157.5t-81.5 -49.5q-26 0 -81.5 30.5t-74.5 30.5q-35 0 -103 -92l-7 4q26 108 65 158t78 50q25 0 82 -31.5t74 -31.5z" />
    <glyph glyph-name="exclamdown" unicode="&#xa1;" horiz-adv-x="239" 
d="M118 241h20q-3 -48 -13.5 -217t-15.5 -246h-165q96 267 174 463zM150 303q-34 0 -55 21.5t-21 53.5t21 53.5t55 21.5t55 -21.5t21 -53.5t-21 -53.5t-55 -21.5z" />
    <glyph glyph-name="cent" unicode="&#xa2;" horiz-adv-x="402" 
d="M356 536l-25 -82q60 -5 94 -12l-49 -135h-6q-41 68 -58 82l-94 -310q54 12 132 85l14 -11q-74 -129 -171 -156l-28 -93h-46l26 86h-3q-45 0 -84 41t-39 116q0 119 77.5 208t188.5 99l25 82h46zM154 152q0 -49 20 -66l93 310q-42 -20 -77.5 -89.5t-35.5 -154.5z" />
    <glyph glyph-name="sterling" unicode="&#xa3;" horiz-adv-x="519" 
d="M-31 -14q33 65 76 121.5t57 101.5q7 20 16 79h-82l9 59h81q2 17 6 56.5t6 60.5q11 107 81.5 158t157.5 51q86 0 135 -18l-29 -170h-8q-23 33 -34.5 49t-28 37t-29 29.5t-22.5 8.5q-16 0 -29 -14t-18 -41t-17.5 -100t-19.5 -107h127l-10 -59h-131q-24 -90 -118 -150
q30 11 62 11q30 0 78 -13t69 -13q69 0 131 86l8 -2q-21 -108 -67.5 -164t-105.5 -56q-33 0 -103.5 32t-104.5 32q-21 0 -47 -12t-42.5 -23.5t-46.5 -35.5z" />
    <glyph glyph-name="yen" unicode="&#xa5;" horiz-adv-x="585" 
d="M517 218h-141l-23 -143l56 -69l-1 -6h-293l1 6l79 69l23 143h-140l10 56h140l8 50h-141l10 56h114l-88 212l-50 64l1 6h297l-1 -6l-79 -64l70 -176l125 170l-55 70l1 6h213l-1 -6l-71 -64l-157 -212h120l-10 -56h-140l-9 -50h142z" />
    <glyph glyph-name="brokenbar" unicode="&#xa6;" horiz-adv-x="262" 
d="M100 752h62v-435h-62v435zM100 219h62v-445h-62v445z" />
    <glyph glyph-name="section" unicode="&#xa7;" horiz-adv-x="436" 
d="M28 246q0 96 134 160q-27 50 -27 97q0 68 56.5 119t137.5 51q45 0 106 -14l-32 -150h-7q-31 57 -53.5 82t-42.5 25q-18 0 -33 -15.5t-15 -37.5q0 -24 16 -52.5t63 -95.5q49 -69 69.5 -109.5t20.5 -78.5q0 -54 -41.5 -91.5t-95.5 -57.5q32 -62 32 -106q0 -81 -62.5 -139
t-144.5 -58q-74 0 -136 31q11 119 35 204h8q15 -73 42 -120.5t64 -47.5q30 0 51.5 19.5t21.5 49.5q0 20 -11 44t-24.5 44t-51.5 73q-47 62 -63.5 98.5t-16.5 75.5zM214 183q26 -35 52 -75q33 26 33 60q0 40 -62 126q-38 51 -56 80q-38 -24 -38 -56q0 -38 71 -135z" />
    <glyph glyph-name="dieresis" unicode="&#xa8;" 
d="M357 631q30 0 51 -20t21 -49q0 -28 -21 -48t-51 -20q-29 0 -48 20t-19 48q0 29 19 49t48 20zM181 631q30 0 49.5 -20t19.5 -49q0 -28 -19.5 -48t-49.5 -20q-29 0 -49 20t-20 48q0 29 20 49t49 20z" />
    <glyph glyph-name="copyright" unicode="&#xa9;" horiz-adv-x="745" 
d="M416 153q-95 0 -156.5 50t-61.5 133q0 80 61 133.5t162 53.5q38 0 113 -16v-122h-9q-77 87 -121 87q-25 0 -50.5 -34t-25.5 -91q0 -67 29 -104.5t67 -37.5q29 0 57.5 24t49.5 58h9v-106q-53 -28 -124 -28zM391 624q-120 0 -199.5 -85t-79.5 -207q0 -120 82 -206t197 -86
q119 0 199 84t80 208q0 119 -81.5 205.5t-197.5 86.5zM391 674q141 0 240.5 -100.5t99.5 -241.5q0 -144 -98 -243t-242 -99q-145 0 -242.5 98.5t-97.5 243.5q0 144 98 243t242 99z" />
    <glyph glyph-name="ordfeminine" unicode="&#xaa;" horiz-adv-x="349" 
d="M378 383v-4q-1 0 -164 -18l17 85q-34 -43 -66 -65t-52 -22q-23 0 -40.5 24.5t-17.5 64.5q0 87 64 145.5t158 58.5l120 44l-55 -277zM179 439q13 0 61 48l27 130q-33 -2 -64.5 -53t-31.5 -107q0 -18 8 -18z" />
    <glyph glyph-name="guillemotleft" unicode="&#xab;" horiz-adv-x="442" 
d="M357 36l-142 184l2 8l209 182l7 -7l-103 -188l36 -176zM180 36l-142 184l2 8l209 182l7 -7l-103 -188l36 -176z" />
    <glyph glyph-name="registered" unicode="&#xae;" horiz-adv-x="410" 
d="M256 685q80 0 133 -53.5t53 -129.5t-53.5 -129.5t-132.5 -53.5t-132.5 53.5t-53.5 129.5t53 129.5t133 53.5zM256 650q-62 0 -103 -42t-41 -106t41 -106t103 -42t103 42t41 106t-41 106t-103 42zM161 419v5l22 21v130l-22 21v5h109q69 0 69 -44q0 -27 -30 -43l28 -48
q17 -30 28 -41v-5q-14 -2 -28 -2q-41 0 -55 27l-27 53h-14v-53l24 -21v-5h-104zM241 576v-53h29q2 0 4.5 2.5t4.5 8.5t2 13q0 29 -29 29h-11z" />
    <glyph glyph-name="macron" unicode="&#xaf;" 
d="M156 594h231l-17 -81h-231z" />
    <glyph glyph-name="degree" unicode="&#xb0;" horiz-adv-x="301" 
d="M126 537q0 -28 16 -46.5t40 -18.5q28 0 46.5 21.5t18.5 56.5q0 28 -16 46.5t-40 18.5q-29 0 -47 -22t-18 -56zM61 536q0 57 37.5 95.5t93.5 38.5q53 0 86.5 -32t33.5 -88q0 -57 -37.5 -95t-93.5 -38q-53 0 -86.5 32t-33.5 87z" />
    <glyph glyph-name="twosuperior" unicode="&#xb2;" horiz-adv-x="259" 
d="M255 413h-218l1 10l29 29q51 51 71.5 73t36 46t15.5 43q0 20 -12 30.5t-31 10.5q-25 0 -50 -18l-9 7q34 78 119 78q40 0 64.5 -22t24.5 -60q0 -42 -41.5 -78.5t-114.5 -75.5h165z" />
    <glyph glyph-name="threesuperior" unicode="&#xb3;" horiz-adv-x="227" 
d="M83 563q42 22 60.5 37.5t18.5 32.5q0 29 -33 29q-16 0 -33 -10l-9 7q36 63 111 63q29 0 46.5 -15t17.5 -38q0 -44 -71 -67q34 -5 54.5 -24.5t20.5 -48.5q0 -114 -218 -124l-4 11q62 21 86.5 47.5t24.5 49.5q0 40 -50 40q-8 0 -18 -2z" />
    <glyph glyph-name="acute" unicode="&#xb4;" 
d="M162 482l-7 5l112 227l98 -83z" />
    <glyph glyph-name="paragraph" unicode="&#xb6;" horiz-adv-x="484" 
d="M106 0l1 6l77 64l46 276q-75 0 -124 40.5t-49 111.5q0 77 52.5 120.5t148.5 43.5h91l-111 -662h-132zM376 70l54 -64l-1 -6h-131l111 662h134l-1 -6l-78 -64z" />
    <glyph glyph-name="periodcentered" unicode="&#xb7;" horiz-adv-x="197" 
d="M106 328q34 0 55 -21t21 -54t-21 -54t-55 -21t-55 21t-21 54t21 54t55 21z" />
    <glyph glyph-name="cedilla" unicode="&#xb8;" 
d="M191 0l-29 -48q78 -37 78 -95q0 -44 -53 -76t-166 -30l-1 9q112 46 112 78q0 22 -44 45l-1 3q5 9 11 19t12.5 20.5t9.5 16.5l33 58h38z" />
    <glyph glyph-name="onesuperior" unicode="&#xb9;" horiz-adv-x="193" 
d="M46 413l1 6l41 35l35 188l-31 30l1 5l145 51l-50 -274l25 -35l-1 -6h-166z" />
    <glyph glyph-name="ordmasculine" unicode="&#xba;" horiz-adv-x="323" 
d="M193 402q22 0 44 58t22 113q0 59 -22 59q-24 0 -45.5 -52t-21.5 -109q0 -69 23 -69zM191 359q-60 0 -99.5 33.5t-39.5 93.5q0 79 57 134t131 55q56 0 96.5 -33.5t40.5 -93.5q0 -79 -57 -134t-129 -55z" />
    <glyph glyph-name="guillemotright" unicode="&#xbb;" horiz-adv-x="442" 
d="M82 410l142 -184l-2 -8l-209 -182l-7 7l103 188l-36 176zM259 410l142 -184l-2 -8l-209 -182l-7 7l103 188l-36 176z" />
    <glyph glyph-name="onequarter" unicode="&#xbc;" horiz-adv-x="573" 
d="M523 662h73l-525 -662h-71zM45 359l1 6l41 35l35 188l-31 30l1 5l145 51l-50 -274l25 -35l-1 -6h-166zM497 6l-1 -6h-161l1 6l41 35l6 35h-124l2 12l175 217h84l-32 -177h56l-28 -52h-38l-6 -35zM393 128l18 96l-79 -96h61z" />
    <glyph glyph-name="onehalf" unicode="&#xbd;" horiz-adv-x="590" 
d="M524 662h73l-525 -662h-71zM45 359l1 6l41 35l35 188l-31 30l1 5l145 51l-50 -274l25 -35l-1 -6h-166zM499 0h-218l1 10l29 29q51 51 71.5 73t36 46t15.5 43q0 20 -12 30.5t-31 10.5q-25 0 -50 -18l-9 7q34 78 119 78q40 0 64.5 -22t24.5 -60q0 -42 -41.5 -78.5
t-114.5 -75.5h165z" />
    <glyph glyph-name="threequarters" unicode="&#xbe;" horiz-adv-x="565" 
d="M516 662h73l-525 -662h-71zM72 509q42 22 60.5 37.5t18.5 32.5q0 29 -33 29q-16 0 -33 -10l-9 7q36 63 111 63q29 0 46.5 -15t17.5 -38q0 -44 -71 -67q34 -5 54.5 -24.5t20.5 -48.5q0 -114 -218 -124l-4 11q62 21 86.5 47.5t24.5 49.5q0 40 -50 40q-8 0 -18 -2zM489 6
l-1 -6h-161l1 6l41 35l6 35h-124l2 12l175 217h84l-32 -177h56l-28 -52h-38l-6 -35zM385 128l18 96l-79 -96h61z" />
    <glyph glyph-name="questiondown" unicode="&#xbf;" horiz-adv-x="378" 
d="M54 42q23 16 60 40.5t47 31.5q41 29 53 63l22 63h18q20 -75 20 -139q0 -34 -39 -70l-88 -80q-45 -40 -45 -79q0 -20 11.5 -32t29.5 -12q28 0 71.5 36t78.5 76h9l-33 -163q-39 -11 -111 -11q-97 0 -142.5 39.5t-45.5 94.5q0 82 84 142zM254 303q-34 0 -55 21.5t-21 53.5
t21 53.5t55 21.5t55 -21.5t21 -53.5t-21 -53.5t-55 -21.5z" />
    <glyph glyph-name="Agrave" unicode="&#xc0;" horiz-adv-x="591" 
d="M170 6l-2 -6h-208l2 6l73 64l322 595h36l113 -595l46 -64l-2 -6h-290l2 6l80 64l-18 97h-163l-48 -90zM195 229h118l-29 165zM253 732l47 119l196 -139l-3 -8z" />
    <glyph glyph-name="Aacute" unicode="&#xc1;" horiz-adv-x="591" 
d="M170 6l-2 -6h-208l2 6l73 64l322 595h36l113 -595l46 -64l-2 -6h-290l2 6l80 64l-18 97h-163l-48 -90zM195 229h118l-29 165zM263 704l-3 8l207 140l45 -120z" />
    <glyph glyph-name="Acircumflex" unicode="&#xc2;" horiz-adv-x="591" 
d="M401 861l110 -166l-5 -6l-119 50l-153 -50l-4 6zM170 6l-2 -6h-208l2 6l73 64l322 595h36l113 -595l46 -64l-2 -6h-290l2 6l80 64l-18 97h-163l-48 -90zM195 229h118l-29 165z" />
    <glyph glyph-name="Atilde" unicode="&#xc3;" horiz-adv-x="591" 
d="M170 6l-2 -6h-208l2 6l73 64l322 595h36l113 -595l46 -64l-2 -6h-290l2 6l80 64l-18 97h-163l-48 -90zM195 229h118l-29 165zM346 826q14 0 56 -11.5t56 -11.5q13 0 36.5 15t43.5 36l6 -3q-18 -65 -46.5 -103t-55.5 -38q-16 0 -58.5 11.5t-53.5 11.5q-30 0 -84 -50l-6 3
q20 60 50.5 100t55.5 40z" />
    <glyph glyph-name="Adieresis" unicode="&#xc4;" horiz-adv-x="591" 
d="M170 6l-2 -6h-208l2 6l73 64l322 595h36l113 -595l46 -64l-2 -6h-290l2 6l80 64l-18 97h-163l-48 -90zM195 229h118l-29 165zM479 828q30 0 51 -20t21 -49q0 -28 -21 -48t-51 -20q-29 0 -48 20t-19 48q0 29 19 49t48 20zM282 828q30 0 49.5 -20t19.5 -49q0 -28 -19.5 -48
t-49.5 -20q-29 0 -49 20t-20 48q0 29 20 49t49 20z" />
    <glyph glyph-name="Aring" unicode="&#xc5;" horiz-adv-x="591" 
d="M170 6l-2 -6h-208l2 6l73 64l322 595h36l113 -595l46 -64l-2 -6h-290l2 6l80 64l-18 97h-163l-48 -90zM195 229h118l-29 165zM337 783q0 -21 13.5 -35.5t34.5 -14.5q20 0 34 14.5t14 35.5q0 20 -14 35t-34 15q-21 0 -34.5 -14.5t-13.5 -35.5zM289 783q0 38 29 66t67 28
t67 -28t29 -66q0 -39 -29 -66.5t-67 -27.5q-39 0 -67.5 27t-28.5 67z" />
    <glyph glyph-name="AE" unicode="&#xc6;" horiz-adv-x="792" 
d="M309 656l1 6h503l-26 -159h-6l-64 94h-114l-38 -221h119l74 73h6l-37 -212h-6l-47 76h-119l-42 -247h127l106 121h7l-32 -187h-443l1 6l76 64l33 200h-153l-125 -193l57 -71l-1 -6h-204l1 6l64 64l338 522zM399 332l43 259l-167 -259h124z" />
    <glyph glyph-name="Ccedilla" unicode="&#xc7;" horiz-adv-x="615" 
d="M350 -10q-32 0 -56 4l-25 -42q78 -37 78 -95q0 -44 -53 -76t-166 -30l-1 9q112 46 112 78q0 22 -44 45l-1 3q5 9 11 19t12.5 20.5t9.5 16.5l33 58q-10 2 -30 8q-87 29 -139 98t-52 170q0 111 59 203t153.5 142.5t200.5 50.5t181 -25l-30 -176h-7q-47 64 -89.5 98
t-72.5 34q-69 0 -145 -93.5t-76 -228.5q0 -101 45.5 -161t99.5 -60t106.5 37.5t90.5 80.5h8l-27 -167q-88 -21 -186 -21z" />
    <glyph glyph-name="Egrave" unicode="&#xc8;" horiz-adv-x="499" 
d="M-21 0l1 6l76 64l88 522l-56 64l1 6h431l-26 -159h-6l-64 94h-120l-38 -219h125l74 73h6l-37 -212h-6l-47 76h-125l-42 -249h133l106 121h7l-32 -187h-449zM204 732l47 119l196 -139l-3 -8z" />
    <glyph glyph-name="Eacute" unicode="&#xc9;" horiz-adv-x="499" 
d="M-21 0l1 6l76 64l88 522l-56 64l1 6h431l-26 -159h-6l-64 94h-120l-38 -219h125l74 73h6l-37 -212h-6l-47 76h-125l-42 -249h133l106 121h7l-32 -187h-449zM213 704l-3 8l207 140l45 -120z" />
    <glyph glyph-name="Ecircumflex" unicode="&#xca;" horiz-adv-x="499" 
d="M-21 0l1 6l76 64l88 522l-56 64l1 6h431l-26 -159h-6l-64 94h-120l-38 -219h125l74 73h6l-37 -212h-6l-47 76h-125l-42 -249h133l106 121h7l-32 -187h-449zM358 861l110 -166l-5 -6l-119 50l-153 -50l-4 6z" />
    <glyph glyph-name="Edieresis" unicode="&#xcb;" horiz-adv-x="499" 
d="M-21 0l1 6l76 64l88 522l-56 64l1 6h431l-26 -159h-6l-64 94h-120l-38 -219h125l74 73h6l-37 -212h-6l-47 76h-125l-42 -249h133l106 121h7l-32 -187h-449zM427 828q30 0 51 -20t21 -49q0 -28 -21 -48t-51 -20q-29 0 -48 20t-19 48q0 29 19 49t48 20zM230 828
q30 0 49.5 -20t19.5 -49q0 -28 -19.5 -48t-49.5 -20q-29 0 -49 20t-20 48q0 29 20 49t49 20z" />
    <glyph glyph-name="Igrave" unicode="&#xcc;" horiz-adv-x="324" 
d="M-21 0l1 6l77 64l88 522l-56 64l1 6h293l-1 -6l-78 -64l-88 -522l54 -64l-1 -6h-290zM119 732l47 119l196 -139l-3 -8z" />
    <glyph glyph-name="Iacute" unicode="&#xcd;" horiz-adv-x="324" 
d="M-21 0l1 6l77 64l88 522l-56 64l1 6h293l-1 -6l-78 -64l-88 -522l54 -64l-1 -6h-290zM122 704l-3 8l207 140l45 -120z" />
    <glyph glyph-name="Icircumflex" unicode="&#xce;" horiz-adv-x="324" 
d="M-21 0l1 6l77 64l88 522l-56 64l1 6h293l-1 -6l-78 -64l-88 -522l54 -64l-1 -6h-290zM268 861l110 -166l-5 -6l-119 50l-153 -50l-4 6z" />
    <glyph glyph-name="Idieresis" unicode="&#xcf;" horiz-adv-x="324" 
d="M-21 0l1 6l77 64l88 522l-56 64l1 6h293l-1 -6l-78 -64l-88 -522l54 -64l-1 -6h-290zM349 828q30 0 51 -20t21 -49q0 -28 -21 -48t-51 -20q-29 0 -48 20t-19 48q0 29 19 49t48 20zM152 828q30 0 49.5 -20t19.5 -49q0 -28 -19.5 -48t-49.5 -20q-29 0 -49 20t-20 48
q0 29 20 49t49 20z" />
    <glyph glyph-name="Eth" unicode="&#xd0;" horiz-adv-x="682" 
d="M34 366h73l38 226l-56 64l1 6h234q160 0 259.5 -73t99.5 -214q0 -68 -24.5 -133.5t-70.5 -120t-120.5 -88t-166.5 -33.5h-322l1 6l77 63l40 238h-73zM257 307l-40 -232q27 -16 81 -16q92 0 153.5 85t61.5 214q0 127 -53 185.5t-145 58.5h-8l-40 -236h135l-10 -59h-135z
" />
    <glyph glyph-name="Ntilde" unicode="&#xd1;" horiz-adv-x="674" 
d="M492 0l-291 469l-67 -399l87 -64l-1 -6h-241l1 6l77 64l83 496q-40 63 -60 90l1 6h189l252 -412l59 342l-79 64l1 6h234l-1 -6l-78 -64l-100 -592h-66zM414 826q14 0 56.5 -11.5t55.5 -11.5t36.5 15t43.5 36l6 -3q-18 -65 -46.5 -103t-55.5 -38q-16 0 -58.5 11.5
t-53.5 11.5q-30 0 -84 -50l-6 3q20 60 50.5 100t55.5 40z" />
    <glyph glyph-name="Ograve" unicode="&#xd2;" horiz-adv-x="694" 
d="M411 604q-69 0 -133 -97.5t-64 -245.5q0 -92 34 -146t78 -54q71 0 133 98t62 245q0 94 -30.5 147t-79.5 53zM43 272q0 171 111.5 285.5t257.5 114.5q117 0 198.5 -77t81.5 -201q0 -171 -110.5 -287.5t-255.5 -116.5q-123 0 -203 77.5t-80 204.5zM302 732l47 119l196 -139
l-3 -8z" />
    <glyph glyph-name="Oacute" unicode="&#xd3;" horiz-adv-x="694" 
d="M411 604q-69 0 -133 -97.5t-64 -245.5q0 -92 34 -146t78 -54q71 0 133 98t62 245q0 94 -30.5 147t-79.5 53zM43 272q0 171 111.5 285.5t257.5 114.5q117 0 198.5 -77t81.5 -201q0 -171 -110.5 -287.5t-255.5 -116.5q-123 0 -203 77.5t-80 204.5zM306 704l-3 8l207 140
l45 -120z" />
    <glyph glyph-name="Ocircumflex" unicode="&#xd4;" horiz-adv-x="694" 
d="M411 604q-69 0 -133 -97.5t-64 -245.5q0 -92 34 -146t78 -54q71 0 133 98t62 245q0 94 -30.5 147t-79.5 53zM43 272q0 171 111.5 285.5t257.5 114.5q117 0 198.5 -77t81.5 -201q0 -171 -110.5 -287.5t-255.5 -116.5q-123 0 -203 77.5t-80 204.5zM451 861l110 -166l-5 -6
l-119 50l-153 -50l-4 6z" />
    <glyph glyph-name="Otilde" unicode="&#xd5;" horiz-adv-x="694" 
d="M411 604q-69 0 -133 -97.5t-64 -245.5q0 -92 34 -146t78 -54q71 0 133 98t62 245q0 94 -30.5 147t-79.5 53zM43 272q0 171 111.5 285.5t257.5 114.5q117 0 198.5 -77t81.5 -201q0 -171 -110.5 -287.5t-255.5 -116.5q-123 0 -203 77.5t-80 204.5zM401 826q13 0 56 -11.5
t56 -11.5t36.5 15t43.5 36l6 -3q-18 -65 -46.5 -103t-55.5 -38q-16 0 -58.5 11.5t-53.5 11.5q-30 0 -84 -50l-6 3q20 60 50.5 100t55.5 40z" />
    <glyph glyph-name="Odieresis" unicode="&#xd6;" horiz-adv-x="694" 
d="M411 604q-69 0 -133 -97.5t-64 -245.5q0 -92 34 -146t78 -54q71 0 133 98t62 245q0 94 -30.5 147t-79.5 53zM43 272q0 171 111.5 285.5t257.5 114.5q117 0 198.5 -77t81.5 -201q0 -171 -110.5 -287.5t-255.5 -116.5q-123 0 -203 77.5t-80 204.5zM533 828q30 0 51 -20
t21 -49q0 -28 -21 -48t-51 -20q-29 0 -48 20t-19 48q0 29 19 49t48 20zM336 828q30 0 49.5 -20t19.5 -49q0 -28 -19.5 -48t-49.5 -20q-29 0 -49 20t-20 48q0 29 20 49t49 20z" />
    <glyph glyph-name="multiply" unicode="&#xd7;" horiz-adv-x="362" 
d="M147 250l-93 143l51 33l85 -134l135 133l40 -39l-145 -142l93 -145l-48 -30l-87 134l-136 -134l-41 38z" />
    <glyph glyph-name="Oslash" unicode="&#xd8;" horiz-adv-x="694" 
d="M43 272q0 171 111.5 285.5t257.5 114.5q78 0 146 -38l71 94l48 -36l-71 -93q86 -80 86 -205q0 -171 -110.5 -287.5t-255.5 -116.5q-85 0 -152 39l-81 -107l-46 36l80 106q-84 78 -84 208zM521 404q0 34 -7 74l-270 -356q35 -61 82 -61q71 0 133 98t62 245zM411 604
q-69 0 -133 -97.5t-64 -245.5q0 -44 7 -73l271 359q-32 57 -81 57z" />
    <glyph glyph-name="Ugrave" unicode="&#xd9;" horiz-adv-x="663" 
d="M590 211q-7 -40 -23.5 -76t-46 -70t-79.5 -54.5t-114 -20.5q-137 0 -203 70.5t-49 174.5l60 357l-56 64l1 6h307l-1 -6l-92 -64l-61 -365q-11 -60 22.5 -104t110.5 -44q65 0 102.5 41t48.5 104l62 368l-69 64l1 6h222l-1 -6l-78 -64zM315 732l47 119l196 -139l-3 -8z" />
    <glyph glyph-name="Uacute" unicode="&#xda;" horiz-adv-x="663" 
d="M590 211q-7 -40 -23.5 -76t-46 -70t-79.5 -54.5t-114 -20.5q-137 0 -203 70.5t-49 174.5l60 357l-56 64l1 6h307l-1 -6l-92 -64l-61 -365q-11 -60 22.5 -104t110.5 -44q65 0 102.5 41t48.5 104l62 368l-69 64l1 6h222l-1 -6l-78 -64zM325 704l-3 8l207 140l45 -120z" />
    <glyph glyph-name="Ucircumflex" unicode="&#xdb;" horiz-adv-x="663" 
d="M590 211q-7 -40 -23.5 -76t-46 -70t-79.5 -54.5t-114 -20.5q-137 0 -203 70.5t-49 174.5l60 357l-56 64l1 6h307l-1 -6l-92 -64l-61 -365q-11 -60 22.5 -104t110.5 -44q65 0 102.5 41t48.5 104l62 368l-69 64l1 6h222l-1 -6l-78 -64zM461 861l110 -166l-5 -6l-119 50
l-153 -50l-4 6z" />
    <glyph glyph-name="Udieresis" unicode="&#xdc;" horiz-adv-x="663" 
d="M590 211q-7 -40 -23.5 -76t-46 -70t-79.5 -54.5t-114 -20.5q-137 0 -203 70.5t-49 174.5l60 357l-56 64l1 6h307l-1 -6l-92 -64l-61 -365q-11 -60 22.5 -104t110.5 -44q65 0 102.5 41t48.5 104l62 368l-69 64l1 6h222l-1 -6l-78 -64zM542 828q30 0 51 -20t21 -49
q0 -28 -21 -48t-51 -20q-29 0 -48 20t-19 48q0 29 19 49t48 20zM345 828q30 0 49.5 -20t19.5 -49q0 -28 -19.5 -48t-49.5 -20q-29 0 -49 20t-20 48q0 29 20 49t49 20z" />
    <glyph glyph-name="Yacute" unicode="&#xdd;" horiz-adv-x="602" 
d="M458 656l1 6h213l-1 -6l-71 -64l-192 -257l-45 -260l56 -69l-1 -6h-293l1 6l79 69l40 241l-119 276l-50 64l1 6h297l-1 -6l-79 -64l81 -194l138 188zM289 704l-3 8l207 140l45 -120z" />
    <glyph glyph-name="Thorn" unicode="&#xde;" horiz-adv-x="560" 
d="M281 459l-65 -389l54 -64l-1 -6h-290l1 6l77 64l88 522l-56 64l1 6h293l-1 -6l-78 -64l-13 -75h38q105 0 167 -35.5t62 -107.5q0 -88 -85.5 -138.5t-212.5 -50.5l2 15q60 23 101.5 66.5t41.5 104.5q0 88 -100 88h-24z" />
    <glyph glyph-name="germandbls" unicode="&#xdf;" horiz-adv-x="493" 
d="M335 719q92 0 138.5 -36.5t46.5 -85.5q0 -33 -16.5 -60t-40 -45.5t-47.5 -34t-40.5 -33.5t-16.5 -36q0 -15 8 -30.5t36 -62.5q27 -43 37.5 -61t20 -44t9.5 -51q0 -64 -48 -106.5t-126 -42.5q-60 0 -111 23q7 48 28 150h6q40 -116 81 -116q16 0 27.5 15t11.5 37
q0 20 -9 39.5t-36 59.5q-30 42 -41 68.5t-11 53.5q0 30 15 56.5t37 48t44 44t37 53.5t15 67q0 33 -16 53.5t-43 20.5q-32 0 -56.5 -30t-36.5 -90q-1 -7 -89 -515q-7 -43 -25.5 -83.5t-50 -79.5t-83.5 -66.5t-118 -34.5l-18 104l4 2q65 -13 88 -13q27 0 43 43t36 171
q13 84 24.5 160t21.5 149.5t15 106.5q16 106 82.5 169t166.5 63z" />
    <glyph glyph-name="agrave" unicode="&#xe0;" horiz-adv-x="465" 
d="M435 22v-6q-83 -14 -210 -26l26 132q-48 -67 -91 -101t-71 -34q-32 0 -57.5 36.5t-25.5 94.5q0 87 48.5 158t117 107t138.5 36l151 65l-79 -408zM161 91q19 0 103 92l38 192q-59 -4 -107 -82.5t-48 -165.5q0 -36 14 -36zM327 482l-153 170l120 62l41 -228z" />
    <glyph glyph-name="aacute" unicode="&#xe1;" horiz-adv-x="465" 
d="M435 22v-6q-83 -14 -210 -26l26 132q-48 -67 -91 -101t-71 -34q-32 0 -57.5 36.5t-25.5 94.5q0 87 48.5 158t117 107t138.5 36l151 65l-79 -408zM161 91q19 0 103 92l38 192q-59 -4 -107 -82.5t-48 -165.5q0 -36 14 -36zM226 482l-7 5l112 227l98 -83z" />
    <glyph glyph-name="acircumflex" unicode="&#xe2;" horiz-adv-x="465" 
d="M435 22v-6q-83 -14 -210 -26l26 132q-48 -67 -91 -101t-71 -34q-32 0 -57.5 36.5t-25.5 94.5q0 87 48.5 158t117 107t138.5 36l151 65l-79 -408zM161 91q19 0 103 92l38 192q-59 -4 -107 -82.5t-48 -165.5q0 -36 14 -36zM313 715l71 -236l-7 -4l-86 86l-122 -86l-6 6z
" />
    <glyph glyph-name="atilde" unicode="&#xe3;" horiz-adv-x="465" 
d="M435 22v-6q-83 -14 -210 -26l26 132q-48 -67 -91 -101t-71 -34q-32 0 -57.5 36.5t-25.5 94.5q0 87 48.5 158t117 107t138.5 36l151 65l-79 -408zM161 91q19 0 103 92l38 192q-59 -4 -107 -82.5t-48 -165.5q0 -36 14 -36zM247 628q12 0 53 -13.5t54 -13.5q21 0 72 59l7 -2
q-15 -68 -41.5 -109t-50.5 -41q-16 0 -56 13t-51 13q-21 0 -76 -59l-7 2q18 66 46 108.5t50 42.5z" />
    <glyph glyph-name="adieresis" unicode="&#xe4;" horiz-adv-x="465" 
d="M435 22v-6q-83 -14 -210 -26l26 132q-48 -67 -91 -101t-71 -34q-32 0 -57.5 36.5t-25.5 94.5q0 87 48.5 158t117 107t138.5 36l151 65l-79 -408zM161 91q19 0 103 92l38 192q-59 -4 -107 -82.5t-48 -165.5q0 -36 14 -36zM365 631q30 0 51 -20t21 -49q0 -28 -21 -48
t-51 -20q-29 0 -48 20t-19 48q0 29 19 49t48 20zM189 631q30 0 49.5 -20t19.5 -49q0 -28 -19.5 -48t-49.5 -20q-29 0 -49 20t-20 48q0 29 20 49t49 20z" />
    <glyph glyph-name="aring" unicode="&#xe5;" horiz-adv-x="465" 
d="M435 22v-6q-83 -14 -210 -26l26 132q-48 -67 -91 -101t-71 -34q-32 0 -57.5 36.5t-25.5 94.5q0 87 48.5 158t117 107t138.5 36l151 65l-79 -408zM161 91q19 0 103 92l38 192q-59 -4 -107 -82.5t-48 -165.5q0 -36 14 -36zM234 581q0 -21 13.5 -35.5t34.5 -14.5
q20 0 34 14.5t14 35.5q0 20 -14 35t-34 15q-21 0 -34.5 -14.5t-13.5 -35.5zM186 581q0 38 29 66t67 28t67 -28t29 -66q0 -39 -29 -66.5t-67 -27.5q-39 0 -67.5 27t-28.5 67z" />
    <glyph glyph-name="ae" unicode="&#xe6;" horiz-adv-x="661" 
d="M400 -10q-45 0 -84 35t-45 104q-42 -61 -87 -101t-76 -40q-41 0 -70 37.5t-29 103.5q0 135 95.5 225t220.5 90q71 0 119 -22q61 31 122 31q53 0 78.5 -16.5t25.5 -39.5q0 -15 -9.5 -32.5t-33.5 -41t-76.5 -44.5t-126.5 -34q-6 -33 -6 -72q0 -41 14 -65t35 -23
q58 0 147 84l16 -14q-94 -165 -230 -165zM312 391q-65 0 -109.5 -75.5t-44.5 -180.5q0 -47 16 -47q22 0 98 91q13 113 102 194q-26 18 -62 18zM554 391q0 19 -17 19q-21 0 -53.5 -35t-50.5 -94q48 15 77.5 39t36.5 41t7 30z" />
    <glyph glyph-name="ccedilla" unicode="&#xe7;" horiz-adv-x="382" 
d="M291 455q63 0 113 -13l-49 -135h-6q-56 91 -79 91q-32 0 -73 -75t-41 -169q0 -34 10 -53t25 -19q50 0 138 82l14 -11q-64 -114 -153 -151q-23 -8 -44 -11l-23 -39q78 -37 78 -95q0 -44 -53 -76t-166 -30l-1 9q112 46 112 78q0 22 -44 45l-1 3q5 9 11 19t12.5 20.5
t9.5 16.5t10.5 19t11.5 20q2 3 4.5 6.5t2.5 4.5q-7 1 -21 7q-32 15 -55.5 52.5t-23.5 95.5q0 125 84.5 216.5t196.5 91.5z" />
    <glyph glyph-name="egrave" unicode="&#xe8;" 
d="M139 -10q-49 0 -89 40t-40 119q0 85 46 156.5t113.5 109.5t135.5 38q53 0 78.5 -16.5t25.5 -39.5q0 -15 -9.5 -32.5t-33.5 -41t-76.5 -44.5t-126.5 -34q-6 -33 -6 -72q0 -41 14 -64.5t35 -23.5q25 0 58 17.5t47.5 29t42.5 35.5l14 -11q-43 -77 -102 -121.5t-127 -44.5z
M276 410q-21 0 -53.5 -35t-50.5 -94q48 15 77.5 39t36.5 41t7 30q0 19 -17 19zM299 482l-153 170l120 62l41 -228z" />
    <glyph glyph-name="eacute" unicode="&#xe9;" 
d="M139 -10q-49 0 -89 40t-40 119q0 85 46 156.5t113.5 109.5t135.5 38q53 0 78.5 -16.5t25.5 -39.5q0 -15 -9.5 -32.5t-33.5 -41t-76.5 -44.5t-126.5 -34q-6 -33 -6 -72q0 -41 14 -64.5t35 -23.5q25 0 58 17.5t47.5 29t42.5 35.5l14 -11q-43 -77 -102 -121.5t-127 -44.5z
M276 410q-21 0 -53.5 -35t-50.5 -94q48 15 77.5 39t36.5 41t7 30q0 19 -17 19zM197 482l-7 5l112 227l98 -83z" />
    <glyph glyph-name="ecircumflex" unicode="&#xea;" 
d="M139 -10q-49 0 -89 40t-40 119q0 85 46 156.5t113.5 109.5t135.5 38q53 0 78.5 -16.5t25.5 -39.5q0 -15 -9.5 -32.5t-33.5 -41t-76.5 -44.5t-126.5 -34q-6 -33 -6 -72q0 -41 14 -64.5t35 -23.5q25 0 58 17.5t47.5 29t42.5 35.5l14 -11q-43 -77 -102 -121.5t-127 -44.5z
M276 410q-21 0 -53.5 -35t-50.5 -94q48 15 77.5 39t36.5 41t7 30q0 19 -17 19zM291 715l71 -236l-7 -4l-86 86l-122 -86l-6 6z" />
    <glyph glyph-name="edieresis" unicode="&#xeb;" 
d="M139 -10q-49 0 -89 40t-40 119q0 85 46 156.5t113.5 109.5t135.5 38q53 0 78.5 -16.5t25.5 -39.5q0 -15 -9.5 -32.5t-33.5 -41t-76.5 -44.5t-126.5 -34q-6 -33 -6 -72q0 -41 14 -64.5t35 -23.5q25 0 58 17.5t47.5 29t42.5 35.5l14 -11q-43 -77 -102 -121.5t-127 -44.5z
M276 410q-21 0 -53.5 -35t-50.5 -94q48 15 77.5 39t36.5 41t7 30q0 19 -17 19zM355 631q30 0 51 -20t21 -49q0 -28 -21 -48t-51 -20q-29 0 -48 20t-19 48q0 29 19 49t48 20zM179 631q30 0 49.5 -20t19.5 -49q0 -28 -19.5 -48t-49.5 -20q-29 0 -49 20t-20 48q0 29 20 49
t49 20z" />
    <glyph glyph-name="igrave" unicode="&#xec;" horiz-adv-x="261" 
d="M83 337l-50 48l2 6q97 36 213 65l-76 -380l55 -54v-6q-77 -14 -214 -26zM219 482l-153 170l120 62l41 -228z" />
    <glyph glyph-name="iacute" unicode="&#xed;" horiz-adv-x="261" 
d="M83 337l-50 48l2 6q97 36 213 65l-76 -380l55 -54v-6q-77 -14 -214 -26zM120 482l-7 5l112 227l98 -83z" />
    <glyph glyph-name="icircumflex" unicode="&#xee;" horiz-adv-x="261" 
d="M83 337l-50 48l2 6q97 36 213 65l-76 -380l55 -54v-6q-77 -14 -214 -26zM211 715l71 -236l-7 -4l-86 86l-122 -86l-6 6z" />
    <glyph glyph-name="idieresis" unicode="&#xef;" horiz-adv-x="261" 
d="M83 337l-50 48l2 6q97 36 213 65l-76 -380l55 -54v-6q-77 -14 -214 -26zM271 631q30 0 51 -20t21 -49q0 -28 -21 -48t-51 -20q-29 0 -48 20t-19 48q0 29 19 49t48 20zM98 631q30 0 49.5 -20t19.5 -49q0 -28 -19.5 -48t-49.5 -20q-29 0 -49 20t-20 48q0 29 20 49t49 20z
" />
    <glyph glyph-name="eth" unicode="&#xf0;" horiz-adv-x="470" 
d="M213 721q68 -37 120 -84l101 56l24 -47l-88 -48q93 -107 93 -242q0 -161 -84 -265t-184 -104q-81 0 -131 50t-50 132q0 120 70.5 197.5t168.5 77.5q27 0 54 -10q-5 65 -23 117l-138 -75l-24 45l144 79q-22 52 -61 112zM198 42q34 0 70.5 107.5t40.5 231.5q-14 6 -30 6
q-46 0 -82 -73t-36 -175q0 -44 9.5 -70.5t27.5 -26.5z" />
    <glyph glyph-name="ntilde" unicode="&#xf1;" horiz-adv-x="510" 
d="M14 0l69 338l-51 47l1 6q156 50 214 65l-32 -157q76 92 125 123t89 31q30 0 50 -18.5t9 -60.5l-68 -298l52 -54v-6q-54 -11 -214 -26l78 337q3 15 -5 15q-11 0 -50 -32.5t-79 -76.5l-46 -233h-142zM274 628q12 0 53 -13.5t54 -13.5q21 0 72 59l7 -2q-15 -68 -41.5 -109
t-50.5 -41q-16 0 -56 13t-51 13q-21 0 -76 -59l-7 2q18 66 46 108.5t50 42.5z" />
    <glyph glyph-name="ograve" unicode="&#xf2;" horiz-adv-x="464" 
d="M198 -13q-74 0 -129 47t-55 130q0 123 79 206t177 83q72 0 126 -44.5t54 -125.5q0 -126 -78.5 -211t-173.5 -85zM201 42q33 0 68 92t35 181q0 30 -7 49.5t-14.5 26.5t-15.5 7q-37 0 -71.5 -83t-34.5 -175q0 -44 12 -71t28 -27zM314 482l-153 170l120 62l41 -228z" />
    <glyph glyph-name="oacute" unicode="&#xf3;" horiz-adv-x="464" 
d="M198 -13q-74 0 -129 47t-55 130q0 123 79 206t177 83q72 0 126 -44.5t54 -125.5q0 -126 -78.5 -211t-173.5 -85zM201 42q33 0 68 92t35 181q0 30 -7 49.5t-14.5 26.5t-15.5 7q-37 0 -71.5 -83t-34.5 -175q0 -44 12 -71t28 -27zM222 482l-7 5l112 227l98 -83z" />
    <glyph glyph-name="ocircumflex" unicode="&#xf4;" horiz-adv-x="464" 
d="M198 -13q-74 0 -129 47t-55 130q0 123 79 206t177 83q72 0 126 -44.5t54 -125.5q0 -126 -78.5 -211t-173.5 -85zM201 42q33 0 68 92t35 181q0 30 -7 49.5t-14.5 26.5t-15.5 7q-37 0 -71.5 -83t-34.5 -175q0 -44 12 -71t28 -27zM312 715l71 -236l-7 -4l-86 86l-122 -86
l-6 6z" />
    <glyph glyph-name="otilde" unicode="&#xf5;" horiz-adv-x="464" 
d="M198 -13q-74 0 -129 47t-55 130q0 123 79 206t177 83q72 0 126 -44.5t54 -125.5q0 -126 -78.5 -211t-173.5 -85zM201 42q33 0 68 92t35 181q0 30 -7 49.5t-14.5 26.5t-15.5 7q-37 0 -71.5 -83t-34.5 -175q0 -44 12 -71t28 -27zM251 628q12 0 53 -13.5t54 -13.5
q21 0 72 59l7 -2q-15 -68 -41.5 -109t-50.5 -41q-16 0 -56 13t-51 13q-21 0 -76 -59l-7 2q18 66 46 108.5t50 42.5z" />
    <glyph glyph-name="odieresis" unicode="&#xf6;" horiz-adv-x="464" 
d="M198 -13q-74 0 -129 47t-55 130q0 123 79 206t177 83q72 0 126 -44.5t54 -125.5q0 -126 -78.5 -211t-173.5 -85zM201 42q33 0 68 92t35 181q0 30 -7 49.5t-14.5 26.5t-15.5 7q-37 0 -71.5 -83t-34.5 -175q0 -44 12 -71t28 -27zM372 631q30 0 51 -20t21 -49q0 -28 -21 -48
t-51 -20q-29 0 -48 20t-19 48q0 29 19 49t48 20zM196 631q30 0 49.5 -20t19.5 -49q0 -28 -19.5 -48t-49.5 -20q-29 0 -49 20t-20 48q0 29 20 49t49 20z" />
    <glyph glyph-name="divide" unicode="&#xf7;" horiz-adv-x="411" 
d="M24 219l10 58h359l-10 -58h-359zM108 84q0 30 20 50t49 20q30 0 49.5 -20t19.5 -50q0 -28 -19.5 -47.5t-49.5 -19.5q-29 0 -49 19.5t-20 47.5zM168 406q0 30 20 50t49 20q30 0 49.5 -20t19.5 -50q0 -28 -19.5 -47.5t-49.5 -19.5q-29 0 -49 19.5t-20 47.5z" />
    <glyph glyph-name="oslash" unicode="&#xf8;" horiz-adv-x="464" 
d="M17 -44l54 77q-57 47 -57 131q0 123 79 206t177 83q44 0 83 -18l50 72l38 -27l-49 -69q58 -48 58 -128q0 -126 -78.5 -211t-173.5 -85q-45 0 -90 20l-53 -76zM200 42q36 0 72.5 84.5t40.5 172.5l-154 -219q14 -38 41 -38zM267 398q-37 0 -75.5 -80t-40.5 -171l155 221
q-12 30 -39 30z" />
    <glyph glyph-name="ugrave" unicode="&#xf9;" horiz-adv-x="499" 
d="M287 143q-62 -85 -109.5 -119.5t-95.5 -34.5q-32 0 -49 14t-17 31q0 8 9 49l59 256l-51 48l1 6q80 28 220 65l-82 -347q-2 -9 6 -9q13 0 48.5 31t74.5 82l45 225h142l-73 -364l52 -54v-6q-57 -11 -210 -26zM329 482l-153 170l120 62l41 -228z" />
    <glyph glyph-name="uacute" unicode="&#xfa;" horiz-adv-x="499" 
d="M287 143q-62 -85 -109.5 -119.5t-95.5 -34.5q-32 0 -49 14t-17 31q0 8 9 49l59 256l-51 48l1 6q80 28 220 65l-82 -347q-2 -9 6 -9q13 0 48.5 31t74.5 82l45 225h142l-73 -364l52 -54v-6q-57 -11 -210 -26zM259 482l-7 5l112 227l98 -83z" />
    <glyph glyph-name="ucircumflex" unicode="&#xfb;" horiz-adv-x="499" 
d="M287 143q-62 -85 -109.5 -119.5t-95.5 -34.5q-32 0 -49 14t-17 31q0 8 9 49l59 256l-51 48l1 6q80 28 220 65l-82 -347q-2 -9 6 -9q13 0 48.5 31t74.5 82l45 225h142l-73 -364l52 -54v-6q-57 -11 -210 -26zM335 715l71 -236l-7 -4l-86 86l-122 -86l-6 6z" />
    <glyph glyph-name="udieresis" unicode="&#xfc;" horiz-adv-x="499" 
d="M287 143q-62 -85 -109.5 -119.5t-95.5 -34.5q-32 0 -49 14t-17 31q0 8 9 49l59 256l-51 48l1 6q80 28 220 65l-82 -347q-2 -9 6 -9q13 0 48.5 31t74.5 82l45 225h142l-73 -364l52 -54v-6q-57 -11 -210 -26zM390 631q30 0 51 -20t21 -49q0 -28 -21 -48t-51 -20
q-29 0 -48 20t-19 48q0 29 19 49t48 20zM214 631q30 0 49.5 -20t19.5 -49q0 -28 -19.5 -48t-49.5 -20q-29 0 -49 20t-20 48q0 29 20 49t49 20z" />
    <glyph glyph-name="yacute" unicode="&#xfd;" horiz-adv-x="418" 
d="M304 351q0 25 -28 45v6l124 45q32 -28 32 -58q0 -8 -2 -16.5t-8 -20.5t-12 -23t-18 -28.5t-23 -32.5t-30.5 -40.5t-35.5 -47t-43.5 -57t-49.5 -64.5q-56 -76 -104.5 -163.5t-62.5 -138.5l-155 19v6q105 79 208 199q-24 293 -34 369l-49 47l2 7q12 5 42.5 14t70 20.5
t58.5 17.5q3 -26 26 -315q92 168 92 210zM223 482l-7 5l112 227l98 -83z" />
    <glyph glyph-name="thorn" unicode="&#xfe;" horiz-adv-x="465" 
d="M105 -168l88 -58l-1 -6h-290l1 6l61 54l154 777l-62 48l1 7q73 25 226 66l-80 -401q47 61 93.5 94.5t79.5 33.5t57 -35t24 -95q0 -134 -86 -231t-204 -97q-15 0 -29 2zM293 347q-13 0 -42.5 -24.5t-60.5 -63.5q-6 -28 -11.5 -56.5t-11 -56l-7.5 -37.5l-11 -55q8 -7 21 -7
q45 0 91.5 84t46.5 175q0 41 -15 41z" />
    <glyph glyph-name="ydieresis" unicode="&#xff;" horiz-adv-x="418" 
d="M304 351q0 25 -28 45v6l124 45q32 -28 32 -58q0 -8 -2 -16.5t-8 -20.5t-12 -23t-18 -28.5t-23 -32.5t-30.5 -40.5t-35.5 -47t-43.5 -57t-49.5 -64.5q-56 -76 -104.5 -163.5t-62.5 -138.5l-155 19v6q105 79 208 199q-24 293 -34 369l-49 47l2 7q12 5 42.5 14t70 20.5
t58.5 17.5q3 -26 26 -315q92 168 92 210zM347 631q30 0 51 -20t21 -49q0 -28 -21 -48t-51 -20q-29 0 -48 20t-19 48q0 29 19 49t48 20zM171 631q30 0 49.5 -20t19.5 -49q0 -28 -19.5 -48t-49.5 -20q-29 0 -49 20t-20 48q0 29 20 49t49 20z" />
    <glyph glyph-name="Amacron" unicode="&#x100;" horiz-adv-x="591" 
d="M170 6l-2 -6h-208l2 6l73 64l322 595h36l113 -595l46 -64l-2 -6h-290l2 6l80 64l-18 97h-163l-48 -90zM195 229h118l-29 165zM533 790l-17 -82h-270l17 82h270z" />
    <glyph glyph-name="amacron" unicode="&#x101;" horiz-adv-x="465" 
d="M435 22v-6q-83 -14 -210 -26l26 132q-48 -67 -91 -101t-71 -34q-32 0 -57.5 36.5t-25.5 94.5q0 87 48.5 158t117 107t138.5 36l151 65l-79 -408zM161 91q19 0 103 92l38 192q-59 -4 -107 -82.5t-48 -165.5q0 -36 14 -36zM176 594h231l-17 -81h-231z" />
    <glyph glyph-name="Abreve" unicode="&#x102;" horiz-adv-x="591" 
d="M170 6l-2 -6h-208l2 6l73 64l322 595h36l113 -595l46 -64l-2 -6h-290l2 6l80 64l-18 97h-163l-48 -90zM195 229h118l-29 165zM513 836q-9 -64 -44 -102.5t-93 -38.5q-61 0 -82.5 45.5t-13.5 95.5l7 1q25 -54 97 -54q68 0 122 54z" />
    <glyph glyph-name="abreve" unicode="&#x103;" horiz-adv-x="465" 
d="M403 642q-8 -70 -41 -109.5t-87 -39.5q-57 0 -77.5 46.5t-9.5 102.5l8 1q19 -61 87 -61q69 0 112 61zM435 22v-6q-83 -14 -210 -26l26 132q-48 -67 -91 -101t-71 -34q-32 0 -57.5 36.5t-25.5 94.5q0 87 48.5 158t117 107t138.5 36l151 65l-79 -408zM161 91q19 0 103 92
l38 192q-59 -4 -107 -82.5t-48 -165.5q0 -36 14 -36z" />
    <glyph glyph-name="Aogonek" unicode="&#x104;" horiz-adv-x="591" 
d="M283 392l-88 -163h117zM323 167h-161l-49 -90l57 -71l-2 -6h-208l2 6l73 64l322 595h36l113 -595l46 -64l-2 -6h-164q-1 -1 -7.5 -8t-9 -10t-9 -11t-10 -13t-9.5 -13.5t-9 -15.5t-6.5 -15t-5 -16.5t-1.5 -16.5q0 -17 10.5 -28.5t31.5 -11.5q39 0 82 23l5 -4
q-6 -14 -17 -29t-30 -34t-50 -31t-67 -12q-45 0 -71.5 22.5t-25.5 58.5q0 50 49 93.5t117 71.5z" />
    <glyph glyph-name="aogonek" unicode="&#x105;" horiz-adv-x="465" 
d="M74 -165q0 48 45 92.5t108 70.5l25 124q-49 -67 -92 -101t-71 -34q-32 0 -57.5 36.5t-25.5 94.5q0 87 48.5 158t117 107t138.5 36l151 65l-79 -408l53 -54v-6q-64 -12 -181 -23q-48 -61 -48 -112q0 -17 10.5 -28.5t31.5 -11.5q39 0 82 23l5 -4q-6 -14 -17 -29t-30 -34
t-50 -31t-67 -12q-44 0 -70.5 22.5t-26.5 58.5zM161 91q19 0 103 93l38 191q-59 -4 -107 -82.5t-48 -165.5q0 -36 14 -36z" />
    <glyph glyph-name="Cacute" unicode="&#x106;" horiz-adv-x="615" 
d="M350 -10q-133 0 -222 75.5t-89 210.5q0 111 59 203t153.5 142.5t200.5 50.5t181 -25l-30 -176h-7q-47 64 -89.5 98t-72.5 34q-69 0 -145 -93.5t-76 -228.5q0 -101 45.5 -161t99.5 -60t106.5 37.5t90.5 80.5h8l-27 -167q-88 -21 -186 -21zM319 704l-3 8l207 140l45 -120z
" />
    <glyph glyph-name="cacute" unicode="&#x107;" horiz-adv-x="382" 
d="M291 455q63 0 113 -13l-49 -135h-6q-56 91 -79 91q-32 0 -73 -75t-41 -169q0 -34 10 -53t25 -19q50 0 138 82l14 -11q-40 -73 -97 -118t-119 -45q-41 0 -79 41t-38 116q0 125 84.5 216.5t196.5 91.5zM208 482l-7 5l112 227l98 -83z" />
    <glyph glyph-name="Ccircumflex" unicode="&#x108;" horiz-adv-x="615" 
d="M350 -10q-133 0 -222 75.5t-89 210.5q0 111 59 203t153.5 142.5t200.5 50.5t181 -25l-30 -176h-7q-47 64 -89.5 98t-72.5 34q-69 0 -145 -93.5t-76 -228.5q0 -101 45.5 -161t99.5 -60t106.5 37.5t90.5 80.5h8l-27 -167q-88 -21 -186 -21zM453 861l110 -166l-5 -6l-119 50
l-153 -50l-4 6z" />
    <glyph glyph-name="ccircumflex" unicode="&#x109;" horiz-adv-x="382" 
d="M291 455q63 0 113 -13l-49 -135h-6q-56 91 -79 91q-32 0 -73 -75t-41 -169q0 -34 10 -53t25 -19q50 0 138 82l14 -11q-40 -73 -97 -118t-119 -45q-41 0 -79 41t-38 116q0 125 84.5 216.5t196.5 91.5zM298 715l71 -236l-7 -4l-86 86l-122 -86l-6 6z" />
    <glyph glyph-name="Cdotaccent" unicode="&#x10a;" horiz-adv-x="615" 
d="M350 -10q-133 0 -222 75.5t-89 210.5q0 111 59 203t153.5 142.5t200.5 50.5t181 -25l-30 -176h-7q-47 64 -89.5 98t-72.5 34q-69 0 -145 -93.5t-76 -228.5q0 -101 45.5 -161t99.5 -60t106.5 37.5t90.5 80.5h8l-27 -167q-88 -21 -186 -21zM432 841q32 0 54.5 -21.5
t22.5 -52.5q0 -30 -22.5 -51.5t-54.5 -21.5q-31 0 -52 21.5t-21 51.5q0 31 21 52.5t52 21.5z" />
    <glyph glyph-name="cdotaccent" unicode="&#x10b;" horiz-adv-x="382" 
d="M291 455q63 0 113 -13l-49 -135h-6q-56 91 -79 91q-32 0 -73 -75t-41 -169q0 -34 10 -53t25 -19q50 0 138 82l14 -11q-40 -73 -97 -118t-119 -45q-41 0 -79 41t-38 116q0 125 84.5 216.5t196.5 91.5zM265 641q32 0 54.5 -21.5t22.5 -52.5q0 -30 -22.5 -51.5t-54.5 -21.5
q-31 0 -52 21.5t-21 51.5q0 31 21 52.5t52 21.5z" />
    <glyph glyph-name="Ccaron" unicode="&#x10c;" horiz-adv-x="615" 
d="M350 -10q-133 0 -222 75.5t-89 210.5q0 111 59 203t153.5 142.5t200.5 50.5t181 -25l-30 -176h-7q-47 64 -89.5 98t-72.5 34q-69 0 -145 -93.5t-76 -228.5q0 -101 45.5 -161t99.5 -60t106.5 37.5t90.5 80.5h8l-27 -167q-88 -21 -186 -21zM428 688l-110 166l5 6l119 -50
l153 50l4 -6z" />
    <glyph glyph-name="ccaron" unicode="&#x10d;" horiz-adv-x="382" 
d="M291 455q63 0 113 -13l-49 -135h-6q-56 91 -79 91q-32 0 -73 -75t-41 -169q0 -34 10 -53t25 -19q50 0 138 82l14 -11q-40 -73 -97 -118t-119 -45q-41 0 -79 41t-38 116q0 125 84.5 216.5t196.5 91.5zM244 475l-71 236l7 4l86 -86l122 86l6 -6z" />
    <glyph glyph-name="Dcaron" unicode="&#x10e;" horiz-adv-x="682" 
d="M324 662q160 0 259.5 -73t99.5 -214q0 -68 -24.5 -133.5t-70.5 -120t-120.5 -88t-166.5 -33.5h-322l1 6l77 63l88 523l-56 64l1 6h234zM307 602l-90 -527q27 -16 81 -16q92 0 153.5 85t61.5 214q0 127 -53 185.5t-145 58.5h-8zM388 687l-110 166l5 6l119 -50l153 50l4 -6
z" />
    <glyph glyph-name="dcaron" unicode="&#x10f;" horiz-adv-x="477" 
d="M515 495l59 220h109l-161 -220h-7zM11 139q0 136 91.5 220t215.5 84h9l32 164l-63 46l1 7q103 35 227 66l-129 -650l53 -54v-6q-91 -15 -207 -26l23 122q-102 -124 -157 -124q-33 0 -64.5 39t-31.5 112zM314 383q-16 10 -34 10q-39 0 -79.5 -74.5t-40.5 -168.5
q0 -59 17 -59q23 0 96 77z" />
    <glyph glyph-name="Dcroat" unicode="&#x110;" horiz-adv-x="682" 
d="M34 366h73l38 226l-56 64l1 6h234q160 0 259.5 -73t99.5 -214q0 -68 -24.5 -133.5t-70.5 -120t-120.5 -88t-166.5 -33.5h-322l1 6l77 63l40 238h-73zM257 307l-40 -232q27 -16 81 -16q92 0 153.5 85t61.5 214q0 127 -53 185.5t-145 58.5h-8l-40 -236h135l-10 -59h-135z
" />
    <glyph glyph-name="dcroat" unicode="&#x111;" horiz-adv-x="477" 
d="M544 506h-334l12 54h334zM11 139q0 136 91.5 220t215.5 84h9l32 164l-63 46l1 7q103 35 227 66l-129 -650l53 -54v-6q-91 -15 -207 -26l23 122q-102 -124 -157 -124q-33 0 -64.5 39t-31.5 112zM314 383q-16 10 -34 10q-39 0 -79.5 -74.5t-40.5 -168.5q0 -59 17 -59
q23 0 96 77z" />
    <glyph glyph-name="Emacron" unicode="&#x112;" horiz-adv-x="499" 
d="M-21 0l1 6l76 64l88 522l-56 64l1 6h431l-26 -159h-6l-64 94h-120l-38 -219h125l74 73h6l-37 -212h-6l-47 76h-125l-42 -249h133l106 121h7l-32 -187h-449zM483 790l-17 -82h-270l17 82h270z" />
    <glyph glyph-name="emacron" unicode="&#x113;" 
d="M139 -10q-49 0 -89 40t-40 119q0 85 46 156.5t113.5 109.5t135.5 38q53 0 78.5 -16.5t25.5 -39.5q0 -15 -9.5 -32.5t-33.5 -41t-76.5 -44.5t-126.5 -34q-6 -33 -6 -72q0 -41 14 -64.5t35 -23.5q25 0 58 17.5t47.5 29t42.5 35.5l14 -11q-43 -77 -102 -121.5t-127 -44.5z
M276 410q-21 0 -53.5 -35t-50.5 -94q48 15 77.5 39t36.5 41t7 30q0 19 -17 19zM158 594h231l-17 -81h-231z" />
    <glyph glyph-name="Ebreve" unicode="&#x114;" horiz-adv-x="499" 
d="M-21 0l1 6l76 64l88 522l-56 64l1 6h431l-26 -159h-6l-64 94h-120l-38 -219h125l74 73h6l-37 -212h-6l-47 76h-125l-42 -249h133l106 121h7l-32 -187h-449zM461 836q-9 -64 -44 -102.5t-93 -38.5q-61 0 -82.5 45.5t-13.5 95.5l7 1q25 -54 97 -54q68 0 122 54z" />
    <glyph glyph-name="ebreve" unicode="&#x115;" 
d="M139 -10q-49 0 -89 40t-40 119q0 85 46 156.5t113.5 109.5t135.5 38q53 0 78.5 -16.5t25.5 -39.5q0 -15 -9.5 -32.5t-33.5 -41t-76.5 -44.5t-126.5 -34q-6 -33 -6 -72q0 -41 14 -64.5t35 -23.5q25 0 58 17.5t47.5 29t42.5 35.5l14 -11q-43 -77 -102 -121.5t-127 -44.5z
M276 410q-21 0 -53.5 -35t-50.5 -94q48 15 77.5 39t36.5 41t7 30q0 19 -17 19zM384 642q-8 -70 -41 -109.5t-87 -39.5q-57 0 -77.5 46.5t-9.5 102.5l8 1q19 -61 87 -61q69 0 112 61z" />
    <glyph glyph-name="Edotaccent" unicode="&#x116;" horiz-adv-x="499" 
d="M-21 0l1 6l76 64l88 522l-56 64l1 6h431l-26 -159h-6l-64 94h-120l-38 -219h125l74 73h6l-37 -212h-6l-47 76h-125l-42 -249h133l106 121h7l-32 -187h-449zM331 841q32 0 54.5 -21.5t22.5 -52.5q0 -30 -22.5 -51.5t-54.5 -21.5q-31 0 -52 21.5t-21 51.5q0 31 21 52.5
t52 21.5z" />
    <glyph glyph-name="edotaccent" unicode="&#x117;" 
d="M139 -10q-49 0 -89 40t-40 119q0 85 46 156.5t113.5 109.5t135.5 38q53 0 78.5 -16.5t25.5 -39.5q0 -15 -9.5 -32.5t-33.5 -41t-76.5 -44.5t-126.5 -34q-6 -33 -6 -72q0 -41 14 -64.5t35 -23.5q25 0 58 17.5t47.5 29t42.5 35.5l14 -11q-43 -77 -102 -121.5t-127 -44.5z
M276 410q-21 0 -53.5 -35t-50.5 -94q48 15 77.5 39t36.5 41t7 30q0 19 -17 19zM275 641q32 0 54.5 -21.5t22.5 -52.5q0 -30 -22.5 -51.5t-54.5 -21.5q-31 0 -52 21.5t-21 51.5q0 31 21 52.5t52 21.5z" />
    <glyph glyph-name="Eogonek" unicode="&#x118;" horiz-adv-x="499" 
d="M-21 0l1 6l76 64l88 522l-56 64l1 6h431l-26 -159h-6l-64 94h-120l-38 -219h125l74 73h6l-37 -212h-6l-47 76h-125l-42 -249h133l106 121h7l-32 -187h-449zM253 -246q-45 0 -71.5 22.5t-25.5 58.5q0 50 49 93.5t117 71.5h33q-1 -1 -7.5 -8t-9 -10t-9 -11t-10 -13
t-9.5 -13.5t-9 -15.5t-6.5 -15t-5 -16.5t-1.5 -16.5q0 -17 10.5 -28.5t31.5 -11.5q39 0 82 23l5 -4q-6 -14 -17 -29t-30 -34t-50 -31t-67 -12z" />
    <glyph glyph-name="eogonek" unicode="&#x119;" 
d="M47 -165q0 44 39.5 83.5t117.5 82.5q-30 -11 -65 -11q-49 0 -89 40t-40 119q0 85 46 156.5t113.5 109.5t135.5 38q53 0 78.5 -16.5t25.5 -39.5q0 -15 -9.5 -32.5t-33.5 -41t-76.5 -44.5t-126.5 -34q-6 -33 -6 -72q0 -41 14 -64.5t35 -23.5q25 0 58 17.5t47.5 29
t42.5 35.5l14 -11q-4 -8 -9 -16t-9 -14t-10 -14.5t-9.5 -13.5t-11 -13.5t-11 -12.5t-12.5 -14t-12 -13.5t-13.5 -15t-13.5 -14.5q-2 -2 -16.5 -18.5t-19 -22t-15.5 -20.5t-15 -23.5t-8 -21.5t-4 -25q0 -43 42 -43q39 0 82 23l5 -4q-6 -14 -17 -29t-30 -34t-50 -31t-67 -12
q-44 0 -70.5 22.5t-26.5 58.5zM276 410q-21 0 -53.5 -35t-50.5 -94q48 15 77.5 39t36.5 41t7 30q0 19 -17 19z" />
    <glyph glyph-name="Ecaron" unicode="&#x11a;" horiz-adv-x="499" 
d="M-21 0l1 6l76 64l88 522l-56 64l1 6h431l-26 -159h-6l-64 94h-120l-38 -219h125l74 73h6l-37 -212h-6l-47 76h-125l-42 -249h133l106 121h7l-32 -187h-449zM322 687l-110 166l5 6l119 -50l153 50l4 -6z" />
    <glyph glyph-name="ecaron" unicode="&#x11b;" 
d="M139 -10q-49 0 -89 40t-40 119q0 85 46 156.5t113.5 109.5t135.5 38q53 0 78.5 -16.5t25.5 -39.5q0 -15 -9.5 -32.5t-33.5 -41t-76.5 -44.5t-126.5 -34q-6 -33 -6 -72q0 -41 14 -64.5t35 -23.5q25 0 58 17.5t47.5 29t42.5 35.5l14 -11q-43 -77 -102 -121.5t-127 -44.5z
M276 410q-21 0 -53.5 -35t-50.5 -94q48 15 77.5 39t36.5 41t7 30q0 19 -17 19zM256 475l-71 236l7 4l86 -86l122 86l6 -6z" />
    <glyph glyph-name="Gcircumflex" unicode="&#x11c;" horiz-adv-x="661" 
d="M561 26q-7 -2 -50 -13t-79.5 -17t-73.5 -6q-140 0 -229.5 76.5t-89.5 206.5q0 116 62 209t157 141.5t198 48.5q95 0 184 -25l-30 -176h-7q-98 132 -167 132q-73 0 -148 -92.5t-75 -227.5q0 -101 44.5 -160.5t115.5 -59.5q32 0 49 4l34 206l-63 64l1 7h279l-1 -7l-71 -71z
M453 861l110 -166l-5 -6l-119 50l-153 -50l-4 6z" />
    <glyph glyph-name="gcircumflex" unicode="&#x11d;" horiz-adv-x="437" 
d="M32 293q0 69 64 115.5t140 46.5q40 0 76 -15h159l-32 -61h-67q26 -23 26 -56q0 -64 -65.5 -112.5t-142.5 -48.5q-12 0 -15 1q-21 -21 -21 -35t37 -32q24 -13 81.5 -41.5t88.5 -48.5q69 -39 69 -84q0 -66 -81 -116.5t-182 -50.5q-51 0 -95 6.5t-72 17t-48.5 22.5t-29.5 23
t-9 20q0 27 42.5 64t145.5 80l-4 2q-70 40 -70 71q0 22 35 55.5t73 53.5q-46 15 -74.5 47t-28.5 76zM281 -101q-21 11 -68 33t-77 37q-85 -49 -85 -95q0 -25 35 -42.5t93 -17.5q44 0 77 10t45.5 21.5t12.5 20.5t-7 15.5t-26 17.5zM233 411q-22 0 -45 -40t-23 -93
q0 -30 9.5 -49t19.5 -19q31 0 50 45t19 93q0 28 -9 45.5t-21 17.5zM279 715l71 -236l-7 -4l-86 86l-122 -86l-6 6z" />
    <glyph glyph-name="Gbreve" unicode="&#x11e;" horiz-adv-x="661" 
d="M561 26q-7 -2 -50 -13t-79.5 -17t-73.5 -6q-140 0 -229.5 76.5t-89.5 206.5q0 116 62 209t157 141.5t198 48.5q95 0 184 -25l-30 -176h-7q-98 132 -167 132q-73 0 -148 -92.5t-75 -227.5q0 -101 44.5 -160.5t115.5 -59.5q32 0 49 4l34 206l-63 64l1 7h279l-1 -7l-71 -71z
M553 836q-9 -64 -44 -102.5t-93 -38.5q-61 0 -82.5 45.5t-13.5 95.5l7 1q25 -54 97 -54q68 0 122 54z" />
    <glyph glyph-name="gbreve" unicode="&#x11f;" horiz-adv-x="437" 
d="M32 293q0 69 64 115.5t140 46.5q40 0 76 -15h159l-32 -61h-67q26 -23 26 -56q0 -64 -65.5 -112.5t-142.5 -48.5q-12 0 -15 1q-21 -21 -21 -35t37 -32q24 -13 81.5 -41.5t88.5 -48.5q69 -39 69 -84q0 -66 -81 -116.5t-182 -50.5q-51 0 -95 6.5t-72 17t-48.5 22.5t-29.5 23
t-9 20q0 27 42.5 64t145.5 80l-4 2q-70 40 -70 71q0 22 35 55.5t73 53.5q-46 15 -74.5 47t-28.5 76zM281 -101q-21 11 -68 33t-77 37q-85 -49 -85 -95q0 -25 35 -42.5t93 -17.5q44 0 77 10t45.5 21.5t12.5 20.5t-7 15.5t-26 17.5zM233 411q-22 0 -45 -40t-23 -93
q0 -30 9.5 -49t19.5 -19q31 0 50 45t19 93q0 28 -9 45.5t-21 17.5zM370 642q-8 -70 -41 -109.5t-87 -39.5q-57 0 -77.5 46.5t-9.5 102.5l8 1q19 -61 87 -61q69 0 112 61z" />
    <glyph glyph-name="Gdotaccent" unicode="&#x120;" horiz-adv-x="661" 
d="M561 26q-7 -2 -50 -13t-79.5 -17t-73.5 -6q-140 0 -229.5 76.5t-89.5 206.5q0 116 62 209t157 141.5t198 48.5q95 0 184 -25l-30 -176h-7q-98 132 -167 132q-73 0 -148 -92.5t-75 -227.5q0 -101 44.5 -160.5t115.5 -59.5q32 0 49 4l34 206l-63 64l1 7h279l-1 -7l-71 -71z
M438 841q32 0 54.5 -21.5t22.5 -52.5q0 -30 -22.5 -51.5t-54.5 -21.5q-31 0 -52 21.5t-21 51.5q0 31 21 52.5t52 21.5z" />
    <glyph glyph-name="gdotaccent" unicode="&#x121;" horiz-adv-x="437" 
d="M32 293q0 69 64 115.5t140 46.5q40 0 76 -15h159l-32 -61h-67q26 -23 26 -56q0 -64 -65.5 -112.5t-142.5 -48.5q-12 0 -15 1q-21 -21 -21 -35t37 -32q24 -13 81.5 -41.5t88.5 -48.5q69 -39 69 -84q0 -66 -81 -116.5t-182 -50.5q-51 0 -95 6.5t-72 17t-48.5 22.5t-29.5 23
t-9 20q0 27 42.5 64t145.5 80l-4 2q-70 40 -70 71q0 22 35 55.5t73 53.5q-46 15 -74.5 47t-28.5 76zM281 -101q-21 11 -68 33t-77 37q-85 -49 -85 -95q0 -25 35 -42.5t93 -17.5q44 0 77 10t45.5 21.5t12.5 20.5t-7 15.5t-26 17.5zM233 411q-22 0 -45 -40t-23 -93
q0 -30 9.5 -49t19.5 -19q31 0 50 45t19 93q0 28 -9 45.5t-21 17.5zM258 641q32 0 54.5 -21.5t22.5 -52.5q0 -30 -22.5 -51.5t-54.5 -21.5q-31 0 -52 21.5t-21 51.5q0 31 21 52.5t52 21.5z" />
    <glyph glyph-name="Gcommaaccent" unicode="&#x122;" horiz-adv-x="661" 
d="M561 26q-7 -2 -50 -13t-79.5 -17t-73.5 -6q-140 0 -229.5 76.5t-89.5 206.5q0 116 62 209t157 141.5t198 48.5q95 0 184 -25l-30 -176h-7q-98 132 -167 132q-73 0 -148 -92.5t-75 -227.5q0 -101 44.5 -160.5t115.5 -59.5q32 0 49 4l34 206l-63 64l1 7h279l-1 -7l-71 -71z
M375 -119q0 -40 -32 -79.5t-89 -58.5l-14 5q46 52 63 93q-28 0 -44 15t-16 39t17.5 40.5t44.5 16.5q30 0 50 -19t20 -52z" />
    <glyph glyph-name="gcommaaccent" unicode="&#x123;" horiz-adv-x="437" 
d="M32 293q0 69 64 115.5t140 46.5q40 0 76 -15h159l-32 -61h-67q26 -23 26 -56q0 -64 -65.5 -112.5t-142.5 -48.5q-12 0 -15 1q-21 -21 -21 -35t37 -32q24 -13 81.5 -41.5t88.5 -48.5q69 -39 69 -84q0 -66 -81 -116.5t-182 -50.5q-51 0 -95 6.5t-72 17t-48.5 22.5t-29.5 23
t-9 20q0 27 42.5 64t145.5 80l-4 2q-70 40 -70 71q0 22 35 55.5t73 53.5q-46 15 -74.5 47t-28.5 76zM281 -101q-21 11 -68 33t-77 37q-85 -49 -85 -95q0 -25 35 -42.5t93 -17.5q44 0 77 10t45.5 21.5t12.5 20.5t-7 15.5t-26 17.5zM233 411q-22 0 -45 -40t-23 -93
q0 -30 9.5 -49t19.5 -19q31 0 50 45t19 93q0 28 -9 45.5t-21 17.5zM189 561q0 40 32 79.5t89 58.5l14 -5q-46 -52 -63 -93q28 0 44 -15t16 -39t-17.5 -40.5t-44.5 -16.5q-30 0 -50 19t-20 52z" />
    <glyph glyph-name="Hcircumflex" unicode="&#x124;" horiz-adv-x="716" 
d="M267 369h232l38 223l-56 64l1 6h293l-1 -6l-78 -64l-87 -522l54 -64l-1 -6h-291l1 6l77 64l39 233h-232l-39 -233l54 -64l-1 -6h-291l1 6l77 64l88 522l-57 64l2 6h293l-1 -6l-78 -64zM465 861l110 -166l-5 -6l-119 50l-153 -50l-4 6z" />
    <glyph glyph-name="hcircumflex" unicode="&#x125;" horiz-adv-x="503" 
d="M66 654l3 7q13 4 98 29t125 36l-85 -426q126 153 214 153q30 0 50 -19t10 -60l-69 -298l53 -54v-6q-69 -13 -215 -26q1 2 20.5 86.5t39 167t19.5 81.5q2 17 -5 17q-26 0 -130 -108l-46 -234h-142l121 606zM364 904l110 -166l-5 -6l-119 50l-153 -50l-4 6z" />
    <glyph glyph-name="Hbar" unicode="&#x126;" horiz-adv-x="716" 
d="M52 463l10 58h691l-10 -58h-691zM267 369h232l38 223l-56 64l1 6h293l-1 -6l-78 -64l-87 -522l54 -64l-1 -6h-291l1 6l77 64l39 233h-232l-39 -233l54 -64l-1 -6h-291l1 6l77 64l88 522l-57 64l2 6h293l-1 -6l-78 -64z" />
    <glyph glyph-name="hbar" unicode="&#x127;" horiz-adv-x="503" 
d="M40 506l12 54h326l-12 -54h-326zM66 654l3 7q13 4 98 29t125 36l-85 -426q126 153 214 153q30 0 50 -19t10 -60l-69 -298l53 -54v-6q-69 -13 -215 -26q1 2 20.5 86.5t39 167t19.5 81.5q2 17 -5 17q-26 0 -130 -108l-46 -234h-142l121 606z" />
    <glyph glyph-name="Itilde" unicode="&#x128;" horiz-adv-x="324" 
d="M-21 0l1 6l77 64l88 522l-56 64l1 6h293l-1 -6l-78 -64l-88 -522l54 -64l-1 -6h-290zM214 826q13 0 55.5 -11.5t56.5 -11.5q13 0 36.5 15t43.5 36l6 -3q-18 -65 -46.5 -103t-55.5 -38q-16 0 -58.5 11.5t-53.5 11.5q-30 0 -84 -50l-6 3q20 60 50.5 100t55.5 40z" />
    <glyph glyph-name="itilde" unicode="&#x129;" horiz-adv-x="261" 
d="M83 337l-50 48l2 6q97 36 213 65l-76 -380l55 -54v-6q-77 -14 -214 -26zM148 628q12 0 53 -13.5t54 -13.5q21 0 72 59l7 -2q-15 -68 -41.5 -109t-50.5 -41q-16 0 -56 13t-51 13q-21 0 -76 -59l-7 2q18 66 46 108.5t50 42.5z" />
    <glyph glyph-name="Imacron" unicode="&#x12a;" horiz-adv-x="324" 
d="M-21 0l1 6l77 64l88 522l-56 64l1 6h293l-1 -6l-78 -64l-88 -522l54 -64l-1 -6h-290zM391 790l-17 -82h-270l17 82h270z" />
    <glyph glyph-name="imacron" unicode="&#x12b;" horiz-adv-x="261" 
d="M83 337l-50 48l2 6q97 36 213 65l-76 -380l55 -54v-6q-77 -14 -214 -26zM80 594h231l-17 -81h-231z" />
    <glyph glyph-name="Ibreve" unicode="&#x12c;" horiz-adv-x="324" 
d="M-21 0l1 6l77 64l88 522l-56 64l1 6h293l-1 -6l-78 -64l-88 -522l54 -64l-1 -6h-290zM379 836q-9 -64 -44 -102.5t-93 -38.5q-61 0 -82.5 45.5t-13.5 95.5l7 1q25 -54 97 -54q68 0 122 54z" />
    <glyph glyph-name="ibreve" unicode="&#x12d;" horiz-adv-x="261" 
d="M83 337l-50 48l2 6q97 36 213 65l-76 -380l55 -54v-6q-77 -14 -214 -26zM305 642q-8 -70 -41 -109.5t-87 -39.5q-57 0 -77.5 46.5t-9.5 102.5l8 1q19 -61 87 -61q69 0 112 61z" />
    <glyph glyph-name="Iogonek" unicode="&#x12e;" horiz-adv-x="324" 
d="M96 -246q-44 0 -70.5 22.5t-26.5 58.5q0 49 48 93.5t115 71.5h33q-2 -3 -16 -20.5t-22.5 -29.5t-17 -32t-8.5 -37t10.5 -28.5t31.5 -11.5q39 0 82 23l5 -4q-6 -14 -17 -29t-30 -34t-50 -31t-67 -12zM-21 0l1 6l77 64l88 522l-56 64l1 6h293l-1 -6l-78 -64l-88 -522
l54 -64l-1 -6h-290z" />
    <glyph glyph-name="iogonek" unicode="&#x12f;" horiz-adv-x="261" 
d="M194 640q33 0 54 -21t21 -52t-21.5 -52t-53.5 -21t-53 21.5t-21 51.5q0 31 21 52t53 21zM-55 -246q-44 0 -70.5 22.5t-26.5 58.5q0 50 49 94t118 71l68 337l-50 48l2 6q97 36 213 65l-76 -380l55 -54v-6q-69 -12 -187 -24q-60 -69 -60 -111q0 -17 10.5 -28.5t31.5 -11.5
q39 0 82 23l5 -4q-6 -14 -17 -29t-30 -34t-50 -31t-67 -12z" />
    <glyph glyph-name="Idotaccent" unicode="&#x130;" horiz-adv-x="324" 
d="M-21 0l1 6l77 64l88 522l-56 64l1 6h293l-1 -6l-78 -64l-88 -522l54 -64l-1 -6h-290zM242 841q32 0 54.5 -21.5t22.5 -52.5q0 -30 -22.5 -51.5t-54.5 -21.5q-31 0 -52 21.5t-21 51.5q0 31 21 52.5t52 21.5z" />
    <glyph glyph-name="dotlessi" unicode="&#x131;" horiz-adv-x="261" 
d="M83 337l-50 48l2 6q97 36 213 65l-76 -380l55 -54v-6q-77 -14 -214 -26z" />
    <glyph glyph-name="IJ" unicode="&#x132;" horiz-adv-x="641" 
d="M-21 0l1 6l77 64l88 522l-56 64l1 6h293l-1 -6l-78 -64l-88 -522l54 -64l-1 -6h-290zM542 106q-12 -70 -82.5 -159t-201.5 -162l-10 8q106 135 146 375l72 424l-57 64l1 6h293l-1 -6l-78 -64z" />
    <glyph glyph-name="ij" unicode="&#x133;" horiz-adv-x="509" 
d="M83 337l-50 48l2 6q97 36 213 65l-76 -380l55 -54v-6q-77 -14 -214 -26zM194 640q33 0 54 -21t21 -52t-21.5 -52t-53.5 -21t-53 21.5t-21 51.5q0 31 21 52t53 21zM419 25q-10 -57 -77 -136.5t-157 -137.5l-7 4q77 154 99 265l65 317l-50 48l1 6q83 30 214 65zM452 641
q32 0 54.5 -21.5t22.5 -52.5q0 -30 -22.5 -51t-54.5 -21q-31 0 -52 21t-21 51q0 31 21 52.5t52 21.5z" />
    <glyph glyph-name="Jcircumflex" unicode="&#x134;" horiz-adv-x="317" 
d="M218 106q-12 -70 -82.5 -159t-201.5 -162l-10 8q106 135 146 375l72 424l-57 64l1 6h293l-1 -6l-78 -64zM262 861l110 -166l-5 -6l-119 50l-153 -50l-4 6z" />
    <glyph glyph-name="jcircumflex" unicode="&#x135;" horiz-adv-x="249" 
d="M159 25q-10 -57 -77 -136.5t-157 -137.5l-7 4q77 154 99 265l65 317l-50 48l1 6q83 30 214 65zM207 715l71 -236l-7 -4l-86 86l-122 -86l-6 6z" />
    <glyph glyph-name="Kcommaaccent" unicode="&#x136;" horiz-adv-x="666" 
d="M-21 0v6l78 64l88 522l-56 64l1 6h294l-1 -6l-79 -64l-88 -522l55 -64l-1 -6h-291zM329 0l1 6l79 64l-109 250h-28l235 272l-54 64l1 6h243l-1 -6l-101 -65l-162 -183l146 -338l52 -64l-1 -6h-301zM363 -119q0 -40 -32 -79.5t-89 -58.5l-14 5q46 52 63 93q-28 0 -44 15
t-16 39t17.5 40.5t44.5 16.5q30 0 50 -19t20 -52z" />
    <glyph glyph-name="kcommaaccent" unicode="&#x137;" horiz-adv-x="448" 
d="M127 606l-60 48l2 7q12 4 50.5 15t92.5 26.5t80 23.5l-144 -726h-143zM203 205q104 104 104 148q0 23 -26 46l3 6l131 49q31 -37 31 -63q0 -25 -24 -53t-106 -83q100 -225 118 -255l-1 -6q-101 2 -124 9q-38 11 -60 58q-16 34 -47 136zM267 -119q0 -40 -32 -79.5
t-89 -58.5l-14 5q46 52 63 93q-28 0 -44 15t-16 39t17.5 40.5t44.5 16.5q30 0 50 -19t20 -52z" />
    <glyph glyph-name="Lacute" unicode="&#x139;" horiz-adv-x="539" 
d="M215 66h143l141 157h7l-38 -223h-490l1 6l78 64l88 522l-56 64l1 6h292l-1 -6l-79 -64zM130 704l-3 8l207 140l45 -120z" />
    <glyph glyph-name="lacute" unicode="&#x13a;" horiz-adv-x="257" 
d="M130 606l-59 48l1 7q14 4 51.5 15t92.5 27t79 23l-128 -650l53 -54v-6q-54 -11 -213 -26zM105 734l-3 8l207 140l45 -120z" />
    <glyph glyph-name="Lcommaaccent" unicode="&#x13b;" horiz-adv-x="539" 
d="M215 66h143l141 157h7l-38 -223h-490l1 6l78 64l88 522l-56 64l1 6h292l-1 -6l-79 -64zM303 -119q0 -40 -32 -79.5t-89 -58.5l-14 5q46 52 63 93q-28 0 -44 15t-16 39t17.5 40.5t44.5 16.5q30 0 50 -19t20 -52z" />
    <glyph glyph-name="lcommaaccent" unicode="&#x13c;" horiz-adv-x="257" 
d="M130 606l-59 48l1 7q14 4 51.5 15t92.5 27t79 23l-128 -650l53 -54v-6q-54 -11 -213 -26zM139 -119q0 -40 -32 -79.5t-89 -58.5l-14 5q46 52 63 93q-28 0 -44 15t-16 39t17.5 40.5t44.5 16.5q30 0 50 -19t20 -52z" />
    <glyph glyph-name="Lcaron" unicode="&#x13d;" horiz-adv-x="539" 
d="M215 66h143l141 157h7l-38 -223h-490l1 6l78 64l88 522l-56 64l1 6h292l-1 -6l-79 -64zM366 495l59 220h109l-161 -220h-7z" />
    <glyph glyph-name="lcaron" unicode="&#x13e;" horiz-adv-x="257" 
d="M130 606l-59 48l1 7q14 4 51.5 15t92.5 27t79 23l-128 -650l53 -54v-6q-54 -11 -213 -26zM286 495l59 220h109l-161 -220h-7z" />
    <glyph glyph-name="Ldot" unicode="&#x13f;" horiz-adv-x="539" 
d="M470 441q34 0 55 -21.5t21 -53.5t-21 -53.5t-55 -21.5t-55 21.5t-21 53.5t21 53.5t55 21.5zM215 66h143l141 157h7l-38 -223h-490l1 6l78 64l88 522l-56 64l1 6h292l-1 -6l-79 -64z" />
    <glyph glyph-name="ldot" unicode="&#x140;" horiz-adv-x="401" 
d="M348 409q34 0 55 -21.5t21 -53.5t-21 -53.5t-55 -21.5t-55 21.5t-21 53.5t21 53.5t55 21.5zM130 606l-59 48l1 7q14 4 51.5 15t92.5 27t79 23l-128 -650l53 -54v-6q-54 -11 -213 -26z" />
    <glyph glyph-name="Lslash" unicode="&#x141;" horiz-adv-x="539" 
d="M215 66h143l141 157h7l-38 -223h-490l1 6l78 64l21 129l-88 -46l12 69l88 47l55 323l-56 64l1 6h292l-1 -6l-79 -64l-38 -231l172 91l-12 -74l-172 -89z" />
    <glyph glyph-name="lslash" unicode="&#x142;" horiz-adv-x="261" 
d="M132 606l-59 48l1 7q14 4 51.5 15t92.5 27t79 23l-61 -310l67 39l-15 -73l-66 -38l-53 -268l53 -54v-6q-54 -11 -213 -26l52 263l-65 -37l14 70l65 38z" />
    <glyph glyph-name="Nacute" unicode="&#x143;" horiz-adv-x="674" 
d="M492 0l-291 469l-67 -399l87 -64l-1 -6h-241l1 6l77 64l83 496q-40 63 -60 90l1 6h189l252 -412l59 342l-79 64l1 6h234l-1 -6l-78 -64l-100 -592h-66zM316 704l-3 8l207 140l45 -120z" />
    <glyph glyph-name="nacute" unicode="&#x144;" horiz-adv-x="510" 
d="M14 0l69 338l-51 47l1 6q156 50 214 65l-32 -157q76 92 125 123t89 31q30 0 50 -18.5t9 -60.5l-68 -298l52 -54v-6q-54 -11 -214 -26l78 337q3 15 -5 15q-11 0 -50 -32.5t-79 -76.5l-46 -233h-142zM270 482l-7 5l112 227l98 -83z" />
    <glyph glyph-name="Ncommaaccent" unicode="&#x145;" horiz-adv-x="674" 
d="M492 0l-291 469l-67 -399l87 -64l-1 -6h-241l1 6l77 64l83 496q-40 63 -60 90l1 6h189l252 -412l59 342l-79 64l1 6h234l-1 -6l-78 -64l-100 -592h-66zM361 -119q0 -40 -32 -79.5t-89 -58.5l-14 5q46 52 63 93q-28 0 -44 15t-16 39t17.5 40.5t44.5 16.5q30 0 50 -19
t20 -52z" />
    <glyph glyph-name="ncommaaccent" unicode="&#x146;" horiz-adv-x="510" 
d="M14 0l69 338l-51 47l1 6q156 50 214 65l-32 -157q76 92 125 123t89 31q30 0 50 -18.5t9 -60.5l-68 -298l52 -54v-6q-54 -11 -214 -26l78 337q3 15 -5 15q-11 0 -50 -32.5t-79 -76.5l-46 -233h-142zM252 -119q0 -40 -32 -79.5t-89 -58.5l-14 5q46 52 63 93q-28 0 -44 15
t-16 39t17.5 40.5t44.5 16.5q30 0 50 -19t20 -52z" />
    <glyph glyph-name="Ncaron" unicode="&#x147;" horiz-adv-x="674" 
d="M492 0l-291 469l-67 -399l87 -64l-1 -6h-241l1 6l77 64l83 496q-40 63 -60 90l1 6h189l252 -412l59 342l-79 64l1 6h234l-1 -6l-78 -64l-100 -592h-66zM419 687l-110 166l5 6l119 -50l153 50l4 -6z" />
    <glyph glyph-name="ncaron" unicode="&#x148;" horiz-adv-x="510" 
d="M14 0l69 338l-51 47l1 6q156 50 214 65l-32 -157q76 92 125 123t89 31q30 0 50 -18.5t9 -60.5l-68 -298l52 -54v-6q-54 -11 -214 -26l78 337q3 15 -5 15q-11 0 -50 -32.5t-79 -76.5l-46 -233h-142zM307 475l-71 236l7 4l86 -86l122 86l6 -6z" />
    <glyph glyph-name="napostrophe" unicode="&#x149;" horiz-adv-x="563" 
d="M67 0l69 338l-51 47l1 6q156 50 214 65l-32 -157q76 92 125 123t89 31q30 0 50 -18.5t9 -60.5l-68 -298l52 -54v-6q-54 -11 -214 -26l78 337q3 15 -5 15q-11 0 -50 -32.5t-79 -76.5l-46 -233h-142zM40 436q67 82 82 132q-28 1 -46.5 17t-18.5 44q0 29 20 47t50 18
q35 0 57 -24.5t22 -62.5q0 -55 -42 -104t-110 -73z" />
    <glyph glyph-name="Eng" unicode="&#x14a;" horiz-adv-x="673" 
d="M-22 0l1 6l77 64l83 496q-40 63 -60 90l1 6h189l202 -330q33 -55 49 -90l60 350l-79 64l1 6h234l-1 -6l-78 -64l-82 -486q-13 -74 -74.5 -161.5t-182.5 -159.5l-10 8q48 66 84.5 136t36.5 118q0 33 -17 71t-60 106l-152 245l-67 -399l87 -64l-1 -6h-241z" />
    <glyph glyph-name="eng" unicode="&#x14b;" horiz-adv-x="501" 
d="M14 0l69 338l-51 47l1 6q156 50 214 65l-32 -157q76 92 125 123t89 31q30 0 50 -18.5t9 -60.5l-80 -349q-12 -57 -79 -136.5t-156 -137.5l-7 4q69 137 99 265l71 307q3 15 -5 15q-11 0 -50 -32.5t-79 -76.5l-46 -233h-142z" />
    <glyph glyph-name="Omacron" unicode="&#x14c;" horiz-adv-x="694" 
d="M411 604q-69 0 -133 -97.5t-64 -245.5q0 -92 34 -146t78 -54q71 0 133 98t62 245q0 94 -30.5 147t-79.5 53zM43 272q0 171 111.5 285.5t257.5 114.5q117 0 198.5 -77t81.5 -201q0 -171 -110.5 -287.5t-255.5 -116.5q-123 0 -203 77.5t-80 204.5zM576 790l-17 -82h-270
l17 82h270z" />
    <glyph glyph-name="omacron" unicode="&#x14d;" horiz-adv-x="464" 
d="M198 -13q-74 0 -129 47t-55 130q0 123 79 206t177 83q72 0 126 -44.5t54 -125.5q0 -126 -78.5 -211t-173.5 -85zM201 42q33 0 68 92t35 181q0 30 -7 49.5t-14.5 26.5t-15.5 7q-37 0 -71.5 -83t-34.5 -175q0 -44 12 -71t28 -27zM182 594h231l-17 -81h-231z" />
    <glyph glyph-name="Obreve" unicode="&#x14e;" horiz-adv-x="694" 
d="M411 604q-69 0 -133 -97.5t-64 -245.5q0 -92 34 -146t78 -54q71 0 133 98t62 245q0 94 -30.5 147t-79.5 53zM43 272q0 171 111.5 285.5t257.5 114.5q117 0 198.5 -77t81.5 -201q0 -171 -110.5 -287.5t-255.5 -116.5q-123 0 -203 77.5t-80 204.5zM561 836
q-9 -64 -44 -102.5t-93 -38.5q-61 0 -82.5 45.5t-13.5 95.5l7 1q25 -54 97 -54q68 0 122 54z" />
    <glyph glyph-name="obreve" unicode="&#x14f;" horiz-adv-x="464" 
d="M198 -13q-74 0 -129 47t-55 130q0 123 79 206t177 83q72 0 126 -44.5t54 -125.5q0 -126 -78.5 -211t-173.5 -85zM201 42q33 0 68 92t35 181q0 30 -7 49.5t-14.5 26.5t-15.5 7q-37 0 -71.5 -83t-34.5 -175q0 -44 12 -71t28 -27zM406 642q-8 -70 -41 -109.5t-87 -39.5
q-57 0 -77.5 46.5t-9.5 102.5l8 1q19 -61 87 -61q69 0 112 61z" />
    <glyph glyph-name="Ohungarumlaut" unicode="&#x150;" horiz-adv-x="694" 
d="M411 604q-69 0 -133 -97.5t-64 -245.5q0 -92 34 -146t78 -54q71 0 133 98t62 245q0 94 -30.5 147t-79.5 53zM43 272q0 171 111.5 285.5t257.5 114.5q117 0 198.5 -77t81.5 -201q0 -171 -110.5 -287.5t-255.5 -116.5q-123 0 -203 77.5t-80 204.5zM474 702l-5 8l143 167
l69 -92zM292 702l-5 8l143 167l70 -92z" />
    <glyph glyph-name="ohungarumlaut" unicode="&#x151;" horiz-adv-x="464" 
d="M198 -13q-74 0 -129 47t-55 130q0 123 79 206t177 83q72 0 126 -44.5t54 -125.5q0 -126 -78.5 -211t-173.5 -85zM201 42q33 0 68 92t35 181q0 30 -7 49.5t-14.5 26.5t-15.5 7q-37 0 -71.5 -83t-34.5 -175q0 -44 12 -71t28 -27zM318 483l73 224l97 -58l-163 -169zM181 480
l-7 3l73 224l96 -58z" />
    <glyph glyph-name="OE" unicode="&#x152;" horiz-adv-x="827" 
d="M361 0q-87 0 -156.5 27t-115 91t-45.5 157q0 160 118 273.5t286 113.5h400l-26 -159h-6l-64 94h-114l-38 -221h119l74 73h6l-37 -212h-6l-47 76h-119l-42 -247h127l106 121h7l-32 -187h-395zM390 70l88 525h-28q-94 0 -164.5 -94.5t-70.5 -230.5q0 -100 42 -150t109 -50
h24z" />
    <glyph glyph-name="oe" unicode="&#x153;" horiz-adv-x="685" 
d="M430 -10q-58 0 -90 60q-59 -63 -142 -63q-74 0 -129 47t-55 130q0 123 79 206t177 83q90 0 142 -66q89 66 178 66q53 0 78.5 -16.5t25.5 -39.5q0 -15 -9.5 -32.5t-33.5 -41t-76.5 -44.5t-126.5 -34q-6 -33 -6 -72q0 -41 14 -65t35 -23q58 0 147 84l16 -14
q-94 -165 -224 -165zM201 42q33 0 68 92t35 181q0 30 -7 49.5t-14.5 26.5t-15.5 7q-37 0 -71.5 -83t-34.5 -175q0 -44 12 -71t28 -27zM561 410q-21 0 -53.5 -35t-50.5 -94q48 15 77.5 39t36.5 41t7 30q0 19 -17 19z" />
    <glyph glyph-name="Racute" unicode="&#x154;" horiz-adv-x="616" 
d="M-21 6l77 64l89 522l-56 64l1 6h253q105 0 168 -34.5t63 -108.5q0 -112 -137 -170l54 -153q48 -136 101 -202l-1 -6q-49 -1 -85.5 3t-61.5 15.5t-40.5 21.5t-28 32.5t-17.5 36.5t-15 45q-19 62 -49 169h-39l-40 -241l61 -64l-1 -6h-296v6zM303 604l-39 -235h88
q10 0 26.5 15t31.5 47.5t15 70.5q0 51 -28 76.5t-71 25.5h-23zM255 704l-3 8l207 140l45 -120z" />
    <glyph glyph-name="racute" unicode="&#x155;" horiz-adv-x="384" 
d="M14 0l68 337l-50 48l1 6q145 47 214 65l-30 -151q91 150 125 150q28 0 68 -18l-61 -157q-4 1 -17.5 8t-25.5 11.5t-19 4.5q-25 0 -82 -57l-49 -247h-142zM228 482l-7 5l112 227l98 -83z" />
    <glyph glyph-name="Rcommaaccent" unicode="&#x156;" horiz-adv-x="616" 
d="M-21 6l77 64l89 522l-56 64l1 6h253q105 0 168 -34.5t63 -108.5q0 -112 -137 -170l54 -153q48 -136 101 -202l-1 -6q-49 -1 -85.5 3t-61.5 15.5t-40.5 21.5t-28 32.5t-17.5 36.5t-15 45q-19 62 -49 169h-39l-40 -241l61 -64l-1 -6h-296v6zM303 604l-39 -235h88
q10 0 26.5 15t31.5 47.5t15 70.5q0 51 -28 76.5t-71 25.5h-23zM346 -119q0 -40 -32 -79.5t-89 -58.5l-14 5q46 52 63 93q-28 0 -44 15t-16 39t17.5 40.5t44.5 16.5q30 0 50 -19t20 -52z" />
    <glyph glyph-name="rcommaaccent" unicode="&#x157;" horiz-adv-x="384" 
d="M14 0l68 337l-50 48l1 6q145 47 214 65l-30 -151q91 150 125 150q28 0 68 -18l-61 -157q-4 1 -17.5 8t-25.5 11.5t-19 4.5q-25 0 -82 -57l-49 -247h-142zM130 -119q0 -40 -32 -79.5t-89 -58.5l-14 5q46 52 63 93q-28 0 -44 15t-16 39t17.5 40.5t44.5 16.5q30 0 50 -19
t20 -52z" />
    <glyph glyph-name="Rcaron" unicode="&#x158;" horiz-adv-x="616" 
d="M-21 6l77 64l89 522l-56 64l1 6h253q105 0 168 -34.5t63 -108.5q0 -112 -137 -170l54 -153q48 -136 101 -202l-1 -6q-49 -1 -85.5 3t-61.5 15.5t-40.5 21.5t-28 32.5t-17.5 36.5t-15 45q-19 62 -49 169h-39l-40 -241l61 -64l-1 -6h-296v6zM303 604l-39 -235h88
q10 0 26.5 15t31.5 47.5t15 70.5q0 51 -28 76.5t-71 25.5h-23zM361 687l-110 166l5 6l119 -50l153 50l4 -6z" />
    <glyph glyph-name="rcaron" unicode="&#x159;" horiz-adv-x="384" 
d="M14 0l68 337l-50 48l1 6q145 47 214 65l-30 -151q91 150 125 150q28 0 68 -18l-61 -157q-4 1 -17.5 8t-25.5 11.5t-19 4.5q-25 0 -82 -57l-49 -247h-142zM261 475l-71 236l7 4l86 -86l122 86l6 -6z" />
    <glyph glyph-name="Sacute" unicode="&#x15a;" horiz-adv-x="444" 
d="M300 672q85 0 149 -16l-31 -175h-8q-74 127 -123 127q-18 0 -34.5 -16t-16.5 -42q0 -17 10 -39t21 -40t45 -69q60 -88 79.5 -135t19.5 -85q0 -85 -61.5 -138.5t-157.5 -53.5q-104 0 -185 55q5 70 37 220h9q23 -102 62 -152.5t81 -50.5q25 0 45.5 22t20.5 55
q0 29 -14 59.5t-57 92.5q-61 85 -79.5 129t-18.5 87q0 76 61 120.5t146 44.5zM180 704l-3 8l207 140l45 -120z" />
    <glyph glyph-name="sacute" unicode="&#x15b;" horiz-adv-x="332" 
d="M216 453q62 0 122 -20l-41 -121h-5q-60 90 -86 90q-10 0 -17.5 -8.5t-7.5 -21.5q0 -16 25 -58q7 -12 33 -51t36 -57q23 -41 21 -80q0 -50 -40.5 -93t-128.5 -43q-77 0 -131 27q6 67 25 164h6q35 -78 59 -106t45 -28q15 0 24.5 11t9.5 26q0 20 -17 46q-39 56 -61 97
q-32 53 -32 97q0 50 42.5 89.5t118.5 39.5zM168 482l-7 5l112 227l98 -83z" />
    <glyph glyph-name="Scircumflex" unicode="&#x15c;" horiz-adv-x="444" 
d="M300 672q85 0 149 -16l-31 -175h-8q-74 127 -123 127q-18 0 -34.5 -16t-16.5 -42q0 -17 10 -39t21 -40t45 -69q60 -88 79.5 -135t19.5 -85q0 -85 -61.5 -138.5t-157.5 -53.5q-104 0 -185 55q5 70 37 220h9q23 -102 62 -152.5t81 -50.5q25 0 45.5 22t20.5 55
q0 29 -14 59.5t-57 92.5q-61 85 -79.5 129t-18.5 87q0 76 61 120.5t146 44.5zM324 861l110 -166l-5 -6l-119 50l-153 -50l-4 6z" />
    <glyph glyph-name="scircumflex" unicode="&#x15d;" horiz-adv-x="332" 
d="M216 453q62 0 122 -20l-41 -121h-5q-60 90 -86 90q-10 0 -17.5 -8.5t-7.5 -21.5q0 -16 25 -58q7 -12 33 -51t36 -57q23 -41 21 -80q0 -50 -40.5 -93t-128.5 -43q-77 0 -131 27q6 67 25 164h6q35 -78 59 -106t45 -28q15 0 24.5 11t9.5 26q0 20 -17 46q-39 56 -61 97
q-32 53 -32 97q0 50 42.5 89.5t118.5 39.5zM256 715l71 -236l-7 -4l-86 86l-122 -86l-6 6z" />
    <glyph glyph-name="Scedilla" unicode="&#x15e;" horiz-adv-x="444" 
d="M300 672q85 0 149 -16l-31 -175h-8q-74 127 -123 127q-18 0 -34.5 -16t-16.5 -42q0 -17 10 -39t21 -40t45 -69q60 -88 79.5 -135t19.5 -85q0 -85 -61.5 -138.5t-157.5 -53.5q-104 0 -185 55q5 70 37 220h9q23 -102 62 -152.5t81 -50.5q25 0 45.5 22t20.5 55
q0 29 -14 59.5t-57 92.5q-61 85 -79.5 129t-18.5 87q0 76 61 120.5t146 44.5zM191 0l-29 -48q78 -37 78 -95q0 -44 -53 -76t-166 -30l-1 9q112 46 112 78q0 22 -44 45l-1 3q5 9 11 19t12.5 20.5t9.5 16.5l33 58h38z" />
    <glyph glyph-name="scedilla" unicode="&#x15f;" horiz-adv-x="332" 
d="M216 453q62 0 122 -20l-41 -121h-5q-60 90 -86 90q-10 0 -17.5 -8.5t-7.5 -21.5q0 -16 25 -58q7 -12 33 -51t36 -57q23 -41 21 -80q0 -50 -40.5 -93t-128.5 -43q-77 0 -131 27q6 67 25 164h6q35 -78 59 -106t45 -28q15 0 24.5 11t9.5 26q0 20 -17 46q-39 56 -61 97
q-32 53 -32 97q0 50 42.5 89.5t118.5 39.5zM139 0l-29 -48q78 -37 78 -95q0 -44 -53 -76t-166 -30l-1 9q112 46 112 78q0 22 -44 45l-1 3q5 9 11 19t12.5 20.5t9.5 16.5l33 58h38z" />
    <glyph glyph-name="Scaron" unicode="&#x160;" horiz-adv-x="444" 
d="M300 672q85 0 149 -16l-31 -175h-8q-74 127 -123 127q-18 0 -34.5 -16t-16.5 -42q0 -17 10 -39t21 -40t45 -69q60 -88 79.5 -135t19.5 -85q0 -85 -61.5 -138.5t-157.5 -53.5q-104 0 -185 55q5 70 37 220h9q23 -102 62 -152.5t81 -50.5q25 0 45.5 22t20.5 55
q0 29 -14 59.5t-57 92.5q-61 85 -79.5 129t-18.5 87q0 76 61 120.5t146 44.5zM290 687l-110 166l5 6l119 -50l153 50l4 -6z" />
    <glyph glyph-name="scaron" unicode="&#x161;" horiz-adv-x="332" 
d="M216 453q62 0 122 -20l-41 -121h-5q-60 90 -86 90q-10 0 -17.5 -8.5t-7.5 -21.5q0 -16 25 -58q7 -12 33 -51t36 -57q23 -41 21 -80q0 -50 -40.5 -93t-128.5 -43q-77 0 -131 27q6 67 25 164h6q35 -78 59 -106t45 -28q15 0 24.5 11t9.5 26q0 20 -17 46q-39 56 -61 97
q-32 53 -32 97q0 50 42.5 89.5t118.5 39.5zM209 475l-71 236l7 4l86 -86l122 86l6 -6z" />
    <glyph glyph-name="Tcommaaccent" unicode="&#x162;" horiz-adv-x="619" 
d="M663 662l-29 -178h-5l-75 115h-100l-89 -529l69 -64l-1 -6h-323l1 6l94 64l89 529h-95l-117 -115h-5l30 178h556zM325 -119q0 -40 -32 -79.5t-89 -58.5l-14 5q46 52 63 93q-28 0 -44 15t-16 39t17.5 40.5t44.5 16.5q30 0 50 -19t20 -52z" />
    <glyph glyph-name="tcommaaccent" unicode="&#x163;" horiz-adv-x="357" 
d="M232 369l-55 -261q-3 -12 -3 -17q0 -10 10 -10q37 0 129 87l15 -12q-97 -166 -212 -166q-45 0 -67.5 18t-22.5 42q0 9 9 52l54 267h-65v5l239 165l-21 -101h156l-58 -69h-108zM159 -119q0 -40 -32 -79.5t-89 -58.5l-14 5q46 52 63 93q-28 0 -44 15t-16 39t17.5 40.5
t44.5 16.5q30 0 50 -19t20 -52z" />
    <glyph glyph-name="Tcaron" unicode="&#x164;" horiz-adv-x="619" 
d="M663 662l-29 -178h-5l-75 115h-100l-89 -529l69 -64l-1 -6h-323l1 6l94 64l89 529h-95l-117 -115h-5l30 178h556zM386 687l-110 166l5 6l119 -50l153 50l4 -6z" />
    <glyph glyph-name="tcaron" unicode="&#x165;" horiz-adv-x="357" 
d="M290 495l59 220h109l-161 -220h-7zM232 369l-55 -261q-3 -12 -3 -17q0 -10 10 -10q37 0 129 87l15 -12q-97 -166 -212 -166q-45 0 -67.5 18t-22.5 42q0 9 9 52l54 267h-65v5l239 165l-21 -101h156l-58 -69h-108z" />
    <glyph glyph-name="Tbar" unicode="&#x166;" horiz-adv-x="619" 
d="M120 336l11 59h418l-11 -59h-418zM663 662l-29 -178h-5l-75 115h-100l-89 -529l69 -64l-1 -6h-323l1 6l94 64l89 529h-95l-117 -115h-5l30 178h556z" />
    <glyph glyph-name="tbar" unicode="&#x167;" horiz-adv-x="359" 
d="M4 233l12 57h318l-13 -57h-317zM232 369l-55 -261q-3 -12 -3 -17q0 -10 10 -10q37 0 129 87l15 -12q-97 -166 -212 -166q-45 0 -67.5 18t-22.5 42q0 9 9 52l54 267h-65v5l239 165l-21 -101h156l-58 -69h-108z" />
    <glyph glyph-name="Utilde" unicode="&#x168;" horiz-adv-x="663" 
d="M590 211q-7 -40 -23.5 -76t-46 -70t-79.5 -54.5t-114 -20.5q-137 0 -203 70.5t-49 174.5l60 357l-56 64l1 6h307l-1 -6l-92 -64l-61 -365q-11 -60 22.5 -104t110.5 -44q65 0 102.5 41t48.5 104l62 368l-69 64l1 6h222l-1 -6l-78 -64zM413 826q13 0 55.5 -11.5t56.5 -11.5
q13 0 36.5 15t43.5 36l6 -3q-18 -65 -46.5 -103t-55.5 -38q-16 0 -58.5 11.5t-53.5 11.5q-30 0 -84 -50l-6 3q20 60 50.5 100t55.5 40z" />
    <glyph glyph-name="utilde" unicode="&#x169;" horiz-adv-x="499" 
d="M287 143q-62 -85 -109.5 -119.5t-95.5 -34.5q-32 0 -49 14t-17 31q0 8 9 49l59 256l-51 48l1 6q80 28 220 65l-82 -347q-2 -9 6 -9q13 0 48.5 31t74.5 82l45 225h142l-73 -364l52 -54v-6q-57 -11 -210 -26zM281 628q12 0 53 -13.5t54 -13.5q21 0 72 59l7 -2
q-15 -68 -41.5 -109t-50.5 -41q-16 0 -56 13t-51 13q-21 0 -76 -59l-7 2q18 66 46 108.5t50 42.5z" />
    <glyph glyph-name="Umacron" unicode="&#x16a;" horiz-adv-x="663" 
d="M590 211q-7 -40 -23.5 -76t-46 -70t-79.5 -54.5t-114 -20.5q-137 0 -203 70.5t-49 174.5l60 357l-56 64l1 6h307l-1 -6l-92 -64l-61 -365q-11 -60 22.5 -104t110.5 -44q65 0 102.5 41t48.5 104l62 368l-69 64l1 6h222l-1 -6l-78 -64zM589 790l-17 -82h-270l17 82h270z
" />
    <glyph glyph-name="umacron" unicode="&#x16b;" horiz-adv-x="499" 
d="M287 143q-62 -85 -109.5 -119.5t-95.5 -34.5q-32 0 -49 14t-17 31q0 8 9 49l59 256l-51 48l1 6q80 28 220 65l-82 -347q-2 -9 6 -9q13 0 48.5 31t74.5 82l45 225h142l-73 -364l52 -54v-6q-57 -11 -210 -26zM196 594h231l-17 -81h-231z" />
    <glyph glyph-name="Ubreve" unicode="&#x16c;" horiz-adv-x="663" 
d="M590 211q-7 -40 -23.5 -76t-46 -70t-79.5 -54.5t-114 -20.5q-137 0 -203 70.5t-49 174.5l60 357l-56 64l1 6h307l-1 -6l-92 -64l-61 -365q-11 -60 22.5 -104t110.5 -44q65 0 102.5 41t48.5 104l62 368l-69 64l1 6h222l-1 -6l-78 -64zM573 836q-9 -64 -44 -102.5
t-93 -38.5q-61 0 -82.5 45.5t-13.5 95.5l7 1q25 -54 97 -54q68 0 122 54z" />
    <glyph glyph-name="ubreve" unicode="&#x16d;" horiz-adv-x="499" 
d="M287 143q-62 -85 -109.5 -119.5t-95.5 -34.5q-32 0 -49 14t-17 31q0 8 9 49l59 256l-51 48l1 6q80 28 220 65l-82 -347q-2 -9 6 -9q13 0 48.5 31t74.5 82l45 225h142l-73 -364l52 -54v-6q-57 -11 -210 -26zM429 642q-8 -70 -41 -109.5t-87 -39.5q-57 0 -77.5 46.5
t-9.5 102.5l8 1q19 -61 87 -61q69 0 112 61z" />
    <glyph glyph-name="Uring" unicode="&#x16e;" horiz-adv-x="663" 
d="M590 211q-7 -40 -23.5 -76t-46 -70t-79.5 -54.5t-114 -20.5q-137 0 -203 70.5t-49 174.5l60 357l-56 64l1 6h307l-1 -6l-92 -64l-61 -365q-11 -60 22.5 -104t110.5 -44q65 0 102.5 41t48.5 104l62 368l-69 64l1 6h222l-1 -6l-78 -64zM397 778q0 -21 13.5 -35.5
t34.5 -14.5q20 0 34 14.5t14 35.5q0 20 -14 35t-34 15q-21 0 -34.5 -14.5t-13.5 -35.5zM349 778q0 38 29 66t67 28t67 -28t29 -66q0 -39 -29 -66.5t-67 -27.5q-39 0 -67.5 27t-28.5 67z" />
    <glyph glyph-name="uring" unicode="&#x16f;" horiz-adv-x="499" 
d="M287 143q-62 -85 -109.5 -119.5t-95.5 -34.5q-32 0 -49 14t-17 31q0 8 9 49l59 256l-51 48l1 6q80 28 220 65l-82 -347q-2 -9 6 -9q13 0 48.5 31t74.5 82l45 225h142l-73 -364l52 -54v-6q-57 -11 -210 -26zM267 581q0 -21 13.5 -35.5t34.5 -14.5q20 0 34 14.5t14 35.5
q0 20 -14 35t-34 15q-21 0 -34.5 -14.5t-13.5 -35.5zM219 581q0 38 29 66t67 28t67 -28t29 -66q0 -39 -29 -66.5t-67 -27.5q-39 0 -67.5 27t-28.5 67z" />
    <glyph glyph-name="Uhungarumlaut" unicode="&#x170;" horiz-adv-x="663" 
d="M590 211q-7 -40 -23.5 -76t-46 -70t-79.5 -54.5t-114 -20.5q-137 0 -203 70.5t-49 174.5l60 357l-56 64l1 6h307l-1 -6l-92 -64l-61 -365q-11 -60 22.5 -104t110.5 -44q65 0 102.5 41t48.5 104l62 368l-69 64l1 6h222l-1 -6l-78 -64zM473 702l-5 8l143 167l69 -92z
M291 702l-5 8l143 167l70 -92z" />
    <glyph glyph-name="uhungarumlaut" unicode="&#x171;" horiz-adv-x="499" 
d="M287 143q-62 -85 -109.5 -119.5t-95.5 -34.5q-32 0 -49 14t-17 31q0 8 9 49l59 256l-51 48l1 6q80 28 220 65l-82 -347q-2 -9 6 -9q13 0 48.5 31t74.5 82l45 225h142l-73 -364l52 -54v-6q-57 -11 -210 -26zM344 483l73 224l97 -58l-163 -169zM207 480l-7 3l73 224l96 -58
z" />
    <glyph glyph-name="Uogonek" unicode="&#x172;" horiz-adv-x="663" 
d="M241 -165q0 89 155 162q-37 -7 -69 -7q-137 0 -203 70.5t-49 174.5l60 357l-56 64l1 6h307l-1 -6l-92 -64l-61 -365q-11 -60 22.5 -104t110.5 -44q65 0 102.5 41t48.5 104l62 368l-69 64l1 6h222l-1 -6l-78 -64l-64 -381q-20 -117 -126 -195q-91 -66 -91 -135
q0 -17 10.5 -28.5t31.5 -11.5q39 0 82 23l5 -4q-6 -14 -17 -29t-30 -34t-50 -31t-67 -12q-44 0 -70.5 22.5t-26.5 58.5z" />
    <glyph glyph-name="uogonek" unicode="&#x173;" horiz-adv-x="499" 
d="M195 -246q-45 0 -71.5 22.5t-25.5 58.5q0 49 47.5 92t113.5 71l28 145q-63 -84 -110.5 -119t-94.5 -35q-32 0 -49 14t-17 31q0 8 9 49l59 256l-51 48l1 6q80 28 220 65l-82 -347q-2 -9 6 -9q14 0 49 31t74 81l45 226h142l-73 -364l52 -54v-6q-52 -10 -176 -23
q-61 -67 -61 -112q0 -17 10.5 -28.5t31.5 -11.5q39 0 82 23l5 -4q-6 -14 -17 -29t-30 -34t-50 -31t-67 -12z" />
    <glyph glyph-name="Wcircumflex" unicode="&#x174;" horiz-adv-x="899" 
d="M125 592l-49 64l1 6h264l-1 -6l-54 -64l82 -350l88 160l-48 190l-45 64l1 6h238l-1 -6l-46 -64l28 -114l57 114l-26 64l1 6h149l-1 -6l-54 -64l-105 -199l38 -153l178 352l-34 64l1 6h183l-1 -6l-70 -64l-302 -596h-36l-82 317l-171 -317h-37zM602 861l110 -166l-5 -6
l-119 50l-153 -50l-4 6z" />
    <glyph glyph-name="wcircumflex" unicode="&#x175;" horiz-adv-x="592" 
d="M372 443q19 -130 29 -275q52 99 65 130.5t13 51.5q0 25 -29 48v6l129 45q28 -22 28 -56q0 -33 -48.5 -101t-240.5 -311h-42l-5 224q-64 -104 -160 -224h-42q0 60 -2.5 209t-2.5 159l-47 47l2 7q15 5 180 53q0 -233 -2 -288q80 171 131 275h44zM393 715l71 -236l-7 -4
l-86 86l-122 -86l-6 6z" />
    <glyph glyph-name="Ycircumflex" unicode="&#x176;" horiz-adv-x="602" 
d="M458 656l1 6h213l-1 -6l-71 -64l-192 -257l-45 -260l56 -69l-1 -6h-293l1 6l79 69l40 241l-119 276l-50 64l1 6h297l-1 -6l-79 -64l81 -194l138 188zM429 861l110 -166l-5 -6l-119 50l-153 -50l-4 6z" />
    <glyph glyph-name="ycircumflex" unicode="&#x177;" horiz-adv-x="418" 
d="M304 351q0 25 -28 45v6l124 45q32 -28 32 -58q0 -8 -2 -16.5t-8 -20.5t-12 -23t-18 -28.5t-23 -32.5t-30.5 -40.5t-35.5 -47t-43.5 -57t-49.5 -64.5q-56 -76 -104.5 -163.5t-62.5 -138.5l-155 19v6q105 79 208 199q-24 293 -34 369l-49 47l2 7q12 5 42.5 14t70 20.5
t58.5 17.5q3 -26 26 -315q92 168 92 210zM290 715l71 -236l-7 -4l-86 86l-122 -86l-6 6z" />
    <glyph glyph-name="Ydieresis" unicode="&#x178;" horiz-adv-x="602" 
d="M458 656l1 6h213l-1 -6l-71 -64l-192 -257l-45 -260l56 -69l-1 -6h-293l1 6l79 69l40 241l-119 276l-50 64l1 6h297l-1 -6l-79 -64l81 -194l138 188zM507 828q30 0 51 -20t21 -49q0 -28 -21 -48t-51 -20q-29 0 -48 20t-19 48q0 29 19 49t48 20zM310 828q30 0 49.5 -20
t19.5 -49q0 -28 -19.5 -48t-49.5 -20q-29 0 -49 20t-20 48q0 29 20 49t49 20z" />
    <glyph glyph-name="Zacute" unicode="&#x179;" horiz-adv-x="564" 
d="M196 68h202l127 144h7l-37 -212h-507l2 9l393 591h-166l-116 -120h-6l31 182h468l-1 -8zM254 704l-3 8l207 140l45 -120z" />
    <glyph glyph-name="zacute" unicode="&#x17a;" horiz-adv-x="370" 
d="M-16 17l261 322h-41q-84 0 -161 -10l-4 4l75 119l280 -12l-3 -17l-267 -318h44q107 0 183 16l4 -4l-88 -126l-286 9zM197 482l-7 5l112 227l98 -83z" />
    <glyph glyph-name="Zdotaccent" unicode="&#x17b;" horiz-adv-x="564" 
d="M196 68h202l127 144h7l-37 -212h-507l2 9l393 591h-166l-116 -120h-6l31 182h468l-1 -8zM369 841q32 0 54.5 -21.5t22.5 -52.5q0 -30 -22.5 -51.5t-54.5 -21.5q-31 0 -52 21.5t-21 51.5q0 31 21 52.5t52 21.5z" />
    <glyph glyph-name="zdotaccent" unicode="&#x17c;" horiz-adv-x="370" 
d="M-16 17l261 322h-41q-84 0 -161 -10l-4 4l75 119l280 -12l-3 -17l-267 -318h44q107 0 183 16l4 -4l-88 -126l-286 9zM242 641q32 0 54.5 -21.5t22.5 -52.5q0 -30 -22.5 -51.5t-54.5 -21.5q-31 0 -52 21.5t-21 51.5q0 31 21 52.5t52 21.5z" />
    <glyph glyph-name="Zcaron" unicode="&#x17d;" horiz-adv-x="564" 
d="M196 68h202l127 144h7l-37 -212h-507l2 9l393 591h-166l-116 -120h-6l31 182h468l-1 -8zM357 687l-110 166l5 6l119 -50l153 50l4 -6z" />
    <glyph glyph-name="zcaron" unicode="&#x17e;" horiz-adv-x="370" 
d="M-16 17l261 322h-41q-84 0 -161 -10l-4 4l75 119l280 -12l-3 -17l-267 -318h44q107 0 183 16l4 -4l-88 -126l-286 9zM243 475l-71 236l7 4l86 -86l122 86l6 -6z" />
    <glyph glyph-name="florin" unicode="&#x192;" horiz-adv-x="436" 
d="M321 539q-13 -38 -39 -140h110l-39 -66h-87q-3 -10 -36 -136.5t-51 -190.5q-6 -23 -21 -49.5t-43 -60t-78.5 -59.5t-114.5 -34l-19 104l4 2q61 -21 83 -21q16 0 27.5 24t29.5 97q12 50 36.5 161t37.5 163h-82v5l40 61h58q13 54 26 99q20 69 79 121.5t162 52.5
q59 0 101 -14l-50 -108h-5q-58 64 -79 64q-25 0 -50 -75z" />
    <glyph glyph-name="Aringacute" unicode="&#x1fa;" horiz-adv-x="591" 
d="M170 6l-2 -6h-208l2 6l73 64l322 595h36l113 -595l46 -64l-2 -6h-290l2 6l80 64l-18 97h-163l-48 -90zM195 229h118l-29 165zM332 783q0 -21 13.5 -35.5t34.5 -14.5q20 0 34 14.5t14 35.5q0 20 -14 35t-34 15q-21 0 -34.5 -14.5t-13.5 -35.5zM284 783q0 38 29 66t67 28
t67 -28t29 -66q0 -39 -29 -66.5t-67 -27.5q-39 0 -67.5 27t-28.5 67zM284 891l-3 8l207 140l45 -120z" />
    <glyph glyph-name="aringacute" unicode="&#x1fb;" horiz-adv-x="465" 
d="M435 22v-6q-83 -14 -210 -26l26 132q-48 -67 -91 -101t-71 -34q-32 0 -57.5 36.5t-25.5 94.5q0 87 48.5 158t117 107t138.5 36l151 65l-79 -408zM161 91q19 0 103 92l38 192q-59 -4 -107 -82.5t-48 -165.5q0 -36 14 -36zM233 577q0 -21 13.5 -35.5t34.5 -14.5
q20 0 34 14.5t14 35.5q0 20 -14 35t-34 15q-21 0 -34.5 -14.5t-13.5 -35.5zM185 577q0 38 29 66t67 28t67 -28t29 -66q0 -39 -29 -66.5t-67 -27.5q-39 0 -67.5 27t-28.5 67zM226 682l-7 5l112 227l98 -83z" />
    <glyph glyph-name="AEacute" unicode="&#x1fc;" horiz-adv-x="792" 
d="M309 656l1 6h503l-26 -159h-6l-64 94h-114l-38 -221h119l74 73h6l-37 -212h-6l-47 76h-119l-42 -247h127l106 121h7l-32 -187h-443l1 6l76 64l33 200h-153l-125 -193l57 -71l-1 -6h-204l1 6l64 64l338 522zM399 332l43 259l-167 -259h124zM487 704l-3 8l207 140l45 -120z
" />
    <glyph glyph-name="aeacute" unicode="&#x1fd;" horiz-adv-x="661" 
d="M400 -10q-45 0 -84 35t-45 104q-42 -61 -87 -101t-76 -40q-41 0 -70 37.5t-29 103.5q0 135 95.5 225t220.5 90q71 0 119 -22q61 31 122 31q53 0 78.5 -16.5t25.5 -39.5q0 -15 -9.5 -32.5t-33.5 -41t-76.5 -44.5t-126.5 -34q-6 -33 -6 -72q0 -41 14 -65t35 -23
q58 0 147 84l16 -14q-94 -165 -230 -165zM312 391q-65 0 -109.5 -75.5t-44.5 -180.5q0 -47 16 -47q22 0 98 91q13 113 102 194q-26 18 -62 18zM554 391q0 19 -17 19q-21 0 -53.5 -35t-50.5 -94q48 15 77.5 39t36.5 41t7 30zM358 482l-7 5l112 227l98 -83z" />
    <glyph glyph-name="Oslashacute" unicode="&#x1fe;" horiz-adv-x="694" 
d="M43 272q0 171 111.5 285.5t257.5 114.5q78 0 146 -38l71 94l48 -36l-71 -93q86 -80 86 -205q0 -171 -110.5 -287.5t-255.5 -116.5q-85 0 -152 39l-81 -107l-46 36l80 106q-84 78 -84 208zM521 404q0 34 -7 74l-270 -356q35 -61 82 -61q71 0 133 98t62 245zM411 604
q-69 0 -133 -97.5t-64 -245.5q0 -44 7 -73l271 359q-32 57 -81 57zM306 704l-3 8l207 140l45 -120z" />
    <glyph glyph-name="oslashacute" unicode="&#x1ff;" horiz-adv-x="464" 
d="M17 -44l54 77q-57 47 -57 131q0 123 79 206t177 83q44 0 83 -18l50 72l38 -27l-49 -69q58 -48 58 -128q0 -126 -78.5 -211t-173.5 -85q-45 0 -90 20l-53 -76zM200 42q36 0 72.5 84.5t40.5 172.5l-154 -219q14 -38 41 -38zM267 398q-37 0 -75.5 -80t-40.5 -171l155 221
q-12 30 -39 30zM221 482l-7 5l112 227l98 -83z" />
    <glyph glyph-name="Scommaaccent" unicode="&#x218;" horiz-adv-x="444" 
d="M300 672q85 0 149 -16l-31 -175h-8q-74 127 -123 127q-18 0 -34.5 -16t-16.5 -42q0 -17 10 -39t21 -40t45 -69q60 -88 79.5 -135t19.5 -85q0 -85 -61.5 -138.5t-157.5 -53.5q-104 0 -185 55q5 70 37 220h9q23 -102 62 -152.5t81 -50.5q25 0 45.5 22t20.5 55
q0 29 -14 59.5t-57 92.5q-61 85 -79.5 129t-18.5 87q0 76 61 120.5t146 44.5zM236 -119q0 -40 -32 -79.5t-89 -58.5l-14 5q46 52 63 93q-28 0 -44 15t-16 39t17.5 40.5t44.5 16.5q30 0 50 -19t20 -52z" />
    <glyph glyph-name="scommaaccent" unicode="&#x219;" horiz-adv-x="332" 
d="M216 453q62 0 122 -20l-41 -121h-5q-60 90 -86 90q-10 0 -17.5 -8.5t-7.5 -21.5q0 -16 25 -58q7 -12 33 -51t36 -57q23 -41 21 -80q0 -50 -40.5 -93t-128.5 -43q-77 0 -131 27q6 67 25 164h6q35 -78 59 -106t45 -28q15 0 24.5 11t9.5 26q0 20 -17 46q-39 56 -61 97
q-32 53 -32 97q0 50 42.5 89.5t118.5 39.5zM170 -119q0 -40 -32 -79.5t-89 -58.5l-14 5q46 52 63 93q-28 0 -44 15t-16 39t17.5 40.5t44.5 16.5q30 0 50 -19t20 -52z" />
    <glyph glyph-name="uni021A" unicode="&#x21a;" horiz-adv-x="619" 
d="M663 662l-29 -178h-5l-75 115h-100l-89 -529l69 -64l-1 -6h-323l1 6l94 64l89 529h-95l-117 -115h-5l30 178h556zM325 -119q0 -40 -32 -79.5t-89 -58.5l-14 5q46 52 63 93q-28 0 -44 15t-16 39t17.5 40.5t44.5 16.5q30 0 50 -19t20 -52z" />
    <glyph glyph-name="uni021B" unicode="&#x21b;" horiz-adv-x="357" 
d="M232 369l-55 -261q-3 -12 -3 -17q0 -10 10 -10q37 0 129 87l15 -12q-97 -166 -212 -166q-45 0 -67.5 18t-22.5 42q0 9 9 52l54 267h-65v5l239 165l-21 -101h156l-58 -69h-108zM159 -119q0 -40 -32 -79.5t-89 -58.5l-14 5q46 52 63 93q-28 0 -44 15t-16 39t17.5 40.5
t44.5 16.5q30 0 50 -19t20 -52z" />
    <glyph glyph-name="uni0237" unicode="&#x237;" horiz-adv-x="249" 
d="M159 25q-10 -57 -77 -136.5t-157 -137.5l-7 4q77 154 99 265l65 317l-50 48l1 6q83 30 214 65z" />
    <glyph glyph-name="circumflex" unicode="&#x2c6;" 
d="M297 715l71 -236l-7 -4l-86 86l-122 -86l-6 6z" />
    <glyph glyph-name="caron" unicode="&#x2c7;" 
d="M244 475l-71 236l7 4l86 -86l122 86l6 -6z" />
    <glyph glyph-name="breve" unicode="&#x2d8;" 
d="M381 642q-8 -70 -41 -109.5t-87 -39.5q-57 0 -77.5 46.5t-9.5 102.5l8 1q19 -61 87 -61q69 0 112 61z" />
    <glyph glyph-name="dotaccent" unicode="&#x2d9;" 
d="M262 641q32 0 54.5 -21.5t22.5 -52.5q0 -30 -22.5 -51.5t-54.5 -21.5q-31 0 -52 21.5t-21 51.5q0 31 21 52.5t52 21.5z" />
    <glyph glyph-name="ring" unicode="&#x2da;" 
d="M225 581q0 -21 13.5 -35.5t34.5 -14.5q20 0 34 14.5t14 35.5q0 20 -14 35t-34 15q-21 0 -34.5 -14.5t-13.5 -35.5zM177 581q0 38 29 66t67 28t67 -28t29 -66q0 -39 -29 -66.5t-67 -27.5q-39 0 -67.5 27t-28.5 67z" />
    <glyph glyph-name="ogonek" unicode="&#x2db;" 
d="M121 -246q-45 0 -71.5 22.5t-25.5 58.5q0 50 49 93.5t117 71.5h33q-1 -1 -7.5 -8t-9 -10t-9 -11t-10 -13t-9.5 -13.5t-9 -15.5t-6.5 -15t-5 -16.5t-1.5 -16.5q0 -17 10.5 -28.5t31.5 -11.5q39 0 82 23l5 -4q-6 -14 -17 -29t-30 -34t-50 -31t-67 -12z" />
    <glyph glyph-name="tilde" unicode="&#x2dc;" 
d="M219 628q12 0 53 -13.5t54 -13.5q21 0 72 59l7 -2q-15 -68 -41.5 -109t-50.5 -41q-16 0 -56 13t-51 13q-21 0 -76 -59l-7 2q18 66 46 108.5t50 42.5z" />
    <glyph glyph-name="hungarumlaut" unicode="&#x2dd;" 
d="M251 483l73 224l97 -58l-163 -169zM114 480l-7 3l73 224l96 -58z" />
    <glyph glyph-name="Wgrave" unicode="&#x1e80;" horiz-adv-x="899" 
d="M125 592l-49 64l1 6h264l-1 -6l-54 -64l82 -350l88 160l-48 190l-45 64l1 6h238l-1 -6l-46 -64l28 -114l57 114l-26 64l1 6h149l-1 -6l-54 -64l-105 -199l38 -153l178 352l-34 64l1 6h183l-1 -6l-70 -64l-302 -596h-36l-82 317l-171 -317h-37zM454 732l47 119l196 -139
l-3 -8z" />
    <glyph glyph-name="wgrave" unicode="&#x1e81;" horiz-adv-x="592" 
d="M372 443q19 -130 29 -275q52 99 65 130.5t13 51.5q0 25 -29 48v6l129 45q28 -22 28 -56q0 -33 -48.5 -101t-240.5 -311h-42l-5 224q-64 -104 -160 -224h-42q0 60 -2.5 209t-2.5 159l-47 47l2 7q15 5 180 53q0 -233 -2 -288q80 171 131 275h44zM405 482l-153 170l120 62
l41 -228z" />
    <glyph glyph-name="Wacute" unicode="&#x1e82;" horiz-adv-x="899" 
d="M125 592l-49 64l1 6h264l-1 -6l-54 -64l82 -350l88 160l-48 190l-45 64l1 6h238l-1 -6l-46 -64l28 -114l57 114l-26 64l1 6h149l-1 -6l-54 -64l-105 -199l38 -153l178 352l-34 64l1 6h183l-1 -6l-70 -64l-302 -596h-36l-82 317l-171 -317h-37zM463 704l-3 8l207 140
l45 -120z" />
    <glyph glyph-name="wacute" unicode="&#x1e83;" horiz-adv-x="592" 
d="M372 443q19 -130 29 -275q52 99 65 130.5t13 51.5q0 25 -29 48v6l129 45q28 -22 28 -56q0 -33 -48.5 -101t-240.5 -311h-42l-5 224q-64 -104 -160 -224h-42q0 60 -2.5 209t-2.5 159l-47 47l2 7q15 5 180 53q0 -233 -2 -288q80 171 131 275h44zM290 482l-7 5l112 227
l98 -83z" />
    <glyph glyph-name="Wdieresis" unicode="&#x1e84;" horiz-adv-x="899" 
d="M125 592l-49 64l1 6h264l-1 -6l-54 -64l82 -350l88 160l-48 190l-45 64l1 6h238l-1 -6l-46 -64l28 -114l57 114l-26 64l1 6h149l-1 -6l-54 -64l-105 -199l38 -153l178 352l-34 64l1 6h183l-1 -6l-70 -64l-302 -596h-36l-82 317l-171 -317h-37zM680 828q30 0 51 -20
t21 -49q0 -28 -21 -48t-51 -20q-29 0 -48 20t-19 48q0 29 19 49t48 20zM483 828q30 0 49.5 -20t19.5 -49q0 -28 -19.5 -48t-49.5 -20q-29 0 -49 20t-20 48q0 29 20 49t49 20z" />
    <glyph glyph-name="wdieresis" unicode="&#x1e85;" horiz-adv-x="592" 
d="M372 443q19 -130 29 -275q52 99 65 130.5t13 51.5q0 25 -29 48v6l129 45q28 -22 28 -56q0 -33 -48.5 -101t-240.5 -311h-42l-5 224q-64 -104 -160 -224h-42q0 60 -2.5 209t-2.5 159l-47 47l2 7q15 5 180 53q0 -233 -2 -288q80 171 131 275h44zM450 631q30 0 51 -20
t21 -49q0 -28 -21 -48t-51 -20q-29 0 -48 20t-19 48q0 29 19 49t48 20zM274 631q30 0 49.5 -20t19.5 -49q0 -28 -19.5 -48t-49.5 -20q-29 0 -49 20t-20 48q0 29 20 49t49 20z" />
    <glyph glyph-name="Ygrave" unicode="&#x1ef2;" horiz-adv-x="602" 
d="M458 656l1 6h213l-1 -6l-71 -64l-192 -257l-45 -260l56 -69l-1 -6h-293l1 6l79 69l40 241l-119 276l-50 64l1 6h297l-1 -6l-79 -64l81 -194l138 188zM269 732l47 119l196 -139l-3 -8z" />
    <glyph glyph-name="ygrave" unicode="&#x1ef3;" horiz-adv-x="418" 
d="M304 351q0 25 -28 45v6l124 45q32 -28 32 -58q0 -8 -2 -16.5t-8 -20.5t-12 -23t-18 -28.5t-23 -32.5t-30.5 -40.5t-35.5 -47t-43.5 -57t-49.5 -64.5q-56 -76 -104.5 -163.5t-62.5 -138.5l-155 19v6q105 79 208 199q-24 293 -34 369l-49 47l2 7q12 5 42.5 14t70 20.5
t58.5 17.5q3 -26 26 -315q92 168 92 210zM301 482l-153 170l120 62l41 -228z" />
    <glyph glyph-name="uni2009" unicode="&#x2009;" horiz-adv-x="25" 
 />
    <glyph glyph-name="endash" unicode="&#x2013;" horiz-adv-x="467" 
d="M53 278h387l-13 -59h-387z" />
    <glyph glyph-name="emdash" unicode="&#x2014;" horiz-adv-x="731" 
d="M40 219l13 59h651l-13 -59h-651z" />
    <glyph glyph-name="quoteleft" unicode="&#x2018;" horiz-adv-x="207" 
d="M244 688q-67 -82 -82 -132q28 -1 46.5 -17t18.5 -44q0 -29 -20 -47t-50 -18q-35 0 -57 24.5t-22 62.5q0 55 42 104t110 73z" />
    <glyph glyph-name="quoteright" unicode="&#x2019;" horiz-adv-x="207" 
d="M80 436q67 82 82 132q-28 1 -46.5 17t-18.5 44q0 29 20 47t50 18q35 0 57 -24.5t22 -62.5q0 -55 -42 -104t-110 -73z" />
    <glyph glyph-name="quotesinglbase" unicode="&#x201a;" horiz-adv-x="207" 
d="M-16 -112q67 82 82 132q-28 1 -46.5 17t-18.5 44q0 29 20 47t50 18q35 0 57 -24.5t22 -62.5q0 -55 -42 -104t-110 -73z" />
    <glyph glyph-name="quotedblleft" unicode="&#x201c;" horiz-adv-x="388" 
d="M425 689q-67 -82 -82 -132q28 -1 46.5 -17t18.5 -44q0 -29 -20 -47t-50 -18q-35 0 -57 24.5t-22 62.5q0 55 42 104t110 73zM244 688q-67 -82 -82 -132q28 -1 46.5 -17t18.5 -44q0 -29 -20 -47t-50 -18q-35 0 -57 24.5t-22 62.5q0 55 42 104t110 73z" />
    <glyph glyph-name="quotedblright" unicode="&#x201d;" horiz-adv-x="388" 
d="M261 436q67 82 82 132q-28 1 -46.5 17t-18.5 44q0 29 20 47t50 18q35 0 57 -24.5t22 -62.5q0 -55 -42 -104t-110 -73zM80 436q67 82 82 132q-28 1 -46.5 17t-18.5 44q0 29 20 47t50 18q35 0 57 -24.5t22 -62.5q0 -55 -42 -104t-110 -73z" />
    <glyph glyph-name="quotedblbase" unicode="&#x201e;" horiz-adv-x="395" 
d="M165 -112q67 82 82 132q-28 1 -46.5 17t-18.5 44q0 29 20 47t50 18q35 0 57 -24.5t22 -62.5q0 -55 -42 -104t-110 -73zM-16 -112q67 82 82 132q-28 1 -46.5 17t-18.5 44q0 29 20 47t50 18q35 0 57 -24.5t22 -62.5q0 -55 -42 -104t-110 -73z" />
    <glyph glyph-name="dagger" unicode="&#x2020;" horiz-adv-x="365" 
d="M80 -128h-5l104 563h-131l1 6l68 61h75l20 109l96 93h5l-38 -202h135l-1 -6l-68 -61h-78l-84 -456z" />
    <glyph glyph-name="daggerdbl" unicode="&#x2021;" horiz-adv-x="365" 
d="M338 430h-76l-33 -178h135l-1 -6l-68 -61h-79l-23 -128l-99 -107h-5l43 235h-130l1 6l68 61h74l33 178h-132l1 6l68 61h75l23 121l96 93h5l-40 -214h133l-1 -6z" />
    <glyph glyph-name="bullet" unicode="&#x2022;" horiz-adv-x="413" 
d="M52 255q0 69 47 115.5t115 46.5t114.5 -46.5t46.5 -115.5t-46.5 -115.5t-114.5 -46.5t-115 46.5t-47 115.5z" />
    <glyph glyph-name="ellipsis" unicode="&#x2026;" horiz-adv-x="562" 
d="M447 136q33 0 54.5 -21t21.5 -54t-21.5 -54t-54.5 -21t-54.5 21t-21.5 54t21.5 54t54.5 21zM262 136q34 0 55 -21t21 -54t-21 -54t-55 -21t-55 21t-21 54t21 54t55 21zM77 136q33 0 54.5 -21t21.5 -54t-21.5 -54t-54.5 -21t-54.5 21t-21.5 54t21.5 54t54.5 21z" />
    <glyph glyph-name="perthousand" unicode="&#x2030;" horiz-adv-x="1042" 
d="M877 249q-39 0 -64 -33t-25 -79q0 -39 20.5 -64.5t52.5 -25.5q39 0 64 33t25 79q0 39 -20.5 64.5t-52.5 25.5zM877 304q64 0 102 -38.5t38 -106.5t-44.5 -117.5t-111.5 -49.5q-64 0 -102 38.5t-38 106.5t44.5 117.5t111.5 49.5zM539 304q64 0 102 -38.5t38 -106.5
t-44.5 -117.5t-111.5 -49.5q-64 0 -102 38.5t-38 106.5t44.5 117.5t111.5 49.5zM219 670q64 0 102 -38.5t38 -106.5t-44.5 -117.5t-111.5 -49.5q-64 0 -102 38.5t-38 106.5t44.5 117.5t111.5 49.5zM596 662h76l-520 -662h-76zM130 503q0 -39 20.5 -64.5t52.5 -25.5
q39 0 64 33t25 79q0 39 -20.5 64.5t-52.5 25.5q-39 0 -64 -33t-25 -79zM612 159q0 39 -20.5 64.5t-52.5 25.5q-39 0 -64 -33t-25 -79q0 -39 20.5 -64.5t52.5 -25.5q39 0 64 33t25 79z" />
    <glyph glyph-name="uni2032" unicode="&#x2032;" horiz-adv-x="188" 
d="M252 684v-6l-166 -249h-14l54 255h126z" />
    <glyph glyph-name="uni2033" unicode="&#x2033;" horiz-adv-x="353" 
d="M417 684v-6l-166 -249h-14l54 255h126zM252 684v-6l-166 -249h-14l54 255h126z" />
    <glyph glyph-name="guilsinglleft" unicode="&#x2039;" horiz-adv-x="265" 
d="M38 220l2 8l209 182l7 -7l-97 -189l30 -175l-9 -3z" />
    <glyph glyph-name="guilsinglright" unicode="&#x203a;" horiz-adv-x="265" 
d="M224 226l-2 -8l-209 -182l-7 7l97 189l-30 175l9 3z" />
    <glyph glyph-name="fraction" unicode="&#x2044;" horiz-adv-x="517" 
d="M503 662h73l-525 -662h-71z" />
    <glyph glyph-name="Euro" unicode="&#x20ac;" horiz-adv-x="618" 
d="M454 262h-175v-2q0 -91 32.5 -144.5t69.5 -53.5q71 0 177 116h8l-26 -163q-72 -25 -158 -25q-122 0 -196 74t-80 198h-78l10 56h70q1 18 7 50h-70l10 56h77q43 113 142.5 180.5t212.5 67.5q85 0 149 -25l-30 -176h-7q-89 130 -129 130q-37 0 -87.5 -47.5t-77.5 -129.5
h176l-10 -56h-182q-2 -8 -4 -25t-3 -25h182z" />
    <glyph glyph-name="trademark" unicode="&#x2122;" horiz-adv-x="698" 
d="M743 656l-39 -34l-44 -219l26 -30l-1 -6h-152l1 6l38 30l32 163l-119 -179h-14l-44 181l-33 -165l25 -30l-1 -6h-105l1 6l40 30l44 219l-20 34l1 6h112l36 -149l99 149h118zM95 662h259l-19 -90h-6l-29 55h-38l-45 -224l29 -30l-1 -6h-161l1 6l44 30l45 224h-39l-53 -55
h-6z" />
    <glyph glyph-name="onethird" unicode="&#x2153;" horiz-adv-x="575" 
d="M45 359l1 6l41 35l35 188l-31 30l1 5l145 51l-50 -274l25 -35l-1 -6h-166zM523 662h73l-525 -662h-71zM347 150q42 22 60.5 37.5t18.5 32.5q0 29 -33 29q-16 0 -33 -10l-9 7q36 63 111 63q29 0 46.5 -15t17.5 -38q0 -44 -71 -67q34 -5 54.5 -24.5t20.5 -48.5
q0 -114 -218 -124l-4 11q62 21 86.5 47.5t24.5 49.5q0 40 -50 40q-8 0 -18 -2z" />
    <glyph glyph-name="twothirds" unicode="&#x2154;" horiz-adv-x="622" 
d="M570 662h73l-525 -662h-71zM254 359h-218l1 10l29 29q51 51 71.5 73t36 46t15.5 43q0 20 -12 30.5t-31 10.5q-25 0 -50 -18l-9 7q34 78 119 78q40 0 64.5 -22t24.5 -60q0 -42 -41.5 -78.5t-114.5 -75.5h165zM394 150q42 22 60.5 37.5t18.5 32.5q0 29 -33 29
q-16 0 -33 -10l-9 7q36 63 111 63q29 0 46.5 -15t17.5 -38q0 -44 -71 -67q34 -5 54.5 -24.5t20.5 -48.5q0 -114 -218 -124l-4 11q62 21 86.5 47.5t24.5 49.5q0 40 -50 40q-8 0 -18 -2z" />
    <glyph glyph-name="oneeighth" unicode="&#x215b;" horiz-adv-x="615" 
d="M45 359l1 6l41 35l35 188l-31 30l1 5l145 51l-50 -274l25 -35l-1 -6h-166zM523 662h73l-525 -662h-71zM469 309q54 0 84.5 -18.5t30.5 -44.5q0 -46 -86 -72q33 -32 46.5 -53.5t13.5 -44.5q0 -33 -36.5 -58t-98.5 -25q-58 0 -90 19t-32 47q0 46 98 78q-30 29 -42.5 49
t-12.5 42q0 37 34 59t91 22zM464 62q0 14 -28 41l-11 11l-7 6q-32 -27 -32 -50q0 -14 11 -24t30 -10q17 0 27 7.5t10 18.5zM476 195l5 -5q21 21 21 47q0 34 -37 34q-31 0 -31 -22q0 -9 8 -19t34 -35z" />
    <glyph glyph-name="threeeighths" unicode="&#x215c;" horiz-adv-x="607" 
d="M516 662h73l-525 -662h-71zM72 509q42 22 60.5 37.5t18.5 32.5q0 29 -33 29q-16 0 -33 -10l-9 7q36 63 111 63q29 0 46.5 -15t17.5 -38q0 -44 -71 -67q34 -5 54.5 -24.5t20.5 -48.5q0 -114 -218 -124l-4 11q62 21 86.5 47.5t24.5 49.5q0 40 -50 40q-8 0 -18 -2zM462 309
q54 0 84.5 -18.5t30.5 -44.5q0 -46 -86 -72q33 -32 46.5 -53.5t13.5 -44.5q0 -33 -36.5 -58t-98.5 -25q-58 0 -90 19t-32 47q0 46 98 78q-30 29 -42.5 49t-12.5 42q0 37 34 59t91 22zM457 62q0 14 -28 41l-11 11l-7 6q-32 -27 -32 -50q0 -14 11 -24t30 -10q17 0 27 7.5
t10 18.5zM469 195l5 -5q21 21 21 47q0 34 -37 34q-31 0 -31 -22q0 -9 8 -19t34 -35z" />
    <glyph glyph-name="fiveeighths" unicode="&#x215d;" horiz-adv-x="626" 
d="M534 662h73l-525 -662h-71zM306 662l-42 -77h-114l-13 -25q131 -17 131 -96q0 -45 -54 -76.5t-167 -37.5l-4 11q113 45 113 78q0 29 -87 39l80 184h157zM481 309q54 0 84.5 -18.5t30.5 -44.5q0 -46 -86 -72q33 -32 46.5 -53.5t13.5 -44.5q0 -33 -36.5 -58t-98.5 -25
q-58 0 -90 19t-32 47q0 46 98 78q-30 29 -42.5 49t-12.5 42q0 37 34 59t91 22zM476 62q0 14 -28 41l-11 11l-7 6q-32 -27 -32 -50q0 -14 11 -24t30 -10q17 0 27 7.5t10 18.5zM488 195l5 -5q21 21 21 47q0 34 -37 34q-31 0 -31 -22q0 -9 8 -19t34 -35z" />
    <glyph glyph-name="seveneighths" unicode="&#x215e;" horiz-adv-x="591" 
d="M501 662h73l-525 -662h-71zM120 662h207v-4l-179 -299h-56l133 226h-152zM446 309q54 0 84.5 -18.5t30.5 -44.5q0 -46 -86 -72q33 -32 46.5 -53.5t13.5 -44.5q0 -33 -36.5 -58t-98.5 -25q-58 0 -90 19t-32 47q0 46 98 78q-30 29 -42.5 49t-12.5 42q0 37 34 59t91 22z
M441 62q0 14 -28 41l-11 11l-7 6q-32 -27 -32 -50q0 -14 11 -24t30 -10q17 0 27 7.5t10 18.5zM453 195l5 -5q21 21 21 47q0 34 -37 34q-31 0 -31 -22q0 -9 8 -19t34 -35z" />
    <glyph glyph-name="minus" unicode="&#x2212;" horiz-adv-x="381" 
d="M24 219l10 58h329l-10 -58h-329z" />
    <glyph glyph-name="uni24C5" unicode="&#x24c5;" horiz-adv-x="745" 
d="M578 414q0 -57 -51 -85t-124 -31v16q58 26 58 90q0 31 -18.5 47t-44.5 16h-11v-255l53 -41v-6h-215v6l42 41v254l-42 38v6h210q68 0 105.5 -25.5t37.5 -70.5zM391 624q-120 0 -199.5 -85t-79.5 -207q0 -120 81.5 -206t196.5 -86q119 0 199 84t80 208q0 119 -81 205.5
t-197 86.5zM391 674q141 0 240.5 -100.5t99.5 -241.5q0 -144 -98 -243t-242 -99q-145 0 -242.5 98.5t-97.5 243.5q0 144 98 243t242 99z" />
    <glyph glyph-name="acute.uc" 
d="M162 704l-3 8l207 140l45 -120z" />
    <glyph glyph-name="breve.uc" 
d="M412 836q-9 -64 -44 -102.5t-93 -38.5q-61 0 -82.5 45.5t-13.5 95.5l7 1q25 -54 97 -54q68 0 122 54z" />
    <glyph glyph-name="circumflex.uc" 
d="M310 861l110 -166l-5 -6l-119 50l-153 -50l-4 6z" />
    <glyph glyph-name="dieresis.uc" 
d="M382 828q30 0 51 -20t21 -49q0 -28 -21 -48t-51 -20q-29 0 -48 20t-19 48q0 29 19 49t48 20zM185 828q30 0 49.5 -20t19.5 -49q0 -28 -19.5 -48t-49.5 -20q-29 0 -49 20t-20 48q0 29 20 49t49 20z" />
    <glyph glyph-name="grave.uc" 
d="M155 732l47 119l196 -139l-3 -8z" />
    <glyph glyph-name="macron.uc" 
d="M425 790l-17 -82h-270l17 82h270z" />
    <glyph glyph-name="ring.uc" 
d="M233 783q0 -21 13.5 -35.5t34.5 -14.5q20 0 34 14.5t14 35.5q0 20 -14 35t-34 15q-21 0 -34.5 -14.5t-13.5 -35.5zM185 783q0 38 29 66t67 28t67 -28t29 -66q0 -39 -29 -66.5t-67 -27.5q-39 0 -67.5 27t-28.5 67z" />
    <glyph glyph-name="tilde.uc" 
d="M267 826q13 0 56 -11.5t56 -11.5t36.5 15t43.5 36l6 -3q-18 -65 -46.5 -103t-55.5 -38q-16 0 -58.5 11.5t-53.5 11.5q-30 0 -84 -50l-6 3q20 60 50.5 100t55.5 40z" />
    <glyph glyph-name="Cacute.pl" horiz-adv-x="615" 
d="M350 -10q-133 0 -222 75.5t-89 210.5q0 111 59 203t153.5 142.5t200.5 50.5t181 -25l-30 -176h-7q-47 64 -89.5 98t-72.5 34q-69 0 -145 -93.5t-76 -228.5q0 -101 45.5 -161t99.5 -60t106.5 37.5t90.5 80.5h8l-27 -167q-88 -21 -186 -21zM413 692l-7 3l19 188l126 -53z
" />
    <glyph glyph-name="acute.ucpl" 
d="M251 692l-7 3l19 188l126 -53z" />
    <glyph glyph-name="caron.uc" 
d="M269 687l-110 166l5 6l119 -50l153 50l4 -6z" />
    <glyph glyph-name="dotaccent.uc" 
d="M270 841q32 0 54.5 -21.5t22.5 -52.5q0 -30 -22.5 -51.5t-54.5 -21.5q-31 0 -52 21.5t-21 51.5q0 31 21 52.5t52 21.5z" />
    <glyph glyph-name="space_uni0326" 
d="M211 -119q0 -40 -32 -79.5t-89 -58.5l-14 5q46 52 63 93q-28 0 -44 15t-16 39t17.5 40.5t44.5 16.5q30 0 50 -19t20 -52z" />
    <glyph glyph-name="K.001" horiz-adv-x="658" 
d="M-21 0v6l78 64l88 522l-56 64l1 6h294l-1 -6l-79 -64l-88 -522l55 -64l-1 -6h-291zM631 -12q-55 -1 -97 7t-66 18.5t-43 30.5t-26.5 33.5t-18.5 37.5q-3 6 -4 9l-94 207v8l226 253l-54 64l1 6h242l-1 -6l-101 -65l-177 -193l99 -202q72 -150 115 -202z" />
    <glyph glyph-name="Kcommaaccent.001" horiz-adv-x="658" 
d="M-21 0v6l78 64l88 522l-56 64l1 6h294l-1 -6l-79 -64l-88 -522l55 -64l-1 -6h-291zM631 -12q-55 -1 -97 7t-66 18.5t-43 30.5t-26.5 33.5t-18.5 37.5q-3 6 -4 9l-94 207v8l226 253l-54 64l1 6h242l-1 -6l-101 -65l-177 -193l99 -202q72 -150 115 -202zM383 -119
q0 -40 -32 -79.5t-89 -58.5l-14 5q46 52 63 93q-28 0 -44 15t-16 39t17.5 40.5t44.5 16.5q30 0 50 -19t20 -52z" />
    <glyph glyph-name="caron.alt" 
d="M182 495l59 220h109l-161 -220h-7z" />
    <glyph glyph-name="Nacute.pl" horiz-adv-x="674" 
d="M492 0l-291 469l-67 -399l87 -64l-1 -6h-241l1 6l77 64l83 496q-40 63 -60 90l1 6h189l252 -412l59 342l-79 64l1 6h234l-1 -6l-78 -64l-100 -592h-66zM408 692l-7 3l19 188l126 -53z" />
    <glyph glyph-name="Oacute.pl" horiz-adv-x="694" 
d="M411 604q-69 0 -133 -97.5t-64 -245.5q0 -92 34 -146t78 -54q71 0 133 98t62 245q0 94 -30.5 147t-79.5 53zM43 272q0 171 111.5 285.5t257.5 114.5q117 0 198.5 -77t81.5 -201q0 -171 -110.5 -287.5t-255.5 -116.5q-123 0 -203 77.5t-80 204.5zM414 692l-7 3l19 188
l126 -53z" />
    <glyph glyph-name="hungarumlaut.uc" 
d="M300 702l-5 8l143 167l69 -92zM118 702l-5 8l143 167l70 -92z" />
    <glyph glyph-name="Q.long" horiz-adv-x="703" 
d="M695 394q0 -123 -67.5 -220.5t-176.5 -148.5q191 -100 312.5 -132t228.5 -32q78 0 133 12l4 -8q-31 -28 -122 -58.5t-188 -30.5q-214 0 -629 242q-63 37 -104 101t-41 155q0 165 110 281.5t254 116.5q123 0 204.5 -76t81.5 -202zM217 261q0 -92 34.5 -145.5t77.5 -53.5
q76 0 135 101.5t59 239.5q0 99 -32.5 150t-79.5 51q-72 0 -133 -101.5t-61 -241.5z" />
    <glyph glyph-name="Sacute.pl" horiz-adv-x="444" 
d="M300 672q85 0 149 -16l-31 -175h-8q-74 127 -123 127q-18 0 -34.5 -16t-16.5 -42q0 -17 10 -39t21 -40t45 -69q60 -88 79.5 -135t19.5 -85q0 -85 -61.5 -138.5t-157.5 -53.5q-104 0 -185 55q5 70 37 220h9q23 -102 62 -152.5t81 -50.5q25 0 45.5 22t20.5 55
q0 29 -14 59.5t-57 92.5q-61 85 -79.5 129t-18.5 87q0 76 61 120.5t146 44.5zM284 692l-7 3l19 188l126 -53z" />
    <glyph glyph-name="W.001" horiz-adv-x="857" 
d="M772 592l-54 64l1 6h208l-1 -6l-72 -64l-262 -596h-36l-86 406l-197 -405h-36l-111 595l-48 64l1 6h285l-1 -6l-78 -64l54 -313l185 388h36l78 -390z" />
    <glyph glyph-name="Wacute.001" horiz-adv-x="857" 
d="M772 592l-54 64l1 6h208l-1 -6l-72 -64l-262 -596h-36l-86 406l-197 -405h-36l-111 595l-48 64l1 6h285l-1 -6l-78 -64l54 -313l185 388h36l78 -390zM422 704l-3 8l207 140l45 -120z" />
    <glyph glyph-name="Wcircumflex.001" horiz-adv-x="857" 
d="M772 592l-54 64l1 6h208l-1 -6l-72 -64l-262 -596h-36l-86 406l-197 -405h-36l-111 595l-48 64l1 6h285l-1 -6l-78 -64l54 -313l185 388h36l78 -390zM564 861l110 -166l-5 -6l-119 50l-153 -50l-4 6z" />
    <glyph glyph-name="Wdieresis.001" horiz-adv-x="857" 
d="M772 592l-54 64l1 6h208l-1 -6l-72 -64l-262 -596h-36l-86 406l-197 -405h-36l-111 595l-48 64l1 6h285l-1 -6l-78 -64l54 -313l185 388h36l78 -390zM646 828q30 0 51 -20t21 -49q0 -28 -21 -48t-51 -20q-29 0 -48 20t-19 48q0 29 19 49t48 20zM449 828q30 0 49.5 -20
t19.5 -49q0 -28 -19.5 -48t-49.5 -20q-29 0 -49 20t-20 48q0 29 20 49t49 20z" />
    <glyph glyph-name="Wgrave.001" horiz-adv-x="857" 
d="M772 592l-54 64l1 6h208l-1 -6l-72 -64l-262 -596h-36l-86 406l-197 -405h-36l-111 595l-48 64l1 6h285l-1 -6l-78 -64l54 -313l185 388h36l78 -390zM414 732l47 119l196 -139l-3 -8z" />
    <glyph glyph-name="Zacute.pl" horiz-adv-x="564" 
d="M196 68h202l127 144h7l-37 -212h-507l2 9l393 591h-166l-116 -120h-6l31 182h468l-1 -8zM343 692l-7 3l19 188l126 -53z" />
    <glyph glyph-name="acute.pl" 
d="M213 480l-7 1l35 221l110 -46z" />
    <glyph glyph-name="ampersand.uc" horiz-adv-x="644" 
d="M693 434q-40 -23 -71.5 -54.5t-49 -56t-65.5 -99.5q-3 -4 -5 -6.5t-4.5 -7t-4.5 -7.5l-20 -31q83 -130 161 -190l-1 -6q-93 0 -149 14.5t-92 47.5l-15 15q-74 -68 -178 -68q-88 0 -139.5 49.5t-51.5 124.5t51.5 128.5t126.5 80.5q-40 85 -40 135q0 80 52.5 124.5
t136.5 44.5q61 0 99.5 -30t38.5 -79q0 -90 -141 -154q3 -5 26 -45.5t37 -64.5q4 -7 18.5 -32.5t23.5 -38.5l3 6q51 86 72 143l-52 57l1 6h233zM267 218q-22 37 -62 111q-50 -60 -50 -137q0 -49 27 -80.5t73 -31.5q39 0 79 28q-32 47 -67 110zM278 564q0 -44 37 -121
q51 53 51 114q0 29 -12 44t-32 15q-18 0 -31 -13.5t-13 -38.5z" />
    <glyph glyph-name="at.uc" horiz-adv-x="844" 
d="M591 161q76 27 128.5 99.5t52.5 183.5q0 101 -58.5 161.5t-190.5 60.5q-111 0 -202 -65.5t-138.5 -164.5t-47.5 -205q0 -133 75 -205.5t205 -72.5q164 0 306 121l16 -17q-30 -36 -71.5 -69t-120 -62.5t-167.5 -29.5q-156 0 -250 85t-94 236q0 132 67 246.5t185.5 183.5
t259.5 69q147 0 235 -71t88 -184q0 -85 -35 -154.5t-94 -113.5t-136.5 -66.5t-163.5 -18.5l26 120q-33 -47 -80 -83.5t-80 -36.5q-26 0 -50 32t-24 81q0 121 89.5 201t202.5 80l149 46zM381 207q11 0 37.5 19t59.5 57l37 170q-60 -4 -102.5 -74.5t-42.5 -145.5q0 -26 11 -26
z" />
    <glyph glyph-name="backslash.uc" horiz-adv-x="318" 
d="M167 755l86 -860l-56 -7l-88 860z" />
    <glyph glyph-name="bar.uc" horiz-adv-x="264" 
d="M116 752h64v-864h-64v864z" />
    <glyph glyph-name="braceleft.uc" horiz-adv-x="297" 
d="M237 239q0 -40 -53 -124.5t-53 -117.5q0 -54 74 -102l-13 -6q-78 19 -125.5 55t-47.5 82q0 29 32 74.5t64 89.5t32 68q0 55 -95 58l6 31q72 2 95 21.5t23 50.5q0 25 -27.5 97t-27.5 98q0 112 231 148l9 -8q-70 -34 -95.5 -65.5t-25.5 -71.5q0 -24 16.5 -85t16.5 -85
q0 -46 -37 -77.5t-105 -40.5q53 -9 79.5 -34t26.5 -56z" />
    <glyph glyph-name="braceright.uc" horiz-adv-x="297" 
d="M94 412q0 40 53 124.5t53 117.5q0 54 -74 102l13 6q78 -19 125.5 -55t47.5 -82q0 -29 -32 -74.5t-64 -89.5t-32 -68q0 -55 95 -58l-6 -31q-72 -2 -95 -21.5t-23 -50.5q0 -25 27.5 -97t27.5 -98q0 -112 -231 -148l-9 8q70 34 95.5 65.5t25.5 71.5q0 24 -16.5 85t-16.5 85
q0 46 37 77.5t105 40.5q-53 9 -79.5 34t-26.5 56z" />
    <glyph glyph-name="bracketleft.uc" horiz-adv-x="292" 
d="M362 711h-81l-130 -769h81l-7 -38h-193l143 845h193z" />
    <glyph glyph-name="bracketright.uc" horiz-adv-x="292" 
d="M-38 -58h81l130 769h-81l7 38h193l-143 -845h-193z" />
    <glyph glyph-name="cacute.pl" horiz-adv-x="382" 
d="M291 455q63 0 113 -13l-49 -135h-6q-56 91 -79 91q-32 0 -73 -75t-41 -169q0 -34 10 -53t25 -19q50 0 138 82l14 -11q-40 -73 -97 -118t-119 -45q-41 0 -79 41t-38 116q0 125 84.5 216.5t196.5 91.5zM249 480l-7 1l35 221l110 -46z" />
    <glyph glyph-name="space_uni0326.alt" 
d="M196 561q0 40 32 79.5t89 58.5l14 -5q-46 -52 -63 -93q28 0 44 -15t16 -39t-17.5 -40.5t-44.5 -16.5q-30 0 -50 19t-20 52z" />
    <glyph glyph-name="divide.lin" horiz-adv-x="411" 
d="M40 269l10 58h359l-10 -58h-359zM124 134q0 30 20 50t49 20q30 0 49.5 -20t19.5 -50q0 -28 -19.5 -47.5t-49.5 -19.5q-29 0 -49 19.5t-20 47.5zM184 456q0 30 20 50t49 20q30 0 49.5 -20t19.5 -50q0 -28 -19.5 -47.5t-49.5 -19.5q-29 0 -49 19.5t-20 47.5z" />
    <glyph glyph-name="eight.den" horiz-adv-x="279" 
d="M154 309q54 0 84.5 -18.5t30.5 -44.5q0 -46 -86 -72q33 -32 46.5 -53.5t13.5 -44.5q0 -33 -36.5 -58t-98.5 -25q-58 0 -90 19t-32 47q0 46 98 78q-30 29 -42.5 49t-12.5 42q0 37 34 59t91 22zM149 62q0 14 -28 41q-1 1 -18 17q-32 -27 -32 -50q0 -14 11 -24t30 -10
q17 0 27 7.5t10 18.5zM161 195l5 -5q21 21 21 47q0 34 -37 34q-31 0 -31 -22q0 -9 8 -19t34 -35z" />
    <glyph glyph-name="eight.lin" horiz-adv-x="481" 
d="M307 672q95 0 144 -40t49 -89q0 -97 -159 -166q61 -74 86 -117.5t25 -88.5q0 -77 -67 -129t-169 -52t-156 43t-54 100q0 110 180 185q-53 62 -75.5 101.5t-22.5 88.5q0 69 61 116.5t158 47.5zM304 130q0 29 -17.5 62t-72.5 94q-75 -75 -75 -143q0 -37 22 -61.5t60 -24.5
q36 0 59.5 20.5t23.5 52.5zM232 548q0 -27 15.5 -52t67.5 -88q57 68 57 125q0 34 -18 56t-52 22q-30 0 -50 -18t-20 -45z" />
    <glyph glyph-name="eight.num" horiz-adv-x="279" 
d="M211 668q54 0 84.5 -18.5t30.5 -44.5q0 -46 -86 -72q33 -32 46.5 -53.5t13.5 -44.5q0 -33 -36.5 -58t-98.5 -25q-58 0 -90 19t-32 47q0 46 98 78q-30 29 -42.5 49t-12.5 42q0 37 34 59t91 22zM206 421q0 10 -8.5 21t-30.5 31q-5 4 -7 6q-32 -27 -32 -50q0 -14 11 -24
t30 -10q17 0 27 7.5t10 18.5zM218 554l5 -5q21 21 21 47q0 34 -37 34q-31 0 -31 -22q0 -9 8 -19t34 -35z" />
    <glyph glyph-name="eight.sub" horiz-adv-x="279" 
d="M130 197q54 0 84.5 -18.5t30.5 -44.5q0 -46 -86 -72q33 -32 46.5 -53.5t13.5 -44.5q0 -33 -36.5 -58t-98.5 -25q-58 0 -90 19t-32 47q0 46 98 78q-30 29 -42.5 49t-12.5 42q0 37 34 59t91 22zM125 -50q0 10 -8.5 21t-30.5 31q-5 4 -7 6q-32 -27 -32 -50q0 -14 11 -24
t30 -10q17 0 27 7.5t10 18.5zM137 83l5 -5q21 21 21 47q0 34 -37 34q-31 0 -31 -22q0 -9 8 -19t34 -35z" />
    <glyph glyph-name="eight.sup" horiz-adv-x="279" 
d="M222 722q54 0 84.5 -18.5t30.5 -44.5q0 -46 -86 -72q33 -32 46.5 -53.5t13.5 -44.5q0 -33 -36.5 -58t-98.5 -25q-58 0 -90 19t-32 47q0 46 98 78q-30 29 -42.5 49t-12.5 42q0 37 34 59t91 22zM217 475q0 14 -28 41l-11 11l-7 6q-32 -27 -32 -50q0 -14 11 -24t30 -10
q17 0 27 7.5t10 18.5zM229 608l5 -5q21 21 21 47q0 34 -37 34q-31 0 -31 -22q0 -9 8 -19t34 -35z" />
    <glyph glyph-name="emdash.uc" horiz-adv-x="731" 
d="M64 284l13 59h651l-13 -59h-651z" />
    <glyph glyph-name="endash.uc" horiz-adv-x="467" 
d="M77 343h387l-13 -59h-387z" />
    <glyph glyph-name="equal.lin" horiz-adv-x="411" 
d="M44 208l10 56h328l-10 -56h-328zM63 319l10 56h328l-10 -56h-328z" />
    <glyph glyph-name="exclamdown.uc" horiz-adv-x="235" 
d="M159 463h20q-3 -48 -13.5 -217t-15.5 -246h-165q96 267 174 463zM191 525q-33 0 -54.5 21.5t-21.5 53.5t21.5 53.5t54.5 21.5t54.5 -21.5t21.5 -53.5t-21.5 -53.5t-54.5 -21.5z" />
    <glyph glyph-name="f.short" horiz-adv-x="324" 
d="M58 71q11 73 26 176.5t18 124.5h-80v5l42 61h48q2 8 4 24.5t3 24.5q17 115 85 173.5t161 58.5q59 0 108 -15l-50 -109h-5q-66 68 -83 68q-9 0 -19.5 -10t-23 -38.5t-21.5 -71.5q-16 -85 -19 -105h117l-39 -66h-89q-20 -121 -59 -344q-7 -43 -25.5 -83.5t-50 -79.5
t-83.5 -66.5t-118 -34.5l-19 106l4 2q11 -2 32 -7t34.5 -7.5t24.5 -2.5q27 0 41.5 42.5t35.5 173.5z" />
    <glyph glyph-name="f_f.short" horiz-adv-x="560" 
d="M489 438h118l-39 -66h-90l-57 -323q-7 -43 -24.5 -83t-47.5 -79t-79 -66t-110 -36l-18 99l4 2q50 -10 79 -10q22 0 37 44.5t35 171.5q21 147 42 280h-100q-52 -317 -57 -344q-9 -44 -27 -84t-49.5 -79.5t-83 -66.5t-117.5 -34l-19 106l4 2q11 -2 32 -7t34.5 -7.5
t24.5 -2.5q27 0 43 45t34 171q10 67 23.5 166.5t18.5 134.5h-83v5l40 61h52q2 26 4 32q15 114 85 173t164 59q56 0 108 -21q62 38 133 38q59 0 108 -15l-50 -109h-5q-66 68 -83 68q-9 0 -19.5 -10t-23 -38.5t-21.5 -71.5zM250 438h99q2 9 4.5 25t3.5 24q12 76 46 127
q-49 32 -69 32q-18 0 -38 -29t-31 -91z" />
    <glyph glyph-name="five.den" horiz-adv-x="232" 
d="M239 303l-42 -77h-114l-13 -25q131 -17 131 -96q0 -45 -54 -76.5t-167 -37.5l-4 11q113 45 113 78q0 29 -87 39l80 184h157z" />
    <glyph glyph-name="five.num" horiz-adv-x="230" 
d="M296 662l-42 -77h-114l-13 -25q131 -17 131 -96q0 -45 -54 -76.5t-167 -37.5l-4 11q113 45 113 78q0 29 -87 39l80 184h157z" />
    <glyph glyph-name="five.lin" horiz-adv-x="411" 
d="M450 662l-69 -132h-199l-26 -62q105 -28 168 -80.5t63 -124.5q0 -99 -106.5 -177.5t-286.5 -105.5l-3 14q104 58 163 116.5t59 108.5q0 70 -159 113q8 20 61 154.5t70 175.5h265z" />
    <glyph glyph-name="five.sub" horiz-adv-x="232" 
d="M215 191l-42 -77h-114l-13 -25q131 -17 131 -96q0 -45 -54 -76.5t-167 -37.5l-4 11q113 45 113 78q0 29 -87 39l80 184h157z" />
    <glyph glyph-name="five.sup" horiz-adv-x="232" 
d="M307 716l-42 -77h-114l-13 -25q131 -17 131 -96q0 -45 -54 -76.5t-167 -37.5l-4 11q113 45 113 78q0 29 -87 39l80 184h157z" />
    <glyph glyph-name="four.den" horiz-adv-x="279" 
d="M219 6l-1 -6h-161l1 6l41 35l6 35h-124l2 12l175 217h84l-32 -177h56l-28 -52h-38l-6 -35zM115 128l18 96l-79 -96h61z" />
    <glyph glyph-name="four.lin" horiz-adv-x="527" 
d="M440 6l-1 -6h-284l1 6l77 64l16 101h-256l3 18l370 473h120l-66 -388h111l-51 -103h-77l-17 -101zM266 274l36 215l-168 -215h132z" />
    <glyph glyph-name="four.num" horiz-adv-x="283" 
d="M276 365l-1 -6h-161l1 6l41 35l6 35h-124l2 12l175 217h84l-32 -177h56l-28 -52h-38l-6 -35zM172 487l18 96l-79 -96h61z" />
    <glyph glyph-name="four.sub" horiz-adv-x="279" 
d="M195 -106l-1 -6h-161l1 6l41 35l6 35h-124l2 12l175 217h84l-32 -177h56l-28 -52h-38l-6 -35zM91 16l18 96l-79 -96h61z" />
    <glyph glyph-name="four.sup" horiz-adv-x="279" 
d="M287 419l-1 -6h-161l1 6l41 35l6 35h-124l2 12l175 217h84l-32 -177h56l-28 -52h-38l-6 -35zM183 541l18 96l-79 -96h61z" />
    <glyph glyph-name="greater.lin" horiz-adv-x="397" 
d="M381 327l-10 -59l-337 -143l12 66l265 108l-224 110l10 59z" />
    <glyph glyph-name="guillemotleft.uc" horiz-adv-x="442" 
d="M359 101l-142 184l2 8l209 182l7 -7l-103 -188l36 -176zM182 101l-142 184l2 8l209 182l7 -7l-103 -188l36 -176z" />
    <glyph glyph-name="guillemotright.uc" horiz-adv-x="442" 
d="M102 475l142 -184l-2 -8l-209 -182l-7 7l103 188l-36 176zM279 475l142 -184l-2 -8l-209 -182l-7 7l103 188l-36 176z" />
    <glyph glyph-name="guilsinglleft.uc" horiz-adv-x="265" 
d="M40 286l2 8l209 182l7 -7l-97 -189l30 -175l-9 -3z" />
    <glyph glyph-name="guilsinglright.uc" horiz-adv-x="265" 
d="M244 291l-2 -8l-209 -182l-7 7l97 189l-30 175l9 3z" />
    <glyph glyph-name="hyphen.uc" horiz-adv-x="265" 
d="M77 369h185l-23 -112h-185z" />
    <glyph glyph-name="idotaccent" horiz-adv-x="261" 
d="M83 337l-50 48l2 6q97 36 213 65l-76 -380l55 -54v-6q-77 -14 -214 -26zM194 640q33 0 54 -21t21 -52t-21.5 -52t-53.5 -21t-53 21.5t-21 51.5q0 31 21 52t53 21z" />
    <glyph glyph-name="less.lin" horiz-adv-x="397" 
d="M52 266l10 59l337 143l-12 -66l-266 -108l225 -110l-10 -59z" />
    <glyph glyph-name="minus.lin" horiz-adv-x="381" 
d="M40 269l10 58h329l-10 -58h-329z" />
    <glyph glyph-name="multiply.lin" horiz-adv-x="364" 
d="M166 300l-93 143l51 33l85 -134l135 133l40 -39l-145 -142l93 -145l-48 -30l-87 134l-136 -134l-41 38z" />
    <glyph glyph-name="nacute.pl" horiz-adv-x="510" 
d="M14 0l69 338l-51 47l1 6q156 50 214 65l-32 -157q76 92 125 123t89 31q30 0 50 -18.5t9 -60.5l-68 -298l52 -54v-6q-54 -11 -214 -26l78 337q3 15 -5 15q-11 0 -50 -32.5t-79 -76.5l-46 -233h-142zM301 480l-7 1l35 221l110 -46z" />
    <glyph glyph-name="nine.den" horiz-adv-x="296" 
d="M31 5q79 49 112 99.5t33 110.5q0 54 -25 54q-13 0 -26.5 -19.5t-13.5 -46.5q0 -38 36 -38l3 -7q-9 -15 -30 -28t-48 -13q-28 0 -45.5 20.5t-17.5 52.5q0 51 41 85t101 34q55 0 91 -33.5t36 -87.5q0 -83 -67.5 -132t-174.5 -62z" />
    <glyph glyph-name="nine.num" horiz-adv-x="296" 
d="M87 364q79 49 112 99.5t33 110.5q0 54 -25 54q-13 0 -26.5 -19.5t-13.5 -46.5q0 -38 36 -38l3 -7q-9 -15 -30 -28t-48 -13q-28 0 -45.5 20.5t-17.5 52.5q0 51 41 85t101 34q55 0 91 -33.5t36 -87.5q0 -83 -67.5 -132t-174.5 -62z" />
    <glyph glyph-name="nine.lin" horiz-adv-x="523" 
d="M51 -4q314 179 314 486q0 57 -15.5 92t-36.5 35q-31 0 -64.5 -49t-33.5 -113q0 -93 78 -93q11 0 23 3l3 -8q-9 -13 -23.5 -28t-46.5 -32.5t-65 -17.5q-57 0 -91.5 42.5t-34.5 107.5q0 113 82.5 182.5t176.5 69.5q89 0 148 -61.5t59 -168.5q0 -94 -40 -175t-107.5 -138
t-149.5 -95t-171 -53z" />
    <glyph glyph-name="nine.sub" horiz-adv-x="296" 
d="M7 -107q79 49 112 99.5t33 110.5q0 54 -25 54q-13 0 -26.5 -19.5t-13.5 -46.5q0 -38 36 -38l3 -7q-9 -15 -30 -28t-48 -13q-28 0 -45.5 20.5t-17.5 52.5q0 51 41 85t101 34q55 0 91 -33.5t36 -87.5q0 -83 -67.5 -132t-174.5 -62z" />
    <glyph glyph-name="nine.sup" horiz-adv-x="296" 
d="M99 418q79 49 112 99.5t33 110.5q0 54 -25 54q-13 0 -26.5 -19.5t-13.5 -46.5q0 -38 36 -38l3 -7q-9 -15 -30 -28t-48 -13q-28 0 -45.5 20.5t-17.5 52.5q0 51 41 85t101 34q55 0 91 -33.5t36 -87.5q0 -83 -67.5 -132t-174.5 -62z" />
    <glyph glyph-name="oacute.pl" horiz-adv-x="464" 
d="M198 -13q-74 0 -129 47t-55 130q0 123 79 206t177 83q72 0 126 -44.5t54 -125.5q0 -126 -78.5 -211t-173.5 -85zM201 42q33 0 68 92t35 181q0 30 -7 49.5t-14.5 26.5t-15.5 7q-37 0 -71.5 -83t-34.5 -175q0 -44 12 -71t28 -27zM255 480l-7 1l35 221l110 -46z" />
    <glyph glyph-name="one.den" horiz-adv-x="193" 
d="M-22 0l1 6l41 35l35 188l-31 30l1 5l145 51l-50 -274l25 -35l-1 -6h-166z" />
    <glyph glyph-name="one.num" horiz-adv-x="193" 
d="M35 359l1 6l41 35l35 188l-31 30l1 5l145 51l-50 -274l25 -35l-1 -6h-166z" />
    <glyph glyph-name="one.lin" horiz-adv-x="326" 
d="M-19 0l1 6l77 64l79 471l-61 47l1 5l243 89l-103 -612l54 -64l-1 -6h-290z" />
    <glyph glyph-name="one.sub" horiz-adv-x="193" 
d="M-46 -112l1 6l41 35l35 188l-31 30l1 5l145 51l-50 -274l25 -35l-1 -6h-166z" />
    <glyph glyph-name="one.sup" horiz-adv-x="193" 
d="M46 413l1 6l41 35l35 188l-31 30l1 5l145 51l-50 -274l25 -35l-1 -6h-166z" />
    <glyph glyph-name="two.den" horiz-adv-x="259" 
d="M187 0h-218l1 10l29 29q51 51 71.5 73t36 46t15.5 43q0 20 -12 30.5t-31 10.5q-25 0 -50 -18l-9 7q34 78 119 78q40 0 64.5 -22t24.5 -60q0 -42 -41.5 -78.5t-114.5 -75.5h165z" />
    <glyph glyph-name="three.den" horiz-adv-x="227" 
d="M15 150q42 22 60.5 37.5t18.5 32.5q0 29 -33 29q-16 0 -33 -10l-9 7q36 63 111 63q29 0 46.5 -15t17.5 -38q0 -44 -71 -67q34 -5 54.5 -24.5t20.5 -48.5q0 -114 -218 -124l-4 11q62 21 86.5 47.5t24.5 49.5q0 40 -50 40q-8 0 -18 -2z" />
    <glyph glyph-name="parenleft.uc" horiz-adv-x="334" 
d="M404 764l13 -6q-52 -72 -85.5 -127.5t-67.5 -132t-51 -163.5t-17 -186q0 -128 35 -253l-15 -4q-134 167 -134 329q0 305 322 543z" />
    <glyph glyph-name="parenright.uc" horiz-adv-x="334" 
d="M-48 -108l-13 6q52 72 85.5 127.5t67.5 132t51 163.5t17 186q0 128 -35 253l15 4q134 -167 134 -329q0 -305 -322 -543z" />
    <glyph glyph-name="plus.lin" horiz-adv-x="416" 
d="M52 326h149l31 170h65l-31 -170h150l-10 -57h-150l-31 -174h-65l31 174h-149z" />
    <glyph glyph-name="questiondown.uc" horiz-adv-x="378" 
d="M92 265q23 16 60 40.5t47 31.5q41 29 53 63l22 63h18q20 -75 20 -139q0 -34 -39 -70l-88 -80q-45 -40 -45 -79q0 -20 11.5 -32t29.5 -12q28 0 71.5 36t78.5 76h9l-33 -163q-39 -11 -111 -11q-97 0 -142.5 39.5t-45.5 94.5q0 82 84 142zM292 526q-34 0 -55 21t-21 54
t21 54t55 21t55 -21t21 -54t-21 -54t-55 -21z" />
    <glyph glyph-name="sacute.pl" horiz-adv-x="332" 
d="M216 453q62 0 122 -20l-41 -121h-5q-60 90 -86 90q-10 0 -17.5 -8.5t-7.5 -21.5q0 -16 25 -58q7 -12 33 -51t36 -57q23 -41 21 -80q0 -50 -40.5 -93t-128.5 -43q-77 0 -131 27q6 67 25 164h6q35 -78 59 -106t45 -28q15 0 24.5 11t9.5 26q0 20 -17 46q-39 56 -61 97
q-32 53 -32 97q0 50 42.5 89.5t118.5 39.5zM206 480l-7 1l35 221l110 -46z" />
    <glyph glyph-name="seven.den" horiz-adv-x="248" 
d="M52 303h207v-4l-179 -299h-56l133 226h-152z" />
    <glyph glyph-name="seven.num" horiz-adv-x="248" 
d="M110 662h207v-4l-179 -299h-56l133 226h-152z" />
    <glyph glyph-name="seven.lin" horiz-adv-x="446" 
d="M131 662h372l-1 -6l-345 -656h-83l277 530h-295z" />
    <glyph glyph-name="seven.sub" horiz-adv-x="248" 
d="M28 191h207v-4l-179 -299h-56l133 226h-152z" />
    <glyph glyph-name="seven.sup" horiz-adv-x="248" 
d="M120 716h207v-4l-179 -299h-56l133 226h-152z" />
    <glyph glyph-name="six.den" horiz-adv-x="296" 
d="M261 297q-160 -89 -160 -207q0 -28 7.5 -42.5t18.5 -14.5q12 0 26 18.5t14 47.5q0 20 -8.5 29t-25.5 8l-3 7q7 12 27.5 26.5t46.5 14.5q31 0 48 -19.5t17 -52.5q0 -50 -44 -84.5t-102 -34.5q-50 0 -85.5 30.5t-35.5 79.5q0 81 75 136.5t179 68.5z" />
    <glyph glyph-name="six.num" horiz-adv-x="296" 
d="M318 656q-160 -89 -160 -207q0 -27 7.5 -42t18.5 -15q12 0 26 18.5t14 47.5q0 20 -8.5 29t-25.5 8l-3 7q7 12 27.5 26.5t46.5 14.5q31 0 48 -19.5t17 -52.5q0 -50 -44 -84.5t-102 -34.5q-50 0 -85.5 30.5t-35.5 79.5q0 81 75 136.5t179 68.5z" />
    <glyph glyph-name="six.lin" horiz-adv-x="523" 
d="M521 667q-149 -88 -236.5 -211.5t-87.5 -274.5q0 -57 15.5 -92t36.5 -35q32 0 65 48t33 114q0 93 -78 93q-11 0 -23 -3l-3 8q9 13 24 28t47 32.5t64 17.5q59 0 92.5 -39.5t33.5 -106.5q0 -113 -80 -184.5t-175 -71.5q-91 0 -151 60.5t-60 167.5q0 89 42.5 170t112.5 139
t153 97.5t170 56.5z" />
    <glyph glyph-name="six.sub" horiz-adv-x="296" 
d="M237 185q-160 -89 -160 -207q0 -28 7.5 -42.5t18.5 -14.5q12 0 26 18.5t14 47.5q0 20 -8.5 29t-25.5 8l-3 7q7 12 27.5 26.5t46.5 14.5q31 0 48 -19.5t17 -52.5q0 -50 -44 -84.5t-102 -34.5q-50 0 -85.5 30.5t-35.5 79.5q0 81 75 136.5t179 68.5z" />
    <glyph glyph-name="six.sup" horiz-adv-x="296" 
d="M329 710q-160 -89 -160 -207q0 -27 7.5 -42t18.5 -15q12 0 26 18.5t14 47.5q0 20 -8.5 29t-25.5 8l-3 7q7 12 27.5 26.5t46.5 14.5q31 0 48 -19.5t17 -52.5q0 -50 -44 -84.5t-102 -34.5q-50 0 -85.5 30.5t-35.5 79.5q0 81 75 136.5t179 68.5z" />
    <glyph glyph-name="slash.uc" horiz-adv-x="335" 
d="M393 742l-363 -854l-54 20l363 854z" />
    <glyph glyph-name="three.lin" horiz-adv-x="403" 
d="M76 339q152 92 152 167q0 30 -17.5 47.5t-47.5 17.5q-40 0 -75 -25l-11 8q63 118 187 118q56 0 88 -30.5t32 -78.5q0 -96 -142 -148q66 -4 106 -42t40 -106q0 -42 -19 -83t-61.5 -82t-125.5 -73t-197 -46l-4 13q234 111 234 241q0 44 -26 66t-68 22q-31 0 -40 -4z" />
    <glyph glyph-name="three.num" horiz-adv-x="227" 
d="M72 509q42 22 60.5 37.5t18.5 32.5q0 29 -33 29q-16 0 -33 -10l-9 7q36 63 111 63q29 0 46.5 -15t17.5 -38q0 -44 -71 -67q34 -5 54.5 -24.5t20.5 -48.5q0 -114 -218 -124l-4 11q62 21 86.5 47.5t24.5 49.5q0 40 -50 40q-8 0 -18 -2z" />
    <glyph glyph-name="three.sub" horiz-adv-x="227" 
d="M-9 38q42 22 60.5 37.5t18.5 32.5q0 29 -33 29q-16 0 -33 -10l-9 7q36 63 111 63q29 0 46.5 -15t17.5 -38q0 -44 -71 -67q34 -5 54.5 -24.5t20.5 -48.5q0 -114 -218 -124l-4 11q62 21 86.5 47.5t24.5 49.5q0 40 -50 40q-8 0 -18 -2z" />
    <glyph glyph-name="three.sup" horiz-adv-x="227" 
d="M83 563q42 22 60.5 37.5t18.5 32.5q0 29 -33 29q-16 0 -33 -10l-9 7q36 63 111 63q29 0 46.5 -15t17.5 -38q0 -44 -71 -67q34 -5 54.5 -24.5t20.5 -48.5q0 -114 -218 -124l-4 11q62 21 86.5 47.5t24.5 49.5q0 40 -50 40q-8 0 -18 -2z" />
    <glyph glyph-name="two.lin" horiz-adv-x="454" 
d="M423 242h6l-40 -242h-410l6 36q172 189 233 275t61 156q0 50 -24.5 74.5t-67.5 24.5q-48 0 -98 -41l-11 8q23 55 73 97t128 42q77 0 121.5 -43t44.5 -115q0 -92 -74.5 -176.5t-232.5 -201.5h178z" />
    <glyph glyph-name="two.num" horiz-adv-x="259" 
d="M244 359h-218l1 10l29 29q51 51 71.5 73t36 46t15.5 43q0 20 -12 30.5t-31 10.5q-25 0 -50 -18l-9 7q34 78 119 78q40 0 64.5 -22t24.5 -60q0 -42 -41.5 -78.5t-114.5 -75.5h165z" />
    <glyph glyph-name="two.sub" horiz-adv-x="259" 
d="M163 -112h-218l1 10l29 29q51 51 71.5 73t36 46t15.5 43q0 20 -12 30.5t-31 10.5q-25 0 -50 -18l-9 7q34 78 119 78q40 0 64.5 -22t24.5 -60q0 -42 -41.5 -78.5t-114.5 -75.5h165z" />
    <glyph glyph-name="two.sup" horiz-adv-x="259" 
d="M255 413h-218l1 10l29 29q51 51 71.5 73t36 46t15.5 43q0 20 -12 30.5t-31 10.5q-25 0 -50 -18l-9 7q34 78 119 78q40 0 64.5 -22t24.5 -60q0 -42 -41.5 -78.5t-114.5 -75.5h165z" />
    <glyph glyph-name="zacute.pl" horiz-adv-x="370" 
d="M-16 17l261 322h-41q-84 0 -161 -10l-4 4l75 119l280 -12l-3 -17l-267 -318h44q107 0 183 16l4 -4l-88 -126l-286 9zM229 480l-7 1l35 221l110 -46z" />
    <glyph glyph-name="zero.den" horiz-adv-x="340" 
d="M5 123q0 76 57.5 131t130.5 55q54 0 89.5 -36t35.5 -93q0 -76 -57.5 -131.5t-129.5 -55.5q-57 0 -91.5 35t-34.5 95zM187 266q-23 0 -50.5 -53.5t-27.5 -121.5q0 -24 8 -38t18 -14q25 0 51.5 56t26.5 121q0 50 -26 50z" />
    <glyph glyph-name="zero.num" horiz-adv-x="340" 
d="M62 482q0 76 57.5 131t130.5 55q54 0 89.5 -36t35.5 -93q0 -76 -57.5 -131.5t-129.5 -55.5q-57 0 -91.5 35t-34.5 95zM244 625q-23 0 -50.5 -53.5t-27.5 -121.5q0 -24 8 -38t18 -14q25 0 51.5 56t26.5 121q0 50 -26 50z" />
    <glyph glyph-name="zero.lin" horiz-adv-x="613" 
d="M45 263q0 161 104.5 285t232.5 124q97 0 161 -76.5t64 -195.5q0 -109 -49 -205t-126 -150.5t-159 -54.5q-102 0 -165 75t-63 198zM380 605q-33 0 -72 -48t-67.5 -134t-28.5 -178q0 -84 18.5 -134t44.5 -50q37 0 75 52t64 142.5t26 188.5q0 73 -16.5 117t-43.5 44z" />
    <glyph glyph-name="zero.sub" horiz-adv-x="340" 
d="M-19 11q0 76 57.5 131t130.5 55q54 0 89.5 -36t35.5 -93q0 -76 -57.5 -131.5t-129.5 -55.5q-57 0 -91.5 35t-34.5 95zM163 154q-23 0 -50.5 -53.5t-27.5 -121.5q0 -24 8 -38t18 -14q25 0 51.5 56t26.5 121q0 50 -26 50z" />
    <glyph glyph-name="zero.sup" horiz-adv-x="340" 
d="M73 536q0 76 57.5 131t130.5 55q54 0 89.5 -36t35.5 -93q0 -76 -57.5 -131.5t-129.5 -55.5q-57 0 -91.5 35t-34.5 95zM255 679q-23 0 -50.5 -53.5t-27.5 -121.5q0 -24 8 -38t18 -14q25 0 51.5 56t26.5 121q0 50 -26 50z" />
    </font>
</defs>
</svg>
