<?xml version="1.0" standalone="no"?>
<!DOCTYPE svg PUBLIC "-//W3C//DTD SVG 1.1//EN" "http://www.w3.org/Graphics/SVG/1.1/DTD/svg11.dtd" >
<svg xmlns="http://www.w3.org/2000/svg" xmlns:xlink="http://www.w3.org/1999/xlink" version="1.1">
<metadata>
Created by FontForge 20170731 at Fri Jan  3 06:38:08 2014
 By Aleksey,,,
Copyright (c)2013 Commercial Type.
</metadata>
<defs>
<font id="Portrait-Heavy" horiz-adv-x="400" >
  <font-face 
    font-family="Portrait Heavy"
    font-weight="900"
    font-stretch="normal"
    units-per-em="1000"
    panose-1="0 0 0 0 0 0 0 0 0 0"
    ascent="730"
    descent="-270"
    x-height="440"
    cap-height="662"
    bbox="-37 -257 1307 1038"
    underline-thickness="34"
    underline-position="20"
    unicode-range="U+000D-FB04"
  />
<missing-glyph horiz-adv-x="192" 
 />
    <glyph glyph-name="f_b" unicode="fb" horiz-adv-x="857" 
d="M293 6v-6h-281v6l54 53v303h-78v6l78 65v20q0 115 89 189t217 74q65 0 156 -19v-304q82 60 143 60q57 0 109 -48t52 -146q0 -60 -18 -108t-45.5 -76.5t-63.5 -47t-68.5 -25.5t-64.5 -7q-10 0 -83.5 2.5t-114.5 2.5h-7v636q-17 10 -41 10q-41 0 -70.5 -34t-29.5 -96v-78
h121l-48 -76h-73v-303zM567 358q-27 0 -39 -7v-274q17 -17 45 -17q40 0 66.5 41t26.5 109t-25 108t-74 40z" />
    <glyph glyph-name="f_f_b" unicode="ffb" horiz-adv-x="1142" 
d="M281 6v-6h-269v6l54 53v303h-78v6l78 65v20q0 112 85 187.5t195 75.5q43 0 76 -9l-45 -102q-73 39 -94 39q-11 0 -23.5 -12t-23 -43.5t-10.5 -75.5v-75h125v15q0 115 89 189t217 74q88 0 156 -19v-304q83 60 143 60q57 0 109 -48t52 -146q0 -60 -18 -108t-45.5 -76.5
t-63.5 -47t-68.5 -25.5t-64.5 -7q-10 0 -83.5 2.5t-114.5 2.5h-7v636q-17 10 -41 10q-41 0 -70.5 -34t-29.5 -96v-78h121l-48 -76h-73v-303l67 -53v-6h-281v6l54 53v303h-125v-303zM852 358q-27 0 -39 -7v-274q17 -17 45 -17q40 0 66.5 41t26.5 109t-25 108t-74 40z" />
    <glyph glyph-name="f_f_h" unicode="ffh" horiz-adv-x="1164" 
d="M281 6v-6h-269v6l54 53v303h-78v6l78 65v20q0 112 85 187.5t195 75.5q43 0 76 -9l-45 -102q-73 39 -94 39q-11 0 -23.5 -12t-23 -43.5t-10.5 -75.5v-75h125v15q0 115 89 189t217 74q90 0 155 -19v-324q85 80 154 80q63 0 101 -37.5t38 -67.5v-289l53 -53v-6h-264v6l51 53
v244q0 19 -17.5 33.5t-50.5 14.5q-38 0 -65 -24v-268l54 -53v-6h-266v6l52 53v577q-17 10 -41 10q-41 0 -70.5 -34t-29.5 -96v-78h121l-48 -76h-73v-303l67 -53v-6h-281v6l54 53v303h-125v-303z" />
    <glyph glyph-name="f_f_j" unicode="ffj" horiz-adv-x="839" 
d="M281 6v-6h-269v6l54 53v303h-78v6l78 65v20q0 112 85 187.5t195 75.5q43 0 76 -9l-45 -102q-73 39 -94 39q-11 0 -23.5 -12t-23 -43.5t-10.5 -75.5v-75h125v15q0 113 87 188t209 75q72 0 118 -16l-50 -126q-105 70 -137 70q-10 0 -25 -12.5t-28.5 -44.5t-13.5 -74v-75
h208l70 19v-416q0 -48 -51.5 -124t-155.5 -149l-8 8q55 128 55 253v333h-118v-303l55 -53v-6h-269v6l54 53v303h-125v-303z" />
    <glyph glyph-name="f_f_k" unicode="ffk" horiz-adv-x="1149" 
d="M281 6v-6h-269v6l54 53v303h-78v6l78 65v20q0 112 85 187.5t195 75.5q43 0 76 -9l-45 -102q-73 39 -94 39q-11 0 -23.5 -12t-23 -43.5t-10.5 -75.5v-75h125v15q0 115 89 189t217 74q90 0 155 -19v-638l54 -53v-6h-266v6l52 53v577q-17 10 -41 10q-41 0 -70.5 -34
t-29.5 -96v-78h121l-48 -76h-73v-303l67 -53v-6h-281v6l54 53v303h-125v-303zM825 209v6l103 158l-63 61v6h262v-8l-109 -62l-70 -78l109 -164q44 -67 91 -122v-6q-49 -13 -96 -13q-52 0 -81.5 19.5t-61.5 68.5z" />
    <glyph glyph-name="f_h" unicode="fh" horiz-adv-x="879" 
d="M315 0v6l52 53v577q-17 10 -41 10q-41 0 -70.5 -34t-29.5 -96v-78h121l-48 -76h-73v-303l67 -53v-6h-281v6l54 53v303h-78v6l78 65v20q0 115 89 189t217 74q90 0 155 -19v-324q85 80 154 80q63 0 101 -37.5t38 -67.5v-289l53 -53v-6h-264v6l51 53v244q0 19 -17.5 33.5
t-50.5 14.5q-38 0 -65 -24v-268l54 -53v-6h-266z" />
    <glyph glyph-name="f_j" unicode="fj" horiz-adv-x="554" 
d="M293 644q-10 0 -25 -12.5t-28.5 -44.5t-13.5 -74v-75h208l70 19v-416q0 -48 -51.5 -124t-155.5 -149l-8 8q55 128 55 253v333h-118v-303l55 -53v-6h-269v6l54 53v303h-78v6l78 65v20q0 113 87 188t209 75q72 0 118 -16l-50 -126q-105 70 -137 70z" />
    <glyph glyph-name="f_k" unicode="fk" horiz-adv-x="864" 
d="M293 6v-6h-281v6l54 53v303h-78v6l78 65v20q0 115 89 189t217 74q90 0 155 -19v-638l54 -53v-6h-266v6l52 53v577q-17 10 -41 10q-41 0 -70.5 -34t-29.5 -96v-78h121l-48 -76h-73v-303zM540 209v6l103 158l-63 61v6h262v-8l-109 -62l-70 -78l109 -164q44 -67 91 -122v-6
q-49 -13 -96 -13q-52 0 -81.5 19.5t-61.5 68.5z" />
    <glyph glyph-name="g_g" unicode="gg" horiz-adv-x="971" 
d="M499 319q0 56 55 97t144 41q55 0 103 -17h155v-64h-77q22 -29 22 -54q0 -61 -49.5 -102t-153.5 -41q-30 0 -59 6q-11 -13 -11 -31q0 -11 6.5 -17.5t13.5 -6.5h193q31 0 69.5 -38.5t38.5 -101.5q0 -94 -81 -164t-201 -70q-84 0 -131.5 30t-47.5 67q0 33 31.5 72t65.5 65
q-33 13 -54.5 39.5t-21.5 65.5t17 56l69 47q-96 39 -96 121zM29 319q0 56 55 97t144 41q55 0 103 -17h146v-64h-68q22 -29 22 -54q0 -61 -49.5 -102t-153.5 -41q-33 0 -63 6q-11 -16 -11 -31q0 -11 6.5 -17.5t13.5 -6.5h192q31 0 69.5 -38.5t38.5 -101.5q0 -94 -80.5 -164
t-200.5 -70q-84 0 -131.5 30t-47.5 67q0 33 31.5 72t65.5 65q-33 13 -54.5 39.5t-21.5 65.5t17 56l71 48q-94 39 -94 120zM624 -18q-10 -10 -19.5 -31t-9.5 -39q0 -23 29 -41t84 -18q56 0 91.5 23t35.5 59q0 24 -17.5 35.5t-34.5 11.5h-159zM150 -18q-10 -10 -19.5 -31
t-9.5 -39q0 -23 29 -41t84 -18q56 0 91 23t35 59q0 24 -17.5 35.5t-34.5 11.5h-158zM644 318q0 -33 18 -58.5t38 -25.5q23 0 39 24.5t16 59.5t-16 60t-39 25q-21 0 -38.5 -26t-17.5 -59zM174 318q0 -33 18 -58.5t38 -25.5q23 0 39 24.5t16 59.5t-16 60t-39 25
q-21 0 -38.5 -26t-17.5 -59z" />
    <glyph glyph-name="f_f" unicode="ff" horiz-adv-x="646" 
d="M281 6v-6h-269v6l54 53v303h-78v6l78 65v20q0 112 85 187.5t195 75.5q43 0 76 -9l-45 -102q-73 39 -94 39q-11 0 -23.5 -12t-23 -43.5t-10.5 -75.5v-75h126v15q0 114 87 188.5t211 74.5q61 0 110 -13l-48 -114q-93 55 -131 55q-12 0 -27 -12.5t-28.5 -44t-13.5 -74.5v-75
h149l-50 -76h-99v-298l99 -58v-6h-311v6l52 53v303h-126v-303z" />
    <glyph glyph-name="f_i" unicode="fi" horiz-adv-x="574" 
d="M281 6v-6h-269v6l54 53v303h-78v6l78 65v20q0 114 87.5 188.5t212.5 74.5q68 0 122 -18l-50 -126q-110 72 -141 72q-22 0 -46.5 -34.5t-24.5 -96.5v-75h219q31 9 67 18v-397l54 -53v-6h-266v6l52 53v303h-126v-303z" />
    <glyph glyph-name="f_l" unicode="fl" horiz-adv-x="589" 
d="M367 636q-17 10 -41 10q-41 0 -70.5 -34t-29.5 -96v-78h121l-48 -76h-73v-303l67 -53v-6h-281v6l54 53v303h-78v6l78 65v20q0 115 89 189t217 74q90 0 155 -19v-638l54 -53v-6h-266v6l52 53v577z" />
    <glyph glyph-name="f_f_i" unicode="ffi" horiz-adv-x="859" 
d="M281 6v-6h-269v6l54 53v303h-78v6l78 65v20q0 112 85 187.5t195 75.5q43 0 76 -9l-45 -102q-73 39 -94 39q-11 0 -23.5 -12t-23 -43.5t-10.5 -75.5v-75h125v15q0 114 87.5 188.5t212.5 74.5q68 0 122 -18l-50 -126q-110 72 -141 72q-22 0 -46.5 -34.5t-24.5 -96.5v-75
h219q31 9 67 18v-397l54 -53v-6h-266v6l52 53v303h-126v-303l55 -53v-6h-269v6l54 53v303h-125v-303z" />
    <glyph glyph-name="f_f_l" unicode="ffl" horiz-adv-x="874" 
d="M281 6v-6h-269v6l54 53v303h-78v6l78 65v20q0 112 85 187.5t195 75.5q43 0 76 -9l-45 -102q-73 39 -94 39q-11 0 -23.5 -12t-23 -43.5t-10.5 -75.5v-75h125v15q0 115 89 189t217 74q90 0 155 -19v-638l54 -53v-6h-266v6l52 53v577q-17 10 -41 10q-41 0 -70.5 -34
t-29.5 -96v-78h121l-48 -76h-73v-303l67 -53v-6h-281v6l54 53v303h-125v-303z" />
    <glyph glyph-name=".notdef" horiz-adv-x="192" 
 />
    <glyph glyph-name=".null" horiz-adv-x="0" 
 />
    <glyph glyph-name="nonmarkingreturn" horiz-adv-x="333" 
 />
    <glyph glyph-name="NULL" horiz-adv-x="0" 
 />
    <glyph glyph-name="NULL" horiz-adv-x="0" 
 />
    <glyph glyph-name="CR" unicode="&#xd;" horiz-adv-x="192" 
 />
    <glyph glyph-name="space" unicode=" " horiz-adv-x="192" 
 />
    <glyph glyph-name="exclam" unicode="!" horiz-adv-x="254" 
d="M221 662q-49 -288 -82 -463h-24q-30 153 -82 463h188zM42 67q0 35 25 59t60 24q37 0 61 -24t24 -59t-24 -59t-61 -24q-35 0 -60 24t-25 59z" />
    <glyph glyph-name="quotedbl" unicode="&#x22;" horiz-adv-x="345" 
d="M313 623q0 -13 -3 -30.5t-9.5 -41.5t-11.5 -41.5t-15.5 -50t-14.5 -46.5h-15q-5 16 -14.5 47.5t-15 49.5t-11.5 42t-9 41t-3 30q0 71 61 71q29 0 45 -19t16 -52zM154 623q0 -13 -3 -30.5t-9.5 -41.5t-11.5 -41.5t-15.5 -50t-14.5 -46.5h-15q-5 16 -14.5 47.5t-15 49.5
t-11.5 42t-9 41t-3 30q0 71 61 71q29 0 45 -19t16 -52z" />
    <glyph glyph-name="numbersign" unicode="#" horiz-adv-x="500" 
d="M382 418l-36 -139h88v-56h-103l-57 -223h-63l57 223h-98l-57 -223h-63l57 223h-83v56h98l36 139h-86v56h100l49 188h63l-49 -188h98l49 188h63l-49 -188h87v-56h-101zM185 279h98l36 139h-98z" />
    <glyph glyph-name="dollar" unicode="$" horiz-adv-x="492" 
d="M322 745l-9 -73q68 -4 105 -14v-172h-7q-58 74 -107 106l-20 -167q2 -2 6 -5t7.5 -5.5t7.5 -4.5q85 -65 122 -113t37 -113q0 -81 -62 -135.5t-169 -58.5l-10 -86h-54l10 88q-78 8 -134 37q-15 105 -8 231h10q64 -153 142 -188l22 191l-6 4t-6 4.5t-6 4.5
q-85 61 -120.5 111t-35.5 109q0 77 62.5 125t159.5 52l9 72h54zM312 139q0 25 -11.5 44t-39.5 43l-19 -160q32 4 51 23.5t19 49.5zM182 544q0 -23 11.5 -40.5t41.5 -41.5l17 146q-32 -2 -51 -19t-19 -45z" />
    <glyph glyph-name="percent" unicode="%" horiz-adv-x="686" 
d="M360 146q0 66 45 111t113 45q70 0 114.5 -44t44.5 -112q0 -65 -45 -109.5t-114 -44.5q-70 0 -114 43t-44 111zM9 514q0 66 45 111t113 45q70 0 114.5 -44t44.5 -112q0 -65 -45 -109.5t-114 -44.5q-70 0 -114 43t-44 111zM544 662h81l-477 -662h-81zM518 55q35 0 59 27
t24 64q0 41 -23.5 67t-59.5 26q-37 0 -60.5 -26t-23.5 -67q0 -37 24 -64t60 -27zM167 607q-37 0 -60.5 -26t-23.5 -67q0 -37 24 -64t60 -27q35 0 59 27t24 64q0 41 -23.5 67t-59.5 26z" />
    <glyph glyph-name="ampersand" unicode="&#x26;" horiz-adv-x="770" 
d="M769 434q-63 -38 -92 -75.5t-88 -144.5l-21 -36q61 -72 165 -72q23 0 51 4l2 -5q-33 -45 -87.5 -79.5t-115.5 -34.5q-63 0 -118 61q-81 -66 -191 -66q-112 0 -183 56t-71 138q0 113 168 183q-37 41 -54 70.5t-17 67.5q0 61 59 105t141 44q79 0 128 -35t49 -80
q0 -41 -36 -73.5t-89 -52.5q107 -119 153 -174q25 50 48 135l-71 64v6h270v-6zM417 111q-71 87 -193 213q-35 -42 -35 -95q0 -62 37.5 -103t103.5 -41q43 0 87 26zM260 548q0 -8 2.5 -15.5t5.5 -13.5t11.5 -16t14 -15.5t19 -19.5t21.5 -22l3 -3q33 35 33 78q0 34 -18 53
t-40 19q-23 0 -37.5 -13t-14.5 -32z" />
    <glyph glyph-name="quotesingle" unicode="'" horiz-adv-x="186" 
d="M154 623q0 -13 -3 -30.5t-9.5 -41.5t-11.5 -41.5t-15.5 -50t-14.5 -46.5h-15q-5 16 -14.5 47.5t-15 49.5t-11.5 42t-9 41t-3 30q0 71 61 71q29 0 45 -19t16 -52z" />
    <glyph glyph-name="parenleft" unicode="(" horiz-adv-x="316" 
d="M49 283q0 258 249 467l16 -6q-127 -214 -127 -460q0 -224 127 -460l-16 -6q-49 42 -83.5 78.5t-77 95.5t-65.5 133t-23 158z" />
    <glyph glyph-name="parenright" unicode=")" horiz-adv-x="316" 
d="M267 283q0 -84 -23 -158t-65.5 -133t-77 -95.5t-83.5 -78.5l-16 6q127 236 127 460q0 246 -127 460l16 6q249 -209 249 -467z" />
    <glyph glyph-name="asterisk" unicode="*" horiz-adv-x="345" 
d="M80 372l-5 3l31 112l-104 38v6l110 23l-21 112l5 3l84 -83l88 73l5 -3l-37 -108l107 -37v-6l-108 -26l20 -108l-5 -2l-80 79z" />
    <glyph glyph-name="plus" unicode="+" horiz-adv-x="480" 
d="M34 277h172v180h68v-180h172v-60h-172v-181h-68v181h-172v60z" />
    <glyph glyph-name="comma" unicode="," horiz-adv-x="239" 
d="M32 81q0 33 22.5 54.5t58.5 21.5q40 0 67 -28t27 -76q0 -65 -42 -113.5t-109 -76.5l-14 7q58 82 74 140q-37 0 -60.5 18.5t-23.5 52.5z" />
    <glyph glyph-name="hyphen" unicode="-" horiz-adv-x="293" 
d="M40 308h213v-121h-213v121z" />
    <glyph glyph-name="period" unicode="." horiz-adv-x="234" 
d="M32 67q0 35 25 59t60 24q37 0 61 -24t24 -59t-24 -59t-61 -24q-35 0 -60 24t-25 59z" />
    <glyph glyph-name="slash" unicode="/" horiz-adv-x="354" 
d="M336 745l-299 -980l-59 17l299 980z" />
    <glyph glyph-name="zero" unicode="0" horiz-adv-x="514" 
d="M22 218q0 98 68.5 166.5t166.5 68.5q100 0 167.5 -66t67.5 -165q0 -98 -68 -166.5t-167 -68.5q-102 0 -168.5 65.5t-66.5 165.5zM124 221q0 -63 38 -104.5t95 -41.5q56 0 94.5 41t38.5 105q0 62 -38.5 103t-94.5 41q-58 0 -95.5 -41t-37.5 -103z" />
    <glyph glyph-name="one" unicode="1" horiz-adv-x="297" 
d="M16 434v6h264v-6l-50 -53v-322l50 -53v-6h-264v6l55 53v322z" />
    <glyph glyph-name="two" unicode="2" horiz-adv-x="442" 
d="M29 332q20 47 65 84t116 37q68 0 107.5 -36t39.5 -89q0 -50 -42.5 -96t-128.5 -102h260l-57 -130h-374v6q81 88 126.5 155.5t45.5 121.5q0 32 -18.5 52t-52.5 20q-45 0 -76 -31z" />
    <glyph glyph-name="three" unicode="3" horiz-adv-x="379" 
d="M25 104q137 123 137 195q0 29 -15.5 45t-42.5 16q-34 0 -65 -24l-11 7q51 112 162 112q60 0 93 -30t33 -73q0 -85 -137 -162q13 3 30 3q70 0 111.5 -39.5t41.5 -98.5q0 -86 -87 -158.5t-273 -142.5l-9 13q100 82 145 141.5t45 111.5q0 37 -22.5 60t-65.5 23
q-32 0 -60 -12z" />
    <glyph glyph-name="four" unicode="4" horiz-adv-x="511" 
d="M409 449v-344h92v-105h-92v-157l-150 -60v217h-260v8l315 441h95zM259 105v170l-120 -170h120z" />
    <glyph glyph-name="five" unicode="5" horiz-adv-x="370" 
d="M352 440l-63 -120h-151q0 -3 -1 -4l-2 -4q180 -130 180 -250q0 -96 -92.5 -171t-237.5 -111l-8 13q75 48 126 106.5t51 108.5q0 42 -33.5 87.5t-76.5 80.5q10 34 53 134.5t60 129.5h195z" />
    <glyph glyph-name="six" unicode="6" horiz-adv-x="528" 
d="M498 674q-155 -77 -230.5 -188t-75.5 -247q0 -83 32 -136t64 -53q26 0 46 35t20 82q0 48 -28 80.5t-76 32.5q-18 0 -30 -4l-5 5q7 13 20.5 28t45 31.5t67.5 16.5q69 0 113.5 -45t44.5 -120q0 -93 -67.5 -149t-156.5 -56q-63 0 -119.5 28.5t-96 91.5t-39.5 149
q0 88 43.5 165t113.5 129.5t148.5 87t157.5 48.5z" />
    <glyph glyph-name="seven" unicode="7" horiz-adv-x="463" 
d="M65 440h381v-6l-270 -667l-67 14l215 539h-312z" />
    <glyph glyph-name="eight" unicode="8" horiz-adv-x="434" 
d="M222 672q77 0 127.5 -38.5t50.5 -90.5q0 -73 -117 -151q76 -84 103.5 -128t27.5 -93q0 -64 -58 -122.5t-148 -58.5q-81 0 -138.5 40t-57.5 106q0 82 129 172q-67 75 -91 117.5t-24 86.5q0 58 56 109t140 51zM271 127q0 26 -20.5 55.5t-77.5 90.5q-30 -58 -31 -119
q0 -49 19.5 -77t47.5 -28q27 0 44.5 23.5t17.5 54.5zM165 559q0 -21 19.5 -50t71.5 -87q23 55 24 112q0 38 -17.5 61.5t-42.5 23.5q-22 0 -38.5 -16t-16.5 -44z" />
    <glyph glyph-name="nine" unicode="9" horiz-adv-x="527" 
d="M52 -235q140 88 212 201t72 234q0 83 -35.5 136t-64.5 53q-24 0 -42.5 -34.5t-18.5 -76.5q0 -56 27.5 -87.5t75.5 -31.5q18 0 30 4l5 -5q-47 -74 -129 -74q-68 0 -115 44.5t-47 120.5q0 86 65 144.5t151 58.5q34 0 69.5 -9t70.5 -29.5t62 -50.5t44 -76t17 -101
q0 -86 -37.5 -159.5t-101.5 -126t-139.5 -89t-162.5 -58.5z" />
    <glyph glyph-name="colon" unicode=":" horiz-adv-x="244" 
d="M37 370q0 35 25 59t60 24q37 0 61 -24t24 -59t-24 -59t-61 -24q-35 0 -60 24t-25 59zM37 67q0 35 25 59t60 24q37 0 61 -24t24 -59t-24 -59t-61 -24q-35 0 -60 24t-25 59z" />
    <glyph glyph-name="semicolon" unicode=";" horiz-adv-x="245" 
d="M37 370q0 35 25 59t60 24q37 0 61 -24t24 -59t-24 -59t-61 -24q-35 0 -60 24t-25 59zM33 81q0 33 22.5 54.5t58.5 21.5q40 0 67 -28t27 -76q0 -65 -42 -113.5t-109 -76.5l-14 7q58 82 74 140q-37 0 -60.5 18.5t-23.5 52.5z" />
    <glyph glyph-name="less" unicode="&#x3c;" horiz-adv-x="436" 
d="M393 75l-358 141v59l358 143v-64l-282 -108l282 -107v-64z" />
    <glyph glyph-name="equal" unicode="=" horiz-adv-x="463" 
d="M40 154v60h383v-60h-383zM40 269v60h383v-60h-383z" />
    <glyph glyph-name="greater" unicode="&#x3e;" horiz-adv-x="436" 
d="M43 139l282 107l-282 108v64l358 -143v-59l-358 -141v64z" />
    <glyph glyph-name="question" unicode="?" horiz-adv-x="391" 
d="M386 532q0 -71 -70 -137q-11 -11 -30 -26.5t-39.5 -32t-26.5 -21.5q-31 -29 -31 -56q0 -35 4 -60h-22q-31 33 -56.5 78t-25.5 73q0 26 35 66l74 80q32 34 32 64q0 24 -14.5 36.5t-31.5 12.5q-52 0 -148 -115h-9v165q75 14 142 14q104 0 160.5 -40t56.5 -101zM94 67
q0 35 25 59t60 24q37 0 61 -24t24 -59t-24 -59t-61 -24q-35 0 -60 24t-25 59z" />
    <glyph glyph-name="at" unicode="@" horiz-adv-x="920" 
d="M617 57q74 20 124.5 83.5t50.5 167.5q0 114 -67.5 186t-218.5 72q-107 0 -192.5 -58.5t-129 -145.5t-43.5 -181q0 -150 88.5 -237.5t236.5 -87.5q100 0 172 33t136 86l16 -19q-131 -163 -353 -163q-176 0 -289.5 101.5t-113.5 265.5q0 93 37 177t101.5 146t156.5 98.5
t197 36.5q177 0 273.5 -83t96.5 -203q0 -160 -123.5 -246.5t-316.5 -76.5l24 117q-35 -47 -83.5 -82t-82.5 -35q-28 0 -53 32t-25 81q0 121 93 201t211 80l156 46zM397 111q10 0 36 17.5t59 53.5l35 169q-55 -4 -98 -73t-43 -142q0 -25 11 -25z" />
    <glyph glyph-name="A" unicode="A" horiz-adv-x="664" 
d="M224 6v-6h-224v6l63 66l238 594h44l256 -594l63 -66v-6h-323v6l70 66l-45 105h-179l-38 -98zM213 242h125l-65 154z" />
    <glyph glyph-name="B" unicode="B" horiz-adv-x="637" 
d="M624 212q0 -93 -72.5 -152.5t-205.5 -59.5h-328v6l72 66v518l-72 67v5h307q108 0 173.5 -36t65.5 -108q0 -44 -35.5 -80t-82.5 -54q80 -12 129 -58.5t49 -113.5zM270 329v-252q22 -14 63 -14q43 0 75 38t32 99q0 66 -39.5 97.5t-104.5 31.5h-26zM270 600v-214h66
q21 0 42 32.5t21 78.5q0 53 -27.5 78t-73.5 25h-28z" />
    <glyph glyph-name="C" unicode="C" horiz-adv-x="668" 
d="M410 -11q-164 0 -274.5 90.5t-110.5 249.5q0 148 111.5 245.5t281.5 97.5q82 0 197 -24v-180h-9q-51 51 -112.5 92t-108.5 41q-55 0 -109 -71t-54 -181q0 -133 59.5 -210.5t135.5 -77.5q104 0 200 139h9v-173q-89 -38 -216 -38z" />
    <glyph glyph-name="D" unicode="D" horiz-adv-x="761" 
d="M18 0v6l72 66v518l-72 67v5h341q159 0 268.5 -82.5t109.5 -228.5q0 -149 -94 -250t-247 -101h-378zM270 595v-514q36 -17 94 -17q75 0 127.5 84t52.5 187q0 128 -68.5 194t-174.5 66h-31z" />
    <glyph glyph-name="E" unicode="E" horiz-adv-x="559" 
d="M18 0v6l72 66v518l-72 67v5h486v-162h-6l-90 94h-139v-216h147l66 73h6v-212h-6l-66 73h-147v-243h158l90 121h8v-190h-507z" />
    <glyph glyph-name="F" unicode="F" horiz-adv-x="540" 
d="M482 451h6v-218h-6l-66 76h-147v-237l94 -66v-6h-345v6l72 66v518l-72 67v5h486v-165h-6l-92 97h-137v-219h147z" />
    <glyph glyph-name="G" unicode="G" horiz-adv-x="726" 
d="M663 37q-21 -3 -61 -16t-88 -22t-111 -9q-160 0 -269 94t-109 241q0 149 110.5 248.5t284.5 99.5q88 0 213 -25v-176h-9q-54 52 -119.5 91.5t-112.5 39.5q-25 0 -54 -15.5t-56 -45t-44.5 -80t-17.5 -112.5q0 -130 65.5 -209.5t142.5 -79.5q42 0 66 15v197l-80 65v6h307
v-6l-58 -65v-236z" />
    <glyph glyph-name="H" unicode="H" horiz-adv-x="812" 
d="M272 370h270v220l-72 66v6h324v-6l-72 -66v-518l72 -66v-6h-324v6l72 66v229h-270v-229l72 -66v-6h-326v6l72 66v518l-72 66v6h326v-6l-72 -66v-220z" />
    <glyph glyph-name="I" unicode="I" horiz-adv-x="360" 
d="M18 0v6l72 66v518l-72 66v6h324v-6l-72 -66v-518l72 -66v-6h-324z" />
    <glyph glyph-name="J" unicode="J" horiz-adv-x="351" 
d="M14 657v5h323v-5l-71 -67v-486q0 -71 -63 -164.5t-174 -154.5l-10 8q66 149 66 375v422z" />
    <glyph glyph-name="K" unicode="K" horiz-adv-x="755" 
d="M18 0v6l72 66v518l-72 67v5h324v-5l-72 -67v-518l72 -66v-6h-324zM752 0h-340v6l71 66l-163 247h-34l222 271l-72 67v5h263v-5l-95 -68l-146 -169l228 -348l66 -66v-6z" />
    <glyph glyph-name="L" unicode="L" horiz-adv-x="604" 
d="M567 226h7v-226h-556v6l72 66v518l-72 67v5h323v-5l-72 -67v-521h168z" />
    <glyph glyph-name="M" unicode="M" horiz-adv-x="894" 
d="M875 657l-71 -72v-513l70 -66v-6h-324v6l71 66v382l-223 -412h-17l-213 412v-382l71 -66v-6h-220v6l71 66v492l-63 93v5h226l197 -375l192 375h233v-5z" />
    <glyph glyph-name="N" unicode="N" horiz-adv-x="779" 
d="M19 0v6l71 66v499l-81 86v5h247l354 -390v318l-100 67v5h255v-5l-71 -67v-590h-79l-440 480v-408l109 -66v-6h-265z" />
    <glyph glyph-name="O" unicode="O" horiz-adv-x="768" 
d="M25 321q0 153 106.5 253.5t249.5 100.5q152 0 257 -91t105 -240q0 -105 -52 -188.5t-132 -126t-169 -42.5q-96 0 -178 38.5t-134.5 116t-52.5 179.5zM219 330q0 -117 53 -193t115 -76t112 75t50 194q0 121 -53.5 197.5t-114.5 76.5q-60 0 -111 -78t-51 -196z" />
    <glyph glyph-name="P" unicode="P" horiz-adv-x="610" 
d="M592 483q0 -73 -48.5 -124.5t-112.5 -72t-134 -22.5v15q50 26 84 73t34 116q0 63 -37.5 97t-89.5 34h-18v-527l88 -66v-6h-340v6l72 66v518l-72 67v5h292q136 0 209 -47t73 -132z" />
    <glyph glyph-name="Q" unicode="Q" horiz-adv-x="768" 
d="M743 344q0 -116 -57.5 -192t-179.5 -128q212 -107 313 -143.5t223 -36.5q23 0 35 1l3 -9q-32 -26 -103 -56t-147 -30q-73 0 -172.5 44t-379.5 198q-45 24 -71.5 40t-66 47t-61 62t-38 78t-16.5 102q0 102 51 184.5t132 126t173 43.5q150 0 256 -91t106 -240zM219 330
q0 -117 53 -192.5t115 -75.5t112 74t50 194q0 121 -53.5 197.5t-114.5 76.5t-111.5 -77t-50.5 -197z" />
    <glyph glyph-name="R" unicode="R" horiz-adv-x="701" 
d="M18 0v6l72 66v518l-72 67v5h299q57 0 100.5 -7t82 -23.5t59 -48.5t20.5 -78q0 -90 -108 -152l101 -180q9 -16 18 -31t18 -27.5t16 -22.5t16.5 -20.5t14.5 -16.5t14.5 -15t12.5 -12t13 -12t11 -10v-6q-40 -8 -89 -8q-52 0 -89 8.5t-59.5 26.5t-33.5 34t-25 43l-103 206
h-38v-238l77 -66l1 -6h-329zM269 597v-226h94q14 0 32 33.5t18 77.5q0 59 -30.5 87t-74.5 28h-39z" />
    <glyph glyph-name="S" unicode="S" horiz-adv-x="501" 
d="M283 673q82 0 147 -15v-173h-9q-106 121 -160 121q-19 0 -34.5 -14t-15.5 -39q0 -33 19.5 -56.5t78.5 -69.5q49 -40 72.5 -60.5t49 -50.5t34.5 -59t9 -67q0 -86 -68.5 -143t-178.5 -57q-105 0 -184 34q-4 26 -7.5 102.5t-1.5 131.5h10q45 -93 92 -143t90 -50
q29 0 50.5 22.5t21.5 57.5q0 38 -21 65t-80 71q-79 61 -112 109t-33 106q0 84 64 130.5t167 46.5z" />
    <glyph glyph-name="T" unicode="T" horiz-adv-x="685" 
d="M661 662v-180h-7l-109 113h-111v-523l86 -66v-6h-357v6l88 66v523h-113l-107 -113h-7v180h637z" />
    <glyph glyph-name="U" unicode="U" horiz-adv-x="768" 
d="M682 240q0 -27 -7.5 -57t-28.5 -65t-51.5 -62.5t-82.5 -46t-116 -18.5q-82 0 -144.5 22.5t-97 59t-51.5 77.5t-17 84v356l-71 67v5h340v-5l-87 -67v-345q0 -65 40 -110.5t132 -45.5q72 0 115 47t43 109v345l-86 67v5h241v-5l-71 -67v-350z" />
    <glyph glyph-name="V" unicode="V" horiz-adv-x="660" 
d="M438 657v5h222v-5l-62 -67l-230 -593h-44l-261 593l-63 67v5h341v-5l-73 -67l127 -311l116 305z" />
    <glyph glyph-name="W" unicode="W" horiz-adv-x="1010" 
d="M574 590l47 -108l50 108l-39 67v5h158v-5l-45 -67l-90 -185l75 -168l132 353l-44 67v5h192v-5l-63 -67l-228 -594h-44l-150 319l-139 -319h-44l-279 594l-63 67v5h300v-5l-47 -67l162 -349l70 157l-90 192l-60 67v5h284v-5z" />
    <glyph glyph-name="X" unicode="X" horiz-adv-x="708" 
d="M3 0v6l86 66l176 240l-189 278l-68 67v5h351v-5l-69 -67l101 -154l99 148l-71 73v5h257v-5l-85 -67l-152 -225l194 -293l72 -66v-6h-351v6l74 66l-114 168l-123 -168l75 -66v-6h-263z" />
    <glyph glyph-name="Y" unicode="Y" horiz-adv-x="638" 
d="M414 657v5h224v-5l-63 -67l-156 -256v-258l71 -70v-6h-323v6l71 70v237l-175 277l-63 67v5h334v-5l-71 -67l114 -186l108 180z" />
    <glyph glyph-name="Z" unicode="Z" horiz-adv-x="632" 
d="M251 73h220l122 165h8v-238h-582v9l341 586h-190l-115 -140h-7v207h547v-8z" />
    <glyph glyph-name="bracketleft" unicode="[" horiz-adv-x="294" 
d="M285 708h-81v-834h81v-39h-210v912h210v-39z" />
    <glyph glyph-name="backslash" unicode="\" horiz-adv-x="354" 
d="M376 -218l-59 -17l-299 980l59 17z" />
    <glyph glyph-name="bracketright" unicode="]" horiz-adv-x="294" 
d="M90 708h-81v39h210v-912h-210v39h81v834z" />
    <glyph glyph-name="asciicircum" unicode="^" horiz-adv-x="426" 
d="M37 269l-13 8l184 397h10l184 -397l-13 -8l-176 175z" />
    <glyph glyph-name="underscore" unicode="_" horiz-adv-x="384" 
d="M-5 -134v62h394v-62h-394z" />
    <glyph glyph-name="grave" unicode="`" 
d="M293 483l-194 150l112 83l89 -229z" />
    <glyph glyph-name="a" unicode="a" horiz-adv-x="485" 
d="M272 323q0 18 -17 30t-44 12q-21 0 -44 -10v-92l-136 49v6q112 135 240 135q44 0 77 -13t49 -32t23.5 -36.5t7.5 -32.5q0 -23 -1 -124.5t-1 -113.5q23 -13 64 -28v-7l-94 -91q-28 8 -63.5 29t-56.5 44q-29 -28 -61.5 -45t-54.5 -17q-63 0 -102.5 36.5t-39.5 87.5
q0 29 12.5 54t27.5 29q79 20 214 48v82zM271 83l1 15v40v49l-96 -25q-7 -5 -7 -25q0 -27 17 -43t49 -16q24 0 36 5z" />
    <glyph glyph-name="b" unicode="b" horiz-adv-x="538" 
d="M-12 645v6q129 53 221 75v-333q83 60 143 60q57 0 109 -48t52 -146q0 -60 -18 -108t-45.5 -76.5t-63.5 -47t-68.5 -25.5t-64.5 -7q-10 0 -83.5 2.5t-114.5 2.5h-7v591zM248 358q-27 0 -39 -7v-274q17 -17 45 -17q40 0 66.5 41t26.5 109t-25 108t-74 40z" />
    <glyph glyph-name="c" unicode="c" horiz-adv-x="455" 
d="M292 455q27 0 54 -2t48.5 -4.5t22.5 -2.5v-151h-9q-105 93 -152 93q-28 0 -56.5 -36.5t-28.5 -94.5q0 -67 41 -111.5t116 -44.5q72 0 109 20l7 -8q-26 -44 -77.5 -83.5t-121.5 -39.5q-94 0 -159 61t-65 160q0 106 75.5 175t195.5 69z" />
    <glyph glyph-name="d" unicode="d" horiz-adv-x="555" 
d="M260 642v6q25 11 103 38.5t128 39.5v-630l73 -47v-7q-14 -4 -41 -10.5t-38 -9.5q-35 -8 -148 -35v66q-79 -65 -124 -65q-70 0 -129.5 56.5t-59.5 152.5q0 106 71.5 175t199.5 69h36v147zM303 88q13 0 28 5v266q-12 21 -45 21q-42 0 -69 -39.5t-27 -102.5q0 -67 31 -108.5
t82 -41.5z" />
    <glyph glyph-name="e" unicode="e" horiz-adv-x="456" 
d="M168 264q2 -80 45 -123t124 -43q56 0 110 19l4 -7q-16 -25 -39.5 -48.5t-71 -47.5t-100.5 -24q-95 0 -157 62.5t-62 159.5q0 106 71.5 173.5t153.5 67.5q133 0 195 -183v-6h-273zM240 393q-19 0 -39 -20t-28 -56h123q-3 40 -21 58t-35 18z" />
    <glyph glyph-name="f" unicode="f" horiz-adv-x="360" 
d="M325 6v-6h-313v6l54 53v303h-78v6l78 65v20q0 114 87 188.5t211 74.5q61 0 110 -13l-48 -114q-93 55 -131 55q-12 0 -27 -12.5t-28.5 -44t-13.5 -74.5v-75h149l-50 -76h-99v-298z" />
    <glyph glyph-name="g" unicode="g" horiz-adv-x="501" 
d="M29 319q0 56 55 97t144 41q55 0 103 -17h155v-64h-77q22 -29 22 -54q0 -61 -49.5 -102t-153.5 -41q-33 0 -63 6q-11 -16 -11 -31q0 -11 6.5 -17.5t13.5 -6.5h197q31 0 69.5 -38.5t38.5 -101.5q0 -94 -81.5 -164t-202.5 -70q-84 0 -132.5 30t-48.5 67q0 33 31.5 72
t65.5 65q-33 13 -54.5 39.5t-21.5 65.5t17 56l71 48q-94 39 -94 120zM150 -18q-10 -10 -19.5 -31t-9.5 -39q0 -23 29.5 -41t85.5 -18q58 0 93.5 23t35.5 59q0 24 -17.5 35.5t-34.5 11.5h-163zM174 318q0 -33 18 -58.5t38 -25.5q23 0 39 24.5t16 59.5t-16 60t-39 25
q-21 0 -38.5 -26t-17.5 -59z" />
    <glyph glyph-name="h" unicode="h" horiz-adv-x="577" 
d="M11 0v6l54 53v532l-59 54v6q114 50 219 75v-353q85 80 154 80q63 0 101 -37.5t38 -67.5v-289l53 -53v-6h-264v6l51 53v244q0 19 -17.5 33.5t-50.5 14.5q-38 0 -65 -24v-268l52 -53v-6h-266z" />
    <glyph glyph-name="i" unicode="i" horiz-adv-x="287" 
d="M11 0v6l54 53v277l-53 49v6q90 35 213 65v-397l54 -53v-6h-268zM61 570q0 34 24 57t58 23q35 0 58.5 -23t23.5 -57t-23.5 -56.5t-58.5 -22.5q-34 0 -58 23t-24 56z" />
    <glyph glyph-name="j" unicode="j" horiz-adv-x="265" 
d="M133 491q-34 0 -58 23t-24 56q0 34 24 57t58 23q35 0 58.5 -23t23.5 -57t-23.5 -56.5t-58.5 -22.5zM2 385v7q46 21 213 65v-416q0 -48 -51.5 -124t-155.5 -149l-8 8q55 128 55 253v308z" />
    <glyph glyph-name="k" unicode="k" horiz-adv-x="562" 
d="M225 59l48 -53v-6h-261v6l53 53v532l-59 54v6q119 50 219 75v-667zM238 209v6l103 158l-63 61v6h262v-8l-109 -62l-70 -78l109 -164q44 -67 91 -122v-6q-49 -13 -96 -13q-52 0 -81.5 19.5t-61.5 68.5z" />
    <glyph glyph-name="l" unicode="l" horiz-adv-x="287" 
d="M225 59l54 -53v-6h-268v6l54 53v532l-59 54v6q114 50 219 75v-667z" />
    <glyph glyph-name="m" unicode="m" horiz-adv-x="845" 
d="M225 370q83 83 147 83q51 0 83.5 -25.5t44.5 -58.5q90 84 153 84q61 0 96.5 -34t35.5 -67v-292l54 -54v-6h-261v6l48 54v235q0 52 -60 52q-26 0 -61 -20v-267l48 -54v-6h-255v6l48 54v235q0 52 -61 52q-26 0 -60 -19v-269l48 -54v-5h-262v6l54 54v276l-53 49v6
q90 35 213 65v-86z" />
    <glyph glyph-name="n" unicode="n" horiz-adv-x="577" 
d="M11 0v6l54 53v277l-53 49v6q90 35 213 65v-83q85 80 154 80q63 0 101 -37.5t38 -67.5v-289l53 -53v-6h-265v6l52 53v244q0 19 -17.5 33.5t-50.5 14.5q-38 0 -65 -24v-268l52 -53v-6h-266z" />
    <glyph glyph-name="o" unicode="o" horiz-adv-x="548" 
d="M20 215q0 109 80.5 173.5t174.5 64.5q44 0 87.5 -13.5t81 -39.5t61 -71.5t23.5 -102.5q0 -76 -42 -132.5t-99 -81.5t-116 -25q-43 0 -86 13.5t-80.5 39.5t-61 71.5t-23.5 103.5zM194 221q0 -69 24.5 -119t55.5 -50t56.5 51t25.5 118q0 73 -24.5 121t-57.5 48t-56.5 -49
t-23.5 -120z" />
    <glyph glyph-name="p" unicode="p" horiz-adv-x="547" 
d="M291 -226v-6h-290v6l53 54v509l-53 48v7q4 1 42 15.5t84 29.5t88 24v-73q84 66 139 66q69 0 118.5 -52t49.5 -147q0 -123 -70.5 -189.5t-185.5 -66.5q-21 0 -51 2v-173zM256 357q-27 0 -41 -6v-275q12 -12 38 -12q43 0 71.5 44t28.5 115q0 62 -24 98t-73 36z" />
    <glyph glyph-name="q" unicode="q" horiz-adv-x="544" 
d="M548 -226v-6h-290v6l77 54v220q-32 -26 -67.5 -42.5t-60.5 -16.5q-72 0 -127.5 59.5t-55.5 151.5q0 108 68.5 178.5t176.5 70.5q68 0 104 -20l121 51v-652zM304 87q17 0 32 3v279q-20 14 -43 14q-43 0 -70 -39.5t-27 -106.5q0 -66 28.5 -108t79.5 -42z" />
    <glyph glyph-name="r" unicode="r" horiz-adv-x="410" 
d="M12 385v6q90 35 213 65v-101q60 100 90 100q35 0 89 -19l-49 -149q-65 34 -99 34q-19 0 -31 -7v-249l89 -59v-6h-303v6l54 54v276z" />
    <glyph glyph-name="s" unicode="s" horiz-adv-x="384" 
d="M226 453q40 0 108 -12v-123h-6q-86 77 -127 77q-12 0 -20.5 -8t-8.5 -20q0 -17 14.5 -30t53.5 -38q4 -3 24.5 -17t26 -18t21 -17t21 -21.5t14 -22t11.5 -28.5t3 -32q0 -68 -55 -110.5t-144 -42.5q-65 0 -127 23q-8 54 -8 171h8q14 -24 25 -39.5t29.5 -38t39 -34.5
t41.5 -12q20 0 30.5 11t10.5 27q0 20 -13.5 35t-50.5 38q-55 34 -81.5 68.5t-26.5 81.5q0 59 48.5 95.5t138.5 36.5z" />
    <glyph glyph-name="t" unicode="t" horiz-adv-x="408" 
d="M219 358v-200q0 -61 87 -61q43 0 76 11l4 -6q-16 -33 -66.5 -72.5t-116.5 -39.5q-69 0 -107.5 36t-38.5 81v251h-60v7l222 178v-105h200l-51 -80h-149z" />
    <glyph glyph-name="u" unicode="u" horiz-adv-x="560" 
d="M2 385v6q88 36 211 65v-314q0 -51 57 -51q33 0 67 21v224l-65 49v6q68 28 225 65v-365l66 -42v-7l-88 -22q-72 -18 -138 -32v80q-84 -79 -148 -79q-65 0 -100.5 36.5t-35.5 70.5v240z" />
    <glyph glyph-name="v" unicode="v" horiz-adv-x="464" 
d="M425 383l-154 -355q-4 -9 -10 -23q-2 -3 -4 -9h-39q-2 5 -6 13q-2 3 -5 11t-5 12l-163 351l-48 51v6h273v-6l-47 -51l67 -164l65 164l-47 51v6h171v-6z" />
    <glyph glyph-name="w" unicode="w" horiz-adv-x="724" 
d="M275 34q-2 -5 -5.5 -13.5t-4.5 -11.5q-4 -8 -5 -12h-39q-1 2 -3 7t-4 8q-2 4 -8.5 17.5t-10.5 22.5l-156 331l-48 51v6h258v-6l-41 -51l74 -167l55 130l-15 37l-42 51v6h251v-6l-48 -51l65 -167l61 167l-48 51v6h172v-6l-48 -51l-142 -353q-2 -5 -4 -10.5t-3.5 -9
t-2.5 -5.5q-1 -1 -2 -3.5t-1 -4.5h-39q-4 8 -7 13q-2 4 -16 34l-96 219z" />
    <glyph glyph-name="x" unicode="x" horiz-adv-x="504" 
d="M501 6v-6h-263v6l46 52l-70 96l-65 -96l46 -52v-6h-188v6l57 53l112 148l-127 176l-46 51l1 6h270v-6l-43 -51l63 -92l59 92l-43 51v6h184v-6l-59 -53l-104 -144l123 -179z" />
    <glyph glyph-name="y" unicode="y" horiz-adv-x="460" 
d="M294 72q-82 -199 -95 -304h-158v6q91 68 166 244l-167 365l-48 51v6h272v-6l-48 -51l70 -166l61 166l-47 51v6h169v-6l-48 -51z" />
    <glyph glyph-name="z" unicode="z" horiz-adv-x="440" 
d="M420 161v-161h-409v17l207 362h-101l-84 -84h-6v145h382v-17l-204 -355h115l94 93h6z" />
    <glyph glyph-name="braceleft" unicode="{" horiz-adv-x="300" 
d="M175 -43q0 -33 26 -68t88 -60l-7 -11q-114 9 -174.5 54t-60.5 98q0 37 40 123.5t40 109.5q0 32 -24.5 49.5t-84.5 20.5v33q61 4 85.5 21t24.5 49q0 23 -41 106t-41 117q0 53 58.5 96t177.5 56l7 -11q-115 -39 -115 -128q0 -28 30 -113t30 -110q0 -37 -36.5 -64
t-105.5 -35q69 -8 105.5 -35.5t36.5 -64.5q0 -28 -29.5 -114.5t-29.5 -118.5z" />
    <glyph glyph-name="bar" unicode="|" horiz-adv-x="264" 
d="M100 752h64v-978h-64v978z" />
    <glyph glyph-name="braceright" unicode="}" horiz-adv-x="300" 
d="M125 -43q0 32 -29.5 118.5t-29.5 114.5q0 37 36.5 64.5t105.5 35.5q-69 8 -105.5 35t-36.5 64q0 25 30 110t30 113q0 89 -115 128l7 11q119 -13 177.5 -56t58.5 -96q0 -34 -41 -117t-41 -106q0 -32 24.5 -49t85.5 -21v-33q-60 -3 -84.5 -20.5t-24.5 -49.5
q0 -23 40 -109.5t40 -123.5q0 -53 -60.5 -98t-174.5 -54l-7 11q62 25 88 60t26 68z" />
    <glyph glyph-name="asciitilde" unicode="~" horiz-adv-x="473" 
d="M340 324q23 0 50 24.5t51 65.5l7 -4q-7 -112 -47.5 -171t-79.5 -59q-32 0 -99 35.5t-89 35.5q-23 0 -50 -24.5t-51 -64.5l-7 4q11 112 50.5 171.5t77.5 59.5q31 0 99 -36.5t88 -36.5z" />
    <glyph glyph-name="exclamdown" unicode="&#xa1;" horiz-adv-x="254" 
d="M33 -225q49 288 82 463h24q30 -153 82 -463h-188zM212 370q0 -35 -25 -59t-60 -24q-37 0 -61 24t-24 59t24 59t61 24q35 0 60 -24t25 -59z" />
    <glyph glyph-name="cent" unicode="&#xa2;" horiz-adv-x="465" 
d="M333 536l-9 -81q19 0 103 -8v-152h-9q-50 44 -104 75l-30 -267q25 -5 49 -5q77 0 114 20l7 -8q-25 -40 -72 -77t-111 -42l-10 -87h-55l10 88q-85 10 -140 69.5t-55 150.5q0 100 67.5 167.5t179.5 75.5l10 81h55zM171 258q0 -88 60 -132l30 262h-2q-31 0 -59.5 -36
t-28.5 -94z" />
    <glyph glyph-name="sterling" unicode="&#xa3;" horiz-adv-x="544" 
d="M-13 -14q18 36 46 82.5t43 77.5t21 63q6 37 7 79h-91v59h92q0 67 1 110q0 103 76.5 159.5t179.5 56.5q64 0 132 -18v-170h-9q-102 122 -148 122q-36 0 -43 -68q0 -3 -7 -78.5t-12 -113.5h140v-59h-147q-14 -89 -113 -152q37 15 63 15q32 0 88 -13t88 -13q71 0 139 84
l9 -2q-14 -98 -61.5 -159t-113.5 -61q-36 0 -111.5 32t-115.5 32q-65 0 -144 -72z" />
    <glyph glyph-name="yen" unicode="&#xa5;" horiz-adv-x="626" 
d="M400 657v5h226v-5l-63 -67l-129 -209h139v-57h-160v-51h160v-57h-160v-140l71 -70v-6h-323v6l71 70v140h-160v57h160v51h-160v57h126l-135 209l-63 67v5h334v-5l-71 -67l105 -174l103 168z" />
    <glyph glyph-name="brokenbar" unicode="&#xa6;" horiz-adv-x="264" 
d="M100 752h64v-435h-64v435zM100 219h64v-445h-64v445z" />
    <glyph glyph-name="section" unicode="&#xa7;" horiz-adv-x="519" 
d="M25 261q0 89 116 137q-52 58 -52 124q0 69 57 110t148 41q54 0 124 -14v-148h-9q-101 104 -148 104q-19 0 -32.5 -12.5t-13.5 -32.5q0 -25 25.5 -52.5t109.5 -96.5q80 -67 110.5 -108t30.5 -93q0 -92 -118 -134q60 -64 60 -131q0 -75 -59.5 -127.5t-162.5 -52.5
q-50 0 -93 11t-61 21q-4 32 -6.5 104t-0.5 111h10q30 -67 77 -123.5t93 -56.5q32 0 51.5 18t19.5 46q0 31 -24.5 57.5t-121.5 104.5q-79 62 -104.5 104.5t-25.5 88.5zM268 179q38 -31 76 -65q17 19 17 43q0 31 -18 54.5t-91 84.5q-58 48 -86 76q-20 -22 -20 -50
q0 -26 23.5 -54t98.5 -89z" />
    <glyph glyph-name="dieresis" unicode="&#xa8;" 
d="M297 641q31 0 52.5 -21.5t21.5 -53.5t-21.5 -52.5t-52.5 -20.5q-32 0 -53.5 20.5t-21.5 52.5t21.5 53.5t53.5 21.5zM104 641q31 0 52.5 -21.5t21.5 -53.5t-21.5 -52.5t-52.5 -20.5q-32 0 -53.5 20.5t-21.5 52.5t21.5 53.5t53.5 21.5z" />
    <glyph glyph-name="copyright" unicode="&#xa9;" horiz-adv-x="732" 
d="M366 624q-120 0 -199.5 -85t-79.5 -207q0 -120 82 -206t197 -86q119 0 199 84t80 208q0 119 -81.5 205.5t-197.5 86.5zM391 153q-95 0 -156.5 50t-61.5 133q0 80 61 133.5t162 53.5q38 0 113 -16v-122h-9q-77 87 -121 87q-25 0 -50.5 -34t-25.5 -91q0 -67 29 -104.5
t67 -37.5q29 0 57.5 24t49.5 58h9v-106q-53 -28 -124 -28zM366 674q141 0 240.5 -100.5t99.5 -241.5q0 -144 -98 -243t-242 -99q-145 0 -242.5 98.5t-97.5 243.5q0 144 98 243t242 99z" />
    <glyph glyph-name="ordfeminine" unicode="&#xaa;" horiz-adv-x="349" 
d="M186 578q0 28 -39 28q-19 0 -27 -6v-58l-103 38v4q91 91 171 91q60 0 88.5 -26t28.5 -50q0 -16 -1 -83.5t-1 -75.5q19 -11 43 -18v-6l-73 -63q-17 5 -42.5 21t-39.5 32q-51 -47 -77 -47q-47 0 -77 26t-30 60q0 20 8.5 38t19.5 20l151 30v45zM166 429q5 0 19 2q0 1 0.5 25
t0.5 43l-60 -16q-4 -1 -4 -18q0 -16 12 -26t32 -10z" />
    <glyph glyph-name="guillemotleft" unicode="&#xab;" horiz-adv-x="459" 
d="M400 50l-172 176v8l172 174l17 -7l-58 -171l58 -173zM40 226v8l172 174l17 -7l-58 -171l58 -173l-17 -7z" />
    <glyph glyph-name="registered" unicode="&#xae;" horiz-adv-x="416" 
d="M208 685q80 0 133 -53.5t53 -129.5t-53.5 -129.5t-132.5 -53.5t-132.5 53.5t-53.5 129.5t53 129.5t133 53.5zM208 650q-62 0 -103 -42t-41 -106t41 -106t103 -42t103 42t41 106t-41 106t-103 42zM113 419v5l22 21v130l-22 21v5h109q69 0 69 -44q0 -27 -30 -43l28 -48
q17 -30 28 -41v-5q-14 -2 -28 -2q-41 0 -55 27l-27 53h-14v-53l24 -21v-5h-104zM193 576v-53h29q2 0 4.5 2.5t4.5 8.5t2 13q0 29 -29 29h-11z" />
    <glyph glyph-name="macron" unicode="&#xaf;" 
d="M77 600h247v-86h-247v86z" />
    <glyph glyph-name="degree" unicode="&#xb0;" horiz-adv-x="297" 
d="M148 417q-56 0 -92 36t-36 90t36 90.5t92 36.5t92.5 -35.5t36.5 -89.5q0 -55 -36.5 -91.5t-92.5 -36.5zM211 544q0 29 -18 48t-45 19q-28 0 -45 -19t-17 -48q0 -30 17.5 -49t44.5 -19t45 19.5t18 48.5z" />
    <glyph glyph-name="twosuperior" unicode="&#xb2;" horiz-adv-x="290" 
d="M260 556h8v-143h-256v22q63 71 86 106t23 61q0 20 -11.5 31t-29.5 11q-28 0 -54 -26l-11 6q36 98 132 98q48 0 75 -21t27 -60q0 -71 -139 -145h103z" />
    <glyph glyph-name="threesuperior" unicode="&#xb3;" horiz-adv-x="244" 
d="M18 561q66 41 66 70t-30 29q-19 0 -40 -12l-9 7q40 67 118 67q41 0 60.5 -15t19.5 -37q0 -45 -90 -70q14 2 22 2q46 0 71.5 -20.5t25.5 -51.5q0 -47 -46.5 -79.5t-176.5 -45.5l-4 11q92 47 92 99q0 36 -51 36q-15 0 -23 -2z" />
    <glyph glyph-name="acute" unicode="&#xb4;" 
d="M107 481l-7 4l89 229l112 -83z" />
    <glyph glyph-name="paragraph" unicode="&#xb6;" horiz-adv-x="526" 
d="M224 325q-93 0 -150.5 47.5t-57.5 125.5q0 74 50.5 119t138.5 45h96v-662h-148v6l72 66v253h-1zM436 590v-518l72 -66v-6h-148v662h148v-6z" />
    <glyph glyph-name="periodcentered" unicode="&#xb7;" horiz-adv-x="234" 
d="M32 253q0 35 25 59t60 24q37 0 61 -24t24 -59t-24 -59t-61 -24q-35 0 -60 24t-25 59z" />
    <glyph glyph-name="cedilla" unicode="&#xb8;" 
d="M236 0l-26 -52q45 -7 77.5 -29t32.5 -57q0 -48 -53 -81t-183 -33l-4 13q118 44 118 80q0 14 -21 24t-42 13l-2 3q4 8 14 28.5t15 30.5q29 56 29 60h45z" />
    <glyph glyph-name="onesuperior" unicode="&#xb9;" horiz-adv-x="211" 
d="M10 413v6l38 34v186l-40 28v6l162 55v-275l37 -34v-6h-197z" />
    <glyph glyph-name="ordmasculine" unicode="&#xba;" horiz-adv-x="373" 
d="M7 513q0 74 56 118t124 44q70 0 124.5 -40.5t54.5 -113.5q0 -74 -56 -118t-126 -44q-67 0 -122 41t-55 113zM138 518q0 -44 15 -77t33 -33t33.5 34t15.5 76q0 47 -14 77.5t-35 30.5q-20 0 -34 -32t-14 -76z" />
    <glyph glyph-name="guillemotright" unicode="&#xbb;" horiz-adv-x="459" 
d="M231 226l-172 -176l-17 7l58 173l-58 171l17 7l172 -174v-8zM419 234v-8l-172 -176l-17 7l58 173l-58 171l17 7z" />
    <glyph glyph-name="onequarter" unicode="&#xbc;" horiz-adv-x="577" 
d="M463 662h79l-447 -662h-77zM18 360v6l38 34v186l-40 28v6l162 55v-275l37 -34v-6h-197zM549 6v-6h-189v6l38 34v30h-129v18l140 216h102v-171h62l-39 -63h-23v-30zM398 133v93l-59 -93h59z" />
    <glyph glyph-name="onehalf" unicode="&#xbd;" horiz-adv-x="587" 
d="M463 662h79l-447 -662h-77zM18 360v6l38 34v186l-40 28v6l162 55v-275l37 -34v-6h-197zM549 143h8v-143h-256v22q63 71 86 106t23 61q0 20 -11.5 31t-29.5 11q-28 0 -54 -26l-11 6q36 98 132 98q48 0 75 -21t27 -60q0 -71 -139 -145h103z" />
    <glyph glyph-name="threequarters" unicode="&#xbe;" horiz-adv-x="571" 
d="M457 662h79l-447 -662h-77zM28 508q66 40 66 70q0 29 -30 29q-19 0 -40 -12l-9 7q40 67 118 67q41 0 60.5 -15t19.5 -37q0 -45 -90 -70q14 2 22 2q46 0 71.5 -20.5t25.5 -51.5q0 -47 -46.5 -79.5t-176.5 -45.5l-4 11q92 47 92 99q0 36 -51 36q-15 0 -23 -2zM543 6v-6
h-189v6l38 34v30h-129v18l140 216h102v-171h62l-39 -63h-23v-30zM392 133v93l-59 -93h59z" />
    <glyph glyph-name="questiondown" unicode="&#xbf;" horiz-adv-x="391" 
d="M5 -95q0 71 70 137q11 11 30 26.5t39.5 32t26.5 21.5q31 29 31 56q0 35 -4 60h22q31 -33 56.5 -78t25.5 -73q0 -26 -35 -66l-74 -80q-32 -34 -32 -64q0 -24 14.5 -36.5t31.5 -12.5q52 0 148 115h9v-165q-75 -14 -142 -14q-104 0 -160.5 40t-56.5 101zM297 370
q0 -35 -25 -59t-60 -24q-37 0 -61 24t-24 59t24 59t61 24q35 0 60 -24t25 -59z" />
    <glyph glyph-name="Agrave" unicode="&#xc0;" horiz-adv-x="664" 
d="M224 6v-6h-224v6l63 66l238 594h44l256 -594l63 -66v-6h-323v6l70 66l-45 105h-179l-38 -98zM213 242h125l-65 154zM446 704l-262 26l43 127l222 -145z" />
    <glyph glyph-name="Aacute" unicode="&#xc1;" horiz-adv-x="664" 
d="M224 6v-6h-224v6l63 66l238 594h44l256 -594l63 -66v-6h-323v6l70 66l-45 105h-179l-38 -98zM213 242h125l-65 154zM200 704l-3 8l221 145l45 -127z" />
    <glyph glyph-name="Acircumflex" unicode="&#xc2;" horiz-adv-x="664" 
d="M224 6v-6h-224v6l63 66l238 594h44l256 -594l63 -66v-6h-323v6l70 66l-45 105h-179l-38 -98zM213 242h125l-65 154zM324 863l159 -168l-4 -6l-155 49l-155 -49l-4 6z" />
    <glyph glyph-name="Atilde" unicode="&#xc3;" horiz-adv-x="664" 
d="M224 6v-6h-224v6l63 66l238 594h44l256 -594l63 -66v-6h-323v6l70 66l-45 105h-179l-38 -98zM213 242h125l-65 154zM272 828q13 0 69 -9.5t73 -9.5q32 0 78 46l7 -2q-14 -59 -42 -100.5t-52 -41.5q-14 0 -70 9t-72 9q-28 0 -78 -46l-7 2q14 58 42.5 100.5t51.5 42.5z" />
    <glyph glyph-name="Adieresis" unicode="&#xc4;" horiz-adv-x="664" 
d="M224 6v-6h-224v6l63 66l238 594h44l256 -594l63 -66v-6h-323v6l70 66l-45 105h-179l-38 -98zM213 242h125l-65 154zM214 691q-32 0 -54 21t-22 53t22 53.5t54 21.5q31 0 53 -21.5t22 -53.5t-22 -53t-53 -21zM510 765q0 -32 -21.5 -53t-53.5 -21t-54 21t-22 53t22 53.5
t54 21.5t53.5 -21.5t21.5 -53.5z" />
    <glyph glyph-name="Aring" unicode="&#xc5;" horiz-adv-x="664" 
d="M224 6v-6h-224v6l63 66l238 594h44l256 -594l63 -66v-6h-323v6l70 66l-45 105h-179l-38 -98zM213 242h125l-65 154zM277 783q0 -20 13.5 -34.5t33.5 -14.5t33.5 14.5t13.5 34.5t-13.5 34.5t-33.5 14.5t-33.5 -14.5t-13.5 -34.5zM228 783q0 38 29 66t67 28t67 -28t29 -66
q0 -39 -29 -66.5t-67 -27.5q-39 0 -67.5 27t-28.5 67z" />
    <glyph glyph-name="AE" unicode="&#xc6;" horiz-adv-x="888" 
d="M286 662h549v-162h-6l-90 94h-133v-217h141l66 73h6v-212h-6l-66 73h-141v-242h152l90 121h8v-190h-501v6l72 66v196h-172l-108 -189l75 -73v-6h-223v6l62 66l296 518l-71 67v5zM293 334h134v234z" />
    <glyph glyph-name="Ccedilla" unicode="&#xc7;" horiz-adv-x="668" 
d="M410 -11h-14l-20 -41q45 -7 77.5 -29t32.5 -57q0 -48 -53 -81t-183 -33l-4 13q118 44 118 80q0 14 -21 24t-42 13l-2 3q4 8 14 28.5t15 30.5q4 7 10.5 21t9.5 20q1 3 2.5 6.5t2.5 4.5q-43 4 -91 19q-107 34 -172 116t-65 202q0 148 111.5 245.5t281.5 97.5q82 0 197 -24
v-180h-9q-51 51 -112.5 92t-108.5 41q-55 0 -109 -71t-54 -181q0 -133 59.5 -210.5t135.5 -77.5q104 0 200 139h9v-173q-89 -38 -216 -38z" />
    <glyph glyph-name="Egrave" unicode="&#xc8;" horiz-adv-x="559" 
d="M18 0v6l72 66v518l-72 67v5h486v-162h-6l-90 94h-139v-216h147l66 73h6v-212h-6l-66 73h-147v-243h158l90 121h8v-190h-507zM413 704l-262 26l43 127l222 -145z" />
    <glyph glyph-name="Eacute" unicode="&#xc9;" horiz-adv-x="559" 
d="M18 0v6l72 66v518l-72 67v5h486v-162h-6l-90 94h-139v-216h147l66 73h6v-212h-6l-66 73h-147v-243h158l90 121h8v-190h-507zM166 704l-3 8l221 145l45 -127z" />
    <glyph glyph-name="Ecircumflex" unicode="&#xca;" horiz-adv-x="559" 
d="M18 0v6l72 66v518l-72 67v5h486v-162h-6l-90 94h-139v-216h147l66 73h6v-212h-6l-66 73h-147v-243h158l90 121h8v-190h-507zM288 863l159 -168l-4 -6l-155 49l-155 -49l-4 6z" />
    <glyph glyph-name="Edieresis" unicode="&#xcb;" horiz-adv-x="559" 
d="M18 0v6l72 66v518l-72 67v5h486v-162h-6l-90 94h-139v-216h147l66 73h6v-212h-6l-66 73h-147v-243h158l90 121h8v-190h-507zM182 691q-32 0 -54 21t-22 53t22 53.5t54 21.5q31 0 53 -21.5t22 -53.5t-22 -53t-53 -21zM478 765q0 -32 -21.5 -53t-53.5 -21t-54 21t-22 53
t22 53.5t54 21.5t53.5 -21.5t21.5 -53.5z" />
    <glyph glyph-name="Igrave" unicode="&#xcc;" horiz-adv-x="360" 
d="M18 0v6l72 66v518l-72 66v6h324v-6l-72 -66v-518l72 -66v-6h-324zM306 704l-262 26l43 127l222 -145z" />
    <glyph glyph-name="Iacute" unicode="&#xcd;" horiz-adv-x="360" 
d="M18 0v6l72 66v518l-72 66v6h324v-6l-72 -66v-518l72 -66v-6h-324zM55 704l-3 8l221 145l45 -127z" />
    <glyph glyph-name="Icircumflex" unicode="&#xce;" horiz-adv-x="360" 
d="M18 0v6l72 66v518l-72 66v6h324v-6l-72 -66v-518l72 -66v-6h-324zM181 863l159 -168l-4 -6l-155 49l-155 -49l-4 6z" />
    <glyph glyph-name="Idieresis" unicode="&#xcf;" horiz-adv-x="360" 
d="M18 0v6l72 66v518l-72 66v6h324v-6l-72 -66v-518l72 -66v-6h-324zM71 691q-32 0 -54 21t-22 53t22 53.5t54 21.5q31 0 53 -21.5t22 -53.5t-22 -53t-53 -21zM367 765q0 -32 -21.5 -53t-53.5 -21t-54 21t-22 53t22 53.5t54 21.5t53.5 -21.5t21.5 -53.5z" />
    <glyph glyph-name="Eth" unicode="&#xd0;" horiz-adv-x="761" 
d="M18 0v6l72 66v233h-82v62h82v223l-72 67v5h341q159 0 268.5 -82.5t109.5 -228.5q0 -149 -94 -250t-247 -101h-378zM270 305v-224q36 -17 94 -17q75 0 127.5 84t52.5 187q0 128 -68.5 194t-174.5 66h-31v-228h156v-62h-156z" />
    <glyph glyph-name="Ntilde" unicode="&#xd1;" horiz-adv-x="779" 
d="M19 0v6l71 66v499l-81 86v5h247l354 -390v318l-100 67v5h255v-5l-71 -67v-590h-79l-440 480v-408l109 -66v-6h-265zM351 828q13 0 69 -9.5t73 -9.5q32 0 78 46l7 -2q-14 -59 -42 -100.5t-52 -41.5q-14 0 -70 9t-72 9q-28 0 -78 -46l-7 2q14 58 42.5 100.5t51.5 42.5z" />
    <glyph glyph-name="Ograve" unicode="&#xd2;" horiz-adv-x="768" 
d="M25 321q0 153 106.5 253.5t249.5 100.5q152 0 257 -91t105 -240q0 -105 -52 -188.5t-132 -126t-169 -42.5q-96 0 -178 38.5t-134.5 116t-52.5 179.5zM219 330q0 -117 53 -193t115 -76t112 75t50 194q0 121 -53.5 197.5t-114.5 76.5q-60 0 -111 -78t-51 -196zM511 704
l-262 26l43 127l222 -145z" />
    <glyph glyph-name="Oacute" unicode="&#xd3;" horiz-adv-x="768" 
d="M25 321q0 153 106.5 253.5t249.5 100.5q152 0 257 -91t105 -240q0 -105 -52 -188.5t-132 -126t-169 -42.5q-96 0 -178 38.5t-134.5 116t-52.5 179.5zM219 330q0 -117 53 -193t115 -76t112 75t50 194q0 121 -53.5 197.5t-114.5 76.5q-60 0 -111 -78t-51 -196zM259 704
l-3 8l221 145l45 -127z" />
    <glyph glyph-name="Ocircumflex" unicode="&#xd4;" horiz-adv-x="768" 
d="M25 321q0 153 106.5 253.5t249.5 100.5q152 0 257 -91t105 -240q0 -105 -52 -188.5t-132 -126t-169 -42.5q-96 0 -178 38.5t-134.5 116t-52.5 179.5zM219 330q0 -117 53 -193t115 -76t112 75t50 194q0 121 -53.5 197.5t-114.5 76.5q-60 0 -111 -78t-51 -196zM384 863
l159 -168l-4 -6l-155 49l-155 -49l-4 6z" />
    <glyph glyph-name="Otilde" unicode="&#xd5;" horiz-adv-x="768" 
d="M25 321q0 153 106.5 253.5t249.5 100.5q152 0 257 -91t105 -240q0 -105 -52 -188.5t-132 -126t-169 -42.5q-96 0 -178 38.5t-134.5 116t-52.5 179.5zM219 330q0 -117 53 -193t115 -76t112 75t50 194q0 121 -53.5 197.5t-114.5 76.5q-60 0 -111 -78t-51 -196zM337 828
q13 0 69 -9.5t73 -9.5q32 0 78 46l7 -2q-14 -59 -42 -100.5t-52 -41.5q-14 0 -70 9t-72 9q-28 0 -78 -46l-7 2q14 58 42.5 100.5t51.5 42.5z" />
    <glyph glyph-name="Odieresis" unicode="&#xd6;" horiz-adv-x="768" 
d="M25 321q0 153 106.5 253.5t249.5 100.5q152 0 257 -91t105 -240q0 -105 -52 -188.5t-132 -126t-169 -42.5q-96 0 -178 38.5t-134.5 116t-52.5 179.5zM219 330q0 -117 53 -193t115 -76t112 75t50 194q0 121 -53.5 197.5t-114.5 76.5q-60 0 -111 -78t-51 -196zM274 691
q-32 0 -54 21t-22 53t22 53.5t54 21.5q31 0 53 -21.5t22 -53.5t-22 -53t-53 -21zM570 765q0 -32 -21.5 -53t-53.5 -21t-54 21t-22 53t22 53.5t54 21.5t53.5 -21.5t21.5 -53.5z" />
    <glyph glyph-name="multiply" unicode="&#xd7;" horiz-adv-x="415" 
d="M34 107l131 139l-130 138l46 46l128 -137l127 136l45 -43l-130 -138l130 -139l-45 -44l-129 136l-128 -136z" />
    <glyph glyph-name="Oslash" unicode="&#xd8;" horiz-adv-x="768" 
d="M25 321q0 153 106.5 253.5t249.5 100.5q92 0 167 -34l58 87l59 -35l-57 -86q63 -44 99 -111t36 -152q0 -105 -52 -188.5t-132 -126t-169 -42.5q-94 0 -172 37l-68 -102l-56 34l67 100q-136 93 -136 265zM549 330q0 80 -28 148l-238 -356q47 -61 104 -61q62 0 112 75
t50 194zM219 330q0 -81 27 -145l237 358q-47 61 -102 61q-60 0 -111 -78t-51 -196z" />
    <glyph glyph-name="Ugrave" unicode="&#xd9;" horiz-adv-x="768" 
d="M682 240q0 -27 -7.5 -57t-28.5 -65t-51.5 -62.5t-82.5 -46t-116 -18.5q-82 0 -144.5 22.5t-97 59t-51.5 77.5t-17 84v356l-71 67v5h340v-5l-87 -67v-345q0 -65 40 -110.5t132 -45.5q72 0 115 47t43 109v345l-86 67v5h241v-5l-71 -67v-350zM540 704l-262 26l43 127
l222 -145z" />
    <glyph glyph-name="Uacute" unicode="&#xda;" horiz-adv-x="768" 
d="M682 240q0 -27 -7.5 -57t-28.5 -65t-51.5 -62.5t-82.5 -46t-116 -18.5q-82 0 -144.5 22.5t-97 59t-51.5 77.5t-17 84v356l-71 67v5h340v-5l-87 -67v-345q0 -65 40 -110.5t132 -45.5q72 0 115 47t43 109v345l-86 67v5h241v-5l-71 -67v-350zM282 704l-3 8l221 145l45 -127z
" />
    <glyph glyph-name="Ucircumflex" unicode="&#xdb;" horiz-adv-x="768" 
d="M682 240q0 -27 -7.5 -57t-28.5 -65t-51.5 -62.5t-82.5 -46t-116 -18.5q-82 0 -144.5 22.5t-97 59t-51.5 77.5t-17 84v356l-71 67v5h340v-5l-87 -67v-345q0 -65 40 -110.5t132 -45.5q72 0 115 47t43 109v345l-86 67v5h241v-5l-71 -67v-350zM411 863l159 -168l-4 -6
l-155 49l-155 -49l-4 6z" />
    <glyph glyph-name="Udieresis" unicode="&#xdc;" horiz-adv-x="768" 
d="M682 240q0 -27 -7.5 -57t-28.5 -65t-51.5 -62.5t-82.5 -46t-116 -18.5q-82 0 -144.5 22.5t-97 59t-51.5 77.5t-17 84v356l-71 67v5h340v-5l-87 -67v-345q0 -65 40 -110.5t132 -45.5q72 0 115 47t43 109v345l-86 67v5h241v-5l-71 -67v-350zM304 691q-32 0 -54 21t-22 53
t22 53.5t54 21.5q31 0 53 -21.5t22 -53.5t-22 -53t-53 -21zM600 765q0 -32 -21.5 -53t-53.5 -21t-54 21t-22 53t22 53.5t54 21.5t53.5 -21.5t21.5 -53.5z" />
    <glyph glyph-name="Yacute" unicode="&#xdd;" horiz-adv-x="638" 
d="M414 657v5h224v-5l-63 -67l-156 -256v-258l71 -70v-6h-323v6l71 70v237l-175 277l-63 67v5h334v-5l-71 -67l114 -186l108 180zM227 704l-3 8l221 145l45 -127z" />
    <glyph glyph-name="Thorn" unicode="&#xde;" horiz-adv-x="620" 
d="M270 517h47q288 0 288 -155q0 -47 -27.5 -83t-73 -56.5t-98 -30.5t-109.5 -10v15q131 48 131 154q0 53 -37 78t-94 25h-27v-382l88 -66v-6h-340v6l72 66v519l-72 65v6h324v-6l-72 -66v-73z" />
    <glyph glyph-name="germandbls" unicode="&#xdf;" horiz-adv-x="587" 
d="M341 722q90 0 141.5 -42.5t51.5 -102.5q0 -31 -21 -59.5t-46 -45.5t-46 -37.5t-21 -37.5q0 -13 12 -27.5t57 -51.5q59 -48 84 -83.5t25 -87.5q0 -67 -53.5 -112t-140.5 -45q-61 0 -102 22q-7 65 -6 150h8q50 -102 102 -102q19 0 31 14t12 32q0 22 -12 39.5t-47 46.5
q-54 44 -74 72.5t-20 65.5q0 29 16.5 59t36 52t36 55.5t16.5 69.5q0 39 -22 61t-47 22q-31 0 -61.5 -33t-30.5 -99v-458l46 -53v-6h-258v6l54 53v303h-78v6l78 65v34q0 109 83 182t196 73z" />
    <glyph glyph-name="agrave" unicode="&#xe0;" horiz-adv-x="485" 
d="M312 483l-194 150l112 83l89 -229zM272 323q0 18 -17 30t-44 12q-21 0 -44 -10v-92l-136 49v6q112 135 240 135q44 0 77 -13t49 -32t23.5 -36.5t7.5 -32.5q0 -23 -1 -124.5t-1 -113.5q23 -13 64 -28v-7l-94 -91q-28 8 -63.5 29t-56.5 44q-29 -28 -61.5 -45t-54.5 -17
q-63 0 -102.5 36.5t-39.5 87.5q0 29 12.5 54t27.5 29q79 20 214 48v82zM271 83l1 15v40v49l-96 -25q-7 -5 -7 -25q0 -27 17 -43t49 -16q24 0 36 5z" />
    <glyph glyph-name="aacute" unicode="&#xe1;" horiz-adv-x="485" 
d="M272 323q0 18 -17 30t-44 12q-21 0 -44 -10v-92l-136 49v6q112 135 240 135q44 0 77 -13t49 -32t23.5 -36.5t7.5 -32.5q0 -23 -1 -124.5t-1 -113.5q23 -13 64 -28v-7l-94 -91q-28 8 -63.5 29t-56.5 44q-29 -28 -61.5 -45t-54.5 -17q-63 0 -102.5 36.5t-39.5 87.5
q0 29 12.5 54t27.5 29q79 20 214 48v82zM271 83l1 15v40v49l-96 -25q-7 -5 -7 -25q0 -27 17 -43t49 -16q24 0 36 5zM180 481l-7 4l89 229l112 -83z" />
    <glyph glyph-name="acircumflex" unicode="&#xe2;" horiz-adv-x="485" 
d="M272 323q0 18 -17 30t-44 12q-21 0 -44 -10v-92l-136 49v6q112 135 240 135q44 0 77 -13t49 -32t23.5 -36.5t7.5 -32.5q0 -23 -1 -124.5t-1 -113.5q23 -13 64 -28v-7l-94 -91q-28 8 -63.5 29t-56.5 44q-29 -28 -61.5 -45t-54.5 -17q-63 0 -102.5 36.5t-39.5 87.5
q0 29 12.5 54t27.5 29q79 20 214 48v82zM271 83l1 15v40v49l-96 -25q-7 -5 -7 -25q0 -27 17 -43t49 -16q24 0 36 5zM237 715l128 -235l-7 -5l-121 87l-121 -87l-7 5z" />
    <glyph glyph-name="atilde" unicode="&#xe3;" horiz-adv-x="485" 
d="M272 323q0 18 -17 30t-44 12q-21 0 -44 -10v-92l-136 49v6q112 135 240 135q44 0 77 -13t49 -32t23.5 -36.5t7.5 -32.5q0 -23 -1 -124.5t-1 -113.5q23 -13 64 -28v-7l-94 -91q-28 8 -63.5 29t-56.5 44q-29 -28 -61.5 -45t-54.5 -17q-63 0 -102.5 36.5t-39.5 87.5
q0 29 12.5 54t27.5 29q79 20 214 48v82zM271 83l1 15v40v49l-96 -25q-7 -5 -7 -25q0 -27 17 -43t49 -16q24 0 36 5zM185 633q12 0 62 -13t63 -13q23 0 67 57l7 -2q-6 -67 -28.5 -110.5t-49.5 -43.5q-16 0 -65 12.5t-61 12.5q-22 0 -69 -57l-7 2q8 60 32.5 107.5t48.5 47.5z
" />
    <glyph glyph-name="adieresis" unicode="&#xe4;" horiz-adv-x="485" 
d="M272 323q0 18 -17 30t-44 12q-21 0 -44 -10v-92l-136 49v6q112 135 240 135q44 0 77 -13t49 -32t23.5 -36.5t7.5 -32.5q0 -23 -1 -124.5t-1 -113.5q23 -13 64 -28v-7l-94 -91q-28 8 -63.5 29t-56.5 44q-29 -28 -61.5 -45t-54.5 -17q-63 0 -102.5 36.5t-39.5 87.5
q0 29 12.5 54t27.5 29q79 20 214 48v82zM271 83l1 15v40v49l-96 -25q-7 -5 -7 -25q0 -27 17 -43t49 -16q24 0 36 5zM340 641q31 0 52.5 -21.5t21.5 -53.5t-21.5 -52.5t-52.5 -20.5q-32 0 -53.5 20.5t-21.5 52.5t21.5 53.5t53.5 21.5zM147 641q31 0 52.5 -21.5t21.5 -53.5
t-21.5 -52.5t-52.5 -20.5q-32 0 -53.5 20.5t-21.5 52.5t21.5 53.5t53.5 21.5z" />
    <glyph glyph-name="aring" unicode="&#xe5;" horiz-adv-x="485" 
d="M272 323q0 18 -17 30t-44 12q-21 0 -44 -10v-92l-136 49v6q112 135 240 135q44 0 77 -13t49 -32t23.5 -36.5t7.5 -32.5q0 -23 -1 -124.5t-1 -113.5q23 -13 64 -28v-7l-94 -91q-28 8 -63.5 29t-56.5 44q-29 -28 -61.5 -45t-54.5 -17q-63 0 -102.5 36.5t-39.5 87.5
q0 29 12.5 54t27.5 29q79 20 214 48v82zM271 83l1 15v40v49l-96 -25q-7 -5 -7 -25q0 -27 17 -43t49 -16q24 0 36 5zM197 581q0 -20 13.5 -34.5t33.5 -14.5t33.5 14.5t13.5 34.5t-13.5 34.5t-33.5 14.5t-33.5 -14.5t-13.5 -34.5zM148 581q0 38 29 66t67 28t67 -28t29 -66
q0 -39 -29 -66.5t-67 -27.5q-39 0 -67.5 27t-28.5 67z" />
    <glyph glyph-name="ae" unicode="&#xe6;" horiz-adv-x="695" 
d="M59 194q24 6 101.5 24.5t109.5 26.5v78q0 18 -16.5 30t-42.5 12q-21 0 -44 -10v-92l-136 49v6q112 135 237 135q68 0 104 -46q55 46 122 46q20 0 38 -3.5t33.5 -12t27.5 -16t24 -21t19.5 -22.5t16.5 -25t12.5 -23t11 -22.5t8.5 -18.5v-6l-265 -60q24 -126 161 -126
q52 0 109 20l4 -7q-16 -25 -39.5 -48.5t-71 -47.5t-100.5 -24q-100 0 -162 70q-28 -33 -70 -53.5t-84 -20.5q-64 0 -106.5 37t-42.5 87q0 29 13 54.5t28 29.5zM232 78q30 0 62 23q-21 41 -25 90q-65 -17 -93 -28q-7 -5 -7 -26q0 -27 16.5 -43t46.5 -16zM488 393
q-23 0 -46 -32t-25 -85l126 33q-3 40 -20 62t-35 22z" />
    <glyph glyph-name="ccedilla" unicode="&#xe7;" horiz-adv-x="455" 
d="M292 455q27 0 54 -2t48.5 -4.5t22.5 -2.5v-151h-9q-105 93 -152 93q-28 0 -56.5 -36.5t-28.5 -94.5q0 -67 41 -111.5t116 -44.5q72 0 109 20l7 -8q-46 -75 -127 -110q-32 -12 -62 -13l-21 -42q45 -7 77.5 -29t32.5 -57q0 -48 -53 -81t-183 -33l-4 13q118 44 118 80
q0 14 -21 24t-42 13l-2 3q4 8 14 28.5t15 30.5q3 7 10 21l10 20q1 2 2.5 5.5t2.5 5.5q-31 5 -53 13q-62 24 -99.5 77.5t-37.5 128.5q0 106 75.5 175t195.5 69z" />
    <glyph glyph-name="egrave" unicode="&#xe8;" horiz-adv-x="456" 
d="M168 264q2 -80 45 -123t124 -43q56 0 110 19l4 -7q-16 -25 -39.5 -48.5t-71 -47.5t-100.5 -24q-95 0 -157 62.5t-62 159.5q0 106 71.5 173.5t153.5 67.5q133 0 195 -183v-6h-273zM240 393q-19 0 -39 -20t-28 -56h123q-3 40 -21 58t-35 18zM306 483l-194 150l112 83
l89 -229z" />
    <glyph glyph-name="eacute" unicode="&#xe9;" horiz-adv-x="456" 
d="M168 264q2 -80 45 -123t124 -43q56 0 110 19l4 -7q-16 -25 -39.5 -48.5t-71 -47.5t-100.5 -24q-95 0 -157 62.5t-62 159.5q0 106 71.5 173.5t153.5 67.5q133 0 195 -183v-6h-273zM240 393q-19 0 -39 -20t-28 -56h123q-3 40 -21 58t-35 18zM166 481l-7 4l89 229l112 -83z
" />
    <glyph glyph-name="ecircumflex" unicode="&#xea;" horiz-adv-x="456" 
d="M168 264q2 -80 45 -123t124 -43q56 0 110 19l4 -7q-16 -25 -39.5 -48.5t-71 -47.5t-100.5 -24q-95 0 -157 62.5t-62 159.5q0 106 71.5 173.5t153.5 67.5q133 0 195 -183v-6h-273zM240 393q-19 0 -39 -20t-28 -56h123q-3 40 -21 58t-35 18zM237 715l128 -235l-7 -5
l-121 87l-121 -87l-7 5z" />
    <glyph glyph-name="edieresis" unicode="&#xeb;" horiz-adv-x="456" 
d="M168 264q2 -80 45 -123t124 -43q56 0 110 19l4 -7q-16 -25 -39.5 -48.5t-71 -47.5t-100.5 -24q-95 0 -157 62.5t-62 159.5q0 106 71.5 173.5t153.5 67.5q133 0 195 -183v-6h-273zM240 393q-19 0 -39 -20t-28 -56h123q-3 40 -21 58t-35 18zM335 641q31 0 52.5 -21.5
t21.5 -53.5t-21.5 -52.5t-52.5 -20.5q-32 0 -53.5 20.5t-21.5 52.5t21.5 53.5t53.5 21.5zM142 641q31 0 52.5 -21.5t21.5 -53.5t-21.5 -52.5t-52.5 -20.5q-32 0 -53.5 20.5t-21.5 52.5t21.5 53.5t53.5 21.5z" />
    <glyph glyph-name="igrave" unicode="&#xec;" horiz-adv-x="287" 
d="M11 0v6l54 53v277l-53 49v6q90 35 213 65v-397l54 -53v-6h-268zM212 483l-194 150l112 83l89 -229z" />
    <glyph glyph-name="iacute" unicode="&#xed;" horiz-adv-x="287" 
d="M11 0v6l54 53v277l-53 49v6q90 35 213 65v-397l54 -53v-6h-268zM71 481l-7 4l89 229l112 -83z" />
    <glyph glyph-name="icircumflex" unicode="&#xee;" horiz-adv-x="287" 
d="M11 0v6l54 53v277l-53 49v6q90 35 213 65v-397l54 -53v-6h-268zM136 715l128 -235l-7 -5l-121 87l-121 -87l-7 5z" />
    <glyph glyph-name="idieresis" unicode="&#xef;" horiz-adv-x="287" 
d="M11 0v6l54 53v277l-53 49v6q90 35 213 65v-397l54 -53v-6h-268zM237 641q31 0 52.5 -21.5t21.5 -53.5t-21.5 -52.5t-52.5 -20.5q-32 0 -53.5 20.5t-21.5 52.5t21.5 53.5t53.5 21.5zM50 641q31 0 52.5 -21.5t21.5 -53.5t-21.5 -52.5t-52.5 -20.5q-32 0 -53.5 20.5
t-21.5 52.5t21.5 53.5t53.5 21.5z" />
    <glyph glyph-name="eth" unicode="&#xf0;" horiz-adv-x="534" 
d="M75 721q110 -27 205 -83l114 66l31 -53l-89 -50q176 -132 176 -328q0 -134 -73.5 -210t-173.5 -76t-174.5 61.5t-74.5 173.5q0 101 58.5 161.5t146.5 60.5q56 0 90 -27q-27 69 -72 129l-135 -76l-30 51l127 72q-57 63 -134 119zM342 256q0 51 -14 109q-26 14 -54 14
q-88 0 -88 -153q0 -75 26 -124.5t58 -49.5q28 0 50 54.5t22 149.5z" />
    <glyph glyph-name="ntilde" unicode="&#xf1;" horiz-adv-x="577" 
d="M11 0v6l54 53v277l-53 49v6q90 35 213 65v-83q85 80 154 80q63 0 101 -37.5t38 -67.5v-289l53 -53v-6h-265v6l52 53v244q0 19 -17.5 33.5t-50.5 14.5q-38 0 -65 -24v-268l52 -53v-6h-266zM240 633q12 0 62 -13t63 -13q23 0 67 57l7 -2q-6 -67 -28.5 -110.5t-49.5 -43.5
q-15 0 -64.5 12.5t-61.5 12.5q-22 0 -69 -57l-7 2q8 60 32.5 107.5t48.5 47.5z" />
    <glyph glyph-name="ograve" unicode="&#xf2;" horiz-adv-x="548" 
d="M20 215q0 109 80.5 173.5t174.5 64.5q44 0 87.5 -13.5t81 -39.5t61 -71.5t23.5 -102.5q0 -76 -42 -132.5t-99 -81.5t-116 -25q-43 0 -86 13.5t-80.5 39.5t-61 71.5t-23.5 103.5zM194 221q0 -69 24.5 -119t55.5 -50t56.5 51t25.5 118q0 73 -24.5 121t-57.5 48t-56.5 -49
t-23.5 -120zM328 483l-194 150l112 83l89 -229z" />
    <glyph glyph-name="oacute" unicode="&#xf3;" horiz-adv-x="548" 
d="M20 215q0 109 80.5 173.5t174.5 64.5q44 0 87.5 -13.5t81 -39.5t61 -71.5t23.5 -102.5q0 -76 -42 -132.5t-99 -81.5t-116 -25q-43 0 -86 13.5t-80.5 39.5t-61 71.5t-23.5 103.5zM194 221q0 -69 24.5 -119t55.5 -50t56.5 51t25.5 118q0 73 -24.5 121t-57.5 48t-56.5 -49
t-23.5 -120zM211 481l-7 4l89 229l112 -83z" />
    <glyph glyph-name="ocircumflex" unicode="&#xf4;" horiz-adv-x="548" 
d="M20 215q0 109 80.5 173.5t174.5 64.5q44 0 87.5 -13.5t81 -39.5t61 -71.5t23.5 -102.5q0 -76 -42 -132.5t-99 -81.5t-116 -25q-43 0 -86 13.5t-80.5 39.5t-61 71.5t-23.5 103.5zM194 221q0 -69 24.5 -119t55.5 -50t56.5 51t25.5 118q0 73 -24.5 121t-57.5 48t-56.5 -49
t-23.5 -120zM274 715l128 -235l-7 -5l-121 87l-121 -87l-7 5z" />
    <glyph glyph-name="otilde" unicode="&#xf5;" horiz-adv-x="548" 
d="M20 215q0 109 80.5 173.5t174.5 64.5q44 0 87.5 -13.5t81 -39.5t61 -71.5t23.5 -102.5q0 -76 -42 -132.5t-99 -81.5t-116 -25q-43 0 -86 13.5t-80.5 39.5t-61 71.5t-23.5 103.5zM194 221q0 -69 24.5 -119t55.5 -50t56.5 51t25.5 118q0 73 -24.5 121t-57.5 48t-56.5 -49
t-23.5 -120zM220 633q12 0 62 -13t63 -13q23 0 67 57l7 -2q-6 -67 -28.5 -110.5t-49.5 -43.5q-15 0 -64 12.5t-62 12.5q-22 0 -69 -57l-7 2q8 60 32.5 107.5t48.5 47.5z" />
    <glyph glyph-name="odieresis" unicode="&#xf6;" horiz-adv-x="548" 
d="M20 215q0 109 80.5 173.5t174.5 64.5q44 0 87.5 -13.5t81 -39.5t61 -71.5t23.5 -102.5q0 -76 -42 -132.5t-99 -81.5t-116 -25q-43 0 -86 13.5t-80.5 39.5t-61 71.5t-23.5 103.5zM194 221q0 -69 24.5 -119t55.5 -50t56.5 51t25.5 118q0 73 -24.5 121t-57.5 48t-56.5 -49
t-23.5 -120zM371 641q31 0 52.5 -21.5t21.5 -53.5t-21.5 -52.5t-52.5 -20.5q-32 0 -53.5 20.5t-21.5 52.5t21.5 53.5t53.5 21.5zM178 641q31 0 52.5 -21.5t21.5 -53.5t-21.5 -52.5t-52.5 -20.5q-32 0 -53.5 20.5t-21.5 52.5t21.5 53.5t53.5 21.5z" />
    <glyph glyph-name="divide" unicode="&#xf7;" horiz-adv-x="474" 
d="M161 76q0 32 22 53.5t54 21.5q33 0 54.5 -21.5t21.5 -53.5q0 -31 -21.5 -52t-54.5 -21q-32 0 -54 21t-22 52zM161 412q0 32 22 53.5t54 21.5q33 0 54.5 -21.5t21.5 -53.5q0 -30 -21.5 -51t-54.5 -21q-32 0 -54 21t-22 51zM34 278h406v-62h-406v62z" />
    <glyph glyph-name="oslash" unicode="&#xf8;" horiz-adv-x="548" 
d="M20 215q0 56 24 103t62 75.5t82 44.5t87 16q48 0 95 -16l42 71l49 -28l-40 -66q107 -63 107 -189q0 -76 -42 -132.5t-99 -81.5t-116 -25q-46 0 -97 17l-44 -74l-49 26l43 71q-104 62 -104 188zM365 221q0 51 -10 84l-134 -223q22 -30 53 -30q34 0 62.5 50.5t28.5 118.5z
M185 221q0 -44 9 -77l132 221q-22 25 -52 25q-35 0 -62 -49.5t-27 -119.5z" />
    <glyph glyph-name="ugrave" unicode="&#xf9;" horiz-adv-x="560" 
d="M2 385v6q88 36 211 65v-314q0 -51 57 -51q33 0 67 21v224l-65 49v6q68 28 225 65v-365l66 -42v-7l-88 -22q-72 -18 -138 -32v80q-84 -79 -148 -79q-65 0 -100.5 36.5t-35.5 70.5v240zM344 483l-194 150l112 83l89 -229z" />
    <glyph glyph-name="uacute" unicode="&#xfa;" horiz-adv-x="560" 
d="M2 385v6q88 36 211 65v-314q0 -51 57 -51q33 0 67 21v224l-65 49v6q68 28 225 65v-365l66 -42v-7l-88 -22q-72 -18 -138 -32v80q-84 -79 -148 -79q-65 0 -100.5 36.5t-35.5 70.5v240zM230 481l-7 4l89 229l112 -83z" />
    <glyph glyph-name="ucircumflex" unicode="&#xfb;" horiz-adv-x="560" 
d="M2 385v6q88 36 211 65v-314q0 -51 57 -51q33 0 67 21v224l-65 49v6q68 28 225 65v-365l66 -42v-7l-88 -22q-72 -18 -138 -32v80q-84 -79 -148 -79q-65 0 -100.5 36.5t-35.5 70.5v240zM272 715l128 -235l-7 -5l-121 87l-121 -87l-7 5z" />
    <glyph glyph-name="udieresis" unicode="&#xfc;" horiz-adv-x="560" 
d="M2 385v6q88 36 211 65v-314q0 -51 57 -51q33 0 67 21v224l-65 49v6q68 28 225 65v-365l66 -42v-7l-88 -22q-72 -18 -138 -32v80q-84 -79 -148 -79q-65 0 -100.5 36.5t-35.5 70.5v240zM367 641q31 0 52.5 -21.5t21.5 -53.5t-21.5 -52.5t-52.5 -20.5q-32 0 -53.5 20.5
t-21.5 52.5t21.5 53.5t53.5 21.5zM174 641q31 0 52.5 -21.5t21.5 -53.5t-21.5 -52.5t-52.5 -20.5q-32 0 -53.5 20.5t-21.5 52.5t21.5 53.5t53.5 21.5z" />
    <glyph glyph-name="yacute" unicode="&#xfd;" horiz-adv-x="460" 
d="M294 72q-82 -199 -95 -304h-158v6q91 68 166 244l-167 365l-48 51v6h272v-6l-48 -51l70 -166l61 166l-47 51v6h169v-6l-48 -51zM215 481l-7 4l89 229l112 -83z" />
    <glyph glyph-name="thorn" unicode="&#xfe;" horiz-adv-x="545" 
d="M-12 645v6q129 53 221 75v-338q84 66 139 66q69 0 118.5 -52t49.5 -147q0 -123 -70.5 -189.5t-185.5 -66.5q-36 0 -51 -1v-170l76 -54v-6h-290v6l53 54v763zM250 357q-27 0 -41 -6v-275q12 -12 38 -12q43 0 71.5 44t28.5 115q0 62 -24 98t-73 36z" />
    <glyph glyph-name="ydieresis" unicode="&#xff;" horiz-adv-x="460" 
d="M294 72q-82 -199 -95 -304h-158v6q91 68 166 244l-167 365l-48 51v6h272v-6l-48 -51l70 -166l61 166l-47 51v6h169v-6l-48 -51zM350 641q31 0 52.5 -21.5t21.5 -53.5t-21.5 -52.5t-52.5 -20.5q-32 0 -53.5 20.5t-21.5 52.5t21.5 53.5t53.5 21.5zM157 641q31 0 52.5 -21.5
t21.5 -53.5t-21.5 -52.5t-52.5 -20.5q-32 0 -53.5 20.5t-21.5 52.5t21.5 53.5t53.5 21.5z" />
    <glyph glyph-name="Amacron" unicode="&#x100;" horiz-adv-x="664" 
d="M224 6v-6h-224v6l63 66l238 594h44l256 -594l63 -66v-6h-323v6l70 66l-45 105h-179l-38 -98zM213 242h125l-65 154zM184 794h279v-86h-279v86z" />
    <glyph glyph-name="amacron" unicode="&#x101;" horiz-adv-x="485" 
d="M272 323q0 18 -17 30t-44 12q-21 0 -44 -10v-92l-136 49v6q112 135 240 135q44 0 77 -13t49 -32t23.5 -36.5t7.5 -32.5q0 -23 -1 -124.5t-1 -113.5q23 -13 64 -28v-7l-94 -91q-28 8 -63.5 29t-56.5 44q-29 -28 -61.5 -45t-54.5 -17q-63 0 -102.5 36.5t-39.5 87.5
q0 29 12.5 54t27.5 29q79 20 214 48v82zM271 83l1 15v40v49l-96 -25q-7 -5 -7 -25q0 -27 17 -43t49 -16q24 0 36 5zM115 600h247v-86h-247v86z" />
    <glyph glyph-name="Abreve" unicode="&#x102;" horiz-adv-x="664" 
d="M224 6v-6h-224v6l63 66l238 594h44l256 -594l63 -66v-6h-323v6l70 66l-45 105h-179l-38 -98zM213 242h125l-65 154zM324 695q-64 0 -96.5 43.5t-32.5 99.5l8 1q44 -55 121 -55t121 55l8 -1q0 -56 -32.5 -99.5t-96.5 -43.5z" />
    <glyph glyph-name="abreve" unicode="&#x103;" horiz-adv-x="485" 
d="M272 323q0 18 -17 30t-44 12q-21 0 -44 -10v-92l-136 49v6q112 135 240 135q44 0 77 -13t49 -32t23.5 -36.5t7.5 -32.5q0 -23 -1 -124.5t-1 -113.5q23 -13 64 -28v-7l-94 -91q-28 8 -63.5 29t-56.5 44q-29 -28 -61.5 -45t-54.5 -17q-63 0 -102.5 36.5t-39.5 87.5
q0 29 12.5 54t27.5 29q79 20 214 48v82zM271 83l1 15v40v49l-96 -25q-7 -5 -7 -25q0 -27 17 -43t49 -16q24 0 36 5zM235 581q61 0 105 71l8 -1q2 -67 -28 -113t-85 -46t-85 46t-28 113l8 1q45 -71 105 -71z" />
    <glyph glyph-name="Aogonek" unicode="&#x104;" horiz-adv-x="664" 
d="M273 397l-60 -155h126zM367 177h-180l-38 -98l75 -73v-6h-224v6l63 66l238 594h44l256 -594l63 -66v-6h-187q-52 -61 -52 -105q0 -26 17.5 -43t51.5 -17q27 0 55 7l4 -5q-17 -29 -61.5 -56t-98.5 -27q-51 0 -80.5 23.5t-29.5 62.5q0 83 159 160z" />
    <glyph glyph-name="aogonek" unicode="&#x105;" horiz-adv-x="485" 
d="M426 101q23 -13 64 -28v-7q-36 -33 -51 -48t-36.5 -40t-29.5 -44.5t-8 -40.5q0 -25 17.5 -41.5t51.5 -16.5q27 0 55 7l4 -5q-17 -29 -61.5 -56t-98.5 -27q-51 0 -80.5 23.5t-29.5 62.5q0 77 145 146q-58 25 -92 62q-28 -28 -61 -45t-55 -17q-63 0 -102.5 36.5t-39.5 87.5
q0 29 12.5 54t27.5 29q79 20 214 48v82q0 18 -17 30t-44 12q-21 0 -44 -10v-92l-136 49v6q112 135 240 135q44 0 77 -13t49 -32t23.5 -36.5t7.5 -32.5q0 -23 -1 -124.5t-1 -113.5zM235 78q24 0 36 5l1 15v40v49l-96 -25q-7 -5 -7 -25q0 -27 17 -43t49 -16z" />
    <glyph glyph-name="Cacute" unicode="&#x106;" horiz-adv-x="668" 
d="M410 -11q-164 0 -274.5 90.5t-110.5 249.5q0 148 111.5 245.5t281.5 97.5q82 0 197 -24v-180h-9q-51 51 -112.5 92t-108.5 41q-55 0 -109 -71t-54 -181q0 -133 59.5 -210.5t135.5 -77.5q104 0 200 139h9v-173q-89 -38 -216 -38zM255 704l-3 8l221 145l45 -127z" />
    <glyph glyph-name="cacute" unicode="&#x107;" horiz-adv-x="455" 
d="M292 455q27 0 54 -2t48.5 -4.5t22.5 -2.5v-151h-9q-105 93 -152 93q-28 0 -56.5 -36.5t-28.5 -94.5q0 -67 41 -111.5t116 -44.5q72 0 109 20l7 -8q-26 -44 -77.5 -83.5t-121.5 -39.5q-94 0 -159 61t-65 160q0 106 75.5 175t195.5 69zM180 481l-7 4l89 229l112 -83z" />
    <glyph glyph-name="Ccircumflex" unicode="&#x108;" horiz-adv-x="668" 
d="M410 -11q-164 0 -274.5 90.5t-110.5 249.5q0 148 111.5 245.5t281.5 97.5q82 0 197 -24v-180h-9q-51 51 -112.5 92t-108.5 41q-55 0 -109 -71t-54 -181q0 -133 59.5 -210.5t135.5 -77.5q104 0 200 139h9v-173q-89 -38 -216 -38zM380 863l159 -168l-4 -6l-155 49l-155 -49
l-4 6z" />
    <glyph glyph-name="ccircumflex" unicode="&#x109;" horiz-adv-x="455" 
d="M292 455q27 0 54 -2t48.5 -4.5t22.5 -2.5v-151h-9q-105 93 -152 93q-28 0 -56.5 -36.5t-28.5 -94.5q0 -67 41 -111.5t116 -44.5q72 0 109 20l7 -8q-26 -44 -77.5 -83.5t-121.5 -39.5q-94 0 -159 61t-65 160q0 106 75.5 175t195.5 69zM246 715l128 -235l-7 -5l-121 87
l-121 -87l-7 5z" />
    <glyph glyph-name="Cdotaccent" unicode="&#x10a;" horiz-adv-x="668" 
d="M410 -11q-164 0 -274.5 90.5t-110.5 249.5q0 148 111.5 245.5t281.5 97.5q82 0 197 -24v-180h-9q-51 51 -112.5 92t-108.5 41q-55 0 -109 -71t-54 -181q0 -133 59.5 -210.5t135.5 -77.5q104 0 200 139h9v-173q-89 -38 -216 -38zM299 769q0 33 23.5 55.5t56.5 22.5
q34 0 57 -22.5t23 -55.5q0 -32 -23 -54t-57 -22q-33 0 -56.5 22t-23.5 54z" />
    <glyph glyph-name="cdotaccent" unicode="&#x10b;" horiz-adv-x="455" 
d="M292 455q27 0 54 -2t48.5 -4.5t22.5 -2.5v-151h-9q-105 93 -152 93q-28 0 -56.5 -36.5t-28.5 -94.5q0 -67 41 -111.5t116 -44.5q72 0 109 20l7 -8q-26 -44 -77.5 -83.5t-121.5 -39.5q-94 0 -159 61t-65 160q0 106 75.5 175t195.5 69zM174 569q0 33 23.5 55.5t56.5 22.5
q34 0 57 -22.5t23 -55.5q0 -32 -23 -54t-57 -22q-33 0 -56.5 22t-23.5 54z" />
    <glyph glyph-name="Ccaron" unicode="&#x10c;" horiz-adv-x="668" 
d="M410 -11q-164 0 -274.5 90.5t-110.5 249.5q0 148 111.5 245.5t281.5 97.5q82 0 197 -24v-180h-9q-51 51 -112.5 92t-108.5 41q-55 0 -109 -71t-54 -181q0 -133 59.5 -210.5t135.5 -77.5q104 0 200 139h9v-173q-89 -38 -216 -38zM225 862l155 -49l155 49l4 -6l-159 -168
l-159 168z" />
    <glyph glyph-name="ccaron" unicode="&#x10d;" horiz-adv-x="455" 
d="M292 455q27 0 54 -2t48.5 -4.5t22.5 -2.5v-151h-9q-105 93 -152 93q-28 0 -56.5 -36.5t-28.5 -94.5q0 -67 41 -111.5t116 -44.5q72 0 109 20l7 -8q-26 -44 -77.5 -83.5t-121.5 -39.5q-94 0 -159 61t-65 160q0 106 75.5 175t195.5 69zM127 715l121 -87l121 87l7 -5
l-128 -235l-128 235z" />
    <glyph glyph-name="Dcaron" unicode="&#x10e;" horiz-adv-x="761" 
d="M18 0v6l72 66v518l-72 67v5h341q159 0 268.5 -82.5t109.5 -228.5q0 -149 -94 -250t-247 -101h-378zM270 595v-514q36 -17 94 -17q75 0 127.5 84t52.5 187q0 128 -68.5 194t-174.5 66h-31zM207 861l155 -49l155 49l4 -6l-159 -168l-159 168z" />
    <glyph glyph-name="dcaron" unicode="&#x10f;" horiz-adv-x="555" 
d="M260 642v6q25 11 103 38.5t128 39.5v-630l73 -47v-7q-14 -4 -41 -10.5t-38 -9.5q-35 -8 -148 -35v66q-79 -65 -124 -65q-70 0 -129.5 56.5t-59.5 152.5q0 106 71.5 175t199.5 69h36v147zM303 88q13 0 28 5v266q-12 21 -45 21q-42 0 -69 -39.5t-27 -102.5q0 -67 31 -108.5
t82 -41.5zM528 495l11 220h123l-127 -220h-7z" />
    <glyph glyph-name="Dcroat" unicode="&#x110;" horiz-adv-x="761" 
d="M18 0v6l72 66v233h-82v62h82v223l-72 67v5h341q159 0 268.5 -82.5t109.5 -228.5q0 -149 -94 -250t-247 -101h-378zM270 305v-224q36 -17 94 -17q75 0 127.5 84t52.5 187q0 128 -68.5 194t-174.5 66h-31v-228h156v-62h-156z" />
    <glyph glyph-name="dcroat" unicode="&#x111;" horiz-adv-x="555" 
d="M178 502v58h386v-58h-386zM260 642v6q25 11 103 38.5t128 39.5v-630l73 -47v-7q-14 -4 -41 -10.5t-38 -9.5q-35 -8 -148 -35v66q-79 -65 -124 -65q-70 0 -129.5 56.5t-59.5 152.5q0 106 71.5 175t199.5 69h36v147zM303 88q13 0 28 5v266q-12 21 -45 21q-42 0 -69 -39.5
t-27 -102.5q0 -67 31 -108.5t82 -41.5z" />
    <glyph glyph-name="Emacron" unicode="&#x112;" horiz-adv-x="559" 
d="M18 0v6l72 66v518l-72 67v5h486v-162h-6l-90 94h-139v-216h147l66 73h6v-212h-6l-66 73h-147v-243h158l90 121h8v-190h-507zM148 794h279v-86h-279v86z" />
    <glyph glyph-name="emacron" unicode="&#x113;" horiz-adv-x="456" 
d="M168 264q2 -80 45 -123t124 -43q56 0 110 19l4 -7q-16 -25 -39.5 -48.5t-71 -47.5t-100.5 -24q-95 0 -157 62.5t-62 159.5q0 106 71.5 173.5t153.5 67.5q133 0 195 -183v-6h-273zM240 393q-19 0 -39 -20t-28 -56h123q-3 40 -21 58t-35 18zM114 600h247v-86h-247v86z" />
    <glyph glyph-name="Ebreve" unicode="&#x114;" horiz-adv-x="559" 
d="M18 0v6l72 66v518l-72 67v5h486v-162h-6l-90 94h-139v-216h147l66 73h6v-212h-6l-66 73h-147v-243h158l90 121h8v-190h-507zM282 695q-64 0 -96.5 43.5t-32.5 99.5l8 1q44 -55 121 -55t121 55l8 -1q0 -56 -32.5 -99.5t-96.5 -43.5z" />
    <glyph glyph-name="ebreve" unicode="&#x115;" horiz-adv-x="456" 
d="M168 264q2 -80 45 -123t124 -43q56 0 110 19l4 -7q-16 -25 -39.5 -48.5t-71 -47.5t-100.5 -24q-95 0 -157 62.5t-62 159.5q0 106 71.5 173.5t153.5 67.5q133 0 195 -183v-6h-273zM240 393q-19 0 -39 -20t-28 -56h123q-3 40 -21 58t-35 18zM234 581q61 0 105 71l8 -1
q2 -67 -28 -113t-85 -46t-85 46t-28 113l8 1q45 -71 105 -71z" />
    <glyph glyph-name="Edotaccent" unicode="&#x116;" horiz-adv-x="559" 
d="M18 0v6l72 66v518l-72 67v5h486v-162h-6l-90 94h-139v-216h147l66 73h6v-212h-6l-66 73h-147v-243h158l90 121h8v-190h-507zM210 769q0 33 23.5 55.5t56.5 22.5q34 0 57 -22.5t23 -55.5q0 -32 -23 -54t-57 -22q-33 0 -56.5 22t-23.5 54z" />
    <glyph glyph-name="edotaccent" unicode="&#x117;" horiz-adv-x="456" 
d="M168 264q2 -80 45 -123t124 -43q56 0 110 19l4 -7q-16 -25 -39.5 -48.5t-71 -47.5t-100.5 -24q-95 0 -157 62.5t-62 159.5q0 106 71.5 173.5t153.5 67.5q133 0 195 -183v-6h-273zM240 393q-19 0 -39 -20t-28 -56h123q-3 40 -21 58t-35 18zM162 569q0 33 23.5 55.5
t56.5 22.5q34 0 57 -22.5t23 -55.5q0 -32 -23 -54t-57 -22q-33 0 -56.5 22t-23.5 54z" />
    <glyph glyph-name="Eogonek" unicode="&#x118;" horiz-adv-x="559" 
d="M18 0v6l72 66v518l-72 67v5h486v-162h-6l-90 94h-139v-216h147l66 73h6v-212h-6l-66 73h-147v-243h158l90 121h8v-190h-507zM357 -246q-51 0 -80.5 23.5t-29.5 62.5q0 83 159 160h35q-52 -61 -52 -105q0 -26 17.5 -43t51.5 -17q27 0 55 7l4 -5q-17 -29 -61.5 -56
t-98.5 -27z" />
    <glyph glyph-name="eogonek" unicode="&#x119;" horiz-adv-x="456" 
d="M171 -160q0 43 36.5 79.5t115.5 85.5q-43 -15 -83 -15q-95 0 -157 62.5t-62 159.5q0 106 71.5 173.5t153.5 67.5q133 0 195 -183v-6h-273q2 -80 45 -123t124 -43q56 0 110 19l4 -7q-19 -29 -76 -96q-62 -72 -62 -119q0 -26 17.5 -43t51.5 -17q27 0 55 7l4 -5
q-17 -29 -61.5 -56t-98.5 -27q-51 0 -80.5 23.5t-29.5 62.5zM240 393q-19 0 -39 -20t-28 -56h123q-3 40 -21 58t-35 18z" />
    <glyph glyph-name="Ecaron" unicode="&#x11a;" horiz-adv-x="559" 
d="M18 0v6l72 66v518l-72 67v5h486v-162h-6l-90 94h-139v-216h147l66 73h6v-212h-6l-66 73h-147v-243h158l90 121h8v-190h-507zM128 861l155 -49l155 49l4 -6l-159 -168l-159 168z" />
    <glyph glyph-name="ecaron" unicode="&#x11b;" horiz-adv-x="456" 
d="M168 264q2 -80 45 -123t124 -43q56 0 110 19l4 -7q-16 -25 -39.5 -48.5t-71 -47.5t-100.5 -24q-95 0 -157 62.5t-62 159.5q0 106 71.5 173.5t153.5 67.5q133 0 195 -183v-6h-273zM240 393q-19 0 -39 -20t-28 -56h123q-3 40 -21 58t-35 18zM117 715l121 -87l121 87l7 -5
l-128 -235l-128 235z" />
    <glyph glyph-name="Gcircumflex" unicode="&#x11c;" horiz-adv-x="726" 
d="M663 37q-21 -3 -61 -16t-88 -22t-111 -9q-160 0 -269 94t-109 241q0 149 110.5 248.5t284.5 99.5q88 0 213 -25v-176h-9q-54 52 -119.5 91.5t-112.5 39.5q-25 0 -54 -15.5t-56 -45t-44.5 -80t-17.5 -112.5q0 -130 65.5 -209.5t142.5 -79.5q42 0 66 15v197l-80 65v6h307
v-6l-58 -65v-236zM386 863l159 -168l-4 -6l-155 49l-155 -49l-4 6z" />
    <glyph glyph-name="gcircumflex" unicode="&#x11d;" horiz-adv-x="501" 
d="M29 319q0 56 55 97t144 41q55 0 103 -17h155v-64h-77q22 -29 22 -54q0 -61 -49.5 -102t-153.5 -41q-33 0 -63 6q-11 -16 -11 -31q0 -11 6.5 -17.5t13.5 -6.5h197q31 0 69.5 -38.5t38.5 -101.5q0 -94 -81.5 -164t-202.5 -70q-84 0 -132.5 30t-48.5 67q0 33 31.5 72
t65.5 65q-33 13 -54.5 39.5t-21.5 65.5t17 56l71 48q-94 39 -94 120zM150 -18q-10 -10 -19.5 -31t-9.5 -39q0 -23 29.5 -41t85.5 -18q58 0 93.5 23t35.5 59q0 24 -17.5 35.5t-34.5 11.5h-163zM174 318q0 -33 18 -58.5t38 -25.5q23 0 39 24.5t16 59.5t-16 60t-39 25
q-21 0 -38.5 -26t-17.5 -59zM234 715l128 -235l-7 -5l-121 87l-121 -87l-7 5z" />
    <glyph glyph-name="Gbreve" unicode="&#x11e;" horiz-adv-x="726" 
d="M663 37q-21 -3 -61 -16t-88 -22t-111 -9q-160 0 -269 94t-109 241q0 149 110.5 248.5t284.5 99.5q88 0 213 -25v-176h-9q-54 52 -119.5 91.5t-112.5 39.5q-25 0 -54 -15.5t-56 -45t-44.5 -80t-17.5 -112.5q0 -130 65.5 -209.5t142.5 -79.5q42 0 66 15v197l-80 65v6h307
v-6l-58 -65v-236zM387 695q-64 0 -96.5 43.5t-32.5 99.5l8 1q44 -55 121 -55t121 55l8 -1q0 -56 -32.5 -99.5t-96.5 -43.5z" />
    <glyph glyph-name="gbreve" unicode="&#x11f;" horiz-adv-x="501" 
d="M29 319q0 56 55 97t144 41q55 0 103 -17h155v-64h-77q22 -29 22 -54q0 -61 -49.5 -102t-153.5 -41q-33 0 -63 6q-11 -16 -11 -31q0 -11 6.5 -17.5t13.5 -6.5h197q31 0 69.5 -38.5t38.5 -101.5q0 -94 -81.5 -164t-202.5 -70q-84 0 -132.5 30t-48.5 67q0 33 31.5 72
t65.5 65q-33 13 -54.5 39.5t-21.5 65.5t17 56l71 48q-94 39 -94 120zM150 -18q-10 -10 -19.5 -31t-9.5 -39q0 -23 29.5 -41t85.5 -18q58 0 93.5 23t35.5 59q0 24 -17.5 35.5t-34.5 11.5h-163zM174 318q0 -33 18 -58.5t38 -25.5q23 0 39 24.5t16 59.5t-16 60t-39 25
q-21 0 -38.5 -26t-17.5 -59zM234 581q61 0 105 71l8 -1q2 -67 -28 -113t-85 -46t-85 46t-28 113l8 1q45 -71 105 -71z" />
    <glyph glyph-name="Gdotaccent" unicode="&#x120;" horiz-adv-x="726" 
d="M663 37q-21 -3 -61 -16t-88 -22t-111 -9q-160 0 -269 94t-109 241q0 149 110.5 248.5t284.5 99.5q88 0 213 -25v-176h-9q-54 52 -119.5 91.5t-112.5 39.5q-25 0 -54 -15.5t-56 -45t-44.5 -80t-17.5 -112.5q0 -130 65.5 -209.5t142.5 -79.5q42 0 66 15v197l-80 65v6h307
v-6l-58 -65v-236zM306 769q0 33 23.5 55.5t56.5 22.5q34 0 57 -22.5t23 -55.5q0 -32 -23 -54t-57 -22q-33 0 -56.5 22t-23.5 54z" />
    <glyph glyph-name="gdotaccent" unicode="&#x121;" horiz-adv-x="501" 
d="M29 319q0 56 55 97t144 41q55 0 103 -17h155v-64h-77q22 -29 22 -54q0 -61 -49.5 -102t-153.5 -41q-33 0 -63 6q-11 -16 -11 -31q0 -11 6.5 -17.5t13.5 -6.5h197q31 0 69.5 -38.5t38.5 -101.5q0 -94 -81.5 -164t-202.5 -70q-84 0 -132.5 30t-48.5 67q0 33 31.5 72
t65.5 65q-33 13 -54.5 39.5t-21.5 65.5t17 56l71 48q-94 39 -94 120zM150 -18q-10 -10 -19.5 -31t-9.5 -39q0 -23 29.5 -41t85.5 -18q58 0 93.5 23t35.5 59q0 24 -17.5 35.5t-34.5 11.5h-163zM174 318q0 -33 18 -58.5t38 -25.5q23 0 39 24.5t16 59.5t-16 60t-39 25
q-21 0 -38.5 -26t-17.5 -59zM155 569q0 33 23.5 55.5t56.5 22.5q34 0 57 -22.5t23 -55.5q0 -32 -23 -54t-57 -22q-33 0 -56.5 22t-23.5 54z" />
    <glyph glyph-name="Gcommaaccent" unicode="&#x122;" horiz-adv-x="726" 
d="M663 37q-21 -3 -61 -16t-88 -22t-111 -9q-160 0 -269 94t-109 241q0 149 110.5 248.5t284.5 99.5q88 0 213 -25v-176h-9q-54 52 -119.5 91.5t-112.5 39.5q-25 0 -54 -15.5t-56 -45t-44.5 -80t-17.5 -112.5q0 -130 65.5 -209.5t142.5 -79.5q42 0 66 15v197l-80 65v6h307
v-6l-58 -65v-236zM469 -122q0 -89 -123 -135l-14 7q45 60 55 89q-30 0 -50 15t-20 40q0 29 20 45.5t53 16.5q34 0 56.5 -21.5t22.5 -56.5z" />
    <glyph glyph-name="gcommaaccent" unicode="&#x123;" horiz-adv-x="501" 
d="M29 319q0 56 55 97t144 41q55 0 103 -17h155v-64h-77q22 -29 22 -54q0 -61 -49.5 -102t-153.5 -41q-33 0 -63 6q-11 -16 -11 -31q0 -11 6.5 -17.5t13.5 -6.5h197q31 0 69.5 -38.5t38.5 -101.5q0 -94 -81.5 -164t-202.5 -70q-84 0 -132.5 30t-48.5 67q0 33 31.5 72
t65.5 65q-33 13 -54.5 39.5t-21.5 65.5t17 56l71 48q-94 39 -94 120zM150 -18q-10 -10 -19.5 -31t-9.5 -39q0 -23 29.5 -41t85.5 -18q58 0 93.5 23t35.5 59q0 24 -17.5 35.5t-34.5 11.5h-163zM174 318q0 -33 18 -58.5t38 -25.5q23 0 39 24.5t16 59.5t-16 60t-39 25
q-21 0 -38.5 -26t-17.5 -59zM155 572q0 89 123 135l14 -8q-45 -61 -55 -88q30 0 50 -15t20 -40q0 -29 -20.5 -45.5t-53.5 -16.5q-34 0 -56 21.5t-22 56.5z" />
    <glyph glyph-name="Hcircumflex" unicode="&#x124;" horiz-adv-x="812" 
d="M272 370h270v220l-72 66v6h324v-6l-72 -66v-518l72 -66v-6h-324v6l72 66v229h-270v-229l72 -66v-6h-326v6l72 66v518l-72 66v6h326v-6l-72 -66v-220zM406 863l159 -168l-4 -6l-155 49l-155 -49l-4 6z" />
    <glyph glyph-name="hcircumflex" unicode="&#x125;" horiz-adv-x="577" 
d="M11 0v6l54 53v532l-59 54v6q114 50 219 75v-353q85 80 154 80q63 0 101 -37.5t38 -67.5v-289l53 -53v-6h-264v6l51 53v244q0 19 -17.5 33.5t-50.5 14.5q-38 0 -65 -24v-268l52 -53v-6h-266zM290 902l159 -168l-4 -6l-155 49l-155 -49l-4 6z" />
    <glyph glyph-name="Hbar" unicode="&#x126;" horiz-adv-x="812" 
d="M8 462v61h796v-61h-796zM272 370h270v220l-72 66v6h324v-6l-72 -66v-518l72 -66v-6h-324v6l72 66v229h-270v-229l72 -66v-6h-326v6l72 66v518l-72 66v6h326v-6l-72 -66v-220z" />
    <glyph glyph-name="hbar" unicode="&#x127;" horiz-adv-x="577" 
d="M-8 502v58h380v-58h-380zM11 0v6l54 53v532l-59 54v6q114 50 219 75v-353q85 80 154 80q63 0 101 -37.5t38 -67.5v-289l53 -53v-6h-264v6l51 53v244q0 19 -17.5 33.5t-50.5 14.5q-38 0 -65 -24v-268l52 -53v-6h-266z" />
    <glyph glyph-name="Itilde" unicode="&#x128;" horiz-adv-x="360" 
d="M18 0v6l72 66v518l-72 66v6h324v-6l-72 -66v-518l72 -66v-6h-324zM131 828q13 0 69 -9.5t73 -9.5q32 0 78 46l7 -2q-14 -59 -42 -100.5t-52 -41.5q-14 0 -70 9t-72 9q-28 0 -78 -46l-7 2q14 58 42.5 100.5t51.5 42.5z" />
    <glyph glyph-name="itilde" unicode="&#x129;" horiz-adv-x="287" 
d="M11 0v6l54 53v277l-53 49v6q90 35 213 65v-397l54 -53v-6h-268zM85 633q12 0 62 -13t63 -13q23 0 67 57l7 -2q-6 -67 -28.5 -110.5t-49.5 -43.5q-16 0 -65 12.5t-61 12.5q-22 0 -69 -57l-7 2q8 60 32.5 107.5t48.5 47.5z" />
    <glyph glyph-name="Imacron" unicode="&#x12a;" horiz-adv-x="360" 
d="M18 0v6l72 66v518l-72 66v6h324v-6l-72 -66v-518l72 -66v-6h-324zM41 794h279v-86h-279v86z" />
    <glyph glyph-name="imacron" unicode="&#x12b;" horiz-adv-x="287" 
d="M11 0v6l54 53v277l-53 49v6q90 35 213 65v-397l54 -53v-6h-268zM15 600h247v-86h-247v86z" />
    <glyph glyph-name="Ibreve" unicode="&#x12c;" horiz-adv-x="360" 
d="M18 0v6l72 66v518l-72 66v6h324v-6l-72 -66v-518l72 -66v-6h-324zM181 695q-64 0 -96.5 43.5t-32.5 99.5l8 1q44 -55 121 -55t121 55l8 -1q0 -56 -32.5 -99.5t-96.5 -43.5z" />
    <glyph glyph-name="ibreve" unicode="&#x12d;" horiz-adv-x="287" 
d="M11 0v6l54 53v277l-53 49v6q90 35 213 65v-397l54 -53v-6h-268zM138 581q61 0 105 71l8 -1q2 -67 -28 -113t-85 -46t-85 46t-28 113l8 1q45 -71 105 -71z" />
    <glyph glyph-name="Iogonek" unicode="&#x12e;" horiz-adv-x="360" 
d="M187 -246q-51 0 -80.5 23.5t-29.5 62.5q0 86 149 160h35q-42 -56 -42 -105q0 -26 17.5 -43t51.5 -17q27 0 55 7l4 -5q-17 -29 -61.5 -56t-98.5 -27zM18 0v6l72 66v518l-72 66v6h324v-6l-72 -66v-518l72 -66v-6h-324z" />
    <glyph glyph-name="iogonek" unicode="&#x12f;" horiz-adv-x="287" 
d="M148 -246q-51 0 -80.5 23.5t-29.5 62.5q0 84 146 160h35q-39 -60 -39 -105q0 -25 17.5 -42.5t48.5 -17.5q24 0 48 6l4 -5q-19 -30 -58 -56t-92 -26zM11 0v6l54 53v277l-53 49v6q90 35 213 65v-397l54 -53v-6h-268zM61 570q0 34 24 57t58 23q35 0 58.5 -23t23.5 -57
t-23.5 -56.5t-58.5 -22.5q-34 0 -58 23t-24 56z" />
    <glyph glyph-name="Idotaccent" unicode="&#x130;" horiz-adv-x="360" 
d="M18 0v6l72 66v518l-72 66v6h324v-6l-72 -66v-518l72 -66v-6h-324zM101 769q0 33 23.5 55.5t56.5 22.5q34 0 57 -22.5t23 -55.5q0 -32 -23 -54t-57 -22q-33 0 -56.5 22t-23.5 54z" />
    <glyph glyph-name="dotlessi" unicode="&#x131;" horiz-adv-x="287" 
d="M11 0v6l54 53v277l-53 49v6q90 35 213 65v-397l54 -53v-6h-268z" />
    <glyph glyph-name="IJ" unicode="&#x132;" horiz-adv-x="711" 
d="M18 0v6l72 66v518l-72 66v6h324v-6l-72 -66v-518l72 -66v-6h-324zM374 657v5h323v-5l-71 -67v-486q0 -71 -63 -164.5t-174 -154.5l-10 8q66 149 66 375v422z" />
    <glyph glyph-name="ij" unicode="&#x133;" horiz-adv-x="546" 
d="M11 0v6l54 53v277l-53 49v6q90 35 213 65v-397l54 -53v-6h-268zM61 570q0 34 24 57t58 23q35 0 58.5 -23t23.5 -57t-23.5 -56.5t-58.5 -22.5q-34 0 -58 23t-24 56zM414 491q-34 0 -58 23t-24 56q0 34 24 57t58 23q35 0 58.5 -23t23.5 -57t-23.5 -56.5t-58.5 -22.5z
M283 385v7q46 21 213 65v-416q0 -48 -51.5 -124t-155.5 -149l-8 8q55 128 55 253v308z" />
    <glyph glyph-name="Jcircumflex" unicode="&#x134;" horiz-adv-x="351" 
d="M14 657v5h323v-5l-71 -67v-486q0 -71 -63 -164.5t-174 -154.5l-10 8q66 149 66 375v422zM173 863l159 -168l-4 -6l-155 49l-155 -49l-4 6z" />
    <glyph glyph-name="jcircumflex" unicode="&#x135;" horiz-adv-x="265" 
d="M2 388v7q51 23 213 65v-419q0 -48 -51.5 -124t-155.5 -149l-8 8q55 128 55 253v312zM123 715l128 -235l-7 -5l-121 87l-121 -87l-7 5z" />
    <glyph glyph-name="Kcommaaccent" unicode="&#x136;" horiz-adv-x="755" 
d="M18 0v6l72 66v518l-72 67v5h324v-5l-72 -67v-518l72 -66v-6h-324zM752 0h-340v6l71 66l-163 247h-34l222 271l-72 67v5h263v-5l-95 -68l-146 -169l228 -348l66 -66v-6zM467 -122q0 -89 -123 -135l-14 7q45 60 55 89q-30 0 -50 15t-20 40q0 29 20 45.5t53 16.5
q34 0 56.5 -21.5t22.5 -56.5z" />
    <glyph glyph-name="kcommaaccent" unicode="&#x137;" horiz-adv-x="562" 
d="M225 59l48 -53v-6h-261v6l53 53v532l-59 54v6q119 50 219 75v-667zM238 209v6l103 158l-63 61v6h262v-8l-109 -62l-70 -78l109 -164q44 -67 91 -122v-6q-49 -13 -96 -13q-52 0 -81.5 19.5t-61.5 68.5zM389 -122q0 -89 -123 -135l-14 7q45 60 55 89q-30 0 -50 15t-20 40
q0 29 20 45.5t53 16.5q34 0 56.5 -21.5t22.5 -56.5z" />
    <glyph glyph-name="Lacute" unicode="&#x139;" horiz-adv-x="604" 
d="M567 226h7v-226h-556v6l72 66v518l-72 67v5h323v-5l-72 -67v-521h168zM58 704l-3 8l221 145l45 -127z" />
    <glyph glyph-name="lacute" unicode="&#x13a;" horiz-adv-x="287" 
d="M225 59l54 -53v-6h-268v6l54 53v532l-59 54v6q114 50 219 75v-667zM18 733l-3 8l221 145l45 -127z" />
    <glyph glyph-name="Lcommaaccent" unicode="&#x13b;" horiz-adv-x="604" 
d="M567 226h7v-226h-556v6l72 66v518l-72 67v5h323v-5l-72 -67v-521h168zM401 -122q0 -89 -123 -135l-14 7q45 60 55 89q-30 0 -50 15t-20 40q0 29 20 45.5t53 16.5q34 0 56.5 -21.5t22.5 -56.5z" />
    <glyph glyph-name="lcommaaccent" unicode="&#x13c;" horiz-adv-x="287" 
d="M225 59l54 -53v-6h-268v6l54 53v532l-59 54v6q114 50 219 75v-667zM226 -122q0 -89 -123 -135l-14 7q45 60 55 89q-30 0 -50 15t-20 40q0 29 20 45.5t53 16.5q34 0 56.5 -21.5t22.5 -56.5z" />
    <glyph glyph-name="Lcaron" unicode="&#x13d;" horiz-adv-x="604" 
d="M567 226h7v-226h-556v6l72 66v518l-72 67v5h323v-5l-72 -67v-521h168zM359 495l11 220h123l-127 -220h-7z" />
    <glyph glyph-name="lcaron" unicode="&#x13e;" horiz-adv-x="287" 
d="M225 59l54 -53v-6h-268v6l54 53v532l-59 54v6q114 50 219 75v-667zM262 495l11 220h123l-127 -220h-7z" />
    <glyph glyph-name="Ldot" unicode="&#x13f;" horiz-adv-x="604" 
d="M417 368q0 35 25 59t60 24q37 0 61 -24t24 -59t-24 -59t-61 -24q-35 0 -60 24t-25 59zM567 226h7v-226h-556v6l72 66v518l-72 67v5h323v-5l-72 -67v-521h168z" />
    <glyph glyph-name="ldot" unicode="&#x140;" horiz-adv-x="442" 
d="M281 333q0 35 25 59t60 24q37 0 61 -24t24 -59t-24 -59t-61 -24q-35 0 -60 24t-25 59zM225 59l54 -53v-6h-268v6l54 53v532l-59 54v6q114 50 219 75v-667z" />
    <glyph glyph-name="Lslash" unicode="&#x141;" horiz-adv-x="604" 
d="M567 226h7v-226h-556v6l72 66v127l-86 -44v67l86 45v323l-72 67v5h323v-5l-72 -67v-229l174 91v-71l-174 -90v-222h168z" />
    <glyph glyph-name="lslash" unicode="&#x142;" horiz-adv-x="287" 
d="M225 59l54 -53v-6h-268v6l54 53v193l-66 -39v68l66 39v271l-59 54v6q114 50 219 75v-311l66 39v-68l-66 -39v-288z" />
    <glyph glyph-name="Nacute" unicode="&#x143;" horiz-adv-x="779" 
d="M19 0v6l71 66v499l-81 86v5h247l354 -390v318l-100 67v5h255v-5l-71 -67v-590h-79l-440 480v-408l109 -66v-6h-265zM275 704l-3 8l221 145l45 -127z" />
    <glyph glyph-name="nacute" unicode="&#x144;" horiz-adv-x="577" 
d="M11 0v6l54 53v277l-53 49v6q90 35 213 65v-83q85 80 154 80q63 0 101 -37.5t38 -67.5v-289l53 -53v-6h-265v6l52 53v244q0 19 -17.5 33.5t-50.5 14.5q-38 0 -65 -24v-268l52 -53v-6h-266zM223 481l-7 4l89 229l112 -83z" />
    <glyph glyph-name="Ncommaaccent" unicode="&#x145;" horiz-adv-x="779" 
d="M19 0v6l71 66v499l-81 86v5h247l354 -390v318l-100 67v5h255v-5l-71 -67v-590h-79l-440 480v-408l109 -66v-6h-265zM470 -122q0 -89 -123 -135l-14 7q45 60 55 89q-30 0 -50 15t-20 40q0 29 20 45.5t53 16.5q34 0 56.5 -21.5t22.5 -56.5z" />
    <glyph glyph-name="ncommaaccent" unicode="&#x146;" horiz-adv-x="577" 
d="M11 0v6l54 53v277l-53 49v6q90 35 213 65v-83q85 80 154 80q63 0 101 -37.5t38 -67.5v-289l53 -53v-6h-265v6l52 53v244q0 19 -17.5 33.5t-50.5 14.5q-38 0 -65 -24v-268l52 -53v-6h-266zM379 -122q0 -89 -123 -135l-14 7q45 60 55 89q-30 0 -50 15t-20 40q0 29 20 45.5
t53 16.5q34 0 56.5 -21.5t22.5 -56.5z" />
    <glyph glyph-name="Ncaron" unicode="&#x147;" horiz-adv-x="779" 
d="M19 0v6l71 66v499l-81 86v5h247l354 -390v318l-100 67v5h255v-5l-71 -67v-590h-79l-440 480v-408l109 -66v-6h-265zM247 861l155 -49l155 49l4 -6l-159 -168l-159 168z" />
    <glyph glyph-name="ncaron" unicode="&#x148;" horiz-adv-x="577" 
d="M11 0v6l54 53v277l-53 49v6q90 35 213 65v-83q85 80 154 80q63 0 101 -37.5t38 -67.5v-289l53 -53v-6h-265v6l52 53v244q0 19 -17.5 33.5t-50.5 14.5q-38 0 -65 -24v-268l52 -53v-6h-266zM168 715l121 -87l121 87l7 -5l-128 -235l-128 235z" />
    <glyph glyph-name="napostrophe" unicode="&#x149;" horiz-adv-x="633" 
d="M67 0v6l54 53v277l-53 49v6q90 35 213 65v-83q85 80 154 80q63 0 101 -37.5t38 -67.5v-289l53 -53v-6h-265v6l52 53v244q0 19 -17.5 33.5t-50.5 14.5q-38 0 -65 -24v-268l52 -53v-6h-266zM148 599q0 -61 -37.5 -107t-96.5 -72l-16 5q51 83 61 135q-34 -3 -57.5 14.5
t-23.5 50.5q0 30 22 49.5t57 19.5q38 0 64.5 -25t26.5 -70z" />
    <glyph glyph-name="Eng" unicode="&#x14a;" horiz-adv-x="771" 
d="M686 81q0 -60 -63 -147t-173 -149l-11 8q84 132 84 223q0 40 -23.5 81t-95.5 124l-230 257v-406l109 -66v-6h-265v6l71 66v499q-8 9 -22 23.5t-23 24l-18 19t-14 14.5l-4 5v5h246l265 -297q72 -83 83 -110v335l-100 67v5h255v-5l-71 -67v-509z" />
    <glyph glyph-name="eng" unicode="&#x14b;" horiz-adv-x="562" 
d="M11 0v6l54 53v277l-53 49v6q90 35 213 65v-83q85 80 154 80q63 0 101 -37.5t38 -67.5v-307q0 -48 -51.5 -124t-155.5 -149l-8 8q55 128 55 253v274q0 19 -17.5 33.5t-50.5 14.5q-38 0 -65 -24v-268l52 -53v-6h-266z" />
    <glyph glyph-name="Omacron" unicode="&#x14c;" horiz-adv-x="768" 
d="M25 321q0 153 106.5 253.5t249.5 100.5q152 0 257 -91t105 -240q0 -105 -52 -188.5t-132 -126t-169 -42.5q-96 0 -178 38.5t-134.5 116t-52.5 179.5zM219 330q0 -117 53 -193t115 -76t112 75t50 194q0 121 -53.5 197.5t-114.5 76.5q-60 0 -111 -78t-51 -196zM244 794h279
v-86h-279v86z" />
    <glyph glyph-name="omacron" unicode="&#x14d;" horiz-adv-x="548" 
d="M20 215q0 109 80.5 173.5t174.5 64.5q44 0 87.5 -13.5t81 -39.5t61 -71.5t23.5 -102.5q0 -76 -42 -132.5t-99 -81.5t-116 -25q-43 0 -86 13.5t-80.5 39.5t-61 71.5t-23.5 103.5zM194 221q0 -69 24.5 -119t55.5 -50t56.5 51t25.5 118q0 73 -24.5 121t-57.5 48t-56.5 -49
t-23.5 -120zM150 600h247v-86h-247v86z" />
    <glyph glyph-name="Obreve" unicode="&#x14e;" horiz-adv-x="768" 
d="M25 321q0 153 106.5 253.5t249.5 100.5q152 0 257 -91t105 -240q0 -105 -52 -188.5t-132 -126t-169 -42.5q-96 0 -178 38.5t-134.5 116t-52.5 179.5zM219 330q0 -117 53 -193t115 -76t112 75t50 194q0 121 -53.5 197.5t-114.5 76.5q-60 0 -111 -78t-51 -196zM384 695
q-64 0 -96.5 43.5t-32.5 99.5l8 1q44 -55 121 -55t121 55l8 -1q0 -56 -32.5 -99.5t-96.5 -43.5z" />
    <glyph glyph-name="obreve" unicode="&#x14f;" horiz-adv-x="548" 
d="M20 215q0 109 80.5 173.5t174.5 64.5q44 0 87.5 -13.5t81 -39.5t61 -71.5t23.5 -102.5q0 -76 -42 -132.5t-99 -81.5t-116 -25q-43 0 -86 13.5t-80.5 39.5t-61 71.5t-23.5 103.5zM194 221q0 -69 24.5 -119t55.5 -50t56.5 51t25.5 118q0 73 -24.5 121t-57.5 48t-56.5 -49
t-23.5 -120zM274 581q61 0 105 71l8 -1q2 -67 -28 -113t-85 -46t-85 46t-28 113l8 1q45 -71 105 -71z" />
    <glyph glyph-name="Ohungarumlaut" unicode="&#x150;" horiz-adv-x="768" 
d="M25 321q0 153 106.5 253.5t249.5 100.5q152 0 257 -91t105 -240q0 -105 -52 -188.5t-132 -126t-169 -42.5q-96 0 -178 38.5t-134.5 116t-52.5 179.5zM219 330q0 -117 53 -193t115 -76t112 75t50 194q0 121 -53.5 197.5t-114.5 76.5q-60 0 -111 -78t-51 -196zM546 877
l70 -95l-209 -80l-5 8zM222 702l-5 8l144 167l71 -95z" />
    <glyph glyph-name="ohungarumlaut" unicode="&#x151;" horiz-adv-x="548" 
d="M20 215q0 109 80.5 173.5t174.5 64.5q44 0 87.5 -13.5t81 -39.5t61 -71.5t23.5 -102.5q0 -76 -42 -132.5t-99 -81.5t-116 -25q-43 0 -86 13.5t-80.5 39.5t-61 71.5t-23.5 103.5zM194 221q0 -69 24.5 -119t55.5 -50t56.5 51t25.5 118q0 73 -24.5 121t-57.5 48t-56.5 -49
t-23.5 -120zM338 481l-7 3l44 224l108 -48zM184 481l-7 3l44 224l108 -48z" />
    <glyph glyph-name="OE" unicode="&#x152;" horiz-adv-x="924" 
d="M849 451h6v-212h-6l-66 73h-141v-243h152l90 121h8v-190h-478q-174 0 -283.5 87t-109.5 229q0 150 113 248t274 98h463v-162h-6l-90 94h-133v-216h141zM418 591q-85 0 -144 -71.5t-59 -187.5q0 -113 61 -185t148 -72h39v516h-45z" />
    <glyph glyph-name="oe" unicode="&#x153;" horiz-adv-x="805" 
d="M20 215q0 109 79 173.5t170 64.5q104 0 171 -71q66 71 155 71q133 0 195 -183v-6h-273q2 -80 45 -123t124 -43q56 0 110 19l4 -7q-16 -25 -39.5 -48.5t-71 -47.5t-100.5 -24q-96 0 -152 64q-71 -67 -171 -67q-42 0 -84 13.5t-79 39.5t-60 71.5t-23 103.5zM194 221
q0 -69 23 -119t52 -50q28 0 52.5 51t24.5 118q0 77 -22.5 123t-54.5 46q-30 0 -52.5 -49.5t-22.5 -119.5zM589 393q-19 0 -39 -20t-28 -56h123q-3 40 -21 58t-35 18z" />
    <glyph glyph-name="Racute" unicode="&#x154;" horiz-adv-x="701" 
d="M18 0v6l72 66v518l-72 67v5h299q57 0 100.5 -7t82 -23.5t59 -48.5t20.5 -78q0 -90 -108 -152l101 -180q9 -16 18 -31t18 -27.5t16 -22.5t16.5 -20.5t14.5 -16.5t14.5 -15t12.5 -12t13 -12t11 -10v-6q-40 -8 -89 -8q-52 0 -89 8.5t-59.5 26.5t-33.5 34t-25 43l-103 206
h-38v-238l77 -66l1 -6h-329zM269 597v-226h94q14 0 32 33.5t18 77.5q0 59 -30.5 87t-74.5 28h-39zM182 704l-3 8l221 145l45 -127z" />
    <glyph glyph-name="racute" unicode="&#x155;" horiz-adv-x="410" 
d="M12 385v6q90 35 213 65v-101q60 100 90 100q35 0 89 -19l-49 -149q-65 34 -99 34q-19 0 -31 -7v-249l89 -59v-6h-303v6l54 54v276zM159 481l-7 4l89 229l112 -83z" />
    <glyph glyph-name="Rcommaaccent" unicode="&#x156;" horiz-adv-x="701" 
d="M18 0v6l72 66v518l-72 67v5h299q57 0 100.5 -7t82 -23.5t59 -48.5t20.5 -78q0 -90 -108 -152l101 -180q9 -16 18 -31t18 -27.5t16 -22.5t16.5 -20.5t14.5 -16.5t14.5 -15t12.5 -12t13 -12t11 -10v-6q-40 -8 -89 -8q-52 0 -89 8.5t-59.5 26.5t-33.5 34t-25 43l-103 206
h-38v-238l77 -66l1 -6h-329zM269 597v-226h94q14 0 32 33.5t18 77.5q0 59 -30.5 87t-74.5 28h-39zM455 -122q0 -89 -123 -135l-14 7q45 60 55 89q-30 0 -50 15t-20 40q0 29 20 45.5t53 16.5q34 0 56.5 -21.5t22.5 -56.5z" />
    <glyph glyph-name="rcommaaccent" unicode="&#x157;" horiz-adv-x="410" 
d="M12 385v6q90 35 213 65v-101q60 100 90 100q35 0 89 -19l-49 -149q-65 34 -99 34q-19 0 -31 -7v-249l89 -59v-6h-303v6l54 54v276zM238 -122q0 -89 -123 -135l-14 7q45 60 55 89q-30 0 -50 15t-20 40q0 29 20 45.5t53 16.5q34 0 56.5 -21.5t22.5 -56.5z" />
    <glyph glyph-name="Rcaron" unicode="&#x158;" horiz-adv-x="701" 
d="M18 0v6l72 66v518l-72 67v5h299q57 0 100.5 -7t82 -23.5t59 -48.5t20.5 -78q0 -90 -108 -152l101 -180q9 -16 18 -31t18 -27.5t16 -22.5t16.5 -20.5t14.5 -16.5t14.5 -15t12.5 -12t13 -12t11 -10v-6q-40 -8 -89 -8q-52 0 -89 8.5t-59.5 26.5t-33.5 34t-25 43l-103 206
h-38v-238l77 -66l1 -6h-329zM269 597v-226h94q14 0 32 33.5t18 77.5q0 59 -30.5 87t-74.5 28h-39zM161 861l155 -49l155 49l4 -6l-159 -168l-159 168z" />
    <glyph glyph-name="rcaron" unicode="&#x159;" horiz-adv-x="410" 
d="M12 385v6q90 35 213 65v-101q60 100 90 100q35 0 89 -19l-49 -149q-65 34 -99 34q-19 0 -31 -7v-249l89 -59v-6h-303v6l54 54v276zM115 715l121 -87l121 87l7 -5l-128 -235l-128 235z" />
    <glyph glyph-name="Sacute" unicode="&#x15a;" horiz-adv-x="501" 
d="M283 673q82 0 147 -15v-173h-9q-106 121 -160 121q-19 0 -34.5 -14t-15.5 -39q0 -33 19.5 -56.5t78.5 -69.5q49 -40 72.5 -60.5t49 -50.5t34.5 -59t9 -67q0 -86 -68.5 -143t-178.5 -57q-105 0 -184 34q-4 26 -7.5 102.5t-1.5 131.5h10q45 -93 92 -143t90 -50
q29 0 50.5 22.5t21.5 57.5q0 38 -21 65t-80 71q-79 61 -112 109t-33 106q0 84 64 130.5t167 46.5zM137 704l-3 8l221 145l45 -127z" />
    <glyph glyph-name="sacute" unicode="&#x15b;" horiz-adv-x="384" 
d="M226 453q40 0 108 -12v-123h-6q-86 77 -127 77q-12 0 -20.5 -8t-8.5 -20q0 -17 14.5 -30t53.5 -38q4 -3 24.5 -17t26 -18t21 -17t21 -21.5t14 -22t11.5 -28.5t3 -32q0 -68 -55 -110.5t-144 -42.5q-65 0 -127 23q-8 54 -8 171h8q14 -24 25 -39.5t29.5 -38t39 -34.5
t41.5 -12q20 0 30.5 11t10.5 27q0 20 -13.5 35t-50.5 38q-55 34 -81.5 68.5t-26.5 81.5q0 59 48.5 95.5t138.5 36.5zM132 481l-7 4l89 229l112 -83z" />
    <glyph glyph-name="Scircumflex" unicode="&#x15c;" horiz-adv-x="501" 
d="M283 673q82 0 147 -15v-173h-9q-106 121 -160 121q-19 0 -34.5 -14t-15.5 -39q0 -33 19.5 -56.5t78.5 -69.5q49 -40 72.5 -60.5t49 -50.5t34.5 -59t9 -67q0 -86 -68.5 -143t-178.5 -57q-105 0 -184 34q-4 26 -7.5 102.5t-1.5 131.5h10q45 -93 92 -143t90 -50
q29 0 50.5 22.5t21.5 57.5q0 38 -21 65t-80 71q-79 61 -112 109t-33 106q0 84 64 130.5t167 46.5zM258 863l159 -168l-4 -6l-155 49l-155 -49l-4 6z" />
    <glyph glyph-name="scircumflex" unicode="&#x15d;" horiz-adv-x="384" 
d="M226 453q40 0 108 -12v-123h-6q-86 77 -127 77q-12 0 -20.5 -8t-8.5 -20q0 -17 14.5 -30t53.5 -38q4 -3 24.5 -17t26 -18t21 -17t21 -21.5t14 -22t11.5 -28.5t3 -32q0 -68 -55 -110.5t-144 -42.5q-65 0 -127 23q-8 54 -8 171h8q14 -24 25 -39.5t29.5 -38t39 -34.5
t41.5 -12q20 0 30.5 11t10.5 27q0 20 -13.5 35t-50.5 38q-55 34 -81.5 68.5t-26.5 81.5q0 59 48.5 95.5t138.5 36.5zM197 715l128 -235l-7 -5l-121 87l-121 -87l-7 5z" />
    <glyph glyph-name="Scedilla" unicode="&#x15e;" horiz-adv-x="501" 
d="M283 673q82 0 147 -15v-173h-9q-106 121 -160 121q-19 0 -34.5 -14t-15.5 -39q0 -33 19.5 -56.5t78.5 -69.5q49 -40 72.5 -60.5t49 -50.5t34.5 -59t9 -67q0 -86 -68.5 -143t-178.5 -57q-105 0 -184 34q-4 26 -7.5 102.5t-1.5 131.5h10q45 -93 92 -143t90 -50
q29 0 50.5 22.5t21.5 57.5q0 38 -21 65t-80 71q-79 61 -112 109t-33 106q0 84 64 130.5t167 46.5zM250 0l-26 -52q45 -7 77.5 -29t32.5 -57q0 -48 -53 -81t-183 -33l-4 13q118 44 118 80q0 14 -21 24t-42 13l-2 3q4 8 14 28.5t15 30.5q29 56 29 60h45z" />
    <glyph glyph-name="scedilla" unicode="&#x15f;" horiz-adv-x="384" 
d="M226 453q40 0 108 -12v-123h-6q-86 77 -127 77q-12 0 -20.5 -8t-8.5 -20q0 -17 14.5 -30t53.5 -38q4 -3 24.5 -17t26 -18t21 -17t21 -21.5t14 -22t11.5 -28.5t3 -32q0 -68 -55 -110.5t-144 -42.5q-65 0 -127 23q-8 54 -8 171h8q14 -24 25 -39.5t29.5 -38t39 -34.5
t41.5 -12q20 0 30.5 11t10.5 27q0 20 -13.5 35t-50.5 38q-55 34 -81.5 68.5t-26.5 81.5q0 59 48.5 95.5t138.5 36.5zM211 0l-26 -52q45 -7 77.5 -29t32.5 -57q0 -48 -53 -81t-183 -33l-4 13q118 44 118 80q0 14 -21 24t-42 13l-2 3q4 8 14 28.5t15 30.5q29 56 29 60h45z" />
    <glyph glyph-name="Scaron" unicode="&#x160;" horiz-adv-x="501" 
d="M283 673q82 0 147 -15v-173h-9q-106 121 -160 121q-19 0 -34.5 -14t-15.5 -39q0 -33 19.5 -56.5t78.5 -69.5q49 -40 72.5 -60.5t49 -50.5t34.5 -59t9 -67q0 -86 -68.5 -143t-178.5 -57q-105 0 -184 34q-4 26 -7.5 102.5t-1.5 131.5h10q45 -93 92 -143t90 -50
q29 0 50.5 22.5t21.5 57.5q0 38 -21 65t-80 71q-79 61 -112 109t-33 106q0 84 64 130.5t167 46.5zM104 861l155 -49l155 49l4 -6l-159 -168l-159 168z" />
    <glyph glyph-name="scaron" unicode="&#x161;" horiz-adv-x="384" 
d="M226 453q40 0 108 -12v-123h-6q-86 77 -127 77q-12 0 -20.5 -8t-8.5 -20q0 -17 14.5 -30t53.5 -38q4 -3 24.5 -17t26 -18t21 -17t21 -21.5t14 -22t11.5 -28.5t3 -32q0 -68 -55 -110.5t-144 -42.5q-65 0 -127 23q-8 54 -8 171h8q14 -24 25 -39.5t29.5 -38t39 -34.5
t41.5 -12q20 0 30.5 11t10.5 27q0 20 -13.5 35t-50.5 38q-55 34 -81.5 68.5t-26.5 81.5q0 59 48.5 95.5t138.5 36.5zM75 715l121 -87l121 87l7 -5l-128 -235l-128 235z" />
    <glyph glyph-name="Tcommaaccent" unicode="&#x162;" horiz-adv-x="685" 
d="M661 662v-180h-7l-109 113h-111v-523l86 -66v-6h-357v6l88 66v523h-113l-107 -113h-7v180h637zM425 -122q0 -89 -123 -135l-14 7q45 60 55 89q-30 0 -50 15t-20 40q0 29 20 45.5t53 16.5q34 0 56.5 -21.5t22.5 -56.5z" />
    <glyph glyph-name="tcommaaccent" unicode="&#x163;" horiz-adv-x="408" 
d="M219 358v-200q0 -61 87 -61q43 0 76 11l4 -6q-16 -33 -66.5 -72.5t-116.5 -39.5q-69 0 -107.5 36t-38.5 81v251h-60v7l222 178v-105h200l-51 -80h-149zM285 -122q0 -89 -123 -135l-14 7q45 60 55 89q-30 0 -50 15t-20 40q0 29 20 45.5t53 16.5q34 0 56.5 -21.5
t22.5 -56.5z" />
    <glyph glyph-name="Tcaron" unicode="&#x164;" horiz-adv-x="685" 
d="M661 662v-180h-7l-109 113h-111v-523l86 -66v-6h-357v6l88 66v523h-113l-107 -113h-7v180h637zM187 861l155 -49l155 49l4 -6l-159 -168l-159 168z" />
    <glyph glyph-name="tcaron" unicode="&#x165;" horiz-adv-x="408" 
d="M219 358v-200q0 -61 87 -61q43 0 76 11l4 -6q-16 -33 -66.5 -72.5t-116.5 -39.5q-69 0 -107.5 36t-38.5 81v251h-60v7l222 178v-105h200l-51 -80h-149zM256 495l11 220h123l-127 -220h-7z" />
    <glyph glyph-name="Tbar" unicode="&#x166;" horiz-adv-x="685" 
d="M103 331v62h481v-62h-481zM661 662v-180h-7l-109 113h-111v-523l86 -66v-6h-357v6l88 66v523h-113l-107 -113h-7v180h637z" />
    <glyph glyph-name="tbar" unicode="&#x167;" horiz-adv-x="410" 
d="M-1 224v61h375v-61h-375zM221 358v-200q0 -61 87 -61q43 0 76 11l4 -6q-16 -33 -66.5 -72.5t-116.5 -39.5q-69 0 -107.5 36t-38.5 81v251h-60v7l222 178v-105h200l-51 -80h-149z" />
    <glyph glyph-name="Utilde" unicode="&#x168;" horiz-adv-x="768" 
d="M682 240q0 -27 -7.5 -57t-28.5 -65t-51.5 -62.5t-82.5 -46t-116 -18.5q-82 0 -144.5 22.5t-97 59t-51.5 77.5t-17 84v356l-71 67v5h340v-5l-87 -67v-345q0 -65 40 -110.5t132 -45.5q72 0 115 47t43 109v345l-86 67v5h241v-5l-71 -67v-350zM368 828q13 0 69 -9.5t73 -9.5
q32 0 78 46l7 -2q-14 -59 -42 -100.5t-52 -41.5q-14 0 -70 9t-72 9q-28 0 -78 -46l-7 2q14 58 42.5 100.5t51.5 42.5z" />
    <glyph glyph-name="utilde" unicode="&#x169;" horiz-adv-x="560" 
d="M2 385v6q88 36 211 65v-314q0 -51 57 -51q33 0 67 21v224l-65 49v6q68 28 225 65v-365l66 -42v-7l-88 -22q-72 -18 -138 -32v80q-84 -79 -148 -79q-65 0 -100.5 36.5t-35.5 70.5v240zM232 633q12 0 62 -13t63 -13q23 0 67 57l7 -2q-6 -67 -28.5 -110.5t-49.5 -43.5
q-15 0 -64 12.5t-62 12.5q-22 0 -69 -57l-7 2q8 60 32.5 107.5t48.5 47.5z" />
    <glyph glyph-name="Umacron" unicode="&#x16a;" horiz-adv-x="768" 
d="M682 240q0 -27 -7.5 -57t-28.5 -65t-51.5 -62.5t-82.5 -46t-116 -18.5q-82 0 -144.5 22.5t-97 59t-51.5 77.5t-17 84v356l-71 67v5h340v-5l-87 -67v-345q0 -65 40 -110.5t132 -45.5q72 0 115 47t43 109v345l-86 67v5h241v-5l-71 -67v-350zM286 794h279v-86h-279v86z" />
    <glyph glyph-name="umacron" unicode="&#x16b;" horiz-adv-x="560" 
d="M2 385v6q88 36 211 65v-314q0 -51 57 -51q33 0 67 21v224l-65 49v6q68 28 225 65v-365l66 -42v-7l-88 -22q-72 -18 -138 -32v80q-84 -79 -148 -79q-65 0 -100.5 36.5t-35.5 70.5v240zM147 600h247v-86h-247v86z" />
    <glyph glyph-name="Ubreve" unicode="&#x16c;" horiz-adv-x="768" 
d="M682 240q0 -27 -7.5 -57t-28.5 -65t-51.5 -62.5t-82.5 -46t-116 -18.5q-82 0 -144.5 22.5t-97 59t-51.5 77.5t-17 84v356l-71 67v5h340v-5l-87 -67v-345q0 -65 40 -110.5t132 -45.5q72 0 115 47t43 109v345l-86 67v5h241v-5l-71 -67v-350zM414 695q-64 0 -96.5 43.5
t-32.5 99.5l8 1q44 -55 121 -55t121 55l8 -1q0 -56 -32.5 -99.5t-96.5 -43.5z" />
    <glyph glyph-name="ubreve" unicode="&#x16d;" horiz-adv-x="560" 
d="M2 385v6q88 36 211 65v-314q0 -51 57 -51q33 0 67 21v224l-65 49v6q68 28 225 65v-365l66 -42v-7l-88 -22q-72 -18 -138 -32v80q-84 -79 -148 -79q-65 0 -100.5 36.5t-35.5 70.5v240zM278 581q61 0 105 71l8 -1q2 -67 -28 -113t-85 -46t-85 46t-28 113l8 1
q45 -71 105 -71z" />
    <glyph glyph-name="Uring" unicode="&#x16e;" horiz-adv-x="768" 
d="M682 240q0 -27 -7.5 -57t-28.5 -65t-51.5 -62.5t-82.5 -46t-116 -18.5q-82 0 -144.5 22.5t-97 59t-51.5 77.5t-17 84v356l-71 67v5h340v-5l-87 -67v-345q0 -65 40 -110.5t132 -45.5q72 0 115 47t43 109v345l-86 67v5h241v-5l-71 -67v-350zM382 772q0 -20 13.5 -34.5
t33.5 -14.5t33.5 14.5t13.5 34.5t-13.5 34.5t-33.5 14.5t-33.5 -14.5t-13.5 -34.5zM333 772q0 38 29 66t67 28t67 -28t29 -66q0 -39 -29 -66.5t-67 -27.5q-39 0 -67.5 27t-28.5 67z" />
    <glyph glyph-name="uring" unicode="&#x16f;" horiz-adv-x="560" 
d="M2 385v6q88 36 211 65v-314q0 -51 57 -51q33 0 67 21v224l-65 49v6q68 28 225 65v-365l66 -42v-7l-88 -22q-72 -18 -138 -32v80q-84 -79 -148 -79q-65 0 -100.5 36.5t-35.5 70.5v240zM231 581q0 -20 13.5 -34.5t33.5 -14.5t33.5 14.5t13.5 34.5t-13.5 34.5t-33.5 14.5
t-33.5 -14.5t-13.5 -34.5zM182 581q0 38 29 66t67 28t67 -28t29 -66q0 -39 -29 -66.5t-67 -27.5q-39 0 -67.5 27t-28.5 67z" />
    <glyph glyph-name="Uhungarumlaut" unicode="&#x170;" horiz-adv-x="768" 
d="M682 240q0 -27 -7.5 -57t-28.5 -65t-51.5 -62.5t-82.5 -46t-116 -18.5q-82 0 -144.5 22.5t-97 59t-51.5 77.5t-17 84v356l-71 67v5h340v-5l-87 -67v-345q0 -65 40 -110.5t132 -45.5q72 0 115 47t43 109v345l-86 67v5h241v-5l-71 -67v-350zM575 877l70 -95l-209 -80l-5 8z
M251 702l-5 8l144 167l71 -95z" />
    <glyph glyph-name="uhungarumlaut" unicode="&#x171;" horiz-adv-x="560" 
d="M2 385v6q88 36 211 65v-314q0 -51 57 -51q33 0 67 21v224l-65 49v6q68 28 225 65v-365l66 -42v-7l-88 -22q-72 -18 -138 -32v80q-84 -79 -148 -79q-65 0 -100.5 36.5t-35.5 70.5v240zM334 480l-7 3l44 224l108 -48zM180 480l-7 3l44 224l108 -48z" />
    <glyph glyph-name="Uogonek" unicode="&#x172;" horiz-adv-x="768" 
d="M343 -160q0 45 38.5 81.5t114.5 81.5q-43 -12 -100 -12q-82 0 -144.5 22.5t-97 59t-51.5 77.5t-17 84v356l-71 67v5h340v-5l-87 -67v-345q0 -65 40 -110.5t132 -45.5q72 0 115 47t43 109v345l-86 67v5h241v-5l-71 -67v-350q0 -115 -119 -219q-78 -68 -78 -126
q0 -26 17.5 -43t51.5 -17q27 0 55 7l4 -5q-17 -29 -61.5 -56t-98.5 -27q-51 0 -80.5 23.5t-29.5 62.5z" />
    <glyph glyph-name="uogonek" unicode="&#x173;" horiz-adv-x="560" 
d="M337 68q-84 -79 -148 -79q-65 0 -100.5 36.5t-35.5 70.5v240l-51 49v6q88 36 211 65v-314q0 -51 57 -51q33 0 67 21v224l-65 49v6q68 28 225 65v-365l66 -42v-7q-10 -3 -30.5 -8.5t-31.5 -7.5q-80 -20 -117 -28q-42 -57 -42 -105q0 -25 17.5 -41.5t51.5 -16.5q27 0 55 7
l4 -5q-17 -29 -61.5 -56t-98.5 -27q-51 0 -80.5 23.5t-29.5 62.5q0 78 137 149v79z" />
    <glyph glyph-name="Wcircumflex" unicode="&#x174;" horiz-adv-x="1010" 
d="M574 590l47 -108l50 108l-39 67v5h158v-5l-45 -67l-90 -185l75 -168l132 353l-44 67v5h192v-5l-63 -67l-228 -594h-44l-150 319l-139 -319h-44l-279 594l-63 67v5h300v-5l-47 -67l162 -349l70 157l-90 192l-60 67v5h284v-5zM568 863l159 -168l-4 -6l-155 49l-155 -49
l-4 6z" />
    <glyph glyph-name="wcircumflex" unicode="&#x175;" horiz-adv-x="724" 
d="M275 34q-2 -5 -5.5 -13.5t-4.5 -11.5q-4 -8 -5 -12h-39q-1 2 -3 7t-4 8q-2 4 -8.5 17.5t-10.5 22.5l-156 331l-48 51v6h258v-6l-41 -51l74 -167l55 130l-15 37l-42 51v6h251v-6l-48 -51l65 -167l61 167l-48 51v6h172v-6l-48 -51l-142 -353q-2 -5 -4 -10.5t-3.5 -9
t-2.5 -5.5q-1 -1 -2 -3.5t-1 -4.5h-39q-4 8 -7 13q-2 4 -16 34l-96 219zM398 715l128 -235l-7 -5l-121 87l-121 -87l-7 5z" />
    <glyph glyph-name="Ycircumflex" unicode="&#x176;" horiz-adv-x="638" 
d="M414 657v5h224v-5l-63 -67l-156 -256v-258l71 -70v-6h-323v6l71 70v237l-175 277l-63 67v5h334v-5l-71 -67l114 -186l108 180zM350 863l159 -168l-4 -6l-155 49l-155 -49l-4 6z" />
    <glyph glyph-name="ycircumflex" unicode="&#x177;" horiz-adv-x="460" 
d="M294 72q-82 -199 -95 -304h-158v6q91 68 166 244l-167 365l-48 51v6h272v-6l-48 -51l70 -166l61 166l-47 51v6h169v-6l-48 -51zM259 715l128 -235l-7 -5l-121 87l-121 -87l-7 5z" />
    <glyph glyph-name="Ydieresis" unicode="&#x178;" horiz-adv-x="638" 
d="M414 657v5h224v-5l-63 -67l-156 -256v-258l71 -70v-6h-323v6l71 70v237l-175 277l-63 67v5h334v-5l-71 -67l114 -186l108 180zM238 691q-32 0 -54 21t-22 53t22 53.5t54 21.5q31 0 53 -21.5t22 -53.5t-22 -53t-53 -21zM534 765q0 -32 -21.5 -53t-53.5 -21t-54 21t-22 53
t22 53.5t54 21.5t53.5 -21.5t21.5 -53.5z" />
    <glyph glyph-name="Zacute" unicode="&#x179;" horiz-adv-x="632" 
d="M251 73h220l122 165h8v-238h-582v9l341 586h-190l-115 -140h-7v207h547v-8zM207 704l-3 8l221 145l45 -127z" />
    <glyph glyph-name="zacute" unicode="&#x17a;" horiz-adv-x="440" 
d="M420 161v-161h-409v17l207 362h-101l-84 -84h-6v145h382v-17l-204 -355h115l94 93h6zM175 481l-7 4l89 229l112 -83z" />
    <glyph glyph-name="Zdotaccent" unicode="&#x17b;" horiz-adv-x="632" 
d="M251 73h220l122 165h8v-238h-582v9l341 586h-190l-115 -140h-7v207h547v-8zM247 769q0 33 23.5 55.5t56.5 22.5q34 0 57 -22.5t23 -55.5q0 -32 -23 -54t-57 -22q-33 0 -56.5 22t-23.5 54z" />
    <glyph glyph-name="zdotaccent" unicode="&#x17c;" horiz-adv-x="440" 
d="M420 161v-161h-409v17l207 362h-101l-84 -84h-6v145h382v-17l-204 -355h115l94 93h6zM141 569q0 33 23.5 55.5t56.5 22.5q34 0 57 -22.5t23 -55.5q0 -32 -23 -54t-57 -22q-33 0 -56.5 22t-23.5 54z" />
    <glyph glyph-name="Zcaron" unicode="&#x17d;" horiz-adv-x="632" 
d="M251 73h220l122 165h8v-238h-582v9l341 586h-190l-115 -140h-7v207h547v-8zM170 861l155 -49l155 49l4 -6l-159 -168l-159 168z" />
    <glyph glyph-name="zcaron" unicode="&#x17e;" horiz-adv-x="440" 
d="M420 161v-161h-409v17l207 362h-101l-84 -84h-6v145h382v-17l-204 -355h115l94 93h6zM104 715l121 -87l121 87l7 -5l-128 -235l-128 235z" />
    <glyph glyph-name="florin" unicode="&#x192;" horiz-adv-x="464" 
d="M144 403q2 12 3.5 26.5t2.5 23t2 13.5q12 90 82.5 148t171.5 58q60 0 113 -14l-49 -106h-5q-81 57 -103 57q-12 0 -24 -18.5t-17 -53.5q-9 -66 -17 -134h140l-43 -76h-106q-7 -49 -21 -164.5t-20 -152.5q-4 -18 -9.5 -35.5t-25 -49t-47 -54.5t-78.5 -43.5t-117 -26.5
l-14 109l4 2q71 -16 91 -16q17 0 24.5 22t17.5 96q9 63 36 313h-106v5l45 71h69z" />
    <glyph glyph-name="Aringacute" unicode="&#x1fa;" horiz-adv-x="664" 
d="M224 6v-6h-224v6l63 66l238 594h44l256 -594l63 -66v-6h-323v6l70 66l-45 105h-179l-38 -98zM213 242h125l-65 154zM277 782q0 -20 13.5 -34.5t33.5 -14.5t33.5 14.5t13.5 34.5t-13.5 34.5t-33.5 14.5t-33.5 -14.5t-13.5 -34.5zM228 782q0 38 29 66t67 28t67 -28t29 -66
q0 -39 -29 -66.5t-67 -27.5q-39 0 -67.5 27t-28.5 67zM212 885l-3 8l221 145l45 -127z" />
    <glyph glyph-name="aringacute" unicode="&#x1fb;" horiz-adv-x="485" 
d="M272 323q0 18 -17 30t-44 12q-21 0 -44 -10v-92l-136 49v6q112 135 240 135q44 0 77 -13t49 -32t23.5 -36.5t7.5 -32.5q0 -23 -1 -124.5t-1 -113.5q23 -13 64 -28v-7l-94 -91q-28 8 -63.5 29t-56.5 44q-29 -28 -61.5 -45t-54.5 -17q-63 0 -102.5 36.5t-39.5 87.5
q0 29 12.5 54t27.5 29q79 20 214 48v82zM271 83l1 15v40v49l-96 -25q-7 -5 -7 -25q0 -27 17 -43t49 -16q24 0 36 5zM178 577q0 -20 13.5 -34.5t33.5 -14.5t33.5 14.5t13.5 34.5t-13.5 34.5t-33.5 14.5t-33.5 -14.5t-13.5 -34.5zM129 577q0 38 29 66t67 28t67 -28t29 -66
q0 -39 -29 -66.5t-67 -27.5q-39 0 -67.5 27t-28.5 67zM148 668l-7 4l89 229l112 -83z" />
    <glyph glyph-name="AEacute" unicode="&#x1fc;" horiz-adv-x="888" 
d="M286 662h549v-162h-6l-90 94h-133v-217h141l66 73h6v-212h-6l-66 73h-141v-242h152l90 121h8v-190h-501v6l72 66v196h-172l-108 -189l75 -73v-6h-223v6l62 66l296 518l-71 67v5zM293 334h134v234zM468 704l-3 8l221 145l45 -127z" />
    <glyph glyph-name="aeacute" unicode="&#x1fd;" horiz-adv-x="695" 
d="M59 194q24 6 101.5 24.5t109.5 26.5v78q0 18 -16.5 30t-42.5 12q-21 0 -44 -10v-92l-136 49v6q112 135 237 135q68 0 104 -46q55 46 122 46q20 0 38 -3.5t33.5 -12t27.5 -16t24 -21t19.5 -22.5t16.5 -25t12.5 -23t11 -22.5t8.5 -18.5v-6l-265 -60q24 -126 161 -126
q52 0 109 20l4 -7q-16 -25 -39.5 -48.5t-71 -47.5t-100.5 -24q-100 0 -162 70q-28 -33 -70 -53.5t-84 -20.5q-64 0 -106.5 37t-42.5 87q0 29 13 54.5t28 29.5zM232 78q30 0 62 23q-21 41 -25 90q-65 -17 -93 -28q-7 -5 -7 -26q0 -27 16.5 -43t46.5 -16zM488 393
q-23 0 -46 -32t-25 -85l126 33q-3 40 -20 62t-35 22zM324 481l-7 4l89 229l112 -83z" />
    <glyph glyph-name="Oslashacute" unicode="&#x1fe;" horiz-adv-x="768" 
d="M25 321q0 153 106.5 253.5t249.5 100.5q92 0 167 -34l58 87l59 -35l-57 -86q63 -44 99 -111t36 -152q0 -105 -52 -188.5t-132 -126t-169 -42.5q-94 0 -172 37l-68 -102l-56 34l67 100q-136 93 -136 265zM549 330q0 80 -28 148l-238 -356q47 -61 104 -61q62 0 112 75
t50 194zM219 330q0 -81 27 -145l237 358q-47 61 -102 61q-60 0 -111 -78t-51 -196zM258 704l-3 8l221 145l45 -127z" />
    <glyph glyph-name="oslashacute" unicode="&#x1ff;" horiz-adv-x="548" 
d="M20 215q0 56 24 103t62 75.5t82 44.5t87 16q48 0 95 -16l42 71l49 -28l-40 -66q107 -63 107 -189q0 -76 -42 -132.5t-99 -81.5t-116 -25q-46 0 -97 17l-44 -74l-49 26l43 71q-104 62 -104 188zM365 221q0 51 -10 84l-134 -223q22 -30 53 -30q34 0 62.5 50.5t28.5 118.5z
M185 221q0 -44 9 -77l132 221q-22 25 -52 25q-35 0 -62 -49.5t-27 -119.5zM204 481l-7 4l89 229l112 -83z" />
    <glyph glyph-name="Scommaaccent" unicode="&#x218;" horiz-adv-x="501" 
d="M283 673q82 0 147 -15v-173h-9q-106 121 -160 121q-19 0 -34.5 -14t-15.5 -39q0 -33 19.5 -56.5t78.5 -69.5q49 -40 72.5 -60.5t49 -50.5t34.5 -59t9 -67q0 -86 -68.5 -143t-178.5 -57q-105 0 -184 34q-4 26 -7.5 102.5t-1.5 131.5h10q45 -93 92 -143t90 -50
q29 0 50.5 22.5t21.5 57.5q0 38 -21 65t-80 71q-79 61 -112 109t-33 106q0 84 64 130.5t167 46.5zM313 -122q0 -89 -123 -135l-14 7q45 60 55 89q-30 0 -50 15t-20 40q0 29 20 45.5t53 16.5q34 0 56.5 -21.5t22.5 -56.5z" />
    <glyph glyph-name="scommaaccent" unicode="&#x219;" horiz-adv-x="384" 
d="M226 453q40 0 108 -12v-123h-6q-86 77 -127 77q-12 0 -20.5 -8t-8.5 -20q0 -17 14.5 -30t53.5 -38q4 -3 24.5 -17t26 -18t21 -17t21 -21.5t14 -22t11.5 -28.5t3 -32q0 -68 -55 -110.5t-144 -42.5q-65 0 -127 23q-8 54 -8 171h8q14 -24 25 -39.5t29.5 -38t39 -34.5
t41.5 -12q20 0 30.5 11t10.5 27q0 20 -13.5 35t-50.5 38q-55 34 -81.5 68.5t-26.5 81.5q0 59 48.5 95.5t138.5 36.5zM260 -122q0 -89 -123 -135l-14 7q45 60 55 89q-30 0 -50 15t-20 40q0 29 20 45.5t53 16.5q34 0 56.5 -21.5t22.5 -56.5z" />
    <glyph glyph-name="uni021A" unicode="&#x21a;" horiz-adv-x="685" 
d="M661 662v-180h-7l-109 113h-111v-523l86 -66v-6h-357v6l88 66v523h-113l-107 -113h-7v180h637zM425 -122q0 -89 -123 -135l-14 7q45 60 55 89q-30 0 -50 15t-20 40q0 29 20 45.5t53 16.5q34 0 56.5 -21.5t22.5 -56.5z" />
    <glyph glyph-name="uni021B" unicode="&#x21b;" horiz-adv-x="408" 
d="M219 358v-200q0 -61 87 -61q43 0 76 11l4 -6q-16 -33 -66.5 -72.5t-116.5 -39.5q-69 0 -107.5 36t-38.5 81v251h-60v7l222 178v-105h200l-51 -80h-149zM285 -122q0 -89 -123 -135l-14 7q45 60 55 89q-30 0 -50 15t-20 40q0 29 20 45.5t53 16.5q34 0 56.5 -21.5
t22.5 -56.5z" />
    <glyph glyph-name="uni0237" unicode="&#x237;" horiz-adv-x="265" 
d="M2 388v7q51 23 213 65v-419q0 -48 -51.5 -124t-155.5 -149l-8 8q55 128 55 253v312z" />
    <glyph glyph-name="circumflex" unicode="&#x2c6;" 
d="M200 715l128 -235l-7 -5l-121 87l-121 -87l-7 5z" />
    <glyph glyph-name="caron" unicode="&#x2c7;" 
d="M79 715l121 -87l121 87l7 -5l-128 -235l-128 235z" />
    <glyph glyph-name="breve" unicode="&#x2d8;" 
d="M200 581q61 0 105 71l8 -1q2 -67 -28 -113t-85 -46t-85 46t-28 113l8 1q45 -71 105 -71z" />
    <glyph glyph-name="dotaccent" unicode="&#x2d9;" 
d="M120 569q0 33 23.5 55.5t56.5 22.5q34 0 57 -22.5t23 -55.5q0 -32 -23 -54t-57 -22q-33 0 -56.5 22t-23.5 54z" />
    <glyph glyph-name="ring" unicode="&#x2da;" 
d="M153 581q0 -20 13.5 -34.5t33.5 -14.5t33.5 14.5t13.5 34.5t-13.5 34.5t-33.5 14.5t-33.5 -14.5t-13.5 -34.5zM104 581q0 38 29 66t67 28t67 -28t29 -66q0 -39 -29 -66.5t-67 -27.5q-39 0 -67.5 27t-28.5 67z" />
    <glyph glyph-name="ogonek" unicode="&#x2db;" 
d="M175 -246q-51 0 -80.5 23.5t-29.5 62.5q0 83 159 160h35q-52 -61 -52 -105q0 -26 17.5 -43t51.5 -17q27 0 55 7l4 -5q-17 -29 -61.5 -56t-98.5 -27z" />
    <glyph glyph-name="tilde" unicode="&#x2dc;" 
d="M141 633q12 0 62 -13t63 -13q23 0 67 57l7 -2q-6 -67 -28.5 -110.5t-49.5 -43.5q-16 0 -65 12.5t-61 12.5q-22 0 -69 -57l-7 2q8 60 32.5 107.5t48.5 47.5z" />
    <glyph glyph-name="hungarumlaut" unicode="&#x2dd;" 
d="M208 480l-7 3l44 224l108 -48zM54 480l-7 3l44 224l108 -48z" />
    <glyph glyph-name="Wgrave" unicode="&#x1e80;" horiz-adv-x="1010" 
d="M574 590l47 -108l50 108l-39 67v5h158v-5l-45 -67l-90 -185l75 -168l132 353l-44 67v5h192v-5l-63 -67l-228 -594h-44l-150 319l-139 -319h-44l-279 594l-63 67v5h300v-5l-47 -67l162 -349l70 157l-90 192l-60 67v5h284v-5zM694 704l-262 26l43 127l222 -145z" />
    <glyph glyph-name="wgrave" unicode="&#x1e81;" horiz-adv-x="724" 
d="M275 34q-2 -5 -5.5 -13.5t-4.5 -11.5q-4 -8 -5 -12h-39q-1 2 -3 7t-4 8q-2 4 -8.5 17.5t-10.5 22.5l-156 331l-48 51v6h258v-6l-41 -51l74 -167l55 130l-15 37l-42 51v6h251v-6l-48 -51l65 -167l61 167l-48 51v6h172v-6l-48 -51l-142 -353q-2 -5 -4 -10.5t-3.5 -9
t-2.5 -5.5q-1 -1 -2 -3.5t-1 -4.5h-39q-4 8 -7 13q-2 4 -16 34l-96 219zM461 483l-194 150l112 83l89 -229z" />
    <glyph glyph-name="Wacute" unicode="&#x1e82;" horiz-adv-x="1010" 
d="M574 590l47 -108l50 108l-39 67v5h158v-5l-45 -67l-90 -185l75 -168l132 353l-44 67v5h192v-5l-63 -67l-228 -594h-44l-150 319l-139 -319h-44l-279 594l-63 67v5h300v-5l-47 -67l162 -349l70 157l-90 192l-60 67v5h284v-5zM447 704l-3 8l221 145l45 -127z" />
    <glyph glyph-name="wacute" unicode="&#x1e83;" horiz-adv-x="724" 
d="M275 34q-2 -5 -5.5 -13.5t-4.5 -11.5q-4 -8 -5 -12h-39q-1 2 -3 7t-4 8q-2 4 -8.5 17.5t-10.5 22.5l-156 331l-48 51v6h258v-6l-41 -51l74 -167l55 130l-15 37l-42 51v6h251v-6l-48 -51l65 -167l61 167l-48 51v6h172v-6l-48 -51l-142 -353q-2 -5 -4 -10.5t-3.5 -9
t-2.5 -5.5q-1 -1 -2 -3.5t-1 -4.5h-39q-4 8 -7 13q-2 4 -16 34l-96 219zM345 481l-7 4l89 229l112 -83z" />
    <glyph glyph-name="Wdieresis" unicode="&#x1e84;" horiz-adv-x="1010" 
d="M574 590l47 -108l50 108l-39 67v5h158v-5l-45 -67l-90 -185l75 -168l132 353l-44 67v5h192v-5l-63 -67l-228 -594h-44l-150 319l-139 -319h-44l-279 594l-63 67v5h300v-5l-47 -67l162 -349l70 157l-90 192l-60 67v5h284v-5zM464 691q-32 0 -54 21t-22 53t22 53.5t54 21.5
q31 0 53 -21.5t22 -53.5t-22 -53t-53 -21zM760 765q0 -32 -21.5 -53t-53.5 -21t-54 21t-22 53t22 53.5t54 21.5t53.5 -21.5t21.5 -53.5z" />
    <glyph glyph-name="wdieresis" unicode="&#x1e85;" horiz-adv-x="724" 
d="M275 34q-2 -5 -5.5 -13.5t-4.5 -11.5q-4 -8 -5 -12h-39q-1 2 -3 7t-4 8q-2 4 -8.5 17.5t-10.5 22.5l-156 331l-48 51v6h258v-6l-41 -51l74 -167l55 130l-15 37l-42 51v6h251v-6l-48 -51l65 -167l61 167l-48 51v6h172v-6l-48 -51l-142 -353q-2 -5 -4 -10.5t-3.5 -9
t-2.5 -5.5q-1 -1 -2 -3.5t-1 -4.5h-39q-4 8 -7 13q-2 4 -16 34l-96 219zM493 641q31 0 52.5 -21.5t21.5 -53.5t-21.5 -52.5t-52.5 -20.5q-32 0 -53.5 20.5t-21.5 52.5t21.5 53.5t53.5 21.5zM300 641q31 0 52.5 -21.5t21.5 -53.5t-21.5 -52.5t-52.5 -20.5q-32 0 -53.5 20.5
t-21.5 52.5t21.5 53.5t53.5 21.5z" />
    <glyph glyph-name="Ygrave" unicode="&#x1ef2;" horiz-adv-x="638" 
d="M414 657v5h224v-5l-63 -67l-156 -256v-258l71 -70v-6h-323v6l71 70v237l-175 277l-63 67v5h334v-5l-71 -67l114 -186l108 180zM472 704l-262 26l43 127l222 -145z" />
    <glyph glyph-name="ygrave" unicode="&#x1ef3;" horiz-adv-x="460" 
d="M294 72q-82 -199 -95 -304h-158v6q91 68 166 244l-167 365l-48 51v6h272v-6l-48 -51l70 -166l61 166l-47 51v6h169v-6l-48 -51zM320 483l-194 150l112 83l89 -229z" />
    <glyph glyph-name="uni2009" unicode="&#x2009;" horiz-adv-x="38" 
 />
    <glyph glyph-name="endash" unicode="&#x2013;" horiz-adv-x="543" 
d="M45 279h453v-62h-453v62z" />
    <glyph glyph-name="emdash" unicode="&#x2014;" horiz-adv-x="784" 
d="M45 279h694v-62h-694v62z" />
    <glyph glyph-name="quoteleft" unicode="&#x2018;" horiz-adv-x="222" 
d="M27 517q0 61 37.5 107t96.5 72l16 -5q-51 -83 -61 -135q34 3 57.5 -14.5t23.5 -50.5q0 -30 -22 -49.5t-57 -19.5q-38 0 -64.5 25t-26.5 70z" />
    <glyph glyph-name="quoteright" unicode="&#x2019;" horiz-adv-x="222" 
d="M195 599q0 -61 -37.5 -107t-96.5 -72l-16 5q51 83 61 135q-34 -3 -57.5 14.5t-23.5 50.5q0 30 22 49.5t57 19.5q38 0 64.5 -25t26.5 -70z" />
    <glyph glyph-name="quotesinglbase" unicode="&#x201a;" horiz-adv-x="232" 
d="M195 50q0 -61 -37.5 -107t-96.5 -72l-16 5q51 83 61 135q-34 -3 -57.5 14.5t-23.5 50.5q0 30 22 49.5t57 19.5q38 0 64.5 -25t26.5 -70z" />
    <glyph glyph-name="quotedblleft" unicode="&#x201c;" horiz-adv-x="422" 
d="M227 517q0 61 37.5 107t96.5 72l16 -5q-51 -83 -61 -135q34 3 57.5 -14.5t23.5 -50.5q0 -30 -22 -49.5t-57 -19.5q-38 0 -64.5 25t-26.5 70zM27 517q0 61 37.5 107t96.5 72l16 -5q-51 -83 -61 -135q34 3 57.5 -14.5t23.5 -50.5q0 -30 -22 -49.5t-57 -19.5q-38 0 -64.5 25
t-26.5 70z" />
    <glyph glyph-name="quotedblright" unicode="&#x201d;" horiz-adv-x="423" 
d="M396 599q0 -61 -37.5 -107t-96.5 -72l-16 5q51 83 61 135q-34 -3 -57.5 14.5t-23.5 50.5q0 30 22 49.5t57 19.5q38 0 64.5 -25t26.5 -70zM195 599q0 -61 -37.5 -107t-96.5 -72l-16 5q51 83 61 135q-34 -3 -57.5 14.5t-23.5 50.5q0 30 22 49.5t57 19.5q38 0 64.5 -25
t26.5 -70z" />
    <glyph glyph-name="quotedblbase" unicode="&#x201e;" horiz-adv-x="433" 
d="M396 50q0 -61 -37.5 -107t-96.5 -72l-16 5q51 83 61 135q-34 -3 -57.5 14.5t-23.5 50.5q0 30 22 49.5t57 19.5q38 0 64.5 -25t26.5 -70zM195 50q0 -61 -37.5 -107t-96.5 -72l-16 5q51 83 61 135q-34 -3 -57.5 14.5t-23.5 50.5q0 30 22 49.5t57 19.5q38 0 64.5 -25
t26.5 -70z" />
    <glyph glyph-name="dagger" unicode="&#x2020;" horiz-adv-x="425" 
d="M168 -128h-6v557h-148v6l71 73h77v89l91 107h6v-196h152v-6l-71 -73h-81v-450z" />
    <glyph glyph-name="daggerdbl" unicode="&#x2021;" horiz-adv-x="434" 
d="M419 497l-72 -74h-83v-165h155v-7l-72 -74h-83v-118l-93 -109h-6v227h-151v6l73 75h78v165h-151v6l73 74h78v99l93 109h6v-208h155v-6z" />
    <glyph glyph-name="bullet" unicode="&#x2022;" horiz-adv-x="413" 
d="M45 255q0 69 47 115.5t115 46.5t114.5 -46.5t46.5 -115.5t-46.5 -115.5t-114.5 -46.5t-115 46.5t-47 115.5z" />
    <glyph glyph-name="ellipsis" unicode="&#x2026;" horiz-adv-x="650" 
d="M448 67q0 35 25 59t60 24q37 0 61 -24t24 -59t-24 -59t-61 -24q-35 0 -60 24t-25 59zM241 67q0 35 25 59t60 24q37 0 61 -24t24 -59t-24 -59t-61 -24q-35 0 -60 24t-25 59zM32 67q0 35 25 59t60 24q37 0 61 -24t24 -59t-24 -59t-61 -24q-35 0 -60 24t-25 59z" />
    <glyph glyph-name="perthousand" unicode="&#x2030;" horiz-adv-x="1041" 
d="M873 -8q-70 0 -114 43t-44 111q0 66 45 111t113 45q70 0 114.5 -44t44.5 -112q0 -65 -45 -109.5t-114 -44.5zM789 146q0 -37 24 -64t60 -27q35 0 59 27t24 64q0 41 -23.5 67t-59.5 26q-37 0 -60.5 -26t-23.5 -67zM360 146q0 66 45 111t113 45q70 0 114.5 -44t44.5 -112
q0 -65 -45 -109.5t-114 -44.5q-70 0 -114 43t-44 111zM9 514q0 66 45 111t113 45q70 0 114.5 -44t44.5 -112q0 -65 -45 -109.5t-114 -44.5q-70 0 -114 43t-44 111zM544 662h81l-477 -662h-81zM518 55q35 0 59 27t24 64q0 41 -23.5 67t-59.5 26q-37 0 -60.5 -26t-23.5 -67
q0 -37 24 -64t60 -27zM167 607q-37 0 -60.5 -26t-23.5 -67q0 -37 24 -64t60 -27q35 0 59 27t24 64q0 41 -23.5 67t-59.5 26z" />
    <glyph glyph-name="uni2032" unicode="&#x2032;" horiz-adv-x="196" 
d="M178 686v-6l-120 -267h-18l3 273h135z" />
    <glyph glyph-name="uni2033" unicode="&#x2033;" horiz-adv-x="368" 
d="M350 686v-6l-120 -267h-18l3 273h135zM178 686v-6l-120 -267h-18l3 273h135z" />
    <glyph glyph-name="guilsinglleft" unicode="&#x2039;" horiz-adv-x="279" 
d="M40 226v8l181 174l15 -7l-59 -171l60 -171l-15 -7z" />
    <glyph glyph-name="guilsinglright" unicode="&#x203a;" horiz-adv-x="279" 
d="M239 234v-8l-182 -174l-15 7l60 171l-59 171l15 7z" />
    <glyph glyph-name="fraction" unicode="&#x2044;" horiz-adv-x="524" 
d="M445 662h79l-447 -662h-77z" />
    <glyph glyph-name="Euro" unicode="&#x20ac;" horiz-adv-x="676" 
d="M456 -11q-132 0 -229.5 69t-120.5 202h-81v57h75v14q0 28 2 37h-77v57h88q31 110 122.5 178.5t226.5 68.5q104 0 164 -20v-180h-9q-124 131 -185 131q-36 0 -75.5 -49t-54.5 -129h195v-57h-201v-19q0 -21 1 -32h200v-57h-193q19 -95 67.5 -147t92.5 -52q50 0 94 41.5
t70 87.5h9v-159q-86 -42 -181 -42z" />
    <glyph glyph-name="trademark" unicode="&#x2122;" horiz-adv-x="770" 
d="M740 656l-33 -35v-217l33 -31v-6h-161v6l32 31v163l-101 -180h-16l-95 177v-160l33 -31v-6h-107v6l34 31v208l-28 44v6h124l81 -153l84 153h120v-6zM10 662h299v-88h-7l-50 52h-44v-222l39 -31v-6h-176v6l40 31v222h-46l-48 -52h-7v88z" />
    <glyph glyph-name="onethird" unicode="&#x2153;" horiz-adv-x="564" 
d="M18 360v6l38 34v186l-40 28v6l162 55v-275l37 -34v-6h-197zM463 662h79l-447 -662h-77zM328 148q66 40 66 70q0 29 -30 29q-19 0 -40 -12l-9 7q40 67 118 67q41 0 60.5 -15t19.5 -37q0 -45 -90 -70q14 2 22 2q46 0 71.5 -20.5t25.5 -51.5q0 -47 -46.5 -79.5t-176.5 -45.5
l-4 11q92 47 92 99q0 36 -51 36q-15 0 -23 -2z" />
    <glyph glyph-name="twothirds" unicode="&#x2154;" horiz-adv-x="622" 
d="M520 662h79l-447 -662h-77zM270 503h8v-143h-256v22q63 71 86 106t23 61q0 20 -11.5 31t-29.5 11q-28 0 -54 -26l-11 6q36 98 132 98q48 0 75 -21t27 -60q0 -71 -139 -145h103zM385 148q66 40 66 70q0 29 -30 29q-19 0 -40 -12l-9 7q40 67 118 67q41 0 60.5 -15t19.5 -37
q0 -45 -90 -70q14 2 22 2q46 0 71.5 -20.5t25.5 -51.5q0 -47 -46.5 -79.5t-176.5 -45.5l-4 11q92 47 92 99q0 36 -51 36q-15 0 -23 -2z" />
    <glyph glyph-name="oneeighth" unicode="&#x215b;" horiz-adv-x="615" 
d="M18 360v6l38 34v186l-40 28v6l162 55v-275l37 -34v-6h-197zM463 662h79l-447 -662h-77zM446 309q62 0 96.5 -18.5t34.5 -46.5q0 -40 -72 -60q49 -29 67.5 -50.5t18.5 -49.5q0 -39 -42 -65t-107 -26q-64 0 -102 20t-38 49q0 44 83 68q-73 39 -73 92q0 41 39 64t95 23z
M476 62q0 7 -3 12.5t-16 15t-38 23.5q-17 -17 -17 -38q0 -36 41 -36q33 0 33 23zM416 249q0 -11 10.5 -19.5t48.5 -29.5q7 16 7 30q0 18 -10.5 28t-27.5 10q-28 0 -28 -19z" />
    <glyph glyph-name="threeeighths" unicode="&#x215c;" horiz-adv-x="609" 
d="M457 662h79l-447 -662h-77zM28 508q66 40 66 70q0 29 -30 29q-19 0 -40 -12l-9 7q40 67 118 67q41 0 60.5 -15t19.5 -37q0 -45 -90 -70q14 2 22 2q46 0 71.5 -20.5t25.5 -51.5q0 -47 -46.5 -79.5t-176.5 -45.5l-4 11q92 47 92 99q0 36 -51 36q-15 0 -23 -2zM441 309
q62 0 96.5 -18.5t34.5 -46.5q0 -40 -72 -60q49 -29 67.5 -50.5t18.5 -49.5q0 -39 -42 -65t-107 -26q-64 0 -102 20t-38 49q0 44 83 68q-73 39 -73 92q0 41 39 64t95 23zM471 62q0 7 -3 12.5t-16 15t-38 23.5q-17 -17 -17 -38q0 -36 41 -36q33 0 33 23zM411 249
q0 -11 10.5 -19.5t48.5 -29.5q7 16 7 30q0 18 -10.5 28t-27.5 10q-28 0 -28 -19z" />
    <glyph glyph-name="fiveeighths" unicode="&#x215d;" horiz-adv-x="604" 
d="M452 662h79l-447 -662h-77zM246 662l-38 -88h-120l-5 -20q87 -3 122.5 -28t35.5 -57q0 -46 -51.5 -78.5t-170.5 -40.5l-4 11q89 43 89 71q0 27 -82 32q6 21 25.5 95.5t27.5 102.5h171zM436 309q62 0 96.5 -18.5t34.5 -46.5q0 -40 -72 -60q49 -29 67.5 -50.5t18.5 -49.5
q0 -39 -42 -65t-107 -26q-64 0 -102 20t-38 49q0 44 83 68q-73 39 -73 92q0 41 39 64t95 23zM466 62q0 7 -3 12.5t-16 15t-38 23.5q-17 -17 -17 -38q0 -36 41 -36q33 0 33 23zM406 249q0 -11 10.5 -19.5t48.5 -29.5q7 16 7 30q0 18 -10.5 28t-27.5 10q-28 0 -28 -19z" />
    <glyph glyph-name="seveneighths" unicode="&#x215e;" horiz-adv-x="583" 
d="M431 662h79l-447 -662h-77zM50 662h218v-6l-138 -296h-65l100 214h-157zM415 309q62 0 96.5 -18.5t34.5 -46.5q0 -40 -72 -60q49 -29 67.5 -50.5t18.5 -49.5q0 -39 -42 -65t-107 -26q-64 0 -102 20t-38 49q0 44 83 68q-73 39 -73 92q0 41 39 64t95 23zM445 62
q0 7 -3 12.5t-16 15t-38 23.5q-17 -17 -17 -38q0 -36 41 -36q33 0 33 23zM385 249q0 -11 10.5 -19.5t48.5 -29.5q7 16 7 30q0 18 -10.5 28t-27.5 10q-28 0 -28 -19z" />
    <glyph glyph-name="minus" unicode="&#x2212;" horiz-adv-x="448" 
d="M34 217v62h380v-62h-380z" />
    <glyph glyph-name="uni24C5" unicode="&#x24c5;" horiz-adv-x="732" 
d="M366 624q-120 0 -199.5 -85t-79.5 -207q0 -120 81.5 -206t196.5 -86q119 0 199 84t80 208q0 119 -81 205.5t-197 86.5zM553 414q0 -57 -51 -85t-124 -31v16q58 26 58 90q0 31 -18.5 47t-44.5 16h-11v-255l53 -41v-6h-215v6l42 41v254l-42 38v6h210q68 0 105.5 -25.5
t37.5 -70.5zM366 674q141 0 240.5 -100.5t99.5 -241.5q0 -144 -98 -243t-242 -99q-145 0 -242.5 98.5t-97.5 243.5q0 144 98 243t242 99z" />
    <glyph glyph-name="W.001" horiz-adv-x="976" 
d="M564 668l155 -385l101 307l-73 67v5h221v-5l-63 -67l-195 -594h-44l-165 410l-156 -409h-44l-230 593l-63 67v5h327v-5l-73 -67l114 -307l144 385h44z" />
    <glyph glyph-name="w.001" horiz-adv-x="680" 
d="M268 37q-8 -18 -12 -26q-5 -8 -6 -14h-39q-2 6 -6 14q-2 4 -8.5 18.5t-11.5 25.5l-144 328l-48 51v6h261v-6l-41 -51l63 -164l95 231h39l99 -229l54 162l-48 51v6h172v-6l-48 -51l-130 -352q-6 -16 -9 -23q-1 -2 -4 -11h-39q-2 3 -4.5 9t-3.5 8l-15 33l-85 190z" />
    <glyph glyph-name="acute.uc" 
d="M71 704l-3 8l221 145l45 -127z" />
    <glyph glyph-name="breve.uc" 
d="M200 695q-64 0 -96.5 43.5t-32.5 99.5l8 1q44 -55 121 -55t121 55l8 -1q0 -56 -32.5 -99.5t-96.5 -43.5z" />
    <glyph glyph-name="circumflex.uc" 
d="M200 863l159 -168l-4 -6l-155 49l-155 -49l-4 6z" />
    <glyph glyph-name="dieresis.uc" 
d="M90 691q-32 0 -54 21t-22 53t22 53.5t54 21.5q31 0 53 -21.5t22 -53.5t-22 -53t-53 -21zM386 765q0 -32 -21.5 -53t-53.5 -21t-54 21t-22 53t22 53.5t54 21.5t53.5 -21.5t21.5 -53.5z" />
    <glyph glyph-name="grave.uc" 
d="M329 704l-262 26l43 127l222 -145z" />
    <glyph glyph-name="macron.uc" 
d="M61 794h279v-86h-279v86z" />
    <glyph glyph-name="ring.uc" 
d="M153 783q0 -20 13.5 -34.5t33.5 -14.5t33.5 14.5t13.5 34.5t-13.5 34.5t-33.5 14.5t-33.5 -14.5t-13.5 -34.5zM104 783q0 38 29 66t67 28t67 -28t29 -66q0 -39 -29 -66.5t-67 -27.5q-39 0 -67.5 27t-28.5 67z" />
    <glyph glyph-name="tilde.uc" 
d="M134 828q13 0 69 -9.5t73 -9.5q32 0 78 46l7 -2q-14 -59 -42 -100.5t-52 -41.5q-14 0 -70 9t-72 9q-28 0 -78 -46l-7 2q14 58 42.5 100.5t51.5 42.5z" />
    <glyph glyph-name="Cacute.pl" horiz-adv-x="668" 
d="M410 -11q-164 0 -274.5 90.5t-110.5 249.5q0 148 111.5 245.5t281.5 97.5q82 0 197 -24v-180h-9q-51 51 -112.5 92t-108.5 41q-55 0 -109 -71t-54 -181q0 -133 59.5 -210.5t135.5 -77.5q104 0 200 139h9v-173q-89 -38 -216 -38zM355 692l-8 2l5 194l141 -53z" />
    <glyph glyph-name="acute.ucpl" 
d="M160 692l-8 2l5 194l141 -53z" />
    <glyph glyph-name="acute.pl" 
d="M141 481l-7 1l6 225l128 -34z" />
    <glyph glyph-name="caron.uc" 
d="M45 861l155 -49l155 49l4 -6l-159 -168l-159 168z" />
    <glyph glyph-name="dotaccent.uc" 
d="M120 769q0 33 23.5 55.5t56.5 22.5q34 0 57 -22.5t23 -55.5q0 -32 -23 -54t-57 -22q-33 0 -56.5 22t-23.5 54z" />
    <glyph glyph-name="space_uni0326" 
d="M276 -122q0 -89 -123 -135l-14 7q45 60 55 89q-30 0 -50 15t-20 40q0 29 20 45.5t53 16.5q34 0 56.5 -21.5t22.5 -56.5z" />
    <glyph glyph-name="K.001" horiz-adv-x="755" 
d="M18 0v6l72 66v518l-72 67v5h324v-5l-72 -67v-518l72 -66v-6h-324zM665 -8q-49 0 -85 8t-60.5 25t-39.5 33.5t-33 43.5l-149 228v6l210 254l-72 67v5h263v-5l-95 -68l-152 -179l161 -235q75 -113 139 -169v-6q-30 -8 -87 -8z" />
    <glyph glyph-name="Kcommaaccent.001" horiz-adv-x="755" 
d="M18 0v6l72 66v518l-72 67v5h324v-5l-72 -67v-518l72 -66v-6h-324zM665 -8q-49 0 -85 8t-60.5 25t-39.5 33.5t-33 43.5l-149 228v6l210 254l-72 67v5h263v-5l-95 -68l-152 -179l161 -235q75 -113 139 -169v-6q-30 -8 -87 -8zM494 -122q0 -89 -123 -135l-14 7q45 60 55 89
q-30 0 -50 15t-20 40q0 29 20 45.5t53 16.5q34 0 56.5 -21.5t22.5 -56.5z" />
    <glyph glyph-name="caron.alt" 
d="M131 495l11 220h123l-127 -220h-7z" />
    <glyph glyph-name="Nacute.pl" horiz-adv-x="779" 
d="M19 0v6l71 66v499l-81 86v5h247l354 -390v318l-100 67v5h255v-5l-71 -67v-590h-79l-440 480v-408l109 -66v-6h-265zM387 692l-8 2l5 194l141 -53z" />
    <glyph glyph-name="Oacute.pl" horiz-adv-x="768" 
d="M25 321q0 153 106.5 253.5t249.5 100.5q152 0 257 -91t105 -240q0 -105 -52 -188.5t-132 -126t-169 -42.5q-96 0 -178 38.5t-134.5 116t-52.5 179.5zM219 330q0 -117 53 -193t115 -76t112 75t50 194q0 121 -53.5 197.5t-114.5 76.5q-60 0 -111 -78t-51 -196zM360 692
l-8 2l5 194l141 -53z" />
    <glyph glyph-name="hungarumlaut.uc" 
d="M329 877l70 -95l-209 -80l-5 8zM5 702l-5 8l144 167l71 -95z" />
    <glyph glyph-name="Q.long" horiz-adv-x="768" 
d="M949 -232q-159 0 -394 96q-160 64 -337 156q-84 42 -138.5 118t-54.5 183q0 153 106.5 253.5t249.5 100.5q152 0 257 -91t105 -240q0 -108 -55.5 -194t-152.5 -132q106 -46 245 -95q172 -59 364 -59q94 0 159 17l4 -8q-46 -39 -145.5 -72t-212.5 -33zM219 330
q0 -117 53 -193t115 -76t112 75t50 194q0 121 -53.5 197.5t-114.5 76.5q-60 0 -111 -78t-51 -196z" />
    <glyph glyph-name="Sacute.pl" horiz-adv-x="501" 
d="M283 673q82 0 147 -15v-173h-9q-106 121 -160 121q-19 0 -34.5 -14t-15.5 -39q0 -33 19.5 -56.5t78.5 -69.5q49 -40 72.5 -60.5t49 -50.5t34.5 -59t9 -67q0 -86 -68.5 -143t-178.5 -57q-105 0 -184 34q-4 26 -7.5 102.5t-1.5 131.5h10q45 -93 92 -143t90 -50
q29 0 50.5 22.5t21.5 57.5q0 38 -21 65t-80 71q-79 61 -112 109t-33 106q0 84 64 130.5t167 46.5zM232 692l-8 2l5 194l141 -53z" />
    <glyph glyph-name="Wacute.001" horiz-adv-x="976" 
d="M564 668l155 -385l101 307l-73 67v5h221v-5l-63 -67l-195 -594h-44l-165 410l-156 -409h-44l-230 593l-63 67v5h327v-5l-73 -67l114 -307l144 385h44zM417 704l-3 8l221 145l45 -127z" />
    <glyph glyph-name="Wcircumflex.001" horiz-adv-x="976" 
d="M564 668l155 -385l101 307l-73 67v5h221v-5l-63 -67l-195 -594h-44l-165 410l-156 -409h-44l-230 593l-63 67v5h327v-5l-73 -67l114 -307l144 385h44zM544 863l159 -168l-4 -6l-155 49l-155 -49l-4 6z" />
    <glyph glyph-name="Wdieresis.001" horiz-adv-x="976" 
d="M564 668l155 -385l101 307l-73 67v5h221v-5l-63 -67l-195 -594h-44l-165 410l-156 -409h-44l-230 593l-63 67v5h327v-5l-73 -67l114 -307l144 385h44zM431 691q-32 0 -54 21t-22 53t22 53.5t54 21.5q31 0 53 -21.5t22 -53.5t-22 -53t-53 -21zM727 765q0 -32 -21.5 -53
t-53.5 -21t-54 21t-22 53t22 53.5t54 21.5t53.5 -21.5t21.5 -53.5z" />
    <glyph glyph-name="Wgrave.001" horiz-adv-x="976" 
d="M564 668l155 -385l101 307l-73 67v5h221v-5l-63 -67l-195 -594h-44l-165 410l-156 -409h-44l-230 593l-63 67v5h327v-5l-73 -67l114 -307l144 385h44zM665 704l-262 26l43 127l222 -145z" />
    <glyph glyph-name="Zacute.pl" horiz-adv-x="632" 
d="M251 73h220l122 165h8v-238h-582v9l341 586h-190l-115 -140h-7v207h547v-8zM304 692l-8 2l5 194l141 -53z" />
    <glyph glyph-name="ampersand.uc" horiz-adv-x="769" 
d="M766 435q-22 -13 -39.5 -27.5t-29 -25t-27.5 -34.5t-23 -36t-28 -49.5t-31 -55.5q-5 -12 -20 -32q32 -36 72 -51t101 -15q20 0 56 4l2 -5q-38 -50 -97 -83.5t-121 -33.5q-65 0 -122 57q-79 -63 -192 -63q-115 0 -187.5 55.5t-72.5 138.5q0 69 49.5 118.5t121.5 77.5
q-38 43 -56 77t-18 74q0 60 60 104.5t144 44.5q79 0 131 -35t52 -85q0 -40 -36.5 -76t-89.5 -57q66 -74 156 -187q28 58 47 138l-70 62v5h268v-5zM408 110q-103 132 -193 227q-36 -46 -36 -107q0 -59 39.5 -99t105.5 -40q45 0 84 19zM332 457q33 41 33 85q0 35 -18.5 55.5
t-43.5 20.5q-22 0 -36.5 -14.5t-14.5 -33.5q0 -17 10.5 -34.5t19.5 -27t44 -44.5z" />
    <glyph glyph-name="at.uc" horiz-adv-x="894" 
d="M604 156q74 20 124.5 83.5t50.5 167.5q0 114 -67.5 186t-218.5 72q-107 0 -192.5 -58.5t-129 -145.5t-43.5 -181q0 -150 88.5 -237.5t236.5 -87.5q100 0 172 33t136 86l16 -19q-131 -163 -353 -163q-176 0 -289.5 101.5t-113.5 265.5q0 93 37 177t101.5 146t156.5 98.5
t197 36.5q177 0 273.5 -83t96.5 -203q0 -160 -123.5 -246.5t-316.5 -76.5l24 117q-35 -47 -83.5 -82t-82.5 -35q-28 0 -53 32t-25 81q0 121 93 201t211 80l156 46zM384 210q10 0 36 17.5t59 53.5l35 169q-55 -4 -98 -73t-43 -142q0 -25 11 -25z" />
    <glyph glyph-name="backslash.uc" horiz-adv-x="355" 
d="M17 745l59 17l262 -857l-59 -17z" />
    <glyph glyph-name="slash.uc" horiz-adv-x="354" 
d="M278 762l59 -17l-262 -857l-59 17z" />
    <glyph glyph-name="bar.uc" horiz-adv-x="264" 
d="M100 -112v864h64v-864h-64z" />
    <glyph glyph-name="braceleft.uc" horiz-adv-x="299" 
d="M182 25q0 -75 104 -125l-7 -11q-119 17 -173.5 56.5t-54.5 92.5q0 34 39.5 109.5t39.5 99.5q0 64 -110 68v33q111 4 111 68q0 22 -40 95.5t-40 107.5q0 52 55 90t173 53l7 -11q-104 -41 -104 -119q0 -28 27 -98.5t27 -100.5q0 -37 -34.5 -64.5t-105.5 -36.5
q72 -9 106 -37.5t34 -66.5q0 -29 -27 -102t-27 -101z" />
    <glyph glyph-name="braceright.uc" horiz-adv-x="299" 
d="M117 25q0 28 -27 101t-27 102q0 38 34 66.5t106 37.5q-71 9 -105.5 36.5t-34.5 64.5q0 30 27 100.5t27 98.5q0 78 -104 119l7 11q118 -15 173 -53t55 -90q0 -34 -40 -107.5t-40 -95.5q0 -64 111 -68v-33q-110 -4 -110 -68q0 -24 39.5 -99.5t39.5 -109.5
q0 -53 -54.5 -92.5t-173.5 -56.5l-7 11q104 50 104 125z" />
    <glyph glyph-name="bracketleft.uc" horiz-adv-x="296" 
d="M286 710h-81v-767h81v-39h-211v845h211v-39z" />
    <glyph glyph-name="bracketright.uc" horiz-adv-x="296" 
d="M91 710h-81v39h211v-845h-211v39h81v767z" />
    <glyph glyph-name="cacute.pl" horiz-adv-x="455" 
d="M292 455q27 0 54 -2t48.5 -4.5t22.5 -2.5v-151h-9q-105 93 -152 93q-28 0 -56.5 -36.5t-28.5 -94.5q0 -67 41 -111.5t116 -44.5q72 0 109 20l7 -8q-26 -44 -77.5 -83.5t-121.5 -39.5q-94 0 -159 61t-65 160q0 106 75.5 175t195.5 69zM232 481l-7 1l6 225l128 -34z" />
    <glyph glyph-name="space_uni0326.alt" 
d="M124 572q0 89 123 135l14 -8q-45 -61 -55 -88q30 0 50 -15t20 -40q0 -29 -20.5 -45.5t-53.5 -16.5q-34 0 -56 21.5t-22 56.5z" />
    <glyph glyph-name="divide.lin" horiz-adv-x="474" 
d="M161 126q0 32 22 53.5t54 21.5q33 0 54.5 -21.5t21.5 -53.5q0 -31 -21.5 -52t-54.5 -21q-32 0 -54 21t-22 52zM161 462q0 32 22 53.5t54 21.5q33 0 54.5 -21.5t21.5 -53.5q0 -30 -21.5 -51t-54.5 -21q-32 0 -54 21t-22 51zM34 328h406v-62h-406v62z" />
    <glyph glyph-name="eight.den" horiz-adv-x="305" 
d="M150 309q62 0 96.5 -18.5t34.5 -46.5q0 -40 -72 -60q49 -29 67.5 -50.5t18.5 -49.5q0 -39 -42 -65t-107 -26q-64 0 -102 20t-38 49q0 44 83 68q-73 39 -73 92q0 41 39 64t95 23zM180 62q0 7 -3 12.5t-16 15t-38 23.5q-17 -17 -17 -38q0 -36 41 -36q33 0 33 23zM120 249
q0 -11 10.5 -19.5t48.5 -29.5q7 16 7 30q0 18 -10.5 28t-27.5 10q-28 0 -28 -19z" />
    <glyph glyph-name="eight.lin" horiz-adv-x="540" 
d="M272 675q105 0 166 -41t61 -95q0 -88 -141 -154q90 -71 125 -117t35 -102q0 -73 -69.5 -126t-189.5 -53q-113 0 -178.5 41.5t-65.5 104.5q0 103 160 172q-79 61 -109 105t-30 99q0 77 69 121.5t167 44.5zM352 124q0 29 -24.5 57.5t-107.5 91.5q-52 -59 -52 -120
q0 -39 26.5 -65.5t68.5 -26.5q38 0 63.5 17.5t25.5 45.5zM195 553q0 -28 23 -53t100 -84q34 48 34 101q0 43 -24 67t-60 24q-30 0 -51.5 -16t-21.5 -39z" />
    <glyph glyph-name="eight.num" horiz-adv-x="305" 
d="M150 669q62 0 96.5 -18.5t34.5 -46.5q0 -40 -72 -60q49 -29 67.5 -50.5t18.5 -49.5q0 -39 -42 -65t-107 -26q-64 0 -102 20t-38 49q0 44 83 68q-73 39 -73 92q0 41 39 64t95 23zM180 422q0 7 -3 12.5t-16 15t-38 23.5q-17 -17 -17 -38q0 -36 41 -36q33 0 33 23zM120 609
q0 -11 10.5 -19.5t48.5 -29.5q7 16 7 30q0 18 -10.5 28t-27.5 10q-28 0 -28 -19z" />
    <glyph glyph-name="eight.sub" horiz-adv-x="305" 
d="M150 197q62 0 96.5 -18.5t34.5 -46.5q0 -40 -72 -60q49 -29 67.5 -50.5t18.5 -49.5q0 -39 -42 -65t-107 -26q-64 0 -102 20t-38 49q0 44 83 68q-73 39 -73 92q0 41 39 64t95 23zM180 -50q0 7 -3 12.5t-16 15t-38 23.5q-17 -17 -17 -38q0 -36 41 -36q33 0 33 23zM120 137
q0 -11 10.5 -19.5t48.5 -29.5q7 16 7 30q0 18 -10.5 28t-27.5 10q-28 0 -28 -19z" />
    <glyph glyph-name="eight.sup" horiz-adv-x="305" 
d="M150 722q62 0 96.5 -18.5t34.5 -46.5q0 -40 -72 -60q49 -29 67.5 -50.5t18.5 -49.5q0 -39 -42 -65t-107 -26q-64 0 -102 20t-38 49q0 44 83 68q-73 39 -73 92q0 41 39 64t95 23zM180 475q0 7 -3 12.5t-16 15t-38 23.5q-17 -17 -17 -38q0 -36 41 -36q33 0 33 23zM120 662
q0 -11 10.5 -19.5t48.5 -29.5q7 16 7 30q0 18 -10.5 28t-27.5 10q-28 0 -28 -19z" />
    <glyph glyph-name="emdash.uc" horiz-adv-x="784" 
d="M45 344h694v-62h-694v62z" />
    <glyph glyph-name="endash.uc" horiz-adv-x="543" 
d="M45 344h453v-62h-453v62z" />
    <glyph glyph-name="equal.lin" horiz-adv-x="470" 
d="M40 204v60h383v-60h-383zM40 319v60h383v-60h-383z" />
    <glyph glyph-name="exclamdown.uc" horiz-adv-x="254" 
d="M33 0q49 288 82 463h24q30 -153 82 -463h-188zM212 595q0 -35 -25 -59t-60 -24q-37 0 -61 24t-24 59t24 59t61 24q35 0 60 -24t25 -59z" />
    <glyph glyph-name="f.short" horiz-adv-x="360" 
d="M325 6v-6h-313v6l54 53v303h-78v6l78 65v20q0 114 84.5 188.5t207.5 74.5q48 0 90 -11l-49 -116q-81 55 -110 55q-11 0 -25 -12.5t-26 -44.5t-12 -74v-75h149l-50 -76h-99v-298z" />
    <glyph glyph-name="f_f.short" horiz-adv-x="646" 
d="M281 6v-6h-269v6l54 53v303h-78v6l78 65v20q0 112 84 187.5t196 75.5q43 0 76 -9l-45 -102q-73 39 -94 39q-11 0 -23.5 -12t-23 -43.5t-10.5 -75.5v-75h126v15q0 114 84.5 188.5t207.5 74.5q48 0 90 -11l-49 -116q-81 55 -110 55q-11 0 -25 -12.5t-26 -44.5t-12 -74v-75
h151l-50 -76h-101v-298l99 -58v-6h-313v6l54 53v303h-126v-303z" />
    <glyph glyph-name="f_f_k.001" horiz-adv-x="1152" 
d="M281 6v-6h-269v6l54 53v303h-78v6l78 65v20q0 112 85 187.5t195 75.5q43 0 76 -9l-45 -102q-73 39 -94 39q-11 0 -23.5 -12t-23 -43.5t-10.5 -75.5v-75h125v15q0 115 89 189t217 74q90 0 155 -19v-638l48 -53v-6h-260v6l52 53v577q-17 10 -41 10q-41 0 -70.5 -34
t-29.5 -96v-78h121l-48 -76h-73v-303l67 -53v-6h-281v6l54 53v303h-125v-303zM822 203l112 170l-63 62v5h262v-8l-110 -62l-62 -70l137 -241l53 -53v-6h-263v6l42 53l-82 144h-26z" />
    <glyph glyph-name="f_k.001" horiz-adv-x="863" 
d="M292 6v-6h-281v6l54 53v303h-78v6l78 65v20q0 115 89 189t217 74q90 0 155 -19v-638l48 -53v-6h-260v6l52 53v577q-17 10 -41 10q-41 0 -70.5 -34t-29.5 -96v-78h121l-48 -76h-73v-303zM536 203l112 170l-63 62v5h262v-8l-110 -62l-62 -70l137 -241l53 -53v-6h-263v6
l42 53l-82 144h-26z" />
    <glyph glyph-name="five.den" horiz-adv-x="248" 
d="M239 302l-38 -88h-120l-5 -20q87 -3 122.5 -28t35.5 -57q0 -46 -51.5 -78.5t-170.5 -40.5l-4 11q89 43 89 71q0 27 -82 32q6 21 25.5 95.5t27.5 102.5h171z" />
    <glyph glyph-name="five.num" horiz-adv-x="248" 
d="M236 662l-38 -88h-120l-5 -20q87 -3 122.5 -28t35.5 -57q0 -46 -51.5 -78.5t-170.5 -40.5l-4 11q89 43 89 71q0 27 -82 32q6 21 25.5 95.5t27.5 102.5h171z" />
    <glyph glyph-name="five.lin" horiz-adv-x="444" 
d="M415 662l-57 -134h-222l-14 -52q148 -25 217.5 -85.5t69.5 -138.5q0 -88 -94.5 -165t-299.5 -107l-6 14q102 51 159.5 107t57.5 102q0 35 -33.5 63t-74 42.5t-89.5 23.5q6 26 42 161.5t44 168.5h300z" />
    <glyph glyph-name="five.sub" horiz-adv-x="248" 
d="M239 190l-38 -88h-120l-5 -20q87 -3 122.5 -28t35.5 -57q0 -46 -51.5 -78.5t-170.5 -40.5l-4 11q89 43 89 71q0 27 -82 32q6 21 25.5 95.5t27.5 102.5h171z" />
    <glyph glyph-name="five.sup" horiz-adv-x="248" 
d="M239 715l-38 -88h-120l-5 -20q87 -3 122.5 -28t35.5 -57q0 -46 -51.5 -78.5t-170.5 -40.5l-4 11q89 43 89 71q0 27 -82 32q6 21 25.5 95.5t27.5 102.5h171z" />
    <glyph glyph-name="four.den" horiz-adv-x="295" 
d="M277 6v-6h-189v6l38 34v30h-129v18l140 216h102v-171h62l-39 -63h-23v-30zM126 133v93l-59 -93h59z" />
    <glyph glyph-name="four.lin" horiz-adv-x="576" 
d="M517 6v-6h-320v6l72 65v97h-275v10l317 484h134v-385h126l-57 -109h-69v-96zM269 277v209l-133 -209h133z" />
    <glyph glyph-name="four.num" horiz-adv-x="297" 
d="M275 366v-6h-189v6l38 34v30h-129v18l140 216h102v-171h62l-39 -63h-23v-30zM124 493v93l-59 -93h59z" />
    <glyph glyph-name="four.sub" horiz-adv-x="295" 
d="M277 -106v-6h-189v6l38 34v30h-129v18l140 216h102v-171h62l-39 -63h-23v-30zM126 21v93l-59 -93h59z" />
    <glyph glyph-name="four.sup" horiz-adv-x="295" 
d="M277 419v-6h-189v6l38 34v30h-129v18l140 216h102v-171h62l-39 -63h-23v-30zM126 546v93l-59 -93h59z" />
    <glyph glyph-name="greater.lin" horiz-adv-x="436" 
d="M43 189l282 107l-282 108v64l358 -143v-59l-358 -141v64z" />
    <glyph glyph-name="guillemotleft.uc" horiz-adv-x="459" 
d="M400 115l-172 176v8l172 174l17 -7l-58 -171l58 -173zM40 291v8l172 174l17 -7l-58 -171l58 -173l-17 -7z" />
    <glyph glyph-name="guillemotright.uc" horiz-adv-x="459" 
d="M231 291l-172 -176l-17 7l58 173l-58 171l17 7l172 -174v-8zM419 299v-8l-172 -176l-17 7l58 173l-58 171l17 7z" />
    <glyph glyph-name="guilsinglleft.uc" horiz-adv-x="279" 
d="M40 291v8l181 174l15 -7l-59 -171l60 -171l-15 -7z" />
    <glyph glyph-name="guilsinglright.uc" horiz-adv-x="279" 
d="M239 299v-8l-182 -174l-15 7l60 171l-59 171l15 7z" />
    <glyph glyph-name="hyphen.uc" horiz-adv-x="293" 
d="M40 373h213v-121h-213v121z" />
    <glyph glyph-name="idotaccent" horiz-adv-x="287" 
d="M11 0v6l54 53v277l-53 49v6q90 35 213 65v-397l54 -53v-6h-268zM61 570q0 34 24 57t58 23q35 0 58.5 -23t23.5 -57t-23.5 -56.5t-58.5 -22.5q-34 0 -58 23t-24 56z" />
    <glyph glyph-name="k.001" horiz-adv-x="559" 
d="M219 59l48 -53v-6h-261v6l53 53v532l-59 54v6q119 50 219 75v-667zM229 203l112 170l-63 62v5h262v-8l-110 -62l-62 -70l137 -241l53 -53v-6h-263v6l42 53l-82 144h-26z" />
    <glyph glyph-name="kcommaaccent.001" horiz-adv-x="559" 
d="M219 59l48 -53v-6h-261v6l53 53v532l-59 54v6q119 50 219 75v-667zM229 203l112 170l-63 62v5h262v-8l-110 -62l-62 -70l137 -241l53 -53v-6h-263v6l42 53l-82 144h-26zM364 -122q0 -89 -123 -135l-14 7q45 60 55 89q-30 0 -50 15t-20 40q0 29 20 45.5t53 16.5
q34 0 56.5 -21.5t22.5 -56.5z" />
    <glyph glyph-name="less.lin" horiz-adv-x="436" 
d="M393 125l-358 141v59l358 143v-64l-282 -108l282 -107v-64z" />
    <glyph glyph-name="minus.lin" horiz-adv-x="448" 
d="M34 267v62h380v-62h-380z" />
    <glyph glyph-name="multiply.lin" horiz-adv-x="415" 
d="M34 157l131 139l-130 138l46 46l128 -137l127 136l45 -43l-130 -138l130 -139l-45 -44l-129 136l-128 -136z" />
    <glyph glyph-name="nacute.pl" horiz-adv-x="577" 
d="M11 0v6l54 53v277l-53 49v6q90 35 213 65v-83q85 80 154 80q63 0 101 -37.5t38 -67.5v-289l53 -53v-6h-265v6l52 53v244q0 19 -17.5 33.5t-50.5 14.5q-38 0 -65 -24v-268l52 -53v-6h-266zM273 481l-7 1l6 225l128 -34z" />
    <glyph glyph-name="nine.den" horiz-adv-x="335" 
d="M75 6q68 45 93 88t25 94q0 28 -5 47t-11.5 26.5t-13.5 7.5q-10 0 -17.5 -16t-7.5 -41q0 -22 9.5 -37t28.5 -15l2 -9q-8 -14 -30 -28t-50 -14q-38 0 -62.5 24.5t-24.5 63.5q0 49 41 80.5t106 31.5q70 0 117.5 -34t47.5 -94q0 -155 -243 -186z" />
    <glyph glyph-name="nine.num" horiz-adv-x="335" 
d="M75 366q68 45 93 88t25 94q0 28 -5 47t-11.5 26.5t-13.5 7.5q-10 0 -17.5 -16t-7.5 -41q0 -22 9.5 -37t28.5 -15l2 -9q-8 -14 -30 -28t-50 -14q-38 0 -62.5 24.5t-24.5 63.5q0 49 41 80.5t106 31.5q70 0 117.5 -34t47.5 -94q0 -155 -243 -186z" />
    <glyph glyph-name="nine.lin" horiz-adv-x="580" 
d="M95 1q271 168 271 423q0 84 -32.5 140.5t-65.5 56.5q-25 0 -46.5 -38t-21.5 -92q0 -55 26.5 -89t69.5 -34q18 0 34 4l5 -8q-11 -17 -27 -33t-50 -32.5t-71 -16.5q-73 0 -120 48.5t-47 131.5q0 95 73.5 158.5t175.5 63.5q51 0 99 -16t90.5 -47.5t68.5 -88t26 -129.5
q0 -90 -36.5 -164.5t-100 -125t-143 -82.5t-170.5 -44z" />
    <glyph glyph-name="nine.sub" horiz-adv-x="335" 
d="M75 -106q68 45 93 88t25 94q0 28 -5 47t-11.5 26.5t-13.5 7.5q-10 0 -17.5 -16t-7.5 -41q0 -22 9.5 -37t28.5 -15l2 -9q-8 -14 -30 -28t-50 -14q-38 0 -62.5 24.5t-24.5 63.5q0 49 41 80.5t106 31.5q70 0 117.5 -34t47.5 -94q0 -155 -243 -186z" />
    <glyph glyph-name="nine.sup" horiz-adv-x="335" 
d="M75 419q68 45 93 88t25 94q0 28 -5 47t-11.5 26.5t-13.5 7.5q-10 0 -17.5 -16t-7.5 -41q0 -22 9.5 -37t28.5 -15l2 -9q-8 -14 -30 -28t-50 -14q-38 0 -62.5 24t-24.5 64q0 49 41 80.5t106 31.5q70 0 117.5 -34t47.5 -94q0 -155 -243 -186z" />
    <glyph glyph-name="oacute.pl" horiz-adv-x="548" 
d="M20 215q0 109 80.5 173.5t174.5 64.5q44 0 87.5 -13.5t81 -39.5t61 -71.5t23.5 -102.5q0 -76 -42 -132.5t-99 -81.5t-116 -25q-43 0 -86 13.5t-80.5 39.5t-61 71.5t-23.5 103.5zM194 221q0 -69 24.5 -119t55.5 -50t56.5 51t25.5 118q0 73 -24.5 121t-57.5 48t-56.5 -49
t-23.5 -120zM256 481l-7 1l6 225l128 -34z" />
    <glyph glyph-name="one.den" horiz-adv-x="211" 
d="M10 0v6l38 34v186l-40 28v6l162 55v-275l37 -34v-6h-197z" />
    <glyph glyph-name="one.num" horiz-adv-x="211" 
d="M10 360v6l38 34v186l-40 28v6l162 55v-275l37 -34v-6h-197z" />
    <glyph glyph-name="one.lin" horiz-adv-x="367" 
d="M18 0v6l76 66v467l-76 47v5l256 91v-610l76 -66v-6h-332z" />
    <glyph glyph-name="one.sub" horiz-adv-x="211" 
d="M10 -112v6l38 34v186l-40 28v6l162 55v-275l37 -34v-6h-197z" />
    <glyph glyph-name="one.sup" horiz-adv-x="211" 
d="M10 413v6l38 34v186l-40 28v6l162 55v-275l37 -34v-6h-197z" />
    <glyph glyph-name="two.den" horiz-adv-x="290" 
d="M260 143h8v-143h-256v22q63 71 86 106t23 61q0 20 -11.5 31t-29.5 11q-28 0 -54 -26l-11 6q36 98 132 98q48 0 75 -21t27 -60q0 -71 -139 -145h103z" />
    <glyph glyph-name="three.den" horiz-adv-x="244" 
d="M18 148q66 40 66 70q0 29 -30 29q-19 0 -40 -12l-9 7q40 67 118 67q41 0 60.5 -15t19.5 -37q0 -45 -90 -70q14 2 22 2q46 0 71.5 -20.5t25.5 -51.5q0 -47 -46.5 -79.5t-176.5 -45.5l-4 11q92 47 92 99q0 36 -51 36q-15 0 -23 -2z" />
    <glyph glyph-name="parenleft.uc" horiz-adv-x="329" 
d="M199 335q0 -229 128 -437l-16 -6q-39 29 -69.5 55.5t-67.5 69t-61.5 86.5t-41.5 105t-17 127q0 75 24 144.5t64 123t81.5 92t87.5 69.5l16 -6q-61 -94 -94.5 -191t-33.5 -232z" />
    <glyph glyph-name="parenright.uc" horiz-adv-x="329" 
d="M130 335q0 135 -33.5 232t-94.5 191l16 6q46 -31 87.5 -69.5t81.5 -92t64 -123t24 -144.5q0 -66 -17 -127t-41.5 -105t-61.5 -86.5t-67.5 -69t-69.5 -55.5l-16 6q128 208 128 437z" />
    <glyph glyph-name="plus.lin" horiz-adv-x="480" 
d="M34 327h172v180h68v-180h172v-60h-172v-181h-68v181h-172v60z" />
    <glyph glyph-name="questiondown.uc" horiz-adv-x="391" 
d="M5 130q0 71 70 137q11 11 30 26.5t39.5 32t26.5 21.5q31 29 31 56q0 35 -4 60h22q31 -33 56.5 -78t25.5 -73q0 -26 -35 -66l-74 -80q-32 -34 -32 -64q0 -24 14.5 -36.5t31.5 -12.5q52 0 148 115h9v-165q-75 -14 -142 -14q-104 0 -160.5 40t-56.5 101zM297 595
q0 -35 -25 -59t-60 -24q-37 0 -61 24t-24 59t24 59t61 24q35 0 60 -24t25 -59z" />
    <glyph glyph-name="sacute.pl" horiz-adv-x="384" 
d="M226 453q40 0 108 -12v-123h-6q-86 77 -127 77q-12 0 -20.5 -8t-8.5 -20q0 -17 14.5 -30t53.5 -38q4 -3 24.5 -17t26 -18t21 -17t21 -21.5t14 -22t11.5 -28.5t3 -32q0 -68 -55 -110.5t-144 -42.5q-65 0 -127 23q-8 54 -8 171h8q14 -24 25 -39.5t29.5 -38t39 -34.5
t41.5 -12q20 0 30.5 11t10.5 27q0 20 -13.5 35t-50.5 38q-55 34 -81.5 68.5t-26.5 81.5q0 59 48.5 95.5t138.5 36.5zM174 481l-7 1l6 225l128 -34z" />
    <glyph glyph-name="seven.den" horiz-adv-x="261" 
d="M40 302h218v-6l-138 -296h-65l100 214h-157z" />
    <glyph glyph-name="seven.num" horiz-adv-x="261" 
d="M40 662h218v-6l-138 -296h-65l100 214h-157z" />
    <glyph glyph-name="seven.lin" horiz-adv-x="470" 
d="M54 662h415v-6l-285 -656h-87l229 528h-332z" />
    <glyph glyph-name="seven.sub" horiz-adv-x="261" 
d="M40 190h218v-6l-138 -296h-65l100 214h-157z" />
    <glyph glyph-name="seven.sup" horiz-adv-x="261" 
d="M40 715h218v-6l-138 -296h-65l100 214h-157z" />
    <glyph glyph-name="six.den" horiz-adv-x="335" 
d="M261 296q-70 -49 -94 -90.5t-24 -97.5q0 -36 9.5 -55.5t20.5 -19.5q10 0 17.5 16t7.5 41q0 22 -9.5 37t-26.5 15l-2 9q8 13 30 27.5t49 14.5q38 0 62 -22t24 -59q0 -54 -44 -86.5t-107 -32.5q-66 0 -113.5 35t-47.5 94q0 76 68 124t175 61z" />
    <glyph glyph-name="six.num" horiz-adv-x="335" 
d="M260 656q-70 -49 -94 -90.5t-24 -97.5q0 -36 9.5 -55.5t20.5 -19.5q10 0 17.5 16t7.5 41q0 22 -9.5 37t-26.5 15l-2 9q8 13 30 27.5t49 14.5q38 0 62 -22t24 -59q0 -54 -44 -86.5t-107 -32.5q-66 0 -113.5 35t-47.5 94q0 76 68 124t175 61z" />
    <glyph glyph-name="six.lin" horiz-adv-x="582" 
d="M489 670q-275 -166 -275 -432q0 -83 31.5 -135.5t65.5 -52.5q27 0 48 37.5t21 93.5q0 55 -25.5 88.5t-71.5 33.5q-17 0 -33 -4l-5 8q18 27 58.5 54.5t91.5 27.5q73 0 119 -44.5t46 -125.5q0 -105 -80 -168.5t-176 -63.5q-107 0 -192 74t-85 200q0 88 38 162.5
t102.5 126.5t144.5 86t169 48z" />
    <glyph glyph-name="six.sub" horiz-adv-x="335" 
d="M261 184q-70 -49 -94 -90.5t-24 -97.5q0 -36 9.5 -55.5t20.5 -19.5q10 0 17.5 16t7.5 41q0 22 -9.5 37t-26.5 15l-2 9q8 13 30 27.5t49 14.5q38 0 62 -22t24 -59q0 -54 -44 -86.5t-107 -32.5q-66 0 -113.5 35t-47.5 94q0 76 68 124t175 61z" />
    <glyph glyph-name="six.sup" horiz-adv-x="335" 
d="M261 709q-70 -49 -94 -90.5t-24 -97.5q0 -36 9.5 -55.5t20.5 -19.5q10 0 17.5 16t7.5 41q0 22 -9.5 37t-26.5 15l-2 9q8 13 30 27.5t49 14.5q38 0 62 -22t24 -59q0 -54 -44 -86.5t-107 -32.5q-66 0 -113.5 35t-47.5 94q0 76 68 124t175 61z" />
    <glyph glyph-name="three.lin" horiz-adv-x="456" 
d="M59 337q80 54 110.5 90.5t30.5 77.5q0 30 -20 47t-53 17q-49 0 -93 -39l-11 7q62 135 201 135q70 0 107 -32.5t37 -80.5q0 -87 -131 -141q85 -2 137.5 -43t52.5 -120q0 -44 -18 -83.5t-60.5 -78.5t-126 -68t-200.5 -42l-7 13q223 113 223 235q0 48 -31.5 71.5t-80.5 23.5
q-40 0 -58 -6z" />
    <glyph glyph-name="three.num" horiz-adv-x="244" 
d="M18 508q66 40 66 70q0 29 -30 29q-19 0 -40 -12l-9 7q40 67 118 67q41 0 60.5 -15t19.5 -37q0 -45 -90 -70q14 2 22 2q46 0 71.5 -20.5t25.5 -51.5q0 -47 -46.5 -79.5t-176.5 -45.5l-4 11q92 47 92 99q0 36 -51 36q-15 0 -23 -2z" />
    <glyph glyph-name="three.sub" horiz-adv-x="244" 
d="M18 36q66 40 66 70q0 29 -30 29q-19 0 -40 -12l-9 7q40 67 118 67q41 0 60.5 -15t19.5 -37q0 -45 -90 -70q14 2 22 2q46 0 71.5 -20.5t25.5 -51.5q0 -47 -46.5 -79.5t-176.5 -45.5l-4 11q92 47 92 99q0 36 -51 36q-15 0 -23 -2z" />
    <glyph glyph-name="three.sup" horiz-adv-x="244" 
d="M18 561q66 41 66 70t-30 29q-19 0 -40 -12l-9 7q40 67 118 67q41 0 60.5 -15t19.5 -37q0 -45 -90 -70q14 2 22 2q46 0 71.5 -20.5t25.5 -51.5q0 -47 -46.5 -79.5t-176.5 -45.5l-4 11q92 47 92 99q0 36 -51 36q-15 0 -23 -2z" />
    <glyph glyph-name="two.lin" horiz-adv-x="524" 
d="M484 255h8v-255h-474v36q151 185 203 269t52 153q0 47 -29.5 73.5t-76.5 26.5q-61 0 -117 -56l-15 8q23 69 77 115.5t142 46.5q93 0 146.5 -49t53.5 -133q0 -60 -36.5 -120t-93 -111.5t-154.5 -124.5h224z" />
    <glyph glyph-name="two.num" horiz-adv-x="290" 
d="M260 503h8v-143h-256v22q63 71 86 106t23 61q0 20 -11.5 31t-29.5 11q-28 0 -54 -26l-11 6q36 98 132 98q48 0 75 -21t27 -60q0 -71 -139 -145h103z" />
    <glyph glyph-name="two.sub" horiz-adv-x="290" 
d="M260 31h8v-143h-256v22q63 71 86 106t23 61q0 20 -11.5 31t-29.5 11q-28 0 -54 -26l-11 6q36 98 132 98q48 0 75 -21t27 -60q0 -71 -139 -145h103z" />
    <glyph glyph-name="two.sup" horiz-adv-x="290" 
d="M260 556h8v-143h-256v22q63 71 86 106t23 61q0 20 -11.5 31t-29.5 11q-28 0 -54 -26l-11 6q36 98 132 98q48 0 75 -21t27 -60q0 -71 -139 -145h103z" />
    <glyph glyph-name="wacute.001" horiz-adv-x="680" 
d="M268 37q-8 -18 -12 -26q-5 -8 -6 -14h-39q-2 6 -6 14q-2 4 -8.5 18.5t-11.5 25.5l-144 328l-48 51v6h261v-6l-41 -51l63 -164l95 231h39l99 -229l54 162l-48 51v6h172v-6l-48 -51l-130 -352q-6 -16 -9 -23q-1 -2 -4 -11h-39q-2 3 -4.5 9t-3.5 8l-15 33l-85 190zM315 481
l-7 4l89 229l112 -83z" />
    <glyph glyph-name="wcircumflex.001" horiz-adv-x="680" 
d="M268 37q-8 -18 -12 -26q-5 -8 -6 -14h-39q-2 6 -6 14q-2 4 -8.5 18.5t-11.5 25.5l-144 328l-48 51v6h261v-6l-41 -51l63 -164l95 231h39l99 -229l54 162l-48 51v6h172v-6l-48 -51l-130 -352q-6 -16 -9 -23q-1 -2 -4 -11h-39q-2 3 -4.5 9t-3.5 8l-15 33l-85 190zM388 715
l128 -235l-7 -5l-121 87l-121 -87l-7 5z" />
    <glyph glyph-name="wdieresis.001" horiz-adv-x="680" 
d="M268 37q-8 -18 -12 -26q-5 -8 -6 -14h-39q-2 6 -6 14q-2 4 -8.5 18.5t-11.5 25.5l-144 328l-48 51v6h261v-6l-41 -51l63 -164l95 231h39l99 -229l54 162l-48 51v6h172v-6l-48 -51l-130 -352q-6 -16 -9 -23q-1 -2 -4 -11h-39q-2 3 -4.5 9t-3.5 8l-15 33l-85 190zM480 641
q31 0 52.5 -21.5t21.5 -53.5t-21.5 -52.5t-52.5 -20.5q-32 0 -53.5 20.5t-21.5 52.5t21.5 53.5t53.5 21.5zM287 641q31 0 52.5 -21.5t21.5 -53.5t-21.5 -52.5t-52.5 -20.5q-32 0 -53.5 20.5t-21.5 52.5t21.5 53.5t53.5 21.5z" />
    <glyph glyph-name="wgrave.001" horiz-adv-x="680" 
d="M268 37q-8 -18 -12 -26q-5 -8 -6 -14h-39q-2 6 -6 14q-2 4 -8.5 18.5t-11.5 25.5l-144 328l-48 51v6h261v-6l-41 -51l63 -164l95 231h39l99 -229l54 162l-48 51v6h172v-6l-48 -51l-130 -352q-6 -16 -9 -23q-1 -2 -4 -11h-39q-2 3 -4.5 9t-3.5 8l-15 33l-85 190zM448 483
l-194 150l112 83l89 -229z" />
    <glyph glyph-name="zacute.pl" horiz-adv-x="440" 
d="M420 161v-161h-409v17l207 362h-101l-84 -84h-6v145h382v-17l-204 -355h115l94 93h6zM206 481l-7 1l6 225l128 -34z" />
    <glyph glyph-name="zero.den" horiz-adv-x="367" 
d="M143 151q0 -46 13.5 -77.5t30.5 -31.5t27 29.5t10 79.5q0 48 -13.5 78.5t-29.5 30.5q-15 0 -26.5 -31t-11.5 -78zM12 146q0 71 51.5 117t118.5 46q74 0 123.5 -40t49.5 -109q0 -78 -51.5 -122.5t-120.5 -44.5t-120 41t-51 112z" />
    <glyph glyph-name="zero.num" horiz-adv-x="367" 
d="M143 511q0 -46 13.5 -77.5t30.5 -31.5t27 29.5t10 79.5q0 48 -13.5 78.5t-29.5 30.5q-15 0 -26.5 -31t-11.5 -78zM12 506q0 71 51.5 117t118.5 46q74 0 123.5 -40t49.5 -109q0 -78 -51.5 -122.5t-120.5 -44.5t-120 41t-51 112z" />
    <glyph glyph-name="zero.lin" horiz-adv-x="672" 
d="M219 330q0 -119 38.5 -193.5t81.5 -74.5q45 0 79.5 73t34.5 195q0 121 -38.5 197.5t-81.5 76.5q-42 0 -78 -77t-36 -197zM29 321q0 153 91.5 253.5t212.5 100.5q129 0 219.5 -91.5t90.5 -239.5q0 -160 -92 -258.5t-209 -98.5q-128 0 -220.5 92t-92.5 242z" />
    <glyph glyph-name="zero.sub" horiz-adv-x="367" 
d="M143 39q0 -46 13.5 -77.5t30.5 -31.5t27 29.5t10 79.5q0 48 -13.5 78.5t-29.5 30.5q-15 0 -26.5 -31t-11.5 -78zM12 34q0 71 51.5 117t118.5 46q74 0 123.5 -40t49.5 -109q0 -78 -51.5 -122.5t-120.5 -44.5t-120 41t-51 112z" />
    <glyph glyph-name="zero.sup" horiz-adv-x="367" 
d="M143 564q0 -46 13.5 -77.5t30.5 -31.5t27 29.5t10 79.5q0 48 -13.5 78.5t-29.5 30.5q-15 0 -26.5 -31t-11.5 -78zM12 559q0 71 51.5 117t118.5 46q74 0 123.5 -40t49.5 -109q0 -78 -51.5 -122.5t-120.5 -44.5t-120 41t-51 112z" />
    </font>
</defs>
</svg>
