<?xml version="1.0" standalone="no"?>
<!DOCTYPE svg PUBLIC "-//W3C//DTD SVG 1.1//EN" "http://www.w3.org/Graphics/SVG/1.1/DTD/svg11.dtd" >
<svg xmlns="http://www.w3.org/2000/svg" xmlns:xlink="http://www.w3.org/1999/xlink" version="1.1">
<metadata>
Created by FontForge 20170731 at Fri Jan  3 06:44:49 2014
 By Aleksey,,,
Copyright (c)2013 Commercial Type.
</metadata>
<defs>
<font id="Portrait-Regular2Italic" horiz-adv-x="400" >
  <font-face 
    font-family="Portrait Regular 2"
    font-weight="500"
    font-style="italic"
    font-stretch="normal"
    units-per-em="1000"
    panose-1="0 0 0 0 0 0 0 0 0 0"
    ascent="730"
    descent="-270"
    x-height="421"
    cap-height="662"
    bbox="-161 -290 1098 1005"
    underline-thickness="34"
    underline-position="20"
    slope="-9"
    unicode-range="U+000D-FB04"
  />
<missing-glyph horiz-adv-x="190" 
 />
    <glyph glyph-name="f_b" unicode="fb" horiz-adv-x="671" 
d="M397 269q103 155 171 155q11 0 23 -4.5t26 -16t23 -37t9 -60.5q0 -70 -30 -141.5t-89 -122.5t-130 -51q-57 0 -91 37t-23 84l110 548q-7 6 -28 13.5t-44 7.5q-86 0 -112 -139q-6 -30 -23 -131h114l-31 -41h-90q-9 -56 -28 -182t-28 -174q-7 -39 -15.5 -70.5t-27 -71.5
t-43.5 -67.5t-67 -48t-94 -22.5l-13 62h1q58 -6 67 -6q35 0 54 20t34 74t35 172q8 50 16 103.5t17 115.5t14 95h-77v5l26 36h57l16 99q16 87 72.5 147t145.5 60q68 0 138 -24zM534 364q-21 0 -63 -42.5t-86 -109.5q-9 -42 -21 -109q-4 -21 -9 -43q0 -12 11.5 -24t33.5 -12
q41 0 79.5 43.5t61 108t22.5 126.5t-29 62z" />
    <glyph glyph-name="f_f_b" unicode="ffb" horiz-adv-x="883" 
d="M56 56q8 51 16 104.5t17 115t14 94.5h-78v5l27 36h57q8 56 13 84q16 87 72.5 147t145.5 60q55 0 103 -18q49 33 113 33q69 0 138 -25l-85 -423q103 155 170 155q11 0 23 -4.5t26.5 -16t23.5 -37t9 -60.5q0 -70 -30 -141.5t-89 -122.5t-130 -51q-57 0 -91.5 37t-23.5 84
l111 548q-37 21 -72 21q-86 0 -112 -138q-5 -26 -23 -132h117l-32 -41h-92q-7 -40 -26 -161.5t-28 -169.5q-7 -39 -15 -70t-27 -71.5t-43.5 -68t-65 -48t-92.5 -22.5l-12 60q33 -4 64 -4q33 0 52.5 20t36.5 77t35 170l42 288h-134q-9 -55 -28 -182t-28 -174
q-7 -39 -15.5 -70.5t-27 -71.5t-43.5 -67.5t-67 -48t-94 -22.5l-12 62q58 -6 67 -6q35 0 54.5 20t34.5 74t34 172zM746 364q-23 0 -63 -41.5t-86 -111.5q-19 -94 -22 -109q-4 -21 -9 -43q1 -12 12.5 -23.5t33.5 -11.5q41 0 79.5 43.5t61 108t22.5 126.5t-29 62zM338 510
q13 78 60 133q-41 23 -79 23q-85 0 -111 -138l-20 -117h133q10 66 17 99z" />
    <glyph glyph-name="f_f_h" unicode="ffh" horiz-adv-x="898" 
d="M56 56q8 51 16 104.5t17 115t14 94.5h-78v5l27 36h57q8 56 13 84q16 87 72.5 147t145.5 60q55 0 103 -18q49 33 113 33q71 0 141 -26l-90 -425q127 158 211 158q23 0 35 -11t10 -28q0 -27 -71 -329l58 -31v-6q-67 -18 -151 -27q77 338 77 351q0 10 -12 10
q-21 0 -66.5 -36t-100.5 -97l-47 -220h-78l139 659q-35 22 -75 22q-86 0 -112 -138q-5 -26 -23 -132h117l-32 -41h-92q-7 -40 -26 -161.5t-28 -169.5q-7 -39 -15 -70t-27 -71.5t-43.5 -68t-65 -48t-92.5 -22.5l-12 60q33 -4 64 -4q33 0 52.5 20t36.5 77t35 170l42 288h-134
q-9 -55 -28 -182t-28 -174q-7 -39 -15.5 -70.5t-27 -71.5t-43.5 -67.5t-67 -48t-94 -22.5l-12 62q58 -6 67 -6q35 0 54.5 20t34.5 74t34 172zM188 411h133q10 66 17 99q13 78 60 133q-41 23 -79 23q-85 0 -111 -138z" />
    <glyph glyph-name="f_f_j" unicode="ffj" horiz-adv-x="648" 
d="M424 543q-5 -26 -23 -132h163l61 16l-77 -405q-11 -63 -59.5 -137t-111.5 -135l-7 4q72 134 105 298l61 318h-142q-7 -40 -26 -161.5t-28 -169.5q-7 -39 -15 -70t-27 -71.5t-43.5 -68t-65 -48t-92.5 -22.5l-12 60q33 -4 64 -4q33 0 52.5 20t36.5 77t35 170l42 288h-134
q-9 -55 -28 -182t-28 -174q-7 -39 -15.5 -70.5t-27 -71.5t-43.5 -67.5t-67 -48t-94 -22.5l-12 62q58 -6 67 -6q35 0 54.5 20t34.5 74t34 172q8 51 16 104.5t17 115t14 94.5h-78v5l27 36h57q8 56 13 84q16 87 72.5 147t145.5 60q55 0 103 -18q49 33 113 33q62 0 125 -21
l-34 -63q-71 48 -113 48q-84 0 -110 -138zM188 411h133q10 66 17 99q13 78 60 133q-41 23 -79 23q-85 0 -111 -138z" />
    <glyph glyph-name="f_f_k" unicode="ffk" horiz-adv-x="844" 
d="M536 681q-86 0 -112 -138q-5 -26 -23 -132h117l-32 -41h-92q-7 -40 -26 -161.5t-28 -169.5q-7 -39 -15 -70t-27 -71.5t-43.5 -68t-65 -48t-92.5 -22.5l-12 60q33 -4 64 -4q33 0 52.5 20t36.5 77t35 170l42 288h-134q-9 -55 -28 -182t-28 -174q-7 -39 -15.5 -70.5
t-27 -71.5t-43.5 -67.5t-67 -48t-94 -22.5l-12 62q58 -6 67 -6q35 0 54.5 20t34.5 74t34 172q8 51 16 104.5t17 115t14 94.5h-78v5l27 36h57q8 56 13 84q16 87 72.5 147t145.5 60q55 0 103 -18q49 33 113 33q65 0 137 -24l-140 -693h-78l133 660q-37 21 -72 21zM188 411h133
q10 66 17 99q13 78 60 133q-41 23 -79 23q-85 0 -111 -138zM611 202q126 117 126 159q0 16 -15 31v5l86 29q15 -21 15 -42q0 -28 -31 -61.5t-113 -94.5q93 -168 145 -233l-2 -5q-20 1 -30 2t-23 2t-20.5 5.5t-15.5 7.5t-16 14t-14.5 18t-17.5 27t-19 33.5t-25.5 44.5
t-30.5 54z" />
    <glyph glyph-name="f_h" unicode="fh" horiz-adv-x="686" 
d="M564 343q0 10 -12 10q-21 0 -66.5 -36t-100.5 -97l-47 -220h-78l139 659q-35 22 -75 22q-86 0 -112 -139q-6 -30 -23 -131h114l-31 -41h-90q-9 -56 -28 -182t-28 -174q-7 -39 -15.5 -70.5t-27 -71.5t-43.5 -67.5t-67 -48t-94 -22.5l-13 62h1q58 -6 67 -6q35 0 54 20
t34 74t35 172q8 50 16 103.5t17 115.5t14 95h-77v5l26 36h57l16 99q16 87 72.5 147t145.5 60q71 0 141 -26l-90 -425q127 158 211 158q23 0 35 -11t10 -28q0 -11 -8.5 -50.5t-28.5 -129.5t-33 -149l57 -31v-6q-67 -18 -151 -27q77 338 77 351z" />
    <glyph glyph-name="f_j" unicode="fj" horiz-adv-x="436" 
d="M57 56q8 50 16 103.5t17 115.5t14 95h-77v5l26 36h57l16 99q16 87 72.5 147t145.5 60q62 0 125 -21l-34 -63q-71 48 -112 48q-85 0 -111 -138q-7 -35 -23 -132h163l61 16l-76 -405q-11 -62 -59.5 -135.5t-111.5 -136.5l-8 4q72 134 105 298l62 318h-143q-9 -56 -28 -182
t-28 -174q-7 -39 -15.5 -70.5t-27 -71.5t-43.5 -67.5t-67 -48t-94 -22.5l-13 62h1q58 -6 67 -6q35 0 54 20t34 74t35 172z" />
    <glyph glyph-name="f_k" unicode="fk" horiz-adv-x="632" 
d="M341 0h-78l133 660q-37 21 -72 21q-86 0 -112 -139q-6 -30 -23 -131h114l-31 -41h-90q-9 -56 -28 -182t-28 -174q-7 -39 -15.5 -70.5t-27 -71.5t-43.5 -67.5t-67 -48t-94 -22.5l-13 62h1q58 -6 67 -6q35 0 54 20t34 74t35 172q8 50 16 103.5t17 115.5t14 95h-77v5l26 36
h57l16 99q16 87 72.5 147t145.5 60q67 0 137 -24zM399 202q126 117 126 159q0 16 -15 31v5l86 29q15 -21 15 -42q0 -28 -30.5 -60t-113.5 -97q91 -164 145 -232l-2 -5q-20 1 -30 2t-23 2t-20.5 5.5t-15.5 7.5t-16 14t-14.5 18t-17.5 27t-19 33.5t-25.5 44.5t-30.5 54z" />
    <glyph glyph-name="f_f" unicode="ff" horiz-adv-x="479" 
d="M25 375l27 36h57q8 56 13 84q16 87 72.5 147t145.5 60q55 0 103 -18q49 33 113 33q71 0 123 -21l-33 -61q-69 46 -112 46q-84 0 -110 -138q-11 -52 -24 -132h120l-31 -41h-96q-45 -283 -53 -331q-7 -39 -15 -70t-27 -71.5t-43.5 -68t-65 -48t-92.5 -22.5l-12 60
q33 -4 64 -4q33 0 52.5 20t36.5 77t35 170l42 288h-134q-9 -55 -28 -182t-28 -174q-7 -39 -15.5 -70.5t-27 -71.5t-43.5 -67.5t-67 -48t-94 -22.5l-12 62q58 -6 67 -6q35 0 54.5 20t34.5 74t34 172q8 51 16 104.5t17 115t14 94.5h-78v5zM338 510q13 78 60 133q-41 23 -79 23
q-85 0 -111 -138l-20 -117h133q10 66 17 99z" />
    <glyph glyph-name="f_i" unicode="fi" horiz-adv-x="445" 
d="M57 56q8 50 16 103.5t17 115.5t14 95h-77v5l26 36h57l16 99q16 87 72.5 147t145.5 60q62 0 125 -21l-34 -63q-71 48 -112 48q-85 0 -111 -138q-7 -35 -23 -132h164q2 1 60 16l-70 -371l60 -32v-5q-71 -19 -151 -27l73 378h-143q-9 -56 -28 -182t-28 -174
q-7 -39 -15.5 -70.5t-27 -71.5t-43.5 -67.5t-67 -48t-94 -22.5l-13 62h1q58 -6 67 -6q35 0 54 20t34 74t35 172z" />
    <glyph glyph-name="f_l" unicode="fl" horiz-adv-x="460" 
d="M-134 -204h1q58 -6 67 -6q35 0 54 20t34 74t35 172q8 50 16 103.5t17 115.5t14 95h-77v5l26 36h57l16 99q16 87 72.5 147t145.5 60q71 0 138 -25l-129 -636l60 -32l-1 -5q-67 -18 -151 -27l135 668q-7 6 -28 13.5t-44 7.5q-86 0 -112 -139q-6 -30 -23 -131h114l-31 -41
h-90q-9 -56 -28 -182t-28 -174q-7 -39 -15.5 -70.5t-27 -71.5t-43.5 -67.5t-67 -48t-94 -22.5z" />
    <glyph glyph-name="f_f_i" unicode="ffi" horiz-adv-x="657" 
d="M424 543q-11 -52 -24 -132h165q2 1 60 16l-70 -371l60 -32v-5q-73 -19 -151 -27l72 378h-143q-45 -283 -53 -331q-7 -39 -15 -70t-27 -71.5t-43.5 -68t-65 -48t-92.5 -22.5l-12 60q33 -4 64 -4q33 0 52.5 20t36.5 77t35 170l42 288h-134q-9 -55 -28 -182t-28 -174
q-7 -39 -15.5 -70.5t-27 -71.5t-43.5 -67.5t-67 -48t-94 -22.5l-12 62q58 -6 67 -6q35 0 54.5 20t34.5 74t34 172q8 51 16 104.5t17 115t14 94.5h-78v5l27 36h57q8 56 13 84q16 87 72.5 147t145.5 60q55 0 103 -18q49 33 113 33q62 0 125 -21l-34 -63q-71 48 -113 48
q-84 0 -110 -138zM188 411h133q10 66 17 99q13 78 60 133q-41 23 -79 23q-85 0 -111 -138z" />
    <glyph glyph-name="f_f_l" unicode="ffl" horiz-adv-x="667" 
d="M56 56q8 51 16 104.5t17 115t14 94.5h-78v5l27 36h57q8 56 13 84q16 87 72.5 147t145.5 60q55 0 103 -18q49 33 113 33q69 0 138 -25l-129 -636l60 -32l-1 -5q-68 -19 -152 -27l136 668q-37 21 -72 21q-86 0 -112 -138q-5 -26 -23 -132h117l-32 -41h-92
q-7 -40 -26 -161.5t-28 -169.5q-7 -39 -15 -70t-27 -71.5t-43.5 -68t-65 -48t-92.5 -22.5l-12 60q33 -4 64 -4q33 0 52.5 20t36.5 77t35 170l42 288h-134q-9 -55 -28 -182t-28 -174q-7 -39 -15.5 -70.5t-27 -71.5t-43.5 -67.5t-67 -48t-94 -22.5l-12 62q58 -6 67 -6
q35 0 54.5 20t34.5 74t34 172zM338 510q13 78 60 133q-41 23 -79 23q-85 0 -111 -138l-20 -117h133q10 66 17 99z" />
    <glyph glyph-name="g_y" unicode="gy" horiz-adv-x="758" 
d="M42 246q0 73 53.5 125.5t116.5 52.5q23 0 47 -10h146l-13 -39h-87q22 -29 22 -62q0 -79 -53.5 -130t-112.5 -51q-9 0 -12 1q-38 -32 -38 -49q0 -16 43 -42q12 -7 42.5 -23.5t50.5 -27.5q98 -53 98 -98q0 -61 -67 -107.5t-157 -46.5q-81 0 -139 29t-58 65q0 26 41.5 62.5
t142.5 81.5q-69 37 -69 75q0 40 82 86q-35 12 -57 41.5t-22 66.5zM683 349q0 27 -25 47v3l86 25q17 -19 17 -47q0 -40 -32.5 -96.5t-125.5 -190.5q-26 -37 -40 -58q-112 -171 -183 -300l-87 12v6q109 109 208 245q-7 192 -27 359l-49 30v6q77 27 117 37q20 -121 26 -334
q66 113 90.5 167.5t24.5 88.5zM137 -38q-63 -29 -96.5 -58.5t-33.5 -54.5q0 -30 34 -52t84 -22q69 0 109 29.5t40 57.5q0 29 -66 63zM209 396q-33 0 -61 -47t-28 -106q0 -43 14 -62.5t29 -19.5q29 0 57 48.5t28 107.5q0 42 -12 60.5t-27 18.5z" />
    <glyph glyph-name=".notdef" horiz-adv-x="190" 
 />
    <glyph glyph-name=".null" horiz-adv-x="0" 
 />
    <glyph glyph-name="nonmarkingreturn" horiz-adv-x="333" 
 />
    <glyph glyph-name="NULL" horiz-adv-x="0" 
 />
    <glyph glyph-name="NULL" horiz-adv-x="0" 
 />
    <glyph glyph-name="CR" unicode="&#xd;" horiz-adv-x="190" 
 />
    <glyph glyph-name="space" unicode=" " horiz-adv-x="190" 
 />
    <glyph glyph-name="exclam" unicode="!" horiz-adv-x="214" 
d="M102 210h-12l48 452h93q-5 -17 -56 -197.5t-73 -254.5zM60 94q22 0 36.5 -14t14.5 -37q0 -22 -14.5 -37t-36.5 -15q-23 0 -37.5 15t-14.5 37q0 23 14.5 37t37.5 14z" />
    <glyph glyph-name="quotedbl" unicode="&#x22;" horiz-adv-x="293" 
d="M288 692q34 0 29 -44q-5 -34 -61 -190h-10l6 191q3 43 36 43zM159 692q35 0 29 -44q-5 -34 -61 -190h-10l6 191q3 43 36 43z" />
    <glyph glyph-name="numbersign" unicode="#" horiz-adv-x="397" 
d="M329 431l-55 -155h76l-6 -35h-83l-85 -241h-40l85 241h-79l-85 -241h-39l85 241h-78l6 35h84l55 155h-73l6 34h79l70 197h40l-70 -197h79l70 197h40l-70 -197h81l-6 -34h-87zM155 276h79l55 155h-79z" />
    <glyph glyph-name="dollar" unicode="$" horiz-adv-x="427" 
d="M277 672q16 0 23 -1l18 68h35l-18 -71q53 -10 78 -20l-21 -109h-6q-24 65 -62 86l-60 -233q1 -1 2.5 -3t3 -4.5t2.5 -3.5q39 -57 57.5 -86.5t33.5 -67.5t15 -70q0 -73 -54.5 -120t-132.5 -47q-19 0 -30 1l-22 -87h-35l23 92q-56 12 -99 43q0 77 22 167h7q16 -130 82 -165
l71 278q-58 83 -79.5 125t-21.5 86q0 65 49.5 103.5t118.5 38.5zM299 133q0 34 -14.5 65.5t-48.5 82.5l-64 -250q7 -1 19 -1q49 0 78.5 30t29.5 73zM185 555q0 -43 53 -125l53 206q-14 2 -17 2q-39 0 -64 -22.5t-25 -60.5z" />
    <glyph glyph-name="percent" unicode="%" horiz-adv-x="651" 
d="M556 148q0 43 -22 68t-56 25q-44 0 -71.5 -34.5t-27.5 -83.5q0 -43 22 -68t56 -25q44 0 71.5 34.5t27.5 83.5zM478 280q51 0 86.5 -35t35.5 -96q0 -62 -40.5 -110t-102.5 -48q-51 0 -86.5 35t-35.5 96q0 62 40.5 110t102.5 48zM115 514q0 -44 22.5 -69t55.5 -25
q44 0 71.5 35t27.5 83q0 44 -22.5 69t-55.5 25q-44 0 -71.5 -35t-27.5 -83zM214 670q52 0 87 -34t35 -97q0 -62 -40.5 -109.5t-102.5 -47.5q-51 0 -86.5 35t-35.5 96q0 62 40.5 109.5t102.5 47.5zM578 662h50l-528 -662h-51z" />
    <glyph glyph-name="ampersand" unicode="&#x26;" horiz-adv-x="624" 
d="M652 408q-65 -32 -105.5 -76.5t-88.5 -128.5l-28 -46q78 -117 177 -170l-1 -6q-133 -3 -194 65q-12 11 -32 38q-41 -53 -82.5 -75.5t-96.5 -22.5q-77 0 -126 44t-49 121q0 75 52.5 135.5t132.5 101.5q-31 73 -31 118q0 66 40.5 104.5t98.5 38.5q48 0 79 -25t31 -66
q0 -44 -36.5 -79.5t-99.5 -72.5q34 -72 71 -138q33 -60 45 -79l18 29q54 94 88 140l-57 50l1 6h195zM290 229q-49 93 -69 135q-51 -43 -79.5 -89.5t-28.5 -110.5q0 -58 29.5 -93t77.5 -35q40 0 72 17.5t66 60.5q-26 36 -68 115zM256 542q0 -47 27 -113q80 60 80 125
q0 31 -13.5 47t-34.5 16q-24 0 -41.5 -19t-17.5 -56z" />
    <glyph glyph-name="quotesingle" unicode="'" horiz-adv-x="165" 
d="M158 692q34 0 29 -44q-5 -34 -61 -190h-10l6 191q3 43 36 43z" />
    <glyph glyph-name="parenleft" unicode="(" horiz-adv-x="315" 
d="M382 755l8 -5q-50 -61 -87.5 -119.5t-73.5 -136t-55.5 -170t-19.5 -194.5q0 -157 55 -314l-9 -4q-32 54 -53 96.5t-40 115.5t-19 148q0 97 26 188t71 164t93 128.5t104 102.5z" />
    <glyph glyph-name="parenright" unicode=")" horiz-adv-x="315" 
d="M-59 -188l-8 5q50 61 87.5 119.5t73.5 136t55.5 170t19.5 194.5q0 157 -55 314l9 4q32 -54 53 -96.5t40 -115.5t19 -148q0 -97 -26 -188t-71 -164t-93 -128.5t-104 -102.5z" />
    <glyph glyph-name="asterisk" unicode="*" horiz-adv-x="294" 
d="M196 508l-79 -62l-6 3l50 86l-87 36l1 7l97 -3l-15 97l7 3l52 -86l78 60l5 -5l-52 -85l89 -35l-1 -7l-96 2l13 -94l-6 -2z" />
    <glyph glyph-name="plus" unicode="+" horiz-adv-x="427" 
d="M51 265h149l32 171h43l-32 -171h150l-7 -36h-150l-32 -175h-42l32 175h-150z" />
    <glyph glyph-name="comma" unicode="," horiz-adv-x="186" 
d="M75 16q-21 -2 -37.5 10t-16.5 34q0 23 14 36t36 13q25 0 40 -18.5t15 -47.5q0 -55 -42 -106.5t-105 -83.5l-10 5q84 84 106 158z" />
    <glyph glyph-name="hyphen" unicode="-" horiz-adv-x="255" 
d="M62 273h155l-13 -65h-156z" />
    <glyph glyph-name="period" unicode="." horiz-adv-x="184" 
d="M69 94q22 0 37 -14t15 -37q0 -22 -15 -37t-37 -15q-23 0 -37 15t-14 37q0 23 14 37t37 14z" />
    <glyph glyph-name="slash" unicode="/" horiz-adv-x="348" 
d="M418 739l-483 -977l-33 15l483 978z" />
    <glyph glyph-name="zero" unicode="0" horiz-adv-x="445" 
d="M362 228q0 68 -35.5 110t-85.5 42q-68 0 -110.5 -58.5t-42.5 -135.5q0 -68 36 -110t87 -42q66 0 108.5 58.5t42.5 135.5zM240 424q73 0 124.5 -52.5t51.5 -141.5q0 -93 -57.5 -166.5t-150.5 -73.5q-73 0 -123.5 52t-50.5 142q0 93 57 166.5t149 73.5z" />
    <glyph glyph-name="one" unicode="1" horiz-adv-x="234" 
d="M107 367l-47 42l1 5h188v-5l-64 -42l-62 -321l48 -40l-1 -6h-189l1 6l63 40z" />
    <glyph glyph-name="two" unicode="2" horiz-adv-x="342" 
d="M67 343q42 81 119 81q46 0 73.5 -26t27.5 -73q0 -28 -11.5 -54.5t-44.5 -62.5t-58 -59.5t-86 -77.5h225l-42 -71h-287l2 6q127 133 169.5 196.5t42.5 109.5q0 27 -14.5 43t-40.5 16q-35 0 -68 -33z" />
    <glyph glyph-name="three" unicode="3" horiz-adv-x="291" 
d="M17 101q92 81 125.5 130t33.5 88q0 23 -12.5 36.5t-33.5 13.5q-32 0 -57 -25l-6 4q39 73 103 73q42 0 65.5 -23.5t23.5 -65.5q0 -43 -34 -83.5t-113 -98.5q55 -3 87.5 -35.5t32.5 -88.5q0 -80 -75.5 -153.5t-222.5 -149.5l-5 9q110 86 162 155t52 131q0 84 -84 84
q-18 0 -37 -8z" />
    <glyph glyph-name="four" unicode="4" horiz-adv-x="410" 
d="M358 430l-72 -373h83l-11 -57h-83l-38 -198l-82 -31l44 229h-226l1 6l367 424h17zM210 57l41 216l-187 -216h146z" />
    <glyph glyph-name="five" unicode="5" horiz-adv-x="270" 
d="M278 414l-44 -68h-103q-1 -2 -6 -11t-6 -11q23 -45 36 -72.5t28 -76t15 -87.5q0 -96 -74.5 -176.5t-215.5 -137.5l-3 9q90 58 151 138.5t61 148.5q0 91 -56 191q12 29 39 79.5t42 73.5h136z" />
    <glyph glyph-name="six" unicode="6" horiz-adv-x="413" 
d="M195 -8q-59 0 -102.5 53t-43.5 147q0 88 38.5 172t102 149t140.5 114t159 77l4 -9q-69 -40 -130 -91t-115 -116t-85.5 -146t-31.5 -166q0 -70 19 -111.5t46 -41.5q34 0 67 46t33 116q0 50 -22 76.5t-58 26.5q-28 0 -46 -8l-3 5q44 44 101 44q51 0 82 -36t31 -96
q0 -84 -57.5 -144.5t-128.5 -60.5z" />
    <glyph glyph-name="seven" unicode="7" horiz-adv-x="391" 
d="M86 414h317l-1 -5l-361 -681l-39 13l316 601h-271z" />
    <glyph glyph-name="eight" unicode="8" horiz-adv-x="365" 
d="M249 664q52 0 85.5 -30t33.5 -78q0 -50 -30 -93t-96 -97q5 -10 19 -34.5t18.5 -33t14.5 -28t13.5 -29.5t8.5 -25.5t6.5 -29t1.5 -28.5q0 -66 -49 -116.5t-118 -50.5q-58 0 -97 34.5t-39 90.5q0 55 35 103t112 117q-36 63 -50.5 102t-14.5 78q0 63 47 105.5t99 42.5z
M248 137q0 39 -14.5 75t-50.5 99q-48 -50 -70.5 -94.5t-22.5 -98.5q0 -42 19.5 -69t49.5 -27q36 0 62.5 33.5t26.5 81.5zM175 538q0 -45 54 -150q78 87 78 164q0 36 -16 59.5t-43 23.5q-30 0 -51.5 -26t-21.5 -71z" />
    <glyph glyph-name="nine" unicode="9" horiz-adv-x="412" 
d="M154 85q-51 0 -82.5 38t-31.5 98q0 80 57.5 140.5t127.5 60.5q58 0 102 -54t44 -146t-37.5 -177t-100 -149t-136 -111t-153.5 -75l-5 9q351 224 351 519q0 72 -19 112.5t-47 40.5q-31 0 -65 -47.5t-34 -113.5q0 -50 21 -77t59 -27q24 0 46 8l3 -5q-44 -44 -100 -44z" />
    <glyph glyph-name="colon" unicode=":" horiz-adv-x="202" 
d="M124 423q22 0 37 -14t15 -37q0 -22 -15 -37t-37 -15q-23 0 -37 15t-14 37q0 23 14 37t37 14zM66 94q22 0 37 -14t15 -37q0 -22 -15 -37t-37 -15q-23 0 -37 15t-14 37q0 23 14 37t37 14z" />
    <glyph glyph-name="semicolon" unicode=";" horiz-adv-x="202" 
d="M73 16q-21 -2 -37.5 10t-16.5 34q0 23 14 36t36 13q25 0 40 -18.5t15 -47.5q0 -55 -42 -106.5t-105 -83.5l-10 5q84 84 106 158zM125 423q22 0 37 -14t15 -37q0 -22 -15 -37t-37 -15q-23 0 -37 15t-14 37q0 23 14 37t37 14z" />
    <glyph glyph-name="less" unicode="&#x3c;" horiz-adv-x="377" 
d="M41 227l8 37l319 131l-7 -39l-274 -112l233 -110l-8 -35z" />
    <glyph glyph-name="equal" unicode="=" horiz-adv-x="407" 
d="M40 179l7 34h309l-6 -34h-310zM58 270l6 34h310l-7 -34h-309z" />
    <glyph glyph-name="greater" unicode="&#x3e;" horiz-adv-x="377" 
d="M354 266l-7 -36l-320 -131l8 40l273 110l-232 110l7 36z" />
    <glyph glyph-name="question" unicode="?" horiz-adv-x="305" 
d="M258 422q-4 -3 -35 -29t-45 -40q-29 -26 -40 -67q-5 -21 -15 -76h-10q-13 72 -13 113q0 22 8 37.5t31 38.5l70 71q52 52 52 101q0 31 -14.5 48.5t-38.5 17.5q-11 0 -23 -5t-20.5 -10.5t-21 -16.5t-17.5 -16.5t-16 -18.5l-11 -12h-7l21 104q27 10 91 10t99.5 -27t35.5 -78
q0 -69 -81 -145zM96 94q22 0 37 -14t15 -37q0 -22 -15 -37t-37 -15q-23 0 -37 15t-14 37q0 23 14 37t37 14z" />
    <glyph glyph-name="at" unicode="@" horiz-adv-x="821" 
d="M516 48q36 7 73 28.5t72 58t57 94t22 127.5q0 100 -57.5 158.5t-172.5 58.5t-209.5 -61.5t-147.5 -167t-53 -230.5q0 -124 68.5 -198t179.5 -74q159 0 295 97l8 -10q-46 -48 -128.5 -87.5t-181.5 -39.5q-141 0 -224 81t-83 216q0 103 40 198t106 163t154.5 108.5
t182.5 40.5q131 0 209.5 -67t78.5 -178q0 -83 -35 -152.5t-90 -113t-120.5 -66t-129.5 -19.5l30 140q-92 -137 -157 -137q-23 0 -43 26.5t-20 70.5q0 46 18.5 93.5t51.5 90t86.5 71.5t116.5 35l85 36zM338 76q19 0 59 39.5t74 91.5l35 164q-74 -6 -129 -83.5t-55 -170.5
q0 -41 16 -41z" />
    <glyph glyph-name="A" unicode="A" horiz-adv-x="570" 
d="M133 6l-2 -6h-168l2 6l67 47l333 621h12l109 -621l44 -47l-2 -6h-207l2 6l77 47l-38 214h-172l-113 -214zM209 302h147l-37 208z" />
    <glyph glyph-name="B" unicode="B" horiz-adv-x="503" 
d="M476 207q0 -92 -66.5 -149.5t-153.5 -57.5h-261l1 6l72 47l93 557l-56 46l1 6h200q68 0 119.5 -34t51.5 -99q0 -57 -40.5 -100t-93.5 -64q53 -14 93 -54t40 -104zM205 343l-47 -291q21 -19 78 -19q61 0 103.5 48t42.5 121q0 72 -37.5 106.5t-91.5 34.5h-48zM253 628
l-42 -253h88q26 0 58.5 46t32.5 102q0 54 -28.5 79.5t-70.5 25.5h-38z" />
    <glyph glyph-name="C" unicode="C" horiz-adv-x="592" 
d="M340 -10q-121 0 -202.5 73t-81.5 207q0 162 113.5 282t273.5 120q97 0 163 -23l-20 -116h-7q-44 102 -144 102q-117 0 -199 -106t-82 -258q0 -106 53.5 -174.5t133.5 -68.5q104 0 183 95h6l-20 -107q-59 -26 -170 -26z" />
    <glyph glyph-name="D" unicode="D" horiz-adv-x="643" 
d="M336 662q124 0 209 -74t85 -207q0 -94 -42 -180t-125.5 -143.5t-189.5 -57.5h-278l1 6l72 46l93 558l-56 46l1 6h230zM253 627l-95 -575q49 -17 115 -17q106 0 182 97.5t76 240.5q0 125 -63 189.5t-155 64.5h-60z" />
    <glyph glyph-name="E" unicode="E" horiz-adv-x="488" 
d="M-5 0l1 6l72 47l93 557l-56 46l1 6h391l-20 -122h-7l-48 86h-169l-43 -256h175l56 70h6l-29 -175h-7l-32 69h-175l-49 -297h185l86 107h7l-23 -144h-415z" />
    <glyph glyph-name="F" unicode="F" horiz-adv-x="472" 
d="M440 440h7l-29 -174h-7l-32 69h-174l-47 -282l81 -47l-1 -6h-244l1 6l73 47l93 557l-56 47v5h392l-22 -128h-6l-49 92h-167l-42 -256h174z" />
    <glyph glyph-name="G" unicode="G" horiz-adv-x="640" 
d="M530 18q-5 -1 -28 -6.5t-43.5 -9.5t-49.5 -8t-52 -4q-134 0 -217.5 75.5t-83.5 200.5q0 164 112 285t271 121q104 0 177 -25l-21 -113h-6q-58 101 -156 101q-116 0 -197.5 -109t-81.5 -257q0 -111 57.5 -176t147.5 -65q49 0 85 18l41 245l-68 47l1 6h218l-1 -6l-62 -48z
" />
    <glyph glyph-name="H" unicode="H" horiz-adv-x="679" 
d="M208 356h309l43 254l-56 46l1 6h218l-1 -6l-72 -46l-93 -557l57 -47l-1 -6h-219l1 6l72 47l45 267h-309l-45 -267l57 -47l-1 -6h-219l1 6l72 47l93 557l-56 46l1 6h218l-1 -6l-72 -46z" />
    <glyph glyph-name="I" unicode="I" horiz-adv-x="280" 
d="M-5 0l1 6l72 47l93 557l-56 46l1 6h218l-1 -6l-72 -46l-93 -557l57 -47l-1 -6h-219z" />
    <glyph glyph-name="J" unicode="J" horiz-adv-x="276" 
d="M164 97q-13 -79 -67 -162.5t-143 -154.5l-8 6q98 145 134 350l79 474l-57 46l1 6h218l-1 -6l-72 -46z" />
    <glyph glyph-name="K" unicode="K" horiz-adv-x="585" 
d="M-5 0l1 6l72 47l93 557l-56 47l1 5h218l-1 -5l-72 -47l-93 -557l56 -47l-1 -6h-218zM319 0l1 6l72 47l-143 280h-34l265 277l-56 46l1 6h193l-1 -6l-81 -42l-217 -224l171 -337l60 -47l-1 -6h-230z" />
    <glyph glyph-name="L" unicode="L" horiz-adv-x="494" 
d="M156 37h184l108 131h6l-28 -168h-431l1 6l72 47l93 557l-56 46l1 6h217l-1 -6l-72 -46z" />
    <glyph glyph-name="M" unicode="M" horiz-adv-x="749" 
d="M457 0l1 6l80 51l77 462l-289 -461h-9l-132 462l-76 -463l62 -51l-1 -6h-183l1 6l80 51l87 528q-13 37 -35 72v5h114l131 -469l292 469h122l-1 -6q0 -1 -26.5 -26.5t-33.5 -31.5l-91 -541l62 -51l-1 -6h-231z" />
    <glyph glyph-name="N" unicode="N" horiz-adv-x="660" 
d="M503 0l-313 522l-76 -465l66 -51l-1 -6h-193l2 6l80 51l87 520q-46 66 -56 80v5h111l304 -515l76 458l-66 52l1 5h191l-1 -5l-80 -52l-99 -605h-33z" />
    <glyph glyph-name="O" unicode="O" horiz-adv-x="668" 
d="M401 636q-99 0 -171 -111.5t-72 -262.5q0 -107 45.5 -171t108.5 -64q98 0 170.5 111.5t72.5 271.5q0 106 -45 166t-109 60zM61 263q0 164 103 286.5t238 122.5q109 0 180 -74t71 -190q0 -174 -102 -296t-239 -122q-106 0 -178.5 76t-72.5 197z" />
    <glyph glyph-name="P" unicode="P" horiz-adv-x="483" 
d="M503 497q0 -88 -75.5 -149.5t-196.5 -71.5l2 9q80 24 129.5 81t49.5 126q0 65 -39 100.5t-104 35.5h-16l-95 -575l66 -47l-1 -6h-228l1 6l73 47l92 557l-56 46l1 6h184q89 0 151 -42t62 -123z" />
    <glyph glyph-name="Q" unicode="Q" horiz-adv-x="669" 
d="M654 412q0 -147 -79.5 -264t-211.5 -150q171 -96 268 -132t208 -36q56 0 86 6l2 -6q-26 -18 -85 -36t-128 -18q-73 0 -183.5 49.5t-301.5 172.5q-34 22 -57.5 40.5t-52 50.5t-43.5 76.5t-15 98.5q0 107 46.5 201.5t125.5 150.5t168 56q110 0 181.5 -73.5t71.5 -186.5z
M158 262q0 -107 45.5 -170.5t108.5 -63.5q100 0 171.5 112.5t71.5 273.5q0 105 -44.5 163t-109.5 58q-100 0 -171.5 -111.5t-71.5 -261.5z" />
    <glyph glyph-name="R" unicode="R" horiz-adv-x="540" 
d="M-4 6l72 47l93 557l-56 46l1 6h210q71 0 122.5 -36t51.5 -103q0 -62 -39.5 -108.5t-96.5 -70.5q45 -131 57 -165q45 -130 109 -189l-1 -6q-39 2 -66.5 10t-45.5 19.5t-31.5 32t-22.5 42t-22 56.5l-3 9q-13 36 -56 176h-68l-46 -276l58 -47l-1 -6h-220zM253 627l-44 -264
h102q30 0 60 45t30 104q0 57 -28.5 86t-69.5 29h-50z" />
    <glyph glyph-name="S" unicode="S" horiz-adv-x="423" 
d="M283 672q81 0 135 -24l-20 -109h-6q-36 99 -111 99q-37 0 -60.5 -23t-23.5 -60q0 -34 18 -69t64 -105q38 -60 53.5 -87.5t30 -65.5t14.5 -70q0 -74 -54 -121t-132 -47q-99 0 -167 49q0 70 22 167h7q9 -88 45.5 -132t93.5 -44q45 0 73 30t28 72q0 40 -19 79.5t-65 107.5
q-53 79 -72.5 121t-19.5 88q0 68 48.5 106t117.5 38z" />
    <glyph glyph-name="T" unicode="T" horiz-adv-x="578" 
d="M618 662l-22 -134h-6l-50 97h-136l-95 -572l58 -47l-1 -6h-223l1 6l75 47l95 572h-134l-85 -97h-6l24 134h505z" />
    <glyph glyph-name="U" unicode="U" horiz-adv-x="641" 
d="M554 201q-16 -90 -76 -150.5t-162 -60.5q-121 0 -183.5 63t-45.5 164l66 393l-56 46l1 6h219l-1 -6l-74 -46l-66 -397q-12 -77 32 -123t124 -46q74 0 120.5 44.5t56.5 113.5l68 408l-57 46l1 6h174l-1 -6l-72 -46z" />
    <glyph glyph-name="V" unicode="V" horiz-adv-x="570" 
d="M469 656l1 6h169l-1 -6l-66 -46l-332 -622h-13l-98 622l-44 46l1 6h209l-1 -6l-76 -46l67 -454l241 454z" />
    <glyph glyph-name="W" unicode="W" horiz-adv-x="846" 
d="M129 610l-44 46l1 6h203l-1 -6l-70 -46l73 -472l147 250l-43 222l-52 46l1 6h195l-1 -6l-60 -46l29 -157l87 157l-40 46l1 6h143l-1 -6l-61 -46l-120 -209l48 -261l240 470l-52 46l1 6h162l-1 -6l-65 -46l-318 -622h-15l-67 344l-202 -344h-14z" />
    <glyph glyph-name="X" unicode="X" horiz-adv-x="594" 
d="M-24 0l1 6l76 47l226 279l-121 278l-57 46l1 6h229l-1 -6l-73 -46l90 -213l166 212l-56 47l1 6h177l-1 -6l-72 -46l-199 -252l130 -305l57 -47l-1 -6h-223l1 6l73 47l-104 238l-191 -238l56 -47l-1 -6h-184z" />
    <glyph glyph-name="Y" unicode="Y" horiz-adv-x="555" 
d="M451 656l1 6h168l-1 -6l-64 -46l-208 -288l-44 -269l57 -47l-1 -6h-220l1 6l73 47l43 262l-126 295l-47 46l1 6h214l-1 -6l-74 -46l105 -251l178 250z" />
    <glyph glyph-name="Z" unicode="Z" horiz-adv-x="559" 
d="M116 38h297l94 113h5l-27 -151h-487l1 9l458 617h-260l-84 -99h-6l23 135h451l-1 -8z" />
    <glyph glyph-name="bracketleft" unicode="[" horiz-adv-x="260" 
d="M325 714h-78l-163 -848h78l-4 -24h-141l171 896h142z" />
    <glyph glyph-name="backslash" unicode="\" horiz-adv-x="309" 
d="M137 752l123 -984l-35 -6l-123 984z" />
    <glyph glyph-name="bracketright" unicode="]" horiz-adv-x="260" 
d="M-38 -134h78l163 848h-78l4 24h141l-171 -896h-142z" />
    <glyph glyph-name="asciicircum" unicode="^" horiz-adv-x="358" 
d="M65 316l-6 5l204 353h3l76 -354l-6 -2l-96 205z" />
    <glyph glyph-name="underscore" unicode="_" horiz-adv-x="306" 
d="M-62 -124l8 37h317l-8 -37h-317z" />
    <glyph glyph-name="grave" unicode="`" 
d="M329 493l-128 185l69 34l68 -214z" />
    <glyph glyph-name="a" unicode="a" horiz-adv-x="415" 
d="M373 26l-1 -7q-67 -18 -151 -27l30 148q-41 -62 -87.5 -106t-85.5 -44q-25 0 -44.5 28t-19.5 74q0 67 34 134.5t102.5 119t155.5 61.5l89 48l-80 -399zM116 50q19 0 62.5 43.5t83.5 100.5l38 181q-79 -6 -141 -91.5t-62 -189.5q0 -44 19 -44z" />
    <glyph glyph-name="b" unicode="b" horiz-adv-x="420" 
d="M81 675l1 6q65 22 156 44q-3 -16 -18 -88.5t-37 -182t-37 -184.5q103 154 171 154q11 0 23 -4.5t26 -16t23 -37t9 -60.5q0 -70 -30 -141.5t-89 -122.5t-130 -51q-57 0 -91 37t-23 84l107 532zM283 364q-21 0 -61.5 -41.5t-86.5 -109.5q-3 -16 -8 -40.5t-8.5 -41
t-5.5 -28.5q-5 -27 -9 -44q0 -12 11.5 -23.5t33.5 -11.5q41 0 79.5 43.5t61 108t22.5 126.5t-29 62z" />
    <glyph glyph-name="c" unicode="c" horiz-adv-x="337" 
d="M253 424q56 0 95 -16l-30 -79h-4q-39 60 -74 60q-46 0 -90.5 -76.5t-44.5 -172.5q0 -48 12.5 -72t31.5 -24q52 0 131 88l9 -6q-28 -56 -72 -96t-96 -40q-41 0 -70.5 37.5t-29.5 100.5q0 117 72 206.5t160 89.5z" />
    <glyph glyph-name="d" unicode="d" horiz-adv-x="436" 
d="M20 110q0 122 83 216.5t207 94.5h20l46 223l-62 31l1 6q73 24 157 44l-137 -669l59 -32l-1 -5q-71 -19 -150 -27l30 148q-103 -150 -170 -150q-31 0 -57 31.5t-26 88.5zM320 373q-13 13 -42 13q-68 0 -120 -82.5t-52 -187.5q0 -31 7.5 -49.5t19.5 -18.5q39 0 151 144z
" />
    <glyph glyph-name="e" unicode="e" horiz-adv-x="340" 
d="M125 -10q-40 0 -72 32t-32 96q0 117 75.5 211.5t165.5 94.5q37 0 58 -12t21 -31q0 -12 -9.5 -28t-31 -36t-67 -37t-107.5 -24q-21 -63 -21 -127q0 -85 52 -85t131 86l9 -6q-69 -134 -172 -134zM245 395q-26 0 -56.5 -31t-53.5 -83q57 13 95.5 38t38.5 56q0 20 -24 20z
" />
    <glyph glyph-name="f" unicode="f" horiz-adv-x="267" 
d="M56 56q8 50 16 103.5t17 115.5t14 95h-77v5l28 36h55q9 58 17 99q15 88 71.5 147.5t145.5 59.5q72 0 124 -21l-33 -61h-1q-67 46 -111 46q-84 0 -110 -138l-23 -132h119l-31 -41h-95q-10 -57 -29.5 -182t-28.5 -174q-8 -41 -16 -71t-27 -71t-43 -68t-65.5 -47.5
t-93.5 -22.5l-13 62q58 -6 68 -6q34 0 53 20t34.5 74.5t34.5 171.5z" />
    <glyph glyph-name="g" unicode="g" horiz-adv-x="375" 
d="M42 246q0 73 53.5 125.5t116.5 52.5q23 0 47 -10h146l-13 -39h-87q22 -29 22 -62q0 -79 -53.5 -130t-112.5 -51q-9 0 -12 1q-38 -32 -38 -48q0 -10 9 -19t35 -24q30 -17 76 -41.5t48 -25.5q60 -33 80.5 -55.5t20.5 -43.5q0 -59 -73.5 -98t-156.5 -39q-96 0 -161 29.5
t-65 67.5q0 12 13 30.5t57.5 49.5t112.5 60q-67 42 -67 77q0 37 81 85q-35 12 -57 41.5t-22 66.5zM239 -92q-19 10 -53.5 27.5t-50.5 25.5q-128 -60 -128 -109q0 -34 45.5 -55t113.5 -21q45 0 80 13.5t49.5 29t14.5 27.5t-13.5 25t-57.5 37zM209 396q-33 0 -61 -47t-28 -106
q0 -43 14 -62.5t29 -19.5q30 0 57.5 48t27.5 108q0 42 -12 60.5t-27 18.5z" />
    <glyph glyph-name="h" unicode="h" horiz-adv-x="443" 
d="M91 675l1 6q22 8 157 44l-97 -458q127 157 211 157q23 0 35 -11t10 -28q0 -11 -8.5 -50.5t-28.5 -129.5t-33 -149l57 -31v-6q-67 -18 -151 -27q77 338 77 351q0 10 -12 10q-21 0 -66.5 -35.5t-100.5 -96.5l-46 -221h-79l135 644z" />
    <glyph glyph-name="i" unicode="i" horiz-adv-x="224" 
d="M99 347l-55 28v7q67 24 148 45l-70 -371l60 -32v-5q-73 -19 -151 -27zM176 631q20 0 34 -14t14 -34t-14 -34t-34 -14t-34 14t-14 34t14 34t34 14z" />
    <glyph glyph-name="j" unicode="j" horiz-adv-x="213" 
d="M114 22q-11 -63 -60 -137.5t-112 -134.5l-7 4q77 147 105 298l57 295l-55 28v7q70 26 148 45zM174 631q20 0 34 -14t14 -34t-14 -34t-34 -14t-34 14t-14 34t14 34t34 14z" />
    <glyph glyph-name="k" unicode="k" horiz-adv-x="388" 
d="M149 645l-62 30v6q105 32 157 44l-147 -725h-79zM155 202q127 118 127 159q0 18 -16 31l1 5q49 14 85 29q15 -21 15 -42q0 -28 -30.5 -60t-113.5 -97q91 -164 145 -232l-1 -5q-73 3 -96 22t-82 124q-7 12 -11 19.5t-11 19.5t-13 23z" />
    <glyph glyph-name="l" unicode="l" horiz-adv-x="220" 
d="M153 644l-63 31v6q57 19 159 44l-135 -669l60 -32l-1 -5q-65 -18 -152 -27z" />
    <glyph glyph-name="m" unicode="m" horiz-adv-x="645" 
d="M27 0l71 347l-54 28v7q60 22 151 45l-34 -160q114 157 192 157q23 0 34.5 -10.5t9.5 -28.5q0 -12 -22 -114q119 153 191 153q23 0 35 -11t10 -28q0 -11 -8 -49.5t-29.5 -131t-33.5 -148.5l57 -31v-6q-67 -18 -151 -27q78 348 78 350q1 5 -1.5 7.5t-9.5 2.5q-18 0 -59 -35
t-90 -96l-49 -221h-79q75 337 75 342q0 10 -11 10q-18 0 -58.5 -35.5t-90.5 -97.5l-46 -219h-78z" />
    <glyph glyph-name="n" unicode="n" horiz-adv-x="453" 
d="M27 0l71 347l-54 28v7q60 22 151 45l-34 -162q131 159 212 159q23 0 35 -11t10 -28q0 -27 -71 -329l58 -30v-7q-67 -18 -151 -27q77 344 77 351q0 10 -12 10q-21 0 -66.5 -36t-101.5 -97l-46 -220h-78z" />
    <glyph glyph-name="o" unicode="o" horiz-adv-x="406" 
d="M167 -10q-63 0 -104 45.5t-41 116.5q0 107 68 189.5t153 82.5q59 0 100.5 -45t41.5 -113q0 -117 -68.5 -196.5t-149.5 -79.5zM171 22q47 0 88 76t41 178q0 56 -16 86t-43 30q-49 0 -90.5 -79t-41.5 -171q0 -120 62 -120z" />
    <glyph glyph-name="p" unicode="p" horiz-adv-x="425" 
d="M13 378q2 2 15 7.5t39.5 14t55.5 14.5l14 66l85 25l-16 -80h16q92 0 138.5 -36.5t46.5 -101.5q0 -98 -82.5 -185t-203.5 -99l-44 -216l93 -46l-1 -6h-235l1 6l61 42l122 603q-59 -7 -101 -19zM321 282q0 102 -122 108l-69 -341q6 -3 16 -3q64 0 119.5 70.5t55.5 165.5z
" />
    <glyph glyph-name="q" unicode="q" horiz-adv-x="430" 
d="M324 -259v-6h-211l1 6l89 45l73 365q-101 -161 -167 -161q-32 0 -60 33t-28 99q0 117 84 208t205 91q24 0 39 -5l67 22l-132 -654zM137 48q35 0 151 159l35 174q-19 7 -38 7q-72 0 -125 -82.5t-53 -188.5q0 -31 9 -50t21 -19z" />
    <glyph glyph-name="r" unicode="r" horiz-adv-x="325" 
d="M27 0l71 347l-55 28v7q53 19 152 45l-36 -169q91 166 124 166q22 0 59 -17l-34 -86q-36 16 -45 16q-28 0 -115 -129l-44 -208h-77z" />
    <glyph glyph-name="s" unicode="s" horiz-adv-x="285" 
d="M179 425q38 0 92 -16l-20 -77h-5q-32 62 -71 62q-16 0 -28 -11t-12 -30q0 -22 19 -59l63 -115q22 -41 22 -82q0 -40 -34 -73.5t-91 -33.5q-27 0 -58.5 9t-48.5 19q5 55 17 121h6q23 -114 86 -114q25 0 38.5 14.5t13.5 34.5q0 23 -22 66q-23 44 -60 110q-20 39 -20 74
q0 41 30.5 71t82.5 30z" />
    <glyph glyph-name="t" unicode="t" horiz-adv-x="301" 
d="M181 370l-55 -254q-11 -49 -11 -58q0 -15 14 -15q35 0 109 74l9 -5q-23 -44 -62.5 -83t-89.5 -39q-30 0 -47.5 13t-17.5 32q0 3 10 57l61 278h-52v5l154 105l-14 -69h143l-33 -41h-118z" />
    <glyph glyph-name="u" unicode="u" horiz-adv-x="440" 
d="M284 172q-121 -179 -205 -179q-23 0 -35.5 10.5t-12.5 23.5q0 9 7 42q4 19 27 116.5t37 161.5l-54 29v7q73 25 153 44q-18 -80 -39.5 -170.5t-32 -135t-10.5 -48.5q0 -9 11 -9q21 0 71 50.5t95 112.5l40 187h78l-74 -360l57 -29v-6q-65 -18 -151 -27z" />
    <glyph glyph-name="v" unicode="v" horiz-adv-x="364" 
d="M368 381q0 -45 -61 -130t-240 -270h-13q14 109 21.5 222.5t5.5 150.5l-50 29l1 7q73 23 125 37q3 -51 -5 -162.5t-17 -170.5q153 191 153 264q0 22 -19 37v4l81 26q18 -18 18 -44z" />
    <glyph glyph-name="w" unicode="w" horiz-adv-x="519" 
d="M320 420q8 -59 10.5 -148t-3.5 -162q118 176 118 248q0 18 -17 39v4l80 23q14 -16 14 -41q0 -44 -53 -128t-209 -274h-15q11 109 17 285q-84 -145 -197 -285h-15q32 254 32 373l-50 29l1 7q76 25 127 37q4 -88 -24 -305q93 147 169 298h15z" />
    <glyph glyph-name="x" unicode="x" horiz-adv-x="380" 
d="M274 49l61 -29l-1 -5q-95 -23 -122 -26l-47 173q-80 -132 -98 -152q-20 -22 -40 -22t-46 11l19 73l2 3q30 -11 39 -11q12 0 27.5 17.5t64.5 81.5q5 6 7.5 9.5t7 9.5t8.5 11l-44 165l-56 29v6q10 4 30.5 9.5t48 13t40.5 11.5l41 -158q64 99 89.5 129.5t49.5 30.5
q19 0 43 -8l-19 -71l-3 -2q-19 8 -34 8q-18 0 -43.5 -24.5t-75.5 -90.5z" />
    <glyph glyph-name="y" unicode="y" horiz-adv-x="353" 
d="M278 349q0 27 -25 47v3l86 25q17 -19 17 -47q0 -41 -36.5 -102.5t-139.5 -209.5q-5 -7 -8 -11t-7 -10.5t-8 -11.5q-188 -278 -201 -300l-89 13v6q106 91 229 245q-7 187 -27 358l-50 30v6q78 26 118 37q25 -152 25 -335q65 108 90.5 165t25.5 92z" />
    <glyph glyph-name="z" unicode="z" horiz-adv-x="354" 
d="M-15 7l285 348h-66q-82 0 -149 -10l-3 4l59 72l256 -9l-1 -6l-287 -343h54q113 0 180 19l4 -4l-62 -83l-271 5z" />
    <glyph glyph-name="braceleft" unicode="{" horiz-adv-x="279" 
d="M194 200q0 -35 -28 -83t-56.5 -96.5t-28.5 -84.5q0 -70 77 -111l-4 -7q-134 49 -134 133q0 32 31.5 81t63 99t31.5 86q0 34 -20 48.5t-67 16.5l4 20q121 0 121 83q0 28 -27.5 103t-27.5 103q0 54 45.5 98t149.5 66l4 -7q-69 -23 -102 -63.5t-33 -86.5q0 -28 21 -97
t21 -97q0 -46 -34 -78t-80 -36q30 -7 51.5 -30t21.5 -60z" />
    <glyph glyph-name="bar" unicode="|" horiz-adv-x="257" 
d="M109 745h39v-977h-39v977z" />
    <glyph glyph-name="braceright" unicode="}" horiz-adv-x="280" 
d="M106 373q0 35 28 83t56.5 96.5t28.5 84.5q0 70 -77 111l4 7q134 -49 134 -133q0 -32 -31.5 -81t-63 -99t-31.5 -86q0 -34 20 -48.5t67 -16.5l-4 -20q-121 0 -121 -83q0 -28 27.5 -103t27.5 -103q0 -54 -45.5 -98t-149.5 -66l-4 7q69 23 102 63.5t33 86.5q0 28 -21 97
t-21 97q0 46 34 78t80 36q-30 7 -51.5 30t-21.5 60z" />
    <glyph glyph-name="asciitilde" unicode="~" horiz-adv-x="413" 
d="M307 275q19 0 39.5 18.5t32.5 36.5t31 49l6 -2q-17 -71 -48.5 -118.5t-72.5 -47.5q-30 0 -88 39t-77 39q-41 0 -102 -105l-6 1q14 64 47 117t72 53q30 0 89 -40t77 -40z" />
    <glyph glyph-name="exclamdown" unicode="&#xa1;" horiz-adv-x="215" 
d="M102 205h12l-48 -452h-93q5 17 56 197.5t73 254.5zM144 321q-22 0 -36.5 14t-14.5 37q0 22 14.5 37t36.5 15q23 0 37.5 -15t14.5 -37q0 -23 -14.5 -37t-37.5 -14z" />
    <glyph glyph-name="cent" unicode="&#xa2;" horiz-adv-x="343" 
d="M297 502l-23 -79q49 -4 83 -15l-30 -79h-4q-32 50 -59 59l-98 -345q29 5 65 33.5t58 55.5l9 -6q-58 -116 -146 -133l-23 -81h-30l22 78q-41 2 -69.5 39.5t-28.5 98.5q0 114 67 200.5t154 94.5l23 79h30zM106 140q0 -76 31 -94l98 343q-48 -13 -88.5 -86t-40.5 -163z" />
    <glyph glyph-name="sterling" unicode="&#xa3;" horiz-adv-x="482" 
d="M-16 -10q24 42 69.5 100t63.5 109q14 47 20 86h-85l5 34h86q1 5 18 150q8 89 65.5 146t136.5 57q67 0 115 -13l-18 -106h-6q-36 81 -97 81q-36 0 -63 -34t-38 -94q-3 -19 -14 -87t-18 -100h140l-6 -34h-141q-18 -60 -19 -62q-30 -74 -109 -129q31 15 62 15t85 -21t78 -21
q68 0 131 86l6 -3q-19 -70 -58.5 -114t-89.5 -44q-30 0 -93.5 31.5t-94.5 31.5q-24 0 -49 -12.5t-38 -23t-38 -33.5z" />
    <glyph glyph-name="yen" unicode="&#xa5;" horiz-adv-x="531" 
d="M456 229h-139l-29 -176l57 -47l-1 -6h-219l1 6l73 47l28 176h-139l5 33h139l10 62h-139l6 33h126l-105 253l-46 46l1 6h215l-1 -6l-73 -46l91 -228l160 227l-55 47l1 6h168l-1 -6l-64 -46l-179 -253h130l-6 -33h-139l-10 -62h139z" />
    <glyph glyph-name="brokenbar" unicode="&#xa6;" horiz-adv-x="257" 
d="M109 745h39v-433h-39v433zM109 215h39v-448h-39v448z" />
    <glyph glyph-name="section" unicode="&#xa7;" horiz-adv-x="393" 
d="M49 300q0 51 32 83.5t75 47.5q-17 48 -17 86q0 68 45.5 112t109.5 44q40 0 83 -10l-16 -90h-5q-28 68 -75 68q-33 0 -55 -26.5t-22 -68.5q0 -40 16.5 -77.5t63.5 -118.5q40 -69 57.5 -110.5t17.5 -78.5q0 -94 -104 -135q15 -42 15 -83q0 -72 -47 -125.5t-118 -53.5
q-66 0 -113 31q7 61 20 127h6q14 -122 91 -122q41 0 68.5 33t27.5 87q0 40 -17.5 83t-58.5 108q-43 69 -61.5 110.5t-18.5 78.5zM182 170q47 -80 65 -124q47 34 47 85q0 32 -13 66.5t-48 93.5q-51 83 -69 123q-52 -27 -52 -84q0 -30 14.5 -61t55.5 -99z" />
    <glyph glyph-name="dieresis" unicode="&#xa8;" 
d="M348 627q19 0 32.5 -13.5t13.5 -32.5t-13.5 -32.5t-32.5 -13.5t-32.5 13.5t-13.5 32.5t13.5 32.5t32.5 13.5zM188 627q19 0 32.5 -13.5t13.5 -32.5t-13.5 -32.5t-32.5 -13.5t-32.5 13.5t-13.5 32.5t13.5 32.5t32.5 13.5z" />
    <glyph glyph-name="copyright" unicode="&#xa9;" horiz-adv-x="776" 
d="M424 162q-83 0 -139 48.5t-56 125.5q0 73 54.5 125t141.5 52q52 0 107 -13v-89h-3q-48 70 -108 70q-50 0 -80.5 -39.5t-30.5 -100.5q0 -64 35 -104.5t82 -40.5q35 0 64 21.5t45 45.5h4v-78q-53 -23 -116 -23zM408 637q-126 0 -209.5 -88.5t-83.5 -216.5q0 -126 86 -215.5
t207 -89.5q125 0 209 88t84 217q0 125 -85.5 215t-207.5 90zM408 674q141 0 240.5 -100.5t99.5 -241.5q0 -144 -98 -243t-242 -99q-145 0 -242.5 98.5t-97.5 243.5q0 144 98 243t242 99z" />
    <glyph glyph-name="ordfeminine" unicode="&#xaa;" horiz-adv-x="306" 
d="M321 394v-4q-59 -14 -116 -19l20 94q-71 -95 -116 -95q-20 0 -34.5 19t-14.5 51q0 73 57 139t151 77l69 34l-55 -275zM139 416q12 0 39 26t55 62l27 127q-49 -6 -90.5 -64.5t-41.5 -126.5q0 -24 11 -24z" />
    <glyph glyph-name="guillemotleft" unicode="&#xab;" horiz-adv-x="370" 
d="M284 62l-104 164v1l166 156l7 -6l-105 -158l45 -154zM146 62l-104 164v1l165 156l7 -6l-105 -158l45 -154z" />
    <glyph glyph-name="registered" unicode="&#xae;" horiz-adv-x="393" 
d="M252 684q72 0 124 -52t52 -125q0 -75 -51 -126t-125 -51q-76 0 -127 51t-51 126t51 126t127 51zM252 657q-61 0 -102.5 -43.5t-41.5 -106.5q0 -62 41.5 -105.5t102.5 -43.5t102.5 43t41.5 106q0 62 -41.5 106t-102.5 44zM170 425v5l19 16v137l-19 16v5h95
q26 0 41.5 -11.5t15.5 -31.5q0 -25 -30 -43l28 -46q16 -26 33 -41v-5q-14 -2 -27 -2q-19 0 -28 7t-19 25l-27 51h-18v-61l23 -16v-5h-87zM234 583v-56h21q9 0 15.5 7.5t6.5 19.5q0 29 -30 29h-13z" />
    <glyph glyph-name="macron" unicode="&#xaf;" 
d="M172 581h198l-10 -50h-198z" />
    <glyph glyph-name="degree" unicode="&#xb0;" horiz-adv-x="252" 
d="M117 558q0 -30 16.5 -48.5t39.5 -18.5q29 0 48 24t19 59q0 31 -16.5 48.5t-38.5 17.5q-30 0 -49 -23.5t-19 -58.5zM82 558q0 44 29.5 78t73.5 34q38 0 64 -25t26 -71t-29 -79.5t-73 -33.5q-39 0 -65 25.5t-26 71.5z" />
    <glyph glyph-name="twosuperior" unicode="&#xb2;" horiz-adv-x="222" 
d="M224 426h-177l1 11q88 90 118 130t30 71q0 41 -44 41q-26 0 -49 -18l-5 4q27 56 89 56q32 0 51.5 -19.5t19.5 -51.5q0 -40 -34 -77.5t-112 -97.5h144z" />
    <glyph glyph-name="threesuperior" unicode="&#xb3;" horiz-adv-x="194" 
d="M95 577q38 22 57.5 39.5t19.5 35.5q0 31 -35 31q-15 0 -38 -14l-5 4q28 48 79 48q26 0 41 -13.5t15 -35.5q0 -41 -66 -68q31 -2 50 -18t19 -44q0 -44 -44 -78t-137 -45l-3 7q118 49 118 104q0 40 -50 40q-9 0 -19 -2z" />
    <glyph glyph-name="acute" unicode="&#xb4;" 
d="M180 493l-9 5l128 214l57 -47z" />
    <glyph glyph-name="paragraph" unicode="&#xb6;" horiz-adv-x="451" 
d="M238 377q-70 0 -115.5 37.5t-45.5 101.5q0 69 49 107.5t134 38.5h73l-111 -662h-112l1 6l72 47zM326 53l57 -47l-1 -6h-113l112 662h113l-1 -6l-72 -46z" />
    <glyph glyph-name="periodcentered" unicode="&#xb7;" horiz-adv-x="184" 
d="M101 302q22 0 37 -14t15 -37q0 -22 -15 -37t-37 -15q-23 0 -37 15t-14 37q0 23 14 37t37 14z" />
    <glyph glyph-name="cedilla" unicode="&#xb8;" 
d="M188 0l-49 -76q57 -24 57 -72q0 -41 -44 -74.5t-122 -54.5l-4 7q43 23 76.5 52.5t33.5 56.5t-45 46l-1 3q7 11 18.5 29t16.5 26q36 53 36 57h27z" />
    <glyph glyph-name="onesuperior" unicode="&#xb9;" horiz-adv-x="159" 
d="M51 426v4l38 25l41 209l-31 18v4q56 19 100 37l-51 -268l26 -25l-1 -4h-122z" />
    <glyph glyph-name="ordmasculine" unicode="&#xba;" horiz-adv-x="303" 
d="M182 396q30 0 58 51.5t28 118.5q0 37 -11 57.5t-27 20.5q-32 0 -60.5 -54t-28.5 -115q0 -79 41 -79zM179 369q-47 0 -76.5 31.5t-29.5 82.5q0 74 48 131t110 57q45 0 75 -32t30 -80q0 -81 -49 -135.5t-108 -54.5z" />
    <glyph glyph-name="guillemotright" unicode="&#xbb;" horiz-adv-x="370" 
d="M84 383l104 -164v-1l-166 -156l-7 6l105 158l-45 154zM222 383l104 -164v-1l-165 -156l-7 6l105 158l-45 154z" />
    <glyph glyph-name="onequarter" unicode="&#xbc;" horiz-adv-x="493" 
d="M60 373v4l38 25l41 209l-31 18v4q56 19 100 37l-51 -268l26 -25l-1 -4h-122zM489 662h42l-494 -662h-42zM423 3l-1 -3h-117l1 3l35 26l9 46h-119l1 8l173 207h44l-35 -178h51l-24 -37h-34l-9 -46zM357 112l21 111l-94 -111h73z" />
    <glyph glyph-name="onehalf" unicode="&#xbd;" horiz-adv-x="521" 
d="M489 662h42l-494 -662h-42zM60 373v4l38 25l41 209l-31 18v4q56 19 100 37l-51 -268l26 -25l-1 -4h-122zM434 0h-177l1 11q88 90 118 130t30 71q0 41 -44 41q-26 0 -49 -18l-5 4q27 56 89 56q32 0 51.5 -19.5t19.5 -51.5q0 -40 -34 -77.5t-112 -97.5h144z" />
    <glyph glyph-name="threequarters" unicode="&#xbe;" horiz-adv-x="491" 
d="M494 662h42l-494 -662h-42zM103 524q38 22 57.5 39.5t19.5 35.5q0 31 -35 31q-15 0 -38 -14l-5 4q28 48 79 48q26 0 41 -13.5t15 -35.5q0 -41 -66 -68q31 -2 50 -18t19 -44q0 -44 -44 -78t-137 -45l-3 7q118 49 118 104q0 40 -50 40q-9 0 -19 -2zM422 3l-1 -3h-117l1 3
l35 26l9 46h-119l1 8l173 207h44l-35 -178h51l-24 -37h-34l-9 -46zM356 112l21 111l-94 -111h73z" />
    <glyph glyph-name="questiondown" unicode="&#xbf;" horiz-adv-x="305" 
d="M48 -7q4 3 35 29t45 40q29 26 40 67q5 21 15 76h10q13 -71 13 -113q0 -22 -8 -37.5t-31 -38.5l-70 -71q-52 -52 -52 -101q0 -31 14.5 -48.5t38.5 -17.5q11 0 23 5t20.5 10.5t21 16.5t17.5 16.5t16 17.5l11 13h7l-21 -104q-27 -10 -91 -10t-99.5 27t-35.5 78q0 69 81 145z
M210 321q-22 0 -37 14t-15 37q0 22 15 37t37 15q23 0 37 -15t14 -37q0 -23 -14 -37t-37 -14z" />
    <glyph glyph-name="Agrave" unicode="&#xc0;" horiz-adv-x="570" 
d="M133 6l-2 -6h-168l2 6l67 47l333 621h12l109 -621l44 -47l-2 -6h-207l2 6l77 47l-38 214h-172l-113 -214zM209 302h147l-37 208zM260 775l39 66l163 -130l-6 -8z" />
    <glyph glyph-name="Aacute" unicode="&#xc1;" horiz-adv-x="570" 
d="M133 6l-2 -6h-168l2 6l67 47l333 621h12l109 -621l44 -47l-2 -6h-207l2 6l77 47l-38 214h-172l-113 -214zM209 302h147l-37 208zM280 703l-5 9l199 129l32 -69z" />
    <glyph glyph-name="Acircumflex" unicode="&#xc2;" horiz-adv-x="570" 
d="M133 6l-2 -6h-168l2 6l67 47l333 621h12l109 -621l44 -47l-2 -6h-207l2 6l77 47l-38 214h-172l-113 -214zM209 302h147l-37 208zM397 835l99 -124l-5 -6l-101 54l-133 -54l-5 7z" />
    <glyph glyph-name="Atilde" unicode="&#xc3;" horiz-adv-x="570" 
d="M133 6l-2 -6h-168l2 6l67 47l333 621h12l109 -621l44 -47l-2 -6h-207l2 6l77 47l-38 214h-172l-113 -214zM209 302h147l-37 208zM328 809q11 0 56.5 -11.5t57.5 -11.5q13 0 34 16t34 33l7 -3q-13 -39 -37 -71.5t-46 -32.5q-16 0 -60.5 11.5t-53.5 11.5q-13 0 -34 -16.5
t-36 -34.5l-7 3q14 38 38.5 72t46.5 34z" />
    <glyph glyph-name="Adieresis" unicode="&#xc4;" horiz-adv-x="570" 
d="M133 6l-2 -6h-168l2 6l67 47l333 621h12l109 -621l44 -47l-2 -6h-207l2 6l77 47l-38 214h-172l-113 -214zM209 302h147l-37 208zM464 813q20 0 33 -13.5t13 -32.5t-13 -32.5t-33 -13.5q-19 0 -32 13.5t-13 32.5t13 32.5t32 13.5zM297 813q19 0 32 -13.5t13 -32.5
t-13 -32.5t-32 -13.5t-32.5 13.5t-13.5 32.5t13.5 32.5t32.5 13.5z" />
    <glyph glyph-name="Aring" unicode="&#xc5;" horiz-adv-x="570" 
d="M133 6l-2 -6h-168l2 6l67 47l333 621h12l109 -621l44 -47l-2 -6h-207l2 6l77 47l-38 214h-172l-113 -214zM209 302h147l-37 208zM330 778q0 -21 13.5 -36t34.5 -15t34.5 15t13.5 36t-13.5 36t-34.5 15t-34.5 -15t-13.5 -36zM298 778q0 33 23.5 56t56.5 23t56.5 -23
t23.5 -56q0 -35 -23 -57t-57 -22t-57 22t-23 57z" />
    <glyph glyph-name="AE" unicode="&#xc6;" horiz-adv-x="775" 
d="M349 656l1 6h433l-20 -122h-6l-48 86h-164l-43 -256h169l56 69h6l-29 -174h-7l-32 69h-169l-49 -297h179l87 107h7l-24 -144h-409l1 6l72 47l43 258h-154l-174 -258l57 -47l-1 -6h-168l1 6l64 47l377 557zM409 347l44 266l-180 -266h136z" />
    <glyph glyph-name="Ccedilla" unicode="&#xc7;" horiz-adv-x="592" 
d="M340 -10q-20 0 -30 1l-43 -67q57 -24 57 -72q0 -41 -44 -74.5t-122 -54.5l-4 7q43 23 76.5 52.5t33.5 56.5t-45 46l-1 3q7 11 18.5 29t16.5 26q24 38 25 39q7 11 7 12q-18 3 -54 13q-80 28 -127.5 95t-47.5 168q0 162 113.5 282t273.5 120q97 0 163 -23l-20 -116h-7
q-44 102 -144 102q-117 0 -199 -106t-82 -258q0 -106 53.5 -174.5t133.5 -68.5q104 0 183 95h6l-20 -107q-59 -26 -170 -26z" />
    <glyph glyph-name="Egrave" unicode="&#xc8;" horiz-adv-x="488" 
d="M225 775l39 66l163 -130l-6 -8zM-5 0l1 6l72 47l93 557l-56 46l1 6h391l-20 -122h-7l-48 86h-169l-43 -256h175l56 70h6l-29 -175h-7l-32 69h-175l-49 -297h185l86 107h7l-23 -144h-415z" />
    <glyph glyph-name="Eacute" unicode="&#xc9;" horiz-adv-x="488" 
d="M233 703l-5 9l199 129l32 -69zM-5 0l1 6l72 47l93 557l-56 46l1 6h391l-20 -122h-7l-48 86h-169l-43 -256h175l56 70h6l-29 -175h-7l-32 69h-175l-49 -297h185l86 107h7l-23 -144h-415z" />
    <glyph glyph-name="Ecircumflex" unicode="&#xca;" horiz-adv-x="488" 
d="M349 835l99 -124l-5 -6l-101 54l-133 -54l-5 7zM-5 0l1 6l72 47l93 557l-56 46l1 6h391l-20 -122h-7l-48 86h-169l-43 -256h175l56 70h6l-29 -175h-7l-32 69h-175l-49 -297h185l86 107h7l-23 -144h-415z" />
    <glyph glyph-name="Edieresis" unicode="&#xcb;" horiz-adv-x="488" 
d="M-5 0l1 6l72 47l93 557l-56 46l1 6h391l-20 -122h-7l-48 86h-169l-43 -256h175l56 70h6l-29 -175h-7l-32 69h-175l-49 -297h185l86 107h7l-23 -144h-415zM418 813q20 0 33 -13.5t13 -32.5t-13 -32.5t-33 -13.5q-19 0 -32 13.5t-13 32.5t13 32.5t32 13.5zM251 813
q19 0 32 -13.5t13 -32.5t-13 -32.5t-32 -13.5t-32.5 13.5t-13.5 32.5t13.5 32.5t32.5 13.5z" />
    <glyph glyph-name="Igrave" unicode="&#xcc;" horiz-adv-x="280" 
d="M-5 0l1 6l72 47l93 557l-56 46l1 6h218l-1 -6l-72 -46l-93 -557l57 -47l-1 -6h-219zM119 775l39 66l163 -130l-6 -8z" />
    <glyph glyph-name="Iacute" unicode="&#xcd;" horiz-adv-x="280" 
d="M-5 0l1 6l72 47l93 557l-56 46l1 6h218l-1 -6l-72 -46l-93 -557l57 -47l-1 -6h-219zM130 703l-5 9l199 129l32 -69z" />
    <glyph glyph-name="Icircumflex" unicode="&#xce;" horiz-adv-x="280" 
d="M-5 0l1 6l72 47l93 557l-56 46l1 6h218l-1 -6l-72 -46l-93 -557l57 -47l-1 -6h-219zM243 835l99 -124l-5 -6l-101 54l-133 -54l-5 7z" />
    <glyph glyph-name="Idieresis" unicode="&#xcf;" horiz-adv-x="280" 
d="M-5 0l1 6l72 47l93 557l-56 46l1 6h218l-1 -6l-72 -46l-93 -557l57 -47l-1 -6h-219zM314 813q20 0 33 -13.5t13 -32.5t-13 -32.5t-33 -13.5q-19 0 -32 13.5t-13 32.5t13 32.5t32 13.5zM147 813q19 0 32 -13.5t13 -32.5t-13 -32.5t-32 -13.5t-32.5 13.5t-13.5 32.5
t13.5 32.5t32.5 13.5z" />
    <glyph glyph-name="Eth" unicode="&#xd0;" horiz-adv-x="643" 
d="M336 662q124 0 209 -74t85 -207q0 -94 -42 -180t-125.5 -143.5t-189.5 -57.5h-278l1 6l72 46l44 267h-74l7 36h73l43 255l-56 46l1 6h230zM202 319l-44 -267q49 -17 115 -17q106 0 182 97.5t76 240.5q0 125 -63 189.5t-155 64.5h-60l-45 -272h177l-7 -36h-176z" />
    <glyph glyph-name="Ntilde" unicode="&#xd1;" horiz-adv-x="660" 
d="M381 809q11 0 56.5 -11.5t57.5 -11.5q13 0 34 16t34 33l7 -3q-13 -39 -37 -71.5t-46 -32.5q-16 0 -60.5 11.5t-53.5 11.5q-13 0 -34 -16.5t-36 -34.5l-7 3q14 38 38.5 72t46.5 34zM503 0l-313 522l-76 -465l66 -51l-1 -6h-193l2 6l80 51l87 520q-46 66 -56 80v5h111
l304 -515l76 458l-66 52l1 5h191l-1 -5l-80 -52l-99 -605h-33z" />
    <glyph glyph-name="Ograve" unicode="&#xd2;" horiz-adv-x="668" 
d="M313 775l39 66l163 -130l-6 -8zM401 636q-99 0 -171 -111.5t-72 -262.5q0 -107 45.5 -171t108.5 -64q98 0 170.5 111.5t72.5 271.5q0 106 -45 166t-109 60zM61 263q0 164 103 286.5t238 122.5q109 0 180 -74t71 -190q0 -174 -102 -296t-239 -122q-106 0 -178.5 76
t-72.5 197z" />
    <glyph glyph-name="Oacute" unicode="&#xd3;" horiz-adv-x="668" 
d="M318 703l-5 9l199 129l32 -69zM401 636q-99 0 -171 -111.5t-72 -262.5q0 -107 45.5 -171t108.5 -64q98 0 170.5 111.5t72.5 271.5q0 106 -45 166t-109 60zM61 263q0 164 103 286.5t238 122.5q109 0 180 -74t71 -190q0 -174 -102 -296t-239 -122q-106 0 -178.5 76
t-72.5 197z" />
    <glyph glyph-name="Ocircumflex" unicode="&#xd4;" horiz-adv-x="668" 
d="M440 835l99 -124l-5 -6l-101 54l-133 -54l-5 7zM401 636q-99 0 -171 -111.5t-72 -262.5q0 -107 45.5 -171t108.5 -64q98 0 170.5 111.5t72.5 271.5q0 106 -45 166t-109 60zM61 263q0 164 103 286.5t238 122.5q109 0 180 -74t71 -190q0 -174 -102 -296t-239 -122
q-106 0 -178.5 76t-72.5 197z" />
    <glyph glyph-name="Otilde" unicode="&#xd5;" horiz-adv-x="668" 
d="M375 809q11 0 56.5 -11.5t57.5 -11.5q13 0 34 16t34 33l7 -3q-13 -39 -37 -71.5t-46 -32.5q-16 0 -60.5 11.5t-53.5 11.5q-13 0 -34 -16.5t-36 -34.5l-7 3q14 38 38.5 72t46.5 34zM401 636q-99 0 -171 -111.5t-72 -262.5q0 -107 45.5 -171t108.5 -64q98 0 170.5 111.5
t72.5 271.5q0 106 -45 166t-109 60zM61 263q0 164 103 286.5t238 122.5q109 0 180 -74t71 -190q0 -174 -102 -296t-239 -122q-106 0 -178.5 76t-72.5 197z" />
    <glyph glyph-name="Odieresis" unicode="&#xd6;" horiz-adv-x="668" 
d="M509 813q20 0 33 -13.5t13 -32.5t-13 -32.5t-33 -13.5q-19 0 -32 13.5t-13 32.5t13 32.5t32 13.5zM342 813q19 0 32 -13.5t13 -32.5t-13 -32.5t-32 -13.5t-32.5 13.5t-13.5 32.5t13.5 32.5t32.5 13.5zM401 636q-99 0 -171 -111.5t-72 -262.5q0 -107 45.5 -171t108.5 -64
q98 0 170.5 111.5t72.5 271.5q0 106 -45 166t-109 60zM61 263q0 164 103 286.5t238 122.5q109 0 180 -74t71 -190q0 -174 -102 -296t-239 -122q-106 0 -178.5 76t-72.5 197z" />
    <glyph glyph-name="multiply" unicode="&#xd7;" horiz-adv-x="363" 
d="M171 247l-87 131l32 23l83 -127l133 127l24 -26l-137 -131l88 -134l-31 -20l-86 127l-133 -127l-24 25z" />
    <glyph glyph-name="Oslash" unicode="&#xd8;" horiz-adv-x="668" 
d="M61 263q0 164 103 286.5t238 122.5q83 0 146 -46l62 86l29 -20l-64 -89q78 -76 78 -195q0 -174 -102 -296t-239 -122q-80 0 -144 45l-71 -99l-29 20l73 102q-80 74 -80 205zM401 636q-99 0 -171 -111.5t-72 -262.5q0 -84 28 -141l325 453q-44 62 -110 62zM555 410
q-2 79 -25 130l-325 -452q44 -61 107 -61q98 0 170.5 111.5t72.5 271.5z" />
    <glyph glyph-name="Ugrave" unicode="&#xd9;" horiz-adv-x="641" 
d="M310 775l39 66l163 -130l-6 -8zM554 201q-16 -90 -76 -150.5t-162 -60.5q-121 0 -183.5 63t-45.5 164l66 393l-56 46l1 6h219l-1 -6l-74 -46l-66 -397q-12 -77 32 -123t124 -46q74 0 120.5 44.5t56.5 113.5l68 408l-57 46l1 6h174l-1 -6l-72 -46z" />
    <glyph glyph-name="Uacute" unicode="&#xda;" horiz-adv-x="641" 
d="M321 703l-5 9l199 129l32 -69zM554 201q-16 -90 -76 -150.5t-162 -60.5q-121 0 -183.5 63t-45.5 164l66 393l-56 46l1 6h219l-1 -6l-74 -46l-66 -397q-12 -77 32 -123t124 -46q74 0 120.5 44.5t56.5 113.5l68 408l-57 46l1 6h174l-1 -6l-72 -46z" />
    <glyph glyph-name="Ucircumflex" unicode="&#xdb;" horiz-adv-x="641" 
d="M442 835l99 -124l-5 -6l-101 54l-133 -54l-5 7zM554 201q-16 -90 -76 -150.5t-162 -60.5q-121 0 -183.5 63t-45.5 164l66 393l-56 46l1 6h219l-1 -6l-74 -46l-66 -397q-12 -77 32 -123t124 -46q74 0 120.5 44.5t56.5 113.5l68 408l-57 46l1 6h174l-1 -6l-72 -46z" />
    <glyph glyph-name="Udieresis" unicode="&#xdc;" horiz-adv-x="641" 
d="M554 201q-16 -90 -76 -150.5t-162 -60.5q-121 0 -183.5 63t-45.5 164l66 393l-56 46l1 6h219l-1 -6l-74 -46l-66 -397q-12 -77 32 -123t124 -46q74 0 120.5 44.5t56.5 113.5l68 408l-57 46l1 6h174l-1 -6l-72 -46zM506 813q20 0 33 -13.5t13 -32.5t-13 -32.5t-33 -13.5
q-19 0 -32 13.5t-13 32.5t13 32.5t32 13.5zM339 813q19 0 32 -13.5t13 -32.5t-13 -32.5t-32 -13.5t-32.5 13.5t-13.5 32.5t13.5 32.5t32.5 13.5z" />
    <glyph glyph-name="Yacute" unicode="&#xdd;" horiz-adv-x="555" 
d="M451 656l1 6h168l-1 -6l-64 -46l-208 -288l-44 -269l57 -47l-1 -6h-220l1 6l73 47l43 262l-126 295l-47 46l1 6h214l-1 -6l-74 -46l105 -251l178 250zM283 703l-5 9l199 129l32 -69z" />
    <glyph glyph-name="Thorn" unicode="&#xde;" horiz-adv-x="487" 
d="M228 470l-70 -417l57 -47l-1 -6h-219l1 6l72 47l93 557l-56 46l1 6h218l-1 -6l-72 -46l-18 -105h59q86 0 141.5 -37t55.5 -103q0 -80 -77.5 -129t-194.5 -51l2 9q84 18 131.5 60.5t47.5 107.5q0 53 -33 80.5t-91 27.5h-46z" />
    <glyph glyph-name="germandbls" unicode="&#xdf;" horiz-adv-x="436" 
d="M326 717q62 0 97.5 -29.5t35.5 -76.5q0 -34 -17 -63.5t-41.5 -50.5t-49.5 -40t-42 -40.5t-17 -43.5q0 -7 1 -13t4 -14t5 -12.5t8.5 -15t9.5 -15t12 -18.5t12 -19q33 -52 46.5 -82t13.5 -67q0 -51 -39.5 -89t-102.5 -38q-54 0 -101 27q7 66 19 120h6q22 -112 79 -112
q32 0 50 20t18 52q0 27 -10 48t-42 71q-23 35 -31.5 48.5t-16.5 35.5t-8 42q0 28 16.5 53t39.5 45.5t46.5 43t40 54t16.5 69.5q0 75 -70 75q-90 0 -116 -139q-17 -85 -56 -297t-43 -232q-8 -40 -16.5 -70.5t-27.5 -71.5t-43.5 -68t-66 -47.5t-93.5 -22.5l-13 61l1 1
q56 -6 67 -6q33 0 52 20t35 73.5t38 172.5q61 348 80 454q16 87 71 147t143 60z" />
    <glyph glyph-name="agrave" unicode="&#xe0;" horiz-adv-x="415" 
d="M373 26l-1 -7q-67 -18 -151 -27l30 148q-41 -62 -87.5 -106t-85.5 -44q-25 0 -44.5 28t-19.5 74q0 67 34 134.5t102.5 119t155.5 61.5l89 48l-80 -399zM116 50q19 0 62.5 43.5t83.5 100.5l38 181q-79 -6 -141 -91.5t-62 -189.5q0 -44 19 -44zM299 493l-128 185l69 34
l68 -214z" />
    <glyph glyph-name="aacute" unicode="&#xe1;" horiz-adv-x="415" 
d="M373 26l-1 -7q-67 -18 -151 -27l30 148q-41 -62 -87.5 -106t-85.5 -44q-25 0 -44.5 28t-19.5 74q0 67 34 134.5t102.5 119t155.5 61.5l89 48l-80 -399zM116 50q19 0 62.5 43.5t83.5 100.5l38 181q-79 -6 -141 -91.5t-62 -189.5q0 -44 19 -44zM227 493l-9 5l128 214
l57 -47z" />
    <glyph glyph-name="acircumflex" unicode="&#xe2;" horiz-adv-x="415" 
d="M373 26l-1 -7q-67 -18 -151 -27l30 148q-41 -62 -87.5 -106t-85.5 -44q-25 0 -44.5 28t-19.5 74q0 67 34 134.5t102.5 119t155.5 61.5l89 48l-80 -399zM116 50q19 0 62.5 43.5t83.5 100.5l38 181q-79 -6 -141 -91.5t-62 -189.5q0 -44 19 -44zM301 707l54 -220l-8 -3
l-64 109l-115 -109l-8 5z" />
    <glyph glyph-name="atilde" unicode="&#xe3;" horiz-adv-x="415" 
d="M373 26l-1 -7q-67 -18 -151 -27l30 148q-41 -62 -87.5 -106t-85.5 -44q-25 0 -44.5 28t-19.5 74q0 67 34 134.5t102.5 119t155.5 61.5l89 48l-80 -399zM116 50q19 0 62.5 43.5t83.5 100.5l38 181q-79 -6 -141 -91.5t-62 -189.5q0 -44 19 -44zM236 613q11 0 49 -14.5
t49 -14.5q12 0 31.5 17t35.5 39l7 -4q-12 -41 -37 -74.5t-45 -33.5q-13 0 -51 14.5t-47 14.5q-21 0 -69 -56l-7 4q15 41 40 74.5t44 33.5z" />
    <glyph glyph-name="adieresis" unicode="&#xe4;" horiz-adv-x="415" 
d="M373 26l-1 -7q-67 -18 -151 -27l30 148q-41 -62 -87.5 -106t-85.5 -44q-25 0 -44.5 28t-19.5 74q0 67 34 134.5t102.5 119t155.5 61.5l89 48l-80 -399zM116 50q19 0 62.5 43.5t83.5 100.5l38 181q-79 -6 -141 -91.5t-62 -189.5q0 -44 19 -44zM340 627q19 0 32.5 -13.5
t13.5 -32.5t-13.5 -32.5t-32.5 -13.5t-32.5 13.5t-13.5 32.5t13.5 32.5t32.5 13.5zM180 627q19 0 32.5 -13.5t13.5 -32.5t-13.5 -32.5t-32.5 -13.5t-32.5 13.5t-13.5 32.5t13.5 32.5t32.5 13.5z" />
    <glyph glyph-name="aring" unicode="&#xe5;" horiz-adv-x="415" 
d="M373 26l-1 -7q-67 -18 -151 -27l30 148q-41 -62 -87.5 -106t-85.5 -44q-25 0 -44.5 28t-19.5 74q0 67 34 134.5t102.5 119t155.5 61.5l89 48l-80 -399zM116 50q19 0 62.5 43.5t83.5 100.5l38 181q-79 -6 -141 -91.5t-62 -189.5q0 -44 19 -44zM211 576q0 -21 13.5 -36
t34.5 -15t34.5 15t13.5 36t-13.5 36t-34.5 15t-34.5 -15t-13.5 -36zM179 576q0 33 23.5 56t56.5 23t57 -23t24 -56q0 -35 -23.5 -57t-57.5 -22t-57 22t-23 57z" />
    <glyph glyph-name="ae" unicode="&#xe6;" horiz-adv-x="561" 
d="M347 -10q-41 0 -73 32t-32 96v6q-90 -134 -160 -134q-27 0 -47 27.5t-20 75.5q0 121 88.5 223.5t204.5 102.5q51 0 86 -22q46 27 90 27q37 0 57.5 -12t20.5 -31q0 -13 -9.5 -29t-31 -35.5t-67 -36.5t-107.5 -25q-21 -60 -21 -126q0 -85 53 -85q56 0 130 87l10 -7
q-72 -134 -172 -134zM291 387q-66 0 -129 -90t-63 -203q0 -44 20 -44q19 0 53.5 33t72.5 83q18 118 105 198q-25 23 -59 23zM491 375q0 20 -25 20q-26 0 -56.5 -31t-53.5 -83q58 13 96.5 37.5t38.5 56.5z" />
    <glyph glyph-name="ccedilla" unicode="&#xe7;" horiz-adv-x="337" 
d="M253 424q56 0 95 -16l-30 -79h-4q-39 60 -74 60q-46 0 -90.5 -76.5t-44.5 -172.5q0 -48 12.5 -72t31.5 -24q52 0 131 88l9 -6q-47 -92 -115 -124q-13 -7 -30 -10l-44 -68q57 -24 57 -72q0 -41 -44 -74.5t-122 -54.5l-4 7q43 23 76.5 52.5t33.5 56.5t-45 46l-1 3
q7 11 18.5 29t16.5 26q24 38 25 39q4 6 5 8q-19 2 -33 10q-27 13 -44.5 47t-17.5 81q0 117 72 206.5t160 89.5z" />
    <glyph glyph-name="egrave" unicode="&#xe8;" horiz-adv-x="340" 
d="M125 -10q-40 0 -72 32t-32 96q0 117 75.5 211.5t165.5 94.5q37 0 58 -12t21 -31q0 -12 -9.5 -28t-31 -36t-67 -37t-107.5 -24q-21 -63 -21 -127q0 -85 52 -85t131 86l9 -6q-69 -134 -172 -134zM245 395q-26 0 -56.5 -31t-53.5 -83q57 13 95.5 38t38.5 56q0 20 -24 20z
M279 493l-128 185l69 34l68 -214z" />
    <glyph glyph-name="eacute" unicode="&#xe9;" horiz-adv-x="340" 
d="M203 493l-9 5l128 214l57 -47zM125 -10q-40 0 -72 32t-32 96q0 117 75.5 211.5t165.5 94.5q37 0 58 -12t21 -31q0 -12 -9.5 -28t-31 -36t-67 -37t-107.5 -24q-21 -63 -21 -127q0 -85 52 -85t131 86l9 -6q-69 -134 -172 -134zM245 395q-26 0 -56.5 -31t-53.5 -83
q57 13 95.5 38t38.5 56q0 20 -24 20z" />
    <glyph glyph-name="ecircumflex" unicode="&#xea;" horiz-adv-x="340" 
d="M271 707l54 -220l-8 -3l-64 109l-115 -109l-8 5zM125 -10q-40 0 -72 32t-32 96q0 117 75.5 211.5t165.5 94.5q37 0 58 -12t21 -31q0 -12 -9.5 -28t-31 -36t-67 -37t-107.5 -24q-21 -63 -21 -127q0 -85 52 -85t131 86l9 -6q-69 -134 -172 -134zM245 395q-26 0 -56.5 -31
t-53.5 -83q57 13 95.5 38t38.5 56q0 20 -24 20z" />
    <glyph glyph-name="edieresis" unicode="&#xeb;" horiz-adv-x="340" 
d="M326 627q19 0 32.5 -13.5t13.5 -32.5t-13.5 -32.5t-32.5 -13.5t-32.5 13.5t-13.5 32.5t13.5 32.5t32.5 13.5zM166 627q19 0 32.5 -13.5t13.5 -32.5t-13.5 -32.5t-32.5 -13.5t-32.5 13.5t-13.5 32.5t13.5 32.5t32.5 13.5zM125 -10q-40 0 -72 32t-32 96q0 117 75.5 211.5
t165.5 94.5q37 0 58 -12t21 -31q0 -12 -9.5 -28t-31 -36t-67 -37t-107.5 -24q-21 -63 -21 -127q0 -85 52 -85t131 86l9 -6q-69 -134 -172 -134zM245 395q-26 0 -56.5 -31t-53.5 -83q57 13 95.5 38t38.5 56q0 20 -24 20z" />
    <glyph glyph-name="igrave" unicode="&#xec;" horiz-adv-x="224" 
d="M99 347l-55 28v7q67 24 148 45l-70 -371l60 -32v-5q-73 -19 -151 -27zM199 493l-128 185l69 34l68 -214z" />
    <glyph glyph-name="iacute" unicode="&#xed;" horiz-adv-x="224" 
d="M119 493l-9 5l128 214l57 -47zM99 347l-55 28v7q67 24 148 45l-70 -371l60 -32v-5q-73 -19 -151 -27z" />
    <glyph glyph-name="icircumflex" unicode="&#xee;" horiz-adv-x="224" 
d="M193 707l54 -220l-8 -3l-64 109l-115 -109l-8 5zM99 347l-55 28v7q67 24 148 45l-70 -371l60 -32v-5q-73 -19 -151 -27z" />
    <glyph glyph-name="idieresis" unicode="&#xef;" horiz-adv-x="224" 
d="M99 347l-55 28v7q67 24 148 45l-70 -371l60 -32v-5q-73 -19 -151 -27zM243 625q18 0 31 -13t13 -31t-13 -31t-31 -13t-30.5 13t-12.5 31t12.5 31t30.5 13zM95 625q18 0 30.5 -13t12.5 -31t-12.5 -31t-30.5 -13t-31 13t-13 31t13 31t31 13z" />
    <glyph glyph-name="eth" unicode="&#xf0;" horiz-adv-x="410" 
d="M150 719q75 -39 130 -101l103 59l16 -27l-98 -56q89 -112 89 -254q0 -157 -70 -253.5t-158 -96.5q-63 0 -101.5 48t-38.5 114q0 113 69 190.5t156 77.5q33 0 53 -13q-9 85 -48 159l-137 -79l-16 28l138 79q-29 46 -91 117zM304 347q0 16 -1 24q-22 14 -51 14
q-60 0 -102 -72t-42 -172q0 -55 15.5 -87t42.5 -32q47 0 92.5 94t45.5 231z" />
    <glyph glyph-name="ntilde" unicode="&#xf1;" horiz-adv-x="453" 
d="M27 0l71 347l-54 28v7q60 22 151 45l-34 -162q131 159 212 159q23 0 35 -11t10 -28q0 -27 -71 -329l58 -30v-7q-67 -18 -151 -27q77 344 77 351q0 10 -12 10q-21 0 -66.5 -36t-101.5 -97l-46 -220h-78zM247 613q11 0 49 -14.5t49 -14.5q12 0 31.5 17t35.5 39l7 -4
q-12 -41 -37 -74.5t-45 -33.5q-13 0 -51 14.5t-47 14.5q-21 0 -69 -56l-7 4q15 41 40 74.5t44 33.5z" />
    <glyph glyph-name="ograve" unicode="&#xf2;" horiz-adv-x="406" 
d="M167 -10q-63 0 -104 45.5t-41 116.5q0 107 68 189.5t153 82.5q59 0 100.5 -45t41.5 -113q0 -117 -68.5 -196.5t-149.5 -79.5zM171 22q47 0 88 76t41 178q0 56 -16 86t-43 30q-49 0 -90.5 -79t-41.5 -171q0 -120 62 -120zM284 493l-128 185l69 34l68 -214z" />
    <glyph glyph-name="oacute" unicode="&#xf3;" horiz-adv-x="406" 
d="M206 493l-9 5l128 214l57 -47zM167 -10q-63 0 -104 45.5t-41 116.5q0 107 68 189.5t153 82.5q59 0 100.5 -45t41.5 -113q0 -117 -68.5 -196.5t-149.5 -79.5zM171 22q47 0 88 76t41 178q0 56 -16 86t-43 30q-49 0 -90.5 -79t-41.5 -171q0 -120 62 -120z" />
    <glyph glyph-name="ocircumflex" unicode="&#xf4;" horiz-adv-x="406" 
d="M296 707l54 -220l-8 -3l-64 109l-115 -109l-8 5zM167 -10q-63 0 -104 45.5t-41 116.5q0 107 68 189.5t153 82.5q59 0 100.5 -45t41.5 -113q0 -117 -68.5 -196.5t-149.5 -79.5zM171 22q47 0 88 76t41 178q0 56 -16 86t-43 30q-49 0 -90.5 -79t-41.5 -171q0 -120 62 -120z
" />
    <glyph glyph-name="otilde" unicode="&#xf5;" horiz-adv-x="406" 
d="M167 -10q-63 0 -104 45.5t-41 116.5q0 107 68 189.5t153 82.5q59 0 100.5 -45t41.5 -113q0 -117 -68.5 -196.5t-149.5 -79.5zM171 22q47 0 88 76t41 178q0 56 -16 86t-43 30q-49 0 -90.5 -79t-41.5 -171q0 -120 62 -120zM221 613q11 0 49 -14.5t49 -14.5q12 0 31.5 17
t35.5 39l7 -4q-12 -41 -37 -74.5t-45 -33.5q-13 0 -51 14.5t-47 14.5q-21 0 -69 -56l-7 4q15 41 40 74.5t44 33.5z" />
    <glyph glyph-name="odieresis" unicode="&#xf6;" horiz-adv-x="406" 
d="M341 627q19 0 32.5 -13.5t13.5 -32.5t-13.5 -32.5t-32.5 -13.5t-32.5 13.5t-13.5 32.5t13.5 32.5t32.5 13.5zM181 627q19 0 32.5 -13.5t13.5 -32.5t-13.5 -32.5t-32.5 -13.5t-32.5 13.5t-13.5 32.5t13.5 32.5t32.5 13.5zM167 -10q-63 0 -104 45.5t-41 116.5
q0 107 68 189.5t153 82.5q59 0 100.5 -45t41.5 -113q0 -117 -68.5 -196.5t-149.5 -79.5zM171 22q47 0 88 76t41 178q0 56 -16 86t-43 30q-49 0 -90.5 -79t-41.5 -171q0 -120 62 -120z" />
    <glyph glyph-name="divide" unicode="&#xf7;" horiz-adv-x="416" 
d="M44 229l8 36h327l-7 -36h-328zM137 95q0 19 13 32t32 13q20 0 33.5 -13t13.5 -32q0 -20 -13.5 -33t-33.5 -13q-19 0 -32 13t-13 33zM195 400q0 19 13.5 31.5t32.5 12.5q20 0 33 -12.5t13 -31.5q0 -20 -13 -33t-33 -13q-19 0 -32.5 13t-13.5 33z" />
    <glyph glyph-name="oslash" unicode="&#xf8;" horiz-adv-x="406" 
d="M15 -49l53 79q-46 46 -46 122q0 107 68 189.5t153 82.5q37 0 71 -21l47 71l26 -17l-48 -73q46 -48 46 -118q0 -117 -68.5 -196.5t-149.5 -79.5q-41 0 -75 21l-51 -77zM171 22q47 0 88.5 76t41.5 178q0 30 -4 45l-175 -265q16 -34 49 -34zM107 142q0 -27 3 -48l175 266
q-15 32 -44 32q-48 0 -91 -79.5t-43 -170.5z" />
    <glyph glyph-name="ugrave" unicode="&#xf9;" horiz-adv-x="440" 
d="M284 172q-121 -179 -205 -179q-23 0 -35.5 10.5t-12.5 23.5q0 9 7 42q4 19 27 116.5t37 161.5l-54 29v7q73 25 153 44q-18 -80 -39.5 -170.5t-32 -135t-10.5 -48.5q0 -9 11 -9q21 0 71 50.5t95 112.5l40 187h78l-74 -360l57 -29v-6q-65 -18 -151 -27zM314 493l-128 185
l69 34l68 -214z" />
    <glyph glyph-name="uacute" unicode="&#xfa;" horiz-adv-x="440" 
d="M244 493l-9 5l128 214l57 -47zM284 172q-121 -179 -205 -179q-23 0 -35.5 10.5t-12.5 23.5q0 9 7 42q4 19 27 116.5t37 161.5l-54 29v7q73 25 153 44q-18 -80 -39.5 -170.5t-32 -135t-10.5 -48.5q0 -9 11 -9q21 0 71 50.5t95 112.5l40 187h78l-74 -360l57 -29v-6
q-65 -18 -151 -27z" />
    <glyph glyph-name="ucircumflex" unicode="&#xfb;" horiz-adv-x="440" 
d="M317 707l54 -220l-8 -3l-64 109l-115 -109l-8 5zM284 172q-121 -179 -205 -179q-23 0 -35.5 10.5t-12.5 23.5q0 9 7 42q4 19 27 116.5t37 161.5l-54 29v7q73 25 153 44q-18 -80 -39.5 -170.5t-32 -135t-10.5 -48.5q0 -9 11 -9q21 0 71 50.5t95 112.5l40 187h78l-74 -360
l57 -29v-6q-65 -18 -151 -27z" />
    <glyph glyph-name="udieresis" unicode="&#xfc;" horiz-adv-x="440" 
d="M364 627q19 0 32.5 -13.5t13.5 -32.5t-13.5 -32.5t-32.5 -13.5t-32.5 13.5t-13.5 32.5t13.5 32.5t32.5 13.5zM204 627q19 0 32.5 -13.5t13.5 -32.5t-13.5 -32.5t-32.5 -13.5t-32.5 13.5t-13.5 32.5t13.5 32.5t32.5 13.5zM284 172q-121 -179 -205 -179q-23 0 -35.5 10.5
t-12.5 23.5q0 9 7 42q4 19 27 116.5t37 161.5l-54 29v7q73 25 153 44q-18 -80 -39.5 -170.5t-32 -135t-10.5 -48.5q0 -9 11 -9q21 0 71 50.5t95 112.5l40 187h78l-74 -360l57 -29v-6q-65 -18 -151 -27z" />
    <glyph glyph-name="yacute" unicode="&#xfd;" horiz-adv-x="353" 
d="M278 349q0 27 -25 47v3l86 25q17 -19 17 -47q0 -41 -36.5 -102.5t-139.5 -209.5q-5 -7 -8 -11t-7 -10.5t-8 -11.5q-188 -278 -201 -300l-89 13v6q106 91 229 245q-7 187 -27 358l-50 30v6q78 26 118 37q25 -152 25 -335q65 108 90.5 165t25.5 92zM190 493l-9 5l128 214
l57 -47z" />
    <glyph glyph-name="thorn" unicode="&#xfe;" horiz-adv-x="419" 
d="M47 -213l94 -46l-1 -6h-234l1 6l61 42l175 861l-61 31v6q65 21 156 44l-92 -457q101 156 171 156q11 0 23 -4.5t26.5 -16t23.5 -37t9 -60.5q0 -70 -30 -141.5t-89 -122.5t-130 -51q-33 0 -59 14zM284 364q-23 0 -63 -41.5t-87 -111.5q-9 -42 -21 -109q-4 -21 -9 -43
q1 -12 12.5 -23.5t33.5 -11.5q41 0 79.5 43.5t61 108t22.5 126.5t-29 62z" />
    <glyph glyph-name="ydieresis" unicode="&#xff;" horiz-adv-x="353" 
d="M278 349q0 27 -25 47v3l86 25q17 -19 17 -47q0 -41 -36.5 -102.5t-139.5 -209.5q-5 -7 -8 -11t-7 -10.5t-8 -11.5q-188 -278 -201 -300l-89 13v6q106 91 229 245q-7 187 -27 358l-50 30v6q78 26 118 37q25 -152 25 -335q65 108 90.5 165t25.5 92zM309 627
q19 0 32.5 -13.5t13.5 -32.5t-13.5 -32.5t-32.5 -13.5t-32.5 13.5t-13.5 32.5t13.5 32.5t32.5 13.5zM149 627q19 0 32.5 -13.5t13.5 -32.5t-13.5 -32.5t-32.5 -13.5t-32.5 13.5t-13.5 32.5t13.5 32.5t32.5 13.5z" />
    <glyph glyph-name="Amacron" unicode="&#x100;" horiz-adv-x="570" 
d="M133 6l-2 -6h-168l2 6l67 47l333 621h12l109 -621l44 -47l-2 -6h-207l2 6l77 47l-38 214h-172l-113 -214zM209 302h147l-37 208zM496 774l-9 -49h-223l9 49h223z" />
    <glyph glyph-name="amacron" unicode="&#x101;" horiz-adv-x="415" 
d="M373 26l-1 -7q-67 -18 -151 -27l30 148q-41 -62 -87.5 -106t-85.5 -44q-25 0 -44.5 28t-19.5 74q0 67 34 134.5t102.5 119t155.5 61.5l89 48l-80 -399zM116 50q19 0 62.5 43.5t83.5 100.5l38 181q-79 -6 -141 -91.5t-62 -189.5q0 -44 19 -44zM171 581h198l-10 -50h-198z
" />
    <glyph glyph-name="Abreve" unicode="&#x102;" horiz-adv-x="570" 
d="M133 6l-2 -6h-168l2 6l67 47l333 621h12l109 -621l44 -47l-2 -6h-207l2 6l77 47l-38 214h-172l-113 -214zM209 302h147l-37 208zM494 832q-12 -56 -42.5 -88.5t-76.5 -32.5q-47 0 -69.5 35.5t-16.5 85.5l7 1q12 -64 81 -64q68 0 110 64z" />
    <glyph glyph-name="abreve" unicode="&#x103;" horiz-adv-x="415" 
d="M373 26l-1 -7q-67 -18 -151 -27l30 148q-41 -62 -87.5 -106t-85.5 -44q-25 0 -44.5 28t-19.5 74q0 67 34 134.5t102.5 119t155.5 61.5l89 48l-80 -399zM116 50q19 0 62.5 43.5t83.5 100.5l38 181q-79 -6 -141 -91.5t-62 -189.5q0 -44 19 -44zM371 632q-12 -57 -40.5 -91
t-71.5 -34q-46 0 -66.5 37t-11.5 88l8 1q3 -29 21 -48.5t51 -19.5q64 0 102 68z" />
    <glyph glyph-name="Aogonek" unicode="&#x104;" horiz-adv-x="570" 
d="M409 0l-47 267h-171l-114 -214l56 -47l-2 -6h-168l2 6l67 47l333 621h12l109 -621l44 -47l-2 -6h-94q-104 -110 -104 -179q0 -48 43 -48q38 0 76 31l5 -4q-14 -26 -44.5 -49.5t-74.5 -23.5q-35 0 -57.5 21t-22.5 54q0 86 154 198zM209 302h147l-36 208z" />
    <glyph glyph-name="aogonek" unicode="&#x105;" horiz-adv-x="415" 
d="M70 -198q0 50 42.5 98t110.5 100l29 141q-42 -63 -88.5 -107t-85.5 -44q-25 0 -44.5 28t-19.5 74q0 67 34 134.5t102.5 119t155.5 61.5l89 48l-80 -399l58 -30l-1 -7q-40 -14 -130 -24q-98 -102 -98 -174q0 -22 11.5 -35t32.5 -13q35 0 76 31l5 -4q-14 -26 -45 -49.5
t-75 -23.5q-35 0 -57 21t-22 54zM116 50q20 0 63.5 44t83.5 101l37 180q-79 -6 -141 -91.5t-62 -189.5q0 -44 19 -44z" />
    <glyph glyph-name="Cacute" unicode="&#x106;" horiz-adv-x="592" 
d="M340 -10q-121 0 -202.5 73t-81.5 207q0 162 113.5 282t273.5 120q97 0 163 -23l-20 -116h-7q-44 102 -144 102q-117 0 -199 -106t-82 -258q0 -106 53.5 -174.5t133.5 -68.5q104 0 183 95h6l-20 -107q-59 -26 -170 -26zM332 703l-5 9l199 129l32 -69z" />
    <glyph glyph-name="cacute" unicode="&#x107;" horiz-adv-x="337" 
d="M205 493l-9 5l128 214l57 -47zM253 424q56 0 95 -16l-30 -79h-4q-39 60 -74 60q-46 0 -90.5 -76.5t-44.5 -172.5q0 -48 12.5 -72t31.5 -24q52 0 131 88l9 -6q-28 -56 -72 -96t-96 -40q-41 0 -70.5 37.5t-29.5 100.5q0 117 72 206.5t160 89.5z" />
    <glyph glyph-name="Ccircumflex" unicode="&#x108;" horiz-adv-x="592" 
d="M439 835l99 -124l-5 -6l-101 54l-133 -54l-5 7zM340 -10q-121 0 -202.5 73t-81.5 207q0 162 113.5 282t273.5 120q97 0 163 -23l-20 -116h-7q-44 102 -144 102q-117 0 -199 -106t-82 -258q0 -106 53.5 -174.5t133.5 -68.5q104 0 183 95h6l-20 -107q-59 -26 -170 -26z" />
    <glyph glyph-name="ccircumflex" unicode="&#x109;" horiz-adv-x="337" 
d="M286 707l54 -220l-8 -3l-64 109l-115 -109l-8 5zM253 424q56 0 95 -16l-30 -79h-4q-39 60 -74 60q-46 0 -90.5 -76.5t-44.5 -172.5q0 -48 12.5 -72t31.5 -24q52 0 131 88l9 -6q-28 -56 -72 -96t-96 -40q-41 0 -70.5 37.5t-29.5 100.5q0 117 72 206.5t160 89.5z" />
    <glyph glyph-name="Cdotaccent" unicode="&#x10a;" horiz-adv-x="592" 
d="M340 -10q-121 0 -202.5 73t-81.5 207q0 162 113.5 282t273.5 120q97 0 163 -23l-20 -116h-7q-44 102 -144 102q-117 0 -199 -106t-82 -258q0 -106 53.5 -174.5t133.5 -68.5q104 0 183 95h6l-20 -107q-59 -26 -170 -26zM430 817q20 0 34 -14t14 -34t-14 -34t-34 -14
t-34 14t-14 34t14 34t34 14z" />
    <glyph glyph-name="cdotaccent" unicode="&#x10b;" horiz-adv-x="337" 
d="M253 424q56 0 95 -16l-30 -79h-4q-39 60 -74 60q-46 0 -90.5 -76.5t-44.5 -172.5q0 -48 12.5 -72t31.5 -24q52 0 131 88l9 -6q-28 -56 -72 -96t-96 -40q-41 0 -70.5 37.5t-29.5 100.5q0 117 72 206.5t160 89.5zM258 631q20 0 34 -14t14 -34t-14 -34t-34 -14t-34 14
t-14 34t14 34t34 14z" />
    <glyph glyph-name="Ccaron" unicode="&#x10c;" horiz-adv-x="592" 
d="M424 700l-99 124l5 6l101 -54l133 54l5 -7zM340 -10q-121 0 -202.5 73t-81.5 207q0 162 113.5 282t273.5 120q97 0 163 -23l-20 -116h-7q-44 102 -144 102q-117 0 -199 -106t-82 -258q0 -106 53.5 -174.5t133.5 -68.5q104 0 183 95h6l-20 -107q-59 -26 -170 -26z" />
    <glyph glyph-name="ccaron" unicode="&#x10d;" horiz-adv-x="337" 
d="M232 483l-55 220l9 3l64 -109l114 109l9 -5zM253 424q56 0 95 -16l-30 -79h-4q-39 60 -74 60q-46 0 -90.5 -76.5t-44.5 -172.5q0 -48 12.5 -72t31.5 -24q52 0 131 88l9 -6q-28 -56 -72 -96t-96 -40q-41 0 -70.5 37.5t-29.5 100.5q0 117 72 206.5t160 89.5z" />
    <glyph glyph-name="Dcaron" unicode="&#x10e;" horiz-adv-x="643" 
d="M378 700l-99 124l5 6l101 -54l133 54l5 -7zM336 662q124 0 209 -74t85 -207q0 -94 -42 -180t-125.5 -143.5t-189.5 -57.5h-278l1 6l72 46l93 558l-56 46l1 6h230zM253 627l-95 -575q49 -17 115 -17q106 0 182 97.5t76 240.5q0 125 -63 189.5t-155 64.5h-60z" />
    <glyph glyph-name="dcaron" unicode="&#x10f;" horiz-adv-x="436" 
d="M474 507l61 208h71l-121 -208h-11zM20 110q0 122 83 216.5t207 94.5h20l46 223l-62 31l1 6q73 24 157 44l-137 -669l59 -32l-1 -5q-71 -19 -150 -27l30 148q-103 -150 -170 -150q-31 0 -57 31.5t-26 88.5zM320 373q-13 13 -42 13q-68 0 -120 -82.5t-52 -187.5
q0 -31 7.5 -49.5t19.5 -18.5q39 0 151 144z" />
    <glyph glyph-name="Dcroat" unicode="&#x110;" horiz-adv-x="643" 
d="M336 662q124 0 209 -74t85 -207q0 -94 -42 -180t-125.5 -143.5t-189.5 -57.5h-278l1 6l72 46l44 267h-74l7 36h73l43 255l-56 46l1 6h230zM202 319l-44 -267q49 -17 115 -17q106 0 182 97.5t76 240.5q0 125 -63 189.5t-155 64.5h-60l-45 -272h177l-7 -36h-176z" />
    <glyph glyph-name="dcroat" unicode="&#x111;" horiz-adv-x="436" 
d="M503 532h-289l8 32h289zM20 110q0 122 83 216.5t207 94.5h20l46 223l-62 31l1 6q73 24 157 44l-137 -669l59 -32l-1 -5q-71 -19 -150 -27l30 148q-103 -150 -170 -150q-31 0 -57 31.5t-26 88.5zM320 373q-13 13 -42 13q-68 0 -120 -82.5t-52 -187.5q0 -31 7.5 -49.5
t19.5 -18.5q39 0 151 144z" />
    <glyph glyph-name="Emacron" unicode="&#x112;" horiz-adv-x="488" 
d="M-5 0l1 6l72 47l93 557l-56 46l1 6h391l-20 -122h-7l-48 86h-169l-43 -256h175l56 70h6l-29 -175h-7l-32 69h-175l-49 -297h185l86 107h7l-23 -144h-415zM449 774l-9 -49h-223l9 49h223z" />
    <glyph glyph-name="emacron" unicode="&#x113;" horiz-adv-x="340" 
d="M125 -10q-40 0 -72 32t-32 96q0 117 75.5 211.5t165.5 94.5q37 0 58 -12t21 -31q0 -12 -9.5 -28t-31 -36t-67 -37t-107.5 -24q-21 -63 -21 -127q0 -85 52 -85t131 86l9 -6q-69 -134 -172 -134zM245 395q-26 0 -56.5 -31t-53.5 -83q57 13 95.5 38t38.5 56q0 20 -24 20z
M153 581h198l-10 -50h-198z" />
    <glyph glyph-name="Ebreve" unicode="&#x114;" horiz-adv-x="488" 
d="M-5 0l1 6l72 47l93 557l-56 46l1 6h391l-20 -122h-7l-48 86h-169l-43 -256h175l56 70h6l-29 -175h-7l-32 69h-175l-49 -297h185l86 107h7l-23 -144h-415zM448 832q-12 -56 -42.5 -88.5t-76.5 -32.5q-47 0 -69.5 35.5t-16.5 85.5l7 1q12 -64 81 -64q68 0 110 64z" />
    <glyph glyph-name="ebreve" unicode="&#x115;" horiz-adv-x="340" 
d="M125 -10q-40 0 -72 32t-32 96q0 117 75.5 211.5t165.5 94.5q37 0 58 -12t21 -31q0 -12 -9.5 -28t-31 -36t-67 -37t-107.5 -24q-21 -63 -21 -127q0 -85 52 -85t131 86l9 -6q-69 -134 -172 -134zM245 395q-26 0 -56.5 -31t-53.5 -83q57 13 95.5 38t38.5 56q0 20 -24 20z
M346 632q-12 -57 -40.5 -91t-71.5 -34q-46 0 -66.5 37t-11.5 88l8 1q3 -29 21 -48.5t51 -19.5q64 0 102 68z" />
    <glyph glyph-name="Edotaccent" unicode="&#x116;" horiz-adv-x="488" 
d="M334 817q20 0 34 -14t14 -34t-14 -34t-34 -14t-34 14t-14 34t14 34t34 14zM-5 0l1 6l72 47l93 557l-56 46l1 6h391l-20 -122h-7l-48 86h-169l-43 -256h175l56 70h6l-29 -175h-7l-32 69h-175l-49 -297h185l86 107h7l-23 -144h-415z" />
    <glyph glyph-name="edotaccent" unicode="&#x117;" horiz-adv-x="340" 
d="M125 -10q-40 0 -72 32t-32 96q0 117 75.5 211.5t165.5 94.5q37 0 58 -12t21 -31q0 -12 -9.5 -28t-31 -36t-67 -37t-107.5 -24q-21 -63 -21 -127q0 -85 52 -85t131 86l9 -6q-69 -134 -172 -134zM245 395q-26 0 -56.5 -31t-53.5 -83q57 13 95.5 38t38.5 56q0 20 -24 20z
M251 631q20 0 34 -14t14 -34t-14 -34t-34 -14t-34 14t-14 34t14 34t34 14z" />
    <glyph glyph-name="Eogonek" unicode="&#x118;" horiz-adv-x="488" 
d="M240 -273q-35 0 -57 21t-22 54q0 86 154 198h25q-105 -109 -105 -179q0 -22 11.5 -35t32.5 -13q35 0 76 31l5 -4q-14 -26 -45 -49.5t-75 -23.5zM-5 0l1 6l72 47l93 557l-56 46l1 6h391l-20 -122h-7l-48 86h-169l-43 -256h175l56 70h6l-29 -175h-7l-32 69h-175l-49 -297
h185l86 107h7l-23 -144h-415z" />
    <glyph glyph-name="eogonek" unicode="&#x119;" horiz-adv-x="340" 
d="M14 -198q0 81 146 193q-20 -5 -35 -5q-40 0 -72 32t-32 96q0 117 75.5 211.5t165.5 94.5q37 0 58 -12t21 -31q0 -12 -9.5 -28t-31 -36t-67 -37t-107.5 -24q-21 -63 -21 -127q0 -85 52 -85t131 86l9 -6q-20 -38 -41 -62.5t-56 -56.5q-48 -43 -80 -94.5t-32 -89.5
q0 -22 11.5 -35t32.5 -13q35 0 76 31l5 -4q-14 -26 -45 -49.5t-75 -23.5q-35 0 -57 21t-22 54zM245 395q-26 0 -56.5 -31t-53.5 -83q57 13 95.5 38t38.5 56q0 20 -24 20z" />
    <glyph glyph-name="Ecaron" unicode="&#x11a;" horiz-adv-x="488" 
d="M323 700l-99 124l5 6l101 -54l133 54l5 -7zM-5 0l1 6l72 47l93 557l-56 46l1 6h391l-20 -122h-7l-48 86h-169l-43 -256h175l56 70h6l-29 -175h-7l-32 69h-175l-49 -297h185l86 107h7l-23 -144h-415z" />
    <glyph glyph-name="ecaron" unicode="&#x11b;" horiz-adv-x="340" 
d="M233 483l-55 220l9 3l64 -109l114 109l9 -5zM125 -10q-40 0 -72 32t-32 96q0 117 75.5 211.5t165.5 94.5q37 0 58 -12t21 -31q0 -12 -9.5 -28t-31 -36t-67 -37t-107.5 -24q-21 -63 -21 -127q0 -85 52 -85t131 86l9 -6q-69 -134 -172 -134zM245 395q-26 0 -56.5 -31
t-53.5 -83q57 13 95.5 38t38.5 56q0 20 -24 20z" />
    <glyph glyph-name="Gcircumflex" unicode="&#x11c;" horiz-adv-x="640" 
d="M451 835l99 -124l-5 -6l-101 54l-133 -54l-5 7zM530 18q-5 -1 -28 -6.5t-43.5 -9.5t-49.5 -8t-52 -4q-134 0 -217.5 75.5t-83.5 200.5q0 164 112 285t271 121q104 0 177 -25l-21 -113h-6q-58 101 -156 101q-116 0 -197.5 -109t-81.5 -257q0 -111 57.5 -176t147.5 -65
q49 0 85 18l41 245l-68 47l1 6h218l-1 -6l-62 -48z" />
    <glyph glyph-name="gcircumflex" unicode="&#x11d;" horiz-adv-x="375" 
d="M265 707l54 -220l-8 -3l-64 109l-115 -109l-8 5zM42 246q0 73 53.5 125.5t116.5 52.5q23 0 47 -10h146l-13 -39h-87q22 -29 22 -62q0 -79 -53.5 -130t-112.5 -51q-9 0 -12 1q-38 -32 -38 -48q0 -10 9 -19t35 -24q30 -17 76 -41.5t48 -25.5q60 -33 80.5 -55.5t20.5 -43.5
q0 -59 -73.5 -98t-156.5 -39q-96 0 -161 29.5t-65 67.5q0 12 13 30.5t57.5 49.5t112.5 60q-67 42 -67 77q0 37 81 85q-35 12 -57 41.5t-22 66.5zM239 -92q-19 10 -53.5 27.5t-50.5 25.5q-128 -60 -128 -109q0 -34 45.5 -55t113.5 -21q45 0 80 13.5t49.5 29t14.5 27.5
t-13.5 25t-57.5 37zM209 396q-33 0 -61 -47t-28 -106q0 -43 14 -62.5t29 -19.5q30 0 57.5 48t27.5 108q0 42 -12 60.5t-27 18.5z" />
    <glyph glyph-name="Gbreve" unicode="&#x11e;" horiz-adv-x="640" 
d="M548 832q-12 -56 -42.5 -88.5t-76.5 -32.5q-47 0 -69.5 35.5t-16.5 85.5l7 1q12 -64 81 -64q68 0 110 64zM530 18q-5 -1 -28 -6.5t-43.5 -9.5t-49.5 -8t-52 -4q-134 0 -217.5 75.5t-83.5 200.5q0 164 112 285t271 121q104 0 177 -25l-21 -113h-6q-58 101 -156 101
q-116 0 -197.5 -109t-81.5 -257q0 -111 57.5 -176t147.5 -65q49 0 85 18l41 245l-68 47l1 6h218l-1 -6l-62 -48z" />
    <glyph glyph-name="gbreve" unicode="&#x11f;" horiz-adv-x="375" 
d="M42 246q0 73 53.5 125.5t116.5 52.5q23 0 47 -10h146l-13 -39h-87q22 -29 22 -62q0 -79 -53.5 -130t-112.5 -51q-9 0 -12 1q-38 -32 -38 -48q0 -10 9 -19t35 -24q30 -17 76 -41.5t48 -25.5q60 -33 80.5 -55.5t20.5 -43.5q0 -59 -73.5 -98t-156.5 -39q-96 0 -161 29.5
t-65 67.5q0 12 13 30.5t57.5 49.5t112.5 60q-67 42 -67 77q0 37 81 85q-35 12 -57 41.5t-22 66.5zM239 -92q-19 10 -53.5 27.5t-50.5 25.5q-128 -60 -128 -109q0 -34 45.5 -55t113.5 -21q45 0 80 13.5t49.5 29t14.5 27.5t-13.5 25t-57.5 37zM209 396q-33 0 -61 -47t-28 -106
q0 -43 14 -62.5t29 -19.5q30 0 57.5 48t27.5 108q0 42 -12 60.5t-27 18.5zM334 632q-12 -57 -40.5 -91t-71.5 -34q-46 0 -66.5 37t-11.5 88l8 1q3 -29 21 -48.5t51 -19.5q64 0 102 68z" />
    <glyph glyph-name="Gdotaccent" unicode="&#x120;" horiz-adv-x="640" 
d="M434 817q20 0 34 -14t14 -34t-14 -34t-34 -14t-34 14t-14 34t14 34t34 14zM530 18q-5 -1 -28 -6.5t-43.5 -9.5t-49.5 -8t-52 -4q-134 0 -217.5 75.5t-83.5 200.5q0 164 112 285t271 121q104 0 177 -25l-21 -113h-6q-58 101 -156 101q-116 0 -197.5 -109t-81.5 -257
q0 -111 57.5 -176t147.5 -65q49 0 85 18l41 245l-68 47l1 6h218l-1 -6l-62 -48z" />
    <glyph glyph-name="gdotaccent" unicode="&#x121;" horiz-adv-x="375" 
d="M42 246q0 73 53.5 125.5t116.5 52.5q23 0 47 -10h146l-13 -39h-87q22 -29 22 -62q0 -79 -53.5 -130t-112.5 -51q-9 0 -12 1q-38 -32 -38 -48q0 -10 9 -19t35 -24q30 -17 76 -41.5t48 -25.5q60 -33 80.5 -55.5t20.5 -43.5q0 -59 -73.5 -98t-156.5 -39q-96 0 -161 29.5
t-65 67.5q0 12 13 30.5t57.5 49.5t112.5 60q-67 42 -67 77q0 37 81 85q-35 12 -57 41.5t-22 66.5zM239 -92q-19 10 -53.5 27.5t-50.5 25.5q-128 -60 -128 -109q0 -34 45.5 -55t113.5 -21q45 0 80 13.5t49.5 29t14.5 27.5t-13.5 25t-57.5 37zM209 396q-33 0 -61 -47t-28 -106
q0 -43 14 -62.5t29 -19.5q30 0 57.5 48t27.5 108q0 42 -12 60.5t-27 18.5zM237 631q20 0 34 -14t14 -34t-14 -34t-34 -14t-34 14t-14 34t14 34t34 14z" />
    <glyph glyph-name="Gcommaaccent" unicode="&#x122;" horiz-adv-x="640" 
d="M334 -125q0 -44 -34.5 -88.5t-81.5 -72.5l-9 5q59 74 81 127q-18 -2 -32 8.5t-14 28.5q0 19 12 31t30 12q21 0 34.5 -14t13.5 -37zM530 18q-5 -1 -28 -6.5t-43.5 -9.5t-49.5 -8t-52 -4q-134 0 -217.5 75.5t-83.5 200.5q0 164 112 285t271 121q104 0 177 -25l-21 -113h-6
q-58 101 -156 101q-116 0 -197.5 -109t-81.5 -257q0 -111 57.5 -176t147.5 -65q49 0 85 18l41 245l-68 47l1 6h218l-1 -6l-62 -48z" />
    <glyph glyph-name="gcommaaccent" unicode="&#x123;" horiz-adv-x="375" 
d="M175 550q0 43 34.5 87.5t81.5 72.5l8 -5q-55 -66 -80 -127q18 2 31.5 -8t13.5 -28q0 -19 -11.5 -31t-30.5 -12q-21 0 -34 14t-13 37zM42 246q0 73 53.5 125.5t116.5 52.5q23 0 47 -10h146l-13 -39h-87q22 -29 22 -62q0 -79 -53.5 -130t-112.5 -51q-9 0 -12 1
q-38 -32 -38 -48q0 -10 9 -19t35 -24q30 -17 76 -41.5t48 -25.5q60 -33 80.5 -55.5t20.5 -43.5q0 -59 -73.5 -98t-156.5 -39q-96 0 -161 29.5t-65 67.5q0 12 13 30.5t57.5 49.5t112.5 60q-67 42 -67 77q0 37 81 85q-35 12 -57 41.5t-22 66.5zM239 -92q-19 10 -53.5 27.5
t-50.5 25.5q-128 -60 -128 -109q0 -34 45.5 -55t113.5 -21q45 0 80 13.5t49.5 29t14.5 27.5t-13.5 25t-57.5 37zM209 396q-33 0 -61 -47t-28 -106q0 -43 14 -62.5t29 -19.5q30 0 57.5 48t27.5 108q0 42 -12 60.5t-27 18.5z" />
    <glyph glyph-name="Hcircumflex" unicode="&#x124;" horiz-adv-x="679" 
d="M208 356h309l43 254l-56 46l1 6h218l-1 -6l-72 -46l-93 -557l57 -47l-1 -6h-219l1 6l72 47l45 267h-309l-45 -267l57 -47l-1 -6h-219l1 6l72 47l93 557l-56 46l1 6h218l-1 -6l-72 -46zM440 835l99 -124l-5 -6l-101 54l-133 -54l-5 7z" />
    <glyph glyph-name="hcircumflex" unicode="&#x125;" horiz-adv-x="443" 
d="M91 675l1 6q22 8 157 44l-97 -458q127 157 211 157q23 0 35 -11t10 -28q0 -11 -8.5 -50.5t-28.5 -129.5t-33 -149l57 -31v-6q-67 -18 -151 -27q77 338 77 351q0 10 -12 10q-21 0 -66.5 -35.5t-100.5 -96.5l-46 -221h-79l135 644zM348 873l99 -124l-5 -6l-101 54l-133 -54
l-5 7z" />
    <glyph glyph-name="Hbar" unicode="&#x126;" horiz-adv-x="679" 
d="M62 471l6 35h640l-7 -35h-639zM208 356h309l43 254l-56 46l1 6h218l-1 -6l-72 -46l-93 -557l57 -47l-1 -6h-219l1 6l72 47l45 267h-309l-45 -267l57 -47l-1 -6h-219l1 6l72 47l93 557l-56 46l1 6h218l-1 -6l-72 -46z" />
    <glyph glyph-name="hbar" unicode="&#x127;" horiz-adv-x="443" 
d="M336 532h-280l7 32h281zM91 675l1 6q22 8 157 44l-97 -458q127 157 211 157q23 0 35 -11t10 -28q0 -11 -8.5 -50.5t-28.5 -129.5t-33 -149l57 -31v-6q-67 -18 -151 -27q77 338 77 351q0 10 -12 10q-21 0 -66.5 -35.5t-100.5 -96.5l-46 -221h-79l135 644z" />
    <glyph glyph-name="Itilde" unicode="&#x128;" horiz-adv-x="280" 
d="M-5 0l1 6l72 47l93 557l-56 46l1 6h218l-1 -6l-72 -46l-93 -557l57 -47l-1 -6h-219zM183 809q11 0 56.5 -11.5t57.5 -11.5q13 0 34 16t34 33l7 -3q-13 -39 -37 -71.5t-46 -32.5q-16 0 -60.5 11.5t-53.5 11.5q-13 0 -34 -16.5t-36 -34.5l-7 3q14 38 38.5 72t46.5 34z" />
    <glyph glyph-name="itilde" unicode="&#x129;" horiz-adv-x="224" 
d="M99 347l-55 28v7q67 24 148 45l-70 -371l60 -32v-5q-73 -19 -151 -27zM127 613q11 0 49 -14.5t49 -14.5q12 0 31.5 17t35.5 39l7 -4q-12 -41 -37 -74.5t-45 -33.5q-13 0 -51 14.5t-47 14.5q-21 0 -69 -56l-7 4q15 41 40 74.5t44 33.5z" />
    <glyph glyph-name="Imacron" unicode="&#x12a;" horiz-adv-x="280" 
d="M-5 0l1 6l72 47l93 557l-56 46l1 6h218l-1 -6l-72 -46l-93 -557l57 -47l-1 -6h-219zM342 774l-9 -49h-223l9 49h223z" />
    <glyph glyph-name="imacron" unicode="&#x12b;" horiz-adv-x="224" 
d="M99 347l-55 28v7q67 24 148 45l-70 -371l60 -32v-5q-73 -19 -151 -27zM75 581h198l-10 -50h-198z" />
    <glyph glyph-name="Ibreve" unicode="&#x12c;" horiz-adv-x="280" 
d="M-5 0l1 6l72 47l93 557l-56 46l1 6h218l-1 -6l-72 -46l-93 -557l57 -47l-1 -6h-219zM341 832q-12 -56 -42.5 -88.5t-76.5 -32.5q-47 0 -69.5 35.5t-16.5 85.5l7 1q12 -64 81 -64q68 0 110 64z" />
    <glyph glyph-name="ibreve" unicode="&#x12d;" horiz-adv-x="224" 
d="M99 347l-55 28v7q67 24 148 45l-70 -371l60 -32v-5q-73 -19 -151 -27zM277 632q-12 -57 -40.5 -91t-71.5 -34q-46 0 -66.5 37t-11.5 88l8 1q3 -29 21 -48.5t51 -19.5q64 0 102 68z" />
    <glyph glyph-name="Iogonek" unicode="&#x12e;" horiz-adv-x="280" 
d="M85 -273q-35 0 -57.5 21.5t-22.5 54.5q0 34 22.5 74.5t44 64.5t55.5 58h24q-72 -108 -72 -175q0 -24 11.5 -38t32.5 -14q35 0 76 31l5 -4q-45 -73 -119 -73zM-5 0l1 6l72 47l93 557l-56 46l1 6h218l-1 -6l-72 -46l-93 -557l57 -47l-1 -6h-219z" />
    <glyph glyph-name="iogonek" unicode="&#x12f;" horiz-adv-x="224" 
d="M176 631q20 0 34 -14t14 -34t-14 -34t-34 -14t-34 14t-14 34t14 34t34 14zM-34 -273q-35 0 -57.5 21t-22.5 54q0 88 146 198l67 347l-55 28v7q67 24 148 45l-70 -371l60 -32v-5q-52 -15 -130 -24q-91 -100 -91 -174q0 -48 44 -48q37 0 75 31l5 -4q-14 -26 -44.5 -49.5
t-74.5 -23.5z" />
    <glyph glyph-name="Idotaccent" unicode="&#x130;" horiz-adv-x="280" 
d="M-5 0l1 6l72 47l93 557l-56 46l1 6h218l-1 -6l-72 -46l-93 -557l57 -47l-1 -6h-219zM228 817q20 0 34 -14t14 -34t-14 -34t-34 -14t-34 14t-14 34t14 34t34 14z" />
    <glyph glyph-name="dotlessi" unicode="&#x131;" horiz-adv-x="224" 
d="M99 347l-55 28v7q67 24 148 45l-70 -371l60 -32v-5q-73 -19 -151 -27z" />
    <glyph glyph-name="IJ" unicode="&#x132;" horiz-adv-x="556" 
d="M-5 0l1 6l72 47l93 557l-56 46l1 6h218l-1 -6l-72 -46l-93 -557l57 -47l-1 -6h-219zM444 97q-13 -79 -67 -162.5t-143 -154.5l-8 6q98 145 134 350l79 474l-57 46l1 6h218l-1 -6l-72 -46z" />
    <glyph glyph-name="ij" unicode="&#x133;" horiz-adv-x="437" 
d="M99 347l-55 28v7q67 24 148 45l-70 -371l60 -32v-5q-73 -19 -151 -27zM176 631q20 0 34 -14t14 -34t-14 -34t-34 -14t-34 14t-14 34t14 34t34 14zM338 22q-11 -63 -60 -137.5t-112 -134.5l-7 4q77 147 105 298l57 295l-55 28v7q70 26 148 45zM398 631q20 0 34 -14t14 -34
t-14 -34t-34 -14t-34 14t-14 34t14 34t34 14z" />
    <glyph glyph-name="Jcircumflex" unicode="&#x134;" horiz-adv-x="276" 
d="M237 835l99 -124l-5 -6l-101 54l-133 -54l-5 7zM164 97q-13 -79 -67 -162.5t-143 -154.5l-8 6q98 145 134 350l79 474l-57 46l1 6h218l-1 -6l-72 -46z" />
    <glyph glyph-name="jcircumflex" unicode="&#x135;" horiz-adv-x="213" 
d="M113 22q-11 -63 -59.5 -137t-111.5 -135l-7 4q77 147 105 298l57 295l-55 28v7q70 26 148 45zM189 707l54 -220l-8 -3l-64 109l-115 -109l-8 5z" />
    <glyph glyph-name="Kcommaaccent" unicode="&#x136;" horiz-adv-x="585" 
d="M311 -125q0 -44 -34.5 -88.5t-81.5 -72.5l-9 5q59 74 81 127q-18 -2 -32 8.5t-14 28.5q0 19 12 31t30 12q21 0 34.5 -14t13.5 -37zM-5 0l1 6l72 47l93 557l-56 47l1 5h218l-1 -5l-72 -47l-93 -557l56 -47l-1 -6h-218zM319 0l1 6l72 47l-143 280h-34l265 277l-56 46l1 6
h193l-1 -6l-81 -42l-217 -224l171 -337l60 -47l-1 -6h-230z" />
    <glyph glyph-name="kcommaaccent" unicode="&#x137;" horiz-adv-x="388" 
d="M213 -125q0 -44 -34.5 -88.5t-81.5 -72.5l-9 5q59 74 81 127q-18 -2 -32 8.5t-14 28.5q0 19 12 31t30 12q21 0 34.5 -14t13.5 -37zM149 645l-62 30v6q105 32 157 44l-147 -725h-79zM155 202q127 118 127 159q0 18 -16 31l1 5q49 14 85 29q15 -21 15 -42q0 -28 -30.5 -60
t-113.5 -97q91 -164 145 -232l-1 -5q-73 3 -96 22t-82 124q-7 12 -11 19.5t-11 19.5t-13 23z" />
    <glyph glyph-name="Lacute" unicode="&#x139;" horiz-adv-x="494" 
d="M136 703l-5 9l199 129l32 -69zM156 37h184l108 131h6l-28 -168h-431l1 6l72 47l93 557l-56 46l1 6h217l-1 -6l-72 -46z" />
    <glyph glyph-name="lacute" unicode="&#x13a;" horiz-adv-x="220" 
d="M101 725l-5 9l199 129l32 -69zM153 644l-63 31v6q57 19 159 44l-135 -669l60 -32l-1 -5q-65 -18 -152 -27z" />
    <glyph glyph-name="Lcommaaccent" unicode="&#x13b;" horiz-adv-x="494" 
d="M266 -125q0 -44 -34.5 -88.5t-81.5 -72.5l-9 5q59 74 81 127q-18 -2 -32 8.5t-14 28.5q0 19 12 31t30 12q21 0 34.5 -14t13.5 -37zM156 37h184l108 131h6l-28 -168h-431l1 6l72 47l93 557l-56 46l1 6h217l-1 -6l-72 -46z" />
    <glyph glyph-name="lcommaaccent" unicode="&#x13c;" horiz-adv-x="220" 
d="M92 -125q0 -44 -34.5 -88.5t-81.5 -72.5l-9 5q59 74 81 127q-18 -2 -32 8.5t-14 28.5q0 19 12 31t30 12q21 0 34.5 -14t13.5 -37zM153 644l-63 31v6q57 19 159 44l-135 -669l60 -32l-1 -5q-65 -18 -152 -27z" />
    <glyph glyph-name="Lcaron" unicode="&#x13d;" horiz-adv-x="494" 
d="M330 507l61 208h71l-121 -208h-11zM156 37h184l108 131h6l-28 -168h-431l1 6l72 47l93 557l-56 46l1 6h217l-1 -6l-72 -46z" />
    <glyph glyph-name="lcaron" unicode="&#x13e;" horiz-adv-x="220" 
d="M251 507l61 208h71l-121 -208h-11zM153 644l-63 31v6q57 19 159 44l-135 -669l60 -32l-1 -5q-65 -18 -152 -27z" />
    <glyph glyph-name="Ldot" unicode="&#x13f;" horiz-adv-x="494" 
d="M443 406q22 0 36.5 -14t14.5 -37q0 -22 -14.5 -37t-36.5 -15q-23 0 -37.5 15t-14.5 37q0 23 14.5 37t37.5 14zM156 37h184l108 131h6l-28 -168h-431l1 6l72 47l93 557l-56 46l1 6h217l-1 -6l-72 -46z" />
    <glyph glyph-name="ldot" unicode="&#x140;" horiz-adv-x="327" 
d="M297 394q23 0 37.5 -14t14.5 -37q0 -22 -14.5 -37t-37.5 -15t-37 15t-14 37q0 23 14 37t37 14zM153 644l-63 31v6q57 19 159 44l-135 -669l60 -32l-1 -5q-65 -18 -152 -27z" />
    <glyph glyph-name="Lslash" unicode="&#x141;" horiz-adv-x="494" 
d="M156 37h184l108 131h6l-28 -168h-431l1 6l72 47l28 166l-84 -46l8 42l83 46l58 349l-56 46l1 6h217l-1 -6l-72 -46l-48 -293l202 114l-8 -44l-201 -112z" />
    <glyph glyph-name="lslash" unicode="&#x142;" horiz-adv-x="229" 
d="M157 644l-63 31v6q47 16 115 33l44 11l-69 -344l74 44l-9 -46l-75 -44l-56 -279l60 -32l-1 -5q-65 -18 -152 -27l58 289l-77 -45l8 44l78 47z" />
    <glyph glyph-name="Nacute" unicode="&#x143;" horiz-adv-x="660" 
d="M316 703l-5 9l199 129l32 -69zM503 0l-313 522l-76 -465l66 -51l-1 -6h-193l2 6l80 51l87 520q-46 66 -56 80v5h111l304 -515l76 458l-66 52l1 5h191l-1 -5l-80 -52l-99 -605h-33z" />
    <glyph glyph-name="nacute" unicode="&#x144;" horiz-adv-x="453" 
d="M247 493l-9 5l128 214l57 -47zM27 0l71 347l-54 28v7q60 22 151 45l-34 -162q131 159 212 159q23 0 35 -11t10 -28q0 -27 -71 -329l58 -30v-7q-67 -18 -151 -27q77 344 77 351q0 10 -12 10q-21 0 -66.5 -36t-101.5 -97l-46 -220h-78z" />
    <glyph glyph-name="Ncommaaccent" unicode="&#x145;" horiz-adv-x="660" 
d="M329 -125q0 -44 -34.5 -88.5t-81.5 -72.5l-9 5q59 74 81 127q-18 -2 -32 8.5t-14 28.5q0 19 12 31t30 12q21 0 34.5 -14t13.5 -37zM503 0l-313 522l-76 -465l66 -51l-1 -6h-193l2 6l80 51l87 520q-46 66 -56 80v5h111l304 -515l76 458l-66 52l1 5h191l-1 -5l-80 -52
l-99 -605h-33z" />
    <glyph glyph-name="ncommaaccent" unicode="&#x146;" horiz-adv-x="453" 
d="M209 -125q0 -44 -34.5 -88.5t-81.5 -72.5l-9 5q59 74 81 127q-18 -2 -32 8.5t-14 28.5q0 19 12 31t30 12q21 0 34.5 -14t13.5 -37zM27 0l71 347l-54 28v7q60 22 151 45l-34 -162q131 159 212 159q23 0 35 -11t10 -28q0 -27 -71 -329l58 -30v-7q-67 -18 -151 -27
q77 344 77 351q0 10 -12 10q-21 0 -66.5 -36t-101.5 -97l-46 -220h-78z" />
    <glyph glyph-name="Ncaron" unicode="&#x147;" horiz-adv-x="660" 
d="M404 700l-99 124l5 6l101 -54l133 54l5 -7zM503 0l-313 522l-76 -465l66 -51l-1 -6h-193l2 6l80 51l87 520q-46 66 -56 80v5h111l304 -515l76 458l-66 52l1 5h191l-1 -5l-80 -52l-99 -605h-33z" />
    <glyph glyph-name="ncaron" unicode="&#x148;" horiz-adv-x="453" 
d="M273 483l-55 220l9 3l64 -109l114 109l9 -5zM27 0l71 347l-54 28v7q60 22 151 45l-34 -162q131 159 212 159q23 0 35 -11t10 -28q0 -27 -71 -329l58 -30v-7q-67 -18 -151 -27q77 344 77 351q0 10 -12 10q-21 0 -66.5 -36t-101.5 -97l-46 -220h-78z" />
    <glyph glyph-name="napostrophe" unicode="&#x149;" horiz-adv-x="481" 
d="M31 461q75 75 86 150q-1 -1 -3 -1h-7q-18 0 -29.5 10.5t-11.5 28.5q0 19 12.5 31t32.5 12q24 0 39 -17t15 -44q0 -50 -34 -97t-90 -78zM54 0l71 347l-54 28v7q60 22 151 45l-34 -162q131 159 212 159q23 0 35 -11t10 -28q0 -27 -71 -329l58 -30v-7q-67 -18 -151 -27
q77 344 77 351q0 10 -12 10q-21 0 -66.5 -36t-101.5 -97l-46 -220h-78z" />
    <glyph glyph-name="Eng" unicode="&#x14a;" horiz-adv-x="663" 
d="M-14 0l2 6l80 51l86 519q-10 14 -29 42t-27 39v5h112l248 -418q43 -77 54 -110l78 471l-66 52l1 5h191l-1 -5l-80 -52l-87 -530q-11 -69 -53.5 -149t-116.5 -146l-8 6q88 141 88 223q0 55 -54 152q-53 92 -214 359l-76 -463l66 -51l-1 -6h-193z" />
    <glyph glyph-name="eng" unicode="&#x14b;" horiz-adv-x="441" 
d="M27 0l71 347l-54 28v7q60 22 151 45l-34 -162q131 159 212 159q23 0 35 -11t10 -28q0 -11 -10.5 -60t-32.5 -145.5t-35 -157.5q-16 -65 -63 -138.5t-107 -133.5l-8 4q65 119 105 298q64 287 64 291q0 10 -12 10q-21 0 -66.5 -36t-101.5 -97l-46 -220h-78z" />
    <glyph glyph-name="Omacron" unicode="&#x14c;" horiz-adv-x="668" 
d="M538 774l-9 -49h-223l9 49h223zM401 636q-99 0 -171 -111.5t-72 -262.5q0 -107 45.5 -171t108.5 -64q98 0 170.5 111.5t72.5 271.5q0 106 -45 166t-109 60zM61 263q0 164 103 286.5t238 122.5q109 0 180 -74t71 -190q0 -174 -102 -296t-239 -122q-106 0 -178.5 76
t-72.5 197z" />
    <glyph glyph-name="omacron" unicode="&#x14d;" horiz-adv-x="406" 
d="M168 581h198l-10 -50h-198zM167 -10q-63 0 -104 45.5t-41 116.5q0 107 68 189.5t153 82.5q59 0 100.5 -45t41.5 -113q0 -117 -68.5 -196.5t-149.5 -79.5zM171 22q47 0 88 76t41 178q0 56 -16 86t-43 30q-49 0 -90.5 -79t-41.5 -171q0 -120 62 -120z" />
    <glyph glyph-name="Obreve" unicode="&#x14e;" horiz-adv-x="668" 
d="M534 832q-12 -56 -42.5 -88.5t-76.5 -32.5q-47 0 -69.5 35.5t-16.5 85.5l7 1q12 -64 81 -64q68 0 110 64zM401 636q-99 0 -171 -111.5t-72 -262.5q0 -107 45.5 -171t108.5 -64q98 0 170.5 111.5t72.5 271.5q0 106 -45 166t-109 60zM61 263q0 164 103 286.5t238 122.5
q109 0 180 -74t71 -190q0 -174 -102 -296t-239 -122q-106 0 -178.5 76t-72.5 197z" />
    <glyph glyph-name="obreve" unicode="&#x14f;" horiz-adv-x="406" 
d="M167 -10q-63 0 -104 45.5t-41 116.5q0 107 68 189.5t153 82.5q59 0 100.5 -45t41.5 -113q0 -117 -68.5 -196.5t-149.5 -79.5zM171 22q47 0 88 76t41 178q0 56 -16 86t-43 30q-49 0 -90.5 -79t-41.5 -171q0 -120 62 -120zM365 632q-12 -57 -40.5 -91t-71.5 -34
q-46 0 -66.5 37t-11.5 88l8 1q3 -29 21 -48.5t51 -19.5q64 0 102 68z" />
    <glyph glyph-name="Ohungarumlaut" unicode="&#x150;" horiz-adv-x="668" 
d="M455 702l-6 8l146 144l41 -55zM300 702l-6 8l146 144l42 -55zM401 636q-99 0 -171 -111.5t-72 -262.5q0 -107 45.5 -171t108.5 -64q98 0 170.5 111.5t72.5 271.5q0 106 -45 166t-109 60zM61 263q0 164 103 286.5t238 122.5q109 0 180 -74t71 -190q0 -174 -102 -296
t-239 -122q-106 0 -178.5 76t-72.5 197z" />
    <glyph glyph-name="ohungarumlaut" unicode="&#x151;" horiz-adv-x="406" 
d="M291 497l92 215l56 -32l-139 -188zM179 492l-9 5l92 215l56 -32zM167 -10q-63 0 -104 45.5t-41 116.5q0 107 68 189.5t153 82.5q59 0 100.5 -45t41.5 -113q0 -117 -68.5 -196.5t-149.5 -79.5zM171 22q47 0 88 76t41 178q0 56 -16 86t-43 30q-49 0 -90.5 -79t-41.5 -171
q0 -120 62 -120z" />
    <glyph glyph-name="OE" unicode="&#x152;" horiz-adv-x="810" 
d="M338 0q-123 0 -200 72t-77 192q0 105 50 196t139 146.5t194 55.5h375l-20 -122h-7l-47 86h-164l-43 -256h169l55 69h7l-29 -174h-7l-32 69h-169l-49 -297h179l87 107h7l-24 -144h-394zM394 37l97 589h-47q-121 0 -203.5 -107.5t-82.5 -255.5q0 -106 49.5 -166t131.5 -60
h55z" />
    <glyph glyph-name="oe" unicode="&#x153;" horiz-adv-x="598" 
d="M384 -10q-30 0 -55.5 18t-36.5 54q-62 -72 -133 -72q-58 0 -97.5 44.5t-39.5 113.5q0 110 69 193t151 83q41 0 72.5 -23.5t45.5 -64.5q75 88 160 88q37 0 58 -12t21 -31q0 -13 -9.5 -29t-31.5 -35.5t-67.5 -36.5t-107.5 -25q-21 -60 -21 -126q0 -85 53 -85q56 0 130 87
l10 -7q-72 -134 -171 -134zM163 22q44 0 86 77.5t42 180.5q0 112 -52 112q-46 0 -88 -78.5t-42 -174.5q0 -117 54 -117zM502 395q-25 0 -55.5 -31.5t-53.5 -82.5q58 13 96 37.5t38 56.5q0 20 -25 20z" />
    <glyph glyph-name="Racute" unicode="&#x154;" horiz-adv-x="540" 
d="M233 703l-5 9l199 129l32 -69zM-4 6l72 47l93 557l-56 46l1 6h210q71 0 122.5 -36t51.5 -103q0 -62 -39.5 -108.5t-96.5 -70.5q45 -131 57 -165q45 -130 109 -189l-1 -6q-39 2 -66.5 10t-45.5 19.5t-31.5 32t-22.5 42t-22 56.5l-3 9q-13 36 -56 176h-68l-46 -276l58 -47
l-1 -6h-220zM253 627l-44 -264h102q30 0 60 45t30 104q0 57 -28.5 86t-69.5 29h-50z" />
    <glyph glyph-name="racute" unicode="&#x155;" horiz-adv-x="325" 
d="M210 493l-9 5l128 214l57 -47zM27 0l71 347l-55 28v7q53 19 152 45l-36 -169q91 166 124 166q22 0 59 -17l-34 -86q-36 16 -45 16q-28 0 -115 -129l-44 -208h-77z" />
    <glyph glyph-name="Rcommaaccent" unicode="&#x156;" horiz-adv-x="540" 
d="M301 -125q0 -44 -34.5 -88.5t-81.5 -72.5l-9 5q59 74 81 127q-18 -2 -32 8.5t-14 28.5q0 19 12 31t30 12q21 0 34.5 -14t13.5 -37zM-4 6l72 47l93 557l-56 46l1 6h210q71 0 122.5 -36t51.5 -103q0 -62 -39.5 -108.5t-96.5 -70.5q45 -131 57 -165q45 -130 109 -189l-1 -6
q-39 2 -66.5 10t-45.5 19.5t-31.5 32t-22.5 42t-22 56.5l-3 9q-13 36 -56 176h-68l-46 -276l58 -47l-1 -6h-220zM253 627l-44 -264h102q30 0 60 45t30 104q0 57 -28.5 86t-69.5 29h-50z" />
    <glyph glyph-name="rcommaaccent" unicode="&#x157;" horiz-adv-x="325" 
d="M88 -125q0 -44 -34.5 -88.5t-81.5 -72.5l-9 5q59 74 81 127q-18 -2 -32 8.5t-14 28.5q0 19 12 31t30 12q21 0 34.5 -14t13.5 -37zM27 0l71 347l-55 28v7q53 19 152 45l-36 -169q91 166 124 166q22 0 59 -17l-34 -86q-36 16 -45 16q-28 0 -115 -129l-44 -208h-77z" />
    <glyph glyph-name="Rcaron" unicode="&#x158;" horiz-adv-x="540" 
d="M318 700l-99 124l5 6l101 -54l133 54l5 -7zM-4 6l72 47l93 557l-56 46l1 6h210q71 0 122.5 -36t51.5 -103q0 -62 -39.5 -108.5t-96.5 -70.5q45 -131 57 -165q45 -130 109 -189l-1 -6q-39 2 -66.5 10t-45.5 19.5t-31.5 32t-22.5 42t-22 56.5l-3 9q-13 36 -56 176h-68
l-46 -276l58 -47l-1 -6h-220zM253 627l-44 -264h102q30 0 60 45t30 104q0 57 -28.5 86t-69.5 29h-50z" />
    <glyph glyph-name="rcaron" unicode="&#x159;" horiz-adv-x="325" 
d="M230 483l-55 220l9 3l64 -109l114 109l9 -5zM27 0l71 347l-55 28v7q53 19 152 45l-36 -169q91 166 124 166q22 0 59 -17l-34 -86q-36 16 -45 16q-28 0 -115 -129l-44 -208h-77z" />
    <glyph glyph-name="Sacute" unicode="&#x15a;" horiz-adv-x="423" 
d="M283 672q81 0 135 -24l-20 -109h-6q-36 99 -111 99q-37 0 -60.5 -23t-23.5 -60q0 -34 18 -69t64 -105q38 -60 53.5 -87.5t30 -65.5t14.5 -70q0 -74 -54 -121t-132 -47q-99 0 -167 49q0 70 22 167h7q9 -88 45.5 -132t93.5 -44q45 0 73 30t28 72q0 40 -19 79.5t-65 107.5
q-53 79 -72.5 121t-19.5 88q0 68 48.5 106t117.5 38zM198 703l-5 9l199 129l32 -69z" />
    <glyph glyph-name="sacute" unicode="&#x15b;" horiz-adv-x="285" 
d="M162 493l-9 5l128 214l57 -47zM179 425q38 0 92 -16l-20 -77h-5q-32 62 -71 62q-16 0 -28 -11t-12 -30q0 -22 19 -59l63 -115q22 -41 22 -82q0 -40 -34 -73.5t-91 -33.5q-27 0 -58.5 9t-48.5 19q5 55 17 121h6q23 -114 86 -114q25 0 38.5 14.5t13.5 34.5q0 23 -22 66
q-23 44 -60 110q-20 39 -20 74q0 41 30.5 71t82.5 30z" />
    <glyph glyph-name="Scircumflex" unicode="&#x15c;" horiz-adv-x="423" 
d="M314 835l99 -124l-5 -6l-101 54l-133 -54l-5 7zM283 672q81 0 135 -24l-20 -109h-6q-36 99 -111 99q-37 0 -60.5 -23t-23.5 -60q0 -34 18 -69t64 -105q38 -60 53.5 -87.5t30 -65.5t14.5 -70q0 -74 -54 -121t-132 -47q-99 0 -167 49q0 70 22 167h7q9 -88 45.5 -132
t93.5 -44q45 0 73 30t28 72q0 40 -19 79.5t-65 107.5q-53 79 -72.5 121t-19.5 88q0 68 48.5 106t117.5 38z" />
    <glyph glyph-name="scircumflex" unicode="&#x15d;" horiz-adv-x="285" 
d="M231 707l54 -220l-8 -3l-64 109l-115 -109l-8 5zM179 425q38 0 92 -16l-20 -77h-5q-32 62 -71 62q-16 0 -28 -11t-12 -30q0 -22 19 -59l63 -115q22 -41 22 -82q0 -40 -34 -73.5t-91 -33.5q-27 0 -58.5 9t-48.5 19q5 55 17 121h6q23 -114 86 -114q25 0 38.5 14.5
t13.5 34.5q0 23 -22 66q-23 44 -60 110q-20 39 -20 74q0 41 30.5 71t82.5 30z" />
    <glyph glyph-name="Scedilla" unicode="&#x15e;" horiz-adv-x="423" 
d="M283 672q81 0 135 -24l-20 -109h-6q-36 99 -111 99q-37 0 -60.5 -23t-23.5 -60q0 -34 18 -69t64 -105q38 -60 53.5 -87.5t30 -65.5t14.5 -70q0 -74 -54 -121t-132 -47q-99 0 -167 49q0 70 22 167h7q9 -88 45.5 -132t93.5 -44q45 0 73 30t28 72q0 40 -19 79.5t-65 107.5
q-53 79 -72.5 121t-19.5 88q0 68 48.5 106t117.5 38zM196 0l-49 -76q57 -24 57 -72q0 -41 -44 -74.5t-122 -54.5l-4 7q43 23 76.5 52.5t33.5 56.5t-45 46l-1 3q7 11 18.5 29t16.5 26q36 53 36 57h27z" />
    <glyph glyph-name="scedilla" unicode="&#x15f;" horiz-adv-x="285" 
d="M179 425q38 0 92 -16l-20 -77h-5q-32 62 -71 62q-16 0 -28 -11t-12 -30q0 -22 19 -59l63 -115q22 -41 22 -82q0 -40 -34 -73.5t-91 -33.5q-27 0 -58.5 9t-48.5 19q5 55 17 121h6q23 -114 86 -114q25 0 38.5 14.5t13.5 34.5q0 23 -22 66q-23 44 -60 110q-20 39 -20 74
q0 41 30.5 71t82.5 30zM137 0l-49 -76q57 -24 57 -72q0 -41 -44 -74.5t-122 -54.5l-4 7q43 23 76.5 52.5t33.5 56.5t-45 46l-1 3q7 11 18.5 29t16.5 26q36 53 36 57h27z" />
    <glyph glyph-name="Scaron" unicode="&#x160;" horiz-adv-x="423" 
d="M287 700l-99 124l5 6l101 -54l133 54l5 -7zM283 672q81 0 135 -24l-20 -109h-6q-36 99 -111 99q-37 0 -60.5 -23t-23.5 -60q0 -34 18 -69t64 -105q38 -60 53.5 -87.5t30 -65.5t14.5 -70q0 -74 -54 -121t-132 -47q-99 0 -167 49q0 70 22 167h7q9 -88 45.5 -132t93.5 -44
q45 0 73 30t28 72q0 40 -19 79.5t-65 107.5q-53 79 -72.5 121t-19.5 88q0 68 48.5 106t117.5 38z" />
    <glyph glyph-name="scaron" unicode="&#x161;" horiz-adv-x="285" 
d="M185 483l-55 220l9 3l64 -109l114 109l9 -5zM179 425q38 0 92 -16l-20 -77h-5q-32 62 -71 62q-16 0 -28 -11t-12 -30q0 -22 19 -59l63 -115q22 -41 22 -82q0 -40 -34 -73.5t-91 -33.5q-27 0 -58.5 9t-48.5 19q5 55 17 121h6q23 -114 86 -114q25 0 38.5 14.5t13.5 34.5
q0 23 -22 66q-23 44 -60 110q-20 39 -20 74q0 41 30.5 71t82.5 30z" />
    <glyph glyph-name="Tcommaaccent" unicode="&#x162;" horiz-adv-x="578" 
d="M282 -125q0 -44 -34.5 -88.5t-81.5 -72.5l-9 5q59 74 81 127q-18 -2 -32 8.5t-14 28.5q0 19 12 31t30 12q21 0 34.5 -14t13.5 -37zM618 662l-22 -134h-6l-50 97h-136l-95 -572l58 -47l-1 -6h-223l1 6l75 47l95 572h-134l-85 -97h-6l24 134h505z" />
    <glyph glyph-name="tcommaaccent" unicode="&#x163;" horiz-adv-x="301" 
d="M121 -125q0 -44 -34.5 -88.5t-81.5 -72.5l-9 5q59 74 81 127q-18 -2 -32 8.5t-14 28.5q0 19 12 31t30 12q21 0 34.5 -14t13.5 -37zM181 370l-55 -254q-11 -49 -11 -58q0 -15 14 -15q35 0 109 74l9 -5q-23 -44 -62.5 -83t-89.5 -39q-30 0 -47.5 13t-17.5 32q0 3 10 57
l61 278h-52v5l154 105l-14 -69h143l-33 -41h-118z" />
    <glyph glyph-name="Tcaron" unicode="&#x164;" horiz-adv-x="578" 
d="M369 700l-99 124l5 6l101 -54l133 54l5 -7zM618 662l-22 -134h-6l-50 97h-136l-95 -572l58 -47l-1 -6h-223l1 6l75 47l95 572h-134l-85 -97h-6l24 134h505z" />
    <glyph glyph-name="tcaron" unicode="&#x165;" horiz-adv-x="301" 
d="M255 507l61 208h71l-121 -208h-11zM181 370l-55 -254q-11 -49 -11 -58q0 -15 14 -15q35 0 109 74l9 -5q-23 -44 -62.5 -83t-89.5 -39q-30 0 -47.5 13t-17.5 32q0 3 10 57l61 278h-52v5l154 105l-14 -69h143l-33 -41h-118z" />
    <glyph glyph-name="Tbar" unicode="&#x166;" horiz-adv-x="578" 
d="M124 336l5 35h375l-6 -35h-374zM618 662l-22 -134h-6l-50 97h-136l-95 -572l58 -47l-1 -6h-223l1 6l75 47l95 572h-134l-85 -97h-6l24 134h505z" />
    <glyph glyph-name="tbar" unicode="&#x167;" horiz-adv-x="301" 
d="M12 230l8 32h263l-7 -32h-264zM181 370l-55 -254q-11 -49 -11 -58q0 -15 14 -15q35 0 109 74l9 -5q-23 -44 -62.5 -83t-89.5 -39q-30 0 -47.5 13t-17.5 32q0 3 10 57l61 278h-52v5l154 105l-14 -69h143l-33 -41h-118z" />
    <glyph glyph-name="Utilde" unicode="&#x168;" horiz-adv-x="641" 
d="M554 201q-16 -90 -76 -150.5t-162 -60.5q-121 0 -183.5 63t-45.5 164l66 393l-56 46l1 6h219l-1 -6l-74 -46l-66 -397q-12 -77 32 -123t124 -46q74 0 120.5 44.5t56.5 113.5l68 408l-57 46l1 6h174l-1 -6l-72 -46zM384 809q11 0 56.5 -11.5t57.5 -11.5q13 0 34 16t34 33
l7 -3q-13 -39 -37 -71.5t-46 -32.5q-16 0 -60.5 11.5t-53.5 11.5q-13 0 -34 -16.5t-36 -34.5l-7 3q14 38 38.5 72t46.5 34z" />
    <glyph glyph-name="utilde" unicode="&#x169;" horiz-adv-x="440" 
d="M284 172q-121 -179 -205 -179q-23 0 -35.5 10.5t-12.5 23.5q0 9 7 42q4 19 27 116.5t37 161.5l-54 29v7q73 25 153 44q-18 -80 -39.5 -170.5t-32 -135t-10.5 -48.5q0 -9 11 -9q21 0 71 50.5t95 112.5l40 187h78l-74 -360l57 -29v-6q-65 -18 -151 -27zM247 613
q11 0 49 -14.5t49 -14.5q12 0 31.5 17t35.5 39l7 -4q-12 -41 -37 -74.5t-45 -33.5q-13 0 -51 14.5t-47 14.5q-21 0 -69 -56l-7 4q15 41 40 74.5t44 33.5z" />
    <glyph glyph-name="Umacron" unicode="&#x16a;" horiz-adv-x="641" 
d="M554 201q-16 -90 -76 -150.5t-162 -60.5q-121 0 -183.5 63t-45.5 164l66 393l-56 46l1 6h219l-1 -6l-74 -46l-66 -397q-12 -77 32 -123t124 -46q74 0 120.5 44.5t56.5 113.5l68 408l-57 46l1 6h174l-1 -6l-72 -46zM537 774l-9 -49h-223l9 49h223z" />
    <glyph glyph-name="umacron" unicode="&#x16b;" horiz-adv-x="440" 
d="M284 172q-121 -179 -205 -179q-23 0 -35.5 10.5t-12.5 23.5q0 9 7 42q4 19 27 116.5t37 161.5l-54 29v7q73 25 153 44q-18 -80 -39.5 -170.5t-32 -135t-10.5 -48.5q0 -9 11 -9q21 0 71 50.5t95 112.5l40 187h78l-74 -360l57 -29v-6q-65 -18 -151 -27zM189 581h198
l-10 -50h-198z" />
    <glyph glyph-name="Ubreve" unicode="&#x16c;" horiz-adv-x="641" 
d="M554 201q-16 -90 -76 -150.5t-162 -60.5q-121 0 -183.5 63t-45.5 164l66 393l-56 46l1 6h219l-1 -6l-74 -46l-66 -397q-12 -77 32 -123t124 -46q74 0 120.5 44.5t56.5 113.5l68 408l-57 46l1 6h174l-1 -6l-72 -46zM535 832q-12 -56 -42.5 -88.5t-76.5 -32.5
q-47 0 -69.5 35.5t-16.5 85.5l7 1q12 -64 81 -64q68 0 110 64z" />
    <glyph glyph-name="ubreve" unicode="&#x16d;" horiz-adv-x="440" 
d="M284 172q-121 -179 -205 -179q-23 0 -35.5 10.5t-12.5 23.5q0 9 7 42q4 19 27 116.5t37 161.5l-54 29v7q73 25 153 44q-18 -80 -39.5 -170.5t-32 -135t-10.5 -48.5q0 -9 11 -9q21 0 71 50.5t95 112.5l40 187h78l-74 -360l57 -29v-6q-65 -18 -151 -27zM383 632
q-12 -57 -40.5 -91t-71.5 -34q-46 0 -66.5 37t-11.5 88l8 1q3 -29 21 -48.5t51 -19.5q64 0 102 68z" />
    <glyph glyph-name="Uring" unicode="&#x16e;" horiz-adv-x="641" 
d="M554 201q-16 -90 -76 -150.5t-162 -60.5q-121 0 -183.5 63t-45.5 164l66 393l-56 46l1 6h219l-1 -6l-74 -46l-66 -397q-12 -77 32 -123t124 -46q74 0 120.5 44.5t56.5 113.5l68 408l-57 46l1 6h174l-1 -6l-72 -46zM375 769q0 -21 13.5 -36t34.5 -15t34.5 15t13.5 36
t-13.5 36t-34.5 15t-34.5 -15t-13.5 -36zM343 769q0 33 23.5 56t56.5 23t56.5 -23t23.5 -56q0 -35 -23 -57t-57 -22t-57 22t-23 57z" />
    <glyph glyph-name="uring" unicode="&#x16f;" horiz-adv-x="440" 
d="M234 576q0 -21 13.5 -36t34.5 -15t34.5 15t13.5 36t-13.5 36t-34.5 15t-34.5 -15t-13.5 -36zM202 576q0 33 23.5 56t56.5 23t57 -23t24 -56q0 -35 -23.5 -57t-57.5 -22t-57 22t-23 57zM284 172q-121 -179 -205 -179q-23 0 -35.5 10.5t-12.5 23.5q0 9 7 42q4 19 27 116.5
t37 161.5l-54 29v7q73 25 153 44q-18 -80 -39.5 -170.5t-32 -135t-10.5 -48.5q0 -9 11 -9q21 0 71 50.5t95 112.5l40 187h78l-74 -360l57 -29v-6q-65 -18 -151 -27z" />
    <glyph glyph-name="Uhungarumlaut" unicode="&#x170;" horiz-adv-x="641" 
d="M444 702l-6 8l146 144l41 -55zM289 702l-6 8l146 144l42 -55zM554 201q-16 -90 -76 -150.5t-162 -60.5q-121 0 -183.5 63t-45.5 164l66 393l-56 46l1 6h219l-1 -6l-74 -46l-66 -397q-12 -77 32 -123t124 -46q74 0 120.5 44.5t56.5 113.5l68 408l-57 46l1 6h174l-1 -6
l-72 -46z" />
    <glyph glyph-name="uhungarumlaut" unicode="&#x171;" horiz-adv-x="440" 
d="M284 172q-121 -179 -205 -179q-23 0 -35.5 10.5t-12.5 23.5q0 9 7 42q4 19 27 116.5t37 161.5l-54 29v7q73 25 153 44q-18 -80 -39.5 -170.5t-32 -135t-10.5 -48.5q0 -9 11 -9q21 0 71 50.5t95 112.5l40 187h78l-74 -360l57 -29v-6q-65 -18 -151 -27zM319 497l92 215
l56 -32l-139 -188zM207 492l-9 5l92 215l56 -32z" />
    <glyph glyph-name="Uogonek" unicode="&#x172;" horiz-adv-x="641" 
d="M234 -198q0 84 155 198q-33 -10 -73 -10q-121 0 -183.5 63t-45.5 164l66 393l-56 46l1 6h219l-1 -6l-74 -46l-66 -397q-12 -77 32 -123t124 -46q74 0 120.5 44.5t56.5 113.5l68 408l-57 46l1 6h174l-1 -6l-72 -46l-68 -409q-7 -45 -26 -81t-39.5 -58t-50.5 -49
q-8 -7 -12 -10q-118 -103 -118 -182q0 -22 11.5 -35t32.5 -13q35 0 76 31l5 -4q-14 -26 -44.5 -49.5t-74.5 -23.5q-35 0 -57.5 21t-22.5 54z" />
    <glyph glyph-name="uogonek" unicode="&#x173;" horiz-adv-x="440" 
d="M174 -273q-35 0 -57 21t-22 54q0 83 153 198l36 172q-121 -179 -205 -179q-23 0 -35.5 10.5t-12.5 23.5q0 9 7 42q4 19 27 116.5t37 161.5l-54 29v7q73 25 153 44q-18 -80 -39.5 -170.5t-32 -135t-10.5 -48.5q0 -9 11 -9q20 0 71 51t95 112l40 187h78l-74 -360l57 -29v-6
q-17 -3 -127 -24q-101 -107 -101 -174q0 -22 11.5 -35t32.5 -13q35 0 76 31l5 -4q-14 -26 -45 -49.5t-75 -23.5z" />
    <glyph glyph-name="Wcircumflex" unicode="&#x174;" horiz-adv-x="846" 
d="M555 835l99 -124l-5 -6l-101 54l-133 -54l-5 7zM129 610l-44 46l1 6h203l-1 -6l-70 -46l73 -472l147 250l-43 222l-52 46l1 6h195l-1 -6l-60 -46l29 -157l87 157l-40 46l1 6h143l-1 -6l-61 -46l-120 -209l48 -261l240 470l-52 46l1 6h162l-1 -6l-65 -46l-318 -622h-15
l-67 344l-202 -344h-14z" />
    <glyph glyph-name="wcircumflex" unicode="&#x175;" horiz-adv-x="519" 
d="M361 707l54 -220l-8 -3l-64 109l-115 -109l-8 5zM320 420q8 -59 10.5 -148t-3.5 -162q118 176 118 248q0 18 -17 39v4l80 23q14 -16 14 -41q0 -44 -53 -128t-209 -274h-15q11 109 17 285q-84 -145 -197 -285h-15q32 254 32 373l-50 29l1 7q76 25 127 37q4 -88 -24 -305
q93 147 169 298h15z" />
    <glyph glyph-name="Ycircumflex" unicode="&#x176;" horiz-adv-x="555" 
d="M451 656l1 6h168l-1 -6l-64 -46l-208 -288l-44 -269l57 -47l-1 -6h-220l1 6l73 47l43 262l-126 295l-47 46l1 6h214l-1 -6l-74 -46l105 -251l178 250zM393 835l99 -124l-5 -6l-101 54l-133 -54l-5 7z" />
    <glyph glyph-name="ycircumflex" unicode="&#x177;" horiz-adv-x="353" 
d="M278 349q0 27 -25 47v3l86 25q17 -19 17 -47q0 -41 -36.5 -102.5t-139.5 -209.5q-5 -7 -8 -11t-7 -10.5t-8 -11.5q-188 -278 -201 -300l-89 13v6q106 91 229 245q-7 187 -27 358l-50 30v6q78 26 118 37q25 -152 25 -335q65 108 90.5 165t25.5 92zM259 707l54 -220l-8 -3
l-64 109l-115 -109l-8 5z" />
    <glyph glyph-name="Ydieresis" unicode="&#x178;" horiz-adv-x="555" 
d="M451 656l1 6h168l-1 -6l-64 -46l-208 -288l-44 -269l57 -47l-1 -6h-220l1 6l73 47l43 262l-126 295l-47 46l1 6h214l-1 -6l-74 -46l105 -251l178 250zM464 813q20 0 33 -13.5t13 -32.5t-13 -32.5t-33 -13.5q-19 0 -32 13.5t-13 32.5t13 32.5t32 13.5zM297 813
q19 0 32 -13.5t13 -32.5t-13 -32.5t-32 -13.5t-32.5 13.5t-13.5 32.5t13.5 32.5t32.5 13.5z" />
    <glyph glyph-name="Zacute" unicode="&#x179;" horiz-adv-x="559" 
d="M263 703l-5 9l199 129l32 -69zM116 38h297l94 113h5l-27 -151h-487l1 9l458 617h-260l-84 -99h-6l23 135h451l-1 -8z" />
    <glyph glyph-name="zacute" unicode="&#x17a;" horiz-adv-x="354" 
d="M212 493l-9 5l128 214l57 -47zM-15 7l285 348h-66q-82 0 -149 -10l-3 4l59 72l256 -9l-1 -6l-287 -343h54q113 0 180 19l4 -4l-62 -83l-271 5z" />
    <glyph glyph-name="Zdotaccent" unicode="&#x17b;" horiz-adv-x="559" 
d="M116 38h297l94 113h5l-27 -151h-487l1 9l458 617h-260l-84 -99h-6l23 135h451l-1 -8zM363 817q20 0 34 -14t14 -34t-14 -34t-34 -14t-34 14t-14 34t14 34t34 14z" />
    <glyph glyph-name="zdotaccent" unicode="&#x17c;" horiz-adv-x="354" 
d="M-15 7l285 348h-66q-82 0 -149 -10l-3 4l59 72l256 -9l-1 -6l-287 -343h54q113 0 180 19l4 -4l-62 -83l-271 5zM242 631q20 0 34 -14t14 -34t-14 -34t-34 -14t-34 14t-14 34t14 34t34 14z" />
    <glyph glyph-name="Zcaron" unicode="&#x17d;" horiz-adv-x="559" 
d="M354 700l-99 124l5 6l101 -54l133 54l5 -7zM116 38h297l94 113h5l-27 -151h-487l1 9l458 617h-260l-84 -99h-6l23 135h451l-1 -8z" />
    <glyph glyph-name="zcaron" unicode="&#x17e;" horiz-adv-x="354" 
d="M227 483l-55 220l9 3l64 -109l114 109l9 -5zM-15 7l285 348h-66q-82 0 -149 -10l-3 4l59 72l256 -9l-1 -6l-287 -343h54q113 0 180 19l4 -4l-62 -83l-271 5z" />
    <glyph glyph-name="florin" unicode="&#x192;" horiz-adv-x="380" 
d="M231 386h107l-30 -41h-88l-71 -262q-68 -257 -238 -270l-10 64h1q28 -7 43 -7q29 0 47.5 15.5t37.5 62t43 140.5l65 257h-73l1 5l26 36h57l26 96q54 190 207 190q47 0 81 -14l-35 -65h-1q-41 39 -73 39q-54 0 -85 -109z" />
    <glyph glyph-name="Aringacute" unicode="&#x1fa;" horiz-adv-x="570" 
d="M133 6l-2 -6h-168l2 6l67 47l333 621h12l109 -621l44 -47l-2 -6h-207l2 6l77 47l-38 214h-172l-113 -214zM209 302h147l-37 208zM305 867l-5 9l199 129l32 -69zM331 778q0 -21 13.5 -36t34.5 -15t34.5 15t13.5 36t-13.5 36t-34.5 15t-34.5 -15t-13.5 -36zM299 778
q0 33 23.5 56t56.5 23t56.5 -23t23.5 -56q0 -35 -23 -57t-57 -22t-57 22t-23 57z" />
    <glyph glyph-name="aringacute" unicode="&#x1fb;" horiz-adv-x="415" 
d="M373 26l-1 -7q-67 -18 -151 -27l30 148q-41 -62 -87.5 -106t-85.5 -44q-25 0 -44.5 28t-19.5 74q0 67 34 134.5t102.5 119t155.5 61.5l89 48l-80 -399zM116 50q19 0 62.5 43.5t83.5 100.5l38 181q-79 -6 -141 -91.5t-62 -189.5q0 -44 19 -44zM217 668l-9 5l128 214
l57 -47zM203 569q0 -21 13.5 -36t34.5 -15t34.5 15t13.5 36t-13.5 36t-34.5 15t-34.5 -15t-13.5 -36zM171 569q0 33 23.5 56t56.5 23t57 -23t24 -56q0 -35 -23.5 -57t-57.5 -22t-57 22t-23 57z" />
    <glyph glyph-name="AEacute" unicode="&#x1fc;" horiz-adv-x="775" 
d="M504 703l-5 9l199 129l32 -69zM349 656l1 6h433l-20 -122h-6l-48 86h-164l-43 -256h169l56 69h6l-29 -174h-7l-32 69h-169l-49 -297h179l87 107h7l-24 -144h-409l1 6l72 47l43 258h-154l-174 -258l57 -47l-1 -6h-168l1 6l64 47l377 557zM409 347l44 266l-180 -266h136z
" />
    <glyph glyph-name="aeacute" unicode="&#x1fd;" horiz-adv-x="561" 
d="M334 493l-9 5l128 214l57 -47zM347 -10q-41 0 -73 32t-32 96v6q-90 -134 -160 -134q-27 0 -47 27.5t-20 75.5q0 121 88.5 223.5t204.5 102.5q51 0 86 -22q46 27 90 27q37 0 57.5 -12t20.5 -31q0 -13 -9.5 -29t-31 -35.5t-67 -36.5t-107.5 -25q-21 -60 -21 -126
q0 -85 53 -85q56 0 130 87l10 -7q-72 -134 -172 -134zM291 387q-66 0 -129 -90t-63 -203q0 -44 20 -44q19 0 53.5 33t72.5 83q18 118 105 198q-25 23 -59 23zM491 375q0 20 -25 20q-26 0 -56.5 -31t-53.5 -83q58 13 96.5 37.5t38.5 56.5z" />
    <glyph glyph-name="Oslashacute" unicode="&#x1fe;" horiz-adv-x="668" 
d="M61 263q0 164 103 286.5t238 122.5q83 0 146 -46l62 86l29 -20l-64 -89q78 -76 78 -195q0 -174 -102 -296t-239 -122q-80 0 -144 45l-71 -99l-29 20l73 102q-80 74 -80 205zM401 636q-99 0 -171 -111.5t-72 -262.5q0 -84 28 -141l325 453q-44 62 -110 62zM555 410
q-2 79 -25 130l-325 -452q44 -61 107 -61q98 0 170.5 111.5t72.5 271.5zM312 703l-5 9l199 129l32 -69z" />
    <glyph glyph-name="oslashacute" unicode="&#x1ff;" horiz-adv-x="406" 
d="M15 -49l53 79q-46 46 -46 122q0 107 68 189.5t153 82.5q37 0 71 -21l47 71l26 -17l-48 -73q46 -48 46 -118q0 -117 -68.5 -196.5t-149.5 -79.5q-41 0 -75 21l-51 -77zM171 22q47 0 88.5 76t41.5 178q0 30 -4 45l-175 -265q16 -34 49 -34zM107 142q0 -27 3 -48l175 266
q-15 32 -44 32q-48 0 -91 -79.5t-43 -170.5zM206 493l-9 5l128 214l57 -47z" />
    <glyph glyph-name="Scommaaccent" unicode="&#x218;" horiz-adv-x="423" 
d="M203 -125q0 -44 -34.5 -88.5t-81.5 -72.5l-9 5q59 74 81 127q-18 -2 -32 8.5t-14 28.5q0 19 12 31t30 12q21 0 34.5 -14t13.5 -37zM283 672q81 0 135 -24l-20 -109h-6q-36 99 -111 99q-37 0 -60.5 -23t-23.5 -60q0 -34 18 -69t64 -105q38 -60 53.5 -87.5t30 -65.5
t14.5 -70q0 -74 -54 -121t-132 -47q-99 0 -167 49q0 70 22 167h7q9 -88 45.5 -132t93.5 -44q45 0 73 30t28 72q0 40 -19 79.5t-65 107.5q-53 79 -72.5 121t-19.5 88q0 68 48.5 106t117.5 38z" />
    <glyph glyph-name="scommaaccent" unicode="&#x219;" horiz-adv-x="285" 
d="M139 -125q0 -44 -34.5 -88.5t-81.5 -72.5l-9 5q59 74 81 127q-18 -2 -32 8.5t-14 28.5q0 19 12 31t30 12q21 0 34.5 -14t13.5 -37zM179 425q38 0 92 -16l-20 -77h-5q-32 62 -71 62q-16 0 -28 -11t-12 -30q0 -22 19 -59l63 -115q22 -41 22 -82q0 -40 -34 -73.5t-91 -33.5
q-27 0 -58.5 9t-48.5 19q5 55 17 121h6q23 -114 86 -114q25 0 38.5 14.5t13.5 34.5q0 23 -22 66q-23 44 -60 110q-20 39 -20 74q0 41 30.5 71t82.5 30z" />
    <glyph glyph-name="uni021A" unicode="&#x21a;" horiz-adv-x="578" 
d="M282 -125q0 -44 -34.5 -88.5t-81.5 -72.5l-9 5q59 74 81 127q-18 -2 -32 8.5t-14 28.5q0 19 12 31t30 12q21 0 34.5 -14t13.5 -37zM618 662l-22 -134h-6l-50 97h-136l-95 -572l58 -47l-1 -6h-223l1 6l75 47l95 572h-134l-85 -97h-6l24 134h505z" />
    <glyph glyph-name="uni021B" unicode="&#x21b;" horiz-adv-x="301" 
d="M121 -125q0 -44 -34.5 -88.5t-81.5 -72.5l-9 5q59 74 81 127q-18 -2 -32 8.5t-14 28.5q0 19 12 31t30 12q21 0 34.5 -14t13.5 -37zM181 370l-55 -254q-11 -49 -11 -58q0 -15 14 -15q35 0 109 74l9 -5q-23 -44 -62.5 -83t-89.5 -39q-30 0 -47.5 13t-17.5 32q0 3 10 57
l61 278h-52v5l154 105l-14 -69h143l-33 -41h-118z" />
    <glyph glyph-name="uni0237" unicode="&#x237;" horiz-adv-x="213" 
d="M113 22q-11 -63 -59.5 -137t-111.5 -135l-7 4q77 147 105 298l57 295l-55 28v7q70 26 148 45z" />
    <glyph glyph-name="circumflex" unicode="&#x2c6;" 
d="M297 707l54 -220l-8 -3l-64 109l-115 -109l-8 5z" />
    <glyph glyph-name="caron" unicode="&#x2c7;" 
d="M234 483l-55 220l9 3l64 -109l114 109l9 -5z" />
    <glyph glyph-name="breve" unicode="&#x2d8;" 
d="M368 632q-12 -57 -40.5 -91t-71.5 -34q-46 0 -66.5 37t-11.5 88l8 1q3 -29 21 -48.5t51 -19.5q64 0 102 68z" />
    <glyph glyph-name="dotaccent" unicode="&#x2d9;" 
d="M267 631q20 0 34 -14t14 -34t-14 -34t-34 -14t-34 14t-14 34t14 34t34 14z" />
    <glyph glyph-name="ring" unicode="&#x2da;" 
d="M223 576q0 -21 13.5 -36t34.5 -15t34.5 15t13.5 36t-13.5 36t-34.5 15t-34.5 -15t-13.5 -36zM191 576q0 33 23.5 56t56.5 23t57 -23t24 -56q0 -35 -23.5 -57t-57.5 -22t-57 22t-23 57z" />
    <glyph glyph-name="ogonek" unicode="&#x2db;" 
d="M111 -273q-35 0 -57 21t-22 54q0 86 154 198h25q-105 -109 -105 -179q0 -22 11.5 -35t32.5 -13q35 0 76 31l5 -4q-14 -26 -45 -49.5t-75 -23.5z" />
    <glyph glyph-name="tilde" unicode="&#x2dc;" 
d="M220 613q11 0 49 -14.5t49 -14.5q12 0 31.5 17t35.5 39l7 -4q-12 -41 -37 -74.5t-45 -33.5q-13 0 -51 14.5t-47 14.5q-21 0 -69 -56l-7 4q15 41 40 74.5t44 33.5z" />
    <glyph glyph-name="hungarumlaut" unicode="&#x2dd;" 
d="M253 497l92 215l56 -32l-139 -188zM141 492l-9 5l92 215l56 -32z" />
    <glyph glyph-name="Wgrave" unicode="&#x1e80;" horiz-adv-x="846" 
d="M429 775l39 66l163 -130l-6 -8zM129 610l-44 46l1 6h203l-1 -6l-70 -46l73 -472l147 250l-43 222l-52 46l1 6h195l-1 -6l-60 -46l29 -157l87 157l-40 46l1 6h143l-1 -6l-61 -46l-120 -209l48 -261l240 470l-52 46l1 6h162l-1 -6l-65 -46l-318 -622h-15l-67 344l-202 -344
h-14z" />
    <glyph glyph-name="wgrave" unicode="&#x1e81;" horiz-adv-x="519" 
d="M320 420q8 -59 10.5 -148t-3.5 -162q118 176 118 248q0 18 -17 39v4l80 23q14 -16 14 -41q0 -44 -53 -128t-209 -274h-15q11 109 17 285q-84 -145 -197 -285h-15q32 254 32 373l-50 29l1 7q76 25 127 37q4 -88 -24 -305q93 147 169 298h15zM363 493l-128 185l69 34
l68 -214z" />
    <glyph glyph-name="Wacute" unicode="&#x1e82;" horiz-adv-x="846" 
d="M433 703l-5 9l199 129l32 -69zM129 610l-44 46l1 6h203l-1 -6l-70 -46l73 -472l147 250l-43 222l-52 46l1 6h195l-1 -6l-60 -46l29 -157l87 157l-40 46l1 6h143l-1 -6l-61 -46l-120 -209l48 -261l240 470l-52 46l1 6h162l-1 -6l-65 -46l-318 -622h-15l-67 344l-202 -344
h-14z" />
    <glyph glyph-name="wacute" unicode="&#x1e83;" horiz-adv-x="519" 
d="M287 493l-9 5l128 214l57 -47zM320 420q8 -59 10.5 -148t-3.5 -162q118 176 118 248q0 18 -17 39v4l80 23q14 -16 14 -41q0 -44 -53 -128t-209 -274h-15q11 109 17 285q-84 -145 -197 -285h-15q32 254 32 373l-50 29l1 7q76 25 127 37q4 -88 -24 -305q93 147 169 298h15z
" />
    <glyph glyph-name="Wdieresis" unicode="&#x1e84;" horiz-adv-x="846" 
d="M626 813q20 0 33 -13.5t13 -32.5t-13 -32.5t-33 -13.5q-19 0 -32 13.5t-13 32.5t13 32.5t32 13.5zM459 813q19 0 32 -13.5t13 -32.5t-13 -32.5t-32 -13.5t-32.5 13.5t-13.5 32.5t13.5 32.5t32.5 13.5zM129 610l-44 46l1 6h203l-1 -6l-70 -46l73 -472l147 250l-43 222
l-52 46l1 6h195l-1 -6l-60 -46l29 -157l87 157l-40 46l1 6h143l-1 -6l-61 -46l-120 -209l48 -261l240 470l-52 46l1 6h162l-1 -6l-65 -46l-318 -622h-15l-67 344l-202 -344h-14z" />
    <glyph glyph-name="wdieresis" unicode="&#x1e85;" horiz-adv-x="519" 
d="M407 627q19 0 32.5 -13.5t13.5 -32.5t-13.5 -32.5t-32.5 -13.5t-32.5 13.5t-13.5 32.5t13.5 32.5t32.5 13.5zM247 627q19 0 32.5 -13.5t13.5 -32.5t-13.5 -32.5t-32.5 -13.5t-32.5 13.5t-13.5 32.5t13.5 32.5t32.5 13.5zM320 420q8 -59 10.5 -148t-3.5 -162
q118 176 118 248q0 18 -17 39v4l80 23q14 -16 14 -41q0 -44 -53 -128t-209 -274h-15q11 109 17 285q-84 -145 -197 -285h-15q32 254 32 373l-50 29l1 7q76 25 127 37q4 -88 -24 -305q93 147 169 298h15z" />
    <glyph glyph-name="Ygrave" unicode="&#x1ef2;" horiz-adv-x="555" 
d="M451 656l1 6h168l-1 -6l-64 -46l-208 -288l-44 -269l57 -47l-1 -6h-220l1 6l73 47l43 262l-126 295l-47 46l1 6h214l-1 -6l-74 -46l105 -251l178 250zM260 775l39 66l163 -130l-6 -8z" />
    <glyph glyph-name="ygrave" unicode="&#x1ef3;" horiz-adv-x="353" 
d="M278 349q0 27 -25 47v3l86 25q17 -19 17 -47q0 -41 -36.5 -102.5t-139.5 -209.5q-5 -7 -8 -11t-7 -10.5t-8 -11.5q-188 -278 -201 -300l-89 13v6q106 91 229 245q-7 187 -27 358l-50 30v6q78 26 118 37q25 -152 25 -335q65 108 90.5 165t25.5 92zM251 493l-128 185l69 34
l68 -214z" />
    <glyph glyph-name="uni2009" unicode="&#x2009;" horiz-adv-x="25" 
 />
    <glyph glyph-name="endash" unicode="&#x2013;" horiz-adv-x="423" 
d="M59 261h324l-8 -36h-324z" />
    <glyph glyph-name="emdash" unicode="&#x2014;" horiz-adv-x="666" 
d="M51 225l8 36h567l-8 -36h-567z" />
    <glyph glyph-name="quoteleft" unicode="&#x2018;" horiz-adv-x="190" 
d="M227 689q-75 -75 -86 -150q1 1 3 1h7q18 0 29.5 -10.5t11.5 -28.5q0 -19 -12.5 -31t-32.5 -12q-24 0 -39 17t-15 44q0 50 34 97t90 78z" />
    <glyph glyph-name="quoteright" unicode="&#x2019;" horiz-adv-x="189" 
d="M78 461q75 75 86 150q-1 -1 -3 -1h-7q-18 0 -29.5 10.5t-11.5 28.5q0 19 12.5 31t32.5 12q24 0 39 -17t15 -44q0 -50 -34 -97t-90 -78z" />
    <glyph glyph-name="quotesinglbase" unicode="&#x201a;" horiz-adv-x="190" 
d="M-17 -135q75 75 86 150q-1 -1 -3 -1h-7q-18 0 -29.5 10.5t-11.5 28.5q0 19 12.5 31t32.5 12q24 0 39 -17t15 -44q0 -50 -34 -97t-90 -78z" />
    <glyph glyph-name="quotedblleft" unicode="&#x201c;" horiz-adv-x="337" 
d="M375 689q-75 -75 -86 -150q1 1 3 1h7q18 0 29.5 -10.5t11.5 -28.5q0 -19 -12.5 -31t-32.5 -12q-24 0 -39 17t-15 44q0 50 34 97t90 78zM227 689q-75 -75 -86 -150q1 1 3 1h7q18 0 29.5 -10.5t11.5 -28.5q0 -19 -12.5 -31t-32.5 -12q-24 0 -39 17t-15 44q0 50 34 97t90 78
z" />
    <glyph glyph-name="quotedblright" unicode="&#x201d;" horiz-adv-x="337" 
d="M226 461q75 75 86 150q-1 -1 -4 -1h-6q-18 0 -29.5 10.5t-11.5 28.5q0 19 12 31t33 12q23 0 38.5 -17t15.5 -44q0 -49 -35 -97t-89 -78zM78 461q75 75 86 150q-1 -1 -3 -1h-7q-18 0 -29.5 10.5t-11.5 28.5q0 19 12.5 31t32.5 12q24 0 39 -17t15 -44q0 -50 -34 -97
t-90 -78z" />
    <glyph glyph-name="quotedblbase" unicode="&#x201e;" horiz-adv-x="338" 
d="M131 -135q75 75 86 150q-1 -1 -4 -1h-6q-18 0 -29.5 10.5t-11.5 28.5q0 19 12 31t33 12q23 0 38.5 -17t15.5 -44q0 -49 -35 -97t-89 -78zM-17 -135q75 75 86 150q-1 -1 -3 -1h-7q-18 0 -29.5 10.5t-11.5 28.5q0 19 12.5 31t32.5 12q24 0 39 -17t15 -44q0 -50 -34 -97
t-90 -78z" />
    <glyph glyph-name="dagger" unicode="&#x2020;" horiz-adv-x="310" 
d="M71 -115h-4l108 582h-109l1 6l39 38h77l20 108l60 63h5l-32 -171h115l-1 -5l-38 -39h-84l-96 -517z" />
    <glyph glyph-name="daggerdbl" unicode="&#x2021;" horiz-adv-x="310" 
d="M307 453h-82l-42 -223h110l-1 -5l-38 -38h-79l-26 -142l-60 -64h-4l38 206h-115l1 5l38 38h84l41 223h-110l1 5l38 38h79l23 125l60 62h5l-35 -187h113l-1 -5z" />
    <glyph glyph-name="bullet" unicode="&#x2022;" horiz-adv-x="331" 
d="M60 248q0 47 31.5 79t77.5 32q47 0 79 -32t32 -79q0 -46 -32 -78t-79 -32q-46 0 -77.5 32t-31.5 78z" />
    <glyph glyph-name="ellipsis" unicode="&#x2026;" horiz-adv-x="512" 
d="M386 94q22 0 37 -14t15 -37q0 -22 -15 -37t-37 -15q-23 0 -37 15t-14 37q0 23 14 37t37 14zM227 94q22 0 37 -14t15 -37q0 -22 -15 -37t-37 -15q-23 0 -37 15t-14 37q0 23 14 37t37 14zM69 94q22 0 37 -14t15 -37q0 -22 -15 -37t-37 -15q-23 0 -37 15t-14 37q0 23 14 37
t37 14z" />
    <glyph glyph-name="perthousand" unicode="&#x2030;" horiz-adv-x="932" 
d="M787 241q-44 0 -71.5 -34.5t-27.5 -83.5q0 -43 22.5 -68t56.5 -25q43 0 70.5 34.5t27.5 83.5q0 43 -22 68t-56 25zM787 280q52 0 87 -35t35 -96q0 -62 -40.5 -110t-101.5 -48q-51 0 -87 35t-36 96q0 62 40.5 110t102.5 48zM556 148q0 43 -22 68t-56 25q-44 0 -71.5 -34.5
t-27.5 -83.5q0 -43 22 -68t56 -25q44 0 71.5 34.5t27.5 83.5zM478 280q51 0 86.5 -35t35.5 -96q0 -62 -40.5 -110t-102.5 -48q-51 0 -86.5 35t-35.5 96q0 62 40.5 110t102.5 48zM115 514q0 -44 22.5 -69t55.5 -25q44 0 71.5 35t27.5 83q0 44 -22.5 69t-55.5 25
q-44 0 -71.5 -35t-27.5 -83zM214 670q52 0 87 -34t35 -97q0 -62 -40.5 -109.5t-102.5 -47.5q-51 0 -86.5 35t-35.5 96q0 62 40.5 109.5t102.5 47.5zM578 662h50l-528 -662h-51z" />
    <glyph glyph-name="uni2032" unicode="&#x2032;" horiz-adv-x="180" 
d="M221 687v-1l-131 -228h-11l65 229h77z" />
    <glyph glyph-name="uni2033" unicode="&#x2033;" horiz-adv-x="310" 
d="M351 687v-1l-131 -228h-11l65 229h77zM221 687v-1l-131 -228h-11l65 229h77z" />
    <glyph glyph-name="guilsinglleft" unicode="&#x2039;" horiz-adv-x="232" 
d="M42 226l1 1l164 156l7 -6l-100 -158l40 -154l-8 -3z" />
    <glyph glyph-name="guilsinglright" unicode="&#x203a;" horiz-adv-x="232" 
d="M187 219l-1 -1l-164 -156l-7 6l100 158l-40 154l8 3z" />
    <glyph glyph-name="fraction" unicode="&#x2044;" 
d="M461 662h42l-494 -662h-42z" />
    <glyph glyph-name="Euro" unicode="&#x20ac;" horiz-adv-x="558" 
d="M413 280h-207v-21q0 -103 37.5 -167t94.5 -64q78 0 149 91h7l-20 -107q-44 -22 -129 -22q-108 0 -172 76t-64 202v12h-71l5 33h68q7 51 10 62h-68l6 33h71q39 117 126 190.5t192 73.5q62 0 123 -18l-21 -116h-6q-40 96 -110 96q-66 0 -123.5 -63.5t-84.5 -162.5h208
l-6 -33h-210q-4 -20 -10 -62h211z" />
    <glyph glyph-name="trademark" unicode="&#x2122;" horiz-adv-x="605" 
d="M645 656l-35 -22l-37 -218l28 -21l-1 -6h-113l1 6l34 21l30 177l-115 -181h-9l-51 183l-31 -179l28 -21l-1 -6h-90l1 6l36 21l36 215q-11 17 -22 25l1 6h76l46 -176l110 176h79zM92 662h221l-12 -66h-6l-19 44h-52l-38 -225l28 -20l-1 -6h-114l1 6l35 20l38 225h-48
l-39 -45h-6z" />
    <glyph glyph-name="onethird" unicode="&#x2153;" horiz-adv-x="509" 
d="M60 373v4l38 25l41 209l-31 18v4q56 19 100 37l-51 -268l26 -25l-1 -4h-122zM489 662h42l-494 -662h-42zM322 151q38 22 57.5 39.5t19.5 35.5q0 31 -35 31q-15 0 -38 -14l-5 4q28 48 79 48q26 0 41 -13.5t15 -35.5q0 -41 -66 -68q31 -2 50 -18t19 -44q0 -44 -44 -78
t-137 -45l-3 7q118 49 118 104q0 40 -50 40q-9 0 -19 -2z" />
    <glyph glyph-name="twothirds" unicode="&#x2154;" horiz-adv-x="566" 
d="M234 373h-177l1 11q88 90 118 130t30 71q0 41 -44 41q-26 0 -49 -18l-5 4q27 56 89 56q32 0 51.5 -19.5t19.5 -51.5q0 -40 -34 -77.5t-112 -97.5h144zM546 662h42l-494 -662h-42zM378 151q38 22 57.5 39.5t19.5 35.5q0 31 -35 31q-15 0 -38 -14l-5 4q28 48 79 48
q26 0 41 -13.5t15 -35.5q0 -41 -66 -68q31 -2 50 -18t19 -44q0 -44 -44 -78t-137 -45l-3 7q118 49 118 104q0 40 -50 40q-9 0 -19 -2z" />
    <glyph glyph-name="oneeighth" unicode="&#x215b;" horiz-adv-x="526" 
d="M60 373v4l38 25l41 209l-31 18v4q56 19 100 37l-51 -268l26 -25l-1 -4h-122zM489 662h42l-494 -662h-42zM410 295q40 0 61.5 -16t21.5 -40q0 -43 -75 -76q53 -56 53 -91q0 -33 -28.5 -55.5t-76.5 -22.5q-43 0 -66.5 17.5t-23.5 44.5q0 48 84 84q-46 47 -46 84
q0 32 27 51.5t69 19.5zM417 57q0 26 -46 72q-44 -34 -44 -69q0 -16 11 -28t31 -12q23 0 35.5 10.5t12.5 26.5zM367 240q0 -21 41 -66q35 29 35 61q0 36 -37 36q-39 0 -39 -31z" />
    <glyph glyph-name="threeeighths" unicode="&#x215c;" horiz-adv-x="531" 
d="M494 662h42l-494 -662h-42zM103 524q38 22 57.5 39.5t19.5 35.5q0 31 -35 31q-15 0 -38 -14l-5 4q28 48 79 48q26 0 41 -13.5t15 -35.5q0 -41 -66 -68q31 -2 50 -18t19 -44q0 -44 -44 -78t-137 -45l-3 7q118 49 118 104q0 40 -50 40q-9 0 -19 -2zM416 295q40 0 61.5 -16
t21.5 -40q0 -43 -75 -76q53 -56 53 -91q0 -33 -28.5 -55.5t-76.5 -22.5q-43 0 -66.5 17.5t-23.5 44.5q0 48 84 84q-46 47 -46 84q0 32 27 51.5t69 19.5zM423 57q0 26 -46 72q-44 -34 -44 -69q0 -16 11 -28t31 -12q23 0 35.5 10.5t12.5 26.5zM373 240q0 -21 41 -66
q35 29 35 61q0 36 -37 36q-39 0 -39 -31z" />
    <glyph glyph-name="fiveeighths" unicode="&#x215d;" horiz-adv-x="525" 
d="M488 662h42l-494 -662h-42zM269 662l-26 -50h-94l-15 -34q48 -11 76.5 -35t28.5 -54q0 -42 -45 -76.5t-130 -48.5l-3 8q54 24 84 50t30 48q0 39 -81 58q0 6 55 134h120zM410 295q40 0 61.5 -16t21.5 -40q0 -43 -75 -76q53 -56 53 -91q0 -33 -28.5 -55.5t-76.5 -22.5
q-43 0 -66.5 17.5t-23.5 44.5q0 48 84 84q-46 47 -46 84q0 32 27 51.5t69 19.5zM417 57q0 26 -46 72q-44 -34 -44 -69q0 -16 11 -28t31 -12q23 0 35.5 10.5t12.5 26.5zM367 240q0 -21 41 -66q35 29 35 61q0 36 -37 36q-39 0 -39 -31z" />
    <glyph glyph-name="seveneighths" unicode="&#x215e;" horiz-adv-x="507" 
d="M126 662h169v-4l-162 -284h-35l136 238h-137zM470 662h42l-494 -662h-42zM391 295q40 0 61.5 -16t21.5 -40q0 -43 -75 -76q53 -56 53 -91q0 -33 -28.5 -55.5t-76.5 -22.5q-43 0 -66.5 17.5t-23.5 44.5q0 48 84 84q-46 47 -46 84q0 32 27 51.5t69 19.5zM398 57
q0 26 -46 72q-44 -34 -44 -69q0 -16 11 -28t31 -12q23 0 35.5 10.5t12.5 26.5zM348 240q0 -21 41 -66q35 29 35 61q0 36 -37 36q-39 0 -39 -31z" />
    <glyph glyph-name="minus" unicode="&#x2212;" horiz-adv-x="395" 
d="M44 229l7 36h310l-6 -36h-311z" />
    <glyph glyph-name="uni24C5" unicode="&#x24c5;" horiz-adv-x="776" 
d="M566 413q0 -53 -45.5 -83t-107.5 -30v7q77 27 77 95q0 38 -20.5 58.5t-56.5 20.5h-22v-279l44 -31v-4h-160v4l39 31v272l-39 31v4h158q59 0 96 -25t37 -71zM408 637q-126 0 -209.5 -88.5t-83.5 -216.5q0 -126 86 -215.5t207 -89.5q125 0 209 88t84 217q0 125 -85.5 215
t-207.5 90zM408 674q141 0 240.5 -100.5t99.5 -241.5q0 -144 -98 -243t-242 -99q-145 0 -242.5 98.5t-97.5 243.5q0 144 98 243t242 99z" />
    <glyph glyph-name="acute.uc" 
d="M182 703l-5 9l199 129l32 -69z" />
    <glyph glyph-name="breve.uc" 
d="M388 832q-12 -56 -42.5 -88.5t-76.5 -32.5q-47 0 -69.5 35.5t-16.5 85.5l7 1q12 -64 81 -64q68 0 110 64z" />
    <glyph glyph-name="circumflex.uc" 
d="M306 835l99 -124l-5 -6l-101 54l-133 -54l-5 7z" />
    <glyph glyph-name="dieresis.uc" 
d="M374 813q20 0 33 -13.5t13 -32.5t-13 -32.5t-33 -13.5q-19 0 -32 13.5t-13 32.5t13 32.5t32 13.5zM207 813q19 0 32 -13.5t13 -32.5t-13 -32.5t-32 -13.5t-32.5 13.5t-13.5 32.5t13.5 32.5t32.5 13.5z" />
    <glyph glyph-name="grave.uc" 
d="M172 775l39 66l163 -130l-6 -8z" />
    <glyph glyph-name="macron.uc" 
d="M407 774l-9 -49h-223l9 49h223z" />
    <glyph glyph-name="ring.uc" 
d="M240 778q0 -21 13.5 -36t34.5 -15t34.5 15t13.5 36t-13.5 36t-34.5 15t-34.5 -15t-13.5 -36zM208 778q0 33 23.5 56t56.5 23t56.5 -23t23.5 -56q0 -35 -23 -57t-57 -22t-57 22t-23 57z" />
    <glyph glyph-name="tilde.uc" 
d="M255 809q11 0 56.5 -11.5t57.5 -11.5q13 0 34 16t34 33l7 -3q-13 -39 -37 -71.5t-46 -32.5q-16 0 -60.5 11.5t-53.5 11.5q-13 0 -34 -16.5t-36 -34.5l-7 3q14 38 38.5 72t46.5 34z" />
    <glyph glyph-name="Cacute.pl" horiz-adv-x="592" 
d="M340 -10q-121 0 -202.5 73t-81.5 207q0 162 113.5 282t273.5 120q97 0 163 -23l-20 -116h-7q-44 102 -144 102q-117 0 -199 -106t-82 -258q0 -106 53.5 -174.5t133.5 -68.5q104 0 183 95h6l-20 -107q-59 -26 -170 -26zM408 701l-8 3l35 164l75 -33z" />
    <glyph glyph-name="acute.ucpl" 
d="M277 701l-8 3l35 164l75 -33z" />
    <glyph glyph-name="caron.uc" 
d="M268 700l-99 124l5 6l101 -54l133 54l5 -7z" />
    <glyph glyph-name="dotaccent.uc" 
d="M294 817q20 0 34 -14t14 -34t-14 -34t-34 -14t-34 14t-14 34t14 34t34 14z" />
    <glyph glyph-name="space_uni0326" 
d="M187 -125q0 -44 -34.5 -88.5t-81.5 -72.5l-9 5q59 74 81 127q-18 -2 -32 8.5t-14 28.5q0 19 12 31t30 12q21 0 34.5 -14t13.5 -37z" />
    <glyph glyph-name="K.001" horiz-adv-x="575" 
d="M-5 0l1 6l72 47l93 557l-56 47l1 5h218l-1 -5l-72 -47l-93 -557l56 -47l-1 -6h-218zM555 -15q-29 1 -51.5 5.5t-39.5 9t-33.5 18.5t-26 22t-24.5 32.5t-23 37.5t-27 48l-100 182v5l250 265l-56 46l1 6h193l-1 -6l-81 -42l-230 -236l106 -190q52 -90 82.5 -131t61.5 -66z
" />
    <glyph glyph-name="Kcommaaccent.001" horiz-adv-x="575" 
d="M332 -125q0 -44 -34.5 -88.5t-81.5 -72.5l-9 5q59 74 81 127q-18 -2 -32 8.5t-14 28.5q0 19 12 31t30 12q21 0 34.5 -14t13.5 -37zM-5 0l1 6l72 47l93 557l-56 47l1 5h218l-1 -5l-72 -47l-93 -557l56 -47l-1 -6h-218zM555 -15q-29 1 -51.5 5.5t-39.5 9t-33.5 18.5t-26 22
t-24.5 32.5t-23 37.5t-27 48l-100 182v5l250 265l-56 46l1 6h193l-1 -6l-81 -42l-230 -236l106 -190q52 -90 82.5 -131t61.5 -66z" />
    <glyph glyph-name="caron.alt" 
d="M210 507l61 208h71l-121 -208h-11z" />
    <glyph glyph-name="Nacute.pl" horiz-adv-x="660" 
d="M404 701l-8 3l35 164l75 -33zM503 0l-313 522l-76 -465l66 -51l-1 -6h-193l2 6l80 51l87 520q-46 66 -56 80v5h111l304 -515l76 458l-66 52l1 5h191l-1 -5l-80 -52l-99 -605h-33z" />
    <glyph glyph-name="Oacute.pl" horiz-adv-x="668" 
d="M400 701l-8 3l35 164l75 -33zM401 636q-99 0 -171 -111.5t-72 -262.5q0 -107 45.5 -171t108.5 -64q98 0 170.5 111.5t72.5 271.5q0 106 -45 166t-109 60zM61 263q0 164 103 286.5t238 122.5q109 0 180 -74t71 -190q0 -174 -102 -296t-239 -122q-106 0 -178.5 76
t-72.5 197z" />
    <glyph glyph-name="hungarumlaut.uc" 
d="M295 702l-6 8l146 144l41 -55zM140 702l-6 8l146 144l42 -55z" />
    <glyph glyph-name="Q.long" horiz-adv-x="670" 
d="M654 412q0 -143 -75 -257.5t-197 -151.5q190 -103 311.5 -139t239.5 -36q86 0 162 19l3 -8q-35 -22 -103.5 -42.5t-162.5 -20.5q-109 0 -243 45.5t-348 169.5q-38 21 -66.5 43t-56.5 54.5t-42.5 77t-14.5 98.5q0 107 46.5 201.5t125.5 150.5t168 56q110 0 181.5 -73.5
t71.5 -186.5zM158 262q0 -107 45.5 -170.5t108.5 -63.5q100 0 171.5 112.5t71.5 273.5q0 105 -44.5 163t-109.5 58t-121 -51.5t-89 -137.5t-33 -184z" />
    <glyph glyph-name="Sacute.pl" horiz-adv-x="423" 
d="M283 672q81 0 135 -24l-20 -109h-6q-36 99 -111 99q-37 0 -60.5 -23t-23.5 -60q0 -34 18 -69t64 -105q38 -60 53.5 -87.5t30 -65.5t14.5 -70q0 -74 -54 -121t-132 -47q-99 0 -167 49q0 70 22 167h7q9 -88 45.5 -132t93.5 -44q45 0 73 30t28 72q0 40 -19 79.5t-65 107.5
q-53 79 -72.5 121t-19.5 88q0 68 48.5 106t117.5 38zM284 701l-8 3l35 164l75 -33z" />
    <glyph glyph-name="W.001" horiz-adv-x="824" 
d="M781 610l-55 46l1 6h165l-1 -6l-65 -46l-272 -622h-13l-79 507l-239 -507h-14l-79 622l-45 46l1 6h205l-1 -6l-72 -46l51 -436l234 501h14l75 -504z" />
    <glyph glyph-name="Wacute.001" horiz-adv-x="824" 
d="M415 703l-5 9l199 129l32 -69zM781 610l-55 46l1 6h165l-1 -6l-65 -46l-272 -622h-13l-79 507l-239 -507h-14l-79 622l-45 46l1 6h205l-1 -6l-72 -46l51 -436l234 501h14l75 -504z" />
    <glyph glyph-name="Wcircumflex.001" horiz-adv-x="824" 
d="M528 835l99 -124l-5 -6l-101 54l-133 -54l-5 7zM781 610l-55 46l1 6h165l-1 -6l-65 -46l-272 -622h-13l-79 507l-239 -507h-14l-79 622l-45 46l1 6h205l-1 -6l-72 -46l51 -436l234 501h14l75 -504z" />
    <glyph glyph-name="Wdieresis.001" horiz-adv-x="824" 
d="M781 610l-55 46l1 6h165l-1 -6l-65 -46l-272 -622h-13l-79 507l-239 -507h-14l-79 622l-45 46l1 6h205l-1 -6l-72 -46l51 -436l234 501h14l75 -504zM601 813q20 0 33 -13.5t13 -32.5t-13 -32.5t-33 -13.5q-19 0 -32 13.5t-13 32.5t13 32.5t32 13.5zM434 813
q19 0 32 -13.5t13 -32.5t-13 -32.5t-32 -13.5t-32.5 13.5t-13.5 32.5t13.5 32.5t32.5 13.5z" />
    <glyph glyph-name="Wgrave.001" horiz-adv-x="824" 
d="M405 775l39 66l163 -130l-6 -8zM781 610l-55 46l1 6h165l-1 -6l-65 -46l-272 -622h-13l-79 507l-239 -507h-14l-79 622l-45 46l1 6h205l-1 -6l-72 -46l51 -436l234 501h14l75 -504z" />
    <glyph glyph-name="Zacute.pl" horiz-adv-x="559" 
d="M116 38h297l94 113h5l-27 -151h-487l1 9l458 617h-260l-84 -99h-6l23 135h451l-1 -8zM342 701l-8 3l35 164l75 -33z" />
    <glyph glyph-name="acute.pl" 
d="M218 488l-8 3l58 225l68 -28z" />
    <glyph glyph-name="ampersand.uc" horiz-adv-x="640" 
d="M674 421q-67 -32 -109 -78t-92 -133q-4 -7 -13.5 -23.5t-15.5 -24.5q79 -118 184 -175l-1 -6q-131 -3 -201 67q-16 16 -34 40q-45 -55 -87 -78.5t-98 -23.5q-78 0 -129.5 45.5t-51.5 124.5q0 141 192 246q-32 75 -32 122q0 67 42 107.5t101 40.5q49 0 81.5 -26t32.5 -68
q0 -45 -37 -81.5t-103 -75.5q30 -67 73 -144q30 -55 47 -82q9 13 18 30q57 99 92 144l-59 52l1 6h201zM300 237q-42 74 -71 140q-112 -91 -112 -207q0 -60 30 -97t78 -37q79 0 145 82q-35 50 -70 119zM264 561q0 -45 29 -117q82 63 82 130q0 31 -14 48t-36 17
q-24 0 -42.5 -20t-18.5 -58z" />
    <glyph glyph-name="at.uc" horiz-adv-x="800" 
d="M524 149q36 7 73 28.5t72 58t57 94t22 127.5q0 100 -57.5 158.5t-172.5 58.5t-209.5 -61.5t-147.5 -167t-53 -230.5q0 -124 68.5 -198t179.5 -74q159 0 295 97l8 -10q-46 -48 -128.5 -87.5t-181.5 -39.5q-141 0 -224 81t-83 216q0 103 40 198t106 163t154.5 108.5
t182.5 40.5q131 0 209.5 -67t78.5 -178q0 -83 -35 -152.5t-90 -113t-120.5 -66t-129.5 -19.5l30 140q-92 -137 -157 -137q-23 0 -43 26.5t-20 70.5q0 46 18.5 93.5t51.5 90t86.5 71.5t116.5 35l85 36zM346 177q19 0 59 39.5t74 91.5l35 164q-74 -6 -129 -83.5t-55 -170.5
q0 -41 16 -41z" />
    <glyph glyph-name="backslash.uc" horiz-adv-x="308" 
d="M137 752l104 -845l-35 -5l-104 844z" />
    <glyph glyph-name="bar.uc" horiz-adv-x="257" 
d="M111 745h39v-849h-39v849z" />
    <glyph glyph-name="braceleft.uc" horiz-adv-x="280" 
d="M203 237q0 -41 -49.5 -114t-49.5 -112q0 -69 79 -112l-4 -7q-136 50 -136 133q0 30 28 71t56 83t28 76q0 66 -87 66l3 20q118 0 118 73q0 24 -29.5 96t-29.5 98q0 110 191 151l4 -7q-131 -44 -131 -138q0 -27 23 -91.5t23 -89.5q0 -45 -32 -71t-79 -33q28 -7 51 -31.5
t23 -60.5z" />
    <glyph glyph-name="braceright.uc" horiz-adv-x="280" 
d="M120 414q0 27 15.5 58.5t34 56t34 55t15.5 56.5q0 69 -79 112l4 7q136 -50 136 -133q0 -30 -28 -71t-56 -83t-28 -76q0 -66 87 -66l-3 -20q-118 0 -118 -73q0 -24 29.5 -96t29.5 -98q0 -110 -191 -151l-4 7q131 44 131 138q0 27 -23 91.5t-23 89.5q0 45 32 71t79 33
q-28 7 -51 31.5t-23 60.5z" />
    <glyph glyph-name="bracketleft.uc" horiz-adv-x="261" 
d="M317 725h-79l-135 -796h78l-3 -24h-142l143 844h141z" />
    <glyph glyph-name="bracketright.uc" horiz-adv-x="261" 
d="M-19 -71h79l135 796h-78l3 24h142l-143 -844h-141z" />
    <glyph glyph-name="cacute.pl" horiz-adv-x="337" 
d="M253 424q56 0 95 -16l-30 -79h-4q-39 60 -74 60q-46 0 -90.5 -76.5t-44.5 -172.5q0 -48 12.5 -72t31.5 -24q52 0 131 88l9 -6q-28 -56 -72 -96t-96 -40q-41 0 -70.5 37.5t-29.5 100.5q0 117 72 206.5t160 89.5zM232 488l-8 3l58 225l68 -28z" />
    <glyph glyph-name="space_uni0326.alt" 
d="M204 550q0 43 34.5 87.5t81.5 72.5l8 -5q-55 -66 -80 -127q18 2 31.5 -8t13.5 -28q0 -19 -11.5 -31t-30.5 -12q-21 0 -34 14t-13 37z" />
    <glyph glyph-name="divide.lin" horiz-adv-x="424" 
d="M69 279l8 36h327l-7 -36h-328zM162 145q0 19 13 32t32 13q20 0 33.5 -13t13.5 -32q0 -20 -13.5 -33t-33.5 -13q-19 0 -32 13t-13 33zM220 450q0 19 13.5 31.5t32.5 12.5q20 0 33 -12.5t13 -31.5q0 -20 -13 -33t-33 -13q-19 0 -32.5 13t-13.5 33z" />
    <glyph glyph-name="eight.den" horiz-adv-x="230" 
d="M128 295q38 0 60 -16t22 -40q0 -42 -74 -76q52 -55 52 -91q0 -33 -28.5 -55.5t-75.5 -22.5q-43 0 -67 17.5t-24 44.5q0 48 84 84q-45 46 -45 84q0 32 27 51.5t69 19.5zM134 57q0 26 -46 72q-44 -34 -44 -69q0 -16 11 -28t32 -12q22 0 34.5 10.5t12.5 26.5zM84 240
q0 -23 42 -66q35 33 35 61q0 15 -9.5 25.5t-27.5 10.5q-40 0 -40 -31z" />
    <glyph glyph-name="eight.lin" horiz-adv-x="433" 
d="M276 671q75 0 117.5 -36.5t42.5 -87.5q0 -53 -37.5 -95t-109.5 -85q6 -8 24 -31.5t24 -31.5t19 -27t17.5 -29t11.5 -26t9.5 -30.5t2.5 -29.5q0 -76 -56 -124.5t-136 -48.5t-128.5 41.5t-48.5 101.5t42 108t129 96q-37 45 -52.5 67t-28 53t-12.5 64q0 68 51.5 109.5
t118.5 41.5zM315 136q0 43 -20 76t-80 104q-110 -81 -110 -179q0 -47 27 -79t72 -32q49 0 80 32t31 78zM186 546q0 -27 13 -54.5t25 -43.5t50 -63q45 38 67 74.5t22 84.5q0 37 -22.5 64.5t-62.5 27.5q-38 0 -65 -25t-27 -65z" />
    <glyph glyph-name="eight.num" horiz-adv-x="230" 
d="M187 668q40 0 61.5 -16t21.5 -40q0 -43 -75 -76q53 -56 53 -91q0 -33 -28.5 -55.5t-76.5 -22.5q-43 0 -66.5 17.5t-23.5 44.5q0 48 84 84q-46 47 -46 84q0 32 27 51.5t69 19.5zM194 430q0 26 -46 72q-44 -34 -44 -69q0 -16 11 -28t31 -12q23 0 35.5 10.5t12.5 26.5z
M144 613q0 -21 41 -66q35 29 35 61q0 36 -37 36q-39 0 -39 -31z" />
    <glyph glyph-name="eight.sub" horiz-adv-x="230" 
d="M108 190q40 0 61.5 -16t21.5 -40q0 -43 -75 -76q53 -56 53 -91q0 -33 -28.5 -55.5t-76.5 -22.5q-43 0 -66.5 17.5t-23.5 44.5q0 48 84 84q-46 47 -46 84q0 32 27 51.5t69 19.5zM115 -48q0 26 -46 72q-44 -34 -44 -69q0 -16 11 -28t31 -12q23 0 35.5 10.5t12.5 26.5z
M65 135q0 -21 41 -66q35 29 35 61q0 36 -37 36q-39 0 -39 -31z" />
    <glyph glyph-name="eight.sup" horiz-adv-x="230" 
d="M197 721q40 0 61.5 -16t21.5 -40q0 -43 -75 -76q53 -56 53 -91q0 -33 -28.5 -55.5t-76.5 -22.5q-43 0 -66.5 17.5t-23.5 44.5q0 48 84 84q-46 47 -46 84q0 32 27 51.5t69 19.5zM204 483q0 26 -46 72q-44 -34 -44 -69q0 -16 11 -28t31 -12q23 0 35.5 10.5t12.5 26.5z
M154 666q0 -21 41 -66q35 29 35 61q0 36 -37 36q-39 0 -39 -31z" />
    <glyph glyph-name="emdash.uc" horiz-adv-x="666" 
d="M74 290l8 36h567l-8 -36h-567z" />
    <glyph glyph-name="endash.uc" horiz-adv-x="423" 
d="M82 326h324l-8 -36h-324z" />
    <glyph glyph-name="equal.lin" horiz-adv-x="427" 
d="M64 229l7 34h309l-6 -34h-310zM82 320l6 34h310l-7 -34h-309z" />
    <glyph glyph-name="exclamdown.uc" horiz-adv-x="214" 
d="M143 452h12l-48 -452h-93q5 17 56 197.5t73 254.5zM185 568q-22 0 -36.5 14t-14.5 37q0 22 14.5 37t36.5 15q23 0 37.5 -15t14.5 -37q0 -23 -14.5 -37t-37.5 -14z" />
    <glyph glyph-name="f.short" horiz-adv-x="267" 
d="M56 56q8 50 16 103.5t17 115.5t14 95h-77v5l28 36h55q9 58 17 99q15 88 68.5 147.5t130.5 59.5q50 0 96 -17l-33 -63h-1q-52 44 -83 44q-32 0 -56.5 -37.5t-35.5 -100.5l-23 -132h119l-31 -41h-95q-10 -57 -29.5 -182t-28.5 -174q-8 -41 -16 -71t-27 -71t-43 -68
t-65.5 -47.5t-93.5 -22.5l-13 62q58 -6 68 -6q34 0 53 20t34.5 74.5t34.5 171.5z" />
    <glyph glyph-name="f_f.short" horiz-adv-x="480" 
d="M425 543q-11 -52 -24 -132h120l-31 -41h-96q-45 -283 -53 -331q-7 -39 -15 -70t-27 -71.5t-43.5 -68t-65 -48t-92.5 -22.5l-12 60h1q32 -4 64 -4t51.5 20t37 77.5t34.5 169.5q34 228 43 288h-135q-9 -55 -28 -182t-28 -174q-7 -39 -15.5 -70.5t-27 -71.5t-43.5 -67.5
t-67 -48t-94 -22.5l-12 62q58 -6 67 -6q35 0 54.5 20t34.5 74t34 172q8 51 16 104.5t17 115t14 94.5h-78v5l27 36h57q8 56 13 84q16 87 72.5 147t145.5 60q52 0 98 -16q46 31 99 31q51 0 97 -17l-33 -63h-1q-54 44 -83 44q-32 0 -57 -37.5t-36 -100.5zM189 411h134
q10 66 17 99q12 79 56 135q-40 21 -76 21q-85 0 -111 -138z" />
    <glyph glyph-name="five.den" horiz-adv-x="196" 
d="M190 289l-26 -50h-94l-15 -34q48 -11 76.5 -35t28.5 -54q0 -42 -45 -76.5t-130 -48.5l-3 8q54 24 84 50t30 48q0 39 -81 58q0 6 55 134h120z" />
    <glyph glyph-name="five.num" horiz-adv-x="196" 
d="M249 662l-26 -50h-94l-15 -34q48 -11 76.5 -35t28.5 -54q0 -42 -45 -76.5t-130 -48.5l-3 8q54 24 84 50t30 48q0 39 -81 58q0 6 55 134h120z" />
    <glyph glyph-name="five.lin" horiz-adv-x="374" 
d="M391 662l-41 -74h-168l-38 -93q84 -32 141.5 -88.5t57.5 -128.5q0 -93 -89 -170t-249 -128l-4 10q128 76 189.5 140.5t61.5 127.5q0 55 -49 99t-117 69l91 236h214z" />
    <glyph glyph-name="five.sub" horiz-adv-x="196" 
d="M170 184l-26 -50h-94l-15 -34q48 -11 76.5 -35t28.5 -54q0 -42 -45 -76.5t-130 -48.5l-3 8q54 24 84 50t30 48q0 39 -81 58q0 6 55 134h120z" />
    <glyph glyph-name="five.sup" horiz-adv-x="196" 
d="M259 715l-26 -50h-94l-15 -34q48 -11 76.5 -35t28.5 -54q0 -42 -45 -76.5t-130 -48.5l-3 8q54 24 84 50t30 48q0 39 -81 58q0 6 55 134h120z" />
    <glyph glyph-name="four.den" horiz-adv-x="244" 
d="M181 3l-1 -3h-118l1 3l35 26l9 46h-119l1 8l173 207h44l-34 -178h50l-23 -37h-34l-9 -46zM114 112l21 111l-93 -111h72z" />
    <glyph glyph-name="four.lin" horiz-adv-x="469" 
d="M381 6l-1 -6h-215l1 6l72 47l23 141h-248l1 8l391 468h23l-70 -415h108l-40 -61h-78l-23 -141zM271 255l41 247l-207 -247h166z" />
    <glyph glyph-name="four.num" horiz-adv-x="244" 
d="M240 376l-1 -3h-117l1 3l35 26l9 46h-119l1 8l173 207h44l-35 -178h51l-24 -37h-34l-9 -46zM174 485l21 111l-94 -111h73z" />
    <glyph glyph-name="four.sub" horiz-adv-x="244" 
d="M161 -102l-1 -3h-117l1 3l35 26l9 46h-119l1 8l173 207h44l-35 -178h51l-24 -37h-34l-9 -46zM95 7l21 111l-94 -111h73z" />
    <glyph glyph-name="four.sup" horiz-adv-x="244" 
d="M250 429l-1 -3h-117l1 3l35 26l9 46h-119l1 8l173 207h44l-35 -178h51l-24 -37h-34l-9 -46zM184 538l21 111l-94 -111h73z" />
    <glyph glyph-name="greater.lin" horiz-adv-x="394" 
d="M379 316l-7 -36l-320 -131l8 40l273 110l-232 110l7 36z" />
    <glyph glyph-name="guillemotleft.uc" horiz-adv-x="370" 
d="M292 127l-104 164v1l166 156l7 -6l-105 -158l45 -154zM154 127l-104 164v1l165 156l7 -6l-105 -158l45 -154z" />
    <glyph glyph-name="guillemotright.uc" horiz-adv-x="370" 
d="M104 448l104 -164v-1l-166 -156l-7 6l105 158l-45 154zM242 448l104 -164v-1l-165 -156l-7 6l105 158l-45 154z" />
    <glyph glyph-name="guilsinglleft.uc" horiz-adv-x="232" 
d="M50 291l1 1l164 156l7 -6l-100 -158l40 -154l-8 -3z" />
    <glyph glyph-name="guilsinglright.uc" horiz-adv-x="232" 
d="M207 284l-1 -1l-164 -156l-7 6l100 158l-40 154l8 3z" />
    <glyph glyph-name="hyphen.uc" horiz-adv-x="255" 
d="M85 338h155l-13 -65h-156z" />
    <glyph glyph-name="idotaccent" horiz-adv-x="224" 
d="M99 347l-55 28v7q67 24 148 45l-70 -371l60 -32v-5q-73 -19 -151 -27zM176 629q19 0 32.5 -13.5t13.5 -32.5t-13.5 -32.5t-32.5 -13.5t-32.5 13.5t-13.5 32.5t13.5 32.5t32.5 13.5z" />
    <glyph glyph-name="less.lin" horiz-adv-x="394" 
d="M64 277l8 37l319 131l-7 -39l-274 -112l233 -110l-8 -35z" />
    <glyph glyph-name="minus.lin" horiz-adv-x="406" 
d="M67 279l7 36h310l-6 -36h-311z" />
    <glyph glyph-name="multiply.lin" horiz-adv-x="363" 
d="M178 297l-87 131l32 23l83 -127l133 127l24 -26l-137 -131l88 -134l-31 -20l-86 127l-133 -127l-24 25z" />
    <glyph glyph-name="nacute.pl" horiz-adv-x="453" 
d="M267 488l-8 3l58 225l68 -28zM27 0l71 347l-54 28v7q60 22 151 45l-34 -162q131 159 212 159q23 0 35 -11t10 -28q0 -27 -71 -329l58 -30v-7q-67 -18 -151 -27q77 344 77 351q0 10 -12 10q-21 0 -66.5 -36t-101.5 -97l-46 -220h-78z" />
    <glyph glyph-name="nine.den" horiz-adv-x="251" 
d="M17 -1q146 84 146 208q0 29 -9.5 46.5t-22.5 17.5q-19 0 -36 -20.5t-17 -50.5q0 -20 12 -32.5t32 -12.5q7 0 13 2l3 -4q-5 -10 -21.5 -20.5t-36.5 -10.5q-28 0 -45 20t-17 51q0 42 34 72t79 30q42 0 67.5 -27.5t25.5 -74.5q0 -78 -60.5 -131t-142.5 -71z" />
    <glyph glyph-name="nine.num" horiz-adv-x="251" 
d="M76 372q146 84 146 208q0 29 -9.5 46.5t-22.5 17.5q-19 0 -36 -20.5t-17 -50.5q0 -20 12 -32.5t32 -12.5q7 0 13 2l3 -4q-5 -10 -21.5 -20.5t-36.5 -10.5q-28 0 -45 20t-17 51q0 42 34 72t79 30q42 0 67.5 -27.5t25.5 -74.5q0 -78 -60.5 -131t-142.5 -71z" />
    <glyph glyph-name="nine.lin" horiz-adv-x="478" 
d="M45 0q63 31 117.5 73t104 99.5t78 133.5t28.5 161q0 78 -25 125t-62 47q-42 0 -80 -51.5t-38 -122.5q0 -57 27.5 -90.5t74.5 -33.5q28 0 49 8l2 -5q-12 -15 -42 -31.5t-71 -16.5q-61 0 -96.5 44.5t-35.5 112.5q0 91 65.5 156t144.5 65q78 0 129.5 -61t51.5 -157
q0 -94 -40.5 -177.5t-104.5 -140t-134.5 -93.5t-139.5 -53z" />
    <glyph glyph-name="nine.sub" horiz-adv-x="251" 
d="M-3 -106q146 84 146 208q0 29 -9.5 46.5t-22.5 17.5q-19 0 -36 -20.5t-17 -50.5q0 -20 12 -32.5t32 -12.5q7 0 13 2l3 -4q-5 -10 -21.5 -20.5t-36.5 -10.5q-28 0 -45 20t-17 51q0 42 34 72t79 30q42 0 67.5 -27.5t25.5 -74.5q0 -78 -60.5 -131t-142.5 -71z" />
    <glyph glyph-name="nine.sup" horiz-adv-x="251" 
d="M86 425q146 84 146 208q0 29 -9.5 46.5t-22.5 17.5q-19 0 -36 -20.5t-17 -50.5q0 -20 12 -32.5t32 -12.5q7 0 13 2l3 -4q-5 -10 -21.5 -20.5t-36.5 -10.5q-28 0 -45 20t-17 51q0 42 34 72t79 30q42 0 67.5 -27.5t25.5 -74.5q0 -78 -60.5 -131t-142.5 -71z" />
    <glyph glyph-name="oacute.pl" horiz-adv-x="406" 
d="M167 -10q-63 0 -104 45.5t-41 116.5q0 107 68 189.5t153 82.5q59 0 100.5 -45t41.5 -113q0 -117 -68.5 -196.5t-149.5 -79.5zM171 22q47 0 88 76t41 178q0 56 -16 86t-43 30q-49 0 -90.5 -79t-41.5 -171q0 -120 62 -120zM223 488l-8 3l58 225l68 -28z" />
    <glyph glyph-name="one.den" horiz-adv-x="159" 
d="M-18 0v4l38 25l41 209l-31 18v4q56 19 100 37l-51 -268l26 -25l-1 -4h-122z" />
    <glyph glyph-name="one.num" horiz-adv-x="159" 
d="M41 373v4l38 25l41 209l-31 18v4q56 19 100 37l-51 -268l26 -25l-1 -4h-122z" />
    <glyph glyph-name="one.lin" horiz-adv-x="285" 
d="M-5 0l1 6l76 47l88 527l-66 26l1 6q15 7 170 62l-103 -621l60 -47l-1 -6h-226z" />
    <glyph glyph-name="one.sub" horiz-adv-x="159" 
d="M-38 -105v4l38 25l41 209l-31 18v4q56 19 100 37l-51 -268l26 -25l-1 -4h-122z" />
    <glyph glyph-name="one.sup" horiz-adv-x="159" 
d="M51 426v4l38 25l41 209l-31 18v4q56 19 100 37l-51 -268l26 -25l-1 -4h-122z" />
    <glyph glyph-name="two.den" horiz-adv-x="222" 
d="M155 0h-178l1 11q86 86 117 128t31 73q0 20 -12 30.5t-31 10.5q-27 0 -50 -18l-5 4q27 56 89 56q32 0 52 -19.5t20 -51.5q0 -40 -34 -77.5t-113 -97.5h144z" />
    <glyph glyph-name="three.den" horiz-adv-x="194" 
d="M26 151q76 44 76 75t-35 31q-15 0 -38 -14l-5 4q28 48 80 48q26 0 40.5 -13.5t14.5 -35.5q0 -42 -65 -68q31 -2 49.5 -18t18.5 -44q0 -44 -44 -78t-137 -45l-2 7q118 49 118 104q0 40 -50 40q-9 0 -19 -2z" />
    <glyph glyph-name="parenleft.uc" horiz-adv-x="315" 
d="M372 760l7 -5q-48 -59 -80.5 -106.5t-68.5 -116.5t-55 -149.5t-19 -169.5q0 -157 61 -314l-9 -4q-32 48 -54 88t-43.5 113t-21.5 148q0 84 26 165t69.5 146t89.5 114.5t98 90.5z" />
    <glyph glyph-name="parenright.uc" horiz-adv-x="315" 
d="M-26 -105l-7 5q48 59 80.5 106.5t68.5 116.5t55 149.5t19 169.5q0 157 -61 314l9 4q32 -48 54 -88t43.5 -113t21.5 -148q0 -84 -26 -165t-69.5 -146t-89.5 -114.5t-98 -90.5z" />
    <glyph glyph-name="plus.lin" horiz-adv-x="438" 
d="M75 315h149l32 171h43l-32 -171h150l-7 -36h-150l-32 -175h-42l32 175h-150z" />
    <glyph glyph-name="questiondown.uc" horiz-adv-x="301" 
d="M81 240q4 3 35 29t45 40q29 26 40 67q5 21 15 76h10q13 -72 13 -113q0 -22 -8 -37.5t-31 -38.5l-70 -71q-52 -52 -52 -101q0 -31 14.5 -48.5t38.5 -17.5q11 0 23 5t20.5 10.5t21 16.5t17.5 16.5t16 18.5l11 12h7l-21 -104q-27 -10 -91 -10t-99.5 27t-35.5 78q0 69 81 145
zM243 568q-22 0 -37 14t-15 37q0 22 15 37t37 15q23 0 37 -15t14 -37q0 -23 -14 -37t-37 -14z" />
    <glyph glyph-name="sacute.pl" horiz-adv-x="285" 
d="M179 425q38 0 92 -16l-20 -77h-5q-32 62 -71 62q-16 0 -28 -11t-12 -30q0 -22 19 -59l63 -115q22 -41 22 -82q0 -40 -34 -73.5t-91 -33.5q-27 0 -58.5 9t-48.5 19q5 55 17 121h6q23 -114 86 -114q25 0 38.5 14.5t13.5 34.5q0 23 -22 66q-23 44 -60 110q-20 39 -20 74
q0 41 30.5 71t82.5 30zM178 488l-8 3l58 225l68 -28z" />
    <glyph glyph-name="seven.den" horiz-adv-x="214" 
d="M48 289h169v-4l-162 -284h-35l136 238h-137z" />
    <glyph glyph-name="seven.num" horiz-adv-x="214" 
d="M107 662h169v-4l-162 -284h-35l136 238h-137z" />
    <glyph glyph-name="seven.lin" horiz-adv-x="419" 
d="M117 662h342l-1 -5l-335 -657h-50l301 589h-298z" />
    <glyph glyph-name="seven.sub" horiz-adv-x="214" 
d="M28 184h169v-4l-162 -284h-35l136 238h-137z" />
    <glyph glyph-name="seven.sup" horiz-adv-x="214" 
d="M117 715h169v-4l-162 -284h-35l136 238h-137z" />
    <glyph glyph-name="six.den" horiz-adv-x="248" 
d="M225 290q-158 -81 -158 -211q0 -28 10 -44t23 -16q19 0 36 21t17 52q0 44 -41 44q-7 0 -16 -3l-2 5q29 29 60 29q26 0 42.5 -18t16.5 -49q0 -46 -36 -76t-79 -30q-37 0 -64.5 27t-27.5 70q0 78 66 134t150 72z" />
    <glyph glyph-name="six.num" horiz-adv-x="248" 
d="M284 663q-158 -81 -158 -211q0 -28 10 -44t23 -16q19 0 36 21t17 52q0 44 -41 44q-7 0 -16 -3l-2 5q29 29 60 29q26 0 42.5 -18t16.5 -49q0 -46 -36 -76t-79 -30q-37 0 -64.5 27t-27.5 70q0 78 66 134t150 72z" />
    <glyph glyph-name="six.lin" horiz-adv-x="479" 
d="M495 666q-68 -30 -127.5 -74t-110 -103t-80 -136t-29.5 -162q0 -73 22.5 -118t54.5 -45q45 0 86.5 55.5t41.5 128.5q0 57 -26.5 85.5t-70.5 28.5q-31 0 -54 -10l-2 5q50 50 119 50q58 0 92 -38t34 -106q0 -97 -69.5 -165.5t-150.5 -68.5q-74 0 -122.5 59t-48.5 149
q0 94 41.5 178.5t107.5 143t140.5 97.5t148.5 55z" />
    <glyph glyph-name="six.sub" horiz-adv-x="248" 
d="M205 185q-158 -81 -158 -211q0 -28 10 -44t23 -16q19 0 36 21t17 52q0 44 -41 44q-7 0 -16 -3l-2 5q29 29 60 29q26 0 42.5 -18t16.5 -49q0 -46 -36 -76t-79 -30q-37 0 -64.5 27t-27.5 70q0 78 66 134t150 72z" />
    <glyph glyph-name="six.sup" horiz-adv-x="248" 
d="M294 716q-158 -81 -158 -211q0 -28 10 -44t23 -16q19 0 36 21t17 52q0 44 -41 44q-7 0 -16 -3l-2 5q29 29 60 29q26 0 42.5 -18t16.5 -49q0 -46 -36 -76t-79 -30q-37 0 -64.5 27t-27.5 70q0 78 66 134t150 72z" />
    <glyph glyph-name="slash.uc" horiz-adv-x="348" 
d="M418 739l-416 -843l-33 15l416 843z" />
    <glyph glyph-name="three.lin" horiz-adv-x="373" 
d="M103 357q77 53 115.5 96t38.5 91q0 33 -18 52t-51 19q-52 0 -90 -35l-7 5q52 87 142 87q52 0 82.5 -28t30.5 -79q0 -90 -142 -159q62 -2 103 -38t41 -100q0 -102 -104 -177t-253 -106l-3 10q114 51 189 117.5t75 145.5q0 46 -27.5 70t-74.5 24q-23 0 -43 -4z" />
    <glyph glyph-name="three.num" horiz-adv-x="194" 
d="M85 524q38 22 57.5 39.5t19.5 35.5q0 31 -35 31q-15 0 -38 -14l-5 4q28 48 79 48q26 0 41 -13.5t15 -35.5q0 -41 -66 -68q31 -2 50 -18t19 -44q0 -44 -44 -78t-137 -45l-3 7q118 49 118 104q0 40 -50 40q-9 0 -19 -2z" />
    <glyph glyph-name="three.sub" horiz-adv-x="194" 
d="M6 46q38 22 57.5 39.5t19.5 35.5q0 31 -35 31q-15 0 -38 -14l-5 4q28 48 79 48q26 0 41 -13.5t15 -35.5q0 -41 -66 -68q31 -2 50 -18t19 -44q0 -44 -44 -78t-137 -45l-3 7q118 49 118 104q0 40 -50 40q-9 0 -19 -2z" />
    <glyph glyph-name="three.sup" horiz-adv-x="194" 
d="M95 577q38 22 57.5 39.5t19.5 35.5q0 31 -35 31q-15 0 -38 -14l-5 4q28 48 79 48q26 0 41 -13.5t15 -35.5q0 -41 -66 -68q31 -2 50 -18t19 -44q0 -44 -44 -78t-137 -45l-3 7q118 49 118 104q0 40 -50 40q-9 0 -19 -2z" />
    <glyph glyph-name="two.lin" horiz-adv-x="422" 
d="M383 168h6l-29 -168h-375l2 12q200 233 260.5 327.5t60.5 168.5q0 48 -25.5 75t-67.5 27q-63 0 -109 -46l-6 4q52 104 162 104q66 0 105 -40.5t39 -106.5q0 -30 -6 -57t-26.5 -61t-34.5 -55t-57.5 -68t-65.5 -69.5t-87 -86.5l-47 -47h234z" />
    <glyph glyph-name="two.num" horiz-adv-x="222" 
d="M214 373h-177l1 11q88 90 118 130t30 71q0 41 -44 41q-26 0 -49 -18l-5 4q27 56 89 56q32 0 51.5 -19.5t19.5 -51.5q0 -40 -34 -77.5t-112 -97.5h144z" />
    <glyph glyph-name="two.sub" horiz-adv-x="222" 
d="M135 -105h-177l1 11q88 90 118 130t30 71q0 41 -44 41q-26 0 -49 -18l-5 4q27 56 89 56q32 0 51.5 -19.5t19.5 -51.5q0 -40 -34 -77.5t-112 -97.5h144z" />
    <glyph glyph-name="two.sup" horiz-adv-x="222" 
d="M224 426h-177l1 11q88 90 118 130t30 71q0 41 -44 41q-26 0 -49 -18l-5 4q27 56 89 56q32 0 51.5 -19.5t19.5 -51.5q0 -40 -34 -77.5t-112 -97.5h144z" />
    <glyph glyph-name="zacute.pl" horiz-adv-x="354" 
d="M-15 7l285 348h-66q-82 0 -149 -10l-3 4l59 72l256 -9l-1 -6l-287 -343h54q113 0 180 19l4 -4l-62 -83l-271 5zM219 488l-8 3l58 225l68 -28z" />
    <glyph glyph-name="zero.den" horiz-adv-x="286" 
d="M10 112q0 73 47.5 128t104.5 55q42 0 68.5 -33t26.5 -85q0 -72 -46.5 -127.5t-103.5 -55.5q-43 0 -70 32.5t-27 85.5zM161 269q-29 0 -58.5 -51.5t-29.5 -114.5q0 -37 10.5 -59t25.5 -22q30 0 58 52.5t28 117.5q0 35 -9.5 56t-24.5 21z" />
    <glyph glyph-name="zero.num" horiz-adv-x="286" 
d="M69 485q0 73 47.5 128t104.5 55q42 0 68.5 -33t26.5 -85q0 -72 -46.5 -127.5t-103.5 -55.5q-43 0 -70 32.5t-27 85.5zM220 642q-29 0 -58.5 -51.5t-29.5 -114.5q0 -37 10.5 -59t25.5 -22q30 0 58 52.5t28 117.5q0 35 -9.5 56t-24.5 21z" />
    <glyph glyph-name="zero.lin" horiz-adv-x="553" 
d="M59 243q0 110 43.5 210.5t111.5 160t137 59.5q83 0 134 -73t51 -180q0 -168 -91 -299t-198 -131q-83 0 -135.5 73t-52.5 180zM351 635q-45 0 -90.5 -56.5t-75.5 -149.5t-30 -190q0 -99 25 -154.5t67 -55.5q45 0 90 55t75 149t30 195q0 96 -24.5 151.5t-66.5 55.5z" />
    <glyph glyph-name="zero.sub" horiz-adv-x="286" 
d="M-10 7q0 73 47.5 128t104.5 55q42 0 68.5 -33t26.5 -85q0 -72 -46.5 -127.5t-103.5 -55.5q-43 0 -70 32.5t-27 85.5zM141 164q-29 0 -58.5 -51.5t-29.5 -114.5q0 -37 10.5 -59t25.5 -22q30 0 58 52.5t28 117.5q0 35 -9.5 56t-24.5 21z" />
    <glyph glyph-name="zero.sup" horiz-adv-x="286" 
d="M79 538q0 73 47.5 128t104.5 55q42 0 68.5 -33t26.5 -85q0 -72 -46.5 -127.5t-103.5 -55.5q-43 0 -70 32.5t-27 85.5zM230 695q-29 0 -58.5 -51.5t-29.5 -114.5q0 -37 10.5 -59t25.5 -22q30 0 58 52.5t28 117.5q0 35 -9.5 56t-24.5 21z" />
    </font>
</defs>
</svg>
