<?xml version="1.0" standalone="no"?>
<!DOCTYPE svg PUBLIC "-//W3C//DTD SVG 1.1//EN" "http://www.w3.org/Graphics/SVG/1.1/DTD/svg11.dtd" >
<svg xmlns="http://www.w3.org/2000/svg" xmlns:xlink="http://www.w3.org/1999/xlink" version="1.1">
<metadata>
Created by FontForge 20170731 at Mon Jun 30 19:55:10 2014
 By Aleksey,,,
2011 published by FontShop International GmbH
</metadata>
<defs>
<font id="SeroOT-MediumItalic" horiz-adv-x="1000" >
  <font-face 
    font-family="SeroOT-MediumItalic"
    font-weight="500"
    font-style="italic"
    font-stretch="normal"
    units-per-em="1000"
    panose-1="2 11 6 4 2 1 1 2 1 2"
    ascent="778"
    descent="-222"
    x-height="510"
    cap-height="720"
    bbox="-447 -251 2776 914"
    underline-thickness="89"
    underline-position="-277"
    slope="-10"
    unicode-range="U+000D-1F4AC"
  />
<missing-glyph horiz-adv-x="500" 
d="M-45 0l127 720h500l-127 -720h-500zM159 626l-93 -532h312l93 532h-312z" />
    <glyph glyph-name="f_b" unicode="fb" horiz-adv-x="902" 
d="M48 414l17 96h86l13 74q13 71 52.5 106.5t119.5 35.5q34 0 70 -6l-17 -94q-16 5 -35 5q-34 0 -49 -16.5t-21 -53.5l-9 -51h94l-17 -96h-94l-73 -414h-124l73 414h-86zM473 720h124l-48 -269q65 71 149 71q77 0 124.5 -56t47.5 -162q0 -132 -71.5 -224t-182.5 -92
q-83 0 -141 69l-10 -57h-119zM652 416q-61 0 -119 -59l-40 -224q49 -46 103 -46q69 0 109.5 58t40.5 143q0 128 -94 128z" />
    <glyph glyph-name="f_f" unicode="ff" horiz-adv-x="645" 
d="M48 414l17 96h86l13 74q13 71 52.5 106.5t120.5 35.5q35 0 73 -6l-17 -94q-19 5 -38 5q-34 0 -49.5 -16.5t-21.5 -53.5l-9 -51h179l13 74q13 71 52.5 106.5t120.5 35.5q36 0 73 -6l-17 -94q-19 5 -38 5q-34 0 -49.5 -16.5t-21.5 -53.5l-9 -51h98l-17 -96h-98l-73 -414
h-124l73 414h-179l-73 -414h-124l73 414h-86z" />
    <glyph glyph-name="f_f_i" unicode="ffi" horiz-adv-x="899" 
d="M258 414l-73 -414h-124l73 414h-86l17 96h86l13 74q13 71 52.5 106.5t120.5 35.5q35 0 73 -6l-17 -94q-19 5 -38 5q-34 0 -49.5 -16.5t-21.5 -53.5l-9 -51h179l13 74q13 71 52.5 106.5t119.5 35.5q34 0 70 -6l-17 -94q-16 5 -35 5q-34 0 -49 -16.5t-21 -53.5l-9 -51h94
l-17 -96h-94l-73 -414h-124l73 414h-179zM655 0l90 510h124l-90 -510h-124zM831 583q-33 0 -53 19.5t-20 49.5t20 49.5t53 19.5t53 -19.5t20 -49.5t-20 -49.5t-53 -19.5z" />
    <glyph glyph-name="f_f_l" unicode="ffl" horiz-adv-x="899" 
d="M258 414l-73 -414h-124l73 414h-86l17 96h86l13 74q13 71 52.5 106.5t120.5 35.5q35 0 73 -6l-17 -94q-19 5 -38 5q-34 0 -49.5 -16.5t-21.5 -53.5l-9 -51h179l13 74q13 71 52.5 106.5t119.5 35.5q34 0 70 -6l-17 -94q-16 5 -35 5q-34 0 -49 -16.5t-21 -53.5l-9 -51h94
l-17 -96h-94l-73 -414h-124l73 414h-179zM655 0l127 720h124l-127 -720h-124z" />
    <glyph glyph-name="f_h" unicode="fh" horiz-adv-x="895" 
d="M48 414l17 96h86l13 74q13 71 52.5 106.5t119.5 35.5q34 0 70 -6l-17 -94q-16 5 -35 5q-34 0 -49 -16.5t-21 -53.5l-9 -51h94l-17 -96h-94l-73 -414h-124l73 414h-86zM346 0l127 720h124l-50 -283q85 85 182 85q54 0 91 -28.5t37 -92.5q0 -23 -5 -50l-62 -351h-124
l60 340q2 12 2 20q0 54 -58 54q-64 0 -140 -72l-60 -342h-124z" />
    <glyph glyph-name="f_i" unicode="fi" horiz-adv-x="595" 
d="M48 414l17 96h86l13 74q13 71 52.5 106.5t119.5 35.5q34 0 70 -6l-17 -94q-16 5 -35 5q-34 0 -49 -16.5t-21 -53.5l-9 -51h94l-17 -96h-94l-73 -414h-124l73 414h-86zM351 0l90 510h124l-90 -510h-124zM527 583q-33 0 -53 19.5t-20 49.5t20 49.5t53 19.5t53 -19.5
t20 -49.5t-20 -49.5t-53 -19.5z" />
    <glyph glyph-name="f_j" unicode="fj" horiz-adv-x="596" 
d="M48 414l17 96h86l13 74q13 71 52.5 106.5t119.5 35.5q34 0 70 -6l-17 -94q-16 5 -35 5q-34 0 -49 -16.5t-21 -53.5l-9 -51h94l-17 -96h-94l-73 -414h-124l73 414h-86zM566 510l-103 -584q-13 -71 -52.5 -106.5t-120.5 -35.5q-36 0 -73 6l17 94q19 -5 38 -5
q34 0 49.5 16.5t21.5 53.5l99 561h124zM528 583q-33 0 -53 19.5t-20 49.5t20 49.5t53 19.5t53 -19.5t20 -49.5t-20 -49.5t-53 -19.5z" />
    <glyph glyph-name="f_k" unicode="fk" horiz-adv-x="868" 
d="M48 414l17 96h86l13 74q13 71 52.5 106.5t119.5 35.5q34 0 70 -6l-17 -94q-16 5 -35 5q-34 0 -49 -16.5t-21 -53.5l-9 -51h94l-17 -96h-94l-73 -414h-124l73 414h-86zM680 0l-104 239l-78 -70l-29 -169h-124l127 720h124l-74 -421l210 211h144l-215 -196l141 -314h-122z
" />
    <glyph glyph-name="f_l" unicode="fl" horiz-adv-x="596" 
d="M48 414l17 96h86l13 74q13 71 52.5 106.5t119.5 35.5q34 0 70 -6l-17 -94q-16 5 -35 5q-34 0 -49 -16.5t-21 -53.5l-9 -51h94l-17 -96h-94l-73 -414h-124l73 414h-86zM352 0l127 720h124l-127 -720h-124z" />
    <glyph glyph-name="f_t" unicode="ft" horiz-adv-x="677" 
d="M258 414l-73 -414h-124l73 414h-86l17 96h86l13 74q13 71 52.5 106.5t120.5 35.5q35 0 73 -6l-17 -94q-19 5 -38 5q-34 0 -49.5 -16.5t-21.5 -53.5l-9 -51h179l30 170h124l-30 -170h111l-17 -96h-111l-45 -256q-3 -16 -3 -27q0 -39 47 -39q25 0 57 10l-17 -98
q-45 -10 -87 -10q-61 0 -93.5 24t-32.5 87q0 28 10 82l40 227h-179z" />
    <glyph glyph-name=".notdef" horiz-adv-x="500" 
d="M-45 0l127 720h500l-127 -720h-500zM159 626l-93 -532h312l93 532h-312z" />
    <glyph glyph-name=".null" horiz-adv-x="0" 
 />
    <glyph glyph-name="nonmarkingreturn" horiz-adv-x="333" 
 />
    <glyph glyph-name="CR" unicode="&#xd;" horiz-adv-x="220" 
 />
    <glyph glyph-name="space" unicode=" " horiz-adv-x="220" 
 />
    <glyph glyph-name="exclam" unicode="!" horiz-adv-x="328" 
d="M131 -12q-33 0 -53.5 20.5t-20.5 50.5t20.5 50.5t53.5 20.5t53.5 -20.5t20.5 -50.5t-20.5 -50.5t-53.5 -20.5zM109 214l66 506h143l-112 -506h-97z" />
    <glyph glyph-name="quotedbl" unicode="&#x22;" horiz-adv-x="428" 
d="M295 445l40 275h103l-56 -275h-87zM112 445l40 275h103l-56 -275h-87z" />
    <glyph glyph-name="numbersign" unicode="#" horiz-adv-x="572" 
d="M230 0l77 198h-123l-77 -198h-101l77 198h-80l16 89h99l41 106h-87l16 89h106l77 198h101l-77 -198h123l77 198h101l-77 -198h80l-16 -89h-99l-41 -106h87l-16 -89h-106l-77 -198h-101zM260 393l-41 -106h123l41 106h-123z" />
    <glyph glyph-name="dollar" unicode="$" horiz-adv-x="562" 
d="M182 -100l18 101q-107 9 -194 59l50 99q96 -55 184 -55q68 0 111 30t43 76q0 36 -30.5 61.5t-73.5 42.5t-86.5 37.5t-74 60t-30.5 96.5q0 86 63 143.5t163 66.5l15 82h79l-15 -82q89 -10 165 -57l-50 -103q-85 54 -163 54q-58 0 -95.5 -26.5t-37.5 -65.5q0 -33 30.5 -56
t73.5 -39.5t86.5 -37.5t74 -61.5t30.5 -99.5q0 -90 -66 -151.5t-173 -72.5l-18 -102h-79z" />
    <glyph glyph-name="percent" unicode="%" horiz-adv-x="791" 
d="M74 0l568 720h112l-568 -720h-112zM561 65q39 0 60 34.5t21 80.5q0 77 -58 77q-39 0 -60 -34.5t-21 -80.5q0 -77 58 -77zM560 -6q-68 0 -108.5 42t-40.5 110q0 76 48.5 129.5t125.5 53.5q68 0 108.5 -42t40.5 -110q0 -76 -48.5 -129.5t-125.5 -53.5zM244 462
q39 0 60 34.5t21 80.5q0 77 -58 77q-39 0 -60 -34.5t-21 -80.5q0 -77 58 -77zM243 391q-68 0 -108.5 42t-40.5 110q0 76 48.5 129.5t125.5 53.5q68 0 108.5 -42t40.5 -110q0 -76 -48.5 -129.5t-125.5 -53.5z" />
    <glyph glyph-name="ampersand" unicode="&#x26;" horiz-adv-x="617" 
d="M145 513q0 79 61.5 129t159.5 50q90 0 141 -42.5t51 -107.5q0 -37 -16.5 -67t-52 -54t-64 -38t-79.5 -35l91 -143q42 44 88 111l74 -61q-58 -79 -108 -129l64 -96l-93 -66l-57 89q-94 -65 -197 -65q-91 0 -146.5 46.5t-55.5 127.5q0 41 15 75.5t44 60t60.5 43.5t73.5 36
q-20 32 -28 45t-17 39t-9 52zM229 81q63 0 128 46l-111 176q-56 -27 -86.5 -57.5t-30.5 -74.5q0 -40 26.5 -65t73.5 -25zM260 510q0 -15 6.5 -33t12.5 -27t22 -35q30 12 47 19t39.5 18.5t34 22t20 25t8.5 30.5q0 29 -22.5 49.5t-62.5 20.5q-45 0 -75 -25t-30 -65z" />
    <glyph glyph-name="quotesingle" unicode="'" horiz-adv-x="244" 
d="M112 445l40 275h103l-56 -275h-87z" />
    <glyph glyph-name="parenleft" unicode="(" horiz-adv-x="369" 
d="M157 208q0 -200 121 -344l-73 -50q-172 169 -172 393q0 80 22 153t53 125.5t79.5 104t86.5 82.5t90 67l51 -72q-56 -41 -98 -82.5t-80.5 -97.5t-59 -126.5t-20.5 -152.5z" />
    <glyph glyph-name="parenright" unicode=")" horiz-adv-x="369" 
d="M219 345q0 200 -121 344l73 50q172 -169 172 -393q0 -80 -22 -153t-53 -125.5t-79.5 -104t-86.5 -82.5t-90 -67l-51 72q56 41 98 82.5t80.5 97.5t59 126.5t20.5 152.5z" />
    <glyph glyph-name="asterisk" unicode="*" horiz-adv-x="430" 
d="M262 487l-59 -118l-63 37l73 109l-132 -8v74l132 -7l-73 108l63 38l59 -118l59 118l63 -38l-73 -108l132 7v-74l-132 8l73 -109l-63 -37z" />
    <glyph glyph-name="plus" unicode="+" horiz-adv-x="572" 
d="M291 0h-100l36 205h-194l18 100h194l36 205h100l-36 -205h194l-18 -100h-194z" />
    <glyph glyph-name="comma" unicode="," horiz-adv-x="292" 
d="M104 140q39 0 64 -28t25 -77q0 -123 -180 -209l-46 62q104 47 131 109q-32 2 -50.5 21.5t-18.5 48.5q0 31 20.5 52t54.5 21z" />
    <glyph glyph-name="hyphen" unicode="-" horiz-adv-x="406" 
d="M57 267l16 89h296l-16 -89h-296z" />
    <glyph glyph-name="period" unicode="." horiz-adv-x="292" 
d="M187 64q0 -33 -21.5 -54.5t-55.5 -21.5t-55.5 21.5t-21.5 54.5t21.5 54.5t55.5 21.5t55.5 -21.5t21.5 -54.5z" />
    <glyph glyph-name="slash" unicode="/" horiz-adv-x="613" 
d="M-28 -40l563 760h136l-563 -760h-136z" />
    <glyph glyph-name="zero" unicode="0" horiz-adv-x="636" 
d="M303 91q84 0 137.5 97t53.5 230q0 101 -33 154t-92 53q-84 0 -137.5 -97t-53.5 -230q0 -101 33 -154t92 -53zM297 -12q-110 0 -176.5 82t-66.5 229q0 113 38.5 211t113 160t169.5 62q110 0 176.5 -82t66.5 -229q0 -113 -38.5 -211t-113 -160t-169.5 -62z" />
    <glyph glyph-name="one" unicode="1" horiz-adv-x="384" 
d="M115 527l-19 105l181 88h96l-127 -720h-122l102 579z" />
    <glyph glyph-name="two" unicode="2" horiz-adv-x="566" 
d="M426 524q0 44 -28.5 71t-79.5 27q-99 0 -192 -103l-20 112q92 102 229 102q98 0 156.5 -54t58.5 -145q0 -96 -78.5 -194t-265.5 -236h286l-18 -104h-478l16 93q229 164 321.5 261t92.5 170z" />
    <glyph glyph-name="three" unicode="3" horiz-adv-x="552" 
d="M329 733q96 0 156 -45t60 -127q0 -69 -46 -118.5t-132 -75.5q133 -38 133 -163q0 -100 -79.5 -158t-209.5 -58q-128 0 -228 56l50 99q95 -52 179 -52q74 0 116 33t42 87q0 102 -164 102q-26 0 -69 -3l17 100q266 0 266 127q0 43 -29 65.5t-80 22.5q-78 0 -180 -62
l-12 109q101 61 210 61z" />
    <glyph glyph-name="four" unicode="4" horiz-adv-x="614" 
d="M7 145l17 100l390 475h157l-83 -470h106l-18 -105h-106l-26 -145h-122l26 145h-341zM150 250h216l59 335z" />
    <glyph glyph-name="five" unicode="5" horiz-adv-x="544" 
d="M387 237q0 119 -159 119q-77 0 -163 -25l82 389h415l-18 -108h-299l-35 -161q29 5 61 5q110 0 175 -57.5t65 -160.5q0 -115 -81.5 -182.5t-216.5 -67.5q-125 0 -227 57l50 101q95 -53 179 -53q79 0 125.5 39t46.5 105z" />
    <glyph glyph-name="six" unicode="6" horiz-adv-x="594" 
d="M406 732q109 0 193 -52l-51 -102q-83 46 -147 46q-88 0 -143 -60t-73 -161q73 73 170 73q92 0 149 -61t57 -162q0 -118 -74.5 -191.5t-181.5 -73.5q-112 0 -181.5 85.5t-69.5 237.5q0 179 95 300t257 121zM325 373q-68 0 -148 -71q1 -107 36 -160t96 -53q57 0 95 43
t38 111q0 61 -32 95.5t-85 34.5z" />
    <glyph glyph-name="seven" unicode="7" horiz-adv-x="518" 
d="M195 0h-147q177 331 358 609h-316l19 111h468l-18 -104q-177 -271 -364 -616z" />
    <glyph glyph-name="eight" unicode="8" horiz-adv-x="587" 
d="M550 199q0 -94 -78.5 -152.5t-202.5 -58.5q-116 0 -185 52t-69 140q0 34 11.5 62t29 47.5t45.5 37t54 28.5t62 24q-108 61 -108 159q0 84 70 139t179 55q100 0 161 -48t61 -128q0 -66 -43.5 -108.5t-121.5 -71.5q64 -31 99.5 -72.5t35.5 -104.5zM230 540q0 -37 25.5 -63
t73.5 -51q63 25 96.5 52t33.5 71q0 41 -29.5 64.5t-77.5 23.5q-52 0 -87 -27t-35 -70zM425 194q0 45 -30.5 74t-91.5 61q-40 -15 -64 -26t-49.5 -28.5t-37.5 -39.5t-12 -50q0 -49 36.5 -77t96.5 -28q66 0 109 31t43 83z" />
    <glyph glyph-name="nine" unicode="9" horiz-adv-x="594" 
d="M225 -12q-109 0 -193 52l51 98q83 -46 147 -46q89 0 144.5 61.5t72.5 164.5q-73 -74 -171 -74q-92 0 -149 61t-57 162q0 118 74.5 191.5t181.5 73.5q112 0 181.5 -85.5t69.5 -237.5q0 -179 -95 -300t-257 -121zM306 343q68 0 148 71q-1 107 -36.5 160t-95.5 53
q-57 0 -95 -43t-38 -111q0 -61 32 -95.5t85 -34.5z" />
    <glyph glyph-name="colon" unicode=":" horiz-adv-x="292" 
d="M187 64q0 -33 -21.5 -54.5t-55.5 -21.5t-55.5 21.5t-21.5 54.5t21.5 54.5t55.5 21.5t55.5 -21.5t21.5 -54.5zM248 419q0 -33 -21.5 -54.5t-55.5 -21.5t-55.5 21.5t-21.5 54.5t21.5 54.5t55.5 21.5t55.5 -21.5t21.5 -54.5z" />
    <glyph glyph-name="semicolon" unicode=";" horiz-adv-x="292" 
d="M104 140q39 0 64 -28t25 -77q0 -123 -180 -209l-46 62q104 47 131 109q-32 2 -50.5 21.5t-18.5 48.5q0 31 20.5 52t54.5 21zM248 419q0 -33 -21.5 -54.5t-55.5 -21.5t-55.5 21.5t-21.5 54.5t21.5 54.5t55.5 21.5t55.5 -21.5t21.5 -54.5z" />
    <glyph glyph-name="less" unicode="&#x3c;" horiz-adv-x="572" 
d="M34 210l16 90l525 210l-18 -104l-406 -155l350 -158l-16 -93z" />
    <glyph glyph-name="equal" unicode="=" horiz-adv-x="572" 
d="M556 402l-16 -90h-488l16 90h488zM520 198l-16 -90h-488l16 90h488z" />
    <glyph glyph-name="greater" unicode="&#x3e;" horiz-adv-x="572" 
d="M538 300l-16 -90l-525 -210l18 104l406 155l-350 158l16 93z" />
    <glyph glyph-name="question" unicode="?" horiz-adv-x="429" 
d="M190 214h-97q-4 30 -4 37q0 32 16.5 61t41.5 49.5t54.5 43t54.5 42t41.5 46t16.5 54.5q0 42 -32.5 63.5t-84.5 21.5q-38 0 -93 -11l17 98q55 13 105 13q96 0 154 -44t58 -124q0 -51 -25.5 -93.5t-62 -70t-73 -53t-62 -56t-25.5 -64.5v-13zM114 -12q-33 0 -53.5 20.5
t-20.5 50.5t20.5 50.5t53.5 20.5t53.5 -20.5t20.5 -50.5t-20.5 -50.5t-53.5 -20.5z" />
    <glyph glyph-name="at" unicode="@" horiz-adv-x="836" 
d="M416 -95q-161 0 -265.5 93t-104.5 260q0 170 108.5 280.5t280.5 110.5q155 0 251 -92t96 -242q0 -113 -53 -173.5t-131 -60.5q-47 0 -77 22.5t-39 59.5q-34 -40 -65.5 -61t-72.5 -21q-53 0 -85.5 37.5t-32.5 112.5q0 98 55.5 170t163.5 72q67 0 130 -29l-21 -197
q-1 -8 -1 -17q0 -77 50 -77q43 0 70.5 44.5t27.5 117.5q0 119 -75 188.5t-193 69.5q-135 0 -220.5 -89.5t-85.5 -225.5q0 -132 82 -204.5t206 -72.5q84 0 190 39l23 -75q-104 -40 -212 -40zM362 157q53 0 108 80l16 152q-28 11 -54 11q-34 0 -59 -16.5t-37.5 -43t-18 -53
t-5.5 -52.5q0 -78 50 -78z" />
    <glyph glyph-name="A" unicode="A" horiz-adv-x="686" 
d="M502 720l114 -720h-125l-24 168h-272l-83 -168h-132l373 720h149zM405 594l-161 -327h208z" />
    <glyph glyph-name="B" unicode="B" horiz-adv-x="660" 
d="M40 0l127 720h230q109 0 171 -44.5t62 -133.5q0 -134 -139 -179q110 -38 110 -154q0 -94 -73.5 -151.5t-212.5 -57.5h-275zM181 99h134q80 0 121 31t41 88q0 98 -123 98h-134zM236 411h116q76 0 115 29.5t39 84.5q0 93 -117 93h-116z" />
    <glyph glyph-name="C" unicode="C" horiz-adv-x="604" 
d="M518 154l13 -107q-92 -59 -203 -59q-124 0 -198.5 79t-74.5 229q0 116 43.5 213.5t133 160t207.5 62.5q113 0 199 -57l-50 -106q-82 54 -156 54q-118 0 -184.5 -95t-66.5 -226q0 -105 44.5 -156.5t120.5 -51.5q86 0 172 60z" />
    <glyph glyph-name="D" unicode="D" horiz-adv-x="709" 
d="M166 720h221q137 0 219 -83t82 -230q0 -80 -26 -153t-74.5 -130t-123.5 -90.5t-167 -33.5h-258zM184 106h113q126 0 195.5 87t69.5 211q0 101 -47.5 153.5t-127.5 52.5h-114z" />
    <glyph glyph-name="E" unicode="E" horiz-adv-x="589" 
d="M40 0l127 720h458l-19 -110h-332l-34 -190h290l-18 -104h-290l-38 -210h335l-18 -106h-461z" />
    <glyph glyph-name="F" unicode="F" horiz-adv-x="546" 
d="M40 0l127 720h434l-19 -110h-308l-36 -200h272l-18 -104h-272l-54 -306h-126z" />
    <glyph glyph-name="G" unicode="G" horiz-adv-x="683" 
d="M363 90q54 0 103 17l32 179h-136l16 98h256l-59 -338q-106 -58 -227 -58q-139 0 -216 79t-77 233q0 119 44.5 215.5t136 156.5t216.5 60q131 0 231 -69l-51 -105q-92 64 -185 64q-128 0 -197 -90.5t-69 -227.5q0 -214 182 -214z" />
    <glyph glyph-name="H" unicode="H" horiz-adv-x="715" 
d="M40 0l127 720h126l-52 -295h293l52 295h126l-127 -720h-126l56 316h-293l-56 -316h-126z" />
    <glyph glyph-name="I" unicode="I" horiz-adv-x="310" 
d="M47 0l127 720h126l-127 -720h-126z" />
    <glyph glyph-name="J" unicode="J" horiz-adv-x="409" 
d="M-21 2l19 107q41 -9 80 -9q60 0 87 28.5t38 92.5l88 499h126l-92 -521q-12 -70 -35 -112t-74.5 -67.5t-136.5 -25.5q-55 0 -100 8z" />
    <glyph glyph-name="K" unicode="K" horiz-adv-x="666" 
d="M39 0l127 720h126l-59 -331l321 331h156l-290 -280l184 -440h-130l-144 354l-124 -120l-41 -234h-126z" />
    <glyph glyph-name="L" unicode="L" horiz-adv-x="536" 
d="M40 0l127 720h126l-108 -610h301l-19 -110h-427z" />
    <glyph glyph-name="M" unicode="M" horiz-adv-x="941" 
d="M697 0l48 392q14 113 23 170h-2q-11 -36 -78 -166l-208 -396h-114l-60 399q-20 133 -22 163h-2q-2 -13 -41 -177l-91 -385h-123l187 720h163l54 -403q13 -98 17 -168h2q29 72 78 167l206 404h160l-70 -720h-127z" />
    <glyph glyph-name="N" unicode="N" horiz-adv-x="722" 
d="M39 0l127 720h135l214 -492l87 492h117l-127 -720h-105l-236 543l-95 -543h-117z" />
    <glyph glyph-name="O" unicode="O" horiz-adv-x="720" 
d="M350 93q100 0 162.5 89t62.5 219q0 108 -45 165t-123 57q-100 0 -162.5 -89t-62.5 -219q0 -108 45 -165t123 -57zM345 -12q-129 0 -209 86.5t-80 240.5q0 175 100.5 296t255.5 121q129 0 209 -86.5t80 -240.5q0 -175 -100.5 -296t-255.5 -121z" />
    <glyph glyph-name="P" unicode="P" horiz-adv-x="634" 
d="M39 0l127 720h240q114 0 177.5 -52.5t63.5 -154.5q0 -112 -76 -175t-215 -63h-144l-48 -275h-125zM272 612l-41 -233h125q166 0 166 128q0 105 -125 105h-125z" />
    <glyph glyph-name="Q" unicode="Q" horiz-adv-x="724" 
d="M414 -192q-75 0 -112 33t-37 109q0 29 5 50q-98 22 -156 103.5t-58 211.5q0 175 100.5 296t255.5 121q129 0 209 -86.5t80 -240.5q0 -168 -93 -285t-239 -127v-16q0 -38 18.5 -52t60.5 -14q44 0 100 15l-18 -104q-61 -14 -116 -14zM350 93q100 0 162.5 89t62.5 219
q0 108 -45 165t-123 57q-100 0 -162.5 -89t-62.5 -219q0 -108 45 -165t123 -57z" />
    <glyph glyph-name="R" unicode="R" horiz-adv-x="690" 
d="M462 0l-124 302h-121l-53 -302h-124l127 720h258q111 0 171.5 -49t60.5 -145q0 -86 -50 -142.5t-144 -74.5l130 -309h-131zM234 396h140q159 0 159 120q0 50 -29.5 73t-91.5 23h-140z" />
    <glyph glyph-name="S" unicode="S" horiz-adv-x="582" 
d="M10 51l51 101q103 -59 189 -59q69 0 112 31t43 79q0 38 -30.5 64t-74 44t-87 39t-74 61.5t-30.5 99.5q0 98 75.5 159.5t193.5 61.5q114 0 211 -61l-51 -105q-86 57 -166 57q-60 0 -98.5 -28.5t-38.5 -70.5q0 -30 22 -52t55 -35t71 -31t71 -38t55 -58t22 -90
q0 -103 -79 -167.5t-207 -64.5q-126 0 -235 63z" />
    <glyph glyph-name="T" unicode="T" horiz-adv-x="574" 
d="M179 0l108 610h-200l19 110h526l-19 -110h-200l-108 -610h-126z" />
    <glyph glyph-name="U" unicode="U" horiz-adv-x="688" 
d="M78 277l78 443h126l-81 -459q-5 -25 -5 -51q0 -60 30.5 -86.5t91.5 -26.5q73 0 116 38.5t58 126.5l81 458h123l-84 -476q-24 -133 -99 -194.5t-203 -61.5q-240 0 -240 207q0 34 8 82z" />
    <glyph glyph-name="V" unicode="V" horiz-adv-x="658" 
d="M217 0l-110 720h121l81 -557l278 557h128l-368 -720h-130z" />
    <glyph glyph-name="W" unicode="W" horiz-adv-x="957" 
d="M575 0l-29 354q-11 128 -12 200h-4q-16 -51 -83 -202l-159 -352h-123l-54 720h126l22 -348q8 -107 6 -194h2q37 97 83 199l154 343h119l27 -343q7 -90 9 -199h2q35 104 73 196l145 346h131l-312 -720h-123z" />
    <glyph glyph-name="X" unicode="X" horiz-adv-x="663" 
d="M-12 0l285 371l-147 349h129l105 -260l197 260h143l-272 -347l156 -373h-130l-113 284l-209 -284h-144z" />
    <glyph glyph-name="Y" unicode="Y" horiz-adv-x="631" 
d="M207 0l52 297l-161 423h124l115 -303l222 303h138l-311 -421l-53 -299h-126z" />
    <glyph glyph-name="Z" unicode="Z" horiz-adv-x="608" 
d="M-11 0l16 90l445 520h-333l19 110h507l-16 -94l-445 -520h355l-18 -106h-530z" />
    <glyph glyph-name="bracketleft" unicode="[" horiz-adv-x="393" 
d="M301 -88l-16 -92h-287l159 900h287l-17 -92h-163l-126 -716h163z" />
    <glyph glyph-name="backslash" unicode="\" horiz-adv-x="613" 
d="M225 720l312 -760h-119l-312 760h119z" />
    <glyph glyph-name="bracketright" unicode="]" horiz-adv-x="393" 
d="M97 628l16 92h287l-159 -900h-287l17 92h163l126 716h-163z" />
    <glyph glyph-name="asciicircum" unicode="^" horiz-adv-x="572" 
d="M324 720h88l126 -488h-91l-93 377l-226 -377h-102z" />
    <glyph glyph-name="underscore" unicode="_" horiz-adv-x="492" 
d="M-75 -146l16 89h500l-16 -89h-500z" />
    <glyph glyph-name="grave" unicode="`" horiz-adv-x="500" 
d="M386 561h-95l-110 159h132z" />
    <glyph glyph-name="a" unicode="a" horiz-adv-x="572" 
d="M469 0h-121q-6 12 -6 30q0 16 3 28q-63 -70 -147 -70q-75 0 -120.5 53.5t-45.5 157.5q0 134 72 228.5t179 94.5q78 0 136 -69l10 57h119l-69 -391q-13 -76 -13 -98q0 -15 3 -21zM246 87q58 0 114 59l40 224q-45 46 -96 46q-67 0 -107.5 -59t-40.5 -144q0 -126 90 -126z
" />
    <glyph glyph-name="b" unicode="b" horiz-adv-x="580" 
d="M151 720h124l-48 -269q65 71 149 71q77 0 124.5 -56t47.5 -162q0 -132 -71.5 -224t-182.5 -92q-83 0 -141 69l-10 -57h-119zM330 416q-61 0 -119 -59l-40 -224q49 -46 103 -46q69 0 109.5 58t40.5 143q0 128 -94 128z" />
    <glyph glyph-name="c" unicode="c" horiz-adv-x="456" 
d="M464 483l-42 -94q-50 34 -99 34q-76 0 -121.5 -59.5t-45.5 -146.5q0 -67 28 -100t78 -33q60 0 116 38l9 -95q-60 -39 -148 -39q-95 0 -151 56.5t-56 165.5q0 132 79 222t212 90q80 0 141 -39z" />
    <glyph glyph-name="d" unicode="d" horiz-adv-x="580" 
d="M283 522q80 0 139 -65l47 263h124l-106 -601q-13 -75 -13 -100q0 -11 2 -19h-120q-6 12 -6 30q0 17 3 29q-66 -71 -152 -71q-77 0 -123 55t-46 159q0 133 71.5 226.5t179.5 93.5zM251 87q61 0 117 59l39 222q-48 48 -101 48q-68 0 -109 -58.5t-41 -143.5q0 -127 95 -127z
" />
    <glyph glyph-name="e" unicode="e" horiz-adv-x="534" 
d="M325 522q88 0 136.5 -42.5t48.5 -105.5q0 -75 -70.5 -120t-217.5 -45q-35 0 -66 3q3 -131 122 -131q75 0 158 43l11 -93q-86 -43 -188 -43q-109 0 -168 56.5t-59 165.5q0 133 82 222.5t211 89.5zM318 432q-55 0 -96.5 -39.5t-57.5 -103.5q18 -2 53 -2q177 0 177 81
q0 28 -19.5 46t-56.5 18z" />
    <glyph glyph-name="f" unicode="f" horiz-adv-x="342" 
d="M48 414l17 96h86l13 74q13 71 52.5 106.5t120.5 35.5q35 0 73 -6l-17 -94q-19 5 -38 5q-34 0 -49.5 -16.5t-21.5 -53.5l-9 -51h98l-17 -96h-98l-73 -414h-124l73 414h-86z" />
    <glyph glyph-name="g" unicode="g" horiz-adv-x="580" 
d="M555 510l-88 -501q-20 -111 -94.5 -168t-183.5 -57q-108 0 -196 45l43 94q81 -39 150 -39q134 0 160 147l7 40q-65 -71 -149 -71q-77 0 -124.5 53.5t-47.5 156.5q0 130 72 221t182 91q80 0 140 -70l10 58h119zM250 99q60 0 119 59l37 212q-49 46 -101 46q-67 0 -108 -56
t-41 -138q0 -64 26 -93.5t68 -29.5z" />
    <glyph glyph-name="h" unicode="h" horiz-adv-x="573" 
d="M24 0l127 720h124l-50 -283q85 85 182 85q54 0 91 -28.5t37 -92.5q0 -23 -5 -50l-62 -351h-124l60 340q2 12 2 20q0 54 -58 54q-64 0 -140 -72l-60 -342h-124z" />
    <glyph glyph-name="i" unicode="i" horiz-adv-x="274" 
d="M30 0l90 510h124l-90 -510h-124zM206 583q-33 0 -53 19.5t-20 49.5t20 49.5t53 19.5t53 -19.5t20 -49.5t-20 -49.5t-53 -19.5z" />
    <glyph glyph-name="j" unicode="j" horiz-adv-x="274" 
d="M244 510l-103 -584q-13 -71 -52.5 -106.5t-120.5 -35.5q-36 0 -73 6l17 94q19 -5 38 -5q34 0 49.5 16.5t21.5 53.5l99 561h124zM206 583q-33 0 -53 19.5t-20 49.5t20 49.5t53 19.5t53 -19.5t20 -49.5t-20 -49.5t-53 -19.5z" />
    <glyph glyph-name="k" unicode="k" horiz-adv-x="546" 
d="M358 0l-104 239l-78 -70l-29 -169h-124l127 720h124l-74 -421l210 211h144l-215 -196l141 -314h-122z" />
    <glyph glyph-name="l" unicode="l" horiz-adv-x="274" 
d="M30 0l127 720h124l-127 -720h-124z" />
    <glyph glyph-name="m" unicode="m" horiz-adv-x="872" 
d="M333 0l60 340q2 12 2 23q0 51 -54 51q-59 0 -133 -72l-60 -342h-124l90 510h124l-14 -76q81 88 178 88q47 0 80 -23t38 -74q86 97 190 97q52 0 88 -29t36 -93q0 -20 -5 -48l-62 -352h-124l60 340q2 12 2 23q0 51 -54 51q-61 0 -133 -70l-61 -344h-124z" />
    <glyph glyph-name="n" unicode="n" horiz-adv-x="573" 
d="M24 0l90 510h124l-13 -73q85 85 182 85q54 0 91 -28.5t37 -92.5q0 -23 -5 -50l-62 -351h-124l60 340q2 12 2 20q0 54 -58 54q-64 0 -140 -72l-60 -342h-124z" />
    <glyph glyph-name="o" unicode="o" horiz-adv-x="558" 
d="M257 80q65 0 105 61t40 147q0 69 -27 104t-74 35q-65 0 -105 -61t-40 -147q0 -69 27 -104t74 -35zM250 -12q-96 0 -157 59t-61 171q0 129 77.5 216.5t198.5 87.5q96 0 157 -59t61 -171q0 -129 -77.5 -216.5t-198.5 -87.5z" />
    <glyph glyph-name="p" unicode="p" horiz-adv-x="580" 
d="M114 510h124l-11 -59q65 71 149 71q77 0 124.5 -56t47.5 -162q0 -132 -71.5 -224t-182.5 -92q-80 0 -136 63l-46 -261h-124zM330 416q-61 0 -119 -59l-39 -224q49 -46 102 -46q69 0 109.5 58t40.5 143q0 128 -94 128z" />
    <glyph glyph-name="q" unicode="q" horiz-adv-x="580" 
d="M429 -210h-124l48 268q-64 -70 -148 -70q-78 0 -125.5 54.5t-47.5 159.5q0 133 71.5 226.5t179.5 93.5q82 0 143 -71l11 59h119zM251 87q61 0 117 59l39 222q-48 48 -101 48q-68 0 -109 -58.5t-41 -143.5q0 -127 95 -127z" />
    <glyph glyph-name="r" unicode="r" horiz-adv-x="385" 
d="M419 516l-19 -110q-24 4 -41 4q-48 0 -88.5 -26t-64.5 -55l-58 -329h-124l90 510h124l-15 -87q60 99 154 99q24 0 42 -6z" />
    <glyph glyph-name="s" unicode="s" horiz-adv-x="463" 
d="M448 478l-42 -93q-66 41 -123 41q-37 0 -62.5 -16.5t-25.5 -42.5q0 -22 22 -36.5t53.5 -25t63 -25t53.5 -44.5t22 -75q0 -79 -61.5 -126t-163.5 -47q-103 0 -184 46l42 90q76 -43 144 -43q45 0 74 18t29 48q0 24 -22 41t-53.5 28.5t-63 25.5t-53.5 43t-22 72
q0 73 58.5 119t150.5 46q89 0 164 -44z" />
    <glyph glyph-name="t" unicode="t" horiz-adv-x="374" 
d="M48 414l17 96h86l30 170h124l-30 -170h111l-17 -96h-111l-45 -256q-3 -17 -3 -27q0 -39 47 -39q25 0 57 10l-17 -98q-45 -10 -87 -10q-61 0 -93.5 24t-32.5 87q0 28 10 82l40 227h-86z" />
    <glyph glyph-name="u" unicode="u" horiz-adv-x="573" 
d="M548 510l-90 -510h-124l13 73q-85 -85 -182 -85q-54 0 -91 28.5t-37 92.5q0 23 5 50l62 351h124l-61 -344q-2 -12 -2 -20q0 -54 58 -54q64 0 140 72l61 346h124z" />
    <glyph glyph-name="v" unicode="v" horiz-adv-x="507" 
d="M142 0l-88 510h121l55 -369l185 369h127l-273 -510h-127z" />
    <glyph glyph-name="w" unicode="w" horiz-adv-x="745" 
d="M424 0l-21 229q-8 82 -8 136h-2q-9 -32 -55 -132l-110 -233h-119l-52 510h114l22 -230q7 -69 8 -136h2q34 91 51 127l112 239h108l21 -233q5 -58 4 -133h2q32 88 51 130l107 236h119l-236 -510h-118z" />
    <glyph glyph-name="x" unicode="x" horiz-adv-x="514" 
d="M-26 0l212 265l-110 245h122l69 -172l127 172h133l-197 -246l120 -264h-121l-80 191l-143 -191h-132z" />
    <glyph glyph-name="y" unicode="y" horiz-adv-x="507" 
d="M-49 -210l18 100q25 -5 50 -5q44 0 74.5 25t72.5 102h-36l-75 498h129l43 -401l189 401h126l-260 -516q-63 -126 -114.5 -168t-137.5 -42q-31 0 -79 6z" />
    <glyph glyph-name="z" unicode="z" horiz-adv-x="491" 
d="M-19 0l14 82l323 333h-247l17 95h409l-14 -79l-324 -333h268l-17 -98h-429z" />
    <glyph glyph-name="braceleft" unicode="{" horiz-adv-x="393" 
d="M26 224l16 92h23q43 0 62 18t27 60l32 179q13 76 63.5 111.5t161.5 35.5h33l-16 -92h-34q-43 0 -62 -18t-26 -60l-32 -179q-16 -89 -90 -106q53 -20 53 -90q0 -20 -4 -40l-28 -157q-2 -10 -2 -19q0 -47 65 -47h33l-16 -92h-33q-172 0 -172 133q0 21 5 49l28 156
q2 14 2 20q0 46 -66 46h-23z" />
    <glyph glyph-name="bar" unicode="|" horiz-adv-x="376" 
d="M50 -180l159 900h122l-159 -900h-122z" />
    <glyph glyph-name="braceright" unicode="}" horiz-adv-x="393" 
d="M372 316l-16 -92h-23q-43 0 -62 -18t-27 -60l-32 -179q-13 -76 -63.5 -111.5t-161.5 -35.5h-33l16 92h34q43 0 62 18t26 60l32 179q16 89 90 106q-53 20 -53 90q0 20 4 40l28 157q2 10 2 19q0 47 -65 47h-33l16 92h33q172 0 172 -133q0 -21 -5 -49l-28 -156
q-2 -14 -2 -20q0 -46 66 -46h23z" />
    <glyph glyph-name="asciitilde" unicode="~" horiz-adv-x="572" 
d="M165 227q-66 0 -118 -40l-19 97q59 43 142 43q42 0 120 -22t116 -22q66 0 118 40l19 -97q-59 -43 -142 -43q-42 0 -120 22t-116 22z" />
    <glyph glyph-name="uni00A0" unicode="&#xa0;" horiz-adv-x="220" 
 />
    <glyph glyph-name="exclamdown" unicode="&#xa1;" horiz-adv-x="328" 
d="M198 522q33 0 53.5 -20.5t20.5 -50.5t-20.5 -50.5t-53.5 -20.5t-53.5 20.5t-20.5 50.5t20.5 50.5t53.5 20.5zM220 296l-66 -506h-143l112 506h97z" />
    <glyph glyph-name="cent" unicode="&#xa2;" horiz-adv-x="480" 
d="M480 495l-43 -92q-22 13 -39 20l-140 -330h12q63 0 123 38l11 -92q-65 -39 -153 -39q-22 0 -32 1l-61 -144h-69l67 159q-122 47 -122 207q0 132 81 221.5t217 89.5q22 0 42 -3l54 126h69l-60 -142q23 -9 43 -20zM152 229q0 -83 48 -117l138 326h-11q-80 0 -127.5 -60.5
t-47.5 -148.5z" />
    <glyph glyph-name="sterling" unicode="&#xa3;" horiz-adv-x="490" 
d="M174 322h-135l15 82h143l48 169q23 82 67.5 120.5t142.5 38.5q40 0 72 -5l-17 -94q-28 5 -50 5q-43 0 -64.5 -20.5t-34.5 -65.5l-42 -148h151l-15 -82h-159l-13 -46q-34 -122 -101 -173q94 -18 125 -18q61 0 109 29l10 -98q-54 -28 -133 -28q-38 0 -105 13t-97 13
q-60 0 -109 -29l-9 98q83 27 123 66t63 120z" />
    <glyph glyph-name="currency" unicode="&#xa4;" horiz-adv-x="572" 
d="M192 255q0 -40 26.5 -66.5t64.5 -26.5t64.5 26.5t26.5 66.5t-26.5 66.5t-64.5 26.5t-64.5 -26.5t-26.5 -66.5zM447 255q0 -43 -18 -77l79 -80l-69 -70l-82 83q-33 -15 -74 -15t-74 15l-82 -83l-69 70l79 80q-18 35 -18 77q0 43 18 77l-79 80l69 70l82 -83q33 15 74 15
t74 -15l82 83l69 -70l-79 -80q18 -35 18 -77z" />
    <glyph glyph-name="yen" unicode="&#xa5;" horiz-adv-x="600" 
d="M82 268l15 82h135l-134 370h119l107 -306l212 306h130l-264 -370h135l-15 -82h-157l-12 -65h158l-15 -82h-158l-21 -121h-124l21 121h-158l15 82h157l12 65h-158z" />
    <glyph glyph-name="brokenbar" unicode="&#xa6;" horiz-adv-x="376" 
d="M140 330l69 390h122l-69 -390h-122zM50 -180l69 390h122l-69 -390h-122z" />
    <glyph glyph-name="section" unicode="&#xa7;" horiz-adv-x="584" 
d="M385 732q103 0 194 -52l-46 -95q-79 49 -154 49q-53 0 -98 -22.5t-69 -66.5q63 -7 116 -26.5t98.5 -54t71.5 -91t26 -128.5q0 -140 -90 -218.5t-225 -78.5q-109 0 -202 53l46 91q83 -49 163 -49q58 0 106 23t73 69q-63 7 -116 26t-98.5 53.5t-71.5 91.5t-26 131
q0 139 86 217t216 78zM419 221v16q0 185 -231 218v-13q0 -189 231 -221z" />
    <glyph glyph-name="dieresis" unicode="&#xa8;" horiz-adv-x="500" 
d="M276 626q0 -27 -17.5 -45t-45.5 -18t-45.5 18t-17.5 45t17.5 45t45.5 18t45.5 -18t17.5 -45zM478 626q0 -27 -17.5 -45t-45.5 -18t-45.5 18t-17.5 45t17.5 45t45.5 18t45.5 -18t17.5 -45z" />
    <glyph glyph-name="copyright" unicode="&#xa9;" horiz-adv-x="838" 
d="M542 268l18 -68q-52 -32 -116 -32q-80 0 -128 49t-48 139q0 92 50.5 143t132.5 51q60 0 108 -29l-19 -76q-43 32 -82 32q-45 0 -72 -30.5t-27 -89.5t28 -88.5t73 -29.5q41 0 82 29zM432 49q130 0 219 89t89 222t-89 222t-219 89t-219 -89t-89 -222t89 -222t219 -89z
M432 -12q-157 0 -264.5 106.5t-107.5 265.5t107.5 265.5t264.5 106.5t264.5 -106.5t107.5 -265.5t-107.5 -265.5t-264.5 -106.5z" />
    <glyph glyph-name="ordfeminine" unicode="&#xaa;" horiz-adv-x="366" 
d="M207 441q35 0 64 32l24 132q-27 26 -57 26q-37 0 -59.5 -33.5t-22.5 -82.5q0 -74 51 -74zM262 414q-37 -42 -88 -42q-47 0 -75.5 35t-28.5 100q0 81 43 139t110 58q50 0 84 -40l6 32h83l-43 -243q-8 -45 -8 -58q0 -12 2 -15h-83q-3 4 -3 19q0 10 1 15z" />
    <glyph glyph-name="guillemotleft" unicode="&#xab;" horiz-adv-x="531" 
d="M337 24l-103 231l173 231h120l-175 -239l93 -223h-108zM137 24l-103 231l173 231h120l-175 -239l93 -223h-108z" />
    <glyph glyph-name="logicalnot" unicode="&#xac;" horiz-adv-x="572" 
d="M497 68h-101l36 206h-387l18 100h488z" />
    <glyph glyph-name="uni00AD" unicode="&#xad;" horiz-adv-x="406" 
d="M57 267l16 89h296l-16 -89h-296z" />
    <glyph glyph-name="registered" unicode="&#xae;" horiz-adv-x="838" 
d="M432 -12q-157 0 -264.5 106.5t-107.5 265.5t107.5 265.5t264.5 106.5t264.5 -106.5t107.5 -265.5t-107.5 -265.5t-264.5 -106.5zM432 49q130 0 219 89t89 222t-89 222t-219 89t-219 -89t-89 -222t89 -222t219 -89zM505 175l-77 137h-50v-137h-89v366h153q68 0 106 -29.5
t38 -85.5q0 -76 -70 -102l85 -149h-96zM378 375h56q63 0 63 47q0 48 -63 48h-56v-95z" />
    <glyph glyph-name="macron" unicode="&#xaf;" horiz-adv-x="500" 
d="M144 570l15 85h322l-15 -85h-322z" />
    <glyph glyph-name="degree" unicode="&#xb0;" horiz-adv-x="424" 
d="M175 573q0 -40 26 -66.5t65 -26.5t65 26.5t26 66.5t-26 66.5t-65 26.5t-65 -26.5t-26 -66.5zM430 573q0 -68 -46.5 -113.5t-117.5 -45.5t-117.5 45.5t-46.5 113.5t46.5 113.5t117.5 45.5t117.5 -45.5t46.5 -113.5z" />
    <glyph glyph-name="plusminus" unicode="&#xb1;" horiz-adv-x="572" 
d="M311 110h-100l27 154h-194l16 91h194l27 155h100l-27 -155h194l-16 -91h-194zM497 66l-16 -90h-488l16 90h488z" />
    <glyph glyph-name="twosuperior" unicode="&#xb2;" horiz-adv-x="359" 
d="M311 703q0 54 -60 54q-62 0 -121 -61l-13 77q57 61 147 61q62 0 97.5 -33.5t35.5 -90.5q0 -61 -47.5 -119t-156.5 -139h169l-12 -72h-301l10 64q141 97 196.5 155.5t55.5 103.5z" />
    <glyph glyph-name="threesuperior" unicode="&#xb3;" horiz-adv-x="351" 
d="M256 834q62 0 100.5 -28.5t38.5 -80.5q0 -85 -105 -119q78 -25 78 -99q0 -62 -50 -98.5t-133 -36.5q-82 0 -145 35l33 68q60 -32 111 -32q44 0 69.5 18t25.5 50q0 59 -98 59q-9 0 -45 -2l11 67q163 0 163 75q0 50 -64 50q-49 0 -112 -37l-9 74q60 37 131 37z" />
    <glyph glyph-name="acute" unicode="&#xb4;" horiz-adv-x="500" 
d="M325 561h-103l110 159h151z" />
    <glyph glyph-name="mu" unicode="&#xb5;" horiz-adv-x="582" 
d="M434 510h124l-90 -510h-124l13 73q-85 -85 -179 -85q-26 0 -46 7q-6 -92 -25 -205h-119l126 720h124l-61 -344q-2 -12 -2 -20q0 -54 58 -54q64 0 140 72z" />
    <glyph glyph-name="paragraph" unicode="&#xb6;" horiz-adv-x="533" 
d="M430 680h105l-94 -531q-20 -116 -82.5 -167t-200.5 -77l-10 93q88 19 131.5 49t56.5 102zM367 680l-77 -433q-105 0 -164 53.5t-59 142.5q0 101 76.5 169t223.5 68z" />
    <glyph glyph-name="periodcentered" unicode="&#xb7;" horiz-adv-x="292" 
d="M221 257q0 -33 -21.5 -54.5t-55.5 -21.5t-55.5 21.5t-21.5 54.5t21.5 54.5t55.5 21.5t55.5 -21.5t21.5 -54.5z" />
    <glyph glyph-name="cedilla" unicode="&#xb8;" horiz-adv-x="500" 
d="M307 -94q0 -49 -36.5 -77t-100.5 -28q-60 0 -116 30l28 62q41 -23 77 -23q26 0 41 11.5t15 28.5q0 40 -67 52l22 44q137 -9 137 -100z" />
    <glyph glyph-name="onesuperior" unicode="&#xb9;" horiz-adv-x="248" 
d="M120 697l-13 74l114 55h69l-79 -446h-86l62 350z" />
    <glyph glyph-name="ordmasculine" unicode="&#xba;" horiz-adv-x="355" 
d="M212 435q37 0 60 36.5t23 87.5q0 80 -55 80q-37 0 -60 -36.5t-23 -87.5q0 -80 55 -80zM206 372q-60 0 -97.5 37t-37.5 106q0 81 49.5 135t125.5 54q60 0 97.5 -37t37.5 -106q0 -81 -49.5 -135t-125.5 -54z" />
    <glyph glyph-name="guillemotright" unicode="&#xbb;" horiz-adv-x="531" 
d="M392 486l103 -231l-173 -231h-120l175 239l-93 223h108zM192 486l103 -231l-173 -231h-120l175 239l-93 223h108z" />
    <glyph glyph-name="onequarter" unicode="&#xbc;" horiz-adv-x="776" 
d="M363 88l12 68l239 290h107l-51 -287h65l-12 -71h-65l-16 -88h-84l16 88h-211zM462 159h124l35 193zM40 0l573 720h107l-573 -720h-107zM92 591l-13 74l114 55h69l-79 -446h-86l62 350z" />
    <glyph glyph-name="onehalf" unicode="&#xbd;" horiz-adv-x="833" 
d="M40 0l573 720h107l-573 -720h-107zM100 591l-13 74l114 55h69l-79 -446h-86l62 350zM708 323q0 54 -60 54q-62 0 -121 -61l-13 77q57 61 147 61q62 0 97.5 -33.5t35.5 -90.5q0 -61 -47.5 -119t-156.5 -139h169l-12 -72h-301l10 64q141 97 196.5 155.5t55.5 103.5z" />
    <glyph glyph-name="threequarters" unicode="&#xbe;" horiz-adv-x="847" 
d="M436 88l12 68l239 290h107l-51 -287h65l-12 -71h-65l-16 -88h-84l16 88h-211zM535 159h124l35 193zM113 0l573 720h107l-573 -720h-107zM228 728q62 0 100.5 -28.5t38.5 -80.5q0 -85 -105 -119q78 -25 78 -99q0 -62 -50 -98.5t-133 -36.5q-82 0 -145 35l33 68
q60 -32 111 -32q44 0 69.5 18t25.5 50q0 59 -98 59q-9 0 -45 -2l11 67q163 0 163 75q0 50 -64 50q-49 0 -112 -37l-9 74q60 37 131 37z" />
    <glyph glyph-name="questiondown" unicode="&#xbf;" horiz-adv-x="429" 
d="M239 296h97q4 -30 4 -37q0 -32 -16.5 -61t-41.5 -49.5t-54.5 -43t-54.5 -42t-41.5 -46t-16.5 -54.5q0 -42 32.5 -63.5t84.5 -21.5q38 0 93 11l-17 -98q-55 -13 -105 -13q-96 0 -154 44t-58 124q0 51 25.5 93.5t62 70t73 53t62 56t25.5 64.5v13zM315 522q33 0 53.5 -20.5
t20.5 -50.5t-20.5 -50.5t-53.5 -20.5t-53.5 20.5t-20.5 50.5t20.5 50.5t53.5 20.5z" />
    <glyph glyph-name="Agrave" unicode="&#xc0;" horiz-adv-x="686" 
d="M502 720l114 -720h-125l-24 168h-272l-83 -168h-132l373 720h149zM405 594l-161 -327h208zM515 770h-96l-114 139h134z" />
    <glyph glyph-name="Aacute" unicode="&#xc1;" horiz-adv-x="686" 
d="M502 720l114 -720h-125l-24 168h-272l-83 -168h-132l373 720h149zM405 594l-161 -327h208zM455 770h-103l106 139h152z" />
    <glyph glyph-name="Acircumflex" unicode="&#xc2;" horiz-adv-x="686" 
d="M502 720l114 -720h-125l-24 168h-272l-83 -168h-132l373 720h149zM405 594l-161 -327h208zM357 770h-99l151 139h98l102 -139h-87l-73 56z" />
    <glyph glyph-name="Atilde" unicode="&#xc3;" horiz-adv-x="686" 
d="M502 720l114 -720h-125l-24 168h-272l-83 -168h-132l373 720h149zM405 594l-161 -327h208zM332 770h-74q24 129 114 129q34 0 82 -23t64 -23q30 0 38 40h74q-24 -129 -114 -129q-34 0 -82 23t-64 23q-30 0 -38 -40z" />
    <glyph glyph-name="Adieresis" unicode="&#xc4;" horiz-adv-x="686" 
d="M502 720l114 -720h-125l-24 168h-272l-83 -168h-132l373 720h149zM405 594l-161 -327h208zM410 832q0 -27 -17.5 -45t-45.5 -18t-45.5 18t-17.5 45t17.5 45t45.5 18t45.5 -18t17.5 -45zM612 832q0 -27 -17.5 -45t-45.5 -18t-45.5 18t-17.5 45t17.5 45t45.5 18t45.5 -18
t17.5 -45z" />
    <glyph glyph-name="Aring" unicode="&#xc5;" horiz-adv-x="686" 
d="M534 750q0 -39 -27 -66l109 -684h-125l-24 168h-272l-83 -168h-132l361 698q-15 22 -15 52q0 41 29.5 69t74.5 28t74.5 -28t29.5 -69zM405 594l-161 -327h208zM430 706q20 0 33 13t13 31t-13 31t-33 13q-21 0 -34 -12.5t-13 -31.5t13 -31.5t34 -12.5z" />
    <glyph glyph-name="AE" unicode="&#xc6;" horiz-adv-x="942" 
d="M422 0l29 168h-221l-113 -168h-142l502 720h501l-19 -110h-303l-34 -190h261l-18 -104h-261l-38 -210h306l-18 -106h-432zM297 267h172l61 345z" />
    <glyph glyph-name="Ccedilla" unicode="&#xc7;" horiz-adv-x="604" 
d="M398 -94q0 -49 -36.5 -77t-100.5 -28q-60 0 -116 30l28 62q41 -23 77 -23q26 0 41 11.5t15 28.5q0 40 -67 52l17 34q-94 21 -147.5 97t-53.5 203q0 116 43.5 213.5t133 160t207.5 62.5q113 0 199 -57l-50 -106q-82 54 -156 54q-118 0 -184.5 -95t-66.5 -226
q0 -105 44.5 -156.5t120.5 -51.5q86 0 172 60l13 -107q-86 -55 -188 -59q55 -24 55 -82z" />
    <glyph glyph-name="Egrave" unicode="&#xc8;" horiz-adv-x="589" 
d="M40 0l127 720h458l-19 -110h-332l-34 -190h290l-18 -104h-290l-38 -210h335l-18 -106h-461zM487 770h-96l-114 139h134z" />
    <glyph glyph-name="Eacute" unicode="&#xc9;" horiz-adv-x="589" 
d="M40 0l127 720h458l-19 -110h-332l-34 -190h290l-18 -104h-290l-38 -210h335l-18 -106h-461zM427 770h-103l106 139h152z" />
    <glyph glyph-name="Ecircumflex" unicode="&#xca;" horiz-adv-x="589" 
d="M40 0l127 720h458l-19 -110h-332l-34 -190h290l-18 -104h-290l-38 -210h335l-18 -106h-461zM329 770h-99l151 139h98l102 -139h-87l-73 56z" />
    <glyph glyph-name="Edieresis" unicode="&#xcb;" horiz-adv-x="589" 
d="M40 0l127 720h458l-19 -110h-332l-34 -190h290l-18 -104h-290l-38 -210h335l-18 -106h-461zM383 832q0 -27 -17.5 -45t-45.5 -18t-45.5 18t-17.5 45t17.5 45t45.5 18t45.5 -18t17.5 -45zM585 832q0 -27 -17.5 -45t-45.5 -18t-45.5 18t-17.5 45t17.5 45t45.5 18t45.5 -18
t17.5 -45z" />
    <glyph glyph-name="Igrave" unicode="&#xcc;" horiz-adv-x="310" 
d="M47 0l127 720h126l-127 -720h-126zM327 770h-96l-114 139h134z" />
    <glyph glyph-name="Iacute" unicode="&#xcd;" horiz-adv-x="310" 
d="M47 0l127 720h126l-127 -720h-126zM267 770h-103l106 139h152z" />
    <glyph glyph-name="Icircumflex" unicode="&#xce;" horiz-adv-x="310" 
d="M47 0l127 720h126l-127 -720h-126zM169 770h-99l151 139h98l102 -139h-87l-73 56z" />
    <glyph glyph-name="Idieresis" unicode="&#xcf;" horiz-adv-x="310" 
d="M47 0l127 720h126l-127 -720h-126zM222 832q0 -27 -17.5 -45t-45.5 -18t-45.5 18t-17.5 45t17.5 45t45.5 18t45.5 -18t17.5 -45zM424 832q0 -27 -17.5 -45t-45.5 -18t-45.5 18t-17.5 45t17.5 45t45.5 18t45.5 -18t17.5 -45z" />
    <glyph glyph-name="Eth" unicode="&#xd0;" horiz-adv-x="709" 
d="M24 326l16 86h71l55 308h221q137 0 219 -83t82 -230q0 -80 -26 -153t-74.5 -130t-123.5 -90.5t-167 -33.5h-258l57 326h-72zM184 106h113q126 0 195.5 87t69.5 211q0 101 -47.5 153.5t-127.5 52.5h-114l-35 -198h161l-15 -86h-161z" />
    <glyph glyph-name="Ntilde" unicode="&#xd1;" horiz-adv-x="722" 
d="M39 0l127 720h135l214 -492l87 492h117l-127 -720h-105l-236 543l-95 -543h-117zM350 770h-74q24 129 114 129q34 0 82 -23t64 -23q30 0 38 40h74q-24 -129 -114 -129q-34 0 -82 23t-64 23q-30 0 -38 -40z" />
    <glyph glyph-name="Ograve" unicode="&#xd2;" horiz-adv-x="720" 
d="M350 93q100 0 162.5 89t62.5 219q0 108 -45 165t-123 57q-100 0 -162.5 -89t-62.5 -219q0 -108 45 -165t123 -57zM345 -12q-129 0 -209 86.5t-80 240.5q0 175 100.5 296t255.5 121q129 0 209 -86.5t80 -240.5q0 -175 -100.5 -296t-255.5 -121zM522 770h-96l-114 139h134z
" />
    <glyph glyph-name="Oacute" unicode="&#xd3;" horiz-adv-x="720" 
d="M350 93q100 0 162.5 89t62.5 219q0 108 -45 165t-123 57q-100 0 -162.5 -89t-62.5 -219q0 -108 45 -165t123 -57zM345 -12q-129 0 -209 86.5t-80 240.5q0 175 100.5 296t255.5 121q129 0 209 -86.5t80 -240.5q0 -175 -100.5 -296t-255.5 -121zM462 770h-103l106 139h152z
" />
    <glyph glyph-name="Ocircumflex" unicode="&#xd4;" horiz-adv-x="720" 
d="M350 93q100 0 162.5 89t62.5 219q0 108 -45 165t-123 57q-100 0 -162.5 -89t-62.5 -219q0 -108 45 -165t123 -57zM345 -12q-129 0 -209 86.5t-80 240.5q0 175 100.5 296t255.5 121q129 0 209 -86.5t80 -240.5q0 -175 -100.5 -296t-255.5 -121zM364 770h-99l151 139h98
l102 -139h-87l-73 56z" />
    <glyph glyph-name="Otilde" unicode="&#xd5;" horiz-adv-x="720" 
d="M350 93q100 0 162.5 89t62.5 219q0 108 -45 165t-123 57q-100 0 -162.5 -89t-62.5 -219q0 -108 45 -165t123 -57zM345 -12q-129 0 -209 86.5t-80 240.5q0 175 100.5 296t255.5 121q129 0 209 -86.5t80 -240.5q0 -175 -100.5 -296t-255.5 -121zM337 770h-74
q24 129 114 129q34 0 82 -23t64 -23q30 0 38 40h74q-24 -129 -114 -129q-34 0 -82 23t-64 23q-30 0 -38 -40z" />
    <glyph glyph-name="Odieresis" unicode="&#xd6;" horiz-adv-x="720" 
d="M350 93q100 0 162.5 89t62.5 219q0 108 -45 165t-123 57q-100 0 -162.5 -89t-62.5 -219q0 -108 45 -165t123 -57zM345 -12q-129 0 -209 86.5t-80 240.5q0 175 100.5 296t255.5 121q129 0 209 -86.5t80 -240.5q0 -175 -100.5 -296t-255.5 -121zM417 832q0 -27 -17.5 -45
t-45.5 -18t-45.5 18t-17.5 45t17.5 45t45.5 18t45.5 -18t17.5 -45zM619 832q0 -27 -17.5 -45t-45.5 -18t-45.5 18t-17.5 45t17.5 45t45.5 18t45.5 -18t17.5 -45z" />
    <glyph glyph-name="multiply" unicode="&#xd7;" horiz-adv-x="572" 
d="M88 420l76 62l128 -157l185 157l62 -77l-184 -156l129 -159l-76 -62l-128 157l-185 -157l-62 77l184 156z" />
    <glyph glyph-name="Oslash" unicode="&#xd8;" horiz-adv-x="720" 
d="M349 89q102 0 166 90t64 220q0 47 -10 89l-352 -332q45 -67 132 -67zM178 315q0 -48 9 -85l351 332q-45 65 -130 65q-102 0 -166 -90t-64 -222zM345 -12q-133 0 -211 89l-95 -89l-50 56l103 97q-36 74 -36 174q0 175 100.5 296t255.5 121q132 0 211 -90l95 90l50 -56
l-103 -97q36 -75 36 -174q0 -175 -100.5 -296t-255.5 -121z" />
    <glyph glyph-name="Ugrave" unicode="&#xd9;" horiz-adv-x="688" 
d="M78 277l78 443h126l-81 -459q-5 -25 -5 -51q0 -60 30.5 -86.5t91.5 -26.5q73 0 116 38.5t58 126.5l81 458h123l-84 -476q-24 -133 -99 -194.5t-203 -61.5q-240 0 -240 207q0 34 8 82zM516 770h-96l-114 139h134z" />
    <glyph glyph-name="Uacute" unicode="&#xda;" horiz-adv-x="688" 
d="M78 277l78 443h126l-81 -459q-5 -25 -5 -51q0 -60 30.5 -86.5t91.5 -26.5q73 0 116 38.5t58 126.5l81 458h123l-84 -476q-24 -133 -99 -194.5t-203 -61.5q-240 0 -240 207q0 34 8 82zM456 770h-103l106 139h152z" />
    <glyph glyph-name="Ucircumflex" unicode="&#xdb;" horiz-adv-x="688" 
d="M78 277l78 443h126l-81 -459q-5 -25 -5 -51q0 -60 30.5 -86.5t91.5 -26.5q73 0 116 38.5t58 126.5l81 458h123l-84 -476q-24 -133 -99 -194.5t-203 -61.5q-240 0 -240 207q0 34 8 82zM358 770h-99l151 139h98l102 -139h-87l-73 56z" />
    <glyph glyph-name="Udieresis" unicode="&#xdc;" horiz-adv-x="688" 
d="M78 277l78 443h126l-81 -459q-5 -25 -5 -51q0 -60 30.5 -86.5t91.5 -26.5q73 0 116 38.5t58 126.5l81 458h123l-84 -476q-24 -133 -99 -194.5t-203 -61.5q-240 0 -240 207q0 34 8 82zM411 832q0 -27 -17.5 -45t-45.5 -18t-45.5 18t-17.5 45t17.5 45t45.5 18t45.5 -18
t17.5 -45zM613 832q0 -27 -17.5 -45t-45.5 -18t-45.5 18t-17.5 45t17.5 45t45.5 18t45.5 -18t17.5 -45z" />
    <glyph glyph-name="Yacute" unicode="&#xdd;" horiz-adv-x="631" 
d="M207 0l52 297l-161 423h124l115 -303l222 303h138l-311 -421l-53 -299h-126zM429 770h-103l106 139h152z" />
    <glyph glyph-name="Thorn" unicode="&#xde;" horiz-adv-x="633" 
d="M39 0l127 720h124l-18 -100h117q114 0 177.5 -52.5t63.5 -154.5q0 -112 -76.5 -175t-215.5 -63h-143l-31 -175h-125zM255 512l-41 -233h124q83 0 125 33.5t42 94.5q0 105 -126 105h-124z" />
    <glyph glyph-name="germandbls" unicode="&#xdf;" horiz-adv-x="614" 
d="M293 338l17 94q60 0 101.5 30t41.5 86q0 45 -26 66t-65 21q-102 0 -125 -130l-89 -505h-124l92 521q18 102 82.5 156.5t165.5 54.5q92 0 150 -44t58 -128q0 -65 -36 -109t-101 -65q132 -43 132 -182q0 -98 -63.5 -157t-168.5 -59q-69 0 -122 22l33 88q39 -16 78 -16
q54 0 86.5 33.5t32.5 93.5q0 66 -40 97.5t-110 31.5z" />
    <glyph glyph-name="agrave" unicode="&#xe0;" horiz-adv-x="572" 
d="M469 0h-121q-6 12 -6 30q0 16 3 28q-63 -70 -147 -70q-75 0 -120.5 53.5t-45.5 157.5q0 134 72 228.5t179 94.5q78 0 136 -69l10 57h119l-69 -391q-13 -76 -13 -98q0 -15 3 -21zM246 87q58 0 114 59l40 224q-45 46 -96 46q-67 0 -107.5 -59t-40.5 -144q0 -126 90 -126z
M427 561h-95l-110 159h132z" />
    <glyph glyph-name="aacute" unicode="&#xe1;" horiz-adv-x="572" 
d="M469 0h-121q-6 12 -6 30q0 16 3 28q-63 -70 -147 -70q-75 0 -120.5 53.5t-45.5 157.5q0 134 72 228.5t179 94.5q78 0 136 -69l10 57h119l-69 -391q-13 -76 -13 -98q0 -15 3 -21zM246 87q58 0 114 59l40 224q-45 46 -96 46q-67 0 -107.5 -59t-40.5 -144q0 -126 90 -126z
M354 561h-103l110 159h151z" />
    <glyph glyph-name="acircumflex" unicode="&#xe2;" horiz-adv-x="572" 
d="M469 0h-121q-6 12 -6 30q0 16 3 28q-63 -70 -147 -70q-75 0 -120.5 53.5t-45.5 157.5q0 134 72 228.5t179 94.5q78 0 136 -69l10 57h119l-69 -391q-13 -76 -13 -98q0 -15 3 -21zM246 87q58 0 114 59l40 224q-45 46 -96 46q-67 0 -107.5 -59t-40.5 -144q0 -126 90 -126z
M268 561h-97l154 159h97l98 -159h-84l-71 77z" />
    <glyph glyph-name="atilde" unicode="&#xe3;" horiz-adv-x="572" 
d="M469 0h-121q-6 12 -6 30q0 16 3 28q-63 -70 -147 -70q-75 0 -120.5 53.5t-45.5 157.5q0 134 72 228.5t179 94.5q78 0 136 -69l10 57h119l-69 -391q-13 -76 -13 -98q0 -15 3 -21zM246 87q58 0 114 59l40 224q-45 46 -96 46q-67 0 -107.5 -59t-40.5 -144q0 -126 90 -126z
M245 567h-73q23 133 112 133q36 0 83.5 -27t63.5 -27q31 0 40 48h73q-23 -133 -112 -133q-36 0 -83.5 27t-63.5 27q-31 0 -40 -48z" />
    <glyph glyph-name="adieresis" unicode="&#xe4;" horiz-adv-x="572" 
d="M469 0h-121q-6 12 -6 30q0 16 3 28q-63 -70 -147 -70q-75 0 -120.5 53.5t-45.5 157.5q0 134 72 228.5t179 94.5q78 0 136 -69l10 57h119l-69 -391q-13 -76 -13 -98q0 -15 3 -21zM246 87q58 0 114 59l40 224q-45 46 -96 46q-67 0 -107.5 -59t-40.5 -144q0 -126 90 -126z
M317 626q0 -27 -17.5 -45t-45.5 -18t-45.5 18t-17.5 45t17.5 45t45.5 18t45.5 -18t17.5 -45zM519 626q0 -27 -17.5 -45t-45.5 -18t-45.5 18t-17.5 45t17.5 45t45.5 18t45.5 -18t17.5 -45z" />
    <glyph glyph-name="aring" unicode="&#xe5;" horiz-adv-x="572" 
d="M469 0h-121q-6 12 -6 30q0 16 3 28q-63 -70 -147 -70q-75 0 -120.5 53.5t-45.5 157.5q0 134 72 228.5t179 94.5q78 0 136 -69l10 57h119l-69 -391q-13 -76 -13 -98q0 -15 3 -21zM246 87q58 0 114 59l40 224q-45 46 -96 46q-67 0 -107.5 -59t-40.5 -144q0 -126 90 -126z
M360 611q20 0 32 12.5t12 31.5t-12 31.5t-32 12.5t-32 -12.5t-12 -31.5t12 -31.5t32 -12.5zM360 558q-42 0 -70 28t-28 69t28 69t70 28t70 -28t28 -69t-28 -69t-70 -28z" />
    <glyph glyph-name="ae" unicode="&#xe6;" horiz-adv-x="847" 
d="M637 522q88 0 136.5 -42.5t48.5 -105.5q0 -75 -70.5 -120t-217.5 -45q-34 0 -66 3q3 -131 122 -131q75 0 158 43l11 -93q-86 -43 -189 -43q-134 0 -190 84q-91 -84 -203 -84q-72 0 -116.5 38t-44.5 107q0 83 68 133.5t190 50.5q36 0 81 -6l4 20q4 24 4 36q0 56 -79 56
q-71 0 -170 -45l-9 97q98 47 208 47t149 -57q74 57 175 57zM214 82q68 0 137 61q-7 28 -7 67q0 17 1 26q-37 5 -64 5q-69 0 -106.5 -26.5t-37.5 -67.5q0 -31 21 -48t56 -17zM630 432q-55 0 -96.5 -39.5t-57.5 -103.5q18 -2 53 -2q177 0 177 81q0 28 -19.5 46t-56.5 18z" />
    <glyph glyph-name="ccedilla" unicode="&#xe7;" horiz-adv-x="456" 
d="M323 -94q0 -49 -36.5 -77t-100.5 -28q-60 0 -116 30l28 62q41 -23 77 -23q26 0 41 11.5t15 28.5q0 40 -67 52l16 32q-69 15 -108.5 70t-39.5 146q0 132 79 222t212 90q80 0 141 -39l-42 -94q-50 34 -99 34q-76 0 -121.5 -59.5t-45.5 -146.5q0 -67 28 -100t78 -33
q60 0 116 38l9 -95q-49 -32 -121 -38q57 -25 57 -83z" />
    <glyph glyph-name="egrave" unicode="&#xe8;" horiz-adv-x="534" 
d="M325 522q88 0 136.5 -42.5t48.5 -105.5q0 -75 -70.5 -120t-217.5 -45q-35 0 -66 3q3 -131 122 -131q75 0 158 43l11 -93q-86 -43 -188 -43q-109 0 -168 56.5t-59 165.5q0 133 82 222.5t211 89.5zM318 432q-55 0 -96.5 -39.5t-57.5 -103.5q18 -2 53 -2q177 0 177 81
q0 28 -19.5 46t-56.5 18zM415 561h-95l-110 159h132z" />
    <glyph glyph-name="eacute" unicode="&#xe9;" horiz-adv-x="534" 
d="M325 522q88 0 136.5 -42.5t48.5 -105.5q0 -75 -70.5 -120t-217.5 -45q-35 0 -66 3q3 -131 122 -131q75 0 158 43l11 -93q-86 -43 -188 -43q-109 0 -168 56.5t-59 165.5q0 133 82 222.5t211 89.5zM318 432q-55 0 -96.5 -39.5t-57.5 -103.5q18 -2 53 -2q177 0 177 81
q0 28 -19.5 46t-56.5 18zM345 561h-103l110 159h151z" />
    <glyph glyph-name="ecircumflex" unicode="&#xea;" horiz-adv-x="534" 
d="M325 522q88 0 136.5 -42.5t48.5 -105.5q0 -75 -70.5 -120t-217.5 -45q-35 0 -66 3q3 -131 122 -131q75 0 158 43l11 -93q-86 -43 -188 -43q-109 0 -168 56.5t-59 165.5q0 133 82 222.5t211 89.5zM318 432q-55 0 -96.5 -39.5t-57.5 -103.5q18 -2 53 -2q177 0 177 81
q0 28 -19.5 46t-56.5 18zM251 561h-97l154 159h97l98 -159h-84l-71 77z" />
    <glyph glyph-name="edieresis" unicode="&#xeb;" horiz-adv-x="534" 
d="M325 522q88 0 136.5 -42.5t48.5 -105.5q0 -75 -70.5 -120t-217.5 -45q-35 0 -66 3q3 -131 122 -131q75 0 158 43l11 -93q-86 -43 -188 -43q-109 0 -168 56.5t-59 165.5q0 133 82 222.5t211 89.5zM318 432q-55 0 -96.5 -39.5t-57.5 -103.5q18 -2 53 -2q177 0 177 81
q0 28 -19.5 46t-56.5 18zM300 626q0 -27 -17.5 -45t-45.5 -18t-45.5 18t-17.5 45t17.5 45t45.5 18t45.5 -18t17.5 -45zM502 626q0 -27 -17.5 -45t-45.5 -18t-45.5 18t-17.5 45t17.5 45t45.5 18t45.5 -18t17.5 -45z" />
    <glyph glyph-name="igrave" unicode="&#xec;" horiz-adv-x="274" 
d="M30 0l90 510h124l-90 -510h-124zM272 561h-95l-110 159h132z" />
    <glyph glyph-name="iacute" unicode="&#xed;" horiz-adv-x="274" 
d="M30 0l90 510h124l-90 -510h-124zM212 561h-103l110 159h151z" />
    <glyph glyph-name="icircumflex" unicode="&#xee;" horiz-adv-x="274" 
d="M113 561h-97l154 159h97l98 -159h-84l-71 77zM30 0l90 510h124l-90 -510h-124z" />
    <glyph glyph-name="idieresis" unicode="&#xef;" horiz-adv-x="274" 
d="M162 626q0 -27 -17.5 -45t-45.5 -18t-45.5 18t-17.5 45t17.5 45t45.5 18t45.5 -18t17.5 -45zM364 626q0 -27 -17.5 -45t-45.5 -18t-45.5 18t-17.5 45t17.5 45t45.5 18t45.5 -18t17.5 -45zM30 0l90 510h124l-90 -510h-124z" />
    <glyph glyph-name="eth" unicode="&#xf0;" horiz-adv-x="558" 
d="M281 535l-24 67l68 23q-21 34 -41 62l82 55q35 -38 61 -81l78 27l24 -67l-68 -24q62 -132 62 -275q0 -158 -77.5 -246t-198.5 -88q-95 0 -156 57t-61 166q0 120 71 199.5t176 79.5q77 0 121 -51q-13 66 -39 123zM399 266q0 65 -27.5 96t-73.5 31q-63 0 -103.5 -52
t-40.5 -132q0 -65 28 -96.5t74 -31.5q63 0 103 52.5t40 132.5z" />
    <glyph glyph-name="ntilde" unicode="&#xf1;" horiz-adv-x="573" 
d="M24 0l90 510h124l-13 -73q85 85 182 85q54 0 91 -28.5t37 -92.5q0 -23 -5 -50l-62 -351h-124l60 340q2 12 2 20q0 54 -58 54q-64 0 -140 -72l-60 -342h-124zM244 567h-73q23 133 112 133q36 0 83.5 -27t63.5 -27q31 0 40 48h73q-23 -133 -112 -133q-36 0 -83.5 27
t-63.5 27q-31 0 -40 -48z" />
    <glyph glyph-name="ograve" unicode="&#xf2;" horiz-adv-x="558" 
d="M257 80q65 0 105 61t40 147q0 69 -27 104t-74 35q-65 0 -105 -61t-40 -147q0 -69 27 -104t74 -35zM250 -12q-96 0 -157 59t-61 171q0 129 77.5 216.5t198.5 87.5q96 0 157 -59t61 -171q0 -129 -77.5 -216.5t-198.5 -87.5zM404 561h-95l-110 159h132z" />
    <glyph glyph-name="oacute" unicode="&#xf3;" horiz-adv-x="558" 
d="M257 80q65 0 105 61t40 147q0 69 -27 104t-74 35q-65 0 -105 -61t-40 -147q0 -69 27 -104t74 -35zM250 -12q-96 0 -157 59t-61 171q0 129 77.5 216.5t198.5 87.5q96 0 157 -59t61 -171q0 -129 -77.5 -216.5t-198.5 -87.5zM344 561h-103l110 159h151z" />
    <glyph glyph-name="ocircumflex" unicode="&#xf4;" horiz-adv-x="558" 
d="M257 80q65 0 105 61t40 147q0 69 -27 104t-74 35q-65 0 -105 -61t-40 -147q0 -69 27 -104t74 -35zM250 -12q-96 0 -157 59t-61 171q0 129 77.5 216.5t198.5 87.5q96 0 157 -59t61 -171q0 -129 -77.5 -216.5t-198.5 -87.5zM245 561h-97l154 159h97l98 -159h-84l-71 77z
" />
    <glyph glyph-name="otilde" unicode="&#xf5;" horiz-adv-x="558" 
d="M257 80q65 0 105 61t40 147q0 69 -27 104t-74 35q-65 0 -105 -61t-40 -147q0 -69 27 -104t74 -35zM250 -12q-96 0 -157 59t-61 171q0 129 77.5 216.5t198.5 87.5q96 0 157 -59t61 -171q0 -129 -77.5 -216.5t-198.5 -87.5zM222 567h-73q23 133 112 133q36 0 83.5 -27
t63.5 -27q31 0 40 48h73q-23 -133 -112 -133q-36 0 -83.5 27t-63.5 27q-31 0 -40 -48z" />
    <glyph glyph-name="odieresis" unicode="&#xf6;" horiz-adv-x="558" 
d="M257 80q65 0 105 61t40 147q0 69 -27 104t-74 35q-65 0 -105 -61t-40 -147q0 -69 27 -104t74 -35zM250 -12q-96 0 -157 59t-61 171q0 129 77.5 216.5t198.5 87.5q96 0 157 -59t61 -171q0 -129 -77.5 -216.5t-198.5 -87.5zM294 626q0 -27 -17.5 -45t-45.5 -18t-45.5 18
t-17.5 45t17.5 45t45.5 18t45.5 -18t17.5 -45zM496 626q0 -27 -17.5 -45t-45.5 -18t-45.5 18t-17.5 45t17.5 45t45.5 18t45.5 -18t17.5 -45z" />
    <glyph glyph-name="divide" unicode="&#xf7;" horiz-adv-x="572" 
d="M539 305l-18 -100h-488l18 100h488zM251 -2q-31 0 -50 18t-19 47t19 47.5t50 18.5q32 0 51 -18t19 -48q0 -29 -19 -47t-51 -18zM321 512q31 0 50 -18t19 -47t-19 -47.5t-50 -18.5q-32 0 -51 18t-19 48q0 29 19 47t51 18z" />
    <glyph glyph-name="oslash" unicode="&#xf8;" horiz-adv-x="558" 
d="M257 74q68 0 109.5 62.5t41.5 151.5q0 22 -3 41l-229 -216q28 -39 81 -39zM150 219q0 -17 2 -39l228 215q-28 38 -79 38q-67 0 -109 -63t-42 -151zM249 -12q-92 0 -149 53l-74 -70l-45 47l79 74q-28 53 -28 126q0 129 77.5 216.5t197.5 87.5q92 0 151 -53l74 70l45 -47
l-79 -75q28 -54 28 -126q0 -128 -78 -215.5t-199 -87.5z" />
    <glyph glyph-name="ugrave" unicode="&#xf9;" horiz-adv-x="573" 
d="M548 510l-90 -510h-124l13 73q-85 -85 -182 -85q-54 0 -91 28.5t-37 92.5q0 23 5 50l62 351h124l-61 -344q-2 -12 -2 -20q0 -54 58 -54q64 0 140 72l61 346h124zM417 561h-95l-110 159h132z" />
    <glyph glyph-name="uacute" unicode="&#xfa;" horiz-adv-x="573" 
d="M548 510l-90 -510h-124l13 73q-85 -85 -182 -85q-54 0 -91 28.5t-37 92.5q0 23 5 50l62 351h124l-61 -344q-2 -12 -2 -20q0 -54 58 -54q64 0 140 72l61 346h124zM357 561h-103l110 159h151z" />
    <glyph glyph-name="ucircumflex" unicode="&#xfb;" horiz-adv-x="573" 
d="M548 510l-90 -510h-124l13 73q-85 -85 -182 -85q-54 0 -91 28.5t-37 92.5q0 23 5 50l62 351h124l-61 -344q-2 -12 -2 -20q0 -54 58 -54q64 0 140 72l61 346h124zM258 561h-97l154 159h97l98 -159h-84l-71 77z" />
    <glyph glyph-name="udieresis" unicode="&#xfc;" horiz-adv-x="573" 
d="M548 510l-90 -510h-124l13 73q-85 -85 -182 -85q-54 0 -91 28.5t-37 92.5q0 23 5 50l62 351h124l-61 -344q-2 -12 -2 -20q0 -54 58 -54q64 0 140 72l61 346h124zM307 626q0 -27 -17.5 -45t-45.5 -18t-45.5 18t-17.5 45t17.5 45t45.5 18t45.5 -18t17.5 -45zM509 626
q0 -27 -17.5 -45t-45.5 -18t-45.5 18t-17.5 45t17.5 45t45.5 18t45.5 -18t17.5 -45z" />
    <glyph glyph-name="yacute" unicode="&#xfd;" horiz-adv-x="507" 
d="M-49 -210l18 100q25 -5 50 -5q44 0 74.5 25t72.5 102h-36l-75 498h129l43 -401l189 401h126l-260 -516q-63 -126 -114.5 -168t-137.5 -42q-31 0 -79 6zM331 561h-103l110 159h151z" />
    <glyph glyph-name="thorn" unicode="&#xfe;" horiz-adv-x="580" 
d="M150 720h124l-47 -269q65 71 149 71q77 0 124.5 -56t47.5 -162q0 -132 -71.5 -224t-182.5 -92q-80 0 -136 63l-46 -261h-124zM330 416q-61 0 -119 -59l-39 -224q49 -46 102 -46q69 0 109.5 58t40.5 143q0 128 -94 128z" />
    <glyph glyph-name="ydieresis" unicode="&#xff;" horiz-adv-x="507" 
d="M-49 -210l18 100q25 -5 50 -5q44 0 74.5 25t72.5 102h-36l-75 498h129l43 -401l189 401h126l-260 -516q-63 -126 -114.5 -168t-137.5 -42q-31 0 -79 6zM279 626q0 -27 -17.5 -45t-45.5 -18t-45.5 18t-17.5 45t17.5 45t45.5 18t45.5 -18t17.5 -45zM481 626
q0 -27 -17.5 -45t-45.5 -18t-45.5 18t-17.5 45t17.5 45t45.5 18t45.5 -18t17.5 -45z" />
    <glyph glyph-name="dotlessi" unicode="&#x131;" horiz-adv-x="274" 
d="M30 0l90 510h124l-90 -510h-124z" />
    <glyph glyph-name="IJ" unicode="&#x132;" horiz-adv-x="719" 
d="M47 0l127 720h126l-127 -720h-126zM288 2l19 107q41 -9 80 -9q60 0 87 28.5t38 92.5l88 499h126l-92 -521q-12 -70 -35 -112t-74.5 -67.5t-136.5 -25.5q-55 0 -100 8z" />
    <glyph glyph-name="ij" unicode="&#x133;" horiz-adv-x="547" 
d="M30 0l90 510h124l-90 -510h-124zM206 583q-33 0 -53 19.5t-20 49.5t20 49.5t53 19.5t53 -19.5t20 -49.5t-20 -49.5t-53 -19.5zM517 510l-103 -584q-13 -71 -52.5 -106.5t-120.5 -35.5q-36 0 -73 6l17 94q19 -5 38 -5q34 0 49.5 16.5t21.5 53.5l99 561h124zM479 583
q-33 0 -53 19.5t-20 49.5t20 49.5t53 19.5t53 -19.5t20 -49.5t-20 -49.5t-53 -19.5z" />
    <glyph glyph-name="Lslash" unicode="&#x141;" horiz-adv-x="536" 
d="M17 284l16 92l76 19l58 325h126l-52 -293l198 49l-16 -92l-198 -49l-40 -225h301l-19 -110h-427l53 303z" />
    <glyph glyph-name="lslash" unicode="&#x142;" horiz-adv-x="323" 
d="M26 308l15 88l87 21l54 303h124l-48 -271l87 21l-15 -88l-87 -21l-64 -361h-124l58 329z" />
    <glyph glyph-name="OE" unicode="&#x152;" horiz-adv-x="939" 
d="M851 0h-414q-58 -12 -103 -12q-127 0 -203 81t-76 232q0 116 44 212.5t134.5 157.5t211.5 61q52 0 110 -12h420l-19 -110h-303l-34 -190h261l-18 -104h-261l-38 -210h306zM353 94q41 0 85 12l89 505q-42 12 -85 12q-125 0 -193 -92.5t-68 -224.5q0 -107 46 -159.5
t126 -52.5z" />
    <glyph glyph-name="oe" unicode="&#x153;" horiz-adv-x="901" 
d="M645 81q75 0 158 43l11 -93q-86 -43 -189 -43q-129 0 -186 78q-76 -78 -189 -78q-96 0 -157 59t-61 171q0 129 77.5 216.5t198.5 87.5q120 0 178 -84q82 84 206 84q88 0 136.5 -42.5t48.5 -105.5q0 -75 -70.5 -120t-217.5 -45q-35 0 -66 3q3 -131 122 -131zM257 80
q65 0 105 61t40 147q0 69 -27 104t-74 35q-65 0 -105 -61t-40 -147q0 -69 27 -104t74 -35zM685 432q-55 0 -96.5 -39.5t-57.5 -103.5q18 -2 53 -2q177 0 177 81q0 28 -19.5 46t-56.5 18z" />
    <glyph glyph-name="Scaron" unicode="&#x160;" horiz-adv-x="582" 
d="M10 51l51 101q103 -59 189 -59q69 0 112 31t43 79q0 38 -30.5 64t-74 44t-87 39t-74 61.5t-30.5 99.5q0 98 75.5 159.5t193.5 61.5q114 0 211 -61l-51 -105q-86 57 -166 57q-60 0 -98.5 -28.5t-38.5 -70.5q0 -30 22 -52t55 -35t71 -31t71 -38t55 -58t22 -90
q0 -103 -79 -167.5t-207 -64.5q-126 0 -235 63zM486 909h99l-151 -139h-98l-102 139h87l73 -56z" />
    <glyph glyph-name="scaron" unicode="&#x161;" horiz-adv-x="463" 
d="M448 478l-42 -93q-66 41 -123 41q-37 0 -62.5 -16.5t-25.5 -42.5q0 -22 22 -36.5t53.5 -25t63 -25t53.5 -44.5t22 -75q0 -79 -61.5 -126t-163.5 -47q-103 0 -184 46l42 90q76 -43 144 -43q45 0 74 18t29 48q0 24 -22 41t-53.5 28.5t-63 25.5t-53.5 43t-22 72
q0 73 58.5 119t150.5 46q89 0 164 -44zM393 720h97l-154 -159h-97l-98 159h84l71 -77z" />
    <glyph glyph-name="Ydieresis" unicode="&#x178;" horiz-adv-x="631" 
d="M207 0l52 297l-161 423h124l115 -303l222 303h138l-311 -421l-53 -299h-126zM383 832q0 -27 -17.5 -45t-45.5 -18t-45.5 18t-17.5 45t17.5 45t45.5 18t45.5 -18t17.5 -45zM585 832q0 -27 -17.5 -45t-45.5 -18t-45.5 18t-17.5 45t17.5 45t45.5 18t45.5 -18t17.5 -45z" />
    <glyph glyph-name="Zcaron" unicode="&#x17d;" horiz-adv-x="608" 
d="M-11 0l16 90l445 520h-333l19 110h507l-16 -94l-445 -520h355l-18 -106h-530zM495 909h99l-151 -139h-98l-102 139h87l73 -56z" />
    <glyph glyph-name="zcaron" unicode="&#x17e;" horiz-adv-x="491" 
d="M-19 0l14 82l323 333h-247l17 95h409l-14 -79l-324 -333h268l-17 -98h-429zM405 720h97l-154 -159h-97l-98 159h84l71 -77z" />
    <glyph glyph-name="longs" unicode="&#x17f;" horiz-adv-x="342" 
d="M48 414l17 96h86l13 74q13 71 52.5 106.5t120.5 35.5q35 0 73 -6l-17 -94q-19 5 -38 5q-34 0 -49.5 -16.5t-21.5 -53.5l-99 -561h-124l73 414h-86z" />
    <glyph glyph-name="florin" unicode="&#x192;" horiz-adv-x="465" 
d="M460 638q-43 0 -64.5 -20.5t-34.5 -65.5l-42 -148h151l-15 -82h-159l-91 -322h-122l91 322h-135l15 82h143l48 169q23 82 67.5 120.5t142.5 38.5q40 0 72 -5l-17 -94q-28 5 -50 5z" />
    <glyph glyph-name="uni02BB" unicode="&#x2bb;" horiz-adv-x="275" 
d="M179 417q-39 0 -64 28t-25 77q0 123 180 209l46 -62q-104 -47 -131 -109q32 -2 50.5 -21.5t18.5 -48.5q0 -31 -20.5 -52t-54.5 -21z" />
    <glyph glyph-name="uni02BC" unicode="&#x2bc;" horiz-adv-x="275" 
d="M208 731q39 0 64 -28t25 -77q0 -123 -180 -209l-46 62q104 47 131 109q-32 2 -50.5 21.5t-18.5 48.5q0 31 20.5 52t54.5 21z" />
    <glyph glyph-name="circumflex" unicode="&#x2c6;" horiz-adv-x="500" 
d="M226 561h-97l154 159h97l98 -159h-84l-71 77z" />
    <glyph glyph-name="caron" unicode="&#x2c7;" horiz-adv-x="500" 
d="M410 720h97l-154 -159h-97l-98 159h84l71 -77z" />
    <glyph glyph-name="breve" unicode="&#x2d8;" horiz-adv-x="500" 
d="M316 567q-76 0 -114.5 31.5t-38.5 88.5q0 15 3 33h70q-1 -36 17.5 -53.5t65.5 -17.5q48 0 72 17.5t35 53.5h70q-13 -75 -54.5 -114t-125.5 -39z" />
    <glyph glyph-name="dotaccent" unicode="&#x2d9;" horiz-adv-x="500" 
d="M315 561q-33 0 -53 19.5t-20 49.5t20 49.5t53 19.5t53 -19.5t20 -49.5t-20 -49.5t-53 -19.5z" />
    <glyph glyph-name="ring" unicode="&#x2da;" horiz-adv-x="500" 
d="M319 611q20 0 32 12.5t12 31.5t-12 31.5t-32 12.5t-32 -12.5t-12 -31.5t12 -31.5t32 -12.5zM319 558q-42 0 -70 28t-28 69t28 69t70 28t70 -28t28 -69t-28 -69t-70 -28z" />
    <glyph glyph-name="ogonek" unicode="&#x2db;" horiz-adv-x="500" 
d="M185 -99q0 -30 39 -30q15 0 32 4l5 -69q-21 -5 -54 -5q-113 0 -113 88q0 36 24 63t78 48h99q-110 -48 -110 -99z" />
    <glyph glyph-name="tilde" unicode="&#x2dc;" horiz-adv-x="500" 
d="M203 567h-73q23 133 112 133q36 0 83.5 -27t63.5 -27q31 0 40 48h73q-23 -133 -112 -133q-36 0 -83.5 27t-63.5 27q-31 0 -40 -48z" />
    <glyph glyph-name="hungarumlaut" unicode="&#x2dd;" horiz-adv-x="500" 
d="M228 561h-103l110 159h151zM409 561h-103l126 159h151z" />
    <glyph glyph-name="gravecomb" unicode="&#x300;" horiz-adv-x="1" 
d="M127 561h-95l-110 159h132z" />
    <glyph glyph-name="acutecomb" unicode="&#x301;" horiz-adv-x="1" 
d="M67 561h-103l110 159h151z" />
    <glyph glyph-name="uni0302" unicode="&#x302;" horiz-adv-x="1" 
d="M-32 561h-97l154 159h97l98 -159h-84l-71 77z" />
    <glyph glyph-name="tildecomb" unicode="&#x303;" horiz-adv-x="1" 
d="M-55 567h-73q23 133 112 133q36 0 83.5 -27t63.5 -27q31 0 40 48h73q-23 -133 -112 -133q-36 0 -83.5 27t-63.5 27q-31 0 -40 -48z" />
    <glyph glyph-name="uni0304" unicode="&#x304;" horiz-adv-x="1" 
d="M-102 570l15 85h322l-15 -85h-322z" />
    <glyph glyph-name="uni0306" unicode="&#x306;" horiz-adv-x="1" 
d="M70 567q-76 0 -114.5 31.5t-38.5 88.5q0 15 3 33h70q-1 -36 17.5 -53.5t65.5 -17.5q48 0 72 17.5t35 53.5h70q-13 -75 -54.5 -114t-125.5 -39z" />
    <glyph glyph-name="uni0307" unicode="&#x307;" horiz-adv-x="1" 
d="M139 579q-33 0 -53 19.5t-20 49.5t20 49.5t53 19.5t53 -19.5t20 -49.5t-20 -49.5t-53 -19.5z" />
    <glyph glyph-name="uni0308" unicode="&#x308;" horiz-adv-x="1" 
d="M30 626q0 -27 -17.5 -45t-45.5 -18t-45.5 18t-17.5 45t17.5 45t45.5 18t45.5 -18t17.5 -45zM232 626q0 -27 -17.5 -45t-45.5 -18t-45.5 18t-17.5 45t17.5 45t45.5 18t45.5 -18t17.5 -45z" />
    <glyph glyph-name="uni030A" unicode="&#x30a;" horiz-adv-x="1" 
d="M73 611q20 0 32 12.5t12 31.5t-12 31.5t-32 12.5t-32 -12.5t-12 -31.5t12 -31.5t32 -12.5zM73 558q-42 0 -70 28t-28 69t28 69t70 28t70 -28t28 -69t-28 -69t-70 -28z" />
    <glyph glyph-name="uni030B" unicode="&#x30b;" horiz-adv-x="1" 
d="M-18 561h-103l110 159h151zM163 561h-103l126 159h151z" />
    <glyph glyph-name="uni030C" unicode="&#x30c;" horiz-adv-x="1" 
d="M169 720h97l-154 -159h-97l-98 159h84l71 -77z" />
    <glyph glyph-name="uni0312" unicode="&#x312;" horiz-adv-x="1" 
d="M168 777l28 -57q-58 -20 -81 -48q23 -4 36.5 -19.5t13.5 -37.5q0 -26 -18.5 -41.5t-47.5 -15.5q-32 0 -52 20.5t-20 56.5q0 91 141 142z" />
    <glyph glyph-name="uni0313" unicode="&#x313;" horiz-adv-x="1" 
d="M40 611q58 20 81 48q-23 4 -36.5 19.5t-13.5 37.5q0 26 18.5 41.5t47.5 15.5q32 0 52 -20.5t20 -56.5q0 -91 -141 -142z" />
    <glyph glyph-name="uni0326" unicode="&#x326;" horiz-adv-x="1" 
d="M-155 -194q58 20 81 48q-23 4 -36.5 19.5t-13.5 37.5q0 26 18.5 41.5t47.5 15.5q32 0 52 -20.5t20 -56.5q0 -91 -141 -142z" />
    <glyph glyph-name="uni0327" unicode="&#x327;" horiz-adv-x="1" 
d="M62 -94q0 -49 -36.5 -77t-100.5 -28q-60 0 -116 30l28 62q41 -23 77 -23q26 0 41 11.5t15 28.5q0 40 -67 52l22 44q137 -9 137 -100z" />
    <glyph glyph-name="uni0328" unicode="&#x328;" horiz-adv-x="1" 
d="M-60 -99q0 -30 39 -30q15 0 32 4l5 -69q-21 -5 -54 -5q-113 0 -113 88q0 36 24 63t78 48h99q-110 -48 -110 -99z" />
    <glyph glyph-name="uni0335" unicode="&#x335;" horiz-adv-x="1" 
d="M-176 231l19 107h352l-19 -107h-352z" />
    <glyph glyph-name="uni0336" unicode="&#x336;" horiz-adv-x="1" 
d="M-447 231l19 107h899l-19 -107h-899z" />
    <glyph glyph-name="uni037E" unicode="&#x37e;" horiz-adv-x="292" 
d="M104 140q39 0 64 -28t25 -77q0 -123 -180 -209l-46 62q104 47 131 109q-32 2 -50.5 21.5t-18.5 48.5q0 31 20.5 52t54.5 21zM248 419q0 -33 -21.5 -54.5t-55.5 -21.5t-55.5 21.5t-21.5 54.5t21.5 54.5t55.5 21.5t55.5 -21.5t21.5 -54.5z" />
    <glyph glyph-name="uni0394" unicode="&#x394;" horiz-adv-x="686" 
d="M502 720l102 -630l-16 -90h-580l16 90l329 630h149zM405 594l-241 -488h312z" />
    <glyph glyph-name="uni03A9" unicode="&#x3a9;" horiz-adv-x="720" 
d="M411 623q-96 0 -158 -74t-62 -199q0 -136 98 -260l-16 -90h-291l18 106h161q-96 99 -96 252q0 162 99.5 268t249.5 106q129 0 210 -81t81 -218q0 -98 -44 -182.5t-127 -144.5h153l-18 -106h-287l16 90q91 78 136 155t45 175q0 101 -45.5 152t-122.5 51z" />
    <glyph glyph-name="uni03BC" unicode="&#x3bc;" horiz-adv-x="582" 
d="M434 510h124l-90 -510h-124l13 73q-85 -85 -179 -85q-26 0 -46 7q-6 -92 -25 -205h-119l126 720h124l-61 -344q-2 -12 -2 -20q0 -54 58 -54q64 0 140 72z" />
    <glyph glyph-name="pi" unicode="&#x3c0;" horiz-adv-x="625" 
d="M48 414l17 96h574l-17 -96h-77l-49 -270q-2 -16 -2 -24q0 -32 32 -32q21 0 39 6l-16 -91q-34 -9 -69 -9q-112 0 -112 105q0 17 5 49l48 266h-172q-43 -239 -89 -414h-127q47 163 92 414h-77z" />
    <glyph glyph-name="uni1E9E" unicode="&#x1e9e;" horiz-adv-x="1144" 
d="M572 51l51 101q103 -59 189 -59q69 0 112 31t43 79q0 38 -30.5 64t-74 44t-87 39t-74 61.5t-30.5 99.5q0 98 75.5 159.5t193.5 61.5q114 0 211 -61l-51 -105q-86 57 -166 57q-60 0 -98.5 -28.5t-38.5 -70.5q0 -30 22 -52t55 -35t71 -31t71 -38t55 -58t22 -90
q0 -103 -79 -167.5t-207 -64.5q-126 0 -235 63zM10 51l51 101q103 -59 189 -59q69 0 112 31t43 79q0 38 -30.5 64t-74 44t-87 39t-74 61.5t-30.5 99.5q0 98 75.5 159.5t193.5 61.5q114 0 211 -61l-51 -105q-86 57 -166 57q-60 0 -98.5 -28.5t-38.5 -70.5q0 -30 22 -52
t55 -35t71 -31t71 -38t55 -58t22 -90q0 -103 -79 -167.5t-207 -64.5q-126 0 -235 63z" />
    <glyph glyph-name="uni2007" unicode="&#x2007;" horiz-adv-x="636" 
 />
    <glyph glyph-name="uni2008" unicode="&#x2008;" horiz-adv-x="292" 
 />
    <glyph glyph-name="uni200B" unicode="&#x200b;" horiz-adv-x="0" 
 />
    <glyph glyph-name="endash" unicode="&#x2013;" horiz-adv-x="500" 
d="M51 258l18 107h400l-18 -107h-400z" />
    <glyph glyph-name="emdash" unicode="&#x2014;" 
d="M51 258l18 107h900l-18 -107h-900z" />
    <glyph glyph-name="quoteleft" unicode="&#x2018;" horiz-adv-x="275" 
d="M179 417q-39 0 -64 28t-25 77q0 123 180 209l46 -62q-104 -47 -131 -109q32 -2 50.5 -21.5t18.5 -48.5q0 -31 -20.5 -52t-54.5 -21z" />
    <glyph glyph-name="quoteright" unicode="&#x2019;" horiz-adv-x="275" 
d="M208 731q39 0 64 -28t25 -77q0 -123 -180 -209l-46 62q104 47 131 109q-32 2 -50.5 21.5t-18.5 48.5q0 31 20.5 52t54.5 21z" />
    <glyph glyph-name="quotesinglbase" unicode="&#x201a;" horiz-adv-x="275" 
d="M104 140q39 0 64 -28t25 -77q0 -123 -180 -209l-46 62q104 47 131 109q-32 2 -50.5 21.5t-18.5 48.5q0 31 20.5 52t54.5 21z" />
    <glyph glyph-name="quotedblleft" unicode="&#x201c;" horiz-adv-x="486" 
d="M389 417q-39 0 -64 28t-25 77q0 123 180 209l46 -62q-104 -47 -131 -109q32 -2 50.5 -21.5t18.5 -48.5q0 -31 -20.5 -52t-54.5 -21zM179 417q-39 0 -64 28t-25 77q0 123 180 209l46 -62q-104 -47 -131 -109q32 -2 50.5 -21.5t18.5 -48.5q0 -31 -20.5 -52t-54.5 -21z" />
    <glyph glyph-name="quotedblright" unicode="&#x201d;" horiz-adv-x="486" 
d="M419 731q39 0 64 -28t25 -77q0 -123 -180 -209l-46 62q104 47 131 109q-32 2 -50.5 21.5t-18.5 48.5q0 31 20.5 52t54.5 21zM208 731q39 0 64 -28t25 -77q0 -123 -180 -209l-46 62q104 47 131 109q-32 2 -50.5 21.5t-18.5 48.5q0 31 20.5 52t54.5 21z" />
    <glyph glyph-name="quotedblbase" unicode="&#x201e;" horiz-adv-x="486" 
d="M314 140q39 0 64 -28t25 -77q0 -123 -180 -209l-46 62q104 47 131 109q-32 2 -50.5 21.5t-18.5 48.5q0 31 20.5 52t54.5 21zM104 140q39 0 64 -28t25 -77q0 -123 -180 -209l-46 62q104 47 131 109q-32 2 -50.5 21.5t-18.5 48.5q0 31 20.5 52t54.5 21z" />
    <glyph glyph-name="dagger" unicode="&#x2020;" horiz-adv-x="572" 
d="M166 -83l100 478l-176 -12l19 108l170 -12l21 201h121l-49 -201l174 12l-19 -108l-172 12l-68 -478h-121z" />
    <glyph glyph-name="daggerdbl" unicode="&#x2021;" horiz-adv-x="572" 
d="M421 680l-46 -181l174 12l-19 -108l-172 12l-41 -233l176 12l-19 -108l-170 12l-18 -181h-121l46 181l-174 -12l19 108l172 -12l41 233l-176 -12l19 108l170 -12l18 181h121z" />
    <glyph glyph-name="bullet" unicode="&#x2022;" horiz-adv-x="463" 
d="M246 222q-55 0 -91.5 36.5t-36.5 92.5t36.5 92.5t91.5 36.5t91.5 -36.5t36.5 -92.5t-36.5 -92.5t-91.5 -36.5z" />
    <glyph glyph-name="onedotenleader" unicode="&#x2024;" horiz-adv-x="292" 
d="M187 64q0 -33 -21.5 -54.5t-55.5 -21.5t-55.5 21.5t-21.5 54.5t21.5 54.5t55.5 21.5t55.5 -21.5t21.5 -54.5z" />
    <glyph glyph-name="twodotenleader" unicode="&#x2025;" horiz-adv-x="533" 
d="M187 64q0 -33 -21.5 -54.5t-55.5 -21.5t-55.5 21.5t-21.5 54.5t21.5 54.5t55.5 21.5t55.5 -21.5t21.5 -54.5zM427 64q0 -33 -21.5 -54.5t-55.5 -21.5t-55.5 21.5t-21.5 54.5t21.5 54.5t55.5 21.5t55.5 -21.5t21.5 -54.5z" />
    <glyph glyph-name="ellipsis" unicode="&#x2026;" horiz-adv-x="772" 
d="M187 64q0 -33 -21.5 -54.5t-55.5 -21.5t-55.5 21.5t-21.5 54.5t21.5 54.5t55.5 21.5t55.5 -21.5t21.5 -54.5zM427 64q0 -33 -21.5 -54.5t-55.5 -21.5t-55.5 21.5t-21.5 54.5t21.5 54.5t55.5 21.5t55.5 -21.5t21.5 -54.5zM667 64q0 -33 -21.5 -54.5t-55.5 -21.5
t-55.5 21.5t-21.5 54.5t21.5 54.5t55.5 21.5t55.5 -21.5t21.5 -54.5z" />
    <glyph glyph-name="perthousand" unicode="&#x2030;" horiz-adv-x="1148" 
d="M911 65q39 0 60 34.5t21 80.5q0 77 -58 77q-39 0 -60 -34.5t-21 -80.5q0 -77 58 -77zM910 -6q-68 0 -108.5 42t-40.5 110q0 76 48.5 129.5t125.5 53.5q68 0 108.5 -42t40.5 -110q0 -76 -48.5 -129.5t-125.5 -53.5zM74 0l568 720h112l-568 -720h-112zM561 65q39 0 60 34.5
t21 80.5q0 77 -58 77q-39 0 -60 -34.5t-21 -80.5q0 -77 58 -77zM560 -6q-68 0 -108.5 42t-40.5 110q0 76 48.5 129.5t125.5 53.5q68 0 108.5 -42t40.5 -110q0 -76 -48.5 -129.5t-125.5 -53.5zM244 462q39 0 60 34.5t21 80.5q0 77 -58 77q-39 0 -60 -34.5t-21 -80.5
q0 -77 58 -77zM243 391q-68 0 -108.5 42t-40.5 110q0 76 48.5 129.5t125.5 53.5q68 0 108.5 -42t40.5 -110q0 -76 -48.5 -129.5t-125.5 -53.5z" />
    <glyph glyph-name="minute" unicode="&#x2032;" horiz-adv-x="192" 
d="M65 445l76 275h103l-91 -275h-88z" />
    <glyph glyph-name="second" unicode="&#x2033;" horiz-adv-x="370" 
d="M243 445l76 275h103l-91 -275h-88zM65 445l76 275h103l-91 -275h-88z" />
    <glyph glyph-name="guilsinglleft" unicode="&#x2039;" horiz-adv-x="330" 
d="M137 24l-103 231l173 231h120l-175 -239l93 -223h-108z" />
    <glyph glyph-name="guilsinglright" unicode="&#x203a;" horiz-adv-x="330" 
d="M192 486l103 -231l-173 -231h-120l175 239l-93 223h108z" />
    <glyph glyph-name="exclamdbl" unicode="&#x203c;" horiz-adv-x="567" 
d="M131 -12q-33 0 -53.5 20.5t-20.5 50.5t20.5 50.5t53.5 20.5t53.5 -20.5t20.5 -50.5t-20.5 -50.5t-53.5 -20.5zM109 214l66 506h143l-112 -506h-97zM369 -12q-33 0 -53.5 20.5t-20.5 50.5t20.5 50.5t53.5 20.5t53.5 -20.5t20.5 -50.5t-20.5 -50.5t-53.5 -20.5zM347 214
l66 506h143l-112 -506h-97z" />
    <glyph glyph-name="fraction" unicode="&#x2044;" horiz-adv-x="72" 
d="M-234 0l573 720h107l-573 -720h-107z" />
    <glyph glyph-name="uni2070" unicode="&#x2070;" horiz-adv-x="403" 
d="M243 444q52 0 81.5 57.5t29.5 137.5q0 121 -72 121q-52 0 -81.5 -57.5t-29.5 -137.5q0 -121 72 -121zM239 372q-70 0 -112 50.5t-42 144.5q0 110 55.5 188.5t145.5 78.5q70 0 112 -50.5t42 -144.5q0 -110 -55.5 -188.5t-145.5 -78.5z" />
    <glyph glyph-name="uni2071" unicode="&#x2071;" horiz-adv-x="207" 
d="M83 380l56 316h85l-56 -316h-85zM196 832q22 0 35.5 -13.5t13.5 -34.5t-13.5 -34.5t-35.5 -13.5t-35.5 13.5t-13.5 34.5t13.5 34.5t35.5 13.5z" />
    <glyph glyph-name="uni2074" unicode="&#x2074;" horiz-adv-x="390" 
d="M55 468l12 68l239 290h107l-51 -287h65l-12 -71h-65l-16 -88h-84l16 88h-211zM154 539h124l35 193z" />
    <glyph glyph-name="uni2075" unicode="&#x2075;" horiz-adv-x="345" 
d="M288 527q0 69 -94 69q-49 0 -103 -16l52 246h262l-13 -74h-182l-19 -90q24 2 35 2q67 0 107.5 -35.5t40.5 -100.5q0 -72 -51 -114t-135 -42q-76 0 -146 34l35 70q57 -32 108 -32q49 0 76 22t27 61z" />
    <glyph glyph-name="uni2076" unicode="&#x2076;" horiz-adv-x="376" 
d="M307 834q73 0 121 -33l-35 -70q-49 29 -90 29q-53 0 -85.5 -34t-43.5 -92q43 42 102 42q58 0 93 -37t35 -101q0 -75 -46.5 -120.5t-114.5 -45.5q-71 0 -114.5 53t-43.5 148q0 112 59 186.5t163 74.5zM254 607q-38 0 -85 -41q1 -123 77 -123q33 0 54 24.5t21 64.5
q0 36 -17.5 55.5t-49.5 19.5z" />
    <glyph glyph-name="uni2077" unicode="&#x2077;" horiz-adv-x="325" 
d="M103 749l14 77h294l-13 -72q-100 -148 -222 -374h-99q125 231 219 369h-193z" />
    <glyph glyph-name="uni2078" unicode="&#x2078;" horiz-adv-x="371" 
d="M219 372q-73 0 -116.5 32t-43.5 87q0 47 31 74t87 48q-60 34 -60 95q0 56 44.5 91t113.5 35q64 0 102.5 -30.5t38.5 -80.5q0 -73 -96 -109q77 -42 77 -108q0 -61 -49.5 -97.5t-128.5 -36.5zM201 714q0 -37 59 -67q73 29 73 72q0 23 -16.5 36t-45.5 13q-31 0 -50.5 -14.5
t-19.5 -39.5zM223 436q38 0 63 17t25 48q0 27 -19 44t-55 35q-29 -11 -45.5 -19.5t-31.5 -26t-15 -39.5q0 -28 21 -43.5t57 -15.5z" />
    <glyph glyph-name="uni2079" unicode="&#x2079;" horiz-adv-x="376" 
d="M192 372q-73 0 -121 33l35 68q49 -29 90 -29q53 0 85.5 34.5t43.5 93.5q-43 -42 -102 -42q-58 0 -93 37t-35 101q0 75 46.5 120.5t114.5 45.5q71 0 114.5 -53t43.5 -148q0 -112 -59 -186.5t-163 -74.5zM245 597q38 0 85 41q-3 123 -77 123q-33 0 -54 -24.5t-21 -64.5
q0 -36 17.5 -55.5t49.5 -19.5z" />
    <glyph glyph-name="uni207A" unicode="&#x207a;" horiz-adv-x="364" 
d="M238 380h-68l22 123h-117l12 70h117l22 123h68l-22 -123h117l-12 -70h-117z" />
    <glyph glyph-name="uni207B" unicode="&#x207b;" horiz-adv-x="364" 
d="M389 573l-12 -70h-302l12 70h302z" />
    <glyph glyph-name="uni207C" unicode="&#x207c;" horiz-adv-x="364" 
d="M377 506l-11 -63h-302l11 63h302zM400 633l-12 -63h-302l12 63h302z" />
    <glyph glyph-name="uni207D" unicode="&#x207d;" horiz-adv-x="236" 
d="M156 507q0 -124 69 -208l-50 -34q-104 99 -104 242q0 51 14 97.5t33 78.5t50.5 64.5t53.5 50t55 41.5l35 -49q-72 -53 -114 -119.5t-42 -163.5z" />
    <glyph glyph-name="uni207E" unicode="&#x207e;" horiz-adv-x="236" 
d="M183 597q0 124 -69 208l50 34q104 -99 104 -242q0 -51 -14 -97.5t-33 -78.5t-50.5 -64.5t-53.5 -50t-55 -41.5l-35 49q72 53 114 119.5t42 163.5z" />
    <glyph glyph-name="uni207F" unicode="&#x207f;" horiz-adv-x="365" 
d="M66 380l56 316h86l-8 -44q49 52 109 52q34 0 57 -18.5t23 -58.5q0 -17 -2 -27l-39 -220h-86l37 209q2 12 2 16q0 25 -32 25q-37 0 -80 -41l-37 -209h-86z" />
    <glyph glyph-name="uni2080" unicode="&#x2080;" horiz-adv-x="403" 
d="M157 -42q52 0 81.5 57.5t29.5 137.5q0 121 -72 121q-52 0 -81.5 -57.5t-29.5 -137.5q0 -121 72 -121zM153 -114q-70 0 -112 50.5t-42 144.5q0 110 55.5 188.5t145.5 78.5q70 0 112 -50.5t42 -144.5q0 -110 -55.5 -188.5t-145.5 -78.5z" />
    <glyph glyph-name="uni2081" unicode="&#x2081;" horiz-adv-x="248" 
d="M34 211l-13 74l114 55h69l-79 -446h-86l62 350z" />
    <glyph glyph-name="uni2082" unicode="&#x2082;" horiz-adv-x="359" 
d="M225 217q0 54 -60 54q-62 0 -121 -61l-13 77q57 61 147 61q62 0 97.5 -33.5t35.5 -90.5q0 -61 -47.5 -119t-156.5 -139h169l-12 -72h-301l10 64q141 97 196.5 155.5t55.5 103.5z" />
    <glyph glyph-name="uni2083" unicode="&#x2083;" horiz-adv-x="351" 
d="M170 348q62 0 100.5 -28.5t38.5 -80.5q0 -85 -105 -119q78 -25 78 -99q0 -62 -50 -98.5t-133 -36.5q-82 0 -145 35l33 68q60 -32 111 -32q44 0 69.5 18t25.5 50q0 59 -98 59q-9 0 -45 -2l11 67q163 0 163 75q0 50 -64 50q-49 0 -112 -37l-9 74q60 37 131 37z" />
    <glyph glyph-name="uni2084" unicode="&#x2084;" horiz-adv-x="390" 
d="M-31 -18l12 68l239 290h107l-51 -287h65l-12 -71h-65l-16 -88h-84l16 88h-211zM68 53h124l35 193z" />
    <glyph glyph-name="uni2085" unicode="&#x2085;" horiz-adv-x="345" 
d="M202 41q0 69 -94 69q-49 0 -103 -16l52 246h262l-13 -74h-182l-19 -90q24 2 35 2q67 0 107.5 -35.5t40.5 -100.5q0 -72 -51 -114t-135 -42q-76 0 -146 34l35 70q57 -32 108 -32q49 0 76 22t27 61z" />
    <glyph glyph-name="uni2086" unicode="&#x2086;" horiz-adv-x="376" 
d="M221 348q73 0 121 -33l-35 -70q-49 29 -90 29q-53 0 -85.5 -34t-43.5 -92q43 42 102 42q58 0 93 -37t35 -101q0 -75 -46.5 -120.5t-114.5 -45.5q-71 0 -114.5 53t-43.5 148q0 112 59 186.5t163 74.5zM168 121q-38 0 -85 -41q1 -123 77 -123q33 0 54 24.5t21 64.5
q0 36 -17.5 55.5t-49.5 19.5z" />
    <glyph glyph-name="uni2087" unicode="&#x2087;" horiz-adv-x="325" 
d="M17 263l14 77h294l-13 -72q-100 -148 -222 -374h-99q125 231 219 369h-193z" />
    <glyph glyph-name="uni2088" unicode="&#x2088;" horiz-adv-x="371" 
d="M133 -114q-73 0 -116.5 32t-43.5 87q0 47 31 74t87 48q-60 34 -60 95q0 56 44.5 91t113.5 35q64 0 102.5 -30.5t38.5 -80.5q0 -73 -96 -109q77 -42 77 -108q0 -61 -49.5 -97.5t-128.5 -36.5zM115 228q0 -37 59 -67q73 29 73 72q0 23 -16.5 36t-45.5 13q-31 0 -50.5 -14.5
t-19.5 -39.5zM137 -50q38 0 63 17t25 48q0 27 -19 44t-55 35q-29 -11 -45.5 -19.5t-31.5 -26t-15 -39.5q0 -28 21 -43.5t57 -15.5z" />
    <glyph glyph-name="uni2089" unicode="&#x2089;" horiz-adv-x="376" 
d="M106 -114q-73 0 -121 33l35 68q49 -29 90 -29q53 0 85.5 34.5t43.5 93.5q-43 -42 -102 -42q-58 0 -93 37t-35 101q0 75 46.5 120.5t114.5 45.5q71 0 114.5 -53t43.5 -148q0 -112 -59 -186.5t-163 -74.5zM159 111q38 0 85 41q-3 123 -77 123q-33 0 -54 -24.5t-21 -64.5
q0 -36 17.5 -55.5t49.5 -19.5z" />
    <glyph glyph-name="uni208A" unicode="&#x208a;" horiz-adv-x="364" 
d="M152 -106h-68l22 123h-117l12 70h117l22 123h68l-22 -123h117l-12 -70h-117z" />
    <glyph glyph-name="uni208B" unicode="&#x208b;" horiz-adv-x="364" 
d="M303 87l-12 -70h-302l12 70h302z" />
    <glyph glyph-name="uni208C" unicode="&#x208c;" horiz-adv-x="364" 
d="M291 20l-11 -63h-302l11 63h302zM314 147l-12 -63h-302l12 63h302z" />
    <glyph glyph-name="uni208D" unicode="&#x208d;" horiz-adv-x="236" 
d="M70 21q0 -124 69 -208l-50 -34q-104 99 -104 242q0 51 14 97.5t33 78.5t50.5 64.5t53.5 50t55 41.5l35 -49q-72 -53 -114 -119.5t-42 -163.5z" />
    <glyph glyph-name="uni208E" unicode="&#x208e;" horiz-adv-x="236" 
d="M97 111q0 124 -69 208l50 34q104 -99 104 -242q0 -51 -14 -97.5t-33 -78.5t-50.5 -64.5t-53.5 -50t-55 -41.5l-35 49q72 53 114 119.5t42 163.5z" />
    <glyph glyph-name="Euro" unicode="&#x20ac;" horiz-adv-x="625" 
d="M42 390l15 82h93q39 118 125.5 189t207.5 71q101 0 174 -54l-50 -100q-68 50 -134 50q-69 0 -119.5 -42t-78.5 -114h222l-15 -82h-230q-6 -42 -7 -65h226l-15 -82h-208q19 -155 139 -155q74 0 148 55l14 -101q-83 -54 -180 -54q-103 0 -167.5 65.5t-76.5 189.5h-109
l15 82h93q2 34 6 65h-88z" />
    <glyph glyph-name="uni20B1" unicode="&#x20b1;" horiz-adv-x="639" 
d="M39 445l15 82h85l34 193h218q107 0 169.5 -48.5t67.5 -144.5h64l-14 -82h-56q-20 -89 -94 -138.5t-195 -49.5h-117l-45 -257h-125l78 445h-85zM233 351h102q132 0 162 94h-247zM281 622l-17 -95h241q-10 95 -122 95h-102z" />
    <glyph glyph-name="uni20B4" unicode="&#x20b4;" horiz-adv-x="600" 
d="M44 390l15 82h369q36 29 36 72q0 40 -27.5 62t-75.5 22q-80 0 -173 -60l-14 105q98 59 204 59q97 0 154 -48.5t57 -134.5q0 -43 -16 -77h46l-15 -82h-110q-16 -10 -39 -20.5t-39 -16t-47 -15.5t-40 -13h264l-15 -82h-389q-21 -27 -21 -61q0 -45 33 -69.5t91 -24.5
q88 0 193 61l14 -101q-105 -60 -224 -60q-108 0 -170 49t-62 142q0 37 10 64h-35l15 82h81q31 26 133 65h-203z" />
    <glyph glyph-name="uni2113" unicode="&#x2113;" horiz-adv-x="572" 
d="M31 304q48 0 100 5l43 238q16 89 64 137t123 48q74 0 120 -47t46 -135q0 -108 -73.5 -191t-216.5 -120l-5 -30q-5 -28 -5 -46q0 -44 22.5 -62.5t68.5 -18.5q56 0 110 30l11 -93q-57 -31 -140 -31q-190 0 -190 165q0 29 6 65q-41 -4 -99 -4zM290 535l-35 -198
q87 32 130 88t43 126q0 84 -59 84q-61 0 -79 -100z" />
    <glyph glyph-name="uni2116" unicode="&#x2116;" horiz-adv-x="1076" 
d="M903 428q39 0 60 34.5t21 80.5q0 77 -58 77q-39 0 -60 -34.5t-21 -80.5q0 -77 58 -77zM902 357q-68 0 -108.5 42t-40.5 110q0 76 48.5 129.5t125.5 53.5q68 0 108.5 -42t40.5 -110q0 -76 -48.5 -129.5t-125.5 -53.5zM39 0l127 720h135l214 -492l87 492h117l-127 -720
h-105l-236 543l-95 -543h-117z" />
    <glyph glyph-name="uni2117" unicode="&#x2117;" horiz-adv-x="838" 
d="M305 541h146q70 0 108.5 -30.5t38.5 -88.5q0 -59 -40 -89t-113 -30h-50v-128h-90v366zM432 49q130 0 219 88.5t89 222.5t-89 222.5t-219 88.5t-219 -88.5t-89 -222.5t89 -222.5t219 -88.5zM432 -12q-157 0 -264.5 106.5t-107.5 265.5t107.5 265.5t264.5 106.5
t264.5 -106.5t107.5 -265.5t-107.5 -265.5t-264.5 -106.5zM395 371h48q63 0 63 49t-63 49h-48v-98z" />
    <glyph glyph-name="uni2120" unicode="&#x2120;" horiz-adv-x="794" 
d="M592 380h-72l-27 177q-7 40 -9 73h-2q-5 -28 -17 -79l-42 -171h-77l93 340h103l22 -179q6 -45 7 -72h2q14 37 32 72l94 179h101l-30 -340h-81l19 161q6 53 13 89h-2q-15 -37 -34 -73zM56 401l28 62q52 -26 93 -26q28 0 46.5 11.5t18.5 29.5t-21.5 32t-47 22.5t-47 31
t-21.5 55.5q0 47 38 77.5t101 30.5q60 0 108 -27l-28 -65q-45 25 -80 25q-25 0 -40.5 -9.5t-15.5 -25.5t21.5 -28.5t47 -20t47 -30.5t21.5 -58q0 -52 -41.5 -83.5t-108.5 -31.5q-66 0 -119 28z" />
    <glyph glyph-name="trademark" unicode="&#x2122;" horiz-adv-x="781" 
d="M579 380h-72l-27 177q-7 40 -9 73h-2q-5 -28 -17 -79l-42 -171h-77l93 340h103l22 -179q6 -45 7 -72h2q14 37 32 72l94 179h101l-30 -340h-81l19 161q6 53 13 89h-2q-15 -37 -34 -73zM132 380l48 272h-95l12 68h273l-12 -68h-95l-48 -272h-83z" />
    <glyph glyph-name="Omega" unicode="&#x2126;" horiz-adv-x="720" 
d="M411 623q-96 0 -158 -74t-62 -199q0 -136 98 -260l-16 -90h-291l18 106h161q-96 99 -96 252q0 162 99.5 268t249.5 106q129 0 210 -81t81 -218q0 -98 -44 -182.5t-127 -144.5h153l-18 -106h-287l16 90q91 78 136 155t45 175q0 101 -45.5 152t-122.5 51z" />
    <glyph glyph-name="estimated" unicode="&#x212e;" horiz-adv-x="736" 
d="M371 21q108 0 176 75h68q-43 -50 -107 -79t-137 -29q-127 0 -217.5 81t-90.5 196t90.5 196t217.5 81t217.5 -81t90.5 -196v-17h-466v-170q70 -57 158 -57zM371 509q-88 0 -158 -57v-171h316v171q-70 57 -158 57z" />
    <glyph glyph-name="uni2150" unicode="&#x2150;" horiz-adv-x="822" 
d="M40 0l573 720h107l-573 -720h-107zM97 591l-13 74l114 55h69l-79 -446h-86l62 350zM540 369l14 77h294l-13 -72q-100 -148 -222 -374h-99q125 231 219 369h-193z" />
    <glyph glyph-name="uni2151" unicode="&#x2151;" horiz-adv-x="824" 
d="M40 0l573 720h107l-573 -720h-107zM581 -5q-73 0 -121 33l35 68q49 -29 90 -29q53 0 85.5 34.5t43.5 93.5q-43 -42 -102 -42q-58 0 -93 37t-35 101q0 75 46.5 120.5t114.5 45.5q71 0 114.5 -53t43.5 -148q0 -112 -59 -186.5t-163 -74.5zM634 220q38 0 85 41
q-3 123 -77 123q-33 0 -54 -24.5t-21 -64.5q0 -36 17.5 -55.5t49.5 -19.5zM97 591l-13 74l114 55h69l-79 -446h-86l62 350z" />
    <glyph glyph-name="uni2152" unicode="&#x2152;" horiz-adv-x="1109" 
d="M40 0l573 720h107l-573 -720h-107zM120 591l-13 74l114 55h69l-79 -446h-86l62 350zM553 317l-13 74l114 55h69l-79 -446h-86l62 350zM889 64q52 0 81.5 57.5t29.5 137.5q0 121 -72 121q-52 0 -81.5 -57.5t-29.5 -137.5q0 -121 72 -121zM885 -8q-70 0 -112 50.5
t-42 144.5q0 110 55.5 188.5t145.5 78.5q70 0 112 -50.5t42 -144.5q0 -110 -55.5 -188.5t-145.5 -78.5z" />
    <glyph glyph-name="onethird" unicode="&#x2153;" horiz-adv-x="821" 
d="M40 0l573 720h107l-573 -720h-107zM666 454q62 0 100.5 -28.5t38.5 -80.5q0 -85 -105 -119q78 -25 78 -99q0 -62 -50 -98.5t-133 -36.5q-82 0 -145 35l33 68q60 -32 111 -32q44 0 69.5 18t25.5 50q0 59 -98 59q-9 0 -45 -2l11 67q163 0 163 75q0 50 -64 50
q-49 0 -112 -37l-9 74q60 37 131 37zM97 591l-13 74l114 55h69l-79 -446h-86l62 350z" />
    <glyph glyph-name="twothirds" unicode="&#x2154;" horiz-adv-x="965" 
d="M181 0l573 720h107l-573 -720h-107zM810 454q62 0 100.5 -28.5t38.5 -80.5q0 -85 -105 -119q78 -25 78 -99q0 -62 -50 -98.5t-133 -36.5q-82 0 -145 35l33 68q60 -32 111 -32q44 0 69.5 18t25.5 50q0 59 -98 59q-9 0 -45 -2l11 67q163 0 163 75q0 50 -64 50
q-49 0 -112 -37l-9 74q60 37 131 37zM310 597q0 54 -60 54q-62 0 -121 -61l-13 77q57 61 147 61q62 0 97.5 -33.5t35.5 -90.5q0 -61 -47.5 -119t-156.5 -139h169l-12 -72h-301l10 64q141 97 196.5 155.5t55.5 103.5z" />
    <glyph glyph-name="uni2155" unicode="&#x2155;" horiz-adv-x="822" 
d="M40 0l573 720h107l-573 -720h-107zM704 147q0 69 -94 69q-49 0 -103 -16l52 246h262l-13 -74h-182l-19 -90q24 2 35 2q67 0 107.5 -35.5t40.5 -100.5q0 -72 -51 -114t-135 -42q-76 0 -146 34l35 70q57 -32 108 -32q49 0 76 22t27 61zM100 591l-13 74l114 55h69l-79 -446
h-86l62 350z" />
    <glyph glyph-name="uni2156" unicode="&#x2156;" horiz-adv-x="962" 
d="M181 0l573 720h107l-573 -720h-107zM310 597q0 54 -60 54q-62 0 -121 -61l-13 77q57 61 147 61q62 0 97.5 -33.5t35.5 -90.5q0 -61 -47.5 -119t-156.5 -139h169l-12 -72h-301l10 64q141 97 196.5 155.5t55.5 103.5zM844 147q0 69 -94 69q-49 0 -103 -16l52 246h262
l-13 -74h-182l-19 -90q24 2 35 2q67 0 107.5 -35.5t40.5 -100.5q0 -72 -51 -114t-135 -42q-76 0 -146 34l35 70q57 -32 108 -32q49 0 76 22t27 61z" />
    <glyph glyph-name="uni2157" unicode="&#x2157;" horiz-adv-x="898" 
d="M118 0l573 720h107l-573 -720h-107zM780 147q0 69 -94 69q-49 0 -103 -16l52 246h262l-13 -74h-182l-19 -90q24 2 35 2q67 0 107.5 -35.5t40.5 -100.5q0 -72 -51 -114t-135 -42q-76 0 -146 34l35 70q57 -32 108 -32q49 0 76 22t27 61zM239 728q62 0 100.5 -28.5
t38.5 -80.5q0 -85 -105 -119q78 -25 78 -99q0 -62 -50 -98.5t-133 -36.5q-82 0 -145 35l33 68q60 -32 111 -32q44 0 69.5 18t25.5 50q0 59 -98 59q-9 0 -45 -2l11 67q163 0 163 75q0 50 -64 50q-49 0 -112 -37l-9 74q60 37 131 37z" />
    <glyph glyph-name="uni2158" unicode="&#x2158;" horiz-adv-x="944" 
d="M164 0l573 720h107l-573 -720h-107zM39 362l12 68l239 290h107l-51 -287h65l-12 -71h-65l-16 -88h-84l16 88h-211zM138 433h124l35 193zM826 147q0 69 -94 69q-49 0 -103 -16l52 246h262l-13 -74h-182l-19 -90q24 2 35 2q67 0 107.5 -35.5t40.5 -100.5q0 -72 -51 -114
t-135 -42q-76 0 -146 34l35 70q57 -32 108 -32q49 0 76 22t27 61z" />
    <glyph glyph-name="uni2159" unicode="&#x2159;" horiz-adv-x="788" 
d="M40 0l573 720h107l-573 -720h-107zM671 454q73 0 121 -33l-35 -70q-49 29 -90 29q-53 0 -85.5 -34t-43.5 -92q43 42 102 42q58 0 93 -37t35 -101q0 -75 -46.5 -120.5t-114.5 -45.5q-71 0 -114.5 53t-43.5 148q0 112 59 186.5t163 74.5zM618 227q-38 0 -85 -41
q1 -123 77 -123q33 0 54 24.5t21 64.5q0 36 -17.5 55.5t-49.5 19.5zM97 591l-13 74l114 55h69l-79 -446h-86l62 350z" />
    <glyph glyph-name="uni215A" unicode="&#x215a;" horiz-adv-x="860" 
d="M110 0l573 720h107l-573 -720h-107zM263 421q0 69 -94 69q-49 0 -103 -16l52 246h262l-13 -74h-182l-19 -90q24 2 35 2q67 0 107.5 -35.5t40.5 -100.5q0 -72 -51 -114t-135 -42q-76 0 -146 34l35 70q57 -32 108 -32q49 0 76 22t27 61zM743 454q73 0 121 -33l-35 -70
q-49 29 -90 29q-53 0 -85.5 -34t-43.5 -92q43 42 102 42q58 0 93 -37t35 -101q0 -75 -46.5 -120.5t-114.5 -45.5q-71 0 -114.5 53t-43.5 148q0 112 59 186.5t163 74.5zM690 227q-38 0 -85 -41q1 -123 77 -123q33 0 54 24.5t21 64.5q0 36 -17.5 55.5t-49.5 19.5z" />
    <glyph glyph-name="oneeighth" unicode="&#x215b;" horiz-adv-x="803" 
d="M40 0l573 720h107l-573 -720h-107zM596 -8q-73 0 -116.5 32t-43.5 87q0 47 31 74t87 48q-60 34 -60 95q0 56 44.5 91t113.5 35q64 0 102.5 -30.5t38.5 -80.5q0 -73 -96 -109q77 -42 77 -108q0 -61 -49.5 -97.5t-128.5 -36.5zM578 334q0 -37 59 -67q73 29 73 72
q0 23 -16.5 36t-45.5 13q-31 0 -50.5 -14.5t-19.5 -39.5zM600 56q38 0 63 17t25 48q0 27 -19 44t-55 35q-29 -11 -45.5 -19.5t-31.5 -26t-15 -39.5q0 -28 21 -43.5t57 -15.5zM98 591l-13 74l114 55h69l-79 -446h-86l62 350z" />
    <glyph glyph-name="threeeighths" unicode="&#x215c;" horiz-adv-x="882" 
d="M118 0l573 720h107l-573 -720h-107zM675 -8q-73 0 -116.5 32t-43.5 87q0 47 31 74t87 48q-60 34 -60 95q0 56 44.5 91t113.5 35q64 0 102.5 -30.5t38.5 -80.5q0 -73 -96 -109q77 -42 77 -108q0 -61 -49.5 -97.5t-128.5 -36.5zM657 334q0 -37 59 -67q73 29 73 72
q0 23 -16.5 36t-45.5 13q-31 0 -50.5 -14.5t-19.5 -39.5zM679 56q38 0 63 17t25 48q0 27 -19 44t-55 35q-29 -11 -45.5 -19.5t-31.5 -26t-15 -39.5q0 -28 21 -43.5t57 -15.5zM239 728q62 0 100.5 -28.5t38.5 -80.5q0 -85 -105 -119q78 -25 78 -99q0 -62 -50 -98.5
t-133 -36.5q-82 0 -145 35l33 68q60 -32 111 -32q44 0 69.5 18t25.5 50q0 59 -98 59q-9 0 -45 -2l11 67q163 0 163 75q0 50 -64 50q-49 0 -112 -37l-9 74q60 37 131 37z" />
    <glyph glyph-name="fiveeighths" unicode="&#x215d;" horiz-adv-x="873" 
d="M107 0l573 720h107l-573 -720h-107zM666 -8q-73 0 -116.5 32t-43.5 87q0 47 31 74t87 48q-60 34 -60 95q0 56 44.5 91t113.5 35q64 0 102.5 -30.5t38.5 -80.5q0 -73 -96 -109q77 -42 77 -108q0 -61 -49.5 -97.5t-128.5 -36.5zM648 334q0 -37 59 -67q73 29 73 72
q0 23 -16.5 36t-45.5 13q-31 0 -50.5 -14.5t-19.5 -39.5zM670 56q38 0 63 17t25 48q0 27 -19 44t-55 35q-29 -11 -45.5 -19.5t-31.5 -26t-15 -39.5q0 -28 21 -43.5t57 -15.5zM263 421q0 69 -94 69q-49 0 -103 -16l52 246h262l-13 -74h-182l-19 -90q24 2 35 2
q67 0 107.5 -35.5t40.5 -100.5q0 -72 -51 -114t-135 -42q-76 0 -146 34l35 70q57 -32 108 -32q49 0 76 22t27 61z" />
    <glyph glyph-name="seveneighths" unicode="&#x215e;" horiz-adv-x="763" 
d="M-1 0l573 720h107l-573 -720h-107zM556 -8q-73 0 -116.5 32t-43.5 87q0 47 31 74t87 48q-60 34 -60 95q0 56 44.5 91t113.5 35q64 0 102.5 -30.5t38.5 -80.5q0 -73 -96 -109q77 -42 77 -108q0 -61 -49.5 -97.5t-128.5 -36.5zM538 334q0 -37 59 -67q73 29 73 72
q0 23 -16.5 36t-45.5 13q-31 0 -50.5 -14.5t-19.5 -39.5zM560 56q38 0 63 17t25 48q0 27 -19 44t-55 35q-29 -11 -45.5 -19.5t-31.5 -26t-15 -39.5q0 -28 21 -43.5t57 -15.5zM77 643l14 77h294l-13 -72q-100 -148 -222 -374h-99q125 231 219 369h-193z" />
    <glyph glyph-name="uni215F" unicode="&#x215f;" horiz-adv-x="648" 
d="M40 0l573 720h107l-573 -720h-107zM97 591l-13 74l114 55h69l-79 -446h-86l62 350z" />
    <glyph glyph-name="uni2189" unicode="&#x2189;" horiz-adv-x="944" 
d="M218 338q52 0 81.5 57.5t29.5 137.5q0 121 -72 121q-52 0 -81.5 -57.5t-29.5 -137.5q0 -121 72 -121zM214 266q-70 0 -112 50.5t-42 144.5q0 110 55.5 188.5t145.5 78.5q70 0 112 -50.5t42 -144.5q0 -110 -55.5 -188.5t-145.5 -78.5zM789 454q62 0 100.5 -28.5
t38.5 -80.5q0 -85 -105 -119q78 -25 78 -99q0 -62 -50 -98.5t-133 -36.5q-82 0 -145 35l33 68q60 -32 111 -32q44 0 69.5 18t25.5 50q0 59 -98 59q-9 0 -45 -2l11 67q163 0 163 75q0 50 -64 50q-49 0 -112 -37l-9 74q60 37 131 37zM132 0l573 720h107l-573 -720h-107z" />
    <glyph glyph-name="arrowleft" unicode="&#x2190;" 
d="M876 359v-100h-411q-100 0 -142 3v-2q28 -19 100 -91l91 -91l-71 -69l-299 300l299 300l71 -69l-91 -91q-72 -72 -100 -91v-2q42 3 142 3h411z" />
    <glyph glyph-name="arrowup" unicode="&#x2191;" 
d="M560 0h-100v410q0 105 4 141h-2q-17 -20 -94 -97l-90 -90l-67 69l299 299l299 -299l-67 -69l-90 90q-77 77 -94 97h-2q4 -36 4 -141v-410z" />
    <glyph glyph-name="arrowright" unicode="&#x2192;" 
d="M144 259v100h411q100 0 142 -3v2q-28 19 -100 91l-91 91l71 69l299 -300l-299 -300l-71 69l91 91q72 72 100 91v2q-42 -3 -142 -3h-411z" />
    <glyph glyph-name="arrowdown" unicode="&#x2193;" 
d="M461 720h100v-411q0 -100 -3 -142h2q19 28 91 100l91 91l69 -71l-300 -299l-300 299l69 71l91 -91q72 -72 91 -100h2q-3 42 -3 142v411z" />
    <glyph glyph-name="uni2196" unicode="&#x2196;" 
d="M780 156l-71 -71l-290 290q-68 68 -98 103l-2 -1q6 -32 6 -135v-128h-98v424h424v-98h-128q-103 0 -135 6l-1 -2q35 -30 103 -98z" />
    <glyph glyph-name="uni2197" unicode="&#x2197;" 
d="M278 85l-71 71l290 290q68 68 103 98l-1 2q-32 -6 -135 -6h-128v98h424v-424h-98v128q0 103 6 135l-2 1q-30 -35 -98 -103z" />
    <glyph glyph-name="uni2198" unicode="&#x2198;" 
d="M207 548l71 71l290 -290q68 -68 98 -103l2 1q-6 32 -6 135v128h98v-424h-424v98h128q103 0 135 -6l1 2q-35 30 -103 98z" />
    <glyph glyph-name="uni2199" unicode="&#x2199;" 
d="M709 619l71 -71l-290 -290q-68 -68 -103 -98l1 -2q32 6 135 6h128v-98h-424v424h98v-128q0 -103 -6 -135l2 -1q30 35 98 103z" />
    <glyph glyph-name="partialdiff" unicode="&#x2202;" horiz-adv-x="572" 
d="M301 634q-67 0 -131 -44l-11 96q69 46 158 46q108 0 170 -76.5t62 -235.5q0 -196 -89.5 -314t-217.5 -118q-88 0 -149 58t-61 167q0 123 75 196t178 73q79 0 142 -49q-3 106 -35 153.5t-91 47.5zM255 80q62 0 108 65.5t60 182.5q-57 57 -118 57q-62 0 -105.5 -47
t-43.5 -128q0 -65 28 -97.5t71 -32.5z" />
    <glyph glyph-name="emptyset" unicode="&#x2205;" horiz-adv-x="676" 
d="M188 -73l-75 45l45 77q-99 80 -99 216q0 119 79.5 198t197.5 79q58 0 104 -18l46 79l75 -45l-45 -77q99 -80 99 -216q0 -119 -79.5 -198t-197.5 -79q-58 0 -104 18zM147 265q0 -84 58 -137l187 315q-29 8 -57 8q-80 0 -134 -53t-54 -133zM527 265q0 84 -58 137l-187 -315
q29 -8 57 -8q80 0 134 53t54 133z" />
    <glyph glyph-name="Delta" unicode="&#x2206;" horiz-adv-x="686" 
d="M502 720l102 -630l-16 -90h-580l16 90l329 630h149zM405 594l-241 -488h312z" />
    <glyph glyph-name="product" unicode="&#x220f;" horiz-adv-x="729" 
d="M15 -140l152 860h553l-152 -860h-126l133 750h-301l-133 -750h-126z" />
    <glyph glyph-name="summation" unicode="&#x2211;" horiz-adv-x="579" 
d="M-31 -140l16 90l329 359l-189 317l16 94h487l-19 -110h-334l187 -313l-307 -331h343l-18 -106h-511z" />
    <glyph glyph-name="minus" unicode="&#x2212;" horiz-adv-x="572" 
d="M539 305l-18 -100h-488l18 100h488z" />
    <glyph glyph-name="uni2215" unicode="&#x2215;" horiz-adv-x="572" 
d="M-62 0l573 720h107l-573 -720h-107z" />
    <glyph glyph-name="uni2219" unicode="&#x2219;" horiz-adv-x="572" 
d="M300 222q-55 0 -91.5 36.5t-36.5 92.5t36.5 92.5t91.5 36.5t91.5 -36.5t36.5 -92.5t-36.5 -92.5t-91.5 -36.5z" />
    <glyph glyph-name="radical" unicode="&#x221a;" horiz-adv-x="572" 
d="M131 -80l-99 510h120l62 -371l352 661h129l-439 -800h-125z" />
    <glyph glyph-name="infinity" unicode="&#x221e;" horiz-adv-x="800" 
d="M188 145q35 0 71 28t84 82q-34 54 -63 82t-63 28q-40 0 -69 -35.5t-29 -92.5q0 -44 19 -68t50 -24zM392 179q-57 -60 -107 -93.5t-104 -33.5q-63 0 -104.5 46.5t-41.5 131.5q0 100 55 164t132 64q56 0 99 -33.5t87 -93.5q57 60 107 93.5t104 33.5q63 0 104.5 -46.5
t41.5 -131.5q0 -100 -55 -164t-132 -64q-56 0 -99 33.5t-87 93.5zM612 365q-35 0 -71 -28t-84 -82q34 -54 63 -82t63 -28q40 0 69 35.5t29 92.5q0 44 -19 68t-50 24z" />
    <glyph glyph-name="integral" unicode="&#x222b;" horiz-adv-x="393" 
d="M-51 -210l16 93h29q43 0 61.5 17.5t26.5 59.5l108 613q14 75 63.5 111t161.5 36h28l-16 -93h-29q-43 0 -61.5 -17.5t-26.5 -59.5l-108 -613q-14 -75 -63.5 -111t-161.5 -36h-28z" />
    <glyph glyph-name="congruent" unicode="&#x2245;" horiz-adv-x="572" 
d="M196 406q-66 0 -118 -40l-19 87q59 43 142 43q42 0 120 -22t116 -22q66 0 118 40l19 -87q-59 -43 -142 -43q-42 0 -120 22t-116 22zM533 270l-16 -90h-488l16 90h488zM497 66l-16 -90h-488l16 90h488z" />
    <glyph glyph-name="approxequal" unicode="&#x2248;" horiz-adv-x="572" 
d="M182 329q-66 0 -118 -40l-19 87q59 43 142 43q42 0 120 -22t116 -22q66 0 118 40l19 -87q-59 -43 -142 -43q-42 0 -120 22t-116 22zM148 135q-66 0 -118 -40l-19 87q59 43 142 43q42 0 120 -22t116 -22q66 0 118 40l19 -87q-59 -43 -142 -43q-42 0 -120 22t-116 22z" />
    <glyph glyph-name="notequal" unicode="&#x2260;" horiz-adv-x="572" 
d="M448 537l71 -56l-61 -79h98l-16 -90h-152l-89 -114h221l-16 -90h-275l-105 -135l-71 56l61 79h-98l16 90h152l89 114h-221l16 90h275z" />
    <glyph glyph-name="lessequal" unicode="&#x2264;" horiz-adv-x="572" 
d="M43 258l16 93l516 159l-16 -91l-402 -118l360 -119l-14 -82zM497 66l-16 -90h-488l16 90h488z" />
    <glyph glyph-name="greaterequal" unicode="&#x2265;" horiz-adv-x="572" 
d="M497 66l-16 -90h-488l16 90h488zM547 352l-16 -93l-516 -159l16 91l402 118l-360 119l14 82z" />
    <glyph glyph-name="circleplus" unicode="&#x2295;" 
d="M511 49q130 0 219 89t89 222t-89 222t-219 89t-219 -89t-89 -222t89 -222t219 -89zM511 -12q-157 0 -264.5 106.5t-107.5 265.5t107.5 265.5t264.5 106.5t264.5 -106.5t107.5 -265.5t-107.5 -265.5t-264.5 -106.5zM556 130h-90v185h-177v90h177v185h90v-185h177v-90h-177
v-185z" />
    <glyph glyph-name="uni2296" unicode="&#x2296;" 
d="M511 49q130 0 219 89t89 222t-89 222t-219 89t-219 -89t-89 -222t89 -222t219 -89zM511 -12q-157 0 -264.5 106.5t-107.5 265.5t107.5 265.5t264.5 106.5t264.5 -106.5t107.5 -265.5t-107.5 -265.5t-264.5 -106.5zM733 315h-444v90h444v-90z" />
    <glyph glyph-name="circlemultiply" unicode="&#x2297;" 
d="M511 49q130 0 219 89t89 222t-89 222t-219 89t-219 -89t-89 -222t89 -222t219 -89zM511 -12q-157 0 -264.5 106.5t-107.5 265.5t107.5 265.5t264.5 106.5t264.5 -106.5t107.5 -265.5t-107.5 -265.5t-264.5 -106.5zM307 502l62 63l142 -142l142 142l62 -63l-141 -142
l141 -142l-62 -63l-142 142l-142 -142l-62 63l141 142z" />
    <glyph glyph-name="uni2298" unicode="&#x2298;" 
d="M511 49q130 0 219 89t89 222t-89 222t-219 89t-219 -89t-89 -222t89 -222t219 -89zM511 -12q-157 0 -264.5 106.5t-107.5 265.5t107.5 265.5t264.5 106.5t264.5 -106.5t107.5 -265.5t-107.5 -265.5t-264.5 -106.5zM307 218l346 347l62 -63l-346 -347z" />
    <glyph glyph-name="uni229C" unicode="&#x229c;" 
d="M511 49q130 0 219 89t89 222t-89 222t-219 89t-219 -89t-89 -222t89 -222t219 -89zM511 -12q-157 0 -264.5 106.5t-107.5 265.5t107.5 265.5t264.5 106.5t264.5 -106.5t107.5 -265.5t-107.5 -265.5t-264.5 -106.5zM733 492v-82h-444v82h444zM733 307v-81h-444v81h444z
" />
    <glyph glyph-name="dotmath" unicode="&#x22c5;" horiz-adv-x="572" 
d="M361 257q0 -33 -21.5 -54.5t-55.5 -21.5t-55.5 21.5t-21.5 54.5t21.5 54.5t55.5 21.5t55.5 -21.5t21.5 -54.5z" />
    <glyph glyph-name="uni2460" unicode="&#x2460;" 
d="M428 420l-12 71l109 53h66l-76 -427h-82l59 335zM973 330q0 -201 -135 -334.5t-333 -133.5t-333 133.5t-135 334.5t135 334.5t333 133.5t333 -133.5t135 -334.5zM909 330q0 175 -116.5 291t-287.5 116t-287.5 -116t-116.5 -291t116.5 -291t287.5 -116t287.5 116
t116.5 291z" />
    <glyph glyph-name="uni2461" unicode="&#x2461;" 
d="M579 426q0 52 -57 52q-60 0 -116 -59l-13 74q55 59 141 59q60 0 94 -32t34 -87q0 -59 -45.5 -114.5t-150.5 -132.5h162l-11 -69h-289l10 61q135 93 188 149t53 99zM973 330q0 -201 -135 -334.5t-333 -133.5t-333 133.5t-135 334.5t135 334.5t333 133.5t333 -133.5
t135 -334.5zM909 330q0 175 -116.5 291t-287.5 116t-287.5 -116t-116.5 -291t116.5 -291t287.5 -116t287.5 116t116.5 291z" />
    <glyph glyph-name="uni2462" unicode="&#x2462;" 
d="M539 552q59 0 96 -27.5t37 -77.5q0 -81 -101 -114q75 -23 75 -94q0 -60 -48 -95t-128 -35q-76 0 -139 34l32 65q60 -31 107 -31q42 0 66.5 17.5t24.5 47.5q0 57 -94 57q-8 0 -44 -2l11 64q156 0 156 72q0 23 -16.5 35.5t-44.5 12.5q-46 0 -107 -36l-9 71q58 36 126 36z
M973 330q0 -201 -135 -334.5t-333 -133.5t-333 133.5t-135 334.5t135 334.5t333 133.5t333 -133.5t135 -334.5zM909 330q0 175 -116.5 291t-287.5 116t-287.5 -116t-116.5 -291t116.5 -291t287.5 -116t287.5 116t116.5 291z" />
    <glyph glyph-name="uni2463" unicode="&#x2463;" 
d="M287 201l11 65l230 278h102l-49 -275h63l-12 -68h-62l-16 -84h-80l15 84h-202zM382 269h119l33 185zM973 330q0 -201 -135 -334.5t-333 -133.5t-333 133.5t-135 334.5t135 334.5t333 133.5t333 -133.5t135 -334.5zM909 330q0 175 -116.5 291t-287.5 116t-287.5 -116
t-116.5 -291t116.5 -291t287.5 -116t287.5 116t116.5 291z" />
    <glyph glyph-name="uni2464" unicode="&#x2464;" 
d="M564 258q0 66 -90 66q-46 0 -99 -16l50 236h252l-13 -71h-175l-18 -86q24 2 34 2q64 0 103 -34t39 -96q0 -69 -49.5 -109.5t-129.5 -40.5q-70 0 -140 33l34 67q57 -31 103 -31q48 0 73.5 21t25.5 59zM973 330q0 -201 -135 -334.5t-333 -133.5t-333 133.5t-135 334.5
t135 334.5t333 133.5t333 -133.5t135 -334.5zM909 330q0 175 -116.5 291t-287.5 116t-287.5 -116t-116.5 -291t116.5 -291t287.5 -116t287.5 116t116.5 291z" />
    <glyph glyph-name="uni2465" unicode="&#x2465;" 
d="M553 552q69 0 116 -32l-34 -67q-49 28 -86 28q-51 0 -82.5 -32.5t-41.5 -88.5q41 40 98 40q56 0 89.5 -35t33.5 -97q0 -71 -45 -115t-110 -44q-68 0 -109.5 50.5t-41.5 142.5q0 107 56.5 178.5t156.5 71.5zM502 334q-37 0 -82 -39q1 -118 74 -118q32 0 52 24t20 61
q0 34 -17 53t-47 19zM973 330q0 -201 -135 -334.5t-333 -133.5t-333 133.5t-135 334.5t135 334.5t333 133.5t333 -133.5t135 -334.5zM909 330q0 175 -116.5 291t-287.5 116t-287.5 -116t-116.5 -291t116.5 -291t287.5 -116t287.5 116t116.5 291z" />
    <glyph glyph-name="uni2466" unicode="&#x2466;" 
d="M398 470l13 74h282l-12 -69q-94 -139 -213 -358h-95q122 224 210 353h-185zM973 330q0 -201 -135 -334.5t-333 -133.5t-333 133.5t-135 334.5t135 334.5t333 133.5t333 -133.5t135 -334.5zM909 330q0 175 -116.5 291t-287.5 116t-287.5 -116t-116.5 -291t116.5 -291
t287.5 -116t287.5 116t116.5 291z" />
    <glyph glyph-name="uni2467" unicode="&#x2467;" 
d="M483 109q-70 0 -111.5 30.5t-41.5 83.5q0 45 29.5 71t83.5 46q-58 32 -58 91q0 54 43 87.5t109 33.5q62 0 98.5 -29t36.5 -78q0 -70 -92 -104q74 -41 74 -104q0 -58 -47.5 -93t-123.5 -35zM465 436q0 -34 57 -63q70 27 70 69q0 22 -16 34t-43 12q-30 0 -49 -14t-19 -38z
M487 171q37 0 60.5 16t23.5 46q0 26 -18 42.5t-53 32.5q-28 -11 -43.5 -19t-29.5 -24.5t-14 -37.5q0 -27 19.5 -41.5t54.5 -14.5zM973 330q0 -201 -135 -334.5t-333 -133.5t-333 133.5t-135 334.5t135 334.5t333 133.5t333 -133.5t135 -334.5zM909 330q0 175 -116.5 291
t-287.5 116t-287.5 -116t-116.5 -291t116.5 -291t287.5 -116t287.5 116t116.5 291z" />
    <glyph glyph-name="uni2468" unicode="&#x2468;" 
d="M463 109q-69 0 -116 32l34 65q49 -28 86 -28q50 0 81.5 33t42.5 90q-41 -40 -98 -40q-56 0 -89.5 35t-33.5 97q0 71 45 115t110 44q68 0 109.5 -50.5t41.5 -142.5q0 -107 -57 -178.5t-156 -71.5zM514 325q37 0 82 39q-3 118 -74 118q-32 0 -52 -24t-20 -61q0 -34 17 -53
t47 -19zM973 330q0 -201 -135 -334.5t-333 -133.5t-333 133.5t-135 334.5t135 334.5t333 133.5t333 -133.5t135 -334.5zM909 330q0 175 -116.5 291t-287.5 116t-287.5 -116t-116.5 -291t116.5 -291t287.5 -116t287.5 116t116.5 291z" />
    <glyph glyph-name="uni2469" unicode="&#x2469;" 
d="M601 178q49 0 78 55t29 132q0 116 -69 116q-50 0 -78.5 -55t-28.5 -132q0 -116 69 -116zM597 109q-66 0 -106.5 48.5t-40.5 138.5q0 105 52.5 180.5t139.5 75.5q67 0 107.5 -49t40.5 -138q0 -105 -53 -180.5t-140 -75.5zM268 420l-12 71l109 53h66l-76 -427h-82l59 335z
M973 330q0 -201 -135 -334.5t-333 -133.5t-333 133.5t-135 334.5t135 334.5t333 133.5t333 -133.5t135 -334.5zM909 330q0 175 -116.5 291t-287.5 116t-287.5 -116t-116.5 -291t116.5 -291t287.5 -116t287.5 116t116.5 291z" />
    <glyph glyph-name="uni246A" unicode="&#x246a;" 
d="M552 420l-12 71l109 53h66l-76 -427h-82l59 335zM309 420l-12 71l109 53h66l-76 -427h-82l59 335zM973 330q0 -201 -135 -334.5t-333 -133.5t-333 133.5t-135 334.5t135 334.5t333 133.5t333 -133.5t135 -334.5zM909 330q0 175 -116.5 291t-287.5 116t-287.5 -116
t-116.5 -291t116.5 -291t287.5 -116t287.5 116t116.5 291z" />
    <glyph glyph-name="uni246B" unicode="&#x246b;" 
d="M272 420l-12 71l109 53h66l-76 -427h-82l59 335zM686 426q0 52 -57 52q-60 0 -116 -59l-13 74q55 59 141 59q60 0 94 -32t34 -87q0 -59 -45.5 -114.5t-150.5 -132.5h162l-11 -69h-289l10 61q135 93 188 149t53 99zM973 330q0 -201 -135 -334.5t-333 -133.5t-333 133.5
t-135 334.5t135 334.5t333 133.5t333 -133.5t135 -334.5zM909 330q0 175 -116.5 291t-287.5 116t-287.5 -116t-116.5 -291t116.5 -291t287.5 -116t287.5 116t116.5 291z" />
    <glyph glyph-name="uni246C" unicode="&#x246c;" 
d="M272 420l-12 71l109 53h66l-76 -427h-82l59 335zM636 552q59 0 96 -27.5t37 -77.5q0 -81 -101 -114q75 -23 75 -94q0 -60 -48 -95t-128 -35q-76 0 -139 34l32 65q60 -31 107 -31q42 0 66.5 17.5t24.5 47.5q0 57 -94 57q-8 0 -44 -2l11 64q156 0 156 72q0 23 -16.5 35.5
t-44.5 12.5q-46 0 -107 -36l-9 71q58 36 126 36zM973 330q0 -201 -135 -334.5t-333 -133.5t-333 133.5t-135 334.5t135 334.5t333 133.5t333 -133.5t135 -334.5zM909 330q0 175 -116.5 291t-287.5 116t-287.5 -116t-116.5 -291t116.5 -291t287.5 -116t287.5 116t116.5 291z
" />
    <glyph glyph-name="uni246D" unicode="&#x246d;" 
d="M423 201l11 65l230 278h102l-49 -275h63l-12 -68h-62l-16 -84h-80l15 84h-202zM518 269h119l33 185zM272 420l-12 71l109 53h66l-76 -427h-82l59 335zM973 330q0 -201 -135 -334.5t-333 -133.5t-333 133.5t-135 334.5t135 334.5t333 133.5t333 -133.5t135 -334.5z
M909 330q0 175 -116.5 291t-287.5 116t-287.5 -116t-116.5 -291t116.5 -291t287.5 -116t287.5 116t116.5 291z" />
    <glyph glyph-name="uni246E" unicode="&#x246e;" 
d="M666 258q0 66 -90 66q-46 0 -99 -16l50 236h252l-13 -71h-175l-18 -86q24 2 34 2q64 0 103 -34t39 -96q0 -69 -49.5 -109.5t-129.5 -40.5q-70 0 -140 33l34 67q57 -31 103 -31q48 0 73.5 21t25.5 59zM272 420l-12 71l109 53h66l-76 -427h-82l59 335zM973 330
q0 -201 -135 -334.5t-333 -133.5t-333 133.5t-135 334.5t135 334.5t333 133.5t333 -133.5t135 -334.5zM909 330q0 175 -116.5 291t-287.5 116t-287.5 -116t-116.5 -291t116.5 -291t287.5 -116t287.5 116t116.5 291z" />
    <glyph glyph-name="uni246F" unicode="&#x246f;" 
d="M669 552q69 0 116 -32l-34 -67q-49 28 -86 28q-51 0 -82.5 -32.5t-41.5 -88.5q41 40 98 40q56 0 89.5 -35t33.5 -97q0 -71 -45 -115t-110 -44q-68 0 -109.5 50.5t-41.5 142.5q0 107 56.5 178.5t156.5 71.5zM618 334q-37 0 -82 -39q1 -118 74 -118q32 0 52 24t20 61
q0 34 -17 53t-47 19zM272 420l-12 71l109 53h66l-76 -427h-82l59 335zM973 330q0 -201 -135 -334.5t-333 -133.5t-333 133.5t-135 334.5t135 334.5t333 133.5t333 -133.5t135 -334.5zM909 330q0 175 -116.5 291t-287.5 116t-287.5 -116t-116.5 -291t116.5 -291t287.5 -116
t287.5 116t116.5 291z" />
    <glyph glyph-name="uni2470" unicode="&#x2470;" 
d="M504 470l13 74h282l-12 -69q-94 -139 -213 -358h-95q122 224 210 353h-185zM289 420l-12 71l109 53h66l-76 -427h-82l59 335zM973 330q0 -201 -135 -334.5t-333 -133.5t-333 133.5t-135 334.5t135 334.5t333 133.5t333 -133.5t135 -334.5zM909 330q0 175 -116.5 291
t-287.5 116t-287.5 -116t-116.5 -291t116.5 -291t287.5 -116t287.5 116t116.5 291z" />
    <glyph glyph-name="uni2471" unicode="&#x2471;" 
d="M589 109q-70 0 -111.5 30.5t-41.5 83.5q0 45 29.5 71t83.5 46q-58 32 -58 91q0 54 43 87.5t109 33.5q62 0 98.5 -29t36.5 -78q0 -70 -92 -104q74 -41 74 -104q0 -58 -47.5 -93t-123.5 -35zM571 436q0 -34 57 -63q70 27 70 69q0 22 -16 34t-43 12q-30 0 -49 -14t-19 -38z
M593 171q37 0 60.5 16t23.5 46q0 26 -18 42.5t-53 32.5q-28 -11 -43.5 -19t-29.5 -24.5t-14 -37.5q0 -27 19.5 -41.5t54.5 -14.5zM272 420l-12 71l109 53h66l-76 -427h-82l59 335zM973 330q0 -201 -135 -334.5t-333 -133.5t-333 133.5t-135 334.5t135 334.5t333 133.5
t333 -133.5t135 -334.5zM909 330q0 175 -116.5 291t-287.5 116t-287.5 -116t-116.5 -291t116.5 -291t287.5 -116t287.5 116t116.5 291z" />
    <glyph glyph-name="uni2472" unicode="&#x2472;" 
d="M574 109q-69 0 -116 32l34 65q49 -28 86 -28q50 0 81.5 33t42.5 90q-41 -40 -98 -40q-56 0 -89.5 35t-33.5 97q0 71 45 115t110 44q68 0 109.5 -50.5t41.5 -142.5q0 -107 -57 -178.5t-156 -71.5zM625 325q37 0 82 39q-3 118 -74 118q-32 0 -52 -24t-20 -61q0 -34 17 -53
t47 -19zM272 420l-12 71l109 53h66l-76 -427h-82l59 335zM973 330q0 -201 -135 -334.5t-333 -133.5t-333 133.5t-135 334.5t135 334.5t333 133.5t333 -133.5t135 -334.5zM909 330q0 175 -116.5 291t-287.5 116t-287.5 -116t-116.5 -291t116.5 -291t287.5 -116t287.5 116
t116.5 291z" />
    <glyph glyph-name="uni2473" unicode="&#x2473;" 
d="M663 178q48 0 75.5 55t27.5 132q0 116 -67 116q-48 0 -75.5 -55t-27.5 -132q0 -116 67 -116zM659 109q-65 0 -104 48.5t-39 138.5q0 105 51.5 180.5t135.5 75.5q64 0 103.5 -49t39.5 -138q0 -105 -51.5 -180.5t-135.5 -75.5zM421 426q0 52 -56 52q-58 0 -112 -59l-12 74
q52 59 136 59q58 0 91 -32t33 -87q0 -59 -44 -114.5t-146 -132.5h157l-11 -69h-279l9 61q131 93 182.5 149t51.5 99zM973 330q0 -201 -135 -334.5t-333 -133.5t-333 133.5t-135 334.5t135 334.5t333 133.5t333 -133.5t135 -334.5zM909 330q0 175 -116.5 291t-287.5 116
t-287.5 -116t-116.5 -291t116.5 -291t287.5 -116t287.5 116t116.5 291z" />
    <glyph glyph-name="uni24EA" unicode="&#x24ea;" 
d="M486 178q49 0 78 55t29 132q0 116 -69 116q-50 0 -78.5 -55t-28.5 -132q0 -116 69 -116zM482 109q-66 0 -106.5 48.5t-40.5 138.5q0 105 52.5 180.5t139.5 75.5q67 0 107.5 -49t40.5 -138q0 -105 -53 -180.5t-140 -75.5zM973 330q0 -201 -135 -334.5t-333 -133.5
t-333 133.5t-135 334.5t135 334.5t333 133.5t333 -133.5t135 -334.5zM909 330q0 175 -116.5 291t-287.5 116t-287.5 -116t-116.5 -291t116.5 -291t287.5 -116t287.5 116t116.5 291z" />
    <glyph glyph-name="uni24EB" unicode="&#x24eb;" 
d="M546 491l12 -71l64 32l-59 -335h82l76 427h-66zM292 491l12 -71l64 32l-59 -335h82l76 427h-66zM973 330q0 -201 -135 -334.5t-333 -133.5t-333 133.5t-135 334.5t135 334.5t333 133.5t333 -133.5t135 -334.5z" />
    <glyph glyph-name="uni24EC" unicode="&#x24ec;" 
d="M255 491l12 -71l64 32l-59 -335h82l76 427h-66zM691 426q0 -43 -53 -99t-188 -149l-10 -61h289l11 69h-162q105 77 150.5 132.5t45.5 114.5q0 55 -34 87t-94 32q-86 0 -141 -59l13 -74q56 59 116 59q57 0 57 -52zM973 330q0 -201 -135 -334.5t-333 -133.5t-333 133.5
t-135 334.5t135 334.5t333 133.5t333 -133.5t135 -334.5z" />
    <glyph glyph-name="uni24ED" unicode="&#x24ed;" 
d="M255 491l12 -71l64 32l-59 -335h82l76 427h-66zM641 552q-68 0 -126 -36l9 -71q61 36 107 36q28 0 44.5 -12.5t16.5 -35.5q0 -72 -156 -72l-11 -64q36 2 44 2q94 0 94 -57q0 -30 -24.5 -47.5t-66.5 -17.5q-47 0 -107 31l-32 -65q63 -34 139 -34q80 0 128 35t48 95
q0 71 -75 94q101 33 101 114q0 50 -37 77.5t-96 27.5zM973 330q0 -201 -135 -334.5t-333 -133.5t-333 133.5t-135 334.5t135 334.5t333 133.5t333 -133.5t135 -334.5z" />
    <glyph glyph-name="uni24EE" unicode="&#x24ee;" 
d="M439 266l-11 -65h202l-15 -84h80l16 84h62l12 68h-63l49 275h-102zM642 269h-119l152 185zM255 491l12 -71l64 32l-59 -335h82l76 427h-66zM973 330q0 -201 -135 -334.5t-333 -133.5t-333 133.5t-135 334.5t135 334.5t333 133.5t333 -133.5t135 -334.5z" />
    <glyph glyph-name="uni24EF" unicode="&#x24ef;" 
d="M671 258q0 -38 -25.5 -59t-73.5 -21q-46 0 -103 31l-34 -67q70 -33 140 -33q80 0 129.5 40.5t49.5 109.5q0 62 -39 96t-103 34q-10 0 -34 -2l18 86h175l13 71h-252l-50 -236q53 16 99 16q90 0 90 -66zM255 491l12 -71l64 32l-59 -335h82l76 427h-66zM973 330
q0 -201 -135 -334.5t-333 -133.5t-333 133.5t-135 334.5t135 334.5t333 133.5t333 -133.5t135 -334.5z" />
    <glyph glyph-name="uni24F0" unicode="&#x24f0;" 
d="M674 552q-100 0 -156.5 -71.5t-56.5 -178.5q0 -92 41.5 -142.5t109.5 -50.5q65 0 110 44t45 115q0 62 -33.5 97t-89.5 35q-57 0 -98 -40q10 56 41.5 88.5t82.5 32.5q37 0 86 -28l34 67q-47 32 -116 32zM623 334q30 0 47 -19t17 -53q0 -37 -20 -61t-52 -24q-73 0 -74 118
q45 39 82 39zM255 491l12 -71l64 32l-59 -335h82l76 427h-66zM973 330q0 -201 -135 -334.5t-333 -133.5t-333 133.5t-135 334.5t135 334.5t333 133.5t333 -133.5t135 -334.5z" />
    <glyph glyph-name="uni24F1" unicode="&#x24f1;" 
d="M523 544l-13 -74h185q-88 -129 -210 -353h95q119 219 213 358l12 69h-282zM272 491l12 -71l64 32l-59 -335h82l76 427h-66zM973 330q0 -201 -135 -334.5t-333 -133.5t-333 133.5t-135 334.5t135 334.5t333 133.5t333 -133.5t135 -334.5z" />
    <glyph glyph-name="uni24F2" unicode="&#x24f2;" 
d="M594 109q76 0 123.5 35t47.5 93q0 63 -74 104q92 34 92 104q0 49 -36.5 78t-98.5 29q-66 0 -109 -33.5t-43 -87.5q0 -59 58 -91q-54 -20 -83.5 -46t-29.5 -71q0 -53 41.5 -83.5t111.5 -30.5zM576 436q0 24 19 38t49 14q27 0 43 -12t16 -34q0 -42 -70 -69q-57 29 -57 63z
M598 171q-35 0 -54.5 14.5t-19.5 41.5q0 30 22.5 47.5t64.5 33.5q35 -16 53 -32.5t18 -42.5q0 -30 -23.5 -46t-60.5 -16zM255 491l12 -71l64 32l-59 -335h82l76 427h-66zM973 330q0 -201 -135 -334.5t-333 -133.5t-333 133.5t-135 334.5t135 334.5t333 133.5t333 -133.5
t135 -334.5z" />
    <glyph glyph-name="uni24F3" unicode="&#x24f3;" 
d="M579 109q99 0 156 71.5t57 178.5q0 92 -41.5 142.5t-109.5 50.5q-65 0 -110 -44t-45 -115q0 -62 33.5 -97t89.5 -35q57 0 98 40q-11 -57 -42.5 -90t-81.5 -33q-37 0 -86 28l-34 -65q47 -32 116 -32zM630 325q-30 0 -47 19t-17 53q0 37 20 61t52 24q71 0 74 -118
q-45 -39 -82 -39zM255 491l12 -71l64 32l-59 -335h82l76 427h-66zM973 330q0 -201 -135 -334.5t-333 -133.5t-333 133.5t-135 334.5t135 334.5t333 133.5t333 -133.5t135 -334.5z" />
    <glyph glyph-name="uni24F4" unicode="&#x24f4;" 
d="M665 178q-69 0 -69 116q0 77 28.5 132t78.5 55q69 0 69 -116q0 -77 -29 -132t-78 -55zM661 109q87 0 140 75.5t53 180.5q0 89 -40.5 138t-107.5 49q-87 0 -139.5 -75.5t-52.5 -180.5q0 -90 40.5 -138.5t106.5 -48.5zM409 426q0 -43 -53 -99t-188 -149l-10 -61h289l11 69
h-162q105 77 150.5 132.5t45.5 114.5q0 55 -34 87t-94 32q-86 0 -141 -59l13 -74q56 59 116 59q57 0 57 -52zM973 330q0 -201 -135 -334.5t-333 -133.5t-333 133.5t-135 334.5t135 334.5t333 133.5t333 -133.5t135 -334.5z" />
    <glyph glyph-name="filledbox" unicode="&#x25a0;" 
d="M160 0v720h720v-720h-720z" />
    <glyph glyph-name="uni25A1" unicode="&#x25a1;" 
d="M160 0v720h720v-720h-720zM254 626v-532h532v532h-532z" />
    <glyph glyph-name="triagup" unicode="&#x25b2;" horiz-adv-x="584" 
d="M302 542l255 -442h-510z" />
    <glyph glyph-name="triagrt" unicode="&#x25ba;" horiz-adv-x="584" 
d="M552 309l-442 -255v510z" />
    <glyph glyph-name="triagdn" unicode="&#x25bc;" horiz-adv-x="584" 
d="M557 518l-255 -442l-255 442h510z" />
    <glyph glyph-name="triaglf" unicode="&#x25c4;" horiz-adv-x="584" 
d="M494 54l-442 255l442 255v-510z" />
    <glyph glyph-name="uni25C6" unicode="&#x25c6;" 
d="M146 360l372 372l372 -372l-372 -372z" />
    <glyph glyph-name="uni25C7" unicode="&#x25c7;" 
d="M518 600l-240 -240l240 -240l240 240zM146 360l372 372l372 -372l-372 -372z" />
    <glyph glyph-name="lozenge" unicode="&#x25ca;" horiz-adv-x="584" 
d="M354 0h-88l-212 360l212 360h88l212 -360zM469 360l-159 266l-159 -266l159 -266z" />
    <glyph glyph-name="circle" unicode="&#x25cb;" 
d="M789 360q0 119 -80 198.5t-198 79.5t-198 -79.5t-80 -198.5t80 -198.5t198 -79.5t198 79.5t80 198.5zM883 360q0 -159 -107.5 -265.5t-264.5 -106.5t-264.5 106.5t-107.5 265.5t107.5 265.5t264.5 106.5t264.5 -106.5t107.5 -265.5z" />
    <glyph glyph-name="uni25CF" unicode="&#x25cf;" 
d="M883 360q0 -159 -107.5 -265.5t-264.5 -106.5t-264.5 106.5t-107.5 265.5t107.5 265.5t264.5 106.5t264.5 -106.5t107.5 -265.5z" />
    <glyph glyph-name="uni2605" unicode="&#x2605;" 
d="M432 459l91 282l91 -282h294l-239 -173l92 -279l-238 172l-238 -172l92 279l-239 173h294z" />
    <glyph glyph-name="uni272D" unicode="&#x272d;" 
d="M432 459l91 282l91 -282h294l-239 -173l92 -279l-238 172l-238 -172l92 279l-239 173h294zM523 513l-40 -124h-129l105 -76l-39 -123l103 75l103 -75l-39 123l105 76h-129z" />
    <glyph glyph-name="uni2756" unicode="&#x2756;" horiz-adv-x="987" 
d="M146 360l164 165l165 -165l-165 -165zM353 153l165 164l164 -164l-164 -165zM353 567l165 165l165 -165l-165 -164zM561 360l164 165l165 -165l-165 -165z" />
    <glyph glyph-name="uni2767" unicode="&#x2767;" horiz-adv-x="1300" 
d="M142 115l-118 23q5 20 9.5 33.5t17.5 42.5t27.5 50t41.5 47t58.5 42.5t78 28t101.5 11.5q75 0 137 -21t106 -52t83.5 -63t88.5 -59.5t103 -36.5v7q-46 15 -84 42t-65.5 55.5t-56.5 57t-72 53t-97 36.5q0 69 48.5 111.5t123.5 42.5q52 0 90 -23t60 -60.5t39.5 -82
t34.5 -89.5t38 -82.5t57 -60.5t85 -23q78 0 157 51l10 -129q-80 -45 -186 -45q-96 0 -165 42q-142 -76 -286 -76q-113 0 -170 46.5t-57 123.5q0 68 45 111q-36 13 -79 13q-49 0 -88 -17.5t-61.5 -46t-35 -53t-19.5 -50.5z" />
    <glyph glyph-name="uni2780" unicode="&#x2780;" 
d="M428 420l-12 71l109 53h66l-76 -427h-82l59 335zM973 330q0 -201 -135 -334.5t-333 -133.5t-333 133.5t-135 334.5t135 334.5t333 133.5t333 -133.5t135 -334.5zM909 330q0 175 -116.5 291t-287.5 116t-287.5 -116t-116.5 -291t116.5 -291t287.5 -116t287.5 116
t116.5 291z" />
    <glyph glyph-name="uni2781" unicode="&#x2781;" 
d="M579 426q0 52 -57 52q-60 0 -116 -59l-13 74q55 59 141 59q60 0 94 -32t34 -87q0 -59 -45.5 -114.5t-150.5 -132.5h162l-11 -69h-289l10 61q135 93 188 149t53 99zM973 330q0 -201 -135 -334.5t-333 -133.5t-333 133.5t-135 334.5t135 334.5t333 133.5t333 -133.5
t135 -334.5zM909 330q0 175 -116.5 291t-287.5 116t-287.5 -116t-116.5 -291t116.5 -291t287.5 -116t287.5 116t116.5 291z" />
    <glyph glyph-name="uni2782" unicode="&#x2782;" 
d="M539 552q59 0 96 -27.5t37 -77.5q0 -81 -101 -114q75 -23 75 -94q0 -60 -48 -95t-128 -35q-76 0 -139 34l32 65q60 -31 107 -31q42 0 66.5 17.5t24.5 47.5q0 57 -94 57q-8 0 -44 -2l11 64q156 0 156 72q0 23 -16.5 35.5t-44.5 12.5q-46 0 -107 -36l-9 71q58 36 126 36z
M973 330q0 -201 -135 -334.5t-333 -133.5t-333 133.5t-135 334.5t135 334.5t333 133.5t333 -133.5t135 -334.5zM909 330q0 175 -116.5 291t-287.5 116t-287.5 -116t-116.5 -291t116.5 -291t287.5 -116t287.5 116t116.5 291z" />
    <glyph glyph-name="uni2783" unicode="&#x2783;" 
d="M287 201l11 65l230 278h102l-49 -275h63l-12 -68h-62l-16 -84h-80l15 84h-202zM382 269h119l33 185zM973 330q0 -201 -135 -334.5t-333 -133.5t-333 133.5t-135 334.5t135 334.5t333 133.5t333 -133.5t135 -334.5zM909 330q0 175 -116.5 291t-287.5 116t-287.5 -116
t-116.5 -291t116.5 -291t287.5 -116t287.5 116t116.5 291z" />
    <glyph glyph-name="uni2784" unicode="&#x2784;" 
d="M564 258q0 66 -90 66q-46 0 -99 -16l50 236h252l-13 -71h-175l-18 -86q24 2 34 2q64 0 103 -34t39 -96q0 -69 -49.5 -109.5t-129.5 -40.5q-70 0 -140 33l34 67q57 -31 103 -31q48 0 73.5 21t25.5 59zM973 330q0 -201 -135 -334.5t-333 -133.5t-333 133.5t-135 334.5
t135 334.5t333 133.5t333 -133.5t135 -334.5zM909 330q0 175 -116.5 291t-287.5 116t-287.5 -116t-116.5 -291t116.5 -291t287.5 -116t287.5 116t116.5 291z" />
    <glyph glyph-name="uni2785" unicode="&#x2785;" 
d="M553 552q69 0 116 -32l-34 -67q-49 28 -86 28q-51 0 -82.5 -32.5t-41.5 -88.5q41 40 98 40q56 0 89.5 -35t33.5 -97q0 -71 -45 -115t-110 -44q-68 0 -109.5 50.5t-41.5 142.5q0 107 56.5 178.5t156.5 71.5zM502 334q-37 0 -82 -39q1 -118 74 -118q32 0 52 24t20 61
q0 34 -17 53t-47 19zM973 330q0 -201 -135 -334.5t-333 -133.5t-333 133.5t-135 334.5t135 334.5t333 133.5t333 -133.5t135 -334.5zM909 330q0 175 -116.5 291t-287.5 116t-287.5 -116t-116.5 -291t116.5 -291t287.5 -116t287.5 116t116.5 291z" />
    <glyph glyph-name="uni2786" unicode="&#x2786;" 
d="M398 470l13 74h282l-12 -69q-94 -139 -213 -358h-95q122 224 210 353h-185zM973 330q0 -201 -135 -334.5t-333 -133.5t-333 133.5t-135 334.5t135 334.5t333 133.5t333 -133.5t135 -334.5zM909 330q0 175 -116.5 291t-287.5 116t-287.5 -116t-116.5 -291t116.5 -291
t287.5 -116t287.5 116t116.5 291z" />
    <glyph glyph-name="uni2787" unicode="&#x2787;" 
d="M483 109q-70 0 -111.5 30.5t-41.5 83.5q0 45 29.5 71t83.5 46q-58 32 -58 91q0 54 43 87.5t109 33.5q62 0 98.5 -29t36.5 -78q0 -70 -92 -104q74 -41 74 -104q0 -58 -47.5 -93t-123.5 -35zM465 436q0 -34 57 -63q70 27 70 69q0 22 -16 34t-43 12q-30 0 -49 -14t-19 -38z
M487 171q37 0 60.5 16t23.5 46q0 26 -18 42.5t-53 32.5q-28 -11 -43.5 -19t-29.5 -24.5t-14 -37.5q0 -27 19.5 -41.5t54.5 -14.5zM973 330q0 -201 -135 -334.5t-333 -133.5t-333 133.5t-135 334.5t135 334.5t333 133.5t333 -133.5t135 -334.5zM909 330q0 175 -116.5 291
t-287.5 116t-287.5 -116t-116.5 -291t116.5 -291t287.5 -116t287.5 116t116.5 291z" />
    <glyph glyph-name="uni2788" unicode="&#x2788;" 
d="M463 109q-69 0 -116 32l34 65q49 -28 86 -28q50 0 81.5 33t42.5 90q-41 -40 -98 -40q-56 0 -89.5 35t-33.5 97q0 71 45 115t110 44q68 0 109.5 -50.5t41.5 -142.5q0 -107 -57 -178.5t-156 -71.5zM514 325q37 0 82 39q-3 118 -74 118q-32 0 -52 -24t-20 -61q0 -34 17 -53
t47 -19zM973 330q0 -201 -135 -334.5t-333 -133.5t-333 133.5t-135 334.5t135 334.5t333 133.5t333 -133.5t135 -334.5zM909 330q0 175 -116.5 291t-287.5 116t-287.5 -116t-116.5 -291t116.5 -291t287.5 -116t287.5 116t116.5 291z" />
    <glyph glyph-name="uni2789" unicode="&#x2789;" 
d="M601 178q49 0 78 55t29 132q0 116 -69 116q-50 0 -78.5 -55t-28.5 -132q0 -116 69 -116zM597 109q-66 0 -106.5 48.5t-40.5 138.5q0 105 52.5 180.5t139.5 75.5q67 0 107.5 -49t40.5 -138q0 -105 -53 -180.5t-140 -75.5zM268 420l-12 71l109 53h66l-76 -427h-82l59 335z
M973 330q0 -201 -135 -334.5t-333 -133.5t-333 133.5t-135 334.5t135 334.5t333 133.5t333 -133.5t135 -334.5zM909 330q0 175 -116.5 291t-287.5 116t-287.5 -116t-116.5 -291t116.5 -291t287.5 -116t287.5 116t116.5 291z" />
    <glyph glyph-name="uni278A" unicode="&#x278a;" 
d="M416 491l12 -71l64 32l-59 -335h82l76 427h-66zM973 330q0 -201 -135 -334.5t-333 -133.5t-333 133.5t-135 334.5t135 334.5t333 133.5t333 -133.5t135 -334.5z" />
    <glyph glyph-name="uni278B" unicode="&#x278b;" 
d="M580 426q0 -43 -53 -99t-188 -149l-10 -61h289l11 69h-162q105 77 150.5 132.5t45.5 114.5q0 55 -34 87t-94 32q-86 0 -141 -59l13 -74q56 59 116 59q57 0 57 -52zM973 330q0 -201 -135 -334.5t-333 -133.5t-333 133.5t-135 334.5t135 334.5t333 133.5t333 -133.5
t135 -334.5z" />
    <glyph glyph-name="uni278C" unicode="&#x278c;" 
d="M539 552q-68 0 -126 -36l9 -71q61 36 107 36q28 0 44.5 -12.5t16.5 -35.5q0 -72 -156 -72l-11 -64q36 2 44 2q94 0 94 -57q0 -30 -24.5 -47.5t-66.5 -17.5q-47 0 -107 31l-32 -65q63 -34 139 -34q80 0 128 35t48 95q0 71 -75 94q101 33 101 114q0 50 -37 77.5t-96 27.5z
M973 330q0 -201 -135 -334.5t-333 -133.5t-333 133.5t-135 334.5t135 334.5t333 133.5t333 -133.5t135 -334.5z" />
    <glyph glyph-name="uni278D" unicode="&#x278d;" 
d="M298 266l-11 -65h202l-15 -84h80l16 84h62l12 68h-63l49 275h-102zM501 269h-119l152 185zM973 330q0 -201 -135 -334.5t-333 -133.5t-333 133.5t-135 334.5t135 334.5t333 133.5t333 -133.5t135 -334.5z" />
    <glyph glyph-name="uni278E" unicode="&#x278e;" 
d="M564 258q0 -38 -25.5 -59t-73.5 -21q-46 0 -103 31l-34 -67q70 -33 140 -33q80 0 129.5 40.5t49.5 109.5q0 62 -39 96t-103 34q-10 0 -34 -2l18 86h175l13 71h-252l-50 -236q53 16 99 16q90 0 90 -66zM973 330q0 -201 -135 -334.5t-333 -133.5t-333 133.5t-135 334.5
t135 334.5t333 133.5t333 -133.5t135 -334.5z" />
    <glyph glyph-name="uni278F" unicode="&#x278f;" 
d="M553 552q-100 0 -156.5 -71.5t-56.5 -178.5q0 -92 41.5 -142.5t109.5 -50.5q65 0 110 44t45 115q0 62 -33.5 97t-89.5 35q-57 0 -98 -40q10 56 41.5 88.5t82.5 32.5q37 0 86 -28l34 67q-47 32 -116 32zM502 334q30 0 47 -19t17 -53q0 -37 -20 -61t-52 -24q-73 0 -74 118
q45 39 82 39zM973 330q0 -201 -135 -334.5t-333 -133.5t-333 133.5t-135 334.5t135 334.5t333 133.5t333 -133.5t135 -334.5z" />
    <glyph glyph-name="uni2790" unicode="&#x2790;" 
d="M411 544l-13 -74h185q-88 -129 -210 -353h95q119 219 213 358l12 69h-282zM973 330q0 -201 -135 -334.5t-333 -133.5t-333 133.5t-135 334.5t135 334.5t333 133.5t333 -133.5t135 -334.5z" />
    <glyph glyph-name="uni2791" unicode="&#x2791;" 
d="M483 109q76 0 123.5 35t47.5 93q0 63 -74 104q92 34 92 104q0 49 -36.5 78t-98.5 29q-66 0 -109 -33.5t-43 -87.5q0 -59 58 -91q-54 -20 -83.5 -46t-29.5 -71q0 -53 41.5 -83.5t111.5 -30.5zM465 436q0 24 19 38t49 14q27 0 43 -12t16 -34q0 -42 -70 -69q-57 29 -57 63z
M487 171q-35 0 -54.5 14.5t-19.5 41.5q0 30 22.5 47.5t64.5 33.5q35 -16 53 -32.5t18 -42.5q0 -30 -23.5 -46t-60.5 -16zM973 330q0 -201 -135 -334.5t-333 -133.5t-333 133.5t-135 334.5t135 334.5t333 133.5t333 -133.5t135 -334.5z" />
    <glyph glyph-name="uni2792" unicode="&#x2792;" 
d="M463 109q99 0 156 71.5t57 178.5q0 92 -41.5 142.5t-109.5 50.5q-65 0 -110 -44t-45 -115q0 -62 33.5 -97t89.5 -35q57 0 98 40q-11 -57 -42.5 -90t-81.5 -33q-37 0 -86 28l-34 -65q47 -32 116 -32zM514 325q-30 0 -47 19t-17 53q0 37 20 61t52 24q71 0 74 -118
q-45 -39 -82 -39zM973 330q0 -201 -135 -334.5t-333 -133.5t-333 133.5t-135 334.5t135 334.5t333 133.5t333 -133.5t135 -334.5z" />
    <glyph glyph-name="uni2793" unicode="&#x2793;" 
d="M606 178q-69 0 -69 116q0 77 28.5 132t78.5 55q69 0 69 -116q0 -77 -29 -132t-78 -55zM602 109q87 0 140 75.5t53 180.5q0 89 -40.5 138t-107.5 49q-87 0 -139.5 -75.5t-52.5 -180.5q0 -90 40.5 -138.5t106.5 -48.5zM251 491l12 -71l64 32l-59 -335h82l76 427h-66z
M973 330q0 -201 -135 -334.5t-333 -133.5t-333 133.5t-135 334.5t135 334.5t333 133.5t333 -133.5t135 -334.5z" />
    <glyph glyph-name="uni2B24" unicode="&#x2b24;" 
d="M973 330q0 -201 -135 -334.5t-333 -133.5t-333 133.5t-135 334.5t135 334.5t333 133.5t333 -133.5t135 -334.5z" />
    <glyph glyph-name="uniFB00" unicode="&#xfb00;" horiz-adv-x="645" 
d="M48 414l17 96h86l13 74q13 71 52.5 106.5t120.5 35.5q35 0 73 -6l-17 -94q-19 5 -38 5q-34 0 -49.5 -16.5t-21.5 -53.5l-9 -51h179l13 74q13 71 52.5 106.5t120.5 35.5q36 0 73 -6l-17 -94q-19 5 -38 5q-34 0 -49.5 -16.5t-21.5 -53.5l-9 -51h98l-17 -96h-98l-73 -414
h-124l73 414h-179l-73 -414h-124l73 414h-86z" />
    <glyph glyph-name="fi" unicode="&#xfb01;" horiz-adv-x="595" 
d="M48 414l17 96h86l13 74q13 71 52.5 106.5t119.5 35.5q34 0 70 -6l-17 -94q-16 5 -35 5q-34 0 -49 -16.5t-21 -53.5l-9 -51h94l-17 -96h-94l-73 -414h-124l73 414h-86zM351 0l90 510h124l-90 -510h-124zM527 583q-33 0 -53 19.5t-20 49.5t20 49.5t53 19.5t53 -19.5
t20 -49.5t-20 -49.5t-53 -19.5z" />
    <glyph glyph-name="fl" unicode="&#xfb02;" horiz-adv-x="596" 
d="M48 414l17 96h86l13 74q13 71 52.5 106.5t119.5 35.5q34 0 70 -6l-17 -94q-16 5 -35 5q-34 0 -49 -16.5t-21 -53.5l-9 -51h94l-17 -96h-94l-73 -414h-124l73 414h-86zM352 0l127 720h124l-127 -720h-124z" />
    <glyph glyph-name="uniFB03" unicode="&#xfb03;" horiz-adv-x="899" 
d="M258 414l-73 -414h-124l73 414h-86l17 96h86l13 74q13 71 52.5 106.5t120.5 35.5q35 0 73 -6l-17 -94q-19 5 -38 5q-34 0 -49.5 -16.5t-21.5 -53.5l-9 -51h179l13 74q13 71 52.5 106.5t119.5 35.5q34 0 70 -6l-17 -94q-16 5 -35 5q-34 0 -49 -16.5t-21 -53.5l-9 -51h94
l-17 -96h-94l-73 -414h-124l73 414h-179zM655 0l90 510h124l-90 -510h-124zM831 583q-33 0 -53 19.5t-20 49.5t20 49.5t53 19.5t53 -19.5t20 -49.5t-20 -49.5t-53 -19.5z" />
    <glyph glyph-name="uniFB04" unicode="&#xfb04;" horiz-adv-x="899" 
d="M258 414l-73 -414h-124l73 414h-86l17 96h86l13 74q13 71 52.5 106.5t120.5 35.5q35 0 73 -6l-17 -94q-19 5 -38 5q-34 0 -49.5 -16.5t-21.5 -53.5l-9 -51h179l13 74q13 71 52.5 106.5t119.5 35.5q34 0 70 -6l-17 -94q-16 5 -35 5q-34 0 -49 -16.5t-21 -53.5l-9 -51h94
l-17 -96h-94l-73 -414h-124l73 414h-179zM655 0l127 720h124l-127 -720h-124z" />
    <glyph glyph-name="uniFEFF" unicode="&#xfeff;" horiz-adv-x="0" 
 />
    <glyph glyph-name="u1F415" unicode="&#x1f415;" 
d="M643 298q0 44 31 75t75 31q11 0 23 -3q10 19 23 41h100q27 0 52 42l-123 85l16 82l-82 -55l-82 57l16 -80q-49 -75 -113 -139h-37q-9 -52 -49.5 -86t-94.5 -34t-95 35t-49 88q-49 9 -79.5 40t-36.5 71q-12 -20 -12 -52q0 -88 87 -138q-45 -198 -45 -229q0 -23 36 -71
t67 -48q22 0 42 13q-57 78 -57 106q0 18 14.5 36t30.5 30t54 38h287v-104q0 -23 36 -71t67 -48q22 0 42 13q-57 78 -57 106v64q-38 7 -62.5 36.5t-24.5 68.5zM772 539q0 5 4.5 9.5t10.5 4.5q5 0 9.5 -4.5t4.5 -9.5q0 -6 -4.5 -10.5t-9.5 -4.5q-6 0 -10.5 4.5t-4.5 10.5z
M294 454h277q51 51 99 123l-18 93q0 13 9 13q5 0 9 -3l88 -60l88 60q4 3 9 3q9 0 9 -13l-18 -93l127 -87q-13 -25 -20 -36t-22.5 -21.5t-35.5 -10.5h-89q-56 -96 -56 -133v-160q0 -26 65 -110q-35 -29 -70 -29q-37 0 -80 56.5t-43 82.5v84h-262q-33 -23 -46.5 -32.5
t-25.5 -24t-12 -27.5q0 -26 65 -110q-35 -29 -70 -29q-37 0 -80 56.5t-43 82.5q0 37 42 220q-84 50 -84 147q0 33 12.5 61t26.5 28q9 0 9 -9q0 -50 39 -86t101 -36z" />
    <glyph glyph-name="u1F4AC" unicode="&#x1f4ac;" 
d="M922 381q0 -100 -65 -175t-186 -104q16 -83 80 -147q-68 0 -149.5 35t-124.5 97q-169 11 -261 92.5t-92 201.5q0 128 104.5 211.5t294.5 83.5t294.5 -83.5t104.5 -211.5z" />
    <glyph glyph-name="uni0306.alt001" horiz-adv-x="1" 
d="M317 632q81 0 95 88h85q-26 -153 -184 -153q-75 0 -112.5 31t-37.5 87q0 15 4 35h85q-2 -16 -2 -25q0 -63 67 -63z" />
    <glyph glyph-name="dollar.subs" horiz-adv-x="357" 
d="M79 -168l11 62q-67 4 -120 37l33 69q60 -33 115 -33q40 0 64.5 16t24.5 42q0 21 -18.5 35.5t-45 25t-53 23.5t-45 38t-18.5 60q0 53 38.5 89t102.5 42l9 52h54l-9 -52q55 -6 102 -34l-34 -71q-51 33 -99 33q-35 0 -56.5 -14.5t-21.5 -37.5q0 -19 18.5 -32.5t45 -23.5
t53 -23t45 -38.5t18.5 -62.5q0 -56 -40 -94t-109 -45l-11 -63h-54z" />
    <glyph glyph-name="comma.subs" horiz-adv-x="193" 
d="M-17 -57q0 21 14 34.5t36 13.5q28 0 43.5 -20.5t15.5 -53.5q0 -36 -26 -68t-91 -64l-31 43q67 28 85 67q-22 1 -34 15t-12 33z" />
    <glyph glyph-name="hyphen.subs" horiz-adv-x="257" 
d="M0 57l10 61h187l-10 -61h-187z" />
    <glyph glyph-name="period.subs" horiz-adv-x="194" 
d="M94 -62q0 -23 -14.5 -38t-38.5 -15t-38.5 15t-14.5 38t14.5 38t38.5 15t38.5 -15t14.5 -38z" />
    <glyph glyph-name="n.subs" horiz-adv-x="365" 
d="M-19 -106l56 316h86l-8 -44q49 52 109 52q34 0 57 -18.5t23 -58.5q0 -17 -2 -27l-39 -220h-86l37 209q2 12 2 16q0 25 -32 25q-37 0 -80 -41l-37 -209h-86z" />
    <glyph glyph-name="cent.subs" horiz-adv-x="303" 
d="M266 202l-29 -63q-24 12 -27 13l-84 -196h11q37 0 74 23l7 -63q-37 -23 -93 -23q-17 0 -25 1l-38 -89h-46l42 100q-72 32 -72 127q0 81 52 137t136 56q4 0 10.5 -0.5t9.5 -0.5l33 77h46l-37 -86q13 -4 30 -13zM69 34q0 -42 20 -62l79 187q-45 -2 -72 -37.5t-27 -87.5z
" />
    <glyph glyph-name="sterling.subs" horiz-adv-x="309" 
d="M153 91l-7 -25q-20 -72 -59 -103q48 -10 72 -10q39 0 68 17l5 -67q-34 -17 -85 -17q-26 0 -67.5 8.5t-58.5 8.5q-35 0 -68 -19l-5 67q49 16 74.5 40t38.5 71l8 29h-81l10 54h86l29 103q14 52 44 76t93 24q29 0 44 -4l-11 -64q-19 3 -31 3q-26 0 -39 -12t-20 -38l-25 -88
h90l-10 -54h-95z" />
    <glyph glyph-name="yen.subs" horiz-adv-x="379" 
d="M14 58l10 54h82l-80 228h82l61 -180l124 180h90l-161 -228h82l-10 -54h-97l-7 -37h98l-10 -54h-97l-13 -73h-85l13 73h-98l10 54h97l7 37h-98z" />
    <glyph glyph-name="florin.subs" horiz-adv-x="297" 
d="M-12 91l10 54h86l29 103q14 52 44 76t93 24q29 0 44 -4l-11 -64q-19 3 -31 3q-26 0 -39 -12t-20 -38l-25 -88h90l-10 -54h-95l-55 -197h-84l55 197h-81z" />
    <glyph glyph-name="Euro.subs" horiz-adv-x="389" 
d="M-8 134l10 54h57q25 72 79.5 116t129.5 44q59 0 108 -31l-33 -70q-41 29 -78 29q-82 0 -119 -88h130l-9 -54h-137q-2 -11 -4 -37h134l-9 -54h-124q10 -88 81 -88q44 0 91 32l9 -69q-50 -31 -112 -31q-65 0 -106 40t-48 116h-66l10 54h55q1 14 5 37h-54z" />
    <glyph glyph-name="uni20B1.subs" horiz-adv-x="422" 
d="M-4 165l10 54h51l22 121h136q69 0 108 -30.5t43 -90.5h40l-10 -54h-33q-13 -56 -60 -86.5t-123 -30.5h-66l-27 -154h-87l48 271h-52zM126 112h60q74 0 91 53h-142zM154 273l-10 -54h138q-7 54 -73 54h-55z" />
    <glyph glyph-name="uni20B4.subs" horiz-adv-x="351" 
d="M-22 134l10 54h229q19 16 19 40q0 48 -62 48q-50 0 -106 -36l-9 73q60 35 127 35q62 0 99 -30.5t37 -85.5q0 -23 -8 -44h26l-10 -54h-67q-21 -14 -88 -37h149l-10 -54h-239q-11 -16 -11 -34q0 -54 74 -54q59 0 120 36l8 -69q-64 -35 -140 -35q-70 0 -109.5 30t-39.5 91
q0 20 4 35h-19l10 54h49q18 15 73 37h-116z" />
    <glyph glyph-name="dollar.sups" horiz-adv-x="357" 
d="M164 318l11 62q-67 4 -120 37l33 69q60 -33 115 -33q40 0 64.5 16t24.5 42q0 21 -18.5 35.5t-45 25t-53 23.5t-45 38t-18.5 60q0 53 38.5 89t102.5 42l9 52h54l-9 -52q55 -6 102 -34l-34 -71q-51 33 -99 33q-35 0 -56.5 -14.5t-21.5 -37.5q0 -19 18.5 -32.5t45 -23.5
t53 -23t45 -38.5t18.5 -62.5q0 -56 -40 -94t-109 -45l-11 -63h-54z" />
    <glyph glyph-name="comma.sups" horiz-adv-x="193" 
d="M69 429q0 21 14 34.5t36 13.5q28 0 43.5 -20.5t15.5 -53.5q0 -36 -26 -68t-91 -64l-31 43q67 28 85 67q-22 1 -34 15t-12 33z" />
    <glyph glyph-name="hyphen.sups" horiz-adv-x="257" 
d="M86 543l10 61h187l-10 -61h-187z" />
    <glyph glyph-name="period.sups" horiz-adv-x="194" 
d="M179 424q0 -23 -14.5 -38t-38.5 -15t-38.5 15t-14.5 38t14.5 38t38.5 15t38.5 -15t14.5 -38z" />
    <glyph glyph-name="a.sups" horiz-adv-x="366" 
d="M207 441q35 0 64 32l24 132q-27 26 -57 26q-37 0 -59.5 -33.5t-22.5 -82.5q0 -74 51 -74zM262 414q-37 -42 -88 -42q-47 0 -75.5 35t-28.5 100q0 81 43 139t110 58q50 0 84 -40l6 32h83l-43 -243q-8 -45 -8 -58q0 -12 2 -15h-83q-3 4 -3 19q0 10 1 15z" />
    <glyph glyph-name="b.sups" horiz-adv-x="372" 
d="M145 826h86l-29 -164q36 42 89 42q48 0 77.5 -35t29.5 -101q0 -82 -44 -139t-112 -57q-50 0 -88 42l-6 -34h-82zM257 631q-34 0 -66 -32l-23 -132q25 -26 56 -26q41 0 64.5 33.5t23.5 82.5q0 74 -55 74z" />
    <glyph glyph-name="d.sups" horiz-adv-x="369" 
d="M226 704q49 0 85 -40l29 162h86l-66 -373q-8 -44 -8 -59q0 -11 2 -14h-83q-3 4 -3 19q0 10 1 15q-37 -42 -92 -42q-48 0 -77 34.5t-29 99.5q0 82 44 140t111 58zM212 441q35 0 66 32l23 132q-25 26 -58 26q-40 0 -63 -34t-23 -83q0 -73 55 -73z" />
    <glyph glyph-name="e.sups" horiz-adv-x="339" 
d="M256 704q56 0 86.5 -26.5t30.5 -66.5q0 -49 -45.5 -78t-138.5 -29q-23 0 -33 1q4 -70 72 -70q48 0 98 26l6 -62q-54 -27 -119 -27q-68 0 -105 35.5t-37 103.5q0 83 51 138t134 55zM249 642q-32 0 -56 -23t-33 -61q9 -1 27 -1q107 0 107 49q0 15 -11.5 25.5t-33.5 10.5z
" />
    <glyph glyph-name="h.sups" horiz-adv-x="365" 
d="M66 380l79 446h86l-31 -174q49 52 109 52q34 0 57 -18.5t23 -58.5q0 -17 -2 -27l-39 -220h-86l37 209q2 12 2 16q0 25 -32 25q-37 0 -80 -41l-37 -209h-86z" />
    <glyph glyph-name="l.sups" horiz-adv-x="182" 
d="M70 380l79 446h86l-79 -446h-86z" />
    <glyph glyph-name="m.sups" horiz-adv-x="546" 
d="M341 380h-86l37 209q2 12 2 16q0 25 -30 25q-34 0 -75 -41l-37 -209h-86l56 316h86l-8 -44q47 52 106 52q28 0 48.5 -14.5t24.5 -43.5q50 58 113 58q33 0 55.5 -19.5t22.5 -61.5q0 -7 -2 -23l-39 -220h-86l37 209q2 12 2 16q0 25 -28 25q-35 0 -76 -41z" />
    <glyph glyph-name="o.sups" horiz-adv-x="355" 
d="M212 435q37 0 60 36.5t23 87.5q0 80 -55 80q-37 0 -60 -36.5t-23 -87.5q0 -80 55 -80zM206 372q-60 0 -97.5 37t-37.5 106q0 81 49.5 135t125.5 54q60 0 97.5 -37t37.5 -106q0 -81 -49.5 -135t-125.5 -54z" />
    <glyph glyph-name="p.sups" horiz-adv-x="372" 
d="M122 696h86l-6 -34q36 42 89 42q48 0 77.5 -35t29.5 -101q0 -82 -44 -139t-112 -57q-48 0 -86 39l-27 -161h-86zM257 631q-34 0 -66 -32l-23 -132q25 -26 56 -26q41 0 64.5 33.5t23.5 82.5q0 74 -55 74z" />
    <glyph glyph-name="r.sups" horiz-adv-x="247" 
d="M187 578l-35 -198h-86l56 316h86l-9 -51q35 59 88 59q17 0 29 -4l-13 -76q-14 2 -25 2q-54 0 -91 -48z" />
    <glyph glyph-name="s.sups" horiz-adv-x="295" 
d="M336 677l-28 -64q-42 25 -77 25q-22 0 -36 -9t-14 -23q0 -15 20.5 -25t44.5 -17t44.5 -28t20.5 -55q0 -50 -39.5 -79.5t-105.5 -29.5t-115 27l27 63q50 -26 91 -26q26 0 42.5 10t16.5 26t-20.5 27.5t-44.5 19t-44.5 28.5t-20.5 53q0 46 37 75t96 29q53 0 105 -27z" />
    <glyph glyph-name="t.sups" horiz-adv-x="235" 
d="M79 630l12 67h49l19 105h86l-19 -105h65l-12 -67h-65l-26 -147q-2 -16 -2 -18q0 -23 26 -23q14 0 34 6l-12 -66q-28 -7 -51 -7q-43 0 -64 16.5t-21 58.5q0 10 2 21l28 159h-49z" />
    <glyph glyph-name="u.sups" horiz-adv-x="365" 
d="M389 696l-56 -316h-86l8 44q-49 -52 -109 -52q-34 0 -57 18.5t-23 58.5q0 17 2 27l39 220h86l-37 -211q-2 -12 -2 -16q0 -25 32 -25q37 0 80 41l37 211h86z" />
    <glyph glyph-name="cent.sups" horiz-adv-x="303" 
d="M352 688l-29 -63q-24 12 -27 13l-84 -196h11q37 0 74 23l7 -63q-37 -23 -93 -23q-17 0 -25 1l-38 -89h-46l42 100q-72 32 -72 127q0 81 52 137t136 56q4 0 10.5 -0.5t9.5 -0.5l33 77h46l-37 -86q13 -4 30 -13zM155 520q0 -42 20 -62l79 187q-45 -2 -72 -37.5t-27 -87.5z
" />
    <glyph glyph-name="sterling.sups" horiz-adv-x="309" 
d="M239 577l-7 -25q-20 -72 -59 -103q48 -10 72 -10q39 0 68 17l5 -67q-34 -17 -85 -17q-26 0 -67.5 8.5t-58.5 8.5q-35 0 -68 -19l-5 67q49 16 74.5 40t38.5 71l8 29h-81l10 54h86l29 103q14 52 44 76t93 24q29 0 44 -4l-11 -64q-20 3 -31 3q-26 0 -39 -12t-20 -38l-25 -88
h90l-10 -54h-95z" />
    <glyph glyph-name="yen.sups" horiz-adv-x="379" 
d="M100 544l10 54h82l-80 228h82l61 -180l124 180h90l-161 -228h82l-10 -54h-97l-7 -37h98l-10 -54h-97l-13 -73h-85l13 73h-98l10 54h97l7 37h-98z" />
    <glyph glyph-name="egrave.sups" horiz-adv-x="339" 
d="M314 725h-61l-72 101h84zM256 704q56 0 86.5 -26.5t30.5 -66.5q0 -49 -45.5 -78t-138.5 -29q-23 0 -33 1q4 -70 72 -70q48 0 98 26l6 -62q-54 -27 -119 -27q-68 0 -105 35.5t-37 103.5q0 83 51 138t134 55zM249 642q-32 0 -56 -23t-33 -61q9 -1 27 -1q107 0 107 49
q0 15 -11.5 25.5t-33.5 10.5z" />
    <glyph glyph-name="florin.sups" horiz-adv-x="292" 
d="M74 577l10 54h86l29 103q14 52 44 76t93 24q29 0 44 -4l-11 -64q-20 3 -31 3q-26 0 -39 -12t-20 -38l-25 -88h90l-10 -54h-95l-55 -197h-84l55 197h-81z" />
    <glyph glyph-name="Euro.sups" horiz-adv-x="389" 
d="M78 620l10 54h57q25 72 79.5 116t129.5 44q59 0 108 -31l-33 -70q-41 29 -78 29q-82 0 -119 -88h130l-9 -54h-137q-2 -11 -4 -37h134l-9 -54h-124q10 -88 81 -88q44 0 91 32l9 -69q-50 -31 -112 -31q-65 0 -106 40t-48 116h-66l10 54h55q1 14 5 37h-54z" />
    <glyph glyph-name="uni20B1.sups" horiz-adv-x="422" 
d="M82 651l10 54h51l22 121h136q69 0 108 -30.5t43 -90.5h40l-10 -54h-33q-13 -56 -60 -86.5t-123 -30.5h-66l-27 -154h-87l48 271h-52zM212 598h60q74 0 91 53h-142zM240 759l-10 -54h138q-7 54 -73 54h-55z" />
    <glyph glyph-name="uni20B4.sups" horiz-adv-x="351" 
d="M64 620l10 54h229q19 16 19 40q0 48 -62 48q-50 0 -106 -36l-9 73q60 35 127 35q62 0 99 -30.5t37 -85.5q0 -23 -8 -44h26l-10 -54h-67q-21 -14 -88 -37h149l-10 -54h-239q-11 -16 -11 -34q0 -54 74 -54q59 0 120 36l8 -69q-64 -35 -140 -35q-70 0 -109.5 30t-39.5 91
q0 20 4 35h-19l10 54h49q18 15 73 37h-116z" />
    <glyph glyph-name="dollar.numr" horiz-adv-x="357" 
d="M145 212l11 62q-67 4 -120 37l33 69q60 -33 115 -33q40 0 64.5 16t24.5 42q0 21 -18.5 35.5t-45 25t-53 23.5t-45 38t-18.5 60q0 53 38.5 89t102.5 42l9 52h54l-9 -52q55 -6 102 -34l-34 -71q-51 33 -99 33q-35 0 -56.5 -14.5t-21.5 -37.5q0 -19 18.5 -32.5t45 -23.5
t53 -23t45 -38.5t18.5 -62.5q0 -56 -40 -94t-109 -45l-11 -63h-54z" />
    <glyph glyph-name="parenleft.numr" horiz-adv-x="236" 
d="M137 401q0 -124 69 -208l-50 -34q-104 99 -104 242q0 51 14 97.5t33 78.5t50.5 64.5t53.5 50t55 41.5l35 -49q-72 -53 -114 -119.5t-42 -163.5z" />
    <glyph glyph-name="parenright.numr" horiz-adv-x="236" 
d="M164 491q0 124 -69 208l50 34q104 -99 104 -242q0 -51 -14 -97.5t-33 -78.5t-50.5 -64.5t-53.5 -50t-55 -41.5l-35 49q72 53 114 119.5t42 163.5z" />
    <glyph glyph-name="plus.numr" horiz-adv-x="364" 
d="M219 274h-68l22 123h-117l12 70h117l22 123h68l-22 -123h117l-12 -70h-117z" />
    <glyph glyph-name="comma.numr" horiz-adv-x="193" 
d="M50 323q0 21 14 34.5t36 13.5q28 0 43.5 -20.5t15.5 -53.5q0 -36 -26 -68t-91 -64l-31 43q67 28 85 67q-22 1 -34 15t-12 33z" />
    <glyph glyph-name="hyphen.numr" horiz-adv-x="257" 
d="M67 437l10 61h187l-10 -61h-187z" />
    <glyph glyph-name="period.numr" horiz-adv-x="194" 
d="M160 318q0 -23 -14.5 -38t-38.5 -15t-38.5 15t-14.5 38t14.5 38t38.5 15t38.5 -15t14.5 -38z" />
    <glyph glyph-name="zero.numr" horiz-adv-x="403" 
d="M224 338q52 0 81.5 57.5t29.5 137.5q0 121 -72 121q-52 0 -81.5 -57.5t-29.5 -137.5q0 -121 72 -121zM220 266q-70 0 -112 50.5t-42 144.5q0 110 55.5 188.5t145.5 78.5q70 0 112 -50.5t42 -144.5q0 -110 -55.5 -188.5t-145.5 -78.5z" />
    <glyph glyph-name="one.numr" horiz-adv-x="248" 
d="M101 591l-13 74l114 55h69l-79 -446h-86l62 350z" />
    <glyph glyph-name="two.numr" horiz-adv-x="359" 
d="M292 597q0 54 -60 54q-62 0 -121 -61l-13 77q57 61 147 61q62 0 97.5 -33.5t35.5 -90.5q0 -61 -47.5 -119t-156.5 -139h169l-12 -72h-301l10 64q141 97 196.5 155.5t55.5 103.5z" />
    <glyph glyph-name="three.numr" horiz-adv-x="351" 
d="M237 728q62 0 100.5 -28.5t38.5 -80.5q0 -85 -105 -119q78 -25 78 -99q0 -62 -50 -98.5t-133 -36.5q-82 0 -145 35l33 68q60 -32 111 -32q44 0 69.5 18t25.5 50q0 59 -98 59q-9 0 -45 -2l11 67q163 0 163 75q0 50 -64 50q-49 0 -112 -37l-9 74q60 37 131 37z" />
    <glyph glyph-name="four.numr" horiz-adv-x="390" 
d="M36 362l12 68l239 290h107l-51 -287h65l-12 -71h-65l-16 -88h-84l16 88h-211zM135 433h124l35 193z" />
    <glyph glyph-name="five.numr" horiz-adv-x="345" 
d="M269 421q0 69 -94 69q-49 0 -103 -16l52 246h262l-13 -74h-182l-19 -90q24 2 35 2q67 0 107.5 -35.5t40.5 -100.5q0 -72 -51 -114t-135 -42q-76 0 -146 34l35 70q57 -32 108 -32q49 0 76 22t27 61z" />
    <glyph glyph-name="six.numr" horiz-adv-x="376" 
d="M288 728q73 0 121 -33l-35 -70q-49 29 -90 29q-53 0 -85.5 -34t-43.5 -92q43 42 102 42q58 0 93 -37t35 -101q0 -75 -46.5 -120.5t-114.5 -45.5q-71 0 -114.5 53t-43.5 148q0 112 59 186.5t163 74.5zM235 501q-38 0 -85 -41q1 -123 77 -123q33 0 54 24.5t21 64.5
q0 36 -17.5 55.5t-49.5 19.5z" />
    <glyph glyph-name="seven.numr" horiz-adv-x="325" 
d="M84 643l14 77h294l-13 -72q-100 -148 -222 -374h-99q125 231 219 369h-193z" />
    <glyph glyph-name="eight.numr" horiz-adv-x="371" 
d="M200 266q-73 0 -116.5 32t-43.5 87q0 47 31 74t87 48q-60 34 -60 95q0 56 44.5 91t113.5 35q64 0 102.5 -30.5t38.5 -80.5q0 -73 -96 -109q77 -42 77 -108q0 -61 -49.5 -97.5t-128.5 -36.5zM182 608q0 -37 59 -67q73 29 73 72q0 23 -16.5 36t-45.5 13q-31 0 -50.5 -14.5
t-19.5 -39.5zM204 330q38 0 63 17t25 48q0 27 -19 44t-55 35q-29 -11 -45.5 -19.5t-31.5 -26t-15 -39.5q0 -28 21 -43.5t57 -15.5z" />
    <glyph glyph-name="nine.numr" horiz-adv-x="376" 
d="M173 266q-73 0 -121 33l35 68q49 -29 90 -29q53 0 85.5 34.5t43.5 93.5q-43 -42 -102 -42q-58 0 -93 37t-35 101q0 75 46.5 120.5t114.5 45.5q71 0 114.5 -53t43.5 -148q0 -112 -59 -186.5t-163 -74.5zM226 491q38 0 85 41q-3 123 -77 123q-33 0 -54 -24.5t-21 -64.5
q0 -36 17.5 -55.5t49.5 -19.5z" />
    <glyph glyph-name="equal.numr" horiz-adv-x="364" 
d="M358 400l-11 -63h-302l11 63h302zM381 527l-12 -63h-302l12 63h302z" />
    <glyph glyph-name="n.numr" horiz-adv-x="352" 
d="M50 274l56 316h86l-8 -44q49 52 109 52q34 0 57 -18.5t23 -58.5q0 -17 -2 -27l-39 -220h-86l37 209q2 12 2 16q0 25 -32 25q-37 0 -80 -41l-37 -209h-86z" />
    <glyph glyph-name="cent.numr" horiz-adv-x="303" 
d="M333 582l-29 -63q-24 12 -27 13l-84 -196h11q37 0 74 23l7 -63q-37 -23 -93 -23q-17 0 -25 1l-38 -89h-46l42 100q-72 32 -72 127q0 81 52 137t136 56q4 0 10.5 -0.5t9.5 -0.5l33 77h46l-37 -86q13 -4 30 -13zM136 414q0 -42 20 -62l79 187q-45 -2 -72 -37.5t-27 -87.5z
" />
    <glyph glyph-name="sterling.numr" horiz-adv-x="309" 
d="M220 471l-7 -25q-20 -72 -59 -103q48 -10 72 -10q39 0 68 17l5 -67q-34 -17 -85 -17q-26 0 -67.5 8.5t-58.5 8.5q-35 0 -68 -19l-5 67q49 16 74.5 40t38.5 71l8 29h-81l10 54h86l29 103q14 52 44 76t93 24q29 0 44 -4l-11 -64q-20 3 -31 3q-26 0 -39 -12t-20 -38l-25 -88
h90l-10 -54h-95z" />
    <glyph glyph-name="yen.numr" horiz-adv-x="379" 
d="M81 438l10 54h82l-80 228h82l61 -180l124 180h90l-161 -228h82l-10 -54h-97l-7 -37h98l-10 -54h-97l-13 -73h-85l13 73h-98l10 54h97l7 37h-98z" />
    <glyph glyph-name="florin.numr" horiz-adv-x="297" 
d="M55 471l10 54h86l29 103q14 52 44 76t93 24q29 0 44 -4l-11 -64q-20 3 -31 3q-26 0 -39 -12t-20 -38l-25 -88h90l-10 -54h-95l-55 -197h-84l55 197h-81z" />
    <glyph glyph-name="Euro.numr" horiz-adv-x="389" 
d="M59 514l10 54h57q25 72 79.5 116t129.5 44q59 0 108 -31l-33 -70q-41 29 -78 29q-82 0 -119 -88h130l-9 -54h-137q-2 -11 -4 -37h134l-9 -54h-124q10 -88 81 -88q44 0 91 32l9 -69q-50 -31 -112 -31q-65 0 -106 40t-48 116h-66l10 54h55q1 14 5 37h-54z" />
    <glyph glyph-name="uni20B1.numr" horiz-adv-x="422" 
d="M63 545l10 54h51l22 121h136q69 0 108 -30.5t43 -90.5h40l-10 -54h-33q-13 -56 -60 -86.5t-123 -30.5h-66l-27 -154h-87l48 271h-52zM193 492h60q74 0 91 53h-142zM221 653l-10 -54h138q-7 54 -73 54h-55z" />
    <glyph glyph-name="uni20B4.numr" horiz-adv-x="351" 
d="M45 514l10 54h229q19 16 19 40q0 48 -62 48q-50 0 -106 -36l-9 73q60 35 127 35q62 0 99 -30.5t37 -85.5q0 -23 -8 -44h26l-10 -54h-67q-21 -14 -88 -37h149l-10 -54h-239q-11 -16 -11 -34q0 -54 74 -54q59 0 120 36l8 -69q-64 -35 -140 -35q-70 0 -109.5 30t-39.5 91
q0 20 4 35h-19l10 54h49q18 15 73 37h-116z" />
    <glyph glyph-name="minus.numr" horiz-adv-x="364" 
d="M370 467l-12 -70h-302l12 70h302z" />
    <glyph glyph-name="dollar.dnom" horiz-adv-x="357" 
d="M97 -62l11 62q-67 4 -120 37l33 69q60 -33 115 -33q40 0 64.5 16t24.5 42q0 21 -18.5 35.5t-45 25t-53 23.5t-45 38t-18.5 60q0 53 38.5 89t102.5 42l9 52h54l-9 -52q55 -6 102 -34l-34 -71q-51 33 -99 33q-35 0 -56.5 -14.5t-21.5 -37.5q0 -19 18.5 -32.5t45 -23.5
t53 -23t45 -38.5t18.5 -62.5q0 -56 -40 -94t-109 -45l-11 -63h-54z" />
    <glyph glyph-name="parenleft.dnom" horiz-adv-x="236" 
d="M89 127q0 -124 69 -208l-50 -34q-104 99 -104 242q0 51 14 97.5t33 78.5t50.5 64.5t53.5 50t55 41.5l35 -49q-72 -53 -114 -119.5t-42 -163.5z" />
    <glyph glyph-name="parenright.dnom" horiz-adv-x="236" 
d="M116 217q0 124 -69 208l50 34q104 -99 104 -242q0 -51 -14 -97.5t-33 -78.5t-50.5 -64.5t-53.5 -50t-55 -41.5l-35 49q72 53 114 119.5t42 163.5z" />
    <glyph glyph-name="plus.dnom" horiz-adv-x="364" 
d="M171 0h-68l22 123h-117l12 70h117l22 123h68l-22 -123h117l-12 -70h-117z" />
    <glyph glyph-name="comma.dnom" horiz-adv-x="193" 
d="M2 49q0 21 14 34.5t36 13.5q28 0 43.5 -20.5t15.5 -53.5q0 -36 -26 -68t-91 -64l-31 43q67 28 85 67q-22 1 -34 15t-12 33z" />
    <glyph glyph-name="hyphen.dnom" horiz-adv-x="257" 
d="M19 163l10 61h187l-10 -61h-187z" />
    <glyph glyph-name="period.dnom" horiz-adv-x="194" 
d="M112 44q0 -23 -14.5 -38t-38.5 -15t-38.5 15t-14.5 38t14.5 38t38.5 15t38.5 -15t14.5 -38z" />
    <glyph glyph-name="zero.dnom" horiz-adv-x="403" 
d="M176 64q52 0 81.5 57.5t29.5 137.5q0 121 -72 121q-52 0 -81.5 -57.5t-29.5 -137.5q0 -121 72 -121zM172 -8q-70 0 -112 50.5t-42 144.5q0 110 55.5 188.5t145.5 78.5q70 0 112 -50.5t42 -144.5q0 -110 -55.5 -188.5t-145.5 -78.5z" />
    <glyph glyph-name="one.dnom" horiz-adv-x="248" 
d="M53 317l-13 74l114 55h69l-79 -446h-86l62 350z" />
    <glyph glyph-name="two.dnom" horiz-adv-x="359" 
d="M244 323q0 54 -60 54q-62 0 -121 -61l-13 77q57 61 147 61q62 0 97.5 -33.5t35.5 -90.5q0 -61 -47.5 -119t-156.5 -139h169l-12 -72h-301l10 64q141 97 196.5 155.5t55.5 103.5z" />
    <glyph glyph-name="three.dnom" horiz-adv-x="351" 
d="M189 454q62 0 100.5 -28.5t38.5 -80.5q0 -85 -105 -119q78 -25 78 -99q0 -62 -50 -98.5t-133 -36.5q-82 0 -145 35l33 68q60 -32 111 -32q44 0 69.5 18t25.5 50q0 59 -98 59q-9 0 -45 -2l11 67q163 0 163 75q0 50 -64 50q-49 0 -112 -37l-9 74q60 37 131 37z" />
    <glyph glyph-name="four.dnom" horiz-adv-x="390" 
d="M-12 88l12 68l239 290h107l-51 -287h65l-12 -71h-65l-16 -88h-84l16 88h-211zM87 159h124l35 193z" />
    <glyph glyph-name="five.dnom" horiz-adv-x="345" 
d="M221 147q0 69 -94 69q-49 0 -103 -16l52 246h262l-13 -74h-182l-19 -90q24 2 35 2q67 0 107.5 -35.5t40.5 -100.5q0 -72 -51 -114t-135 -42q-76 0 -146 34l35 70q57 -32 108 -32q49 0 76 22t27 61z" />
    <glyph glyph-name="six.dnom" horiz-adv-x="376" 
d="M240 454q73 0 121 -33l-35 -70q-49 29 -90 29q-53 0 -85.5 -34t-43.5 -92q43 42 102 42q58 0 93 -37t35 -101q0 -75 -46.5 -120.5t-114.5 -45.5q-71 0 -114.5 53t-43.5 148q0 112 59 186.5t163 74.5zM187 227q-38 0 -85 -41q1 -123 77 -123q33 0 54 24.5t21 64.5
q0 36 -17.5 55.5t-49.5 19.5z" />
    <glyph glyph-name="seven.dnom" horiz-adv-x="325" 
d="M36 369l14 77h294l-13 -72q-100 -148 -222 -374h-99q125 231 219 369h-193z" />
    <glyph glyph-name="eight.dnom" horiz-adv-x="371" 
d="M152 -8q-73 0 -116.5 32t-43.5 87q0 47 31 74t87 48q-60 34 -60 95q0 56 44.5 91t113.5 35q64 0 102.5 -30.5t38.5 -80.5q0 -73 -96 -109q77 -42 77 -108q0 -61 -49.5 -97.5t-128.5 -36.5zM134 334q0 -37 59 -67q73 29 73 72q0 23 -16.5 36t-45.5 13q-31 0 -50.5 -14.5
t-19.5 -39.5zM156 56q38 0 63 17t25 48q0 27 -19 44t-55 35q-29 -11 -45.5 -19.5t-31.5 -26t-15 -39.5q0 -28 21 -43.5t57 -15.5z" />
    <glyph glyph-name="nine.dnom" horiz-adv-x="376" 
d="M125 -8q-73 0 -121 33l35 68q49 -29 90 -29q53 0 85.5 34.5t43.5 93.5q-43 -42 -102 -42q-58 0 -93 37t-35 101q0 75 46.5 120.5t114.5 45.5q71 0 114.5 -53t43.5 -148q0 -112 -59 -186.5t-163 -74.5zM178 217q38 0 85 41q-3 123 -77 123q-33 0 -54 -24.5t-21 -64.5
q0 -36 17.5 -55.5t49.5 -19.5z" />
    <glyph glyph-name="equal.dnom" horiz-adv-x="364" 
d="M310 126l-11 -63h-302l11 63h302zM333 253l-12 -63h-302l12 63h302z" />
    <glyph glyph-name="n.dnom" horiz-adv-x="352" 
d="M0 0l56 316h86l-8 -44q49 52 109 52q34 0 57 -18.5t23 -58.5q0 -17 -2 -27l-39 -220h-86l37 209q2 12 2 16q0 25 -32 25q-37 0 -80 -41l-37 -209h-86z" />
    <glyph glyph-name="cent.dnom" horiz-adv-x="303" 
d="M285 308l-29 -63q-24 12 -27 13l-84 -196h11q37 0 74 23l7 -63q-37 -23 -93 -23q-17 0 -25 1l-38 -89h-46l42 100q-72 32 -72 127q0 81 52 137t136 56q4 0 10.5 -0.5t9.5 -0.5l33 77h46l-37 -86q13 -4 30 -13zM88 140q0 -42 20 -62l79 187q-45 -2 -72 -37.5t-27 -87.5z
" />
    <glyph glyph-name="sterling.dnom" horiz-adv-x="309" 
d="M172 197l-7 -25q-20 -72 -59 -103q48 -10 72 -10q39 0 68 17l5 -67q-34 -17 -85 -17q-26 0 -67.5 8.5t-58.5 8.5q-35 0 -68 -19l-5 67q49 16 74.5 40t38.5 71l8 29h-81l10 54h86l29 103q14 52 44 76t93 24q29 0 44 -4l-11 -64q-20 3 -31 3q-26 0 -39 -12t-20 -38l-25 -88
h90l-10 -54h-95z" />
    <glyph glyph-name="yen.dnom" horiz-adv-x="379" 
d="M33 164l10 54h82l-80 228h82l61 -180l124 180h90l-161 -228h82l-10 -54h-97l-7 -37h98l-10 -54h-97l-13 -73h-85l13 73h-98l10 54h97l7 37h-98z" />
    <glyph glyph-name="florin.dnom" horiz-adv-x="297" 
d="M7 197l10 54h86l29 103q14 52 44 76t93 24q29 0 44 -4l-11 -64q-20 3 -31 3q-26 0 -39 -12t-20 -38l-25 -88h90l-10 -54h-95l-55 -197h-84l55 197h-81z" />
    <glyph glyph-name="Euro.dnom" horiz-adv-x="389" 
d="M11 240l10 54h57q25 72 79.5 116t129.5 44q59 0 108 -31l-33 -70q-41 29 -78 29q-82 0 -119 -88h130l-9 -54h-137q-2 -11 -4 -37h134l-9 -54h-124q10 -88 81 -88q44 0 91 32l9 -69q-50 -31 -112 -31q-65 0 -106 40t-48 116h-66l10 54h55q1 14 5 37h-54z" />
    <glyph glyph-name="uni20B1.dnom" horiz-adv-x="422" 
d="M15 271l10 54h51l22 121h136q69 0 108 -30.5t43 -90.5h40l-10 -54h-33q-13 -56 -60 -86.5t-123 -30.5h-66l-27 -154h-87l48 271h-52zM145 218h60q74 0 91 53h-142zM173 379l-10 -54h138q-7 54 -73 54h-55z" />
    <glyph glyph-name="uni20B4.dnom" horiz-adv-x="351" 
d="M-3 240l10 54h229q19 16 19 40q0 48 -62 48q-50 0 -106 -36l-9 73q60 35 127 35q62 0 99 -30.5t37 -85.5q0 -23 -8 -44h26l-10 -54h-67q-21 -14 -88 -37h149l-10 -54h-239q-11 -16 -11 -34q0 -54 74 -54q59 0 120 36l8 -69q-64 -35 -140 -35q-70 0 -109.5 30t-39.5 91
q0 20 4 35h-19l10 54h49q18 15 73 37h-116z" />
    <glyph glyph-name="minus.dnom" horiz-adv-x="364" 
d="M322 193l-12 -70h-302l12 70h302z" />
    <glyph glyph-name="space.frac" horiz-adv-x="44" 
 />
    <glyph glyph-name="dollar.osf" horiz-adv-x="548" 
d="M175 -100l18 101q-102 8 -187 57l48 95q99 -54 177 -54q63 0 106 29t43 73q0 34 -29.5 57t-71.5 39t-84 35t-71.5 56t-29.5 90q0 81 60.5 135.5t157.5 64.5l15 82h79l-15 -82q87 -10 159 -54l-49 -97q-80 51 -155 51q-57 0 -93.5 -25t-36.5 -63q0 -27 21 -47t53 -31.5
t69 -27.5t69 -34.5t53 -53t21 -81.5q0 -85 -63 -143.5t-167 -69.5l-18 -102h-79z" />
    <glyph glyph-name="zero.osf" horiz-adv-x="586" 
d="M275 89q67 0 109.5 59.5t42.5 143.5q0 69 -30.5 107t-82.5 38q-67 0 -109.5 -59.5t-42.5 -143.5q0 -69 30.5 -107t82.5 -38zM268 -12q-102 0 -166 65t-64 178q0 128 79.5 219.5t203.5 91.5q102 0 166 -65t64 -178q0 -128 -79.5 -219.5t-203.5 -91.5z" />
    <glyph glyph-name="one.osf" horiz-adv-x="383" 
d="M79 339l-19 104l178 87h96l-94 -530h-121l69 390z" />
    <glyph glyph-name="two.osf" horiz-adv-x="505" 
d="M465 383q0 -64 -55 -127.5t-196 -155.5h223l-17 -100h-426l14 88q190 112 262 172.5t72 109.5q0 31 -23 49t-64 18q-90 0 -169 -81l-20 106q80 80 204 80q89 0 142 -43.5t53 -115.5z" />
    <glyph glyph-name="three.osf" horiz-adv-x="492" 
d="M-46 -182l7 101q328 0 328 134q0 92 -161 92q-24 0 -64 -3l17 97q127 0 190.5 31.5t63.5 86.5q0 38 -28 59t-74 21q-72 0 -169 -59l-7 106q93 58 195 58q89 0 148 -43t59 -120q0 -65 -45 -112t-130 -71q134 -35 134 -152q0 -49 -24 -88.5t-76.5 -71.5t-144.5 -49
t-219 -17z" />
    <glyph glyph-name="four.osf" horiz-adv-x="579" 
d="M-25 0l16 92l366 439h155l-77 -433h93l-17 -98h-93l-26 -150h-121l26 150h-322zM113 98h201l55 311z" />
    <glyph glyph-name="five.osf" horiz-adv-x="508" 
d="M-17 -182l7 101q180 1 259 46.5t79 115.5q0 98 -146 98q-72 0 -149 -23l78 374h388l-19 -106h-272l-33 -153q27 4 55 4q102 0 162 -50t60 -141q0 -121 -115 -193.5t-354 -72.5z" />
    <glyph glyph-name="six.osf" horiz-adv-x="557" 
d="M538 604q-137 -28 -228 -76.5t-129 -142.5q66 58 153 58q86 0 140 -55.5t54 -149.5q0 -112 -74 -181t-180 -69q-105 0 -170 73.5t-65 206.5q0 350 495 444zM301 343q-64 0 -141 -65v-16q0 -88 32.5 -131t87.5 -43q56 0 93 39.5t37 101.5q0 53 -29.5 83.5t-79.5 30.5z" />
    <glyph glyph-name="seven.osf" horiz-adv-x="521" 
d="M157 -150h-147q183 327 353 572h-315l19 108h465l-17 -101q-183 -265 -358 -579z" />
    <glyph glyph-name="eight.osf" horiz-adv-x="576" 
d="M557 526q0 -62 -39.5 -101.5t-109.5 -67.5q57 -31 88.5 -70t31.5 -98q0 -90 -74.5 -145.5t-192.5 -55.5q-109 0 -173 49t-64 133q0 73 47.5 115t135.5 73q-94 57 -94 148q0 83 66 134.5t169 51.5q94 0 151.5 -45t57.5 -121zM437 519q0 36 -26 57.5t-69 21.5
q-46 0 -77.5 -24t-31.5 -64q0 -34 22.5 -57t65.5 -47q56 23 86 48.5t30 64.5zM404 186q0 41 -28 67.5t-82 55.5q-35 -14 -56.5 -24t-44.5 -26t-34 -37t-11 -47q0 -45 32.5 -70.5t86.5 -25.5q59 0 98 29.5t39 77.5z" />
    <glyph glyph-name="nine.osf" horiz-adv-x="557" 
d="M24 -79q66 13 116 28.5t101 41.5t87.5 65t54.5 91q-67 -60 -154 -60t-141 55t-54 148q0 112 74.5 182t179.5 70t170 -73.5t65 -206.5q0 -350 -495 -444zM261 182q66 0 141 65v21q0 83 -33 126t-88 43t-92 -39.5t-37 -101.5q0 -53 29.5 -83.5t79.5 -30.5z" />
    <glyph glyph-name="cent.osf" horiz-adv-x="480" 
d="M477 471l-42 -90q-21 13 -43 22l-132 -310h9q64 0 125 37l10 -91q-65 -39 -154 -39q-20 0 -29 1l-57 -136h-69l63 149q-125 44 -125 200q0 125 80.5 210.5t213.5 85.5q16 0 40 -2l50 117h69l-56 -132q22 -8 47 -22zM151 221q0 -81 51 -112l129 305h-3q-82 0 -129.5 -55
t-47.5 -138z" />
    <glyph glyph-name="sterling.osf" horiz-adv-x="488" 
d="M171 303h-135l14 81h144l41 146q24 84 68.5 123t142.5 39q37 0 72 -5l-16 -95q-32 6 -52 6q-42 0 -64 -20.5t-35 -65.5l-36 -128h150l-14 -81h-159l-7 -26q-34 -125 -104 -174q92 -18 125 -18q62 0 110 29l9 -98q-48 -28 -133 -28q-38 0 -104 13t-96 13q-60 0 -111 -29
l-9 98q85 32 128 73t61 110z" />
    <glyph glyph-name="currency.osf" horiz-adv-x="572" 
d="M192 255q0 -40 26.5 -66.5t64.5 -26.5t64.5 26.5t26.5 66.5t-26.5 66.5t-64.5 26.5t-64.5 -26.5t-26.5 -66.5zM447 255q0 -43 -18 -77l79 -80l-69 -70l-82 83q-33 -15 -74 -15t-74 15l-82 -83l-69 70l79 80q-18 35 -18 77q0 43 18 77l-79 80l69 70l82 -83q33 15 74 15
t74 -15l82 83l69 -70l-79 -80q18 -35 18 -77z" />
    <glyph glyph-name="yen.osf" horiz-adv-x="588" 
d="M72 249l14 81h136l-131 350h116l106 -286l206 286h128l-256 -350h136l-14 -81h-159l-12 -65h160l-14 -81h-160l-18 -103h-122l18 103h-159l14 81h159l12 65h-160z" />
    <glyph glyph-name="section.osf" horiz-adv-x="584" 
d="M382 692q103 0 194 -52l-46 -95q-79 49 -154 49q-53 0 -98 -22.5t-69 -66.5q63 -7 116 -26.5t98.5 -54t71.5 -91t26 -128.5q0 -140 -90 -218.5t-225 -78.5q-109 0 -202 53l46 91q83 -49 163 -49q58 0 106 23t73 69q-63 7 -116 26t-98.5 53.5t-71.5 91.5t-26 131
q0 139 86 217t216 78zM416 181v16q0 185 -231 218v-13q0 -189 231 -221z" />
    <glyph glyph-name="florin.osf" horiz-adv-x="463" 
d="M36 303l14 81h144l41 146q24 84 68.5 123t142.5 39q37 0 72 -5l-16 -95q-32 6 -52 6q-42 0 -64 -20.5t-35 -65.5l-36 -128h150l-14 -81h-159l-85 -303h-121l85 303h-135z" />
    <glyph glyph-name="Euro.osf" horiz-adv-x="599" 
d="M38 370l14 81h94q38 109 118.5 175t193.5 66q94 0 167 -50l-48 -100q-63 47 -125 47q-64 0 -110.5 -37.5t-72.5 -100.5h197l-14 -81h-207q-7 -35 -8 -65h203l-14 -81h-186q19 -137 129 -137q71 0 141 51l13 -99q-77 -51 -171 -51q-98 0 -159 60.5t-73 175.5h-108l14 81
h92q2 37 7 65h-87z" />
    <glyph glyph-name="uni20B1.osf" horiz-adv-x="599" 
d="M34 420l14 81h81l32 179h203q101 0 159.5 -45.5t64.5 -133.5h60l-14 -81h-52q-19 -84 -89.5 -130t-182.5 -46h-104l-43 -244h-122l74 420h-81zM222 336h90q119 0 149 84h-224zM266 585l-15 -84h217q-10 84 -111 84h-91z" />
    <glyph glyph-name="uni20B4.osf" horiz-adv-x="574" 
d="M60 370l14 81h354q25 27 25 61q0 37 -25 57t-68 20q-75 0 -160 -55l-14 104q88 54 190 54q93 0 147 -46t54 -127q0 -35 -12 -68h43l-14 -81h-99q-15 -10 -38 -20.5t-37.5 -15.5t-46 -15.5t-39.5 -13.5h248l-14 -81h-368q-15 -23 -15 -51q0 -42 29.5 -64.5t82.5 -22.5
q86 0 182 58l14 -100q-100 -56 -213 -56q-101 0 -160 46.5t-59 133.5q0 26 7 56h-34l14 81h71q33 29 134 65h-193z" />
    <glyph glyph-name="dollar.tf" horiz-adv-x="572" 
d="M186 -100l18 101q-102 8 -187 57l48 95q99 -54 177 -54q63 0 106 29t43 73q0 34 -29.5 57t-71.5 39t-84 35t-71.5 56t-29.5 90q0 81 60.5 135.5t157.5 64.5l15 82h79l-15 -82q87 -10 159 -54l-49 -97q-80 51 -155 51q-57 0 -93.5 -25t-36.5 -63q0 -27 21 -47t53 -31.5
t69 -27.5t69 -34.5t53 -53t21 -81.5q0 -85 -63 -143.5t-167 -69.5l-18 -102h-79z" />
    <glyph glyph-name="zero.tf" horiz-adv-x="572" 
d="M270 91q74 0 120 91t46 216q0 92 -27.5 139.5t-78.5 47.5q-74 0 -120 -91t-46 -216q0 -92 27.5 -139.5t78.5 -47.5zM262 -12q-101 0 -161.5 77t-60.5 216q0 108 36 201t105.5 151.5t157.5 58.5q101 0 161 -77t60 -215q0 -108 -36 -201.5t-105 -152t-157 -58.5z" />
    <glyph glyph-name="one.tf" horiz-adv-x="572" 
d="M137 466l-19 104l226 110h96l-103 -580h145l-17 -100h-433l17 100h167l78 440z" />
    <glyph glyph-name="two.tf" horiz-adv-x="572" 
d="M414 493q0 42 -26 66t-74 24q-99 0 -190 -94l-20 110q40 43 99.5 68t127.5 25q96 0 151.5 -51t55.5 -135q0 -92 -76 -182.5t-258 -221.5h282l-18 -102h-469l16 91q224 154 311.5 244t87.5 158z" />
    <glyph glyph-name="three.tf" horiz-adv-x="572" 
d="M17 -32l7 101q328 0 328 134q0 92 -161 92q-23 0 -64 -3l17 97q127 0 190.5 31.5t63.5 86.5q0 38 -28 59t-74 21q-72 0 -169 -59l-7 106q93 58 195 58q89 0 148 -43t59 -120q0 -65 -45 -112t-130 -71q134 -35 134 -152q0 -49 -24 -88.5t-76.5 -71.5t-144.5 -49t-219 -17z
" />
    <glyph glyph-name="four.tf" horiz-adv-x="572" 
d="M-2 150l16 92l366 439h155l-77 -433h93l-17 -98h-93l-26 -150h-121l26 150h-322zM136 248h201l55 311z" />
    <glyph glyph-name="five.tf" horiz-adv-x="572" 
d="M34 -32l7 101q180 1 259 46.5t79 115.5q0 98 -146 98q-72 0 -149 -23l78 374h388l-19 -106h-272l-33 -153q27 4 55 4q102 0 162 -50t60 -141q0 -121 -115 -193.5t-354 -72.5z" />
    <glyph glyph-name="six.tf" horiz-adv-x="572" 
d="M549 604q-137 -28 -228 -76.5t-129 -142.5q66 58 153 58q86 0 140 -55.5t54 -149.5q0 -112 -74 -181t-180 -69q-105 0 -170 73.5t-65 206.5q0 350 495 444zM312 343q-64 0 -141 -65v-16q0 -88 32.5 -131t87.5 -43q56 0 93 39.5t37 101.5q0 53 -29.5 83.5t-79.5 30.5z" />
    <glyph glyph-name="seven.tf" horiz-adv-x="572" 
d="M214 0h-147q183 327 353 572h-315l19 108h465l-17 -101q-183 -265 -358 -579z" />
    <glyph glyph-name="eight.tf" horiz-adv-x="572" 
d="M554 526q0 -62 -39.5 -101.5t-109.5 -67.5q57 -31 88.5 -70t31.5 -98q0 -90 -74.5 -145.5t-192.5 -55.5q-109 0 -173 49t-64 133q0 73 47.5 115t135.5 73q-94 57 -94 148q0 83 66 134.5t169 51.5q94 0 151.5 -45t57.5 -121zM434 519q0 36 -26 57.5t-69 21.5
q-46 0 -77.5 -24t-31.5 -64q0 -34 22.5 -57t65.5 -47q56 23 86 48.5t30 64.5zM401 186q0 41 -28 67.5t-82 55.5q-35 -14 -56.5 -24t-44.5 -26t-34 -37t-11 -47q0 -45 32.5 -70.5t86.5 -25.5q59 0 98 29.5t39 77.5z" />
    <glyph glyph-name="nine.tf" horiz-adv-x="572" 
d="M53 71q66 13 116 28.5t101 41.5t87.5 65t54.5 91q-67 -60 -154 -60t-141 55t-54 148q0 112 74.5 182t179.5 70t170 -73.5t65 -206.5q0 -350 -495 -444zM290 332q66 0 141 65v21q0 83 -33 126t-88 43t-92 -39.5t-37 -101.5q0 -53 29.5 -83.5t79.5 -30.5z" />
    <glyph glyph-name="cent.tf" horiz-adv-x="572" 
d="M520 471l-42 -90q-21 13 -43 22l-132 -310h9q64 0 125 37l10 -91q-65 -39 -154 -39q-20 0 -29 1l-57 -136h-69l63 149q-125 44 -125 200q0 125 80.5 210.5t213.5 85.5q16 0 40 -2l50 117h69l-56 -132q22 -8 47 -22zM194 221q0 -81 51 -112l129 305h-3q-82 0 -129.5 -55
t-47.5 -138z" />
    <glyph glyph-name="sterling.tf" horiz-adv-x="572" 
d="M219 303h-135l14 81h144l41 146q24 84 68.5 123t142.5 39q37 0 72 -5l-16 -95q-32 6 -52 6q-42 0 -64 -20.5t-35 -65.5l-36 -128h150l-14 -81h-159l-7 -26q-34 -125 -104 -174q92 -18 125 -18q62 0 110 29l9 -98q-48 -28 -133 -28q-38 0 -104 13t-96 13q-60 0 -111 -29
l-9 98q85 32 128 73t61 110z" />
    <glyph glyph-name="currency.tf" horiz-adv-x="572" 
d="M192 255q0 -40 26.5 -66.5t64.5 -26.5t64.5 26.5t26.5 66.5t-26.5 66.5t-64.5 26.5t-64.5 -26.5t-26.5 -66.5zM447 255q0 -43 -18 -77l79 -80l-69 -70l-82 83q-33 -15 -74 -15t-74 15l-82 -83l-69 70l79 80q-18 35 -18 77q0 43 18 77l-79 80l69 70l82 -83q33 15 74 15
t74 -15l82 83l69 -70l-79 -80q18 -35 18 -77z" />
    <glyph glyph-name="yen.tf" horiz-adv-x="572" 
d="M64 249l14 81h136l-131 350h116l106 -286l206 286h128l-256 -350h136l-14 -81h-159l-12 -65h160l-14 -81h-160l-18 -103h-122l18 103h-159l14 81h159l12 65h-160z" />
    <glyph glyph-name="section.tf" horiz-adv-x="572" 
d="M376 692q103 0 194 -52l-46 -95q-79 49 -154 49q-53 0 -98 -22.5t-69 -66.5q63 -7 116 -26.5t98.5 -54t71.5 -91t26 -128.5q0 -140 -90 -218.5t-225 -78.5q-109 0 -202 53l46 91q83 -49 163 -49q58 0 106 23t73 69q-63 7 -116 26t-98.5 53.5t-71.5 91.5t-26 131
q0 139 86 217t216 78zM410 181v16q0 185 -231 218v-13q0 -189 231 -221z" />
    <glyph glyph-name="florin.tf" horiz-adv-x="572" 
d="M84 303l14 81h144l41 146q24 84 68.5 123t142.5 39q37 0 72 -5l-16 -95q-32 6 -52 6q-42 0 -64 -20.5t-35 -65.5l-36 -128h150l-14 -81h-159l-85 -303h-121l85 303h-135z" />
    <glyph glyph-name="uni2007.tf" horiz-adv-x="572" 
 />
    <glyph glyph-name="Euro.tf" horiz-adv-x="572" 
d="M33 370l14 81h94q38 109 118.5 175t193.5 66q94 0 167 -50l-48 -100q-63 47 -125 47q-64 0 -110.5 -37.5t-72.5 -100.5h197l-14 -81h-207q-7 -35 -8 -65h203l-14 -81h-186q19 -137 129 -137q71 0 141 51l13 -99q-76 -51 -171 -51q-98 0 -159 60.5t-73 175.5h-108l14 81
h92q2 37 7 65h-87z" />
    <glyph glyph-name="uni20B1.tf" horiz-adv-x="572" 
d="M18 420l14 81h81l32 179h203q101 0 159.5 -45.5t64.5 -133.5h60l-14 -81h-52q-19 -84 -89.5 -130t-182.5 -46h-104l-43 -244h-122l74 420h-81zM206 336h90q119 0 149 84h-224zM250 585l-15 -84h217q-10 84 -111 84h-91z" />
    <glyph glyph-name="uni20B4.tf" horiz-adv-x="572" 
d="M40 370l14 81h354q25 27 25 61q0 37 -25 57t-68 20q-75 0 -160 -55l-14 104q88 54 190 54q93 0 147 -46t54 -127q0 -35 -12 -68h43l-14 -81h-99q-15 -10 -38 -20.5t-37.5 -15.5t-46 -15.5t-39.5 -13.5h248l-14 -81h-368q-15 -23 -15 -51q0 -42 29.5 -64.5t82.5 -22.5
q86 0 182 58l14 -100q-100 -56 -213 -56q-101 0 -160 46.5t-59 133.5q0 26 7 56h-34l14 81h71q33 29 134 65h-193z" />
    <glyph glyph-name="dollar.tosf" horiz-adv-x="572" 
d="M186 -100l18 101q-102 8 -187 57l48 95q99 -54 177 -54q63 0 106 29t43 73q0 34 -29.5 57t-71.5 39t-84 35t-71.5 56t-29.5 90q0 81 60.5 135.5t157.5 64.5l15 82h79l-15 -82q87 -10 159 -54l-49 -97q-80 51 -155 51q-57 0 -93.5 -25t-36.5 -63q0 -27 21 -47t53 -31.5
t69 -27.5t69 -34.5t53 -53t21 -81.5q0 -85 -63 -143.5t-167 -69.5l-18 -102h-79z" />
    <glyph glyph-name="zero.tosf" horiz-adv-x="572" 
d="M268 89q67 0 109.5 59.5t42.5 143.5q0 69 -30.5 107t-82.5 38q-67 0 -109.5 -59.5t-42.5 -143.5q0 -69 30.5 -107t82.5 -38zM261 -12q-102 0 -166 65t-64 178q0 128 79.5 219.5t203.5 91.5q102 0 166 -65t64 -178q0 -128 -79.5 -219.5t-203.5 -91.5z" />
    <glyph glyph-name="one.tosf" horiz-adv-x="572" 
d="M110 316l-19 104l226 110h96l-76 -430h145l-17 -100h-433l17 100h167l51 290z" />
    <glyph glyph-name="two.tosf" horiz-adv-x="572" 
d="M496 383q0 -64 -55 -127.5t-196 -155.5h223l-17 -100h-426l14 88q190 112 262 172.5t72 109.5q0 31 -23 49t-64 18q-90 0 -169 -81l-20 106q80 80 204 80q89 0 142 -43.5t53 -115.5z" />
    <glyph glyph-name="three.tosf" horiz-adv-x="572" 
d="M-9 -182l7 101q328 0 328 134q0 92 -161 92q-23 0 -64 -3l17 97q127 0 190.5 31.5t63.5 86.5q0 38 -28 59t-74 21q-72 0 -169 -59l-7 106q93 58 195 58q89 0 148 -43t59 -120q0 -65 -45 -112t-130 -71q134 -35 134 -152q0 -49 -24 -88.5t-76.5 -71.5t-144.5 -49t-219 -17
z" />
    <glyph glyph-name="four.tosf" horiz-adv-x="572" 
d="M-24 0l16 92l366 439h155l-77 -433h93l-17 -98h-93l-26 -150h-121l26 150h-322zM114 98h201l55 311z" />
    <glyph glyph-name="five.tosf" horiz-adv-x="572" 
d="M8 -182l7 101q180 1 259 46.5t79 115.5q0 98 -146 98q-72 0 -149 -23l78 374h388l-19 -106h-272l-33 -153q27 4 55 4q102 0 162 -50t60 -141q0 -121 -115 -193.5t-354 -72.5z" />
    <glyph glyph-name="six.tosf" horiz-adv-x="572" 
d="M549 604q-137 -28 -228 -76.5t-129 -142.5q66 58 153 58q86 0 140 -55.5t54 -149.5q0 -112 -74 -181t-180 -69q-105 0 -170 73.5t-65 206.5q0 350 495 444zM312 343q-64 0 -141 -65v-16q0 -88 32.5 -131t87.5 -43q56 0 93 39.5t37 101.5q0 53 -29.5 83.5t-79.5 30.5z" />
    <glyph glyph-name="seven.tosf" horiz-adv-x="572" 
d="M188 -150h-147q183 327 353 572h-315l19 108h465l-17 -101q-183 -265 -358 -579z" />
    <glyph glyph-name="eight.tosf" horiz-adv-x="572" 
d="M554 526q0 -62 -39.5 -101.5t-109.5 -67.5q57 -31 88.5 -70t31.5 -98q0 -90 -74.5 -145.5t-192.5 -55.5q-109 0 -173 49t-64 133q0 73 47.5 115t135.5 73q-94 57 -94 148q0 83 66 134.5t169 51.5q94 0 151.5 -45t57.5 -121zM434 519q0 36 -26 57.5t-69 21.5
q-46 0 -77.5 -24t-31.5 -64q0 -34 22.5 -57t65.5 -47q56 23 86 48.5t30 64.5zM401 186q0 41 -28 67.5t-82 55.5q-35 -14 -56.5 -24t-44.5 -26t-34 -37t-11 -47q0 -45 32.5 -70.5t86.5 -25.5q59 0 98 29.5t39 77.5z" />
    <glyph glyph-name="nine.tosf" horiz-adv-x="572" 
d="M27 -79q66 13 116 28.5t101 41.5t87.5 65t54.5 91q-67 -60 -154 -60t-141 55t-54 148q0 112 74.5 182t179.5 70t170 -73.5t65 -206.5q0 -350 -495 -444zM264 182q66 0 141 65v21q0 83 -33 126t-88 43t-92 -39.5t-37 -101.5q0 -53 29.5 -83.5t79.5 -30.5z" />
    <glyph glyph-name="cent.tosf" horiz-adv-x="572" 
d="M520 471l-42 -90q-21 13 -43 22l-132 -310h9q64 0 125 37l10 -91q-65 -39 -154 -39q-20 0 -29 1l-57 -136h-69l63 149q-125 44 -125 200q0 125 80.5 210.5t213.5 85.5q16 0 40 -2l50 117h69l-56 -132q22 -8 47 -22zM194 221q0 -81 51 -112l129 305h-3q-82 0 -129.5 -55
t-47.5 -138z" />
    <glyph glyph-name="sterling.tosf" horiz-adv-x="572" 
d="M219 303h-135l14 81h144l41 146q24 84 68.5 123t142.5 39q37 0 72 -5l-16 -95q-32 6 -52 6q-42 0 -64 -20.5t-35 -65.5l-36 -128h150l-14 -81h-159l-7 -26q-34 -125 -104 -174q92 -18 125 -18q62 0 110 29l9 -98q-48 -28 -133 -28q-38 0 -104 13t-96 13q-60 0 -111 -29
l-9 98q85 32 128 73t61 110z" />
    <glyph glyph-name="currency.tosf" horiz-adv-x="572" 
d="M192 255q0 -40 26.5 -66.5t64.5 -26.5t64.5 26.5t26.5 66.5t-26.5 66.5t-64.5 26.5t-64.5 -26.5t-26.5 -66.5zM447 255q0 -43 -18 -77l79 -80l-69 -70l-82 83q-33 -15 -74 -15t-74 15l-82 -83l-69 70l79 80q-18 35 -18 77q0 43 18 77l-79 80l69 70l82 -83q33 15 74 15
t74 -15l82 83l69 -70l-79 -80q18 -35 18 -77z" />
    <glyph glyph-name="yen.tosf" horiz-adv-x="572" 
d="M64 249l14 81h136l-131 350h116l106 -286l206 286h128l-256 -350h136l-14 -81h-159l-12 -65h160l-14 -81h-160l-18 -103h-122l18 103h-159l14 81h159l12 65h-160z" />
    <glyph glyph-name="section.tosf" horiz-adv-x="572" 
d="M376 692q103 0 194 -52l-46 -95q-79 49 -154 49q-53 0 -98 -22.5t-69 -66.5q63 -7 116 -26.5t98.5 -54t71.5 -91t26 -128.5q0 -140 -90 -218.5t-225 -78.5q-109 0 -202 53l46 91q83 -49 163 -49q58 0 106 23t73 69q-63 7 -116 26t-98.5 53.5t-71.5 91.5t-26 131
q0 139 86 217t216 78zM410 181v16q0 185 -231 218v-13q0 -189 231 -221z" />
    <glyph glyph-name="florin.tosf" horiz-adv-x="572" 
d="M84 303l14 81h144l41 146q24 84 68.5 123t142.5 39q37 0 72 -5l-16 -95q-32 6 -52 6q-42 0 -64 -20.5t-35 -65.5l-36 -128h150l-14 -81h-159l-85 -303h-121l85 303h-135z" />
    <glyph glyph-name="uni2007.tosf" horiz-adv-x="572" 
 />
    <glyph glyph-name="Euro.tosf" horiz-adv-x="572" 
d="M33 370l14 81h94q38 109 118.5 175t193.5 66q94 0 167 -50l-48 -100q-63 47 -125 47q-64 0 -110.5 -37.5t-72.5 -100.5h197l-14 -81h-207q-7 -35 -8 -65h203l-14 -81h-186q19 -137 129 -137q71 0 141 51l13 -99q-76 -51 -171 -51q-98 0 -159 60.5t-73 175.5h-108l14 81
h92q2 37 7 65h-87z" />
    <glyph glyph-name="uni20B1.tosf" horiz-adv-x="572" 
d="M18 420l14 81h81l32 179h203q101 0 159.5 -45.5t64.5 -133.5h60l-14 -81h-52q-19 -84 -89.5 -130t-182.5 -46h-104l-43 -244h-122l74 420h-81zM206 336h90q119 0 149 84h-224zM250 585l-15 -84h217q-10 84 -111 84h-91z" />
    <glyph glyph-name="uni20B4.tosf" horiz-adv-x="572" 
d="M59 370l14 81h354q25 27 25 61q0 37 -25 57t-68 20q-75 0 -160 -55l-14 104q88 54 190 54q93 0 147 -46t54 -127q0 -35 -12 -68h43l-14 -81h-99q-15 -10 -38 -20.5t-37.5 -15.5t-46 -15.5t-39.5 -13.5h248l-14 -81h-368q-15 -23 -15 -51q0 -42 29.5 -64.5t82.5 -22.5
q86 0 182 58l14 -100q-100 -56 -213 -56q-101 0 -160 46.5t-59 133.5q0 26 7 56h-34l14 81h71q33 29 134 65h-193z" />
    <glyph glyph-name="f_f.sc" horiz-adv-x="944" 
d="M40 0l97 550h360l-17 -98h-239l-26 -142h212l-16 -93h-212l-38 -217h-121zM512 0l97 550h360l-17 -98h-239l-26 -142h212l-16 -93h-212l-38 -217h-121z" />
    <glyph glyph-name="f_f_i.sc" horiz-adv-x="1249" 
d="M40 0l97 550h360l-17 -98h-239l-26 -142h212l-16 -93h-212l-38 -217h-121zM512 0l97 550h360l-17 -98h-239l-26 -142h212l-16 -93h-212l-38 -217h-121zM991 0l97 550h121l-97 -550h-121z" />
    <glyph glyph-name="f_f_l.sc" horiz-adv-x="1407" 
d="M40 0l97 550h360l-17 -98h-239l-26 -142h212l-16 -93h-212l-38 -217h-121zM512 0l97 550h360l-17 -98h-239l-26 -142h212l-16 -93h-212l-38 -217h-121zM984 0l97 550h121l-80 -452h233l-17 -98h-354z" />
    <glyph glyph-name="f_i.sc" horiz-adv-x="771" 
d="M40 0l97 550h360l-17 -98h-239l-26 -142h212l-16 -93h-212l-38 -217h-121zM514 0l97 550h121l-97 -550h-121z" />
    <glyph glyph-name="f_l.sc" horiz-adv-x="935" 
d="M40 0l97 550h360l-17 -98h-239l-26 -142h212l-16 -93h-212l-38 -217h-121zM511 0l97 550h121l-80 -452h233l-17 -98h-354z" />
    <glyph glyph-name="exclam.sc" horiz-adv-x="323" 
d="M100 173l45 377h138l-89 -377h-94zM127 -12q-32 0 -51.5 19.5t-19.5 49.5t19.5 49.5t51.5 19.5t51.5 -19.5t19.5 -49.5t-19.5 -49.5t-51.5 -19.5z" />
    <glyph glyph-name="numbersign.sc" horiz-adv-x="499" 
d="M503 395l-15 -85h-79l-27 -70h67l-15 -85h-85l-60 -155h-96l60 155h-94l-60 -155h-96l60 155h-61l15 85h79l27 70h-67l15 85h85l60 155h96l-60 -155h94l60 155h96l-60 -155h61zM219 310l-27 -70h94l27 70h-94z" />
    <glyph glyph-name="dollar.sc" horiz-adv-x="481" 
d="M147 -76l13 77q-86 8 -158 45l42 89q81 -42 150 -42q53 0 84.5 21t31.5 52q0 26 -24.5 43t-59.5 29t-70 26.5t-59.5 44.5t-24.5 74q0 65 50 110.5t135 54.5l11 63h74l-11 -63q74 -7 137 -42l-42 -92q-67 39 -130 39q-46 0 -75 -17t-29 -44q0 -23 24.5 -38.5t59.5 -27
t70 -26.5t59.5 -46t24.5 -76q0 -69 -53.5 -117.5t-142.5 -58.5l-13 -78h-74z" />
    <glyph glyph-name="percent.sc" horiz-adv-x="701" 
d="M84 0l432 550h108l-432 -550h-108zM203 358q26 0 41.5 23.5t15.5 54.5q0 24 -11 39t-31 15q-26 0 -41.5 -23.5t-15.5 -54.5q0 -24 11 -39t31 -15zM200 294q-58 0 -92 33.5t-34 85.5q0 59 40.5 101t106.5 42q58 0 92 -33.5t34 -85.5q0 -59 -40.5 -101t-106.5 -42zM490 58
q26 0 41.5 23.5t15.5 54.5q0 24 -11 39t-31 15q-26 0 -41.5 -23.5t-15.5 -54.5q0 -24 11 -39t31 -15zM487 -6q-58 0 -92 33.5t-34 85.5q0 59 40.5 101t106.5 42q58 0 92 -33.5t34 -85.5q0 -59 -40.5 -101t-106.5 -42z" />
    <glyph glyph-name="ampersand.sc" horiz-adv-x="547" 
d="M477 438q0 -56 -44 -90.5t-126 -66.5l73 -105q39 41 72 86l74 -56q-48 -64 -93 -105l47 -64l-91 -66l-44 63q-77 -46 -165 -46q-82 0 -130.5 38.5t-48.5 104.5q0 64 43 104.5t118 71.5q-23 35 -32.5 55.5t-9.5 48.5q0 65 51 108t139 43q78 0 122.5 -34.5t44.5 -89.5z
M200 69q48 0 99 33l-90 135q-90 -42 -90 -100q0 -31 21 -49.5t60 -18.5zM231 415q0 -27 31 -71q39 16 58 24.5t37 25.5t18 37q0 22 -17 36.5t-48 14.5q-35 0 -57 -18.5t-22 -48.5z" />
    <glyph glyph-name="parenleft.sc" horiz-adv-x="325" 
d="M149 196q0 -148 92 -259l-69 -47q-142 127 -142 305q0 61 17 116t41.5 95t63.5 79t71 63.5t75 53.5l49 -68q-45 -33 -75.5 -62t-61 -70.5t-46 -93t-15.5 -112.5z" />
    <glyph glyph-name="parenright.sc" horiz-adv-x="325" 
d="M171 296q0 148 -92 259l69 47q142 -127 142 -305q0 -61 -17 -116t-41.5 -95t-63.5 -79t-71 -63.5t-75 -53.5l-49 68q45 33 75.5 62t61 70.5t46 93t15.5 112.5z" />
    <glyph glyph-name="asterisk.sc" horiz-adv-x="393" 
d="M382 357l-116 5l63 -94l-60 -35l-53 101l-53 -101l-61 35l64 94l-117 -5v69l117 -6l-64 94l61 36l53 -102l53 102l60 -36l-63 -94l116 6v-69z" />
    <glyph glyph-name="slash.sc" horiz-adv-x="514" 
d="M-28 -40l441 596h130l-441 -596h-130z" />
    <glyph glyph-name="zero.sc" horiz-adv-x="544" 
d="M249 80q60 0 99.5 71.5t39.5 167.5q0 70 -23 108.5t-65 38.5q-60 0 -99.5 -71.5t-39.5 -167.5q0 -70 23 -108.5t65 -38.5zM244 -12q-91 0 -146.5 64.5t-55.5 177.5q0 134 74 233t189 99q91 0 146.5 -64.5t55.5 -177.5q0 -134 -74 -233t-189 -99z" />
    <glyph glyph-name="one.sc" horiz-adv-x="353" 
d="M88 376l-21 100l151 74h90l-97 -550h-116l73 414z" />
    <glyph glyph-name="two.sc" horiz-adv-x="489" 
d="M99 385l-19 98q76 79 191 79q82 0 131 -42.5t49 -112.5q0 -71 -59 -143t-196 -172h213l-16 -92h-397l13 80q179 120 251 191t72 123q0 31 -22 50t-60 19q-80 0 -151 -78z" />
    <glyph glyph-name="three.sc" horiz-adv-x="472" 
d="M287 160q0 72 -131 72q-13 0 -57 -2l15 86q210 0 210 90q0 31 -22.5 46.5t-61.5 15.5q-66 0 -147 -50l-8 95q83 49 176 49q81 0 132 -36t51 -100q0 -108 -143 -148q110 -30 110 -126q0 -75 -65 -119.5t-173 -44.5t-193 44l42 87q78 -41 144 -41q56 0 88.5 22t32.5 60z
" />
    <glyph glyph-name="four.sc" horiz-adv-x="523" 
d="M0 107l15 87l301 356h156l-62 -351h84l-16 -92h-84l-19 -107h-117l19 107h-277zM127 199h166l44 248z" />
    <glyph glyph-name="five.sc" horiz-adv-x="463" 
d="M174 261q-63 0 -130 -17l64 306h350l-16 -91h-238l-24 -111q28 2 39 2q90 0 145.5 -45.5t55.5 -126.5q0 -88 -66 -139t-179 -51q-106 0 -191 44l42 87q75 -40 141 -40q62 0 98 26.5t36 72.5q0 83 -127 83z" />
    <glyph glyph-name="six.sc" horiz-adv-x="508" 
d="M293 368q77 0 124 -47t47 -127q0 -92 -61.5 -149t-150.5 -57q-94 0 -152 66t-58 184q0 139 79.5 231.5t211.5 92.5q87 0 160 -39l-42 -90q-68 34 -122 34q-63 0 -103.5 -38.5t-56.5 -104.5q53 44 124 44zM264 276q-49 0 -105 -43q0 -79 26 -117.5t70 -38.5q41 0 68 31
t27 78q0 42 -23 66t-63 24z" />
    <glyph glyph-name="seven.sc" horiz-adv-x="437" 
d="M171 0h-141q125 228 273 449h-241l18 101h386l-16 -94q-138 -202 -279 -456z" />
    <glyph glyph-name="eight.sc" horiz-adv-x="495" 
d="M450 152q0 -73 -64.5 -118.5t-168.5 -45.5q-95 0 -152.5 40t-57.5 109q0 57 39 91t114 61q-83 45 -83 120q0 67 59 110t151 43q84 0 134.5 -37.5t50.5 -101.5q0 -90 -126 -137q104 -52 104 -134zM191 411q0 -25 18.5 -42t54.5 -36q46 18 70 37t24 48q0 27 -21 42.5
t-56 15.5q-38 0 -64 -18t-26 -47zM331 150q0 31 -23 51.5t-66 40.5q-57 -21 -86.5 -42.5t-29.5 -56.5q0 -34 26 -53.5t69 -19.5q47 0 78.5 22t31.5 58z" />
    <glyph glyph-name="nine.sc" horiz-adv-x="508" 
d="M222 182q-76 0 -123.5 47t-47.5 127q0 92 61.5 149t150.5 57q94 0 152 -66t58 -184q0 -139 -79.5 -231.5t-211.5 -92.5q-87 0 -160 39l42 86q68 -34 122 -34q64 0 104.5 39.5t56.5 107.5q-55 -44 -125 -44zM251 270q49 0 105 43q0 79 -26 117.5t-70 38.5q-41 0 -68 -31
t-27 -78q0 -42 23 -66t63 -24z" />
    <glyph glyph-name="question.sc" horiz-adv-x="370" 
d="M168 173h-95q-2 20 -2 29q0 30 17.5 55t42.5 42.5t49.5 33t42 36t17.5 43.5q0 30 -25.5 45.5t-67.5 15.5q-29 0 -71 -7l16 87q42 9 83 9q85 0 134.5 -34t49.5 -98q0 -39 -20 -70t-48 -50.5t-56 -37t-48 -38.5t-20 -45q0 -10 1 -16zM100 -12q-32 0 -51.5 19.5t-19.5 49.5
t19.5 49.5t51.5 19.5t51.5 -19.5t19.5 -49.5t-19.5 -49.5t-51.5 -19.5z" />
    <glyph glyph-name="at.sc" horiz-adv-x="696" 
d="M343 -41q-131 0 -215.5 75.5t-84.5 210.5q0 138 88 227.5t227 89.5q126 0 203.5 -74.5t77.5 -196.5q0 -92 -43.5 -140.5t-108.5 -48.5q-78 0 -94 63q-54 -63 -109 -63q-43 0 -69.5 30.5t-26.5 91.5q0 79 45 137t134 58q57 0 107 -24l-17 -157q-1 -6 -1 -12q0 -61 38 -61
q31 0 52 35t21 91q0 93 -59 148.5t-151 55.5q-106 0 -174 -71.5t-68 -178.5q0 -104 65 -162t162 -58q65 0 152 32l21 -66q-87 -32 -172 -32zM302 169q40 0 81 62l13 116q-18 8 -39 8q-50 0 -72.5 -40.5t-22.5 -86.5q0 -59 40 -59z" />
    <glyph glyph-name="bracketleft.sc" horiz-adv-x="363" 
d="M285 -11l-15 -87h-257l121 688h257l-15 -87h-137l-91 -514h137z" />
    <glyph glyph-name="backslash.sc" horiz-adv-x="514" 
d="M190 556l248 -596h-114l-248 596h114z" />
    <glyph glyph-name="bracketright.sc" horiz-adv-x="363" 
d="M75 503l15 87h257l-121 -688h-257l15 87h137l91 514h-137z" />
    <glyph glyph-name="grave.sc" horiz-adv-x="500" 
d="M396 601h-95l-114 139h133z" />
    <glyph glyph-name="a.sc" horiz-adv-x="579" 
d="M416 550l93 -550h-120l-16 109h-214l-53 -109h-126l292 550h144zM325 447l-123 -251h159z" />
    <glyph glyph-name="b.sc" horiz-adv-x="574" 
d="M40 0l97 550h206q87 0 136 -34t49 -102q0 -105 -109 -137q87 -28 87 -118q0 -72 -56 -115.5t-168 -43.5h-242zM174 87h100q113 0 113 82q0 66 -86 66h-100zM215 317h86q53 0 80.5 21t27.5 58q0 63 -82 63h-87z" />
    <glyph glyph-name="c.sc" horiz-adv-x="515" 
d="M43 228q0 140 85 237t231 97q94 0 163 -44l-43 -94q-64 40 -124 40q-91 0 -141 -67.5t-50 -164.5q0 -75 32 -112.5t91 -37.5q70 0 143 48l10 -95q-78 -47 -172 -47q-104 0 -164.5 62t-60.5 178z" />
    <glyph glyph-name="d.sc" horiz-adv-x="613" 
d="M177 95h91q88 0 136.5 62t48.5 150q0 72 -32.5 108.5t-88.5 36.5h-91zM268 0h-228l97 550h195q110 0 176 -63.5t66 -176.5q0 -128 -82 -219t-224 -91z" />
    <glyph glyph-name="e.sc" horiz-adv-x="510" 
d="M40 0l97 550h380l-17 -98h-259l-23 -126h226l-15 -92h-227l-25 -139h262l-17 -95h-382z" />
    <glyph glyph-name="f.sc" horiz-adv-x="472" 
d="M40 0l97 550h360l-17 -98h-239l-26 -142h212l-16 -93h-212l-38 -217h-121z" />
    <glyph glyph-name="g.sc" horiz-adv-x="585" 
d="M282 -12q-113 0 -176 61.5t-63 180.5q0 143 87.5 237.5t239.5 94.5q105 0 188 -51l-43 -94q-72 47 -148 47q-98 0 -151.5 -64.5t-53.5 -166.5q0 -155 135 -155q38 0 72 10l22 121h-99l15 86h213l-46 -262q-88 -45 -192 -45z" />
    <glyph glyph-name="h.sc" horiz-adv-x="622" 
d="M40 0l97 550h121l-39 -218h210l39 218h121l-97 -550h-121l41 234h-210l-41 -234h-121z" />
    <glyph glyph-name="i.sc" horiz-adv-x="305" 
d="M47 0l97 550h121l-97 -550h-121z" />
    <glyph glyph-name="j.sc" horiz-adv-x="357" 
d="M-22 1l16 95q32 -7 62 -7q44 0 64 20.5t28 66.5l66 374h121l-70 -397q-14 -82 -60.5 -120.5t-136.5 -38.5q-54 0 -90 7z" />
    <glyph glyph-name="k.sc" horiz-adv-x="579" 
d="M40 0l97 550h121l-46 -261l241 261h145l-222 -214l142 -336h-126l-103 252l-101 -97l-27 -155h-121z" />
    <glyph glyph-name="l.sc" horiz-adv-x="463" 
d="M40 0l97 550h121l-80 -452h233l-17 -98h-354z" />
    <glyph glyph-name="m.sc" horiz-adv-x="814" 
d="M412 0h-106l-47 296q-13 84 -17 123h-2q-12 -56 -29 -123l-71 -296h-113l147 550h151l44 -300q9 -56 13 -119h2q19 52 55 120l160 299h148l-50 -550h-116l34 294q9 76 17 125h-2q-21 -54 -58 -122z" />
    <glyph glyph-name="n.sc" horiz-adv-x="629" 
d="M40 0l97 550h129l158 -338l60 338h112l-97 -550h-97l-181 388l-69 -388h-112z" />
    <glyph glyph-name="o.sc" horiz-adv-x="612" 
d="M285 82q73 0 119 64.5t46 158.5q0 76 -32 117.5t-89 41.5q-73 0 -119 -64.5t-46 -158.5q0 -76 32 -117.5t89 -41.5zM335 562q107 0 171.5 -67t64.5 -186q0 -135 -81.5 -228t-210.5 -93q-107 0 -171.5 67t-64.5 186q0 135 81.5 228t210.5 93z" />
    <glyph glyph-name="p.sc" horiz-adv-x="548" 
d="M40 0l97 550h203q95 0 147.5 -41.5t52.5 -122.5q0 -89 -62.5 -138t-174.5 -49h-107l-36 -199h-120zM212 292h87q121 0 121 89q0 73 -92 73h-87z" />
    <glyph glyph-name="q.sc" horiz-adv-x="612" 
d="M335 562q107 0 171.5 -67t64.5 -186q0 -130 -76.5 -220t-198.5 -96q-1 -6 -1 -18q0 -29 16 -41t49 -12q32 0 82 12l-16 -91q-55 -11 -96 -11q-125 0 -125 117q0 25 6 51q-78 18 -123 80.5t-45 160.5q0 135 81.5 228t210.5 93zM285 82q73 0 119 64.5t46 158.5
q0 76 -32 117.5t-89 41.5q-73 0 -119 -64.5t-46 -158.5q0 -76 32 -117.5t89 -41.5z" />
    <glyph glyph-name="r.sc" horiz-adv-x="601" 
d="M378 0l-89 221h-90l-40 -221h-119l97 550h223q93 0 143 -39t50 -115q0 -65 -37.5 -108t-106.5 -59l96 -229h-127zM213 304h106q115 0 115 83q0 67 -88 67h-106z" />
    <glyph glyph-name="s.sc" horiz-adv-x="497" 
d="M8 35l42 91q83 -44 150 -44q52 0 84.5 22.5t32.5 55.5q0 26 -24 44t-58 31t-68 29.5t-58 47.5t-24 76q0 76 62.5 125t161.5 49q92 0 173 -46l-42 -94q-69 42 -132 42q-44 0 -73 -18t-29 -47q0 -24 24 -41.5t58 -30t68 -28.5t58 -48.5t24 -78.5q0 -80 -65.5 -132
t-173.5 -52q-106 0 -191 47z" />
    <glyph glyph-name="t.sc" horiz-adv-x="484" 
d="M137 0l79 452h-157l17 98h436l-17 -98h-157l-80 -452h-121z" />
    <glyph glyph-name="u.sc" horiz-adv-x="595" 
d="M246 550l-61 -346q-3 -17 -3 -29q0 -50 20.5 -70t66.5 -20q56 0 85 28.5t40 90.5l61 346h118l-65 -367q-35 -195 -250 -195q-96 0 -146 40t-50 132q0 31 5 60l58 330h121z" />
    <glyph glyph-name="v.sc" horiz-adv-x="554" 
d="M167 0l-91 550h117l61 -404l204 404h123l-289 -550h-125z" />
    <glyph glyph-name="w.sc" horiz-adv-x="804" 
d="M244 0h-116l-47 550h116l19 -254q5 -62 5 -145h2q23 68 60 148l117 251h113l22 -249q6 -66 6 -150h2q25 78 54 145l109 254h121l-244 -550h-116l-25 257q-10 105 -9 151h-2q-10 -30 -67 -154z" />
    <glyph glyph-name="x.sc" horiz-adv-x="565" 
d="M-12 0l225 285l-118 265h126l75 -185l141 185h137l-213 -266l126 -284h-127l-82 204l-153 -204h-137z" />
    <glyph glyph-name="y.sc" horiz-adv-x="534" 
d="M161 0l39 220l-132 330h119l87 -221l164 221h132l-249 -330l-39 -220h-121z" />
    <glyph glyph-name="z.sc" horiz-adv-x="519" 
d="M-11 0l14 79l335 373h-253l17 98h423l-15 -82l-335 -373h272l-17 -95h-441z" />
    <glyph glyph-name="braceleft.sc" horiz-adv-x="357" 
d="M26 204l14 84h18q35 0 50.5 13t20.5 43l23 129q10 59 54 88t145 29h30l-15 -88h-28q-34 0 -50 -13t-21 -42l-23 -129q-11 -64 -85 -75q56 -17 56 -75q0 -15 -2 -29l-17 -94q-2 -14 -2 -19q0 -19 12 -27.5t41 -8.5h27l-14 -88h-30q-156 0 -156 114q0 19 4 38l17 94
q1 7 1 15q0 22 -11.5 31.5t-40.5 9.5h-18z" />
    <glyph glyph-name="bar.sc" horiz-adv-x="371" 
d="M65 -98l121 688h117l-121 -688h-117z" />
    <glyph glyph-name="braceright.sc" horiz-adv-x="357" 
d="M327 288l-14 -84h-18q-35 0 -50.5 -13t-20.5 -43l-23 -129q-10 -59 -54 -88t-145 -29h-30l15 88h28q34 0 50 13t21 42l23 129q11 64 85 75q-56 17 -56 75q0 15 2 29l17 94q2 14 2 19q0 19 -12 27.5t-41 8.5h-27l14 88h30q156 0 156 -114q0 -19 -4 -38l-17 -94
q-1 -7 -1 -15q0 -22 11.5 -31.5t40.5 -9.5h18z" />
    <glyph glyph-name="exclamdown.sc" horiz-adv-x="323" 
d="M230 377l-45 -377h-138l89 377h94zM203 562q32 0 51.5 -19.5t19.5 -49.5t-19.5 -49.5t-51.5 -19.5t-51.5 19.5t-19.5 49.5t19.5 49.5t51.5 19.5z" />
    <glyph glyph-name="cent.sc" horiz-adv-x="403" 
d="M390 377l-37 -81q-22 13 -44 20l-99 -235h11q51 0 102 28l9 -80q-52 -29 -127 -29q-20 0 -29 1l-47 -110h-67l53 125q-90 39 -90 158q0 102 65 168t175 66h15l41 94h67l-45 -105q29 -10 47 -20zM125 180q0 -54 29 -78l94 220q-57 -4 -90 -43.5t-33 -98.5z" />
    <glyph glyph-name="sterling.sc" horiz-adv-x="410" 
d="M368 239h-127l-12 -44q-21 -75 -65 -112q56 -10 79 -10q50 0 95 24l10 -87q-42 -22 -111 -22q-32 0 -86.5 10.5t-78.5 10.5q-48 0 -94 -24l-10 87q69 22 99.5 48.5t47.5 87.5l9 31h-108l13 71h115l34 120q19 68 60 100t125 32q34 0 61 -5l-15 -82q-28 4 -41 4
q-34 0 -51.5 -16.5t-27.5 -53.5l-28 -99h119z" />
    <glyph glyph-name="currency.sc" horiz-adv-x="572" 
d="M192 255q0 -40 26.5 -66.5t64.5 -26.5t64.5 26.5t26.5 66.5t-26.5 66.5t-64.5 26.5t-64.5 -26.5t-26.5 -66.5zM447 255q0 -43 -18 -77l79 -80l-69 -70l-82 83q-33 -15 -74 -15t-74 15l-82 -83l-69 70l79 80q-18 35 -18 77q0 43 18 77l-79 80l69 70l82 -83q33 15 74 15
t74 -15l82 83l69 -70l-79 -80q18 -35 18 -77z" />
    <glyph glyph-name="yen.sc" horiz-adv-x="499" 
d="M50 193l13 71h111l-107 286h114q61 -169 77 -215l151 215h126l-208 -286h113l-13 -71h-129l-7 -41h129l-13 -71h-129l-14 -81h-119l14 81h-129l13 71h129l7 41h-129z" />
    <glyph glyph-name="section.sc" horiz-adv-x="509" 
d="M319 562q86 0 163 -41l-41 -81q-63 36 -123 36q-91 0 -130 -63q51 -5 93.5 -19.5t80 -40t59 -68t21.5 -97.5q0 -108 -75 -169t-186 -61q-93 0 -170 42l40 77q67 -37 132 -37q101 0 141 67q-50 5 -93 18.5t-81 39t-60 68.5t-22 100q0 106 72 167.5t179 61.5zM343 178v3
q0 74 -50.5 110.5t-124.5 45.5q0 -136 175 -159z" />
    <glyph glyph-name="dieresis.sc" horiz-adv-x="500" 
d="M282 662q0 -27 -17.5 -45t-45.5 -18t-45.5 18t-17.5 45t17.5 45t45.5 18t45.5 -18t17.5 -45zM484 662q0 -27 -17.5 -45t-45.5 -18t-45.5 18t-17.5 45t17.5 45t45.5 18t45.5 -18t17.5 -45z" />
    <glyph glyph-name="copyright.sc" horiz-adv-x="674" 
d="M417 215l15 -55q-34 -24 -84 -24q-58 0 -92.5 34t-34.5 99q0 67 36 104t96 37q43 0 78 -21l-15 -60q-31 21 -57 21q-29 0 -46.5 -20t-17.5 -59t18 -58.5t47 -19.5q25 0 57 22zM108 275q0 -99 66.5 -165t161.5 -66t161.5 66t66.5 165t-66.5 165t-161.5 66t-161.5 -66
t-66.5 -165zM623 275q0 -123 -83.5 -205t-203.5 -82t-203.5 82t-83.5 205t83.5 205t203.5 82t203.5 -82t83.5 -205z" />
    <glyph glyph-name="registered.sc" horiz-adv-x="674" 
d="M623 275q0 -123 -83.5 -205t-203.5 -82t-203.5 82t-83.5 205t83.5 205t203.5 82t203.5 -82t83.5 -205zM108 275q0 -99 66 -165t162 -66t162 66t66 165t-66 165t-162 66t-162 -66t-66 -165zM227 142v263h118q51 0 78.5 -21.5t27.5 -62.5q0 -53 -49 -74l60 -105h-78l-52 94
h-32v-94h-73zM300 285h37q41 0 41 31t-41 31h-37v-62z" />
    <glyph glyph-name="macron.sc" horiz-adv-x="500" 
d="M151 607l15 85h323l-15 -85h-323z" />
    <glyph glyph-name="degree.sc" horiz-adv-x="387" 
d="M220 338q34 0 57 23t23 57t-23 57t-57 23t-57 -23t-23 -57t23 -57t57 -23zM220 276q-62 0 -105 40.5t-43 101.5t43 101.5t105 40.5t105 -40.5t43 -101.5t-43 -101.5t-105 -40.5z" />
    <glyph glyph-name="acute.sc" horiz-adv-x="500" 
d="M332 601h-103l107 139h150z" />
    <glyph glyph-name="mu.sc" horiz-adv-x="814" 
d="M412 0h-106l-47 296q-13 84 -17 123h-2q-12 -56 -29 -123l-71 -296h-113l147 550h151l44 -300q9 -56 13 -119h2q19 52 55 120l160 299h148l-50 -550h-116l34 294q9 76 17 125h-2q-21 -54 -58 -122z" />
    <glyph glyph-name="paragraph.sc" horiz-adv-x="473" 
d="M348 534h100l-71 -402q-15 -83 -68.5 -124t-174.5 -65l-9 91q74 15 110 39.5t46 81.5zM295 534l-63 -356q-86 0 -135 44.5t-49 118.5q0 84 64 138.5t183 54.5z" />
    <glyph glyph-name="periodcentered.sc" horiz-adv-x="292" 
d="M231 315q0 -33 -21.5 -54.5t-55.5 -21.5t-55.5 21.5t-21.5 54.5t21.5 54.5t55.5 21.5t55.5 -21.5t21.5 -54.5z" />
    <glyph glyph-name="questiondown.sc" horiz-adv-x="370" 
d="M209 377h95q2 -20 2 -29q0 -30 -17.5 -55t-42 -42.5t-49.5 -33t-42.5 -36t-17.5 -43.5q0 -30 25.5 -45.5t67.5 -15.5q29 0 71 7l-16 -87q-42 -9 -83 -9q-85 0 -134.5 34t-49.5 98q0 39 20 70t48 50.5t56 37t48 38.5t20 45q0 10 -1 16zM277 562q32 0 51.5 -19.5
t19.5 -49.5t-19.5 -49.5t-51.5 -19.5t-51.5 19.5t-19.5 49.5t19.5 49.5t51.5 19.5z" />
    <glyph glyph-name="germandbls.sc" horiz-adv-x="974" 
d="M8 35l42 91q83 -44 150 -44q52 0 84.5 22.5t32.5 55.5q0 26 -24 44t-58 31t-68 29.5t-58 47.5t-24 76q0 76 62.5 125t161.5 49q92 0 173 -46l-42 -94q-69 42 -132 42q-44 0 -73 -18t-29 -47q0 -24 24 -41.5t58 -30t68 -28.5t58 -48.5t24 -78.5q0 -80 -65.5 -132
t-173.5 -52q-106 0 -191 47zM485 35l42 91q83 -44 150 -44q52 0 84.5 22.5t32.5 55.5q0 26 -24 44t-58 31t-68 29.5t-58 47.5t-24 76q0 76 62.5 125t161.5 49q92 0 173 -46l-42 -94q-69 42 -132 42q-44 0 -73 -18t-29 -47q0 -24 24 -41.5t58 -30t68 -28.5t58 -48.5t24 -78.5
q0 -80 -65.5 -132t-173.5 -52q-106 0 -191 47z" />
    <glyph glyph-name="agrave.sc" horiz-adv-x="579" 
d="M416 550l93 -550h-120l-16 109h-214l-53 -109h-126l292 550h144zM325 447l-123 -251h159zM436 601h-95l-114 139h133z" />
    <glyph glyph-name="aacute.sc" horiz-adv-x="579" 
d="M416 550l93 -550h-120l-16 109h-214l-53 -109h-126l292 550h144zM325 447l-123 -251h159zM371 601h-103l107 139h150z" />
    <glyph glyph-name="acircumflex.sc" horiz-adv-x="579" 
d="M416 550l93 -550h-120l-16 109h-214l-53 -109h-126l292 550h144zM325 447l-123 -251h159zM271 601h-97l151 139h97l101 -139h-85l-74 57z" />
    <glyph glyph-name="atilde.sc" horiz-adv-x="579" 
d="M416 550l93 -550h-120l-16 109h-214l-53 -109h-126l292 550h144zM325 447l-123 -251h159zM247 601h-72q24 129 114 129q34 0 81.5 -23t63.5 -23q33 0 40 40h72q-24 -129 -114 -129q-34 0 -81.5 23t-63.5 23q-33 0 -40 -40z" />
    <glyph glyph-name="adieresis.sc" horiz-adv-x="579" 
d="M416 550l93 -550h-120l-16 109h-214l-53 -109h-126l292 550h144zM325 447l-123 -251h159zM321 663q0 -27 -17.5 -45t-45.5 -18t-45.5 18t-17.5 45t17.5 45t45.5 18t45.5 -18t17.5 -45zM523 663q0 -27 -17.5 -45t-45.5 -18t-45.5 18t-17.5 45t17.5 45t45.5 18t45.5 -18
t17.5 -45z" />
    <glyph glyph-name="aring.sc" horiz-adv-x="579" 
d="M106 0h-126l279 526q-16 24 -16 54q0 41 29 69t74 28q44 0 73 -28t29 -69q0 -38 -26 -66l87 -514h-120l-16 109h-214zM325 447l-123 -251h159zM346 536q20 0 33 13t13 31t-13 31t-33 13q-21 0 -33.5 -12.5t-12.5 -31.5t12.5 -31.5t33.5 -12.5z" />
    <glyph glyph-name="ae.sc" horiz-adv-x="783" 
d="M340 0l19 109h-175l-72 -109h-137l391 550h424l-17 -98h-232l-23 -126h199l-15 -92h-200l-25 -139h235l-17 -95h-355zM241 196h133l49 275z" />
    <glyph glyph-name="ccedilla.sc" horiz-adv-x="515" 
d="M347 -94q0 -49 -36.5 -77t-100.5 -28q-60 0 -116 30l28 62q41 -23 77 -23q26 0 41 11.5t15 28.5q0 40 -67 52l16 33q-76 17 -118.5 76.5t-42.5 156.5q0 140 85 237t231 97q94 0 163 -44l-43 -94q-64 40 -124 40q-91 0 -141 -67.5t-50 -164.5q0 -75 32 -112.5t91 -37.5
q70 0 143 48l10 -95q-67 -40 -149 -46q56 -24 56 -83z" />
    <glyph glyph-name="egrave.sc" horiz-adv-x="510" 
d="M40 0l97 550h380l-17 -98h-259l-23 -126h226l-15 -92h-227l-25 -139h262l-17 -95h-382zM421 601h-95l-114 139h133z" />
    <glyph glyph-name="eacute.sc" horiz-adv-x="510" 
d="M40 0l97 550h380l-17 -98h-259l-23 -126h226l-15 -92h-227l-25 -139h262l-17 -95h-382zM357 601h-103l107 139h150z" />
    <glyph glyph-name="ecircumflex.sc" horiz-adv-x="510" 
d="M40 0l97 550h380l-17 -98h-259l-23 -126h226l-15 -92h-227l-25 -139h262l-17 -95h-382zM259 601h-97l151 139h97l101 -139h-85l-74 57z" />
    <glyph glyph-name="edieresis.sc" horiz-adv-x="510" 
d="M40 0l97 550h380l-17 -98h-259l-23 -126h226l-15 -92h-227l-25 -139h262l-17 -95h-382zM307 663q0 -27 -17.5 -45t-45.5 -18t-45.5 18t-17.5 45t17.5 45t45.5 18t45.5 -18t17.5 -45zM509 663q0 -27 -17.5 -45t-45.5 -18t-45.5 18t-17.5 45t17.5 45t45.5 18t45.5 -18
t17.5 -45z" />
    <glyph glyph-name="igrave.sc" horiz-adv-x="305" 
d="M48 0l97 550h121l-97 -550h-121zM299 601h-95l-114 139h133z" />
    <glyph glyph-name="iacute.sc" horiz-adv-x="305" 
d="M47 0l97 550h121l-97 -550h-121zM234 601h-103l107 139h150z" />
    <glyph glyph-name="icircumflex.sc" horiz-adv-x="305" 
d="M48 0l97 550h121l-97 -550h-121zM136 601h-97l151 139h97l101 -139h-85l-74 57z" />
    <glyph glyph-name="idieresis.sc" horiz-adv-x="305" 
d="M48 0l97 550h121l-97 -550h-121zM184 663q0 -27 -17.5 -45t-45.5 -18t-45.5 18t-17.5 45t17.5 45t45.5 18t45.5 -18t17.5 -45zM386 663q0 -27 -17.5 -45t-45.5 -18t-45.5 18t-17.5 45t17.5 45t45.5 18t45.5 -18t17.5 -45z" />
    <glyph glyph-name="eth.sc" horiz-adv-x="613" 
d="M7 238l15 85h75l40 227h195q110 0 176 -63.5t66 -176.5q0 -128 -82 -219t-224 -91h-228l42 238h-75zM177 95h91q88 0 136.5 62t48.5 150q0 72 -32.5 108.5t-88.5 36.5h-91l-23 -129h122l-15 -85h-122z" />
    <glyph glyph-name="ntilde.sc" horiz-adv-x="629" 
d="M40 0l97 550h129l158 -338l60 338h112l-97 -550h-97l-181 388l-69 -388h-112zM272 601h-72q24 129 114 129q34 0 81.5 -23t63.5 -23q33 0 40 40h72q-24 -129 -114 -129q-34 0 -81.5 23t-63.5 23q-33 0 -40 -40z" />
    <glyph glyph-name="ograve.sc" horiz-adv-x="612" 
d="M285 82q73 0 119 64.5t46 158.5q0 76 -32 117.5t-89 41.5q-73 0 -119 -64.5t-46 -158.5q0 -76 32 -117.5t89 -41.5zM335 562q107 0 171.5 -67t64.5 -186q0 -135 -81.5 -228t-210.5 -93q-107 0 -171.5 67t-64.5 186q0 135 81.5 228t210.5 93zM442 601h-95l-114 139h133z
" />
    <glyph glyph-name="oacute.sc" horiz-adv-x="612" 
d="M285 82q73 0 119 64.5t46 158.5q0 76 -32 117.5t-89 41.5q-73 0 -119 -64.5t-46 -158.5q0 -76 32 -117.5t89 -41.5zM335 562q107 0 171.5 -67t64.5 -186q0 -135 -81.5 -228t-210.5 -93q-107 0 -171.5 67t-64.5 186q0 135 81.5 228t210.5 93zM378 601h-103l107 139h150z
" />
    <glyph glyph-name="ocircumflex.sc" horiz-adv-x="612" 
d="M285 82q73 0 119 64.5t46 158.5q0 76 -32 117.5t-89 41.5q-73 0 -119 -64.5t-46 -158.5q0 -76 32 -117.5t89 -41.5zM335 562q107 0 171.5 -67t64.5 -186q0 -135 -81.5 -228t-210.5 -93q-107 0 -171.5 67t-64.5 186q0 135 81.5 228t210.5 93zM279 601h-97l151 139h97
l101 -139h-85l-74 57z" />
    <glyph glyph-name="otilde.sc" horiz-adv-x="612" 
d="M285 82q73 0 119 64.5t46 158.5q0 76 -32 117.5t-89 41.5q-73 0 -119 -64.5t-46 -158.5q0 -76 32 -117.5t89 -41.5zM335 562q107 0 171.5 -67t64.5 -186q0 -135 -81.5 -228t-210.5 -93q-107 0 -171.5 67t-64.5 186q0 135 81.5 228t210.5 93zM254 601h-72q24 129 114 129
q34 0 81.5 -23t63.5 -23q33 0 40 40h72q-24 -129 -114 -129q-34 0 -81.5 23t-63.5 23q-33 0 -40 -40z" />
    <glyph glyph-name="odieresis.sc" horiz-adv-x="612" 
d="M285 82q73 0 119 64.5t46 158.5q0 76 -32 117.5t-89 41.5q-73 0 -119 -64.5t-46 -158.5q0 -76 32 -117.5t89 -41.5zM335 562q107 0 171.5 -67t64.5 -186q0 -135 -81.5 -228t-210.5 -93q-107 0 -171.5 67t-64.5 186q0 135 81.5 228t210.5 93zM327 663q0 -27 -17.5 -45
t-45.5 -18t-45.5 18t-17.5 45t17.5 45t45.5 18t45.5 -18t17.5 -45zM529 663q0 -27 -17.5 -45t-45.5 -18t-45.5 18t-17.5 45t17.5 45t45.5 18t45.5 -18t17.5 -45z" />
    <glyph glyph-name="oslash.sc" horiz-adv-x="612" 
d="M284 78q76 0 123 65.5t47 162.5q0 26 -4 46l-260 -228q32 -46 94 -46zM160 241q0 -23 3 -43l259 226q-32 44 -92 44q-76 0 -123 -65t-47 -162zM335 562q106 0 170 -66l75 66l47 -56l-81 -71q25 -55 25 -126q0 -136 -81.5 -228.5t-211.5 -92.5q-107 0 -169 65l-75 -65
l-47 56l81 70q-25 56 -25 127q0 135 81.5 228t210.5 93z" />
    <glyph glyph-name="ugrave.sc" horiz-adv-x="595" 
d="M246 550l-61 -346q-3 -17 -3 -29q0 -50 20.5 -70t66.5 -20q56 0 85 28.5t40 90.5l61 346h118l-65 -367q-35 -195 -250 -195q-96 0 -146 40t-50 132q0 31 5 60l58 330h121zM443 601h-95l-114 139h133z" />
    <glyph glyph-name="uacute.sc" horiz-adv-x="595" 
d="M246 550l-61 -346q-3 -17 -3 -29q0 -50 20.5 -70t66.5 -20q56 0 85 28.5t40 90.5l61 346h118l-65 -367q-35 -195 -250 -195q-96 0 -146 40t-50 132q0 31 5 60l58 330h121zM379 601h-103l107 139h150z" />
    <glyph glyph-name="ucircumflex.sc" horiz-adv-x="595" 
d="M246 550l-61 -346q-3 -17 -3 -29q0 -50 20.5 -70t66.5 -20q56 0 85 28.5t40 90.5l61 346h118l-65 -367q-35 -195 -250 -195q-96 0 -146 40t-50 132q0 31 5 60l58 330h121zM280 601h-97l151 139h97l101 -139h-85l-74 57z" />
    <glyph glyph-name="udieresis.sc" horiz-adv-x="595" 
d="M246 550l-61 -346q-3 -17 -3 -29q0 -50 20.5 -70t66.5 -20q56 0 85 28.5t40 90.5l61 346h118l-65 -367q-35 -195 -250 -195q-96 0 -146 40t-50 132q0 31 5 60l58 330h121zM328 663q0 -27 -17.5 -45t-45.5 -18t-45.5 18t-17.5 45t17.5 45t45.5 18t45.5 -18t17.5 -45z
M530 663q0 -27 -17.5 -45t-45.5 -18t-45.5 18t-17.5 45t17.5 45t45.5 18t45.5 -18t17.5 -45z" />
    <glyph glyph-name="yacute.sc" horiz-adv-x="534" 
d="M161 0l39 220l-132 330h119l87 -221l164 221h132l-249 -330l-39 -220h-121zM349 601h-103l107 139h150z" />
    <glyph glyph-name="thorn.sc" horiz-adv-x="548" 
d="M40 0l96 550h121l-12 -70h82q95 0 147.5 -41.5t52.5 -122.5q0 -89 -62.5 -138t-174.5 -49h-107l-23 -129h-120zM199 222h87q121 0 121 89q0 73 -92 73h-87z" />
    <glyph glyph-name="ydieresis.sc" horiz-adv-x="534" 
d="M161 0l39 220l-132 330h119l87 -221l164 221h132l-249 -330l-39 -220h-121zM298 663q0 -27 -17.5 -45t-45.5 -18t-45.5 18t-17.5 45t17.5 45t45.5 18t45.5 -18t17.5 -45zM500 663q0 -27 -17.5 -45t-45.5 -18t-45.5 18t-17.5 45t17.5 45t45.5 18t45.5 -18t17.5 -45z" />
    <glyph glyph-name="dotlessi.sc" horiz-adv-x="305" 
d="M48 0l97 550h121l-97 -550h-121z" />
    <glyph glyph-name="ij.sc" horiz-adv-x="652" 
d="M48 0l97 550h121l-97 -550h-121zM272 1l16 95q32 -7 62 -7q44 0 64 20.5t28 66.5l66 374h121l-70 -397q-14 -82 -60.5 -120.5t-136.5 -38.5q-54 0 -90 7z" />
    <glyph glyph-name="lslash.sc" horiz-adv-x="463" 
d="M3 206l16 88l76 19l42 237h121l-36 -206l158 40l-16 -88l-158 -40l-28 -158h233l-17 -98h-354l39 225z" />
    <glyph glyph-name="oe.sc" horiz-adv-x="783" 
d="M43 231q0 139 84.5 235t228.5 96q47 0 100 -12h334l-17 -98h-232l-23 -126h199l-15 -92h-200l-25 -139h235l-17 -95h-330q-53 -12 -97 -12q-104 0 -164.5 63.5t-60.5 179.5zM287 82q29 0 69 10l64 362q-37 10 -68 10q-89 0 -138.5 -67t-49.5 -163q0 -76 32 -114t91 -38z
" />
    <glyph glyph-name="scaron.sc" horiz-adv-x="497" 
d="M8 35l42 91q83 -44 150 -44q52 0 84.5 22.5t32.5 55.5q0 26 -24 44t-58 31t-68 29.5t-58 47.5t-24 76q0 76 62.5 125t161.5 49q92 0 173 -46l-42 -94q-69 42 -132 42q-44 0 -73 -18t-29 -47q0 -24 24 -41.5t58 -30t68 -28.5t58 -48.5t24 -78.5q0 -80 -65.5 -132
t-173.5 -52q-106 0 -191 47zM410 740h97l-151 -139h-97l-101 139h85l74 -57z" />
    <glyph glyph-name="zcaron.sc" horiz-adv-x="519" 
d="M-11 0l14 79l335 373h-253l17 98h423l-15 -82l-335 -373h272l-17 -95h-441zM416 740h97l-151 -139h-97l-101 139h85l74 -57z" />
    <glyph glyph-name="longs.sc" horiz-adv-x="497" 
d="M8 35l42 91q83 -44 150 -44q52 0 84.5 22.5t32.5 55.5q0 26 -24 44t-58 31t-68 29.5t-58 47.5t-24 76q0 76 62.5 125t161.5 49q92 0 173 -46l-42 -94q-69 42 -132 42q-44 0 -73 -18t-29 -47q0 -24 24 -41.5t58 -30t68 -28.5t58 -48.5t24 -78.5q0 -80 -65.5 -132
t-173.5 -52q-106 0 -191 47z" />
    <glyph glyph-name="florin.sc" horiz-adv-x="385" 
d="M424 557l-15 -82q-28 4 -41 4q-34 0 -51.5 -16.5t-27.5 -53.5l-28 -99h119l-12 -71h-127l-67 -239h-117l67 239h-108l13 71h115l34 120q19 68 60 100t125 32q34 0 61 -5z" />
    <glyph glyph-name="gravecomb.sc" horiz-adv-x="1" 
d="M124 601h-95l-114 139h133z" />
    <glyph glyph-name="acutecomb.sc" horiz-adv-x="1" 
d="M60 601h-103l107 139h150z" />
    <glyph glyph-name="uni0302.sc" horiz-adv-x="1" 
d="M-39 601h-97l151 139h97l101 -139h-85l-74 57z" />
    <glyph glyph-name="tildecomb.sc" horiz-adv-x="1" 
d="M-64 601h-72q24 129 114 129q34 0 81.5 -23t63.5 -23q33 0 40 40h72q-24 -129 -114 -129q-34 0 -81.5 23t-63.5 23q-33 0 -40 -40z" />
    <glyph glyph-name="uni0304.sc" horiz-adv-x="1" 
d="M-95 607l15 85h323l-15 -85h-323z" />
    <glyph glyph-name="uni0306.sc" horiz-adv-x="1" 
d="M76 601q-155 0 -155 109q0 14 3 30h70q1 -30 19.5 -45t65.5 -15t71 15t34 45h70q-13 -70 -53.5 -104.5t-124.5 -34.5z" />
    <glyph glyph-name="uni0307.sc" horiz-adv-x="1" 
d="M76 597q-33 0 -53 20t-20 50t20 50t53 20t53 -20t20 -50t-20 -50t-53 -20z" />
    <glyph glyph-name="uni0308.sc" horiz-adv-x="1" 
d="M36 663q0 -27 -17.5 -45t-45.5 -18t-45.5 18t-17.5 45t17.5 45t45.5 18t45.5 -18t17.5 -45zM238 663q0 -27 -17.5 -45t-45.5 -18t-45.5 18t-17.5 45t17.5 45t45.5 18t45.5 -18t17.5 -45z" />
    <glyph glyph-name="uni030A.sc" horiz-adv-x="1" 
d="M79 645q20 0 32 12.5t12 31.5t-12 31.5t-32 12.5t-32 -12.5t-12 -31.5t12 -31.5t32 -12.5zM79 592q-42 0 -70 28t-28 69t28 69t70 28t70 -28t28 -69t-28 -69t-70 -28z" />
    <glyph glyph-name="uni030B.sc" horiz-adv-x="1" 
d="M0 601h-103l107 139h150zM181 601h-103l122 139h150z" />
    <glyph glyph-name="uni030C.sc" horiz-adv-x="1" 
d="M162 740h97l-151 -139h-97l-101 139h85l74 -57z" />
    <glyph glyph-name="uni0326.sc" horiz-adv-x="1" 
d="M-155 -194q58 20 81 48q-23 4 -36.5 19.5t-13.5 37.5q0 26 18.5 41.5t47.5 15.5q32 0 52 -20.5t20 -56.5q0 -91 -141 -142z" />
    <glyph glyph-name="uni0327.sc" horiz-adv-x="1" 
d="M62 -94q0 -49 -36.5 -77t-100.5 -28q-60 0 -116 30l28 62q41 -23 77 -23q26 0 41 11.5t15 28.5q0 40 -67 52l22 44q137 -9 137 -100z" />
    <glyph glyph-name="uni0328.sc" horiz-adv-x="1" 
d="M-60 -99q0 -30 39 -30q15 0 32 4l5 -69q-21 -5 -54 -5q-113 0 -113 88q0 36 24 63t78 48h99q-110 -48 -110 -99z" />
    <glyph glyph-name="uni03BC.sc" horiz-adv-x="814" 
d="M412 0h-106l-47 296q-13 84 -17 123h-2q-12 -56 -29 -123l-71 -296h-113l147 550h151l44 -300q9 -56 13 -119h2q19 52 55 120l160 299h148l-50 -550h-116l34 294q9 76 17 125h-2q-21 -54 -58 -122z" />
    <glyph glyph-name="pi.sc" horiz-adv-x="622" 
d="M40 0l97 550h452l-97 -550h-121l80 452h-210l-80 -452h-121z" />
    <glyph glyph-name="dagger.sc" horiz-adv-x="508" 
d="M143 -52l76 355l-139 -12l19 107l134 -12l13 148h114l-39 -148l138 12l-19 -107l-135 12l-48 -355h-114z" />
    <glyph glyph-name="daggerdbl.sc" horiz-adv-x="508" 
d="M194 159l29 164l-139 -12l18 107l134 -12l10 128h114l-36 -128l138 12l-19 -107l-135 12l-29 -164l139 12l-18 -107l-134 12l-10 -128h-114l36 128l-138 -12l19 107z" />
    <glyph glyph-name="bullet.sc" horiz-adv-x="443" 
d="M222 155q-52 0 -85.5 33.5t-33.5 83.5t33.5 83.5t85.5 33.5t85.5 -33.5t33.5 -83.5t-33.5 -83.5t-85.5 -33.5z" />
    <glyph glyph-name="perthousand.sc" horiz-adv-x="1010" 
d="M794 58q26 0 41.5 23.5t15.5 54.5q0 24 -11 39t-31 15q-26 0 -41.5 -23.5t-15.5 -54.5q0 -24 11 -39t31 -15zM791 -6q-58 0 -92 33.5t-34 85.5q0 59 40.5 101t106.5 42q58 0 92 -33.5t34 -85.5q0 -59 -40.5 -101t-106.5 -42zM84 0l432 550h108l-432 -550h-108zM203 358
q26 0 41.5 23.5t15.5 54.5q0 24 -11 39t-31 15q-26 0 -41.5 -23.5t-15.5 -54.5q0 -24 11 -39t31 -15zM200 294q-58 0 -92 33.5t-34 85.5q0 59 40.5 101t106.5 42q58 0 92 -33.5t34 -85.5q0 -59 -40.5 -101t-106.5 -42zM490 58q26 0 41.5 23.5t15.5 54.5q0 24 -11 39t-31 15
q-26 0 -41.5 -23.5t-15.5 -54.5q0 -24 11 -39t31 -15zM487 -6q-58 0 -92 33.5t-34 85.5q0 59 40.5 101t106.5 42q58 0 92 -33.5t34 -85.5q0 -59 -40.5 -101t-106.5 -42z" />
    <glyph glyph-name="exclamdbl.sc" horiz-adv-x="557" 
d="M333 173l45 377h138l-89 -377h-94zM360 -12q-32 0 -51.5 19.5t-19.5 49.5t19.5 49.5t51.5 19.5t51.5 -19.5t19.5 -49.5t-19.5 -49.5t-51.5 -19.5zM100 173l45 377h138l-89 -377h-94zM127 -12q-32 0 -51.5 19.5t-19.5 49.5t19.5 49.5t51.5 19.5t51.5 -19.5t19.5 -49.5
t-19.5 -49.5t-51.5 -19.5z" />
    <glyph glyph-name="Euro.sc" horiz-adv-x="522" 
d="M27 293l13 71h73q33 89 102.5 143.5t166.5 54.5q79 0 141 -41l-40 -86q-51 37 -102 37q-102 0 -150 -108h171l-13 -71h-178q-3 -15 -5 -41h176l-13 -71h-161q14 -107 103 -107q57 0 118 41l11 -87q-65 -40 -147 -40q-85 0 -139 49.5t-64 143.5h-83l13 71h69q2 26 5 41
h-67z" />
    <glyph glyph-name="uni20B1.sc" horiz-adv-x="549" 
d="M23 332l13 71h77l26 147h189q89 0 139.5 -37t56.5 -110h57l-13 -71h-50q-17 -68 -77.5 -106t-156.5 -38h-88l-34 -188h-120l58 332h-77zM210 270h74q90 0 114 62h-178zM245 465l-12 -62h171q-12 62 -86 62h-73z" />
    <glyph glyph-name="uni20B4.sc" horiz-adv-x="514" 
d="M27 293l13 71h302q25 22 25 49t-21.5 42t-59.5 15q-63 0 -142 -42l-10 93q80 41 170 41q84 0 133 -37.5t49 -104.5q0 -31 -11 -56h39l-13 -71h-98q-22 -13 -105 -41h196l-13 -71h-316q-14 -19 -14 -41q0 -31 26 -47.5t72 -16.5q73 0 154 43l12 -89q-91 -42 -186 -42
q-91 0 -144 38t-53 110q0 24 6 45h-31l13 71h74q19 15 86 41h-153z" />
    <glyph glyph-name="uni2116.sc" horiz-adv-x="917" 
d="M750 340q26 0 41.5 23.5t15.5 54.5q0 24 -11 39t-31 15q-26 0 -41.5 -23.5t-15.5 -54.5q0 -24 11 -39t31 -15zM747 276q-58 0 -92 33.5t-34 85.5q0 59 40.5 101t106.5 42q58 0 92 -33.5t34 -85.5q0 -59 -40.5 -101t-106.5 -42zM40 0l97 550h129l158 -338l60 338h112
l-97 -550h-97l-181 388l-69 -388h-112z" />
    <glyph glyph-name="uni2117.sc" horiz-adv-x="674" 
d="M239 142v263h114q53 0 81.5 -23t28.5 -67t-30 -67t-84 -23h-35v-83h-75zM314 282h37q37 0 37 32t-37 32h-37v-64zM108 275q0 -99 66.5 -165t161.5 -66t161.5 66t66.5 165t-66.5 165t-161.5 66t-161.5 -66t-66.5 -165zM623 275q0 -123 -83.5 -205t-203.5 -82t-203.5 82
t-83.5 205t83.5 205t203.5 82t203.5 -82t83.5 -205z" />
    <glyph glyph-name="uniFB00.sc" horiz-adv-x="944" 
d="M40 0l97 550h360l-17 -98h-239l-26 -142h212l-16 -93h-212l-38 -217h-121zM512 0l97 550h360l-17 -98h-239l-26 -142h212l-16 -93h-212l-38 -217h-121z" />
    <glyph glyph-name="fi.sc" horiz-adv-x="771" 
d="M40 0l97 550h360l-17 -98h-239l-26 -142h212l-16 -93h-212l-38 -217h-121zM514 0l97 550h121l-97 -550h-121z" />
    <glyph glyph-name="fl.sc" horiz-adv-x="935" 
d="M40 0l97 550h360l-17 -98h-239l-26 -142h212l-16 -93h-212l-38 -217h-121zM511 0l97 550h121l-80 -452h233l-17 -98h-354z" />
    <glyph glyph-name="uniFB03.sc" horiz-adv-x="1249" 
d="M40 0l97 550h360l-17 -98h-239l-26 -142h212l-16 -93h-212l-38 -217h-121zM512 0l97 550h360l-17 -98h-239l-26 -142h212l-16 -93h-212l-38 -217h-121zM991 0l97 550h121l-97 -550h-121z" />
    <glyph glyph-name="uniFB04.sc" horiz-adv-x="1407" 
d="M40 0l97 550h360l-17 -98h-239l-26 -142h212l-16 -93h-212l-38 -217h-121zM512 0l97 550h360l-17 -98h-239l-26 -142h212l-16 -93h-212l-38 -217h-121zM984 0l97 550h121l-80 -452h233l-17 -98h-354z" />
    <glyph glyph-name="uni0306.alt001.sc" horiz-adv-x="1" 
d="M318 601q-151 0 -151 108q0 15 3 31h86q-2 -14 -2 -21q0 -51 69 -51q78 0 91 72h86q-12 -69 -54.5 -104t-127.5 -35z" />
    <glyph glyph-name="a.sups.sc" horiz-adv-x="366" 
d="M316 720l55 -340h-82l-8 62h-127l-29 -62h-87l178 340h100zM254 653l-72 -152h91z" />
    <glyph glyph-name="b.sups.sc" horiz-adv-x="363" 
d="M76 380l60 340h130q116 0 116 -86q0 -63 -66 -84q53 -17 53 -73q0 -44 -35 -70.5t-104 -26.5h-154zM168 439h56q32 0 47.5 13t15.5 33q0 37 -48 37h-57zM192 578h48q28 0 44.5 12.5t16.5 31.5q0 36 -46 36h-49z" />
    <glyph glyph-name="d.sups.sc" horiz-adv-x="388" 
d="M171 445h50q53 0 81 35t28 88q0 85 -71 85h-52zM221 380h-145l60 340h123q70 0 112 -39.5t42 -110.5q0 -81 -51.5 -135.5t-140.5 -54.5z" />
    <glyph glyph-name="e.sups.sc" horiz-adv-x="320" 
d="M76 380l60 340h238l-12 -67h-155l-12 -69h134l-11 -63h-134l-14 -76h156l-11 -65h-239z" />
    <glyph glyph-name="h.sups.sc" horiz-adv-x="394" 
d="M76 380l60 340h83l-23 -131h120l23 131h83l-60 -340h-83l25 141h-120l-25 -141h-83z" />
    <glyph glyph-name="i.sups.sc" horiz-adv-x="202" 
d="M81 380l60 340h83l-60 -340h-83z" />
    <glyph glyph-name="l.sups.sc" horiz-adv-x="292" 
d="M76 380l60 340h83l-48 -273h139l-12 -67h-222z" />
    <glyph glyph-name="m.sups.sc" horiz-adv-x="516" 
d="M314 380h-72l-27 177q-7 40 -9 73h-2q-5 -28 -17 -79l-42 -171h-77l93 340h103l22 -179q6 -45 7 -72h2q14 37 32 72l94 179h101l-30 -340h-81l19 161q6 53 13 89h-2q-15 -37 -34 -73z" />
    <glyph glyph-name="n.sups.sc" horiz-adv-x="399" 
d="M76 380l60 340h88l91 -192l34 192h77l-60 -340h-69l-105 222l-39 -222h-77z" />
    <glyph glyph-name="o.sups.sc" horiz-adv-x="384" 
d="M226 373q-66 0 -107 41t-41 114q0 83 51 141t132 58q66 0 107 -41t41 -114q0 -83 -51 -141t-132 -58zM230 438q43 0 69.5 38t26.5 93q0 91 -69 91q-43 0 -69.5 -38t-26.5 -93q0 -91 69 -91z" />
    <glyph glyph-name="r.sups.sc" horiz-adv-x="380" 
d="M283 380l-51 128h-53l-23 -128h-80l60 340h135q60 0 93 -25.5t33 -74.5q0 -81 -84 -104l55 -136h-85zM189 565h59q34 0 51.5 14t17.5 37q0 37 -53 37h-60z" />
    <glyph glyph-name="s.sups.sc" horiz-adv-x="313" 
d="M56 401l28 62q52 -26 93 -26q28 0 46.5 11.5t18.5 29.5t-21.5 32t-47 22.5t-47 31t-21.5 55.5q0 47 38 77.5t101 30.5q60 0 108 -27l-28 -65q-45 25 -80 25q-25 0 -40.5 -9.5t-15.5 -25.5t21.5 -28.5t47 -20t47 -30.5t21.5 -58q0 -52 -41.5 -83.5t-108.5 -31.5
q-66 0 -119 28z" />
    <glyph glyph-name="t.sups.sc" horiz-adv-x="304" 
d="M132 380l48 272h-95l12 68h273l-12 -68h-95l-48 -272h-83z" />
    <glyph glyph-name="u.sups.sc" horiz-adv-x="390" 
d="M335 720h76l-38 -215q-23 -132 -158 -132q-125 0 -125 104q0 20 4 43l35 200h78l-36 -204q-3 -21 -3 -31q0 -46 53 -46q64 0 78 77z" />
    <glyph glyph-name="egrave.sups.sc" horiz-adv-x="320" 
d="M317 749h-62l-74 90h88zM76 380l60 340h238l-12 -67h-155l-12 -69h134l-11 -63h-134l-14 -76h156l-11 -65h-239z" />
    </font>
</defs>
</svg>
