<?xml version="1.0" standalone="no"?>
<!DOCTYPE svg PUBLIC "-//W3C//DTD SVG 1.1//EN" "http://www.w3.org/Graphics/SVG/1.1/DTD/svg11.dtd" >
<svg xmlns="http://www.w3.org/2000/svg" xmlns:xlink="http://www.w3.org/1999/xlink" version="1.1">
<metadata>
Created by FontForge 20170731 at Mon Jun 30 19:51:22 2014
 By Aleksey,,,
2011 published by FontShop International GmbH
</metadata>
<defs>
<font id="SeroOT-BoldItalic" horiz-adv-x="1000" >
  <font-face 
    font-family="SeroOT-BoldItalic"
    font-weight="700"
    font-style="italic"
    font-stretch="normal"
    units-per-em="1000"
    panose-1="2 11 8 4 2 1 1 2 1 2"
    ascent="778"
    descent="-222"
    x-height="510"
    cap-height="720"
    bbox="-996 -278 2776 939"
    underline-thickness="109"
    underline-position="-317"
    slope="-10"
    unicode-range="U+000D-1F4AC"
  />
<missing-glyph horiz-adv-x="500" 
d="M-45 0l127 720h500l-127 -720h-500zM179 602l-85 -484h264l85 484h-264z" />
    <glyph glyph-name="f_b" unicode="fb" horiz-adv-x="909" 
d="M40 392l21 118h73l12 69q12 71 55.5 109t134.5 38q38 0 75 -6l-20 -114q-16 4 -31 4q-28 0 -40 -14t-18 -46l-7 -40h80l-21 -118h-80l-69 -392h-161l69 392h-73zM465 720h161l-47 -263q59 65 137 65q75 0 121 -56.5t46 -160.5q0 -132 -71.5 -224.5t-179.5 -92.5
q-78 0 -131 65l-9 -53h-154zM649 390q-45 0 -89 -43l-36 -204q36 -32 76 -32q56 0 89 49.5t33 122.5q0 107 -73 107z" />
    <glyph glyph-name="f_f" unicode="ff" horiz-adv-x="652" 
d="M274 392l-69 -392h-161l69 392h-73l21 118h73l12 69q12 71 55.5 109t134.5 38q40 0 79 -6l-20 -114q-19 4 -34 4q-30 0 -41.5 -14t-17.5 -46l-7 -40h145l12 69q12 71 55.5 109t134.5 38q40 0 79 -6l-20 -114q-19 4 -34 4q-30 0 -41.5 -14t-17.5 -46l-7 -40h84l-21 -118
h-84l-69 -392h-161l69 392h-145z" />
    <glyph glyph-name="f_f_i" unicode="ffi" horiz-adv-x="924" 
d="M274 392l-69 -392h-161l69 392h-73l21 118h73l12 69q12 71 55.5 109t134.5 38q40 0 79 -6l-20 -114q-19 4 -34 4q-30 0 -41.5 -14t-17.5 -46l-7 -40h145l12 69q12 71 55.5 109t134.5 38q38 0 75 -6l-20 -114q-16 4 -31 4q-28 0 -40 -14t-18 -46l-7 -40h80l-21 -118h-80
l-69 -392h-161l69 392h-145zM650 0l90 510h161l-90 -510h-161zM934 652q0 -37 -24.5 -60.5t-65.5 -23.5t-66 23.5t-25 60.5t25 60.5t66 23.5t65.5 -23.5t24.5 -60.5z" />
    <glyph glyph-name="f_f_l" unicode="ffl" horiz-adv-x="924" 
d="M274 392l-69 -392h-161l69 392h-73l21 118h73l12 69q12 71 55.5 109t134.5 38q40 0 79 -6l-20 -114q-19 4 -34 4q-30 0 -41.5 -14t-17.5 -46l-7 -40h145l12 69q12 71 55.5 109t134.5 38q38 0 75 -6l-20 -114q-16 4 -31 4q-28 0 -40 -14t-18 -46l-7 -40h80l-21 -118h-80
l-69 -392h-161l69 392h-145zM650 0l127 720h161l-127 -720h-161z" />
    <glyph glyph-name="f_h" unicode="fh" horiz-adv-x="900" 
d="M40 392l21 118h73l12 69q12 71 55.5 109t134.5 38q38 0 75 -6l-20 -114q-16 4 -31 4q-28 0 -40 -14t-18 -46l-7 -40h80l-21 -118h-80l-69 -392h-161l69 392h-73zM338 0l127 720h161l-49 -278q75 80 168 80q53 0 89 -29t36 -97q0 -27 -4 -50l-61 -346h-161l58 329
q1 7 1 13q0 45 -41 45q-46 0 -105 -57l-58 -330h-161z" />
    <glyph glyph-name="f_i" unicode="fi" horiz-adv-x="618" 
d="M40 392l21 118h73l12 69q12 71 55.5 109t134.5 38q38 0 75 -6l-20 -114q-16 4 -31 4q-28 0 -40 -14t-18 -46l-7 -40h80l-21 -118h-80l-69 -392h-161l69 392h-73zM344 0l90 510h161l-90 -510h-161zM628 652q0 -37 -24.5 -60.5t-65.5 -23.5t-66 23.5t-25 60.5t25 60.5
t66 23.5t65.5 -23.5t24.5 -60.5z" />
    <glyph glyph-name="f_j" unicode="fj" horiz-adv-x="618" 
d="M40 392l21 118h73l12 69q12 71 55.5 109t134.5 38q38 0 75 -6l-20 -114q-16 4 -31 4q-28 0 -40 -14t-18 -46l-7 -40h80l-21 -118h-80l-69 -392h-161l69 392h-73zM595 510l-102 -579q-12 -71 -55.5 -109t-134.5 -38q-40 0 -79 6l20 114q19 -4 34 -4q30 0 41.5 14t17.5 46
l97 550h161zM628 652q0 -37 -24.5 -60.5t-65.5 -23.5t-66 23.5t-25 60.5t25 60.5t66 23.5t65.5 -23.5t24.5 -60.5z" />
    <glyph glyph-name="f_k" unicode="fk" horiz-adv-x="883" 
d="M40 392l21 118h73l12 69q12 71 55.5 109t134.5 38q38 0 75 -6l-20 -114q-16 4 -31 4q-28 0 -40 -14t-18 -46l-7 -40h80l-21 -118h-80l-69 -392h-161l69 392h-73zM338 0l127 720h161l-70 -396l166 186h179l-206 -198l127 -312h-156l-80 209l-61 -59l-26 -150h-161z" />
    <glyph glyph-name="f_l" unicode="fl" horiz-adv-x="618" 
d="M344 0l127 720h161l-127 -720h-161zM40 392l21 118h73l12 69q12 71 55.5 109t134.5 38q38 0 75 -6l-20 -114q-16 4 -31 4q-28 0 -40 -14t-18 -46l-7 -40h80l-21 -118h-80l-69 -392h-161l69 392h-73z" />
    <glyph glyph-name="f_t" unicode="ft" horiz-adv-x="679" 
d="M274 392l-69 -392h-161l69 392h-73l21 118h73l12 69q12 71 55.5 109t134.5 38q38 0 75 -6l-20 -114q-16 4 -31 4q-28 0 -40 -14t-18 -46l-7 -40h145l30 170h161l-30 -170h95l-21 -118h-95l-39 -223q-2 -12 -2 -18q0 -36 40 -36q21 0 49 8l-22 -118q-46 -11 -92 -11
q-65 0 -102.5 25.5t-37.5 92.5q0 26 7 65l38 215h-145z" />
    <glyph glyph-name=".notdef" horiz-adv-x="500" 
d="M-45 0l127 720h500l-127 -720h-500zM179 602l-85 -484h264l85 484h-264z" />
    <glyph glyph-name=".null" horiz-adv-x="0" 
 />
    <glyph glyph-name="nonmarkingreturn" horiz-adv-x="333" 
 />
    <glyph glyph-name="CR" unicode="&#xd;" horiz-adv-x="220" 
 />
    <glyph glyph-name="space" unicode=" " horiz-adv-x="220" 
 />
    <glyph glyph-name="exclam" unicode="!" horiz-adv-x="337" 
d="M100 224l58 496h185l-116 -496h-127zM230 74q0 -37 -26 -61.5t-66 -24.5t-66 24.5t-26 61.5t26 61.5t66 24.5t66 -24.5t26 -61.5z" />
    <glyph glyph-name="quotedbl" unicode="&#x22;" horiz-adv-x="450" 
d="M297 432l42 288h128l-60 -288h-110zM103 432l42 288h128l-60 -288h-110z" />
    <glyph glyph-name="numbersign" unicode="#" horiz-adv-x="572" 
d="M217 0l73 186h-97l-73 -186h-130l73 186h-71l19 110h94l35 88h-80l19 110h103l73 186h130l-73 -186h97l73 186h130l-73 -186h71l-19 -110h-94l-35 -88h80l-19 -110h-103l-73 -186h-130zM270 384l-35 -88h97l35 88h-97z" />
    <glyph glyph-name="dollar" unicode="$" horiz-adv-x="564" 
d="M173 -100l18 102q-107 9 -194 56l60 123q99 -52 181 -52q58 0 94 23t36 60q0 31 -29 53t-70 38t-82.5 36.5t-70.5 60.5t-29 97q0 89 63.5 149t165.5 71l15 83h98l-15 -83q88 -12 165 -54l-61 -127q-84 50 -158 50q-49 0 -80 -21.5t-31 -52.5q0 -27 29 -46.5t70 -35.5
t82.5 -36.5t70.5 -61.5t29 -99q0 -92 -66 -154t-175 -76l-18 -103h-98z" />
    <glyph glyph-name="percent" unicode="%" horiz-adv-x="823" 
d="M75 0l566 720h144l-566 -720h-144zM246 471q29 0 45 31t16 71q0 66 -43 66q-29 0 -45 -31t-16 -71q0 -66 43 -66zM243 386q-72 0 -114.5 44t-42.5 112q0 74 50 129t131 55q72 0 114.5 -44t42.5 -112q0 -74 -50 -129t-131 -55zM596 79q29 0 45 31t16 71q0 66 -43 66
q-29 0 -45 -31t-16 -71q0 -66 43 -66zM593 -6q-72 0 -114.5 44t-42.5 112q0 74 50 129t131 55q72 0 114.5 -44t42.5 -112q0 -74 -50 -129t-131 -55z" />
    <glyph glyph-name="ampersand" unicode="&#x26;" horiz-adv-x="623" 
d="M135 505q0 82 64 134.5t170 52.5q97 0 151.5 -44.5t54.5 -112.5q0 -37 -16 -67t-48 -53.5t-61.5 -38.5t-75.5 -34l69 -107q37 45 77 101l91 -75q-56 -75 -101 -121l68 -99l-118 -82l-60 89q-92 -60 -194 -60q-93 0 -151 47t-58 129q0 77 50.5 126t138.5 85
q-27 41 -39 68.5t-12 61.5zM238 102q51 0 102 36l-94 148q-89 -47 -89 -109q0 -34 21 -54.5t60 -20.5zM439 519q0 25 -19 42.5t-53 17.5q-37 0 -61 -21.5t-24 -53.5q0 -6 1 -11.5t3 -12t4 -11t6.5 -12t6.5 -10.5t8 -12.5t8 -12.5q61 25 90.5 45.5t29.5 51.5z" />
    <glyph glyph-name="quotesingle" unicode="'" horiz-adv-x="255" 
d="M103 432l42 288h128l-60 -288h-110z" />
    <glyph glyph-name="parenleft" unicode="(" horiz-adv-x="374" 
d="M187 200q0 -200 101 -333l-94 -60q-168 166 -168 394q0 80 22 153.5t52 125.5t80 104.5t87 83t91 69.5l67 -88q-54 -43 -92.5 -83t-74 -94t-53.5 -122t-18 -150z" />
    <glyph glyph-name="parenright" unicode=")" horiz-adv-x="374" 
d="M195 351q0 200 -101 333l94 60q168 -166 168 -394q0 -80 -22 -153.5t-52 -125.5t-80 -104.5t-87 -83t-91 -69.5l-67 88q54 43 92.5 83t74 94t53.5 122t18 150z" />
    <glyph glyph-name="asterisk" unicode="*" horiz-adv-x="435" 
d="M450 491l-127 7l69 -105l-74 -44l-58 115l-58 -115l-74 44l69 105l-127 -7v87l127 -7l-69 105l74 44l58 -115l58 115l74 -44l-69 -105l127 7v-87z" />
    <glyph glyph-name="plus" unicode="+" horiz-adv-x="572" 
d="M305 0h-128l34 193h-180l22 124h180l34 193h128l-34 -193h180l-22 -124h-180z" />
    <glyph glyph-name="comma" unicode="," horiz-adv-x="301" 
d="M110 172q47 0 77.5 -33t30.5 -91q0 -135 -202 -228l-55 75q108 47 136 105q-35 4 -57 27.5t-22 57.5q0 37 25.5 62t66.5 25z" />
    <glyph glyph-name="hyphen" unicode="-" horiz-adv-x="406" 
d="M48 258l19 107h311l-19 -107h-311z" />
    <glyph glyph-name="period" unicode="." horiz-adv-x="301" 
d="M118 -12q-42 0 -69 26.5t-27 65.5t27 65.5t69 26.5t69 -26.5t27 -65.5t-27 -65.5t-69 -26.5z" />
    <glyph glyph-name="slash" unicode="/" horiz-adv-x="650" 
d="M-28 -40l561 760h175l-561 -760h-175z" />
    <glyph glyph-name="zero" unicode="0" horiz-adv-x="645" 
d="M311 118q71 0 115.5 88t44.5 210q0 182 -101 182q-71 0 -115.5 -88t-44.5 -210q0 -182 101 -182zM302 -12q-115 0 -184.5 83t-69.5 232q0 113 40 210t116.5 158t174.5 61q115 0 184.5 -83t69.5 -232q0 -113 -40 -210t-116.5 -158t-174.5 -61z" />
    <glyph glyph-name="one" unicode="1" horiz-adv-x="403" 
d="M112 500l-23 130l189 90h123l-127 -720h-158l96 545z" />
    <glyph glyph-name="two" unicode="2" horiz-adv-x="569" 
d="M398 513q0 37 -23 59t-67 22q-96 0 -187 -95l-23 139q40 42 102.5 68.5t134.5 26.5q104 0 164 -55.5t60 -149.5q0 -98 -72 -190t-231 -209h250l-23 -129h-497l21 116q216 148 303.5 239.5t87.5 157.5z" />
    <glyph glyph-name="three" unicode="3" horiz-adv-x="557" 
d="M331 733q104 0 166.5 -45.5t62.5 -129.5q0 -68 -43.5 -117t-127.5 -75q127 -40 127 -160q0 -101 -81.5 -159.5t-219.5 -58.5q-134 0 -241 56l60 125q104 -52 180 -52q65 0 99 27t34 71q0 85 -148 85q-28 0 -73 -3l22 122q251 0 251 108q0 72 -93 72q-74 0 -181 -58
l-14 135q104 57 220 57z" />
    <glyph glyph-name="four" unicode="4" horiz-adv-x="632" 
d="M1 139l22 122l376 459h198l-79 -451h102l-23 -130h-102l-25 -139h-157l25 139h-337zM190 269h171l47 272z" />
    <glyph glyph-name="five" unicode="5" horiz-adv-x="549" 
d="M365 238q0 100 -144 100q-79 0 -167 -24l85 406h437l-24 -134h-285l-27 -127q30 2 44 2q111 0 176.5 -59t65.5 -162q0 -117 -83.5 -184.5t-226.5 -67.5q-130 0 -239 56l60 126q98 -51 178 -51q72 0 111 32t39 87z" />
    <glyph glyph-name="six" unicode="6" horiz-adv-x="603" 
d="M409 732q116 0 205 -52l-61 -127q-85 45 -146 45q-78 0 -125 -48.5t-65 -131.5q67 64 154 64q93 0 149.5 -61.5t56.5 -163.5q0 -121 -77 -195t-189 -74q-117 0 -190 86t-73 240q0 113 39.5 206.5t123 152.5t198.5 59zM328 355q-54 0 -122 -59q1 -94 30.5 -138t78.5 -44
q48 0 78 36.5t30 95.5q0 52 -25.5 80.5t-69.5 28.5z" />
    <glyph glyph-name="seven" unicode="7" horiz-adv-x="501" 
d="M211 0h-190q181 346 333 581h-285l25 139h479l-23 -130q-156 -239 -339 -590z" />
    <glyph glyph-name="eight" unicode="8" horiz-adv-x="594" 
d="M565 204q0 -96 -81 -156t-212 -60q-122 0 -193 53.5t-71 142.5q0 40 14.5 71.5t43 54t58 38t71.5 30.5q-96 58 -96 153q0 88 72.5 144.5t187.5 56.5q108 0 171 -50t63 -132q0 -65 -39.5 -107t-111.5 -71q123 -63 123 -168zM255 534q0 -32 20.5 -55t59.5 -45
q49 21 75.5 45.5t26.5 61.5q0 35 -22.5 54.5t-61.5 19.5q-42 0 -70 -22t-28 -59zM403 198q0 39 -25.5 64.5t-75.5 53.5q-65 -25 -98.5 -52.5t-33.5 -73.5q0 -42 29.5 -65.5t79.5 -23.5q53 0 88.5 26t35.5 71z" />
    <glyph glyph-name="nine" unicode="9" horiz-adv-x="603" 
d="M231 -12q-116 0 -205 52l61 122q85 -45 146 -45q80 0 127 50.5t64 135.5q-66 -65 -155 -65q-93 0 -149.5 61.5t-56.5 163.5q0 121 77 195t189 74q117 0 190 -86t73 -240q0 -113 -39.5 -206.5t-123 -152.5t-198.5 -59zM311 360q53 0 123 58q-4 183 -109 183
q-48 0 -78 -36.5t-30 -95.5q0 -52 25 -80.5t69 -28.5z" />
    <glyph glyph-name="colon" unicode=":" horiz-adv-x="301" 
d="M118 -12q-42 0 -69 26.5t-27 65.5t27 65.5t69 26.5t69 -26.5t27 -65.5t-27 -65.5t-69 -26.5zM174 316q-42 0 -69 26.5t-27 65.5t27 65.5t69 26.5t69 -26.5t27 -65.5t-27 -65.5t-69 -26.5z" />
    <glyph glyph-name="semicolon" unicode=";" horiz-adv-x="301" 
d="M110 172q47 0 77.5 -33t30.5 -91q0 -135 -202 -228l-55 75q108 47 136 105q-35 4 -57 27.5t-22 57.5q0 37 25.5 62t66.5 25zM174 316q-42 0 -69 26.5t-27 65.5t27 65.5t69 26.5t69 -26.5t27 -65.5t-27 -65.5t-69 -26.5z" />
    <glyph glyph-name="less" unicode="&#x3c;" horiz-adv-x="572" 
d="M32 200l20 110l523 200l-22 -126l-376 -134l328 -136l-20 -114z" />
    <glyph glyph-name="equal" unicode="=" horiz-adv-x="572" 
d="M558 412l-20 -111h-488l20 111h488zM522 208l-20 -111h-488l20 111h488z" />
    <glyph glyph-name="greater" unicode="&#x3e;" horiz-adv-x="572" 
d="M540 310l-20 -110l-523 -200l22 126l376 134l-328 136l20 114z" />
    <glyph glyph-name="question" unicode="?" horiz-adv-x="434" 
d="M215 224h-124q-5 20 -5 37q0 37 21 70t50.5 56.5t59.5 46t51 48.5t21 54q0 35 -29 53t-77 18q-34 0 -85 -9l22 122q60 12 107 12q103 0 163 -45t60 -128q0 -43 -17.5 -79.5t-43.5 -59.5t-56.5 -46.5t-56.5 -42t-43.5 -43.5t-17.5 -53v-11zM217 74q0 -37 -25.5 -61.5
t-66.5 -24.5t-66.5 24.5t-25.5 61.5t25.5 61.5t66.5 24.5t66.5 -24.5t25.5 -61.5z" />
    <glyph glyph-name="at" unicode="@" horiz-adv-x="836" 
d="M600 168q35 0 57 41.5t22 104.5q0 110 -67.5 176.5t-178.5 66.5q-126 0 -206.5 -85t-80.5 -214q0 -125 77 -193t193 -68q81 0 183 39l28 -91q-104 -40 -212 -40q-161 0 -265.5 93t-104.5 260q0 170 108.5 280.5t280.5 110.5q155 0 251 -92t96 -243q0 -113 -54 -173
t-137 -60q-47 0 -77.5 19.5t-40.5 54.5q-61 -74 -128 -74q-54 0 -88 38.5t-34 115.5q0 100 57.5 169t164.5 69q67 0 137 -30l-20 -189q-2 -18 -2 -26q0 -60 41 -60zM368 173q42 0 87 67l15 137q-19 8 -41 8q-38 0 -62.5 -26.5t-32 -57t-7.5 -62.5q0 -66 41 -66z" />
    <glyph glyph-name="A" unicode="A" horiz-adv-x="695" 
d="M529 720l104 -720h-163l-17 146h-243l-67 -146h-171l364 720h193zM403 564l-137 -297h172z" />
    <glyph glyph-name="B" unicode="B" horiz-adv-x="672" 
d="M32 0l127 720h242q115 0 180 -45t65 -135q0 -133 -135 -178q107 -40 107 -153q0 -94 -75 -151.5t-217 -57.5h-294zM214 122h112q131 0 131 100q0 82 -99 82h-112zM266 420h95q124 0 124 95q0 78 -94 78h-94z" />
    <glyph glyph-name="C" unicode="C" horiz-adv-x="602" 
d="M521 175l16 -132q-98 -55 -206 -55q-129 0 -206.5 80t-77.5 230q0 115 44.5 212.5t136 159.5t212.5 62q116 0 205 -55l-61 -130q-80 49 -149 49q-72 0 -124.5 -43t-76.5 -107t-24 -140q0 -95 39.5 -141t107.5 -46q77 0 164 56z" />
    <glyph glyph-name="D" unicode="D" horiz-adv-x="719" 
d="M159 720h228q145 0 231 -83.5t86 -232.5q0 -80 -26 -152t-75 -128.5t-125.5 -90t-170.5 -33.5h-275zM218 131h89q112 0 173 78.5t61 190.5q0 92 -42.5 138t-111.5 46h-89z" />
    <glyph glyph-name="E" unicode="E" horiz-adv-x="590" 
d="M32 0l127 720h473l-24 -136h-310l-28 -156h269l-22 -128h-269l-30 -169h313l-23 -131h-476z" />
    <glyph glyph-name="F" unicode="F" horiz-adv-x="548" 
d="M32 0l127 720h451l-24 -136h-288l-29 -166h251l-22 -128h-252l-51 -290h-163z" />
    <glyph glyph-name="G" unicode="G" horiz-adv-x="689" 
d="M372 114q34 0 71 8l27 148h-117l21 121h271l-61 -349q-110 -54 -232 -54q-146 0 -225.5 80t-79.5 234q0 119 45.5 215t140 155.5t223.5 59.5q134 0 237 -67l-62 -131q-90 62 -180 62q-118 0 -179.5 -81.5t-61.5 -207.5q0 -102 41 -147.5t121 -45.5z" />
    <glyph glyph-name="H" unicode="H" horiz-adv-x="724" 
d="M32 0l127 720h163l-50 -284h243l50 284h163l-127 -720h-163l53 300h-243l-53 -300h-163z" />
    <glyph glyph-name="I" unicode="I" horiz-adv-x="329" 
d="M38 0l127 720h163l-127 -720h-163z" />
    <glyph glyph-name="J" unicode="J" horiz-adv-x="412" 
d="M-26 1l23 132q42 -8 76 -8q52 0 75 24t33 83l86 488h163l-91 -516q-13 -74 -37 -116.5t-79 -68t-148 -25.5q-55 0 -101 7z" />
    <glyph glyph-name="K" unicode="K" horiz-adv-x="682" 
d="M32 0l127 720h163l-52 -295l264 295h198l-280 -283l171 -437h-166l-121 319l-103 -104l-38 -215h-163z" />
    <glyph glyph-name="L" unicode="L" horiz-adv-x="540" 
d="M32 0l127 720h163l-103 -584h281l-24 -136h-444z" />
    <glyph glyph-name="M" unicode="M" horiz-adv-x="963" 
d="M506 0h-146l-45 373q-10 79 -14 152h-2q-25 -117 -35 -160l-83 -365h-158l188 720h209l37 -378q10 -99 11 -151h2q27 73 68 160l177 369h205l-70 -720h-163l46 363q12 89 25 162h-2q-10 -39 -66 -154z" />
    <glyph glyph-name="N" unicode="N" horiz-adv-x="731" 
d="M32 0l127 720h171l178 -434l77 434h150l-127 -720h-136l-203 495l-87 -495h-150z" />
    <glyph glyph-name="O" unicode="O" horiz-adv-x="723" 
d="M353 120q87 0 141 80.5t54 198.5q0 96 -38 146.5t-104 50.5q-87 0 -141 -80.5t-54 -198.5q0 -96 38 -146.5t104 -50.5zM346 -12q-133 0 -215.5 87t-82.5 242q0 175 102.5 295t262.5 120q133 0 215.5 -87t82.5 -242q0 -175 -102.5 -295t-262.5 -120z" />
    <glyph glyph-name="P" unicode="P" horiz-adv-x="646" 
d="M32 0l127 720h246q121 0 189 -54.5t68 -162.5q0 -116 -79.5 -181.5t-224.5 -65.5h-120l-45 -256h-161zM296 587l-35 -203h97q143 0 143 112q0 91 -108 91h-97z" />
    <glyph glyph-name="Q" unicode="Q" horiz-adv-x="729" 
d="M414 -192q-82 0 -122 35t-40 116q0 23 3 45q-96 26 -151.5 106.5t-55.5 206.5q0 175 102.5 295t262.5 120q133 0 215.5 -87t82.5 -242q0 -164 -90.5 -279t-235.5 -130q0 -33 18 -46t58 -13q43 0 97 14l-23 -128q-63 -13 -121 -13zM353 120q87 0 141 80.5t54 198.5
q0 96 -38 146.5t-104 50.5q-87 0 -141 -80.5t-54 -198.5q0 -96 38 -146.5t104 -50.5z" />
    <glyph glyph-name="R" unicode="R" horiz-adv-x="704" 
d="M444 0l-109 286h-93l-50 -286h-160l127 720h272q117 0 180.5 -51t63.5 -151q0 -85 -46.5 -142t-134.5 -79l118 -297h-168zM263 402h118q134 0 134 103q0 43 -25 62.5t-77 19.5h-118z" />
    <glyph glyph-name="S" unicode="S" horiz-adv-x="584" 
d="M1 49l61 124q108 -55 187 -55q61 0 96 25t35 63q0 28 -21 48.5t-52 33t-68 30t-68 37.5t-52 57.5t-21 87.5q0 104 79.5 168t202.5 64q114 0 219 -59l-62 -132q-87 55 -163 55q-51 0 -82 -22.5t-31 -56.5q0 -26 21 -45.5t52 -31t68 -28.5t68 -37t52 -58.5t21 -89.5
q0 -108 -82.5 -173.5t-215.5 -65.5q-134 0 -244 61z" />
    <glyph glyph-name="T" unicode="T" horiz-adv-x="583" 
d="M165 0l103 584h-191l24 136h545l-24 -136h-191l-103 -584h-163z" />
    <glyph glyph-name="U" unicode="U" horiz-adv-x="689" 
d="M69 289l76 431h164l-80 -454q-4 -24 -4 -46q0 -52 25 -74t73 -22q58 0 94.5 32.5t50.5 109.5l80 454h158l-85 -481q-23 -128 -99 -189.5t-212 -61.5q-121 0 -185 50.5t-64 163.5q0 44 8 87z" />
    <glyph glyph-name="V" unicode="V" horiz-adv-x="666" 
d="M201 0l-102 720h157l65 -515l245 515h165l-361 -720h-169z" />
    <glyph glyph-name="W" unicode="W" horiz-adv-x="960" 
d="M312 0h-159l-50 720h165l15 -319q6 -119 1 -186h2q26 89 67 185l135 320h154l17 -324q5 -101 1 -181h2q34 121 61 188l127 317h170l-307 -720h-159l-20 341q-6 92 -4 183h-2q-23 -72 -71 -187z" />
    <glyph glyph-name="X" unicode="X" horiz-adv-x="688" 
d="M-12 0l275 371l-140 349h166l87 -239l170 239h182l-264 -348l146 -372h-167l-92 262l-181 -262h-182z" />
    <glyph glyph-name="Y" unicode="Y" horiz-adv-x="649" 
d="M198 0l51 290l-158 430h159l99 -281l198 281h175l-310 -430l-51 -290h-163z" />
    <glyph glyph-name="Z" unicode="Z" horiz-adv-x="615" 
d="M-16 0l20 111l404 473h-301l24 136h526l-20 -116l-404 -473h321l-23 -131h-547z" />
    <glyph glyph-name="bracketleft" unicode="[" horiz-adv-x="423" 
d="M341 -67l-20 -113h-331l159 900h331l-20 -113h-170l-119 -674h170z" />
    <glyph glyph-name="backslash" unicode="\" horiz-adv-x="650" 
d="M259 720l315 -760h-153l-315 760h153z" />
    <glyph glyph-name="bracketright" unicode="]" horiz-adv-x="423" 
d="M87 607l20 113h331l-159 -900h-331l20 113h170l119 674h-170z" />
    <glyph glyph-name="asciicircum" unicode="^" horiz-adv-x="572" 
d="M313 720h110l114 -488h-114l-73 352l-196 -352h-127z" />
    <glyph glyph-name="underscore" unicode="_" horiz-adv-x="492" 
d="M-77 -156l19 109h500l-19 -109h-500z" />
    <glyph glyph-name="grave" unicode="`" horiz-adv-x="500" 
d="M399 553h-122l-117 167h168z" />
    <glyph glyph-name="a" unicode="a" horiz-adv-x="579" 
d="M484 0h-155q-8 16 -8 31q0 13 2 22q-57 -65 -137 -65q-73 0 -117 53.5t-44 156.5q0 135 71.5 229.5t177.5 94.5q74 0 126 -66l10 54h154l-70 -396q-12 -65 -12 -94q0 -16 2 -20zM255 111q44 0 85 42l37 205q-35 32 -71 32q-54 0 -87 -49.5t-33 -125.5q0 -104 69 -104z
" />
    <glyph glyph-name="b" unicode="b" horiz-adv-x="587" 
d="M143 720h161l-47 -263q59 65 137 65q75 0 121 -56.5t46 -160.5q0 -132 -71.5 -224.5t-179.5 -92.5q-78 0 -131 65l-9 -53h-154zM327 390q-45 0 -89 -43l-36 -204q36 -32 76 -32q56 0 89 49.5t33 122.5q0 107 -73 107z" />
    <glyph glyph-name="c" unicode="c" horiz-adv-x="449" 
d="M465 486l-51 -117q-47 30 -88 30q-65 0 -103 -51.5t-38 -127.5q0 -114 88 -114q54 0 105 33l9 -117q-63 -34 -145 -34q-99 0 -158 57t-59 167q0 131 80.5 220.5t215.5 89.5q78 0 144 -36z" />
    <glyph glyph-name="d" unicode="d" horiz-adv-x="587" 
d="M275 522q72 0 126 -59l45 257h161l-107 -606q-12 -68 -12 -95q0 -13 2 -19h-155q-8 16 -8 31q0 4 2 22q-57 -65 -138 -65q-75 0 -120.5 54.5t-45.5 158.5q0 133 72 227t178 94zM260 111q44 0 86 42l36 203q-37 34 -76 34q-54 0 -87 -50t-33 -124q0 -105 74 -105z" />
    <glyph glyph-name="e" unicode="e" horiz-adv-x="540" 
d="M326 522q93 0 144 -43.5t51 -110.5q0 -77 -70.5 -123.5t-214.5 -46.5q-34 0 -49 1q8 -97 107 -97q74 0 153 38l10 -114q-88 -38 -191 -38q-116 0 -178.5 57t-62.5 167q0 133 83.5 221.5t217.5 88.5zM315 412q-41 0 -74.5 -33t-46.5 -88h33q146 0 146 68q0 23 -15 38
t-43 15z" />
    <glyph glyph-name="f" unicode="f" horiz-adv-x="346" 
d="M40 392l21 118h73l12 69q12 71 55.5 109t134.5 38q40 0 79 -6l-20 -114q-19 4 -34 4q-30 0 -41.5 -14t-17.5 -46l-7 -40h84l-21 -118h-84l-69 -392h-161l69 392h-73z" />
    <glyph glyph-name="g" unicode="g" horiz-adv-x="587" 
d="M570 510l-88 -500q-20 -111 -97.5 -168.5t-192.5 -57.5q-114 0 -206 45l51 116q83 -37 148 -37q118 0 141 130l5 28q-58 -66 -138 -66q-75 0 -121.5 53t-46.5 155q0 130 71.5 222t179.5 92q77 0 131 -65l9 53h154zM260 123q45 0 88 42l34 191q-39 34 -76 34
q-54 0 -87 -47.5t-33 -118.5q0 -101 74 -101z" />
    <glyph glyph-name="h" unicode="h" horiz-adv-x="578" 
d="M16 0l127 720h161l-49 -278q75 80 168 80q53 0 89 -29t36 -97q0 -27 -4 -50l-61 -346h-161l58 329q1 7 1 13q0 45 -41 45q-46 0 -105 -57l-58 -330h-161z" />
    <glyph glyph-name="i" unicode="i" horiz-adv-x="296" 
d="M22 0l90 510h161l-90 -510h-161zM306 652q0 -37 -24.5 -60.5t-65.5 -23.5t-66 23.5t-25 60.5t25 60.5t66 23.5t65.5 -23.5t24.5 -60.5z" />
    <glyph glyph-name="j" unicode="j" horiz-adv-x="296" 
d="M273 510l-102 -579q-12 -71 -55.5 -109t-134.5 -38q-40 0 -79 6l20 114q19 -4 34 -4q30 0 41.5 14t17.5 46l97 550h161zM306 652q0 -37 -24.5 -60.5t-65.5 -23.5t-66 23.5t-25 60.5t25 60.5t66 23.5t65.5 -23.5t24.5 -60.5z" />
    <glyph glyph-name="k" unicode="k" horiz-adv-x="561" 
d="M16 0l127 720h161l-70 -396l166 186h179l-206 -198l127 -312h-156l-80 209l-61 -59l-26 -150h-161z" />
    <glyph glyph-name="l" unicode="l" horiz-adv-x="296" 
d="M22 0l127 720h161l-127 -720h-161z" />
    <glyph glyph-name="m" unicode="m" horiz-adv-x="864" 
d="M473 0h-161l58 329q2 14 2 21q0 37 -39 37q-41 0 -98 -57l-58 -330h-161l90 510h161l-12 -68q74 80 164 80q46 0 78 -22.5t38 -70.5q34 41 81 67t98 26q50 0 85 -29.5t35 -99.5q0 -24 -4 -47l-61 -346h-161l58 329q2 14 2 21q0 37 -39 37q-41 0 -98 -57z" />
    <glyph glyph-name="n" unicode="n" horiz-adv-x="578" 
d="M16 0l90 510h161l-12 -68q75 80 168 80q53 0 89 -29t36 -97q0 -27 -4 -50l-61 -346h-161l58 329q1 7 1 13q0 45 -41 45q-46 0 -105 -57l-58 -330h-161z" />
    <glyph glyph-name="o" unicode="o" horiz-adv-x="561" 
d="M260 101q51 0 83 54t32 133q0 117 -74 117q-51 0 -83 -54t-32 -133q0 -117 74 -117zM251 -12q-100 0 -163 59.5t-63 172.5q0 129 80.5 215.5t204.5 86.5q100 0 163 -59.5t63 -172.5q0 -129 -80.5 -215.5t-204.5 -86.5z" />
    <glyph glyph-name="p" unicode="p" horiz-adv-x="587" 
d="M106 510h161l-10 -53q59 65 137 65q75 0 121 -56.5t46 -160.5q0 -133 -71.5 -225t-178.5 -92q-72 0 -126 59l-45 -257h-161zM327 390q-45 0 -89 -43l-36 -204q36 -32 76 -32q56 0 89 49.5t33 122.5q0 107 -73 107z" />
    <glyph glyph-name="q" unicode="q" horiz-adv-x="587" 
d="M443 -210h-161l47 263q-57 -65 -138 -65q-74 0 -120 55t-46 159q0 133 71.5 226.5t178.5 93.5q79 0 132 -65l9 53h154zM260 111q44 0 86 42l36 203q-35 34 -76 34q-54 0 -87 -50t-33 -124q0 -105 74 -105z" />
    <glyph glyph-name="r" unicode="r" horiz-adv-x="399" 
d="M436 516l-24 -136q-20 2 -38 2q-79 0 -142 -69l-55 -313h-161l90 510h161l-15 -87q54 99 146 99q23 0 38 -6z" />
    <glyph glyph-name="s" unicode="s" horiz-adv-x="470" 
d="M462 479l-50 -115q-66 39 -123 39q-29 0 -48.5 -11.5t-19.5 -30.5q0 -18 21 -30t51 -21.5t60 -23t51 -43.5t21 -75q0 -83 -65.5 -131.5t-173.5 -48.5q-109 0 -194 44l50 111q82 -41 144 -41q35 0 59.5 13.5t24.5 35.5q0 19 -21 32t-51 23.5t-60 25t-51 44t-21 72.5
q0 78 62 126t161 48q94 0 173 -43z" />
    <glyph glyph-name="t" unicode="t" horiz-adv-x="373" 
d="M40 392l21 118h73l30 170h161l-30 -170h95l-21 -118h-95l-39 -223q-2 -12 -2 -18q0 -36 40 -36q21 0 49 8l-22 -118q-46 -11 -92 -11q-65 0 -102.5 25.5t-37.5 92.5q0 26 7 65l38 215h-73z" />
    <glyph glyph-name="u" unicode="u" horiz-adv-x="578" 
d="M561 510l-90 -510h-161l12 68q-75 -80 -168 -80q-53 0 -89 29t-36 97q0 27 4 50l61 346h161l-59 -334q-1 -7 -1 -13q0 -45 41 -45q46 0 105 57l59 335h161z" />
    <glyph glyph-name="v" unicode="v" horiz-adv-x="509" 
d="M125 0l-82 510h156l39 -334l154 334h162l-267 -510h-162z" />
    <glyph glyph-name="w" unicode="w" horiz-adv-x="740" 
d="M403 0l-14 206q-5 70 -2 123h-3q-18 -57 -45 -117l-95 -212h-152l-45 510h146l15 -207q5 -63 2 -121h2q15 52 45 119l92 209h139l13 -206q4 -65 2 -122h2q17 68 39 121l88 207h152l-229 -510h-152z" />
    <glyph glyph-name="x" unicode="x" horiz-adv-x="521" 
d="M-33 0l201 265l-100 245h156l50 -152l100 152h168l-186 -244l108 -266h-154l-60 173l-116 -173h-167z" />
    <glyph glyph-name="y" unicode="y" horiz-adv-x="509" 
d="M-52 -211l22 125q27 -5 53 -5q43 0 70.5 20.5t58.5 82.5h-42l-66 498h159l32 -374l158 374h162l-252 -521q-60 -123 -113 -164t-156 -41q-43 0 -86 5z" />
    <glyph glyph-name="z" unicode="z" horiz-adv-x="498" 
d="M-23 0l18 101l287 292h-221l21 117h427l-17 -98l-287 -292h237l-21 -120h-444z" />
    <glyph glyph-name="braceleft" unicode="{" horiz-adv-x="423" 
d="M22 214l20 112h24q44 0 63 17.5t27 61.5l26 149q15 87 72.5 126.5t192.5 39.5h28l-20 -113h-28q-44 0 -63 -18t-27 -62l-26 -149q-8 -47 -30 -76t-68 -37q59 -22 59 -94q0 -12 -6 -46l-22 -126q-2 -14 -2 -21q0 -45 65 -45h29l-19 -113h-29q-103 0 -154 36t-51 117
q0 25 5 50l22 125q2 14 2 21q0 45 -65 45h-25z" />
    <glyph glyph-name="bar" unicode="|" horiz-adv-x="398" 
d="M42 -180l159 900h159l-159 -900h-159z" />
    <glyph glyph-name="braceright" unicode="}" horiz-adv-x="423" 
d="M406 326l-20 -112h-24q-44 0 -63 -17.5t-27 -61.5l-26 -149q-15 -87 -72.5 -126.5t-192.5 -39.5h-28l20 113h28q44 0 63 18t27 62l26 149q8 47 30 76t68 37q-59 22 -59 94q0 12 6 46l22 126q2 14 2 21q0 45 -65 45h-29l19 113h29q103 0 154 -36t51 -117q0 -25 -5 -50
l-22 -125q-2 -14 -2 -21q0 -45 65 -45h25z" />
    <glyph glyph-name="asciitilde" unicode="~" horiz-adv-x="572" 
d="M167 213q-66 0 -120 -36l-19 121q59 39 145 39q43 0 117.5 -20t113.5 -20q66 0 120 36l19 -121q-59 -39 -145 -39q-43 0 -117.5 20t-113.5 20z" />
    <glyph glyph-name="uni00A0" unicode="&#xa0;" horiz-adv-x="220" 
 />
    <glyph glyph-name="exclamdown" unicode="&#xa1;" horiz-adv-x="337" 
d="M237 286l-58 -496h-185l116 496h127zM107 436q0 37 26 61.5t66 24.5t66 -24.5t26 -61.5t-26 -61.5t-66 -24.5t-66 24.5t-26 61.5z" />
    <glyph glyph-name="cent" unicode="&#xa2;" horiz-adv-x="474" 
d="M482 497l-51 -113q-24 12 -29 14l-120 -284q56 0 112 33l10 -113q-68 -34 -150 -34h-20l-61 -143h-84l67 158q-129 47 -129 209q0 132 83 221t221 89q23 0 44 -3l53 126h84l-62 -145zM181 231q0 -65 31 -93l117 277q-69 -1 -108.5 -53.5t-39.5 -130.5z" />
    <glyph glyph-name="sterling" unicode="&#xa3;" horiz-adv-x="501" 
d="M315 311l-12 -43q-27 -97 -88 -146q68 -14 101 -14q62 0 113 30l9 -121q-54 -29 -138 -29q-40 0 -106 13.5t-95 13.5q-61 0 -113 -30l-10 121q76 25 115 63.5t60 113.5l8 28h-123l17 97h133l45 159q17 58 38.5 91t70 53.5t126.5 20.5q44 0 68 -4l-21 -116q-19 4 -43 4
q-40 0 -59 -17t-31 -58l-38 -133h135l-17 -97h-145z" />
    <glyph glyph-name="currency" unicode="&#xa4;" horiz-adv-x="572" 
d="M196 256q0 -37 25.5 -62.5t61.5 -25.5t61.5 25.5t25.5 62.5t-25.5 62.5t-61.5 25.5t-61.5 -25.5t-25.5 -62.5zM457 256q0 -37 -14 -70l75 -76l-88 -88l-79 80q-32 -12 -68 -12q-37 0 -68 12l-79 -80l-88 88l75 76q-14 33 -14 70t14 70l-75 76l88 88l79 -80q32 12 68 12
t68 -12l79 80l88 -88l-75 -76q14 -33 14 -70z" />
    <glyph glyph-name="yen" unicode="&#xa5;" horiz-adv-x="604" 
d="M71 267l17 97h123l-120 356h152l87 -285l183 285h164l-245 -356h122l-17 -97h-153l-10 -57h153l-17 -97h-153l-20 -113h-160l20 113h-153l17 97h153l10 57h-153z" />
    <glyph glyph-name="brokenbar" unicode="&#xa6;" horiz-adv-x="398" 
d="M132 330l69 390h159l-69 -390h-159zM42 -180l69 390h159l-69 -390h-159z" />
    <glyph glyph-name="section" unicode="&#xa7;" horiz-adv-x="584" 
d="M383 732q109 0 208 -53l-57 -117q-81 48 -157 48q-99 0 -146 -65q140 -14 223 -86.5t83 -206.5q0 -144 -93 -224t-237 -80q-115 0 -216 53l56 111q84 -47 167 -47q110 0 158 69q-140 15 -223 87t-83 208q0 143 89.5 223t227.5 80zM403 239q0 167 -203 197
q0 -92 54 -137.5t149 -59.5z" />
    <glyph glyph-name="dieresis" unicode="&#xa8;" horiz-adv-x="500" 
d="M284 629q0 -32 -21.5 -53t-54.5 -21t-54.5 21t-21.5 53t21.5 53t54.5 21t54.5 -21t21.5 -53zM498 629q0 -32 -21.5 -53t-54.5 -21t-54.5 21t-21.5 53t21.5 53t54.5 21t54.5 -21t21.5 -53z" />
    <glyph glyph-name="copyright" unicode="&#xa9;" horiz-adv-x="838" 
d="M544 277l21 -79q-51 -31 -120 -31q-84 0 -133 48.5t-49 138.5q0 93 52.5 144t139.5 51q62 0 108 -27l-22 -89q-43 30 -78 30q-39 0 -62.5 -26t-23.5 -81q0 -105 89 -105q37 0 78 26zM138 360q0 -129 85 -215t210 -86t210 86t85 215t-85 215t-210 86t-210 -86t-85 -215z
M805 360q0 -159 -107.5 -265.5t-264.5 -106.5t-264.5 106.5t-107.5 265.5t107.5 265.5t264.5 106.5t264.5 -106.5t107.5 -265.5z" />
    <glyph glyph-name="ordfeminine" unicode="&#xaa;" horiz-adv-x="369" 
d="M213 455q23 0 45 23l21 120q-21 18 -41 18q-29 0 -47.5 -29t-18.5 -71q0 -61 41 -61zM247 400v12q-32 -40 -82 -40q-45 0 -72.5 34.5t-27.5 99.5q0 82 43 140t108 58q45 0 78 -38l6 30h104l-43 -243q-8 -44 -8 -58q0 -11 2 -15h-104q-4 8 -4 20z" />
    <glyph glyph-name="guillemotleft" unicode="&#xab;" horiz-adv-x="560" 
d="M349 24l-104 231l171 231h154l-175 -240l93 -222h-139zM129 24l-104 231l171 231h154l-175 -240l93 -222h-139z" />
    <glyph glyph-name="logicalnot" unicode="&#xac;" horiz-adv-x="572" 
d="M497 69h-128l34 194h-360l22 124h488z" />
    <glyph glyph-name="uni00AD" unicode="&#xad;" horiz-adv-x="406" 
d="M48 258l19 107h311l-19 -107h-311z" />
    <glyph glyph-name="registered" unicode="&#xae;" horiz-adv-x="838" 
d="M805 360q0 -159 -107.5 -265.5t-264.5 -106.5t-264.5 106.5t-107.5 265.5t107.5 265.5t264.5 106.5t264.5 -106.5t107.5 -265.5zM138 360q0 -129 85 -215t210 -86t210 86t85 215t-85 215t-210 86t-210 -86t-85 -215zM491 175l-67 127h-33v-127h-110v366h163
q72 0 111.5 -30.5t39.5 -89.5q0 -72 -62 -101l78 -145h-120zM391 376h43q51 0 51 40q0 41 -51 41h-43v-81z" />
    <glyph glyph-name="macron" unicode="&#xaf;" horiz-adv-x="500" 
d="M128 560l18 103h351l-18 -103h-351z" />
    <glyph glyph-name="degree" unicode="&#xb0;" horiz-adv-x="430" 
d="M180 566q0 -38 24.5 -63t62.5 -25t62.5 25t24.5 63t-24.5 63t-62.5 25t-62.5 -25t-24.5 -63zM441 566q0 -71 -49 -118.5t-125 -47.5t-125 47.5t-49 118.5t49 118.5t125 47.5t125 -47.5t49 -118.5z" />
    <glyph glyph-name="plusminus" unicode="&#xb1;" horiz-adv-x="572" 
d="M325 113h-128l25 143h-180l20 111h180l25 143h128l-25 -143h180l-20 -111h-180zM499 76l-20 -111h-488l20 111h488z" />
    <glyph glyph-name="twosuperior" unicode="&#xb2;" horiz-adv-x="360" 
d="M294 695q0 45 -51 45q-61 0 -117 -56l-14 93q59 57 149 57q66 0 103.5 -35t37.5 -94q0 -62 -43.5 -116t-135.5 -122h147l-15 -87h-312l13 77q131 87 184.5 142.5t53.5 95.5z" />
    <glyph glyph-name="threesuperior" unicode="&#xb3;" horiz-adv-x="353" 
d="M257 834q66 0 106.5 -28.5t40.5 -82.5q0 -83 -101 -118q74 -26 74 -97q0 -63 -51 -99.5t-138 -36.5q-84 0 -154 35l40 83q64 -32 111 -32q38 0 58.5 15t20.5 40q0 50 -87 50q-11 0 -47 -2l13 79q153 0 153 62q0 42 -54 42q-47 0 -114 -35l-8 90q65 35 137 35z" />
    <glyph glyph-name="acute" unicode="&#xb4;" horiz-adv-x="500" 
d="M338 553h-132l108 167h190z" />
    <glyph glyph-name="mu" unicode="&#xb5;" horiz-adv-x="589" 
d="M573 510l-90 -510h-161l12 68q-75 -80 -167 -80q-10 0 -14 1q0 -67 -20 -199h-154l127 720h161l-59 -334q-1 -5 -1 -12q0 -46 41 -46q46 0 105 57l59 335h161z" />
    <glyph glyph-name="paragraph" unicode="&#xb6;" horiz-adv-x="549" 
d="M427 680h133l-90 -513q-22 -123 -90.5 -178t-222.5 -84l-12 114q92 21 136 50t56 98zM374 680l-79 -452q-110 0 -172.5 56t-62.5 149q0 105 80.5 176t233.5 71z" />
    <glyph glyph-name="periodcentered" unicode="&#xb7;" horiz-adv-x="301" 
d="M149 166q-42 0 -69 26.5t-27 65.5t27 65.5t69 26.5t69 -26.5t27 -65.5t-27 -65.5t-69 -26.5z" />
    <glyph glyph-name="cedilla" unicode="&#xb8;" horiz-adv-x="500" 
d="M321 -95q0 -54 -40.5 -83.5t-111.5 -29.5q-67 0 -129 33l31 75q45 -26 84 -26q25 0 38 10.5t13 25.5q0 35 -70 46l24 53q161 -4 161 -104z" />
    <glyph glyph-name="onesuperior" unicode="&#xb9;" horiz-adv-x="260" 
d="M116 679l-13 91l118 56h86l-79 -446h-108l58 327z" />
    <glyph glyph-name="ordmasculine" unicode="&#xba;" horiz-adv-x="356" 
d="M208 372q-63 0 -102 37.5t-39 107.5q0 81 50.5 134t127.5 53q63 0 102 -37.5t39 -107.5q0 -81 -50.5 -134t-127.5 -53zM214 446q28 0 46.5 33t18.5 79q0 68 -40 68q-28 0 -46.5 -33t-18.5 -79q0 -68 40 -68z" />
    <glyph glyph-name="guillemotright" unicode="&#xbb;" horiz-adv-x="560" 
d="M430 486l104 -231l-171 -231h-154l175 240l-93 222h139zM210 486l104 -231l-171 -231h-154l175 240l-93 222h139z" />
    <glyph glyph-name="onequarter" unicode="&#xbc;" horiz-adv-x="781" 
d="M383 84l14 82l230 280h133l-49 -276h64l-15 -86h-64l-15 -84h-105l15 84h-208zM505 170h101l28 156zM41 0l573 720h137l-573 -720h-137zM116 573l-13 91l118 56h86l-79 -446h-108l58 327z" />
    <glyph glyph-name="onehalf" unicode="&#xbd;" horiz-adv-x="838" 
d="M50 0l573 720h137l-573 -720h-137zM731 315q0 45 -51 45q-61 0 -117 -56l-14 93q59 57 149 57q66 0 103.5 -35t37.5 -94q0 -62 -43.5 -116t-135.5 -122h147l-15 -87h-312l13 77q131 87 184.5 142.5t53.5 95.5zM116 573l-13 91l118 56h86l-79 -446h-108l58 327z" />
    <glyph glyph-name="threequarters" unicode="&#xbe;" horiz-adv-x="854" 
d="M438 84l14 82l230 280h133l-49 -276h64l-15 -86h-64l-15 -84h-105l15 84h-208zM560 170h101l28 156zM114 0l573 720h137l-573 -720h-137zM246 728q66 0 106.5 -28.5t40.5 -82.5q0 -83 -101 -118q74 -26 74 -97q0 -63 -51 -99.5t-138 -36.5q-84 0 -154 35l40 83
q64 -32 111 -32q38 0 58.5 15t20.5 40q0 50 -87 50q-11 0 -47 -2l13 79q153 0 153 62q0 42 -54 42q-47 0 -114 -35l-8 90q65 35 137 35z" />
    <glyph glyph-name="questiondown" unicode="&#xbf;" horiz-adv-x="434" 
d="M219 286h124q5 -20 5 -37q0 -37 -21 -70t-50.5 -56.5t-59.5 -46t-51 -48.5t-21 -54q0 -35 29 -53t77 -18q34 0 85 9l-22 -122q-60 -12 -107 -12q-103 0 -163 45t-60 128q0 43 17.5 79.5t43.5 59.5t56.5 46.5t56.5 42t43.5 43.5t17.5 53v11zM217 436q0 37 25.5 61.5
t66.5 24.5t66.5 -24.5t25.5 -61.5t-25.5 -61.5t-66.5 -24.5t-66.5 24.5t-25.5 61.5z" />
    <glyph glyph-name="Agrave" unicode="&#xc0;" horiz-adv-x="695" 
d="M529 720l104 -720h-163l-17 146h-243l-67 -146h-171l364 720h193zM403 564l-137 -297h172zM534 762h-124l-120 147h168z" />
    <glyph glyph-name="Aacute" unicode="&#xc1;" horiz-adv-x="695" 
d="M529 720l104 -720h-163l-17 146h-243l-67 -146h-171l364 720h193zM403 564l-137 -297h172zM472 762h-133l105 147h190z" />
    <glyph glyph-name="Acircumflex" unicode="&#xc2;" horiz-adv-x="695" 
d="M529 720l104 -720h-163l-17 146h-243l-67 -146h-171l364 720h193zM403 564l-137 -297h172zM368 762h-123l156 147h126l102 -147h-109l-68 49z" />
    <glyph glyph-name="Atilde" unicode="&#xc3;" horiz-adv-x="695" 
d="M529 720l104 -720h-163l-17 146h-243l-67 -146h-171l364 720h193zM403 564l-137 -297h172zM336 762h-92q27 145 130 145q36 0 86.5 -21.5t65.5 -21.5q29 0 36 37h92q-27 -145 -130 -145q-36 0 -86.5 21.5t-65.5 21.5q-29 0 -36 -37z" />
    <glyph glyph-name="Adieresis" unicode="&#xc4;" horiz-adv-x="695" 
d="M529 720l104 -720h-163l-17 146h-243l-67 -146h-171l364 720h193zM403 564l-137 -297h172zM419 837q0 -32 -21.5 -53t-54.5 -21t-54.5 21t-21.5 53t21.5 53t54.5 21t54.5 -21t21.5 -53zM633 837q0 -32 -21.5 -53t-54.5 -21t-54.5 21t-21.5 53t21.5 53t54.5 21t54.5 -21
t21.5 -53z" />
    <glyph glyph-name="Aring" unicode="&#xc5;" horiz-adv-x="695" 
d="M549 744q0 -30 -16 -54l100 -690h-163l-17 146h-243l-67 -146h-171l355 702q-9 20 -9 42q0 44 32.5 73.5t82.5 29.5q51 0 83.5 -29.5t32.5 -73.5zM403 564l-137 -297h172zM389 744q0 -17 12 -29t32 -12t32.5 12t12.5 29t-12.5 29t-32.5 12t-32 -12t-12 -29z" />
    <glyph glyph-name="AE" unicode="&#xc6;" horiz-adv-x="946" 
d="M-30 0l485 720h533l-24 -136h-278l-28 -156h237l-22 -128h-237l-30 -169h281l-23 -131h-444l26 146h-203l-91 -146h-182zM318 267h149l59 334z" />
    <glyph glyph-name="Ccedilla" unicode="&#xc7;" horiz-adv-x="602" 
d="M521 175l16 -132q-84 -47 -176 -54q54 -25 54 -84q0 -54 -40.5 -83.5t-111.5 -29.5q-67 0 -129 33l31 75q45 -26 84 -26q25 0 38 10.5t13 25.5q0 35 -70 46l19 42q-94 24 -148 102t-54 202q0 115 44.5 211.5t136 157.5t212.5 61q116 0 205 -55l-61 -130q-80 49 -149 49
q-72 0 -124.5 -43t-76.5 -107t-24 -140q0 -95 39.5 -141t107.5 -46q77 0 164 56z" />
    <glyph glyph-name="Egrave" unicode="&#xc8;" horiz-adv-x="590" 
d="M32 0l127 720h473l-24 -136h-310l-28 -156h269l-22 -128h-269l-30 -169h313l-23 -131h-476zM502 762h-124l-120 147h168z" />
    <glyph glyph-name="Eacute" unicode="&#xc9;" horiz-adv-x="590" 
d="M32 0l127 720h473l-24 -136h-310l-28 -156h269l-22 -128h-269l-30 -169h313l-23 -131h-476zM440 762h-133l105 147h190z" />
    <glyph glyph-name="Ecircumflex" unicode="&#xca;" horiz-adv-x="590" 
d="M32 0l127 720h473l-24 -136h-310l-28 -156h269l-22 -128h-269l-30 -169h313l-23 -131h-476zM336 762h-123l156 147h126l102 -147h-109l-68 49z" />
    <glyph glyph-name="Edieresis" unicode="&#xcb;" horiz-adv-x="590" 
d="M32 0l127 720h473l-24 -136h-310l-28 -156h269l-22 -128h-269l-30 -169h313l-23 -131h-476zM386 837q0 -32 -21.5 -53t-54.5 -21t-54.5 21t-21.5 53t21.5 53t54.5 21t54.5 -21t21.5 -53zM600 837q0 -32 -21.5 -53t-54.5 -21t-54.5 21t-21.5 53t21.5 53t54.5 21t54.5 -21
t21.5 -53z" />
    <glyph glyph-name="Igrave" unicode="&#xcc;" horiz-adv-x="329" 
d="M38 0l127 720h163l-127 -720h-163zM351 762h-124l-120 147h168z" />
    <glyph glyph-name="Iacute" unicode="&#xcd;" horiz-adv-x="329" 
d="M38 0l127 720h163l-127 -720h-163zM289 762h-133l105 147h190z" />
    <glyph glyph-name="Icircumflex" unicode="&#xce;" horiz-adv-x="329" 
d="M38 0l127 720h163l-127 -720h-163zM185 762h-123l156 147h126l102 -147h-109l-68 49z" />
    <glyph glyph-name="Idieresis" unicode="&#xcf;" horiz-adv-x="329" 
d="M38 0l127 720h163l-127 -720h-163zM235 837q0 -32 -21.5 -53t-54.5 -21t-54.5 21t-21.5 53t21.5 53t54.5 21t54.5 -21t21.5 -53zM449 837q0 -32 -21.5 -53t-54.5 -21t-54.5 21t-21.5 53t21.5 53t54.5 21t54.5 -21t21.5 -53z" />
    <glyph glyph-name="Eth" unicode="&#xd0;" horiz-adv-x="719" 
d="M22 313l18 103h65l54 304h228q145 0 231 -83.5t86 -232.5q0 -80 -26 -152t-75 -128.5t-125.5 -90t-170.5 -33.5h-275l55 313h-65zM218 131h89q112 0 173 78.5t61 190.5q0 92 -42.5 138t-111.5 46h-89l-30 -168h136l-18 -103h-136z" />
    <glyph glyph-name="Ntilde" unicode="&#xd1;" horiz-adv-x="731" 
d="M32 0l127 720h171l178 -434l77 434h150l-127 -720h-136l-203 495l-87 -495h-150zM354 762h-92q27 145 130 145q36 0 86.5 -21.5t65.5 -21.5q29 0 36 37h92q-27 -145 -130 -145q-36 0 -86.5 21.5t-65.5 21.5q-29 0 -36 -37z" />
    <glyph glyph-name="Ograve" unicode="&#xd2;" horiz-adv-x="723" 
d="M353 120q87 0 141 80.5t54 198.5q0 96 -38 146.5t-104 50.5q-87 0 -141 -80.5t-54 -198.5q0 -96 38 -146.5t104 -50.5zM346 -12q-133 0 -215.5 87t-82.5 242q0 175 102.5 295t262.5 120q133 0 215.5 -87t82.5 -242q0 -175 -102.5 -295t-262.5 -120zM538 762h-124
l-120 147h168z" />
    <glyph glyph-name="Oacute" unicode="&#xd3;" horiz-adv-x="723" 
d="M353 120q87 0 141 80.5t54 198.5q0 96 -38 146.5t-104 50.5q-87 0 -141 -80.5t-54 -198.5q0 -96 38 -146.5t104 -50.5zM346 -12q-133 0 -215.5 87t-82.5 242q0 175 102.5 295t262.5 120q133 0 215.5 -87t82.5 -242q0 -175 -102.5 -295t-262.5 -120zM476 762h-133l105 147
h190z" />
    <glyph glyph-name="Ocircumflex" unicode="&#xd4;" horiz-adv-x="723" 
d="M353 120q87 0 141 80.5t54 198.5q0 96 -38 146.5t-104 50.5q-87 0 -141 -80.5t-54 -198.5q0 -96 38 -146.5t104 -50.5zM346 -12q-133 0 -215.5 87t-82.5 242q0 175 102.5 295t262.5 120q133 0 215.5 -87t82.5 -242q0 -175 -102.5 -295t-262.5 -120zM372 762h-123l156 147
h126l102 -147h-109l-68 49z" />
    <glyph glyph-name="Otilde" unicode="&#xd5;" horiz-adv-x="723" 
d="M353 120q87 0 141 80.5t54 198.5q0 96 -38 146.5t-104 50.5q-87 0 -141 -80.5t-54 -198.5q0 -96 38 -146.5t104 -50.5zM346 -12q-133 0 -215.5 87t-82.5 242q0 175 102.5 295t262.5 120q133 0 215.5 -87t82.5 -242q0 -175 -102.5 -295t-262.5 -120zM338 762h-92
q27 145 130 145q36 0 86.5 -21.5t65.5 -21.5q29 0 36 37h92q-27 -145 -130 -145q-36 0 -86.5 21.5t-65.5 21.5q-29 0 -36 -37z" />
    <glyph glyph-name="Odieresis" unicode="&#xd6;" horiz-adv-x="723" 
d="M353 120q87 0 141 80.5t54 198.5q0 96 -38 146.5t-104 50.5q-87 0 -141 -80.5t-54 -198.5q0 -96 38 -146.5t104 -50.5zM346 -12q-133 0 -215.5 87t-82.5 242q0 175 102.5 295t262.5 120q133 0 215.5 -87t82.5 -242q0 -175 -102.5 -295t-262.5 -120zM423 837
q0 -32 -21.5 -53t-54.5 -21t-54.5 21t-21.5 53t21.5 53t54.5 21t54.5 -21t21.5 -53zM637 837q0 -32 -21.5 -53t-54.5 -21t-54.5 21t-21.5 53t21.5 53t54.5 21t54.5 -21t21.5 -53z" />
    <glyph glyph-name="multiply" unicode="&#xd7;" horiz-adv-x="572" 
d="M77 414l98 76l119 -147l173 147l79 -95l-174 -148l123 -151l-98 -76l-119 147l-173 -147l-79 95l174 148z" />
    <glyph glyph-name="Oslash" unicode="&#xd8;" horiz-adv-x="723" 
d="M353 116q88 0 143.5 81.5t55.5 202.5q0 29 -4 52l-305 -280q38 -56 110 -56zM207 317q0 -26 3 -50l304 279q-38 54 -108 54q-88 0 -143.5 -81.5t-55.5 -201.5zM41 -12l-62 68l102 93q-33 74 -33 168q0 175 102.5 295t262.5 120q133 0 213 -85l92 85l62 -68l-103 -94
q34 -71 34 -167q0 -175 -102.5 -295t-262.5 -120q-132 0 -213 84z" />
    <glyph glyph-name="Ugrave" unicode="&#xd9;" horiz-adv-x="689" 
d="M69 289l76 431h164l-80 -454q-4 -24 -4 -46q0 -52 25 -74t73 -22q58 0 94.5 32.5t50.5 109.5l80 454h158l-85 -481q-23 -128 -99 -189.5t-212 -61.5q-121 0 -185 50.5t-64 163.5q0 44 8 87zM531 762h-124l-120 147h168z" />
    <glyph glyph-name="Uacute" unicode="&#xda;" horiz-adv-x="689" 
d="M69 289l76 431h164l-80 -454q-4 -24 -4 -46q0 -52 25 -74t73 -22q58 0 94.5 32.5t50.5 109.5l80 454h158l-85 -481q-23 -128 -99 -189.5t-212 -61.5q-121 0 -185 50.5t-64 163.5q0 44 8 87zM469 762h-133l105 147h190z" />
    <glyph glyph-name="Ucircumflex" unicode="&#xdb;" horiz-adv-x="689" 
d="M69 289l76 431h164l-80 -454q-4 -24 -4 -46q0 -52 25 -74t73 -22q58 0 94.5 32.5t50.5 109.5l80 454h158l-85 -481q-23 -128 -99 -189.5t-212 -61.5q-121 0 -185 50.5t-64 163.5q0 44 8 87zM365 762h-123l156 147h126l102 -147h-109l-68 49z" />
    <glyph glyph-name="Udieresis" unicode="&#xdc;" horiz-adv-x="689" 
d="M69 289l76 431h164l-80 -454q-4 -24 -4 -46q0 -52 25 -74t73 -22q58 0 94.5 32.5t50.5 109.5l80 454h158l-85 -481q-23 -128 -99 -189.5t-212 -61.5q-121 0 -185 50.5t-64 163.5q0 44 8 87zM416 837q0 -32 -21.5 -53t-54.5 -21t-54.5 21t-21.5 53t21.5 53t54.5 21
t54.5 -21t21.5 -53zM630 837q0 -32 -21.5 -53t-54.5 -21t-54.5 21t-21.5 53t21.5 53t54.5 21t54.5 -21t21.5 -53z" />
    <glyph glyph-name="Yacute" unicode="&#xdd;" horiz-adv-x="649" 
d="M198 0l51 290l-158 430h159l99 -281l198 281h175l-310 -430l-51 -290h-163zM452 762h-133l105 147h190z" />
    <glyph glyph-name="Thorn" unicode="&#xde;" horiz-adv-x="644" 
d="M32 0l127 720h161l-18 -100h86q121 0 189 -54.5t68 -162.5q0 -116 -79.5 -181.5t-225.5 -65.5h-119l-28 -156h-161zM279 487l-35 -203h96q71 0 107.5 29t36.5 83q0 91 -109 91h-96z" />
    <glyph glyph-name="germandbls" unicode="&#xdf;" horiz-adv-x="632" 
d="M306 323l21 116q48 0 82 25.5t34 74.5q0 39 -21 56.5t-53 17.5q-83 0 -105 -120l-87 -493h-161l91 516q19 105 87 160.5t178 55.5q100 0 162 -45.5t62 -133.5q0 -126 -129 -171q126 -43 126 -177q0 -98 -66 -157.5t-173 -59.5q-70 0 -125 22l38 108q42 -15 71 -15
q42 0 68 28.5t26 79.5q0 112 -126 112z" />
    <glyph glyph-name="agrave" unicode="&#xe0;" horiz-adv-x="579" 
d="M484 0h-155q-8 16 -8 31q0 13 2 22q-57 -65 -137 -65q-73 0 -117 53.5t-44 156.5q0 135 71.5 229.5t177.5 94.5q74 0 126 -66l10 54h154l-70 -396q-12 -65 -12 -94q0 -16 2 -20zM255 111q44 0 85 42l37 205q-35 32 -71 32q-54 0 -87 -49.5t-33 -125.5q0 -104 69 -104z
M444 553h-122l-117 167h168z" />
    <glyph glyph-name="aacute" unicode="&#xe1;" horiz-adv-x="579" 
d="M484 0h-155q-8 16 -8 31q0 13 2 22q-57 -65 -137 -65q-73 0 -117 53.5t-44 156.5q0 135 71.5 229.5t177.5 94.5q74 0 126 -66l10 54h154l-70 -396q-12 -65 -12 -94q0 -16 2 -20zM255 111q44 0 85 42l37 205q-35 32 -71 32q-54 0 -87 -49.5t-33 -125.5q0 -104 69 -104z
M377 553h-132l108 167h190z" />
    <glyph glyph-name="acircumflex" unicode="&#xe2;" horiz-adv-x="579" 
d="M484 0h-155q-8 16 -8 31q0 13 2 22q-57 -65 -137 -65q-73 0 -117 53.5t-44 156.5q0 135 71.5 229.5t177.5 94.5q74 0 126 -66l10 54h154l-70 -396q-12 -65 -12 -94q0 -16 2 -20zM255 111q44 0 85 42l37 205q-35 32 -71 32q-54 0 -87 -49.5t-33 -125.5q0 -104 69 -104z
M278 553h-122l159 167h124l100 -167h-108l-65 70z" />
    <glyph glyph-name="atilde" unicode="&#xe3;" horiz-adv-x="579" 
d="M484 0h-155q-8 16 -8 31q0 13 2 22q-57 -65 -137 -65q-73 0 -117 53.5t-44 156.5q0 135 71.5 229.5t177.5 94.5q74 0 126 -66l10 54h154l-70 -396q-12 -65 -12 -94q0 -16 2 -20zM255 111q44 0 85 42l37 205q-35 32 -71 32q-54 0 -87 -49.5t-33 -125.5q0 -104 69 -104z
M246 559h-90q25 150 127 150q39 0 89 -26.5t65 -26.5q31 0 39 47h90q-25 -150 -127 -150q-39 0 -89 26.5t-65 26.5q-31 0 -39 -47z" />
    <glyph glyph-name="adieresis" unicode="&#xe4;" horiz-adv-x="579" 
d="M484 0h-155q-8 16 -8 31q0 13 2 22q-57 -65 -137 -65q-73 0 -117 53.5t-44 156.5q0 135 71.5 229.5t177.5 94.5q74 0 126 -66l10 54h154l-70 -396q-12 -65 -12 -94q0 -16 2 -20zM255 111q44 0 85 42l37 205q-35 32 -71 32q-54 0 -87 -49.5t-33 -125.5q0 -104 69 -104z
M330 629q0 -32 -21.5 -53t-54.5 -21t-54.5 21t-21.5 53t21.5 53t54.5 21t54.5 -21t21.5 -53zM544 629q0 -32 -21.5 -53t-54.5 -21t-54.5 21t-21.5 53t21.5 53t54.5 21t54.5 -21t21.5 -53z" />
    <glyph glyph-name="aring" unicode="&#xe5;" horiz-adv-x="579" 
d="M484 0h-155q-8 16 -8 31q0 13 2 22q-57 -65 -137 -65q-73 0 -117 53.5t-44 156.5q0 135 71.5 229.5t177.5 94.5q74 0 126 -66l10 54h154l-70 -396q-12 -65 -12 -94q0 -16 2 -20zM255 111q44 0 85 42l37 205q-35 32 -71 32q-54 0 -87 -49.5t-33 -125.5q0 -104 69 -104z
M323 655q0 -17 11.5 -29t30.5 -12t30.5 12t11.5 29t-11.5 29t-30.5 12t-30.5 -12t-11.5 -29zM471 655q0 -44 -30 -73.5t-76 -29.5t-76 29.5t-30 73.5t30 73.5t76 29.5t76 -29.5t30 -73.5z" />
    <glyph glyph-name="ae" unicode="&#xe6;" horiz-adv-x="838" 
d="M624 522q93 0 144 -43.5t51 -110.5q0 -77 -70.5 -123.5t-214.5 -46.5q-34 0 -49 1q8 -97 107 -97q74 0 153 38l10 -114q-88 -38 -191 -38q-136 0 -196 75q-85 -75 -195 -75q-75 0 -120 38.5t-45 109.5q0 84 66 133.5t187 49.5q32 0 74 -5l1 7q4 22 4 32q0 46 -69 46
q-64 0 -165 -40l-9 120q104 43 215 43q103 0 148 -45q72 45 164 45zM224 103q50 0 106 43q-7 28 -7 66v13q-28 4 -51 4q-50 0 -78.5 -20.5t-28.5 -53.5q0 -25 16 -38.5t43 -13.5zM613 412q-41 0 -74.5 -33t-46.5 -88h33q146 0 146 68q0 23 -15 38t-43 15z" />
    <glyph glyph-name="ccedilla" unicode="&#xe7;" horiz-adv-x="449" 
d="M465 486l-51 -117q-47 30 -88 30q-65 0 -103 -51.5t-38 -127.5q0 -114 88 -114q54 0 105 33l9 -117q-44 -24 -109 -32q56 -25 56 -85q0 -54 -40.5 -83.5t-111.5 -29.5q-67 0 -129 33l31 75q45 -26 84 -26q25 0 38 10.5t13 25.5q0 35 -70 46l19 42q-67 19 -105 74.5
t-38 143.5q0 130 80 218t215 88q79 0 145 -36z" />
    <glyph glyph-name="egrave" unicode="&#xe8;" horiz-adv-x="540" 
d="M326 522q93 0 144 -43.5t51 -110.5q0 -77 -70.5 -123.5t-214.5 -46.5q-34 0 -49 1q8 -97 107 -97q74 0 153 38l10 -114q-88 -38 -191 -38q-116 0 -178.5 57t-62.5 167q0 133 83.5 221.5t217.5 88.5zM315 412q-41 0 -74.5 -33t-46.5 -88h33q146 0 146 68q0 23 -15 38
t-43 15zM433 553h-122l-117 167h168z" />
    <glyph glyph-name="eacute" unicode="&#xe9;" horiz-adv-x="540" 
d="M326 522q93 0 144 -43.5t51 -110.5q0 -77 -70.5 -123.5t-214.5 -46.5q-34 0 -49 1q8 -97 107 -97q74 0 153 38l10 -114q-88 -38 -191 -38q-116 0 -178.5 57t-62.5 167q0 133 83.5 221.5t217.5 88.5zM315 412q-41 0 -74.5 -33t-46.5 -88h33q146 0 146 68q0 23 -15 38
t-43 15zM357 553h-132l108 167h190z" />
    <glyph glyph-name="ecircumflex" unicode="&#xea;" horiz-adv-x="540" 
d="M326 522q93 0 144 -43.5t51 -110.5q0 -77 -70.5 -123.5t-214.5 -46.5q-34 0 -49 1q8 -97 107 -97q74 0 153 38l10 -114q-88 -38 -191 -38q-116 0 -178.5 57t-62.5 167q0 133 83.5 221.5t217.5 88.5zM315 412q-41 0 -74.5 -33t-46.5 -88h33q146 0 146 68q0 23 -15 38
t-43 15zM259 553h-122l159 167h124l100 -167h-108l-65 70z" />
    <glyph glyph-name="edieresis" unicode="&#xeb;" horiz-adv-x="540" 
d="M326 522q93 0 144 -43.5t51 -110.5q0 -77 -70.5 -123.5t-214.5 -46.5q-34 0 -49 1q8 -97 107 -97q74 0 153 38l10 -114q-88 -38 -191 -38q-116 0 -178.5 57t-62.5 167q0 133 83.5 221.5t217.5 88.5zM315 412q-41 0 -74.5 -33t-46.5 -88h33q146 0 146 68q0 23 -15 38
t-43 15zM311 629q0 -32 -21.5 -53t-54.5 -21t-54.5 21t-21.5 53t21.5 53t54.5 21t54.5 -21t21.5 -53zM525 629q0 -32 -21.5 -53t-54.5 -21t-54.5 21t-21.5 53t21.5 53t54.5 21t54.5 -21t21.5 -53z" />
    <glyph glyph-name="igrave" unicode="&#xec;" horiz-adv-x="296" 
d="M22 0l90 510h161l-90 -510h-161zM296 553h-122l-117 167h168z" />
    <glyph glyph-name="iacute" unicode="&#xed;" horiz-adv-x="296" 
d="M22 0l90 510h161l-90 -510h-161zM235 553h-132l108 167h190z" />
    <glyph glyph-name="icircumflex" unicode="&#xee;" horiz-adv-x="296" 
d="M130 553h-122l159 167h124l100 -167h-108l-65 70zM22 0l90 510h161l-90 -510h-161z" />
    <glyph glyph-name="idieresis" unicode="&#xef;" horiz-adv-x="296" 
d="M182 629q0 -32 -21.5 -53t-54.5 -21t-54.5 21t-21.5 53t21.5 53t54.5 21t54.5 -21t21.5 -53zM396 629q0 -32 -21.5 -53t-54.5 -21t-54.5 21t-21.5 53t21.5 53t54.5 21t54.5 -21t21.5 -53zM22 0l90 510h161l-90 -510h-161z" />
    <glyph glyph-name="eth" unicode="&#xf0;" horiz-adv-x="561" 
d="M274 529l-28 80l59 20q-12 21 -33 52l104 67q29 -32 57 -74l71 25l29 -80l-59 -21q58 -131 58 -269q0 -161 -80 -251t-205 -90q-98 0 -161 56.5t-63 167.5q0 119 70 198.5t174 79.5q63 0 106 -41q-11 60 -30 104zM371 265q0 106 -75 106q-50 0 -81 -46t-31 -117
q0 -105 75 -105q50 0 81 46t31 116z" />
    <glyph glyph-name="ntilde" unicode="&#xf1;" horiz-adv-x="578" 
d="M16 0l90 510h161l-12 -68q75 80 168 80q53 0 89 -29t36 -97q0 -27 -4 -50l-61 -346h-161l58 329q1 7 1 13q0 45 -41 45q-46 0 -105 -57l-58 -330h-161zM245 559h-90q25 150 127 150q39 0 89 -26.5t65 -26.5q31 0 39 47h90q-25 -150 -127 -150q-39 0 -89 26.5t-65 26.5
q-31 0 -39 -47z" />
    <glyph glyph-name="ograve" unicode="&#xf2;" horiz-adv-x="561" 
d="M260 101q51 0 83 54t32 133q0 117 -74 117q-51 0 -83 -54t-32 -133q0 -117 74 -117zM251 -12q-100 0 -163 59.5t-63 172.5q0 129 80.5 215.5t204.5 86.5q100 0 163 -59.5t63 -172.5q0 -129 -80.5 -215.5t-204.5 -86.5zM419 553h-122l-117 167h168z" />
    <glyph glyph-name="oacute" unicode="&#xf3;" horiz-adv-x="561" 
d="M260 101q51 0 83 54t32 133q0 117 -74 117q-51 0 -83 -54t-32 -133q0 -117 74 -117zM251 -12q-100 0 -163 59.5t-63 172.5q0 129 80.5 215.5t204.5 86.5q100 0 163 -59.5t63 -172.5q0 -129 -80.5 -215.5t-204.5 -86.5zM358 553h-132l108 167h190z" />
    <glyph glyph-name="ocircumflex" unicode="&#xf4;" horiz-adv-x="561" 
d="M260 101q51 0 83 54t32 133q0 117 -74 117q-51 0 -83 -54t-32 -133q0 -117 74 -117zM251 -12q-100 0 -163 59.5t-63 172.5q0 129 80.5 215.5t204.5 86.5q100 0 163 -59.5t63 -172.5q0 -129 -80.5 -215.5t-204.5 -86.5zM253 553h-122l159 167h124l100 -167h-108l-65 70z
" />
    <glyph glyph-name="otilde" unicode="&#xf5;" horiz-adv-x="561" 
d="M260 101q51 0 83 54t32 133q0 117 -74 117q-51 0 -83 -54t-32 -133q0 -117 74 -117zM251 -12q-100 0 -163 59.5t-63 172.5q0 129 80.5 215.5t204.5 86.5q100 0 163 -59.5t63 -172.5q0 -129 -80.5 -215.5t-204.5 -86.5zM221 559h-90q25 150 127 150q39 0 89 -26.5
t65 -26.5q31 0 39 47h90q-25 -150 -127 -150q-39 0 -89 26.5t-65 26.5q-31 0 -39 -47z" />
    <glyph glyph-name="odieresis" unicode="&#xf6;" horiz-adv-x="561" 
d="M260 101q51 0 83 54t32 133q0 117 -74 117q-51 0 -83 -54t-32 -133q0 -117 74 -117zM251 -12q-100 0 -163 59.5t-63 172.5q0 129 80.5 215.5t204.5 86.5q100 0 163 -59.5t63 -172.5q0 -129 -80.5 -215.5t-204.5 -86.5zM305 629q0 -32 -21.5 -53t-54.5 -21t-54.5 21
t-21.5 53t21.5 53t54.5 21t54.5 -21t21.5 -53zM519 629q0 -32 -21.5 -53t-54.5 -21t-54.5 21t-21.5 53t21.5 53t54.5 21t54.5 -21t21.5 -53z" />
    <glyph glyph-name="divide" unicode="&#xf7;" horiz-adv-x="572" 
d="M541 317l-22 -124h-488l22 124h488zM337 70q0 -36 -22.5 -57t-61.5 -21t-61.5 21.5t-22.5 56.5t22.5 56t61.5 21t61.5 -21t22.5 -56zM235 440q0 36 22.5 57t61.5 21t61.5 -21.5t22.5 -56.5t-22.5 -56t-61.5 -21t-61.5 21t-22.5 56z" />
    <glyph glyph-name="oslash" unicode="&#xf8;" horiz-adv-x="561" 
d="M259 92q56 0 90.5 56t34.5 140v11l-187 -174q22 -33 62 -33zM177 218v-8l185 173q-21 31 -61 31q-55 0 -89.5 -56.5t-34.5 -139.5zM251 -12q-91 0 -150 47l-70 -66l-53 55l75 70q-28 53 -28 126q0 129 80.5 215.5t204.5 86.5q90 0 149 -47l71 66l53 -55l-75 -71
q28 -51 28 -125q0 -129 -80.5 -215.5t-204.5 -86.5z" />
    <glyph glyph-name="ugrave" unicode="&#xf9;" horiz-adv-x="578" 
d="M561 510l-90 -510h-161l12 68q-75 -80 -168 -80q-53 0 -89 29t-36 97q0 27 4 50l61 346h161l-59 -334q-1 -7 -1 -13q0 -45 41 -45q46 0 105 57l59 335h161zM431 553h-122l-117 167h168z" />
    <glyph glyph-name="uacute" unicode="&#xfa;" horiz-adv-x="578" 
d="M561 510l-90 -510h-161l12 68q-75 -80 -168 -80q-53 0 -89 29t-36 97q0 27 4 50l61 346h161l-59 -334q-1 -7 -1 -13q0 -45 41 -45q46 0 105 57l59 335h161zM370 553h-132l108 167h190z" />
    <glyph glyph-name="ucircumflex" unicode="&#xfb;" horiz-adv-x="578" 
d="M561 510l-90 -510h-161l12 68q-75 -80 -168 -80q-53 0 -89 29t-36 97q0 27 4 50l61 346h161l-59 -334q-1 -7 -1 -13q0 -45 41 -45q46 0 105 57l59 335h161zM265 553h-122l159 167h124l100 -167h-108l-65 70z" />
    <glyph glyph-name="udieresis" unicode="&#xfc;" horiz-adv-x="578" 
d="M561 510l-90 -510h-161l12 68q-75 -80 -168 -80q-53 0 -89 29t-36 97q0 27 4 50l61 346h161l-59 -334q-1 -7 -1 -13q0 -45 41 -45q46 0 105 57l59 335h161zM317 629q0 -32 -21.5 -53t-54.5 -21t-54.5 21t-21.5 53t21.5 53t54.5 21t54.5 -21t21.5 -53zM531 629
q0 -32 -21.5 -53t-54.5 -21t-54.5 21t-21.5 53t21.5 53t54.5 21t54.5 -21t21.5 -53z" />
    <glyph glyph-name="yacute" unicode="&#xfd;" horiz-adv-x="509" 
d="M-52 -211l22 125q27 -5 53 -5q43 0 70.5 20.5t58.5 82.5h-42l-66 498h159l32 -374l158 374h162l-252 -521q-60 -123 -113 -164t-156 -41q-43 0 -86 5zM345 553h-132l108 167h190z" />
    <glyph glyph-name="thorn" unicode="&#xfe;" horiz-adv-x="587" 
d="M143 720h161l-47 -263q59 65 137 65q75 0 121 -56.5t46 -160.5q0 -133 -71.5 -225t-178.5 -92q-72 0 -126 59l-45 -257h-161zM327 390q-45 0 -89 -43l-36 -204q36 -32 76 -32q56 0 89 49.5t33 122.5q0 107 -73 107z" />
    <glyph glyph-name="ydieresis" unicode="&#xff;" horiz-adv-x="509" 
d="M-52 -211l22 125q27 -5 53 -5q43 0 70.5 20.5t58.5 82.5h-42l-66 498h159l32 -374l158 374h162l-252 -521q-60 -123 -113 -164t-156 -41q-43 0 -86 5zM288 629q0 -32 -21.5 -53t-54.5 -21t-54.5 21t-21.5 53t21.5 53t54.5 21t54.5 -21t21.5 -53zM502 629q0 -32 -21.5 -53
t-54.5 -21t-54.5 21t-21.5 53t21.5 53t54.5 21t54.5 -21t21.5 -53z" />
    <glyph glyph-name="dotlessi" unicode="&#x131;" horiz-adv-x="296" 
d="M22 0l90 510h161l-90 -510h-161z" />
    <glyph glyph-name="IJ" unicode="&#x132;" horiz-adv-x="740" 
d="M38 0l127 720h163l-127 -720h-163zM302 1l23 132q42 -8 76 -8q52 0 75 24t33 83l86 488h163l-91 -516q-13 -74 -37 -116.5t-79 -68t-148 -25.5q-55 0 -101 7z" />
    <glyph glyph-name="ij" unicode="&#x133;" horiz-adv-x="591" 
d="M22 0l90 510h161l-90 -510h-161zM306 652q0 -37 -24.5 -60.5t-65.5 -23.5t-66 23.5t-25 60.5t25 60.5t66 23.5t65.5 -23.5t24.5 -60.5zM568 510l-102 -579q-12 -71 -55.5 -109t-134.5 -38q-40 0 -79 6l20 114q19 -4 34 -4q30 0 41.5 14t17.5 46l97 550h161zM601 652
q0 -37 -24.5 -60.5t-65.5 -23.5t-66 23.5t-25 60.5t25 60.5t66 23.5t65.5 -23.5t24.5 -60.5z" />
    <glyph glyph-name="Lslash" unicode="&#x141;" horiz-adv-x="540" 
d="M15 273l19 110l68 16l57 321h163l-50 -279l188 46l-19 -110l-188 -46l-34 -195h281l-24 -136h-444l51 289z" />
    <glyph glyph-name="lslash" unicode="&#x142;" horiz-adv-x="340" 
d="M26 297l19 107l74 18l53 298h161l-45 -257l74 18l-19 -107l-74 -18l-63 -356h-161l55 315z" />
    <glyph glyph-name="OE" unicode="&#x152;" horiz-adv-x="935" 
d="M853 0h-415q-57 -12 -104 -12q-131 0 -209 81.5t-78 232.5q0 116 45 212t137 157t216 61q55 0 106 -12h426l-24 -136h-278l-28 -156h237l-22 -128h-237l-30 -169h281zM360 119q32 0 72 10l80 456q-38 11 -73 11q-74 0 -127.5 -42.5t-77.5 -106.5t-24 -139
q0 -96 40 -142.5t110 -46.5z" />
    <glyph glyph-name="oe" unicode="&#x153;" horiz-adv-x="887" 
d="M260 101q51 0 83 54t32 133q0 117 -74 117q-51 0 -83 -54t-32 -133q0 -117 74 -117zM662 412q-41 0 -74.5 -33t-46.5 -88h33q146 0 146 68q0 23 -15 38t-43 15zM613 -12q-122 0 -184 62q-75 -62 -178 -62q-100 0 -163 59.5t-63 172.5q0 129 80.5 215.5t204.5 86.5
q108 0 169 -66q82 66 194 66q93 0 144 -43.5t51 -110.5q0 -77 -70.5 -123.5t-214.5 -46.5q-34 0 -49 1q8 -97 107 -97q74 0 153 38l10 -114q-88 -38 -191 -38z" />
    <glyph glyph-name="Scaron" unicode="&#x160;" horiz-adv-x="584" 
d="M1 49l61 124q108 -55 187 -55q61 0 96 25t35 63q0 28 -21 48.5t-52 33t-68 30t-68 37.5t-52 57.5t-21 87.5q0 104 79.5 168t202.5 64q114 0 219 -59l-62 -132q-87 55 -163 55q-51 0 -82 -22.5t-31 -56.5q0 -26 21 -45.5t52 -31t68 -28.5t68 -37t52 -58.5t21 -89.5
q0 -108 -82.5 -173.5t-215.5 -65.5q-134 0 -244 61zM480 909h123l-156 -147h-126l-102 147h109l68 -49z" />
    <glyph glyph-name="scaron" unicode="&#x161;" horiz-adv-x="470" 
d="M462 479l-50 -115q-66 39 -123 39q-29 0 -48.5 -11.5t-19.5 -30.5q0 -18 21 -30t51 -21.5t60 -23t51 -43.5t21 -75q0 -83 -65.5 -131.5t-173.5 -48.5q-109 0 -194 44l50 111q82 -41 144 -41q35 0 59.5 13.5t24.5 35.5q0 19 -21 32t-51 23.5t-60 25t-51 44t-21 72.5
q0 78 62 126t161 48q94 0 173 -43zM389 720h122l-159 -167h-124l-100 167h108l65 -70z" />
    <glyph glyph-name="Ydieresis" unicode="&#x178;" horiz-adv-x="649" 
d="M198 0l51 290l-158 430h159l99 -281l198 281h175l-310 -430l-51 -290h-163zM396 837q0 -32 -21.5 -53t-54.5 -21t-54.5 21t-21.5 53t21.5 53t54.5 21t54.5 -21t21.5 -53zM610 837q0 -32 -21.5 -53t-54.5 -21t-54.5 21t-21.5 53t21.5 53t54.5 21t54.5 -21t21.5 -53z" />
    <glyph glyph-name="Zcaron" unicode="&#x17d;" horiz-adv-x="615" 
d="M-16 0l20 111l404 473h-301l24 136h526l-20 -116l-404 -473h321l-23 -131h-547zM490 909h123l-156 -147h-126l-102 147h109l68 -49z" />
    <glyph glyph-name="zcaron" unicode="&#x17e;" horiz-adv-x="498" 
d="M-23 0l18 101l287 292h-221l21 117h427l-17 -98l-287 -292h237l-21 -120h-444zM400 720h122l-159 -167h-124l-100 167h108l65 -70z" />
    <glyph glyph-name="longs" unicode="&#x17f;" horiz-adv-x="346" 
d="M40 392l21 118h73l12 69q12 71 55.5 109t134.5 38q40 0 79 -6l-20 -114q-19 4 -34 4q-30 0 -41.5 -14t-17.5 -46l-97 -550h-161l69 392h-73z" />
    <glyph glyph-name="florin" unicode="&#x192;" horiz-adv-x="472" 
d="M471 616q-40 0 -59 -17t-31 -58l-38 -133h135l-17 -97h-145l-87 -311h-157l88 311h-123l17 97h133l45 159q17 58 38.5 91t70 53.5t126.5 20.5q44 0 68 -4l-21 -116q-19 4 -43 4z" />
    <glyph glyph-name="uni02BB" unicode="&#x2bb;" horiz-adv-x="285" 
d="M181 379q-47 0 -77.5 33t-30.5 91q0 135 202 228l55 -75q-108 -47 -136 -105q35 -4 57 -27.5t22 -57.5q0 -37 -25.5 -62t-66.5 -25z" />
    <glyph glyph-name="uni02BC" unicode="&#x2bc;" horiz-adv-x="285" 
d="M208 732q47 0 77.5 -33t30.5 -91q0 -135 -202 -228l-55 75q108 47 136 105q-35 4 -57 27.5t-22 57.5q0 37 25.5 62t66.5 25z" />
    <glyph glyph-name="circumflex" unicode="&#x2c6;" horiz-adv-x="500" 
d="M233 553h-122l159 167h124l100 -167h-108l-65 70z" />
    <glyph glyph-name="caron" unicode="&#x2c7;" horiz-adv-x="500" 
d="M402 720h122l-159 -167h-124l-100 167h108l65 -70z" />
    <glyph glyph-name="breve" unicode="&#x2d8;" horiz-adv-x="500" 
d="M317 559q-84 0 -126.5 33t-42.5 94q0 22 2 34h87q-1 -32 17.5 -48t65.5 -16t70.5 15.5t34.5 48.5h87q-14 -79 -59 -120t-136 -41z" />
    <glyph glyph-name="dotaccent" unicode="&#x2d9;" horiz-adv-x="500" 
d="M407 636q0 -37 -25 -60.5t-66 -23.5t-66 23.5t-25 60.5t25 60.5t66 23.5t66 -23.5t25 -60.5z" />
    <glyph glyph-name="ring" unicode="&#x2da;" horiz-adv-x="500" 
d="M277 655q0 -17 11.5 -29t30.5 -12t30.5 12t11.5 29t-11.5 29t-30.5 12t-30.5 -12t-11.5 -29zM425 655q0 -44 -30 -73.5t-76 -29.5t-76 29.5t-30 73.5t30 73.5t76 29.5t76 -29.5t30 -73.5z" />
    <glyph glyph-name="ogonek" unicode="&#x2db;" horiz-adv-x="500" 
d="M196 -96q0 -28 37 -28q16 0 32 4l5 -82q-23 -6 -61 -6q-61 0 -94 24t-33 68q0 71 96 116h126q-60 -26 -84 -48.5t-24 -47.5z" />
    <glyph glyph-name="tilde" unicode="&#x2dc;" horiz-adv-x="500" 
d="M201 559h-90q25 150 127 150q39 0 89 -26.5t65 -26.5q31 0 39 47h90q-25 -150 -127 -150q-39 0 -89 26.5t-65 26.5q-31 0 -39 -47z" />
    <glyph glyph-name="hungarumlaut" unicode="&#x2dd;" horiz-adv-x="500" 
d="M228 553h-133l109 167h189zM433 553h-133l127 167h189z" />
    <glyph glyph-name="gravecomb" unicode="&#x300;" horiz-adv-x="1" 
d="M-142 553h-122l-117 167h168z" />
    <glyph glyph-name="acutecomb" unicode="&#x301;" horiz-adv-x="1" 
d="M-203 553h-132l108 167h190z" />
    <glyph glyph-name="uni0302" unicode="&#x302;" horiz-adv-x="1" 
d="M-308 553h-122l159 167h124l100 -167h-108l-65 70z" />
    <glyph glyph-name="tildecomb" unicode="&#x303;" horiz-adv-x="1" 
d="M-340 559h-90q25 150 127 150q39 0 89 -26.5t65 -26.5q31 0 39 47h90q-25 -150 -127 -150q-39 0 -89 26.5t-65 26.5q-31 0 -39 -47z" />
    <glyph glyph-name="uni0304" unicode="&#x304;" horiz-adv-x="1" 
d="M-412 560l18 103h351l-18 -103h-351z" />
    <glyph glyph-name="uni0306" unicode="&#x306;" horiz-adv-x="1" 
d="M-223 559q-84 0 -126.5 33t-42.5 94q0 22 2 34h87q-1 -32 17.5 -48t65.5 -16t70.5 15.5t34.5 48.5h87q-14 -79 -59 -120t-136 -41z" />
    <glyph glyph-name="uni0307" unicode="&#x307;" horiz-adv-x="1" 
d="M-133 636q0 -37 -25 -60.5t-66 -23.5t-66 23.5t-25 60.5t25 60.5t66 23.5t66 -23.5t25 -60.5z" />
    <glyph glyph-name="uni0308" unicode="&#x308;" horiz-adv-x="1" 
d="M-256 629q0 -32 -21.5 -53t-54.5 -21t-54.5 21t-21.5 53t21.5 53t54.5 21t54.5 -21t21.5 -53zM-42 629q0 -32 -21.5 -53t-54.5 -21t-54.5 21t-21.5 53t21.5 53t54.5 21t54.5 -21t21.5 -53z" />
    <glyph glyph-name="uni030A" unicode="&#x30a;" horiz-adv-x="1" 
d="M-264 655q0 -17 11.5 -29t30.5 -12t30.5 12t11.5 29t-11.5 29t-30.5 12t-30.5 -12t-11.5 -29zM-116 655q0 -44 -30 -73.5t-76 -29.5t-76 29.5t-30 73.5t30 73.5t76 29.5t76 -29.5t30 -73.5z" />
    <glyph glyph-name="uni030B" unicode="&#x30b;" horiz-adv-x="1" 
d="M-312 553h-133l109 167h189zM-107 553h-133l127 167h189z" />
    <glyph glyph-name="uni030C" unicode="&#x30c;" horiz-adv-x="1" 
d="M-119 720h122l-159 -167h-124l-100 167h108l65 -70z" />
    <glyph glyph-name="uni0312" unicode="&#x312;" horiz-adv-x="1" 
d="M-151 797l32 -68q-61 -19 -86 -46q26 -4 40.5 -21.5t14.5 -42.5q0 -32 -22.5 -50t-57.5 -18q-39 0 -63 23t-24 64q0 103 166 159z" />
    <glyph glyph-name="uni0313" unicode="&#x313;" horiz-adv-x="1" 
d="M-317 617q61 19 86 46q-26 4 -40.5 21.5t-14.5 42.5q0 32 22.5 50t57.5 18q39 0 63 -23t24 -64q0 -103 -166 -159z" />
    <glyph glyph-name="uni0326" unicode="&#x326;" horiz-adv-x="1" 
d="M-443 -210q61 19 86 46q-26 4 -40.5 21.5t-14.5 42.5q0 32 22.5 50t57.5 18q39 0 63 -23t24 -64q0 -103 -166 -159z" />
    <glyph glyph-name="uni0327" unicode="&#x327;" horiz-adv-x="1" 
d="M-196 -95q0 -54 -40.5 -83.5t-111.5 -29.5q-67 0 -129 33l31 75q45 -26 84 -26q25 0 38 10.5t13 25.5q0 35 -70 46l24 53q161 -4 161 -104z" />
    <glyph glyph-name="uni0328" unicode="&#x328;" horiz-adv-x="1" 
d="M-319 -96q0 -28 37 -28q16 0 32 4l5 -82q-23 -6 -61 -6q-61 0 -94 24t-33 68q0 71 96 116h126q-60 -26 -84 -48.5t-24 -47.5z" />
    <glyph glyph-name="uni0335" unicode="&#x335;" horiz-adv-x="1" 
d="M-496 231l23 133h420l-23 -133h-420z" />
    <glyph glyph-name="uni0336" unicode="&#x336;" horiz-adv-x="1" 
d="M-996 231l23 133h920l-23 -133h-920z" />
    <glyph glyph-name="uni037E" unicode="&#x37e;" horiz-adv-x="301" 
d="M110 172q47 0 77.5 -33t30.5 -91q0 -135 -202 -228l-55 75q108 47 136 105q-35 4 -57 27.5t-22 57.5q0 37 25.5 62t66.5 25zM174 316q-42 0 -69 26.5t-27 65.5t27 65.5t69 26.5t69 -26.5t27 -65.5t-27 -65.5t-69 -26.5z" />
    <glyph glyph-name="uni0394" unicode="&#x394;" horiz-adv-x="695" 
d="M529 720l88 -608l-19 -112h-590l20 112l308 608h193zM403 564l-200 -433h251z" />
    <glyph glyph-name="uni03A9" unicode="&#x3a9;" horiz-adv-x="723" 
d="M410 596q-83 0 -136 -64t-53 -180q0 -67 19 -122t59 -118l-20 -112h-306l23 131h147q-85 96 -85 235q0 158 101.5 262t254.5 104q134 0 218.5 -80.5t84.5 -216.5q0 -90 -40 -169t-114 -135h139l-23 -131h-301l20 112q81 80 118.5 148t37.5 156q0 92 -38.5 136t-105.5 44z
" />
    <glyph glyph-name="uni03BC" unicode="&#x3bc;" horiz-adv-x="589" 
d="M573 510l-90 -510h-161l12 68q-75 -80 -167 -80q-10 0 -14 1q0 -67 -20 -199h-154l127 720h161l-59 -334q-1 -5 -1 -12q0 -46 41 -46q46 0 105 57l59 335h161z" />
    <glyph glyph-name="pi" unicode="&#x3c0;" horiz-adv-x="617" 
d="M40 392l21 118h577l-21 -118h-68l-40 -231q-3 -21 -3 -26q0 -26 28 -26q12 0 34 4l-18 -111q-32 -8 -75 -8q-66 0 -99 27t-33 90q0 23 6 57l39 224h-121q-39 -222 -85 -392h-164q45 152 89 392h-67z" />
    <glyph glyph-name="uni1E9E" unicode="&#x1e9e;" horiz-adv-x="1148" 
d="M565 49l61 124q108 -55 187 -55q61 0 96 25t35 63q0 28 -21 48.5t-52 33t-68 30t-68 37.5t-52 57.5t-21 87.5q0 104 79.5 168t202.5 64q114 0 219 -59l-62 -132q-87 55 -163 55q-51 0 -82 -22.5t-31 -56.5q0 -26 21 -45.5t52 -31t68 -28.5t68 -37t52 -58.5t21 -89.5
q0 -108 -82.5 -173.5t-215.5 -65.5q-134 0 -244 61zM1 49l61 124q108 -55 187 -55q61 0 96 25t35 63q0 28 -21 48.5t-52 33t-68 30t-68 37.5t-52 57.5t-21 87.5q0 104 79.5 168t202.5 64q114 0 219 -59l-62 -132q-87 55 -163 55q-51 0 -82 -22.5t-31 -56.5q0 -26 21 -45.5
t52 -31t68 -28.5t68 -37t52 -58.5t21 -89.5q0 -108 -82.5 -173.5t-215.5 -65.5q-134 0 -244 61z" />
    <glyph glyph-name="uni2007" unicode="&#x2007;" horiz-adv-x="645" 
 />
    <glyph glyph-name="uni2008" unicode="&#x2008;" horiz-adv-x="301" 
 />
    <glyph glyph-name="uni200B" unicode="&#x200b;" horiz-adv-x="0" 
 />
    <glyph glyph-name="endash" unicode="&#x2013;" horiz-adv-x="500" 
d="M38 245l23 133h420l-23 -133h-420z" />
    <glyph glyph-name="emdash" unicode="&#x2014;" 
d="M38 245l23 133h920l-23 -133h-920z" />
    <glyph glyph-name="quoteleft" unicode="&#x2018;" horiz-adv-x="285" 
d="M181 379q-47 0 -77.5 33t-30.5 91q0 135 202 228l55 -75q-108 -47 -136 -105q35 -4 57 -27.5t22 -57.5q0 -37 -25.5 -62t-66.5 -25z" />
    <glyph glyph-name="quoteright" unicode="&#x2019;" horiz-adv-x="285" 
d="M208 732q47 0 77.5 -33t30.5 -91q0 -135 -202 -228l-55 75q108 47 136 105q-35 4 -57 27.5t-22 57.5q0 37 25.5 62t66.5 25z" />
    <glyph glyph-name="quotesinglbase" unicode="&#x201a;" horiz-adv-x="285" 
d="M110 172q47 0 77.5 -33t30.5 -91q0 -135 -202 -228l-55 75q108 47 136 105q-35 4 -57 27.5t-22 57.5q0 37 25.5 62t66.5 25z" />
    <glyph glyph-name="quotedblleft" unicode="&#x201c;" horiz-adv-x="520" 
d="M416 379q-47 0 -77.5 33t-30.5 91q0 135 202 228l55 -75q-108 -47 -136 -105q35 -4 57 -27.5t22 -57.5q0 -37 -25.5 -62t-66.5 -25zM181 379q-47 0 -77.5 33t-30.5 91q0 135 202 228l55 -75q-108 -47 -136 -105q35 -4 57 -27.5t22 -57.5q0 -37 -25.5 -62t-66.5 -25z" />
    <glyph glyph-name="quotedblright" unicode="&#x201d;" horiz-adv-x="520" 
d="M443 732q47 0 77.5 -33t30.5 -91q0 -135 -202 -228l-55 75q108 47 136 105q-35 4 -57 27.5t-22 57.5q0 37 25.5 62t66.5 25zM208 732q47 0 77.5 -33t30.5 -91q0 -135 -202 -228l-55 75q108 47 136 105q-35 4 -57 27.5t-22 57.5q0 37 25.5 62t66.5 25z" />
    <glyph glyph-name="quotedblbase" unicode="&#x201e;" horiz-adv-x="520" 
d="M345 172q47 0 77.5 -33t30.5 -91q0 -135 -202 -228l-55 75q108 47 136 105q-35 4 -57 27.5t-22 57.5q0 37 25.5 62t66.5 25zM110 172q47 0 77.5 -33t30.5 -91q0 -135 -202 -228l-55 75q108 47 136 105q-35 4 -57 27.5t-22 57.5q0 37 25.5 62t66.5 25z" />
    <glyph glyph-name="dagger" unicode="&#x2020;" horiz-adv-x="572" 
d="M148 -83l104 466l-168 -15l24 135l158 -15l17 192h156l-51 -192l164 15l-24 -135l-162 15l-62 -466h-156z" />
    <glyph glyph-name="daggerdbl" unicode="&#x2021;" horiz-adv-x="572" 
d="M439 680l-47 -172l163 15l-24 -135l-162 15l-37 -209l168 15l-24 -135l-159 15l-13 -172h-156l47 172l-163 -15l24 135l162 -15l37 209l-168 -15l24 135l159 -15l13 172h156z" />
    <glyph glyph-name="bullet" unicode="&#x2022;" horiz-adv-x="462" 
d="M382 351q0 -58 -38.5 -96.5t-97.5 -38.5t-97.5 38.5t-38.5 96.5t38.5 96.5t97.5 38.5t97.5 -38.5t38.5 -96.5z" />
    <glyph glyph-name="onedotenleader" unicode="&#x2024;" horiz-adv-x="301" 
d="M118 -12q-42 0 -69 26.5t-27 65.5t27 65.5t69 26.5t69 -26.5t27 -65.5t-27 -65.5t-69 -26.5z" />
    <glyph glyph-name="twodotenleader" unicode="&#x2025;" horiz-adv-x="551" 
d="M118 -12q-42 0 -69 26.5t-27 65.5t27 65.5t69 26.5t69 -26.5t27 -65.5t-27 -65.5t-69 -26.5zM368 -12q-42 0 -69 26.5t-27 65.5t27 65.5t69 26.5t69 -26.5t27 -65.5t-27 -65.5t-69 -26.5z" />
    <glyph glyph-name="ellipsis" unicode="&#x2026;" horiz-adv-x="801" 
d="M118 -12q-42 0 -69 26.5t-27 65.5t27 65.5t69 26.5t69 -26.5t27 -65.5t-27 -65.5t-69 -26.5zM368 -12q-42 0 -69 26.5t-27 65.5t27 65.5t69 26.5t69 -26.5t27 -65.5t-27 -65.5t-69 -26.5zM618 -12q-42 0 -69 26.5t-27 65.5t27 65.5t69 26.5t69 -26.5t27 -65.5t-27 -65.5
t-69 -26.5z" />
    <glyph glyph-name="perthousand" unicode="&#x2030;" horiz-adv-x="1188" 
d="M954 79q29 0 45 31t16 71q0 66 -43 66q-29 0 -45 -31t-16 -71q0 -66 43 -66zM951 -6q-72 0 -114.5 44t-42.5 112q0 74 50 129t131 55q72 0 114.5 -44t42.5 -112q0 -74 -50 -129t-131 -55zM75 0l566 720h144l-566 -720h-144zM246 471q29 0 45 31t16 71q0 66 -43 66
q-29 0 -45 -31t-16 -71q0 -66 43 -66zM243 386q-72 0 -114.5 44t-42.5 112q0 74 50 129t131 55q72 0 114.5 -44t42.5 -112q0 -74 -50 -129t-131 -55zM596 79q29 0 45 31t16 71q0 66 -43 66q-29 0 -45 -31t-16 -71q0 -66 43 -66zM593 -6q-72 0 -114.5 44t-42.5 112
q0 74 50 129t131 55q72 0 114.5 -44t42.5 -112q0 -74 -50 -129t-131 -55z" />
    <glyph glyph-name="minute" unicode="&#x2032;" horiz-adv-x="211" 
d="M63 432l71 288h129l-89 -288h-111z" />
    <glyph glyph-name="second" unicode="&#x2033;" horiz-adv-x="403" 
d="M255 432l71 288h129l-89 -288h-111zM63 432l71 288h129l-89 -288h-111z" />
    <glyph glyph-name="guilsinglleft" unicode="&#x2039;" horiz-adv-x="340" 
d="M129 24l-104 231l171 231h154l-175 -240l93 -222h-139z" />
    <glyph glyph-name="guilsinglright" unicode="&#x203a;" horiz-adv-x="340" 
d="M210 486l104 -231l-171 -231h-154l175 240l-93 222h139z" />
    <glyph glyph-name="exclamdbl" unicode="&#x203c;" horiz-adv-x="589" 
d="M100 224l58 496h185l-116 -496h-127zM230 74q0 -37 -26 -61.5t-66 -24.5t-66 24.5t-26 61.5t26 61.5t66 24.5t66 -24.5t26 -61.5zM352 224l58 496h185l-116 -496h-127zM482 74q0 -37 -26 -61.5t-66 -24.5t-66 24.5t-26 61.5t26 61.5t66 24.5t66 -24.5t26 -61.5z" />
    <glyph glyph-name="fraction" unicode="&#x2044;" horiz-adv-x="112" 
d="M-220 0l573 720h137l-573 -720h-137z" />
    <glyph glyph-name="uni2070" unicode="&#x2070;" horiz-adv-x="408" 
d="M248 458q42 0 67.5 52.5t25.5 125.5q0 108 -59 108q-42 0 -67.5 -52.5t-25.5 -125.5q0 -108 59 -108zM241 372q-72 0 -116 51t-44 145q0 110 57.5 188t150.5 78q72 0 116 -51t44 -145q0 -110 -57.5 -188t-150.5 -78z" />
    <glyph glyph-name="uni2071" unicode="&#x2071;" horiz-adv-x="204" 
d="M70 380l56 316h108l-56 -316h-108zM253 784q0 -24 -16 -40t-43 -16t-43 16t-16 40t16 40t43 16t43 -16t16 -40z" />
    <glyph glyph-name="uni2074" unicode="&#x2074;" horiz-adv-x="401" 
d="M52 464l14 82l230 280h133l-49 -276h64l-15 -86h-64l-15 -84h-105l15 84h-208zM174 550h101l28 156z" />
    <glyph glyph-name="uni2075" unicode="&#x2075;" horiz-adv-x="348" 
d="M274 527q0 58 -86 58q-49 0 -104 -15l54 256h276l-16 -90h-175l-15 -70q8 1 22 1q71 0 112 -36t41 -101q0 -74 -52 -116t-140 -42q-79 0 -155 35l40 84q64 -32 110 -32q43 0 65.5 18t22.5 50z" />
    <glyph glyph-name="uni2076" unicode="&#x2076;" horiz-adv-x="381" 
d="M308 834q78 0 129 -33l-40 -86q-52 28 -92 28q-88 0 -112 -100q39 37 93 37q59 0 93.5 -37.5t34.5 -101.5q0 -77 -48 -123t-119 -46q-75 0 -120.5 53.5t-45.5 149.5q0 111 60 185t167 74zM256 595q-32 0 -70 -33q3 -106 63 -106q27 0 44.5 21t17.5 55q0 30 -14.5 46.5
t-40.5 16.5z" />
    <glyph glyph-name="uni2077" unicode="&#x2077;" horiz-adv-x="312" 
d="M89 733l17 93h302l-16 -88q-93 -140 -208 -358h-124q115 221 204 353h-175z" />
    <glyph glyph-name="uni2078" unicode="&#x2078;" horiz-adv-x="374" 
d="M221 372q-76 0 -121 32.5t-45 89.5q0 45 29 72.5t79 46.5q-52 32 -52 91q0 58 45 94t119 36q69 0 109 -31t40 -84q0 -72 -87 -107q69 -40 69 -103q0 -62 -51 -99.5t-134 -37.5zM216 710q0 -31 48 -57q55 24 55 61q0 41 -48 41q-24 0 -39.5 -12t-15.5 -33zM226 447
q31 0 51.5 14.5t20.5 41.5q0 24 -16 39t-46 30q-35 -14 -53.5 -30.5t-18.5 -43.5q0 -51 62 -51z" />
    <glyph glyph-name="uni2079" unicode="&#x2079;" horiz-adv-x="381" 
d="M196 372q-78 0 -129 33l40 82q52 -28 92 -28q90 0 112 105q-39 -38 -93 -38q-59 0 -93.5 37.5t-34.5 101.5q0 77 48 123t119 46q75 0 120.5 -53.5t45.5 -149.5q0 -111 -60 -185t-167 -74zM248 607q32 0 70 33q-3 106 -63 106q-27 0 -44.5 -21t-17.5 -55q0 -30 14.5 -46.5
t40.5 -16.5z" />
    <glyph glyph-name="uni207A" unicode="&#x207a;" horiz-adv-x="364" 
d="M247 380h-86l20 116h-108l15 84h108l20 116h86l-20 -116h108l-15 -84h-108z" />
    <glyph glyph-name="uni207B" unicode="&#x207b;" horiz-adv-x="364" 
d="M390 580l-15 -84h-302l15 84h302z" />
    <glyph glyph-name="uni207C" unicode="&#x207c;" horiz-adv-x="364" 
d="M378 512l-13 -75h-302l13 75h302zM400 638l-13 -75h-302l13 75h302z" />
    <glyph glyph-name="uni207D" unicode="&#x207d;" horiz-adv-x="237" 
d="M174 509q0 -120 59 -204l-63 -40q-103 103 -103 245q0 62 17.5 115.5t50 94.5t61 67.5t67.5 54.5l55 -50q-144 -113 -144 -283z" />
    <glyph glyph-name="uni207E" unicode="&#x207e;" horiz-adv-x="237" 
d="M168 598q0 120 -59 204l63 40q103 -103 103 -245q0 -62 -17.5 -115.5t-50 -94.5t-61 -67.5t-67.5 -54.5l-55 50q144 113 144 283z" />
    <glyph glyph-name="uni207F" unicode="&#x207f;" horiz-adv-x="368" 
d="M62 380l56 316h107l-7 -41q44 49 102 49q32 0 55 -18.5t23 -59.5q0 -16 -3 -32l-38 -214h-108l36 197q1 7 1 10q0 26 -23 26q-28 0 -58 -30l-36 -203h-107z" />
    <glyph glyph-name="uni2080" unicode="&#x2080;" horiz-adv-x="408" 
d="M162 -28q42 0 67.5 52.5t25.5 125.5q0 108 -59 108q-42 0 -67.5 -52.5t-25.5 -125.5q0 -108 59 -108zM155 -114q-72 0 -116 51t-44 145q0 110 57.5 188t150.5 78q72 0 116 -51t44 -145q0 -110 -57.5 -188t-150.5 -78z" />
    <glyph glyph-name="uni2081" unicode="&#x2081;" horiz-adv-x="260" 
d="M30 193l-13 91l118 56h86l-79 -446h-108l58 327z" />
    <glyph glyph-name="uni2082" unicode="&#x2082;" horiz-adv-x="360" 
d="M208 209q0 45 -51 45q-61 0 -117 -56l-14 93q59 57 149 57q66 0 103.5 -35t37.5 -94q0 -62 -43.5 -116t-135.5 -122h147l-15 -87h-312l13 77q131 87 184.5 142.5t53.5 95.5z" />
    <glyph glyph-name="uni2083" unicode="&#x2083;" horiz-adv-x="353" 
d="M171 348q66 0 106.5 -28.5t40.5 -82.5q0 -83 -101 -118q74 -26 74 -97q0 -63 -51 -99.5t-138 -36.5q-84 0 -154 35l40 83q64 -32 111 -32q38 0 58.5 15t20.5 40q0 50 -87 50q-11 0 -47 -2l13 79q153 0 153 62q0 42 -54 42q-47 0 -114 -35l-8 90q65 35 137 35z" />
    <glyph glyph-name="uni2084" unicode="&#x2084;" horiz-adv-x="401" 
d="M-34 -22l14 82l230 280h133l-49 -276h64l-15 -86h-64l-15 -84h-105l15 84h-208zM88 64h101l28 156z" />
    <glyph glyph-name="uni2085" unicode="&#x2085;" horiz-adv-x="348" 
d="M188 41q0 58 -86 58q-49 0 -104 -15l54 256h276l-16 -90h-175l-15 -70q8 1 22 1q71 0 112 -36t41 -101q0 -74 -52 -116t-140 -42q-79 0 -155 35l40 84q64 -32 110 -32q43 0 65.5 18t22.5 50z" />
    <glyph glyph-name="uni2086" unicode="&#x2086;" horiz-adv-x="381" 
d="M222 348q78 0 129 -33l-40 -86q-53 28 -92 28q-88 0 -112 -100q39 37 93 37q59 0 93.5 -37.5t34.5 -101.5q0 -77 -48 -123t-119 -46q-75 0 -120.5 53.5t-45.5 149.5q0 111 60 185t167 74zM170 109q-32 0 -70 -33q3 -106 63 -106q27 0 44.5 21t17.5 55q0 30 -14.5 46.5
t-40.5 16.5z" />
    <glyph glyph-name="uni2087" unicode="&#x2087;" horiz-adv-x="312" 
d="M3 247l17 93h302l-16 -88q-93 -140 -208 -358h-124q115 221 204 353h-175z" />
    <glyph glyph-name="uni2088" unicode="&#x2088;" horiz-adv-x="374" 
d="M135 -114q-76 0 -121 32.5t-45 89.5q0 45 29 72.5t79 46.5q-52 32 -52 91q0 58 45 94t119 36q69 0 109 -31t40 -84q0 -72 -87 -107q69 -40 69 -103q0 -62 -51 -99.5t-134 -37.5zM130 224q0 -31 48 -57q55 24 55 61q0 41 -48 41q-24 0 -39.5 -12t-15.5 -33zM140 -39
q31 0 51.5 14.5t20.5 41.5q0 24 -16 39t-46 30q-35 -14 -53.5 -30.5t-18.5 -43.5q0 -51 62 -51z" />
    <glyph glyph-name="uni2089" unicode="&#x2089;" horiz-adv-x="381" 
d="M110 -114q-78 0 -129 33l40 82q53 -28 92 -28q90 0 112 105q-39 -38 -93 -38q-59 0 -93.5 37.5t-34.5 101.5q0 77 48 123t119 46q75 0 120.5 -53.5t45.5 -149.5q0 -111 -60 -185t-167 -74zM162 121q31 0 70 33q-3 106 -63 106q-27 0 -44.5 -21t-17.5 -55
q0 -30 14.5 -46.5t40.5 -16.5z" />
    <glyph glyph-name="uni208A" unicode="&#x208a;" horiz-adv-x="364" 
d="M161 -106h-86l20 116h-108l15 84h108l20 116h86l-20 -116h108l-15 -84h-108z" />
    <glyph glyph-name="uni208B" unicode="&#x208b;" horiz-adv-x="364" 
d="M304 94l-15 -84h-302l15 84h302z" />
    <glyph glyph-name="uni208C" unicode="&#x208c;" horiz-adv-x="364" 
d="M292 26l-13 -75h-302l13 75h302zM314 152l-13 -75h-302l13 75h302z" />
    <glyph glyph-name="uni208D" unicode="&#x208d;" horiz-adv-x="237" 
d="M88 23q0 -120 59 -204l-63 -40q-103 103 -103 245q0 62 17.5 115.5t50 94.5t61 67.5t67.5 54.5l55 -50q-144 -113 -144 -283z" />
    <glyph glyph-name="uni208E" unicode="&#x208e;" horiz-adv-x="237" 
d="M82 112q0 120 -59 204l63 40q103 -103 103 -245q0 -62 -17.5 -115.5t-50 -94.5t-61 -67.5t-67.5 -54.5l-55 50q144 113 144 283z" />
    <glyph glyph-name="Euro" unicode="&#x20ac;" horiz-adv-x="623" 
d="M42 385l18 97h89q41 114 128.5 182t208.5 68q101 0 175 -51l-59 -124q-66 45 -125 45q-112 0 -167 -120h197l-17 -97h-208q-6 -38 -7 -57h204l-17 -97h-182q20 -120 118 -120q68 0 139 49l15 -124q-82 -48 -178 -48q-104 0 -170.5 62.5t-81.5 180.5h-108l18 97h87
q2 38 5 57h-82z" />
    <glyph glyph-name="uni20B1" unicode="&#x20b1;" horiz-adv-x="645" 
d="M28 430l17 97h83l34 193h222q113 0 179 -48.5t74 -144.5h63l-17 -97h-54q-22 -89 -99 -138t-201 -49h-90l-42 -243h-162l76 430h-83zM260 356h72q107 0 136 74h-195zM303 602l-13 -75h188q-13 75 -103 75h-72z" />
    <glyph glyph-name="uni20B4" unicode="&#x20b4;" horiz-adv-x="616" 
d="M43 385l18 97h363q21 23 21 52q0 34 -23.5 51t-63.5 17q-73 0 -168 -55l-16 131q100 54 207 54q104 0 165 -50t61 -139q0 -30 -9 -61h38l-17 -97h-96q-8 -6 -19.5 -12.5t-20 -10.5t-23.5 -10t-22 -8.5t-24.5 -8t-21.5 -7.5h216l-17 -97h-375q-11 -19 -11 -42
q0 -38 29 -58t79 -20q79 0 188 56l16 -125q-103 -54 -227 -54q-115 0 -181 50t-66 148q0 26 4 45h-32l18 97h74q25 24 108 57h-172z" />
    <glyph glyph-name="uni2113" unicode="&#x2113;" horiz-adv-x="572" 
d="M24 312q48 0 100 5l40 227q16 90 68 139t133 49q82 0 132 -49.5t50 -139.5q0 -66 -27.5 -124t-93 -109t-164.5 -78l-2 -10q-4 -21 -4 -42q0 -42 20.5 -59.5t62.5 -17.5q51 0 105 28l11 -113q-60 -30 -145 -30q-97 0 -151.5 41.5t-54.5 142.5q0 20 1 34q-41 -4 -100 -4z
M314 530l-31 -175q72 32 105.5 82t33.5 106q0 69 -45 69q-48 0 -63 -82z" />
    <glyph glyph-name="uni2116" unicode="&#x2116;" horiz-adv-x="1091" 
d="M920 437q29 0 45 31t16 71q0 66 -43 66q-29 0 -45 -31t-16 -71q0 -66 43 -66zM917 352q-72 0 -114.5 44t-42.5 112q0 74 50 129t131 55q72 0 114.5 -44t42.5 -112q0 -74 -50 -129t-131 -55zM32 0l127 720h171l178 -434l77 434h150l-127 -720h-136l-203 495l-87 -495h-150
z" />
    <glyph glyph-name="uni2117" unicode="&#x2117;" horiz-adv-x="838" 
d="M298 541h154q74 0 114.5 -31.5t40.5 -92.5t-42.5 -93t-120.5 -32h-33v-117h-113v366zM138 360q0 -129 85 -215t210 -86t210 86t85 215t-85 215t-210 86t-210 -86t-85 -215zM805 360q0 -159 -107.5 -265.5t-264.5 -106.5t-264.5 106.5t-107.5 265.5t107.5 265.5
t264.5 106.5t264.5 -106.5t107.5 -265.5zM411 372h31q52 0 52 42t-52 42h-31v-84z" />
    <glyph glyph-name="uni2120" unicode="&#x2120;" horiz-adv-x="810" 
d="M688 380l19 153q6 45 13 82h-2q-10 -30 -31 -74l-79 -161h-90l-18 157q-6 46 -6 78h-2q-2 -17 -18 -85l-35 -150h-95l93 340h128l14 -161q3 -37 3 -66h2q9 24 28 64l80 163h125l-29 -340h-100zM51 400l32 74q55 -24 93 -24q51 0 51 30q0 15 -20 27t-44 20t-44 30.5
t-20 56.5q0 50 39 81.5t106 31.5q61 0 113 -26l-33 -78q-46 24 -77 24q-44 0 -44 -25q0 -11 13 -19.5t32 -15.5t38 -17t32 -30t13 -49q0 -53 -43 -85.5t-114 -32.5q-67 0 -123 27z" />
    <glyph glyph-name="trademark" unicode="&#x2122;" horiz-adv-x="799" 
d="M678 380l19 153q6 45 13 82h-2q-10 -30 -31 -74l-79 -161h-90l-18 157q-6 46 -6 78h-2q-2 -17 -18 -85l-35 -150h-95l93 340h128l14 -161q3 -37 3 -66h2q9 24 28 64l80 163h125l-29 -340h-100zM124 380l46 260h-90l14 80h284l-14 -80h-90l-46 -260h-104z" />
    <glyph glyph-name="Omega" unicode="&#x2126;" horiz-adv-x="723" 
d="M410 596q-83 0 -136 -64t-53 -180q0 -67 19 -122t59 -118l-20 -112h-306l23 131h147q-85 96 -85 235q0 158 101.5 262t254.5 104q134 0 218.5 -80.5t84.5 -216.5q0 -90 -40 -169t-114 -135h139l-23 -131h-301l20 112q81 80 118.5 148t37.5 156q0 92 -38.5 136t-105.5 44z
" />
    <glyph glyph-name="estimated" unicode="&#x212e;" horiz-adv-x="736" 
d="M368 24q99 0 163 72h81q-43 -50 -107 -79t-137 -29q-126 0 -217 81.5t-91 195.5t91 195.5t217 81.5t217 -81.5t91 -195.5v-18h-435v-183q58 -40 127 -40zM241 283h254v183q-58 40 -127 40t-127 -40v-183z" />
    <glyph glyph-name="uni2150" unicode="&#x2150;" horiz-adv-x="844" 
d="M41 0l573 720h137l-573 -720h-137zM90 573l-13 91l118 56h86l-79 -446h-108l58 327zM560 353l17 93h302l-16 -88q-93 -140 -208 -358h-124q115 221 204 353h-175z" />
    <glyph glyph-name="uni2151" unicode="&#x2151;" horiz-adv-x="854" 
d="M41 0l573 720h137l-573 -720h-137zM609 -5q-78 0 -129 33l40 82q52 -28 92 -28q90 0 112 105q-39 -38 -93 -38q-59 0 -93.5 37.5t-34.5 101.5q0 77 48 123t119 46q75 0 120.5 -53.5t45.5 -149.5q0 -111 -60 -185t-167 -74zM661 230q31 0 70 33q-3 106 -63 106
q-27 0 -44.5 -21t-17.5 -55q0 -30 14.5 -46.5t40.5 -16.5zM116 573l-13 91l118 56h86l-79 -446h-108l58 327z" />
    <glyph glyph-name="uni2152" unicode="&#x2152;" horiz-adv-x="1138" 
d="M41 0l573 720h137l-573 -720h-137zM116 573l-13 91l118 56h86l-79 -446h-108l58 327zM549 299l-13 91l118 56h86l-79 -446h-108l58 327zM917 78q42 0 67.5 52.5t25.5 125.5q0 108 -59 108q-42 0 -67.5 -52.5t-25.5 -125.5q0 -108 59 -108zM910 -8q-72 0 -116 51t-44 145
q0 110 57.5 188t150.5 78q72 0 116 -51t44 -145q0 -110 -57.5 -188t-150.5 -78z" />
    <glyph glyph-name="onethird" unicode="&#x2153;" horiz-adv-x="851" 
d="M41 0l573 720h137l-573 -720h-137zM692 454q66 0 106.5 -28.5t40.5 -82.5q0 -83 -101 -118q74 -26 74 -97q0 -63 -51 -99.5t-138 -36.5q-84 0 -154 35l40 83q64 -32 111 -32q38 0 58.5 15t20.5 40q0 50 -87 50q-11 0 -47 -2l13 79q153 0 153 62q0 42 -54 42
q-47 0 -114 -35l-8 90q65 35 137 35zM116 573l-13 91l118 56h86l-79 -446h-108l58 327z" />
    <glyph glyph-name="twothirds" unicode="&#x2154;" horiz-adv-x="990" 
d="M191 0l573 720h137l-573 -720h-137zM831 454q66 0 106.5 -28.5t40.5 -82.5q0 -83 -101 -118q74 -26 74 -97q0 -63 -51 -99.5t-138 -36.5q-84 0 -154 35l40 83q64 -32 111 -32q38 0 58.5 15t20.5 40q0 50 -87 50q-11 0 -47 -2l13 79q153 0 153 62q0 42 -54 42
q-47 0 -114 -35l-8 90q65 35 137 35zM294 589q0 45 -51 45q-61 0 -117 -56l-14 93q59 57 149 57q66 0 103.5 -35t37.5 -94q0 -62 -43.5 -116t-135.5 -122h147l-15 -87h-312l13 77q131 87 184.5 142.5t53.5 95.5z" />
    <glyph glyph-name="uni2155" unicode="&#x2155;" horiz-adv-x="859" 
d="M41 0l573 720h137l-573 -720h-137zM714 147q0 58 -86 58q-49 0 -104 -15l54 256h276l-16 -90h-175l-15 -70q8 1 22 1q71 0 112 -36t41 -101q0 -74 -52 -116t-140 -42q-79 0 -155 35l40 84q64 -32 110 -32q43 0 65.5 18t22.5 50zM116 573l-13 91l118 56h86l-79 -446h-108
l58 327z" />
    <glyph glyph-name="uni2156" unicode="&#x2156;" horiz-adv-x="995" 
d="M181 0l573 720h137l-573 -720h-137zM294 589q0 45 -51 45q-61 0 -117 -56l-14 93q59 57 149 57q66 0 103.5 -35t37.5 -94q0 -62 -43.5 -116t-135.5 -122h147l-15 -87h-312l13 77q131 87 184.5 142.5t53.5 95.5zM850 147q0 58 -86 58q-49 0 -104 -15l54 256h276l-16 -90
h-175l-15 -70q8 1 22 1q71 0 112 -36t41 -101q0 -74 -52 -116t-140 -42q-79 0 -155 35l40 84q64 -32 110 -32q43 0 65.5 18t22.5 50z" />
    <glyph glyph-name="uni2157" unicode="&#x2157;" horiz-adv-x="940" 
d="M125 0l573 720h137l-573 -720h-137zM795 147q0 58 -86 58q-49 0 -104 -15l54 256h276l-16 -90h-175l-15 -70q8 1 22 1q71 0 112 -36t41 -101q0 -74 -52 -116t-140 -42q-79 0 -155 35l40 84q64 -32 110 -32q43 0 65.5 18t22.5 50zM239 728q66 0 106.5 -28.5t40.5 -82.5
q0 -83 -101 -118q74 -26 74 -97q0 -63 -51 -99.5t-138 -36.5q-84 0 -154 35l40 83q64 -32 111 -32q38 0 58.5 15t20.5 40q0 50 -87 50q-11 0 -47 -2l13 79q153 0 153 62q0 42 -54 42q-47 0 -114 -35l-8 90q65 35 137 35z" />
    <glyph glyph-name="uni2158" unicode="&#x2158;" horiz-adv-x="986" 
d="M171 0l573 720h137l-573 -720h-137zM52 358l14 82l230 280h133l-49 -276h64l-15 -86h-64l-15 -84h-105l15 84h-208zM174 444h101l28 156zM841 147q0 58 -86 58q-49 0 -104 -15l54 256h276l-16 -90h-175l-15 -70q8 1 22 1q71 0 112 -36t41 -101q0 -74 -52 -116t-140 -42
q-79 0 -155 35l40 84q64 -32 110 -32q43 0 65.5 18t22.5 50z" />
    <glyph glyph-name="uni2159" unicode="&#x2159;" horiz-adv-x="833" 
d="M41 0l573 720h137l-573 -720h-137zM698 454q78 0 129 -33l-40 -86q-53 28 -92 28q-88 0 -112 -100q39 37 93 37q59 0 93.5 -37.5t34.5 -101.5q0 -77 -48 -123t-119 -46q-75 0 -120.5 53.5t-45.5 149.5q0 111 60 185t167 74zM646 215q-32 0 -70 -33q3 -106 63 -106
q27 0 44.5 21t17.5 55q0 30 -14.5 46.5t-40.5 16.5zM116 573l-13 91l118 56h86l-79 -446h-108l58 327z" />
    <glyph glyph-name="uni215A" unicode="&#x215a;" horiz-adv-x="900" 
d="M109 0l573 720h137l-573 -720h-137zM245 421q0 58 -86 58q-49 0 -104 -15l54 256h276l-16 -90h-175l-15 -70q8 1 22 1q71 0 112 -36t41 -101q0 -74 -52 -116t-140 -42q-79 0 -155 35l40 84q64 -32 110 -32q43 0 65.5 18t22.5 50zM765 454q78 0 129 -33l-40 -86
q-52 28 -92 28q-88 0 -112 -100q39 37 93 37q59 0 93.5 -37.5t34.5 -101.5q0 -77 -48 -123t-119 -46q-75 0 -120.5 53.5t-45.5 149.5q0 111 60 185t167 74zM713 215q-31 0 -70 -33q3 -106 63 -106q27 0 44.5 21t17.5 55q0 30 -14.5 46.5t-40.5 16.5z" />
    <glyph glyph-name="oneeighth" unicode="&#x215b;" horiz-adv-x="835" 
d="M41 0l573 720h137l-573 -720h-137zM626 -8q-76 0 -121 32.5t-45 89.5q0 45 29 72.5t79 46.5q-52 32 -52 91q0 58 45 94t119 36q69 0 109 -31t40 -84q0 -72 -87 -107q69 -40 69 -103q0 -62 -51 -99.5t-134 -37.5zM621 330q0 -31 48 -57q55 24 55 61q0 41 -48 41
q-24 0 -39.5 -12t-15.5 -33zM631 67q31 0 51.5 14.5t20.5 41.5q0 24 -16 39t-46 30q-35 -14 -53.5 -30.5t-18.5 -43.5q0 -51 62 -51zM116 573l-13 91l118 56h86l-79 -446h-108l58 327z" />
    <glyph glyph-name="threeeighths" unicode="&#x215c;" horiz-adv-x="899" 
d="M108 0l573 720h137l-573 -720h-137zM690 -8q-76 0 -121 32.5t-45 89.5q0 45 29 72.5t79 46.5q-52 32 -52 91q0 58 45 94t119 36q69 0 109 -31t40 -84q0 -72 -87 -107q69 -40 69 -103q0 -62 -51 -99.5t-134 -37.5zM685 330q0 -31 48 -57q55 24 55 61q0 41 -48 41
q-24 0 -39.5 -12t-15.5 -33zM695 67q31 0 51.5 14.5t20.5 41.5q0 24 -16 39t-46 30q-35 -14 -53.5 -30.5t-18.5 -43.5q0 -51 62 -51zM239 728q66 0 106.5 -28.5t40.5 -82.5q0 -83 -101 -118q74 -26 74 -97q0 -63 -51 -99.5t-138 -36.5q-84 0 -154 35l40 83q64 -32 111 -32
q38 0 58.5 15t20.5 40q0 50 -87 50q-11 0 -47 -2l13 79q153 0 153 62q0 42 -54 42q-47 0 -114 -35l-8 90q65 35 137 35z" />
    <glyph glyph-name="fiveeighths" unicode="&#x215d;" horiz-adv-x="899" 
d="M108 0l573 720h137l-573 -720h-137zM690 -8q-76 0 -121 32.5t-45 89.5q0 45 29 72.5t79 46.5q-52 32 -52 91q0 58 45 94t119 36q69 0 109 -31t40 -84q0 -72 -87 -107q69 -40 69 -103q0 -62 -51 -99.5t-134 -37.5zM685 330q0 -31 48 -57q55 24 55 61q0 41 -48 41
q-24 0 -39.5 -12t-15.5 -33zM695 67q31 0 51.5 14.5t20.5 41.5q0 24 -16 39t-46 30q-35 -14 -53.5 -30.5t-18.5 -43.5q0 -51 62 -51zM256 421q0 58 -86 58q-49 0 -104 -15l54 256h276l-16 -90h-175l-15 -70q8 1 22 1q71 0 112 -36t41 -101q0 -74 -52 -116t-140 -42
q-79 0 -155 35l40 84q64 -32 110 -32q43 0 65.5 18t22.5 50z" />
    <glyph glyph-name="seveneighths" unicode="&#x215e;" horiz-adv-x="788" 
d="M-4 0l573 720h137l-573 -720h-137zM579 -8q-76 0 -121 32.5t-45 89.5q0 45 29 72.5t79 46.5q-52 32 -52 91q0 58 45 94t119 36q69 0 109 -31t40 -84q0 -72 -87 -107q69 -40 69 -103q0 -62 -51 -99.5t-134 -37.5zM574 330q0 -31 48 -57q55 24 55 61q0 41 -48 41
q-24 0 -39.5 -12t-15.5 -33zM584 67q31 0 51.5 14.5t20.5 41.5q0 24 -16 39t-46 30q-35 -14 -53.5 -30.5t-18.5 -43.5q0 -51 62 -51zM67 627l17 93h302l-16 -88q-93 -140 -208 -358h-124q115 221 204 353h-175z" />
    <glyph glyph-name="uni215F" unicode="&#x215f;" horiz-adv-x="694" 
d="M41 0l573 720h137l-573 -720h-137zM116 573l-13 91l118 56h86l-79 -446h-108l58 327z" />
    <glyph glyph-name="uni2189" unicode="&#x2189;" horiz-adv-x="967" 
d="M248 352q42 0 67.5 52.5t25.5 125.5q0 108 -59 108q-42 0 -67.5 -52.5t-25.5 -125.5q0 -108 59 -108zM241 266q-72 0 -116 51t-44 145q0 110 57.5 188t150.5 78q72 0 116 -51t44 -145q0 -110 -57.5 -188t-150.5 -78zM808 454q66 0 106.5 -28.5t40.5 -82.5
q0 -83 -101 -118q74 -26 74 -97q0 -63 -51 -99.5t-138 -36.5q-84 0 -154 35l40 83q64 -32 111 -32q38 0 58.5 15t20.5 40q0 50 -87 50q-11 0 -47 -2l13 79q153 0 153 62q0 42 -54 42q-47 0 -114 -35l-8 90q65 35 137 35zM144 0l573 720h137l-573 -720h-137z" />
    <glyph glyph-name="arrowleft" unicode="&#x2190;" 
d="M876 371v-124h-387q-85 0 -116 4v-2q31 -25 73 -68l91 -92l-87 -87l-306 307l306 307l87 -87l-91 -92q-43 -44 -73 -68v-2q31 4 116 4h387z" />
    <glyph glyph-name="arrowup" unicode="&#x2191;" 
d="M574 0h-128v387q0 85 4 116h-2q-32 -40 -66 -73l-92 -91l-87 87l307 306l307 -306l-87 -87l-92 91q-34 33 -66 73h-2q4 -31 4 -116v-387z" />
    <glyph glyph-name="arrowright" unicode="&#x2192;" 
d="M144 245v128h376q91 0 126 -4q-20 16 -72 68l-91 92l87 87l306 -307l-306 -307l-87 87l91 92q42 43 72 67q-39 -3 -126 -3h-376z" />
    <glyph glyph-name="arrowdown" unicode="&#x2193;" 
d="M446 720h128v-387q0 -85 -4 -116h2q32 40 66 73l92 91l87 -87l-307 -306l-307 306l87 87l92 -91q34 -33 66 -73h2q-4 31 -4 116v387z" />
    <glyph glyph-name="uni2196" unicode="&#x2196;" 
d="M789 164l-88 -88l-274 274q-55 55 -77 85l-1 -2q3 -29 3 -99v-129h-125v433h434v-124h-130q-61 0 -99 4l-2 -1q23 -17 85 -79z" />
    <glyph glyph-name="uni2197" unicode="&#x2197;" 
d="M286 76l-88 88l274 274q62 62 85 79l-2 1q-38 -4 -99 -4h-130v124h434v-433h-125v129q0 70 3 99l-1 2q-22 -30 -77 -85z" />
    <glyph glyph-name="uni2198" unicode="&#x2198;" 
d="M198 540l88 88l274 -274q55 -55 77 -85l1 2q-3 29 -3 99v129h125v-433h-434v124h130q61 0 99 -4l2 1q-23 17 -85 79z" />
    <glyph glyph-name="uni2199" unicode="&#x2199;" 
d="M701 628l88 -88l-274 -274q-62 -62 -85 -79l2 -1q38 4 99 4h130v-124h-434v433h125v-129q0 -70 -3 -99l1 -2q22 30 77 85z" />
    <glyph glyph-name="partialdiff" unicode="&#x2202;" horiz-adv-x="572" 
d="M289 611q-61 0 -127 -41l-11 119q69 43 161 43q116 0 184 -77t68 -236q0 -195 -96 -313t-229 -118q-91 0 -154 58t-63 168q0 122 75.5 195t176.5 73q70 0 128 -42q-4 90 -32 130.5t-81 40.5zM258 103q49 0 87.5 57.5t51.5 156.5q-46 46 -92 46q-50 0 -86 -41t-36 -112
q0 -54 21 -80.5t54 -26.5z" />
    <glyph glyph-name="emptyset" unicode="&#x2205;" horiz-adv-x="676" 
d="M198 -73l-94 54l45 75q-92 82 -92 209q0 120 79.5 198.5t198.5 78.5q50 0 92 -15l45 76l94 -54l-45 -75q92 -82 92 -209q0 -120 -79.5 -198.5t-198.5 -78.5q-50 0 -92 15zM167 265q0 -66 39 -111l163 275q-16 3 -34 3q-73 0 -120.5 -47.5t-47.5 -119.5zM503 265
q0 66 -39 111l-163 -275q16 -3 34 -3q73 0 120.5 47.5t47.5 119.5z" />
    <glyph glyph-name="Delta" unicode="&#x2206;" horiz-adv-x="695" 
d="M529 720l88 -608l-19 -112h-590l20 112l308 608h193zM403 564l-200 -433h251z" />
    <glyph glyph-name="product" unicode="&#x220f;" horiz-adv-x="741" 
d="M7 -140l152 860h577l-152 -860h-163l128 724h-251l-128 -724h-163z" />
    <glyph glyph-name="summation" unicode="&#x2211;" horiz-adv-x="587" 
d="M-39 -140l20 111l310 340l-178 293l20 116h504l-24 -136h-303l173 -287l-282 -306h311l-23 -131h-528z" />
    <glyph glyph-name="minus" unicode="&#x2212;" horiz-adv-x="572" 
d="M541 317l-22 -124h-488l22 124h488z" />
    <glyph glyph-name="uni2215" unicode="&#x2215;" horiz-adv-x="572" 
d="M-61 0l573 720h137l-573 -720h-137z" />
    <glyph glyph-name="uni2219" unicode="&#x2219;" horiz-adv-x="572" 
d="M436 351q0 -58 -38.5 -96.5t-97.5 -38.5t-97.5 38.5t-38.5 96.5t38.5 96.5t97.5 38.5t97.5 -38.5t38.5 -96.5z" />
    <glyph glyph-name="radical" unicode="&#x221a;" horiz-adv-x="572" 
d="M114 -80l-93 510h156l45 -334l316 624h166l-429 -800h-161z" />
    <glyph glyph-name="infinity" unicode="&#x221e;" horiz-adv-x="800" 
d="M198 161q49 0 130 94q-29 46 -53.5 70t-51.5 24q-33 0 -57.5 -30.5t-24.5 -79.5q0 -38 15.5 -58t41.5 -20zM410 349q109 115 201 115q67 0 110.5 -48t43.5 -136q0 -102 -57.5 -168t-137.5 -66q-55 0 -97 30.5t-83 84.5q-109 -115 -201 -115q-67 0 -110.5 48t-43.5 136
q0 102 57.5 168t137.5 66q55 0 97 -30.5t83 -84.5zM602 349q-49 0 -130 -94q29 -46 53.5 -70t51.5 -24q33 0 57.5 30.5t24.5 79.5q0 38 -15.5 58t-41.5 20z" />
    <glyph glyph-name="integral" unicode="&#x222b;" horiz-adv-x="423" 
d="M-53 -210l20 113h27q44 0 62.5 17.5t26.5 62.5l101 572q15 86 73 125.5t192 39.5h27l-20 -113h-27q-44 0 -62.5 -17.5t-26.5 -62.5l-101 -572q-15 -87 -72 -126t-193 -39h-27z" />
    <glyph glyph-name="congruent" unicode="&#x2245;" horiz-adv-x="572" 
d="M499 76l-20 -111h-488l20 111h488zM535 280l-20 -111h-488l20 111h488zM198 392q-66 0 -120 -36l-19 109q23 15 63 27t82 12q43 0 117.5 -20t113.5 -20q66 0 120 36l19 -109q-23 -15 -63 -27t-82 -12q-43 0 -117.5 20t-113.5 20z" />
    <glyph glyph-name="approxequal" unicode="&#x2248;" horiz-adv-x="572" 
d="M184 318q-66 0 -120 -36l-19 109q59 39 145 39q43 0 117.5 -20t113.5 -20q66 0 120 36l19 -109q-23 -15 -63 -27t-82 -12q-43 0 -117.5 20t-113.5 20zM148 119q-66 0 -120 -36l-19 109q59 39 145 39q43 0 117.5 -20t113.5 -20q66 0 120 36l19 -109q-23 -15 -63 -27
t-82 -12q-43 0 -117.5 20t-113.5 20z" />
    <glyph glyph-name="notequal" unicode="&#x2260;" horiz-adv-x="572" 
d="M441 543l89 -69l-49 -62h77l-20 -111h-144l-73 -93h201l-20 -111h-268l-103 -131l-89 69l49 62h-77l20 111h144l73 93h-201l20 111h268z" />
    <glyph glyph-name="lessequal" unicode="&#x2264;" horiz-adv-x="572" 
d="M41 247l20 115l513 148l-19 -109l-377 -99l341 -103l-17 -99zM498 76l-20 -110h-487l19 110h488z" />
    <glyph glyph-name="greaterequal" unicode="&#x2265;" horiz-adv-x="572" 
d="M548 363l-20 -115l-513 -148l19 109l377 99l-341 103l17 99zM498 76l-20 -110h-487l19 110h488z" />
    <glyph glyph-name="circleplus" unicode="&#x2295;" 
d="M883 360q0 -159 -107.5 -265.5t-264.5 -106.5t-264.5 106.5t-107.5 265.5t107.5 265.5t264.5 106.5t264.5 -106.5t107.5 -265.5zM216 360q0 -129 85 -215t210 -86t210 86t85 215t-85 215t-210 86t-210 -86t-85 -215zM566 140h-110v167h-156v106h156v167h110v-167h156
v-106h-156v-167z" />
    <glyph glyph-name="uni2296" unicode="&#x2296;" 
d="M883 360q0 -159 -107.5 -265.5t-264.5 -106.5t-264.5 106.5t-107.5 265.5t107.5 265.5t264.5 106.5t264.5 -106.5t107.5 -265.5zM216 360q0 -129 85 -215t210 -86t210 86t85 215t-85 215t-210 86t-210 -86t-85 -215zM722 413v-106h-422v106h422z" />
    <glyph glyph-name="circlemultiply" unicode="&#x2297;" 
d="M883 360q0 -159 -107.5 -265.5t-264.5 -106.5t-264.5 106.5t-107.5 265.5t107.5 265.5t264.5 106.5t264.5 -106.5t107.5 -265.5zM216 360q0 -129 85 -215t210 -86t210 86t85 215t-85 215t-210 86t-210 -86t-85 -215zM308 487l76 76l127 -127l127 127l76 -76l-126 -127
l126 -127l-76 -76l-127 127l-127 -127l-76 76l126 127z" />
    <glyph glyph-name="uni2298" unicode="&#x2298;" 
d="M883 360q0 -159 -107.5 -265.5t-264.5 -106.5t-264.5 106.5t-107.5 265.5t107.5 265.5t264.5 106.5t264.5 -106.5t107.5 -265.5zM216 360q0 -129 85 -215t210 -86t210 86t85 215t-85 215t-210 86t-210 -86t-85 -215zM308 233l330 330l76 -76l-330 -330z" />
    <glyph glyph-name="uni229C" unicode="&#x229c;" 
d="M883 360q0 -159 -107.5 -265.5t-264.5 -106.5t-264.5 106.5t-107.5 265.5t107.5 265.5t264.5 106.5t264.5 -106.5t107.5 -265.5zM216 360q0 -129 85 -215t210 -86t210 86t85 215t-85 215t-210 86t-210 -86t-85 -215zM722 496v-96h-422v96h422zM722 320v-96h-422v96h422z
" />
    <glyph glyph-name="dotmath" unicode="&#x22c5;" horiz-adv-x="572" 
d="M285 166q-42 0 -69 26.5t-27 65.5t27 65.5t69 26.5t69 -26.5t27 -65.5t-27 -65.5t-69 -26.5z" />
    <glyph glyph-name="uni2460" unicode="&#x2460;" 
d="M973 330q0 -201 -135 -334.5t-333 -133.5t-333 133.5t-135 334.5t135 334.5t333 133.5t333 -133.5t135 -334.5zM896 330q0 170 -113 283.5t-278 113.5t-278 -113.5t-113 -283.5t113 -283.5t278 -113.5t278 113.5t113 283.5zM419 402l-12 86l111 52h81l-75 -419h-101
l54 308z" />
    <glyph glyph-name="uni2461" unicode="&#x2461;" 
d="M973 330q0 -201 -135 -334.5t-333 -133.5t-333 133.5t-135 334.5t135 334.5t333 133.5t333 -133.5t135 -334.5zM896 330q0 170 -113 283.5t-278 113.5t-278 -113.5t-113 -283.5t113 -283.5t278 -113.5t278 113.5t113 283.5zM560 417q0 43 -48 43q-57 0 -110 -53l-13 87
q54 54 140 54q62 0 97.5 -33t35.5 -88q0 -58 -41 -109t-127 -115h138l-14 -82h-294l13 73q123 82 173 134t50 89z" />
    <glyph glyph-name="uni2462" unicode="&#x2462;" 
d="M973 330q0 -201 -135 -334.5t-333 -133.5t-333 133.5t-135 334.5t135 334.5t333 133.5t333 -133.5t135 -334.5zM896 330q0 170 -113 283.5t-278 113.5t-278 -113.5t-113 -283.5t113 -283.5t278 -113.5t278 113.5t113 283.5zM537 548q62 0 100 -27t38 -77q0 -79 -95 -111
q69 -24 69 -91q0 -59 -47.5 -93.5t-129.5 -34.5q-81 0 -145 33l38 78q58 -30 104 -30q74 0 74 51q0 47 -82 47q-10 0 -44 -2l12 75q144 0 144 58q0 39 -51 39q-44 0 -107 -33l-7 85q60 33 129 33z" />
    <glyph glyph-name="uni2463" unicode="&#x2463;" 
d="M973 330q0 -201 -135 -334.5t-333 -133.5t-333 133.5t-135 334.5t135 334.5t333 133.5t333 -133.5t135 -334.5zM896 330q0 170 -113 283.5t-278 113.5t-278 -113.5t-113 -283.5t113 -283.5t278 -113.5t278 113.5t113 283.5zM283 200l13 77l216 263h125l-46 -259h60
l-14 -81h-60l-14 -79h-99l14 79h-195zM398 281h94l27 147z" />
    <glyph glyph-name="uni2464" unicode="&#x2464;" 
d="M973 330q0 -201 -135 -334.5t-333 -133.5t-333 133.5t-135 334.5t135 334.5t333 133.5t333 -133.5t135 -334.5zM896 330q0 170 -113 283.5t-278 113.5t-278 -113.5t-113 -283.5t113 -283.5t278 -113.5t278 113.5t113 283.5zM547 259q0 55 -81 55q-46 0 -98 -14l51 240
h259l-15 -84h-164l-15 -66q8 1 21 1q67 0 105.5 -34t38.5 -95q0 -69 -49 -108.5t-131 -39.5q-76 0 -146 33l37 79q62 -31 104 -31q40 0 61.5 17.5t21.5 46.5z" />
    <glyph glyph-name="uni2465" unicode="&#x2465;" 
d="M973 330q0 -201 -135 -334.5t-333 -133.5t-333 133.5t-135 334.5t135 334.5t333 133.5t333 -133.5t135 -334.5zM896 330q0 170 -113 283.5t-278 113.5t-278 -113.5t-113 -283.5t113 -283.5t278 -113.5t278 113.5t113 283.5zM548 548q75 0 122 -31l-38 -81q-49 26 -86 26
q-82 0 -106 -94q36 35 88 35q55 0 87.5 -35.5t32.5 -94.5q0 -72 -45 -115.5t-112 -43.5q-70 0 -113 50t-43 140q0 104 56 174t157 70zM500 323q-31 0 -66 -31q3 -99 59 -99q26 0 42 20t16 51q0 59 -51 59z" />
    <glyph glyph-name="uni2466" unicode="&#x2466;" 
d="M973 330q0 -201 -135 -334.5t-333 -133.5t-333 133.5t-135 334.5t135 334.5t333 133.5t333 -133.5t135 -334.5zM896 330q0 170 -113 283.5t-278 113.5t-278 -113.5t-113 -283.5t113 -283.5t278 -113.5t278 113.5t113 283.5zM392 453l16 87h283l-15 -82
q-87 -133 -195 -337h-117q109 209 192 332h-164z" />
    <glyph glyph-name="uni2467" unicode="&#x2467;" 
d="M973 330q0 -201 -135 -334.5t-333 -133.5t-333 133.5t-135 334.5t135 334.5t333 133.5t333 -133.5t135 -334.5zM896 330q0 170 -113 283.5t-278 113.5t-278 -113.5t-113 -283.5t113 -283.5t278 -113.5t278 113.5t113 283.5zM482 114q-72 0 -114 30.5t-42 83.5
q0 74 101 112q-49 30 -49 86q0 55 42.5 88.5t112.5 33.5q64 0 101.5 -29t37.5 -79q0 -68 -81 -101q65 -37 65 -97q0 -58 -48 -93t-126 -35zM476 431q0 -28 46 -53q52 23 52 57q0 39 -45 39q-23 0 -38 -11.5t-15 -31.5zM486 184q29 0 48.5 14t19.5 39q0 37 -58 65
q-33 -13 -50.5 -28.5t-17.5 -41.5q0 -48 58 -48z" />
    <glyph glyph-name="uni2468" unicode="&#x2468;" 
d="M973 330q0 -201 -135 -334.5t-333 -133.5t-333 133.5t-135 334.5t135 334.5t333 133.5t333 -133.5t135 -334.5zM896 330q0 170 -113 283.5t-278 113.5t-278 -113.5t-113 -283.5t113 -283.5t278 -113.5t278 113.5t113 283.5zM465 114q-74 0 -121 31l38 77q50 -27 86 -27
q85 0 105 99q-37 -36 -87 -36q-55 0 -87.5 35.5t-32.5 95.5q0 72 45 115.5t112 43.5q70 0 113 -50.5t43 -140.5q0 -103 -56.5 -173t-157.5 -70zM514 335q31 0 66 31q-3 99 -59 99q-26 0 -42.5 -20t-16.5 -51q0 -59 52 -59z" />
    <glyph glyph-name="uni2469" unicode="&#x2469;" 
d="M973 330q0 -201 -135 -334.5t-333 -133.5t-333 133.5t-135 334.5t135 334.5t333 133.5t333 -133.5t135 -334.5zM896 330q0 170 -113 283.5t-278 113.5t-278 -113.5t-113 -283.5t113 -283.5t278 -113.5t278 113.5t113 283.5zM606 195q40 0 63.5 48.5t23.5 118.5
q0 101 -55 101q-40 0 -63.5 -49t-23.5 -118q0 -101 55 -101zM599 114q-68 0 -109 48t-41 136q0 103 54 176.5t142 73.5q68 0 109 -48t41 -136q0 -104 -54 -177t-142 -73zM259 402l-12 86l111 52h81l-75 -419h-101l54 308z" />
    <glyph glyph-name="uni246A" unicode="&#x246a;" 
d="M973 330q0 -201 -135 -334.5t-333 -133.5t-333 133.5t-135 334.5t135 334.5t333 133.5t333 -133.5t135 -334.5zM896 330q0 170 -113 283.5t-278 113.5t-278 -113.5t-113 -283.5t113 -283.5t278 -113.5t278 113.5t113 283.5zM545 402l-12 86l111 52h81l-75 -419h-101
l54 308zM296 402l-12 86l111 52h81l-75 -419h-101l54 308z" />
    <glyph glyph-name="uni246B" unicode="&#x246b;" 
d="M973 330q0 -201 -135 -334.5t-333 -133.5t-333 133.5t-135 334.5t135 334.5t333 133.5t333 -133.5t135 -334.5zM896 330q0 170 -113 283.5t-278 113.5t-278 -113.5t-113 -283.5t113 -283.5t278 -113.5t278 113.5t113 283.5zM266 402l-12 86l111 52h81l-75 -419h-101
l54 308zM670 417q0 43 -48 43q-57 0 -110 -53l-13 87q54 54 140 54q62 0 97.5 -33t35.5 -88q0 -58 -41 -109t-127 -115h138l-14 -82h-294l13 73q123 82 173 134t50 89z" />
    <glyph glyph-name="uni246C" unicode="&#x246c;" 
d="M973 330q0 -201 -135 -334.5t-333 -133.5t-333 133.5t-135 334.5t135 334.5t333 133.5t333 -133.5t135 -334.5zM896 330q0 170 -113 283.5t-278 113.5t-278 -113.5t-113 -283.5t113 -283.5t278 -113.5t278 113.5t113 283.5zM266 402l-12 86l111 52h81l-75 -419h-101
l54 308zM637 548q62 0 100 -27t38 -77q0 -79 -95 -111q69 -24 69 -91q0 -59 -47.5 -93.5t-129.5 -34.5q-81 0 -145 33l38 78q58 -30 104 -30q74 0 74 51q0 47 -82 47q-10 0 -44 -2l12 75q144 0 144 58q0 39 -51 39q-44 0 -107 -33l-7 85q60 33 129 33z" />
    <glyph glyph-name="uni246D" unicode="&#x246d;" 
d="M973 330q0 -201 -135 -334.5t-333 -133.5t-333 133.5t-135 334.5t135 334.5t333 133.5t333 -133.5t135 -334.5zM896 330q0 170 -113 283.5t-278 113.5t-278 -113.5t-113 -283.5t113 -283.5t278 -113.5t278 113.5t113 283.5zM424 200l13 77l216 263h125l-46 -259h60
l-14 -81h-60l-14 -79h-99l14 79h-195zM539 281h94l27 147zM266 402l-12 86l111 52h81l-75 -419h-101l54 308z" />
    <glyph glyph-name="uni246E" unicode="&#x246e;" 
d="M973 330q0 -201 -135 -334.5t-333 -133.5t-333 133.5t-135 334.5t135 334.5t333 133.5t333 -133.5t135 -334.5zM896 330q0 170 -113 283.5t-278 113.5t-278 -113.5t-113 -283.5t113 -283.5t278 -113.5t278 113.5t113 283.5zM653 259q0 55 -81 55q-46 0 -98 -14l51 240
h259l-15 -84h-164l-15 -66q8 1 21 1q67 0 105.5 -34t38.5 -95q0 -69 -49 -108.5t-131 -39.5q-76 0 -146 33l37 79q62 -31 104 -31q40 0 61.5 17.5t21.5 46.5zM266 402l-12 86l111 52h81l-75 -419h-101l54 308z" />
    <glyph glyph-name="uni246F" unicode="&#x246f;" 
d="M973 330q0 -201 -135 -334.5t-333 -133.5t-333 133.5t-135 334.5t135 334.5t333 133.5t333 -133.5t135 -334.5zM896 330q0 170 -113 283.5t-278 113.5t-278 -113.5t-113 -283.5t113 -283.5t278 -113.5t278 113.5t113 283.5zM668 548q75 0 122 -31l-38 -81q-49 26 -86 26
q-82 0 -106 -94q36 35 88 35q55 0 87.5 -35.5t32.5 -94.5q0 -72 -45 -115.5t-112 -43.5q-70 0 -113 50t-43 140q0 104 56 174t157 70zM620 323q-31 0 -66 -31q3 -99 59 -99q26 0 42 20t16 51q0 59 -51 59zM266 402l-12 86l111 52h81l-75 -419h-101l54 308z" />
    <glyph glyph-name="uni2470" unicode="&#x2470;" 
d="M973 330q0 -201 -135 -334.5t-333 -133.5t-333 133.5t-135 334.5t135 334.5t333 133.5t333 -133.5t135 -334.5zM896 330q0 170 -113 283.5t-278 113.5t-278 -113.5t-113 -283.5t113 -283.5t278 -113.5t278 113.5t113 283.5zM503 453l16 87h283l-15 -82
q-87 -133 -195 -337h-117q109 209 192 332h-164zM281 402l-12 86l111 52h81l-75 -419h-101l54 308z" />
    <glyph glyph-name="uni2471" unicode="&#x2471;" 
d="M973 330q0 -201 -135 -334.5t-333 -133.5t-333 133.5t-135 334.5t135 334.5t333 133.5t333 -133.5t135 -334.5zM896 330q0 170 -113 283.5t-278 113.5t-278 -113.5t-113 -283.5t113 -283.5t278 -113.5t278 113.5t113 283.5zM266 402l-12 86l111 52h81l-75 -419h-101
l54 308zM592 114q-72 0 -114 30.5t-42 83.5q0 74 101 112q-49 30 -49 86q0 55 42.5 88.5t112.5 33.5q64 0 101.5 -29t37.5 -79q0 -68 -81 -101q65 -37 65 -97q0 -58 -48 -93t-126 -35zM586 431q0 -28 46 -53q52 23 52 57q0 39 -45 39q-23 0 -38 -11.5t-15 -31.5zM596 184
q29 0 48.5 14t19.5 39q0 37 -58 65q-33 -13 -50.5 -28.5t-17.5 -41.5q0 -48 58 -48z" />
    <glyph glyph-name="uni2472" unicode="&#x2472;" 
d="M973 330q0 -201 -135 -334.5t-333 -133.5t-333 133.5t-135 334.5t135 334.5t333 133.5t333 -133.5t135 -334.5zM896 330q0 170 -113 283.5t-278 113.5t-278 -113.5t-113 -283.5t113 -283.5t278 -113.5t278 113.5t113 283.5zM579 114q-74 0 -121 31l38 77q50 -27 86 -27
q85 0 105 99q-37 -36 -87 -36q-55 0 -87.5 35.5t-32.5 95.5q0 72 45 115.5t112 43.5q70 0 113 -50.5t43 -140.5q0 -103 -56.5 -173t-157.5 -70zM628 335q31 0 66 31q-3 99 -59 99q-26 0 -42.5 -20t-16.5 -51q0 -59 52 -59zM266 402l-12 86l111 52h81l-75 -419h-101l54 308z
" />
    <glyph glyph-name="uni2473" unicode="&#x2473;" 
d="M973 330q0 -201 -135 -334.5t-333 -133.5t-333 133.5t-135 334.5t135 334.5t333 133.5t333 -133.5t135 -334.5zM896 330q0 170 -113 283.5t-278 113.5t-278 -113.5t-113 -283.5t113 -283.5t278 -113.5t278 113.5t113 283.5zM664 194q39 0 62 49t23 118q0 101 -54 101
q-38 0 -61 -49t-23 -118q0 -101 53 -101zM658 113q-66 0 -105.5 48t-39.5 136q0 103 52 176.5t136 73.5q66 0 105.5 -48t39.5 -136q0 -104 -52 -177t-136 -73zM409 416q0 43 -46 43q-55 0 -106 -53l-13 87q52 54 135 54q60 0 94 -33t34 -88q0 -58 -39.5 -109t-122.5 -115
h133l-14 -82h-282l12 73q118 82 166.5 134t48.5 89z" />
    <glyph glyph-name="uni24EA" unicode="&#x24ea;" 
d="M973 330q0 -201 -135 -334.5t-333 -133.5t-333 133.5t-135 334.5t135 334.5t333 133.5t333 -133.5t135 -334.5zM896 330q0 170 -113 283.5t-278 113.5t-278 -113.5t-113 -283.5t113 -283.5t278 -113.5t278 113.5t113 283.5zM489 195q40 0 63.5 48.5t23.5 118.5
q0 101 -55 101q-40 0 -63.5 -49t-23.5 -118q0 -101 55 -101zM482 114q-68 0 -109 48t-41 136q0 103 54 176.5t142 73.5q68 0 109 -48t41 -136q0 -104 -54 -177t-142 -73z" />
    <glyph glyph-name="uni24EB" unicode="&#x24eb;" 
d="M973 330q0 -201 -135 -334.5t-333 -133.5t-333 133.5t-135 334.5t135 334.5t333 133.5t333 -133.5t135 -334.5zM541 488l12 -86l58 27l-54 -308h101l75 419h-81zM277 488l12 -86l58 27l-54 -308h101l75 419h-81z" />
    <glyph glyph-name="uni24EC" unicode="&#x24ec;" 
d="M973 330q0 -201 -135 -334.5t-333 -133.5t-333 133.5t-135 334.5t135 334.5t333 133.5t333 -133.5t135 -334.5zM246 488l12 -86l58 27l-54 -308h101l75 419h-81zM677 417q0 -37 -50 -89t-173 -134l-13 -73h294l14 82h-138q86 64 127 115t41 109q0 55 -35.5 88t-97.5 33
q-86 0 -140 -54l13 -87q53 53 110 53q48 0 48 -43z" />
    <glyph glyph-name="uni24ED" unicode="&#x24ed;" 
d="M973 330q0 -201 -135 -334.5t-333 -133.5t-333 133.5t-135 334.5t135 334.5t333 133.5t333 -133.5t135 -334.5zM246 488l12 -86l58 27l-54 -308h101l75 419h-81zM644 548q-69 0 -129 -33l7 -85q63 33 107 33q51 0 51 -39q0 -58 -144 -58l-12 -75q34 2 44 2q82 0 82 -47
q0 -51 -74 -51q-46 0 -104 30l-38 -78q64 -33 145 -33q82 0 129.5 34.5t47.5 93.5q0 67 -69 91q95 32 95 111q0 50 -38 77t-100 27z" />
    <glyph glyph-name="uni24EE" unicode="&#x24ee;" 
d="M973 330q0 -201 -135 -334.5t-333 -133.5t-333 133.5t-135 334.5t135 334.5t333 133.5t333 -133.5t135 -334.5zM445 277l-13 -77h195l-14 -79h99l14 79h60l14 81h-60l46 259h-125zM641 281h-94l121 147zM246 488l12 -86l58 27l-54 -308h101l75 419h-81z" />
    <glyph glyph-name="uni24EF" unicode="&#x24ef;" 
d="M973 330q0 -201 -135 -334.5t-333 -133.5t-333 133.5t-135 334.5t135 334.5t333 133.5t333 -133.5t135 -334.5zM660 259q0 -29 -21.5 -46.5t-61.5 -17.5q-42 0 -104 31l-37 -79q70 -33 146 -33q82 0 131 39.5t49 108.5q0 61 -38.5 95t-105.5 34q-13 0 -21 -1l15 66h164
l15 84h-259l-51 -240q52 14 98 14q81 0 81 -55zM246 488l12 -86l58 27l-54 -308h101l75 419h-81z" />
    <glyph glyph-name="uni24F0" unicode="&#x24f0;" 
d="M973 330q0 -201 -135 -334.5t-333 -133.5t-333 133.5t-135 334.5t135 334.5t333 133.5t333 -133.5t135 -334.5zM676 548q-101 0 -157 -70t-56 -174q0 -90 43 -140t113 -50q67 0 112 43.5t45 115.5q0 59 -32.5 94.5t-87.5 35.5q-52 0 -88 -35q24 94 106 94q37 0 86 -26
l38 81q-47 31 -122 31zM628 323q51 0 51 -59q0 -31 -16 -51t-42 -20q-56 0 -59 99q35 31 66 31zM246 488l12 -86l58 27l-54 -308h101l75 419h-81z" />
    <glyph glyph-name="uni24F1" unicode="&#x24f1;" 
d="M973 330q0 -201 -135 -334.5t-333 -133.5t-333 133.5t-135 334.5t135 334.5t333 133.5t333 -133.5t135 -334.5zM527 540l-16 -87h164q-83 -123 -192 -332h117q108 204 195 337l15 82h-283zM262 488l12 -86l58 27l-54 -308h101l75 419h-81z" />
    <glyph glyph-name="uni24F2" unicode="&#x24f2;" 
d="M973 330q0 -201 -135 -334.5t-333 -133.5t-333 133.5t-135 334.5t135 334.5t333 133.5t333 -133.5t135 -334.5zM246 488l12 -86l58 27l-54 -308h101l75 419h-81zM599 114q78 0 126 35t48 93q0 60 -65 97q81 33 81 101q0 50 -37.5 79t-101.5 29q-70 0 -112.5 -33.5
t-42.5 -88.5q0 -56 49 -86q-101 -38 -101 -112q0 -53 42 -83.5t114 -30.5zM593 431q0 20 15 31.5t38 11.5q45 0 45 -39q0 -34 -52 -57q-46 25 -46 53zM603 184q-58 0 -58 48q0 26 17.5 41.5t50.5 28.5q58 -28 58 -65q0 -25 -19.5 -39t-48.5 -14z" />
    <glyph glyph-name="uni24F3" unicode="&#x24f3;" 
d="M973 330q0 -201 -135 -334.5t-333 -133.5t-333 133.5t-135 334.5t135 334.5t333 133.5t333 -133.5t135 -334.5zM586 114q101 0 157.5 70t56.5 173q0 90 -43 140.5t-113 50.5q-67 0 -112 -43.5t-45 -115.5q0 -60 32.5 -95.5t87.5 -35.5q50 0 87 36q-20 -99 -105 -99
q-36 0 -86 27l-38 -77q47 -31 121 -31zM635 335q-52 0 -52 59q0 31 16.5 51t42.5 20q56 0 59 -99q-35 -31 -66 -31zM246 488l12 -86l58 27l-54 -308h101l75 419h-81z" />
    <glyph glyph-name="uni24F4" unicode="&#x24f4;" 
d="M973 330q0 -201 -135 -334.5t-333 -133.5t-333 133.5t-135 334.5t135 334.5t333 133.5t333 -133.5t135 -334.5zM669 195q-55 0 -55 101q0 69 23.5 118t63.5 49q55 0 55 -101q0 -70 -23.5 -118.5t-63.5 -48.5zM662 114q88 0 142 73t54 177q0 88 -41 136t-109 48
q-88 0 -142 -73.5t-54 -176.5q0 -88 41 -136t109 -48zM391 417q0 -37 -50 -89t-173 -134l-13 -73h294l14 82h-138q86 64 127 115t41 109q0 55 -35.5 88t-97.5 33q-86 0 -140 -54l13 -87q53 53 110 53q48 0 48 -43z" />
    <glyph glyph-name="filledbox" unicode="&#x25a0;" 
d="M160 0v720h720v-720h-720z" />
    <glyph glyph-name="uni25A1" unicode="&#x25a1;" 
d="M160 0v720h720v-720h-720zM278 602v-484h484v484h-484z" />
    <glyph glyph-name="triagup" unicode="&#x25b2;" horiz-adv-x="584" 
d="M302 542l255 -442h-510z" />
    <glyph glyph-name="triagrt" unicode="&#x25ba;" horiz-adv-x="584" 
d="M552 309l-442 -255v510z" />
    <glyph glyph-name="triagdn" unicode="&#x25bc;" horiz-adv-x="584" 
d="M557 518l-255 -442l-255 442h510z" />
    <glyph glyph-name="triaglf" unicode="&#x25c4;" horiz-adv-x="584" 
d="M494 54l-442 255l442 255v-510z" />
    <glyph glyph-name="uni25C6" unicode="&#x25c6;" 
d="M146 360l372 372l372 -372l-372 -372z" />
    <glyph glyph-name="uni25C7" unicode="&#x25c7;" 
d="M518 566l-206 -206l206 -206l206 206zM146 360l372 372l372 -372l-372 -372z" />
    <glyph glyph-name="lozenge" unicode="&#x25ca;" horiz-adv-x="584" 
d="M365 0h-110l-201 360l201 360h110l201 -360zM446 360l-136 243l-136 -243l136 -243z" />
    <glyph glyph-name="circle" unicode="&#x25cb;" 
d="M883 360q0 -159 -107.5 -265.5t-264.5 -106.5t-264.5 106.5t-107.5 265.5t107.5 265.5t264.5 106.5t264.5 -106.5t107.5 -265.5zM765 360q0 108 -73 181t-181 73t-181 -73t-73 -181t73 -181t181 -73t181 73t73 181z" />
    <glyph glyph-name="uni25CF" unicode="&#x25cf;" 
d="M883 360q0 -159 -107.5 -265.5t-264.5 -106.5t-264.5 106.5t-107.5 265.5t107.5 265.5t264.5 106.5t264.5 -106.5t107.5 -265.5z" />
    <glyph glyph-name="uni2605" unicode="&#x2605;" 
d="M437 459l91 282l91 -282h294l-239 -173l92 -279l-238 172l-238 -172l92 279l-239 173h294z" />
    <glyph glyph-name="uni272D" unicode="&#x272d;" 
d="M437 459l91 282l91 -282h294l-239 -173l92 -279l-238 172l-238 -172l92 279l-239 173h294zM528 513l-40 -124h-129l105 -76l-39 -123l103 75l103 -75l-39 123l106 76h-130z" />
    <glyph glyph-name="uni2756" unicode="&#x2756;" horiz-adv-x="994" 
d="M146 360l161 161l162 -161l-162 -161zM356 149l162 162l161 -162l-161 -161zM357 571l161 161l161 -161l-161 -162zM567 360l162 161l161 -161l-161 -161z" />
    <glyph glyph-name="uni2767" unicode="&#x2767;" horiz-adv-x="1315" 
d="M174 110l-153 27q4 20 8 35t16 46t26.5 53.5t41.5 51t60 46.5t81.5 30.5t106.5 12.5q77 0 139 -21.5t104 -53.5t80 -64.5t87 -59t105 -33.5v7q-47 16 -84.5 44t-63.5 57t-54.5 58t-73.5 54t-104 38q0 69 50 110.5t126 41.5q54 0 94 -23t63.5 -60t42.5 -81.5t37 -89
t39.5 -81.5t57.5 -60t85 -23q77 0 154 48l11 -160q-85 -44 -187 -44q-105 0 -176 46q-143 -74 -288 -74q-116 0 -175 47.5t-59 127.5q0 61 34 101q-33 11 -60 11q-39 0 -71 -17t-52 -44t-31.5 -53t-16.5 -51z" />
    <glyph glyph-name="uni2780" unicode="&#x2780;" 
d="M973 330q0 -201 -135 -334.5t-333 -133.5t-333 133.5t-135 334.5t135 334.5t333 133.5t333 -133.5t135 -334.5zM896 330q0 170 -113 283.5t-278 113.5t-278 -113.5t-113 -283.5t113 -283.5t278 -113.5t278 113.5t113 283.5zM419 402l-12 86l111 52h81l-75 -419h-101
l54 308z" />
    <glyph glyph-name="uni2781" unicode="&#x2781;" 
d="M973 330q0 -201 -135 -334.5t-333 -133.5t-333 133.5t-135 334.5t135 334.5t333 133.5t333 -133.5t135 -334.5zM896 330q0 170 -113 283.5t-278 113.5t-278 -113.5t-113 -283.5t113 -283.5t278 -113.5t278 113.5t113 283.5zM560 417q0 43 -48 43q-57 0 -110 -53l-13 87
q54 54 140 54q62 0 97.5 -33t35.5 -88q0 -58 -41 -109t-127 -115h138l-14 -82h-294l13 73q123 82 173 134t50 89z" />
    <glyph glyph-name="uni2782" unicode="&#x2782;" 
d="M973 330q0 -201 -135 -334.5t-333 -133.5t-333 133.5t-135 334.5t135 334.5t333 133.5t333 -133.5t135 -334.5zM896 330q0 170 -113 283.5t-278 113.5t-278 -113.5t-113 -283.5t113 -283.5t278 -113.5t278 113.5t113 283.5zM537 548q62 0 100 -27t38 -77q0 -79 -95 -111
q69 -24 69 -91q0 -59 -47.5 -93.5t-129.5 -34.5q-81 0 -145 33l38 78q58 -30 104 -30q74 0 74 51q0 47 -82 47q-10 0 -44 -2l12 75q144 0 144 58q0 39 -51 39q-44 0 -107 -33l-7 85q60 33 129 33z" />
    <glyph glyph-name="uni2783" unicode="&#x2783;" 
d="M973 330q0 -201 -135 -334.5t-333 -133.5t-333 133.5t-135 334.5t135 334.5t333 133.5t333 -133.5t135 -334.5zM896 330q0 170 -113 283.5t-278 113.5t-278 -113.5t-113 -283.5t113 -283.5t278 -113.5t278 113.5t113 283.5zM283 200l13 77l216 263h125l-46 -259h60
l-14 -81h-60l-14 -79h-99l14 79h-195zM398 281h94l27 147z" />
    <glyph glyph-name="uni2784" unicode="&#x2784;" 
d="M973 330q0 -201 -135 -334.5t-333 -133.5t-333 133.5t-135 334.5t135 334.5t333 133.5t333 -133.5t135 -334.5zM896 330q0 170 -113 283.5t-278 113.5t-278 -113.5t-113 -283.5t113 -283.5t278 -113.5t278 113.5t113 283.5zM547 259q0 55 -81 55q-46 0 -98 -14l51 240
h259l-15 -84h-164l-15 -66q8 1 21 1q67 0 105.5 -34t38.5 -95q0 -69 -49 -108.5t-131 -39.5q-76 0 -146 33l37 79q62 -31 104 -31q40 0 61.5 17.5t21.5 46.5z" />
    <glyph glyph-name="uni2785" unicode="&#x2785;" 
d="M973 330q0 -201 -135 -334.5t-333 -133.5t-333 133.5t-135 334.5t135 334.5t333 133.5t333 -133.5t135 -334.5zM896 330q0 170 -113 283.5t-278 113.5t-278 -113.5t-113 -283.5t113 -283.5t278 -113.5t278 113.5t113 283.5zM548 548q75 0 122 -31l-38 -81q-49 26 -86 26
q-82 0 -106 -94q36 35 88 35q55 0 87.5 -35.5t32.5 -94.5q0 -72 -45 -115.5t-112 -43.5q-70 0 -113 50t-43 140q0 104 56 174t157 70zM500 323q-31 0 -66 -31q3 -99 59 -99q26 0 42 20t16 51q0 59 -51 59z" />
    <glyph glyph-name="uni2786" unicode="&#x2786;" 
d="M973 330q0 -201 -135 -334.5t-333 -133.5t-333 133.5t-135 334.5t135 334.5t333 133.5t333 -133.5t135 -334.5zM896 330q0 170 -113 283.5t-278 113.5t-278 -113.5t-113 -283.5t113 -283.5t278 -113.5t278 113.5t113 283.5zM392 453l16 87h283l-15 -82
q-87 -133 -195 -337h-117q109 209 192 332h-164z" />
    <glyph glyph-name="uni2787" unicode="&#x2787;" 
d="M973 330q0 -201 -135 -334.5t-333 -133.5t-333 133.5t-135 334.5t135 334.5t333 133.5t333 -133.5t135 -334.5zM896 330q0 170 -113 283.5t-278 113.5t-278 -113.5t-113 -283.5t113 -283.5t278 -113.5t278 113.5t113 283.5zM482 114q-72 0 -114 30.5t-42 83.5
q0 74 101 112q-49 30 -49 86q0 55 42.5 88.5t112.5 33.5q64 0 101.5 -29t37.5 -79q0 -68 -81 -101q65 -37 65 -97q0 -58 -48 -93t-126 -35zM476 431q0 -28 46 -53q52 23 52 57q0 39 -45 39q-23 0 -38 -11.5t-15 -31.5zM486 184q29 0 48.5 14t19.5 39q0 37 -58 65
q-33 -13 -50.5 -28.5t-17.5 -41.5q0 -48 58 -48z" />
    <glyph glyph-name="uni2788" unicode="&#x2788;" 
d="M973 330q0 -201 -135 -334.5t-333 -133.5t-333 133.5t-135 334.5t135 334.5t333 133.5t333 -133.5t135 -334.5zM896 330q0 170 -113 283.5t-278 113.5t-278 -113.5t-113 -283.5t113 -283.5t278 -113.5t278 113.5t113 283.5zM465 114q-74 0 -121 31l38 77q50 -27 86 -27
q85 0 105 99q-37 -36 -87 -36q-55 0 -87.5 35.5t-32.5 95.5q0 72 45 115.5t112 43.5q70 0 113 -50.5t43 -140.5q0 -103 -56.5 -173t-157.5 -70zM514 335q31 0 66 31q-3 99 -59 99q-26 0 -42.5 -20t-16.5 -51q0 -59 52 -59z" />
    <glyph glyph-name="uni2789" unicode="&#x2789;" 
d="M973 330q0 -201 -135 -334.5t-333 -133.5t-333 133.5t-135 334.5t135 334.5t333 133.5t333 -133.5t135 -334.5zM896 330q0 170 -113 283.5t-278 113.5t-278 -113.5t-113 -283.5t113 -283.5t278 -113.5t278 113.5t113 283.5zM606 195q40 0 63.5 48.5t23.5 118.5
q0 101 -55 101q-40 0 -63.5 -49t-23.5 -118q0 -101 55 -101zM599 114q-68 0 -109 48t-41 136q0 103 54 176.5t142 73.5q68 0 109 -48t41 -136q0 -104 -54 -177t-142 -73zM259 402l-12 86l111 52h81l-75 -419h-101l54 308z" />
    <glyph glyph-name="uni278A" unicode="&#x278a;" 
d="M973 330q0 -201 -135 -334.5t-333 -133.5t-333 133.5t-135 334.5t135 334.5t333 133.5t333 -133.5t135 -334.5zM408 488l12 -86l58 27l-54 -308h101l75 419h-81z" />
    <glyph glyph-name="uni278B" unicode="&#x278b;" 
d="M973 330q0 -201 -135 -334.5t-333 -133.5t-333 133.5t-135 334.5t135 334.5t333 133.5t333 -133.5t135 -334.5zM561 417q0 -37 -50 -89t-173 -134l-13 -73h294l14 82h-138q86 64 127 115t41 109q0 55 -35.5 88t-97.5 33q-86 0 -140 -54l13 -87q53 53 110 53q48 0 48 -43z
" />
    <glyph glyph-name="uni278C" unicode="&#x278c;" 
d="M973 330q0 -201 -135 -334.5t-333 -133.5t-333 133.5t-135 334.5t135 334.5t333 133.5t333 -133.5t135 -334.5zM537 548q-69 0 -129 -33l7 -85q63 33 107 33q51 0 51 -39q0 -58 -144 -58l-12 -75q34 2 44 2q82 0 82 -47q0 -51 -74 -51q-46 0 -104 30l-38 -78
q64 -33 145 -33q82 0 129.5 34.5t47.5 93.5q0 67 -69 91q95 32 95 111q0 50 -38 77t-100 27z" />
    <glyph glyph-name="uni278D" unicode="&#x278d;" 
d="M973 330q0 -201 -135 -334.5t-333 -133.5t-333 133.5t-135 334.5t135 334.5t333 133.5t333 -133.5t135 -334.5zM296 277l-13 -77h195l-14 -79h99l14 79h60l14 81h-60l46 259h-125zM492 281h-94l121 147z" />
    <glyph glyph-name="uni278E" unicode="&#x278e;" 
d="M973 330q0 -201 -135 -334.5t-333 -133.5t-333 133.5t-135 334.5t135 334.5t333 133.5t333 -133.5t135 -334.5zM547 259q0 -29 -21.5 -46.5t-61.5 -17.5q-42 0 -104 31l-37 -79q70 -33 146 -33q82 0 131 39.5t49 108.5q0 61 -38.5 95t-105.5 34q-13 0 -21 -1l15 66h164
l15 84h-259l-51 -240q52 14 98 14q81 0 81 -55z" />
    <glyph glyph-name="uni278F" unicode="&#x278f;" 
d="M973 330q0 -201 -135 -334.5t-333 -133.5t-333 133.5t-135 334.5t135 334.5t333 133.5t333 -133.5t135 -334.5zM548 548q-101 0 -157 -70t-56 -174q0 -90 43 -140t113 -50q67 0 112 43.5t45 115.5q0 59 -32.5 94.5t-87.5 35.5q-52 0 -88 -35q24 94 106 94q37 0 86 -26
l38 81q-47 31 -122 31zM500 323q51 0 51 -59q0 -31 -16 -51t-42 -20q-56 0 -59 99q35 31 66 31z" />
    <glyph glyph-name="uni2790" unicode="&#x2790;" 
d="M973 330q0 -201 -135 -334.5t-333 -133.5t-333 133.5t-135 334.5t135 334.5t333 133.5t333 -133.5t135 -334.5zM408 540l-16 -87h164q-83 -123 -192 -332h117q108 204 195 337l15 82h-283z" />
    <glyph glyph-name="uni2791" unicode="&#x2791;" 
d="M973 330q0 -201 -135 -334.5t-333 -133.5t-333 133.5t-135 334.5t135 334.5t333 133.5t333 -133.5t135 -334.5zM482 114q78 0 126 35t48 93q0 60 -65 97q81 33 81 101q0 50 -37.5 79t-101.5 29q-70 0 -112.5 -33.5t-42.5 -88.5q0 -56 49 -86q-101 -38 -101 -112
q0 -53 42 -83.5t114 -30.5zM476 431q0 20 15 31.5t38 11.5q45 0 45 -39q0 -34 -52 -57q-46 25 -46 53zM486 184q-58 0 -58 48q0 26 17.5 41.5t50.5 28.5q58 -28 58 -65q0 -25 -19.5 -39t-48.5 -14z" />
    <glyph glyph-name="uni2792" unicode="&#x2792;" 
d="M973 330q0 -201 -135 -334.5t-333 -133.5t-333 133.5t-135 334.5t135 334.5t333 133.5t333 -133.5t135 -334.5zM465 114q101 0 157.5 70t56.5 173q0 90 -43 140.5t-113 50.5q-67 0 -112 -43.5t-45 -115.5q0 -60 32.5 -95.5t87.5 -35.5q50 0 87 36q-20 -99 -105 -99
q-36 0 -86 27l-38 -77q47 -31 121 -31zM514 335q-52 0 -52 59q0 31 16.5 51t42.5 20q56 0 59 -99q-35 -31 -66 -31z" />
    <glyph glyph-name="uni2793" unicode="&#x2793;" 
d="M973 330q0 -201 -135 -334.5t-333 -133.5t-333 133.5t-135 334.5t135 334.5t333 133.5t333 -133.5t135 -334.5zM614 195q-55 0 -55 101q0 69 23.5 118t63.5 49q55 0 55 -101q0 -70 -23.5 -118.5t-63.5 -48.5zM607 114q88 0 142 73t54 177q0 88 -41 136t-109 48
q-88 0 -142 -73.5t-54 -176.5q0 -88 41 -136t109 -48zM240 488l12 -86l58 27l-54 -308h101l75 419h-81z" />
    <glyph glyph-name="uni2B24" unicode="&#x2b24;" 
d="M973 330q0 -201 -135 -334.5t-333 -133.5t-333 133.5t-135 334.5t135 334.5t333 133.5t333 -133.5t135 -334.5z" />
    <glyph glyph-name="uniFB00" unicode="&#xfb00;" horiz-adv-x="652" 
d="M274 392l-69 -392h-161l69 392h-73l21 118h73l12 69q12 71 55.5 109t134.5 38q40 0 79 -6l-20 -114q-19 4 -34 4q-30 0 -41.5 -14t-17.5 -46l-7 -40h145l12 69q12 71 55.5 109t134.5 38q40 0 79 -6l-20 -114q-19 4 -34 4q-30 0 -41.5 -14t-17.5 -46l-7 -40h84l-21 -118
h-84l-69 -392h-161l69 392h-145z" />
    <glyph glyph-name="fi" unicode="&#xfb01;" horiz-adv-x="618" 
d="M40 392l21 118h73l12 69q12 71 55.5 109t134.5 38q38 0 75 -6l-20 -114q-16 4 -31 4q-28 0 -40 -14t-18 -46l-7 -40h80l-21 -118h-80l-69 -392h-161l69 392h-73zM344 0l90 510h161l-90 -510h-161zM628 652q0 -37 -24.5 -60.5t-65.5 -23.5t-66 23.5t-25 60.5t25 60.5
t66 23.5t65.5 -23.5t24.5 -60.5z" />
    <glyph glyph-name="fl" unicode="&#xfb02;" horiz-adv-x="618" 
d="M344 0l127 720h161l-127 -720h-161zM40 392l21 118h73l12 69q12 71 55.5 109t134.5 38q38 0 75 -6l-20 -114q-16 4 -31 4q-28 0 -40 -14t-18 -46l-7 -40h80l-21 -118h-80l-69 -392h-161l69 392h-73z" />
    <glyph glyph-name="uniFB03" unicode="&#xfb03;" horiz-adv-x="924" 
d="M274 392l-69 -392h-161l69 392h-73l21 118h73l12 69q12 71 55.5 109t134.5 38q40 0 79 -6l-20 -114q-19 4 -34 4q-30 0 -41.5 -14t-17.5 -46l-7 -40h145l12 69q12 71 55.5 109t134.5 38q38 0 75 -6l-20 -114q-16 4 -31 4q-28 0 -40 -14t-18 -46l-7 -40h80l-21 -118h-80
l-69 -392h-161l69 392h-145zM650 0l90 510h161l-90 -510h-161zM934 652q0 -37 -24.5 -60.5t-65.5 -23.5t-66 23.5t-25 60.5t25 60.5t66 23.5t65.5 -23.5t24.5 -60.5z" />
    <glyph glyph-name="uniFB04" unicode="&#xfb04;" horiz-adv-x="924" 
d="M274 392l-69 -392h-161l69 392h-73l21 118h73l12 69q12 71 55.5 109t134.5 38q40 0 79 -6l-20 -114q-19 4 -34 4q-30 0 -41.5 -14t-17.5 -46l-7 -40h145l12 69q12 71 55.5 109t134.5 38q38 0 75 -6l-20 -114q-16 4 -31 4q-28 0 -40 -14t-18 -46l-7 -40h80l-21 -118h-80
l-69 -392h-161l69 392h-145zM650 0l127 720h161l-127 -720h-161z" />
    <glyph glyph-name="uniFEFF" unicode="&#xfeff;" horiz-adv-x="0" 
 />
    <glyph glyph-name="u1F415" unicode="&#x1f415;" 
d="M643 298q0 44 31 75t75 31q11 0 23 -3q10 19 23 41h100q27 0 52 42l-123 85l16 82l-82 -55l-82 57l16 -80q-49 -75 -113 -139h-37q-9 -52 -49.5 -86t-94.5 -34t-95 35t-49 88q-49 9 -79.5 40t-36.5 71q-12 -20 -12 -52q0 -88 87 -138q-45 -198 -45 -229q0 -23 36 -71
t67 -48q22 0 42 13q-57 78 -57 106q0 18 14.5 36t30.5 30t54 38h287v-104q0 -23 36 -71t67 -48q22 0 42 13q-57 78 -57 106v64q-38 7 -62.5 36.5t-24.5 68.5zM772 539q0 5 4.5 9.5t10.5 4.5q5 0 9.5 -4.5t4.5 -9.5q0 -6 -4.5 -10.5t-9.5 -4.5q-6 0 -10.5 4.5t-4.5 10.5z
M294 454h277q51 51 99 123l-18 93q0 13 9 13q5 0 9 -3l88 -60l88 60q4 3 9 3q9 0 9 -13l-18 -93l127 -87q-13 -25 -20 -36t-22.5 -21.5t-35.5 -10.5h-89q-56 -96 -56 -133v-160q0 -26 65 -110q-35 -29 -70 -29q-37 0 -80 56.5t-43 82.5v84h-262q-33 -23 -46.5 -32.5
t-25.5 -24t-12 -27.5q0 -26 65 -110q-35 -29 -70 -29q-37 0 -80 56.5t-43 82.5q0 37 42 220q-84 50 -84 147q0 33 12.5 61t26.5 28q9 0 9 -9q0 -50 39 -86t101 -36z" />
    <glyph glyph-name="u1F4AC" unicode="&#x1f4ac;" 
d="M922 381q0 -100 -65 -175t-186 -104q16 -83 80 -147q-68 0 -149.5 35t-124.5 97q-169 11 -261 92.5t-92 201.5q0 128 104.5 211.5t294.5 83.5t294.5 -83.5t104.5 -211.5z" />
    <glyph glyph-name="uni0306.alt001" horiz-adv-x="1" 
d="M-223 636q74 0 90 84h105q-14 -79 -60.5 -120t-138.5 -41q-83 0 -124.5 32.5t-41.5 91.5q0 14 4 37h106q-2 -8 -2 -24q0 -60 62 -60z" />
    <glyph glyph-name="dollar.subs" horiz-adv-x="357" 
d="M74 -168l11 63q-63 4 -121 34l39 83q60 -30 113 -30q34 0 54.5 12t20.5 33t-27 37t-59 26.5t-59 39t-27 71.5q0 55 39 92.5t105 44.5l9 52h65l-9 -52q55 -7 102 -34l-40 -85q-52 31 -97 31q-28 0 -47 -11.5t-19 -29.5q0 -19 27 -33t59.5 -24.5t59.5 -39.5t27 -74
q0 -57 -40 -95.5t-110 -46.5l-11 -64h-65z" />
    <glyph glyph-name="comma.subs" horiz-adv-x="198" 
d="M-24 -47q0 25 16.5 41t43.5 16q32 0 52 -23.5t20 -62.5q-4 -83 -132 -143l-37 52q70 28 89 64q-24 3 -38 18t-14 38z" />
    <glyph glyph-name="hyphen.subs" horiz-adv-x="256" 
d="M-5 52l12 71h195l-12 -71h-195z" />
    <glyph glyph-name="period.subs" horiz-adv-x="198" 
d="M108 -52q0 -26 -18.5 -44t-45.5 -18t-45.5 18t-18.5 44t18.5 44t45.5 18t45.5 -18t18.5 -44z" />
    <glyph glyph-name="n.subs" horiz-adv-x="364" 
d="M-23 -106l56 316h107l-7 -41q44 49 102 49q32 0 55 -18.5t23 -59.5q0 -16 -3 -32l-38 -214h-108l36 197q1 7 1 10q0 26 -23 26q-28 0 -58 -30l-36 -203h-107z" />
    <glyph glyph-name="cent.subs" horiz-adv-x="300" 
d="M267 203l-35 -76q-12 7 -23 11l-72 -169h7q32 0 67 19l7 -75q-37 -20 -90 -20q-16 0 -23 1l-38 -89h-54l43 101q-75 32 -75 127q0 81 52.5 136.5t139.5 55.5q13 0 19 -1l33 77h54l-38 -87zM82 38q0 -31 13 -49l67 156q-37 -3 -58.5 -34t-21.5 -73z" />
    <glyph glyph-name="sterling.subs" horiz-adv-x="315" 
d="M166 84l-6 -23q-16 -59 -53 -87q33 -7 56 -7q40 0 71 18l5 -81q-34 -18 -87 -18q-24 1 -65.5 9.5t-60.5 8.5q-38 0 -71 -19l-6 81q45 14 70.5 38t37.5 69l3 11h-73l11 63h80l27 97q15 54 47 79t102 25q31 0 43 -4l-13 -77q-17 4 -28 4q-22 0 -32.5 -11t-17.5 -34l-22 -79
h78l-11 -63h-85z" />
    <glyph glyph-name="yen.subs" horiz-adv-x="381" 
d="M8 57l11 63h74l-72 220h103l48 -165l106 165h112l-151 -220h75l-11 -63h-94l-6 -33h94l-11 -63h-94l-12 -67h-107l12 67h-94l11 63h94l6 33h-94z" />
    <glyph glyph-name="florin.subs" horiz-adv-x="303" 
d="M-13 84l11 63h80l27 97q15 54 47 79t102 25q31 0 43 -4l-13 -77q-17 4 -28 4q-22 0 -32.5 -11t-17.5 -34l-22 -79h78l-11 -63h-85l-53 -190h-106l53 190h-73z" />
    <glyph glyph-name="Euro.subs" horiz-adv-x="388" 
d="M-7 131l11 63h56q27 70 81.5 112t129.5 42q59 0 108 -30l-39 -84q-41 27 -73 27q-65 0 -99 -67h116l-11 -63h-126q-2 -11 -4 -33h124l-11 -63h-110q13 -66 70 -66q39 0 85 28l9 -82q-49 -28 -109 -28q-67 0 -108.5 37.5t-51.5 110.5h-65l11 63h52q2 22 4 33h-50z" />
    <glyph glyph-name="uni20B1.subs" horiz-adv-x="436" 
d="M-6 156l11 63h50l21 121h140q147 0 159 -121h40l-11 -63h-34q-14 -56 -62.5 -86.5t-125.5 -30.5h-50l-26 -145h-108l46 262h-50zM144 111h27q78 0 96 45h-116zM170 265l-8 -46h111q-9 46 -65 46h-38z" />
    <glyph glyph-name="uni20B4.subs" horiz-adv-x="348" 
d="M-29 131l11 63h226q10 12 10 28q0 39 -53 39q-50 0 -103 -33l-9 88q62 32 129 32q66 0 105.5 -31.5t39.5 -88.5q0 -14 -4 -34h21l-11 -63h-59q-20 -15 -75 -33h128l-12 -63h-230q-5 -10 -5 -21q0 -45 64 -45q53 0 116 33l10 -83q-71 -32 -143 -32q-73 0 -114.5 31
t-41.5 92q0 17 2 25h-19l11 63h46q17 15 62 33h-102z" />
    <glyph glyph-name="dollar.sups" horiz-adv-x="357" 
d="M159 318l11 63q-63 4 -121 34l39 83q60 -30 113 -30q34 0 54.5 12t20.5 33t-27 37t-59 26.5t-59 39t-27 71.5q0 55 39 92.5t105 44.5l9 52h65l-9 -52q55 -7 102 -34l-40 -85q-52 31 -97 31q-28 0 -47 -11.5t-19 -29.5q0 -19 27 -33t59.5 -24.5t59.5 -39.5t27 -74
q0 -57 -40 -95.5t-110 -46.5l-11 -64h-65z" />
    <glyph glyph-name="comma.sups" horiz-adv-x="198" 
d="M62 439q0 25 16.5 41t43.5 16q32 0 52 -23.5t20 -62.5q-4 -83 -132 -143l-37 52q70 28 89 64q-24 3 -38 18t-14 38z" />
    <glyph glyph-name="hyphen.sups" horiz-adv-x="256" 
d="M81 538l12 71h195l-12 -71h-195z" />
    <glyph glyph-name="period.sups" horiz-adv-x="198" 
d="M193 434q0 -26 -18.5 -44t-45.5 -18t-45.5 18t-18.5 44t18.5 44t45.5 18t45.5 -18t18.5 -44z" />
    <glyph glyph-name="a.sups" horiz-adv-x="369" 
d="M213 455q23 0 45 23l21 120q-21 18 -41 18q-29 0 -47.5 -29t-18.5 -71q0 -61 41 -61zM247 400v12q-32 -40 -82 -40q-45 0 -72.5 34.5t-27.5 99.5q0 82 43 140t108 58q45 0 78 -38l6 30h104l-43 -243q-8 -44 -8 -58q0 -11 2 -15h-104q-4 8 -4 20z" />
    <glyph glyph-name="b.sups" horiz-adv-x="372" 
d="M141 826h107l-29 -162q34 40 84 40q46 0 74.5 -35t28.5 -100q0 -82 -43.5 -139.5t-109.5 -57.5q-47 0 -83 40l-5 -32h-103zM256 616q-26 0 -50 -23l-21 -120q18 -18 41 -18q33 0 53 28.5t20 70.5q0 62 -43 62z" />
    <glyph glyph-name="d.sups" horiz-adv-x="372" 
d="M218 704q46 0 80 -37l28 159h107l-66 -373q-8 -44 -8 -58q0 -11 2 -15h-104q-4 6 -4 20v12q-34 -40 -85 -40q-46 0 -74.5 34.5t-28.5 99.5q0 82 44 140t109 58zM216 455q25 0 48 23l21 120q-19 18 -42 18q-32 0 -51.5 -29t-19.5 -71q0 -61 44 -61z" />
    <glyph glyph-name="e.sups" horiz-adv-x="343" 
d="M255 704q60 0 92 -27t32 -71q0 -51 -46 -80t-137 -29h-22q8 -49 62 -49q45 0 96 22l6 -74q-57 -24 -120 -24q-73 0 -112.5 36t-39.5 105q0 82 52 136.5t137 54.5zM248 630q-24 0 -43.5 -19.5t-27.5 -52.5h15q89 0 89 43q0 12 -8.5 20.5t-24.5 8.5z" />
    <glyph glyph-name="h.sups" horiz-adv-x="368" 
d="M62 380l79 446h107l-30 -171q44 49 102 49q32 0 55 -18.5t23 -59.5q0 -16 -3 -32l-38 -214h-108l36 197q1 7 1 10q0 26 -23 26q-28 0 -58 -30l-36 -203h-107z" />
    <glyph glyph-name="l.sups" horiz-adv-x="195" 
d="M66 380l79 446h107l-79 -446h-107z" />
    <glyph glyph-name="m.sups" horiz-adv-x="541" 
d="M169 380h-107l56 316h107l-7 -41q44 49 95 49q64 0 74 -56q49 56 107 56q31 0 53.5 -18.5t22.5 -60.5q0 -16 -3 -31l-38 -214h-107l35 197q2 12 2 17q0 19 -21 19q-25 0 -53 -30l-36 -203h-107l35 197q2 12 2 17q0 19 -21 19q-25 0 -53 -30z" />
    <glyph glyph-name="o.sups" horiz-adv-x="356" 
d="M208 372q-63 0 -102 37.5t-39 107.5q0 81 50.5 134t127.5 53q63 0 102 -37.5t39 -107.5q0 -81 -50.5 -134t-127.5 -53zM214 446q28 0 46.5 33t18.5 79q0 68 -40 68q-28 0 -46.5 -33t-18.5 -79q0 -68 40 -68z" />
    <glyph glyph-name="p.sups" horiz-adv-x="372" 
d="M255 616q-25 0 -49 -23l-21 -121q17 -17 40 -17q34 0 54 28.5t20 70.5q0 62 -44 62zM39 250l79 446h107l-6 -32q32 40 84 40q47 0 75 -34.5t28 -99.5q0 -83 -44 -140.5t-109 -57.5q-46 0 -80 37l-27 -159h-107z" />
    <glyph glyph-name="r.sups" horiz-adv-x="255" 
d="M203 572l-34 -192h-107l56 316h107l-9 -52q31 60 84 60q16 0 27 -4l-16 -93q-18 3 -26 3q-44 0 -82 -38z" />
    <glyph glyph-name="s.sups" horiz-adv-x="299" 
d="M344 678l-33 -77q-42 23 -77 23q-38 0 -38 -22q0 -11 19.5 -19.5t42.5 -15.5t42.5 -28t19.5 -55q0 -52 -42 -82t-112 -30q-68 0 -120 26l32 75q55 -25 91 -25q21 0 34 7.5t13 18.5q0 12 -19 21t-42.5 16.5t-42.5 29t-19 54.5q0 49 38.5 79t101.5 30q55 0 111 -26z" />
    <glyph glyph-name="t.sups" horiz-adv-x="234" 
d="M74 617l14 80h42l19 105h107l-19 -105h56l-14 -80h-56l-22 -125q-1 -7 -1 -13q0 -13 5 -17.5t17 -4.5q11 0 29 4l-14 -78q-29 -8 -55 -8q-92 0 -92 71q0 26 5 51l21 120h-42z" />
    <glyph glyph-name="u.sups" horiz-adv-x="367" 
d="M408 696l-56 -316h-107l7 41q-44 -49 -102 -49q-32 0 -55 18.5t-23 59.5q0 16 3 32l38 214h108l-37 -201q-1 -7 -1 -10q0 -26 23 -26q28 0 58 30l37 207h107z" />
    <glyph glyph-name="cent.sups" horiz-adv-x="300" 
d="M353 689l-35 -76q-12 7 -23 11l-72 -169h7q32 0 67 19l7 -75q-37 -20 -90 -20q-16 0 -23 1l-38 -89h-54l43 101q-75 32 -75 127q0 81 52.5 136.5t139.5 55.5q13 0 19 -1l33 77h54l-38 -87zM168 524q0 -31 13 -49l67 156q-37 -3 -58.5 -34t-21.5 -73z" />
    <glyph glyph-name="sterling.sups" horiz-adv-x="315" 
d="M252 570l-6 -23q-16 -59 -53 -87q33 -7 56 -7q40 0 71 18l5 -81q-34 -18 -87 -18q-24 1 -65.5 9.5t-60.5 8.5q-38 0 -71 -19l-6 81q45 14 70.5 38t37.5 69l3 11h-73l11 63h80l27 97q15 54 47 79t102 25q31 0 43 -4l-13 -77q-17 4 -28 4q-22 0 -32.5 -11t-17.5 -34
l-22 -79h78l-11 -63h-85z" />
    <glyph glyph-name="yen.sups" horiz-adv-x="381" 
d="M94 543l11 63h74l-72 220h103l48 -165l106 165h112l-151 -220h75l-11 -63h-94l-6 -33h94l-11 -63h-94l-12 -67h-107l12 67h-94l11 63h94l6 33h-94z" />
    <glyph glyph-name="egrave.sups" horiz-adv-x="343" 
d="M325 720h-77l-77 106h104zM255 704q60 0 92 -27t32 -71q0 -51 -46 -80t-137 -29h-22q8 -49 62 -49q45 0 96 22l6 -74q-57 -24 -120 -24q-73 0 -112.5 36t-39.5 105q0 82 52 136.5t137 54.5zM248 630q-24 0 -43.5 -19.5t-27.5 -52.5h15q89 0 89 43q0 12 -8.5 20.5
t-24.5 8.5z" />
    <glyph glyph-name="florin.sups" horiz-adv-x="295" 
d="M73 570l11 63h80l27 97q15 54 47 79t102 25q31 0 43 -4l-13 -77q-17 4 -28 4q-22 0 -32.5 -11t-17.5 -34l-22 -79h78l-11 -63h-85l-53 -190h-106l53 190h-73z" />
    <glyph glyph-name="Euro.sups" horiz-adv-x="388" 
d="M79 617l11 63h56q27 70 81.5 112t129.5 42q59 0 108 -30l-39 -84q-41 27 -73 27q-65 0 -99 -67h116l-11 -63h-126q-2 -11 -4 -33h124l-11 -63h-110q13 -66 70 -66q39 0 85 28l9 -82q-49 -28 -109 -28q-67 0 -108.5 37.5t-51.5 110.5h-65l11 63h52q2 22 4 33h-50z" />
    <glyph glyph-name="uni20B1.sups" horiz-adv-x="436" 
d="M80 642l11 63h50l21 121h140q147 0 159 -121h40l-11 -63h-34q-14 -56 -62.5 -86.5t-125.5 -30.5h-50l-26 -145h-108l46 262h-50zM230 597h27q78 0 96 45h-116zM256 751l-8 -46h111q-9 46 -65 46h-38z" />
    <glyph glyph-name="uni20B4.sups" horiz-adv-x="348" 
d="M57 617l11 63h226q10 12 10 28q0 39 -53 39q-50 0 -103 -33l-9 88q62 32 129 32q66 0 105.5 -31.5t39.5 -88.5q0 -14 -4 -34h21l-11 -63h-59q-20 -15 -75 -33h128l-12 -63h-230q-5 -10 -5 -21q0 -45 64 -45q53 0 116 33l10 -83q-71 -32 -143 -32q-73 0 -114.5 31
t-41.5 92q0 17 2 25h-19l11 63h46q17 15 62 33h-102z" />
    <glyph glyph-name="dollar.numr" horiz-adv-x="357" 
d="M140 212l11 63q-63 4 -121 34l39 83q60 -30 113 -30q34 0 54.5 12t20.5 33t-27 37t-59 26.5t-59 39t-27 71.5q0 55 39 92.5t105 44.5l9 52h65l-9 -52q55 -7 102 -34l-40 -85q-52 31 -97 31q-28 0 -47 -11.5t-19 -29.5q0 -19 27 -33t59.5 -24.5t59.5 -39.5t27 -74
q0 -57 -40 -95.5t-110 -46.5l-11 -64h-65z" />
    <glyph glyph-name="parenleft.numr" horiz-adv-x="237" 
d="M155 403q0 -120 59 -204l-63 -40q-103 103 -103 245q0 62 17.5 115.5t50 94.5t61 67.5t67.5 54.5l55 -50q-144 -113 -144 -283z" />
    <glyph glyph-name="parenright.numr" horiz-adv-x="237" 
d="M149 492q0 120 -59 204l63 40q103 -103 103 -245q0 -62 -17.5 -115.5t-50 -94.5t-61 -67.5t-67.5 -54.5l-55 50q144 113 144 283z" />
    <glyph glyph-name="plus.numr" horiz-adv-x="364" 
d="M228 274h-86l20 116h-108l15 84h108l20 116h86l-20 -116h108l-15 -84h-108z" />
    <glyph glyph-name="comma.numr" horiz-adv-x="198" 
d="M43 333q0 25 16.5 41t43.5 16q32 0 52 -23.5t20 -62.5q-4 -83 -132 -143l-37 52q70 28 89 64q-24 3 -38 18t-14 38z" />
    <glyph glyph-name="hyphen.numr" horiz-adv-x="256" 
d="M62 432l12 71h195l-12 -71h-195z" />
    <glyph glyph-name="period.numr" horiz-adv-x="198" 
d="M174 328q0 -26 -18.5 -44t-45.5 -18t-45.5 18t-18.5 44t18.5 44t45.5 18t45.5 -18t18.5 -44z" />
    <glyph glyph-name="zero.numr" horiz-adv-x="408" 
d="M229 352q42 0 67.5 52.5t25.5 125.5q0 108 -59 108q-42 0 -67.5 -52.5t-25.5 -125.5q0 -108 59 -108zM222 266q-72 0 -116 51t-44 145q0 110 57.5 188t150.5 78q72 0 116 -51t44 -145q0 -110 -57.5 -188t-150.5 -78z" />
    <glyph glyph-name="one.numr" horiz-adv-x="260" 
d="M97 573l-13 91l118 56h86l-79 -446h-108l58 327z" />
    <glyph glyph-name="two.numr" horiz-adv-x="360" 
d="M275 589q0 45 -51 45q-61 0 -117 -56l-14 93q59 57 149 57q66 0 103.5 -35t37.5 -94q0 -62 -43.5 -116t-135.5 -122h147l-15 -87h-312l13 77q131 87 184.5 142.5t53.5 95.5z" />
    <glyph glyph-name="three.numr" horiz-adv-x="353" 
d="M238 728q66 0 106.5 -28.5t40.5 -82.5q0 -83 -101 -118q74 -26 74 -97q0 -63 -51 -99.5t-138 -36.5q-84 0 -154 35l40 83q64 -32 111 -32q38 0 58.5 15t20.5 40q0 50 -87 50q-11 0 -47 -2l13 79q153 0 153 62q0 42 -54 42q-47 0 -114 -35l-8 90q65 35 137 35z" />
    <glyph glyph-name="four.numr" horiz-adv-x="401" 
d="M33 358l14 82l230 280h133l-49 -276h64l-15 -86h-64l-15 -84h-105l15 84h-208zM155 444h101l28 156z" />
    <glyph glyph-name="five.numr" horiz-adv-x="348" 
d="M255 421q0 58 -86 58q-49 0 -104 -15l54 256h276l-16 -90h-175l-15 -70q8 1 22 1q71 0 112 -36t41 -101q0 -74 -52 -116t-140 -42q-79 0 -155 35l40 84q64 -32 110 -32q43 0 65.5 18t22.5 50z" />
    <glyph glyph-name="six.numr" horiz-adv-x="381" 
d="M289 728q78 0 129 -33l-40 -86q-52 28 -92 28q-88 0 -112 -100q39 37 93 37q59 0 93.5 -37.5t34.5 -101.5q0 -77 -48 -123t-119 -46q-75 0 -120.5 53.5t-45.5 149.5q0 111 60 185t167 74zM237 489q-31 0 -70 -33q3 -106 63 -106q27 0 44.5 21t17.5 55q0 30 -14.5 46.5
t-40.5 16.5z" />
    <glyph glyph-name="seven.numr" horiz-adv-x="312" 
d="M70 627l17 93h302l-16 -88q-93 -140 -208 -358h-124q115 221 204 353h-175z" />
    <glyph glyph-name="eight.numr" horiz-adv-x="374" 
d="M202 266q-76 0 -121 32.5t-45 89.5q0 45 29 72.5t79 46.5q-52 32 -52 91q0 58 45 94t119 36q69 0 109 -31t40 -84q0 -72 -87 -107q69 -40 69 -103q0 -62 -51 -99.5t-134 -37.5zM197 604q0 -31 48 -57q55 24 55 61q0 41 -48 41q-24 0 -39.5 -12t-15.5 -33zM207 341
q31 0 51.5 14.5t20.5 41.5q0 24 -16 39t-46 30q-35 -14 -53.5 -30.5t-18.5 -43.5q0 -51 62 -51z" />
    <glyph glyph-name="nine.numr" horiz-adv-x="381" 
d="M177 266q-78 0 -129 33l40 82q52 -28 92 -28q90 0 112 105q-39 -38 -93 -38q-59 0 -93.5 37.5t-34.5 101.5q0 77 48 123t119 46q75 0 120.5 -53.5t45.5 -149.5q0 -111 -60 -185t-167 -74zM229 501q31 0 70 33q-3 106 -63 106q-27 0 -44.5 -21t-17.5 -55q0 -30 14.5 -46.5
t40.5 -16.5z" />
    <glyph glyph-name="equal.numr" horiz-adv-x="364" 
d="M359 406l-13 -75h-302l13 75h302zM381 532l-13 -75h-302l13 75h302z" />
    <glyph glyph-name="n.numr" horiz-adv-x="368" 
d="M44 274l56 316h107l-7 -41q44 49 102 49q32 0 55 -18.5t23 -59.5q0 -16 -3 -32l-38 -214h-108l36 197q1 7 1 10q0 26 -23 26q-28 0 -58 -30l-36 -203h-107z" />
    <glyph glyph-name="cent.numr" horiz-adv-x="300" 
d="M334 583l-35 -76q-12 7 -23 11l-72 -169h7q32 0 67 19l7 -75q-37 -20 -90 -20q-16 0 -23 1l-38 -89h-54l43 101q-75 32 -75 127q0 81 52.5 136.5t139.5 55.5q13 0 19 -1l33 77h54l-38 -87zM149 418q0 -31 13 -49l67 156q-37 -3 -58.5 -34t-21.5 -73z" />
    <glyph glyph-name="sterling.numr" horiz-adv-x="315" 
d="M233 464l-6 -23q-16 -59 -53 -87q33 -7 56 -7q40 0 71 18l5 -81q-34 -18 -87 -18q-24 1 -65.5 9.5t-60.5 8.5q-38 0 -71 -19l-6 81q45 14 70.5 38t37.5 69l3 11h-73l11 63h80l27 97q15 54 47 79t102 25q31 0 43 -4l-13 -77q-17 4 -28 4q-22 0 -32.5 -11t-17.5 -34
l-22 -79h78l-11 -63h-85z" />
    <glyph glyph-name="yen.numr" horiz-adv-x="381" 
d="M75 437l11 63h74l-72 220h103l48 -165l106 165h112l-151 -220h75l-11 -63h-94l-6 -33h94l-11 -63h-94l-12 -67h-107l12 67h-94l11 63h94l6 33h-94z" />
    <glyph glyph-name="florin.numr" horiz-adv-x="303" 
d="M54 464l11 63h80l27 97q15 54 47 79t102 25q31 0 43 -4l-13 -77q-17 4 -28 4q-22 0 -32.5 -11t-17.5 -34l-22 -79h78l-11 -63h-85l-53 -190h-106l53 190h-73z" />
    <glyph glyph-name="Euro.numr" horiz-adv-x="388" 
d="M60 511l11 63h56q27 70 81.5 112t129.5 42q59 0 108 -30l-39 -84q-41 27 -73 27q-66 0 -99 -67h116l-11 -63h-126q-2 -11 -4 -33h124l-11 -63h-110q13 -66 70 -66q39 0 85 28l9 -82q-49 -28 -109 -28q-67 0 -108.5 37.5t-51.5 110.5h-65l11 63h52q2 22 4 33h-50z" />
    <glyph glyph-name="uni20B1.numr" horiz-adv-x="436" 
d="M61 536l11 63h50l21 121h140q147 0 159 -121h40l-11 -63h-34q-14 -56 -62.5 -86.5t-125.5 -30.5h-50l-26 -145h-108l46 262h-50zM211 491h27q78 0 96 45h-116zM237 645l-8 -46h111q-9 46 -65 46h-38z" />
    <glyph glyph-name="uni20B4.numr" horiz-adv-x="348" 
d="M38 511l11 63h226q10 12 10 28q0 39 -53 39q-50 0 -103 -33l-9 88q62 32 129 32q66 0 105.5 -31.5t39.5 -88.5q0 -14 -4 -34h21l-11 -63h-59q-20 -15 -75 -33h128l-12 -63h-230q-5 -10 -5 -21q0 -45 64 -45q53 0 116 33l10 -83q-71 -32 -143 -32q-73 0 -114.5 31
t-41.5 92q0 17 2 25h-19l11 63h46q17 15 62 33h-102z" />
    <glyph glyph-name="minus.numr" horiz-adv-x="364" 
d="M371 474l-15 -84h-302l15 84h302z" />
    <glyph glyph-name="dollar.dnom" horiz-adv-x="357" 
d="M92 -62l11 63q-63 4 -121 34l39 83q60 -30 113 -30q34 0 54.5 12t20.5 33t-27 37t-59 26.5t-59 39t-27 71.5q0 55 39 92.5t105 44.5l9 52h65l-9 -52q55 -7 102 -34l-40 -85q-52 31 -97 31q-28 0 -47 -11.5t-19 -29.5q0 -19 27 -33t59.5 -24.5t59.5 -39.5t27 -74
q0 -57 -40 -95.5t-110 -46.5l-11 -64h-65z" />
    <glyph glyph-name="parenleft.dnom" horiz-adv-x="237" 
d="M107 129q0 -120 59 -204l-63 -40q-103 103 -103 245q0 62 17.5 115.5t50 94.5t61 67.5t67.5 54.5l55 -50q-144 -113 -144 -283z" />
    <glyph glyph-name="parenright.dnom" horiz-adv-x="237" 
d="M101 218q0 120 -59 204l63 40q103 -103 103 -245q0 -62 -17.5 -115.5t-50 -94.5t-61 -67.5t-67.5 -54.5l-55 50q144 113 144 283z" />
    <glyph glyph-name="plus.dnom" horiz-adv-x="364" 
d="M180 0h-86l20 116h-108l15 84h108l20 116h86l-20 -116h108l-15 -84h-108z" />
    <glyph glyph-name="comma.dnom" horiz-adv-x="198" 
d="M-5 59q0 25 16.5 41t43.5 16q32 0 52 -23.5t20 -62.5q-4 -83 -132 -143l-37 52q70 28 89 64q-24 3 -38 18t-14 38z" />
    <glyph glyph-name="hyphen.dnom" horiz-adv-x="256" 
d="M14 158l12 71h195l-12 -71h-195z" />
    <glyph glyph-name="period.dnom" horiz-adv-x="198" 
d="M126 54q0 -26 -18.5 -44t-45.5 -18t-45.5 18t-18.5 44t18.5 44t45.5 18t45.5 -18t18.5 -44z" />
    <glyph glyph-name="zero.dnom" horiz-adv-x="408" 
d="M181 78q42 0 67.5 52.5t25.5 125.5q0 108 -59 108q-42 0 -67.5 -52.5t-25.5 -125.5q0 -108 59 -108zM174 -8q-72 0 -116 51t-44 145q0 110 57.5 188t150.5 78q72 0 116 -51t44 -145q0 -110 -57.5 -188t-150.5 -78z" />
    <glyph glyph-name="one.dnom" horiz-adv-x="260" 
d="M49 299l-13 91l118 56h86l-79 -446h-108l58 327z" />
    <glyph glyph-name="two.dnom" horiz-adv-x="360" 
d="M227 315q0 45 -51 45q-61 0 -117 -56l-14 93q59 57 149 57q66 0 103.5 -35t37.5 -94q0 -62 -43.5 -116t-135.5 -122h147l-15 -87h-312l13 77q131 87 184.5 142.5t53.5 95.5z" />
    <glyph glyph-name="three.dnom" horiz-adv-x="353" 
d="M190 454q66 0 106.5 -28.5t40.5 -82.5q0 -83 -101 -118q74 -26 74 -97q0 -63 -51 -99.5t-138 -36.5q-84 0 -154 35l40 83q64 -32 111 -32q38 0 58.5 15t20.5 40q0 50 -87 50q-11 0 -47 -2l13 79q153 0 153 62q0 42 -54 42q-47 0 -114 -35l-8 90q65 35 137 35z" />
    <glyph glyph-name="four.dnom" horiz-adv-x="401" 
d="M-15 84l14 82l230 280h133l-49 -276h64l-15 -86h-64l-15 -84h-105l15 84h-208zM107 170h101l28 156z" />
    <glyph glyph-name="five.dnom" horiz-adv-x="348" 
d="M207 147q0 58 -86 58q-49 0 -104 -15l54 256h276l-16 -90h-175l-15 -70q8 1 22 1q71 0 112 -36t41 -101q0 -74 -52 -116t-140 -42q-79 0 -155 35l40 84q64 -32 110 -32q43 0 65.5 18t22.5 50z" />
    <glyph glyph-name="six.dnom" horiz-adv-x="381" 
d="M241 454q78 0 129 -33l-40 -86q-52 28 -92 28q-88 0 -112 -100q39 37 93 37q59 0 93.5 -37.5t34.5 -101.5q0 -77 -48 -123t-119 -46q-75 0 -120.5 53.5t-45.5 149.5q0 111 60 185t167 74zM189 215q-31 0 -70 -33q3 -106 63 -106q27 0 44.5 21t17.5 55q0 30 -14.5 46.5
t-40.5 16.5z" />
    <glyph glyph-name="seven.dnom" horiz-adv-x="312" 
d="M22 353l17 93h302l-16 -88q-93 -140 -208 -358h-124q115 221 204 353h-175z" />
    <glyph glyph-name="eight.dnom" horiz-adv-x="374" 
d="M154 -8q-76 0 -121 32.5t-45 89.5q0 45 29 72.5t79 46.5q-52 32 -52 91q0 58 45 94t119 36q69 0 109 -31t40 -84q0 -72 -87 -107q69 -40 69 -103q0 -62 -51 -99.5t-134 -37.5zM149 330q0 -31 48 -57q55 24 55 61q0 41 -48 41q-24 0 -39.5 -12t-15.5 -33zM159 67
q31 0 51.5 14.5t20.5 41.5q0 24 -16 39t-46 30q-35 -14 -53.5 -30.5t-18.5 -43.5q0 -51 62 -51z" />
    <glyph glyph-name="nine.dnom" horiz-adv-x="381" 
d="M129 -8q-78 0 -129 33l40 82q53 -28 92 -28q90 0 112 105q-39 -38 -93 -38q-59 0 -93.5 37.5t-34.5 101.5q0 77 48 123t119 46q75 0 120.5 -53.5t45.5 -149.5q0 -111 -60 -185t-167 -74zM181 227q31 0 70 33q-3 106 -63 106q-27 0 -44.5 -21t-17.5 -55q0 -30 14.5 -46.5
t40.5 -16.5z" />
    <glyph glyph-name="equal.dnom" horiz-adv-x="364" 
d="M311 132l-13 -75h-302l13 75h302zM333 258l-13 -75h-302l13 75h302z" />
    <glyph glyph-name="n.dnom" horiz-adv-x="368" 
d="M-5 0l56 316h107l-7 -41q44 49 102 49q32 0 55 -18.5t23 -59.5q0 -15 -3 -32l-38 -214h-108l36 197q1 7 1 10q0 26 -23 26q-28 0 -58 -30l-36 -203h-107z" />
    <glyph glyph-name="cent.dnom" horiz-adv-x="300" 
d="M286 309l-35 -76q-12 7 -23 11l-72 -169h7q32 0 67 19l7 -75q-37 -20 -90 -20q-16 0 -23 1l-38 -89h-54l43 101q-75 32 -75 127q0 81 52.5 136.5t139.5 55.5q13 0 19 -1l33 77h54l-38 -87zM101 144q0 -31 13 -49l67 156q-37 -3 -58.5 -34t-21.5 -73z" />
    <glyph glyph-name="sterling.dnom" horiz-adv-x="315" 
d="M185 190l-6 -23q-16 -59 -53 -87q33 -7 56 -7q40 0 71 18l5 -81q-34 -18 -87 -18q-24 1 -65.5 9.5t-60.5 8.5q-38 0 -71 -19l-6 81q45 14 70.5 38t37.5 69l3 11h-73l11 63h80l27 97q15 54 47 79t102 25q31 0 43 -4l-13 -77q-17 4 -28 4q-22 0 -32.5 -11t-17.5 -34
l-22 -79h78l-11 -63h-85z" />
    <glyph glyph-name="yen.dnom" horiz-adv-x="381" 
d="M27 163l11 63h74l-72 220h103l48 -165l106 165h112l-151 -220h75l-11 -63h-94l-6 -33h94l-11 -63h-94l-12 -67h-107l12 67h-94l11 63h94l6 33h-94z" />
    <glyph glyph-name="florin.dnom" horiz-adv-x="303" 
d="M6 190l11 63h80l27 97q15 54 47 79t102 25q31 0 43 -4l-13 -77q-17 4 -28 4q-22 0 -32.5 -11t-17.5 -34l-22 -79h78l-11 -63h-85l-53 -190h-106l53 190h-73z" />
    <glyph glyph-name="Euro.dnom" horiz-adv-x="388" 
d="M12 237l11 63h56q27 70 81.5 112t129.5 42q59 0 108 -30l-39 -84q-41 27 -73 27q-66 0 -99 -67h116l-11 -63h-126q-2 -11 -4 -33h124l-11 -63h-110q13 -66 70 -66q39 0 85 28l9 -82q-49 -28 -109 -28q-67 0 -108.5 37.5t-51.5 110.5h-65l11 63h52q2 22 4 33h-50z" />
    <glyph glyph-name="uni20B1.dnom" horiz-adv-x="436" 
d="M13 262l11 63h50l21 121h140q147 0 159 -121h40l-11 -63h-34q-14 -56 -62.5 -86.5t-125.5 -30.5h-50l-26 -145h-108l46 262h-50zM163 217h27q78 0 96 45h-116zM189 371l-8 -46h111q-9 46 -65 46h-38z" />
    <glyph glyph-name="uni20B4.dnom" horiz-adv-x="348" 
d="M-10 237l11 63h226q10 12 10 28q0 39 -53 39q-50 0 -103 -33l-9 88q62 32 129 32q66 0 105.5 -31.5t39.5 -88.5q0 -14 -4 -34h21l-11 -63h-59q-20 -15 -75 -33h128l-12 -63h-230q-5 -10 -5 -21q0 -45 64 -45q53 0 116 33l10 -83q-71 -32 -143 -32q-73 0 -114.5 31
t-41.5 92q0 17 2 25h-19l11 63h46q17 15 62 33h-102z" />
    <glyph glyph-name="minus.dnom" horiz-adv-x="364" 
d="M323 200l-15 -84h-302l15 84h302z" />
    <glyph glyph-name="space.frac" horiz-adv-x="44" 
 />
    <glyph glyph-name="dollar.osf" horiz-adv-x="552" 
d="M167 -100l18 102q-102 8 -188 53l58 117q102 -50 176 -50q56 0 91 23t35 58q0 25 -20.5 43.5t-50.5 29.5t-66 26.5t-66 33.5t-50.5 52t-20.5 80q0 83 60.5 140t160.5 69l15 83h98l-15 -83q84 -10 160 -52l-59 -120q-82 48 -153 48q-47 0 -77.5 -20t-30.5 -50
q0 -27 28 -45.5t68.5 -33t81 -33t68.5 -57t28 -93.5q0 -87 -63.5 -146t-169.5 -72l-18 -103h-98z" />
    <glyph glyph-name="zero.osf" horiz-adv-x="587" 
d="M278 113q53 0 87 52t34 124q0 59 -23.5 91t-63.5 32q-53 0 -87 -52t-34 -124q0 -59 23.5 -91t63.5 -32zM269 -12q-106 0 -172.5 65.5t-66.5 178.5q0 128 81 219t209 91q106 0 173 -66t67 -180q0 -127 -81.5 -217.5t-209.5 -90.5z" />
    <glyph glyph-name="one.osf" horiz-adv-x="402" 
d="M77 312l-24 129l185 89h122l-94 -530h-156l63 354z" />
    <glyph glyph-name="two.osf" horiz-adv-x="507" 
d="M473 377q0 -61 -47 -118.5t-163 -137.5h187l-21 -121h-442l19 107q172 97 239 153t67 100q0 51 -66 51q-83 0 -161 -75l-24 133q36 33 91.5 53t117.5 20q94 0 148.5 -45.5t54.5 -119.5z" />
    <glyph glyph-name="three.osf" horiz-adv-x="496" 
d="M-46 -182l7 126q300 0 300 112q0 75 -137 75q-26 0 -66 -3l21 118q230 0 230 99q0 32 -23 49.5t-63 17.5q-66 0 -161 -53l-7 132q89 51 193 51q98 0 160 -44t62 -124q0 -64 -43 -110t-125 -71q128 -37 128 -150q0 -225 -476 -225z" />
    <glyph glyph-name="four.osf" horiz-adv-x="590" 
d="M-28 0l21 113l347 418h195l-72 -411h85l-22 -120h-85l-26 -150h-156l26 150h-313zM147 120h160l44 252z" />
    <glyph glyph-name="five.osf" horiz-adv-x="510" 
d="M-21 -182l8 126q165 1 239.5 40t74.5 98q0 79 -130 79q-70 0 -149 -21l82 390h404l-23 -131h-254l-26 -121q11 1 30 1q105 0 166 -50t61 -142q0 -124 -119.5 -196.5t-363.5 -72.5z" />
    <glyph glyph-name="six.osf" horiz-adv-x="564" 
d="M547 577q-62 -13 -102.5 -24t-89.5 -31t-83.5 -50t-55.5 -70q57 45 130 45q89 0 142.5 -56t53.5 -150q0 -115 -77.5 -184t-187.5 -69t-178 74.5t-68 209.5q0 83 28.5 150.5t74.5 114t114 82t138 57t155 36.5zM302 323q-53 0 -116 -53v-7q0 -77 26.5 -114t71.5 -37
q46 0 76 33t30 84q0 45 -23.5 69.5t-64.5 24.5z" />
    <glyph glyph-name="seven.osf" horiz-adv-x="532" 
d="M187 -150h-189q179 321 334 545h-292l23 135h487l-23 -127q-161 -231 -340 -553z" />
    <glyph glyph-name="eight.osf" horiz-adv-x="578" 
d="M568 521q0 -108 -138 -166q114 -61 114 -161q0 -92 -78 -149t-203 -57q-116 0 -184 50.5t-68 135.5q0 71 46.5 112t130.5 71q-87 55 -87 145q0 84 68.5 137t177.5 53q101 0 161 -46.5t60 -124.5zM383 190q0 34 -23.5 58t-67.5 49q-58 -24 -89 -50t-31 -67q0 -38 26.5 -59
t71.5 -21q49 0 81 24.5t32 65.5zM413 511q0 30 -20 47.5t-53 17.5q-36 0 -60 -19.5t-24 -52.5q0 -28 18 -48t52 -41q42 20 64.5 42t22.5 54z" />
    <glyph glyph-name="nine.osf" horiz-adv-x="564" 
d="M21 -53q63 13 105 24.5t91.5 32.5t84 53t54.5 75q-58 -49 -135 -49q-88 0 -141.5 55.5t-53.5 148.5q0 115 77.5 185t187.5 70t178 -74.5t68 -209.5q0 -83 -28.5 -150.5t-74.5 -114t-114 -82t-138 -57t-155 -36.5zM267 201q52 0 115 52v8q0 77 -26.5 114t-71.5 37
q-46 0 -76 -33t-30 -84q0 -45 23.5 -69.5t65.5 -24.5z" />
    <glyph glyph-name="cent.osf" horiz-adv-x="474" 
d="M478 474l-50 -111q-13 7 -35 17l-113 -266q55 0 114 32l10 -112q-68 -34 -152 -34h-20l-57 -135h-83l65 148q-132 44 -132 202q0 125 82.5 210t218.5 85q16 0 38 -2l50 117h83l-57 -134q14 -5 38 -17zM178 223q0 -59 32 -88l109 256q-65 -4 -103 -52t-38 -116z" />
    <glyph glyph-name="sterling.osf" horiz-adv-x="498" 
d="M155 292h-122l17 96h132l39 136q25 88 73.5 128t156.5 40q43 0 73 -5l-20 -115q-19 4 -43 4q-41 0 -60 -17.5t-30 -57.5l-32 -113h132l-17 -96h-142l-6 -21q-29 -102 -93 -149q68 -14 101 -14q62 0 113 30l9 -121q-48 -29 -139 -29q-39 0 -104 13.5t-94 13.5
q-60 0 -114 -30l-9 122q9 5 30.5 15.5t28.5 14.5t23.5 13t22 13.5t17 13.5t16.5 17t12 19t12 23.5t9 27.5z" />
    <glyph glyph-name="currency.osf" horiz-adv-x="572" 
d="M196 256q0 -37 25.5 -62.5t61.5 -25.5t61.5 25.5t25.5 62.5t-25.5 62.5t-61.5 25.5t-61.5 -25.5t-25.5 -62.5zM457 256q0 -37 -14 -70l75 -76l-88 -88l-79 80q-32 -12 -68 -12q-37 0 -68 12l-79 -80l-88 88l75 76q-14 33 -14 70t14 70l-75 76l88 88l79 -80q32 12 68 12
t68 -12l79 80l88 -88l-75 -76q14 -33 14 -70z" />
    <glyph glyph-name="yen.osf" horiz-adv-x="598" 
d="M65 248l17 96h121l-119 336h149l88 -264l180 264h163l-239 -336h121l-17 -96h-153l-10 -57h153l-17 -96h-153l-16 -95h-158l16 95h-153l17 96h153l10 57h-153z" />
    <glyph glyph-name="section.osf" horiz-adv-x="584" 
d="M382 692q109 0 208 -53l-57 -117q-81 48 -157 48q-99 0 -146 -65q140 -14 223 -86.5t83 -206.5q0 -144 -93 -224t-237 -80q-115 0 -216 53l56 111q84 -47 167 -47q110 0 158 69q-140 15 -223 87t-83 208q0 143 89.5 223t227.5 80zM402 199q0 167 -203 197
q0 -92 54 -137.5t149 -59.5z" />
    <glyph glyph-name="florin.osf" horiz-adv-x="469" 
d="M33 292l17 96h132l39 136q25 88 73.5 128t156.5 40q43 0 73 -5l-20 -115q-19 4 -43 4q-41 0 -60 -17.5t-30 -57.5l-32 -113h132l-17 -96h-142l-82 -292h-157l82 292h-122z" />
    <glyph glyph-name="Euro.osf" horiz-adv-x="594" 
d="M38 365l17 96h89q40 105 121 168t194 63q90 0 167 -46l-58 -125q-63 43 -115 43q-99 0 -150 -103h172l-17 -96h-185q-6 -38 -7 -57h182l-17 -96h-159q19 -102 107 -102q63 0 130 46l14 -123q-73 -45 -168 -45q-99 0 -162 57.5t-78 166.5h-104l17 96h84q2 28 6 57h-80z
" />
    <glyph glyph-name="uni20B1.osf" horiz-adv-x="602" 
d="M24 404l17 96h77l32 180h205q106 0 168.5 -45t71.5 -135h57l-17 -96h-48q-21 -83 -94 -128.5t-189 -45.5h-76l-40 -230h-158l71 404h-77zM248 341h59q95 0 123 63h-171zM287 564l-11 -64h163q-13 64 -92 64h-60z" />
    <glyph glyph-name="uni20B4.osf" horiz-adv-x="589" 
d="M49 365l17 96h347q13 18 13 40q0 62 -80 62q-73 0 -156 -50l-14 130q93 49 195 49q100 0 157.5 -47.5t57.5 -134.5q0 -26 -6 -49h36l-17 -96h-91q-35 -26 -129 -57h210l-17 -96h-355q-6 -14 -6 -31q0 -71 98 -71q77 0 177 51l15 -123q-103 -50 -216 -50
q-109 0 -171.5 47.5t-62.5 140.5q0 24 2 36h-31l17 96h69q28 26 106 57h-165z" />
    <glyph glyph-name="dollar.tf" horiz-adv-x="572" 
d="M176 -100l18 102q-102 8 -188 53l58 117q102 -50 176 -50q56 0 91 23t35 58q0 25 -20.5 43.5t-50.5 29.5t-66 26.5t-66 33.5t-50.5 52t-20.5 80q0 83 60.5 140t160.5 69l15 83h98l-15 -83q84 -10 160 -52l-59 -120q-82 48 -153 48q-47 0 -77.5 -20t-30.5 -50
q0 -27 28 -45.5t68.5 -33t81 -33t68.5 -57t28 -93.5q0 -87 -63.5 -146t-169.5 -72l-18 -103h-98z" />
    <glyph glyph-name="zero.tf" horiz-adv-x="572" 
d="M273 116q60 0 97 83.5t37 198.5q0 161 -80 161q-60 0 -97 -83t-37 -198q0 -162 80 -162zM263 -12q-105 0 -168 77.5t-63 217.5q0 167 85.5 288t219.5 121q105 0 168 -78t63 -217q0 -107 -36.5 -200t-107.5 -151t-161 -58z" />
    <glyph glyph-name="one.tf" horiz-adv-x="572" 
d="M127 440l-24 129l232 111h122l-98 -557h136l-21 -123h-450l22 123h157l67 381z" />
    <glyph glyph-name="two.tf" horiz-adv-x="572" 
d="M385 481q0 35 -21.5 54.5t-62.5 19.5q-92 0 -182 -88l-23 138q40 39 100.5 63t129.5 24q102 0 161 -53t59 -141q0 -91 -69.5 -175t-224.5 -196h246l-22 -127h-486l20 113q210 140 292.5 223t82.5 145z" />
    <glyph glyph-name="three.tf" horiz-adv-x="572" 
d="M15 -32l7 126q300 0 300 112q0 75 -137 75q-25 0 -66 -3l21 118q230 0 230 99q0 32 -23 49.5t-63 17.5q-66 0 -161 -53l-7 132q89 51 193 51q98 0 160 -44t62 -124q0 -64 -43 -110t-125 -71q128 -37 128 -150q0 -225 -476 -225z" />
    <glyph glyph-name="four.tf" horiz-adv-x="572" 
d="M-10 150l21 113l347 418h195l-72 -411h85l-22 -120h-85l-26 -150h-156l26 150h-313zM165 270h160l44 252z" />
    <glyph glyph-name="five.tf" horiz-adv-x="572" 
d="M29 -32l8 126q165 1 239.5 40t74.5 98q0 79 -130 79q-70 0 -149 -21l82 390h404l-23 -131h-254l-26 -121q11 1 30 1q105 0 166 -50t61 -142q0 -124 -119.5 -196.5t-363.5 -72.5z" />
    <glyph glyph-name="six.tf" horiz-adv-x="572" 
d="M555 577q-62 -13 -102.5 -24t-89.5 -31t-83.5 -50t-55.5 -70q57 45 130 45q89 0 142.5 -56t53.5 -150q0 -115 -77.5 -184t-187.5 -69t-178 74.5t-68 209.5q0 83 28.5 150.5t74.5 114t114 82t138 57t155 36.5zM310 323q-53 0 -116 -53v-7q0 -77 26.5 -114t71.5 -37
q46 0 76 33t30 84q0 45 -23.5 69.5t-64.5 24.5z" />
    <glyph glyph-name="seven.tf" horiz-adv-x="572" 
d="M237 0h-189q179 321 334 545h-292l23 135h487l-23 -127q-161 -231 -340 -553z" />
    <glyph glyph-name="eight.tf" horiz-adv-x="572" 
d="M564 521q0 -108 -138 -166q114 -61 114 -161q0 -92 -78 -149t-203 -57q-116 0 -184 50.5t-68 135.5q0 71 46.5 112t130.5 71q-87 55 -87 145q0 84 68.5 137t177.5 53q101 0 161 -46.5t60 -124.5zM379 190q0 34 -23.5 58t-67.5 49q-58 -24 -89 -50t-31 -67q0 -38 26.5 -59
t71.5 -21q49 0 81 24.5t32 65.5zM409 511q0 30 -20 47.5t-53 17.5q-36 0 -60 -19.5t-24 -52.5q0 -28 18 -48t52 -41q42 20 64.5 42t22.5 54z" />
    <glyph glyph-name="nine.tf" horiz-adv-x="572" 
d="M46 97q63 13 105 24.5t91.5 32.5t84 53t54.5 75q-58 -49 -135 -49q-88 0 -141.5 55.5t-53.5 148.5q0 115 77.5 185t187.5 70t178 -74.5t68 -209.5q0 -83 -28.5 -150.5t-74.5 -114t-114 -82t-138 -57t-155 -36.5zM292 351q52 0 115 52v8q0 77 -26.5 114t-71.5 37
q-46 0 -76 -33t-30 -84q0 -45 23.5 -69.5t65.5 -24.5z" />
    <glyph glyph-name="cent.tf" horiz-adv-x="572" 
d="M526 474l-50 -111q-13 7 -35 17l-113 -266q55 0 114 32l10 -112q-68 -34 -152 -34h-20l-57 -135h-83l65 148q-132 44 -132 202q0 125 82.5 210t218.5 85q16 0 38 -2l50 117h83l-57 -134q14 -5 38 -17zM226 223q0 -59 32 -88l109 256q-65 -4 -103 -52t-38 -116z" />
    <glyph glyph-name="sterling.tf" horiz-adv-x="572" 
d="M202 292h-122l17 96h132l39 136q25 88 73.5 128t156.5 40q43 0 73 -5l-20 -115q-19 4 -43 4q-41 0 -60 -17.5t-30 -57.5l-32 -113h132l-17 -96h-142l-6 -21q-29 -102 -93 -149q68 -14 101 -14q62 0 113 30l9 -121q-48 -29 -139 -29q-39 0 -104 13.5t-94 13.5
q-60 0 -114 -30l-9 122q9 5 30.5 15.5t28.5 14.5t23.5 13t22 13.5t17 13.5t16.5 17t12 19t12 23.5t9 27.5z" />
    <glyph glyph-name="currency.tf" horiz-adv-x="572" 
d="M196 256q0 -37 25.5 -62.5t61.5 -25.5t61.5 25.5t25.5 62.5t-25.5 62.5t-61.5 25.5t-61.5 -25.5t-25.5 -62.5zM457 256q0 -37 -14 -70l75 -76l-88 -88l-79 80q-32 -12 -68 -12q-37 0 -68 12l-79 -80l-88 88l75 76q-14 33 -14 70t14 70l-75 76l88 88l79 -80q32 12 68 12
t68 -12l79 80l88 -88l-75 -76q14 -33 14 -70z" />
    <glyph glyph-name="yen.tf" horiz-adv-x="572" 
d="M52 248l17 96h121l-119 336h149l88 -264l180 264h163l-239 -336h121l-17 -96h-153l-10 -57h153l-17 -96h-153l-16 -95h-158l16 95h-153l17 96h153l10 57h-153z" />
    <glyph glyph-name="section.tf" horiz-adv-x="572" 
d="M376 692q109 0 208 -53l-57 -117q-81 48 -157 48q-99 0 -146 -65q140 -14 223 -86.5t83 -206.5q0 -144 -93 -224t-237 -80q-115 0 -216 53l56 111q84 -47 167 -47q110 0 158 69q-140 15 -223 87t-83 208q0 143 89.5 223t227.5 80zM396 199q0 167 -203 197
q0 -92 54 -137.5t149 -59.5z" />
    <glyph glyph-name="florin.tf" horiz-adv-x="572" 
d="M80 292l17 96h132l39 136q25 88 73.5 128t156.5 40q43 0 73 -5l-20 -115q-19 4 -43 4q-41 0 -60 -17.5t-30 -57.5l-32 -113h132l-17 -96h-142l-82 -292h-157l82 292h-122z" />
    <glyph glyph-name="uni2007.tf" horiz-adv-x="572" 
 />
    <glyph glyph-name="Euro.tf" horiz-adv-x="572" 
d="M37 365l17 96h89q40 105 121.5 168t193.5 63q90 0 167 -46l-58 -125q-63 43 -115 43q-99 0 -150 -103h172l-17 -96h-185q-6 -38 -7 -57h182l-17 -96h-159q19 -102 107 -102q63 0 130 46l14 -123q-73 -45 -168 -45q-99 0 -162 57.5t-78 166.5h-104l17 96h84q1 28 6 57h-80
z" />
    <glyph glyph-name="uni20B1.tf" horiz-adv-x="572" 
d="M8 404l17 96h77l32 180h205q106 0 168.5 -45t71.5 -135h57l-17 -96h-48q-21 -83 -94 -128.5t-189 -45.5h-76l-40 -230h-158l71 404h-77zM232 341h59q95 0 123 63h-171zM271 564l-11 -64h163q-13 64 -92 64h-60z" />
    <glyph glyph-name="uni20B4.tf" horiz-adv-x="572" 
d="M31 365l17 96h347q13 18 13 40q0 62 -80 62q-73 0 -156 -50l-14 130q93 49 195 49q100 0 157.5 -47.5t57.5 -134.5q0 -26 -6 -49h36l-17 -96h-91q-35 -26 -129 -57h210l-17 -96h-355q-6 -14 -6 -31q0 -71 98 -71q77 0 177 51l15 -123q-103 -50 -216 -50
q-109 0 -171.5 47.5t-62.5 140.5q0 24 2 36h-31l17 96h69q28 26 106 57h-165z" />
    <glyph glyph-name="dollar.tosf" horiz-adv-x="572" 
d="M176 -100l18 102q-102 8 -188 53l58 117q102 -50 176 -50q56 0 91 23t35 58q0 25 -20.5 43.5t-50.5 29.5t-66 26.5t-66 33.5t-50.5 52t-20.5 80q0 83 60.5 140t160.5 69l15 83h98l-15 -83q84 -10 160 -52l-59 -120q-82 48 -153 48q-47 0 -77.5 -20t-30.5 -50
q0 -27 28 -45.5t68.5 -33t81 -33t68.5 -57t28 -93.5q0 -87 -63.5 -146t-169.5 -72l-18 -103h-98z" />
    <glyph glyph-name="zero.tosf" horiz-adv-x="572" 
d="M271 113q53 0 87 52t34 124q0 59 -23.5 91t-63.5 32q-53 0 -87 -52t-34 -124q0 -59 23.5 -91t63.5 -32zM262 -12q-106 0 -172.5 65.5t-66.5 178.5q0 128 81 219t209 91q106 0 173 -66t67 -180q0 -127 -81.5 -217.5t-209.5 -90.5z" />
    <glyph glyph-name="one.tosf" horiz-adv-x="572" 
d="M100 290l-24 129l232 111h122l-71 -407h136l-21 -123h-450l22 123h157l40 231z" />
    <glyph glyph-name="two.tosf" horiz-adv-x="572" 
d="M502 377q0 -61 -47 -118.5t-163 -137.5h187l-21 -121h-442l19 107q172 97 239 153t67 100q0 51 -66 51q-83 0 -161 -75l-24 133q36 33 91.5 53t117.5 20q94 0 148.5 -45.5t54.5 -119.5z" />
    <glyph glyph-name="three.tosf" horiz-adv-x="572" 
d="M-11 -182l7 126q300 0 300 112q0 75 -137 75q-25 0 -66 -3l21 118q230 0 230 99q0 32 -23 49.5t-63 17.5q-66 0 -161 -53l-7 132q89 51 193 51q98 0 160 -44t62 -124q0 -64 -43 -110t-125 -71q128 -37 128 -150q0 -225 -476 -225z" />
    <glyph glyph-name="four.tosf" horiz-adv-x="572" 
d="M-32 0l21 113l347 418h195l-72 -411h85l-22 -120h-85l-26 -150h-156l26 150h-313zM143 120h160l44 252z" />
    <glyph glyph-name="five.tosf" horiz-adv-x="572" 
d="M3 -182l8 126q165 1 239.5 40t74.5 98q0 79 -130 79q-70 0 -149 -21l82 390h404l-23 -131h-254l-26 -121q11 1 30 1q105 0 166 -50t61 -142q0 -124 -119.5 -196.5t-363.5 -72.5z" />
    <glyph glyph-name="six.tosf" horiz-adv-x="572" 
d="M555 577q-62 -13 -102.5 -24t-89.5 -31t-83.5 -50t-55.5 -70q57 45 130 45q89 0 142.5 -56t53.5 -150q0 -115 -77.5 -184t-187.5 -69t-178 74.5t-68 209.5q0 83 28.5 150.5t74.5 114t114 82t138 57t155 36.5zM310 323q-53 0 -116 -53v-7q0 -77 26.5 -114t71.5 -37
q46 0 76 33t30 84q0 45 -23.5 69.5t-64.5 24.5z" />
    <glyph glyph-name="seven.tosf" horiz-adv-x="572" 
d="M211 -150h-189q179 321 334 545h-292l23 135h487l-23 -127q-161 -231 -340 -553z" />
    <glyph glyph-name="eight.tosf" horiz-adv-x="572" 
d="M564 521q0 -108 -138 -166q114 -61 114 -161q0 -92 -78 -149t-203 -57q-116 0 -184 50.5t-68 135.5q0 71 46.5 112t130.5 71q-87 55 -87 145q0 84 68.5 137t177.5 53q101 0 161 -46.5t60 -124.5zM379 190q0 34 -23.5 58t-67.5 49q-58 -24 -89 -50t-31 -67q0 -38 26.5 -59
t71.5 -21q49 0 81 24.5t32 65.5zM409 511q0 30 -20 47.5t-53 17.5q-36 0 -60 -19.5t-24 -52.5q0 -28 18 -48t52 -41q42 20 64.5 42t22.5 54z" />
    <glyph glyph-name="nine.tosf" horiz-adv-x="572" 
d="M20 -53q63 13 105 24.5t91.5 32.5t84 53t54.5 75q-58 -49 -135 -49q-88 0 -141.5 55.5t-53.5 148.5q0 115 77.5 185t187.5 70t178 -74.5t68 -209.5q0 -83 -28.5 -150.5t-74.5 -114t-114 -82t-138 -57t-155 -36.5zM266 201q52 0 115 52v8q0 77 -26.5 114t-71.5 37
q-46 0 -76 -33t-30 -84q0 -45 23.5 -69.5t65.5 -24.5z" />
    <glyph glyph-name="cent.tosf" horiz-adv-x="572" 
d="M526 474l-50 -111q-13 7 -35 17l-113 -266q55 0 114 32l10 -112q-68 -34 -152 -34h-20l-57 -135h-83l65 148q-132 44 -132 202q0 125 82.5 210t218.5 85q16 0 38 -2l50 117h83l-57 -134q14 -5 38 -17zM226 223q0 -59 32 -88l109 256q-65 -4 -103 -52t-38 -116z" />
    <glyph glyph-name="sterling.tosf" horiz-adv-x="572" 
d="M202 292h-122l17 96h132l39 136q25 88 73.5 128t156.5 40q43 0 73 -5l-20 -115q-19 4 -43 4q-41 0 -60 -17.5t-30 -57.5l-32 -113h132l-17 -96h-142l-6 -21q-29 -102 -93 -149q68 -14 101 -14q62 0 113 30l9 -121q-48 -29 -139 -29q-39 0 -104 13.5t-94 13.5
q-60 0 -114 -30l-9 122q9 5 30.5 15.5t28.5 14.5t23.5 13t22 13.5t17 13.5t16.5 17t12 19t12 23.5t9 27.5z" />
    <glyph glyph-name="currency.tosf" horiz-adv-x="572" 
d="M196 256q0 -37 25.5 -62.5t61.5 -25.5t61.5 25.5t25.5 62.5t-25.5 62.5t-61.5 25.5t-61.5 -25.5t-25.5 -62.5zM457 256q0 -37 -14 -70l75 -76l-88 -88l-79 80q-32 -12 -68 -12q-37 0 -68 12l-79 -80l-88 88l75 76q-14 33 -14 70t14 70l-75 76l88 88l79 -80q32 12 68 12
t68 -12l79 80l88 -88l-75 -76q14 -33 14 -70z" />
    <glyph glyph-name="yen.tosf" horiz-adv-x="572" 
d="M52 248l17 96h121l-119 336h149l88 -264l180 264h163l-239 -336h121l-17 -96h-153l-10 -57h153l-17 -96h-153l-16 -95h-158l16 95h-153l17 96h153l10 57h-153z" />
    <glyph glyph-name="section.tosf" horiz-adv-x="572" 
d="M376 692q109 0 208 -53l-57 -117q-81 48 -157 48q-99 0 -146 -65q140 -14 223 -86.5t83 -206.5q0 -144 -93 -224t-237 -80q-115 0 -216 53l56 111q84 -47 167 -47q110 0 158 69q-140 15 -223 87t-83 208q0 143 89.5 223t227.5 80zM396 199q0 167 -203 197
q0 -92 54 -137.5t149 -59.5z" />
    <glyph glyph-name="florin.tosf" horiz-adv-x="572" 
d="M80 292l17 96h132l39 136q25 88 73.5 128t156.5 40q43 0 73 -5l-20 -115q-19 4 -43 4q-41 0 -60 -17.5t-30 -57.5l-32 -113h132l-17 -96h-142l-82 -292h-157l82 292h-122z" />
    <glyph glyph-name="uni2007.tosf" horiz-adv-x="572" 
 />
    <glyph glyph-name="Euro.tosf" horiz-adv-x="572" 
d="M37 365l17 96h89q40 105 121.5 168t193.5 63q90 0 167 -46l-58 -125q-63 43 -115 43q-99 0 -150 -103h172l-17 -96h-185q-6 -38 -7 -57h182l-17 -96h-159q19 -102 107 -102q63 0 130 46l14 -123q-73 -45 -168 -45q-99 0 -162 57.5t-78 166.5h-104l17 96h84q1 28 6 57h-80
z" />
    <glyph glyph-name="uni20B1.tosf" horiz-adv-x="572" 
d="M8 404l17 96h77l32 180h205q106 0 168.5 -45t71.5 -135h57l-17 -96h-48q-21 -83 -94 -128.5t-189 -45.5h-76l-40 -230h-158l71 404h-77zM232 341h59q95 0 123 63h-171zM271 564l-11 -64h163q-13 64 -92 64h-60z" />
    <glyph glyph-name="uni20B4.tosf" horiz-adv-x="572" 
d="M40 365l17 96h347q13 18 13 40q0 62 -80 62q-73 0 -156 -50l-14 130q93 49 195 49q100 0 157.5 -47.5t57.5 -134.5q0 -26 -6 -49h36l-17 -96h-91q-35 -26 -129 -57h210l-17 -96h-355q-6 -14 -6 -31q0 -71 98 -71q77 0 177 51l15 -123q-103 -50 -216 -50
q-109 0 -171.5 47.5t-62.5 140.5q0 24 2 36h-31l17 96h69q28 26 106 57h-165z" />
    <glyph glyph-name="f_f.sc" horiz-adv-x="946" 
d="M32 0l97 550h376l-21 -121h-220l-20 -115h191l-20 -113h-191l-35 -201h-157zM505 0l97 550h376l-21 -121h-220l-20 -115h191l-20 -113h-191l-35 -201h-157z" />
    <glyph glyph-name="f_f_i.sc" horiz-adv-x="1268" 
d="M32 0l97 550h376l-21 -121h-220l-20 -115h191l-20 -113h-191l-35 -201h-157zM505 0l97 550h376l-21 -121h-220l-20 -115h191l-20 -113h-191l-35 -201h-157zM984 0l97 550h157l-97 -550h-157z" />
    <glyph glyph-name="f_f_l.sc" horiz-adv-x="1413" 
d="M32 0l97 550h376l-21 -121h-220l-20 -115h191l-20 -113h-191l-35 -201h-157zM505 0l97 550h376l-21 -121h-220l-20 -115h191l-20 -113h-191l-35 -201h-157zM978 0l97 550h157l-76 -429h214l-21 -121h-371z" />
    <glyph glyph-name="f_i.sc" horiz-adv-x="792" 
d="M32 0l97 550h376l-21 -121h-220l-20 -115h191l-20 -113h-191l-35 -201h-157zM507 0l97 550h157l-97 -550h-157z" />
    <glyph glyph-name="f_l.sc" horiz-adv-x="939" 
d="M32 0l97 550h376l-21 -121h-220l-20 -115h191l-20 -113h-191l-35 -201h-157zM504 0l97 550h157l-76 -429h214l-21 -121h-371z" />
    <glyph glyph-name="exclam.sc" horiz-adv-x="332" 
d="M93 189l35 361h180l-91 -361h-124zM134 -12q-39 0 -63.5 23t-24.5 60t24.5 60t63.5 23t63.5 -23t24.5 -60t-24.5 -60t-63.5 -23z" />
    <glyph glyph-name="numbersign.sc" horiz-adv-x="501" 
d="M517 406l-19 -103h-72l-21 -56h58l-19 -103h-80l-56 -144h-125l56 144h-73l-55 -144h-125l55 144h-50l19 103h72l21 56h-58l19 103h80l56 144h125l-56 -144h73l55 144h125l-55 -144h50zM228 303l-21 -56h73l21 56h-73z" />
    <glyph glyph-name="dollar.sc" horiz-adv-x="483" 
d="M137 -76l14 78q-86 8 -158 42l50 110q82 -39 148 -39q42 0 68 15t26 39q0 21 -23 35.5t-56 25.5t-66 26t-56 45t-23 74q0 66 50 113t135 58l12 65h94l-12 -64q76 -7 138 -40l-50 -113q-68 37 -127 37q-37 0 -60.5 -12.5t-23.5 -32.5q0 -18 23 -31t56 -24t66 -26t56 -46
t23 -76q0 -70 -53 -119t-143 -61l-14 -79h-94z" />
    <glyph glyph-name="percent.sc" horiz-adv-x="731" 
d="M204 366q19 0 30 20.5t11 46.5q0 43 -28 43q-19 0 -30 -20.5t-11 -46.5q0 -43 28 -43zM200 288q-62 0 -98 34.5t-36 88.5q0 60 43 102.5t113 42.5q62 0 98 -34.5t36 -88.5q0 -60 -43 -102.5t-113 -42.5zM84 0l431 550h139l-431 -550h-139zM520 72q19 0 30 20.5t11 46.5
q0 43 -28 43q-19 0 -30 -20.5t-11 -46.5q0 -43 28 -43zM516 -6q-62 0 -98 34.5t-36 88.5q0 60 43 102.5t113 42.5q62 0 98 -34.5t36 -88.5q0 -60 -43 -102.5t-113 -42.5z" />
    <glyph glyph-name="ampersand.sc" horiz-adv-x="552" 
d="M491 432q0 -55 -41 -89t-115 -66l52 -74q27 30 62 78l92 -68q-44 -59 -86 -98l46 -63l-117 -83l-44 62q-78 -43 -163 -43q-84 0 -134 38.5t-50 106.5q0 64 42.5 104t115.5 70q-17 26 -24 37.5t-12.5 28t-5.5 34.5q0 67 55.5 111t148.5 44q84 0 131 -36.5t47 -93.5z
M207 87q37 0 78 24l-75 111q-64 -34 -64 -81q0 -54 61 -54zM252 413q0 -20 26 -59q41 17 62.5 33t21.5 38q0 18 -12.5 29.5t-36.5 11.5q-26 0 -43.5 -14t-17.5 -39z" />
    <glyph glyph-name="parenleft.sc" horiz-adv-x="330" 
d="M178 201q0 -156 77 -259l-90 -55q-62 57 -102 130.5t-40 183.5q0 60 18 115.5t43.5 95t65.5 79t69.5 63t71.5 51.5l66 -82q-85 -65 -132 -139t-47 -183z" />
    <glyph glyph-name="parenright.sc" horiz-adv-x="330" 
d="M147 291q0 156 -77 259l90 55q62 -57 102 -130.5t40 -183.5q0 -60 -18 -115.5t-43.5 -95t-65.5 -79t-69.5 -63t-71.5 -51.5l-66 82q85 65 132 139t47 183z" />
    <glyph glyph-name="asterisk.sc" horiz-adv-x="379" 
d="M377 348l-104 4l55 -86l-71 -41l-50 90l-50 -90l-71 41l55 86l-104 -4v79l104 -4l-55 86l71 41l50 -90l50 90l71 -41l-55 -86l104 4v-79z" />
    <glyph glyph-name="slash.sc" horiz-adv-x="548" 
d="M-28 -40l436 593h168l-436 -593h-168z" />
    <glyph glyph-name="zero.sc" horiz-adv-x="552" 
d="M255 102q48 0 79 65t31 154q0 123 -64 123q-48 0 -79 -65t-31 -154q0 -123 64 -123zM247 -12q-95 0 -153 64.5t-58 179.5q0 134 76.5 232t196.5 98q95 0 153 -64.5t58 -179.5q0 -134 -76.5 -232t-196.5 -98z" />
    <glyph glyph-name="one.sc" horiz-adv-x="372" 
d="M87 348l-25 126l157 76h116l-97 -550h-151l67 380z" />
    <glyph glyph-name="two.sc" horiz-adv-x="490" 
d="M94 365l-22 123q76 74 197 74q88 0 139 -44.5t51 -118.5q0 -70 -52 -135.5t-167 -151.5h182l-20 -112h-416l17 99q166 107 233.5 171.5t67.5 112.5q0 25 -16.5 40.5t-48.5 15.5q-75 0 -145 -74z" />
    <glyph glyph-name="three.sc" horiz-adv-x="476" 
d="M264 163q0 58 -118 58q-13 0 -57 -2l18 103q105 0 149.5 19t44.5 55q0 50 -69 50q-65 0 -145 -47l-10 116q88 47 186 47q87 0 140 -36t53 -102q0 -106 -138 -147q108 -31 108 -125q0 -75 -67.5 -119.5t-182.5 -44.5q-114 0 -204 44l50 105q80 -39 141 -39q49 0 75 17.5
t26 47.5z" />
    <glyph glyph-name="four.sc" horiz-adv-x="539" 
d="M-5 98l18 105l285 347h199l-60 -339h81l-20 -113h-81l-17 -98h-151l17 98h-271zM161 211h125l35 201z" />
    <glyph glyph-name="five.sc" horiz-adv-x="468" 
d="M166 246q-58 0 -133 -16l67 320h372l-20 -111h-227l-17 -86h16q98 0 154 -46t56 -129q0 -89 -67 -139.5t-189 -50.5q-112 0 -203 43l50 108q78 -39 140 -39q55 0 84.5 20.5t29.5 56.5q0 69 -113 69z" />
    <glyph glyph-name="six.sc" horiz-adv-x="516" 
d="M307 372q77 0 124 -48t47 -127q0 -93 -63.5 -151t-157.5 -58q-99 0 -160 66.5t-61 184.5q0 137 81 230t220 93q92 0 170 -38l-50 -111q-72 33 -122 33q-101 0 -134 -108q46 34 106 34zM267 261q-36 0 -80 -31q1 -131 74 -131q32 0 51.5 25t19.5 64q0 35 -17 54t-48 19z
" />
    <glyph glyph-name="seven.sc" horiz-adv-x="420" 
d="M185 0h-183q125 233 251 424h-211l22 126h398l-21 -118q-133 -201 -256 -432z" />
    <glyph glyph-name="eight.sc" horiz-adv-x="500" 
d="M463 155q0 -74 -67 -120.5t-177 -46.5q-101 0 -160 41t-59 111q0 57 37 90.5t104 59.5q-73 40 -73 113q0 70 61 114.5t159 44.5q91 0 144 -39t53 -105q0 -89 -115 -136q93 -48 93 -127zM215 406q0 -34 54 -65q34 16 51.5 31.5t17.5 38.5q0 22 -15.5 34.5t-41.5 12.5
q-28 0 -47 -14.5t-19 -37.5zM309 154q0 42 -67 77q-41 -15 -64 -34.5t-23 -50.5q0 -28 19 -43.5t51 -15.5q35 0 59.5 18.5t24.5 48.5z" />
    <glyph glyph-name="nine.sc" horiz-adv-x="516" 
d="M216 178q-77 0 -124 48t-47 127q0 93 63.5 151t157.5 58q99 0 160 -66.5t61 -184.5q0 -137 -81 -230t-220 -93q-92 0 -170 38l50 107q71 -33 122 -33q102 0 135 113q-45 -35 -107 -35zM256 285q36 0 80 30q-1 132 -74 132q-32 0 -51.5 -25t-19.5 -64q0 -35 17 -54t48 -19
z" />
    <glyph glyph-name="question.sc" horiz-adv-x="378" 
d="M114 -12q-39 0 -63.5 23t-24.5 60t24.5 60t63.5 23t63.5 -23t24.5 -60t-24.5 -60t-63.5 -23zM196 189h-121q-3 13 -3 31q0 34 23 61.5t50.5 43t50.5 36.5t23 44q0 48 -83 48q-29 0 -65 -6l20 106q42 9 86 9q92 0 144 -34.5t52 -99.5q0 -38 -18 -67.5t-44.5 -48t-52.5 -35
t-44 -35.5t-18 -42v-11z" />
    <glyph glyph-name="at.sc" horiz-adv-x="696" 
d="M343 -41q-131 0 -215.5 75.5t-84.5 210.5q0 138 88 227.5t227 89.5q126 0 203.5 -74.5t77.5 -196.5q0 -92 -44 -140.5t-112 -48.5q-78 0 -97 57q-48 -57 -101 -57q-44 0 -71.5 31t-27.5 93q0 79 46.5 136t135.5 57q62 0 112 -25l-16 -151q0 -1 -0.5 -4.5t-0.5 -10.5
q0 -51 29 -51q24 0 41 31t17 81q0 90 -54.5 141.5t-138.5 51.5q-99 0 -162 -68t-63 -169q0 -98 60.5 -152.5t149.5 -54.5q63 0 148 33l25 -80q-87 -32 -172 -32zM308 182q30 0 63 51l11 105q-13 5 -28 5q-41 0 -59 -35.5t-18 -75.5q0 -50 31 -50z" />
    <glyph glyph-name="bracketleft.sc" horiz-adv-x="391" 
d="M324 8l-19 -106h-300l121 688h300l-19 -106h-143l-84 -476h144z" />
    <glyph glyph-name="backslash.sc" horiz-adv-x="548" 
d="M223 553l248 -593h-147l-248 593h147z" />
    <glyph glyph-name="bracketright.sc" horiz-adv-x="391" 
d="M64 484l19 106h300l-121 -688h-300l19 106h143l84 476h-144z" />
    <glyph glyph-name="grave.sc" horiz-adv-x="500" 
d="M408 593h-122l-120 147h167z" />
    <glyph glyph-name="a.sc" horiz-adv-x="587" 
d="M442 550l82 -550h-156l-10 91h-183l-40 -91h-163l283 550h187zM323 424l-101 -228h125z" />
    <glyph glyph-name="b.sc" horiz-adv-x="586" 
d="M32 0l97 550h219q92 0 144 -34t52 -104q0 -102 -108 -136q86 -28 86 -117q0 -73 -57 -116t-172 -43h-261zM204 106h77q89 0 89 66q0 53 -68 53h-77zM243 324h64q85 0 85 64q0 51 -65 51h-65z" />
    <glyph glyph-name="c.sc" horiz-adv-x="512" 
d="M34 229q0 139 87 236t237 97q97 0 170 -43l-51 -116q-71 39 -123 39q-78 0 -121 -61t-43 -147q0 -130 107 -130q68 0 139 45l10 -116q-80 -45 -177 -45q-108 0 -171.5 62t-63.5 179z" />
    <glyph glyph-name="d.sc" horiz-adv-x="621" 
d="M210 116h67q74 0 114.5 54.5t40.5 132.5q0 64 -27 95t-73 31h-67zM277 0h-245l97 550h203q117 0 187 -64t70 -178q0 -128 -83.5 -218t-228.5 -90z" />
    <glyph glyph-name="e.sc" horiz-adv-x="510" 
d="M32 0l97 550h394l-21 -121h-237l-17 -95h205l-20 -113h-205l-18 -105h239l-20 -116h-397z" />
    <glyph glyph-name="f.sc" horiz-adv-x="473" 
d="M32 0l97 550h376l-21 -121h-220l-20 -115h191l-20 -113h-191l-35 -201h-157z" />
    <glyph glyph-name="g.sc" horiz-adv-x="590" 
d="M286 -12q-119 0 -185.5 61.5t-66.5 181.5q0 142 90 236.5t247 94.5q109 0 195 -50l-50 -116q-73 45 -146 45q-88 0 -135.5 -57.5t-47.5 -148.5q0 -136 119 -136q20 0 41 3l17 95h-82l19 104h229l-48 -271q-92 -42 -196 -42z" />
    <glyph glyph-name="h.sc" horiz-adv-x="629" 
d="M32 0l97 550h157l-37 -209h161l37 209h157l-97 -550h-157l39 221h-161l-39 -221h-157z" />
    <glyph glyph-name="i.sc" horiz-adv-x="322" 
d="M38 0l97 550h157l-97 -550h-157z" />
    <glyph glyph-name="j.sc" horiz-adv-x="359" 
d="M-27 0l20 116q24 -6 56 -6q38 0 53 17t23 61l64 362h157l-69 -391q-15 -84 -64.5 -124.5t-145.5 -40.5q-53 0 -94 6z" />
    <glyph glyph-name="k.sc" horiz-adv-x="596" 
d="M32 0l97 550h157l-41 -233l192 233h183l-213 -217l130 -333h-161l-82 218l-82 -84l-23 -134h-157z" />
    <glyph glyph-name="l.sc" horiz-adv-x="467" 
d="M32 0l97 550h157l-76 -429h214l-21 -121h-371z" />
    <glyph glyph-name="m.sc" horiz-adv-x="839" 
d="M577 0l33 272q2 17 5 35.5t6.5 41.5t6.5 40h-2q-16 -48 -48 -112l-139 -277h-135l-35 277q-9 75 -11 112h-2q-12 -63 -26 -118l-63 -271h-144l148 550h192l29 -265q7 -63 7 -118h2q16 45 50 113l135 270h190l-50 -550h-149z" />
    <glyph glyph-name="n.sc" horiz-adv-x="637" 
d="M32 0l97 550h164l124 -283l50 283h144l-97 -550h-126l-151 344l-61 -344h-144z" />
    <glyph glyph-name="o.sc" horiz-adv-x="614" 
d="M287 104q60 0 97 57t37 142q0 67 -24.5 103t-70.5 36q-60 0 -97 -57t-37 -142q0 -67 24.5 -103t70.5 -36zM279 -12q-110 0 -177 67.5t-67 186.5q0 135 83.5 227.5t215.5 92.5q110 0 177 -67.5t67 -186.5q0 -135 -83.5 -227.5t-215.5 -92.5z" />
    <glyph glyph-name="p.sc" horiz-adv-x="559" 
d="M32 0l97 550h209q103 0 159 -43t56 -129q0 -94 -65.5 -145t-184.5 -51h-84l-32 -182h-155zM239 295h60q99 0 99 75q0 62 -76 62h-59z" />
    <glyph glyph-name="q.sc" horiz-adv-x="614" 
d="M329 -168q-136 0 -136 128q0 24 4 43q-76 21 -119 82.5t-43 156.5q0 135 83.5 227.5t215.5 92.5q110 0 177 -67.5t67 -186.5q0 -127 -75 -216t-197 -99v-4q0 -26 15 -37t48 -11q36 0 80 11l-20 -110q-55 -10 -100 -10zM287 104q60 0 97 57t37 142q0 67 -24.5 103
t-70.5 36q-60 0 -97 -57t-37 -142q0 -67 24.5 -103t70.5 -36z" />
    <glyph glyph-name="r.sc" horiz-adv-x="615" 
d="M360 0l-76 206h-63l-36 -206h-153l97 550h235q99 0 152 -40.5t53 -120.5q0 -130 -132 -169l85 -220h-162zM239 307h83q94 0 94 68q0 57 -72 57h-83z" />
    <glyph glyph-name="s.sc" horiz-adv-x="498" 
d="M-1 33l51 112q86 -41 147 -41q43 0 69 16.5t26 41.5q0 21 -22.5 36.5t-54.5 28.5t-64 29.5t-54.5 48t-22.5 75.5q0 80 66 131t170 51q94 0 180 -44l-50 -117q-71 41 -128 41q-35 0 -58 -13t-23 -36q0 -20 22.5 -35t54.5 -27t63.5 -28t54 -48t22.5 -77q0 -83 -68.5 -136.5
t-180.5 -53.5q-110 0 -200 45z" />
    <glyph glyph-name="t.sc" horiz-adv-x="492" 
d="M122 0l76 429h-149l21 121h455l-21 -121h-149l-76 -429h-157z" />
    <glyph glyph-name="u.sc" horiz-adv-x="596" 
d="M274 550l-60 -342q-4 -19 -4 -36q0 -64 64 -64q43 0 66 25t32 75l60 342h152l-65 -369q-34 -193 -258 -193q-100 0 -153.5 40t-53.5 134q0 36 6 68l56 320h158z" />
    <glyph glyph-name="v.sc" horiz-adv-x="561" 
d="M152 0l-83 550h150l47 -366l172 366h158l-282 -550h-162z" />
    <glyph glyph-name="w.sc" horiz-adv-x="809" 
d="M685 550h155l-237 -550h-150l-20 251q-5 63 -4 127h-2q-16 -53 -51 -130l-113 -248h-150l-40 550h151l11 -232q4 -92 1 -140h2q25 87 48 140l101 232h145l15 -237q4 -58 0 -135h2q18 75 44 141z" />
    <glyph glyph-name="x.sc" horiz-adv-x="589" 
d="M-13 0l216 285l-110 265h161l57 -165l115 165h174l-205 -266l117 -284h-162l-63 184l-126 -184h-174z" />
    <glyph glyph-name="y.sc" horiz-adv-x="551" 
d="M152 0l38 213l-129 337h152l73 -202l141 202h167l-248 -337l-37 -213h-157z" />
    <glyph glyph-name="z.sc" horiz-adv-x="525" 
d="M-16 0l17 96l295 333h-221l21 121h440l-18 -101l-296 -333h239l-20 -116h-457z" />
    <glyph glyph-name="braceleft.sc" horiz-adv-x="382" 
d="M21 195l18 102h19q34 0 49.5 13t20.5 43l18 106q11 68 63 99.5t175 31.5h26l-19 -106h-24q-34 0 -50 -13.5t-21 -43.5l-18 -106q-11 -68 -97 -79q66 -16 66 -82q0 -14 -3 -29l-11 -66q-2 -16 -2 -20q0 -37 52 -37h24l-18 -106h-26q-93 0 -140.5 30.5t-47.5 99.5
q0 20 4 41l11 66q2 14 2 19q0 20 -12 28.5t-40 8.5h-19z" />
    <glyph glyph-name="bar.sc" horiz-adv-x="391" 
d="M57 -98l121 688h153l-121 -688h-153z" />
    <glyph glyph-name="braceright.sc" horiz-adv-x="382" 
d="M358 297l-18 -102h-19q-34 0 -49.5 -13t-20.5 -43l-18 -106q-11 -68 -63 -99.5t-175 -31.5h-26l19 106h24q34 0 50 13.5t21 43.5l18 106q11 68 97 79q-66 16 -66 82q0 14 3 29l11 66q2 16 2 20q0 37 -52 37h-24l18 106h26q93 0 140.5 -30.5t47.5 -99.5q0 -20 -4 -41
l-11 -66q-2 -14 -2 -19q0 -20 12 -28.5t40 -8.5h19z" />
    <glyph glyph-name="exclamdown.sc" horiz-adv-x="332" 
d="M246 361l-35 -361h-180l91 361h124zM205 562q39 0 63.5 -23t24.5 -60t-24.5 -60t-63.5 -23t-63.5 23t-24.5 60t24.5 60t63.5 23z" />
    <glyph glyph-name="cent.sc" horiz-adv-x="395" 
d="M392 377l-43 -97q-26 12 -39 17l-85 -199h6q45 0 93 24l8 -96q-52 -26 -124 -26q-16 0 -24 1l-46 -110h-81l53 126q-93 39 -93 159q0 102 66.5 167t179.5 65h13l40 94h81l-46 -107q15 -5 41 -18zM146 183q0 -37 15 -56l74 175q-42 -7 -65.5 -39.5t-23.5 -79.5z" />
    <glyph glyph-name="sterling.sc" horiz-adv-x="423" 
d="M111 230h-96l15 83h104l33 114q20 70 64.5 102.5t139.5 32.5q38 0 63 -5l-18 -99q-17 3 -35 3q-31 0 -45.5 -13.5t-24.5 -46.5l-25 -88h104l-15 -83h-112l-8 -29q-18 -67 -57 -103q38 -6 57 -6q47 0 95 26l11 -107q-43 -23 -116 -23q-33 0 -87.5 11t-78.5 11
q-50 0 -96 -25l-11 107q65 22 92 45t43 79z" />
    <glyph glyph-name="currency.sc" horiz-adv-x="572" 
d="M196 256q0 -37 25.5 -62.5t61.5 -25.5t61.5 25.5t25.5 62.5t-25.5 62.5t-61.5 25.5t-61.5 -25.5t-25.5 -62.5zM457 256q0 -37 -14 -70l75 -76l-88 -88l-79 80q-32 -12 -68 -12q-37 0 -68 12l-79 -80l-88 88l75 76q-14 33 -14 70t14 70l-75 76l88 88l79 -80q32 12 68 12
t68 -12l79 80l88 -88l-75 -76q14 -33 14 -70z" />
    <glyph glyph-name="yen.sc" horiz-adv-x="506" 
d="M41 190l15 83h100l-96 277h145l59 -192l126 192h158l-194 -277h101l-15 -83h-123l-6 -35h123l-15 -83h-123l-12 -72h-153l12 72h-123l15 83h123l6 35h-123z" />
    <glyph glyph-name="section.sc" horiz-adv-x="506" 
d="M317 562q93 0 174 -42l-49 -98q-65 35 -125 35q-74 0 -113 -45q114 -11 182.5 -62.5t68.5 -154.5q0 -111 -78.5 -174t-196.5 -63q-98 0 -182 42l48 94q69 -36 135 -36q86 0 125 50q-114 8 -183.5 60t-69.5 157q0 110 75 173.5t189 63.5zM331 192q-4 112 -153 131
q4 -115 153 -131z" />
    <glyph glyph-name="dieresis.sc" horiz-adv-x="500" 
d="M290 668q0 -32 -21.5 -53t-54.5 -21t-54.5 21t-21.5 53t21.5 53t54.5 21t54.5 -21t21.5 -53zM504 668q0 -32 -21.5 -53t-54.5 -21t-54.5 21t-21.5 53t21.5 53t54.5 21t54.5 -21t21.5 -53z" />
    <glyph glyph-name="copyright.sc" horiz-adv-x="674" 
d="M418 223l17 -65q-42 -22 -88 -22q-59 0 -94 34.5t-35 98.5q0 67 38 104t99 37q44 0 79 -20l-18 -70q-26 19 -52 19q-55 0 -55 -69q0 -67 56 -67q25 0 53 20zM122 275q0 -94 62.5 -157t151.5 -63t151.5 63t62.5 157t-62.5 157t-151.5 63t-151.5 -63t-62.5 -157zM623 275
q0 -123 -83.5 -205t-203.5 -82t-203.5 82t-83.5 205t83.5 205t203.5 82t203.5 -82t83.5 -205z" />
    <glyph glyph-name="registered.sc" horiz-adv-x="674" 
d="M623 275q0 -123 -83.5 -205t-203.5 -82t-203.5 82t-83.5 205t83.5 205t203.5 82t203.5 -82t83.5 -205zM122 275q0 -94 62.5 -157t151.5 -63t151.5 63t62.5 157t-62.5 157t-151.5 63t-151.5 -63t-62.5 -157zM220 142v263h127q112 0 112 -88q0 -51 -44 -73l55 -102h-95
l-46 88h-18v-88h-91zM311 286h26q31 0 31 26q0 25 -31 25h-26v-51z" />
    <glyph glyph-name="macron.sc" horiz-adv-x="500" 
d="M134 598l18 103h352l-18 -103h-352z" />
    <glyph glyph-name="degree.sc" horiz-adv-x="374" 
d="M143 416q0 -31 20 -51t50 -20t50 20t20 51t-20 51t-50 20t-50 -20t-20 -51zM363 416q0 -62 -43.5 -103t-106.5 -41t-106.5 41t-43.5 103t43.5 103t106.5 41t106.5 -41t43.5 -103z" />
    <glyph glyph-name="acute.sc" horiz-adv-x="500" 
d="M345 593h-132l105 147h189z" />
    <glyph glyph-name="mu.sc" horiz-adv-x="839" 
d="M577 0l33 272q2 17 5 35.5t6.5 41.5t6.5 40h-2q-16 -48 -48 -112l-139 -277h-135l-35 277q-9 75 -11 112h-2q-12 -63 -26 -118l-63 -271h-144l148 550h192l29 -265q7 -63 7 -118h2q16 45 50 113l135 270h190l-50 -550h-149z" />
    <glyph glyph-name="paragraph.sc" horiz-adv-x="488" 
d="M344 527h127l-64 -365q-18 -103 -78 -151t-197 -76l-12 112q77 17 114.5 41.5t47.5 82.5zM297 527l-65 -369q-90 0 -140.5 46t-50.5 122q0 87 66 144t190 57z" />
    <glyph glyph-name="periodcentered.sc" horiz-adv-x="301" 
d="M162 239q-42 0 -69 26.5t-27 65.5t27 65.5t69 26.5t69 -26.5t27 -65.5t-27 -65.5t-69 -26.5z" />
    <glyph glyph-name="questiondown.sc" horiz-adv-x="378" 
d="M190 361h121q3 -13 3 -31q0 -34 -23 -61.5t-50.5 -43t-50.5 -36.5t-23 -44q0 -48 83 -48q29 0 65 6l-20 -106q-42 -9 -86 -9q-92 0 -144 34.5t-52 99.5q0 38 18 67.5t44 48t52.5 35t44.5 35.5t18 42v11zM272 562q39 0 63.5 -23t24.5 -60t-24.5 -60t-63.5 -23t-63.5 23
t-24.5 60t24.5 60t63.5 23z" />
    <glyph glyph-name="germandbls.sc" horiz-adv-x="976" 
d="M-1 33l51 112q86 -41 147 -41q43 0 69 16.5t26 41.5q0 21 -22.5 36.5t-54.5 28.5t-64 29.5t-54.5 48t-22.5 75.5q0 80 66 131t170 51q94 0 180 -44l-50 -117q-71 41 -128 41q-35 0 -58 -13t-23 -36q0 -20 22.5 -35t54.5 -27t63.5 -28t54 -48t22.5 -77q0 -83 -68.5 -136.5
t-180.5 -53.5q-110 0 -200 45zM477 33l51 112q86 -41 147 -41q43 0 69 16.5t26 41.5q0 21 -22.5 36.5t-54.5 28.5t-64 29.5t-54.5 48t-22.5 75.5q0 80 66 131t170 51q94 0 180 -44l-50 -117q-71 41 -128 41q-35 0 -58 -13t-23 -36q0 -20 22.5 -35t54.5 -27t63.5 -28t54 -48
t22.5 -77q0 -83 -68.5 -136.5t-180.5 -53.5q-110 0 -200 45z" />
    <glyph glyph-name="agrave.sc" horiz-adv-x="587" 
d="M442 550l82 -550h-156l-10 91h-183l-40 -91h-163l283 550h187zM323 424l-101 -228h125zM451 593h-122l-120 147h167z" />
    <glyph glyph-name="aacute.sc" horiz-adv-x="587" 
d="M442 550l82 -550h-156l-10 91h-183l-40 -91h-163l283 550h187zM323 424l-101 -228h125zM388 593h-132l105 147h189z" />
    <glyph glyph-name="acircumflex.sc" horiz-adv-x="587" 
d="M442 550l82 -550h-156l-10 91h-183l-40 -91h-163l283 550h187zM323 424l-101 -228h125zM280 593h-121l155 147h124l103 -147h-108l-69 50z" />
    <glyph glyph-name="atilde.sc" horiz-adv-x="587" 
d="M442 550l82 -550h-156l-10 91h-183l-40 -91h-163l283 550h187zM323 424l-101 -228h125zM252 593h-92q29 145 130 145q36 0 86 -21t65 -21q31 0 37 36h92q-29 -145 -130 -145q-36 0 -86 21t-65 21q-31 0 -37 -36z" />
    <glyph glyph-name="adieresis.sc" horiz-adv-x="587" 
d="M442 550l82 -550h-156l-10 91h-183l-40 -91h-163l283 550h187zM323 424l-101 -228h125zM334 668q0 -32 -21.5 -53t-54.5 -21t-54.5 21t-21.5 53t21.5 53t54.5 21t54.5 -21t21.5 -53zM548 668q0 -32 -21.5 -53t-54.5 -21t-54.5 21t-21.5 53t21.5 53t54.5 21t54.5 -21
t21.5 -53z" />
    <glyph glyph-name="aring.sc" horiz-adv-x="587" 
d="M463 575q0 -31 -17 -56l78 -519h-156l-10 91h-183l-40 -91h-163l274 533q-9 19 -9 42q0 44 32 73.5t81 29.5q50 0 81.5 -29.5t31.5 -73.5zM323 424l-101 -228h125zM307 575q0 -17 12 -29t31 -12q20 0 32 12t12 29t-12 29t-32 12q-19 0 -31 -12t-12 -29z" />
    <glyph glyph-name="ae.sc" horiz-adv-x="785" 
d="M337 0l16 91h-153l-55 -91h-175l374 550h455l-21 -121h-208l-17 -95h176l-20 -113h-176l-18 -105h210l-20 -116h-368zM264 196h108l43 247z" />
    <glyph glyph-name="ccedilla.sc" horiz-adv-x="512" 
d="M361 -95q0 -54 -40.5 -83.5t-111.5 -29.5q-67 0 -129 33l31 75q45 -26 84 -26q25 0 38 10.5t13 25.5q0 35 -70 46l18 41q-75 19 -117.5 78t-42.5 154q0 139 87 236t237 97q97 0 170 -43l-51 -116q-71 39 -123 39q-78 0 -121 -61t-43 -147q0 -130 107 -130q68 0 139 45
l10 -116q-62 -36 -141 -43q56 -25 56 -85z" />
    <glyph glyph-name="egrave.sc" horiz-adv-x="510" 
d="M32 0l97 550h394l-21 -121h-237l-17 -95h205l-20 -113h-205l-18 -105h239l-20 -116h-397zM432 593h-122l-120 147h167z" />
    <glyph glyph-name="eacute.sc" horiz-adv-x="510" 
d="M32 0l97 550h394l-21 -121h-237l-17 -95h205l-20 -113h-205l-18 -105h239l-20 -116h-397zM369 593h-132l105 147h189z" />
    <glyph glyph-name="ecircumflex.sc" horiz-adv-x="510" 
d="M32 0l97 550h394l-21 -121h-237l-17 -95h205l-20 -113h-205l-18 -105h239l-20 -116h-397zM264 593h-121l155 147h124l103 -147h-108l-69 50z" />
    <glyph glyph-name="edieresis.sc" horiz-adv-x="510" 
d="M32 0l97 550h394l-21 -121h-237l-17 -95h205l-20 -113h-205l-18 -105h239l-20 -116h-397zM316 668q0 -32 -21.5 -53t-54.5 -21t-54.5 21t-21.5 53t21.5 53t54.5 21t54.5 -21t21.5 -53zM530 668q0 -32 -21.5 -53t-54.5 -21t-54.5 21t-21.5 53t21.5 53t54.5 21t54.5 -21
t21.5 -53z" />
    <glyph glyph-name="igrave.sc" horiz-adv-x="322" 
d="M38 0l97 550h157l-97 -550h-157zM319 593h-122l-120 147h167z" />
    <glyph glyph-name="iacute.sc" horiz-adv-x="322" 
d="M38 0l97 550h157l-97 -550h-157zM256 593h-132l105 147h189z" />
    <glyph glyph-name="icircumflex.sc" horiz-adv-x="322" 
d="M38 0l97 550h157l-97 -550h-157zM150 593h-121l155 147h124l103 -147h-108l-69 50z" />
    <glyph glyph-name="idieresis.sc" horiz-adv-x="322" 
d="M38 0l97 550h157l-97 -550h-157zM203 668q0 -32 -21.5 -53t-54.5 -21t-54.5 21t-21.5 53t21.5 53t54.5 21t54.5 -21t21.5 -53zM417 668q0 -32 -21.5 -53t-54.5 -21t-54.5 21t-21.5 53t21.5 53t54.5 21t54.5 -21t21.5 -53z" />
    <glyph glyph-name="eth.sc" horiz-adv-x="621" 
d="M4 227l18 102h68l39 221h203q117 0 187 -64t70 -178q0 -128 -83.5 -218t-228.5 -90h-245l40 227h-68zM210 116h67q74 0 114.5 54.5t40.5 132.5q0 64 -27 95t-73 31h-67l-18 -100h97l-18 -102h-97z" />
    <glyph glyph-name="ntilde.sc" horiz-adv-x="637" 
d="M32 0l97 550h164l124 -283l50 283h144l-97 -550h-126l-151 344l-61 -344h-144zM277 593h-92q29 145 130 145q35 0 86 -21t65 -21q31 0 37 36h92q-29 -145 -130 -145q-35 0 -85.5 21t-65.5 21q-31 0 -37 -36z" />
    <glyph glyph-name="ograve.sc" horiz-adv-x="614" 
d="M287 104q60 0 97 57t37 142q0 67 -24.5 103t-70.5 36q-60 0 -97 -57t-37 -142q0 -67 24.5 -103t70.5 -36zM279 -12q-110 0 -177 67.5t-67 186.5q0 135 83.5 227.5t215.5 92.5q110 0 177 -67.5t67 -186.5q0 -135 -83.5 -227.5t-215.5 -92.5zM454 593h-122l-120 147h167z
" />
    <glyph glyph-name="oacute.sc" horiz-adv-x="614" 
d="M287 104q60 0 97 57t37 142q0 67 -24.5 103t-70.5 36q-60 0 -97 -57t-37 -142q0 -67 24.5 -103t70.5 -36zM279 -12q-110 0 -177 67.5t-67 186.5q0 135 83.5 227.5t215.5 92.5q110 0 177 -67.5t67 -186.5q0 -135 -83.5 -227.5t-215.5 -92.5zM391 593h-132l105 147h189z
" />
    <glyph glyph-name="ocircumflex.sc" horiz-adv-x="614" 
d="M287 104q60 0 97 57t37 142q0 67 -24.5 103t-70.5 36q-60 0 -97 -57t-37 -142q0 -67 24.5 -103t70.5 -36zM279 -12q-110 0 -177 67.5t-67 186.5q0 135 83.5 227.5t215.5 92.5q110 0 177 -67.5t67 -186.5q0 -135 -83.5 -227.5t-215.5 -92.5zM285 593h-121l155 147h124
l103 -147h-108l-69 50z" />
    <glyph glyph-name="otilde.sc" horiz-adv-x="614" 
d="M287 104q60 0 97 57t37 142q0 67 -24.5 103t-70.5 36q-60 0 -97 -57t-37 -142q0 -67 24.5 -103t70.5 -36zM279 -12q-110 0 -177 67.5t-67 186.5q0 135 83.5 227.5t215.5 92.5q110 0 177 -67.5t67 -186.5q0 -135 -83.5 -227.5t-215.5 -92.5zM255 593h-92q29 145 130 145
q36 0 86.5 -21t64.5 -21q31 0 37 36h92q-29 -145 -130 -145q-35 0 -86 21t-65 21q-31 0 -37 -36z" />
    <glyph glyph-name="odieresis.sc" horiz-adv-x="614" 
d="M287 104q60 0 97 57t37 142q0 67 -24.5 103t-70.5 36q-60 0 -97 -57t-37 -142q0 -67 24.5 -103t70.5 -36zM279 -12q-110 0 -177 67.5t-67 186.5q0 135 83.5 227.5t215.5 92.5q110 0 177 -67.5t67 -186.5q0 -135 -83.5 -227.5t-215.5 -92.5zM338 668q0 -32 -21.5 -53
t-54.5 -21t-54.5 21t-21.5 53t21.5 53t54.5 21t54.5 -21t21.5 -53zM552 668q0 -32 -21.5 -53t-54.5 -21t-54.5 21t-21.5 53t21.5 53t54.5 21t54.5 -21t21.5 -53z" />
    <glyph glyph-name="oslash.sc" horiz-adv-x="614" 
d="M287 100q61 0 99.5 58t38.5 145v12l-212 -177q26 -38 74 -38zM188 243v-9l210 177q-26 35 -72 35q-61 0 -99.5 -58t-38.5 -145zM279 -12q-107 0 -171 61l-73 -61l-58 69l79 67q-21 50 -21 117q0 136 83 228.5t215 92.5q105 0 172 -62l73 62l58 -69l-80 -67
q22 -53 22 -119q0 -134 -83.5 -226.5t-215.5 -92.5z" />
    <glyph glyph-name="ugrave.sc" horiz-adv-x="596" 
d="M274 550l-60 -342q-4 -19 -4 -36q0 -64 64 -64q43 0 66 25t32 75l60 342h152l-65 -369q-34 -193 -258 -193q-100 0 -153.5 40t-53.5 134q0 36 6 68l56 320h158zM454 593h-122l-120 147h167z" />
    <glyph glyph-name="uacute.sc" horiz-adv-x="596" 
d="M274 550l-60 -342q-4 -19 -4 -36q0 -64 64 -64q43 0 66 25t32 75l60 342h152l-65 -369q-34 -193 -258 -193q-100 0 -153.5 40t-53.5 134q0 36 6 68l56 320h158zM391 593h-132l105 147h189z" />
    <glyph glyph-name="ucircumflex.sc" horiz-adv-x="596" 
d="M274 550l-60 -342q-4 -19 -4 -36q0 -64 64 -64q43 0 66 25t32 75l60 342h152l-65 -369q-34 -193 -258 -193q-100 0 -153.5 40t-53.5 134q0 36 6 68l56 320h158zM285 593h-121l155 147h124l103 -147h-108l-69 50z" />
    <glyph glyph-name="udieresis.sc" horiz-adv-x="596" 
d="M274 550l-60 -342q-4 -19 -4 -36q0 -64 64 -64q43 0 66 25t32 75l60 342h152l-65 -369q-34 -193 -258 -193q-100 0 -153.5 40t-53.5 134q0 36 6 68l56 320h158zM338 668q0 -32 -21.5 -53t-54.5 -21t-54.5 21t-21.5 53t21.5 53t54.5 21t54.5 -21t21.5 -53zM552 668
q0 -32 -21.5 -53t-54.5 -21t-54.5 21t-21.5 53t21.5 53t54.5 21t54.5 -21t21.5 -53z" />
    <glyph glyph-name="yacute.sc" horiz-adv-x="551" 
d="M152 0l38 213l-129 337h152l73 -202l141 202h167l-248 -337l-37 -213h-157zM370 593h-132l105 147h189z" />
    <glyph glyph-name="thorn.sc" horiz-adv-x="559" 
d="M32 0l97 550h155l-12 -70h53q103 0 159 -43t56 -129q0 -94 -65.5 -145t-184.5 -51h-84l-19 -112h-155zM226 225h60q99 0 99 75q0 62 -76 62h-59z" />
    <glyph glyph-name="ydieresis.sc" horiz-adv-x="551" 
d="M152 0l38 213l-129 337h152l73 -202l141 202h167l-248 -337l-37 -213h-157zM316 668q0 -32 -21.5 -53t-54.5 -21t-54.5 21t-21.5 53t21.5 53t54.5 21t54.5 -21t21.5 -53zM530 668q0 -32 -21.5 -53t-54.5 -21t-54.5 21t-21.5 53t21.5 53t54.5 21t54.5 -21t21.5 -53z" />
    <glyph glyph-name="dotlessi.sc" horiz-adv-x="322" 
d="M38 0l97 550h157l-97 -550h-157z" />
    <glyph glyph-name="ij.sc" horiz-adv-x="671" 
d="M38 0l97 550h157l-97 -550h-157zM285 0l20 116q24 -6 56 -6q38 0 53 17t23 61l64 362h157l-69 -391q-15 -84 -64.5 -124.5t-145.5 -40.5q-53 0 -94 6z" />
    <glyph glyph-name="lslash.sc" horiz-adv-x="467" 
d="M1 198l19 107l69 17l40 228h157l-33 -188l146 37l-19 -107l-146 -37l-24 -134h214l-21 -121h-371l38 215z" />
    <glyph glyph-name="oe.sc" horiz-adv-x="779" 
d="M34 232q0 139 87 234.5t235 95.5q50 0 101 -12h335l-21 -121h-208l-17 -95h176l-20 -113h-176l-18 -105h210l-20 -116h-331q-51 -12 -96 -12q-109 0 -173 63.5t-64 180.5zM298 104q24 0 51 6l57 324q-27 8 -52 8q-77 0 -120.5 -60.5t-43.5 -146.5q0 -131 108 -131z" />
    <glyph glyph-name="scaron.sc" horiz-adv-x="498" 
d="M-1 33l51 112q86 -41 147 -41q43 0 69 16.5t26 41.5q0 21 -22.5 36.5t-54.5 28.5t-64 29.5t-54.5 48t-22.5 75.5q0 80 66 131t170 51q94 0 180 -44l-50 -117q-71 41 -128 41q-35 0 -58 -13t-23 -36q0 -20 22.5 -35t54.5 -27t63.5 -28t54 -48t22.5 -77q0 -83 -68.5 -136.5
t-180.5 -53.5q-110 0 -200 45zM403 740h121l-155 -147h-124l-103 147h108l69 -50z" />
    <glyph glyph-name="zcaron.sc" horiz-adv-x="525" 
d="M-16 0l17 96l295 333h-221l21 121h440l-18 -101l-296 -333h239l-20 -116h-457zM411 740h121l-155 -147h-124l-103 147h108l69 -50z" />
    <glyph glyph-name="longs.sc" horiz-adv-x="498" 
d="M-1 33l51 112q86 -41 147 -41q43 0 69 16.5t26 41.5q0 21 -22.5 36.5t-54.5 28.5t-64 29.5t-54.5 48t-22.5 75.5q0 80 66 131t170 51q94 0 180 -44l-50 -117q-71 41 -128 41q-35 0 -58 -13t-23 -36q0 -20 22.5 -35t54.5 -27t63.5 -28t54 -48t22.5 -77q0 -83 -68.5 -136.5
t-180.5 -53.5q-110 0 -200 45z" />
    <glyph glyph-name="florin.sc" horiz-adv-x="394" 
d="M434 557l-18 -99q-17 3 -35 3q-31 0 -45.5 -13.5t-24.5 -46.5l-25 -88h104l-15 -83h-112l-64 -230h-152l64 230h-96l15 83h104l33 114q19 70 63.5 102.5t140.5 32.5q38 0 63 -5z" />
    <glyph glyph-name="gravecomb.sc" horiz-adv-x="1" 
d="M-160 593h-122l-120 147h167z" />
    <glyph glyph-name="acutecomb.sc" horiz-adv-x="1" 
d="M-223 593h-132l105 147h189z" />
    <glyph glyph-name="uni0302.sc" horiz-adv-x="1" 
d="M-329 593h-121l155 147h124l103 -147h-108l-69 50z" />
    <glyph glyph-name="tildecomb.sc" horiz-adv-x="1" 
d="M-359 593h-92q29 145 130 145q35 0 86 -21t65 -21q31 0 37 36h92q-29 -145 -130 -145q-35 0 -86 21t-65 21q-31 0 -37 -36z" />
    <glyph glyph-name="uni0304.sc" horiz-adv-x="1" 
d="M-433 598l18 103h352l-18 -103h-352z" />
    <glyph glyph-name="uni0306.sc" horiz-adv-x="1" 
d="M-246 593q-170 0 -170 115q0 10 2 32h88q1 -27 19.5 -41t64.5 -14q83 0 102 55h88q-13 -75 -57 -111t-137 -36z" />
    <glyph glyph-name="uni0307.sc" horiz-adv-x="1" 
d="M-154 673q0 -37 -25 -60.5t-66 -23.5t-66 23.5t-25 60.5t25 60.5t66 23.5t66 -23.5t25 -60.5z" />
    <glyph glyph-name="uni0308.sc" horiz-adv-x="1" 
d="M-276 668q0 -32 -21.5 -53t-54.5 -21t-54.5 21t-21.5 53t21.5 53t54.5 21t54.5 -21t21.5 -53zM-62 668q0 -32 -21.5 -53t-54.5 -21t-54.5 21t-21.5 53t21.5 53t54.5 21t54.5 -21t21.5 -53z" />
    <glyph glyph-name="uni030A.sc" horiz-adv-x="1" 
d="M-284 689q0 -17 11.5 -29t29.5 -12t29.5 12t11.5 29t-11.5 29t-29.5 12t-29.5 -12t-11.5 -29zM-137 689q0 -44 -30 -73.5t-76 -29.5t-76 29.5t-30 73.5t30 73.5t76 29.5t76 -29.5t30 -73.5z" />
    <glyph glyph-name="uni030B.sc" horiz-adv-x="1" 
d="M-321 593h-132l105 147h189zM-114 593h-132l123 147h189z" />
    <glyph glyph-name="uni030C.sc" horiz-adv-x="1" 
d="M-165 740h121l-155 -147h-124l-103 147h108l69 -50z" />
    <glyph glyph-name="uni0326.sc" horiz-adv-x="1" 
d="M-482 -210q61 19 86 46q-26 4 -40.5 21.5t-14.5 42.5q0 32 22.5 50t57.5 18q39 0 63 -23t24 -64q0 -103 -166 -159z" />
    <glyph glyph-name="uni0327.sc" horiz-adv-x="1" 
d="M-233 -95q0 -54 -40.5 -83.5t-111.5 -29.5q-67 0 -129 33l31 75q45 -26 84 -26q25 0 38 10.5t13 25.5q0 35 -70 46l24 53q161 -4 161 -104z" />
    <glyph glyph-name="uni0328.sc" horiz-adv-x="1" 
d="M-358 -96q0 -28 37 -28q16 0 32 4l5 -82q-23 -6 -61 -6q-61 0 -94 24t-33 68q0 71 96 116h126q-60 -26 -84 -48.5t-24 -47.5z" />
    <glyph glyph-name="uni03BC.sc" horiz-adv-x="839" 
d="M577 0l33 272q2 17 5 35.5t6.5 41.5t6.5 40h-2q-16 -48 -48 -112l-139 -277h-135l-35 277q-9 75 -11 112h-2q-12 -63 -26 -118l-63 -271h-144l148 550h192l29 -265q7 -63 7 -118h2q16 45 50 113l135 270h190l-50 -550h-149z" />
    <glyph glyph-name="pi.sc" horiz-adv-x="629" 
d="M32 0l97 550h475l-97 -550h-157l76 430h-161l-76 -430h-157z" />
    <glyph glyph-name="dagger.sc" horiz-adv-x="508" 
d="M126 -57l78 341l-132 -15l23 133l125 -15l8 140h146l-40 -140l129 15l-23 -133l-126 15l-42 -341h-146z" />
    <glyph glyph-name="daggerdbl.sc" horiz-adv-x="508" 
d="M183 166l24 138l-132 -15l24 133l124 -15l5 120h146l-37 -120l130 15l-24 -133l-126 15l-24 -138l132 15l-24 -133l-124 15l-5 -120h-146l37 120l-130 -15l24 133z" />
    <glyph glyph-name="bullet.sc" horiz-adv-x="433" 
d="M339 270q0 -51 -34.5 -84.5t-87.5 -33.5t-87.5 33.5t-34.5 84.5t34.5 84.5t87.5 33.5t87.5 -33.5t34.5 -84.5z" />
    <glyph glyph-name="perthousand.sc" horiz-adv-x="1049" 
d="M832 72q19 0 30 20.5t11 46.5q0 43 -28 43q-19 0 -30 -20.5t-11 -46.5q0 -43 28 -43zM828 -6q-62 0 -98 34.5t-36 88.5q0 60 43 102.5t113 42.5q62 0 98 -34.5t36 -88.5q0 -60 -43 -102.5t-113 -42.5zM204 366q19 0 30 20.5t11 46.5q0 43 -28 43q-19 0 -30 -20.5
t-11 -46.5q0 -43 28 -43zM200 288q-62 0 -98 34.5t-36 88.5q0 60 43 102.5t113 42.5q62 0 98 -34.5t36 -88.5q0 -60 -43 -102.5t-113 -42.5zM84 0l431 550h139l-431 -550h-139zM520 72q19 0 30 20.5t11 46.5q0 43 -28 43q-19 0 -30 -20.5t-11 -46.5q0 -43 28 -43zM516 -6
q-62 0 -98 34.5t-36 88.5q0 60 43 102.5t113 42.5q62 0 98 -34.5t36 -88.5q0 -60 -43 -102.5t-113 -42.5z" />
    <glyph glyph-name="exclamdbl.sc" horiz-adv-x="578" 
d="M339 189l35 361h180l-91 -361h-124zM380 -12q-39 0 -63.5 23t-24.5 60t24.5 60t63.5 23t63.5 -23t24.5 -60t-24.5 -60t-63.5 -23zM93 189l35 361h180l-91 -361h-124zM134 -12q-39 0 -63.5 23t-24.5 60t24.5 60t63.5 23t63.5 -23t24.5 -60t-24.5 -60t-63.5 -23z" />
    <glyph glyph-name="Euro.sc" horiz-adv-x="522" 
d="M26 289l14 83h73q35 86 106 138t168 52q78 0 143 -38l-47 -107q-51 35 -95 35q-80 0 -123 -80h152l-15 -83h-164q-2 -13 -4 -35h162l-15 -83h-143q18 -79 89 -79q51 0 108 36l11 -105q-62 -35 -146 -35q-88 0 -144 47t-69 136h-82l14 83h66q2 22 4 35h-63z" />
    <glyph glyph-name="uni20B1.sc" horiz-adv-x="550" 
d="M16 319l15 83h70l26 148h195q92 0 147 -37.5t63 -110.5h52l-15 -83h-42q-18 -69 -81.5 -106t-165.5 -37h-64l-31 -176h-155l56 319h-70zM233 274h29q82 0 107 45h-128zM264 447l-8 -45h122q-11 45 -69 45h-45z" />
    <glyph glyph-name="uni20B4.sc" horiz-adv-x="527" 
d="M27 289l15 83h296q12 14 12 32q0 45 -70 45q-61 0 -138 -36l-10 113q87 36 176 36q91 0 143.5 -38.5t52.5 -110.5q0 -21 -5 -41h30l-15 -83h-84q-21 -15 -81 -35h159l-15 -83h-303q-6 -11 -6 -24q0 -52 86 -52q68 0 150 36l12 -107q-89 -36 -188 -36q-101 0 -158 38.5
t-57 114.5q0 15 3 30h-26l15 83h64q14 12 68 35h-126z" />
    <glyph glyph-name="uni2116.sc" horiz-adv-x="932" 
d="M764 348q19 0 30 20.5t11 46.5q0 43 -28 43q-19 0 -30 -20.5t-11 -46.5q0 -43 28 -43zM760 270q-62 0 -98 34.5t-36 88.5q0 60 43 102.5t113 42.5q62 0 98 -34.5t36 -88.5q0 -60 -43 -102.5t-113 -42.5zM32 0l97 550h164l124 -283l50 283h144l-97 -550h-126l-151 344
l-61 -344h-144z" />
    <glyph glyph-name="uni2117.sc" horiz-adv-x="674" 
d="M623 275q0 -123 -83.5 -205t-203.5 -82t-203.5 82t-83.5 205t83.5 205t203.5 82t203.5 -82t83.5 -205zM122 275q0 -94 62.5 -157t151.5 -63t151.5 63t62.5 157t-62.5 157t-151.5 63t-151.5 -63t-62.5 -157zM324 283h21q33 0 33 26t-33 26h-21v-52zM232 142v263h122
q55 0 85.5 -24t30.5 -69q0 -46 -32 -70t-89 -24h-25v-76h-92z" />
    <glyph glyph-name="uniFB00.sc" horiz-adv-x="946" 
d="M32 0l97 550h376l-21 -121h-220l-20 -115h191l-20 -113h-191l-35 -201h-157zM505 0l97 550h376l-21 -121h-220l-20 -115h191l-20 -113h-191l-35 -201h-157z" />
    <glyph glyph-name="fi.sc" horiz-adv-x="792" 
d="M32 0l97 550h376l-21 -121h-220l-20 -115h191l-20 -113h-191l-35 -201h-157zM507 0l97 550h157l-97 -550h-157z" />
    <glyph glyph-name="fl.sc" horiz-adv-x="939" 
d="M32 0l97 550h376l-21 -121h-220l-20 -115h191l-20 -113h-191l-35 -201h-157zM504 0l97 550h157l-76 -429h214l-21 -121h-371z" />
    <glyph glyph-name="uniFB03.sc" horiz-adv-x="1268" 
d="M32 0l97 550h376l-21 -121h-220l-20 -115h191l-20 -113h-191l-35 -201h-157zM505 0l97 550h376l-21 -121h-220l-20 -115h191l-20 -113h-191l-35 -201h-157zM984 0l97 550h157l-97 -550h-157z" />
    <glyph glyph-name="uniFB04.sc" horiz-adv-x="1413" 
d="M32 0l97 550h376l-21 -121h-220l-20 -115h191l-20 -113h-191l-35 -201h-157zM505 0l97 550h376l-21 -121h-220l-20 -115h191l-20 -113h-191l-35 -201h-157zM978 0l97 550h157l-76 -429h214l-21 -121h-371z" />
    <glyph glyph-name="uni0306.alt001.sc" horiz-adv-x="1" 
d="M-250 593q-167 0 -167 114q0 17 3 33h107q-2 -14 -2 -21q0 -47 64 -47q40 0 60 16.5t26 51.5h107q-13 -74 -59 -110.5t-139 -36.5z" />
    <glyph glyph-name="a.sups.sc" horiz-adv-x="370" 
d="M331 720l50 -340h-105l-5 51h-107l-22 -51h-108l172 340h125zM253 639l-59 -138h71z" />
    <glyph glyph-name="b.sups.sc" horiz-adv-x="370" 
d="M72 380l60 340h139q122 0 122 -87q0 -64 -65 -83q52 -18 52 -72q0 -45 -35.5 -71.5t-105.5 -26.5h-167zM186 450h44q48 0 48 36q0 30 -37 30h-43zM210 582h35q46 0 46 34q0 29 -36 29h-34z" />
    <glyph glyph-name="d.sups.sc" horiz-adv-x="393" 
d="M190 457h37q43 0 67 30.5t24 77.5q0 75 -59 75h-37zM227 380h-155l60 340h127q76 0 119.5 -39.5t43.5 -112.5q0 -81 -53 -134.5t-142 -53.5z" />
    <glyph glyph-name="e.sups.sc" horiz-adv-x="320" 
d="M72 380l60 340h245l-14 -80h-141l-9 -52h121l-13 -75h-121l-10 -55h142l-14 -78h-246z" />
    <glyph glyph-name="h.sups.sc" horiz-adv-x="399" 
d="M72 380l60 340h104l-22 -127h90l22 127h105l-60 -340h-105l24 133h-90l-24 -133h-104z" />
    <glyph glyph-name="i.sups.sc" horiz-adv-x="212" 
d="M76 380l60 340h104l-60 -340h-104z" />
    <glyph glyph-name="l.sups.sc" horiz-adv-x="293" 
d="M72 380l60 340h104l-46 -260h127l-14 -80h-231z" />
    <glyph glyph-name="m.sups.sc" horiz-adv-x="531" 
d="M410 380l19 153q6 45 13 82h-2q-10 -30 -31 -74l-79 -161h-90l-18 157q-6 46 -6 78h-2q-2 -17 -18 -85l-35 -150h-95l93 340h128l14 -161q3 -37 3 -66h2q9 24 28 64l80 163h125l-29 -340h-100z" />
    <glyph glyph-name="n.sups.sc" horiz-adv-x="403" 
d="M72 380l60 340h109l70 -162l29 162h96l-60 -340h-88l-85 197l-35 -197h-96z" />
    <glyph glyph-name="o.sups.sc" horiz-adv-x="385" 
d="M233 449q35 0 56.5 33.5t21.5 82.5q0 82 -56 82q-35 0 -56.5 -33.5t-21.5 -82.5q0 -82 56 -82zM415 569q0 -83 -52 -139.5t-135 -56.5q-70 0 -112.5 42t-42.5 116q0 83 52 139.5t135 56.5q70 0 112.5 -42t42.5 -116z" />
    <glyph glyph-name="r.sups.sc" horiz-adv-x="387" 
d="M273 380l-45 118h-35l-21 -118h-101l60 340h141q135 0 135 -104q0 -80 -78 -107l50 -129h-106zM205 566h44q26 0 41.5 11.5t15.5 31.5q0 32 -43 32h-45z" />
    <glyph glyph-name="s.sups.sc" horiz-adv-x="314" 
d="M51 400l32 74q55 -24 93 -24q51 0 51 30q0 15 -20 27t-44 20t-44 30.5t-20 56.5q0 50 39 81.5t106 31.5q61 0 113 -26l-33 -78q-46 24 -77 24q-44 0 -44 -25q0 -11 13 -19.5t32 -15.5t38 -17t32 -30t13 -49q0 -53 -43 -85.5t-114 -32.5q-67 0 -123 27z" />
    <glyph glyph-name="t.sups.sc" horiz-adv-x="309" 
d="M124 380l46 260h-90l14 80h284l-14 -80h-90l-46 -260h-104z" />
    <glyph glyph-name="u.sups.sc" horiz-adv-x="396" 
d="M323 720h94l-39 -221q-22 -126 -162 -126q-132 0 -132 107q0 19 5 47l34 193h97l-35 -198q-3 -24 -3 -29q0 -40 42 -40q52 0 64 69z" />
    <glyph glyph-name="egrave.sups.sc" horiz-adv-x="320" 
d="M323 745h-77l-80 94h109zM72 380l60 340h245l-14 -80h-141l-9 -52h121l-13 -75h-121l-10 -55h142l-14 -78h-246z" />
    <glyph glyph-name="dollar.tf.sc" horiz-adv-x="520" 
d="M159 -76l14 78q-86 8 -158 42l50 110q82 -39 148 -39q42 0 68 15t26 39q0 21 -23 35.5t-56 25.5t-66 26t-56 45t-23 74q0 66 50 113t135 58l12 65h94l-12 -64q76 -7 138 -40l-50 -113q-68 37 -127 37q-37 0 -60.5 -12.5t-23.5 -32.5q0 -18 23 -31t56 -24t66 -26t56 -46
t23 -76q0 -70 -53 -119t-143 -61l-14 -79h-94z" />
    <glyph glyph-name="zero.tf.sc" horiz-adv-x="520" 
d="M241 102q48 0 79 65t31 154q0 123 -64 123q-48 0 -79 -65t-31 -154q0 -123 64 -123zM233 -12q-95 0 -153 64.5t-58 179.5q0 134 76.5 232t196.5 98q95 0 153 -64.5t58 -179.5q0 -134 -76.5 -232t-196.5 -98z" />
    <glyph glyph-name="one.tf.sc" horiz-adv-x="520" 
d="M49 0l20 114h115l48 274l-101 -46l-25 119l190 89h116l-77 -436h96l-20 -114h-362z" />
    <glyph glyph-name="two.tf.sc" horiz-adv-x="520" 
d="M113 365l-22 123q76 74 197 74q88 0 139 -44.5t51 -118.5q0 -70 -52 -135.5t-167 -151.5h182l-20 -112h-416l17 99q166 107 233.5 171.5t67.5 112.5q0 25 -16.5 40.5t-48.5 15.5q-75 0 -145 -74z" />
    <glyph glyph-name="three.tf.sc" horiz-adv-x="520" 
d="M295 163q0 58 -118 58q-13 0 -57 -2l18 103q105 0 149.5 19t44.5 55q0 50 -69 50q-65 0 -145 -47l-10 116q88 47 186 47q87 0 140 -36t53 -102q0 -106 -138 -147q108 -31 108 -125q0 -75 -67.5 -119.5t-182.5 -44.5q-114 0 -204 44l50 105q80 -39 141 -39q49 0 75 17.5
t26 47.5z" />
    <glyph glyph-name="four.tf.sc" horiz-adv-x="520" 
d="M-17 98l18 105l285 347h199l-60 -339h81l-20 -113h-81l-17 -98h-151l17 98h-271zM149 211h125l35 201z" />
    <glyph glyph-name="five.tf.sc" horiz-adv-x="520" 
d="M194 246q-58 0 -133 -16l67 320h372l-20 -111h-227l-17 -86h16q98 0 154 -46t56 -129q0 -89 -67 -139.5t-189 -50.5q-112 0 -203 43l50 108q78 -39 140 -39q55 0 84.5 20.5t29.5 56.5q0 69 -113 69z" />
    <glyph glyph-name="six.tf.sc" horiz-adv-x="520" 
d="M304 372q77 0 124 -48t47 -127q0 -93 -63.5 -151t-157.5 -58q-99 0 -160 66.5t-61 184.5q0 137 81 230t220 93q92 0 170 -38l-50 -111q-72 33 -122 33q-101 0 -134 -108q46 34 106 34zM264 261q-36 0 -80 -31q1 -131 74 -131q32 0 51.5 25t19.5 64q0 35 -17 54t-48 19z
" />
    <glyph glyph-name="seven.tf.sc" horiz-adv-x="520" 
d="M230 0h-183q125 233 251 424h-211l22 126h398l-21 -118q-133 -201 -256 -432z" />
    <glyph glyph-name="eight.tf.sc" horiz-adv-x="520" 
d="M471 155q0 -74 -67 -120.5t-177 -46.5q-101 0 -160 41t-59 111q0 57 37 90.5t104 59.5q-73 40 -73 113q0 70 61 114.5t159 44.5q91 0 144 -39t53 -105q0 -89 -115 -136q93 -48 93 -127zM223 406q0 -34 54 -65q34 16 51.5 31.5t17.5 38.5q0 22 -15.5 34.5t-41.5 12.5
q-28 0 -47 -14.5t-19 -37.5zM317 154q0 42 -67 77q-41 -15 -64 -34.5t-23 -50.5q0 -28 19 -43.5t51 -15.5q35 0 59.5 18.5t24.5 48.5z" />
    </font>
</defs>
</svg>
