<?xml version="1.0" standalone="no"?>
<!DOCTYPE svg PUBLIC "-//W3C//DTD SVG 1.1//EN" "http://www.w3.org/Graphics/SVG/1.1/DTD/svg11.dtd" >
<svg xmlns="http://www.w3.org/2000/svg" xmlns:xlink="http://www.w3.org/1999/xlink" version="1.1">
<metadata>
Created by FontForge 20170731 at Mon Jun 30 19:52:18 2014
 By Aleksey,,,
2011 published by FontShop International GmbH
</metadata>
<defs>
<font id="SeroOT-LightItalic" horiz-adv-x="1000" >
  <font-face 
    font-family="SeroOT-LightItalic"
    font-weight="350"
    font-style="italic"
    font-stretch="normal"
    units-per-em="1000"
    panose-1="2 11 5 4 2 1 1 2 1 2"
    ascent="778"
    descent="-222"
    x-height="510"
    cap-height="720"
    bbox="-352 -222 2776 914"
    underline-thickness="57"
    underline-position="-213"
    slope="-10"
    unicode-range="U+000D-1F4AC"
  />
<missing-glyph horiz-adv-x="500" 
d="M-45 0l127 720h500l-127 -720h-500zM129 660l-106 -600h385l106 600h-385z" />
    <glyph glyph-name="f_b" unicode="fb" horiz-adv-x="891" 
d="M60 451l11 59h104l15 86q12 66 43 98t103 32q32 0 67 -7l-10 -58q-27 6 -48 6q-42 0 -61.5 -21t-27.5 -67l-12 -69h123l-11 -59h-123l-79 -451h-69l79 451h-104zM483 720h69l-49 -278q72 80 167 80q79 0 128.5 -56t49.5 -164q0 -132 -71.5 -223t-185.5 -91q-89 0 -158 74
l-11 -62h-66zM654 461q-84 0 -163 -86l-46 -258q65 -70 143 -70q88 0 139.5 73t51.5 177q0 83 -34 123.5t-91 40.5z" />
    <glyph glyph-name="f_f" unicode="ff" horiz-adv-x="636" 
d="M60 451l11 59h104l15 86q12 66 43 98t103 32q32 0 67 -7l-10 -58q-27 6 -48 6q-42 0 -61.5 -21t-27.5 -67l-12 -69h231l15 86q12 66 43 98t103 32q32 0 67 -7l-10 -58q-27 6 -48 6q-42 0 -61.5 -21t-27.5 -67l-12 -69h123l-11 -59h-123l-79 -451h-69l79 451h-231
l-79 -451h-69l79 451h-104z" />
    <glyph glyph-name="f_f_i" unicode="ffi" horiz-adv-x="862" 
d="M662 0l90 510h69l-90 -510h-69zM857 652q0 -20 -13 -33t-33 -13t-33 13t-13 33t13 33t33 13t33 -13t13 -33zM60 451l11 59h104l15 86q12 66 43 98t103 32q32 0 67 -7l-10 -58q-27 6 -48 6q-42 0 -61.5 -21t-27.5 -67l-12 -69h231l15 86q12 66 43 98t103 32q32 0 67 -7
l-10 -58q-27 6 -48 6q-42 0 -61.5 -21t-27.5 -67l-12 -69h123l-11 -59h-123l-79 -451h-69l79 451h-231l-79 -451h-69l79 451h-104z" />
    <glyph glyph-name="f_f_l" unicode="ffl" horiz-adv-x="862" 
d="M662 0l127 720h69l-127 -720h-69zM60 451l11 59h104l15 86q12 66 43 98t103 32q32 0 67 -7l-10 -58q-27 6 -48 6q-42 0 -61.5 -21t-27.5 -67l-12 -69h231l15 86q12 66 43 98t103 32q32 0 67 -7l-10 -58q-27 6 -48 6q-42 0 -61.5 -21t-27.5 -67l-12 -69h123l-11 -59h-123
l-79 -451h-69l79 451h-231l-79 -451h-69l79 451h-104z" />
    <glyph glyph-name="f_h" unicode="fh" horiz-adv-x="889" 
d="M60 451l11 59h104l15 86q12 66 43 98t103 32q32 0 67 -7l-10 -58q-27 6 -48 6q-42 0 -61.5 -21t-27.5 -67l-12 -69h123l-11 -59h-123l-79 -451h-69l79 451h-104zM356 0l127 720h69l-52 -294q96 96 206 96q57 0 93.5 -28t36.5 -93q0 -23 -4 -44l-63 -357h-69l63 357
q3 18 3 31q0 72 -82 72q-92 0 -195 -99l-64 -361h-69z" />
    <glyph glyph-name="f_i" unicode="fi" horiz-adv-x="562" 
d="M362 0l90 510h69l-90 -510h-69zM557 652q0 -20 -13 -33t-33 -13t-33 13t-13 33t13 33t33 13t33 -13t13 -33zM60 451l11 59h104l15 86q12 66 43 98t103 32q32 0 67 -7l-10 -58q-27 6 -48 6q-42 0 -61.5 -21t-27.5 -67l-12 -69h123l-11 -59h-123l-79 -451h-69l79 451h-104z
" />
    <glyph glyph-name="f_j" unicode="fj" horiz-adv-x="563" 
d="M60 451l11 59h104l15 86q12 66 43 98t103 32q32 0 67 -7l-10 -58q-27 6 -48 6q-42 0 -61.5 -21t-27.5 -67l-12 -69h123l-11 -59h-123l-79 -451h-69l79 451h-104zM522 510l-105 -596q-12 -66 -43 -98t-103 -32q-32 0 -67 7l10 58q27 -6 48 -6q42 0 61.5 21t27.5 67
l102 579h69zM558 652q0 -20 -13 -33t-33 -13t-33 13t-13 33t13 33t33 13t33 -13t13 -33z" />
    <glyph glyph-name="f_k" unicode="fk" horiz-adv-x="846" 
d="M60 451l11 59h104l15 86q12 66 43 98t103 32q32 0 67 -7l-10 -58q-27 6 -48 6q-42 0 -61.5 -21t-27.5 -67l-12 -69h123l-11 -59h-123l-79 -451h-69l79 451h-104zM701 0l-143 284l-97 -80l-36 -204h-69l127 720h69l-77 -437l273 227h91l-231 -186l164 -324h-71z" />
    <glyph glyph-name="f_l" unicode="fl" horiz-adv-x="562" 
d="M362 0l127 720h69l-127 -720h-69zM60 451l11 59h104l15 86q12 66 43 98t103 32q32 0 67 -7l-10 -58q-27 6 -48 6q-42 0 -61.5 -21t-27.5 -67l-12 -69h123l-11 -59h-123l-79 -451h-69l79 451h-104z" />
    <glyph glyph-name="f_t" unicode="ft" horiz-adv-x="675" 
d="M233 451l-79 -451h-69l79 451h-104l11 59h104l15 86q12 66 43 98t103 32q32 0 67 -7l-10 -58q-27 6 -48 6q-42 0 -61.5 -21t-27.5 -67l-12 -69h231l30 170h69l-30 -170h135l-11 -59h-135l-54 -310q-5 -25 -5 -42q0 -25 12.5 -35.5t42.5 -10.5q31 0 72 13l-11 -60
q-42 -12 -79 -12q-53 0 -80 21.5t-27 74.5q0 20 8 66l52 295h-231z" />
    <glyph glyph-name=".notdef" horiz-adv-x="500" 
d="M-45 0l127 720h500l-127 -720h-500zM129 660l-106 -600h385l106 600h-385z" />
    <glyph glyph-name=".null" horiz-adv-x="0" 
 />
    <glyph glyph-name="nonmarkingreturn" horiz-adv-x="333" 
 />
    <glyph glyph-name="CR" unicode="&#xd;" horiz-adv-x="220" 
 />
    <glyph glyph-name="space" unicode=" " horiz-adv-x="220" 
 />
    <glyph glyph-name="exclam" unicode="!" horiz-adv-x="315" 
d="M122 197l80 523h74l-104 -523h-50zM166 35q0 -20 -13 -33.5t-34 -13.5t-34 13.5t-13 33.5t13 33.5t34 13.5t34 -13.5t13 -33.5z" />
    <glyph glyph-name="quotedbl" unicode="&#x22;" horiz-adv-x="395" 
d="M291 467l39 253h64l-49 -253h-54zM125 467l39 253h64l-49 -253h-54z" />
    <glyph glyph-name="numbersign" unicode="#" horiz-adv-x="572" 
d="M247 0l84 216h-159l-84 -216h-56l84 216h-97l10 56h109l53 136h-99l9 56h112l84 216h56l-84 -216h159l84 216h56l-84 -216h97l-10 -56h-109l-53 -136h99l-9 -56h-112l-84 -216h-56zM247 408l-53 -136h159l53 136h-159z" />
    <glyph glyph-name="dollar" unicode="$" horiz-adv-x="559" 
d="M195 -100l18 100q-107 8 -193 64l34 60q85 -56 170 -62l50 287q-37 16 -59 28t-48 32.5t-38.5 48.5t-12.5 64q0 82 63 137t161 60l14 81h49l-15 -82q89 -8 166 -61l-34 -60q-72 51 -143 59l-45 -256q39 -16 62 -28.5t51 -34t41.5 -51.5t13.5 -70q0 -89 -66.5 -148.5
t-171.5 -67.5l-18 -100h-49zM430 204q0 45 -28.5 73t-81.5 53l-47 -267q70 8 113.5 46.5t43.5 94.5zM186 531q0 -40 26 -64.5t75 -46.5l41 236q-64 -6 -103 -41t-39 -84z" />
    <glyph glyph-name="percent" unicode="%" horiz-adv-x="742" 
d="M707 720l-569 -720h-65l569 720h65zM163 543q0 -45 21 -72t61 -27q51 0 79.5 41t28.5 96q0 45 -21 72t-61 27q-51 0 -79.5 -41t-28.5 -96zM408 578q0 -72 -44.5 -126t-117.5 -54q-63 0 -100.5 42t-37.5 106q0 72 44.5 126t117.5 54q63 0 100.5 -42t37.5 -106zM427 139
q0 -45 21 -72t61 -27q51 0 79.5 41t28.5 96q0 45 -21 72t-61 27q-51 0 -79.5 -41t-28.5 -96zM672 174q0 -72 -44.5 -126t-117.5 -54q-63 0 -100.5 42t-37.5 106q0 72 44.5 126t117.5 54q63 0 100.5 -42t37.5 -106z" />
    <glyph glyph-name="ampersand" unicode="&#x26;" horiz-adv-x="609" 
d="M161 524q0 76 56.5 122t142.5 46q80 0 126 -39.5t46 -99.5q0 -37 -15.5 -65.5t-55.5 -53.5t-63.5 -36.5t-82.5 -35.5q-6 -3 -9 -4l123 -203q53 53 105 128l47 -39q-62 -87 -120 -142l58 -93l-57 -37l-51 86q-97 -71 -200 -71q-88 0 -139.5 46.5t-51.5 125.5q0 43 15.5 78
t45.5 61.5t61 44.5t75 37q-4 6 -14.5 23.5t-15.5 27.5t-12.5 26t-10.5 32.5t-3 34.5zM216 45q84 0 165 64l-135 223q-75 -34 -116.5 -72.5t-41.5 -98.5q0 -52 34 -84t94 -32zM227 524q0 -8 1.5 -16t2.5 -14t5 -15l6 -13.5t8 -15.5t8 -14t10 -16t10 -16q41 16 59 23
t48.5 22.5t44.5 28t25.5 31.5t11.5 40q0 37 -28 61.5t-78 24.5q-56 0 -95 -30.5t-39 -80.5z" />
    <glyph glyph-name="quotesingle" unicode="'" horiz-adv-x="228" 
d="M125 467l39 253h64l-49 -253h-54z" />
    <glyph glyph-name="parenleft" unicode="(" horiz-adv-x="363" 
d="M112 201q0 -214 139 -353l-41 -34q-167 157 -167 388q0 81 22 155t53 126.5t79.5 102.5t86.5 80t88 64l28 -45q-288 -193 -288 -484z" />
    <glyph glyph-name="parenright" unicode=")" horiz-adv-x="363" 
d="M256 343q0 214 -139 353l41 34q167 -157 167 -388q0 -81 -22 -155t-53 -126.5t-79.5 -102.5t-86.5 -80t-88 -64l-28 45q288 193 288 484z" />
    <glyph glyph-name="asterisk" unicode="*" horiz-adv-x="423" 
d="M429 535l-140 11l80 -115l-46 -27l-60 126l-60 -126l-46 27l80 115l-140 -11v54l140 -11l-80 115l46 27l60 -126l60 126l46 -27l-80 -115l140 11v-54z" />
    <glyph glyph-name="plus" unicode="+" horiz-adv-x="572" 
d="M271 0h-60l39 225h-213l10 60h215l39 225h60l-39 -225h213l-10 -60h-215z" />
    <glyph glyph-name="comma" unicode="," horiz-adv-x="279" 
d="M98 -9h-3q-23 0 -37 13.5t-14 34.5t13.5 35t34.5 14q27 0 44 -21.5t17 -55.5q0 -101 -147 -175l-31 40q104 47 123 115z" />
    <glyph glyph-name="hyphen" unicode="-" horiz-adv-x="406" 
d="M71 282l10 59h274l-10 -59h-274z" />
    <glyph glyph-name="period" unicode="." horiz-adv-x="279" 
d="M150 38q0 -21 -14 -35.5t-36 -14.5t-36 14.5t-14 35.5t14 35.5t36 14.5t36 -14.5t14 -35.5z" />
    <glyph glyph-name="slash" unicode="/" horiz-adv-x="557" 
d="M-28 -40l567 760h76l-567 -760h-76z" />
    <glyph glyph-name="zero" unicode="0" horiz-adv-x="623" 
d="M294 50q69 0 123.5 53t82.5 137.5t28 183.5q0 120 -42.5 183t-118.5 63q-69 0 -123.5 -53t-82.5 -137.5t-28 -183.5q0 -120 42.5 -183t118.5 -63zM290 -12q-103 0 -165 80.5t-62 226.5q0 114 37.5 213.5t109 161.5t161.5 62q103 0 165 -80.5t62 -226.5
q0 -114 -37.5 -213.5t-109 -161.5t-161.5 -62z" />
    <glyph glyph-name="one" unicode="1" horiz-adv-x="355" 
d="M122 574l-15 63l168 83h56l-127 -720h-69l112 635z" />
    <glyph glyph-name="two" unicode="2" horiz-adv-x="562" 
d="M469 545q0 55 -33.5 89.5t-95.5 34.5q-113 0 -205 -114l-17 64q43 53 102 83t127 30q89 0 140 -50t51 -134q0 -95 -88 -203t-318 -283h338l-11 -62h-449l9 54q256 195 353 300t97 191z" />
    <glyph glyph-name="three" unicode="3" horiz-adv-x="545" 
d="M330 732q86 0 140 -43t54 -121q0 -73 -49.5 -124t-140.5 -75q143 -36 143 -168q0 -98 -76.5 -155.5t-194.5 -57.5q-119 0 -210 57l33 59q89 -55 181 -55q87 0 141.5 42t54.5 112q0 66 -49 99t-140 33q-8 0 -64 -2l11 62q135 0 212 41.5t77 121.5q0 54 -35.5 82.5
t-94.5 28.5q-89 0 -182 -67l-11 63q93 67 200 67z" />
    <glyph glyph-name="four" unicode="4" horiz-adv-x="586" 
d="M15 155l11 60l411 505h95l-89 -503h111l-11 -62h-110l-28 -155h-69l27 155h-348zM101 217h273l76 429z" />
    <glyph glyph-name="five" unicode="5" horiz-adv-x="537" 
d="M419 236q0 75 -46.5 112.5t-133.5 37.5q-75 0 -157 -26l76 360h384l-11 -63h-319l-48 -222q51 11 93 11q103 0 167.5 -55t64.5 -156q0 -113 -78.5 -180t-201.5 -67q-117 0 -208 58l34 59q87 -55 178 -55q92 0 149 50t57 136z" />
    <glyph glyph-name="six" unicode="6" horiz-adv-x="581" 
d="M401 732q96 0 176 -51l-36 -58q-75 47 -146 47q-105 0 -174 -80.5t-84 -212.5q86 89 196 89q90 0 147 -60t57 -160q0 -113 -70.5 -185.5t-170.5 -72.5q-104 0 -168.5 84t-64.5 234q0 184 95 305t243 121zM322 405q-91 0 -189 -95v-4q0 -127 45 -192t122 -65q72 0 120 53
t48 139q0 77 -39.5 120.5t-106.5 43.5z" />
    <glyph glyph-name="seven" unicode="7" horiz-adv-x="544" 
d="M172 0h-85q200 361 396 656h-361l11 64h449l-10 -59q-198 -297 -400 -661z" />
    <glyph glyph-name="eight" unicode="8" horiz-adv-x="578" 
d="M529 192q0 -92 -75.5 -148t-190.5 -56q-107 0 -173 50t-66 137q0 44 17.5 78t53.5 58t69.5 39t85.5 32q-127 64 -127 166q0 80 66.5 132t165.5 52q90 0 147.5 -45t57.5 -122q0 -70 -48.5 -112.5t-136.5 -73.5q72 -34 113 -76.5t41 -110.5zM192 550q0 -46 32.5 -77
t94.5 -62q83 30 127.5 62.5t44.5 88.5q0 51 -39 81t-101 30q-68 0 -113.5 -34t-45.5 -89zM459 189q0 30 -11.5 53.5t-37.5 44t-45.5 32t-58.5 31.5q-43 -15 -64.5 -23.5t-55 -25.5t-50 -32.5t-29.5 -39.5t-13 -53q0 -61 47 -95.5t124 -34.5q84 0 139 39t55 104z" />
    <glyph glyph-name="nine" unicode="9" horiz-adv-x="581" 
d="M217 -12q-96 0 -176 51l36 57q75 -47 146 -47q105 0 174 80.5t84 212.5q-87 -88 -196 -88q-90 0 -147 60t-57 160q0 113 70.5 185.5t170.5 72.5q104 0 168.5 -84t64.5 -234q0 -184 -95 -305t-243 -121zM296 314q89 0 189 94v5q0 127 -45 192t-122 65q-72 0 -120 -53
t-48 -139q0 -77 39.5 -120.5t106.5 -43.5z" />
    <glyph glyph-name="colon" unicode=":" horiz-adv-x="279" 
d="M150 38q0 -21 -14 -35.5t-36 -14.5t-36 14.5t-14 35.5t14 35.5t36 14.5t36 -14.5t14 -35.5zM220 440q0 -21 -14 -35.5t-36 -14.5t-36 14.5t-14 35.5t14 35.5t36 14.5t36 -14.5t14 -35.5z" />
    <glyph glyph-name="semicolon" unicode=";" horiz-adv-x="279" 
d="M98 -9h-3q-23 0 -37 13.5t-14 34.5t13.5 35t34.5 14q27 0 44 -21.5t17 -55.5q0 -101 -147 -175l-31 40q104 47 123 115zM219 440q0 -21 -14 -35.5t-36 -14.5t-36 14.5t-14 35.5t14 35.5t36 14.5t36 -14.5t14 -35.5z" />
    <glyph glyph-name="less" unicode="&#x3c;" horiz-adv-x="572" 
d="M37 227l10 56l528 227l-12 -66l-452 -192l384 -194l-10 -58z" />
    <glyph glyph-name="equal" unicode="=" horiz-adv-x="572" 
d="M553 385l-10 -56h-488l10 56h488zM517 181l-10 -56h-488l10 56h488z" />
    <glyph glyph-name="greater" unicode="&#x3e;" horiz-adv-x="572" 
d="M535 283l-10 -56l-528 -227l12 66l452 192l-384 194l10 58z" />
    <glyph glyph-name="question" unicode="?" horiz-adv-x="423" 
d="M154 197h-58q-3 13 -3 29q0 42 26.5 78.5t65 64t76.5 54.5t64.5 63t26.5 78q0 54 -38.5 81t-99.5 27q-45 0 -101 -14l10 59q48 15 102 15q86 0 141 -42.5t55 -119.5q0 -44 -20 -81.5t-49.5 -63t-64.5 -51.5t-64.5 -47t-49.5 -50t-20 -61q0 -11 1 -19zM142 35
q0 -20 -13 -33.5t-34 -13.5t-34 13.5t-13 33.5t13 33.5t34 13.5t34 -13.5t13 -33.5z" />
    <glyph glyph-name="at" unicode="@" horiz-adv-x="836" 
d="M419 -95q-161 0 -265.5 93t-104.5 260q0 170 108.5 280.5t280.5 110.5q155 0 251 -92t96 -242q0 -112 -52 -173t-125 -61q-48 0 -76.5 26t-33.5 69q-38 -45 -73.5 -70t-78.5 -25q-51 0 -81.5 36t-30.5 110q0 97 53 171.5t160 74.5q62 0 121 -27l-22 -210q-2 -20 -2 -30
q0 -78 66 -78q54 0 89 52.5t35 136.5q0 128 -83 206t-215 78q-148 0 -242 -97t-94 -246q0 -146 90 -225.5t228 -79.5q94 0 198 40l15 -48q-104 -40 -212 -40zM354 130q66 0 140 103l18 177q-38 15 -72 15q-42 0 -74 -19.5t-48.5 -50.5t-24 -62.5t-7.5 -63.5q0 -51 18.5 -75
t49.5 -24z" />
    <glyph glyph-name="A" unicode="A" horiz-adv-x="673" 
d="M462 720l130 -720h-70l-36 206h-311l-109 -206h-75l388 720h83zM409 647l-202 -380h268z" />
    <glyph glyph-name="B" unicode="B" horiz-adv-x="643" 
d="M51 0l127 720h214q100 0 156.5 -43.5t56.5 -129.5q0 -138 -142 -181q112 -36 112 -157q0 -95 -70 -152t-204 -57h-250zM133 61h168q101 0 152.5 39.5t51.5 112.5q0 124 -155 124h-168zM192 396h148q96 0 145.5 38t49.5 107q0 117 -148 117h-149z" />
    <glyph glyph-name="C" unicode="C" horiz-adv-x="607" 
d="M510 118l12 -65q-90 -65 -197 -65q-117 0 -187.5 78t-70.5 227q0 116 42 214.5t128 161.5t200 63q108 0 191 -60l-34 -62q-79 58 -165 58q-136 0 -213.5 -109.5t-77.5 -261.5q0 -122 52 -184t140 -62q90 0 180 67z" />
    <glyph glyph-name="D" unicode="D" horiz-adv-x="695" 
d="M178 720h210q127 0 202 -81.5t75 -224.5q0 -110 -43 -202.5t-131.5 -152t-207.5 -59.5h-232zM133 64h150q100 0 172 51t105.5 128.5t33.5 169.5q0 116 -55.5 179t-150.5 63h-151z" />
    <glyph glyph-name="E" unicode="E" horiz-adv-x="588" 
d="M51 0l127 720h438l-11 -65h-367l-44 -249h323l-11 -63h-323l-50 -279h369l-11 -64h-440z" />
    <glyph glyph-name="F" unicode="F" horiz-adv-x="543" 
d="M51 0l127 720h411l-11 -65h-340l-46 -259h304l-11 -63h-304l-59 -333h-71z" />
    <glyph glyph-name="G" unicode="G" horiz-adv-x="675" 
d="M349 49q76 0 150 36l40 228h-164l11 61h232l-56 -321q-106 -65 -222 -65q-128 0 -200.5 77t-72.5 230q0 119 43 217t131 159t206 61q123 0 220 -72l-34 -62q-93 70 -192 70q-96 0 -166 -52t-103.5 -134t-33.5 -182q0 -126 55.5 -188.5t155.5 -62.5z" />
    <glyph glyph-name="H" unicode="H" horiz-adv-x="703" 
d="M51 0l127 720h71l-55 -312h369l55 312h71l-127 -720h-71l61 343h-369l-61 -343h-71z" />
    <glyph glyph-name="I" unicode="I" horiz-adv-x="281" 
d="M60 0l127 720h71l-127 -720h-71z" />
    <glyph glyph-name="J" unicode="J" horiz-adv-x="405" 
d="M-13 4l11 65q48 -11 89 -11q71 0 104 36t46 111l91 515h71l-93 -528q-17 -99 -65.5 -148.5t-154.5 -49.5q-56 0 -99 10z" />
    <glyph glyph-name="K" unicode="K" horiz-adv-x="643" 
d="M51 0l127 720h71l-64 -363l400 363h94l-307 -272l204 -448h-74l-182 402l-151 -132l-47 -270h-71z" />
    <glyph glyph-name="L" unicode="L" horiz-adv-x="530" 
d="M51 0l127 720h71l-116 -655h332l-11 -65h-403z" />
    <glyph glyph-name="M" unicode="M" horiz-adv-x="907" 
d="M763 720h93l-72 -720h-72l51 450q9 81 26 192h-2q-15 -42 -94 -186l-253 -456h-66l-84 456q-29 152 -29 186h-2q-2 -15 -43 -184l-113 -458h-70l186 720h94l79 -452q20 -112 28 -180h2q17 36 93 178z" />
    <glyph glyph-name="N" unicode="N" horiz-adv-x="709" 
d="M51 0l127 720h81l266 -589l104 589h67l-127 -720h-59l-282 623l-110 -623h-67z" />
    <glyph glyph-name="O" unicode="O" horiz-adv-x="716" 
d="M344 52q120 0 194.5 102.5t74.5 252.5q0 127 -55.5 194t-149.5 67q-120 0 -194.5 -102.5t-74.5 -252.5q0 -127 55.5 -194t149.5 -67zM342 -12q-123 0 -198.5 86.5t-75.5 238.5q0 176 96.5 297.5t245.5 121.5q123 0 198.5 -86.5t75.5 -238.5q0 -176 -96.5 -297.5
t-245.5 -121.5z" />
    <glyph glyph-name="P" unicode="P" horiz-adv-x="617" 
d="M51 0l127 720h232q102 0 159 -48.5t57 -141.5q0 -104 -71.5 -163.5t-200.5 -59.5h-178l-54 -307h-71zM238 655l-50 -284h166q100 0 150.5 40.5t50.5 115.5q0 128 -151 128h-166z" />
    <glyph glyph-name="Q" unicode="Q" horiz-adv-x="717" 
d="M416 -192q-66 0 -98.5 28.5t-32.5 94.5q0 35 9 61q-103 16 -164.5 100t-61.5 221q0 176 96.5 297.5t245.5 121.5q123 0 198.5 -86.5t75.5 -238.5q0 -173 -94 -293.5t-239 -124.5q-5 -16 -5 -40q0 -45 19.5 -61.5t63.5 -16.5q47 0 105 16l-12 -64q-53 -15 -106 -15z
M344 52q120 0 194.5 102.5t74.5 252.5q0 127 -55.5 194t-149.5 67q-120 0 -194.5 -102.5t-74.5 -252.5q0 -127 55.5 -194t149.5 -67z" />
    <glyph glyph-name="R" unicode="R" horiz-adv-x="670" 
d="M489 0l-148 329h-161l-58 -329h-71l127 720h239q102 0 157.5 -45.5t55.5 -134.5t-56.5 -144t-160.5 -65l151 -331h-75zM191 388h172q196 0 196 149q0 61 -36.5 89.5t-111.5 28.5h-174z" />
    <glyph glyph-name="S" unicode="S" horiz-adv-x="579" 
d="M24 55l34 60q98 -64 193 -64q84 0 137.5 42t53.5 106q0 47 -32.5 79.5t-79 52t-93 41t-79 60.5t-32.5 96q0 89 70 146.5t178 57.5t200 -64l-35 -61q-86 61 -170 61q-75 0 -123.5 -37.5t-48.5 -94.5q0 -43 32.5 -72.5t79 -48.5t93 -40.5t79 -63t32.5 -102.5
q0 -97 -74 -159t-192 -62q-123 0 -223 67z" />
    <glyph glyph-name="T" unicode="T" horiz-adv-x="561" 
d="M200 0l116 655h-214l11 65h499l-11 -65h-214l-116 -655h-71z" />
    <glyph glyph-name="U" unicode="U" horiz-adv-x="687" 
d="M90 265l80 455h71l-82 -466q-5 -29 -5 -58q0 -75 38.5 -109.5t118.5 -34.5q95 0 147 49t71 154l82 465h69l-84 -478q-44 -254 -287 -254q-109 0 -168 49t-59 149q0 36 8 79z" />
    <glyph glyph-name="V" unicode="V" horiz-adv-x="646" 
d="M241 0l-123 720h69l104 -628l328 628h74l-380 -720h-72z" />
    <glyph glyph-name="W" unicode="W" horiz-adv-x="953" 
d="M608 0l-45 413q-16 147 -19 211h-2q-21 -54 -92 -205l-198 -419h-69l-61 720h70l32 -413q12 -149 13 -206h2q31 79 90 204l197 415h68l44 -413q14 -138 18 -206h2q30 88 82 205l181 414h75l-320 -720h-68z" />
    <glyph glyph-name="X" unicode="X" horiz-adv-x="625" 
d="M-11 0l299 371l-158 349h75l132 -298l236 298h85l-283 -349l170 -371h-75l-144 320l-252 -320h-85z" />
    <glyph glyph-name="Y" unicode="Y" horiz-adv-x="603" 
d="M221 0l55 309l-168 411h72l139 -340l258 340h82l-312 -411l-55 -309h-71z" />
    <glyph glyph-name="Z" unicode="Z" horiz-adv-x="598" 
d="M-4 0l9 54l512 601h-383l11 65h479l-9 -55l-512 -601h410l-11 -64h-506z" />
    <glyph glyph-name="bracketleft" unicode="[" horiz-adv-x="347" 
d="M240 -122l-10 -58h-221l159 900h221l-10 -58h-152l-139 -784h152z" />
    <glyph glyph-name="backslash" unicode="\" horiz-adv-x="557" 
d="M174 720l307 -760h-68l-307 760h68z" />
    <glyph glyph-name="bracketright" unicode="]" horiz-adv-x="347" 
d="M113 662l10 58h221l-159 -900h-221l10 58h152l139 784h-152z" />
    <glyph glyph-name="asciicircum" unicode="^" horiz-adv-x="572" 
d="M341 720h54l143 -488h-56l-123 417l-269 -417h-64z" />
    <glyph glyph-name="underscore" unicode="_" horiz-adv-x="492" 
d="M-72 -130l10 57h500l-10 -57h-500z" />
    <glyph glyph-name="grave" unicode="`" horiz-adv-x="500" 
d="M365 574h-54l-100 146h80z" />
    <glyph glyph-name="a" unicode="a" horiz-adv-x="562" 
d="M448 0h-66q-5 10 -5 33q0 15 4 34q-69 -79 -166 -79q-77 0 -124.5 53.5t-47.5 159.5q0 134 71.5 227.5t181.5 93.5q88 0 155 -75l11 63h66l-69 -391q-13 -76 -13 -99q0 -8 2 -20zM232 47q85 0 160 86l46 258q-62 70 -137 70q-86 0 -137.5 -73.5t-51.5 -178.5
q0 -81 32.5 -121.5t87.5 -40.5z" />
    <glyph glyph-name="b" unicode="b" horiz-adv-x="570" 
d="M162 720h69l-49 -278q72 80 167 80q79 0 128.5 -56t49.5 -164q0 -132 -71.5 -223t-185.5 -91q-89 0 -158 74l-11 -62h-66zM333 461q-84 0 -163 -86l-46 -258q65 -70 143 -70q88 0 139.5 73t51.5 177q0 83 -34 123.5t-91 40.5z" />
    <glyph glyph-name="c" unicode="c" horiz-adv-x="466" 
d="M463 479l-29 -56q-55 40 -114 40q-95 0 -151.5 -73t-56.5 -178q0 -81 35.5 -123.5t97.5 -42.5q73 0 133 47l10 -58q-63 -47 -153 -47q-88 0 -140 55.5t-52 163.5q0 133 76.5 224t205.5 91q81 0 138 -43z" />
    <glyph glyph-name="d" unicode="d" horiz-adv-x="570" 
d="M389 68q-72 -80 -168 -80q-79 0 -128.5 54.5t-49.5 161.5q0 132 72.5 225t186.5 93q85 0 153 -72l49 270h69l-106 -601q-13 -75 -13 -99q0 -10 2 -20h-66q-5 10 -5 32q0 16 4 36zM238 47q85 0 162 86l46 258q-65 70 -143 70q-88 0 -139.5 -73t-51.5 -176q0 -83 34.5 -124
t91.5 -41z" />
    <glyph glyph-name="e" unicode="e" horiz-adv-x="525" 
d="M324 522q82 0 125.5 -40.5t43.5 -98.5q0 -71 -71 -113.5t-225 -42.5q-49 0 -85 5v-21q0 -79 37 -122.5t106 -43.5q81 0 163 52l11 -58q-82 -51 -182 -51q-97 0 -150.5 56.5t-53.5 162.5q0 133 79.5 224t201.5 91zM321 466q-75 0 -129 -51.5t-72 -131.5q42 -5 84 -5
q223 0 223 104q0 37 -27.5 60.5t-78.5 23.5z" />
    <glyph glyph-name="f" unicode="f" horiz-adv-x="336" 
d="M60 451l11 59h104l15 86q12 66 43 98t103 32q32 0 67 -7l-10 -58q-27 6 -48 6q-42 0 -61.5 -21t-27.5 -67l-12 -69h123l-11 -59h-123l-79 -451h-69l79 451h-104z" />
    <glyph glyph-name="g" unicode="g" horiz-adv-x="569" 
d="M534 510l-89 -503q-20 -110 -90 -166.5t-170 -56.5t-182 44l30 56q79 -40 154 -40q70 0 123 41.5t68 132.5l10 61q-73 -79 -168 -79q-79 0 -128.5 54t-49.5 159q0 129 72 219t185 90q89 0 157 -75l12 63h66zM236 59q86 0 164 86l44 246q-65 70 -143 70
q-87 0 -138.5 -70.5t-51.5 -171.5q0 -81 34 -120.5t91 -39.5z" />
    <glyph glyph-name="h" unicode="h" horiz-adv-x="567" 
d="M34 0l127 720h69l-52 -294q96 96 206 96q57 0 93.5 -28t36.5 -93q0 -23 -4 -44l-63 -357h-69l63 357q3 18 3 31q0 72 -82 72q-92 0 -195 -99l-64 -361h-69z" />
    <glyph glyph-name="i" unicode="i" horiz-adv-x="241" 
d="M41 0l90 510h69l-90 -510h-69zM236 652q0 -20 -13 -33t-33 -13t-33 13t-13 33t13 33t33 13t33 -13t13 -33z" />
    <glyph glyph-name="j" unicode="j" horiz-adv-x="241" 
d="M200 510l-105 -596q-12 -66 -43 -98t-103 -32q-32 0 -67 7l10 58q27 -6 48 -6q42 0 61.5 21t27.5 67l102 579h69zM236 652q0 -20 -13 -33t-33 -13t-33 13t-13 33t13 33t33 13t33 -13t13 -33z" />
    <glyph glyph-name="k" unicode="k" horiz-adv-x="524" 
d="M379 0l-143 284l-97 -80l-36 -204h-69l127 720h69l-77 -437l273 227h91l-231 -186l164 -324h-71z" />
    <glyph glyph-name="l" unicode="l" horiz-adv-x="241" 
d="M41 0l127 720h69l-127 -720h-69z" />
    <glyph glyph-name="m" unicode="m" horiz-adv-x="884" 
d="M34 0l90 510h69l-16 -85q91 97 198 97q49 0 84 -23.5t39 -78.5q94 102 207 102q55 0 90.5 -27.5t35.5 -92.5q0 -23 -4 -44l-63 -358h-69l63 357q3 18 3 32q0 71 -78 71q-87 0 -186 -97l-64 -363h-69l63 357q3 18 3 32q0 71 -77 71q-87 0 -186 -101l-64 -359h-69z" />
    <glyph glyph-name="n" unicode="n" horiz-adv-x="567" 
d="M34 0l90 510h69l-15 -84q96 96 206 96q57 0 93.5 -28t36.5 -93q0 -23 -4 -44l-63 -357h-69l63 357q3 18 3 31q0 72 -82 72q-92 0 -195 -99l-64 -361h-69z" />
    <glyph glyph-name="o" unicode="o" horiz-adv-x="554" 
d="M252 46q85 0 137.5 72.5t52.5 173.5q0 84 -38 128t-102 44q-85 0 -137.5 -72.5t-52.5 -173.5q0 -84 38 -128t102 -44zM248 -12q-90 0 -147.5 59.5t-57.5 168.5q0 127 74 216.5t189 89.5q90 0 147.5 -59.5t57.5 -168.5q0 -127 -74 -216.5t-189 -89.5z" />
    <glyph glyph-name="p" unicode="p" horiz-adv-x="570" 
d="M125 510h69l-12 -68q72 80 167 80q79 0 128.5 -56t49.5 -164q0 -132 -72 -223t-186 -91q-88 0 -155 71l-47 -269h-69zM333 461q-84 0 -163 -86l-46 -258q65 -70 143 -70q88 0 139.5 73t51.5 177q0 83 -34 123.5t-91 40.5z" />
    <glyph glyph-name="q" unicode="q" horiz-adv-x="570" 
d="M409 -210h-69l49 278q-72 -80 -168 -80q-79 0 -128.5 54.5t-49.5 161.5q0 132 72.5 225t185.5 93q89 0 157 -75l12 63h66zM238 47q85 0 162 86l46 258q-65 70 -143 70q-88 0 -139.5 -73t-51.5 -176q0 -83 34.5 -124t91.5 -41z" />
    <glyph glyph-name="r" unicode="r" horiz-adv-x="366" 
d="M391 517l-11 -63q-21 3 -41 3q-94 0 -173 -104l-63 -353h-69l90 510h69l-16 -87q73 99 169 99q28 0 45 -5z" />
    <glyph glyph-name="s" unicode="s" horiz-adv-x="454" 
d="M426 476l-30 -56q-62 44 -122 44q-50 0 -83.5 -25t-33.5 -61q0 -24 17 -42t42.5 -27.5t55.5 -23t55.5 -27.5t42.5 -42t17 -65q0 -73 -57 -118t-148 -45q-95 0 -170 48l30 55q76 -46 145 -46q59 0 95.5 27.5t36.5 69.5q0 32 -23.5 54t-57.5 35.5t-68 28t-57.5 42.5
t-23.5 69q0 65 53 108t135 43t149 -46z" />
    <glyph glyph-name="t" unicode="t" horiz-adv-x="375" 
d="M60 451l11 59h104l30 170h69l-30 -170h135l-11 -59h-135l-54 -310q-5 -25 -5 -42q0 -25 12.5 -35.5t42.5 -10.5q31 0 72 13l-11 -60q-42 -12 -79 -12q-53 0 -80 21.5t-27 74.5q0 20 8 66l52 295h-104z" />
    <glyph glyph-name="u" unicode="u" horiz-adv-x="567" 
d="M533 510l-90 -510h-69l15 84q-96 -96 -206 -96q-57 0 -93.5 28t-36.5 93q0 23 4 44l63 357h69l-63 -359q-3 -18 -3 -31q0 -72 82 -72q92 0 195 99l64 363h69z" />
    <glyph glyph-name="v" unicode="v" horiz-adv-x="505" 
d="M169 0l-99 510h68l79 -429l233 429h74l-284 -510h-71z" />
    <glyph glyph-name="w" unicode="w" horiz-adv-x="751" 
d="M203 0h-68l-64 510h67l34 -289q11 -90 11 -144h2q13 41 61 139l144 294h65l33 -291q10 -86 11 -142h2q18 56 60 143l139 290h70l-248 -510h-67l-33 286q-11 93 -12 143h-2q-19 -49 -65 -143z" />
    <glyph glyph-name="x" unicode="x" horiz-adv-x="504" 
d="M-15 0l227 265l-124 245h72l98 -201l165 201h82l-210 -245l134 -265h-71l-109 221l-185 -221h-79z" />
    <glyph glyph-name="y" unicode="y" horiz-adv-x="505" 
d="M-44 -211l11 61q26 -6 45 -6q47 0 82 33t91 135h-24l-90 498h70l75 -446l234 446h74l-273 -508q-72 -135 -119 -176.5t-120 -41.5q-31 0 -56 5z" />
    <glyph glyph-name="z" unicode="z" horiz-adv-x="482" 
d="M-13 0l8 50l381 401h-290l10 59h384l-8 -50l-381 -401h314l-10 -59h-408z" />
    <glyph glyph-name="braceleft" unicode="{" horiz-adv-x="347" 
d="M31 241l9 58h24q42 0 61.5 17.5t25.5 52.5l41 231q10 59 48.5 89.5t116.5 30.5h39l-10 -58h-40q-42 0 -61.5 -18t-25.5 -56l-41 -231q-13 -72 -77 -90q45 -22 45 -76q0 -13 -3 -31l-38 -214q-2 -12 -2 -20q0 -48 65 -48h39l-10 -58h-39q-122 0 -122 107q0 15 3 35l37 209
q2 16 2 19q0 51 -65 51h-22z" />
    <glyph glyph-name="bar" unicode="|" horiz-adv-x="343" 
d="M61 -180l159 900h67l-159 -900h-67z" />
    <glyph glyph-name="braceright" unicode="}" horiz-adv-x="347" 
d="M321 299l-9 -58h-24q-42 0 -61.5 -17.5t-25.5 -52.5l-41 -231q-10 -59 -48.5 -89.5t-116.5 -30.5h-39l10 58h40q42 0 61.5 18t25.5 56l41 231q13 72 77 90q-45 22 -45 76q0 13 3 31l38 214q2 12 2 20q0 48 -65 48h-39l10 58h39q122 0 122 -107q0 -15 -3 -35l-37 -209
q-2 -16 -2 -19q0 -51 65 -51h22z" />
    <glyph glyph-name="asciitilde" unicode="~" horiz-adv-x="572" 
d="M163 250q-59 0 -113 -46l-20 56q58 50 135 50q41 0 125 -25t118 -25q59 0 113 46l20 -56q-58 -50 -135 -50q-41 0 -125 25t-118 25z" />
    <glyph glyph-name="uni00A0" unicode="&#xa0;" horiz-adv-x="220" 
 />
    <glyph glyph-name="exclamdown" unicode="&#xa1;" horiz-adv-x="315" 
d="M192 313l-80 -523h-74l104 523h50zM148 475q0 20 13 33.5t34 13.5t34 -13.5t13 -33.5t-13 -33.5t-34 -13.5t-34 13.5t-13 33.5z" />
    <glyph glyph-name="cent" unicode="&#xa2;" horiz-adv-x="489" 
d="M90 -143l67 159q-112 48 -112 204q0 132 78.5 223t208.5 91q22 0 43 -3l54 126h47l-58 -136q31 -11 59 -30l-30 -57q-30 20 -53 29l-171 -404q18 -2 30 -2q74 0 139 47l10 -57q-65 -47 -158 -47q-25 0 -45 4l-62 -147h-47zM113 225q0 -113 69 -151l169 400q-14 2 -27 2
q-95 0 -153 -72.5t-58 -178.5z" />
    <glyph glyph-name="sterling" unicode="&#xa3;" horiz-adv-x="474" 
d="M264 341l-32 -114q-32 -113 -106 -159q8 -1 72.5 -11t94.5 -10q59 0 105 26l10 -60q-53 -25 -123 -25q-36 0 -105.5 12t-99.5 12q-59 0 -104 -27l-10 60q91 32 135 72t69 131l26 93h-153l10 56h159l52 185q21 76 59 113t120 37q27 0 73 -6l-11 -58q-33 5 -57 5
q-53 0 -79 -26t-41 -78l-49 -172h179l-10 -56h-184z" />
    <glyph glyph-name="currency" unicode="&#xa4;" horiz-adv-x="572" 
d="M184 255q0 -43 28.5 -71.5t70.5 -28.5t70.5 28.5t28.5 71.5t-28.5 71.5t-70.5 28.5t-70.5 -28.5t-28.5 -71.5zM432 255q0 -47 -24 -83l86 -87l-40 -42l-88 89q-39 -23 -83 -23t-83 23l-88 -89l-40 42l86 87q-24 36 -24 83t24 83l-86 87l40 42l88 -89q39 23 83 23t83 -23
l88 89l40 -42l-86 -87q24 -36 24 -83z" />
    <glyph glyph-name="yen" unicode="&#xa5;" horiz-adv-x="594" 
d="M97 271l10 56h159l-158 393h71l136 -341l256 341h79l-297 -393h159l-10 -56h-167l-14 -80h167l-10 -56h-167l-24 -135h-70l23 135h-167l10 56h167l14 80h-167z" />
    <glyph glyph-name="brokenbar" unicode="&#xa6;" horiz-adv-x="343" 
d="M151 330l69 390h67l-69 -390h-67zM61 -180l69 390h67l-69 -390h-67z" />
    <glyph glyph-name="section" unicode="&#xa7;" horiz-adv-x="584" 
d="M388 732q93 0 174 -51l-31 -57q-74 49 -148 49q-65 0 -118.5 -33t-77.5 -96q44 -5 86 -17.5t85 -37t75 -58t52 -84.5t20 -113q0 -135 -84.5 -210t-208.5 -75q-99 0 -183 50l32 56q79 -49 157 -49q69 0 125.5 33.5t81.5 97.5q-55 6 -106 24.5t-101 53t-80 94.5t-30 139
q0 134 81.5 209t198.5 75zM441 231q0 64 -25.5 113t-68 77t-84.5 43.5t-89 22.5q-2 -11 -2 -35q0 -53 17.5 -96.5t44 -70.5t63.5 -47.5t70.5 -30.5t70.5 -15q3 18 3 39z" />
    <glyph glyph-name="dieresis" unicode="&#xa8;" horiz-adv-x="500" 
d="M178 622q0 18 12 30.5t31 12.5t31 -12.5t12 -30.5t-12 -30.5t-31 -12.5t-31 12.5t-12 30.5zM364 622q0 18 12 30.5t31 12.5t31 -12.5t12 -30.5t-12 -30.5t-31 -12.5t-31 12.5t-12 30.5z" />
    <glyph glyph-name="copyright" unicode="&#xa9;" horiz-adv-x="838" 
d="M539 250l15 -48q-48 -35 -113 -35q-75 0 -120 48.5t-45 138.5q0 93 47 144t122 51q64 0 107 -33l-13 -52q-46 35 -93 35q-51 0 -82 -36t-31 -105q0 -70 32 -106t83 -36q45 0 91 34zM104 360q0 -140 94.5 -233.5t232.5 -93.5t232.5 93.5t94.5 233.5t-94.5 233.5
t-232.5 93.5t-232.5 -93.5t-94.5 -233.5zM803 360q0 -159 -107.5 -265.5t-264.5 -106.5t-264.5 106.5t-107.5 265.5t107.5 265.5t264.5 106.5t264.5 -106.5t107.5 -265.5z" />
    <glyph glyph-name="ordfeminine" unicode="&#xaa;" horiz-adv-x="362" 
d="M284 380q-3 6 -3 16q0 4 2 22q-41 -46 -98 -46q-49 0 -78.5 34t-29.5 100q0 82 43.5 140t112.5 58q55 0 92 -44l7 36h52l-43 -242q-8 -47 -8 -59q0 -11 1 -15h-50zM199 417q47 0 91 48l27 153q-36 40 -78 40q-50 0 -79.5 -42.5t-29.5 -103.5q0 -95 69 -95z" />
    <glyph glyph-name="guillemotleft" unicode="&#xab;" horiz-adv-x="487" 
d="M320 24l-101 231l175 231h70l-175 -238l93 -224h-62zM149 24l-101 231l175 231h70l-175 -238l93 -224h-62z" />
    <glyph glyph-name="logicalnot" unicode="&#xac;" horiz-adv-x="572" 
d="M497 66h-60l40 226h-429l10 59h488z" />
    <glyph glyph-name="uni00AD" unicode="&#xad;" horiz-adv-x="406" 
d="M71 282l10 59h274l-10 -59h-274z" />
    <glyph glyph-name="registered" unicode="&#xae;" horiz-adv-x="838" 
d="M803 360q0 -159 -107.5 -265.5t-264.5 -106.5t-264.5 106.5t-107.5 265.5t107.5 265.5t264.5 106.5t264.5 -106.5t107.5 -265.5zM104 360q0 -140 94.5 -233.5t232.5 -93.5t232.5 93.5t94.5 233.5t-94.5 233.5t-232.5 93.5t-232.5 -93.5t-94.5 -233.5zM525 175l-94 154
h-73v-154h-57v366h138q64 0 98.5 -27t34.5 -79q0 -81 -83 -101l98 -159h-62zM358 374h76q81 0 81 58q0 59 -81 59h-76v-117z" />
    <glyph glyph-name="macron" unicode="&#xaf;" horiz-adv-x="500" 
d="M168 585l10 57h280l-10 -57h-280z" />
    <glyph glyph-name="degree" unicode="&#xb0;" horiz-adv-x="415" 
d="M165 586q0 -43 28.5 -71.5t70.5 -28.5t70.5 28.5t28.5 71.5t-28.5 71.5t-70.5 28.5t-70.5 -28.5t-28.5 -71.5zM413 586q0 -62 -42.5 -104t-106.5 -42t-106.5 42t-42.5 104t42.5 104t106.5 42t106.5 -42t42.5 -104z" />
    <glyph glyph-name="plusminus" unicode="&#xb1;" horiz-adv-x="572" 
d="M288 102h-59l31 176h-214l9 56h215l31 176h59l-31 -176h214l-9 -56h-215zM493 49l-10 -56h-488l10 56h488z" />
    <glyph glyph-name="twosuperior" unicode="&#xb2;" horiz-adv-x="357" 
d="M336 715q0 32 -18 51.5t-55 19.5q-69 0 -127 -68l-11 49q58 67 143 67q57 0 89 -31.5t32 -84.5q0 -60 -52 -123t-188 -167h200l-8 -48h-283l6 42q156 116 214 178t58 115z" />
    <glyph glyph-name="threesuperior" unicode="&#xb3;" horiz-adv-x="347" 
d="M257 834q55 0 90 -27t35 -78q0 -89 -111 -122q82 -23 82 -102q0 -61 -48 -97t-124 -36t-133 36l24 44q51 -33 111 -33q53 0 85 23.5t32 64.5q0 75 -112 75q-8 0 -42 -2l8 47q82 0 129 25.5t47 70.5q0 31 -21.5 47t-57.5 16q-57 0 -111 -39l-7 47q58 40 124 40z" />
    <glyph glyph-name="acute" unicode="&#xb4;" horiz-adv-x="500" 
d="M307 574h-60l114 146h92z" />
    <glyph glyph-name="mu" unicode="&#xb5;" horiz-adv-x="572" 
d="M65 -210h-67l126 720h69l-63 -359q-3 -18 -3 -31q0 -72 82 -72q92 0 195 99l64 363h69l-90 -510h-69l15 84q-96 -96 -203 -96q-63 0 -93 37q-15 -137 -32 -235z" />
    <glyph glyph-name="paragraph" unicode="&#xb6;" horiz-adv-x="511" 
d="M434 680h63l-99 -563q-18 -101 -71 -145t-168 -67l-7 59q85 17 127.5 48t55.5 105zM356 680l-71 -403q-98 0 -153 49.5t-55 132.5q0 94 71.5 157.5t207.5 63.5z" />
    <glyph glyph-name="periodcentered" unicode="&#xb7;" horiz-adv-x="279" 
d="M189 257q0 -21 -14 -35.5t-36 -14.5t-36 14.5t-14 35.5t14 35.5t36 14.5t36 -14.5t14 -35.5z" />
    <glyph glyph-name="cedilla" unicode="&#xb8;" horiz-adv-x="500" 
d="M288 -92q0 -42 -32 -67t-85 -25q-49 0 -95 25l20 43q37 -22 72 -22q29 0 45 13.5t16 33.5q0 41 -63 58l19 34q47 -7 75 -31t28 -62z" />
    <glyph glyph-name="onesuperior" unicode="&#xb9;" horiz-adv-x="231" 
d="M124 725l-11 48l109 53h43l-79 -446h-53l68 383z" />
    <glyph glyph-name="ordmasculine" unicode="&#xba;" horiz-adv-x="353" 
d="M210 415q49 0 80.5 43t31.5 103q0 48 -21.5 74t-58.5 26q-49 0 -80.5 -43t-31.5 -103q0 -48 21.5 -74t58.5 -26zM207 372q-57 0 -93 37.5t-36 104.5q0 79 48 134.5t119 55.5q57 0 93 -37.5t36 -104.5q0 -79 -48 -134.5t-119 -55.5z" />
    <glyph glyph-name="guillemotright" unicode="&#xbb;" horiz-adv-x="487" 
d="M336 486l101 -231l-175 -231h-70l175 238l-93 224h62zM165 486l101 -231l-175 -231h-70l175 238l-93 224h62z" />
    <glyph glyph-name="onequarter" unicode="&#xbc;" horiz-adv-x="716" 
d="M334 93l8 46l251 307h70l-55 -306h68l-8 -47h-67l-17 -93h-51l16 93h-215zM397 140h160l45 250zM41 0l571 720h64l-572 -720h-63zM124 619l-11 48l109 53h43l-79 -446h-53l68 383z" />
    <glyph glyph-name="onehalf" unicode="&#xbd;" horiz-adv-x="776" 
d="M42 0l571 720h64l-572 -720h-63zM686 335q0 32 -18 51.5t-55 19.5q-69 0 -127 -68l-11 49q58 67 143 67q57 0 89 -31.5t32 -84.5q0 -60 -52 -123t-188 -167h200l-8 -48h-283l6 42q156 116 214 178t58 115zM124 619l-11 48l109 53h43l-79 -446h-53l68 383z" />
    <glyph glyph-name="threequarters" unicode="&#xbe;" horiz-adv-x="788" 
d="M407 93l8 46l251 307h70l-55 -306h68l-8 -47h-67l-17 -93h-51l16 93h-215zM470 140h160l45 250zM114 0l571 720h64l-572 -720h-63zM239 728q55 0 90 -27t35 -78q0 -89 -111 -122q82 -23 82 -102q0 -61 -48 -97t-124 -36t-133 36l24 44q51 -33 111 -33q53 0 85 23.5
t32 64.5q0 75 -112 75q-8 0 -42 -2l8 47q82 0 129 25.5t47 70.5q0 31 -21.5 47t-57.5 16q-57 0 -111 -39l-7 47q58 40 124 40z" />
    <glyph glyph-name="questiondown" unicode="&#xbf;" horiz-adv-x="423" 
d="M267 313h58q3 -14 3 -29q0 -42 -26.5 -78.5t-65 -64t-76.5 -54.5t-64.5 -63t-26.5 -78q0 -54 38.5 -81t99.5 -27q45 0 101 14l-10 -59q-48 -15 -102 -15q-86 0 -141 42.5t-55 119.5q0 44 20 81.5t49.5 63t64.5 51.5t64.5 47t49.5 50t20 61q0 11 -1 19zM279 475
q0 20 13 33.5t34 13.5t34 -13.5t13 -33.5t-13 -33.5t-34 -13.5t-34 13.5t-13 33.5z" />
    <glyph glyph-name="Agrave" unicode="&#xc0;" horiz-adv-x="673" 
d="M462 720l130 -720h-70l-36 206h-311l-109 -206h-75l388 720h83zM409 647l-202 -380h268zM487 783h-55l-103 125h80z" />
    <glyph glyph-name="Aacute" unicode="&#xc1;" horiz-adv-x="673" 
d="M462 720l130 -720h-70l-36 206h-311l-109 -206h-75l388 720h83zM409 647l-202 -380h268zM429 783h-59l110 125h92z" />
    <glyph glyph-name="Acircumflex" unicode="&#xc2;" horiz-adv-x="673" 
d="M462 720l130 -720h-70l-36 206h-311l-109 -206h-75l388 720h83zM409 647l-202 -380h268zM340 783h-61l144 125h56l99 -125h-51l-81 68z" />
    <glyph glyph-name="Atilde" unicode="&#xc3;" horiz-adv-x="673" 
d="M462 720l130 -720h-70l-36 206h-311l-109 -206h-75l388 720h83zM409 647l-202 -380h268zM327 783h-46q18 103 90 103q31 0 75 -26.5t62 -26.5q32 0 40 47h46q-18 -103 -90 -103q-31 0 -75 26.5t-62 26.5q-32 0 -40 -47z" />
    <glyph glyph-name="Adieresis" unicode="&#xc4;" horiz-adv-x="673" 
d="M462 720l130 -720h-70l-36 206h-311l-109 -206h-75l388 720h83zM409 647l-202 -380h268zM301 825q0 18 12 30.5t31 12.5t31 -12.5t12 -30.5t-12 -30.5t-31 -12.5t-31 12.5t-12 30.5zM487 825q0 18 12 30.5t31 12.5t31 -12.5t12 -30.5t-12 -30.5t-31 -12.5t-31 12.5
t-12 30.5z" />
    <glyph glyph-name="Aring" unicode="&#xc5;" horiz-adv-x="673" 
d="M514 759q0 -51 -46 -76l124 -683h-70l-36 206h-311l-109 -206h-75l374 695q-28 25 -28 64q0 36 25.5 61t63.5 25q37 0 62.5 -25t25.5 -61zM409 647l-202 -380h268zM377 759q0 -20 13.5 -33.5t35.5 -13.5q21 0 34.5 13.5t13.5 33.5t-13.5 33.5t-34.5 13.5
q-22 0 -35.5 -13.5t-13.5 -33.5z" />
    <glyph glyph-name="AE" unicode="&#xc6;" horiz-adv-x="933" 
d="M426 0l36 206h-250l-147 -206h-83l528 720h451l-11 -65h-337l-44 -249h293l-11 -63h-293l-50 -279h339l-11 -64h-410zM256 267h217l71 401z" />
    <glyph glyph-name="Ccedilla" unicode="&#xc7;" horiz-adv-x="607" 
d="M375 -93q0 -41 -32 -66t-85 -25q-49 0 -95 25l20 43q37 -22 72 -22q29 0 45 13.5t16 33.5q0 41 -63 58l14 26q-93 18 -146.5 94t-53.5 206q0 116 42 214.5t128 161.5t200 63q108 0 191 -60l-34 -62q-79 58 -165 58q-136 0 -213.5 -109.5t-77.5 -261.5q0 -122 52 -184
t140 -62q90 0 180 67l12 -65q-90 -65 -197 -65h-7q57 -25 57 -81z" />
    <glyph glyph-name="Egrave" unicode="&#xc8;" horiz-adv-x="588" 
d="M51 0l127 720h438l-11 -65h-367l-44 -249h323l-11 -63h-323l-50 -279h369l-11 -64h-440zM467 783h-55l-103 125h80z" />
    <glyph glyph-name="Eacute" unicode="&#xc9;" horiz-adv-x="588" 
d="M51 0l127 720h438l-11 -65h-367l-44 -249h323l-11 -63h-323l-50 -279h369l-11 -64h-440zM409 783h-59l110 125h92z" />
    <glyph glyph-name="Ecircumflex" unicode="&#xca;" horiz-adv-x="588" 
d="M51 0l127 720h438l-11 -65h-367l-44 -249h323l-11 -63h-323l-50 -279h369l-11 -64h-440zM320 783h-61l144 125h56l99 -125h-51l-81 68z" />
    <glyph glyph-name="Edieresis" unicode="&#xcb;" horiz-adv-x="588" 
d="M51 0l127 720h438l-11 -65h-367l-44 -249h323l-11 -63h-323l-50 -279h369l-11 -64h-440zM281 825q0 18 12 30.5t31 12.5t31 -12.5t12 -30.5t-12 -30.5t-31 -12.5t-31 12.5t-12 30.5zM467 825q0 18 12 30.5t31 12.5t31 -12.5t12 -30.5t-12 -30.5t-31 -12.5t-31 12.5
t-12 30.5z" />
    <glyph glyph-name="Igrave" unicode="&#xcc;" horiz-adv-x="281" 
d="M60 0l127 720h71l-127 -720h-71zM291 783h-55l-103 125h80z" />
    <glyph glyph-name="Iacute" unicode="&#xcd;" horiz-adv-x="281" 
d="M60 0l127 720h71l-127 -720h-71zM233 783h-59l110 125h92z" />
    <glyph glyph-name="Icircumflex" unicode="&#xce;" horiz-adv-x="281" 
d="M60 0l127 720h71l-127 -720h-71zM144 783h-61l144 125h56l99 -125h-51l-81 68z" />
    <glyph glyph-name="Idieresis" unicode="&#xcf;" horiz-adv-x="281" 
d="M60 0l127 720h71l-127 -720h-71zM105 825q0 18 12 30.5t31 12.5t31 -12.5t12 -30.5t-12 -30.5t-31 -12.5t-31 12.5t-12 30.5zM291 825q0 18 12 30.5t31 12.5t31 -12.5t12 -30.5t-12 -30.5t-31 -12.5t-31 12.5t-12 30.5z" />
    <glyph glyph-name="Eth" unicode="&#xd0;" horiz-adv-x="695" 
d="M29 348l10 57h83l56 315h210q127 0 202 -81.5t75 -224.5q0 -110 -43 -202.5t-131.5 -152t-207.5 -59.5h-232l61 348h-83zM133 64h150q100 0 172 51t105.5 128.5t33.5 169.5q0 116 -55.5 179t-150.5 63h-151l-44 -250h197l-10 -57h-197z" />
    <glyph glyph-name="Ntilde" unicode="&#xd1;" horiz-adv-x="709" 
d="M51 0l127 720h81l266 -589l104 589h67l-127 -720h-59l-282 623l-110 -623h-67zM345 783h-46q18 103 90 103q31 0 75 -26.5t62 -26.5q32 0 40 47h46q-18 -103 -90 -103q-31 0 -75 26.5t-62 26.5q-32 0 -40 -47z" />
    <glyph glyph-name="Ograve" unicode="&#xd2;" horiz-adv-x="716" 
d="M344 52q120 0 194.5 102.5t74.5 252.5q0 127 -55.5 194t-149.5 67q-120 0 -194.5 -102.5t-74.5 -252.5q0 -127 55.5 -194t149.5 -67zM342 -12q-123 0 -198.5 86.5t-75.5 238.5q0 176 96.5 297.5t245.5 121.5q123 0 198.5 -86.5t75.5 -238.5q0 -176 -96.5 -297.5
t-245.5 -121.5zM499 783h-55l-103 125h80z" />
    <glyph glyph-name="Oacute" unicode="&#xd3;" horiz-adv-x="716" 
d="M344 52q120 0 194.5 102.5t74.5 252.5q0 127 -55.5 194t-149.5 67q-120 0 -194.5 -102.5t-74.5 -252.5q0 -127 55.5 -194t149.5 -67zM342 -12q-123 0 -198.5 86.5t-75.5 238.5q0 176 96.5 297.5t245.5 121.5q123 0 198.5 -86.5t75.5 -238.5q0 -176 -96.5 -297.5
t-245.5 -121.5zM441 783h-59l110 125h92z" />
    <glyph glyph-name="Ocircumflex" unicode="&#xd4;" horiz-adv-x="716" 
d="M344 52q120 0 194.5 102.5t74.5 252.5q0 127 -55.5 194t-149.5 67q-120 0 -194.5 -102.5t-74.5 -252.5q0 -127 55.5 -194t149.5 -67zM342 -12q-123 0 -198.5 86.5t-75.5 238.5q0 176 96.5 297.5t245.5 121.5q123 0 198.5 -86.5t75.5 -238.5q0 -176 -96.5 -297.5
t-245.5 -121.5zM352 783h-61l144 125h56l99 -125h-51l-81 68z" />
    <glyph glyph-name="Otilde" unicode="&#xd5;" horiz-adv-x="716" 
d="M344 52q120 0 194.5 102.5t74.5 252.5q0 127 -55.5 194t-149.5 67q-120 0 -194.5 -102.5t-74.5 -252.5q0 -127 55.5 -194t149.5 -67zM342 -12q-123 0 -198.5 86.5t-75.5 238.5q0 176 96.5 297.5t245.5 121.5q123 0 198.5 -86.5t75.5 -238.5q0 -176 -96.5 -297.5
t-245.5 -121.5zM338 783h-46q18 103 90 103q31 0 75 -26.5t62 -26.5q32 0 40 47h46q-18 -103 -90 -103q-31 0 -75 26.5t-62 26.5q-32 0 -40 -47z" />
    <glyph glyph-name="Odieresis" unicode="&#xd6;" horiz-adv-x="716" 
d="M344 52q120 0 194.5 102.5t74.5 252.5q0 127 -55.5 194t-149.5 67q-120 0 -194.5 -102.5t-74.5 -252.5q0 -127 55.5 -194t149.5 -67zM342 -12q-123 0 -198.5 86.5t-75.5 238.5q0 176 96.5 297.5t245.5 121.5q123 0 198.5 -86.5t75.5 -238.5q0 -176 -96.5 -297.5
t-245.5 -121.5zM312 825q0 18 12 30.5t31 12.5t31 -12.5t12 -30.5t-12 -30.5t-31 -12.5t-31 12.5t-12 30.5zM498 825q0 18 12 30.5t31 12.5t31 -12.5t12 -30.5t-12 -30.5t-31 -12.5t-31 12.5t-12 30.5z" />
    <glyph glyph-name="multiply" unicode="&#xd7;" horiz-adv-x="572" 
d="M104 431l44 36l140 -172l202 172l37 -45l-201 -171l141 -173l-44 -36l-140 172l-202 -172l-37 45l201 171z" />
    <glyph glyph-name="Oslash" unicode="&#xd8;" horiz-adv-x="716" 
d="M137 312q0 -77 21 -133l411 408q-54 83 -161 83q-121 0 -196 -103t-75 -255zM343 50q122 0 197 103t75 253q0 76 -22 134l-411 -408q55 -82 161 -82zM342 -12q-132 0 -207 97l-98 -97l-35 36l105 104q-39 78 -39 185q0 176 96.5 297.5t245.5 121.5q132 0 207 -98l98 98
l35 -36l-106 -105q40 -75 40 -184q0 -176 -96.5 -297.5t-245.5 -121.5z" />
    <glyph glyph-name="Ugrave" unicode="&#xd9;" horiz-adv-x="687" 
d="M90 265l80 455h71l-82 -466q-5 -29 -5 -58q0 -75 38.5 -109.5t118.5 -34.5q95 0 147 49t71 154l82 465h69l-84 -478q-44 -254 -287 -254q-109 0 -168 49t-59 149q0 36 8 79zM494 783h-55l-103 125h80z" />
    <glyph glyph-name="Uacute" unicode="&#xda;" horiz-adv-x="687" 
d="M90 265l80 455h71l-82 -466q-5 -29 -5 -58q0 -75 38.5 -109.5t118.5 -34.5q95 0 147 49t71 154l82 465h69l-84 -478q-44 -254 -287 -254q-109 0 -168 49t-59 149q0 36 8 79zM436 783h-59l110 125h92z" />
    <glyph glyph-name="Ucircumflex" unicode="&#xdb;" horiz-adv-x="687" 
d="M90 265l80 455h71l-82 -466q-5 -29 -5 -58q0 -75 38.5 -109.5t118.5 -34.5q95 0 147 49t71 154l82 465h69l-84 -478q-44 -254 -287 -254q-109 0 -168 49t-59 149q0 36 8 79zM347 783h-61l144 125h56l99 -125h-51l-81 68z" />
    <glyph glyph-name="Udieresis" unicode="&#xdc;" horiz-adv-x="687" 
d="M90 265l80 455h71l-82 -466q-5 -29 -5 -58q0 -75 38.5 -109.5t118.5 -34.5q95 0 147 49t71 154l82 465h69l-84 -478q-44 -254 -287 -254q-109 0 -168 49t-59 149q0 36 8 79zM308 825q0 18 12 30.5t31 12.5t31 -12.5t12 -30.5t-12 -30.5t-31 -12.5t-31 12.5t-12 30.5z
M494 825q0 18 12 30.5t31 12.5t31 -12.5t12 -30.5t-12 -30.5t-31 -12.5t-31 12.5t-12 30.5z" />
    <glyph glyph-name="Yacute" unicode="&#xdd;" horiz-adv-x="603" 
d="M221 0l55 309l-168 411h72l139 -340l258 340h82l-312 -411l-55 -309h-71zM395 783h-59l110 125h92z" />
    <glyph glyph-name="Thorn" unicode="&#xde;" horiz-adv-x="616" 
d="M51 0l127 720h71l-18 -100h161q102 0 159 -48.5t57 -142.5q0 -104 -71 -163t-201 -59h-178l-36 -207h-71zM220 555l-50 -284h166q100 0 150.5 41t50.5 115q0 128 -151 128h-166z" />
    <glyph glyph-name="germandbls" unicode="&#xdf;" horiz-adv-x="586" 
d="M274 362l10 59q78 0 130.5 37t52.5 106q0 55 -32.5 82.5t-82.5 27.5q-59 0 -100.5 -38t-55.5 -115l-92 -521h-69l94 532q17 99 77 149.5t145 50.5q80 0 132 -42t52 -120q0 -66 -39.5 -112t-106.5 -66q67 -20 103 -69t36 -121q0 -97 -60.5 -155.5t-159.5 -58.5
q-61 0 -118 23l24 54q48 -19 91 -19q69 0 111.5 43t42.5 116q0 78 -49.5 117.5t-135.5 39.5z" />
    <glyph glyph-name="agrave" unicode="&#xe0;" horiz-adv-x="562" 
d="M448 0h-66q-5 10 -5 33q0 15 4 34q-69 -79 -166 -79q-77 0 -124.5 53.5t-47.5 159.5q0 134 71.5 227.5t181.5 93.5q88 0 155 -75l11 63h66l-69 -391q-13 -76 -13 -99q0 -8 2 -20zM232 47q85 0 160 86l46 258q-62 70 -137 70q-86 0 -137.5 -73.5t-51.5 -178.5
q0 -81 32.5 -121.5t87.5 -40.5zM401 574h-54l-100 146h80z" />
    <glyph glyph-name="aacute" unicode="&#xe1;" horiz-adv-x="562" 
d="M448 0h-66q-5 10 -5 33q0 15 4 34q-69 -79 -166 -79q-77 0 -124.5 53.5t-47.5 159.5q0 134 71.5 227.5t181.5 93.5q88 0 155 -75l11 63h66l-69 -391q-13 -76 -13 -99q0 -8 2 -20zM232 47q85 0 160 86l46 258q-62 70 -137 70q-86 0 -137.5 -73.5t-51.5 -178.5
q0 -81 32.5 -121.5t87.5 -40.5zM322 574h-60l114 146h92z" />
    <glyph glyph-name="acircumflex" unicode="&#xe2;" horiz-adv-x="562" 
d="M448 0h-66q-5 10 -5 33q0 15 4 34q-69 -79 -166 -79q-77 0 -124.5 53.5t-47.5 159.5q0 134 71.5 227.5t181.5 93.5q88 0 155 -75l11 63h66l-69 -391q-13 -76 -13 -99q0 -8 2 -20zM232 47q85 0 160 86l46 258q-62 70 -137 70q-86 0 -137.5 -73.5t-51.5 -178.5
q0 -81 32.5 -121.5t87.5 -40.5zM253 574h-60l148 146h55l96 -146h-51l-78 89z" />
    <glyph glyph-name="atilde" unicode="&#xe3;" horiz-adv-x="562" 
d="M448 0h-66q-5 10 -5 33q0 15 4 34q-69 -79 -166 -79q-77 0 -124.5 53.5t-47.5 159.5q0 134 71.5 227.5t181.5 93.5q88 0 155 -75l11 63h66l-69 -391q-13 -76 -13 -99q0 -8 2 -20zM232 47q85 0 160 86l46 258q-62 70 -137 70q-86 0 -137.5 -73.5t-51.5 -178.5
q0 -81 32.5 -121.5t87.5 -40.5zM242 580h-46q17 105 89 105q32 0 75.5 -28t61.5 -28q32 0 41 50h46q-17 -105 -89 -105q-32 0 -75.5 28t-61.5 28q-32 0 -41 -50z" />
    <glyph glyph-name="adieresis" unicode="&#xe4;" horiz-adv-x="562" 
d="M448 0h-66q-5 10 -5 33q0 15 4 34q-69 -79 -166 -79q-77 0 -124.5 53.5t-47.5 159.5q0 134 71.5 227.5t181.5 93.5q88 0 155 -75l11 63h66l-69 -391q-13 -76 -13 -99q0 -8 2 -20zM232 47q85 0 160 86l46 258q-62 70 -137 70q-86 0 -137.5 -73.5t-51.5 -178.5
q0 -81 32.5 -121.5t87.5 -40.5zM216 622q0 18 12 30.5t31 12.5t31 -12.5t12 -30.5t-12 -30.5t-31 -12.5t-31 12.5t-12 30.5zM402 622q0 18 12 30.5t31 12.5t31 -12.5t12 -30.5t-12 -30.5t-31 -12.5t-31 12.5t-12 30.5z" />
    <glyph glyph-name="aring" unicode="&#xe5;" horiz-adv-x="562" 
d="M448 0h-66q-5 10 -5 33q0 15 4 34q-69 -79 -166 -79q-77 0 -124.5 53.5t-47.5 159.5q0 134 71.5 227.5t181.5 93.5q88 0 155 -75l11 63h66l-69 -391q-13 -76 -13 -99q0 -8 2 -20zM232 47q85 0 160 86l46 258q-62 70 -137 70q-86 0 -137.5 -73.5t-51.5 -178.5
q0 -81 32.5 -121.5t87.5 -40.5zM308 655q0 -20 13.5 -33.5t34.5 -13.5t34.5 13.5t13.5 33.5t-13.5 33.5t-34.5 13.5t-34.5 -13.5t-13.5 -33.5zM443 655q0 -36 -25 -61t-62 -25t-62 25t-25 61t25 61t62 25t62 -25t25 -61z" />
    <glyph glyph-name="ae" unicode="&#xe6;" horiz-adv-x="859" 
d="M657 522q82 0 125.5 -40.5t43.5 -98.5q0 -71 -71 -113.5t-225 -42.5q-49 0 -85 5v-21q0 -79 37 -122.5t106 -43.5q81 0 163 52l11 -58q-82 -51 -182 -51q-132 0 -181 101q-97 -101 -216 -101q-70 0 -113.5 37t-43.5 103q0 82 69.5 133t197.5 51q41 0 93 -5l7 41
q4 23 4 40q0 40 -23 57.5t-71 17.5q-86 0 -178 -55l-10 59q92 55 196 55q125 0 149 -86q80 86 197 86zM198 46q92 0 185 93q-7 28 -7 67q0 26 3 50q-45 5 -84 5q-100 0 -150.5 -35t-50.5 -91q0 -42 28 -65.5t76 -23.5zM654 466q-75 0 -129 -51.5t-72 -131.5q42 -5 84 -5
q223 0 223 104q0 37 -27.5 60.5t-78.5 23.5z" />
    <glyph glyph-name="ccedilla" unicode="&#xe7;" horiz-adv-x="466" 
d="M304 -93q0 -41 -32 -66t-85 -25q-49 0 -95 25l20 43q37 -22 72 -22q29 0 45 13.5t16 33.5q0 41 -63 58l13 24q-71 12 -111.5 66.5t-40.5 149.5q0 133 76.5 224t205.5 91q81 0 138 -43l-29 -56q-55 40 -114 40q-95 0 -151.5 -73t-56.5 -178q0 -81 35.5 -123.5t97.5 -42.5
q73 0 133 47l10 -58q-60 -44 -142 -47q58 -25 58 -81z" />
    <glyph glyph-name="egrave" unicode="&#xe8;" horiz-adv-x="525" 
d="M324 522q82 0 125.5 -40.5t43.5 -98.5q0 -71 -71 -113.5t-225 -42.5q-49 0 -85 5v-21q0 -79 37 -122.5t106 -43.5q81 0 163 52l11 -58q-82 -51 -182 -51q-97 0 -150.5 56.5t-53.5 162.5q0 133 79.5 224t201.5 91zM321 466q-75 0 -129 -51.5t-72 -131.5q42 -5 84 -5
q223 0 223 104q0 37 -27.5 60.5t-78.5 23.5zM388 574h-54l-100 146h80z" />
    <glyph glyph-name="eacute" unicode="&#xe9;" horiz-adv-x="525" 
d="M324 522q82 0 125.5 -40.5t43.5 -98.5q0 -71 -71 -113.5t-225 -42.5q-49 0 -85 5v-21q0 -79 37 -122.5t106 -43.5q81 0 163 52l11 -58q-82 -51 -182 -51q-97 0 -150.5 56.5t-53.5 162.5q0 133 79.5 224t201.5 91zM321 466q-75 0 -129 -51.5t-72 -131.5q42 -5 84 -5
q223 0 223 104q0 37 -27.5 60.5t-78.5 23.5zM328 574h-60l114 146h92z" />
    <glyph glyph-name="ecircumflex" unicode="&#xea;" horiz-adv-x="525" 
d="M324 522q82 0 125.5 -40.5t43.5 -98.5q0 -71 -71 -113.5t-225 -42.5q-49 0 -85 5v-21q0 -79 37 -122.5t106 -43.5q81 0 163 52l11 -58q-82 -51 -182 -51q-97 0 -150.5 56.5t-53.5 162.5q0 133 79.5 224t201.5 91zM321 466q-75 0 -129 -51.5t-72 -131.5q42 -5 84 -5
q223 0 223 104q0 37 -27.5 60.5t-78.5 23.5zM238 574h-60l148 146h55l96 -146h-51l-78 89z" />
    <glyph glyph-name="edieresis" unicode="&#xeb;" horiz-adv-x="525" 
d="M324 522q82 0 125.5 -40.5t43.5 -98.5q0 -71 -71 -113.5t-225 -42.5q-49 0 -85 5v-21q0 -79 37 -122.5t106 -43.5q81 0 163 52l11 -58q-82 -51 -182 -51q-97 0 -150.5 56.5t-53.5 162.5q0 133 79.5 224t201.5 91zM321 466q-75 0 -129 -51.5t-72 -131.5q42 -5 84 -5
q223 0 223 104q0 37 -27.5 60.5t-78.5 23.5zM201 622q0 18 12 30.5t31 12.5t31 -12.5t12 -30.5t-12 -30.5t-31 -12.5t-31 12.5t-12 30.5zM387 622q0 18 12 30.5t31 12.5t31 -12.5t12 -30.5t-12 -30.5t-31 -12.5t-31 12.5t-12 30.5z" />
    <glyph glyph-name="igrave" unicode="&#xec;" horiz-adv-x="241" 
d="M41 0l90 510h69l-90 -510h-69zM234 574h-54l-100 146h80z" />
    <glyph glyph-name="iacute" unicode="&#xed;" horiz-adv-x="241" 
d="M41 0l90 510h69l-90 -510h-69zM177 574h-60l114 146h92z" />
    <glyph glyph-name="icircumflex" unicode="&#xee;" horiz-adv-x="241" 
d="M86 574h-60l148 146h55l96 -146h-51l-78 89zM41 0l90 510h69l-90 -510h-69z" />
    <glyph glyph-name="idieresis" unicode="&#xef;" horiz-adv-x="241" 
d="M49 622q0 18 12 30.5t31 12.5t31 -12.5t12 -30.5t-12 -30.5t-31 -12.5t-31 12.5t-12 30.5zM235 622q0 18 12 30.5t31 12.5t31 -12.5t12 -30.5t-12 -30.5t-31 -12.5t-31 12.5t-12 30.5zM41 0l90 510h69l-90 -510h-69z" />
    <glyph glyph-name="eth" unicode="&#xf0;" horiz-adv-x="554" 
d="M290 544l-16 46l85 29q-21 34 -56 78l48 35q37 -39 68 -93l88 31l16 -46l-82 -28q67 -141 67 -287q0 -151 -74 -236t-187 -85q-91 0 -148.5 57t-57.5 164q0 122 72.5 201.5t177.5 79.5q94 0 144 -67q-18 85 -52 153zM439 268q0 81 -38.5 122.5t-102.5 41.5
q-82 0 -135 -63t-53 -160q0 -81 38.5 -122t102.5 -41q82 0 135 62.5t53 159.5z" />
    <glyph glyph-name="ntilde" unicode="&#xf1;" horiz-adv-x="567" 
d="M34 0l90 510h69l-15 -84q96 96 206 96q57 0 93.5 -28t36.5 -93q0 -23 -4 -44l-63 -357h-69l63 357q3 18 3 31q0 72 -82 72q-92 0 -195 -99l-64 -361h-69zM241 580h-46q17 105 89 105q32 0 75.5 -28t61.5 -28q32 0 41 50h46q-17 -105 -89 -105q-32 0 -75.5 28t-61.5 28
q-32 0 -41 -50z" />
    <glyph glyph-name="ograve" unicode="&#xf2;" horiz-adv-x="554" 
d="M252 46q85 0 137.5 72.5t52.5 173.5q0 84 -38 128t-102 44q-85 0 -137.5 -72.5t-52.5 -173.5q0 -84 38 -128t102 -44zM248 -12q-90 0 -147.5 59.5t-57.5 168.5q0 127 74 216.5t189 89.5q90 0 147.5 -59.5t57.5 -168.5q0 -127 -74 -216.5t-189 -89.5zM381 574h-54
l-100 146h80z" />
    <glyph glyph-name="oacute" unicode="&#xf3;" horiz-adv-x="554" 
d="M252 46q85 0 137.5 72.5t52.5 173.5q0 84 -38 128t-102 44q-85 0 -137.5 -72.5t-52.5 -173.5q0 -84 38 -128t102 -44zM248 -12q-90 0 -147.5 59.5t-57.5 168.5q0 127 74 216.5t189 89.5q90 0 147.5 -59.5t57.5 -168.5q0 -127 -74 -216.5t-189 -89.5zM324 574h-60l114 146
h92z" />
    <glyph glyph-name="ocircumflex" unicode="&#xf4;" horiz-adv-x="554" 
d="M252 46q85 0 137.5 72.5t52.5 173.5q0 84 -38 128t-102 44q-85 0 -137.5 -72.5t-52.5 -173.5q0 -84 38 -128t102 -44zM248 -12q-90 0 -147.5 59.5t-57.5 168.5q0 127 74 216.5t189 89.5q90 0 147.5 -59.5t57.5 -168.5q0 -127 -74 -216.5t-189 -89.5zM233 574h-60l148 146
h55l96 -146h-51l-78 89z" />
    <glyph glyph-name="otilde" unicode="&#xf5;" horiz-adv-x="554" 
d="M252 46q85 0 137.5 72.5t52.5 173.5q0 84 -38 128t-102 44q-85 0 -137.5 -72.5t-52.5 -173.5q0 -84 38 -128t102 -44zM248 -12q-90 0 -147.5 59.5t-57.5 168.5q0 127 74 216.5t189 89.5q90 0 147.5 -59.5t57.5 -168.5q0 -127 -74 -216.5t-189 -89.5zM222 580h-46
q17 105 89 105q32 0 75.5 -28t61.5 -28q32 0 41 50h46q-17 -105 -89 -105q-32 0 -75.5 28t-61.5 28q-32 0 -41 -50z" />
    <glyph glyph-name="odieresis" unicode="&#xf6;" horiz-adv-x="554" 
d="M252 46q85 0 137.5 72.5t52.5 173.5q0 84 -38 128t-102 44q-85 0 -137.5 -72.5t-52.5 -173.5q0 -84 38 -128t102 -44zM248 -12q-90 0 -147.5 59.5t-57.5 168.5q0 127 74 216.5t189 89.5q90 0 147.5 -59.5t57.5 -168.5q0 -127 -74 -216.5t-189 -89.5zM195 622
q0 18 12 30.5t31 12.5t31 -12.5t12 -30.5t-12 -30.5t-31 -12.5t-31 12.5t-12 30.5zM381 622q0 18 12 30.5t31 12.5t31 -12.5t12 -30.5t-12 -30.5t-31 -12.5t-31 12.5t-12 30.5z" />
    <glyph glyph-name="divide" unicode="&#xf7;" horiz-adv-x="572" 
d="M535 285l-10 -60h-488l10 60h488zM295 54q0 -20 -12.5 -32t-33.5 -12q-20 0 -32.5 12t-12.5 32t12.5 32.5t32.5 12.5q21 0 33.5 -12.5t12.5 -32.5zM368 456q0 -20 -12.5 -32.5t-33.5 -12.5q-20 0 -32.5 12.5t-12.5 32.5t12.5 32t32.5 12q21 0 33.5 -12t12.5 -32z" />
    <glyph glyph-name="oslash" unicode="&#xf8;" horiz-adv-x="554" 
d="M110 217q0 -47 12 -81l289 278q-37 52 -109 52q-86 0 -139 -73.5t-53 -175.5zM252 44q86 0 139 73t53 175q0 48 -12 82l-290 -278q39 -52 110 -52zM248 -12q-96 0 -152 63l-78 -75l-30 31l84 81q-29 52 -29 127q0 127 74 217t189 90q96 0 151 -64l79 76l30 -31l-84 -81
q29 -55 29 -129q0 -126 -74 -215.5t-189 -89.5z" />
    <glyph glyph-name="ugrave" unicode="&#xf9;" horiz-adv-x="567" 
d="M533 510l-90 -510h-69l15 84q-96 -96 -206 -96q-57 0 -93.5 28t-36.5 93q0 23 4 44l63 357h69l-63 -359q-3 -18 -3 -31q0 -72 82 -72q92 0 195 99l64 363h69zM395 574h-54l-100 146h80z" />
    <glyph glyph-name="uacute" unicode="&#xfa;" horiz-adv-x="567" 
d="M533 510l-90 -510h-69l15 84q-96 -96 -206 -96q-57 0 -93.5 28t-36.5 93q0 23 4 44l63 357h69l-63 -359q-3 -18 -3 -31q0 -72 82 -72q92 0 195 99l64 363h69zM338 574h-60l114 146h92z" />
    <glyph glyph-name="ucircumflex" unicode="&#xfb;" horiz-adv-x="567" 
d="M533 510l-90 -510h-69l15 84q-96 -96 -206 -96q-57 0 -93.5 28t-36.5 93q0 23 4 44l63 357h69l-63 -359q-3 -18 -3 -31q0 -72 82 -72q92 0 195 99l64 363h69zM247 574h-60l148 146h55l96 -146h-51l-78 89z" />
    <glyph glyph-name="udieresis" unicode="&#xfc;" horiz-adv-x="567" 
d="M533 510l-90 -510h-69l15 84q-96 -96 -206 -96q-57 0 -93.5 28t-36.5 93q0 23 4 44l63 357h69l-63 -359q-3 -18 -3 -31q0 -72 82 -72q92 0 195 99l64 363h69zM209 622q0 18 12 30.5t31 12.5t31 -12.5t12 -30.5t-12 -30.5t-31 -12.5t-31 12.5t-12 30.5zM395 622
q0 18 12 30.5t31 12.5t31 -12.5t12 -30.5t-12 -30.5t-31 -12.5t-31 12.5t-12 30.5z" />
    <glyph glyph-name="yacute" unicode="&#xfd;" horiz-adv-x="505" 
d="M-44 -211l11 61q26 -6 45 -6q47 0 82 33t91 135h-24l-90 498h70l75 -446l234 446h74l-273 -508q-72 -135 -119 -176.5t-120 -41.5q-31 0 -56 5zM310 574h-60l114 146h92z" />
    <glyph glyph-name="thorn" unicode="&#xfe;" horiz-adv-x="570" 
d="M162 720h69l-49 -278q72 80 167 80q79 0 128.5 -56t49.5 -164q0 -132 -72 -223t-186 -91q-88 0 -155 71l-47 -269h-69zM333 461q-84 0 -163 -86l-46 -258q65 -70 143 -70q88 0 139.5 73t51.5 177q0 83 -34 123.5t-91 40.5z" />
    <glyph glyph-name="ydieresis" unicode="&#xff;" horiz-adv-x="505" 
d="M-44 -211l11 61q26 -6 45 -6q47 0 82 33t91 135h-24l-90 498h70l75 -446l234 446h74l-273 -508q-72 -135 -119 -176.5t-120 -41.5q-31 0 -56 5zM181 622q0 18 12 30.5t31 12.5t31 -12.5t12 -30.5t-12 -30.5t-31 -12.5t-31 12.5t-12 30.5zM367 622q0 18 12 30.5t31 12.5
t31 -12.5t12 -30.5t-12 -30.5t-31 -12.5t-31 12.5t-12 30.5z" />
    <glyph glyph-name="dotlessi" unicode="&#x131;" horiz-adv-x="241" 
d="M41 0l90 510h69l-90 -510h-69z" />
    <glyph glyph-name="IJ" unicode="&#x132;" horiz-adv-x="686" 
d="M60 0l127 720h71l-127 -720h-71zM267 4l11 65q48 -11 89 -11q71 0 104 36t46 111l91 515h71l-93 -528q-17 -99 -65.5 -148.5t-154.5 -49.5q-56 0 -99 10z" />
    <glyph glyph-name="ij" unicode="&#x133;" horiz-adv-x="481" 
d="M41 0l90 510h69l-90 -510h-69zM236 652q0 -20 -13 -33t-33 -13t-33 13t-13 33t13 33t33 13t33 -13t13 -33zM440 510l-105 -596q-12 -66 -43 -98t-103 -32q-32 0 -67 7l10 58q27 -6 48 -6q42 0 61.5 21t27.5 67l102 579h69zM476 652q0 -20 -13 -33t-33 -13t-33 13t-13 33
t13 33t33 13t33 -13t13 -33z" />
    <glyph glyph-name="Lslash" unicode="&#x141;" horiz-adv-x="530" 
d="M21 304l10 59l88 21l59 336h71l-56 -317l215 53l-10 -59l-216 -53l-49 -279h332l-11 -65h-403l57 325z" />
    <glyph glyph-name="lslash" unicode="&#x142;" horiz-adv-x="298" 
d="M24 326l10 56l107 26l55 312h69l-52 -294l107 26l-10 -56l-107 -26l-65 -370h-69l62 352z" />
    <glyph glyph-name="OE" unicode="&#x152;" horiz-adv-x="940" 
d="M843 0h-406q-60 -12 -105 -12q-120 0 -192.5 80t-72.5 231q0 87 25.5 164.5t72.5 137.5t120.5 95.5t163.5 35.5q52 0 112 -12h407l-11 -65h-337l-44 -249h293l-11 -63h-293l-50 -279h339zM340 51q47 0 104 15l104 588q-51 14 -103 14q-75 0 -135 -30t-97 -82t-56 -116.5
t-19 -137.5q0 -124 53.5 -187.5t148.5 -63.5z" />
    <glyph glyph-name="oe" unicode="&#x153;" horiz-adv-x="921" 
d="M719 522q82 0 125.5 -40.5t43.5 -98.5q0 -71 -71 -113.5t-225 -42.5q-49 0 -85 5v-21q0 -79 37 -122.5t106 -43.5q81 0 163 52l11 -58q-82 -51 -182 -51q-141 0 -187 114q-35 -53 -89 -83.5t-118 -30.5q-90 0 -147.5 59.5t-57.5 168.5q0 127 74 216.5t189 89.5
q64 0 113.5 -31.5t73.5 -91.5q38 58 96.5 90.5t129.5 32.5zM252 46q85 0 137.5 72.5t52.5 173.5q0 84 -38 128t-102 44q-85 0 -137.5 -72.5t-52.5 -173.5q0 -84 38 -128t102 -44zM716 466q-75 0 -129 -51.5t-72 -131.5q42 -5 84 -5q223 0 223 104q0 37 -27.5 60.5
t-78.5 23.5z" />
    <glyph glyph-name="Scaron" unicode="&#x160;" horiz-adv-x="579" 
d="M24 55l34 60q98 -64 193 -64q84 0 137.5 42t53.5 106q0 47 -32.5 79.5t-79 52t-93 41t-79 60.5t-32.5 96q0 89 70 146.5t178 57.5t200 -64l-35 -61q-86 61 -170 61q-75 0 -123.5 -37.5t-48.5 -94.5q0 -43 32.5 -72.5t79 -48.5t93 -40.5t79 -63t32.5 -102.5
q0 -97 -74 -159t-192 -62q-123 0 -223 67zM493 908h61l-144 -125h-56l-99 125h51l81 -68z" />
    <glyph glyph-name="scaron" unicode="&#x161;" horiz-adv-x="454" 
d="M426 476l-30 -56q-62 44 -122 44q-50 0 -83.5 -25t-33.5 -61q0 -24 17 -42t42.5 -27.5t55.5 -23t55.5 -27.5t42.5 -42t17 -65q0 -73 -57 -118t-148 -45q-95 0 -170 48l30 55q76 -46 145 -46q59 0 95.5 27.5t36.5 69.5q0 32 -23.5 54t-57.5 35.5t-68 28t-57.5 42.5
t-23.5 69q0 65 53 108t135 43t149 -46zM398 720h60l-148 -146h-55l-96 146h51l78 -89z" />
    <glyph glyph-name="Ydieresis" unicode="&#x178;" horiz-adv-x="603" 
d="M221 0l55 309l-168 411h72l139 -340l258 340h82l-312 -411l-55 -309h-71zM266 825q0 18 12 30.5t31 12.5t31 -12.5t12 -30.5t-12 -30.5t-31 -12.5t-31 12.5t-12 30.5zM452 825q0 18 12 30.5t31 12.5t31 -12.5t12 -30.5t-12 -30.5t-31 -12.5t-31 12.5t-12 30.5z" />
    <glyph glyph-name="Zcaron" unicode="&#x17d;" horiz-adv-x="598" 
d="M-4 0l9 54l512 601h-383l11 65h479l-9 -55l-512 -601h410l-11 -64h-506zM501 908h61l-144 -125h-56l-99 125h51l81 -68z" />
    <glyph glyph-name="zcaron" unicode="&#x17e;" horiz-adv-x="482" 
d="M-13 0l8 50l381 401h-290l10 59h384l-8 -50l-381 -401h314l-10 -59h-408zM411 720h60l-148 -146h-55l-96 146h51l78 -89z" />
    <glyph glyph-name="longs" unicode="&#x17f;" horiz-adv-x="336" 
d="M60 451l11 59h104l15 86q12 66 43 98t103 32q32 0 67 -7l-10 -58q-27 6 -48 6q-42 0 -61.5 -21t-27.5 -67l-102 -579h-69l79 451h-104z" />
    <glyph glyph-name="florin" unicode="&#x192;" horiz-adv-x="456" 
d="M448 673q-53 0 -79 -26t-41 -78l-49 -172h179l-10 -56h-184l-96 -341h-68l96 341h-153l10 56h159l52 185q21 76 59 113t120 37q27 0 73 -6l-11 -58q-33 5 -57 5z" />
    <glyph glyph-name="uni02BB" unicode="&#x2bb;" horiz-adv-x="261" 
d="M170 577h3q23 0 37 -13.5t14 -34.5t-13.5 -35t-34.5 -14q-27 0 -44 21.5t-17 55.5q0 101 147 175l31 -40q-104 -47 -123 -115z" />
    <glyph glyph-name="uni02BC" unicode="&#x2bc;" horiz-adv-x="261" 
d="M212 635h-3q-23 0 -37 13.5t-14 34.5t13.5 35t34.5 14q27 0 44 -21.5t17 -55.5q0 -101 -147 -175l-31 40q104 47 123 115z" />
    <glyph glyph-name="circumflex" unicode="&#x2c6;" horiz-adv-x="500" 
d="M217 574h-60l148 146h55l96 -146h-51l-78 89z" />
    <glyph glyph-name="caron" unicode="&#x2c7;" horiz-adv-x="500" 
d="M421 720h60l-148 -146h-55l-96 146h51l78 -89z" />
    <glyph glyph-name="breve" unicode="&#x2d8;" horiz-adv-x="500" 
d="M314 580q-63 0 -96 28.5t-33 79.5q0 16 3 32h46v-9q0 -39 18 -56.5t65 -17.5q50 0 74 19.5t37 63.5h46q-24 -140 -160 -140z" />
    <glyph glyph-name="dotaccent" unicode="&#x2d9;" horiz-adv-x="500" 
d="M359 619q0 -20 -13 -33t-33 -13t-33 13t-13 33t13 33t33 13t33 -13t13 -33z" />
    <glyph glyph-name="ring" unicode="&#x2da;" horiz-adv-x="500" 
d="M271 655q0 -20 13.5 -33.5t34.5 -13.5t34.5 13.5t13.5 33.5t-13.5 33.5t-34.5 13.5t-34.5 -13.5t-13.5 -33.5zM406 655q0 -36 -25 -61t-62 -25t-62 25t-25 61t25 61t62 25t62 -25t25 -61z" />
    <glyph glyph-name="ogonek" unicode="&#x2db;" horiz-adv-x="500" 
d="M169 -105q0 -33 39 -33q17 0 36 5l4 -47q-19 -4 -46 -4q-44 0 -68 18.5t-24 53.5q0 73 101 112h68q-60 -28 -85 -52.5t-25 -52.5z" />
    <glyph glyph-name="tilde" unicode="&#x2dc;" horiz-adv-x="500" 
d="M205 580h-46q17 105 89 105q32 0 75.5 -28t61.5 -28q32 0 41 50h46q-17 -105 -89 -105q-32 0 -75.5 28t-61.5 28q-32 0 -41 -50z" />
    <glyph glyph-name="hungarumlaut" unicode="&#x2dd;" horiz-adv-x="500" 
d="M230 574h-60l114 146h92zM374 574h-60l125 146h92z" />
    <glyph glyph-name="gravecomb" unicode="&#x300;" horiz-adv-x="1" 
d="M-87 574h-54l-100 146h80z" />
    <glyph glyph-name="acutecomb" unicode="&#x301;" horiz-adv-x="1" 
d="M-144 574h-60l114 146h92z" />
    <glyph glyph-name="uni0302" unicode="&#x302;" horiz-adv-x="1" 
d="M-235 574h-60l148 146h55l96 -146h-51l-78 89z" />
    <glyph glyph-name="tildecomb" unicode="&#x303;" horiz-adv-x="1" 
d="M-246 580h-46q17 105 89 105q32 0 75.5 -28t61.5 -28q32 0 41 50h46q-17 -105 -89 -105q-32 0 -75.5 28t-61.5 28q-32 0 -41 -50z" />
    <glyph glyph-name="uni0304" unicode="&#x304;" horiz-adv-x="1" 
d="M-261 585l10 57h280l-10 -57h-280z" />
    <glyph glyph-name="uni0306" unicode="&#x306;" horiz-adv-x="1" 
d="M-114 580q-63 0 -96 28.5t-33 79.5q0 16 3 32h46v-9q0 -39 18 -56.5t65 -17.5q50 0 74 19.5t37 63.5h46q-24 -140 -160 -140z" />
    <glyph glyph-name="uni0307" unicode="&#x307;" horiz-adv-x="1" 
d="M52 651q0 -20 -13 -33t-33 -13t-33 13t-13 33t13 33t33 13t33 -13t13 -33z" />
    <glyph glyph-name="uni0308" unicode="&#x308;" horiz-adv-x="1" 
d="M-250 622q0 18 12 30.5t31 12.5t31 -12.5t12 -30.5t-12 -30.5t-31 -12.5t-31 12.5t-12 30.5zM-64 622q0 18 12 30.5t31 12.5t31 -12.5t12 -30.5t-12 -30.5t-31 -12.5t-31 12.5t-12 30.5z" />
    <glyph glyph-name="uni030A" unicode="&#x30a;" horiz-adv-x="1" 
d="M-158 655q0 -20 13.5 -33.5t34.5 -13.5t34.5 13.5t13.5 33.5t-13.5 33.5t-34.5 13.5t-34.5 -13.5t-13.5 -33.5zM-23 655q0 -36 -25 -61t-62 -25t-62 25t-25 61t25 61t62 25t62 -25t25 -61z" />
    <glyph glyph-name="uni030B" unicode="&#x30b;" horiz-adv-x="1" 
d="M-198 574h-60l114 146h92zM-54 574h-60l125 146h92z" />
    <glyph glyph-name="uni030C" unicode="&#x30c;" horiz-adv-x="1" 
d="M1 720h60l-148 -146h-55l-96 146h51l78 -89z" />
    <glyph glyph-name="uni0312" unicode="&#x312;" horiz-adv-x="1" 
d="M-9 742l20 -38q-54 -23 -70 -53q19 0 30.5 -11.5t11.5 -29.5t-11.5 -29.5t-31.5 -11.5q-23 0 -37.5 15t-14.5 42q0 70 103 116z" />
    <glyph glyph-name="uni0313" unicode="&#x313;" horiz-adv-x="1" 
d="M-81 601q54 23 70 53q-19 0 -30.5 11.5t-11.5 29.5t11.5 29.5t31.5 11.5q23 0 37.5 -15t14.5 -42q0 -70 -103 -116z" />
    <glyph glyph-name="uni0326" unicode="&#x326;" horiz-adv-x="1" 
d="M-310 -167q54 23 70 53q-19 0 -30.5 11.5t-11.5 29.5t11.5 29.5t31.5 11.5q23 0 37.5 -15t14.5 -42q0 -70 -103 -116z" />
    <glyph glyph-name="uni0327" unicode="&#x327;" horiz-adv-x="1" 
d="M-140 -92q0 -42 -32 -67t-85 -25q-49 0 -95 25l20 43q37 -22 72 -22q29 0 45 13.5t16 33.5q0 41 -63 58l19 34q47 -7 75 -31t28 -62z" />
    <glyph glyph-name="uni0328" unicode="&#x328;" horiz-adv-x="1" 
d="M-259 -105q0 -33 39 -33q17 0 36 5l4 -47q-19 -4 -46 -4q-44 0 -68 18.5t-24 53.5q0 73 101 112h68q-60 -28 -85 -52.5t-25 -52.5z" />
    <glyph glyph-name="uni0335" unicode="&#x335;" horiz-adv-x="1" 
d="M69 280l11 63h371l-11 -63h-371z" />
    <glyph glyph-name="uni0336" unicode="&#x336;" horiz-adv-x="1" 
d="M69 280l11 63h871l-11 -63h-871z" />
    <glyph glyph-name="uni037E" unicode="&#x37e;" horiz-adv-x="279" 
d="M98 -9h-3q-23 0 -37 13.5t-14 34.5t13.5 35t34.5 14q27 0 44 -21.5t17 -55.5q0 -101 -147 -175l-31 40q104 47 123 115zM219 440q0 -21 -14 -35.5t-36 -14.5t-36 14.5t-14 35.5t14 35.5t36 14.5t36 -14.5t14 -35.5z" />
    <glyph glyph-name="uni0394" unicode="&#x394;" horiz-adv-x="673" 
d="M462 720l122 -665l-10 -55h-565l9 55l361 665h83zM409 647l-309 -583h411z" />
    <glyph glyph-name="uni03A9" unicode="&#x3a9;" horiz-adv-x="716" 
d="M412 668q-115 0 -190.5 -91t-75.5 -232q0 -170 127 -290l-9 -55h-267l10 64h183q-115 112 -115 280q0 166 98 277t241 111q121 0 197.5 -82.5t76.5 -222.5q0 -225 -200 -363h177l-11 -64h-266l9 55q220 151 220 370q0 116 -55.5 179.5t-149.5 63.5z" />
    <glyph glyph-name="uni03BC" unicode="&#x3bc;" horiz-adv-x="572" 
d="M65 -210h-67l126 720h69l-63 -359q-3 -18 -3 -31q0 -72 82 -72q92 0 195 99l64 363h69l-90 -510h-69l15 84q-96 -96 -203 -96q-63 0 -93 37q-15 -137 -32 -235z" />
    <glyph glyph-name="pi" unicode="&#x3c0;" horiz-adv-x="636" 
d="M60 451l11 59h569l-11 -59h-92l-59 -336q-3 -15 -3 -26q0 -37 39 -37q21 0 47 7l-11 -59q-27 -6 -54 -6q-90 0 -90 87q0 13 3 34l59 336h-246q-50 -275 -96 -451h-71q48 176 97 451h-92z" />
    <glyph glyph-name="uni1E9E" unicode="&#x1e9e;" horiz-adv-x="1138" 
d="M583 55l34 60q98 -64 193 -64q84 0 137.5 42t53.5 106q0 47 -32.5 79.5t-79 52t-93 41t-79 60.5t-32.5 96q0 89 70 146.5t178 57.5t200 -64l-35 -61q-86 61 -170 61q-75 0 -123.5 -37.5t-48.5 -94.5q0 -43 32.5 -72.5t79 -48.5t93 -40.5t79 -63t32.5 -102.5
q0 -97 -74 -159t-192 -62q-122 0 -223 67zM24 55l34 60q98 -64 193 -64q84 0 137.5 42t53.5 106q0 47 -32.5 79.5t-79 52t-93 41t-79 60.5t-32.5 96q0 89 70 146.5t178 57.5t200 -64l-35 -61q-86 61 -170 61q-75 0 -123.5 -37.5t-48.5 -94.5q0 -43 32.5 -72.5t79 -48.5
t93 -40.5t79 -63t32.5 -102.5q0 -97 -74 -159t-192 -62q-123 0 -223 67z" />
    <glyph glyph-name="uni2007" unicode="&#x2007;" horiz-adv-x="623" 
 />
    <glyph glyph-name="uni2008" unicode="&#x2008;" horiz-adv-x="279" 
 />
    <glyph glyph-name="uni200B" unicode="&#x200b;" horiz-adv-x="0" 
 />
    <glyph glyph-name="endash" unicode="&#x2013;" horiz-adv-x="500" 
d="M69 280l11 63h371l-11 -63h-371z" />
    <glyph glyph-name="emdash" unicode="&#x2014;" 
d="M69 280l11 63h871l-11 -63h-871z" />
    <glyph glyph-name="quoteleft" unicode="&#x2018;" horiz-adv-x="261" 
d="M170 577h3q23 0 37 -13.5t14 -34.5t-13.5 -35t-34.5 -14q-27 0 -44 21.5t-17 55.5q0 101 147 175l31 -40q-104 -47 -123 -115z" />
    <glyph glyph-name="quoteright" unicode="&#x2019;" horiz-adv-x="261" 
d="M212 635h-3q-23 0 -37 13.5t-14 34.5t13.5 35t34.5 14q27 0 44 -21.5t17 -55.5q0 -101 -147 -175l-31 40q104 47 123 115z" />
    <glyph glyph-name="quotesinglbase" unicode="&#x201a;" horiz-adv-x="261" 
d="M98 -9h-3q-23 0 -37 13.5t-14 34.5t13.5 35t34.5 14q27 0 44 -21.5t17 -55.5q0 -101 -147 -175l-31 40q104 47 123 115z" />
    <glyph glyph-name="quotedblleft" unicode="&#x201c;" horiz-adv-x="435" 
d="M344 577h3q23 0 37 -13.5t14 -34.5t-13.5 -35t-34.5 -14q-27 0 -44 21.5t-17 55.5q0 101 147 175l31 -40q-104 -47 -123 -115zM170 577h3q23 0 37 -13.5t14 -34.5t-13.5 -35t-34.5 -14q-27 0 -44 21.5t-17 55.5q0 101 147 175l31 -40q-104 -47 -123 -115z" />
    <glyph glyph-name="quotedblright" unicode="&#x201d;" horiz-adv-x="435" 
d="M386 635h-3q-23 0 -37 13.5t-14 34.5t13.5 35t34.5 14q27 0 44 -21.5t17 -55.5q0 -101 -147 -175l-31 40q104 47 123 115zM212 635h-3q-23 0 -37 13.5t-14 34.5t13.5 35t34.5 14q27 0 44 -21.5t17 -55.5q0 -101 -147 -175l-31 40q104 47 123 115z" />
    <glyph glyph-name="quotedblbase" unicode="&#x201e;" horiz-adv-x="435" 
d="M272 -9h-3q-23 0 -37 13.5t-14 34.5t13.5 35t34.5 14q27 0 44 -21.5t17 -55.5q0 -101 -147 -175l-31 40q104 47 123 115zM98 -9h-3q-23 0 -37 13.5t-14 34.5t13.5 35t34.5 14q27 0 44 -21.5t17 -55.5q0 -101 -147 -175l-31 40q104 47 123 115z" />
    <glyph glyph-name="dagger" unicode="&#x2020;" horiz-adv-x="572" 
d="M191 -83l96 499l-187 -7l11 62l185 -7l31 216h67l-45 -216l187 7l-11 -62l-185 7l-80 -499h-69z" />
    <glyph glyph-name="daggerdbl" unicode="&#x2021;" horiz-adv-x="572" 
d="M394 680l-41 -196l187 7l-11 -62l-185 7l-48 -275l187 7l-11 -62l-185 7l-27 -196h-67l41 196l-187 -7l11 62l185 -7l48 275l-187 -7l11 62l185 -7l27 196h67z" />
    <glyph glyph-name="bullet" unicode="&#x2022;" horiz-adv-x="464" 
d="M365 350q0 -52 -33.5 -85.5t-84.5 -33.5t-84.5 33.5t-33.5 85.5t33.5 85.5t84.5 33.5t84.5 -33.5t33.5 -85.5z" />
    <glyph glyph-name="onedotenleader" unicode="&#x2024;" horiz-adv-x="279" 
d="M150 38q0 -21 -14 -35.5t-36 -14.5t-36 14.5t-14 35.5t14 35.5t36 14.5t36 -14.5t14 -35.5z" />
    <glyph glyph-name="twodotenleader" unicode="&#x2025;" horiz-adv-x="505" 
d="M150 38q0 -21 -14 -35.5t-36 -14.5t-36 14.5t-14 35.5t14 35.5t36 14.5t36 -14.5t14 -35.5zM375 38q0 -21 -14 -35.5t-36 -14.5t-36 14.5t-14 35.5t14 35.5t36 14.5t36 -14.5t14 -35.5z" />
    <glyph glyph-name="ellipsis" unicode="&#x2026;" horiz-adv-x="730" 
d="M600 38q0 -21 -14 -35.5t-36 -14.5t-36 14.5t-14 35.5t14 35.5t36 14.5t36 -14.5t14 -35.5zM375 38q0 -21 -14 -35.5t-36 -14.5t-36 14.5t-14 35.5t14 35.5t36 14.5t36 -14.5t14 -35.5zM150 38q0 -21 -14 -35.5t-36 -14.5t-36 14.5t-14 35.5t14 35.5t36 14.5t36 -14.5
t14 -35.5z" />
    <glyph glyph-name="perthousand" unicode="&#x2030;" horiz-adv-x="1089" 
d="M768 139q0 -45 21 -72t61 -27q51 0 79.5 41t28.5 96q0 45 -21 72t-61 27q-51 0 -79.5 -41t-28.5 -96zM1013 174q0 -72 -44.5 -126t-117.5 -54q-63 0 -100.5 42t-37.5 106q0 72 44.5 126t117.5 54q63 0 100.5 -42t37.5 -106zM707 720l-569 -720h-65l569 720h65zM163 543
q0 -45 21 -72t61 -27q51 0 79.5 41t28.5 96q0 45 -21 72t-61 27q-51 0 -79.5 -41t-28.5 -96zM408 578q0 -72 -44.5 -126t-117.5 -54q-63 0 -100.5 42t-37.5 106q0 72 44.5 126t117.5 54q63 0 100.5 -42t37.5 -106zM427 139q0 -45 21 -72t61 -27q51 0 79.5 41t28.5 96
q0 45 -21 72t-61 27q-51 0 -79.5 -41t-28.5 -96zM672 174q0 -72 -44.5 -126t-117.5 -54q-63 0 -100.5 42t-37.5 106q0 72 44.5 126t117.5 54q63 0 100.5 -42t37.5 -106z" />
    <glyph glyph-name="minute" unicode="&#x2032;" horiz-adv-x="163" 
d="M69 467l81 253h64l-91 -253h-54z" />
    <glyph glyph-name="second" unicode="&#x2033;" horiz-adv-x="321" 
d="M226 467l81 253h64l-91 -253h-54zM69 467l81 253h64l-91 -253h-54z" />
    <glyph glyph-name="guilsinglleft" unicode="&#x2039;" horiz-adv-x="316" 
d="M149 24l-101 231l175 231h70l-175 -238l93 -224h-62z" />
    <glyph glyph-name="guilsinglright" unicode="&#x203a;" horiz-adv-x="316" 
d="M165 486l101 -231l-175 -231h-70l175 238l-93 224h62z" />
    <glyph glyph-name="exclamdbl" unicode="&#x203c;" horiz-adv-x="533" 
d="M122 197l80 523h74l-104 -523h-50zM166 35q0 -20 -13 -33.5t-34 -13.5t-34 13.5t-13 33.5t13 33.5t34 13.5t34 -13.5t13 -33.5zM339 197l80 523h74l-104 -523h-50zM383 35q0 -20 -13 -33.5t-34 -13.5t-34 13.5t-13 33.5t13 33.5t34 13.5t34 -13.5t13 -33.5z" />
    <glyph glyph-name="fraction" unicode="&#x2044;" horiz-adv-x="64" 
d="M-216 0l571 720h64l-572 -720h-63z" />
    <glyph glyph-name="uni2070" unicode="&#x2070;" horiz-adv-x="397" 
d="M237 420q64 0 100.5 65t36.5 157q0 144 -93 144q-64 0 -100.5 -65t-36.5 -157q0 -144 93 -144zM235 372q-66 0 -105 50t-39 143q0 110 53 189.5t139 79.5q66 0 105 -50t39 -143q0 -110 -53 -189.5t-139 -79.5z" />
    <glyph glyph-name="uni2071" unicode="&#x2071;" horiz-adv-x="211" 
d="M101 380l56 316h53l-56 -316h-53zM231 784q0 -15 -9.5 -24.5t-23.5 -9.5q-15 0 -24.5 9.5t-9.5 24.5t9.5 24.5t24.5 9.5q14 0 23.5 -9.5t9.5 -24.5z" />
    <glyph glyph-name="uni2074" unicode="&#x2074;" horiz-adv-x="373" 
d="M61 473l8 46l251 307h70l-55 -306h68l-8 -47h-67l-17 -93h-51l16 93h-215zM124 520h160l45 250z" />
    <glyph glyph-name="uni2075" unicode="&#x2075;" horiz-adv-x="341" 
d="M308 525q0 88 -107 88q-47 0 -100 -16l48 229h244l-8 -48h-195l-27 -125q25 5 50 5q67 0 107.5 -34t40.5 -98q0 -71 -49.5 -112.5t-127.5 -41.5q-73 0 -133 35l25 45q52 -34 108 -34q58 0 91 28t33 79z" />
    <glyph glyph-name="uni2076" unicode="&#x2076;" horiz-adv-x="369" 
d="M303 834q65 0 112 -32l-26 -43q-40 27 -87 27q-65 0 -105.5 -45.5t-50.5 -122.5q52 53 118 53q56 0 91.5 -36.5t35.5 -99.5q0 -72 -45 -117.5t-108 -45.5q-66 0 -106.5 51.5t-40.5 145.5q0 115 58.5 190t153.5 75zM253 625q-51 0 -110 -55q0 -76 26.5 -114t70.5 -38
q43 0 71 31.5t28 80.5q0 44 -23.5 69.5t-62.5 25.5z" />
    <glyph glyph-name="uni2077" unicode="&#x2077;" horiz-adv-x="344" 
d="M125 777l8 49h283l-8 -46q-107 -156 -244 -400h-61q128 229 241 397h-219z" />
    <glyph glyph-name="uni2078" unicode="&#x2078;" horiz-adv-x="365" 
d="M216 372q-68 0 -109 31t-41 84q0 50 35 79t97 50q-72 40 -72 99q0 53 42.5 86t105.5 33q58 0 94 -29.5t36 -76.5q0 -73 -109 -113q43 -21 66 -46.5t23 -67.5q0 -59 -47.5 -94t-120.5 -35zM178 720q0 -27 19 -45t56 -37q48 18 73.5 37.5t25.5 51.5q0 29 -22 46t-60 17
q-41 0 -66.5 -19.5t-25.5 -50.5zM218 416q50 0 82 22t32 59q0 18 -7 32.5t-22.5 26.5t-27.5 19t-35 18q-31 -12 -47 -19t-36.5 -20t-29.5 -29t-9 -36q0 -35 27 -54t73 -19z" />
    <glyph glyph-name="uni2079" unicode="&#x2079;" horiz-adv-x="369" 
d="M189 372q-65 0 -112 32l26 42q40 -27 87 -27q65 0 106 46t50 123q-50 -53 -118 -53q-56 0 -91.5 36.5t-35.5 99.5q0 72 45 117.5t108 45.5q66 0 106.5 -51.5t40.5 -145.5q0 -115 -58.5 -190t-153.5 -75zM239 580q52 0 110 55q0 76 -26.5 114t-70.5 38q-43 0 -71 -31.5
t-28 -80.5q0 -44 23.5 -69.5t62.5 -25.5z" />
    <glyph glyph-name="uni207A" unicode="&#x207a;" horiz-adv-x="364" 
d="M226 380h-44l24 135h-129l8 46h129l24 135h44l-24 -135h129l-8 -46h-129z" />
    <glyph glyph-name="uni207B" unicode="&#x207b;" horiz-adv-x="364" 
d="M387 561l-8 -46h-302l8 46h302z" />
    <glyph glyph-name="uni207C" unicode="&#x207c;" horiz-adv-x="364" 
d="M376 497l-8 -44h-302l8 44h302zM398 623l-8 -44h-302l8 44h302z" />
    <glyph glyph-name="uni207D" unicode="&#x207d;" horiz-adv-x="233" 
d="M130 505q0 -129 83 -216l-31 -25q-104 99 -104 240q0 63 18.5 117t52 94.5t63.5 66.5t69 52l21 -33q-172 -115 -172 -296z" />
    <glyph glyph-name="uni207E" unicode="&#x207e;" horiz-adv-x="233" 
d="M205 593q0 129 -83 216l31 25q104 -99 104 -240q0 -63 -18.5 -117t-52 -94.5t-63.5 -66.5t-69 -52l-21 33q172 115 172 296z" />
    <glyph glyph-name="uni207F" unicode="&#x207f;" horiz-adv-x="361" 
d="M73 380l56 316h53l-9 -49q55 57 121 57q35 0 59 -18t24 -55q0 -11 -2 -25l-40 -226h-53l39 220q2 14 2 20q0 37 -45 37q-56 0 -113 -57l-39 -220h-53z" />
    <glyph glyph-name="uni2080" unicode="&#x2080;" horiz-adv-x="397" 
d="M151 -66q64 0 100.5 65t36.5 157q0 144 -93 144q-64 0 -100.5 -65t-36.5 -157q0 -144 93 -144zM149 -114q-66 0 -105 50t-39 143q0 110 53 189.5t139 79.5q66 0 105 -50t39 -143q0 -110 -53 -189.5t-139 -79.5z" />
    <glyph glyph-name="uni2081" unicode="&#x2081;" horiz-adv-x="231" 
d="M38 239l-11 48l109 53h43l-79 -446h-53l68 383z" />
    <glyph glyph-name="uni2082" unicode="&#x2082;" horiz-adv-x="357" 
d="M250 229q0 32 -18 51.5t-55 19.5q-69 0 -127 -68l-11 49q58 67 143 67q57 0 89 -31.5t32 -84.5q0 -60 -52 -123t-188 -167h200l-8 -48h-283l6 42q156 116 214 178t58 115z" />
    <glyph glyph-name="uni2083" unicode="&#x2083;" horiz-adv-x="347" 
d="M171 348q55 0 90 -27t35 -78q0 -89 -111 -122q82 -23 82 -102q0 -61 -48 -97t-124 -36t-133 36l24 44q51 -33 111 -33q53 0 85 23.5t32 64.5q0 75 -112 75q-8 0 -42 -2l8 47q82 0 129 25.5t47 70.5q0 31 -21.5 47t-57.5 16q-57 0 -111 -39l-7 47q58 40 124 40z" />
    <glyph glyph-name="uni2084" unicode="&#x2084;" horiz-adv-x="373" 
d="M-25 -13l8 46l251 307h70l-55 -306h68l-8 -47h-67l-17 -93h-51l16 93h-215zM38 34h160l45 250z" />
    <glyph glyph-name="uni2085" unicode="&#x2085;" horiz-adv-x="341" 
d="M222 39q0 88 -107 88q-47 0 -100 -16l48 229h244l-8 -48h-195l-27 -125q25 5 50 5q67 0 107.5 -34t40.5 -98q0 -71 -49.5 -112.5t-127.5 -41.5q-73 0 -133 35l25 45q52 -34 108 -34q58 0 91 28t33 79z" />
    <glyph glyph-name="uni2086" unicode="&#x2086;" horiz-adv-x="369" 
d="M217 348q65 0 112 -32l-26 -43q-40 27 -87 27q-65 0 -105.5 -45.5t-50.5 -122.5q52 53 118 53q56 0 91.5 -36.5t35.5 -99.5q0 -72 -45 -117.5t-108 -45.5q-66 0 -106.5 51.5t-40.5 145.5q0 115 58.5 190t153.5 75zM167 139q-51 0 -110 -55q0 -76 26.5 -114t70.5 -38
q43 0 71 31.5t28 80.5q0 44 -23.5 69.5t-62.5 25.5z" />
    <glyph glyph-name="uni2087" unicode="&#x2087;" horiz-adv-x="344" 
d="M39 291l8 49h283l-8 -46q-107 -156 -244 -400h-61q128 229 241 397h-219z" />
    <glyph glyph-name="uni2088" unicode="&#x2088;" horiz-adv-x="365" 
d="M130 -114q-68 0 -109 31t-41 84q0 50 35 79t97 50q-72 40 -72 99q0 53 42.5 86t105.5 33q58 0 94 -29.5t36 -76.5q0 -73 -109 -113q43 -21 66 -46.5t23 -67.5q0 -59 -47.5 -94t-120.5 -35zM92 234q0 -27 19 -45t56 -37q48 18 73.5 37.5t25.5 51.5q0 29 -22 46t-60 17
q-41 0 -66.5 -19.5t-25.5 -50.5zM132 -70q50 0 82 22t32 59q0 18 -7 32.5t-22.5 26.5t-27.5 19t-35 18q-31 -12 -47 -19t-36.5 -20t-29.5 -29t-9 -36q0 -35 27 -54t73 -19z" />
    <glyph glyph-name="uni2089" unicode="&#x2089;" horiz-adv-x="369" 
d="M103 -114q-65 0 -112 32l26 42q40 -27 87 -27q65 0 106 46t50 123q-50 -53 -118 -53q-56 0 -91.5 36.5t-35.5 99.5q0 72 45 117.5t108 45.5q66 0 106.5 -51.5t40.5 -145.5q0 -115 -58.5 -190t-153.5 -75zM153 94q52 0 110 55q0 76 -26.5 114t-70.5 38q-43 0 -71 -31.5
t-28 -80.5q0 -44 23.5 -69.5t62.5 -25.5z" />
    <glyph glyph-name="uni208A" unicode="&#x208a;" horiz-adv-x="364" 
d="M140 -106h-44l24 135h-129l8 46h129l24 135h44l-24 -135h129l-8 -46h-129z" />
    <glyph glyph-name="uni208B" unicode="&#x208b;" horiz-adv-x="364" 
d="M301 75l-8 -46h-302l8 46h302z" />
    <glyph glyph-name="uni208C" unicode="&#x208c;" horiz-adv-x="364" 
d="M290 11l-8 -44h-302l8 44h302zM312 137l-8 -44h-302l8 44h302z" />
    <glyph glyph-name="uni208D" unicode="&#x208d;" horiz-adv-x="233" 
d="M44 19q0 -129 83 -216l-31 -25q-104 99 -104 240q0 63 18.5 117t52 94.5t63.5 66.5t69 52l21 -33q-172 -115 -172 -296z" />
    <glyph glyph-name="uni208E" unicode="&#x208e;" horiz-adv-x="233" 
d="M119 107q0 129 -83 216l31 25q104 -99 104 -240q0 -63 -18.5 -117t-52 -94.5t-63.5 -66.5t-69 -52l-21 33q172 115 172 296z" />
    <glyph glyph-name="Euro" unicode="&#x20ac;" horiz-adv-x="627" 
d="M42 399l10 56h98q36 125 121.5 201t206.5 76q99 0 173 -61l-35 -59q-69 58 -147 58q-90 0 -154 -58.5t-94 -156.5h259l-10 -56h-262q-7 -39 -9 -80h257l-10 -56h-246q6 -104 50 -159t119 -55q84 0 163 65l13 -62q-86 -64 -183 -64q-101 0 -163.5 71.5t-69.5 203.5h-111
l10 56h101q2 41 9 80h-96z" />
    <glyph glyph-name="uni20B1" unicode="&#x20b1;" horiz-adv-x="631" 
d="M54 472l10 56h90l34 192h212q100 0 156 -49t58 -143h66l-9 -56h-61q-16 -90 -85.5 -139.5t-185.5 -49.5h-158l-49 -283h-71l83 472h-90zM192 343h147q171 0 200 129h-324zM248 658l-23 -130h319q-2 68 -38.5 99t-110.5 31h-147z" />
    <glyph glyph-name="uni20B4" unicode="&#x20b4;" horiz-adv-x="577" 
d="M46 399l10 56h372q64 42 64 106q0 50 -33.5 79.5t-92.5 29.5q-86 0 -177 -68l-13 63q89 67 195 67q87 0 139 -46t52 -125q0 -63 -37 -106h67l-10 -56h-129q-36 -19 -116.5 -46.5t-96.5 -33.5h328l-10 -56h-403q-40 -38 -40 -94q0 -57 38 -88.5t107 -31.5q102 0 199 70
l13 -62q-98 -69 -218 -69q-97 0 -153 47t-56 133q0 53 24 95h-47l10 56h89q14 10 30.5 19.5t40 18.5t36 14t43 15.5t37.5 12.5h-262z" />
    <glyph glyph-name="uni2113" unicode="&#x2113;" horiz-adv-x="572" 
d="M42 290q53 0 101 6l45 257q16 87 60 133t109 46q63 0 102.5 -42.5t39.5 -127.5q0 -119 -79 -199.5t-218 -111.5l-11 -65q-5 -30 -5 -48q0 -50 25.5 -71t76.5 -21q64 0 118 34l11 -59q-53 -33 -135 -33q-164 0 -164 143q0 24 7 64l8 44q-40 -5 -101 -5zM254 544l-41 -233
q106 29 165.5 94t59.5 158q0 57 -22 84t-56 27q-37 0 -65.5 -31t-40.5 -99z" />
    <glyph glyph-name="uni2116" unicode="&#x2116;" horiz-adv-x="1053" 
d="M798 509q0 -45 21 -72t61 -27q51 0 79.5 41t28.5 96q0 45 -21 72t-61 27q-51 0 -79.5 -41t-28.5 -96zM1043 544q0 -72 -44.5 -126t-117.5 -54q-63 0 -100.5 42t-37.5 106q0 72 44.5 126t117.5 54q63 0 100.5 -42t37.5 -106zM51 0l127 720h81l266 -589l104 589h67
l-127 -720h-59l-282 623l-110 -623h-67z" />
    <glyph glyph-name="uni2117" unicode="&#x2117;" horiz-adv-x="838" 
d="M315 541h136q64 0 99.5 -28t35.5 -82q0 -55 -36.5 -82.5t-102.5 -27.5h-75v-146h-57v366zM372 369h76q81 0 81 61t-81 61h-76v-122zM104 360q0 -140 94.5 -233.5t232.5 -93.5t232.5 93.5t94.5 233.5t-94.5 233.5t-232.5 93.5t-232.5 -93.5t-94.5 -233.5zM803 360
q0 -159 -107.5 -265.5t-264.5 -106.5t-264.5 106.5t-107.5 265.5t107.5 265.5t264.5 106.5t264.5 -106.5t107.5 -265.5z" />
    <glyph glyph-name="uni2120" unicode="&#x2120;" horiz-adv-x="770" 
d="M567 380h-46l-38 203q-11 54 -12 78h-2l-20 -80l-52 -201h-48l93 340h65l34 -200q9 -51 11 -81h2q10 22 39 75l115 206h65l-32 -340h-50l22 207q6 52 11 74h-2q-8 -19 -42 -80zM65 403l20 42q50 -29 95 -29q37 0 60.5 16.5t23.5 42.5q0 24 -23.5 40.5t-51 25.5t-51 31
t-23.5 55q0 44 34.5 72t92.5 28q57 0 102 -29l-21 -43q-43 27 -82 27q-33 0 -53.5 -14t-20.5 -36q0 -21 23.5 -36.5t51 -24t51 -32t23.5 -58.5q0 -48 -38.5 -78t-99.5 -30q-60 0 -113 30z" />
    <glyph glyph-name="trademark" unicode="&#x2122;" horiz-adv-x="754" 
d="M550 380h-46l-38 203q-11 54 -12 78h-2l-20 -80l-52 -201h-48l93 340h65l34 -200q9 -51 11 -81h2q10 22 39 75l115 206h65l-32 -340h-50l22 207q6 52 11 74h-2q-8 -19 -42 -80zM144 380l53 295h-102l8 45h255l-8 -45h-102l-52 -295h-52z" />
    <glyph glyph-name="Omega" unicode="&#x2126;" horiz-adv-x="716" 
d="M412 668q-115 0 -190.5 -91t-75.5 -232q0 -170 127 -290l-9 -55h-267l10 64h183q-115 112 -115 280q0 166 98 277t241 111q121 0 197.5 -82.5t76.5 -222.5q0 -225 -200 -363h177l-11 -64h-266l9 55q220 151 220 370q0 116 -55.5 179.5t-149.5 63.5z" />
    <glyph glyph-name="estimated" unicode="&#x212e;" horiz-adv-x="736" 
d="M376 15q120 0 196 82h48q-43 -50 -107 -79.5t-137 -29.5q-126 0 -217 81.5t-91 195.5t91 195.5t217 81.5t217 -81.5t91 -195.5v-14h-513v-146q79 -90 205 -90zM376 515q-126 0 -205 -90v-146h410v146q-79 90 -205 90z" />
    <glyph glyph-name="uni2150" unicode="&#x2150;" horiz-adv-x="788" 
d="M39 0l571 720h64l-572 -720h-63zM124 619l-11 48l109 53h43l-79 -446h-53l68 383zM515 397l8 49h283l-8 -46q-107 -156 -244 -400h-61q128 229 241 397h-219z" />
    <glyph glyph-name="uni2151" unicode="&#x2151;" horiz-adv-x="777" 
d="M42 0l571 720h64l-572 -720h-63zM541 -5q-65 0 -112 32l26 42q40 -27 87 -27q65 0 106 46t50 123q-50 -53 -118 -53q-56 0 -91.5 36.5t-35.5 99.5q0 72 45 117.5t108 45.5q66 0 106.5 -51.5t40.5 -145.5q0 -115 -58.5 -190t-153.5 -75zM591 203q52 0 110 55
q0 76 -26.5 114t-70.5 38q-43 0 -71 -31.5t-28 -80.5q0 -44 23.5 -69.5t62.5 -25.5zM124 619l-11 48l109 53h43l-79 -446h-53l68 383z" />
    <glyph glyph-name="uni2152" unicode="&#x2152;" horiz-adv-x="1066" 
d="M42 0l571 720h64l-572 -720h-63zM124 619l-11 48l109 53h43l-79 -446h-53l68 383zM557 345l-11 48l109 53h43l-79 -446h-53l68 383zM848 40q64 0 100.5 65t36.5 157q0 144 -93 144q-64 0 -100.5 -65t-36.5 -157q0 -144 93 -144zM846 -8q-66 0 -105 50t-39 143
q0 110 53 189.5t139 79.5q66 0 105 -50t39 -143q0 -110 -53 -189.5t-139 -79.5z" />
    <glyph glyph-name="onethird" unicode="&#x2153;" horiz-adv-x="776" 
d="M42 0l571 720h64l-572 -720h-63zM630 454q55 0 90 -27t35 -78q0 -89 -111 -122q82 -23 82 -102q0 -61 -48 -97t-124 -36t-133 36l24 44q51 -33 111 -33q52 0 84.5 23.5t32.5 64.5q0 75 -112 75q-8 0 -42 -2l8 47q82 0 129 25.5t47 70.5q0 31 -21.5 47t-57.5 16
q-57 0 -111 -39l-7 47q58 40 124 40zM124 619l-11 48l109 53h43l-79 -446h-53l68 383z" />
    <glyph glyph-name="twothirds" unicode="&#x2154;" horiz-adv-x="927" 
d="M189 0l571 720h64l-572 -720h-63zM781 454q55 0 90 -27t35 -78q0 -89 -111 -122q82 -23 82 -102q0 -61 -48 -97t-124 -36t-133 36l24 44q51 -33 111 -33q52 0 84.5 23.5t32.5 64.5q0 75 -112 75q-8 0 -42 -2l8 47q82 0 129 25.5t47 70.5q0 31 -21.5 47t-57.5 16
q-57 0 -111 -39l-7 47q58 40 124 40zM336 609q0 32 -18 51.5t-55 19.5q-69 0 -127 -68l-11 49q58 67 143 67q57 0 89 -31.5t32 -84.5q0 -60 -52 -123t-188 -167h200l-8 -48h-283l6 42q156 116 214 178t58 115z" />
    <glyph glyph-name="uni2155" unicode="&#x2155;" horiz-adv-x="776" 
d="M39 0l571 720h64l-572 -720h-63zM682 145q0 88 -107 88q-47 0 -100 -16l48 229h244l-8 -48h-195l-27 -125q25 5 50 5q67 0 107.5 -34t40.5 -98q0 -71 -49.5 -112.5t-127.5 -41.5q-73 0 -133 35l25 45q52 -34 108 -34q58 0 91 28t33 79zM124 619l-11 48l109 53h43
l-79 -446h-53l68 383z" />
    <glyph glyph-name="uni2156" unicode="&#x2156;" horiz-adv-x="923" 
d="M189 0l571 720h64l-572 -720h-63zM336 609q0 32 -18 51.5t-55 19.5q-69 0 -127 -68l-11 49q58 67 143 67q57 0 89 -31.5t32 -84.5q0 -60 -52 -123t-188 -167h200l-8 -48h-283l6 42q156 116 214 178t58 115zM832 145q0 88 -107 88q-47 0 -100 -16l48 229h244l-8 -48h-195
l-27 -125q25 5 50 5q67 0 107.5 -34t40.5 -98q0 -71 -49.5 -112.5t-127.5 -41.5q-73 0 -133 35l25 45q52 -34 108 -34q58 0 91 28t33 79z" />
    <glyph glyph-name="uni2157" unicode="&#x2157;" horiz-adv-x="853" 
d="M122 0l571 720h64l-572 -720h-63zM762 145q0 88 -107 88q-47 0 -100 -16l48 229h244l-8 -48h-195l-27 -125q25 5 50 5q67 0 107.5 -34t40.5 -98q0 -71 -49.5 -112.5t-127.5 -41.5q-73 0 -133 35l25 45q52 -34 108 -34q58 0 91 28t33 79zM257 728q55 0 90 -27t35 -78
q0 -89 -111 -122q82 -23 82 -102q0 -61 -48 -97t-124 -36t-133 36l24 44q51 -33 111 -33q53 0 85 23.5t32 64.5q0 75 -112 75q-8 0 -42 -2l8 47q82 0 129 25.5t47 70.5q0 31 -21.5 47t-57.5 16q-57 0 -111 -39l-7 47q58 40 124 40z" />
    <glyph glyph-name="uni2158" unicode="&#x2158;" horiz-adv-x="893" 
d="M163 0l571 720h64l-572 -720h-63zM61 367l8 46l251 307h70l-55 -306h68l-8 -47h-67l-17 -93h-51l16 93h-215zM124 414h160l45 250zM804 145q0 88 -107 88q-47 0 -100 -16l48 229h244l-8 -48h-195l-27 -125q25 5 50 5q67 0 107.5 -34t40.5 -98q0 -71 -49.5 -112.5
t-127.5 -41.5q-73 0 -133 35l25 45q52 -34 108 -34q58 0 91 28t33 79z" />
    <glyph glyph-name="uni2159" unicode="&#x2159;" horiz-adv-x="746" 
d="M39 0l571 720h64l-572 -720h-63zM627 454q65 0 112 -32l-26 -43q-40 27 -87 27q-65 0 -105.5 -45.5t-50.5 -122.5q52 53 118 53q56 0 91.5 -36.5t35.5 -99.5q0 -72 -45 -117.5t-108 -45.5q-66 0 -106.5 51.5t-40.5 145.5q0 115 58.5 190t153.5 75zM577 245
q-51 0 -110 -55q0 -76 26.5 -114t70.5 -38q43 0 71 31.5t28 80.5q0 44 -23.5 69.5t-62.5 25.5zM124 619l-11 48l109 53h43l-79 -446h-53l68 383z" />
    <glyph glyph-name="uni215A" unicode="&#x215a;" horiz-adv-x="827" 
d="M121 0l571 720h64l-572 -720h-63zM308 419q0 88 -107 88q-47 0 -100 -16l48 229h244l-8 -48h-195l-27 -125q25 5 50 5q67 0 107.5 -34t40.5 -98q0 -71 -49.5 -112.5t-127.5 -41.5q-73 0 -133 35l25 45q52 -34 108 -34q58 0 91 28t33 79zM708 454q65 0 112 -32l-26 -43
q-40 27 -87 27q-65 0 -105.5 -45.5t-50.5 -122.5q52 53 118 53q56 0 91.5 -36.5t35.5 -99.5q0 -72 -45 -117.5t-108 -45.5q-66 0 -106.5 51.5t-40.5 145.5q0 115 58.5 190t153.5 75zM658 245q-51 0 -110 -55q0 -76 26.5 -114t70.5 -38q43 0 71 31.5t28 80.5q0 44 -23.5 69.5
t-62.5 25.5z" />
    <glyph glyph-name="oneeighth" unicode="&#x215b;" horiz-adv-x="758" 
d="M42 0l571 720h64l-572 -720h-63zM552 -8q-68 0 -109 31t-41 84q0 50 35 79t97 50q-72 40 -72 99q0 53 42.5 86t105.5 33q58 0 94 -29.5t36 -76.5q0 -73 -109 -113q43 -21 66 -46.5t23 -67.5q0 -59 -47.5 -94t-120.5 -35zM514 340q0 -27 19 -45t56 -37q48 18 73.5 37.5
t25.5 51.5q0 29 -22 46t-60 17q-41 0 -66.5 -19.5t-25.5 -50.5zM554 36q50 0 82 22t32 59q0 18 -7 32.5t-22.5 26.5t-27.5 19t-35 18q-31 -12 -47 -19t-36.5 -20t-29.5 -29t-9 -36q0 -35 27 -54t73 -19zM124 619l-11 48l109 53h43l-79 -446h-53l68 383z" />
    <glyph glyph-name="threeeighths" unicode="&#x215c;" horiz-adv-x="832" 
d="M115 0l571 720h64l-572 -720h-63zM626 -8q-68 0 -109 31t-41 84q0 50 35 79t97 50q-72 40 -72 99q0 53 42.5 86t105.5 33q58 0 94 -29.5t36 -76.5q0 -73 -109 -113q43 -21 66 -46.5t23 -67.5q0 -59 -47.5 -94t-120.5 -35zM588 340q0 -27 19 -45t56 -37q48 18 73.5 37.5
t25.5 51.5q0 29 -22 46t-60 17q-41 0 -66.5 -19.5t-25.5 -50.5zM628 36q50 0 82 22t32 59q0 18 -7 32.5t-22.5 26.5t-27.5 19t-35 18q-31 -12 -47 -19t-36.5 -20t-29.5 -29t-9 -36q0 -35 27 -54t73 -19zM257 728q55 0 90 -27t35 -78q0 -89 -111 -122q82 -23 82 -102
q0 -61 -48 -97t-124 -36t-133 36l24 44q51 -33 111 -33q53 0 85 23.5t32 64.5q0 75 -112 75q-8 0 -42 -2l8 47q82 0 129 25.5t47 70.5q0 31 -21.5 47t-57.5 16q-57 0 -111 -39l-7 47q58 40 124 40z" />
    <glyph glyph-name="fiveeighths" unicode="&#x215d;" horiz-adv-x="838" 
d="M119 0l571 720h64l-572 -720h-63zM632 -8q-68 0 -109 31t-41 84q0 50 35 79t97 50q-72 40 -72 99q0 53 42.5 86t105.5 33q58 0 94 -29.5t36 -76.5q0 -73 -109 -113q43 -21 66 -46.5t23 -67.5q0 -59 -47.5 -94t-120.5 -35zM594 340q0 -27 19 -45t56 -37q48 18 73.5 37.5
t25.5 51.5q0 29 -22 46t-60 17q-41 0 -66.5 -19.5t-25.5 -50.5zM634 36q50 0 82 22t32 59q0 18 -7 32.5t-22.5 26.5t-27.5 19t-35 18q-31 -12 -47 -19t-36.5 -20t-29.5 -29t-9 -36q0 -35 27 -54t73 -19zM308 419q0 88 -107 88q-47 0 -100 -16l48 229h244l-8 -48h-195
l-27 -125q25 5 50 5q67 0 107.5 -34t40.5 -98q0 -71 -49.5 -112.5t-127.5 -41.5q-73 0 -133 35l25 45q52 -34 108 -34q58 0 91 28t33 79z" />
    <glyph glyph-name="seveneighths" unicode="&#x215e;" horiz-adv-x="727" 
d="M11 0l571 720h64l-572 -720h-63zM521 -8q-68 0 -109 31t-41 84q0 50 35 79t97 50q-72 40 -72 99q0 53 42.5 86t105.5 33q58 0 94 -29.5t36 -76.5q0 -73 -109 -113q43 -21 66 -46.5t23 -67.5q0 -59 -47.5 -94t-120.5 -35zM483 340q0 -27 19 -45t56 -37q48 18 73.5 37.5
t25.5 51.5q0 29 -22 46t-60 17q-41 0 -66.5 -19.5t-25.5 -50.5zM523 36q50 0 82 22t32 59q0 18 -7 32.5t-22.5 26.5t-27.5 19t-35 18q-31 -12 -47 -19t-36.5 -20t-29.5 -29t-9 -36q0 -35 27 -54t73 -19zM125 671l8 49h283l-8 -46q-107 -156 -244 -400h-61q128 229 241 397
h-219z" />
    <glyph glyph-name="uni215F" unicode="&#x215f;" horiz-adv-x="528" 
d="M39 0l571 720h64l-572 -720h-63zM124 619l-11 48l109 53h43l-79 -446h-53l68 383z" />
    <glyph glyph-name="uni2189" unicode="&#x2189;" horiz-adv-x="892" 
d="M237 314q64 0 100.5 65t36.5 157q0 144 -93 144q-64 0 -100.5 -65t-36.5 -157q0 -144 93 -144zM235 266q-66 0 -105 50t-39 143q0 110 53 189.5t139 79.5q66 0 105 -50t39 -143q0 -110 -53 -189.5t-139 -79.5zM760 454q55 0 90 -27t35 -78q0 -89 -111 -122
q82 -23 82 -102q0 -61 -48 -97t-124 -36t-133 36l24 44q51 -33 111 -33q52 0 84.5 23.5t32.5 64.5q0 75 -112 75q-8 0 -42 -2l8 47q82 0 129 25.5t47 70.5q0 31 -21.5 47t-57.5 16q-57 0 -111 -39l-7 47q58 40 124 40zM149 0l571 720h64l-572 -720h-63z" />
    <glyph glyph-name="arrowleft" unicode="&#x2190;" 
d="M472 556l-99 -99q-99 -99 -125 -120v-2q33 4 170 4h458v-60h-458q-137 0 -170 4v-2q26 -21 125 -120l99 -99l-40 -42l-288 289l288 289z" />
    <glyph glyph-name="arrowup" unicode="&#x2191;" 
d="M540 0h-60v458q0 126 4 170h-2q-25 -31 -119 -125l-101 -101l-40 41l288 289l288 -289l-40 -41l-101 101q-94 94 -119 125h-2q4 -44 4 -170v-458z" />
    <glyph glyph-name="arrowright" unicode="&#x2192;" 
d="M548 62l99 99q99 99 125 120v2q-33 -4 -170 -4h-458v60h458q137 0 170 -4v2q-26 21 -125 120l-99 99l40 42l288 -289l-288 -289z" />
    <glyph glyph-name="arrowdown" unicode="&#x2193;" 
d="M480 720h60v-458q0 -126 -4 -170h2q25 31 119 125l101 101l40 -41l-288 -289l-288 289l40 41l101 -101q94 -94 119 -125h2q-4 44 -4 170v458z" />
    <glyph glyph-name="uni2196" unicode="&#x2196;" 
d="M765 140l-40 -41l-325 325q-97 97 -118 123l-1 -2q3 -33 3 -173v-143h-57v409h408v-59h-142q-139 0 -172 3l-2 -1q17 -14 122 -117z" />
    <glyph glyph-name="uni2197" unicode="&#x2197;" 
d="M262 99l-40 41l324 324q100 100 122 117l-2 1q-33 -3 -172 -3h-142v59h408v-409h-57v143q0 140 3 173l-1 2q-21 -26 -118 -123z" />
    <glyph glyph-name="uni2198" unicode="&#x2198;" 
d="M222 564l40 41l325 -325q97 -97 118 -123l1 2q-3 33 -3 173v143h57v-409h-408v59h142q139 0 172 -3l2 1q-17 14 -122 117z" />
    <glyph glyph-name="uni2199" unicode="&#x2199;" 
d="M725 605l40 -41l-324 -324q-100 -100 -122 -117l2 -1q33 3 172 3h142v-59h-408v409h57v-143q0 -140 -3 -173l1 -2q21 26 118 123z" />
    <glyph glyph-name="partialdiff" unicode="&#x2202;" horiz-adv-x="572" 
d="M321 673q-68 0 -135 -51l-11 59q64 51 151 51q97 0 153.5 -77.5t56.5 -236.5q0 -195 -82.5 -312.5t-204.5 -117.5q-84 0 -142.5 57.5t-58.5 165.5q0 123 75 197t180 74q92 0 165 -62q-1 253 -147 253zM253 45q84 0 142 81.5t70 222.5q-72 75 -157 75q-81 0 -136 -58
t-55 -156q0 -82 38.5 -123.5t97.5 -41.5z" />
    <glyph glyph-name="emptyset" unicode="&#x2205;" horiz-adv-x="676" 
d="M170 -73l-47 29l49 83q-53 38 -83 96.5t-30 129.5q0 120 79.5 198.5t198.5 78.5q61 0 117 -24l50 85l47 -29l-49 -83q53 -38 83 -96.5t30 -129.5q0 -120 -79.5 -198.5t-198.5 -78.5q-61 0 -117 24zM115 265q0 -113 85 -178l226 383q-39 16 -88 16q-96 0 -159.5 -62.5
t-63.5 -158.5zM559 265q0 113 -85 178l-226 -383q39 -16 88 -16q96 0 159.5 62.5t63.5 158.5z" />
    <glyph glyph-name="Delta" unicode="&#x2206;" horiz-adv-x="673" 
d="M462 720l122 -665l-10 -55h-565l9 55l361 665h83zM409 647l-309 -583h411z" />
    <glyph glyph-name="product" unicode="&#x220f;" horiz-adv-x="712" 
d="M26 -140l152 860h519l-152 -860h-71l141 795h-377l-141 -795h-71z" />
    <glyph glyph-name="summation" unicode="&#x2211;" horiz-adv-x="568" 
d="M-20 -140l9 54l360 392l-205 359l9 55h462l-11 -65h-381l206 -357l-345 -374h392l-11 -64h-485z" />
    <glyph glyph-name="minus" unicode="&#x2212;" horiz-adv-x="572" 
d="M535 285l-10 -60h-488l10 60h488z" />
    <glyph glyph-name="uni2215" unicode="&#x2215;" horiz-adv-x="572" 
d="M-63 0l571 720h64l-572 -720h-63z" />
    <glyph glyph-name="uni2219" unicode="&#x2219;" horiz-adv-x="572" 
d="M419 350q0 -52 -33.5 -85.5t-84.5 -33.5t-84.5 33.5t-33.5 85.5t33.5 85.5t84.5 33.5t84.5 -33.5t33.5 -85.5z" />
    <glyph glyph-name="radical" unicode="&#x221a;" horiz-adv-x="572" 
d="M156 -80l-109 510h68l88 -429l404 719h74l-454 -800h-71z" />
    <glyph glyph-name="infinity" unicode="&#x221e;" horiz-adv-x="800" 
d="M173 119q43 0 87.5 35t104.5 102q-43 66 -78.5 100.5t-79.5 34.5q-50 0 -85.5 -45t-35.5 -113q0 -55 24 -84.5t63 -29.5zM396 209q-66 -71 -119 -109.5t-108 -38.5q-58 0 -96 43t-38 124q0 96 51.5 158.5t123.5 62.5q57 0 102 -39t92 -109q66 71 119 109.5t108 38.5
q58 0 96 -43t38 -124q0 -96 -51.5 -158.5t-124.5 -62.5q-57 0 -101.5 39t-91.5 109zM627 391q-43 0 -87.5 -35t-104.5 -102q43 -66 78.5 -100.5t79.5 -34.5q50 0 85.5 45t35.5 113q0 55 -24 84.5t-63 29.5z" />
    <glyph glyph-name="integral" unicode="&#x222b;" horiz-adv-x="347" 
d="M-49 -210l10 58h31q42 0 62 18.5t26 55.5l121 681q20 117 164 117h31l-10 -58h-31q-42 0 -62 -18.5t-26 -55.5l-121 -681q-20 -117 -164 -117h-31z" />
    <glyph glyph-name="congruent" unicode="&#x2245;" horiz-adv-x="572" 
d="M530 253l-10 -56h-488l10 56h488zM494 49l-10 -56h-488l10 56h488zM194 425q-59 0 -113 -46l-20 53q58 50 135 50q41 0 125 -25t118 -25q59 0 113 46l20 -53q-58 -50 -135 -50q-41 0 -125 25t-118 25z" />
    <glyph glyph-name="approxequal" unicode="&#x2248;" horiz-adv-x="572" 
d="M179 345q-59 0 -113 -46l-20 53q58 50 135 50q41 0 125 -25t118 -25q59 0 113 46l20 -53q-58 -50 -135 -50q-41 0 -125 25t-118 25zM146 157q-59 0 -113 -46l-20 53q58 50 135 50q41 0 125 -25t118 -25q59 0 113 46l20 -53q-58 -50 -135 -50q-41 0 -125 25t-118 25z" />
    <glyph glyph-name="notequal" unicode="&#x2260;" horiz-adv-x="572" 
d="M517 181l-10 -56h-285l-108 -142l-44 35l81 107h-132l10 56h165l113 148h-252l10 56h285l108 142l44 -35l-81 -107h132l-10 -56h-165l-113 -148h252z" />
    <glyph glyph-name="lessequal" unicode="&#x2264;" horiz-adv-x="572" 
d="M45 276l10 57l519 177l-11 -62l-440 -146l388 -147l-10 -55zM493 49l-10 -56h-488l10 56h488z" />
    <glyph glyph-name="greaterequal" unicode="&#x2265;" horiz-adv-x="572" 
d="M-5 -7l10 56h488l-10 -56h-488zM543 334l-10 -57l-519 -177l11 62l440 146l-388 147l10 55z" />
    <glyph glyph-name="circleplus" unicode="&#x2295;" 
d="M184 360q0 -140 94.5 -233.5t232.5 -93.5t232.5 93.5t94.5 233.5t-94.5 233.5t-232.5 93.5t-232.5 -93.5t-94.5 -233.5zM883 360q0 -159 -107.5 -265.5t-264.5 -106.5t-264.5 106.5t-107.5 265.5t107.5 265.5t264.5 106.5t264.5 -106.5t107.5 -265.5zM540 113h-58v218
h-209v58h209v218h58v-218h209v-58h-209v-218z" />
    <glyph glyph-name="uni2296" unicode="&#x2296;" 
d="M184 360q0 -140 94.5 -233.5t232.5 -93.5t232.5 93.5t94.5 233.5t-94.5 233.5t-232.5 93.5t-232.5 -93.5t-94.5 -233.5zM883 360q0 -159 -107.5 -265.5t-264.5 -106.5t-264.5 106.5t-107.5 265.5t107.5 265.5t264.5 106.5t264.5 -106.5t107.5 -265.5zM749 331h-476v58
h476v-58z" />
    <glyph glyph-name="circlemultiply" unicode="&#x2297;" 
d="M184 360q0 -140 94.5 -233.5t232.5 -93.5t232.5 93.5t94.5 233.5t-94.5 233.5t-232.5 93.5t-232.5 -93.5t-94.5 -233.5zM883 360q0 -159 -107.5 -265.5t-264.5 -106.5t-264.5 106.5t-107.5 265.5t107.5 265.5t264.5 106.5t264.5 -106.5t107.5 -265.5zM305 526l39 41
l167 -167l167 167l39 -41l-166 -166l166 -166l-39 -41l-167 167l-167 -167l-39 41l166 166z" />
    <glyph glyph-name="uni2298" unicode="&#x2298;" 
d="M184 360q0 -140 94.5 -233.5t232.5 -93.5t232.5 93.5t94.5 233.5t-94.5 233.5t-232.5 93.5t-232.5 -93.5t-94.5 -233.5zM883 360q0 -159 -107.5 -265.5t-264.5 -106.5t-264.5 106.5t-107.5 265.5t107.5 265.5t264.5 106.5t264.5 -106.5t107.5 -265.5zM305 194l373 373
l39 -41l-373 -373z" />
    <glyph glyph-name="uni229C" unicode="&#x229c;" 
d="M184 360q0 -140 94.5 -233.5t232.5 -93.5t232.5 93.5t94.5 233.5t-94.5 233.5t-232.5 93.5t-232.5 -93.5t-94.5 -233.5zM883 360q0 -159 -107.5 -265.5t-264.5 -106.5t-264.5 106.5t-107.5 265.5t107.5 265.5t264.5 106.5t264.5 -106.5t107.5 -265.5zM749 486v-54h-476
v54h476zM749 288v-54h-476v54h476z" />
    <glyph glyph-name="dotmath" unicode="&#x22c5;" horiz-adv-x="572" 
d="M335 257q0 -21 -14 -35.5t-36 -14.5t-36 14.5t-14 35.5t14 35.5t36 14.5t36 -14.5t14 -35.5z" />
    <glyph glyph-name="uni2460" unicode="&#x2460;" 
d="M440 451l-11 47l108 52h42l-78 -440h-52l67 378zM973 330q0 -201 -135 -334.5t-333 -133.5t-333 133.5t-135 334.5t135 334.5t333 133.5t333 -133.5t135 -334.5zM928 330q0 181 -122 302t-301 121t-301 -121t-122 -302t122 -302t301 -121t301 121t122 302z" />
    <glyph glyph-name="uni2461" unicode="&#x2461;" 
d="M609 441q0 32 -18 51t-54 19q-68 0 -126 -67l-10 48q56 66 141 66q57 0 88.5 -31t31.5 -83q0 -60 -51.5 -122t-186.5 -164h198l-8 -48h-280l6 42q154 114 211.5 175.5t57.5 113.5zM973 330q0 -201 -135 -334.5t-333 -133.5t-333 133.5t-135 334.5t135 334.5t333 133.5
t333 -133.5t135 -334.5zM928 330q0 181 -122 302t-301 121t-301 -121t-122 -302t122 -302t301 -121t301 121t122 302z" />
    <glyph glyph-name="uni2462" unicode="&#x2462;" 
d="M544 558q54 0 89 -26.5t35 -76.5q0 -88 -110 -121q81 -23 81 -100q0 -60 -47.5 -96t-122.5 -36t-132 36l24 43q50 -32 110 -32q52 0 84 23t32 64q0 74 -111 74q-8 0 -42 -2l8 46q81 0 127.5 25t46.5 70q0 30 -21 46t-57 16q-56 0 -110 -39l-6 47q55 39 122 39zM973 330
q0 -201 -135 -334.5t-333 -133.5t-333 133.5t-135 334.5t135 334.5t333 133.5t333 -133.5t135 -334.5zM928 330q0 181 -122 302t-301 121t-301 -121t-122 -302t122 -302t301 -121t301 121t122 302z" />
    <glyph glyph-name="uni2463" unicode="&#x2463;" 
d="M293 202l8 45l248 303h70l-55 -302h67l-7 -46h-67l-16 -92h-51l16 92h-213zM356 248h158l44 247zM973 330q0 -201 -135 -334.5t-333 -133.5t-333 133.5t-135 334.5t135 334.5t333 133.5t333 -133.5t135 -334.5zM928 330q0 181 -122 302t-301 121t-301 -121t-122 -302
t122 -302t301 -121t301 121t122 302z" />
    <glyph glyph-name="uni2464" unicode="&#x2464;" 
d="M590 253q0 87 -106 87q-47 0 -99 -16l47 226h242l-8 -47h-193l-27 -123q25 5 50 5q67 0 106.5 -33.5t39.5 -97.5q0 -70 -49 -111t-126 -41q-72 0 -132 35l25 44q50 -33 107 -33t90 27.5t33 77.5zM973 330q0 -201 -135 -334.5t-333 -133.5t-333 133.5t-135 334.5
t135 334.5t333 133.5t333 -133.5t135 -334.5zM928 330q0 181 -122 302t-301 121t-301 -121t-122 -302t122 -302t301 -121t301 121t122 302z" />
    <glyph glyph-name="uni2465" unicode="&#x2465;" 
d="M556 558q64 0 110 -31l-25 -43q-40 27 -86 27q-64 0 -104.5 -45t-50.5 -121q51 52 117 52q56 0 91 -36t35 -98q0 -71 -44.5 -116t-107.5 -45q-65 0 -105 51t-40 144q0 113 58 187t152 74zM506 352q-49 0 -109 -54q0 -75 26 -112.5t70 -37.5q43 0 70.5 30.5t27.5 79.5
q0 43 -23 68.5t-62 25.5zM973 330q0 -201 -135 -334.5t-333 -133.5t-333 133.5t-135 334.5t135 334.5t333 133.5t333 -133.5t135 -334.5zM928 330q0 181 -122 302t-301 121t-301 -121t-122 -302t122 -302t301 -121t301 121t122 302z" />
    <glyph glyph-name="uni2466" unicode="&#x2466;" 
d="M409 502l8 48h279l-8 -45q-107 -157 -241 -395h-60q129 232 238 392h-216zM973 330q0 -201 -135 -334.5t-333 -133.5t-333 133.5t-135 334.5t135 334.5t333 133.5t333 -133.5t135 -334.5zM928 330q0 181 -122 302t-301 121t-301 -121t-122 -302t122 -302t301 -121
t301 121t122 302z" />
    <glyph glyph-name="uni2467" unicode="&#x2467;" 
d="M485 102q-67 0 -108 30.5t-41 83.5q0 50 35 78t96 49q-71 40 -71 98q0 52 42 84.5t104 32.5q58 0 93 -28.5t35 -75.5q0 -42 -28 -67.5t-79 -44.5q42 -22 65 -46.5t23 -65.5q0 -59 -47 -93.5t-119 -34.5zM447 446q0 -27 18.5 -44t55.5 -37q49 18 73.5 37t24.5 51
q0 29 -22 45.5t-59 16.5q-40 0 -65.5 -19t-25.5 -50zM487 146q49 0 80.5 21.5t31.5 58.5q0 18 -7 32t-21.5 25.5t-27.5 19t-35 17.5q-29 -11 -45.5 -18.5t-36.5 -19.5t-29 -28t-9 -36q0 -35 26.5 -53.5t72.5 -18.5zM973 330q0 -201 -135 -334.5t-333 -133.5t-333 133.5
t-135 334.5t135 334.5t333 133.5t333 -133.5t135 -334.5zM928 330q0 181 -122 302t-301 121t-301 -121t-122 -302t122 -302t301 -121t301 121t122 302z" />
    <glyph glyph-name="uni2468" unicode="&#x2468;" 
d="M462 102q-64 0 -111 32l26 41q40 -26 86 -26q64 0 104.5 45t49.5 121q-49 -52 -117 -52q-56 0 -90.5 36t-34.5 98q0 72 44 116.5t107 44.5q66 0 106 -51t40 -143q0 -113 -58.5 -187.5t-151.5 -74.5zM511 308q54 0 109 54q0 76 -26 113t-70 37q-42 0 -70 -31t-28 -80
q0 -43 23 -68t62 -25zM973 330q0 -201 -135 -334.5t-333 -133.5t-333 133.5t-135 334.5t135 334.5t333 133.5t333 -133.5t135 -334.5zM928 330q0 181 -122 302t-301 121t-301 -121t-122 -302t122 -302t301 -121t301 121t122 302z" />
    <glyph glyph-name="uni2469" unicode="&#x2469;" 
d="M280 451l-11 47l108 52h42l-78 -440h-52l67 378zM594 150q63 0 99.5 64t36.5 155q0 142 -92 142q-63 0 -99.5 -64.5t-36.5 -154.5q0 -142 92 -142zM592 102q-65 0 -103.5 49.5t-38.5 141.5q0 109 52.5 187t137.5 78q65 0 103.5 -49t38.5 -141q0 -109 -52.5 -187.5
t-137.5 -78.5zM973 330q0 -201 -135 -334.5t-333 -133.5t-333 133.5t-135 334.5t135 334.5t333 133.5t333 -133.5t135 -334.5zM928 330q0 181 -122 302t-301 121t-301 -121t-122 -302t122 -302t301 -121t301 121t122 302z" />
    <glyph glyph-name="uni246A" unicode="&#x246a;" 
d="M563 451l-11 47l108 52h42l-78 -440h-52l67 378zM328 451l-11 47l108 52h42l-78 -440h-52l67 378zM973 330q0 -201 -135 -334.5t-333 -133.5t-333 133.5t-135 334.5t135 334.5t333 133.5t333 -133.5t135 -334.5zM928 330q0 181 -122 302t-301 121t-301 -121t-122 -302
t122 -302t301 -121t301 121t122 302z" />
    <glyph glyph-name="uni246B" unicode="&#x246b;" 
d="M281 451l-11 47l108 52h42l-78 -440h-52l67 378zM712 441q0 32 -18 51t-54 19q-68 0 -126 -67l-10 48q56 66 141 66q57 0 88.5 -31t31.5 -83q0 -60 -51.5 -122t-186.5 -164h198l-8 -48h-280l6 42q154 114 211.5 175.5t57.5 113.5zM973 330q0 -201 -135 -334.5
t-333 -133.5t-333 133.5t-135 334.5t135 334.5t333 133.5t333 -133.5t135 -334.5zM928 330q0 181 -122 302t-301 121t-301 -121t-122 -302t122 -302t301 -121t301 121t122 302z" />
    <glyph glyph-name="uni246C" unicode="&#x246c;" 
d="M281 451l-11 47l108 52h42l-78 -440h-52l67 378zM636 558q54 0 89 -26.5t35 -76.5q0 -88 -110 -121q81 -23 81 -100q0 -60 -47.5 -96t-122.5 -36t-132 36l24 43q50 -32 110 -32q52 0 84 23t32 64q0 74 -111 74q-8 0 -42 -2l8 46q81 0 127.5 25t46.5 70q0 30 -21 46
t-57 16q-56 0 -110 -39l-6 47q55 39 122 39zM973 330q0 -201 -135 -334.5t-333 -133.5t-333 133.5t-135 334.5t135 334.5t333 133.5t333 -133.5t135 -334.5zM928 330q0 181 -122 302t-301 121t-301 -121t-122 -302t122 -302t301 -121t301 121t122 302z" />
    <glyph glyph-name="uni246D" unicode="&#x246d;" 
d="M281 451l-11 47l108 52h42l-78 -440h-52l67 378zM422 202l8 45l248 303h70l-55 -302h67l-7 -46h-67l-16 -92h-51l16 92h-213zM485 248h158l44 247zM973 330q0 -201 -135 -334.5t-333 -133.5t-333 133.5t-135 334.5t135 334.5t333 133.5t333 -133.5t135 -334.5zM928 330
q0 181 -122 302t-301 121t-301 -121t-122 -302t122 -302t301 -121t301 121t122 302z" />
    <glyph glyph-name="uni246E" unicode="&#x246e;" 
d="M281 451l-11 47l108 52h42l-78 -440h-52l67 378zM688 253q0 87 -106 87q-47 0 -99 -16l47 226h242l-8 -47h-193l-27 -123q25 5 50 5q67 0 106.5 -33.5t39.5 -97.5q0 -70 -49 -111t-126 -41q-72 0 -132 35l25 44q50 -33 107 -33t90 27.5t33 77.5zM973 330
q0 -201 -135 -334.5t-333 -133.5t-333 133.5t-135 334.5t135 334.5t333 133.5t333 -133.5t135 -334.5zM928 330q0 181 -122 302t-301 121t-301 -121t-122 -302t122 -302t301 -121t301 121t122 302z" />
    <glyph glyph-name="uni246F" unicode="&#x246f;" 
d="M281 451l-11 47l108 52h42l-78 -440h-52l67 378zM666 558q63 0 110 -31l-25 -43q-40 27 -86 27q-64 0 -104.5 -45t-50.5 -121q51 52 117 52q56 0 91 -36t35 -98q0 -71 -44.5 -116t-107.5 -45q-65 0 -105 51t-40 144q0 113 58 187t152 74zM616 352q-49 0 -109 -54
q0 -75 26 -112.5t70 -37.5q43 0 70.5 30.5t27.5 79.5q0 43 -23 68.5t-62 25.5zM973 330q0 -201 -135 -334.5t-333 -133.5t-333 133.5t-135 334.5t135 334.5t333 133.5t333 -133.5t135 -334.5zM928 330q0 181 -122 302t-301 121t-301 -121t-122 -302t122 -302t301 -121
t301 121t122 302z" />
    <glyph glyph-name="uni2470" unicode="&#x2470;" 
d="M300 451l-11 47l108 52h42l-78 -440h-52l67 378zM508 502l8 48h279l-8 -45q-107 -157 -241 -395h-60q129 232 238 392h-216zM973 330q0 -201 -135 -334.5t-333 -133.5t-333 133.5t-135 334.5t135 334.5t333 133.5t333 -133.5t135 -334.5zM928 330q0 181 -122 302
t-301 121t-301 -121t-122 -302t122 -302t301 -121t301 121t122 302z" />
    <glyph glyph-name="uni2471" unicode="&#x2471;" 
d="M281 451l-11 47l108 52h42l-78 -440h-52l67 378zM585 102q-67 0 -108 30.5t-41 83.5q0 50 35 78t96 49q-71 40 -71 98q0 52 42 84.5t104 32.5q58 0 93 -28.5t35 -75.5q0 -42 -28 -67.5t-79 -44.5q42 -22 65 -46.5t23 -65.5q0 -59 -47 -93.5t-119 -34.5zM547 446
q0 -27 18.5 -44t55.5 -37q49 18 73.5 37t24.5 51q0 29 -22 45.5t-59 16.5q-40 0 -65.5 -19t-25.5 -50zM587 146q49 0 80.5 21.5t31.5 58.5q0 18 -7 32t-21.5 25.5t-27.5 19t-35 17.5q-29 -11 -45.5 -18.5t-36.5 -19.5t-29 -28t-9 -36q0 -35 26.5 -53.5t72.5 -18.5zM973 330
q0 -201 -135 -334.5t-333 -133.5t-333 133.5t-135 334.5t135 334.5t333 133.5t333 -133.5t135 -334.5zM928 330q0 181 -122 302t-301 121t-301 -121t-122 -302t122 -302t301 -121t301 121t122 302z" />
    <glyph glyph-name="uni2472" unicode="&#x2472;" 
d="M281 451l-11 47l108 52h42l-78 -440h-52l67 378zM570 102q-64 0 -111 32l26 41q40 -26 86 -26q64 0 104.5 45t49.5 121q-49 -52 -117 -52q-56 0 -90.5 36t-34.5 98q0 72 44 116.5t107 44.5q66 0 106 -51t40 -143q0 -113 -58.5 -187.5t-151.5 -74.5zM619 308q54 0 109 54
q0 76 -26 113t-70 37q-42 0 -70 -31t-28 -80q0 -43 23 -68t62 -25zM973 330q0 -201 -135 -334.5t-333 -133.5t-333 133.5t-135 334.5t135 334.5t333 133.5t333 -133.5t135 -334.5zM928 330q0 181 -122 302t-301 121t-301 -121t-122 -302t122 -302t301 -121t301 121t122 302z
" />
    <glyph glyph-name="uni2473" unicode="&#x2473;" 
d="M447 441q0 32 -18 51t-53 19q-66 0 -123 -67l-10 48q56 66 138 66q55 0 86 -31t31 -83q0 -60 -50 -122t-182 -164h193l-8 -48h-273l6 42q151 114 207 175.5t56 113.5zM661 150q62 0 97 64t35 155q0 142 -90 142q-61 0 -96.5 -64.5t-35.5 -154.5q0 -142 90 -142zM659 102
q-63 0 -101 49.5t-38 141.5q0 109 51 187t134 78q63 0 101 -49.5t38 -140.5q0 -109 -51 -187.5t-134 -78.5zM973 330q0 -201 -135 -334.5t-333 -133.5t-333 133.5t-135 334.5t135 334.5t333 133.5t333 -133.5t135 -334.5zM928 330q0 181 -122 302t-301 121t-301 -121
t-122 -302t122 -302t301 -121t301 121t122 302z" />
    <glyph glyph-name="uni24EA" unicode="&#x24ea;" 
d="M482 150q63 0 99.5 64t36.5 155q0 142 -92 142q-63 0 -99.5 -64.5t-36.5 -154.5q0 -142 92 -142zM480 102q-65 0 -103.5 49.5t-38.5 141.5q0 109 52.5 187t137.5 78q65 0 103.5 -49t38.5 -141q0 -109 -52.5 -187.5t-137.5 -78.5zM973 330q0 -201 -135 -334.5t-333 -133.5
t-333 133.5t-135 334.5t135 334.5t333 133.5t333 -133.5t135 -334.5zM928 330q0 181 -122 302t-301 121t-301 -121t-122 -302t122 -302t301 -121t301 121t122 302z" />
    <glyph glyph-name="uni24EB" unicode="&#x24eb;" 
d="M553 498l11 -47l76 37l-67 -378h52l78 440h-42zM315 498l11 -47l76 37l-67 -378h52l78 440h-42zM973 330q0 -201 -135 -334.5t-333 -133.5t-333 133.5t-135 334.5t135 334.5t333 133.5t333 -133.5t135 -334.5z" />
    <glyph glyph-name="uni24EC" unicode="&#x24ec;" 
d="M269 498l11 -47l76 37l-67 -378h52l78 440h-42zM713 441q0 -52 -57.5 -113.5t-211.5 -175.5l-6 -42h280l8 48h-198q135 102 186.5 164t51.5 122q0 52 -31.5 83t-88.5 31q-85 0 -141 -66l10 -48q58 67 126 67q36 0 54 -19t18 -51zM973 330q0 -201 -135 -334.5t-333 -133.5
t-333 133.5t-135 334.5t135 334.5t333 133.5t333 -133.5t135 -334.5z" />
    <glyph glyph-name="uni24ED" unicode="&#x24ed;" 
d="M269 498l11 -47l76 37l-67 -378h52l78 440h-42zM638 558q-67 0 -122 -39l6 -47q54 39 110 39q36 0 57 -16t21 -46q0 -45 -46.5 -70t-127.5 -25l-8 -46q34 2 42 2q111 0 111 -74q0 -41 -32 -64t-84 -23q-60 0 -110 32l-24 -43q57 -36 132 -36t122.5 36t47.5 96
q0 77 -81 100q110 33 110 121q0 50 -35 76.5t-89 26.5zM973 330q0 -201 -135 -334.5t-333 -133.5t-333 133.5t-135 334.5t135 334.5t333 133.5t333 -133.5t135 -334.5z" />
    <glyph glyph-name="uni24EE" unicode="&#x24ee;" 
d="M269 498l11 -47l76 37l-67 -378h52l78 440h-42zM431 247l-8 -45h213l-16 -92h51l16 92h67l7 46h-67l55 302h-70zM644 248h-158l202 247zM973 330q0 -201 -135 -334.5t-333 -133.5t-333 133.5t-135 334.5t135 334.5t333 133.5t333 -133.5t135 -334.5z" />
    <glyph glyph-name="uni24EF" unicode="&#x24ef;" 
d="M269 498l11 -47l76 37l-67 -378h52l78 440h-42zM690 253q0 -50 -33 -77.5t-90 -27.5t-107 33l-25 -44q60 -35 132 -35q77 0 126 41t49 111q0 64 -39.5 97.5t-106.5 33.5q-25 0 -50 -5l27 123h193l8 47h-242l-47 -226q52 16 99 16q106 0 106 -87zM973 330
q0 -201 -135 -334.5t-333 -133.5t-333 133.5t-135 334.5t135 334.5t333 133.5t333 -133.5t135 -334.5z" />
    <glyph glyph-name="uni24F0" unicode="&#x24f0;" 
d="M269 498l11 -47l76 37l-67 -378h52l78 440h-42zM667 558q-94 0 -152 -74t-58 -187q0 -93 40 -144t105 -51q63 0 107.5 45t44.5 116q0 62 -35 98t-91 36q-66 0 -117 -52q10 76 50.5 121t104.5 45q46 0 86 -27l25 43q-47 31 -110 31zM617 352q39 0 62 -25.5t23 -68.5
q0 -49 -27.5 -79.5t-70.5 -30.5q-44 0 -70 37.5t-26 112.5q60 54 109 54zM973 330q0 -201 -135 -334.5t-333 -133.5t-333 133.5t-135 334.5t135 334.5t333 133.5t333 -133.5t135 -334.5z" />
    <glyph glyph-name="uni24F1" unicode="&#x24f1;" 
d="M288 498l11 -47l76 37l-67 -378h52l78 440h-42zM518 550l-8 -48h216q-109 -160 -238 -392h60q134 238 241 395l8 45h-279zM973 330q0 -201 -135 -334.5t-333 -133.5t-333 133.5t-135 334.5t135 334.5t333 133.5t333 -133.5t135 -334.5z" />
    <glyph glyph-name="uni24F2" unicode="&#x24f2;" 
d="M269 498l11 -47l76 37l-67 -378h52l78 440h-42zM586 102q72 0 119 34.5t47 93.5q0 41 -23 65.5t-65 46.5q51 19 79 44.5t28 67.5q0 47 -35 75.5t-93 28.5q-62 0 -104 -32.5t-42 -84.5q0 -58 71 -98q-61 -21 -96 -49t-35 -78q0 -53 41 -83.5t108 -30.5zM548 446
q0 31 25.5 50t65.5 19q37 0 59 -16.5t22 -45.5q0 -32 -24.5 -51t-73.5 -37q-25 13 -38 22t-24.5 24.5t-11.5 34.5zM588 146q-46 0 -72.5 18.5t-26.5 53.5q0 20 9 36t29 28t36.5 19.5t45.5 18.5q22 -10 35 -17.5t27.5 -19t21.5 -25.5t7 -32q0 -37 -31.5 -58.5t-80.5 -21.5z
M973 330q0 -201 -135 -334.5t-333 -133.5t-333 133.5t-135 334.5t135 334.5t333 133.5t333 -133.5t135 -334.5z" />
    <glyph glyph-name="uni24F3" unicode="&#x24f3;" 
d="M269 498l11 -47l76 37l-67 -378h52l78 440h-42zM572 102q93 0 151.5 74.5t58.5 187.5q0 92 -40 143t-106 51q-63 0 -107 -44.5t-44 -116.5q0 -62 34.5 -98t90.5 -36q68 0 117 52q-9 -76 -49.5 -121t-104.5 -45q-46 0 -86 26l-26 -41q47 -32 111 -32zM621 308
q-39 0 -62 25t-23 68q0 49 28 80t70 31q44 0 70 -37t26 -113q-55 -54 -109 -54zM973 330q0 -201 -135 -334.5t-333 -133.5t-333 133.5t-135 334.5t135 334.5t333 133.5t333 -133.5t135 -334.5z" />
    <glyph glyph-name="uni24F4" unicode="&#x24f4;" 
d="M437 441q0 -52 -57.5 -113.5t-211.5 -175.5l-6 -42h280l8 48h-198q135 102 186.5 164t51.5 122q0 52 -31.5 83t-88.5 31q-85 0 -141 -66l10 -48q58 67 126 67q36 0 54 -19t18 -51zM660 150q-92 0 -92 142q0 90 36.5 154.5t99.5 64.5q92 0 92 -142q0 -91 -36.5 -155
t-99.5 -64zM658 102q85 0 137.5 78.5t52.5 187.5q0 92 -38.5 141t-103.5 49q-85 0 -137.5 -78t-52.5 -187q0 -92 38.5 -141.5t103.5 -49.5zM973 330q0 -201 -135 -334.5t-333 -133.5t-333 133.5t-135 334.5t135 334.5t333 133.5t333 -133.5t135 -334.5z" />
    <glyph glyph-name="filledbox" unicode="&#x25a0;" 
d="M160 0v720h720v-720h-720z" />
    <glyph glyph-name="uni25A1" unicode="&#x25a1;" 
d="M160 0v720h720v-720h-720zM218 660v-600h604v600h-604z" />
    <glyph glyph-name="triagup" unicode="&#x25b2;" horiz-adv-x="584" 
d="M302 542l255 -442h-510z" />
    <glyph glyph-name="triagrt" unicode="&#x25ba;" horiz-adv-x="584" 
d="M552 309l-442 -255v510z" />
    <glyph glyph-name="triagdn" unicode="&#x25bc;" horiz-adv-x="584" 
d="M557 518l-255 -442l-255 442h510z" />
    <glyph glyph-name="triaglf" unicode="&#x25c4;" horiz-adv-x="584" 
d="M494 54l-442 255l442 255v-510z" />
    <glyph glyph-name="uni25C6" unicode="&#x25c6;" 
d="M146 360l372 372l372 -372l-372 -372z" />
    <glyph glyph-name="uni25C7" unicode="&#x25c7;" 
d="M518 650l-290 -290l290 -290l290 290zM146 360l372 372l372 -372l-372 -372z" />
    <glyph glyph-name="lozenge" unicode="&#x25ca;" horiz-adv-x="584" 
d="M337 0h-54l-229 360l229 360h54l229 -360zM505 360l-195 302l-195 -302l195 -302z" />
    <glyph glyph-name="circle" unicode="&#x25cb;" 
d="M825 360q0 134 -90.5 223t-223.5 89t-223.5 -89t-90.5 -223t90.5 -223t223.5 -89t223.5 89t90.5 223zM883 360q0 -159 -107.5 -265.5t-264.5 -106.5t-264.5 106.5t-107.5 265.5t107.5 265.5t264.5 106.5t264.5 -106.5t107.5 -265.5z" />
    <glyph glyph-name="uni25CF" unicode="&#x25cf;" 
d="M883 360q0 -159 -107.5 -265.5t-264.5 -106.5t-264.5 106.5t-107.5 265.5t107.5 265.5t264.5 106.5t264.5 -106.5t107.5 -265.5z" />
    <glyph glyph-name="uni2605" unicode="&#x2605;" 
d="M423 459l91 282l91 -282h294l-239 -173l92 -279l-238 172l-238 -172l92 279l-239 173h294z" />
    <glyph glyph-name="uni272D" unicode="&#x272d;" 
d="M423 459l91 282l91 -282h294l-239 -173l92 -279l-238 172l-238 -172l92 279l-239 173h294zM514 590l-57 -177h-186l151 -110l-58 -176l150 109l150 -109l-58 176l151 110h-186z" />
    <glyph glyph-name="uni2756" unicode="&#x2756;" horiz-adv-x="978" 
d="M145 360l170 170l170 -170l-170 -170zM348 158l169 169l170 -169l-170 -170zM348 562l170 170l170 -170l-170 -169zM551 360l169 170l170 -170l-170 -170z" />
    <glyph glyph-name="uni2767" unicode="&#x2767;" horiz-adv-x="1278" 
d="M94 124l-66 16q11 28 20 48.5t35.5 56t58 58.5t86.5 40.5t123 17.5q73 0 135.5 -19.5t108.5 -50t87.5 -62t91.5 -60.5t102 -41v6q-43 17 -81.5 43.5t-68 54t-60 54.5t-71 49.5t-87.5 34.5q0 69 46 112t117 43q50 0 85.5 -23.5t55.5 -61t35 -82.5t30 -90.5t35 -83t56 -61
t86 -23.5q84 0 164 55l8 -75q-80 -49 -187 -49q-90 0 -147 35q-138 -78 -282 -78q-109 0 -163.5 44.5t-54.5 118.5q0 82 68 126q-56 18 -115 18t-105.5 -17t-75 -45.5t-44.5 -54t-26 -54.5z" />
    <glyph glyph-name="uni2780" unicode="&#x2780;" 
d="M440 451l-11 47l108 52h42l-78 -440h-52l67 378zM973 330q0 -201 -135 -334.5t-333 -133.5t-333 133.5t-135 334.5t135 334.5t333 133.5t333 -133.5t135 -334.5zM928 330q0 181 -122 302t-301 121t-301 -121t-122 -302t122 -302t301 -121t301 121t122 302z" />
    <glyph glyph-name="uni2781" unicode="&#x2781;" 
d="M609 441q0 32 -18 51t-54 19q-68 0 -126 -67l-10 48q56 66 141 66q57 0 88.5 -31t31.5 -83q0 -60 -51.5 -122t-186.5 -164h198l-8 -48h-280l6 42q154 114 211.5 175.5t57.5 113.5zM973 330q0 -201 -135 -334.5t-333 -133.5t-333 133.5t-135 334.5t135 334.5t333 133.5
t333 -133.5t135 -334.5zM928 330q0 181 -122 302t-301 121t-301 -121t-122 -302t122 -302t301 -121t301 121t122 302z" />
    <glyph glyph-name="uni2782" unicode="&#x2782;" 
d="M544 558q54 0 89 -26.5t35 -76.5q0 -88 -110 -121q81 -23 81 -100q0 -60 -47.5 -96t-122.5 -36t-132 36l24 43q50 -32 110 -32q52 0 84 23t32 64q0 74 -111 74q-8 0 -42 -2l8 46q81 0 127.5 25t46.5 70q0 30 -21 46t-57 16q-56 0 -110 -39l-6 47q55 39 122 39zM973 330
q0 -201 -135 -334.5t-333 -133.5t-333 133.5t-135 334.5t135 334.5t333 133.5t333 -133.5t135 -334.5zM928 330q0 181 -122 302t-301 121t-301 -121t-122 -302t122 -302t301 -121t301 121t122 302z" />
    <glyph glyph-name="uni2783" unicode="&#x2783;" 
d="M293 202l8 45l248 303h70l-55 -302h67l-7 -46h-67l-16 -92h-51l16 92h-213zM356 248h158l44 247zM973 330q0 -201 -135 -334.5t-333 -133.5t-333 133.5t-135 334.5t135 334.5t333 133.5t333 -133.5t135 -334.5zM928 330q0 181 -122 302t-301 121t-301 -121t-122 -302
t122 -302t301 -121t301 121t122 302z" />
    <glyph glyph-name="uni2784" unicode="&#x2784;" 
d="M590 253q0 87 -106 87q-47 0 -99 -16l47 226h242l-8 -47h-193l-27 -123q25 5 50 5q67 0 106.5 -33.5t39.5 -97.5q0 -70 -49 -111t-126 -41q-72 0 -132 35l25 44q50 -33 107 -33t90 27.5t33 77.5zM973 330q0 -201 -135 -334.5t-333 -133.5t-333 133.5t-135 334.5
t135 334.5t333 133.5t333 -133.5t135 -334.5zM928 330q0 181 -122 302t-301 121t-301 -121t-122 -302t122 -302t301 -121t301 121t122 302z" />
    <glyph glyph-name="uni2785" unicode="&#x2785;" 
d="M556 558q64 0 110 -31l-25 -43q-40 27 -86 27q-64 0 -104.5 -45t-50.5 -121q51 52 117 52q56 0 91 -36t35 -98q0 -71 -44.5 -116t-107.5 -45q-65 0 -105 51t-40 144q0 113 58 187t152 74zM506 352q-49 0 -109 -54q0 -75 26 -112.5t70 -37.5q43 0 70.5 30.5t27.5 79.5
q0 43 -23 68.5t-62 25.5zM973 330q0 -201 -135 -334.5t-333 -133.5t-333 133.5t-135 334.5t135 334.5t333 133.5t333 -133.5t135 -334.5zM928 330q0 181 -122 302t-301 121t-301 -121t-122 -302t122 -302t301 -121t301 121t122 302z" />
    <glyph glyph-name="uni2786" unicode="&#x2786;" 
d="M409 502l8 48h279l-8 -45q-107 -157 -241 -395h-60q129 232 238 392h-216zM973 330q0 -201 -135 -334.5t-333 -133.5t-333 133.5t-135 334.5t135 334.5t333 133.5t333 -133.5t135 -334.5zM928 330q0 181 -122 302t-301 121t-301 -121t-122 -302t122 -302t301 -121
t301 121t122 302z" />
    <glyph glyph-name="uni2787" unicode="&#x2787;" 
d="M485 102q-67 0 -108 30.5t-41 83.5q0 50 35 78t96 49q-71 40 -71 98q0 52 42 84.5t104 32.5q58 0 93 -28.5t35 -75.5q0 -42 -28 -67.5t-79 -44.5q42 -22 65 -46.5t23 -65.5q0 -59 -47 -93.5t-119 -34.5zM447 446q0 -27 18.5 -44t55.5 -37q49 18 73.5 37t24.5 51
q0 29 -22 45.5t-59 16.5q-40 0 -65.5 -19t-25.5 -50zM487 146q49 0 80.5 21.5t31.5 58.5q0 18 -7 32t-21.5 25.5t-27.5 19t-35 17.5q-29 -11 -45.5 -18.5t-36.5 -19.5t-29 -28t-9 -36q0 -35 26.5 -53.5t72.5 -18.5zM973 330q0 -201 -135 -334.5t-333 -133.5t-333 133.5
t-135 334.5t135 334.5t333 133.5t333 -133.5t135 -334.5zM928 330q0 181 -122 302t-301 121t-301 -121t-122 -302t122 -302t301 -121t301 121t122 302z" />
    <glyph glyph-name="uni2788" unicode="&#x2788;" 
d="M462 102q-64 0 -111 32l26 41q40 -26 86 -26q64 0 104.5 45t49.5 121q-49 -52 -117 -52q-56 0 -90.5 36t-34.5 98q0 72 44 116.5t107 44.5q66 0 106 -51t40 -143q0 -113 -58.5 -187.5t-151.5 -74.5zM511 308q54 0 109 54q0 76 -26 113t-70 37q-42 0 -70 -31t-28 -80
q0 -43 23 -68t62 -25zM973 330q0 -201 -135 -334.5t-333 -133.5t-333 133.5t-135 334.5t135 334.5t333 133.5t333 -133.5t135 -334.5zM928 330q0 181 -122 302t-301 121t-301 -121t-122 -302t122 -302t301 -121t301 121t122 302z" />
    <glyph glyph-name="uni2789" unicode="&#x2789;" 
d="M280 451l-11 47l108 52h42l-78 -440h-52l67 378zM594 150q63 0 99.5 64t36.5 155q0 142 -92 142q-63 0 -99.5 -64.5t-36.5 -154.5q0 -142 92 -142zM592 102q-65 0 -103.5 49.5t-38.5 141.5q0 109 52.5 187t137.5 78q65 0 103.5 -49t38.5 -141q0 -109 -52.5 -187.5
t-137.5 -78.5zM973 330q0 -201 -135 -334.5t-333 -133.5t-333 133.5t-135 334.5t135 334.5t333 133.5t333 -133.5t135 -334.5zM928 330q0 181 -122 302t-301 121t-301 -121t-122 -302t122 -302t301 -121t301 121t122 302z" />
    <glyph glyph-name="uni278A" unicode="&#x278a;" 
d="M429 498l11 -47l76 37l-67 -378h52l78 440h-42zM973 330q0 -201 -135 -334.5t-333 -133.5t-333 133.5t-135 334.5t135 334.5t333 133.5t333 -133.5t135 -334.5z" />
    <glyph glyph-name="uni278B" unicode="&#x278b;" 
d="M609 441q0 -52 -57.5 -113.5t-211.5 -175.5l-6 -42h280l8 48h-198q135 102 186.5 164t51.5 122q0 52 -31.5 83t-88.5 31q-85 0 -141 -66l10 -48q58 67 126 67q36 0 54 -19t18 -51zM973 330q0 -201 -135 -334.5t-333 -133.5t-333 133.5t-135 334.5t135 334.5t333 133.5
t333 -133.5t135 -334.5z" />
    <glyph glyph-name="uni278C" unicode="&#x278c;" 
d="M544 558q-67 0 -122 -39l6 -47q54 39 110 39q36 0 57 -16t21 -46q0 -45 -46.5 -70t-127.5 -25l-8 -46q34 2 42 2q111 0 111 -74q0 -41 -32 -64t-84 -23q-60 0 -110 32l-24 -43q57 -36 132 -36t122.5 36t47.5 96q0 77 -81 100q110 33 110 121q0 50 -35 76.5t-89 26.5z
M973 330q0 -201 -135 -334.5t-333 -133.5t-333 133.5t-135 334.5t135 334.5t333 133.5t333 -133.5t135 -334.5z" />
    <glyph glyph-name="uni278D" unicode="&#x278d;" 
d="M301 247l-8 -45h213l-16 -92h51l16 92h67l7 46h-67l55 302h-70zM514 248h-158l202 247zM973 330q0 -201 -135 -334.5t-333 -133.5t-333 133.5t-135 334.5t135 334.5t333 133.5t333 -133.5t135 -334.5z" />
    <glyph glyph-name="uni278E" unicode="&#x278e;" 
d="M590 253q0 -50 -33 -77.5t-90 -27.5t-107 33l-25 -44q60 -35 132 -35q77 0 126 41t49 111q0 64 -39.5 97.5t-106.5 33.5q-25 0 -50 -5l27 123h193l8 47h-242l-47 -226q52 16 99 16q106 0 106 -87zM973 330q0 -201 -135 -334.5t-333 -133.5t-333 133.5t-135 334.5
t135 334.5t333 133.5t333 -133.5t135 -334.5z" />
    <glyph glyph-name="uni278F" unicode="&#x278f;" 
d="M556 558q-94 0 -152 -74t-58 -187q0 -93 40 -144t105 -51q63 0 107.5 45t44.5 116q0 62 -35 98t-91 36q-66 0 -117 -52q10 76 50.5 121t104.5 45q46 0 86 -27l25 43q-46 31 -110 31zM506 352q39 0 62 -25.5t23 -68.5q0 -49 -27.5 -79.5t-70.5 -30.5q-44 0 -70 37.5
t-26 112.5q60 54 109 54zM973 330q0 -201 -135 -334.5t-333 -133.5t-333 133.5t-135 334.5t135 334.5t333 133.5t333 -133.5t135 -334.5z" />
    <glyph glyph-name="uni2790" unicode="&#x2790;" 
d="M417 550l-8 -48h216q-109 -160 -238 -392h60q134 238 241 395l8 45h-279zM973 330q0 -201 -135 -334.5t-333 -133.5t-333 133.5t-135 334.5t135 334.5t333 133.5t333 -133.5t135 -334.5z" />
    <glyph glyph-name="uni2791" unicode="&#x2791;" 
d="M485 102q72 0 119 34.5t47 93.5q0 41 -23 65.5t-65 46.5q51 19 79 44.5t28 67.5q0 47 -35 75.5t-93 28.5q-62 0 -104 -32.5t-42 -84.5q0 -58 71 -98q-61 -21 -96 -49t-35 -78q0 -53 41 -83.5t108 -30.5zM447 446q0 31 25.5 50t65.5 19q37 0 59 -16.5t22 -45.5
q0 -32 -24.5 -51t-73.5 -37q-25 13 -38 22t-24.5 24.5t-11.5 34.5zM487 146q-46 0 -72.5 18.5t-26.5 53.5q0 20 9 36t29 28t36.5 19.5t45.5 18.5q22 -10 35 -17.5t27.5 -19t21.5 -25.5t7 -32q0 -37 -31.5 -58.5t-80.5 -21.5zM973 330q0 -201 -135 -334.5t-333 -133.5
t-333 133.5t-135 334.5t135 334.5t333 133.5t333 -133.5t135 -334.5z" />
    <glyph glyph-name="uni2792" unicode="&#x2792;" 
d="M462 102q93 0 151.5 74.5t58.5 187.5q0 92 -40 143t-106 51q-63 0 -107 -44.5t-44 -116.5q0 -62 34.5 -98t90.5 -36q68 0 117 52q-9 -76 -49.5 -121t-104.5 -45q-46 0 -86 26l-26 -41q47 -32 111 -32zM511 308q-39 0 -62 25t-23 68q0 49 28 80t70 31q44 0 70 -37t26 -113
q-55 -54 -109 -54zM973 330q0 -201 -135 -334.5t-333 -133.5t-333 133.5t-135 334.5t135 334.5t333 133.5t333 -133.5t135 -334.5z" />
    <glyph glyph-name="uni2793" unicode="&#x2793;" 
d="M268 498l11 -47l76 37l-67 -378h52l78 440h-42zM596 150q-92 0 -92 142q0 90 36.5 154.5t99.5 64.5q92 0 92 -142q0 -91 -36.5 -155t-99.5 -64zM594 102q85 0 137.5 78.5t52.5 187.5q0 92 -38.5 141t-103.5 49q-85 0 -137.5 -78t-52.5 -187q0 -92 38.5 -141.5
t103.5 -49.5zM973 330q0 -201 -135 -334.5t-333 -133.5t-333 133.5t-135 334.5t135 334.5t333 133.5t333 -133.5t135 -334.5z" />
    <glyph glyph-name="uni2B24" unicode="&#x2b24;" 
d="M973 330q0 -201 -135 -334.5t-333 -133.5t-333 133.5t-135 334.5t135 334.5t333 133.5t333 -133.5t135 -334.5z" />
    <glyph glyph-name="uniFB00" unicode="&#xfb00;" horiz-adv-x="636" 
d="M60 451l11 59h104l15 86q12 66 43 98t103 32q32 0 67 -7l-10 -58q-27 6 -48 6q-42 0 -61.5 -21t-27.5 -67l-12 -69h231l15 86q12 66 43 98t103 32q32 0 67 -7l-10 -58q-27 6 -48 6q-42 0 -61.5 -21t-27.5 -67l-12 -69h123l-11 -59h-123l-79 -451h-69l79 451h-231
l-79 -451h-69l79 451h-104z" />
    <glyph glyph-name="fi" unicode="&#xfb01;" horiz-adv-x="562" 
d="M362 0l90 510h69l-90 -510h-69zM557 652q0 -20 -13 -33t-33 -13t-33 13t-13 33t13 33t33 13t33 -13t13 -33zM60 451l11 59h104l15 86q12 66 43 98t103 32q32 0 67 -7l-10 -58q-27 6 -48 6q-42 0 -61.5 -21t-27.5 -67l-12 -69h123l-11 -59h-123l-79 -451h-69l79 451h-104z
" />
    <glyph glyph-name="fl" unicode="&#xfb02;" horiz-adv-x="562" 
d="M362 0l127 720h69l-127 -720h-69zM60 451l11 59h104l15 86q12 66 43 98t103 32q32 0 67 -7l-10 -58q-27 6 -48 6q-42 0 -61.5 -21t-27.5 -67l-12 -69h123l-11 -59h-123l-79 -451h-69l79 451h-104z" />
    <glyph glyph-name="uniFB03" unicode="&#xfb03;" horiz-adv-x="862" 
d="M662 0l90 510h69l-90 -510h-69zM857 652q0 -20 -13 -33t-33 -13t-33 13t-13 33t13 33t33 13t33 -13t13 -33zM60 451l11 59h104l15 86q12 66 43 98t103 32q32 0 67 -7l-10 -58q-27 6 -48 6q-42 0 -61.5 -21t-27.5 -67l-12 -69h231l15 86q12 66 43 98t103 32q32 0 67 -7
l-10 -58q-27 6 -48 6q-42 0 -61.5 -21t-27.5 -67l-12 -69h123l-11 -59h-123l-79 -451h-69l79 451h-231l-79 -451h-69l79 451h-104z" />
    <glyph glyph-name="uniFB04" unicode="&#xfb04;" horiz-adv-x="862" 
d="M662 0l127 720h69l-127 -720h-69zM60 451l11 59h104l15 86q12 66 43 98t103 32q32 0 67 -7l-10 -58q-27 6 -48 6q-42 0 -61.5 -21t-27.5 -67l-12 -69h231l15 86q12 66 43 98t103 32q32 0 67 -7l-10 -58q-27 6 -48 6q-42 0 -61.5 -21t-27.5 -67l-12 -69h123l-11 -59h-123
l-79 -451h-69l79 451h-231l-79 -451h-69l79 451h-104z" />
    <glyph glyph-name="uniFEFF" unicode="&#xfeff;" horiz-adv-x="0" 
 />
    <glyph glyph-name="u1F415" unicode="&#x1f415;" 
d="M643 298q0 44 31 75t75 31q11 0 23 -3q10 19 23 41h100q27 0 52 42l-123 85l16 82l-82 -55l-82 57l16 -80q-49 -75 -113 -139h-37q-9 -52 -49.5 -86t-94.5 -34t-95 35t-49 88q-49 9 -79.5 40t-36.5 71q-12 -20 -12 -52q0 -88 87 -138q-45 -198 -45 -229q0 -23 36 -71
t67 -48q22 0 42 13q-57 78 -57 106q0 18 14.5 36t30.5 30t54 38h287v-104q0 -23 36 -71t67 -48q22 0 42 13q-57 78 -57 106v64q-38 7 -62.5 36.5t-24.5 68.5zM772 539q0 5 4.5 9.5t10.5 4.5q5 0 9.5 -4.5t4.5 -9.5q0 -6 -4.5 -10.5t-9.5 -4.5q-6 0 -10.5 4.5t-4.5 10.5z
M294 454h277q51 51 99 123l-18 93q0 13 9 13q5 0 9 -3l88 -60l88 60q4 3 9 3q9 0 9 -13l-18 -93l127 -87q-13 -25 -20 -36t-22.5 -21.5t-35.5 -10.5h-89q-56 -96 -56 -133v-160q0 -26 65 -110q-35 -29 -70 -29q-37 0 -80 56.5t-43 82.5v84h-262q-33 -23 -46.5 -32.5
t-25.5 -24t-12 -27.5q0 -26 65 -110q-35 -29 -70 -29q-37 0 -80 56.5t-43 82.5q0 37 42 220q-84 50 -84 147q0 33 12.5 61t26.5 28q9 0 9 -9q0 -50 39 -86t101 -36z" />
    <glyph glyph-name="u1F4AC" unicode="&#x1f4ac;" 
d="M922 381q0 -100 -65 -175t-186 -104q16 -83 80 -147q-68 0 -149.5 35t-124.5 97q-169 11 -261 92.5t-92 201.5q0 128 104.5 211.5t294.5 83.5t294.5 -83.5t104.5 -211.5z" />
    <glyph glyph-name="uni0306.alt001" horiz-adv-x="1" 
d="M315 627q87 0 103 93h56q-24 -140 -160 -140q-63 0 -96 28.5t-33 79.5q0 14 3 32h56q-2 -9 -2 -26q0 -67 73 -67z" />
    <glyph glyph-name="dollar.subs" horiz-adv-x="355" 
d="M88 -168l11 62q-68 5 -120 40l23 44q53 -33 105 -37l29 165q-23 10 -37 17.5t-30 20.5t-23.5 31t-7.5 41q0 52 38.5 86.5t100.5 37.5l9 50h36l-9 -50q54 -6 101 -38l-24 -46q-44 30 -86 35l-25 -147q33 -14 51 -24t35 -34t17 -57q0 -56 -40 -92.5t-107 -41.5l-11 -63h-36
zM229 22q0 25 -15.5 40.5t-44.5 29.5l-26 -150q39 5 62.5 27t23.5 53zM90 222q0 -37 55 -64l23 133q-36 -4 -57 -23t-21 -46z" />
    <glyph glyph-name="comma.subs" horiz-adv-x="185" 
d="M-7 -76q0 15 9 24.5t25 9.5q19 0 31 -14t12 -37q0 -69 -98 -118l-21 32q68 31 80 68q-38 2 -38 35z" />
    <glyph glyph-name="hyphen.subs" horiz-adv-x="258" 
d="M8 65l8 44h174l-8 -44h-174z" />
    <glyph glyph-name="period.subs" horiz-adv-x="188" 
d="M71 -78q0 -15 -10 -25.5t-26 -10.5t-26 10.5t-10 25.5t10 25.5t26 10.5t26 -10.5t10 -25.5z" />
    <glyph glyph-name="n.subs" horiz-adv-x="361" 
d="M-12 -106l56 316h53l-9 -49q55 57 121 57q35 0 59 -18t24 -55q0 -11 -2 -25l-40 -226h-53l39 220q2 14 2 20q0 37 -45 37q-56 0 -113 -57l-39 -220h-53z" />
    <glyph glyph-name="cent.subs" horiz-adv-x="309" 
d="M21 -195l42 98q-70 30 -70 126q0 82 50.5 139t132.5 57q15 0 22 -1l33 77h33l-36 -84q22 -6 37 -16l-22 -42q-15 9 -33 16l-101 -239q5 -1 16 -1q46 0 85 28l7 -43q-38 -27 -96 -27q-20 0 -29 2l-38 -90h-33zM45 30q0 -64 36 -85l99 236h-7q-58 0 -93 -43.5t-35 -107.5z
" />
    <glyph glyph-name="sterling.subs" horiz-adv-x="300" 
d="M82 101h-91l7 40h95l32 112q14 49 40 72t78 23q27 0 44 -4l-8 -44q-23 4 -36 4q-30 0 -45 -15.5t-24 -45.5l-29 -102h107l-7 -40h-111l-19 -67q-18 -62 -60 -92q90 -12 95 -12q36 0 65 17l6 -45q-29 -16 -79 -16q-30 0 -71 7.5t-57 7.5q-34 0 -63 -17l-7 44
q55 18 81.5 42.5t41.5 78.5z" />
    <glyph glyph-name="yen.subs" horiz-adv-x="376" 
d="M24 58l7 40h98l-97 242h53l79 -202l151 202h59l-183 -242h98l-7 -40h-102l-9 -48h102l-7 -40h-102l-13 -76h-54l13 76h-102l7 40h102l9 48h-102z" />
    <glyph glyph-name="florin.subs" horiz-adv-x="288" 
d="M-9 101l7 40h95l32 112q14 49 40 72t78 23q27 0 44 -4l-8 -44q-23 4 -36 4q-30 0 -45 -15.5t-24 -45.5l-29 -102h107l-7 -40h-111l-58 -207h-52l58 207h-91z" />
    <glyph glyph-name="Euro.subs" horiz-adv-x="391" 
d="M-8 140l7 40h61q24 75 77 121.5t127 46.5q61 0 106 -34l-23 -45q-44 32 -86 32q-53 0 -91 -33t-57 -88h152l-7 -40h-156q-4 -24 -6 -48h153l-7 -40h-146q9 -121 99 -121q50 0 101 39l8 -46q-50 -38 -115 -38q-63 0 -102 43t-43 123h-68l7 40h61q2 24 6 48h-58z" />
    <glyph glyph-name="uni20B1.subs" horiz-adv-x="403" 
d="M-1 179l7 40h55l22 121h130q135 0 140 -121h40l-7 -40h-36q-11 -56 -55.5 -86t-117.5 -30h-90l-30 -169h-53l50 285h-55zM128 294l-14 -75h187q-4 75 -91 75h-82zM95 107h85q98 0 117 72h-190z" />
    <glyph glyph-name="uni20B4.subs" horiz-adv-x="356" 
d="M-10 140l7 40h231q33 23 33 59q0 29 -19.5 45.5t-54.5 16.5q-56 0 -112 -41l-6 47q58 41 123 41q56 0 89 -29t33 -80q0 -34 -17 -59h36l-7 -40h-75q-16 -9 -37.5 -17.5t-49 -17t-40.5 -13.5h193l-7 -40h-250q-20 -22 -20 -51q0 -33 24 -51.5t65 -18.5q65 0 123 42l7 -46
q-61 -41 -137 -41q-63 0 -99 29.5t-36 84.5q0 28 11 52h-24l7 40h50q22 18 109 48h-150z" />
    <glyph glyph-name="dollar.sups" horiz-adv-x="355" 
d="M173 318l11 62q-68 5 -120 40l23 44q53 -33 105 -37l29 165q-23 10 -37 17.5t-30 20.5t-23.5 31t-7.5 41q0 52 38.5 86.5t100.5 37.5l9 50h36l-9 -50q54 -6 101 -38l-24 -46q-44 30 -86 35l-25 -147q33 -14 51 -24t35 -34t17 -57q0 -56 -40 -92.5t-107 -41.5l-11 -63h-36
zM314 508q0 25 -15.5 40.5t-44.5 29.5l-26 -150q39 5 62.5 27t23.5 53zM175 708q0 -37 55 -64l23 133q-36 -4 -57 -23t-21 -46z" />
    <glyph glyph-name="comma.sups" horiz-adv-x="185" 
d="M79 410q0 15 9 24.5t25 9.5q19 0 31 -14t12 -37q0 -69 -98 -118l-21 32q68 31 80 68q-38 2 -38 35z" />
    <glyph glyph-name="hyphen.sups" horiz-adv-x="258" 
d="M94 551l8 44h174l-8 -44h-174z" />
    <glyph glyph-name="period.sups" horiz-adv-x="188" 
d="M156 408q0 -15 -10 -25.5t-26 -10.5t-26 10.5t-10 25.5t10 25.5t26 10.5t26 -10.5t10 -25.5z" />
    <glyph glyph-name="a.sups" horiz-adv-x="362" 
d="M284 380q-3 6 -3 16q0 4 2 22q-41 -46 -98 -46q-49 0 -78.5 34t-29.5 100q0 82 43.5 140t112.5 58q55 0 92 -44l7 36h52l-43 -242q-8 -47 -8 -59q0 -11 1 -15h-50zM199 417q47 0 91 48l27 153q-36 40 -78 40q-50 0 -79.5 -42.5t-29.5 -103.5q0 -95 69 -95z" />
    <glyph glyph-name="b.sups" horiz-adv-x="363" 
d="M152 826h53l-30 -169q41 47 100 47q49 0 79.5 -34t30.5 -101q0 -83 -44 -140t-114 -57q-54 0 -96 46l-7 -38h-51zM260 657q-49 0 -93 -48l-27 -153q37 -40 82 -40q51 0 80.5 42.5t29.5 104.5q0 94 -72 94z" />
    <glyph glyph-name="d.sups" horiz-adv-x="363" 
d="M235 704q55 0 95 -44l30 166h53l-66 -372q-8 -44 -8 -61q0 -9 1 -13h-50q-3 6 -3 17q0 3 2 21q-42 -46 -102 -46q-49 0 -79.5 34t-30.5 100q0 82 44.5 140t113.5 58zM202 416q49 0 94 48l27 153q-34 40 -82 40q-51 0 -81 -43t-30 -104q0 -94 72 -94z" />
    <glyph glyph-name="e.sups" horiz-adv-x="334" 
d="M255 704q53 0 80.5 -25.5t27.5 -60.5q0 -45 -45.5 -73.5t-139.5 -28.5q-19 0 -49 2v-5q0 -99 85 -99q51 0 102 31l6 -43q-55 -30 -115 -30q-62 0 -96 35.5t-34 101.5q0 83 50 139t128 56zM251 663q-43 0 -74.5 -30t-42.5 -77q28 -2 46 -2q133 0 133 61q0 20 -16 34
t-46 14z" />
    <glyph glyph-name="h.sups" horiz-adv-x="361" 
d="M73 380l79 446h53l-32 -179q55 57 121 57q34 0 58.5 -18t24.5 -55q0 -11 -2 -25l-40 -226h-53l39 220q2 14 2 20q0 37 -45 37q-56 0 -113 -57l-39 -220h-53z" />
    <glyph glyph-name="l.sups" horiz-adv-x="163" 
d="M77 380l79 446h53l-79 -446h-53z" />
    <glyph glyph-name="m.sups" horiz-adv-x="555" 
d="M327 380h-53l39 220q2 12 2 20q0 37 -42 37q-54 0 -108 -58l-39 -219h-53l56 316h53l-9 -49q55 57 116 57q71 0 78 -61q55 61 122 61q34 0 57.5 -18.5t23.5 -54.5q0 -11 -2 -25l-40 -226h-53l39 220q2 12 2 20q0 37 -43 37q-52 0 -107 -57z" />
    <glyph glyph-name="o.sups" horiz-adv-x="353" 
d="M210 415q49 0 80.5 43t31.5 103q0 48 -21.5 74t-58.5 26q-49 0 -80.5 -43t-31.5 -103q0 -48 21.5 -74t58.5 -26zM207 372q-57 0 -93 37.5t-36 104.5q0 79 48 134.5t119 55.5q57 0 93 -37.5t36 -104.5q0 -79 -48 -134.5t-119 -55.5z" />
    <glyph glyph-name="p.sups" horiz-adv-x="363" 
d="M129 696h53l-7 -39q41 47 100 47q49 0 79.5 -34.5t30.5 -101.5q0 -82 -44 -139t-114 -57q-54 0 -95 44l-29 -166h-53zM260 657q-49 0 -93 -48l-27 -153q37 -40 82 -40q51 0 80.5 42.5t29.5 104.5q0 94 -72 94z" />
    <glyph glyph-name="r.sups" horiz-adv-x="235" 
d="M164 595l-39 -215h-52l56 316h53l-9 -50q41 58 95 58q21 0 32 -3l-8 -49q-18 2 -28 2q-51 0 -100 -59z" />
    <glyph glyph-name="s.sups" horiz-adv-x="290" 
d="M323 675l-21 -42q-41 27 -77 27q-29 0 -48 -13t-19 -34q0 -17 14.5 -28t35 -19t40.5 -17t34.5 -28t14.5 -47q0 -46 -36 -74t-95 -28q-56 0 -108 29l21 41q51 -28 90 -28q35 0 56 15.5t21 39.5q0 18 -14.5 30.5t-35 20.5t-40.5 17t-34.5 27t-14.5 44q0 42 33.5 69t86.5 27
q51 0 96 -29z" />
    <glyph glyph-name="t.sups" horiz-adv-x="236" 
d="M87 652l8 44h59l19 106h53l-19 -106h80l-8 -44h-80l-32 -183q-3 -15 -3 -23q0 -16 7.5 -21.5t25.5 -5.5q21 0 42 7l-7 -45q-20 -6 -46 -6q-40 0 -57.5 14.5t-17.5 51.5q0 15 3 28l32 183h-59z" />
    <glyph glyph-name="u.sups" horiz-adv-x="361" 
d="M374 696l-56 -316h-53l9 49q-55 -57 -121 -57q-35 0 -59 18t-24 55q0 11 2 25l40 226h53l-39 -221q-2 -14 -2 -20q0 -37 45 -37q56 0 113 57l39 221h53z" />
    <glyph glyph-name="cent.sups" horiz-adv-x="309" 
d="M107 291l42 98q-70 30 -70 126q0 82 50.5 139t132.5 57q15 0 22 -1l33 77h33l-36 -84q22 -6 37 -16l-22 -42q-15 9 -33 16l-101 -239q5 -1 16 -1q46 0 85 28l7 -43q-37 -27 -96 -27q-20 0 -29 2l-38 -90h-33zM131 516q0 -64 36 -85l99 236h-7q-58 0 -93 -43.5t-35 -107.5
z" />
    <glyph glyph-name="sterling.sups" horiz-adv-x="300" 
d="M168 587h-91l7 40h95l32 112q14 49 40 72t78 23q27 0 44 -4l-8 -44q-23 4 -36 4q-30 0 -45 -15.5t-24 -45.5l-29 -102h107l-7 -40h-111l-19 -67q-18 -62 -60 -92q90 -12 95 -12q36 0 65 17l6 -45q-29 -16 -79 -16q-30 0 -71 7.5t-57 7.5q-34 0 -63 -17l-7 44
q55 18 81.5 42.5t41.5 78.5z" />
    <glyph glyph-name="yen.sups" horiz-adv-x="376" 
d="M110 544l7 40h98l-97 242h53l79 -202l151 202h59l-183 -242h98l-7 -40h-102l-9 -48h102l-7 -40h-102l-13 -76h-54l13 76h-102l7 40h102l9 48h-102z" />
    <glyph glyph-name="egrave.sups" horiz-adv-x="334" 
d="M298 733h-38l-65 93h56zM255 704q53 0 80.5 -25.5t27.5 -60.5q0 -45 -45.5 -73.5t-139.5 -28.5q-19 0 -49 2v-5q0 -99 85 -99q51 0 102 31l6 -43q-55 -30 -115 -30q-62 0 -96 35.5t-34 101.5q0 83 50 139t128 56zM251 663q-43 0 -74.5 -30t-42.5 -77q28 -2 46 -2
q133 0 133 61q0 20 -16 34t-46 14z" />
    <glyph glyph-name="florin.sups" horiz-adv-x="286" 
d="M77 587l7 40h95l32 112q14 49 40 72t78 23q27 0 44 -4l-8 -44q-23 4 -36 4q-30 0 -45 -15.5t-24 -45.5l-29 -102h107l-7 -40h-111l-58 -207h-52l58 207h-91z" />
    <glyph glyph-name="Euro.sups" horiz-adv-x="391" 
d="M78 626l7 40h61q24 75 77 121.5t127 46.5q61 0 106 -34l-23 -45q-44 32 -86 32q-53 0 -91 -33t-57 -88h152l-7 -40h-156q-4 -24 -6 -48h153l-7 -40h-146q9 -121 99 -121q50 0 101 39l8 -46q-50 -38 -115 -38q-63 0 -102 43t-43 123h-68l7 40h61q2 24 6 48h-58z" />
    <glyph glyph-name="uni20B1.sups" horiz-adv-x="403" 
d="M85 665l7 40h55l22 121h130q135 0 140 -121h40l-7 -40h-36q-11 -56 -55.5 -86t-117.5 -30h-90l-30 -169h-53l50 285h-55zM214 780l-14 -75h187q-4 75 -91 75h-82zM181 593h85q98 0 117 72h-190z" />
    <glyph glyph-name="uni20B4.sups" horiz-adv-x="356" 
d="M76 626l7 40h231q33 23 33 59q0 29 -19.5 45.5t-54.5 16.5q-56 0 -112 -41l-6 47q58 41 123 41q56 0 89 -29t33 -80q0 -34 -17 -59h36l-7 -40h-75q-16 -9 -37.5 -17.5t-49 -17t-40.5 -13.5h193l-7 -40h-250q-20 -22 -20 -51q0 -33 24 -51.5t65 -18.5q65 0 123 42l7 -46
q-61 -41 -137 -41q-63 0 -99 29.5t-36 84.5q0 28 11 52h-24l7 40h50q22 18 109 48h-150z" />
    <glyph glyph-name="dollar.numr" horiz-adv-x="355" 
d="M154 212l11 62q-68 5 -120 40l23 44q53 -33 105 -37l29 165q-23 10 -37 17.5t-30 20.5t-23.5 31t-7.5 41q0 52 38.5 86.5t100.5 37.5l9 50h36l-9 -50q54 -6 101 -38l-24 -46q-44 30 -86 35l-25 -147q33 -14 51 -24t35 -34t17 -57q0 -56 -40 -92.5t-107 -41.5l-11 -63h-36
zM295 402q0 25 -15.5 40.5t-44.5 29.5l-26 -150q39 5 62.5 27t23.5 53zM156 602q0 -37 55 -64l23 133q-36 -4 -57 -23t-21 -46z" />
    <glyph glyph-name="parenleft.numr" horiz-adv-x="233" 
d="M111 399q0 -129 83 -216l-31 -25q-104 99 -104 240q0 63 18.5 117t52 94.5t63.5 66.5t69 52l21 -33q-172 -115 -172 -296z" />
    <glyph glyph-name="parenright.numr" horiz-adv-x="233" 
d="M186 487q0 129 -83 216l31 25q104 -99 104 -240q0 -63 -18.5 -117t-52 -94.5t-63.5 -66.5t-69 -52l-21 33q172 115 172 296z" />
    <glyph glyph-name="plus.numr" horiz-adv-x="364" 
d="M207 274h-44l24 135h-129l8 46h129l24 135h44l-24 -135h129l-8 -46h-129z" />
    <glyph glyph-name="comma.numr" horiz-adv-x="185" 
d="M60 304q0 15 9 24.5t25 9.5q19 0 31 -14t12 -37q0 -69 -98 -118l-21 32q68 31 80 68q-38 2 -38 35z" />
    <glyph glyph-name="hyphen.numr" horiz-adv-x="258" 
d="M75 445l8 44h174l-8 -44h-174z" />
    <glyph glyph-name="period.numr" horiz-adv-x="188" 
d="M137 302q0 -15 -10 -25.5t-26 -10.5t-26 10.5t-10 25.5t10 25.5t26 10.5t26 -10.5t10 -25.5z" />
    <glyph glyph-name="zero.numr" horiz-adv-x="397" 
d="M218 314q64 0 100.5 65t36.5 157q0 144 -93 144q-64 0 -100.5 -65t-36.5 -157q0 -144 93 -144zM216 266q-66 0 -105 50t-39 143q0 110 53 189.5t139 79.5q66 0 105 -50t39 -143q0 -110 -53 -189.5t-139 -79.5z" />
    <glyph glyph-name="one.numr" horiz-adv-x="231" 
d="M105 619l-11 48l109 53h43l-79 -446h-53l68 383z" />
    <glyph glyph-name="two.numr" horiz-adv-x="357" 
d="M317 609q0 32 -18 51.5t-55 19.5q-69 0 -127 -68l-11 49q58 67 143 67q57 0 89 -31.5t32 -84.5q0 -60 -52 -123t-188 -167h200l-8 -48h-283l6 42q156 116 214 178t58 115z" />
    <glyph glyph-name="three.numr" horiz-adv-x="347" 
d="M238 728q55 0 90 -27t35 -78q0 -89 -111 -122q82 -23 82 -102q0 -61 -48 -97t-124 -36t-133 36l24 44q51 -33 111 -33q52 0 84.5 23.5t32.5 64.5q0 75 -112 75q-8 0 -42 -2l8 47q82 0 129 25.5t47 70.5q0 31 -21.5 47t-57.5 16q-57 0 -111 -39l-7 47q58 40 124 40z" />
    <glyph glyph-name="four.numr" horiz-adv-x="373" 
d="M42 367l8 46l251 307h70l-55 -306h68l-8 -47h-67l-17 -93h-51l16 93h-215zM105 414h160l45 250z" />
    <glyph glyph-name="five.numr" horiz-adv-x="341" 
d="M289 419q0 88 -107 88q-47 0 -100 -16l48 229h244l-8 -48h-195l-27 -125q25 5 50 5q67 0 107.5 -34t40.5 -98q0 -71 -49.5 -112.5t-127.5 -41.5q-73 0 -133 35l25 45q52 -34 108 -34q58 0 91 28t33 79z" />
    <glyph glyph-name="six.numr" horiz-adv-x="369" 
d="M284 728q65 0 112 -32l-26 -43q-40 27 -87 27q-65 0 -105.5 -45.5t-50.5 -122.5q52 53 118 53q56 0 91.5 -36.5t35.5 -99.5q0 -72 -45 -117.5t-108 -45.5q-66 0 -106.5 51.5t-40.5 145.5q0 115 58.5 190t153.5 75zM234 519q-51 0 -110 -55q0 -76 26.5 -114t70.5 -38
q43 0 71 31.5t28 80.5q0 44 -23.5 69.5t-62.5 25.5z" />
    <glyph glyph-name="seven.numr" horiz-adv-x="344" 
d="M106 671l8 49h283l-8 -46q-107 -156 -244 -400h-61q128 229 241 397h-219z" />
    <glyph glyph-name="eight.numr" horiz-adv-x="365" 
d="M197 266q-68 0 -109 31t-41 84q0 50 35 79t97 50q-72 40 -72 99q0 53 42.5 86t105.5 33q58 0 94 -29.5t36 -76.5q0 -73 -109 -113q43 -21 66 -46.5t23 -67.5q0 -59 -47.5 -94t-120.5 -35zM159 614q0 -27 19 -45t56 -37q48 18 73.5 37.5t25.5 51.5q0 29 -22 46t-60 17
q-41 0 -66.5 -19.5t-25.5 -50.5zM199 310q50 0 82 22t32 59q0 18 -7 32.5t-22.5 26.5t-27.5 19t-35 18q-31 -12 -47 -19t-36.5 -20t-29.5 -29t-9 -36q0 -35 27 -54t73 -19z" />
    <glyph glyph-name="nine.numr" horiz-adv-x="369" 
d="M170 266q-65 0 -112 32l26 42q40 -27 87 -27q65 0 106 46t50 123q-50 -53 -118 -53q-56 0 -91.5 36.5t-35.5 99.5q0 72 45 117.5t108 45.5q66 0 106.5 -51.5t40.5 -145.5q0 -115 -58.5 -190t-153.5 -75zM220 474q52 0 110 55q0 76 -26.5 114t-70.5 38q-43 0 -71 -31.5
t-28 -80.5q0 -44 23.5 -69.5t62.5 -25.5z" />
    <glyph glyph-name="equal.numr" horiz-adv-x="364" 
d="M357 391l-8 -44h-302l8 44h302zM379 517l-8 -44h-302l8 44h302z" />
    <glyph glyph-name="n.numr" horiz-adv-x="361" 
d="M53 274l56 316h53l-9 -49q55 57 121 57q35 0 59 -18t24 -55q0 -11 -2 -25l-40 -226h-53l39 220q2 14 2 20q0 37 -45 37q-56 0 -113 -57l-39 -220h-53z" />
    <glyph glyph-name="cent.numr" horiz-adv-x="309" 
d="M88 185l42 98q-70 30 -70 126q0 82 50.5 139t132.5 57q15 0 22 -1l33 77h33l-36 -84q22 -6 37 -16l-22 -42q-15 9 -33 16l-101 -239q5 -1 16 -1q46 0 85 28l7 -43q-38 -27 -96 -27q-20 0 -29 2l-38 -90h-33zM112 410q0 -64 36 -85l99 236h-7q-58 0 -93 -43.5t-35 -107.5z
" />
    <glyph glyph-name="sterling.numr" horiz-adv-x="300" 
d="M149 481h-91l7 40h95l32 112q14 49 40 72t78 23q27 0 44 -4l-8 -44q-23 4 -36 4q-30 0 -45 -15.5t-24 -45.5l-29 -102h107l-7 -40h-111l-19 -67q-18 -62 -60 -92q90 -12 95 -12q36 0 65 17l6 -45q-29 -16 -79 -16q-30 0 -71 7.5t-57 7.5q-34 0 -63 -17l-7 44
q55 18 81.5 42.5t41.5 78.5z" />
    <glyph glyph-name="yen.numr" horiz-adv-x="376" 
d="M91 438l7 40h98l-97 242h53l79 -202l151 202h59l-183 -242h98l-7 -40h-102l-9 -48h102l-7 -40h-102l-13 -76h-54l13 76h-102l7 40h102l9 48h-102z" />
    <glyph glyph-name="florin.numr" horiz-adv-x="288" 
d="M58 481l7 40h95l32 112q14 49 40 72t78 23q27 0 44 -4l-8 -44q-23 4 -36 4q-30 0 -45 -15.5t-24 -45.5l-29 -102h107l-7 -40h-111l-58 -207h-52l58 207h-91z" />
    <glyph glyph-name="Euro.numr" horiz-adv-x="391" 
d="M59 520l7 40h61q24 75 77 121.5t127 46.5q61 0 106 -34l-23 -45q-44 32 -86 32q-53 0 -91 -33t-57 -88h152l-7 -40h-156q-5 -24 -6 -48h153l-7 -40h-146q9 -121 99 -121q50 0 101 39l8 -46q-50 -38 -115 -38q-63 0 -102 43t-43 123h-68l7 40h61q1 24 6 48h-58z" />
    <glyph glyph-name="uni20B1.numr" horiz-adv-x="403" 
d="M66 559l7 40h55l22 121h130q135 0 140 -121h40l-7 -40h-36q-11 -56 -55.5 -86t-117.5 -30h-90l-30 -169h-53l50 285h-55zM195 674l-14 -75h187q-4 75 -91 75h-82zM162 487h85q98 0 117 72h-190z" />
    <glyph glyph-name="uni20B4.numr" horiz-adv-x="356" 
d="M57 520l7 40h231q33 23 33 59q0 29 -19.5 45.5t-54.5 16.5q-56 0 -112 -41l-6 47q58 41 123 41q56 0 89 -29t33 -80q0 -34 -17 -59h36l-7 -40h-75q-16 -9 -37.5 -17.5t-49 -17t-40.5 -13.5h193l-7 -40h-250q-20 -22 -20 -51q0 -33 24 -51.5t65 -18.5q65 0 123 42l7 -46
q-61 -41 -137 -41q-63 0 -99 29.5t-36 84.5q0 28 11 52h-24l7 40h50q22 18 109 48h-150z" />
    <glyph glyph-name="minus.numr" horiz-adv-x="364" 
d="M368 455l-8 -46h-302l8 46h302z" />
    <glyph glyph-name="dollar.dnom" horiz-adv-x="355" 
d="M106 -62l11 62q-68 5 -120 40l23 44q53 -33 105 -37l29 165q-23 10 -37 17.5t-30 20.5t-23.5 31t-7.5 41q0 52 38.5 86.5t100.5 37.5l9 50h36l-9 -50q54 -6 101 -38l-24 -46q-44 30 -86 35l-25 -147q33 -14 51 -24t35 -34t17 -57q0 -56 -40 -92.5t-107 -41.5l-11 -63h-36
zM247 128q0 25 -15.5 40.5t-44.5 29.5l-26 -150q39 5 62.5 27t23.5 53zM108 328q0 -37 55 -64l23 133q-36 -4 -57 -23t-21 -46z" />
    <glyph glyph-name="parenleft.dnom" horiz-adv-x="233" 
d="M63 125q0 -129 83 -216l-31 -25q-104 99 -104 240q0 63 18.5 117t52 94.5t63.5 66.5t69 52l21 -33q-172 -115 -172 -296z" />
    <glyph glyph-name="parenright.dnom" horiz-adv-x="233" 
d="M138 213q0 129 -83 216l31 25q104 -99 104 -240q0 -63 -18.5 -117t-52 -94.5t-63.5 -66.5t-69 -52l-21 33q172 115 172 296z" />
    <glyph glyph-name="plus.dnom" horiz-adv-x="364" 
d="M159 0h-44l24 135h-129l8 46h129l24 135h44l-24 -135h129l-8 -46h-129z" />
    <glyph glyph-name="comma.dnom" horiz-adv-x="185" 
d="M12 30q0 15 9 24.5t25 9.5q19 0 31 -14t12 -37q0 -69 -98 -118l-21 32q68 31 80 68q-38 2 -38 35z" />
    <glyph glyph-name="hyphen.dnom" horiz-adv-x="258" 
d="M27 171l8 44h174l-8 -44h-174z" />
    <glyph glyph-name="period.dnom" horiz-adv-x="188" 
d="M89 28q0 -15 -10 -25.5t-26 -10.5t-26 10.5t-10 25.5t10 25.5t26 10.5t26 -10.5t10 -25.5z" />
    <glyph glyph-name="zero.dnom" horiz-adv-x="397" 
d="M170 40q64 0 100.5 65t36.5 157q0 144 -93 144q-64 0 -100.5 -65t-36.5 -157q0 -144 93 -144zM168 -8q-66 0 -105 50t-39 143q0 110 53 189.5t139 79.5q66 0 105 -50t39 -143q0 -110 -53 -189.5t-139 -79.5z" />
    <glyph glyph-name="one.dnom" horiz-adv-x="231" 
d="M57 345l-11 48l109 53h43l-79 -446h-53l68 383z" />
    <glyph glyph-name="two.dnom" horiz-adv-x="357" 
d="M269 335q0 32 -18 51.5t-55 19.5q-69 0 -127 -68l-11 49q58 67 143 67q57 0 89 -31.5t32 -84.5q0 -60 -52 -123t-188 -167h200l-8 -48h-283l6 42q156 116 214 178t58 115z" />
    <glyph glyph-name="three.dnom" horiz-adv-x="347" 
d="M190 454q55 0 90 -27t35 -78q0 -89 -111 -122q82 -23 82 -102q0 -61 -48 -97t-124 -36t-133 36l24 44q51 -33 111 -33q52 0 84.5 23.5t32.5 64.5q0 75 -112 75q-8 0 -42 -2l8 47q82 0 129 25.5t47 70.5q0 31 -21.5 47t-57.5 16q-57 0 -111 -39l-7 47q58 40 124 40z" />
    <glyph glyph-name="four.dnom" horiz-adv-x="373" 
d="M-6 93l8 46l251 307h70l-55 -306h68l-8 -47h-67l-17 -93h-51l16 93h-215zM57 140h160l45 250z" />
    <glyph glyph-name="five.dnom" horiz-adv-x="341" 
d="M241 145q0 88 -107 88q-47 0 -100 -16l48 229h244l-8 -48h-195l-27 -125q25 5 50 5q67 0 107.5 -34t40.5 -98q0 -71 -49.5 -112.5t-127.5 -41.5q-73 0 -133 35l25 45q52 -34 108 -34q58 0 91 28t33 79z" />
    <glyph glyph-name="six.dnom" horiz-adv-x="369" 
d="M236 454q65 0 112 -32l-26 -43q-40 27 -87 27q-65 0 -105.5 -45.5t-50.5 -122.5q52 53 118 53q56 0 91.5 -36.5t35.5 -99.5q0 -72 -45 -117.5t-108 -45.5q-66 0 -106.5 51.5t-40.5 145.5q0 115 58.5 190t153.5 75zM186 245q-51 0 -110 -55q0 -76 26.5 -114t70.5 -38
q43 0 71 31.5t28 80.5q0 44 -23.5 69.5t-62.5 25.5z" />
    <glyph glyph-name="seven.dnom" horiz-adv-x="344" 
d="M58 397l8 49h283l-8 -46q-107 -156 -244 -400h-61q128 229 241 397h-219z" />
    <glyph glyph-name="eight.dnom" horiz-adv-x="365" 
d="M149 -8q-68 0 -109 31t-41 84q0 50 35 79t97 50q-72 40 -72 99q0 53 42.5 86t105.5 33q58 0 94 -29.5t36 -76.5q0 -73 -109 -113q43 -21 66 -46.5t23 -67.5q0 -59 -47.5 -94t-120.5 -35zM111 340q0 -27 19 -45t56 -37q48 18 73.5 37.5t25.5 51.5q0 29 -22 46t-60 17
q-41 0 -66.5 -19.5t-25.5 -50.5zM151 36q50 0 82 22t32 59q0 18 -7 32.5t-22.5 26.5t-27.5 19t-35 18q-31 -12 -47 -19t-36.5 -20t-29.5 -29t-9 -36q0 -35 27 -54t73 -19z" />
    <glyph glyph-name="nine.dnom" horiz-adv-x="369" 
d="M122 -8q-65 0 -112 32l26 42q40 -27 87 -27q65 0 106 46t50 123q-50 -53 -118 -53q-56 0 -91.5 36.5t-35.5 99.5q0 72 45 117.5t108 45.5q66 0 106.5 -51.5t40.5 -145.5q0 -115 -58.5 -190t-153.5 -75zM172 200q52 0 110 55q0 76 -26.5 114t-70.5 38q-43 0 -71 -31.5
t-28 -80.5q0 -44 23.5 -69.5t62.5 -25.5z" />
    <glyph glyph-name="equal.dnom" horiz-adv-x="364" 
d="M309 117l-8 -44h-302l8 44h302zM331 243l-8 -44h-302l8 44h302z" />
    <glyph glyph-name="n.dnom" horiz-adv-x="352" 
d="M6 0l56 316h53l-9 -49q55 57 121 57q35 0 59 -18t24 -55q0 -11 -2 -25l-40 -226h-53l39 220q2 14 2 20q0 37 -45 37q-56 0 -113 -57l-39 -220h-53z" />
    <glyph glyph-name="cent.dnom" horiz-adv-x="309" 
d="M40 -89l42 98q-70 30 -70 126q0 82 50.5 139t132.5 57q15 0 22 -1l33 77h33l-36 -84q22 -6 37 -16l-22 -42q-15 9 -33 16l-101 -239q5 -1 16 -1q46 0 85 28l7 -43q-38 -27 -96 -27q-20 0 -29 2l-38 -90h-33zM64 136q0 -64 36 -85l99 236h-7q-58 0 -93 -43.5t-35 -107.5z
" />
    <glyph glyph-name="sterling.dnom" horiz-adv-x="300" 
d="M101 207h-91l7 40h95l32 112q14 49 40 72t78 23q27 0 44 -4l-8 -44q-23 4 -36 4q-30 0 -45 -15.5t-24 -45.5l-29 -102h107l-7 -40h-111l-19 -67q-18 -62 -60 -92q90 -12 95 -12q36 0 65 17l6 -45q-29 -16 -79 -16q-30 0 -71 7.5t-57 7.5q-34 0 -63 -17l-7 44
q55 18 81.5 42.5t41.5 78.5z" />
    <glyph glyph-name="yen.dnom" horiz-adv-x="376" 
d="M43 164l7 40h98l-97 242h53l79 -202l151 202h59l-183 -242h98l-7 -40h-102l-9 -48h102l-7 -40h-102l-13 -76h-54l13 76h-102l7 40h102l9 48h-102z" />
    <glyph glyph-name="florin.dnom" horiz-adv-x="288" 
d="M10 207l7 40h95l32 112q14 49 40 72t78 23q27 0 44 -4l-8 -44q-23 4 -36 4q-30 0 -45 -15.5t-24 -45.5l-29 -102h107l-7 -40h-111l-58 -207h-52l58 207h-91z" />
    <glyph glyph-name="Euro.dnom" horiz-adv-x="391" 
d="M11 246l7 40h61q24 75 77 121.5t127 46.5q61 0 106 -34l-23 -45q-44 32 -86 32q-53 0 -91 -33t-57 -88h152l-7 -40h-156q-5 -24 -6 -48h153l-7 -40h-146q9 -121 99 -121q50 0 101 39l8 -46q-50 -38 -115 -38q-63 0 -102 43t-43 123h-68l7 40h61q1 24 6 48h-58z" />
    <glyph glyph-name="uni20B1.dnom" horiz-adv-x="403" 
d="M18 285l7 40h55l22 121h130q135 0 140 -121h40l-7 -40h-36q-11 -56 -55.5 -86t-117.5 -30h-90l-30 -169h-53l50 285h-55zM147 400l-14 -75h187q-4 75 -91 75h-82zM114 213h85q98 0 117 72h-190z" />
    <glyph glyph-name="uni20B4.dnom" horiz-adv-x="356" 
d="M9 246l7 40h231q33 23 33 59q0 29 -19.5 45.5t-54.5 16.5q-56 0 -112 -41l-6 47q58 41 123 41q56 0 89 -29t33 -80q0 -34 -17 -59h36l-7 -40h-75q-16 -9 -37.5 -17.5t-49 -17t-40.5 -13.5h193l-7 -40h-250q-20 -22 -20 -51q0 -33 24 -51.5t65 -18.5q65 0 123 42l7 -46
q-61 -41 -137 -41q-63 0 -99 29.5t-36 84.5q0 28 11 52h-24l7 40h50q22 18 109 48h-150z" />
    <glyph glyph-name="minus.dnom" horiz-adv-x="364" 
d="M320 181l-8 -46h-302l8 46h302z" />
    <glyph glyph-name="space.frac" horiz-adv-x="44" 
 />
    <glyph glyph-name="dollar.osf" horiz-adv-x="542" 
d="M187 -100l17 100q-100 6 -184 61l33 57q83 -55 162 -59l48 271q-36 15 -57.5 26.5t-46.5 30.5t-37 45.5t-12 60.5q0 77 60.5 129t154.5 57l14 81h49l-15 -81q83 -7 159 -58l-33 -58q-71 50 -136 56l-43 -240q38 -16 60 -27.5t49 -32.5t40 -49.5t13 -65.5
q0 -82 -63.5 -138.5t-164.5 -64.5l-18 -101h-49zM413 196q0 42 -27 67.5t-78 47.5l-44 -250q65 9 107 46t42 89zM178 503q0 -37 25 -60.5t72 -44.5l39 220q-60 -6 -98 -37.5t-38 -77.5z" />
    <glyph glyph-name="zero.osf" horiz-adv-x="585" 
d="M269 47q88 0 144 74t56 177q0 87 -41.5 135t-110.5 48q-88 0 -144 -74t-56 -177q0 -87 41.5 -135t110.5 -48zM265 -12q-96 0 -156.5 64t-60.5 176q0 129 77.5 221.5t195.5 92.5q96 0 156.5 -64t60.5 -176q0 -129 -77.5 -221.5t-195.5 -92.5z" />
    <glyph glyph-name="one.osf" horiz-adv-x="353" 
d="M201 0h-68l78 445l-126 -61l-14 63l175 83h48z" />
    <glyph glyph-name="two.osf" horiz-adv-x="501" 
d="M454 393q0 -33 -13 -63t-47.5 -69t-98.5 -88.5t-163 -112.5h286l-10 -60h-405l9 51q217 135 295 206.5t78 133.5q0 41 -27.5 65.5t-80.5 24.5q-101 0 -185 -91l-18 62q83 90 207 90q82 0 127.5 -41t45.5 -108z" />
    <glyph glyph-name="three.osf" horiz-adv-x="486" 
d="M-46 -182l5 59q85 0 151 10t107 26t67 38.5t36 46.5t10 51q0 122 -195 122q-21 0 -61 -3l10 60q135 0 212 39t77 112q0 49 -34.5 75.5t-89.5 26.5q-85 0 -180 -69l-9 61q96 69 196 69q79 0 133 -41.5t54 -113.5q0 -66 -48 -113.5t-137 -70.5q143 -34 143 -157
q0 -47 -22.5 -86t-72 -72t-139.5 -51.5t-213 -18.5z" />
    <glyph glyph-name="four.osf" horiz-adv-x="564" 
d="M-22 0l10 58l394 472h95l-84 -471h105l-11 -59h-104l-26 -150h-69l26 150h-336zM63 59h262l70 399z" />
    <glyph glyph-name="five.osf" horiz-adv-x="505" 
d="M-11 -182l5 59q105 0 181 17.5t116 47t58 63.5t18 74q0 65 -43 98t-123 33q-73 0 -153 -26l72 346h364l-11 -62h-300l-44 -211q49 11 93 11q97 0 155.5 -49t58.5 -139q0 -117 -107.5 -189.5t-339.5 -72.5z" />
    <glyph glyph-name="six.osf" horiz-adv-x="548" 
d="M521 711l3 -62q-343 -72 -398 -293q81 81 187 81q85 0 139 -54t54 -149q0 -109 -69.5 -178t-168.5 -69q-98 0 -158.5 72.5t-60.5 202.5q0 82 27 151t71 116.5t106.5 84.5t127 59.5t140.5 37.5zM299 379q-87 0 -181 -88q-1 -8 -1 -38q0 -96 42.5 -150.5t112.5 -54.5
q71 0 119 52t48 131q0 68 -37.5 108t-102.5 40z" />
    <glyph glyph-name="seven.osf" horiz-adv-x="506" 
d="M111 -150h-82q171 305 380 617h-349l11 63h434l-10 -58q-204 -302 -384 -622z" />
    <glyph glyph-name="eight.osf" horiz-adv-x="573" 
d="M540 535q0 -67 -45 -106t-125 -70q67 -35 103.5 -75t36.5 -102q0 -87 -71.5 -140.5t-180.5 -53.5q-101 0 -161.5 47t-60.5 128q0 42 16 74.5t48.5 56t63 37.5t77.5 31q-112 63 -112 154q0 77 63.5 126.5t155.5 49.5q84 0 138 -42.5t54 -114.5zM473 532q0 47 -36 74.5
t-93 27.5q-62 0 -104.5 -31.5t-42.5 -82.5q0 -43 30 -72t85 -57q77 27 119 58t42 83zM441 180q0 27 -10.5 49.5t-34 41t-43 30t-54.5 29.5q-41 -15 -59.5 -22.5t-50 -23.5t-46 -30.5t-26.5 -37t-12 -49.5q0 -57 43.5 -89.5t113.5 -32.5q76 0 127.5 37.5t51.5 97.5z" />
    <glyph glyph-name="nine.osf" horiz-adv-x="548" 
d="M28 -120q343 72 398 293q-81 -81 -187 -81q-86 0 -139.5 53.5t-53.5 147.5q0 109 69.5 179t168.5 70q98 0 158.5 -72.5t60.5 -202.5q0 -82 -27 -151t-71 -116.5t-106.5 -84.5t-127 -59.5t-140.5 -37.5zM253 150q87 0 181 88v3t0.5 7t0.5 13q0 107 -42.5 163.5
t-112.5 56.5q-71 0 -119 -52t-48 -131q0 -68 37.5 -108t102.5 -40z" />
    <glyph glyph-name="cent.osf" horiz-adv-x="489" 
d="M98 -135l63 149q-117 45 -117 199q0 125 77.5 211t203.5 86q6 0 45 -3l50 118h47l-54 -127q29 -9 61 -31l-29 -55q-31 21 -56 29l-162 -383q8 -1 26 -1q77 0 140 47l11 -57q-65 -47 -159 -47q-21 0 -42 3l-58 -138h-47zM113 216q0 -111 72 -145l161 380q-3 0 -9.5 0.5
t-13.5 0.5q-95 0 -152.5 -68t-57.5 -168z" />
    <glyph glyph-name="sterling.osf" horiz-adv-x="474" 
d="M193 322h-153l10 55h158l47 163q22 76 61 114t120 38q33 0 72 -6l-10 -58q-32 5 -57 5q-51 0 -78.5 -25t-42.5 -79l-44 -152h177l-10 -55h-182l-10 -35q-26 -91 -56 -140.5t-72 -78.5q17 -2 78 -12t91 -10q57 0 105 27l10 -60q-46 -25 -122 -25q-38 0 -106 11.5t-99 11.5
q-60 0 -105 -26l-10 59q50 14 79 27.5t56.5 40.5t46 68.5t37.5 109.5z" />
    <glyph glyph-name="currency.osf" horiz-adv-x="572" 
d="M184 255q0 -43 28.5 -71.5t70.5 -28.5t70.5 28.5t28.5 71.5t-28.5 71.5t-70.5 28.5t-70.5 -28.5t-28.5 -71.5zM432 255q0 -47 -24 -83l86 -87l-40 -42l-88 89q-39 -23 -83 -23t-83 23l-88 -89l-40 42l86 87q-24 36 -24 83t24 83l-86 87l40 42l88 -89q39 23 83 23t83 -23
l88 89l40 -42l-86 -87q24 -36 24 -83z" />
    <glyph glyph-name="yen.osf" horiz-adv-x="574" 
d="M500 308l-10 -55h-170l-14 -80h170l-10 -55h-169l-21 -118h-68l20 118h-168l10 55h168l14 80h-168l10 55h159l-152 372h68l132 -323l245 323h77l-285 -372h162z" />
    <glyph glyph-name="section.osf" horiz-adv-x="584" 
d="M382 692q93 0 174 -51l-31 -57q-74 49 -148 49q-65 0 -118.5 -33t-77.5 -96q44 -5 86 -17.5t85 -37t75 -58t52 -84.5t20 -113q0 -135 -84.5 -210t-208.5 -75q-99 0 -183 50l32 56q79 -49 157 -49q69 0 125.5 33.5t81.5 97.5q-55 6 -106 24.5t-101 53t-80 94.5t-30 139
q0 134 81.5 209t198.5 75zM435 191q0 64 -25.5 113t-68 77t-84.5 43.5t-89 22.5q-2 -11 -2 -35q0 -53 17.5 -96.5t44 -70.5t63.5 -47.5t70.5 -30.5t70.5 -15q3 18 3 39z" />
    <glyph glyph-name="florin.osf" horiz-adv-x="455" 
d="M40 322l10 55h158l47 163q21 76 60.5 114t120.5 38q33 0 72 -6l-10 -58q-32 5 -57 5q-51 0 -78.5 -25t-42.5 -79l-44 -152h177l-10 -55h-182l-90 -322h-68l90 322h-153z" />
    <glyph glyph-name="Euro.osf" horiz-adv-x="605" 
d="M38 379l10 55h102q35 115 114.5 186.5t192.5 71.5q95 0 165 -55l-32 -59q-68 54 -139 54q-85 0 -144.5 -54t-88.5 -144h236l-10 -55h-239q-9 -45 -10 -80h235l-10 -55h-224q6 -97 47 -147t110 -50q81 0 158 61l12 -59q-77 -61 -177 -61q-95 0 -153.5 66t-65.5 190h-113
l10 55h103q1 35 10 80h-99z" />
    <glyph glyph-name="uni20B1.osf" horiz-adv-x="595" 
d="M50 445l10 55h85l32 180h199q95 0 147.5 -46t54.5 -134h63l-10 -55h-58q-15 -84 -81 -131t-174 -47h-145l-48 -267h-68l78 445h-85zM183 326h135q160 0 187 119h-301zM236 620l-22 -120h296q-4 120 -139 120h-135z" />
    <glyph glyph-name="uni20B4.osf" horiz-adv-x="552" 
d="M51 244l10 55h83q17 13 43 26t44 19.5t55 18.5t47 16h-258l10 55h359q52 36 52 94q0 48 -31 75.5t-86 27.5q-85 0 -166 -63l-12 61q83 63 184 63q82 0 131 -43.5t49 -117.5q0 -57 -32 -97h64l-10 -55h-121q-34 -19 -111.5 -45t-98.5 -35h317l-10 -55h-385
q-33 -35 -33 -84q0 -53 36 -83t100 -30q93 0 187 66l12 -59q-93 -66 -207 -66q-91 0 -144 44t-53 126q0 49 20 86h-45z" />
    <glyph glyph-name="dollar.tf" horiz-adv-x="572" 
d="M201 -100l17 100q-100 6 -184 61l33 57q83 -55 162 -59l48 271q-36 15 -57.5 26.5t-46.5 30.5t-37 45.5t-12 60.5q0 77 60.5 129t154.5 57l14 81h49l-15 -81q83 -7 159 -58l-33 -58q-71 50 -136 56l-43 -240q38 -16 60 -27.5t49 -32.5t40 -49.5t13 -65.5
q0 -82 -63.5 -138.5t-164.5 -64.5l-18 -101h-49zM427 196q0 42 -27 67.5t-78 47.5l-44 -250q65 9 107 46t42 89zM192 503q0 -37 25 -60.5t72 -44.5l39 220q-60 -6 -98 -37.5t-38 -77.5z" />
    <glyph glyph-name="zero.tf" horiz-adv-x="572" 
d="M262 -12q-96 0 -153 76t-57 213q0 108 35 202.5t101.5 153.5t151.5 59q96 0 153.5 -76t57.5 -213q0 -108 -35 -202.5t-102 -153.5t-152 -59zM267 48q65 0 115 50t75 130t25 173q0 111 -38 170t-108 59q-65 0 -114.5 -50t-75 -130t-25.5 -173q0 -111 38 -170t108 -59z" />
    <glyph glyph-name="one.tf" horiz-adv-x="572" 
d="M154 513l-15 60l218 107h56l-110 -621h160l-11 -59h-409l11 59h181l95 537z" />
    <glyph glyph-name="two.tf" horiz-adv-x="572" 
d="M458 514q0 53 -32 84.5t-92 31.5q-109 0 -200 -106l-18 64q89 104 223 104q88 0 138 -47.5t50 -125.5q0 -90 -85.5 -192t-307.5 -266h332l-11 -61h-442l8 52q247 181 342 281t95 181z" />
    <glyph glyph-name="three.tf" horiz-adv-x="572" 
d="M20 -32l5 59q85 0 151 10t107 26t67 38.5t36 46.5t10 51q0 122 -195 122q-21 0 -61 -3l10 60q135 0 212 39t77 112q0 49 -34.5 75.5t-89.5 26.5q-85 0 -180 -69l-9 61q96 69 196 69q79 0 133 -41.5t54 -113.5q0 -66 -48 -113.5t-137 -70.5q143 -34 143 -157
q0 -47 -22.5 -86t-72 -72t-139.5 -51.5t-213 -18.5z" />
    <glyph glyph-name="four.tf" horiz-adv-x="572" 
d="M9 150l10 58l394 472h95l-84 -471h105l-11 -59h-104l-26 -150h-69l26 150h-336zM94 209h262l70 399z" />
    <glyph glyph-name="five.tf" horiz-adv-x="572" 
d="M42 -32l5 59q105 0 181 17.5t116 47t58 63.5t18 74q0 65 -43 98t-123 33q-73 0 -153 -26l72 346h364l-11 -62h-300l-44 -211q50 11 93 11q97 0 155.5 -49t58.5 -139q0 -117 -107.5 -189.5t-339.5 -72.5z" />
    <glyph glyph-name="six.tf" horiz-adv-x="572" 
d="M537 711l3 -62q-343 -72 -398 -293q81 81 187 81q85 0 139 -54t54 -149q0 -109 -69.5 -178t-168.5 -69q-98 0 -158.5 72.5t-60.5 202.5q0 82 27 151t71 116.5t106.5 84.5t127 59.5t140.5 37.5zM315 379q-87 0 -181 -88q-1 -8 -1 -38q0 -96 42.5 -150.5t112.5 -54.5
q71 0 119 52t48 131q0 68 -37.5 108t-102.5 40z" />
    <glyph glyph-name="seven.tf" horiz-adv-x="572" 
d="M179 0h-82q171 305 380 617h-349l11 63h434l-10 -58q-204 -302 -384 -622z" />
    <glyph glyph-name="eight.tf" horiz-adv-x="572" 
d="M539 535q0 -67 -45 -106t-125 -70q67 -35 103.5 -75t36.5 -102q0 -87 -71.5 -140.5t-180.5 -53.5q-101 0 -161.5 47t-60.5 128q0 42 16 74.5t48.5 56t63 37.5t77.5 31q-112 63 -112 154q0 77 63.5 126.5t155.5 49.5q84 0 138 -42.5t54 -114.5zM472 532q0 47 -36 74.5
t-93 27.5q-62 0 -104.5 -31.5t-42.5 -82.5q0 -43 30 -72t85 -57q77 27 119 58t42 83zM440 180q0 27 -10.5 49.5t-34 41t-43 30t-54.5 29.5q-41 -15 -59.5 -22.5t-50 -23.5t-46 -30.5t-26.5 -37t-12 -49.5q0 -57 43.5 -89.5t113.5 -32.5q76 0 127.5 37.5t51.5 97.5z" />
    <glyph glyph-name="nine.tf" horiz-adv-x="572" 
d="M62 30q343 72 398 293q-81 -81 -187 -81q-86 0 -139.5 53.5t-53.5 147.5q0 109 69.5 179t168.5 70q98 0 158.5 -72.5t60.5 -202.5q0 -82 -27 -151t-71 -116.5t-106.5 -84.5t-127 -59.5t-140.5 -37.5zM287 300q87 0 181 88v3t0.5 7t0.5 13q0 107 -42.5 163.5t-112.5 56.5
q-71 0 -119 -52t-48 -131q0 -68 37.5 -108t102.5 -40z" />
    <glyph glyph-name="cent.tf" horiz-adv-x="572" 
d="M134 -135l63 149q-117 45 -117 199q0 125 77.5 211t203.5 86q6 0 45 -3l50 118h47l-54 -127q29 -9 61 -31l-29 -55q-31 21 -56 29l-162 -383q8 -1 26 -1q77 0 140 47l11 -57q-65 -47 -159 -47q-21 0 -42 3l-58 -138h-47zM149 216q0 -111 72 -145l161 380q-3 0 -9.5 0.5
t-13.5 0.5q-95 0 -152.5 -68t-57.5 -168z" />
    <glyph glyph-name="sterling.tf" horiz-adv-x="572" 
d="M244 322h-153l10 55h158l47 163q22 76 61 114t120 38q33 0 72 -6l-10 -58q-32 5 -57 5q-51 0 -78.5 -25t-42.5 -79l-44 -152h177l-10 -55h-182l-10 -35q-26 -91 -56 -140.5t-72 -78.5q17 -2 78 -12t91 -10q57 0 105 27l10 -60q-46 -25 -122 -25q-38 0 -106 11.5t-99 11.5
q-60 0 -105 -26l-10 59q50 14 79 27.5t56.5 40.5t46 68.5t37.5 109.5z" />
    <glyph glyph-name="currency.tf" horiz-adv-x="572" 
d="M184 255q0 -43 28.5 -71.5t70.5 -28.5t70.5 28.5t28.5 71.5t-28.5 71.5t-70.5 28.5t-70.5 -28.5t-28.5 -71.5zM432 255q0 -47 -24 -83l86 -87l-40 -42l-88 89q-39 -23 -83 -23t-83 23l-88 -89l-40 42l86 87q-24 36 -24 83t24 83l-86 87l40 42l88 -89q39 23 83 23t83 -23
l88 89l40 -42l-86 -87q24 -36 24 -83z" />
    <glyph glyph-name="yen.tf" horiz-adv-x="572" 
d="M499 308l-10 -55h-170l-14 -80h170l-10 -55h-169l-21 -118h-68l20 118h-168l10 55h168l14 80h-168l10 55h159l-152 372h68l132 -323l245 323h77l-285 -372h162z" />
    <glyph glyph-name="section.tf" horiz-adv-x="572" 
d="M376 692q93 0 174 -51l-31 -57q-74 49 -148 49q-65 0 -118.5 -33t-77.5 -96q44 -5 86 -17.5t85 -37t75 -58t52 -84.5t20 -113q0 -135 -84.5 -210t-208.5 -75q-99 0 -183 50l32 56q79 -49 157 -49q69 0 125.5 33.5t81.5 97.5q-55 6 -106 24.5t-101 53t-80 94.5t-30 139
q0 134 81.5 209t198.5 75zM429 191q0 64 -25.5 113t-68 77t-84.5 43.5t-89 22.5q-2 -11 -2 -35q0 -53 17.5 -96.5t44 -70.5t63.5 -47.5t70.5 -30.5t70.5 -15q3 18 3 39z" />
    <glyph glyph-name="florin.tf" horiz-adv-x="572" 
d="M91 322l10 55h158l47 163q21 76 60.5 114t120.5 38q33 0 72 -6l-10 -58q-32 5 -57 5q-51 0 -78.5 -25t-42.5 -79l-44 -152h177l-10 -55h-182l-90 -322h-68l90 322h-153z" />
    <glyph glyph-name="uni2007.tf" horiz-adv-x="572" 
 />
    <glyph glyph-name="Euro.tf" horiz-adv-x="572" 
d="M27 379l10 55h102q35 115 114.5 186.5t192.5 71.5q95 0 165 -55l-32 -59q-68 54 -139 54q-85 0 -144.5 -54t-88.5 -144h236l-10 -55h-239q-9 -45 -10 -80h235l-10 -55h-224q6 -97 47 -147t110 -50q81 0 158 61l12 -59q-77 -61 -177 -61q-95 0 -153.5 66t-65.5 190h-113
l10 55h103q1 35 10 80h-99z" />
    <glyph glyph-name="uni20B1.tf" horiz-adv-x="572" 
d="M34 445l10 55h85l32 180h199q95 0 147.5 -46t54.5 -134h63l-10 -55h-58q-15 -84 -81 -131t-174 -47h-145l-48 -267h-68l78 445h-85zM167 326h135q160 0 187 119h-301zM220 620l-22 -120h296q-4 120 -139 120h-135z" />
    <glyph glyph-name="uni20B4.tf" horiz-adv-x="572" 
d="M28 244l10 55h83q17 13 43 26t44 19.5t55 18.5t47 16h-258l10 55h359q52 36 52 94q0 48 -31 75.5t-86 27.5q-85 0 -166 -63l-12 61q83 63 184 63q82 0 131 -43.5t49 -117.5q0 -57 -32 -97h64l-10 -55h-121q-34 -19 -111.5 -45t-98.5 -35h317l-10 -55h-385
q-33 -35 -33 -84q0 -53 36 -83t100 -30q93 0 187 66l12 -59q-93 -66 -207 -66q-91 0 -144 44t-53 126q0 49 20 86h-45z" />
    <glyph glyph-name="dollar.tosf" horiz-adv-x="572" 
d="M201 -100l17 100q-100 6 -184 61l33 57q83 -55 162 -59l48 271q-36 15 -57.5 26.5t-46.5 30.5t-37 45.5t-12 60.5q0 77 60.5 129t154.5 57l14 81h49l-15 -81q83 -7 159 -58l-33 -58q-71 50 -136 56l-43 -240q38 -16 60 -27.5t49 -32.5t40 -49.5t13 -65.5
q0 -82 -63.5 -138.5t-164.5 -64.5l-18 -101h-49zM427 196q0 42 -27 67.5t-78 47.5l-44 -250q65 9 107 46t42 89zM192 503q0 -37 25 -60.5t72 -44.5l39 220q-60 -6 -98 -37.5t-38 -77.5z" />
    <glyph glyph-name="zero.tosf" horiz-adv-x="572" 
d="M263 47q88 0 144 74t56 177q0 87 -41.5 135t-110.5 48q-88 0 -144 -74t-56 -177q0 -87 41.5 -135t110.5 -48zM259 -12q-96 0 -156.5 64t-60.5 176q0 129 77.5 221.5t195.5 92.5q96 0 156.5 -64t60.5 -176q0 -129 -77.5 -221.5t-195.5 -92.5z" />
    <glyph glyph-name="one.tosf" horiz-adv-x="572" 
d="M127 363l-15 60l218 107h56l-83 -471h160l-11 -59h-409l11 59h181l68 387z" />
    <glyph glyph-name="two.tosf" horiz-adv-x="572" 
d="M488 393q0 -33 -13 -63t-47.5 -69t-98.5 -88.5t-163 -112.5h286l-10 -60h-405l9 51q217 135 295 206.5t78 133.5q0 41 -27.5 65.5t-80.5 24.5q-101 0 -185 -91l-18 62q83 90 207 90q82 0 127.5 -41t45.5 -108z" />
    <glyph glyph-name="three.tosf" horiz-adv-x="572" 
d="M-6 -182l5 59q85 0 151 10t107 26t67 38.5t36 46.5t10 51q0 122 -195 122q-21 0 -61 -3l10 60q135 0 212 39t77 112q0 49 -34.5 75.5t-89.5 26.5q-85 0 -180 -69l-9 61q96 69 196 69q79 0 133 -41.5t54 -113.5q0 -66 -48 -113.5t-137 -70.5q143 -34 143 -157
q0 -47 -22.5 -86t-72 -72t-139.5 -51.5t-213 -18.5z" />
    <glyph glyph-name="four.tosf" horiz-adv-x="572" 
d="M-13 0l10 58l394 472h95l-84 -471h105l-11 -59h-104l-26 -150h-69l26 150h-336zM72 59h262l70 399z" />
    <glyph glyph-name="five.tosf" horiz-adv-x="572" 
d="M16 -182l5 59q105 0 181 17.5t116 47t58 63.5t18 74q0 65 -43 98t-123 33q-73 0 -153 -26l72 346h364l-11 -62h-300l-44 -211q49 11 93 11q97 0 155.5 -49t58.5 -139q0 -117 -107.5 -189.5t-339.5 -72.5z" />
    <glyph glyph-name="six.tosf" horiz-adv-x="572" 
d="M537 711l3 -62q-343 -72 -398 -293q81 81 187 81q85 0 139 -54t54 -149q0 -109 -69.5 -178t-168.5 -69q-98 0 -158.5 72.5t-60.5 202.5q0 82 27 151t71 116.5t106.5 84.5t127 59.5t140.5 37.5zM315 379q-87 0 -181 -88q-1 -8 -1 -38q0 -96 42.5 -150.5t112.5 -54.5
q71 0 119 52t48 131q0 68 -37.5 108t-102.5 40z" />
    <glyph glyph-name="seven.tosf" horiz-adv-x="572" 
d="M153 -150h-82q171 305 380 617h-349l11 63h434l-10 -58q-204 -302 -384 -622z" />
    <glyph glyph-name="eight.tosf" horiz-adv-x="572" 
d="M539 535q0 -67 -45 -106t-125 -70q67 -35 103.5 -75t36.5 -102q0 -87 -71.5 -140.5t-180.5 -53.5q-101 0 -161.5 47t-60.5 128q0 42 16 74.5t48.5 56t63 37.5t77.5 31q-112 63 -112 154q0 77 63.5 126.5t155.5 49.5q84 0 138 -42.5t54 -114.5zM472 532q0 47 -36 74.5
t-93 27.5q-62 0 -104.5 -31.5t-42.5 -82.5q0 -43 30 -72t85 -57q77 27 119 58t42 83zM440 180q0 27 -10.5 49.5t-34 41t-43 30t-54.5 29.5q-41 -15 -59.5 -22.5t-50 -23.5t-46 -30.5t-26.5 -37t-12 -49.5q0 -57 43.5 -89.5t113.5 -32.5q76 0 127.5 37.5t51.5 97.5z" />
    <glyph glyph-name="nine.tosf" horiz-adv-x="572" 
d="M36 -120q343 72 398 293q-81 -81 -187 -81q-86 0 -139.5 53.5t-53.5 147.5q0 109 69.5 179t168.5 70q98 0 158.5 -72.5t60.5 -202.5q0 -82 -27 -151t-71 -116.5t-106.5 -84.5t-127 -59.5t-140.5 -37.5zM261 150q87 0 181 88v3t0.5 7t0.5 13q0 107 -42.5 163.5
t-112.5 56.5q-71 0 -119 -52t-48 -131q0 -68 37.5 -108t102.5 -40z" />
    <glyph glyph-name="cent.tosf" horiz-adv-x="572" 
d="M134 -135l63 149q-117 45 -117 199q0 125 77.5 211t203.5 86q6 0 45 -3l50 118h47l-54 -127q29 -9 61 -31l-29 -55q-31 21 -56 29l-162 -383q8 -1 26 -1q77 0 140 47l11 -57q-65 -47 -159 -47q-21 0 -42 3l-58 -138h-47zM149 216q0 -111 72 -145l161 380q-3 0 -9.5 0.5
t-13.5 0.5q-95 0 -152.5 -68t-57.5 -168z" />
    <glyph glyph-name="sterling.tosf" horiz-adv-x="572" 
d="M244 322h-153l10 55h158l47 163q22 76 61 114t120 38q33 0 72 -6l-10 -58q-32 5 -57 5q-51 0 -78.5 -25t-42.5 -79l-44 -152h177l-10 -55h-182l-10 -35q-26 -91 -56 -140.5t-72 -78.5q17 -2 78 -12t91 -10q57 0 105 27l10 -60q-46 -25 -122 -25q-38 0 -106 11.5t-99 11.5
q-60 0 -105 -26l-10 59q50 14 79 27.5t56.5 40.5t46 68.5t37.5 109.5z" />
    <glyph glyph-name="currency.tosf" horiz-adv-x="572" 
d="M184 255q0 -43 28.5 -71.5t70.5 -28.5t70.5 28.5t28.5 71.5t-28.5 71.5t-70.5 28.5t-70.5 -28.5t-28.5 -71.5zM432 255q0 -47 -24 -83l86 -87l-40 -42l-88 89q-39 -23 -83 -23t-83 23l-88 -89l-40 42l86 87q-24 36 -24 83t24 83l-86 87l40 42l88 -89q39 23 83 23t83 -23
l88 89l40 -42l-86 -87q24 -36 24 -83z" />
    <glyph glyph-name="yen.tosf" horiz-adv-x="572" 
d="M499 308l-10 -55h-170l-14 -80h170l-10 -55h-169l-21 -118h-68l20 118h-168l10 55h168l14 80h-168l10 55h159l-152 372h68l132 -323l245 323h77l-285 -372h162z" />
    <glyph glyph-name="section.tosf" horiz-adv-x="572" 
d="M376 692q93 0 174 -51l-31 -57q-74 49 -148 49q-65 0 -118.5 -33t-77.5 -96q44 -5 86 -17.5t85 -37t75 -58t52 -84.5t20 -113q0 -135 -84.5 -210t-208.5 -75q-99 0 -183 50l32 56q79 -49 157 -49q69 0 125.5 33.5t81.5 97.5q-55 6 -106 24.5t-101 53t-80 94.5t-30 139
q0 134 81.5 209t198.5 75zM429 191q0 64 -25.5 113t-68 77t-84.5 43.5t-89 22.5q-2 -11 -2 -35q0 -53 17.5 -96.5t44 -70.5t63.5 -47.5t70.5 -30.5t70.5 -15q3 18 3 39z" />
    <glyph glyph-name="florin.tosf" horiz-adv-x="572" 
d="M91 322l10 55h158l47 163q21 76 60.5 114t120.5 38q33 0 72 -6l-10 -58q-32 5 -57 5q-51 0 -78.5 -25t-42.5 -79l-44 -152h177l-10 -55h-182l-90 -322h-68l90 322h-153z" />
    <glyph glyph-name="uni2007.tosf" horiz-adv-x="572" 
 />
    <glyph glyph-name="Euro.tosf" horiz-adv-x="572" 
d="M27 379l10 55h102q35 115 114.5 186.5t192.5 71.5q95 0 165 -55l-32 -59q-68 54 -139 54q-85 0 -144.5 -54t-88.5 -144h236l-10 -55h-239q-9 -45 -10 -80h235l-10 -55h-224q6 -97 47 -147t110 -50q81 0 158 61l12 -59q-77 -61 -177 -61q-95 0 -153.5 66t-65.5 190h-113
l10 55h103q1 35 10 80h-99z" />
    <glyph glyph-name="uni20B1.tosf" horiz-adv-x="572" 
d="M34 445l10 55h85l32 180h199q95 0 147.5 -46t54.5 -134h63l-10 -55h-58q-15 -84 -81 -131t-174 -47h-145l-48 -267h-68l78 445h-85zM167 326h135q160 0 187 119h-301zM220 620l-22 -120h296q-4 120 -139 120h-135z" />
    <glyph glyph-name="uni20B4.tosf" horiz-adv-x="572" 
d="M61 244l10 55h83q17 13 43 26t44 19.5t55 18.5t47 16h-258l10 55h359q52 36 52 94q0 48 -31 75.5t-86 27.5q-85 0 -166 -63l-12 61q83 63 184 63q82 0 131 -43.5t49 -117.5q0 -57 -32 -97h64l-10 -55h-121q-34 -19 -111.5 -45t-98.5 -35h317l-10 -55h-385
q-33 -35 -33 -84q0 -53 36 -83t100 -30q93 0 187 66l12 -59q-93 -66 -207 -66q-91 0 -144 44t-53 126q0 49 20 86h-45z" />
    <glyph glyph-name="f_f.sc" horiz-adv-x="942" 
d="M51 0l97 550h338l-10 -60h-271l-33 -188h243l-10 -58h-243l-43 -244h-68zM522 0l97 550h338l-10 -60h-271l-33 -188h243l-10 -58h-243l-43 -244h-68z" />
    <glyph glyph-name="f_f_i.sc" horiz-adv-x="1220" 
d="M51 0l97 550h338l-10 -60h-271l-33 -188h243l-10 -58h-243l-43 -244h-68zM522 0l97 550h338l-10 -60h-271l-33 -188h243l-10 -58h-243l-43 -244h-68zM1002 0l97 550h68l-97 -550h-68z" />
    <glyph glyph-name="f_f_l.sc" horiz-adv-x="1400" 
d="M51 0l97 550h338l-10 -60h-271l-33 -188h243l-10 -58h-243l-43 -244h-68zM522 0l97 550h338l-10 -60h-271l-33 -188h243l-10 -58h-243l-43 -244h-68zM993 0l97 550h68l-86 -490h262l-10 -60h-331z" />
    <glyph glyph-name="f_i.sc" horiz-adv-x="740" 
d="M51 0l97 550h338l-10 -60h-271l-33 -188h243l-10 -58h-243l-43 -244h-68zM521 0l97 550h68l-97 -550h-68z" />
    <glyph glyph-name="f_l.sc" horiz-adv-x="928" 
d="M51 0l97 550h338l-10 -60h-271l-33 -188h243l-10 -58h-243l-43 -244h-68zM521 0l97 550h68l-86 -490h262l-10 -60h-331z" />
    <glyph glyph-name="exclam.sc" horiz-adv-x="311" 
d="M160 33q0 -20 -12.5 -32.5t-32.5 -12.5t-32.5 12.5t-12.5 32.5t12.5 32.5t32.5 12.5t32.5 -12.5t12.5 -32.5zM112 146l59 404h72l-83 -404h-48z" />
    <glyph glyph-name="numbersign.sc" horiz-adv-x="497" 
d="M486 376l-10 -53h-87l-38 -96h78l-10 -53h-89l-67 -174h-54l67 174h-126l-68 -174h-54l68 174h-77l10 53h87l38 96h-79l10 53h90l67 174h54l-67 -174h126l68 174h54l-68 -174h77zM208 323l-38 -96h127l38 96h-127z" />
    <glyph glyph-name="dollar.sc" horiz-adv-x="479" 
d="M161 -76l13 76q-87 6 -158 50l29 54q70 -42 139 -46l36 206q-31 11 -49 20t-40 24t-32 36.5t-10 50.5q0 63 49.5 106t132.5 48l11 62h46l-11 -62q71 -6 136 -46l-30 -55q-61 39 -116 43l-32 -182q31 -11 50.5 -20.5t42.5 -26t34 -40t11 -54.5q0 -68 -52.5 -114.5
t-140.5 -52.5l-13 -77h-46zM346 161q0 32 -21.5 51t-60.5 35l-33 -187q54 7 84.5 35t30.5 66zM156 403q0 -28 19.5 -45t55.5 -32l29 164q-48 -6 -76 -30t-28 -57z" />
    <glyph glyph-name="percent.sc" horiz-adv-x="655" 
d="M82 0l433 550h65l-433 -550h-65zM200 343q38 0 60 29.5t22 68.5q0 31 -16 51.5t-46 20.5q-38 0 -60 -29.5t-22 -68.5q0 -31 16 -51.5t46 -20.5zM200 301q-52 0 -83 32.5t-31 83.5q0 57 37 98t97 41q52 0 83 -32.5t31 -83.5q0 -57 -37 -98t-97 -41zM442 36q38 0 60 29.5
t22 68.5q0 31 -16 51.5t-46 20.5q-38 0 -60 -29.5t-22 -68.5q0 -31 16 -51.5t46 -20.5zM442 -6q-52 0 -83 32.5t-31 83.5q0 57 37 98t97 41q52 0 83 -32.5t31 -83.5q0 -57 -37 -98t-97 -41z" />
    <glyph glyph-name="ampersand.sc" horiz-adv-x="541" 
d="M456 446q0 -25 -12 -47t-26.5 -36.5t-45 -30.5t-50 -23.5t-57.5 -22.5l104 -156q45 40 89 102l46 -37q-52 -71 -102 -116l46 -68l-55 -38l-42 65q-74 -50 -165 -50q-81 0 -126.5 37.5t-45.5 102.5t43.5 105t120.5 73q-43 68 -43 113q0 60 46.5 101.5t124.5 41.5
q69 0 109.5 -32.5t40.5 -83.5zM189 40q68 0 131 46l-114 175q-61 -25 -94 -54.5t-33 -74.5q0 -41 29 -66.5t81 -25.5zM198 420q0 -31 39 -92q98 37 124 57q33 24 33 56q0 29 -23.5 49t-64.5 20q-48 0 -78 -26t-30 -64z" />
    <glyph glyph-name="parenleft.sc" horiz-adv-x="319" 
d="M107 195q0 -155 114 -269l-39 -31q-141 120 -141 298q0 75 23.5 140t66.5 115t82.5 82.5t92.5 66.5l26 -43q-47 -32 -82 -63t-70 -75t-54 -100t-19 -121z" />
    <glyph glyph-name="parenright.sc" horiz-adv-x="319" 
d="M207 295q0 153 -114 267l36 35q144 -125 144 -302q0 -61 -17.5 -116t-42.5 -95t-63 -78.5t-69.5 -62t-70.5 -48.5l-27 40q46 31 81 63t70 76t54 100.5t19 120.5z" />
    <glyph glyph-name="asterisk.sc" horiz-adv-x="412" 
d="M391 370l-136 11l78 -110l-46 -27l-58 122l-58 -122l-46 27l78 110l-136 -11v54l136 -11l-78 110l46 27l58 -122l58 122l46 -27l-78 -110l136 11v-54z" />
    <glyph glyph-name="slash.sc" horiz-adv-x="463" 
d="M-28 -40l448 600h73l-448 -600h-73z" />
    <glyph glyph-name="zero.sc" horiz-adv-x="532" 
d="M241 45q78 0 128.5 81.5t50.5 193.5q0 87 -32.5 136t-90.5 49q-78 0 -128.5 -81.5t-50.5 -193.5q0 -87 32.5 -136t90.5 -49zM238 -12q-84 0 -135.5 65t-51.5 176q0 135 71.5 234t177.5 99q84 0 135.5 -65t51.5 -176q0 -135 -71.5 -234t-177.5 -99z" />
    <glyph glyph-name="one.sc" horiz-adv-x="323" 
d="M189 470l-100 -48l-14 58l141 70h53l-97 -550h-66z" />
    <glyph glyph-name="two.sc" horiz-adv-x="488" 
d="M110 414l-17 61q76 87 187 87q72 0 115.5 -39t43.5 -103q0 -72 -68 -153.5t-240 -209.5h259l-10 -57h-370l8 49q198 143 276 223.5t78 141.5q0 40 -27 64.5t-73 24.5q-85 0 -162 -89z" />
    <glyph glyph-name="three.sc" horiz-adv-x="466" 
d="M323 154q0 97 -154 97q-12 0 -54 -2l10 56q109 0 171 30.5t62 88.5q0 39 -27.5 60t-73.5 21q-74 0 -150 -52l-10 57q76 52 167 52q71 0 116 -34.5t45 -96.5q0 -111 -149 -150q114 -29 114 -130q0 -75 -62 -119t-160 -44q-99 0 -175 46l31 53q72 -44 146 -44q67 0 110 30
t43 81z" />
    <glyph glyph-name="four.sc" horiz-adv-x="498" 
d="M9 121l10 56l324 373h93l-66 -372h88l-10 -57h-88l-21 -121h-67l21 121h-284zM92 178h212l53 305z" />
    <glyph glyph-name="five.sc" horiz-adv-x="457" 
d="M189 288q-61 0 -128 -19l59 281h319l-10 -57h-257l-33 -156q39 6 68 6q85 0 138.5 -43t53.5 -123q0 -87 -64 -138t-165 -51q-98 0 -171 45l31 54q72 -43 142 -43q71 0 115.5 36t44.5 97q0 55 -37.5 83t-105.5 28z" />
    <glyph glyph-name="six.sc" horiz-adv-x="496" 
d="M274 361q74 0 121 -46.5t47 -125.5q0 -90 -58.5 -145.5t-140.5 -55.5q-85 0 -138.5 64.5t-53.5 182.5q0 143 77.5 235t198.5 92q76 0 145 -40l-31 -54q-63 37 -121 37q-78 0 -131 -55t-67 -149q67 60 152 60zM261 305q-68 0 -144 -64v-5q0 -95 35 -143.5t95 -48.5
q56 0 93 39.5t37 101.5q0 56 -31.5 88t-84.5 32z" />
    <glyph glyph-name="seven.sc" horiz-adv-x="464" 
d="M152 0h-82q149 260 307 490h-284l10 60h369l-10 -55q-162 -235 -310 -495z" />
    <glyph glyph-name="eight.sc" horiz-adv-x="489" 
d="M431 146q0 -72 -61 -115t-156 -43q-89 0 -143 38.5t-54 105.5q0 62 45 97t127 62q-98 45 -98 125q0 65 56.5 105.5t137.5 40.5q74 0 121 -36t47 -95q0 -53 -37.5 -85.5t-106.5 -56.5q57 -25 89.5 -58t32.5 -85zM157 420q0 -33 25 -55t74 -46q64 23 97.5 47t33.5 63
q0 36 -29.5 57.5t-77.5 21.5q-53 0 -88 -24.5t-35 -63.5zM364 145q0 21 -9 38t-29 31.5t-37 23.5t-47 23q-32 -11 -48.5 -17.5t-41 -18.5t-37 -23.5t-22 -28.5t-9.5 -38q0 -43 36 -68.5t96 -25.5q64 0 106 28.5t42 75.5z" />
    <glyph glyph-name="nine.sc" horiz-adv-x="496" 
d="M230 189q-75 0 -122 46t-47 126q0 90 58.5 145.5t140.5 55.5q85 0 138.5 -64.5t53.5 -182.5q0 -143 -77.5 -235t-198.5 -92q-76 0 -145 40l31 53q63 -37 121 -37q78 0 131 55.5t67 149.5q-67 -60 -151 -60zM242 244q68 0 144 64v5q0 95 -35 143.5t-95 48.5
q-56 0 -93 -39.5t-37 -101.5q0 -56 31.5 -88t84.5 -32z" />
    <glyph glyph-name="question.sc" horiz-adv-x="358" 
d="M125 145h-53q-3 16 -3 29q0 34 21 62t50.5 47.5t59.5 38.5t51 45.5t21 57.5q0 40 -30.5 61t-78.5 21q-33 0 -79 -11l9 56q41 10 80 10q73 0 119 -33.5t46 -95.5q0 -34 -16 -63.5t-39.5 -48.5t-51.5 -38.5t-51.5 -35t-39.5 -37.5t-16 -46q0 -10 1 -19zM125 33
q0 -20 -12.5 -32.5t-32.5 -12.5t-32.5 12.5t-12.5 32.5t12.5 32.5t32.5 12.5t32.5 -12.5t12.5 -32.5z" />
    <glyph glyph-name="at.sc" horiz-adv-x="696" 
d="M467 397l-18 -166q-1 -6 -1 -14q0 -72 50 -72q42 0 68.5 42t26.5 106q0 100 -65.5 162.5t-169.5 62.5q-117 0 -192.5 -77.5t-75.5 -195.5q0 -115 71.5 -178.5t180.5 -63.5q75 0 158 32l15 -44q-83 -32 -171 -32q-131 0 -216 75.5t-85 210.5q0 138 88 227.5t227 89.5
q126 0 203.5 -74t77.5 -196q0 -91 -42.5 -140.5t-103.5 -49.5q-77 0 -89 73q-60 -73 -120 -73q-42 0 -67 29t-25 88q0 79 43.5 139.5t131.5 60.5q54 0 100 -22zM293 147q52 0 107 81l15 136q-25 11 -54 11q-33 0 -58 -15t-38 -39t-19 -49t-6 -49q0 -39 15 -57.5t38 -18.5z
" />
    <glyph glyph-name="bracketleft.sc" horiz-adv-x="320" 
d="M227 -45l-9 -53h-194l121 688h194l-9 -53h-128l-103 -582h128z" />
    <glyph glyph-name="backslash.sc" horiz-adv-x="463" 
d="M143 560l244 -600h-65l-244 600h65z" />
    <glyph glyph-name="bracketright.sc" horiz-adv-x="320" 
d="M90 537l9 53h194l-121 -688h-194l9 53h128l103 582h-128z" />
    <glyph glyph-name="grave.sc" horiz-adv-x="500" 
d="M379 615h-55l-103 125h80z" />
    <glyph glyph-name="a.sc" horiz-adv-x="568" 
d="M378 550l109 -550h-67l-27 140h-254l-76 -140h-72l307 550h80zM327 485l-157 -289h212z" />
    <glyph glyph-name="b.sc" horiz-adv-x="557" 
d="M51 0l97 550h185q81 0 125.5 -34t44.5 -99q0 -106 -112 -137q89 -28 89 -120q0 -72 -54 -116t-162 -44h-213zM129 55h133q151 0 151 111q0 43 -27 64.5t-88 21.5h-134zM173 306h118q70 0 107.5 27.5t37.5 76.5q0 83 -111 83h-119z" />
    <glyph glyph-name="c.sc" horiz-adv-x="519" 
d="M55 226q0 140 81.5 238t220.5 98q89 0 156 -46l-30 -56q-61 43 -130 43q-109 0 -169.5 -79.5t-60.5 -194.5q0 -89 38.5 -135.5t109.5 -46.5q78 0 150 52l11 -60q-73 -51 -167 -51q-97 0 -153.5 62t-56.5 176z" />
    <glyph glyph-name="d.sc" horiz-adv-x="602" 
d="M129 59h126q109 0 169.5 75t60.5 180q0 85 -41 130.5t-113 45.5h-126zM255 0h-204l97 550h183q101 0 161.5 -62.5t60.5 -173.5q0 -129 -79.5 -221.5t-218.5 -92.5z" />
    <glyph glyph-name="e.sc" horiz-adv-x="510" 
d="M51 0l97 550h360l-10 -60h-293l-31 -176h258l-10 -58h-258l-35 -197h294l-10 -59h-362z" />
    <glyph glyph-name="f.sc" horiz-adv-x="471" 
d="M51 0l97 550h338l-10 -60h-271l-33 -188h243l-10 -58h-243l-43 -244h-68z" />
    <glyph glyph-name="g.sc" horiz-adv-x="579" 
d="M275 -12q-104 0 -162 61.5t-58 178.5q0 143 83.5 238.5t228.5 95.5q102 0 178 -54l-30 -56q-70 50 -152 50q-115 0 -178 -76.5t-63 -194.5q0 -93 41 -140t118 -47q57 0 120 25l29 162h-124l10 56h190l-44 -248q-87 -51 -187 -51z" />
    <glyph glyph-name="h.sc" horiz-adv-x="612" 
d="M51 0l97 550h68l-41 -234h284l41 234h68l-97 -550h-68l45 256h-284l-45 -256h-68z" />
    <glyph glyph-name="i.sc" horiz-adv-x="278" 
d="M60 0l97 550h68l-97 -550h-68z" />
    <glyph glyph-name="j.sc" horiz-adv-x="355" 
d="M-14 1l10 61q38 -9 71 -9q54 0 79.5 26.5t34.5 79.5l69 391h68l-71 -403q-14 -77 -54.5 -115t-129.5 -38q-48 0 -77 7z" />
    <glyph glyph-name="k.sc" horiz-adv-x="553" 
d="M51 0l97 550h68l-49 -275l307 275h90l-236 -204l158 -346h-72l-137 303l-124 -107l-34 -196h-68z" />
    <glyph glyph-name="l.sc" horiz-adv-x="458" 
d="M51 0l97 550h68l-86 -490h262l-10 -60h-331z" />
    <glyph glyph-name="m.sc" horiz-adv-x="776" 
d="M373 0h-63l-67 339q-22 110 -23 140h-2q-14 -70 -34 -146l-85 -333h-66l146 550h89l64 -340q15 -79 21 -132h2q26 57 68 131l194 341h88l-51 -550h-68l34 324q10 100 20 155h-2q-27 -64 -72 -141z" />
    <glyph glyph-name="n.sc" horiz-adv-x="618" 
d="M51 0l97 550h77l210 -426l75 426h64l-97 -550h-55l-226 460l-81 -460h-64z" />
    <glyph glyph-name="o.sc" horiz-adv-x="609" 
d="M280 47q94 0 152.5 76.5t58.5 187.5q0 91 -42 141.5t-115 50.5q-94 0 -152.5 -76.5t-58.5 -187.5q0 -91 42 -141.5t115 -50.5zM278 -12q-101 0 -162 66t-61 183q0 136 78.5 230.5t202.5 94.5q101 0 162 -66t61 -184q0 -136 -78.5 -230t-202.5 -94z" />
    <glyph glyph-name="p.sc" horiz-adv-x="532" 
d="M51 0l97 550h194q84 0 130.5 -38t46.5 -111q0 -82 -57.5 -127t-161.5 -45h-140l-41 -229h-68zM170 288h136q70 0 107.5 30t37.5 82q0 90 -115 90h-130z" />
    <glyph glyph-name="q.sc" horiz-adv-x="609" 
d="M333 -168q-111 0 -111 101q0 32 10 59q-82 14 -129.5 78t-47.5 167q0 136 78.5 230.5t202.5 94.5q101 0 162 -66t61 -184q0 -134 -77 -227.5t-198 -96.5q-6 -17 -6 -37q0 -35 16.5 -48.5t51.5 -13.5q29 0 85 13l-10 -58q-48 -12 -88 -12zM280 47q94 0 152.5 76.5
t58.5 187.5q0 91 -42 141.5t-115 50.5q-94 0 -152.5 -76.5t-58.5 -187.5q0 -91 42 -141.5t115 -50.5z" />
    <glyph glyph-name="r.sc" horiz-adv-x="582" 
d="M404 0l-110 246h-132l-43 -246h-68l97 550h204q84 0 129 -36t45 -105q0 -67 -42 -108.5t-121 -51.5l114 -249h-73zM172 299h139q73 0 110.5 28.5t37.5 77.5q0 85 -114 85h-139z" />
    <glyph glyph-name="s.sc" horiz-adv-x="496" 
d="M22 38l30 56q77 -47 152 -47q68 0 109.5 32t41.5 78q0 33 -26 56t-63.5 37.5t-74.5 30.5t-63 46t-26 74q0 69 57.5 115t147.5 46q88 0 162 -49l-30 -57q-72 47 -138 47q-57 0 -94 -26.5t-37 -67.5q0 -31 26 -52.5t63 -35t74.5 -30t63.5 -48.5t26 -79q0 -77 -61.5 -126.5
t-160.5 -49.5t-179 50z" />
    <glyph glyph-name="t.sc" horiz-adv-x="472" 
d="M157 0l86 490h-170l10 60h410l-10 -60h-172l-86 -490h-68z" />
    <glyph glyph-name="u.sc" horiz-adv-x="594" 
d="M208 550l-62 -352q-4 -23 -4 -44q0 -107 120 -107q73 0 113 39t55 123l60 341h67l-64 -364q-35 -198 -237 -198q-182 0 -182 163q0 25 6 59l60 340h68z" />
    <glyph glyph-name="v.sc" horiz-adv-x="544" 
d="M190 0l-103 550h66l85 -465l250 465h72l-301 -550h-69z" />
    <glyph glyph-name="w.sc" horiz-adv-x="797" 
d="M488 0l-36 305q-13 104 -13 161h-2q-13 -37 -73 -161l-149 -305h-65l-58 550h66l30 -301q10 -102 11 -157h2q16 47 68 152l151 306h64l36 -305q12 -99 14 -153h2q30 84 62 152l141 306h70l-256 -550h-65z" />
    <glyph glyph-name="x.sc" horiz-adv-x="528" 
d="M-11 0l238 284l-129 266h75l100 -217l180 217h81l-224 -265l139 -285h-75l-110 236l-193 -236h-82z" />
    <glyph glyph-name="y.sc" horiz-adv-x="508" 
d="M175 0l41 232l-138 318h69l110 -252l198 252h79l-250 -318l-41 -232h-68z" />
    <glyph glyph-name="z.sc" horiz-adv-x="511" 
d="M-4 0l9 50l396 440h-302l10 60h399l-9 -51l-396 -440h322l-10 -59h-419z" />
    <glyph glyph-name="braceleft.sc" horiz-adv-x="319" 
d="M34 219l10 54h16q34 0 49.5 12.5t20.5 39.5l30 170q8 46 41 70.5t102 24.5h35l-9 -55h-34q-34 0 -50 -12.5t-21 -39.5l-30 -169q-10 -57 -68 -70q42 -15 42 -63q0 -12 -2 -26l-25 -141q-2 -12 -2 -20q0 -37 53 -37h34l-9 -55h-35q-108 0 -108 90q0 13 3 31l25 142
q2 12 2 17q0 37 -53 37h-17z" />
    <glyph glyph-name="bar.sc" horiz-adv-x="340" 
d="M76 -98l121 688h64l-121 -688h-64z" />
    <glyph glyph-name="braceright.sc" horiz-adv-x="319" 
d="M282 273l-10 -54h-16q-34 0 -49.5 -12.5t-20.5 -39.5l-30 -170q-8 -46 -41 -70.5t-102 -24.5h-35l9 55h34q34 0 50 12.5t21 39.5l30 169q10 57 68 70q-42 15 -42 63q0 12 2 26l25 141q2 12 2 20q0 37 -53 37h-34l9 55h35q108 0 108 -90q0 -13 -3 -31l-25 -142
q-2 -12 -2 -17q0 -37 53 -37h17z" />
    <glyph glyph-name="exclamdown.sc" horiz-adv-x="311" 
d="M157 517q0 20 12.5 32.5t32.5 12.5t32.5 -12.5t12.5 -32.5t-12.5 -32.5t-32.5 -12.5t-32.5 12.5t-12.5 32.5zM205 404l-59 -404h-72l83 404h48z" />
    <glyph glyph-name="cent.sc" horiz-adv-x="414" 
d="M70 -109l52 123q-87 36 -87 155q0 102 63.5 170.5t166.5 68.5q8 0 14 -0.5t10 -0.5l41 95h45l-43 -102q29 -9 54 -25l-27 -51q-26 17 -49 24l-126 -295q7 -1 23 -1q58 0 113 35l9 -52q-53 -35 -130 -35q-25 0 -37 2l-47 -111h-45zM97 175q0 -78 48 -107l122 287h-3
q-75 0 -121 -51.5t-46 -128.5z" />
    <glyph glyph-name="sterling.sc" horiz-adv-x="391" 
d="M208 254l-21 -75q-23 -84 -77 -122q11 -1 37 -5.5t46.5 -7t37.5 -2.5q48 0 88 20l9 -54q-40 -20 -102 -20q-32 0 -86.5 9.5t-79.5 9.5q-46 0 -88 -21l-10 55q75 24 109.5 54.5t53.5 97.5l17 61h-123l9 51h128l37 130q18 66 54.5 96.5t103.5 30.5q28 0 58 -5l-10 -55
q-34 6 -48 6q-40 0 -61.5 -21t-33.5 -63l-34 -119h142l-9 -51h-147z" />
    <glyph glyph-name="currency.sc" horiz-adv-x="572" 
d="M184 255q0 -43 28.5 -71.5t70.5 -28.5t70.5 28.5t28.5 71.5t-28.5 71.5t-70.5 28.5t-70.5 -28.5t-28.5 -71.5zM432 255q0 -47 -24 -83l86 -87l-40 -42l-88 89q-39 -23 -83 -23t-83 23l-88 -89l-40 42l86 87q-24 36 -24 83t24 83l-86 87l40 42l88 -89q39 23 83 23t83 -23
l88 89l40 -42l-86 -87q24 -36 24 -83z" />
    <glyph glyph-name="yen.sc" horiz-adv-x="490" 
d="M63 199l9 51h132l-126 300h67l104 -247l190 247h76l-232 -300h132l-9 -51h-138l-10 -54h138l-9 -51h-138l-16 -94h-67l16 94h-138l9 51h138l10 54h-138z" />
    <glyph glyph-name="section.sc" horiz-adv-x="513" 
d="M321 562q80 0 146 -40l-29 -52q-63 38 -122 38q-51 0 -92.5 -24t-60.5 -70q36 -4 69.5 -13.5t69.5 -28t62 -43.5t43 -64.5t17 -87.5q0 -104 -70.5 -161.5t-169.5 -57.5q-82 0 -154 40l29 50q68 -38 128 -38q54 0 99 24t64 71q-46 5 -87.5 19.5t-82.5 40.5t-65.5 72.5
t-24.5 106.5q0 102 66.5 160t164.5 58zM363 155v18q0 47 -20 83.5t-53.5 57.5t-67.5 32.5t-71 16.5v-16q0 -49 20 -85.5t54 -57.5t67 -32.5t71 -16.5z" />
    <glyph glyph-name="dieresis.sc" horiz-adv-x="500" 
d="M184 657q0 18 12 30.5t31 12.5t31 -12.5t12 -30.5t-12 -30.5t-31 -12.5t-31 12.5t-12 30.5zM370 657q0 18 12 30.5t31 12.5t31 -12.5t12 -30.5t-12 -30.5t-31 -12.5t-31 12.5t-12 30.5z" />
    <glyph glyph-name="copyright.sc" horiz-adv-x="674" 
d="M88 275q0 -106 72.5 -177t175.5 -71q102 0 175 71t73 177t-73 177t-175 71q-103 0 -175.5 -71t-72.5 -177zM623 275q0 -123 -83.5 -205t-203.5 -82t-203.5 82t-83.5 205t83.5 205t203.5 82t203.5 -82t83.5 -205zM415 201l13 -39q-33 -25 -82 -25q-55 0 -87 34t-32 98
q0 66 34 103.5t88 37.5q42 0 77 -24l-11 -43q-38 24 -66 24q-34 0 -54 -24t-20 -71t20.5 -71t56.5 -24q33 0 63 24z" />
    <glyph glyph-name="registered.sc" horiz-adv-x="674" 
d="M623 275q0 -123 -83.5 -205t-203.5 -82t-203.5 82t-83.5 205t83.5 205t203.5 82t203.5 -82t83.5 -205zM88 275q0 -106 72.5 -177t175.5 -71q102 0 175 71t73 177t-73 177t-175 71q-103 0 -175.5 -71t-72.5 -177zM237 142v263h105q46 0 72 -20.5t26 -58.5q0 -58 -57 -75
l67 -109h-52l-63 104h-50v-104h-48zM285 283h52q55 0 55 40t-55 40h-52v-80z" />
    <glyph glyph-name="macron.sc" horiz-adv-x="500" 
d="M174 621l10 56h280l-10 -56h-280z" />
    <glyph glyph-name="degree.sc" horiz-adv-x="405" 
d="M134 421q0 -41 27.5 -68t67.5 -27t67.5 27t27.5 68t-27.5 68t-67.5 27t-67.5 -27t-27.5 -68zM373 421q0 -60 -41.5 -100.5t-102.5 -40.5t-102.5 40.5t-41.5 100.5t41.5 100.5t102.5 40.5t102.5 -40.5t41.5 -100.5z" />
    <glyph glyph-name="acute.sc" horiz-adv-x="500" 
d="M313 615h-59l110 125h92z" />
    <glyph glyph-name="mu.sc" horiz-adv-x="776" 
d="M373 0h-63l-67 339q-22 110 -23 140h-2q-14 -70 -34 -146l-85 -333h-66l146 550h89l64 -340q15 -79 21 -132h2q26 57 68 131l194 341h88l-51 -550h-68l34 324q10 100 20 155h-2q-27 -64 -72 -141z" />
    <glyph glyph-name="paragraph.sc" horiz-adv-x="452" 
d="M353 545h61l-74 -418q-15 -81 -59 -117t-143 -55l-7 54q69 13 104 38.5t45 81.5zM291 545l-59 -333q-81 0 -126.5 41.5t-45.5 111.5q0 81 60.5 130.5t170.5 49.5z" />
    <glyph glyph-name="periodcentered.sc" horiz-adv-x="279" 
d="M194 289q0 -21 -14 -35.5t-36 -14.5t-36 14.5t-14 35.5t14 35.5t36 14.5t36 -14.5t14 -35.5z" />
    <glyph glyph-name="questiondown.sc" horiz-adv-x="358" 
d="M239 405h53q3 -17 3 -29q0 -34 -21 -62t-50.5 -47.5t-59.5 -38.5t-51 -45.5t-21 -57.5q0 -40 30.5 -61t78.5 -21q33 0 79 11l-9 -56q-41 -10 -80 -10q-73 0 -119 33.5t-46 95.5q0 34 16 63.5t39.5 48.5t51.5 38.5t51.5 35t39.5 37.5t16 46q0 10 -1 19zM239 517
q0 20 12.5 32.5t32.5 12.5t32.5 -12.5t12.5 -32.5t-12.5 -32.5t-32.5 -12.5t-32.5 12.5t-12.5 32.5z" />
    <glyph glyph-name="germandbls.sc" horiz-adv-x="973" 
d="M498 38l30 56q77 -47 152 -47q68 0 109.5 32t41.5 78q0 33 -26 56t-63.5 37.5t-74.5 30.5t-63 46t-26 74q0 69 57.5 115t147.5 46q89 0 162 -49l-30 -57q-72 47 -138 47q-57 0 -94 -26.5t-37 -67.5q0 -31 26 -52.5t63 -35t74.5 -30t63.5 -48.5t26 -79q0 -77 -61.5 -126.5
t-160.5 -49.5t-179 50zM22 38l30 56q77 -47 152 -47q68 0 109.5 32t41.5 78q0 33 -26 56t-63.5 37.5t-74.5 30.5t-63 46t-26 74q0 69 57.5 115t147.5 46q88 0 162 -49l-30 -57q-72 47 -138 47q-57 0 -94 -26.5t-37 -67.5q0 -31 26 -52.5t63 -35t74.5 -30t63.5 -48.5t26 -79
q0 -77 -61.5 -126.5t-160.5 -49.5t-179 50z" />
    <glyph glyph-name="agrave.sc" horiz-adv-x="568" 
d="M378 550l109 -550h-67l-27 140h-254l-76 -140h-72l307 550h80zM327 485l-157 -289h212zM413 615h-55l-103 125h80z" />
    <glyph glyph-name="aacute.sc" horiz-adv-x="568" 
d="M378 550l109 -550h-67l-27 140h-254l-76 -140h-72l307 550h80zM327 485l-157 -289h212zM347 615h-59l110 125h92z" />
    <glyph glyph-name="acircumflex.sc" horiz-adv-x="568" 
d="M378 550l109 -550h-67l-27 140h-254l-76 -140h-72l307 550h80zM327 485l-157 -289h212zM258 615h-61l144 125h56l99 -125h-51l-81 68z" />
    <glyph glyph-name="atilde.sc" horiz-adv-x="568" 
d="M378 550l109 -550h-67l-27 140h-254l-76 -140h-72l307 550h80zM327 485l-157 -289h212zM244 614h-46q18 103 90 103q31 0 75 -26.5t62 -26.5q32 0 40 47h46q-18 -103 -90 -103q-31 0 -75 26.5t-62 26.5q-32 0 -40 -47z" />
    <glyph glyph-name="adieresis.sc" horiz-adv-x="568" 
d="M378 550l109 -550h-67l-27 140h-254l-76 -140h-72l307 550h80zM327 485l-157 -289h212zM219 657q0 18 12 30.5t31 12.5t31 -12.5t12 -30.5t-12 -30.5t-31 -12.5t-31 12.5t-12 30.5zM405 657q0 18 12 30.5t31 12.5t31 -12.5t12 -30.5t-12 -30.5t-31 -12.5t-31 12.5
t-12 30.5z" />
    <glyph glyph-name="aring.sc" horiz-adv-x="568" 
d="M431 587q0 -51 -46 -76l102 -511h-67l-27 140h-254l-76 -140h-72l292 523q-28 23 -28 64q0 36 25 61t63 25q37 0 62.5 -25t25.5 -61zM327 485l-157 -289h212zM294 587q0 -20 13.5 -33.5t35.5 -13.5q21 0 34.5 13.5t13.5 33.5t-13.5 33.5t-34.5 13.5q-22 0 -35.5 -13.5
t-13.5 -33.5z" />
    <glyph glyph-name="ae.sc" horiz-adv-x="778" 
d="M344 0l24 140h-203l-103 -140h-80l418 550h376l-10 -60h-268l-31 -176h233l-10 -58h-233l-35 -197h269l-10 -59h-337zM206 196h172l55 307z" />
    <glyph glyph-name="ccedilla.sc" horiz-adv-x="519" 
d="M329 -93q0 -41 -32 -66t-85 -25q-49 0 -95 25l20 43q37 -22 72 -22q29 0 45 13.5t16 33.5q0 41 -63 58l14 25q-78 13 -122 73t-44 160q0 140 81.5 238.5t220.5 98.5q89 0 156 -46l-30 -56q-61 43 -130 43q-109 0 -169.5 -79.5t-60.5 -194.5q0 -89 38.5 -135.5
t109.5 -46.5q78 0 150 52l11 -60q-70 -48 -160 -51q57 -25 57 -81z" />
    <glyph glyph-name="egrave.sc" horiz-adv-x="510" 
d="M51 0l97 550h360l-10 -60h-293l-31 -176h258l-10 -58h-258l-35 -197h294l-10 -59h-362zM406 615h-55l-103 125h80z" />
    <glyph glyph-name="eacute.sc" horiz-adv-x="510" 
d="M51 0l97 550h360l-10 -60h-293l-31 -176h258l-10 -58h-258l-35 -197h294l-10 -59h-362zM340 615h-59l110 125h92z" />
    <glyph glyph-name="ecircumflex.sc" horiz-adv-x="510" 
d="M51 0l97 550h360l-10 -60h-293l-31 -176h258l-10 -58h-258l-35 -197h294l-10 -59h-362zM251 615h-61l144 125h56l99 -125h-51l-81 68z" />
    <glyph glyph-name="edieresis.sc" horiz-adv-x="510" 
d="M51 0l97 550h360l-10 -60h-293l-31 -176h258l-10 -58h-258l-35 -197h294l-10 -59h-362zM211 657q0 18 12 30.5t31 12.5t31 -12.5t12 -30.5t-12 -30.5t-31 -12.5t-31 12.5t-12 30.5zM397 657q0 18 12 30.5t31 12.5t31 -12.5t12 -30.5t-12 -30.5t-31 -12.5t-31 12.5
t-12 30.5z" />
    <glyph glyph-name="igrave.sc" horiz-adv-x="278" 
d="M60 0l97 550h68l-97 -550h-68zM268 615h-55l-103 125h80z" />
    <glyph glyph-name="iacute.sc" horiz-adv-x="278" 
d="M60 0l97 550h68l-97 -550h-68zM202 615h-59l110 125h92z" />
    <glyph glyph-name="icircumflex.sc" horiz-adv-x="278" 
d="M60 0l97 550h68l-97 -550h-68zM113 615h-61l144 125h56l99 -125h-51l-81 68z" />
    <glyph glyph-name="idieresis.sc" horiz-adv-x="278" 
d="M60 0l97 550h68l-97 -550h-68zM74 657q0 18 12 30.5t31 12.5t31 -12.5t12 -30.5t-12 -30.5t-31 -12.5t-31 12.5t-12 30.5zM260 657q0 18 12 30.5t31 12.5t31 -12.5t12 -30.5t-12 -30.5t-31 -12.5t-31 12.5t-12 30.5z" />
    <glyph glyph-name="eth.sc" horiz-adv-x="602" 
d="M12 257l10 56h84l42 237h183q101 0 161.5 -62.5t60.5 -173.5q0 -129 -79.5 -221.5t-218.5 -92.5h-204l45 257h-84zM129 59h126q109 0 169.5 75t60.5 180q0 85 -41 130.5t-113 45.5h-126l-31 -177h160l-10 -56h-160z" />
    <glyph glyph-name="ntilde.sc" horiz-adv-x="618" 
d="M51 0l97 550h77l210 -426l75 426h64l-97 -550h-55l-226 460l-81 -460h-64zM269 614h-46q18 103 90 103q31 0 75 -26.5t62 -26.5q32 0 40 47h46q-18 -103 -90 -103q-31 0 -75 26.5t-62 26.5q-32 0 -40 -47z" />
    <glyph glyph-name="ograve.sc" horiz-adv-x="609" 
d="M280 47q94 0 152.5 76.5t58.5 187.5q0 91 -42 141.5t-115 50.5q-94 0 -152.5 -76.5t-58.5 -187.5q0 -91 42 -141.5t115 -50.5zM278 -12q-101 0 -162 66t-61 183q0 136 78.5 230.5t202.5 94.5q101 0 162 -66t61 -184q0 -136 -78.5 -230t-202.5 -94zM424 615h-55l-103 125
h80z" />
    <glyph glyph-name="oacute.sc" horiz-adv-x="609" 
d="M280 47q94 0 152.5 76.5t58.5 187.5q0 91 -42 141.5t-115 50.5q-94 0 -152.5 -76.5t-58.5 -187.5q0 -91 42 -141.5t115 -50.5zM278 -12q-101 0 -162 66t-61 183q0 136 78.5 230.5t202.5 94.5q101 0 162 -66t61 -184q0 -136 -78.5 -230t-202.5 -94zM358 615h-59l110 125
h92z" />
    <glyph glyph-name="ocircumflex.sc" horiz-adv-x="609" 
d="M280 47q94 0 152.5 76.5t58.5 187.5q0 91 -42 141.5t-115 50.5q-94 0 -152.5 -76.5t-58.5 -187.5q0 -91 42 -141.5t115 -50.5zM278 -12q-101 0 -162 66t-61 183q0 136 78.5 230.5t202.5 94.5q101 0 162 -66t61 -184q0 -136 -78.5 -230t-202.5 -94zM269 615h-61l144 125
h56l99 -125h-51l-81 68z" />
    <glyph glyph-name="otilde.sc" horiz-adv-x="609" 
d="M280 47q94 0 152.5 76.5t58.5 187.5q0 91 -42 141.5t-115 50.5q-94 0 -152.5 -76.5t-58.5 -187.5q0 -91 42 -141.5t115 -50.5zM278 -12q-101 0 -162 66t-61 183q0 136 78.5 230.5t202.5 94.5q101 0 162 -66t61 -184q0 -136 -78.5 -230t-202.5 -94zM255 614h-46
q18 103 90 103q31 0 75 -26.5t62 -26.5q32 0 40 47h46q-18 -103 -90 -103q-31 0 -75 26.5t-62 26.5q-32 0 -40 -47z" />
    <glyph glyph-name="odieresis.sc" horiz-adv-x="609" 
d="M280 47q94 0 152.5 76.5t58.5 187.5q0 91 -42 141.5t-115 50.5q-94 0 -152.5 -76.5t-58.5 -187.5q0 -91 42 -141.5t115 -50.5zM278 -12q-101 0 -162 66t-61 183q0 136 78.5 230.5t202.5 94.5q101 0 162 -66t61 -184q0 -136 -78.5 -230t-202.5 -94zM229 657q0 18 12 30.5
t31 12.5t31 -12.5t12 -30.5t-12 -30.5t-31 -12.5t-31 12.5t-12 30.5zM415 657q0 18 12 30.5t31 12.5t31 -12.5t12 -30.5t-12 -30.5t-31 -12.5t-31 12.5t-12 30.5z" />
    <glyph glyph-name="oslash.sc" horiz-adv-x="609" 
d="M121 239q0 -52 14 -92l322 299q-43 59 -123 59q-95 0 -154 -77t-59 -189zM280 45q95 0 154 77t59 189q0 51 -14 91l-322 -299q43 -58 123 -58zM278 -12q-107 0 -167 72l-78 -72l-31 35l82 77q-29 56 -29 136q0 137 78.5 231.5t202.5 94.5q107 0 168 -73l78 73l31 -35
l-84 -78q30 -58 30 -138q0 -135 -78.5 -229t-202.5 -94z" />
    <glyph glyph-name="ugrave.sc" horiz-adv-x="594" 
d="M208 550l-62 -352q-4 -23 -4 -44q0 -107 120 -107q73 0 113 39t55 123l60 341h67l-64 -364q-35 -198 -237 -198q-182 0 -182 163q0 25 6 59l60 340h68zM426 615h-55l-103 125h80z" />
    <glyph glyph-name="uacute.sc" horiz-adv-x="594" 
d="M208 550l-62 -352q-4 -23 -4 -44q0 -107 120 -107q73 0 113 39t55 123l60 341h67l-64 -364q-35 -198 -237 -198q-182 0 -182 163q0 25 6 59l60 340h68zM360 615h-59l110 125h92z" />
    <glyph glyph-name="ucircumflex.sc" horiz-adv-x="594" 
d="M208 550l-62 -352q-4 -23 -4 -44q0 -107 120 -107q73 0 113 39t55 123l60 341h67l-64 -364q-35 -198 -237 -198q-182 0 -182 163q0 25 6 59l60 340h68zM271 615h-61l144 125h56l99 -125h-51l-81 68z" />
    <glyph glyph-name="udieresis.sc" horiz-adv-x="594" 
d="M208 550l-62 -352q-4 -23 -4 -44q0 -107 120 -107q73 0 113 39t55 123l60 341h67l-64 -364q-35 -198 -237 -198q-182 0 -182 163q0 25 6 59l60 340h68zM232 657q0 18 12 30.5t31 12.5t31 -12.5t12 -30.5t-12 -30.5t-31 -12.5t-31 12.5t-12 30.5zM418 657q0 18 12 30.5
t31 12.5t31 -12.5t12 -30.5t-12 -30.5t-31 -12.5t-31 12.5t-12 30.5z" />
    <glyph glyph-name="yacute.sc" horiz-adv-x="508" 
d="M175 0l41 232l-138 318h69l110 -252l198 252h79l-250 -318l-41 -232h-68zM317 615h-59l110 125h92z" />
    <glyph glyph-name="thorn.sc" horiz-adv-x="532" 
d="M51 0l97 550h68l-12 -70h125q84 0 130.5 -38t46.5 -111q0 -82 -57.5 -127t-161.5 -45h-140l-28 -159h-68zM157 218h136q70 0 107.5 30t37.5 82q0 90 -115 90h-130z" />
    <glyph glyph-name="ydieresis.sc" horiz-adv-x="508" 
d="M175 0l41 232l-138 318h69l110 -252l198 252h79l-250 -318l-41 -232h-68zM189 657q0 18 12 30.5t31 12.5t31 -12.5t12 -30.5t-12 -30.5t-31 -12.5t-31 12.5t-12 30.5zM375 657q0 18 12 30.5t31 12.5t31 -12.5t12 -30.5t-12 -30.5t-31 -12.5t-31 12.5t-12 30.5z" />
    <glyph glyph-name="dotlessi.sc" horiz-adv-x="278" 
d="M60 0l97 550h68l-97 -550h-68z" />
    <glyph glyph-name="ij.sc" horiz-adv-x="623" 
d="M60 0l97 550h68l-97 -550h-68zM254 1l10 61q38 -9 71 -9q54 0 79.5 26.5t34.5 79.5l69 391h68l-71 -403q-14 -77 -54.5 -115t-129.5 -38q-48 0 -77 7z" />
    <glyph glyph-name="lslash.sc" horiz-adv-x="458" 
d="M5 219l10 57l88 21l45 253h68l-42 -235l176 43l-10 -57l-176 -43l-34 -198h262l-10 -60h-331l42 240z" />
    <glyph glyph-name="oe.sc" horiz-adv-x="788" 
d="M55 229q0 139 81 236t220 97q48 0 101 -12h329l-10 -60h-268l-31 -176h233l-10 -58h-233l-35 -197h269l-10 -59h-331q-53 -12 -93 -12q-99 0 -155.5 63.5t-56.5 177.5zM274 47q44 0 91 15l75 427q-45 14 -89 14q-108 0 -168 -78.5t-60 -192.5q0 -90 39 -137.5t112 -47.5z
" />
    <glyph glyph-name="scaron.sc" horiz-adv-x="496" 
d="M22 38l30 56q77 -47 152 -47q68 0 109.5 32t41.5 78q0 33 -26 56t-63.5 37.5t-74.5 30.5t-63 46t-26 74q0 69 57.5 115t147.5 46q88 0 162 -49l-30 -57q-72 47 -138 47q-57 0 -94 -26.5t-37 -67.5q0 -31 26 -52.5t63 -35t74.5 -30t63.5 -48.5t26 -79q0 -77 -61.5 -126.5
t-160.5 -49.5t-179 50zM422 740h61l-144 -125h-56l-99 125h51l81 -68z" />
    <glyph glyph-name="zcaron.sc" horiz-adv-x="511" 
d="M-4 0l9 50l396 440h-302l10 60h399l-9 -51l-396 -440h322l-10 -59h-419zM424 740h61l-144 -125h-56l-99 125h51l81 -68z" />
    <glyph glyph-name="longs.sc" horiz-adv-x="496" 
d="M22 38l30 56q77 -47 152 -47q68 0 109.5 32t41.5 78q0 33 -26 56t-63.5 37.5t-74.5 30.5t-63 46t-26 74q0 69 57.5 115t147.5 46q88 0 162 -49l-30 -57q-72 47 -138 47q-57 0 -94 -26.5t-37 -67.5q0 -31 26 -52.5t63 -35t74.5 -30t63.5 -48.5t26 -79q0 -77 -61.5 -126.5
t-160.5 -49.5t-179 50z" />
    <glyph glyph-name="florin.sc" horiz-adv-x="373" 
d="M409 557l-10 -55q-34 6 -48 6q-40 0 -61.5 -21t-33.5 -63l-34 -119h142l-9 -51h-147l-71 -254h-66l71 254h-123l9 51h128l37 130q18 66 54.5 96.5t103.5 30.5q28 0 58 -5z" />
    <glyph glyph-name="gravecomb.sc" horiz-adv-x="1" 
d="M-96 615h-55l-103 125h80z" />
    <glyph glyph-name="acutecomb.sc" horiz-adv-x="1" 
d="M-162 615h-59l110 125h92z" />
    <glyph glyph-name="uni0302.sc" horiz-adv-x="1" 
d="M-251 615h-61l144 125h56l99 -125h-51l-81 68z" />
    <glyph glyph-name="tildecomb.sc" horiz-adv-x="1" 
d="M-265 614h-46q18 103 90 103q31 0 75 -26.5t62 -26.5q32 0 40 47h46q-18 -103 -90 -103q-31 0 -75 26.5t-62 26.5q-32 0 -40 -47z" />
    <glyph glyph-name="uni0304.sc" horiz-adv-x="1" 
d="M-255 621l10 56h280l-10 -56h-280z" />
    <glyph glyph-name="uni0306.sc" horiz-adv-x="1" 
d="M-110 615q-130 0 -130 97q0 14 3 28h46q0 -37 18 -53t67 -16t73 16.5t36 52.5h46q-22 -125 -159 -125z" />
    <glyph glyph-name="uni0307.sc" horiz-adv-x="1" 
d="M-63 658q0 -20 -13 -33t-33 -13t-33 13t-13 33t13 33t33 13t33 -13t13 -33z" />
    <glyph glyph-name="uni0308.sc" horiz-adv-x="1" 
d="M-244 657q0 18 12 30.5t31 12.5t31 -12.5t12 -30.5t-12 -30.5t-31 -12.5t-31 12.5t-12 30.5zM-58 657q0 18 12 30.5t31 12.5t31 -12.5t12 -30.5t-12 -30.5t-31 -12.5t-31 12.5t-12 30.5z" />
    <glyph glyph-name="uni030A.sc" horiz-adv-x="1" 
d="M-152 689q0 -20 13.5 -33.5t34.5 -13.5t34.5 13.5t13.5 33.5t-13.5 33.5t-34.5 13.5t-34.5 -13.5t-13.5 -33.5zM-17 689q0 -36 -25 -61t-62 -25t-62 25t-25 61t25 61t62 25t62 -25t25 -61z" />
    <glyph glyph-name="uni030B.sc" horiz-adv-x="1" 
d="M-193 615h-59l110 125h92zM-48 615h-59l110 125h92z" />
    <glyph glyph-name="uni030C.sc" horiz-adv-x="1" 
d="M-13 740h61l-144 -125h-56l-99 125h51l81 -68z" />
    <glyph glyph-name="uni0326.sc" horiz-adv-x="1" 
d="M-310 -167q54 23 70 53q-19 0 -30.5 11.5t-11.5 29.5t11.5 29.5t31.5 11.5q23 0 37.5 -15t14.5 -42q0 -70 -103 -116z" />
    <glyph glyph-name="uni0327.sc" horiz-adv-x="1" 
d="M-140 -92q0 -42 -32 -67t-85 -25q-49 0 -95 25l20 43q37 -22 72 -22q29 0 45 13.5t16 33.5q0 41 -63 58l19 34q47 -7 75 -31t28 -62z" />
    <glyph glyph-name="uni0328.sc" horiz-adv-x="1" 
d="M-259 -105q0 -33 39 -33q17 0 36 5l4 -47q-19 -4 -46 -4q-44 0 -68 18.5t-24 53.5q0 73 101 112h68q-60 -28 -85 -52.5t-25 -52.5z" />
    <glyph glyph-name="uni03BC.sc" horiz-adv-x="776" 
d="M373 0h-63l-67 339q-22 110 -23 140h-2q-14 -70 -34 -146l-85 -333h-66l146 550h89l64 -340q15 -79 21 -132h2q26 57 68 131l194 341h88l-51 -550h-68l34 324q10 100 20 155h-2q-27 -64 -72 -141z" />
    <glyph glyph-name="pi.sc" horiz-adv-x="612" 
d="M51 0l97 550h420l-97 -550h-68l87 491h-284l-87 -491h-68z" />
    <glyph glyph-name="dagger.sc" horiz-adv-x="508" 
d="M169 -44l75 384l-150 -7l10 57l148 -6l21 161h64l-35 -161l150 6l-10 -57l-148 7l-59 -384h-66z" />
    <glyph glyph-name="daggerdbl.sc" horiz-adv-x="508" 
d="M297 360l-38 -218l150 7l-10 -57l-148 6l-18 -141h-64l32 141l-150 -6l10 57l148 -7l38 218l-150 -7l10 57l148 -6l18 141h64l-32 -141l150 6l-10 -57z" />
    <glyph glyph-name="bullet.sc" horiz-adv-x="458" 
d="M346 276q0 -50 -32.5 -82t-82.5 -32t-82.5 32t-32.5 82t32.5 82t82.5 32t82.5 -32t32.5 -82z" />
    <glyph glyph-name="perthousand.sc" horiz-adv-x="952" 
d="M735 36q38 0 60 29.5t22 68.5q0 31 -16 51.5t-46 20.5q-38 0 -60 -29.5t-22 -68.5q0 -31 16 -51.5t46 -20.5zM735 -6q-52 0 -83 32.5t-31 83.5q0 57 37 98t97 41q52 0 83 -32.5t31 -83.5q0 -57 -37 -98t-97 -41zM82 0l433 550h65l-433 -550h-65zM200 343q38 0 60 29.5
t22 68.5q0 31 -16 51.5t-46 20.5q-38 0 -60 -29.5t-22 -68.5q0 -31 16 -51.5t46 -20.5zM200 301q-52 0 -83 32.5t-31 83.5q0 57 37 98t97 41q52 0 83 -32.5t31 -83.5q0 -57 -37 -98t-97 -41zM442 36q38 0 60 29.5t22 68.5q0 31 -16 51.5t-46 20.5q-38 0 -60 -29.5t-22 -68.5
q0 -31 16 -51.5t46 -20.5zM442 -6q-52 0 -83 32.5t-31 83.5q0 57 37 98t97 41q52 0 83 -32.5t31 -83.5q0 -57 -37 -98t-97 -41z" />
    <glyph glyph-name="exclamdbl.sc" horiz-adv-x="524" 
d="M373 33q0 -20 -12.5 -32.5t-32.5 -12.5t-32.5 12.5t-12.5 32.5t12.5 32.5t32.5 12.5t32.5 -12.5t12.5 -32.5zM325 146l59 404h72l-83 -404h-48zM160 33q0 -20 -12.5 -32.5t-32.5 -12.5t-32.5 12.5t-12.5 32.5t12.5 32.5t32.5 12.5t32.5 -12.5t12.5 -32.5zM112 146l59 404
h72l-83 -404h-48z" />
    <glyph glyph-name="Euro.sc" horiz-adv-x="522" 
d="M29 300l9 51h77q30 94 97.5 152.5t161.5 58.5q81 0 137 -45l-29 -53q-51 41 -110 41q-70 0 -118.5 -42t-71.5 -112h199l-9 -51h-203q-6 -36 -7 -54h200l-9 -51h-190q5 -74 37.5 -113t88.5 -39q63 0 131 50l10 -57q-65 -48 -147 -48t-132 54t-56 153h-85l9 51h76
q1 18 7 54h-73z" />
    <glyph glyph-name="uni20B1.sc" horiz-adv-x="548" 
d="M34 353l9 51h88l26 146h179q80 0 125.5 -37.5t49.5 -108.5h64l-9 -51h-59q-13 -68 -69.5 -106t-147.5 -38h-126l-36 -209h-68l62 353h-88zM174 264h120q120 0 144 89h-248zM215 493l-16 -89h243q-6 89 -111 89h-116z" />
    <glyph glyph-name="uni20B4.sc" horiz-adv-x="495" 
d="M29 300l9 51h302q51 30 51 78q0 35 -25.5 55.5t-71.5 20.5q-72 0 -146 -51l-10 58q74 50 163 50q73 0 115 -35t42 -96q0 -47 -27 -80h61l-9 -51h-118q-26 -13 -85.5 -32.5t-64.5 -21.5h258l-9 -51h-332q-29 -27 -29 -66q0 -41 30 -63.5t83 -22.5q76 0 162 54l10 -56
q-84 -53 -178 -53q-80 0 -127 36t-47 103q0 38 16 68h-42l9 51h79q23 17 125 54h-194z" />
    <glyph glyph-name="uni2116.sc" horiz-adv-x="894" 
d="M727 325q38 0 60 29.5t22 68.5q0 31 -16 51.5t-46 20.5q-38 0 -60 -29.5t-22 -68.5q0 -31 16 -51.5t46 -20.5zM727 283q-52 0 -83 32.5t-31 83.5q0 57 37 98t97 41q52 0 83 -32.5t31 -83.5q0 -57 -37 -98t-97 -41zM51 0l97 550h77l210 -426l75 426h64l-97 -550h-55
l-226 460l-81 -460h-64z" />
    <glyph glyph-name="uni2117.sc" horiz-adv-x="674" 
d="M250 142v263h101q48 0 74.5 -21t26.5 -62q0 -83 -103 -83h-51v-97h-48zM298 280h51q55 0 55 41t-55 41h-51v-82zM88 275q0 -106 72.5 -177t175.5 -71q102 0 175 71t73 177t-73 177t-175 71q-103 0 -175.5 -71t-72.5 -177zM623 275q0 -123 -83.5 -205t-203.5 -82
t-203.5 82t-83.5 205t83.5 205t203.5 82t203.5 -82t83.5 -205z" />
    <glyph glyph-name="uniFB00.sc" horiz-adv-x="942" 
d="M51 0l97 550h338l-10 -60h-271l-33 -188h243l-10 -58h-243l-43 -244h-68zM522 0l97 550h338l-10 -60h-271l-33 -188h243l-10 -58h-243l-43 -244h-68z" />
    <glyph glyph-name="fi.sc" horiz-adv-x="740" 
d="M51 0l97 550h338l-10 -60h-271l-33 -188h243l-10 -58h-243l-43 -244h-68zM521 0l97 550h68l-97 -550h-68z" />
    <glyph glyph-name="fl.sc" horiz-adv-x="928" 
d="M51 0l97 550h338l-10 -60h-271l-33 -188h243l-10 -58h-243l-43 -244h-68zM521 0l97 550h68l-86 -490h262l-10 -60h-331z" />
    <glyph glyph-name="uniFB03.sc" horiz-adv-x="1220" 
d="M51 0l97 550h338l-10 -60h-271l-33 -188h243l-10 -58h-243l-43 -244h-68zM522 0l97 550h338l-10 -60h-271l-33 -188h243l-10 -58h-243l-43 -244h-68zM1002 0l97 550h68l-97 -550h-68z" />
    </font>
</defs>
</svg>
